<?xml version="1.0" encoding="UTF-8" standalone="no"?><svg xmlns="http://www.w3.org/2000/svg" xmlns:xlink="http://www.w3.org/1999/xlink" contentScriptType="application/ecmascript" contentStyleType="text/css" height="335px" preserveAspectRatio="none" style="width:462px;height:335px;" version="1.1" viewBox="0 0 462 335" width="462px" zoomAndPan="magnify"><defs><filter height="300%" id="fo3wfa5tl65vn" width="300%" x="-1" y="-1"><feGaussianBlur result="blurOut" stdDeviation="2.0"/><feColorMatrix in="blurOut" result="blurOut2" type="matrix" values="0 0 0 0 0 0 0 0 0 0 0 0 0 0 0 0 0 0 .4 0"/><feOffset dx="4.0" dy="4.0" in="blurOut2" result="blurOut3"/><feBlend in="SourceGraphic" in2="blurOut3" mode="normal"/></filter></defs><g><!--MD5=[c2e276049abfe145c9906edb061abd32]
cluster edu.oakland.production.database--><polygon fill="#FFFFFF" filter="url(#fo3wfa5tl65vn)" points="22,24,292,24,299,46.2969,440,46.2969,440,323,22,323,22,24" style="stroke: #000000; stroke-width: 1.5;"/><line style="stroke: #000000; stroke-width: 1.5;" x1="22" x2="299" y1="46.2969" y2="46.2969"/><text fill="#000000" font-family="sans-serif" font-size="14" font-weight="bold" lengthAdjust="spacingAndGlyphs" textLength="264" x="26" y="38.9951">edu.oakland.production.database</text><!--MD5=[e62c039a107b929dc588966558a86fd5]
class DatabaseCommManagerImplementation--><rect fill="#FEFECE" filter="url(#fo3wfa5tl65vn)" height="248.0703" id="DatabaseCommManagerImplementation" style="stroke: #A80036; stroke-width: 1.5;" width="385" x="38.5" y="59"/><ellipse cx="101.25" cy="75" fill="#ADD1B2" rx="11" ry="11" style="stroke: #A80036; stroke-width: 1.0;"/><path d="M104.2188,80.6406 Q103.6406,80.9375 103,81.0781 Q102.3594,81.2344 101.6563,81.2344 Q99.1563,81.2344 97.8281,79.5938 Q96.5156,77.9375 96.5156,74.8125 Q96.5156,71.6875 97.8281,70.0313 Q99.1563,68.375 101.6563,68.375 Q102.3594,68.375 103,68.5313 Q103.6563,68.6875 104.2188,68.9844 L104.2188,71.7031 Q103.5938,71.125 103,70.8594 Q102.4063,70.5781 101.7813,70.5781 Q100.4375,70.5781 99.75,71.6563 Q99.0625,72.7188 99.0625,74.8125 Q99.0625,76.9063 99.75,77.9844 Q100.4375,79.0469 101.7813,79.0469 Q102.4063,79.0469 103,78.7813 Q103.5938,78.5 104.2188,77.9219 L104.2188,80.6406 Z "/><text fill="#000000" font-family="sans-serif" font-size="12" lengthAdjust="spacingAndGlyphs" textLength="251" x="121.75" y="79.1543">DatabaseCommManagerImplementation</text><line style="stroke: #A80036; stroke-width: 1.5;" x1="39.5" x2="422.5" y1="91" y2="91"/><rect fill="none" height="6" style="stroke: #C82930; stroke-width: 1.0;" width="6" x="46.5" y="99"/><text fill="#000000" font-family="sans-serif" font-size="11" lengthAdjust="spacingAndGlyphs" textLength="317" x="58.5" y="105.2104">DatabasePersistentStorage databasePersistentStorage</text><rect fill="none" height="6" style="stroke: #C82930; stroke-width: 1.0;" width="6" x="46.5" y="111.8047"/><text fill="#000000" font-family="sans-serif" font-size="11" lengthAdjust="spacingAndGlyphs" textLength="63" x="58.5" y="118.0151">int rfidData</text><rect fill="none" height="6" style="stroke: #C82930; stroke-width: 1.0;" width="6" x="46.5" y="124.6094"/><text fill="#000000" font-family="sans-serif" font-size="11" lengthAdjust="spacingAndGlyphs" textLength="175" x="58.5" y="130.8198">LocationDataPoint locDataPoint</text><rect fill="none" height="6" style="stroke: #C82930; stroke-width: 1.0;" width="6" x="46.5" y="137.4141"/><text fill="#000000" font-family="sans-serif" font-size="11" lengthAdjust="spacingAndGlyphs" textLength="114" x="58.5" y="143.6245">Trackdata trackData</text><line style="stroke: #A80036; stroke-width: 1.5;" x1="39.5" x2="422.5" y1="150.2188" y2="150.2188"/><ellipse cx="49.5" cy="161.2188" fill="#84BE84" rx="3" ry="3" style="stroke: #038048; stroke-width: 1.0;"/><text fill="#000000" font-family="sans-serif" font-size="11" lengthAdjust="spacingAndGlyphs" textLength="299" x="58.5" y="164.4292">DatabaseCommManagerImplementation(int rfidData,</text><text fill="#000000" font-family="sans-serif" font-size="11" lengthAdjust="spacingAndGlyphs" textLength="179" x="90.5" y="177.2339">LocationDataPoint locDataPoint,</text><text fill="#000000" font-family="sans-serif" font-size="11" lengthAdjust="spacingAndGlyphs" textLength="118" x="90.5" y="190.0386">Trackdata trackData)</text><ellipse cx="49.5" cy="216.4375" fill="#84BE84" rx="3" ry="3" style="stroke: #038048; stroke-width: 1.0;"/><text fill="#000000" font-family="sans-serif" font-size="11" lengthAdjust="spacingAndGlyphs" textLength="141" x="58.5" y="219.6479">int passGetRfidRequest()</text><ellipse cx="49.5" cy="229.2422" fill="#84BE84" rx="3" ry="3" style="stroke: #038048; stroke-width: 1.0;"/><text fill="#000000" font-family="sans-serif" font-size="11" lengthAdjust="spacingAndGlyphs" textLength="359" x="58.5" y="232.4526">LocationDataPoint passGetLocationDataPointRequest(int offset)</text><ellipse cx="49.5" cy="242.0469" fill="#84BE84" rx="3" ry="3" style="stroke: #038048; stroke-width: 1.0;"/><text fill="#000000" font-family="sans-serif" font-size="11" lengthAdjust="spacingAndGlyphs" textLength="271" x="58.5" y="245.2573">TrackData passGetTrackDataRequest(int offset)</text><ellipse cx="49.5" cy="254.8516" fill="#84BE84" rx="3" ry="3" style="stroke: #038048; stroke-width: 1.0;"/><text fill="#000000" font-family="sans-serif" font-size="11" lengthAdjust="spacingAndGlyphs" textLength="312" x="58.5" y="258.062">void passStoreTrackDataRequest(TrackData trackData)</text><text fill="#000000" font-family="sans-serif" font-size="11" lengthAdjust="spacingAndGlyphs" textLength="0" x="62.5" y="270.8667"/><line style="stroke: #A80036; stroke-width: 1.0; stroke-dasharray: 1.0,2.0;" x1="39.5" x2="198" y1="203.0352" y2="203.0352"/><text fill="#000000" font-family="sans-serif" font-size="11" lengthAdjust="spacingAndGlyphs" textLength="66" x="198" y="206.3433">Use Case 1</text><line style="stroke: #A80036; stroke-width: 1.0; stroke-dasharray: 1.0,2.0;" x1="264" x2="422.5" y1="203.0352" y2="203.0352"/><text fill="#000000" font-family="sans-serif" font-size="11" lengthAdjust="spacingAndGlyphs" textLength="0" x="48.5" y="300.4761"/><line style="stroke: #A80036; stroke-width: 1.0; stroke-dasharray: 1.0,2.0;" x1="39.5" x2="198" y1="283.8633" y2="283.8633"/><text fill="#000000" font-family="sans-serif" font-size="11" lengthAdjust="spacingAndGlyphs" textLength="66" x="198" y="287.1714">Use Case 2</text><line style="stroke: #A80036; stroke-width: 1.0; stroke-dasharray: 1.0,2.0;" x1="264" x2="422.5" y1="283.8633" y2="283.8633"/><!--MD5=[04eb1861ddec2f57ebb2cebbe2ba1d37]
@startuml DatabaseCommManagerImplementation

package edu.oakland.production.database {
    class DatabaseCommManagerImplementation {
        - DatabasePersistentStorage databasePersistentStorage
        - int rfidData
        - LocationDataPoint locDataPoint
        - Trackdata trackData
        __
        + DatabaseCommManagerImplementation(int rfidData,
         \tLocationDataPoint locDataPoint,
         \tTrackdata trackData)
        .. Use Case 1 ..
        + int passGetRfidRequest()
        + LocationDataPoint passGetLocationDataPointRequest(int offset)
        + TrackData passGetTrackDataRequest(int offset)
        + void passStoreTrackDataRequest(TrackData trackData)

        .. Use Case 2 ..

    }
}

@enduml

PlantUML version 1.2020.02(Sun Mar 01 10:22:07 GMT 2020)
(GPL source distribution)
Java Runtime: OpenJDK Runtime Environment
JVM: OpenJDK 64-Bit Server VM
Java Version: 11.0.9+11-Ubuntu-0ubuntu1
Operating System: Linux
Default Encoding: ANSI_X3.4-1968
Language: en
Country: US
--></g></svg>