<?xml version="1.0" encoding="UTF-8" standalone="no"?><svg xmlns="http://www.w3.org/2000/svg" xmlns:xlink="http://www.w3.org/1999/xlink" contentScriptType="application/ecmascript" contentStyleType="text/css" height="241px" preserveAspectRatio="none" style="width:520px;height:241px;" version="1.1" viewBox="0 0 520 241" width="520px" zoomAndPan="magnify"><defs><filter height="300%" id="f1xbmw9q2xfvzm" width="300%" x="-1" y="-1"><feGaussianBlur result="blurOut" stdDeviation="2.0"/><feColorMatrix in="blurOut" result="blurOut2" type="matrix" values="0 0 0 0 0 0 0 0 0 0 0 0 0 0 0 0 0 0 .4 0"/><feOffset dx="4.0" dy="4.0" in="blurOut2" result="blurOut3"/><feBlend in="SourceGraphic" in2="blurOut3" mode="normal"/></filter></defs><g><!--MD5=[c2e276049abfe145c9906edb061abd32]
cluster edu.oakland.production.database--><polygon fill="#FFFFFF" filter="url(#f1xbmw9q2xfvzm)" points="22,24,292,24,299,46.2969,498,46.2969,498,229,22,229,22,24" style="stroke: #000000; stroke-width: 1.5;"/><line style="stroke: #000000; stroke-width: 1.5;" x1="22" x2="299" y1="46.2969" y2="46.2969"/><text fill="#000000" font-family="sans-serif" font-size="14" font-weight="bold" lengthAdjust="spacingAndGlyphs" textLength="264" x="26" y="38.9951">edu.oakland.production.database</text><!--MD5=[e62c039a107b929dc588966558a86fd5]
class DatabaseCommManagerImplementation--><rect fill="#FEFECE" filter="url(#f1xbmw9q2xfvzm)" height="154.4375" id="DatabaseCommManagerImplementation" style="stroke: #A80036; stroke-width: 1.5;" width="444" x="38" y="59"/><ellipse cx="130.25" cy="75" fill="#ADD1B2" rx="11" ry="11" style="stroke: #A80036; stroke-width: 1.0;"/><path d="M133.2188,80.6406 Q132.6406,80.9375 132,81.0781 Q131.3594,81.2344 130.6563,81.2344 Q128.1563,81.2344 126.8281,79.5938 Q125.5156,77.9375 125.5156,74.8125 Q125.5156,71.6875 126.8281,70.0313 Q128.1563,68.375 130.6563,68.375 Q131.3594,68.375 132,68.5313 Q132.6563,68.6875 133.2188,68.9844 L133.2188,71.7031 Q132.5938,71.125 132,70.8594 Q131.4063,70.5781 130.7813,70.5781 Q129.4375,70.5781 128.75,71.6563 Q128.0625,72.7188 128.0625,74.8125 Q128.0625,76.9063 128.75,77.9844 Q129.4375,79.0469 130.7813,79.0469 Q131.4063,79.0469 132,78.7813 Q132.5938,78.5 133.2188,77.9219 L133.2188,80.6406 Z "/><text fill="#000000" font-family="sans-serif" font-size="12" lengthAdjust="spacingAndGlyphs" textLength="251" x="150.75" y="79.1543">DatabaseCommManagerImplementation</text><line style="stroke: #A80036; stroke-width: 1.5;" x1="39" x2="481" y1="91" y2="91"/><rect fill="none" height="6" style="stroke: #C82930; stroke-width: 1.0;" width="6" x="46" y="99"/><text fill="#000000" font-family="sans-serif" font-size="11" lengthAdjust="spacingAndGlyphs" textLength="182" x="58" y="105.2104">DatabasePersistentStorage dps</text><line style="stroke: #A80036; stroke-width: 1.5;" x1="39" x2="481" y1="111.8047" y2="111.8047"/><ellipse cx="49" cy="122.8047" fill="#84BE84" rx="3" ry="3" style="stroke: #038048; stroke-width: 1.0;"/><text fill="#000000" font-family="sans-serif" font-size="11" lengthAdjust="spacingAndGlyphs" textLength="418" x="58" y="126.0151">DatabaseCommManagerImplementation(DatabasePersistentStorage dps)</text><ellipse cx="49" cy="152.4141" fill="#84BE84" rx="3" ry="3" style="stroke: #038048; stroke-width: 1.0;"/><text fill="#000000" font-family="sans-serif" font-size="11" lengthAdjust="spacingAndGlyphs" textLength="141" x="58" y="155.6245">int passGetRfidRequest()</text><ellipse cx="49" cy="165.2188" fill="#84BE84" rx="3" ry="3" style="stroke: #038048; stroke-width: 1.0;"/><text fill="#000000" font-family="sans-serif" font-size="11" lengthAdjust="spacingAndGlyphs" textLength="359" x="58" y="168.4292">LocationDataPoint passGetLocationDataPointRequest(int offset)</text><ellipse cx="49" cy="178.0234" fill="#84BE84" rx="3" ry="3" style="stroke: #038048; stroke-width: 1.0;"/><text fill="#000000" font-family="sans-serif" font-size="11" lengthAdjust="spacingAndGlyphs" textLength="271" x="58" y="181.2339">TrackData passGetTrackDataRequest(int offset)</text><ellipse cx="49" cy="190.8281" fill="#84BE84" rx="3" ry="3" style="stroke: #038048; stroke-width: 1.0;"/><text fill="#000000" font-family="sans-serif" font-size="11" lengthAdjust="spacingAndGlyphs" textLength="312" x="58" y="194.0386">void passStoreTrackDataRequest(TrackData trackData)</text><ellipse cx="49" cy="203.6328" fill="#84BE84" rx="3" ry="3" style="stroke: #038048; stroke-width: 1.0;"/><text fill="#000000" font-family="sans-serif" font-size="11" lengthAdjust="spacingAndGlyphs" textLength="170" x="58" y="206.8433">String passGetModeRequest()</text><line style="stroke: #A80036; stroke-width: 1.0; stroke-dasharray: 1.0,2.0;" x1="39" x2="227" y1="139.0117" y2="139.0117"/><text fill="#000000" font-family="sans-serif" font-size="11" lengthAdjust="spacingAndGlyphs" textLength="66" x="227" y="142.3198">Use Case 1</text><line style="stroke: #A80036; stroke-width: 1.0; stroke-dasharray: 1.0,2.0;" x1="293" x2="481" y1="139.0117" y2="139.0117"/><!--MD5=[aa02b964cbaab105b38c94fca35628f7]
@startuml DatabaseCommManagerImplementation

package edu.oakland.production.database {
    class DatabaseCommManagerImplementation {
        - DatabasePersistentStorage dps
        __
        + DatabaseCommManagerImplementation(DatabasePersistentStorage dps)
        .. Use Case 1 ..
        + int passGetRfidRequest()
        + LocationDataPoint passGetLocationDataPointRequest(int offset)
        + TrackData passGetTrackDataRequest(int offset)
        + void passStoreTrackDataRequest(TrackData trackData)
        + String passGetModeRequest()
    }
}

@enduml

PlantUML version 1.2020.02(Sun Mar 01 10:22:07 GMT 2020)
(GPL source distribution)
Java Runtime: OpenJDK Runtime Environment
JVM: OpenJDK 64-Bit Server VM
Java Version: 11.0.9+11-Ubuntu-0ubuntu1
Operating System: Linux
Default Encoding: ANSI_X3.4-1968
Language: en
Country: US
--></g></svg>