<?xml version="1.0" encoding="UTF-8" standalone="no"?><svg xmlns="http://www.w3.org/2000/svg" xmlns:xlink="http://www.w3.org/1999/xlink" contentScriptType="application/ecmascript" contentStyleType="text/css" height="245px" preserveAspectRatio="none" style="width:466px;height:245px;" version="1.1" viewBox="0 0 466 245" width="466px" zoomAndPan="magnify"><defs><filter height="300%" id="fp9g4nfwanahm" width="300%" x="-1" y="-1"><feGaussianBlur result="blurOut" stdDeviation="2.0"/><feColorMatrix in="blurOut" result="blurOut2" type="matrix" values="0 0 0 0 0 0 0 0 0 0 0 0 0 0 0 0 0 0 .4 0"/><feOffset dx="4.0" dy="4.0" in="blurOut2" result="blurOut3"/><feBlend in="SourceGraphic" in2="blurOut3" mode="normal"/></filter></defs><g><!--MD5=[c2e276049abfe145c9906edb061abd32]
cluster edu.oakland.production.database--><polygon fill="#FFFFFF" filter="url(#fp9g4nfwanahm)" points="22,24,292,24,299,46.2969,444,46.2969,444,233,22,233,22,24" style="stroke: #000000; stroke-width: 1.5;"/><line style="stroke: #000000; stroke-width: 1.5;" x1="22" x2="299" y1="46.2969" y2="46.2969"/><text fill="#000000" font-family="sans-serif" font-size="14" font-weight="bold" lengthAdjust="spacingAndGlyphs" textLength="264" x="26" y="38.9951">edu.oakland.production.database</text><!--MD5=[e62c039a107b929dc588966558a86fd5]
class DatabaseCommManagerImplementation--><rect fill="#FEFECE" filter="url(#fp9g4nfwanahm)" height="158.4375" id="DatabaseCommManagerImplementation" style="stroke: #A80036; stroke-width: 1.5;" width="389" x="38.5" y="59"/><ellipse cx="103.25" cy="75" fill="#ADD1B2" rx="11" ry="11" style="stroke: #A80036; stroke-width: 1.0;"/><path d="M106.2188,80.6406 Q105.6406,80.9375 105,81.0781 Q104.3594,81.2344 103.6563,81.2344 Q101.1563,81.2344 99.8281,79.5938 Q98.5156,77.9375 98.5156,74.8125 Q98.5156,71.6875 99.8281,70.0313 Q101.1563,68.375 103.6563,68.375 Q104.3594,68.375 105,68.5313 Q105.6563,68.6875 106.2188,68.9844 L106.2188,71.7031 Q105.5938,71.125 105,70.8594 Q104.4063,70.5781 103.7813,70.5781 Q102.4375,70.5781 101.75,71.6563 Q101.0625,72.7188 101.0625,74.8125 Q101.0625,76.9063 101.75,77.9844 Q102.4375,79.0469 103.7813,79.0469 Q104.4063,79.0469 105,78.7813 Q105.5938,78.5 106.2188,77.9219 L106.2188,80.6406 Z "/><text fill="#000000" font-family="sans-serif" font-size="12" lengthAdjust="spacingAndGlyphs" textLength="251" x="123.75" y="79.1543">DatabaseCommManagerImplementation</text><line style="stroke: #A80036; stroke-width: 1.5;" x1="39.5" x2="426.5" y1="91" y2="91"/><line style="stroke: #A80036; stroke-width: 1.5;" x1="39.5" x2="426.5" y1="99" y2="99"/><ellipse cx="49.5" cy="126.8047" fill="#84BE84" rx="3" ry="3" style="stroke: #038048; stroke-width: 1.0;"/><text fill="#000000" font-family="sans-serif" font-size="11" lengthAdjust="spacingAndGlyphs" textLength="145" x="58.5" y="130.0151">int passGetRfidRequest();</text><ellipse cx="49.5" cy="139.6094" fill="#84BE84" rx="3" ry="3" style="stroke: #038048; stroke-width: 1.0;"/><text fill="#000000" font-family="sans-serif" font-size="11" lengthAdjust="spacingAndGlyphs" textLength="363" x="58.5" y="142.8198">LocationDataPoint passGetLocationDataPointRequest(int offset);</text><ellipse cx="49.5" cy="152.4141" fill="#84BE84" rx="3" ry="3" style="stroke: #038048; stroke-width: 1.0;"/><text fill="#000000" font-family="sans-serif" font-size="11" lengthAdjust="spacingAndGlyphs" textLength="275" x="58.5" y="155.6245">TrackData passGetTrackDataRequest(int offset);</text><ellipse cx="49.5" cy="165.2188" fill="#84BE84" rx="3" ry="3" style="stroke: #038048; stroke-width: 1.0;"/><text fill="#000000" font-family="sans-serif" font-size="11" lengthAdjust="spacingAndGlyphs" textLength="316" x="58.5" y="168.4292">void passStoreTrackDataRequest(TrackData trackData);</text><text fill="#000000" font-family="sans-serif" font-size="11" lengthAdjust="spacingAndGlyphs" textLength="0" x="62.5" y="181.2339"/><line style="stroke: #A80036; stroke-width: 1.0; stroke-dasharray: 1.0,2.0;" x1="39.5" x2="200" y1="113.4023" y2="113.4023"/><text fill="#000000" font-family="sans-serif" font-size="11" lengthAdjust="spacingAndGlyphs" textLength="66" x="200" y="116.7104">Use Case 1</text><line style="stroke: #A80036; stroke-width: 1.0; stroke-dasharray: 1.0,2.0;" x1="266" x2="426.5" y1="113.4023" y2="113.4023"/><text fill="#000000" font-family="sans-serif" font-size="11" lengthAdjust="spacingAndGlyphs" textLength="0" x="48.5" y="210.8433"/><line style="stroke: #A80036; stroke-width: 1.0; stroke-dasharray: 1.0,2.0;" x1="39.5" x2="200" y1="194.2305" y2="194.2305"/><text fill="#000000" font-family="sans-serif" font-size="11" lengthAdjust="spacingAndGlyphs" textLength="66" x="200" y="197.5386">Use Case 2</text><line style="stroke: #A80036; stroke-width: 1.0; stroke-dasharray: 1.0,2.0;" x1="266" x2="426.5" y1="194.2305" y2="194.2305"/><!--MD5=[4c371d7ac57f263d4218d7987036b0ac]
@startuml DatabaseCommManagerImplementation

package edu.oakland.production.database {
    class DatabaseCommManagerImplementation {
        __
        .. Use Case 1 ..
        + int passGetRfidRequest();
        + LocationDataPoint passGetLocationDataPointRequest(int offset);
        + TrackData passGetTrackDataRequest(int offset);
        + void passStoreTrackDataRequest(TrackData trackData);

        .. Use Case 2 ..

    }
}

@enduml

PlantUML version 1.2020.02(Sun Mar 01 10:22:07 GMT 2020)
(GPL source distribution)
Java Runtime: OpenJDK Runtime Environment
JVM: OpenJDK 64-Bit Server VM
Java Version: 11.0.9+11-Ubuntu-0ubuntu1
Operating System: Linux
Default Encoding: ANSI_X3.4-1968
Language: en
Country: US
--></g></svg>