<?xml version="1.0" encoding="UTF-8" standalone="no"?><svg xmlns="http://www.w3.org/2000/svg" xmlns:xlink="http://www.w3.org/1999/xlink" contentScriptType="application/ecmascript" contentStyleType="text/css" height="638px" preserveAspectRatio="none" style="width:528px;height:638px;" version="1.1" viewBox="0 0 528 638" width="528px" zoomAndPan="magnify"><defs><filter height="300%" id="fv806jh11u3j5" width="300%" x="-1" y="-1"><feGaussianBlur result="blurOut" stdDeviation="2.0"/><feColorMatrix in="blurOut" result="blurOut2" type="matrix" values="0 0 0 0 0 0 0 0 0 0 0 0 0 0 0 0 0 0 .4 0"/><feOffset dx="4.0" dy="4.0" in="blurOut2" result="blurOut3"/><feBlend in="SourceGraphic" in2="blurOut3" mode="normal"/></filter></defs><g><!--MD5=[3e281e6f49e0b185d62a106a5d994a08]
cluster edu.oakland.production.display01--><polygon fill="#FFFFFF" filter="url(#fv806jh11u3j5)" points="22,24,295,24,302,46.2969,506,46.2969,506,439,22,439,22,24" style="stroke: #000000; stroke-width: 1.5;"/><line style="stroke: #000000; stroke-width: 1.5;" x1="22" x2="302" y1="46.2969" y2="46.2969"/><text fill="#000000" font-family="sans-serif" font-size="14" font-weight="bold" lengthAdjust="spacingAndGlyphs" textLength="267" x="26" y="38.9951">edu.oakland.production.display01</text><!--MD5=[d02020cdc9562d037d87b751d110dd8b]
cluster edu.oakland.helper.display01--><polygon fill="#FFFFFF" filter="url(#fv806jh11u3j5)" points="40,463,278,463,285,485.2969,488,485.2969,488,626,40,626,40,463" style="stroke: #000000; stroke-width: 1.5;"/><line style="stroke: #000000; stroke-width: 1.5;" x1="40" x2="285" y1="485.2969" y2="485.2969"/><text fill="#000000" font-family="sans-serif" font-size="14" font-weight="bold" lengthAdjust="spacingAndGlyphs" textLength="232" x="44" y="477.9951">edu.oakland.helper.display01</text><!--MD5=[6376794c08ca75f6fa530286e1e32b13]
class DisplayGpsInterfaceImplementation--><rect fill="#FEFECE" filter="url(#fv806jh11u3j5)" height="171.2422" id="DisplayGpsInterfaceImplementation" style="stroke: #A80036; stroke-width: 1.5;" width="452" x="38" y="252"/><ellipse cx="149.25" cy="268" fill="#ADD1B2" rx="11" ry="11" style="stroke: #A80036; stroke-width: 1.0;"/><path d="M152.2188,273.6406 Q151.6406,273.9375 151,274.0781 Q150.3594,274.2344 149.6563,274.2344 Q147.1563,274.2344 145.8281,272.5938 Q144.5156,270.9375 144.5156,267.8125 Q144.5156,264.6875 145.8281,263.0313 Q147.1563,261.375 149.6563,261.375 Q150.3594,261.375 151,261.5313 Q151.6563,261.6875 152.2188,261.9844 L152.2188,264.7031 Q151.5938,264.125 151,263.8594 Q150.4063,263.5781 149.7813,263.5781 Q148.4375,263.5781 147.75,264.6563 Q147.0625,265.7188 147.0625,267.8125 Q147.0625,269.9063 147.75,270.9844 Q148.4375,272.0469 149.7813,272.0469 Q150.4063,272.0469 151,271.7813 Q151.5938,271.5 152.2188,270.9219 L152.2188,273.6406 Z "/><text fill="#000000" font-family="sans-serif" font-size="12" lengthAdjust="spacingAndGlyphs" textLength="221" x="169.75" y="272.1543">DisplayGpsInterfaceImplementation</text><line style="stroke: #A80036; stroke-width: 1.5;" x1="39" x2="489" y1="284" y2="284"/><rect fill="none" height="6" style="stroke: #C82930; stroke-width: 1.0;" width="6" x="46" y="292"/><text fill="#000000" font-family="sans-serif" font-size="11" lengthAdjust="spacingAndGlyphs" textLength="162" x="58" y="298.2104">DisplayGpsReciever reciever</text><line style="stroke: #A80036; stroke-width: 1.5;" x1="39" x2="489" y1="304.8047" y2="304.8047"/><ellipse cx="49" cy="315.8047" fill="#84BE84" rx="3" ry="3" style="stroke: #038048; stroke-width: 1.0;"/><text fill="#000000" font-family="sans-serif" font-size="11" lengthAdjust="spacingAndGlyphs" textLength="372" x="58" y="319.0151">DisplayGpsInterfaceImplementation(DisplayGpsReciever reciever)</text><ellipse cx="49" cy="345.4141" fill="#84BE84" rx="3" ry="3" style="stroke: #038048; stroke-width: 1.0;"/><text fill="#000000" font-family="sans-serif" font-size="11" lengthAdjust="spacingAndGlyphs" textLength="275" x="58" y="348.6245">String receiveGpsSignal(Satellite satelliteSignal)</text><line style="stroke: #A80036; stroke-width: 1.0; stroke-dasharray: 1.0,2.0;" x1="39" x2="231" y1="332.0117" y2="332.0117"/><text fill="#000000" font-family="sans-serif" font-size="11" lengthAdjust="spacingAndGlyphs" textLength="66" x="231" y="335.3198">Use Case 1</text><line style="stroke: #A80036; stroke-width: 1.0; stroke-dasharray: 1.0,2.0;" x1="297" x2="489" y1="332.0117" y2="332.0117"/><ellipse cx="49" cy="375.0234" fill="#84BE84" rx="3" ry="3" style="stroke: #038048; stroke-width: 1.0;"/><text fill="#000000" font-family="sans-serif" font-size="11" lengthAdjust="spacingAndGlyphs" textLength="423" x="58" y="378.2339">SatelliteSignalCheckRequest reportGpsSignalLoss(Satellite satelliteSignal)</text><ellipse cx="49" cy="387.8281" fill="#84BE84" rx="3" ry="3" style="stroke: #038048; stroke-width: 1.0;"/><text fill="#000000" font-family="sans-serif" font-size="11" lengthAdjust="spacingAndGlyphs" textLength="426" x="58" y="391.0386">SatelliteSignalCheckRequest recheckSignalStength(Satellite satelliteSignal)</text><ellipse cx="49" cy="400.6328" fill="#84BE84" rx="3" ry="3" style="stroke: #038048; stroke-width: 1.0;"/><text fill="#000000" font-family="sans-serif" font-size="11" lengthAdjust="spacingAndGlyphs" textLength="414" x="58" y="403.8433">SatelliteSignalCheckRequest checkSignalStength(Satellite satelliteSignal)</text><text fill="#000000" font-family="sans-serif" font-size="11" lengthAdjust="spacingAndGlyphs" textLength="0" x="62" y="416.6479"/><line style="stroke: #A80036; stroke-width: 1.0; stroke-dasharray: 1.0,2.0;" x1="39" x2="231" y1="361.6211" y2="361.6211"/><text fill="#000000" font-family="sans-serif" font-size="11" lengthAdjust="spacingAndGlyphs" textLength="66" x="231" y="364.9292">Use Case 2</text><line style="stroke: #A80036; stroke-width: 1.0; stroke-dasharray: 1.0,2.0;" x1="297" x2="489" y1="361.6211" y2="361.6211"/><!--MD5=[fa6248c05b5a852ecd50b5411f159754]
class DisplayGpsInterface--><rect fill="#FEFECE" filter="url(#fv806jh11u3j5)" height="132.8281" id="DisplayGpsInterface" style="stroke: #A80036; stroke-width: 1.5;" width="297" x="115.5" y="59"/><ellipse cx="197.75" cy="75" fill="#B4A7E5" rx="11" ry="11" style="stroke: #A80036; stroke-width: 1.0;"/><path d="M193.6719,70.7656 L193.6719,68.6094 L201.0625,68.6094 L201.0625,70.7656 L198.5938,70.7656 L198.5938,78.8438 L201.0625,78.8438 L201.0625,81 L193.6719,81 L193.6719,78.8438 L196.1406,78.8438 L196.1406,70.7656 L193.6719,70.7656 Z "/><text fill="#000000" font-family="sans-serif" font-size="12" font-style="italic" lengthAdjust="spacingAndGlyphs" textLength="124" x="218.25" y="79.1543">DisplayGpsInterface</text><line style="stroke: #A80036; stroke-width: 1.5;" x1="116.5" x2="411.5" y1="91" y2="91"/><line style="stroke: #A80036; stroke-width: 1.5;" x1="116.5" x2="411.5" y1="99" y2="99"/><ellipse cx="126.5" cy="126.8047" fill="#84BE84" rx="3" ry="3" style="stroke: #038048; stroke-width: 1.0;"/><text fill="#000000" font-family="sans-serif" font-size="11" font-style="italic" lengthAdjust="spacingAndGlyphs" textLength="261" x="135.5" y="130.0151">void receiveGpsSignal(Satellite satelliteSignal)</text><line style="stroke: #A80036; stroke-width: 1.0; stroke-dasharray: 1.0,2.0;" x1="116.5" x2="231" y1="113.4023" y2="113.4023"/><text fill="#000000" font-family="sans-serif" font-size="11" lengthAdjust="spacingAndGlyphs" textLength="66" x="231" y="116.7104">Use Case 1</text><line style="stroke: #A80036; stroke-width: 1.0; stroke-dasharray: 1.0,2.0;" x1="297" x2="411.5" y1="113.4023" y2="113.4023"/><ellipse cx="126.5" cy="156.4141" fill="#84BE84" rx="3" ry="3" style="stroke: #038048; stroke-width: 1.0;"/><text fill="#000000" font-family="sans-serif" font-size="11" font-style="italic" lengthAdjust="spacingAndGlyphs" textLength="266" x="135.5" y="159.6245">void reportGpsSignalLoss(String satelliteName)</text><ellipse cx="126.5" cy="169.2188" fill="#84BE84" rx="3" ry="3" style="stroke: #038048; stroke-width: 1.0;"/><text fill="#000000" font-family="sans-serif" font-size="11" font-style="italic" lengthAdjust="spacingAndGlyphs" textLength="271" x="135.5" y="172.4292">void recheckSignalStength(String satelliteName)</text><ellipse cx="126.5" cy="182.0234" fill="#84BE84" rx="3" ry="3" style="stroke: #038048; stroke-width: 1.0;"/><text fill="#000000" font-family="sans-serif" font-size="11" font-style="italic" lengthAdjust="spacingAndGlyphs" textLength="259" x="135.5" y="185.2339">void checkSignalStength(String satelliteName)</text><line style="stroke: #A80036; stroke-width: 1.0; stroke-dasharray: 1.0,2.0;" x1="116.5" x2="231" y1="143.0117" y2="143.0117"/><text fill="#000000" font-family="sans-serif" font-size="11" lengthAdjust="spacingAndGlyphs" textLength="66" x="231" y="146.3198">Use Case 2</text><line style="stroke: #A80036; stroke-width: 1.0; stroke-dasharray: 1.0,2.0;" x1="297" x2="411.5" y1="143.0117" y2="143.0117"/><!--MD5=[b7db7f9e4ca1b2f55d32a1a48f9dd068]
class SatelliteSignalCheckRequest--><rect fill="#FEFECE" filter="url(#fv806jh11u3j5)" height="112.0234" id="SatelliteSignalCheckRequest" style="stroke: #A80036; stroke-width: 1.5;" width="416" x="56" y="498"/><ellipse cx="170.25" cy="514" fill="#ADD1B2" rx="11" ry="11" style="stroke: #A80036; stroke-width: 1.0;"/><path d="M173.2188,519.6406 Q172.6406,519.9375 172,520.0781 Q171.3594,520.2344 170.6563,520.2344 Q168.1563,520.2344 166.8281,518.5938 Q165.5156,516.9375 165.5156,513.8125 Q165.5156,510.6875 166.8281,509.0313 Q168.1563,507.375 170.6563,507.375 Q171.3594,507.375 172,507.5313 Q172.6563,507.6875 173.2188,507.9844 L173.2188,510.7031 Q172.5938,510.125 172,509.8594 Q171.4063,509.5781 170.7813,509.5781 Q169.4375,509.5781 168.75,510.6563 Q168.0625,511.7188 168.0625,513.8125 Q168.0625,515.9063 168.75,516.9844 Q169.4375,518.0469 170.7813,518.0469 Q171.4063,518.0469 172,517.7813 Q172.5938,517.5 173.2188,516.9219 L173.2188,519.6406 Z "/><text fill="#000000" font-family="sans-serif" font-size="12" lengthAdjust="spacingAndGlyphs" textLength="179" x="190.75" y="518.1543">SatelliteSignalCheckRequest</text><line style="stroke: #A80036; stroke-width: 1.5;" x1="57" x2="471" y1="530" y2="530"/><rect fill="none" height="6" style="stroke: #C82930; stroke-width: 1.0;" width="6" x="64" y="538"/><text fill="#000000" font-family="sans-serif" font-size="11" lengthAdjust="spacingAndGlyphs" textLength="116" x="76" y="544.2104">String satelliteName</text><rect fill="none" height="6" style="stroke: #C82930; stroke-width: 1.0;" width="6" x="64" y="550.8047"/><text fill="#000000" font-family="sans-serif" font-size="11" lengthAdjust="spacingAndGlyphs" textLength="97" x="76" y="557.0151">String checkType</text><line style="stroke: #A80036; stroke-width: 1.5;" x1="57" x2="471" y1="563.6094" y2="563.6094"/><ellipse cx="67" cy="574.6094" fill="#84BE84" rx="3" ry="3" style="stroke: #038048; stroke-width: 1.0;"/><text fill="#000000" font-family="sans-serif" font-size="11" lengthAdjust="spacingAndGlyphs" textLength="390" x="76" y="577.8198">SatelliteSignalCheckRequest(String satelliteName, String checkType)</text><ellipse cx="67" cy="587.4141" fill="#84BE84" rx="3" ry="3" style="stroke: #038048; stroke-width: 1.0;"/><text fill="#000000" font-family="sans-serif" font-size="11" lengthAdjust="spacingAndGlyphs" textLength="143" x="76" y="590.6245">String getSatelliteName()</text><ellipse cx="67" cy="600.2188" fill="#84BE84" rx="3" ry="3" style="stroke: #038048; stroke-width: 1.0;"/><text fill="#000000" font-family="sans-serif" font-size="11" lengthAdjust="spacingAndGlyphs" textLength="125" x="76" y="603.4292">String getCheckType()</text><!--MD5=[5e11d977f08105e989255e48b5831e9e]
reverse link DisplayGpsInterface to DisplayGpsInterfaceImplementation--><path d="M264,212.15 C264,225.22 264,238.7 264,251.74 " fill="none" id="DisplayGpsInterface&lt;-DisplayGpsInterfaceImplementation" style="stroke: #A80036; stroke-width: 1.0; stroke-dasharray: 7.0,7.0;"/><polygon fill="none" points="257,212.08,264,192.08,271,212.08,257,212.08" style="stroke: #A80036; stroke-width: 1.0;"/><!--MD5=[15c92c2a2adf203ad041f33ed955827c]
link DisplayGpsInterfaceImplementation to SatelliteSignalCheckRequest--><path d="M264,423.28 C264,446.48 264,471.15 264,492.67 " fill="none" id="DisplayGpsInterfaceImplementation-&gt;SatelliteSignalCheckRequest" style="stroke: #A80036; stroke-width: 1.0; stroke-dasharray: 7.0,7.0;"/><polygon fill="#A80036" points="264,497.79,268,488.79,264,492.79,260,488.79,264,497.79" style="stroke: #A80036; stroke-width: 1.0;"/><!--MD5=[4dbe7738f9b2752d000699b198551a33]
@startuml DisplayGpsInterfaceImplementation_DirectDependencies



package edu.oakland.production.display01 {
    class DisplayGpsInterfaceImplementation {
        - DisplayGpsReciever reciever
        __
        + DisplayGpsInterfaceImplementation(DisplayGpsReciever reciever)
        .. Use Case 1 ..
        + String receiveGpsSignal(Satellite satelliteSignal)
        .. Use Case 2 ..
        + SatelliteSignalCheckRequest reportGpsSignalLoss(Satellite satelliteSignal)
        + SatelliteSignalCheckRequest recheckSignalStength(Satellite satelliteSignal)
        + SatelliteSignalCheckRequest checkSignalStength(Satellite satelliteSignal)
        
    }
}



package edu.oakland.production.display01 {
    interface DisplayGpsInterface {
        __
        .. Use Case 1 ..
        {abstract} + void receiveGpsSignal(Satellite satelliteSignal)
        .. Use Case 2 ..
        {abstract} + void reportGpsSignalLoss(String satelliteName)
        {abstract} + void recheckSignalStength(String satelliteName)
        {abstract} + void checkSignalStength(String satelliteName)
    }
}

DisplayGpsInterfaceImplementation .up.|> DisplayGpsInterface


package edu.oakland.helper.display01 {
    class SatelliteSignalCheckRequest {
        - String satelliteName
        - String checkType
        + SatelliteSignalCheckRequest(String satelliteName, String checkType)
        + String getSatelliteName()
        + String getCheckType()
    }
}

DisplayGpsInterfaceImplementation ..> SatelliteSignalCheckRequest



@enduml

PlantUML version 1.2020.02(Sun Mar 01 10:22:07 GMT 2020)
(GPL source distribution)
Java Runtime: OpenJDK Runtime Environment
JVM: OpenJDK 64-Bit Server VM
Java Version: 11.0.9+11-Ubuntu-0ubuntu1
Operating System: Linux
Default Encoding: ANSI_X3.4-1968
Language: en
Country: US
--></g></svg>