<?xml version="1.0" encoding="UTF-8" standalone="no"?><svg xmlns="http://www.w3.org/2000/svg" xmlns:xlink="http://www.w3.org/1999/xlink" contentScriptType="application/ecmascript" contentStyleType="text/css" height="332px" preserveAspectRatio="none" style="width:352px;height:332px;" version="1.1" viewBox="0 0 352 332" width="352px" zoomAndPan="magnify"><defs><filter height="300%" id="f1vsjybo4q6gek" width="300%" x="-1" y="-1"><feGaussianBlur result="blurOut" stdDeviation="2.0"/><feColorMatrix in="blurOut" result="blurOut2" type="matrix" values="0 0 0 0 0 0 0 0 0 0 0 0 0 0 0 0 0 0 .4 0"/><feOffset dx="4.0" dy="4.0" in="blurOut2" result="blurOut3"/><feBlend in="SourceGraphic" in2="blurOut3" mode="normal"/></filter></defs><g><!--MD5=[fe59aae6f7bfe371a9c197ec1f7f843a]
cluster edu.oakland.production.display02--><polygon fill="#FFFFFF" filter="url(#f1vsjybo4q6gek)" points="22,24,295,24,302,46.2969,330,46.2969,330,320,22,320,22,24" style="stroke: #000000; stroke-width: 1.5;"/><line style="stroke: #000000; stroke-width: 1.5;" x1="22" x2="302" y1="46.2969" y2="46.2969"/><text fill="#000000" font-family="sans-serif" font-size="14" font-weight="bold" lengthAdjust="spacingAndGlyphs" textLength="267" x="26" y="38.9951">edu.oakland.production.display02</text><!--MD5=[3a27b63ddb357afc5dde5581215f51f9]
class DisplayCommManagerImplementation--><rect fill="#FEFECE" filter="url(#f1vsjybo4q6gek)" height="107.2188" id="DisplayCommManagerImplementation" style="stroke: #A80036; stroke-width: 1.5;" width="266" x="43" y="197"/><ellipse cx="58" cy="213" fill="#ADD1B2" rx="11" ry="11" style="stroke: #A80036; stroke-width: 1.0;"/><path d="M60.9688,218.6406 Q60.3906,218.9375 59.75,219.0781 Q59.1094,219.2344 58.4063,219.2344 Q55.9063,219.2344 54.5781,217.5938 Q53.2656,215.9375 53.2656,212.8125 Q53.2656,209.6875 54.5781,208.0313 Q55.9063,206.375 58.4063,206.375 Q59.1094,206.375 59.75,206.5313 Q60.4063,206.6875 60.9688,206.9844 L60.9688,209.7031 Q60.3438,209.125 59.75,208.8594 Q59.1563,208.5781 58.5313,208.5781 Q57.1875,208.5781 56.5,209.6563 Q55.8125,210.7188 55.8125,212.8125 Q55.8125,214.9063 56.5,215.9844 Q57.1875,217.0469 58.5313,217.0469 Q59.1563,217.0469 59.75,216.7813 Q60.3438,216.5 60.9688,215.9219 L60.9688,218.6406 Z "/><text fill="#000000" font-family="sans-serif" font-size="12" lengthAdjust="spacingAndGlyphs" textLength="234" x="72" y="217.1543">DisplayCommManagerImplementation</text><line style="stroke: #A80036; stroke-width: 1.5;" x1="44" x2="308" y1="229" y2="229"/><line style="stroke: #A80036; stroke-width: 1.5;" x1="44" x2="308" y1="237" y2="237"/><text fill="#000000" font-family="sans-serif" font-size="11" lengthAdjust="spacingAndGlyphs" textLength="0" x="53" y="268.0151"/><line style="stroke: #A80036; stroke-width: 1.0; stroke-dasharray: 1.0,2.0;" x1="44" x2="143" y1="251.4023" y2="251.4023"/><text fill="#000000" font-family="sans-serif" font-size="11" lengthAdjust="spacingAndGlyphs" textLength="66" x="143" y="254.7104">Use Case 1</text><line style="stroke: #A80036; stroke-width: 1.0; stroke-dasharray: 1.0,2.0;" x1="209" x2="308" y1="251.4023" y2="251.4023"/><text fill="#000000" font-family="sans-serif" font-size="11" lengthAdjust="spacingAndGlyphs" textLength="0" x="53" y="297.6245"/><line style="stroke: #A80036; stroke-width: 1.0; stroke-dasharray: 1.0,2.0;" x1="44" x2="143" y1="281.0117" y2="281.0117"/><text fill="#000000" font-family="sans-serif" font-size="11" lengthAdjust="spacingAndGlyphs" textLength="66" x="143" y="284.3198">Use Case 2</text><line style="stroke: #A80036; stroke-width: 1.0; stroke-dasharray: 1.0,2.0;" x1="209" x2="308" y1="281.0117" y2="281.0117"/><!--MD5=[6aeb72f2773d7cabb45309482beeff0a]
class DisplayCommManager--><rect fill="#FEFECE" filter="url(#f1vsjybo4q6gek)" height="77.6094" id="DisplayCommManager" style="stroke: #A80036; stroke-width: 1.5;" width="275" x="38.5" y="59"/><ellipse cx="103.25" cy="75" fill="#B4A7E5" rx="11" ry="11" style="stroke: #A80036; stroke-width: 1.0;"/><path d="M99.1719,70.7656 L99.1719,68.6094 L106.5625,68.6094 L106.5625,70.7656 L104.0938,70.7656 L104.0938,78.8438 L106.5625,78.8438 L106.5625,81 L99.1719,81 L99.1719,78.8438 L101.6406,78.8438 L101.6406,70.7656 L99.1719,70.7656 Z "/><text fill="#000000" font-family="sans-serif" font-size="12" font-style="italic" lengthAdjust="spacingAndGlyphs" textLength="137" x="123.75" y="79.1543">DisplayCommManager</text><line style="stroke: #A80036; stroke-width: 1.5;" x1="39.5" x2="312.5" y1="91" y2="91"/><line style="stroke: #A80036; stroke-width: 1.5;" x1="39.5" x2="312.5" y1="99" y2="99"/><ellipse cx="49.5" cy="126.8047" fill="#84BE84" rx="3" ry="3" style="stroke: #038048; stroke-width: 1.0;"/><text fill="#000000" font-family="sans-serif" font-size="11" font-style="italic" lengthAdjust="spacingAndGlyphs" textLength="249" x="58.5" y="130.0151">TrackData evaluateRfidRequest(int rfidNum)</text><line style="stroke: #A80036; stroke-width: 1.0; stroke-dasharray: 1.0,2.0;" x1="39.5" x2="143" y1="113.4023" y2="113.4023"/><text fill="#000000" font-family="sans-serif" font-size="11" lengthAdjust="spacingAndGlyphs" textLength="66" x="143" y="116.7104">Use Case 1</text><line style="stroke: #A80036; stroke-width: 1.0; stroke-dasharray: 1.0,2.0;" x1="209" x2="312.5" y1="113.4023" y2="113.4023"/><!--MD5=[5beed6c3c7e4a84a4bfaa95bdf8cce79]
reverse link DisplayCommManager to DisplayCommManagerImplementation--><path d="M176,157.51 C176,170.43 176,184.05 176,196.72 " fill="none" id="DisplayCommManager&lt;-DisplayCommManagerImplementation" style="stroke: #A80036; stroke-width: 1.0; stroke-dasharray: 7.0,7.0;"/><polygon fill="none" points="169,157.37,176,137.37,183,157.37,169,157.37" style="stroke: #A80036; stroke-width: 1.0;"/><!--MD5=[25f52658643bbcf17de2afcee6b2b249]
@startuml DisplayCommManagerImplementation_Closure


package edu.oakland.production.display02 {
    class DisplayCommManagerImplementation {
        __
        .. Use Case 1 ..

        .. Use Case 2 ..

    }
}




package edu.oakland.production.display02 {
    interface DisplayCommManager {
        __
        .. Use Case 1 ..
        {abstract} + TrackData evaluateRfidRequest(int rfidNum)
    }
}






DisplayCommManagerImplementation .up.|> DisplayCommManager





@enduml

PlantUML version 1.2020.02(Sun Mar 01 10:22:07 GMT 2020)
(GPL source distribution)
Java Runtime: OpenJDK Runtime Environment
JVM: OpenJDK 64-Bit Server VM
Java Version: 11.0.9+11-Ubuntu-0ubuntu1
Operating System: Linux
Default Encoding: ANSI_X3.4-1968
Language: en
Country: US
--></g></svg>