<?xml version="1.0" encoding="UTF-8" standalone="no"?><svg xmlns="http://www.w3.org/2000/svg" xmlns:xlink="http://www.w3.org/1999/xlink" contentScriptType="application/ecmascript" contentStyleType="text/css" height="438px" preserveAspectRatio="none" style="width:1726px;height:438px;" version="1.1" viewBox="0 0 1726 438" width="1726px" zoomAndPan="magnify"><defs><filter height="300%" id="f78t5bcds9glq" width="300%" x="-1" y="-1"><feGaussianBlur result="blurOut" stdDeviation="2.0"/><feColorMatrix in="blurOut" result="blurOut2" type="matrix" values="0 0 0 0 0 0 0 0 0 0 0 0 0 0 0 0 0 0 .4 0"/><feOffset dx="4.0" dy="4.0" in="blurOut2" result="blurOut3"/><feBlend in="SourceGraphic" in2="blurOut3" mode="normal"/></filter></defs><g><!--MD5=[3f116dbe56326f0321b4f8703f3bd2bd]
cluster edu.oakland.production.middleware01--><polygon fill="#FFFFFF" filter="url(#f78t5bcds9glq)" points="22,24,332,24,339,46.2969,1704,46.2969,1704,426,22,426,22,24" style="stroke: #000000; stroke-width: 1.5;"/><line style="stroke: #000000; stroke-width: 1.5;" x1="22" x2="339" y1="46.2969" y2="46.2969"/><text fill="#000000" font-family="sans-serif" font-size="14" font-weight="bold" lengthAdjust="spacingAndGlyphs" textLength="304" x="26" y="38.9951">edu.oakland.production.middleware01</text><!--MD5=[291cbaddec1abeb2a8a54e5a343c76e9]
class MiddlewareGisInterface--><rect fill="#FEFECE" filter="url(#f78t5bcds9glq)" height="107.2188" id="MiddlewareGisInterface" style="stroke: #A80036; stroke-width: 1.5;" width="344" x="138" y="72"/><ellipse cx="232.75" cy="88" fill="#B4A7E5" rx="11" ry="11" style="stroke: #A80036; stroke-width: 1.0;"/><path d="M228.6719,83.7656 L228.6719,81.6094 L236.0625,81.6094 L236.0625,83.7656 L233.5938,83.7656 L233.5938,91.8438 L236.0625,91.8438 L236.0625,94 L228.6719,94 L228.6719,91.8438 L231.1406,91.8438 L231.1406,83.7656 L228.6719,83.7656 Z "/><text fill="#000000" font-family="sans-serif" font-size="12" font-style="italic" lengthAdjust="spacingAndGlyphs" textLength="146" x="253.25" y="92.1543">MiddlewareGisInterface</text><line style="stroke: #A80036; stroke-width: 1.5;" x1="139" x2="481" y1="104" y2="104"/><line style="stroke: #A80036; stroke-width: 1.5;" x1="139" x2="481" y1="112" y2="112"/><ellipse cx="149" cy="139.8047" fill="#84BE84" rx="3" ry="3" style="stroke: #038048; stroke-width: 1.0;"/><text fill="#000000" font-family="sans-serif" font-size="11" font-style="italic" lengthAdjust="spacingAndGlyphs" textLength="318" x="158" y="143.0151">String receiveGpsSignalStrength(Satellite satelliteSignal)</text><line style="stroke: #A80036; stroke-width: 1.0; stroke-dasharray: 1.0,2.0;" x1="139" x2="277" y1="126.4023" y2="126.4023"/><text fill="#000000" font-family="sans-serif" font-size="11" lengthAdjust="spacingAndGlyphs" textLength="66" x="277" y="129.7104">Use Case 1</text><line style="stroke: #A80036; stroke-width: 1.0; stroke-dasharray: 1.0,2.0;" x1="343" x2="481" y1="126.4023" y2="126.4023"/><ellipse cx="149" cy="169.4141" fill="#84BE84" rx="3" ry="3" style="stroke: #038048; stroke-width: 1.0;"/><text fill="#000000" font-family="sans-serif" font-size="11" font-style="italic" lengthAdjust="spacingAndGlyphs" textLength="318" x="158" y="172.6245">String receiveGpsSignalStrength(Satellite satelliteSignal)</text><line style="stroke: #A80036; stroke-width: 1.0; stroke-dasharray: 1.0,2.0;" x1="139" x2="277" y1="156.0117" y2="156.0117"/><text fill="#000000" font-family="sans-serif" font-size="11" lengthAdjust="spacingAndGlyphs" textLength="66" x="277" y="159.3198">Use Case 2</text><line style="stroke: #A80036; stroke-width: 1.0; stroke-dasharray: 1.0,2.0;" x1="343" x2="481" y1="156.0117" y2="156.0117"/><!--MD5=[8ee200b6efa8fed886485614c0f8779a]
class MiddlewareGisProcessor--><rect fill="#FEFECE" filter="url(#f78t5bcds9glq)" height="107.2188" id="MiddlewareGisProcessor" style="stroke: #A80036; stroke-width: 1.5;" width="352" x="707" y="72"/><ellipse cx="804.25" cy="88" fill="#B4A7E5" rx="11" ry="11" style="stroke: #A80036; stroke-width: 1.0;"/><path d="M800.1719,83.7656 L800.1719,81.6094 L807.5625,81.6094 L807.5625,83.7656 L805.0938,83.7656 L805.0938,91.8438 L807.5625,91.8438 L807.5625,94 L800.1719,94 L800.1719,91.8438 L802.6406,91.8438 L802.6406,83.7656 L800.1719,83.7656 Z "/><text fill="#000000" font-family="sans-serif" font-size="12" font-style="italic" lengthAdjust="spacingAndGlyphs" textLength="149" x="824.75" y="92.1543">MiddlewareGisProcessor</text><line style="stroke: #A80036; stroke-width: 1.5;" x1="708" x2="1058" y1="104" y2="104"/><line style="stroke: #A80036; stroke-width: 1.5;" x1="708" x2="1058" y1="112" y2="112"/><ellipse cx="718" cy="139.8047" fill="#84BE84" rx="3" ry="3" style="stroke: #038048; stroke-width: 1.0;"/><text fill="#000000" font-family="sans-serif" font-size="11" font-style="italic" lengthAdjust="spacingAndGlyphs" textLength="325" x="727" y="143.0151">String evaluateGpsSignalStrength(Satellite satelliteSignal)</text><line style="stroke: #A80036; stroke-width: 1.0; stroke-dasharray: 1.0,2.0;" x1="708" x2="850" y1="126.4023" y2="126.4023"/><text fill="#000000" font-family="sans-serif" font-size="11" lengthAdjust="spacingAndGlyphs" textLength="66" x="850" y="129.7104">Use Case 1</text><line style="stroke: #A80036; stroke-width: 1.0; stroke-dasharray: 1.0,2.0;" x1="916" x2="1058" y1="126.4023" y2="126.4023"/><ellipse cx="718" cy="169.4141" fill="#84BE84" rx="3" ry="3" style="stroke: #038048; stroke-width: 1.0;"/><text fill="#000000" font-family="sans-serif" font-size="11" font-style="italic" lengthAdjust="spacingAndGlyphs" textLength="326" x="727" y="172.6245">String measureGpsSignalStrength(Satellite satelliteSignal)</text><line style="stroke: #A80036; stroke-width: 1.0; stroke-dasharray: 1.0,2.0;" x1="708" x2="850" y1="156.0117" y2="156.0117"/><text fill="#000000" font-family="sans-serif" font-size="11" lengthAdjust="spacingAndGlyphs" textLength="66" x="850" y="159.3198">Use Case 2</text><line style="stroke: #A80036; stroke-width: 1.0; stroke-dasharray: 1.0,2.0;" x1="916" x2="1058" y1="156.0117" y2="156.0117"/><!--MD5=[6b8f2796bf9a05cb61532ec918b7c92e]
class MiddlewareGisManager--><rect fill="#FEFECE" filter="url(#f78t5bcds9glq)" height="132.8281" id="MiddlewareGisManager" style="stroke: #A80036; stroke-width: 1.5;" width="351" x="1260.5" y="59"/><ellipse cx="1359.75" cy="75" fill="#B4A7E5" rx="11" ry="11" style="stroke: #A80036; stroke-width: 1.0;"/><path d="M1355.6719,70.7656 L1355.6719,68.6094 L1363.0625,68.6094 L1363.0625,70.7656 L1360.5938,70.7656 L1360.5938,78.8438 L1363.0625,78.8438 L1363.0625,81 L1355.6719,81 L1355.6719,78.8438 L1358.1406,78.8438 L1358.1406,70.7656 L1355.6719,70.7656 Z "/><text fill="#000000" font-family="sans-serif" font-size="12" font-style="italic" lengthAdjust="spacingAndGlyphs" textLength="144" x="1380.25" y="79.1543">MiddlewareGisManager</text><line style="stroke: #A80036; stroke-width: 1.5;" x1="1261.5" x2="1610.5" y1="91" y2="91"/><line style="stroke: #A80036; stroke-width: 1.5;" x1="1261.5" x2="1610.5" y1="99" y2="99"/><ellipse cx="1271.5" cy="126.8047" fill="#84BE84" rx="3" ry="3" style="stroke: #038048; stroke-width: 1.0;"/><text fill="#000000" font-family="sans-serif" font-size="11" font-style="italic" lengthAdjust="spacingAndGlyphs" textLength="325" x="1280.5" y="130.0151">String receieveGpsSignalStrength(Satellite satelliteSignal)</text><ellipse cx="1271.5" cy="139.6094" fill="#84BE84" rx="3" ry="3" style="stroke: #038048; stroke-width: 1.0;"/><text fill="#000000" font-family="sans-serif" font-size="11" font-style="italic" lengthAdjust="spacingAndGlyphs" textLength="166" x="1280.5" y="142.8198">void storeLocationDataPoint()</text><line style="stroke: #A80036; stroke-width: 1.0; stroke-dasharray: 1.0,2.0;" x1="1261.5" x2="1403" y1="113.4023" y2="113.4023"/><text fill="#000000" font-family="sans-serif" font-size="11" lengthAdjust="spacingAndGlyphs" textLength="66" x="1403" y="116.7104">Use Case 1</text><line style="stroke: #A80036; stroke-width: 1.0; stroke-dasharray: 1.0,2.0;" x1="1469" x2="1610.5" y1="113.4023" y2="113.4023"/><ellipse cx="1271.5" cy="169.2188" fill="#84BE84" rx="3" ry="3" style="stroke: #038048; stroke-width: 1.0;"/><text fill="#000000" font-family="sans-serif" font-size="11" font-style="italic" lengthAdjust="spacingAndGlyphs" textLength="303" x="1280.5" y="172.4292">String attemptToRegainGpsLock(String satelliteName)</text><ellipse cx="1271.5" cy="182.0234" fill="#84BE84" rx="3" ry="3" style="stroke: #038048; stroke-width: 1.0;"/><text fill="#000000" font-family="sans-serif" font-size="11" font-style="italic" lengthAdjust="spacingAndGlyphs" textLength="308" x="1280.5" y="185.2339">String evaluateGpsSignalStrength(boolean signalValid)</text><line style="stroke: #A80036; stroke-width: 1.0; stroke-dasharray: 1.0,2.0;" x1="1261.5" x2="1403" y1="155.8164" y2="155.8164"/><text fill="#000000" font-family="sans-serif" font-size="11" lengthAdjust="spacingAndGlyphs" textLength="66" x="1403" y="159.1245">Use Case 2</text><line style="stroke: #A80036; stroke-width: 1.0; stroke-dasharray: 1.0,2.0;" x1="1469" x2="1610.5" y1="155.8164" y2="155.8164"/><!--MD5=[00cae90dad3d6433dbf28d238006c643]
class MiddlewareGisInterfaceImplementation--><rect fill="#FEFECE" filter="url(#f78t5bcds9glq)" height="132.8281" id="MiddlewareGisInterfaceImplementation" style="stroke: #A80036; stroke-width: 1.5;" width="543" x="38.5" y="264.5"/><ellipse cx="184.75" cy="280.5" fill="#ADD1B2" rx="11" ry="11" style="stroke: #A80036; stroke-width: 1.0;"/><path d="M187.7188,286.1406 Q187.1406,286.4375 186.5,286.5781 Q185.8594,286.7344 185.1563,286.7344 Q182.6563,286.7344 181.3281,285.0938 Q180.0156,283.4375 180.0156,280.3125 Q180.0156,277.1875 181.3281,275.5313 Q182.6563,273.875 185.1563,273.875 Q185.8594,273.875 186.5,274.0313 Q187.1563,274.1875 187.7188,274.4844 L187.7188,277.2031 Q187.0938,276.625 186.5,276.3594 Q185.9063,276.0781 185.2813,276.0781 Q183.9375,276.0781 183.25,277.1563 Q182.5625,278.2188 182.5625,280.3125 Q182.5625,282.4063 183.25,283.4844 Q183.9375,284.5469 185.2813,284.5469 Q185.9063,284.5469 186.5,284.2813 Q187.0938,284 187.7188,283.4219 L187.7188,286.1406 Z "/><text fill="#000000" font-family="sans-serif" font-size="12" lengthAdjust="spacingAndGlyphs" textLength="242" x="205.25" y="284.6543">MiddlewareGisInterfaceImplementation</text><line style="stroke: #A80036; stroke-width: 1.5;" x1="39.5" x2="580.5" y1="296.5" y2="296.5"/><rect fill="none" height="6" style="stroke: #C82930; stroke-width: 1.0;" width="6" x="46.5" y="304.5"/><text fill="#000000" font-family="sans-serif" font-size="11" lengthAdjust="spacingAndGlyphs" textLength="288" x="58.5" y="310.7104">MiddlewareGisProcessor middlewareGisProcessor</text><line style="stroke: #A80036; stroke-width: 1.5;" x1="39.5" x2="580.5" y1="317.3047" y2="317.3047"/><ellipse cx="49.5" cy="328.3047" fill="#84BE84" rx="3" ry="3" style="stroke: #038048; stroke-width: 1.0;"/><text fill="#000000" font-family="sans-serif" font-size="11" lengthAdjust="spacingAndGlyphs" textLength="517" x="58.5" y="331.5151">MiddlewareGisInterfaceImplementation(MiddlewareGisProcessor middlewareGisProcessor)</text><ellipse cx="49.5" cy="357.9141" fill="#84BE84" rx="3" ry="3" style="stroke: #038048; stroke-width: 1.0;"/><text fill="#000000" font-family="sans-serif" font-size="11" lengthAdjust="spacingAndGlyphs" textLength="324" x="58.5" y="361.1245">String receiveGpsSignalStrength(Satellite satelliteSignal)</text><line style="stroke: #A80036; stroke-width: 1.0; stroke-dasharray: 1.0,2.0;" x1="39.5" x2="277" y1="344.5117" y2="344.5117"/><text fill="#000000" font-family="sans-serif" font-size="11" lengthAdjust="spacingAndGlyphs" textLength="66" x="277" y="347.8198">Use Case 1</text><line style="stroke: #A80036; stroke-width: 1.0; stroke-dasharray: 1.0,2.0;" x1="343" x2="580.5" y1="344.5117" y2="344.5117"/><ellipse cx="49.5" cy="387.5234" fill="#84BE84" rx="3" ry="3" style="stroke: #038048; stroke-width: 1.0;"/><text fill="#000000" font-family="sans-serif" font-size="11" lengthAdjust="spacingAndGlyphs" textLength="324" x="58.5" y="390.7339">String receiveGpsSignalStrength(Satellite satelliteSignal)</text><line style="stroke: #A80036; stroke-width: 1.0; stroke-dasharray: 1.0,2.0;" x1="39.5" x2="277" y1="374.1211" y2="374.1211"/><text fill="#000000" font-family="sans-serif" font-size="11" lengthAdjust="spacingAndGlyphs" textLength="66" x="277" y="377.4292">Use Case 2</text><line style="stroke: #A80036; stroke-width: 1.0; stroke-dasharray: 1.0,2.0;" x1="343" x2="580.5" y1="374.1211" y2="374.1211"/><!--MD5=[5617cf6c0203deaad7dbff4f5099a816]
class MiddlewareGisProcessorImplementation--><rect fill="#FEFECE" filter="url(#f78t5bcds9glq)" height="132.8281" id="MiddlewareGisProcessorImplementation" style="stroke: #A80036; stroke-width: 1.5;" width="533" x="616.5" y="264.5"/><ellipse cx="754.25" cy="280.5" fill="#ADD1B2" rx="11" ry="11" style="stroke: #A80036; stroke-width: 1.0;"/><path d="M757.2188,286.1406 Q756.6406,286.4375 756,286.5781 Q755.3594,286.7344 754.6563,286.7344 Q752.1563,286.7344 750.8281,285.0938 Q749.5156,283.4375 749.5156,280.3125 Q749.5156,277.1875 750.8281,275.5313 Q752.1563,273.875 754.6563,273.875 Q755.3594,273.875 756,274.0313 Q756.6563,274.1875 757.2188,274.4844 L757.2188,277.2031 Q756.5938,276.625 756,276.3594 Q755.4063,276.0781 754.7813,276.0781 Q753.4375,276.0781 752.75,277.1563 Q752.0625,278.2188 752.0625,280.3125 Q752.0625,282.4063 752.75,283.4844 Q753.4375,284.5469 754.7813,284.5469 Q755.4063,284.5469 756,284.2813 Q756.5938,284 757.2188,283.4219 L757.2188,286.1406 Z "/><text fill="#000000" font-family="sans-serif" font-size="12" lengthAdjust="spacingAndGlyphs" textLength="249" x="774.75" y="284.6543">MiddlewareGisProcessorImplementation</text><line style="stroke: #A80036; stroke-width: 1.5;" x1="617.5" x2="1148.5" y1="296.5" y2="296.5"/><rect fill="none" height="6" style="stroke: #C82930; stroke-width: 1.0;" width="6" x="624.5" y="304.5"/><text fill="#000000" font-family="sans-serif" font-size="11" lengthAdjust="spacingAndGlyphs" textLength="270" x="636.5" y="310.7104">MiddlewareGisManager middlewareGisManager</text><line style="stroke: #A80036; stroke-width: 1.5;" x1="617.5" x2="1148.5" y1="317.3047" y2="317.3047"/><ellipse cx="627.5" cy="328.3047" fill="#84BE84" rx="3" ry="3" style="stroke: #038048; stroke-width: 1.0;"/><text fill="#000000" font-family="sans-serif" font-size="11" lengthAdjust="spacingAndGlyphs" textLength="507" x="636.5" y="331.5151">MiddlewareGisProcessorImplementation(MiddlewareGisManager middlewareGisManager)</text><ellipse cx="627.5" cy="357.9141" fill="#84BE84" rx="3" ry="3" style="stroke: #038048; stroke-width: 1.0;"/><text fill="#000000" font-family="sans-serif" font-size="11" lengthAdjust="spacingAndGlyphs" textLength="331" x="636.5" y="361.1245">String evaluateGpsSignalStrength(Satellite satelliteSignal)</text><line style="stroke: #A80036; stroke-width: 1.0; stroke-dasharray: 1.0,2.0;" x1="617.5" x2="850" y1="344.5117" y2="344.5117"/><text fill="#000000" font-family="sans-serif" font-size="11" lengthAdjust="spacingAndGlyphs" textLength="66" x="850" y="347.8198">Use Case 1</text><line style="stroke: #A80036; stroke-width: 1.0; stroke-dasharray: 1.0,2.0;" x1="916" x2="1148.5" y1="344.5117" y2="344.5117"/><ellipse cx="627.5" cy="387.5234" fill="#84BE84" rx="3" ry="3" style="stroke: #038048; stroke-width: 1.0;"/><text fill="#000000" font-family="sans-serif" font-size="11" lengthAdjust="spacingAndGlyphs" textLength="334" x="636.5" y="390.7339">String measureGpsSignalStrength(Satellite satelliteSignal)</text><line style="stroke: #A80036; stroke-width: 1.0; stroke-dasharray: 1.0,2.0;" x1="617.5" x2="850" y1="374.1211" y2="374.1211"/><text fill="#000000" font-family="sans-serif" font-size="11" lengthAdjust="spacingAndGlyphs" textLength="66" x="850" y="377.4292">Use Case 2</text><line style="stroke: #A80036; stroke-width: 1.0; stroke-dasharray: 1.0,2.0;" x1="916" x2="1148.5" y1="374.1211" y2="374.1211"/><!--MD5=[95fb96a46a83d39a2e18236f313a92fb]
class MiddlewareGisManagerImplementation--><rect fill="#FEFECE" filter="url(#f78t5bcds9glq)" height="158.4375" id="MiddlewareGisManagerImplementation" style="stroke: #A80036; stroke-width: 1.5;" width="503" x="1184.5" y="252"/><ellipse cx="1311.25" cy="268" fill="#ADD1B2" rx="11" ry="11" style="stroke: #A80036; stroke-width: 1.0;"/><path d="M1314.2188,273.6406 Q1313.6406,273.9375 1313,274.0781 Q1312.3594,274.2344 1311.6563,274.2344 Q1309.1563,274.2344 1307.8281,272.5938 Q1306.5156,270.9375 1306.5156,267.8125 Q1306.5156,264.6875 1307.8281,263.0313 Q1309.1563,261.375 1311.6563,261.375 Q1312.3594,261.375 1313,261.5313 Q1313.6563,261.6875 1314.2188,261.9844 L1314.2188,264.7031 Q1313.5938,264.125 1313,263.8594 Q1312.4063,263.5781 1311.7813,263.5781 Q1310.4375,263.5781 1309.75,264.6563 Q1309.0625,265.7188 1309.0625,267.8125 Q1309.0625,269.9063 1309.75,270.9844 Q1310.4375,272.0469 1311.7813,272.0469 Q1312.4063,272.0469 1313,271.7813 Q1313.5938,271.5 1314.2188,270.9219 L1314.2188,273.6406 Z "/><text fill="#000000" font-family="sans-serif" font-size="12" lengthAdjust="spacingAndGlyphs" textLength="241" x="1331.75" y="272.1543">MiddlewareGisManagerImplementation</text><line style="stroke: #A80036; stroke-width: 1.5;" x1="1185.5" x2="1686.5" y1="284" y2="284"/><rect fill="none" height="6" style="stroke: #C82930; stroke-width: 1.0;" width="6" x="1192.5" y="292"/><text fill="#000000" font-family="sans-serif" font-size="11" lengthAdjust="spacingAndGlyphs" textLength="249" x="1204.5" y="298.2104">DatabaseGisInterface databaseGisInterface</text><line style="stroke: #A80036; stroke-width: 1.5;" x1="1185.5" x2="1686.5" y1="304.8047" y2="304.8047"/><ellipse cx="1195.5" cy="315.8047" fill="#84BE84" rx="3" ry="3" style="stroke: #038048; stroke-width: 1.0;"/><text fill="#000000" font-family="sans-serif" font-size="11" lengthAdjust="spacingAndGlyphs" textLength="477" x="1204.5" y="319.0151">MiddlewareGisManagerImplementation(DatabaseGisInterface databaseGisInterface)</text><ellipse cx="1195.5" cy="345.4141" fill="#84BE84" rx="3" ry="3" style="stroke: #038048; stroke-width: 1.0;"/><text fill="#000000" font-family="sans-serif" font-size="11" lengthAdjust="spacingAndGlyphs" textLength="331" x="1204.5" y="348.6245">String receieveGpsSignalStrength(Satellite satelliteSignal)</text><ellipse cx="1195.5" cy="358.2188" fill="#84BE84" rx="3" ry="3" style="stroke: #038048; stroke-width: 1.0;"/><text fill="#000000" font-family="sans-serif" font-size="11" lengthAdjust="spacingAndGlyphs" textLength="166" x="1204.5" y="361.4292">void storeLocationDataPoint()</text><line style="stroke: #A80036; stroke-width: 1.0; stroke-dasharray: 1.0,2.0;" x1="1185.5" x2="1403" y1="332.0117" y2="332.0117"/><text fill="#000000" font-family="sans-serif" font-size="11" lengthAdjust="spacingAndGlyphs" textLength="66" x="1403" y="335.3198">Use Case 1</text><line style="stroke: #A80036; stroke-width: 1.0; stroke-dasharray: 1.0,2.0;" x1="1469" x2="1686.5" y1="332.0117" y2="332.0117"/><ellipse cx="1195.5" cy="387.8281" fill="#84BE84" rx="3" ry="3" style="stroke: #038048; stroke-width: 1.0;"/><text fill="#000000" font-family="sans-serif" font-size="11" lengthAdjust="spacingAndGlyphs" textLength="306" x="1204.5" y="391.0386">String attemptToRegainGpsLock(String satelliteName)</text><ellipse cx="1195.5" cy="400.6328" fill="#84BE84" rx="3" ry="3" style="stroke: #038048; stroke-width: 1.0;"/><text fill="#000000" font-family="sans-serif" font-size="11" lengthAdjust="spacingAndGlyphs" textLength="311" x="1204.5" y="403.8433">String evaluateGpsSignalStrength(boolean signalValid)</text><line style="stroke: #A80036; stroke-width: 1.0; stroke-dasharray: 1.0,2.0;" x1="1185.5" x2="1403" y1="374.4258" y2="374.4258"/><text fill="#000000" font-family="sans-serif" font-size="11" lengthAdjust="spacingAndGlyphs" textLength="66" x="1403" y="377.7339">Use Case 2</text><line style="stroke: #A80036; stroke-width: 1.0; stroke-dasharray: 1.0,2.0;" x1="1469" x2="1686.5" y1="374.4258" y2="374.4258"/><!--MD5=[f9eec55cbf04414e6fb4fde8343b27e2]
reverse link MiddlewareGisInterface to MiddlewareGisInterfaceImplementation--><path d="M310,199.26 C310,220.53 310,243.64 310,264.44 " fill="none" id="MiddlewareGisInterface&lt;-MiddlewareGisInterfaceImplementation" style="stroke: #A80036; stroke-width: 1.0; stroke-dasharray: 7.0,7.0;"/><polygon fill="none" points="303,199.17,310,179.17,317,199.17,303,199.17" style="stroke: #A80036; stroke-width: 1.0;"/><!--MD5=[5966268999ccfcd0ee1c07b359e3e55d]
reverse link MiddlewareGisProcessor to MiddlewareGisProcessorImplementation--><path d="M883,199.26 C883,220.53 883,243.64 883,264.44 " fill="none" id="MiddlewareGisProcessor&lt;-MiddlewareGisProcessorImplementation" style="stroke: #A80036; stroke-width: 1.0; stroke-dasharray: 7.0,7.0;"/><polygon fill="none" points="876,199.17,883,179.17,890,199.17,876,199.17" style="stroke: #A80036; stroke-width: 1.0;"/><!--MD5=[ba88405600d0f63e318d28a37302bd2e]
reverse link MiddlewareGisManager to MiddlewareGisManagerImplementation--><path d="M1436,212.22 C1436,225.36 1436,238.86 1436,251.82 " fill="none" id="MiddlewareGisManager&lt;-MiddlewareGisManagerImplementation" style="stroke: #A80036; stroke-width: 1.0; stroke-dasharray: 7.0,7.0;"/><polygon fill="none" points="1429,212.01,1436,192.01,1443,212.01,1429,212.01" style="stroke: #A80036; stroke-width: 1.0;"/><!--MD5=[72a39f367bdec071197461cb2f67ad94]
@startuml Middleware01ProductionPackage_Closure

package edu.oakland.production.middleware01 {
    
}



package edu.oakland.production.middleware01 {
    interface MiddlewareGisInterface {
        __
        .. Use Case 1 ..
        {abstract} + String receiveGpsSignalStrength(Satellite satelliteSignal)
        .. Use Case 2 ..
        {abstract} + String receiveGpsSignalStrength(Satellite satelliteSignal)
    }
}








package edu.oakland.production.middleware01 {
    interface MiddlewareGisProcessor {
        __
        .. Use Case 1 ..
        {abstract} + String evaluateGpsSignalStrength(Satellite satelliteSignal)
        .. Use Case 2 ..
        {abstract} + String measureGpsSignalStrength(Satellite satelliteSignal)
    }
}








package edu.oakland.production.middleware01 {
    interface MiddlewareGisManager {
        __
        .. Use Case 1 ..
        {abstract} + String receieveGpsSignalStrength(Satellite satelliteSignal)
        {abstract} + void storeLocationDataPoint()
        .. Use Case 2 ..
        {abstract} + String attemptToRegainGpsLock(String satelliteName)
        {abstract} + String evaluateGpsSignalStrength(boolean signalValid)
    }
}








package edu.oakland.production.middleware01 {
    class MiddlewareGisInterfaceImplementation {
        - MiddlewareGisProcessor middlewareGisProcessor
        __
        + MiddlewareGisInterfaceImplementation(MiddlewareGisProcessor middlewareGisProcessor)
        .. Use Case 1 ..
        + String receiveGpsSignalStrength(Satellite satelliteSignal)
        .. Use Case 2 ..
        + String receiveGpsSignalStrength(Satellite satelliteSignal)
    }
}


MiddlewareGisInterfaceImplementation .up.|> MiddlewareGisInterface







package edu.oakland.production.middleware01 {
    class MiddlewareGisProcessorImplementation {
        - MiddlewareGisManager middlewareGisManager
        __
        + MiddlewareGisProcessorImplementation(MiddlewareGisManager middlewareGisManager)
        .. Use Case 1 ..
        + String evaluateGpsSignalStrength(Satellite satelliteSignal)
        .. Use Case 2 ..
        + String measureGpsSignalStrength(Satellite satelliteSignal)
    }
}


MiddlewareGisProcessorImplementation .up.|> MiddlewareGisProcessor







package edu.oakland.production.middleware01 {
    class MiddlewareGisManagerImplementation {
        - DatabaseGisInterface databaseGisInterface
        __
        + MiddlewareGisManagerImplementation(DatabaseGisInterface databaseGisInterface)
        .. Use Case 1 ..
        + String receieveGpsSignalStrength(Satellite satelliteSignal)
        + void storeLocationDataPoint()
        .. Use Case 2 ..
        + String attemptToRegainGpsLock(String satelliteName)
        + String evaluateGpsSignalStrength(boolean signalValid)
    }
}


MiddlewareGisManagerImplementation .up.|> MiddlewareGisManager






@enduml

PlantUML version 1.2020.02(Sun Mar 01 10:22:07 GMT 2020)
(GPL source distribution)
Java Runtime: OpenJDK Runtime Environment
JVM: OpenJDK 64-Bit Server VM
Java Version: 11.0.9+11-Ubuntu-0ubuntu1
Operating System: Linux
Default Encoding: ANSI_X3.4-1968
Language: en
Country: US
--></g></svg>