<?xml version="1.0" encoding="UTF-8" standalone="no"?><svg xmlns="http://www.w3.org/2000/svg" xmlns:xlink="http://www.w3.org/1999/xlink" contentScriptType="application/ecmascript" contentStyleType="text/css" height="225px" preserveAspectRatio="none" style="width:346px;height:225px;" version="1.1" viewBox="0 0 346 225" width="346px" zoomAndPan="magnify"><defs><filter height="300%" id="f9c0js1ruqryj" width="300%" x="-1" y="-1"><feGaussianBlur result="blurOut" stdDeviation="2.0"/><feColorMatrix in="blurOut" result="blurOut2" type="matrix" values="0 0 0 0 0 0 0 0 0 0 0 0 0 0 0 0 0 0 .4 0"/><feOffset dx="4.0" dy="4.0" in="blurOut2" result="blurOut3"/><feBlend in="SourceGraphic" in2="blurOut3" mode="normal"/></filter></defs><g><!--MD5=[850b37b0b8d882ee2cad74ae2a956f48]
cluster edu.oakland.helper.admin--><polygon fill="#FFFFFF" filter="url(#f9c0js1ruqryj)" points="22,24,232,24,239,46.2969,324,46.2969,324,213,22,213,22,24" style="stroke: #000000; stroke-width: 1.5;"/><line style="stroke: #000000; stroke-width: 1.5;" x1="22" x2="239" y1="46.2969" y2="46.2969"/><text fill="#000000" font-family="sans-serif" font-size="14" font-weight="bold" lengthAdjust="spacingAndGlyphs" textLength="204" x="26" y="38.9951">edu.oakland.helper.admin</text><!--MD5=[39a9b949d1787538902e1dfaac894da1]
class Satellite--><rect fill="#FEFECE" filter="url(#f9c0js1ruqryj)" height="137.6328" id="Satellite" style="stroke: #A80036; stroke-width: 1.5;" width="270" x="38" y="59"/><ellipse cx="143.25" cy="75" fill="#ADD1B2" rx="11" ry="11" style="stroke: #A80036; stroke-width: 1.0;"/><path d="M146.2188,80.6406 Q145.6406,80.9375 145,81.0781 Q144.3594,81.2344 143.6563,81.2344 Q141.1563,81.2344 139.8281,79.5938 Q138.5156,77.9375 138.5156,74.8125 Q138.5156,71.6875 139.8281,70.0313 Q141.1563,68.375 143.6563,68.375 Q144.3594,68.375 145,68.5313 Q145.6563,68.6875 146.2188,68.9844 L146.2188,71.7031 Q145.5938,71.125 145,70.8594 Q144.4063,70.5781 143.7813,70.5781 Q142.4375,70.5781 141.75,71.6563 Q141.0625,72.7188 141.0625,74.8125 Q141.0625,76.9063 141.75,77.9844 Q142.4375,79.0469 143.7813,79.0469 Q144.4063,79.0469 145,78.7813 Q145.5938,78.5 146.2188,77.9219 L146.2188,80.6406 Z "/><text fill="#000000" font-family="sans-serif" font-size="12" lengthAdjust="spacingAndGlyphs" textLength="51" x="163.75" y="79.1543">Satellite</text><line style="stroke: #A80036; stroke-width: 1.5;" x1="39" x2="307" y1="91" y2="91"/><rect fill="none" height="6" style="stroke: #C82930; stroke-width: 1.0;" width="6" x="46" y="99"/><text fill="#000000" font-family="sans-serif" font-size="11" lengthAdjust="spacingAndGlyphs" textLength="116" x="58" y="105.2104">String satelliteName</text><rect fill="none" height="6" style="stroke: #C82930; stroke-width: 1.0;" width="6" x="46" y="111.8047"/><text fill="#000000" font-family="sans-serif" font-size="11" lengthAdjust="spacingAndGlyphs" textLength="66" x="58" y="118.0151">int strength</text><line style="stroke: #A80036; stroke-width: 1.5;" x1="39" x2="307" y1="124.6094" y2="124.6094"/><ellipse cx="49" cy="135.6094" fill="#84BE84" rx="3" ry="3" style="stroke: #038048; stroke-width: 1.0;"/><text fill="#000000" font-family="sans-serif" font-size="11" lengthAdjust="spacingAndGlyphs" textLength="244" x="58" y="138.8198">Satellite(String satelliteName, int strength)</text><ellipse cx="49" cy="148.4141" fill="#84BE84" rx="3" ry="3" style="stroke: #038048; stroke-width: 1.0;"/><text fill="#000000" font-family="sans-serif" font-size="11" lengthAdjust="spacingAndGlyphs" textLength="143" x="58" y="151.6245">String getSatelliteName()</text><ellipse cx="49" cy="161.2188" fill="#84BE84" rx="3" ry="3" style="stroke: #038048; stroke-width: 1.0;"/><text fill="#000000" font-family="sans-serif" font-size="11" lengthAdjust="spacingAndGlyphs" textLength="93" x="58" y="164.4292">int getStrength()</text><ellipse cx="49" cy="174.0234" fill="#84BE84" rx="3" ry="3" style="stroke: #038048; stroke-width: 1.0;"/><text fill="#000000" font-family="sans-serif" font-size="11" lengthAdjust="spacingAndGlyphs" textLength="168" x="58" y="177.2339">void setStrength(int strength)</text><rect fill="#F24D5C" height="6" style="stroke: #C82930; stroke-width: 1.0;" width="6" x="46" y="183.8281"/><text fill="#000000" font-family="sans-serif" font-size="11" lengthAdjust="spacingAndGlyphs" textLength="208" x="58" y="190.0386">boolean strengthIsValid(int strength)</text><!--MD5=[43c7f80f193b975e44e51345ac8c9533]
@startuml Satellite_DirectDependencies


package edu.oakland.helper.admin {
    class Satellite {
        - String satelliteName
        - int strength
        + Satellite(String satelliteName, int strength)
        + String getSatelliteName()
        + int getStrength()
        + void setStrength(int strength)
        - boolean strengthIsValid(int strength)
    }
}






@enduml

PlantUML version 1.2020.02(Sun Mar 01 10:22:07 GMT 2020)
(GPL source distribution)
Java Runtime: OpenJDK Runtime Environment
JVM: OpenJDK 64-Bit Server VM
Java Version: 11.0.9+11-Ubuntu-0ubuntu1
Operating System: Linux
Default Encoding: ANSI_X3.4-1968
Language: en
Country: US
--></g></svg>