<?xml version="1.0" encoding="UTF-8" standalone="no"?><svg xmlns="http://www.w3.org/2000/svg" xmlns:xlink="http://www.w3.org/1999/xlink" contentScriptType="application/ecmascript" contentStyleType="text/css" height="574px" preserveAspectRatio="none" style="width:540px;height:574px;" version="1.1" viewBox="0 0 540 574" width="540px" zoomAndPan="magnify"><defs><filter height="300%" id="fwt8byduljhs5" width="300%" x="-1" y="-1"><feGaussianBlur result="blurOut" stdDeviation="2.0"/><feColorMatrix in="blurOut" result="blurOut2" type="matrix" values="0 0 0 0 0 0 0 0 0 0 0 0 0 0 0 0 0 0 .4 0"/><feOffset dx="4.0" dy="4.0" in="blurOut2" result="blurOut3"/><feBlend in="SourceGraphic" in2="blurOut3" mode="normal"/></filter></defs><g><!--MD5=[3e281e6f49e0b185d62a106a5d994a08]
cluster edu.oakland.production.display01--><polygon fill="#FFFFFF" filter="url(#fwt8byduljhs5)" points="22,24,295,24,302,46.2969,518,46.2969,518,375,22,375,22,24" style="stroke: #000000; stroke-width: 1.5;"/><line style="stroke: #000000; stroke-width: 1.5;" x1="22" x2="302" y1="46.2969" y2="46.2969"/><text fill="#000000" font-family="sans-serif" font-size="14" font-weight="bold" lengthAdjust="spacingAndGlyphs" textLength="267" x="26" y="38.9951">edu.oakland.production.display01</text><!--MD5=[d02020cdc9562d037d87b751d110dd8b]
cluster edu.oakland.helper.display01--><polygon fill="#FFFFFF" filter="url(#fwt8byduljhs5)" points="46,399,284,399,291,421.2969,494,421.2969,494,562,46,562,46,399" style="stroke: #000000; stroke-width: 1.5;"/><line style="stroke: #000000; stroke-width: 1.5;" x1="46" x2="291" y1="421.2969" y2="421.2969"/><text fill="#000000" font-family="sans-serif" font-size="14" font-weight="bold" lengthAdjust="spacingAndGlyphs" textLength="232" x="50" y="413.9951">edu.oakland.helper.display01</text><!--MD5=[02b25ee3f711f666678619f4b81f3681]
class DisplayGpsReceiverImplementation--><rect fill="#FEFECE" filter="url(#fwt8byduljhs5)" height="132.8281" id="DisplayGpsReceiverImplementation" style="stroke: #A80036; stroke-width: 1.5;" width="464" x="38" y="226"/><ellipse cx="156.75" cy="242" fill="#ADD1B2" rx="11" ry="11" style="stroke: #A80036; stroke-width: 1.0;"/><path d="M159.7188,247.6406 Q159.1406,247.9375 158.5,248.0781 Q157.8594,248.2344 157.1563,248.2344 Q154.6563,248.2344 153.3281,246.5938 Q152.0156,244.9375 152.0156,241.8125 Q152.0156,238.6875 153.3281,237.0313 Q154.6563,235.375 157.1563,235.375 Q157.8594,235.375 158.5,235.5313 Q159.1563,235.6875 159.7188,235.9844 L159.7188,238.7031 Q159.0938,238.125 158.5,237.8594 Q157.9063,237.5781 157.2813,237.5781 Q155.9375,237.5781 155.25,238.6563 Q154.5625,239.7188 154.5625,241.8125 Q154.5625,243.9063 155.25,244.9844 Q155.9375,246.0469 157.2813,246.0469 Q157.9063,246.0469 158.5,245.7813 Q159.0938,245.5 159.7188,244.9219 L159.7188,247.6406 Z "/><text fill="#000000" font-family="sans-serif" font-size="12" lengthAdjust="spacingAndGlyphs" textLength="218" x="177.25" y="246.1543">DisplayGpsReceiverImplementation</text><line style="stroke: #A80036; stroke-width: 1.5;" x1="39" x2="501" y1="258" y2="258"/><rect fill="none" height="6" style="stroke: #C82930; stroke-width: 1.0;" width="6" x="46" y="266"/><text fill="#000000" font-family="sans-serif" font-size="11" lengthAdjust="spacingAndGlyphs" textLength="230" x="58" y="272.2104">DisplayGpsManager displayGPSManager</text><line style="stroke: #A80036; stroke-width: 1.5;" x1="39" x2="501" y1="278.8047" y2="278.8047"/><ellipse cx="49" cy="289.8047" fill="#84BE84" rx="3" ry="3" style="stroke: #038048; stroke-width: 1.0;"/><text fill="#000000" font-family="sans-serif" font-size="11" lengthAdjust="spacingAndGlyphs" textLength="438" x="58" y="293.0151">DisplayGpsReceiverImplementation(DisplayGpsManager displayGPSManager)</text><ellipse cx="49" cy="319.4141" fill="#84BE84" rx="3" ry="3" style="stroke: #038048; stroke-width: 1.0;"/><text fill="#000000" font-family="sans-serif" font-size="11" lengthAdjust="spacingAndGlyphs" textLength="334" x="58" y="322.6245">String measureGpsSignalStrength(Satellite satelliteSignal)</text><line style="stroke: #A80036; stroke-width: 1.0; stroke-dasharray: 1.0,2.0;" x1="39" x2="237" y1="306.0117" y2="306.0117"/><text fill="#000000" font-family="sans-serif" font-size="11" lengthAdjust="spacingAndGlyphs" textLength="66" x="237" y="309.3198">Use Case 1</text><line style="stroke: #A80036; stroke-width: 1.0; stroke-dasharray: 1.0,2.0;" x1="303" x2="501" y1="306.0117" y2="306.0117"/><ellipse cx="49" cy="349.0234" fill="#84BE84" rx="3" ry="3" style="stroke: #038048; stroke-width: 1.0;"/><text fill="#000000" font-family="sans-serif" font-size="11" lengthAdjust="spacingAndGlyphs" textLength="389" x="58" y="352.2339">SatelliteSignalCheckRequest measureSignal(Satellite satelliteSignal)</text><line style="stroke: #A80036; stroke-width: 1.0; stroke-dasharray: 1.0,2.0;" x1="39" x2="237" y1="335.6211" y2="335.6211"/><text fill="#000000" font-family="sans-serif" font-size="11" lengthAdjust="spacingAndGlyphs" textLength="66" x="237" y="338.9292">Use Case 2</text><line style="stroke: #A80036; stroke-width: 1.0; stroke-dasharray: 1.0,2.0;" x1="303" x2="501" y1="335.6211" y2="335.6211"/><!--MD5=[319273309e4c56bac150542a32321bb2]
class DisplayGpsReceiver--><rect fill="#FEFECE" filter="url(#fwt8byduljhs5)" height="107.2188" id="DisplayGpsReceiver" style="stroke: #A80036; stroke-width: 1.5;" width="408" x="66" y="59"/><ellipse cx="205.75" cy="75" fill="#B4A7E5" rx="11" ry="11" style="stroke: #A80036; stroke-width: 1.0;"/><path d="M201.6719,70.7656 L201.6719,68.6094 L209.0625,68.6094 L209.0625,70.7656 L206.5938,70.7656 L206.5938,78.8438 L209.0625,78.8438 L209.0625,81 L201.6719,81 L201.6719,78.8438 L204.1406,78.8438 L204.1406,70.7656 L201.6719,70.7656 Z "/><text fill="#000000" font-family="sans-serif" font-size="12" font-style="italic" lengthAdjust="spacingAndGlyphs" textLength="120" x="226.25" y="79.1543">DisplayGpsReceiver</text><line style="stroke: #A80036; stroke-width: 1.5;" x1="67" x2="473" y1="91" y2="91"/><line style="stroke: #A80036; stroke-width: 1.5;" x1="67" x2="473" y1="99" y2="99"/><ellipse cx="77" cy="126.8047" fill="#84BE84" rx="3" ry="3" style="stroke: #038048; stroke-width: 1.0;"/><text fill="#000000" font-family="sans-serif" font-size="11" font-style="italic" lengthAdjust="spacingAndGlyphs" textLength="326" x="86" y="130.0151">String measureGpsSignalStrength(Satellite satelliteSignal)</text><line style="stroke: #A80036; stroke-width: 1.0; stroke-dasharray: 1.0,2.0;" x1="67" x2="237" y1="113.4023" y2="113.4023"/><text fill="#000000" font-family="sans-serif" font-size="11" lengthAdjust="spacingAndGlyphs" textLength="66" x="237" y="116.7104">Use Case 1</text><line style="stroke: #A80036; stroke-width: 1.0; stroke-dasharray: 1.0,2.0;" x1="303" x2="473" y1="113.4023" y2="113.4023"/><ellipse cx="77" cy="156.4141" fill="#84BE84" rx="3" ry="3" style="stroke: #038048; stroke-width: 1.0;"/><text fill="#000000" font-family="sans-serif" font-size="11" font-style="italic" lengthAdjust="spacingAndGlyphs" textLength="382" x="86" y="159.6245">SatelliteSignalCheckRequest measureSignal(Satellite satelliteSignal)</text><line style="stroke: #A80036; stroke-width: 1.0; stroke-dasharray: 1.0,2.0;" x1="67" x2="237" y1="143.0117" y2="143.0117"/><text fill="#000000" font-family="sans-serif" font-size="11" lengthAdjust="spacingAndGlyphs" textLength="66" x="237" y="146.3198">Use Case 2</text><line style="stroke: #A80036; stroke-width: 1.0; stroke-dasharray: 1.0,2.0;" x1="303" x2="473" y1="143.0117" y2="143.0117"/><!--MD5=[b7db7f9e4ca1b2f55d32a1a48f9dd068]
class SatelliteSignalCheckRequest--><rect fill="#FEFECE" filter="url(#fwt8byduljhs5)" height="112.0234" id="SatelliteSignalCheckRequest" style="stroke: #A80036; stroke-width: 1.5;" width="416" x="62" y="434"/><ellipse cx="176.25" cy="450" fill="#ADD1B2" rx="11" ry="11" style="stroke: #A80036; stroke-width: 1.0;"/><path d="M179.2188,455.6406 Q178.6406,455.9375 178,456.0781 Q177.3594,456.2344 176.6563,456.2344 Q174.1563,456.2344 172.8281,454.5938 Q171.5156,452.9375 171.5156,449.8125 Q171.5156,446.6875 172.8281,445.0313 Q174.1563,443.375 176.6563,443.375 Q177.3594,443.375 178,443.5313 Q178.6563,443.6875 179.2188,443.9844 L179.2188,446.7031 Q178.5938,446.125 178,445.8594 Q177.4063,445.5781 176.7813,445.5781 Q175.4375,445.5781 174.75,446.6563 Q174.0625,447.7188 174.0625,449.8125 Q174.0625,451.9063 174.75,452.9844 Q175.4375,454.0469 176.7813,454.0469 Q177.4063,454.0469 178,453.7813 Q178.5938,453.5 179.2188,452.9219 L179.2188,455.6406 Z "/><text fill="#000000" font-family="sans-serif" font-size="12" lengthAdjust="spacingAndGlyphs" textLength="179" x="196.75" y="454.1543">SatelliteSignalCheckRequest</text><line style="stroke: #A80036; stroke-width: 1.5;" x1="63" x2="477" y1="466" y2="466"/><rect fill="none" height="6" style="stroke: #C82930; stroke-width: 1.0;" width="6" x="70" y="474"/><text fill="#000000" font-family="sans-serif" font-size="11" lengthAdjust="spacingAndGlyphs" textLength="116" x="82" y="480.2104">String satelliteName</text><rect fill="none" height="6" style="stroke: #C82930; stroke-width: 1.0;" width="6" x="70" y="486.8047"/><text fill="#000000" font-family="sans-serif" font-size="11" lengthAdjust="spacingAndGlyphs" textLength="97" x="82" y="493.0151">String checkType</text><line style="stroke: #A80036; stroke-width: 1.5;" x1="63" x2="477" y1="499.6094" y2="499.6094"/><ellipse cx="73" cy="510.6094" fill="#84BE84" rx="3" ry="3" style="stroke: #038048; stroke-width: 1.0;"/><text fill="#000000" font-family="sans-serif" font-size="11" lengthAdjust="spacingAndGlyphs" textLength="390" x="82" y="513.8198">SatelliteSignalCheckRequest(String satelliteName, String checkType)</text><ellipse cx="73" cy="523.4141" fill="#84BE84" rx="3" ry="3" style="stroke: #038048; stroke-width: 1.0;"/><text fill="#000000" font-family="sans-serif" font-size="11" lengthAdjust="spacingAndGlyphs" textLength="143" x="82" y="526.6245">String getSatelliteName()</text><ellipse cx="73" cy="536.2188" fill="#84BE84" rx="3" ry="3" style="stroke: #038048; stroke-width: 1.0;"/><text fill="#000000" font-family="sans-serif" font-size="11" lengthAdjust="spacingAndGlyphs" textLength="125" x="82" y="539.4292">String getCheckType()</text><!--MD5=[8f7561e34aa0d27a53c807a3ed854e00]
reverse link DisplayGpsReceiver to DisplayGpsReceiverImplementation--><path d="M270,186.86 C270,199.78 270,213.15 270,225.85 " fill="none" id="DisplayGpsReceiver&lt;-DisplayGpsReceiverImplementation" style="stroke: #A80036; stroke-width: 1.0; stroke-dasharray: 7.0,7.0;"/><polygon fill="none" points="263,186.42,270,166.42,277,186.42,263,186.42" style="stroke: #A80036; stroke-width: 1.0;"/><!--MD5=[7d553db02f4a507b6c7c602542b017ef]
link DisplayGpsReceiverImplementation to SatelliteSignalCheckRequest--><path d="M270,359.14 C270,381.63 270,406.67 270,428.72 " fill="none" id="DisplayGpsReceiverImplementation-&gt;SatelliteSignalCheckRequest" style="stroke: #A80036; stroke-width: 1.0; stroke-dasharray: 7.0,7.0;"/><polygon fill="#A80036" points="270,433.96,274,424.96,270,428.96,266,424.96,270,433.96" style="stroke: #A80036; stroke-width: 1.0;"/><!--MD5=[180d4ea367d514182190471c5dc17485]
@startuml DisplayGpsReceiverImplementation_DirectDependencies


package edu.oakland.production.display01 {
    class DisplayGpsReceiverImplementation {
        - DisplayGpsManager displayGPSManager
        __
        + DisplayGpsReceiverImplementation(DisplayGpsManager displayGPSManager)
        .. Use Case 1 ..
        + String measureGpsSignalStrength(Satellite satelliteSignal)
        .. Use Case 2 ..
        + SatelliteSignalCheckRequest measureSignal(Satellite satelliteSignal)
    }
}



package edu.oakland.production.display01 {
    interface DisplayGpsReceiver {
        __
        .. Use Case 1 ..
        {abstract} + String measureGpsSignalStrength(Satellite satelliteSignal)
        .. Use Case 2 ..
        {abstract} + SatelliteSignalCheckRequest measureSignal(Satellite satelliteSignal)
    }
}

DisplayGpsReceiverImplementation .up.|> DisplayGpsReceiver


package edu.oakland.helper.display01 {
    class SatelliteSignalCheckRequest {
        - String satelliteName
        - String checkType
        + SatelliteSignalCheckRequest(String satelliteName, String checkType)
        + String getSatelliteName()
        + String getCheckType()
    }
}

DisplayGpsReceiverImplementation ..> SatelliteSignalCheckRequest



@enduml

PlantUML version 1.2020.02(Sun Mar 01 10:22:07 GMT 2020)
(GPL source distribution)
Java Runtime: OpenJDK Runtime Environment
JVM: OpenJDK 64-Bit Server VM
Java Version: 11.0.9+11-Ubuntu-0ubuntu1
Operating System: Linux
Default Encoding: ANSI_X3.4-1968
Language: en
Country: US
--></g></svg>