<?xml version="1.0" encoding="UTF-8" standalone="no"?><svg xmlns="http://www.w3.org/2000/svg" xmlns:xlink="http://www.w3.org/1999/xlink" contentScriptType="application/ecmascript" contentStyleType="text/css" height="631px" preserveAspectRatio="none" style="width:1768px;height:631px;" version="1.1" viewBox="0 0 1768 631" width="1768px" zoomAndPan="magnify"><defs><filter height="300%" id="f9ga5u43ajqff" width="300%" x="-1" y="-1"><feGaussianBlur result="blurOut" stdDeviation="2.0"/><feColorMatrix in="blurOut" result="blurOut2" type="matrix" values="0 0 0 0 0 0 0 0 0 0 0 0 0 0 0 0 0 0 .4 0"/><feOffset dx="4.0" dy="4.0" in="blurOut2" result="blurOut3"/><feBlend in="SourceGraphic" in2="blurOut3" mode="normal"/></filter></defs><g><!--MD5=[8bd6d9786dfa802b1eecfb7372bf244a]
cluster edu.oakland.production.admin--><polygon fill="#FFFFFF" filter="url(#f9ga5u43ajqff)" points="22,24,267,24,274,46.2969,729,46.2969,729,561.5,22,561.5,22,24" style="stroke: #000000; stroke-width: 1.5;"/><line style="stroke: #000000; stroke-width: 1.5;" x1="22" x2="274" y1="46.2969" y2="46.2969"/><text fill="#000000" font-family="sans-serif" font-size="14" font-weight="bold" lengthAdjust="spacingAndGlyphs" textLength="239" x="26" y="38.9951">edu.oakland.production.admin</text><!--MD5=[850b37b0b8d882ee2cad74ae2a956f48]
cluster edu.oakland.helper.admin--><polygon fill="#FFFFFF" filter="url(#f9ga5u43ajqff)" points="972,77,1182,77,1189,99.2969,1746,99.2969,1746,619,972,619,972,77" style="stroke: #000000; stroke-width: 1.5;"/><line style="stroke: #000000; stroke-width: 1.5;" x1="972" x2="1189" y1="99.2969" y2="99.2969"/><text fill="#000000" font-family="sans-serif" font-size="14" font-weight="bold" lengthAdjust="spacingAndGlyphs" textLength="204" x="976" y="91.9951">edu.oakland.helper.admin</text><!--MD5=[3c84d2688363deb820fa9437de7249ec]
class Demo--><rect fill="#FEFECE" filter="url(#f9ga5u43ajqff)" height="308.0938" id="Demo" style="stroke: #A80036; stroke-width: 1.5;" width="442" x="38" y="59"/><ellipse cx="236.75" cy="75" fill="#ADD1B2" rx="11" ry="11" style="stroke: #A80036; stroke-width: 1.0;"/><path d="M239.7188,80.6406 Q239.1406,80.9375 238.5,81.0781 Q237.8594,81.2344 237.1563,81.2344 Q234.6563,81.2344 233.3281,79.5938 Q232.0156,77.9375 232.0156,74.8125 Q232.0156,71.6875 233.3281,70.0313 Q234.6563,68.375 237.1563,68.375 Q237.8594,68.375 238.5,68.5313 Q239.1563,68.6875 239.7188,68.9844 L239.7188,71.7031 Q239.0938,71.125 238.5,70.8594 Q237.9063,70.5781 237.2813,70.5781 Q235.9375,70.5781 235.25,71.6563 Q234.5625,72.7188 234.5625,74.8125 Q234.5625,76.9063 235.25,77.9844 Q235.9375,79.0469 237.2813,79.0469 Q237.9063,79.0469 238.5,78.7813 Q239.0938,78.5 239.7188,77.9219 L239.7188,80.6406 Z "/><text fill="#000000" font-family="sans-serif" font-size="12" lengthAdjust="spacingAndGlyphs" textLength="36" x="257.25" y="79.1543">Demo</text><line style="stroke: #A80036; stroke-width: 1.5;" x1="39" x2="479" y1="91" y2="91"/><rect fill="none" height="6" style="stroke: #C82930; stroke-width: 1.0;" width="6" x="46" y="115.8047"/><text fill="#000000" font-family="sans-serif" font-size="11" lengthAdjust="spacingAndGlyphs" text-decoration="underline" textLength="231" x="58" y="122.0151">DisplayGpsInterface displayGpsInterface</text><rect fill="none" height="6" style="stroke: #C82930; stroke-width: 1.0;" width="6" x="46" y="128.6094"/><text fill="#000000" font-family="sans-serif" font-size="11" lengthAdjust="spacingAndGlyphs" text-decoration="underline" textLength="227" x="58" y="134.8198">DisplayGpsReceiver displayGpsReceiver</text><rect fill="none" height="6" style="stroke: #C82930; stroke-width: 1.0;" width="6" x="46" y="141.4141"/><text fill="#000000" font-family="sans-serif" font-size="11" lengthAdjust="spacingAndGlyphs" text-decoration="underline" textLength="229" x="58" y="147.6245">DisplayGpsManager displayGpsManager</text><rect fill="none" height="6" style="stroke: #C82930; stroke-width: 1.0;" width="6" x="46" y="154.2188"/><text fill="#000000" font-family="sans-serif" font-size="11" lengthAdjust="spacingAndGlyphs" text-decoration="underline" textLength="259" x="58" y="160.4292">DisplayCommInterface displayCommInterface</text><rect fill="none" height="6" style="stroke: #C82930; stroke-width: 1.0;" width="6" x="46" y="167.0234"/><text fill="#000000" font-family="sans-serif" font-size="11" lengthAdjust="spacingAndGlyphs" text-decoration="underline" textLength="317" x="58" y="173.2339">DisplayComm2WayInterface displayComm2WayInterface</text><rect fill="none" height="6" style="stroke: #C82930; stroke-width: 1.0;" width="6" x="46" y="179.8281"/><text fill="#000000" font-family="sans-serif" font-size="11" lengthAdjust="spacingAndGlyphs" text-decoration="underline" textLength="257" x="58" y="186.0386">DisplayCommManager displayCommManager</text><rect fill="none" height="6" style="stroke: #C82930; stroke-width: 1.0;" width="6" x="46" y="192.6328"/><text fill="#000000" font-family="sans-serif" font-size="11" lengthAdjust="spacingAndGlyphs" text-decoration="underline" textLength="272" x="58" y="198.8433">MiddlewareGisInterface middlewareGisInterface</text><rect fill="none" height="6" style="stroke: #C82930; stroke-width: 1.0;" width="6" x="46" y="205.4375"/><text fill="#000000" font-family="sans-serif" font-size="11" lengthAdjust="spacingAndGlyphs" text-decoration="underline" textLength="288" x="58" y="211.6479">MiddlewareGisProcessor middlewareGisProcessor</text><rect fill="none" height="6" style="stroke: #C82930; stroke-width: 1.0;" width="6" x="46" y="218.2422"/><text fill="#000000" font-family="sans-serif" font-size="11" lengthAdjust="spacingAndGlyphs" text-decoration="underline" textLength="270" x="58" y="224.4526">MiddlewareGisManager middlewareGisManager</text><rect fill="none" height="6" style="stroke: #C82930; stroke-width: 1.0;" width="6" x="46" y="231.0469"/><text fill="#000000" font-family="sans-serif" font-size="11" lengthAdjust="spacingAndGlyphs" text-decoration="underline" textLength="308" x="58" y="237.2573">MiddlewareCommInterface middlewareCommInterface</text><rect fill="none" height="6" style="stroke: #C82930; stroke-width: 1.0;" width="6" x="46" y="243.8516"/><text fill="#000000" font-family="sans-serif" font-size="11" lengthAdjust="spacingAndGlyphs" text-decoration="underline" textLength="350" x="58" y="250.062">MiddlewareCommLinkManager middlewareCommLinkManager</text><rect fill="none" height="6" style="stroke: #C82930; stroke-width: 1.0;" width="6" x="46" y="256.6563"/><text fill="#000000" font-family="sans-serif" font-size="11" lengthAdjust="spacingAndGlyphs" text-decoration="underline" textLength="416" x="58" y="262.8667">MiddlewareCommDatabaseInterface middlewareCommDatabaseInterface</text><rect fill="none" height="6" style="stroke: #C82930; stroke-width: 1.0;" width="6" x="46" y="269.4609"/><text fill="#000000" font-family="sans-serif" font-size="11" lengthAdjust="spacingAndGlyphs" text-decoration="underline" textLength="249" x="58" y="275.6714">DatabaseGisInterface databaseGisInterface</text><rect fill="none" height="6" style="stroke: #C82930; stroke-width: 1.0;" width="6" x="46" y="282.2656"/><text fill="#000000" font-family="sans-serif" font-size="11" lengthAdjust="spacingAndGlyphs" text-decoration="underline" textLength="247" x="58" y="288.4761">DatabaseGisManager databaseGisManager</text><rect fill="none" height="6" style="stroke: #C82930; stroke-width: 1.0;" width="6" x="46" y="295.0703"/><text fill="#000000" font-family="sans-serif" font-size="11" lengthAdjust="spacingAndGlyphs" text-decoration="underline" textLength="355" x="58" y="301.2808">DatabaseGisPersistentStorage databaseGisPersistentStorage</text><rect fill="none" height="6" style="stroke: #C82930; stroke-width: 1.0;" width="6" x="46" y="307.875"/><text fill="#000000" font-family="sans-serif" font-size="11" lengthAdjust="spacingAndGlyphs" text-decoration="underline" textLength="285" x="58" y="314.0854">DatabaseCommInterface databaseCommInterface</text><rect fill="none" height="6" style="stroke: #C82930; stroke-width: 1.0;" width="6" x="46" y="320.6797"/><text fill="#000000" font-family="sans-serif" font-size="11" lengthAdjust="spacingAndGlyphs" text-decoration="underline" textLength="283" x="58" y="326.8901">DatabaseCommManager databaseCommManager</text><rect fill="none" height="6" style="stroke: #C82930; stroke-width: 1.0;" width="6" x="46" y="333.4844"/><text fill="#000000" font-family="sans-serif" font-size="11" lengthAdjust="spacingAndGlyphs" text-decoration="underline" textLength="391" x="58" y="339.6948">DatabaseCommPersistentStorage databaseCommPersistentStorage</text><line style="stroke: #A80036; stroke-width: 1.0; stroke-dasharray: 1.0,2.0;" x1="39" x2="189" y1="105.4023" y2="105.4023"/><text fill="#000000" font-family="sans-serif" font-size="11" lengthAdjust="spacingAndGlyphs" textLength="140" x="189" y="108.7104">Main Production Classes</text><line style="stroke: #A80036; stroke-width: 1.0; stroke-dasharray: 1.0,2.0;" x1="329" x2="479" y1="105.4023" y2="105.4023"/><line style="stroke: #A80036; stroke-width: 1.5;" x1="39" x2="479" y1="346.2891" y2="346.2891"/><ellipse cx="49" cy="357.2891" fill="#84BE84" rx="3" ry="3" style="stroke: #038048; stroke-width: 1.0;"/><text fill="#000000" font-family="sans-serif" font-size="11" lengthAdjust="spacingAndGlyphs" text-decoration="underline" textLength="130" x="58" y="360.4995">void main(Sting args[])</text><!--MD5=[3fd616f346a44cd59a91eb10b19e157c]
class User--><rect fill="#FEFECE" filter="url(#f9ga5u43ajqff)" height="60.8047" id="User" style="stroke: #A80036; stroke-width: 1.5;" width="197" x="515.5" y="182.5"/><ellipse cx="595.25" cy="198.5" fill="#ADD1B2" rx="11" ry="11" style="stroke: #A80036; stroke-width: 1.0;"/><path d="M598.2188,204.1406 Q597.6406,204.4375 597,204.5781 Q596.3594,204.7344 595.6563,204.7344 Q593.1563,204.7344 591.8281,203.0938 Q590.5156,201.4375 590.5156,198.3125 Q590.5156,195.1875 591.8281,193.5313 Q593.1563,191.875 595.6563,191.875 Q596.3594,191.875 597,192.0313 Q597.6563,192.1875 598.2188,192.4844 L598.2188,195.2031 Q597.5938,194.625 597,194.3594 Q596.4063,194.0781 595.7813,194.0781 Q594.4375,194.0781 593.75,195.1563 Q593.0625,196.2188 593.0625,198.3125 Q593.0625,200.4063 593.75,201.4844 Q594.4375,202.5469 595.7813,202.5469 Q596.4063,202.5469 597,202.2813 Q597.5938,202 598.2188,201.4219 L598.2188,204.1406 Z "/><text fill="#000000" font-family="sans-serif" font-size="12" lengthAdjust="spacingAndGlyphs" textLength="29" x="615.75" y="202.6543">User</text><line style="stroke: #A80036; stroke-width: 1.5;" x1="516.5" x2="711.5" y1="214.5" y2="214.5"/><line style="stroke: #A80036; stroke-width: 1.5;" x1="516.5" x2="711.5" y1="222.5" y2="222.5"/><ellipse cx="526.5" cy="233.5" fill="#84BE84" rx="3" ry="3" style="stroke: #038048; stroke-width: 1.0;"/><text fill="#000000" font-family="sans-serif" font-size="11" lengthAdjust="spacingAndGlyphs" textLength="171" x="535.5" y="236.7104">void useCase1(Scanner input)</text><!--MD5=[5693516634b55e02128e65efbe34c96b]
class GpsSystems--><rect fill="#FEFECE" filter="url(#f9ga5u43ajqff)" height="60.8047" id="GpsSystems" style="stroke: #A80036; stroke-width: 1.5;" width="202" x="158" y="484.5"/><ellipse cx="216.75" cy="500.5" fill="#ADD1B2" rx="11" ry="11" style="stroke: #A80036; stroke-width: 1.0;"/><path d="M219.7188,506.1406 Q219.1406,506.4375 218.5,506.5781 Q217.8594,506.7344 217.1563,506.7344 Q214.6563,506.7344 213.3281,505.0938 Q212.0156,503.4375 212.0156,500.3125 Q212.0156,497.1875 213.3281,495.5313 Q214.6563,493.875 217.1563,493.875 Q217.8594,493.875 218.5,494.0313 Q219.1563,494.1875 219.7188,494.4844 L219.7188,497.2031 Q219.0938,496.625 218.5,496.3594 Q217.9063,496.0781 217.2813,496.0781 Q215.9375,496.0781 215.25,497.1563 Q214.5625,498.2188 214.5625,500.3125 Q214.5625,502.4063 215.25,503.4844 Q215.9375,504.5469 217.2813,504.5469 Q217.9063,504.5469 218.5,504.2813 Q219.0938,504 219.7188,503.4219 L219.7188,506.1406 Z "/><text fill="#000000" font-family="sans-serif" font-size="12" lengthAdjust="spacingAndGlyphs" textLength="76" x="237.25" y="504.6543">GpsSystems</text><line style="stroke: #A80036; stroke-width: 1.5;" x1="159" x2="359" y1="516.5" y2="516.5"/><line style="stroke: #A80036; stroke-width: 1.5;" x1="159" x2="359" y1="524.5" y2="524.5"/><ellipse cx="169" cy="535.5" fill="#84BE84" rx="3" ry="3" style="stroke: #038048; stroke-width: 1.0;"/><text fill="#000000" font-family="sans-serif" font-size="11" lengthAdjust="spacingAndGlyphs" textLength="176" x="178" y="538.7104">void userCase2(Scanner input)</text><polygon fill="#FFFFFF" filter="url(#f9ga5u43ajqff)" points="748,186.5,938,186.5,945,208.7969,952,208.7969,952,239.0938,748,239.0938,748,186.5" style="stroke: #000000; stroke-width: 1.5;"/><line style="stroke: #000000; stroke-width: 1.5;" x1="748" x2="945" y1="208.7969" y2="208.7969"/><text fill="#000000" font-family="sans-serif" font-size="14" font-weight="bold" lengthAdjust="spacingAndGlyphs" textLength="184" x="752" y="201.4951">edu.oakland.test.admin</text><!--MD5=[478f5cd13d8e163685b267303d2bfb71]
class LocationDataPoint--><rect fill="#FEFECE" filter="url(#f9ga5u43ajqff)" height="176.0469" id="LocationDataPoint" style="stroke: #A80036; stroke-width: 1.5;" width="352" x="1030" y="427"/><ellipse cx="1144.25" cy="443" fill="#ADD1B2" rx="11" ry="11" style="stroke: #A80036; stroke-width: 1.0;"/><path d="M1147.2188,448.6406 Q1146.6406,448.9375 1146,449.0781 Q1145.3594,449.2344 1144.6563,449.2344 Q1142.1563,449.2344 1140.8281,447.5938 Q1139.5156,445.9375 1139.5156,442.8125 Q1139.5156,439.6875 1140.8281,438.0313 Q1142.1563,436.375 1144.6563,436.375 Q1145.3594,436.375 1146,436.5313 Q1146.6563,436.6875 1147.2188,436.9844 L1147.2188,439.7031 Q1146.5938,439.125 1146,438.8594 Q1145.4063,438.5781 1144.7813,438.5781 Q1143.4375,438.5781 1142.75,439.6563 Q1142.0625,440.7188 1142.0625,442.8125 Q1142.0625,444.9063 1142.75,445.9844 Q1143.4375,447.0469 1144.7813,447.0469 Q1145.4063,447.0469 1146,446.7813 Q1146.5938,446.5 1147.2188,445.9219 L1147.2188,448.6406 Z "/><text fill="#000000" font-family="sans-serif" font-size="12" lengthAdjust="spacingAndGlyphs" textLength="115" x="1164.75" y="447.1543">LocationDataPoint</text><line style="stroke: #A80036; stroke-width: 1.5;" x1="1031" x2="1381" y1="459" y2="459"/><rect fill="none" height="6" style="stroke: #C82930; stroke-width: 1.0;" width="6" x="1038" y="467"/><text fill="#000000" font-family="sans-serif" font-size="11" lengthAdjust="spacingAndGlyphs" textLength="43" x="1050" y="473.2104">float lat</text><rect fill="none" height="6" style="stroke: #C82930; stroke-width: 1.0;" width="6" x="1038" y="479.8047"/><text fill="#000000" font-family="sans-serif" font-size="11" lengthAdjust="spacingAndGlyphs" textLength="46" x="1050" y="486.0151">float lng</text><rect fill="none" height="6" style="stroke: #C82930; stroke-width: 1.0;" width="6" x="1038" y="492.6094"/><text fill="#000000" font-family="sans-serif" font-size="11" lengthAdjust="spacingAndGlyphs" textLength="112" x="1050" y="498.8198">LocalDateTime time</text><line style="stroke: #A80036; stroke-width: 1.5;" x1="1031" x2="1381" y1="505.4141" y2="505.4141"/><ellipse cx="1041" cy="516.4141" fill="#84BE84" rx="3" ry="3" style="stroke: #038048; stroke-width: 1.0;"/><text fill="#000000" font-family="sans-serif" font-size="11" lengthAdjust="spacingAndGlyphs" textLength="326" x="1050" y="519.6245">LocationDataPoint(float lat, float lng, LocalDateTime time)</text><ellipse cx="1041" cy="529.2188" fill="#84BE84" rx="3" ry="3" style="stroke: #038048; stroke-width: 1.0;"/><text fill="#000000" font-family="sans-serif" font-size="11" lengthAdjust="spacingAndGlyphs" textLength="72" x="1050" y="532.4292">float getLat()</text><ellipse cx="1041" cy="542.0234" fill="#84BE84" rx="3" ry="3" style="stroke: #038048; stroke-width: 1.0;"/><text fill="#000000" font-family="sans-serif" font-size="11" lengthAdjust="spacingAndGlyphs" textLength="75" x="1050" y="545.2339">float getLng()</text><ellipse cx="1041" cy="554.8281" fill="#84BE84" rx="3" ry="3" style="stroke: #038048; stroke-width: 1.0;"/><text fill="#000000" font-family="sans-serif" font-size="11" lengthAdjust="spacingAndGlyphs" textLength="141" x="1050" y="558.0386">LocalDateTime getTime()</text><rect fill="#F24D5C" height="6" style="stroke: #C82930; stroke-width: 1.0;" width="6" x="1038" y="564.6328"/><text fill="#000000" font-family="sans-serif" font-size="11" lengthAdjust="spacingAndGlyphs" textLength="151" x="1050" y="570.8433">boolean latIsValid(float lat)</text><rect fill="#F24D5C" height="6" style="stroke: #C82930; stroke-width: 1.0;" width="6" x="1038" y="577.4375"/><text fill="#000000" font-family="sans-serif" font-size="11" lengthAdjust="spacingAndGlyphs" textLength="154" x="1050" y="583.6479">boolean lngIsValid(float lat)</text><rect fill="#F24D5C" height="6" style="stroke: #C82930; stroke-width: 1.0;" width="6" x="1038" y="590.2422"/><text fill="#000000" font-family="sans-serif" font-size="11" lengthAdjust="spacingAndGlyphs" textLength="231" x="1050" y="596.4526">boolean timeIsValid(LocalDateTime time)</text><!--MD5=[39a9b949d1787538902e1dfaac894da1]
class Satellite--><rect fill="#FEFECE" filter="url(#f9ga5u43ajqff)" height="137.6328" id="Satellite" style="stroke: #A80036; stroke-width: 1.5;" width="270" x="1460" y="144"/><ellipse cx="1565.25" cy="160" fill="#ADD1B2" rx="11" ry="11" style="stroke: #A80036; stroke-width: 1.0;"/><path d="M1568.2188,165.6406 Q1567.6406,165.9375 1567,166.0781 Q1566.3594,166.2344 1565.6563,166.2344 Q1563.1563,166.2344 1561.8281,164.5938 Q1560.5156,162.9375 1560.5156,159.8125 Q1560.5156,156.6875 1561.8281,155.0313 Q1563.1563,153.375 1565.6563,153.375 Q1566.3594,153.375 1567,153.5313 Q1567.6563,153.6875 1568.2188,153.9844 L1568.2188,156.7031 Q1567.5938,156.125 1567,155.8594 Q1566.4063,155.5781 1565.7813,155.5781 Q1564.4375,155.5781 1563.75,156.6563 Q1563.0625,157.7188 1563.0625,159.8125 Q1563.0625,161.9063 1563.75,162.9844 Q1564.4375,164.0469 1565.7813,164.0469 Q1566.4063,164.0469 1567,163.7813 Q1567.5938,163.5 1568.2188,162.9219 L1568.2188,165.6406 Z "/><text fill="#000000" font-family="sans-serif" font-size="12" lengthAdjust="spacingAndGlyphs" textLength="51" x="1585.75" y="164.1543">Satellite</text><line style="stroke: #A80036; stroke-width: 1.5;" x1="1461" x2="1729" y1="176" y2="176"/><rect fill="none" height="6" style="stroke: #C82930; stroke-width: 1.0;" width="6" x="1468" y="184"/><text fill="#000000" font-family="sans-serif" font-size="11" lengthAdjust="spacingAndGlyphs" textLength="116" x="1480" y="190.2104">String satelliteName</text><rect fill="none" height="6" style="stroke: #C82930; stroke-width: 1.0;" width="6" x="1468" y="196.8047"/><text fill="#000000" font-family="sans-serif" font-size="11" lengthAdjust="spacingAndGlyphs" textLength="66" x="1480" y="203.0151">int strength</text><line style="stroke: #A80036; stroke-width: 1.5;" x1="1461" x2="1729" y1="209.6094" y2="209.6094"/><ellipse cx="1471" cy="220.6094" fill="#84BE84" rx="3" ry="3" style="stroke: #038048; stroke-width: 1.0;"/><text fill="#000000" font-family="sans-serif" font-size="11" lengthAdjust="spacingAndGlyphs" textLength="244" x="1480" y="223.8198">Satellite(String satelliteName, int strength)</text><ellipse cx="1471" cy="233.4141" fill="#84BE84" rx="3" ry="3" style="stroke: #038048; stroke-width: 1.0;"/><text fill="#000000" font-family="sans-serif" font-size="11" lengthAdjust="spacingAndGlyphs" textLength="143" x="1480" y="236.6245">String getSatelliteName()</text><ellipse cx="1471" cy="246.2188" fill="#84BE84" rx="3" ry="3" style="stroke: #038048; stroke-width: 1.0;"/><text fill="#000000" font-family="sans-serif" font-size="11" lengthAdjust="spacingAndGlyphs" textLength="93" x="1480" y="249.4292">int getStrength()</text><ellipse cx="1471" cy="259.0234" fill="#84BE84" rx="3" ry="3" style="stroke: #038048; stroke-width: 1.0;"/><text fill="#000000" font-family="sans-serif" font-size="11" lengthAdjust="spacingAndGlyphs" textLength="168" x="1480" y="262.2339">void setStrength(int strength)</text><rect fill="#F24D5C" height="6" style="stroke: #C82930; stroke-width: 1.0;" width="6" x="1468" y="268.8281"/><text fill="#000000" font-family="sans-serif" font-size="11" lengthAdjust="spacingAndGlyphs" textLength="208" x="1480" y="275.0386">boolean strengthIsValid(int strength)</text><!--MD5=[a664fa1bf59865fa43f25e28dac38862]
class TrackData--><rect fill="#FEFECE" filter="url(#f9ga5u43ajqff)" height="201.6563" id="TrackData" style="stroke: #A80036; stroke-width: 1.5;" width="437" x="987.5" y="112"/><ellipse cx="1169.75" cy="128" fill="#ADD1B2" rx="11" ry="11" style="stroke: #A80036; stroke-width: 1.0;"/><path d="M1172.7188,133.6406 Q1172.1406,133.9375 1171.5,134.0781 Q1170.8594,134.2344 1170.1563,134.2344 Q1167.6563,134.2344 1166.3281,132.5938 Q1165.0156,130.9375 1165.0156,127.8125 Q1165.0156,124.6875 1166.3281,123.0313 Q1167.6563,121.375 1170.1563,121.375 Q1170.8594,121.375 1171.5,121.5313 Q1172.1563,121.6875 1172.7188,121.9844 L1172.7188,124.7031 Q1172.0938,124.125 1171.5,123.8594 Q1170.9063,123.5781 1170.2813,123.5781 Q1168.9375,123.5781 1168.25,124.6563 Q1167.5625,125.7188 1167.5625,127.8125 Q1167.5625,129.9063 1168.25,130.9844 Q1168.9375,132.0469 1170.2813,132.0469 Q1170.9063,132.0469 1171.5,131.7813 Q1172.0938,131.5 1172.7188,130.9219 L1172.7188,133.6406 Z "/><text fill="#000000" font-family="sans-serif" font-size="12" lengthAdjust="spacingAndGlyphs" textLength="64" x="1190.25" y="132.1543">TrackData</text><line style="stroke: #A80036; stroke-width: 1.5;" x1="988.5" x2="1423.5" y1="144" y2="144"/><rect fill="none" height="6" style="stroke: #C82930; stroke-width: 1.0;" width="6" x="995.5" y="152"/><text fill="#000000" font-family="sans-serif" font-size="11" lengthAdjust="spacingAndGlyphs" textLength="101" x="1007.5" y="158.2104">boolean validData</text><rect fill="none" height="6" style="stroke: #C82930; stroke-width: 1.0;" width="6" x="995.5" y="164.8047"/><text fill="#000000" font-family="sans-serif" font-size="11" lengthAdjust="spacingAndGlyphs" textLength="118" x="1007.5" y="171.0151">float courseDirection</text><rect fill="none" height="6" style="stroke: #C82930; stroke-width: 1.0;" width="6" x="995.5" y="177.6094"/><text fill="#000000" font-family="sans-serif" font-size="11" lengthAdjust="spacingAndGlyphs" textLength="64" x="1007.5" y="183.8198">float speed</text><rect fill="none" height="6" style="stroke: #C82930; stroke-width: 1.0;" width="6" x="995.5" y="190.4141"/><text fill="#000000" font-family="sans-serif" font-size="11" lengthAdjust="spacingAndGlyphs" textLength="148" x="1007.5" y="196.6245">LocationDataPoint[] points</text><line style="stroke: #A80036; stroke-width: 1.5;" x1="988.5" x2="1423.5" y1="203.2188" y2="203.2188"/><ellipse cx="998.5" cy="214.2188" fill="#84BE84" rx="3" ry="3" style="stroke: #038048; stroke-width: 1.0;"/><text fill="#000000" font-family="sans-serif" font-size="11" lengthAdjust="spacingAndGlyphs" textLength="213" x="1007.5" y="217.4292">TrackData(LocationDataPoint[] points)</text><ellipse cx="998.5" cy="227.0234" fill="#84BE84" rx="3" ry="3" style="stroke: #038048; stroke-width: 1.0;"/><text fill="#000000" font-family="sans-serif" font-size="11" lengthAdjust="spacingAndGlyphs" textLength="411" x="1007.5" y="230.2339">TrackData(LocationDataPoint[] points, float courseDirection, float speed)</text><ellipse cx="998.5" cy="239.8281" fill="#84BE84" rx="3" ry="3" style="stroke: #038048; stroke-width: 1.0;"/><text fill="#000000" font-family="sans-serif" font-size="11" lengthAdjust="spacingAndGlyphs" textLength="151" x="1007.5" y="243.0386">boolean isValidTrackData()</text><ellipse cx="998.5" cy="252.6328" fill="#84BE84" rx="3" ry="3" style="stroke: #038048; stroke-width: 1.0;"/><text fill="#000000" font-family="sans-serif" font-size="11" lengthAdjust="spacingAndGlyphs" textLength="146" x="1007.5" y="255.8433">float getCourseDirection()</text><ellipse cx="998.5" cy="265.4375" fill="#84BE84" rx="3" ry="3" style="stroke: #038048; stroke-width: 1.0;"/><text fill="#000000" font-family="sans-serif" font-size="11" lengthAdjust="spacingAndGlyphs" textLength="91" x="1007.5" y="268.6479">float getSpeed()</text><ellipse cx="998.5" cy="278.2422" fill="#84BE84" rx="3" ry="3" style="stroke: #038048; stroke-width: 1.0;"/><text fill="#000000" font-family="sans-serif" font-size="11" lengthAdjust="spacingAndGlyphs" textLength="247" x="1007.5" y="281.4526">LocationDataPoint[] getLocationDataPoints()</text><rect fill="#F24D5C" height="6" style="stroke: #C82930; stroke-width: 1.0;" width="6" x="995.5" y="288.0469"/><text fill="#000000" font-family="sans-serif" font-size="11" lengthAdjust="spacingAndGlyphs" textLength="193" x="1007.5" y="294.2573">boolean speedIsValid(float speed)</text><rect fill="#F24D5C" height="6" style="stroke: #C82930; stroke-width: 1.0;" width="6" x="995.5" y="300.8516"/><text fill="#000000" font-family="sans-serif" font-size="11" lengthAdjust="spacingAndGlyphs" textLength="301" x="1007.5" y="307.062">boolean courseDirectionIsValid(float courseDirection)</text><!--MD5=[a834184dfe29b3f363d293bc852e6e04]
link TrackData to LocationDataPoint--><path d="M1206,314.31 C1206,348.91 1206,387.49 1206,421.44 " fill="none" id="TrackData-&gt;LocationDataPoint" style="stroke: #A80036; stroke-width: 1.0;"/><polygon fill="#A80036" points="1206,426.85,1210,417.85,1206,421.85,1202,417.85,1206,426.85" style="stroke: #A80036; stroke-width: 1.0;"/><!--MD5=[aaa328c6dd499efd34e9a6e207358862]
link Demo to User--><!--MD5=[dd9b75cda61e33e34f5ca3046756b41e]
link Demo to GpsSystems--><!--MD5=[a224f3769585e6738e8a19e921a8ead3]
@startuml AdminPackages_Closure


package edu.oakland.production.admin {

}



package edu.oakland.production.admin {
    class Demo {
        .. Main Production Classes ..
        {static} - DisplayGpsInterface displayGpsInterface
        {static} - DisplayGpsReceiver displayGpsReceiver
        {static} - DisplayGpsManager displayGpsManager
        {static} - DisplayCommInterface displayCommInterface
        {static} - DisplayComm2WayInterface displayComm2WayInterface
        {static} - DisplayCommManager displayCommManager
        {static} - MiddlewareGisInterface middlewareGisInterface
        {static} - MiddlewareGisProcessor middlewareGisProcessor
        {static} - MiddlewareGisManager middlewareGisManager
        {static} - MiddlewareCommInterface middlewareCommInterface
        {static} - MiddlewareCommLinkManager middlewareCommLinkManager
        {static} - MiddlewareCommDatabaseInterface middlewareCommDatabaseInterface
        {static} - DatabaseGisInterface databaseGisInterface
        {static} - DatabaseGisManager databaseGisManager
        {static} - DatabaseGisPersistentStorage databaseGisPersistentStorage
        {static} - DatabaseCommInterface databaseCommInterface
        {static} - DatabaseCommManager databaseCommManager
        {static} - DatabaseCommPersistentStorage databaseCommPersistentStorage
        __
        {static} + void main(Sting args[])
    }
}








package edu.oakland.production.admin {
    class User {
        + void useCase1(Scanner input)
    }
}








package edu.oakland.production.admin {
    class GpsSystems {
        + void userCase2(Scanner input)
    }
}








package edu.oakland.test.admin {
    
}


package edu.oakland.helper.admin {
    
}



package edu.oakland.helper.admin {
    class LocationDataPoint {
        - float lat
        - float lng
        - LocalDateTime time
        + LocationDataPoint(float lat, float lng, LocalDateTime time)
        + float getLat()
        + float getLng()
        + LocalDateTime getTime()
        - boolean latIsValid(float lat)
        - boolean lngIsValid(float lat)
        - boolean timeIsValid(LocalDateTime time)
    }
}








package edu.oakland.helper.admin {
    class Satellite {
        - String satelliteName
        - int strength
        + Satellite(String satelliteName, int strength)
        + String getSatelliteName()
        + int getStrength()
        + void setStrength(int strength)
        - boolean strengthIsValid(int strength)
    }
}








package edu.oakland.helper.admin {
    class TrackData {
        - boolean validData
        - float courseDirection
        - float speed
        - LocationDataPoint[] points
        + TrackData(LocationDataPoint[] points)
        + TrackData(LocationDataPoint[] points, float courseDirection, float speed)
        + boolean isValidTrackData()
        + float getCourseDirection()
        + float getSpeed()
        + LocationDataPoint[] getLocationDataPoints()
        - boolean speedIsValid(float speed)
        - boolean courseDirectionIsValid(float courseDirection)
    }
}


TrackData - -> LocationDataPoint







@enduml

PlantUML version 1.2020.02(Sun Mar 01 10:22:07 GMT 2020)
(GPL source distribution)
Java Runtime: OpenJDK Runtime Environment
JVM: OpenJDK 64-Bit Server VM
Java Version: 11.0.9+11-Ubuntu-0ubuntu1
Operating System: Linux
Default Encoding: ANSI_X3.4-1968
Language: en
Country: US
--></g></svg>