<?xml version="1.0" encoding="UTF-8" standalone="no"?><svg xmlns="http://www.w3.org/2000/svg" xmlns:xlink="http://www.w3.org/1999/xlink" contentScriptType="application/ecmascript" contentStyleType="text/css" height="695px" preserveAspectRatio="none" style="width:1687px;height:695px;" version="1.1" viewBox="0 0 1687 695" width="1687px" zoomAndPan="magnify"><defs><filter height="300%" id="f1lt5kd0kuijkk" width="300%" x="-1" y="-1"><feGaussianBlur result="blurOut" stdDeviation="2.0"/><feColorMatrix in="blurOut" result="blurOut2" type="matrix" values="0 0 0 0 0 0 0 0 0 0 0 0 0 0 0 0 0 0 .4 0"/><feOffset dx="4.0" dy="4.0" in="blurOut2" result="blurOut3"/><feBlend in="SourceGraphic" in2="blurOut3" mode="normal"/></filter></defs><g><!--MD5=[8bd6d9786dfa802b1eecfb7372bf244a]
cluster edu.oakland.production.admin--><polygon fill="#FFFFFF" filter="url(#f1lt5kd0kuijkk)" points="22,24,267,24,274,46.2969,729,46.2969,729,593.5,22,593.5,22,24" style="stroke: #000000; stroke-width: 1.5;"/><line style="stroke: #000000; stroke-width: 1.5;" x1="22" x2="274" y1="46.2969" y2="46.2969"/><text fill="#000000" font-family="sans-serif" font-size="14" font-weight="bold" lengthAdjust="spacingAndGlyphs" textLength="239" x="26" y="38.9951">edu.oakland.production.admin</text><!--MD5=[850b37b0b8d882ee2cad74ae2a956f48]
cluster edu.oakland.helper.admin--><polygon fill="#FFFFFF" filter="url(#f1lt5kd0kuijkk)" points="753,90,963,90,970,112.2969,1442,112.2969,1442,683,753,683,753,90" style="stroke: #000000; stroke-width: 1.5;"/><line style="stroke: #000000; stroke-width: 1.5;" x1="753" x2="970" y1="112.2969" y2="112.2969"/><text fill="#000000" font-family="sans-serif" font-size="14" font-weight="bold" lengthAdjust="spacingAndGlyphs" textLength="204" x="757" y="104.9951">edu.oakland.helper.admin</text><!--MD5=[3c84d2688363deb820fa9437de7249ec]
class Demo--><rect fill="#FEFECE" filter="url(#f1lt5kd0kuijkk)" height="308.0938" id="Demo" style="stroke: #A80036; stroke-width: 1.5;" width="442" x="38" y="59"/><ellipse cx="236.75" cy="75" fill="#ADD1B2" rx="11" ry="11" style="stroke: #A80036; stroke-width: 1.0;"/><path d="M239.7188,80.6406 Q239.1406,80.9375 238.5,81.0781 Q237.8594,81.2344 237.1563,81.2344 Q234.6563,81.2344 233.3281,79.5938 Q232.0156,77.9375 232.0156,74.8125 Q232.0156,71.6875 233.3281,70.0313 Q234.6563,68.375 237.1563,68.375 Q237.8594,68.375 238.5,68.5313 Q239.1563,68.6875 239.7188,68.9844 L239.7188,71.7031 Q239.0938,71.125 238.5,70.8594 Q237.9063,70.5781 237.2813,70.5781 Q235.9375,70.5781 235.25,71.6563 Q234.5625,72.7188 234.5625,74.8125 Q234.5625,76.9063 235.25,77.9844 Q235.9375,79.0469 237.2813,79.0469 Q237.9063,79.0469 238.5,78.7813 Q239.0938,78.5 239.7188,77.9219 L239.7188,80.6406 Z "/><text fill="#000000" font-family="sans-serif" font-size="12" lengthAdjust="spacingAndGlyphs" textLength="36" x="257.25" y="79.1543">Demo</text><line style="stroke: #A80036; stroke-width: 1.5;" x1="39" x2="479" y1="91" y2="91"/><rect fill="none" height="6" style="stroke: #C82930; stroke-width: 1.0;" width="6" x="46" y="115.8047"/><text fill="#000000" font-family="sans-serif" font-size="11" lengthAdjust="spacingAndGlyphs" text-decoration="underline" textLength="231" x="58" y="122.0151">DisplayGpsInterface displayGpsInterface</text><rect fill="none" height="6" style="stroke: #C82930; stroke-width: 1.0;" width="6" x="46" y="128.6094"/><text fill="#000000" font-family="sans-serif" font-size="11" lengthAdjust="spacingAndGlyphs" text-decoration="underline" textLength="227" x="58" y="134.8198">DisplayGpsReceiver displayGpsReceiver</text><rect fill="none" height="6" style="stroke: #C82930; stroke-width: 1.0;" width="6" x="46" y="141.4141"/><text fill="#000000" font-family="sans-serif" font-size="11" lengthAdjust="spacingAndGlyphs" text-decoration="underline" textLength="229" x="58" y="147.6245">DisplayGpsManager displayGpsManager</text><rect fill="none" height="6" style="stroke: #C82930; stroke-width: 1.0;" width="6" x="46" y="154.2188"/><text fill="#000000" font-family="sans-serif" font-size="11" lengthAdjust="spacingAndGlyphs" text-decoration="underline" textLength="259" x="58" y="160.4292">DisplayCommInterface displayCommInterface</text><rect fill="none" height="6" style="stroke: #C82930; stroke-width: 1.0;" width="6" x="46" y="167.0234"/><text fill="#000000" font-family="sans-serif" font-size="11" lengthAdjust="spacingAndGlyphs" text-decoration="underline" textLength="317" x="58" y="173.2339">DisplayComm2WayInterface displayComm2WayInterface</text><rect fill="none" height="6" style="stroke: #C82930; stroke-width: 1.0;" width="6" x="46" y="179.8281"/><text fill="#000000" font-family="sans-serif" font-size="11" lengthAdjust="spacingAndGlyphs" text-decoration="underline" textLength="257" x="58" y="186.0386">DisplayCommManager displayCommManager</text><rect fill="none" height="6" style="stroke: #C82930; stroke-width: 1.0;" width="6" x="46" y="192.6328"/><text fill="#000000" font-family="sans-serif" font-size="11" lengthAdjust="spacingAndGlyphs" text-decoration="underline" textLength="272" x="58" y="198.8433">MiddlewareGisInterface middlewareGisInterface</text><rect fill="none" height="6" style="stroke: #C82930; stroke-width: 1.0;" width="6" x="46" y="205.4375"/><text fill="#000000" font-family="sans-serif" font-size="11" lengthAdjust="spacingAndGlyphs" text-decoration="underline" textLength="288" x="58" y="211.6479">MiddlewareGisProcessor middlewareGisProcessor</text><rect fill="none" height="6" style="stroke: #C82930; stroke-width: 1.0;" width="6" x="46" y="218.2422"/><text fill="#000000" font-family="sans-serif" font-size="11" lengthAdjust="spacingAndGlyphs" text-decoration="underline" textLength="270" x="58" y="224.4526">MiddlewareGisManager middlewareGisManager</text><rect fill="none" height="6" style="stroke: #C82930; stroke-width: 1.0;" width="6" x="46" y="231.0469"/><text fill="#000000" font-family="sans-serif" font-size="11" lengthAdjust="spacingAndGlyphs" text-decoration="underline" textLength="308" x="58" y="237.2573">MiddlewareCommInterface middlewareCommInterface</text><rect fill="none" height="6" style="stroke: #C82930; stroke-width: 1.0;" width="6" x="46" y="243.8516"/><text fill="#000000" font-family="sans-serif" font-size="11" lengthAdjust="spacingAndGlyphs" text-decoration="underline" textLength="350" x="58" y="250.062">MiddlewareCommLinkManager middlewareCommLinkManager</text><rect fill="none" height="6" style="stroke: #C82930; stroke-width: 1.0;" width="6" x="46" y="256.6563"/><text fill="#000000" font-family="sans-serif" font-size="11" lengthAdjust="spacingAndGlyphs" text-decoration="underline" textLength="416" x="58" y="262.8667">MiddlewareCommDatabaseInterface middlewareCommDatabaseInterface</text><rect fill="none" height="6" style="stroke: #C82930; stroke-width: 1.0;" width="6" x="46" y="269.4609"/><text fill="#000000" font-family="sans-serif" font-size="11" lengthAdjust="spacingAndGlyphs" text-decoration="underline" textLength="249" x="58" y="275.6714">DatabaseGisInterface databaseGisInterface</text><rect fill="none" height="6" style="stroke: #C82930; stroke-width: 1.0;" width="6" x="46" y="282.2656"/><text fill="#000000" font-family="sans-serif" font-size="11" lengthAdjust="spacingAndGlyphs" text-decoration="underline" textLength="247" x="58" y="288.4761">DatabaseGisManager databaseGisManager</text><rect fill="none" height="6" style="stroke: #C82930; stroke-width: 1.0;" width="6" x="46" y="295.0703"/><text fill="#000000" font-family="sans-serif" font-size="11" lengthAdjust="spacingAndGlyphs" text-decoration="underline" textLength="355" x="58" y="301.2808">DatabaseGisPersistentStorage databaseGisPersistentStorage</text><rect fill="none" height="6" style="stroke: #C82930; stroke-width: 1.0;" width="6" x="46" y="307.875"/><text fill="#000000" font-family="sans-serif" font-size="11" lengthAdjust="spacingAndGlyphs" text-decoration="underline" textLength="285" x="58" y="314.0854">DatabaseCommInterface databaseCommInterface</text><rect fill="none" height="6" style="stroke: #C82930; stroke-width: 1.0;" width="6" x="46" y="320.6797"/><text fill="#000000" font-family="sans-serif" font-size="11" lengthAdjust="spacingAndGlyphs" text-decoration="underline" textLength="283" x="58" y="326.8901">DatabaseCommManager databaseCommManager</text><rect fill="none" height="6" style="stroke: #C82930; stroke-width: 1.0;" width="6" x="46" y="333.4844"/><text fill="#000000" font-family="sans-serif" font-size="11" lengthAdjust="spacingAndGlyphs" text-decoration="underline" textLength="391" x="58" y="339.6948">DatabaseCommPersistentStorage databaseCommPersistentStorage</text><line style="stroke: #A80036; stroke-width: 1.0; stroke-dasharray: 1.0,2.0;" x1="39" x2="189" y1="105.4023" y2="105.4023"/><text fill="#000000" font-family="sans-serif" font-size="11" lengthAdjust="spacingAndGlyphs" textLength="140" x="189" y="108.7104">Main Production Classes</text><line style="stroke: #A80036; stroke-width: 1.0; stroke-dasharray: 1.0,2.0;" x1="329" x2="479" y1="105.4023" y2="105.4023"/><line style="stroke: #A80036; stroke-width: 1.5;" x1="39" x2="479" y1="346.2891" y2="346.2891"/><ellipse cx="49" cy="357.2891" fill="#84BE84" rx="3" ry="3" style="stroke: #038048; stroke-width: 1.0;"/><text fill="#000000" font-family="sans-serif" font-size="11" lengthAdjust="spacingAndGlyphs" text-decoration="underline" textLength="130" x="58" y="360.4995">void main(Sting args[])</text><!--MD5=[3fd616f346a44cd59a91eb10b19e157c]
class User--><rect fill="#FEFECE" filter="url(#f1lt5kd0kuijkk)" height="60.8047" id="User" style="stroke: #A80036; stroke-width: 1.5;" width="197" x="515.5" y="182.5"/><ellipse cx="595.25" cy="198.5" fill="#ADD1B2" rx="11" ry="11" style="stroke: #A80036; stroke-width: 1.0;"/><path d="M598.2188,204.1406 Q597.6406,204.4375 597,204.5781 Q596.3594,204.7344 595.6563,204.7344 Q593.1563,204.7344 591.8281,203.0938 Q590.5156,201.4375 590.5156,198.3125 Q590.5156,195.1875 591.8281,193.5313 Q593.1563,191.875 595.6563,191.875 Q596.3594,191.875 597,192.0313 Q597.6563,192.1875 598.2188,192.4844 L598.2188,195.2031 Q597.5938,194.625 597,194.3594 Q596.4063,194.0781 595.7813,194.0781 Q594.4375,194.0781 593.75,195.1563 Q593.0625,196.2188 593.0625,198.3125 Q593.0625,200.4063 593.75,201.4844 Q594.4375,202.5469 595.7813,202.5469 Q596.4063,202.5469 597,202.2813 Q597.5938,202 598.2188,201.4219 L598.2188,204.1406 Z "/><text fill="#000000" font-family="sans-serif" font-size="12" lengthAdjust="spacingAndGlyphs" textLength="29" x="615.75" y="202.6543">User</text><line style="stroke: #A80036; stroke-width: 1.5;" x1="516.5" x2="711.5" y1="214.5" y2="214.5"/><line style="stroke: #A80036; stroke-width: 1.5;" x1="516.5" x2="711.5" y1="222.5" y2="222.5"/><ellipse cx="526.5" cy="233.5" fill="#84BE84" rx="3" ry="3" style="stroke: #038048; stroke-width: 1.0;"/><text fill="#000000" font-family="sans-serif" font-size="11" lengthAdjust="spacingAndGlyphs" textLength="171" x="535.5" y="236.7104">void useCase1(Scanner input)</text><!--MD5=[5693516634b55e02128e65efbe34c96b]
class GpsSystems--><rect fill="#FEFECE" filter="url(#f1lt5kd0kuijkk)" height="60.8047" id="GpsSystems" style="stroke: #A80036; stroke-width: 1.5;" width="202" x="158" y="516.5"/><ellipse cx="216.75" cy="532.5" fill="#ADD1B2" rx="11" ry="11" style="stroke: #A80036; stroke-width: 1.0;"/><path d="M219.7188,538.1406 Q219.1406,538.4375 218.5,538.5781 Q217.8594,538.7344 217.1563,538.7344 Q214.6563,538.7344 213.3281,537.0938 Q212.0156,535.4375 212.0156,532.3125 Q212.0156,529.1875 213.3281,527.5313 Q214.6563,525.875 217.1563,525.875 Q217.8594,525.875 218.5,526.0313 Q219.1563,526.1875 219.7188,526.4844 L219.7188,529.2031 Q219.0938,528.625 218.5,528.3594 Q217.9063,528.0781 217.2813,528.0781 Q215.9375,528.0781 215.25,529.1563 Q214.5625,530.2188 214.5625,532.3125 Q214.5625,534.4063 215.25,535.4844 Q215.9375,536.5469 217.2813,536.5469 Q217.9063,536.5469 218.5,536.2813 Q219.0938,536 219.7188,535.4219 L219.7188,538.1406 Z "/><text fill="#000000" font-family="sans-serif" font-size="12" lengthAdjust="spacingAndGlyphs" textLength="76" x="237.25" y="536.6543">GpsSystems</text><line style="stroke: #A80036; stroke-width: 1.5;" x1="159" x2="359" y1="548.5" y2="548.5"/><line style="stroke: #A80036; stroke-width: 1.5;" x1="159" x2="359" y1="556.5" y2="556.5"/><ellipse cx="169" cy="567.5" fill="#84BE84" rx="3" ry="3" style="stroke: #038048; stroke-width: 1.0;"/><text fill="#000000" font-family="sans-serif" font-size="11" lengthAdjust="spacingAndGlyphs" textLength="176" x="178" y="570.7104">void userCase2(Scanner input)</text><polygon fill="#FFFFFF" filter="url(#f1lt5kd0kuijkk)" points="1461,186.5,1651,186.5,1658,208.7969,1665,208.7969,1665,239.0938,1461,239.0938,1461,186.5" style="stroke: #000000; stroke-width: 1.5;"/><line style="stroke: #000000; stroke-width: 1.5;" x1="1461" x2="1658" y1="208.7969" y2="208.7969"/><text fill="#000000" font-family="sans-serif" font-size="14" font-weight="bold" lengthAdjust="spacingAndGlyphs" textLength="184" x="1465" y="201.4951">edu.oakland.test.admin</text><!--MD5=[478f5cd13d8e163685b267303d2bfb71]
class LocationDataPoint--><rect fill="#FEFECE" filter="url(#f1lt5kd0kuijkk)" height="176.0469" id="LocationDataPoint" style="stroke: #A80036; stroke-width: 1.5;" width="352" x="769" y="125"/><ellipse cx="883.25" cy="141" fill="#ADD1B2" rx="11" ry="11" style="stroke: #A80036; stroke-width: 1.0;"/><path d="M886.2188,146.6406 Q885.6406,146.9375 885,147.0781 Q884.3594,147.2344 883.6563,147.2344 Q881.1563,147.2344 879.8281,145.5938 Q878.5156,143.9375 878.5156,140.8125 Q878.5156,137.6875 879.8281,136.0313 Q881.1563,134.375 883.6563,134.375 Q884.3594,134.375 885,134.5313 Q885.6563,134.6875 886.2188,134.9844 L886.2188,137.7031 Q885.5938,137.125 885,136.8594 Q884.4063,136.5781 883.7813,136.5781 Q882.4375,136.5781 881.75,137.6563 Q881.0625,138.7188 881.0625,140.8125 Q881.0625,142.9063 881.75,143.9844 Q882.4375,145.0469 883.7813,145.0469 Q884.4063,145.0469 885,144.7813 Q885.5938,144.5 886.2188,143.9219 L886.2188,146.6406 Z "/><text fill="#000000" font-family="sans-serif" font-size="12" lengthAdjust="spacingAndGlyphs" textLength="115" x="903.75" y="145.1543">LocationDataPoint</text><line style="stroke: #A80036; stroke-width: 1.5;" x1="770" x2="1120" y1="157" y2="157"/><rect fill="none" height="6" style="stroke: #C82930; stroke-width: 1.0;" width="6" x="777" y="165"/><text fill="#000000" font-family="sans-serif" font-size="11" lengthAdjust="spacingAndGlyphs" textLength="43" x="789" y="171.2104">float lat</text><rect fill="none" height="6" style="stroke: #C82930; stroke-width: 1.0;" width="6" x="777" y="177.8047"/><text fill="#000000" font-family="sans-serif" font-size="11" lengthAdjust="spacingAndGlyphs" textLength="46" x="789" y="184.0151">float lng</text><rect fill="none" height="6" style="stroke: #C82930; stroke-width: 1.0;" width="6" x="777" y="190.6094"/><text fill="#000000" font-family="sans-serif" font-size="11" lengthAdjust="spacingAndGlyphs" textLength="112" x="789" y="196.8198">LocalDateTime time</text><line style="stroke: #A80036; stroke-width: 1.5;" x1="770" x2="1120" y1="203.4141" y2="203.4141"/><ellipse cx="780" cy="214.4141" fill="#84BE84" rx="3" ry="3" style="stroke: #038048; stroke-width: 1.0;"/><text fill="#000000" font-family="sans-serif" font-size="11" lengthAdjust="spacingAndGlyphs" textLength="326" x="789" y="217.6245">LocationDataPoint(float lat, float lng, LocalDateTime time)</text><ellipse cx="780" cy="227.2188" fill="#84BE84" rx="3" ry="3" style="stroke: #038048; stroke-width: 1.0;"/><text fill="#000000" font-family="sans-serif" font-size="11" lengthAdjust="spacingAndGlyphs" textLength="72" x="789" y="230.4292">float getLat()</text><ellipse cx="780" cy="240.0234" fill="#84BE84" rx="3" ry="3" style="stroke: #038048; stroke-width: 1.0;"/><text fill="#000000" font-family="sans-serif" font-size="11" lengthAdjust="spacingAndGlyphs" textLength="75" x="789" y="243.2339">float getLng()</text><ellipse cx="780" cy="252.8281" fill="#84BE84" rx="3" ry="3" style="stroke: #038048; stroke-width: 1.0;"/><text fill="#000000" font-family="sans-serif" font-size="11" lengthAdjust="spacingAndGlyphs" textLength="141" x="789" y="256.0386">LocalDateTime getTime()</text><rect fill="#F24D5C" height="6" style="stroke: #C82930; stroke-width: 1.0;" width="6" x="777" y="262.6328"/><text fill="#000000" font-family="sans-serif" font-size="11" lengthAdjust="spacingAndGlyphs" textLength="151" x="789" y="268.8433">boolean latIsValid(float lat)</text><rect fill="#F24D5C" height="6" style="stroke: #C82930; stroke-width: 1.0;" width="6" x="777" y="275.4375"/><text fill="#000000" font-family="sans-serif" font-size="11" lengthAdjust="spacingAndGlyphs" textLength="154" x="789" y="281.6479">boolean lngIsValid(float lat)</text><rect fill="#F24D5C" height="6" style="stroke: #C82930; stroke-width: 1.0;" width="6" x="777" y="288.2422"/><text fill="#000000" font-family="sans-serif" font-size="11" lengthAdjust="spacingAndGlyphs" textLength="231" x="789" y="294.4526">boolean timeIsValid(LocalDateTime time)</text><!--MD5=[39a9b949d1787538902e1dfaac894da1]
class Satellite--><rect fill="#FEFECE" filter="url(#f1lt5kd0kuijkk)" height="137.6328" id="Satellite" style="stroke: #A80036; stroke-width: 1.5;" width="270" x="1156" y="144"/><ellipse cx="1261.25" cy="160" fill="#ADD1B2" rx="11" ry="11" style="stroke: #A80036; stroke-width: 1.0;"/><path d="M1264.2188,165.6406 Q1263.6406,165.9375 1263,166.0781 Q1262.3594,166.2344 1261.6563,166.2344 Q1259.1563,166.2344 1257.8281,164.5938 Q1256.5156,162.9375 1256.5156,159.8125 Q1256.5156,156.6875 1257.8281,155.0313 Q1259.1563,153.375 1261.6563,153.375 Q1262.3594,153.375 1263,153.5313 Q1263.6563,153.6875 1264.2188,153.9844 L1264.2188,156.7031 Q1263.5938,156.125 1263,155.8594 Q1262.4063,155.5781 1261.7813,155.5781 Q1260.4375,155.5781 1259.75,156.6563 Q1259.0625,157.7188 1259.0625,159.8125 Q1259.0625,161.9063 1259.75,162.9844 Q1260.4375,164.0469 1261.7813,164.0469 Q1262.4063,164.0469 1263,163.7813 Q1263.5938,163.5 1264.2188,162.9219 L1264.2188,165.6406 Z "/><text fill="#000000" font-family="sans-serif" font-size="12" lengthAdjust="spacingAndGlyphs" textLength="51" x="1281.75" y="164.1543">Satellite</text><line style="stroke: #A80036; stroke-width: 1.5;" x1="1157" x2="1425" y1="176" y2="176"/><rect fill="none" height="6" style="stroke: #C82930; stroke-width: 1.0;" width="6" x="1164" y="184"/><text fill="#000000" font-family="sans-serif" font-size="11" lengthAdjust="spacingAndGlyphs" textLength="116" x="1176" y="190.2104">String satelliteName</text><rect fill="none" height="6" style="stroke: #C82930; stroke-width: 1.0;" width="6" x="1164" y="196.8047"/><text fill="#000000" font-family="sans-serif" font-size="11" lengthAdjust="spacingAndGlyphs" textLength="66" x="1176" y="203.0151">int strength</text><line style="stroke: #A80036; stroke-width: 1.5;" x1="1157" x2="1425" y1="209.6094" y2="209.6094"/><ellipse cx="1167" cy="220.6094" fill="#84BE84" rx="3" ry="3" style="stroke: #038048; stroke-width: 1.0;"/><text fill="#000000" font-family="sans-serif" font-size="11" lengthAdjust="spacingAndGlyphs" textLength="244" x="1176" y="223.8198">Satellite(String satelliteName, int strength)</text><ellipse cx="1167" cy="233.4141" fill="#84BE84" rx="3" ry="3" style="stroke: #038048; stroke-width: 1.0;"/><text fill="#000000" font-family="sans-serif" font-size="11" lengthAdjust="spacingAndGlyphs" textLength="143" x="1176" y="236.6245">String getSatelliteName()</text><ellipse cx="1167" cy="246.2188" fill="#84BE84" rx="3" ry="3" style="stroke: #038048; stroke-width: 1.0;"/><text fill="#000000" font-family="sans-serif" font-size="11" lengthAdjust="spacingAndGlyphs" textLength="93" x="1176" y="249.4292">int getStrength()</text><ellipse cx="1167" cy="259.0234" fill="#84BE84" rx="3" ry="3" style="stroke: #038048; stroke-width: 1.0;"/><text fill="#000000" font-family="sans-serif" font-size="11" lengthAdjust="spacingAndGlyphs" textLength="168" x="1176" y="262.2339">void setStrength(int strength)</text><rect fill="#F24D5C" height="6" style="stroke: #C82930; stroke-width: 1.0;" width="6" x="1164" y="268.8281"/><text fill="#000000" font-family="sans-serif" font-size="11" lengthAdjust="spacingAndGlyphs" textLength="208" x="1176" y="275.0386">boolean strengthIsValid(int strength)</text><!--MD5=[a664fa1bf59865fa43f25e28dac38862]
class TrackData--><rect fill="#FEFECE" filter="url(#f1lt5kd0kuijkk)" height="240.0703" id="TrackData" style="stroke: #A80036; stroke-width: 1.5;" width="437" x="768.5" y="427"/><ellipse cx="950.75" cy="443" fill="#ADD1B2" rx="11" ry="11" style="stroke: #A80036; stroke-width: 1.0;"/><path d="M953.7188,448.6406 Q953.1406,448.9375 952.5,449.0781 Q951.8594,449.2344 951.1563,449.2344 Q948.6563,449.2344 947.3281,447.5938 Q946.0156,445.9375 946.0156,442.8125 Q946.0156,439.6875 947.3281,438.0313 Q948.6563,436.375 951.1563,436.375 Q951.8594,436.375 952.5,436.5313 Q953.1563,436.6875 953.7188,436.9844 L953.7188,439.7031 Q953.0938,439.125 952.5,438.8594 Q951.9063,438.5781 951.2813,438.5781 Q949.9375,438.5781 949.25,439.6563 Q948.5625,440.7188 948.5625,442.8125 Q948.5625,444.9063 949.25,445.9844 Q949.9375,447.0469 951.2813,447.0469 Q951.9063,447.0469 952.5,446.7813 Q953.0938,446.5 953.7188,445.9219 L953.7188,448.6406 Z "/><text fill="#000000" font-family="sans-serif" font-size="12" lengthAdjust="spacingAndGlyphs" textLength="64" x="971.25" y="447.1543">TrackData</text><line style="stroke: #A80036; stroke-width: 1.5;" x1="769.5" x2="1204.5" y1="459" y2="459"/><rect fill="none" height="6" style="stroke: #C82930; stroke-width: 1.0;" width="6" x="776.5" y="467"/><text fill="#000000" font-family="sans-serif" font-size="11" lengthAdjust="spacingAndGlyphs" textLength="101" x="788.5" y="473.2104">boolean validData</text><rect fill="none" height="6" style="stroke: #C82930; stroke-width: 1.0;" width="6" x="776.5" y="479.8047"/><text fill="#000000" font-family="sans-serif" font-size="11" lengthAdjust="spacingAndGlyphs" textLength="118" x="788.5" y="486.0151">float courseDirection</text><rect fill="none" height="6" style="stroke: #C82930; stroke-width: 1.0;" width="6" x="776.5" y="492.6094"/><text fill="#000000" font-family="sans-serif" font-size="11" lengthAdjust="spacingAndGlyphs" textLength="64" x="788.5" y="498.8198">float speed</text><rect fill="none" height="6" style="stroke: #C82930; stroke-width: 1.0;" width="6" x="776.5" y="505.4141"/><text fill="#000000" font-family="sans-serif" font-size="11" lengthAdjust="spacingAndGlyphs" textLength="148" x="788.5" y="511.6245">LocationDataPoint[] points</text><rect fill="none" height="6" style="stroke: #C82930; stroke-width: 1.0;" width="6" x="776.5" y="518.2188"/><text fill="#000000" font-family="sans-serif" font-size="11" lengthAdjust="spacingAndGlyphs" textLength="125" x="788.5" y="524.4292">String statusMessage</text><line style="stroke: #A80036; stroke-width: 1.5;" x1="769.5" x2="1204.5" y1="531.0234" y2="531.0234"/><ellipse cx="779.5" cy="542.0234" fill="#84BE84" rx="3" ry="3" style="stroke: #038048; stroke-width: 1.0;"/><text fill="#000000" font-family="sans-serif" font-size="11" lengthAdjust="spacingAndGlyphs" textLength="213" x="788.5" y="545.2339">TrackData(LocationDataPoint[] points)</text><ellipse cx="779.5" cy="554.8281" fill="#84BE84" rx="3" ry="3" style="stroke: #038048; stroke-width: 1.0;"/><text fill="#000000" font-family="sans-serif" font-size="11" lengthAdjust="spacingAndGlyphs" textLength="411" x="788.5" y="558.0386">TrackData(LocationDataPoint[] points, float courseDirection, float speed)</text><ellipse cx="779.5" cy="567.6328" fill="#84BE84" rx="3" ry="3" style="stroke: #038048; stroke-width: 1.0;"/><text fill="#000000" font-family="sans-serif" font-size="11" lengthAdjust="spacingAndGlyphs" textLength="151" x="788.5" y="570.8433">boolean isValidTrackData()</text><ellipse cx="779.5" cy="580.4375" fill="#84BE84" rx="3" ry="3" style="stroke: #038048; stroke-width: 1.0;"/><text fill="#000000" font-family="sans-serif" font-size="11" lengthAdjust="spacingAndGlyphs" textLength="146" x="788.5" y="583.6479">float getCourseDirection()</text><ellipse cx="779.5" cy="593.2422" fill="#84BE84" rx="3" ry="3" style="stroke: #038048; stroke-width: 1.0;"/><text fill="#000000" font-family="sans-serif" font-size="11" lengthAdjust="spacingAndGlyphs" textLength="91" x="788.5" y="596.4526">float getSpeed()</text><ellipse cx="779.5" cy="606.0469" fill="#84BE84" rx="3" ry="3" style="stroke: #038048; stroke-width: 1.0;"/><text fill="#000000" font-family="sans-serif" font-size="11" lengthAdjust="spacingAndGlyphs" textLength="247" x="788.5" y="609.2573">LocationDataPoint[] getLocationDataPoints()</text><ellipse cx="779.5" cy="618.8516" fill="#84BE84" rx="3" ry="3" style="stroke: #038048; stroke-width: 1.0;"/><text fill="#000000" font-family="sans-serif" font-size="11" lengthAdjust="spacingAndGlyphs" textLength="152" x="788.5" y="622.062">String getStatusMessage()</text><ellipse cx="779.5" cy="631.6563" fill="#84BE84" rx="3" ry="3" style="stroke: #038048; stroke-width: 1.0;"/><text fill="#000000" font-family="sans-serif" font-size="11" lengthAdjust="spacingAndGlyphs" textLength="266" x="788.5" y="634.8667">void setStatusMessage(String statusMessage)</text><rect fill="#F24D5C" height="6" style="stroke: #C82930; stroke-width: 1.0;" width="6" x="776.5" y="641.4609"/><text fill="#000000" font-family="sans-serif" font-size="11" lengthAdjust="spacingAndGlyphs" textLength="193" x="788.5" y="647.6714">boolean speedIsValid(float speed)</text><rect fill="#F24D5C" height="6" style="stroke: #C82930; stroke-width: 1.0;" width="6" x="776.5" y="654.2656"/><text fill="#000000" font-family="sans-serif" font-size="11" lengthAdjust="spacingAndGlyphs" textLength="301" x="788.5" y="660.4761">boolean courseDirectionIsValid(float courseDirection)</text><!--MD5=[aaa328c6dd499efd34e9a6e207358862]
link Demo to User--><!--MD5=[dd9b75cda61e33e34f5ca3046756b41e]
link Demo to GpsSystems--><!--MD5=[8f08af1c28be44fd6832cb1896a0d097]
link LocationDataPoint to Satellite--><!--MD5=[e96b2763a3d50575f5bbc736cc72341f]
link LocationDataPoint to TrackData--><!--MD5=[cccf6a223a94abeaf38acfd41ab100a9]
@startuml AdminPackages


package edu.oakland.production.admin {

}


package edu.oakland.production.admin {
    class Demo {
        .. Main Production Classes ..
        {static} - DisplayGpsInterface displayGpsInterface
        {static} - DisplayGpsReceiver displayGpsReceiver
        {static} - DisplayGpsManager displayGpsManager
        {static} - DisplayCommInterface displayCommInterface
        {static} - DisplayComm2WayInterface displayComm2WayInterface
        {static} - DisplayCommManager displayCommManager
        {static} - MiddlewareGisInterface middlewareGisInterface
        {static} - MiddlewareGisProcessor middlewareGisProcessor
        {static} - MiddlewareGisManager middlewareGisManager
        {static} - MiddlewareCommInterface middlewareCommInterface
        {static} - MiddlewareCommLinkManager middlewareCommLinkManager
        {static} - MiddlewareCommDatabaseInterface middlewareCommDatabaseInterface
        {static} - DatabaseGisInterface databaseGisInterface
        {static} - DatabaseGisManager databaseGisManager
        {static} - DatabaseGisPersistentStorage databaseGisPersistentStorage
        {static} - DatabaseCommInterface databaseCommInterface
        {static} - DatabaseCommManager databaseCommManager
        {static} - DatabaseCommPersistentStorage databaseCommPersistentStorage
        __
        {static} + void main(Sting args[])
    }
}


package edu.oakland.production.admin {
    class User {
        + void useCase1(Scanner input)
    }
}


package edu.oakland.production.admin {
    class GpsSystems {
        + void userCase2(Scanner input)
    }
}



package edu.oakland.test.admin {
    
}


package edu.oakland.helper.admin {
    
}


package edu.oakland.helper.admin {
    class LocationDataPoint {
        - float lat
        - float lng
        - LocalDateTime time
        + LocationDataPoint(float lat, float lng, LocalDateTime time)
        + float getLat()
        + float getLng()
        + LocalDateTime getTime()
        - boolean latIsValid(float lat)
        - boolean lngIsValid(float lat)
        - boolean timeIsValid(LocalDateTime time)
    }
}


package edu.oakland.helper.admin {
    class Satellite {
        - String satelliteName
        - int strength
        + Satellite(String satelliteName, int strength)
        + String getSatelliteName()
        + int getStrength()
        + void setStrength(int strength)
        - boolean strengthIsValid(int strength)
    }
}


package edu.oakland.helper.admin {
    class TrackData {
        - boolean validData
        - float courseDirection
        - float speed
        - LocationDataPoint[] points
        - String statusMessage
        + TrackData(LocationDataPoint[] points)
        + TrackData(LocationDataPoint[] points, float courseDirection, float speed)
        + boolean isValidTrackData()
        + float getCourseDirection()
        + float getSpeed()
        + LocationDataPoint[] getLocationDataPoints()
        + String getStatusMessage()
        + void setStatusMessage(String statusMessage)
        - boolean speedIsValid(float speed)
        - boolean courseDirectionIsValid(float courseDirection)
    }
}



@enduml

PlantUML version 1.2020.02(Sun Mar 01 10:22:07 GMT 2020)
(GPL source distribution)
Java Runtime: OpenJDK Runtime Environment
JVM: OpenJDK 64-Bit Server VM
Java Version: 11.0.9+11-Ubuntu-0ubuntu1
Operating System: Linux
Default Encoding: ANSI_X3.4-1968
Language: en
Country: US
--></g></svg>