<?xml version="1.0" encoding="UTF-8" standalone="no"?><svg xmlns="http://www.w3.org/2000/svg" xmlns:xlink="http://www.w3.org/1999/xlink" contentScriptType="application/ecmascript" contentStyleType="text/css" height="161px" preserveAspectRatio="none" style="width:292px;height:161px;" version="1.1" viewBox="0 0 292 161" width="292px" zoomAndPan="magnify"><defs><filter height="300%" id="fvl2953nehtbf" width="300%" x="-1" y="-1"><feGaussianBlur result="blurOut" stdDeviation="2.0"/><feColorMatrix in="blurOut" result="blurOut2" type="matrix" values="0 0 0 0 0 0 0 0 0 0 0 0 0 0 0 0 0 0 .4 0"/><feOffset dx="4.0" dy="4.0" in="blurOut2" result="blurOut3"/><feBlend in="SourceGraphic" in2="blurOut3" mode="normal"/></filter></defs><g><!--MD5=[d02020cdc9562d037d87b751d110dd8b]
cluster edu.oakland.helper.display01--><polygon fill="#FFFFFF" filter="url(#fvl2953nehtbf)" points="22,24,260,24,267,46.2969,270,46.2969,270,149,22,149,22,24" style="stroke: #000000; stroke-width: 1.5;"/><line style="stroke: #000000; stroke-width: 1.5;" x1="22" x2="267" y1="46.2969" y2="46.2969"/><text fill="#000000" font-family="sans-serif" font-size="14" font-weight="bold" lengthAdjust="spacingAndGlyphs" textLength="232" x="26" y="38.9951">edu.oakland.helper.display01</text><!--MD5=[b7db7f9e4ca1b2f55d32a1a48f9dd068]
class SatelliteSignalCheckRequest--><rect fill="#FEFECE" filter="url(#fvl2953nehtbf)" height="73.6094" id="SatelliteSignalCheckRequest" style="stroke: #A80036; stroke-width: 1.5;" width="211" x="40.5" y="59"/><ellipse cx="55.5" cy="75" fill="#ADD1B2" rx="11" ry="11" style="stroke: #A80036; stroke-width: 1.0;"/><path d="M58.4688,80.6406 Q57.8906,80.9375 57.25,81.0781 Q56.6094,81.2344 55.9063,81.2344 Q53.4063,81.2344 52.0781,79.5938 Q50.7656,77.9375 50.7656,74.8125 Q50.7656,71.6875 52.0781,70.0313 Q53.4063,68.375 55.9063,68.375 Q56.6094,68.375 57.25,68.5313 Q57.9063,68.6875 58.4688,68.9844 L58.4688,71.7031 Q57.8438,71.125 57.25,70.8594 Q56.6563,70.5781 56.0313,70.5781 Q54.6875,70.5781 54,71.6563 Q53.3125,72.7188 53.3125,74.8125 Q53.3125,76.9063 54,77.9844 Q54.6875,79.0469 56.0313,79.0469 Q56.6563,79.0469 57.25,78.7813 Q57.8438,78.5 58.4688,77.9219 L58.4688,80.6406 Z "/><text fill="#000000" font-family="sans-serif" font-size="12" lengthAdjust="spacingAndGlyphs" textLength="179" x="69.5" y="79.1543">SatelliteSignalCheckRequest</text><line style="stroke: #A80036; stroke-width: 1.5;" x1="41.5" x2="250.5" y1="91" y2="91"/><line style="stroke: #A80036; stroke-width: 1.5;" x1="41.5" x2="250.5" y1="99" y2="99"/><ellipse cx="51.5" cy="110" fill="#84BE84" rx="3" ry="3" style="stroke: #038048; stroke-width: 1.0;"/><text fill="#000000" font-family="sans-serif" font-size="11" lengthAdjust="spacingAndGlyphs" textLength="143" x="60.5" y="113.2104">String getSatelliteName()</text><ellipse cx="51.5" cy="122.8047" fill="#84BE84" rx="3" ry="3" style="stroke: #038048; stroke-width: 1.0;"/><text fill="#000000" font-family="sans-serif" font-size="11" lengthAdjust="spacingAndGlyphs" textLength="125" x="60.5" y="126.0151">String getCheckType()</text><!--MD5=[1fd52ff4c22a0205464287a4c37241b8]
@startuml Display01HelperPackage_Closure

package edu.oakland.helper.display01 {
    
}



package edu.oakland.helper.display01 {
    class SatelliteSignalCheckRequest {
        + String getSatelliteName()
        + String getCheckType()
    }
}







@enduml

PlantUML version 1.2020.02(Sun Mar 01 10:22:07 GMT 2020)
(GPL source distribution)
Java Runtime: OpenJDK Runtime Environment
JVM: OpenJDK 64-Bit Server VM
Java Version: 11.0.9+11-Ubuntu-0ubuntu1
Operating System: Linux
Default Encoding: ANSI_X3.4-1968
Language: en
Country: US
--></g></svg>