<?xml version="1.0" encoding="UTF-8" standalone="no"?><svg xmlns="http://www.w3.org/2000/svg" xmlns:xlink="http://www.w3.org/1999/xlink" contentScriptType="application/ecmascript" contentStyleType="text/css" height="367px" preserveAspectRatio="none" style="width:2995px;height:367px;" version="1.1" viewBox="0 0 2995 367" width="2995px" zoomAndPan="magnify"><defs><filter height="300%" id="fn5bhbgd88gxt" width="300%" x="-1" y="-1"><feGaussianBlur result="blurOut" stdDeviation="2.0"/><feColorMatrix in="blurOut" result="blurOut2" type="matrix" values="0 0 0 0 0 0 0 0 0 0 0 0 0 0 0 0 0 0 .4 0"/><feOffset dx="4.0" dy="4.0" in="blurOut2" result="blurOut3"/><feBlend in="SourceGraphic" in2="blurOut3" mode="normal"/></filter></defs><g><!--MD5=[fe59aae6f7bfe371a9c197ec1f7f843a]
cluster edu.oakland.production.display02--><polygon fill="#FFFFFF" filter="url(#fn5bhbgd88gxt)" points="1563,24,1836,24,1843,46.2969,2973,46.2969,2973,355,1563,355,1563,24" style="stroke: #000000; stroke-width: 1.5;"/><line style="stroke: #000000; stroke-width: 1.5;" x1="1563" x2="1843" y1="46.2969" y2="46.2969"/><text fill="#000000" font-family="sans-serif" font-size="14" font-weight="bold" lengthAdjust="spacingAndGlyphs" textLength="267" x="1567" y="38.9951">edu.oakland.production.display02</text><!--MD5=[9258003ec405d300d3379b4a3d8dd6ad]
cluster edu.oakland.test.display02--><polygon fill="#FFFFFF" filter="url(#fn5bhbgd88gxt)" points="294,39,512,39,519,61.2969,1539,61.2969,1539,323,294,323,294,39" style="stroke: #000000; stroke-width: 1.5;"/><line style="stroke: #000000; stroke-width: 1.5;" x1="294" x2="519" y1="61.2969" y2="61.2969"/><text fill="#000000" font-family="sans-serif" font-size="14" font-weight="bold" lengthAdjust="spacingAndGlyphs" textLength="212" x="298" y="53.9951">edu.oakland.test.display02</text><!--MD5=[a502031b5a5384de0a21e6ee820fd3b2]
cluster edu.oakland.helper.display02--><polygon fill="#FFFFFF" filter="url(#fn5bhbgd88gxt)" points="22,209,260,209,267,231.2969,270,231.2969,270,308,22,308,22,209" style="stroke: #000000; stroke-width: 1.5;"/><line style="stroke: #000000; stroke-width: 1.5;" x1="22" x2="267" y1="231.2969" y2="231.2969"/><text fill="#000000" font-family="sans-serif" font-size="14" font-weight="bold" lengthAdjust="spacingAndGlyphs" textLength="232" x="26" y="223.9951">edu.oakland.helper.display02</text><!--MD5=[c8d1e3134fecb0c949fd2a76cc0bb992]
class DisplayCommInterface--><rect fill="#FEFECE" filter="url(#fn5bhbgd88gxt)" height="77.6094" id="DisplayCommInterface" style="stroke: #A80036; stroke-width: 1.5;" width="268" x="2636" y="59"/><ellipse cx="2696.25" cy="75" fill="#B4A7E5" rx="11" ry="11" style="stroke: #A80036; stroke-width: 1.0;"/><path d="M2692.1719,70.7656 L2692.1719,68.6094 L2699.5625,68.6094 L2699.5625,70.7656 L2697.0938,70.7656 L2697.0938,78.8438 L2699.5625,78.8438 L2699.5625,81 L2692.1719,81 L2692.1719,78.8438 L2694.6406,78.8438 L2694.6406,70.7656 L2692.1719,70.7656 Z "/><text fill="#000000" font-family="sans-serif" font-size="12" font-style="italic" lengthAdjust="spacingAndGlyphs" textLength="139" x="2716.75" y="79.1543">DisplayCommInterface</text><line style="stroke: #A80036; stroke-width: 1.5;" x1="2637" x2="2903" y1="91" y2="91"/><line style="stroke: #A80036; stroke-width: 1.5;" x1="2637" x2="2903" y1="99" y2="99"/><ellipse cx="2647" cy="126.8047" fill="#84BE84" rx="3" ry="3" style="stroke: #038048; stroke-width: 1.0;"/><text fill="#000000" font-family="sans-serif" font-size="11" font-style="italic" lengthAdjust="spacingAndGlyphs" textLength="242" x="2656" y="130.0151">TrackData receiveRfidRequest(int rfidNum)</text><line style="stroke: #A80036; stroke-width: 1.0; stroke-dasharray: 1.0,2.0;" x1="2637" x2="2737" y1="113.4023" y2="113.4023"/><text fill="#000000" font-family="sans-serif" font-size="11" lengthAdjust="spacingAndGlyphs" textLength="66" x="2737" y="116.7104">Use Case 1</text><line style="stroke: #A80036; stroke-width: 1.0; stroke-dasharray: 1.0,2.0;" x1="2803" x2="2903" y1="113.4023" y2="113.4023"/><!--MD5=[f6b51b5f862da5ce226c62e411e84628]
class DisplayComm2WayInterface--><rect fill="#FEFECE" filter="url(#fn5bhbgd88gxt)" height="77.6094" id="DisplayComm2WayInterface" style="stroke: #A80036; stroke-width: 1.5;" width="252" x="2065" y="59"/><ellipse cx="2100.7" cy="75" fill="#B4A7E5" rx="11" ry="11" style="stroke: #A80036; stroke-width: 1.0;"/><path d="M2096.6219,70.7656 L2096.6219,68.6094 L2104.0125,68.6094 L2104.0125,70.7656 L2101.5438,70.7656 L2101.5438,78.8438 L2104.0125,78.8438 L2104.0125,81 L2096.6219,81 L2096.6219,78.8438 L2099.0906,78.8438 L2099.0906,70.7656 L2096.6219,70.7656 Z "/><text fill="#000000" font-family="sans-serif" font-size="12" font-style="italic" lengthAdjust="spacingAndGlyphs" textLength="174" x="2119.3" y="79.1543">DisplayComm2WayInterface</text><line style="stroke: #A80036; stroke-width: 1.5;" x1="2066" x2="2316" y1="91" y2="91"/><line style="stroke: #A80036; stroke-width: 1.5;" x1="2066" x2="2316" y1="99" y2="99"/><ellipse cx="2076" cy="126.8047" fill="#84BE84" rx="3" ry="3" style="stroke: #038048; stroke-width: 1.0;"/><text fill="#000000" font-family="sans-serif" font-size="11" font-style="italic" lengthAdjust="spacingAndGlyphs" textLength="226" x="2085" y="130.0151">TrackData passRfidRequest(int rfidNum)</text><line style="stroke: #A80036; stroke-width: 1.0; stroke-dasharray: 1.0,2.0;" x1="2066" x2="2158" y1="113.4023" y2="113.4023"/><text fill="#000000" font-family="sans-serif" font-size="11" lengthAdjust="spacingAndGlyphs" textLength="66" x="2158" y="116.7104">Use Case 1</text><line style="stroke: #A80036; stroke-width: 1.0; stroke-dasharray: 1.0,2.0;" x1="2224" x2="2316" y1="113.4023" y2="113.4023"/><!--MD5=[6aeb72f2773d7cabb45309482beeff0a]
class DisplayCommManager--><rect fill="#FEFECE" filter="url(#fn5bhbgd88gxt)" height="77.6094" id="DisplayCommManager" style="stroke: #A80036; stroke-width: 1.5;" width="275" x="1628.5" y="59"/><ellipse cx="1693.25" cy="75" fill="#B4A7E5" rx="11" ry="11" style="stroke: #A80036; stroke-width: 1.0;"/><path d="M1689.1719,70.7656 L1689.1719,68.6094 L1696.5625,68.6094 L1696.5625,70.7656 L1694.0938,70.7656 L1694.0938,78.8438 L1696.5625,78.8438 L1696.5625,81 L1689.1719,81 L1689.1719,78.8438 L1691.6406,78.8438 L1691.6406,70.7656 L1689.1719,70.7656 Z "/><text fill="#000000" font-family="sans-serif" font-size="12" font-style="italic" lengthAdjust="spacingAndGlyphs" textLength="137" x="1713.75" y="79.1543">DisplayCommManager</text><line style="stroke: #A80036; stroke-width: 1.5;" x1="1629.5" x2="1902.5" y1="91" y2="91"/><line style="stroke: #A80036; stroke-width: 1.5;" x1="1629.5" x2="1902.5" y1="99" y2="99"/><ellipse cx="1639.5" cy="126.8047" fill="#84BE84" rx="3" ry="3" style="stroke: #038048; stroke-width: 1.0;"/><text fill="#000000" font-family="sans-serif" font-size="11" font-style="italic" lengthAdjust="spacingAndGlyphs" textLength="249" x="1648.5" y="130.0151">TrackData evaluateRfidRequest(int rfidNum)</text><line style="stroke: #A80036; stroke-width: 1.0; stroke-dasharray: 1.0,2.0;" x1="1629.5" x2="1733" y1="113.4023" y2="113.4023"/><text fill="#000000" font-family="sans-serif" font-size="11" lengthAdjust="spacingAndGlyphs" textLength="66" x="1733" y="116.7104">Use Case 1</text><line style="stroke: #A80036; stroke-width: 1.0; stroke-dasharray: 1.0,2.0;" x1="1799" x2="1902.5" y1="113.4023" y2="113.4023"/><!--MD5=[a35092e604da7274febf4e2cf9a25087]
class DisplayCommInterfaceImplementation--><rect fill="#FEFECE" filter="url(#fn5bhbgd88gxt)" height="128.8281" id="DisplayCommInterfaceImplementation" style="stroke: #A80036; stroke-width: 1.5;" width="373" x="2583.5" y="203.5"/><ellipse cx="2648.25" cy="219.5" fill="#ADD1B2" rx="11" ry="11" style="stroke: #A80036; stroke-width: 1.0;"/><path d="M2651.2188,225.1406 Q2650.6406,225.4375 2650,225.5781 Q2649.3594,225.7344 2648.6563,225.7344 Q2646.1563,225.7344 2644.8281,224.0938 Q2643.5156,222.4375 2643.5156,219.3125 Q2643.5156,216.1875 2644.8281,214.5313 Q2646.1563,212.875 2648.6563,212.875 Q2649.3594,212.875 2650,213.0313 Q2650.6563,213.1875 2651.2188,213.4844 L2651.2188,216.2031 Q2650.5938,215.625 2650,215.3594 Q2649.4063,215.0781 2648.7813,215.0781 Q2647.4375,215.0781 2646.75,216.1563 Q2646.0625,217.2188 2646.0625,219.3125 Q2646.0625,221.4063 2646.75,222.4844 Q2647.4375,223.5469 2648.7813,223.5469 Q2649.4063,223.5469 2650,223.2813 Q2650.5938,223 2651.2188,222.4219 L2651.2188,225.1406 Z "/><text fill="#000000" font-family="sans-serif" font-size="12" lengthAdjust="spacingAndGlyphs" textLength="235" x="2668.75" y="223.6543">DisplayCommInterfaceImplementation</text><line style="stroke: #A80036; stroke-width: 1.5;" x1="2584.5" x2="2955.5" y1="235.5" y2="235.5"/><text fill="#000000" font-family="sans-serif" font-size="11" lengthAdjust="spacingAndGlyphs" textLength="207" x="2589.5" y="249.7104">DisplayComm2WayInterface receiver</text><line style="stroke: #A80036; stroke-width: 1.5;" x1="2584.5" x2="2955.5" y1="256.3047" y2="256.3047"/><ellipse cx="2594.5" cy="267.3047" fill="#84BE84" rx="3" ry="3" style="stroke: #038048; stroke-width: 1.0;"/><text fill="#000000" font-family="sans-serif" font-size="11" font-style="italic" lengthAdjust="spacingAndGlyphs" textLength="347" x="2603.5" y="270.5151">DisplayCommInterface(DisplayComm2WayInterface receiver)</text><ellipse cx="2594.5" cy="296.9141" fill="#84BE84" rx="3" ry="3" style="stroke: #038048; stroke-width: 1.0;"/><text fill="#000000" font-family="sans-serif" font-size="11" font-style="italic" lengthAdjust="spacingAndGlyphs" textLength="242" x="2603.5" y="300.1245">TrackData receiveRfidRequest(int rfidNum)</text><ellipse cx="2594.5" cy="309.7188" fill="#84BE84" rx="3" ry="3" style="stroke: #038048; stroke-width: 1.0;"/><text fill="#000000" font-family="sans-serif" font-size="11" font-style="italic" lengthAdjust="spacingAndGlyphs" textLength="291" x="2603.5" y="312.9292">TrackData passToComm2WayInterface(int rfidNum)</text><text fill="#000000" font-family="sans-serif" font-size="11" lengthAdjust="spacingAndGlyphs" textLength="0" x="2607.5" y="325.7339"/><line style="stroke: #A80036; stroke-width: 1.0; stroke-dasharray: 1.0,2.0;" x1="2584.5" x2="2737" y1="283.5117" y2="283.5117"/><text fill="#000000" font-family="sans-serif" font-size="11" lengthAdjust="spacingAndGlyphs" textLength="66" x="2737" y="286.8198">Use Case 1</text><line style="stroke: #A80036; stroke-width: 1.0; stroke-dasharray: 1.0,2.0;" x1="2803" x2="2955.5" y1="283.5117" y2="283.5117"/><!--MD5=[46657c2900260d4d40350fe3f8c544df]
class DisplayComm2WayInterfaceImplementation--><rect fill="#FEFECE" filter="url(#fn5bhbgd88gxt)" height="128.8281" id="DisplayComm2WayInterfaceImplementation" style="stroke: #A80036; stroke-width: 1.5;" width="464" x="2084" y="203.5"/><ellipse cx="2177.75" cy="219.5" fill="#ADD1B2" rx="11" ry="11" style="stroke: #A80036; stroke-width: 1.0;"/><path d="M2180.7188,225.1406 Q2180.1406,225.4375 2179.5,225.5781 Q2178.8594,225.7344 2178.1563,225.7344 Q2175.6563,225.7344 2174.3281,224.0938 Q2173.0156,222.4375 2173.0156,219.3125 Q2173.0156,216.1875 2174.3281,214.5313 Q2175.6563,212.875 2178.1563,212.875 Q2178.8594,212.875 2179.5,213.0313 Q2180.1563,213.1875 2180.7188,213.4844 L2180.7188,216.2031 Q2180.0938,215.625 2179.5,215.3594 Q2178.9063,215.0781 2178.2813,215.0781 Q2176.9375,215.0781 2176.25,216.1563 Q2175.5625,217.2188 2175.5625,219.3125 Q2175.5625,221.4063 2176.25,222.4844 Q2176.9375,223.5469 2178.2813,223.5469 Q2178.9063,223.5469 2179.5,223.2813 Q2180.0938,223 2180.7188,222.4219 L2180.7188,225.1406 Z "/><text fill="#000000" font-family="sans-serif" font-size="12" lengthAdjust="spacingAndGlyphs" textLength="268" x="2198.25" y="223.6543">DisplayComm2WayInterfaceImplementation</text><line style="stroke: #A80036; stroke-width: 1.5;" x1="2085" x2="2547" y1="235.5" y2="235.5"/><text fill="#000000" font-family="sans-serif" font-size="11" lengthAdjust="spacingAndGlyphs" textLength="182" x="2090" y="249.7104">DisplayCommManager manager</text><line style="stroke: #A80036; stroke-width: 1.5;" x1="2085" x2="2547" y1="256.3047" y2="256.3047"/><ellipse cx="2095" cy="284.1094" fill="#84BE84" rx="3" ry="3" style="stroke: #038048; stroke-width: 1.0;"/><text fill="#000000" font-family="sans-serif" font-size="11" font-style="italic" lengthAdjust="spacingAndGlyphs" textLength="438" x="2104" y="287.3198">DisplayComm2WayInterfaceImplementation(DisplayCommManager manager)</text><ellipse cx="2095" cy="296.9141" fill="#84BE84" rx="3" ry="3" style="stroke: #038048; stroke-width: 1.0;"/><text fill="#000000" font-family="sans-serif" font-size="11" font-style="italic" lengthAdjust="spacingAndGlyphs" textLength="226" x="2104" y="300.1245">TrackData passRfidRequest(int rfidNum)</text><ellipse cx="2095" cy="309.7188" fill="#84BE84" rx="3" ry="3" style="stroke: #038048; stroke-width: 1.0;"/><text fill="#000000" font-family="sans-serif" font-size="11" font-style="italic" lengthAdjust="spacingAndGlyphs" textLength="269" x="2104" y="312.9292">void determineUserRequestFormat(int rfidNum)</text><ellipse cx="2095" cy="322.5234" fill="#84BE84" rx="3" ry="3" style="stroke: #038048; stroke-width: 1.0;"/><text fill="#000000" font-family="sans-serif" font-size="11" font-style="italic" lengthAdjust="spacingAndGlyphs" textLength="344" x="2104" y="325.7339">void receiveRequestFromDisplayCommInterface(int rfidNum)</text><line style="stroke: #A80036; stroke-width: 1.0; stroke-dasharray: 1.0,2.0;" x1="2085" x2="2283" y1="270.707" y2="270.707"/><text fill="#000000" font-family="sans-serif" font-size="11" lengthAdjust="spacingAndGlyphs" textLength="66" x="2283" y="274.0151">Use Case 1</text><line style="stroke: #A80036; stroke-width: 1.0; stroke-dasharray: 1.0,2.0;" x1="2349" x2="2547" y1="270.707" y2="270.707"/><!--MD5=[3a27b63ddb357afc5dde5581215f51f9]
class DisplayCommManagerImplementation--><rect fill="#FEFECE" filter="url(#fn5bhbgd88gxt)" height="141.6328" id="DisplayCommManagerImplementation" style="stroke: #A80036; stroke-width: 1.5;" width="470" x="1579" y="197"/><ellipse cx="1692.75" cy="213" fill="#ADD1B2" rx="11" ry="11" style="stroke: #A80036; stroke-width: 1.0;"/><path d="M1695.7188,218.6406 Q1695.1406,218.9375 1694.5,219.0781 Q1693.8594,219.2344 1693.1563,219.2344 Q1690.6563,219.2344 1689.3281,217.5938 Q1688.0156,215.9375 1688.0156,212.8125 Q1688.0156,209.6875 1689.3281,208.0313 Q1690.6563,206.375 1693.1563,206.375 Q1693.8594,206.375 1694.5,206.5313 Q1695.1563,206.6875 1695.7188,206.9844 L1695.7188,209.7031 Q1695.0938,209.125 1694.5,208.8594 Q1693.9063,208.5781 1693.2813,208.5781 Q1691.9375,208.5781 1691.25,209.6563 Q1690.5625,210.7188 1690.5625,212.8125 Q1690.5625,214.9063 1691.25,215.9844 Q1691.9375,217.0469 1693.2813,217.0469 Q1693.9063,217.0469 1694.5,216.7813 Q1695.0938,216.5 1695.7188,215.9219 L1695.7188,218.6406 Z "/><text fill="#000000" font-family="sans-serif" font-size="12" lengthAdjust="spacingAndGlyphs" textLength="234" x="1713.25" y="217.1543">DisplayCommManagerImplementation</text><line style="stroke: #A80036; stroke-width: 1.5;" x1="1580" x2="2048" y1="229" y2="229"/><text fill="#000000" font-family="sans-serif" font-size="11" lengthAdjust="spacingAndGlyphs" textLength="221" x="1585" y="243.2104">MiddlewareCommInterface middleware</text><line style="stroke: #A80036; stroke-width: 1.5;" x1="1580" x2="2048" y1="249.8047" y2="249.8047"/><ellipse cx="1590" cy="260.8047" fill="#84BE84" rx="3" ry="3" style="stroke: #038048; stroke-width: 1.0;"/><text fill="#000000" font-family="sans-serif" font-size="11" font-style="italic" lengthAdjust="spacingAndGlyphs" textLength="444" x="1599" y="264.0151">DisplayCommManagerImplementation(MiddlewareCommInterface middleware)</text><ellipse cx="1590" cy="290.4141" fill="#84BE84" rx="3" ry="3" style="stroke: #038048; stroke-width: 1.0;"/><text fill="#000000" font-family="sans-serif" font-size="11" font-style="italic" lengthAdjust="spacingAndGlyphs" textLength="249" x="1599" y="293.6245">TrackData evaluateRfidRequest(int rfidNum)</text><ellipse cx="1590" cy="303.2188" fill="#84BE84" rx="3" ry="3" style="stroke: #038048; stroke-width: 1.0;"/><text fill="#000000" font-family="sans-serif" font-size="11" font-style="italic" lengthAdjust="spacingAndGlyphs" textLength="369" x="1599" y="306.4292">TrackData passRequestToMiddlewareCommInterface(int rfidNum)</text><ellipse cx="1590" cy="316.0234" fill="#84BE84" rx="3" ry="3" style="stroke: #038048; stroke-width: 1.0;"/><text fill="#000000" font-family="sans-serif" font-size="11" font-style="italic" lengthAdjust="spacingAndGlyphs" textLength="339" x="1599" y="319.2339">void receiveRequestFromDisplay2WayInterface(int rfidNum)</text><text fill="#000000" font-family="sans-serif" font-size="11" lengthAdjust="spacingAndGlyphs" textLength="0" x="1603" y="332.0386"/><line style="stroke: #A80036; stroke-width: 1.0; stroke-dasharray: 1.0,2.0;" x1="1580" x2="1781" y1="277.0117" y2="277.0117"/><text fill="#000000" font-family="sans-serif" font-size="11" lengthAdjust="spacingAndGlyphs" textLength="66" x="1781" y="280.3198">Use Case 1</text><line style="stroke: #A80036; stroke-width: 1.0; stroke-dasharray: 1.0,2.0;" x1="1847" x2="2048" y1="277.0117" y2="277.0117"/><!--MD5=[d454b7777f115113290d89683d7a426c]
class DisplayCommInterfaceImplementationTests--><rect fill="#FEFECE" filter="url(#fn5bhbgd88gxt)" height="48" id="DisplayCommInterfaceImplementationTests" style="stroke: #A80036; stroke-width: 1.5;" width="301" x="1221.5" y="74"/><ellipse cx="1236.5" cy="90" fill="#ADD1B2" rx="11" ry="11" style="stroke: #A80036; stroke-width: 1.0;"/><path d="M1239.4688,95.6406 Q1238.8906,95.9375 1238.25,96.0781 Q1237.6094,96.2344 1236.9063,96.2344 Q1234.4063,96.2344 1233.0781,94.5938 Q1231.7656,92.9375 1231.7656,89.8125 Q1231.7656,86.6875 1233.0781,85.0313 Q1234.4063,83.375 1236.9063,83.375 Q1237.6094,83.375 1238.25,83.5313 Q1238.9063,83.6875 1239.4688,83.9844 L1239.4688,86.7031 Q1238.8438,86.125 1238.25,85.8594 Q1237.6563,85.5781 1237.0313,85.5781 Q1235.6875,85.5781 1235,86.6563 Q1234.3125,87.7188 1234.3125,89.8125 Q1234.3125,91.9063 1235,92.9844 Q1235.6875,94.0469 1237.0313,94.0469 Q1237.6563,94.0469 1238.25,93.7813 Q1238.8438,93.5 1239.4688,92.9219 L1239.4688,95.6406 Z "/><text fill="#000000" font-family="sans-serif" font-size="12" lengthAdjust="spacingAndGlyphs" textLength="269" x="1250.5" y="94.1543">DisplayCommInterfaceImplementationTests</text><line style="stroke: #A80036; stroke-width: 1.5;" x1="1222.5" x2="1521.5" y1="106" y2="106"/><line style="stroke: #A80036; stroke-width: 1.5;" x1="1222.5" x2="1521.5" y1="114" y2="114"/><!--MD5=[a333ac13e0fdf2a5898aafabd38d3c1b]
class DisplayComm2WayInterfaceStub--><rect fill="#FEFECE" filter="url(#fn5bhbgd88gxt)" height="77.6094" id="DisplayComm2WayInterfaceStub" style="stroke: #A80036; stroke-width: 1.5;" width="252" x="1258" y="229"/><ellipse cx="1282" cy="245" fill="#ADD1B2" rx="11" ry="11" style="stroke: #A80036; stroke-width: 1.0;"/><path d="M1284.9688,250.6406 Q1284.3906,250.9375 1283.75,251.0781 Q1283.1094,251.2344 1282.4063,251.2344 Q1279.9063,251.2344 1278.5781,249.5938 Q1277.2656,247.9375 1277.2656,244.8125 Q1277.2656,241.6875 1278.5781,240.0313 Q1279.9063,238.375 1282.4063,238.375 Q1283.1094,238.375 1283.75,238.5313 Q1284.4063,238.6875 1284.9688,238.9844 L1284.9688,241.7031 Q1284.3438,241.125 1283.75,240.8594 Q1283.1563,240.5781 1282.5313,240.5781 Q1281.1875,240.5781 1280.5,241.6563 Q1279.8125,242.7188 1279.8125,244.8125 Q1279.8125,246.9063 1280.5,247.9844 Q1281.1875,249.0469 1282.5313,249.0469 Q1283.1563,249.0469 1283.75,248.7813 Q1284.3438,248.5 1284.9688,247.9219 L1284.9688,250.6406 Z "/><text fill="#000000" font-family="sans-serif" font-size="12" lengthAdjust="spacingAndGlyphs" textLength="200" x="1298" y="249.1543">DisplayComm2WayInterfaceStub</text><line style="stroke: #A80036; stroke-width: 1.5;" x1="1259" x2="1509" y1="261" y2="261"/><line style="stroke: #A80036; stroke-width: 1.5;" x1="1259" x2="1509" y1="269" y2="269"/><ellipse cx="1269" cy="296.8047" fill="#84BE84" rx="3" ry="3" style="stroke: #038048; stroke-width: 1.0;"/><text fill="#000000" font-family="sans-serif" font-size="11" font-style="italic" lengthAdjust="spacingAndGlyphs" textLength="226" x="1278" y="300.0151">TrackData passRfidRequest(int rfidNum)</text><line style="stroke: #A80036; stroke-width: 1.0; stroke-dasharray: 1.0,2.0;" x1="1259" x2="1351" y1="283.4023" y2="283.4023"/><text fill="#000000" font-family="sans-serif" font-size="11" lengthAdjust="spacingAndGlyphs" textLength="66" x="1351" y="286.7104">Use Case 1</text><line style="stroke: #A80036; stroke-width: 1.0; stroke-dasharray: 1.0,2.0;" x1="1417" x2="1509" y1="283.4023" y2="283.4023"/><!--MD5=[178181f4c7684560c711246055fc01d3]
class DisplayComm2WayInterfaceImplementationTests--><rect fill="#FEFECE" filter="url(#fn5bhbgd88gxt)" height="48" id="DisplayComm2WayInterfaceImplementationTests" style="stroke: #A80036; stroke-width: 1.5;" width="334" x="852" y="74"/><ellipse cx="867" cy="90" fill="#ADD1B2" rx="11" ry="11" style="stroke: #A80036; stroke-width: 1.0;"/><path d="M869.9688,95.6406 Q869.3906,95.9375 868.75,96.0781 Q868.1094,96.2344 867.4063,96.2344 Q864.9063,96.2344 863.5781,94.5938 Q862.2656,92.9375 862.2656,89.8125 Q862.2656,86.6875 863.5781,85.0313 Q864.9063,83.375 867.4063,83.375 Q868.1094,83.375 868.75,83.5313 Q869.4063,83.6875 869.9688,83.9844 L869.9688,86.7031 Q869.3438,86.125 868.75,85.8594 Q868.1563,85.5781 867.5313,85.5781 Q866.1875,85.5781 865.5,86.6563 Q864.8125,87.7188 864.8125,89.8125 Q864.8125,91.9063 865.5,92.9844 Q866.1875,94.0469 867.5313,94.0469 Q868.1563,94.0469 868.75,93.7813 Q869.3438,93.5 869.9688,92.9219 L869.9688,95.6406 Z "/><text fill="#000000" font-family="sans-serif" font-size="12" lengthAdjust="spacingAndGlyphs" textLength="302" x="881" y="94.1543">DisplayComm2WayInterfaceImplementationTests</text><line style="stroke: #A80036; stroke-width: 1.5;" x1="853" x2="1185" y1="106" y2="106"/><line style="stroke: #A80036; stroke-width: 1.5;" x1="853" x2="1185" y1="114" y2="114"/><!--MD5=[2970358178d6cf57fc5a801b39eb8d0b]
class DisplayCommManagerStub--><rect fill="#FEFECE" filter="url(#fn5bhbgd88gxt)" height="77.6094" id="DisplayCommManagerStub" style="stroke: #A80036; stroke-width: 1.5;" width="273" x="915.5" y="229"/><ellipse cx="964.75" cy="245" fill="#ADD1B2" rx="11" ry="11" style="stroke: #A80036; stroke-width: 1.0;"/><path d="M967.7188,250.6406 Q967.1406,250.9375 966.5,251.0781 Q965.8594,251.2344 965.1563,251.2344 Q962.6563,251.2344 961.3281,249.5938 Q960.0156,247.9375 960.0156,244.8125 Q960.0156,241.6875 961.3281,240.0313 Q962.6563,238.375 965.1563,238.375 Q965.8594,238.375 966.5,238.5313 Q967.1563,238.6875 967.7188,238.9844 L967.7188,241.7031 Q967.0938,241.125 966.5,240.8594 Q965.9063,240.5781 965.2813,240.5781 Q963.9375,240.5781 963.25,241.6563 Q962.5625,242.7188 962.5625,244.8125 Q962.5625,246.9063 963.25,247.9844 Q963.9375,249.0469 965.2813,249.0469 Q965.9063,249.0469 966.5,248.7813 Q967.0938,248.5 967.7188,247.9219 L967.7188,250.6406 Z "/><text fill="#000000" font-family="sans-serif" font-size="12" lengthAdjust="spacingAndGlyphs" textLength="166" x="985.25" y="249.1543">DisplayCommManagerStub</text><line style="stroke: #A80036; stroke-width: 1.5;" x1="916.5" x2="1187.5" y1="261" y2="261"/><line style="stroke: #A80036; stroke-width: 1.5;" x1="916.5" x2="1187.5" y1="269" y2="269"/><ellipse cx="926.5" cy="296.8047" fill="#84BE84" rx="3" ry="3" style="stroke: #038048; stroke-width: 1.0;"/><text fill="#000000" font-family="sans-serif" font-size="11" lengthAdjust="spacingAndGlyphs" textLength="247" x="935.5" y="300.0151">TrackData evaluateRfidRequest(int rfidNum)</text><line style="stroke: #A80036; stroke-width: 1.0; stroke-dasharray: 1.0,2.0;" x1="916.5" x2="1019" y1="283.4023" y2="283.4023"/><text fill="#000000" font-family="sans-serif" font-size="11" lengthAdjust="spacingAndGlyphs" textLength="66" x="1019" y="286.7104">Use Case 1</text><line style="stroke: #A80036; stroke-width: 1.0; stroke-dasharray: 1.0,2.0;" x1="1085" x2="1187.5" y1="283.4023" y2="283.4023"/><!--MD5=[937d6d8ff87a99d0d5dcd66ee05a1fa4]
class DisplayCommManagerImplementationTests--><rect fill="#FEFECE" filter="url(#fn5bhbgd88gxt)" height="48" id="DisplayCommManagerImplementationTests" style="stroke: #A80036; stroke-width: 1.5;" width="300" x="517" y="74"/><ellipse cx="532" cy="90" fill="#ADD1B2" rx="11" ry="11" style="stroke: #A80036; stroke-width: 1.0;"/><path d="M534.9688,95.6406 Q534.3906,95.9375 533.75,96.0781 Q533.1094,96.2344 532.4063,96.2344 Q529.9063,96.2344 528.5781,94.5938 Q527.2656,92.9375 527.2656,89.8125 Q527.2656,86.6875 528.5781,85.0313 Q529.9063,83.375 532.4063,83.375 Q533.1094,83.375 533.75,83.5313 Q534.4063,83.6875 534.9688,83.9844 L534.9688,86.7031 Q534.3438,86.125 533.75,85.8594 Q533.1563,85.5781 532.5313,85.5781 Q531.1875,85.5781 530.5,86.6563 Q529.8125,87.7188 529.8125,89.8125 Q529.8125,91.9063 530.5,92.9844 Q531.1875,94.0469 532.5313,94.0469 Q533.1563,94.0469 533.75,93.7813 Q534.3438,93.5 534.9688,92.9219 L534.9688,95.6406 Z "/><text fill="#000000" font-family="sans-serif" font-size="12" lengthAdjust="spacingAndGlyphs" textLength="268" x="546" y="94.1543">DisplayCommManagerImplementationTests</text><line style="stroke: #A80036; stroke-width: 1.5;" x1="518" x2="816" y1="106" y2="106"/><line style="stroke: #A80036; stroke-width: 1.5;" x1="518" x2="816" y1="114" y2="114"/><!--MD5=[cf56a65163663c6c6c7b84cd7c204b97]
class MiddlewareCommInterfaceStub--><rect fill="#FEFECE" filter="url(#fn5bhbgd88gxt)" height="77.6094" id="MiddlewareCommInterfaceStub" style="stroke: #A80036; stroke-width: 1.5;" width="225" x="554.5" y="229"/><ellipse cx="569.5" cy="245" fill="#ADD1B2" rx="11" ry="11" style="stroke: #A80036; stroke-width: 1.0;"/><path d="M572.4688,250.6406 Q571.8906,250.9375 571.25,251.0781 Q570.6094,251.2344 569.9063,251.2344 Q567.4063,251.2344 566.0781,249.5938 Q564.7656,247.9375 564.7656,244.8125 Q564.7656,241.6875 566.0781,240.0313 Q567.4063,238.375 569.9063,238.375 Q570.6094,238.375 571.25,238.5313 Q571.9063,238.6875 572.4688,238.9844 L572.4688,241.7031 Q571.8438,241.125 571.25,240.8594 Q570.6563,240.5781 570.0313,240.5781 Q568.6875,240.5781 568,241.6563 Q567.3125,242.7188 567.3125,244.8125 Q567.3125,246.9063 568,247.9844 Q568.6875,249.0469 570.0313,249.0469 Q570.6563,249.0469 571.25,248.7813 Q571.8438,248.5 572.4688,247.9219 L572.4688,250.6406 Z "/><text fill="#000000" font-family="sans-serif" font-size="12" lengthAdjust="spacingAndGlyphs" textLength="193" x="583.5" y="249.1543">MiddlewareCommInterfaceStub</text><line style="stroke: #A80036; stroke-width: 1.5;" x1="555.5" x2="778.5" y1="261" y2="261"/><line style="stroke: #A80036; stroke-width: 1.5;" x1="555.5" x2="778.5" y1="269" y2="269"/><ellipse cx="565.5" cy="296.8047" fill="#84BE84" rx="3" ry="3" style="stroke: #038048; stroke-width: 1.0;"/><text fill="#000000" font-family="sans-serif" font-size="11" lengthAdjust="spacingAndGlyphs" textLength="171" x="574.5" y="300.0151">TrackData requestRfid(int rfid)</text><line style="stroke: #A80036; stroke-width: 1.0; stroke-dasharray: 1.0,2.0;" x1="555.5" x2="634" y1="283.4023" y2="283.4023"/><text fill="#000000" font-family="sans-serif" font-size="11" lengthAdjust="spacingAndGlyphs" textLength="66" x="634" y="286.7104">Use Case 1</text><line style="stroke: #A80036; stroke-width: 1.0; stroke-dasharray: 1.0,2.0;" x1="700" x2="778.5" y1="283.4023" y2="283.4023"/><!--MD5=[930c8140e7c1cb8e71aa7cd49967748e]
class TrackDataPlotterTests--><rect fill="#FEFECE" filter="url(#fn5bhbgd88gxt)" height="48" id="TrackDataPlotterTests" style="stroke: #A80036; stroke-width: 1.5;" width="172" x="310" y="74"/><ellipse cx="325" cy="90" fill="#ADD1B2" rx="11" ry="11" style="stroke: #A80036; stroke-width: 1.0;"/><path d="M327.9688,95.6406 Q327.3906,95.9375 326.75,96.0781 Q326.1094,96.2344 325.4063,96.2344 Q322.9063,96.2344 321.5781,94.5938 Q320.2656,92.9375 320.2656,89.8125 Q320.2656,86.6875 321.5781,85.0313 Q322.9063,83.375 325.4063,83.375 Q326.1094,83.375 326.75,83.5313 Q327.4063,83.6875 327.9688,83.9844 L327.9688,86.7031 Q327.3438,86.125 326.75,85.8594 Q326.1563,85.5781 325.5313,85.5781 Q324.1875,85.5781 323.5,86.6563 Q322.8125,87.7188 322.8125,89.8125 Q322.8125,91.9063 323.5,92.9844 Q324.1875,94.0469 325.5313,94.0469 Q326.1563,94.0469 326.75,93.7813 Q327.3438,93.5 327.9688,92.9219 L327.9688,95.6406 Z "/><text fill="#000000" font-family="sans-serif" font-size="12" lengthAdjust="spacingAndGlyphs" textLength="140" x="339" y="94.1543">TrackDataPlotterTests</text><line style="stroke: #A80036; stroke-width: 1.5;" x1="311" x2="481" y1="106" y2="106"/><line style="stroke: #A80036; stroke-width: 1.5;" x1="311" x2="481" y1="114" y2="114"/><!--MD5=[c986427b061286eff33e87a088ad4bf9]
class TrackDataPlotter--><rect fill="#FEFECE" filter="url(#fn5bhbgd88gxt)" height="48" id="TrackDataPlotter" style="stroke: #A80036; stroke-width: 1.5;" width="138" x="116" y="244"/><ellipse cx="131" cy="260" fill="#ADD1B2" rx="11" ry="11" style="stroke: #A80036; stroke-width: 1.0;"/><path d="M133.9688,265.6406 Q133.3906,265.9375 132.75,266.0781 Q132.1094,266.2344 131.4063,266.2344 Q128.9063,266.2344 127.5781,264.5938 Q126.2656,262.9375 126.2656,259.8125 Q126.2656,256.6875 127.5781,255.0313 Q128.9063,253.375 131.4063,253.375 Q132.1094,253.375 132.75,253.5313 Q133.4063,253.6875 133.9688,253.9844 L133.9688,256.7031 Q133.3438,256.125 132.75,255.8594 Q132.1563,255.5781 131.5313,255.5781 Q130.1875,255.5781 129.5,256.6563 Q128.8125,257.7188 128.8125,259.8125 Q128.8125,261.9063 129.5,262.9844 Q130.1875,264.0469 131.5313,264.0469 Q132.1563,264.0469 132.75,263.7813 Q133.3438,263.5 133.9688,262.9219 L133.9688,265.6406 Z "/><text fill="#000000" font-family="sans-serif" font-size="12" lengthAdjust="spacingAndGlyphs" textLength="106" x="145" y="264.1543">TrackDataPlotter</text><line style="stroke: #A80036; stroke-width: 1.5;" x1="117" x2="253" y1="276" y2="276"/><line style="stroke: #A80036; stroke-width: 1.5;" x1="117" x2="253" y1="284" y2="284"/><!--MD5=[77bc37423dd8876786830fad4054e33b]
reverse link DisplayCommInterface to DisplayCommInterfaceImplementation--><path d="M2770,157.16 C2770,172.06 2770,188.16 2770,203.33 " fill="none" id="DisplayCommInterface&lt;-DisplayCommInterfaceImplementation" style="stroke: #A80036; stroke-width: 1.0; stroke-dasharray: 7.0,7.0;"/><polygon fill="none" points="2763,157.12,2770,137.12,2777,157.12,2763,157.12" style="stroke: #A80036; stroke-width: 1.0;"/><!--MD5=[4e991cf787e933c55089f97eae394828]
reverse link DisplayComm2WayInterface to DisplayComm2WayInterfaceImplementation--><path d="M2231.43,153.34 C2243.29,169.28 2256.37,186.86 2268.62,203.33 " fill="none" id="DisplayComm2WayInterface&lt;-DisplayComm2WayInterfaceImplementation" style="stroke: #A80036; stroke-width: 1.0; stroke-dasharray: 7.0,7.0;"/><polygon fill="none" points="2225.69,157.35,2219.36,137.12,2236.92,148.99,2225.69,157.35" style="stroke: #A80036; stroke-width: 1.0;"/><!--MD5=[5beed6c3c7e4a84a4bfaa95bdf8cce79]
reverse link DisplayCommManager to DisplayCommManagerImplementation--><path d="M1782.45,156.58 C1786.17,169.58 1790.15,183.53 1794,196.98 " fill="none" id="DisplayCommManager&lt;-DisplayCommManagerImplementation" style="stroke: #A80036; stroke-width: 1.0; stroke-dasharray: 7.0,7.0;"/><polygon fill="none" points="1775.66,158.28,1776.89,137.12,1789.12,154.43,1775.66,158.28" style="stroke: #A80036; stroke-width: 1.0;"/><!--MD5=[9a02b467888c5123255f55ebe5217d7a]
link DisplayCommInterfaceImplementationTests to DisplayComm2WayInterfaceStub--><path d="M1373.64,122.01 C1375.51,148.11 1378.59,191.26 1380.91,223.71 " fill="none" id="DisplayCommInterfaceImplementationTests-&gt;DisplayComm2WayInterfaceStub" style="stroke: #A80036; stroke-width: 1.0; stroke-dasharray: 7.0,7.0;"/><polygon fill="#A80036" points="1381.27,228.83,1384.6431,219.5768,1380.927,223.8418,1376.662,220.1256,1381.27,228.83" style="stroke: #A80036; stroke-width: 1.0;"/><!--MD5=[69695ace36e753468876c8d4fe5d2708]
link DisplayComm2WayInterfaceImplementationTests to DisplayCommManagerStub--><path d="M1023.52,122.01 C1028.65,148.11 1037.12,191.26 1043.5,223.71 " fill="none" id="DisplayComm2WayInterfaceImplementationTests-&gt;DisplayCommManagerStub" style="stroke: #A80036; stroke-width: 1.0; stroke-dasharray: 7.0,7.0;"/><polygon fill="#A80036" points="1044.5,228.83,1046.6788,219.2252,1043.5304,223.9249,1038.8306,220.7765,1044.5,228.83" style="stroke: #A80036; stroke-width: 1.0;"/><!--MD5=[a3caa78d97a9caf08bd2afaaae1510f4]
link DisplayCommManagerImplementationTests to MiddlewareCommInterfaceStub--><path d="M667,122.01 C667,148.11 667,191.26 667,223.71 " fill="none" id="DisplayCommManagerImplementationTests-&gt;MiddlewareCommInterfaceStub" style="stroke: #A80036; stroke-width: 1.0; stroke-dasharray: 7.0,7.0;"/><polygon fill="#A80036" points="667,228.83,671,219.83,667,223.83,663,219.83,667,228.83" style="stroke: #A80036; stroke-width: 1.0;"/><!--MD5=[0cd290e6298e838268680010d5032c0d]
link DisplayCommInterfaceImplementationTests to DisplayCommInterfaceImplementation--><path d="M1474.17,122 C1502.78,127.71 1533.99,133.26 1563,137 C2005.48,193.99 2127.27,110.8 2565,197 C2572.79,198.53 2580.69,200.29 2588.63,202.23 " fill="none" id="DisplayCommInterfaceImplementationTests-&gt;DisplayCommInterfaceImplementation" style="stroke: #A80036; stroke-width: 1.0; stroke-dasharray: 7.0,7.0;"/><polygon fill="#A80036" points="2593.58,203.45,2585.8021,197.4081,2588.7259,202.2508,2583.8833,205.1746,2593.58,203.45" style="stroke: #A80036; stroke-width: 1.0;"/><!--MD5=[ce67f838794c14794f693dd46a642b9a]
link DisplayComm2WayInterfaceImplementationTests to DisplayComm2WayInterfaceImplementation--><path d="M1118.92,122.06 C1146.37,127.7 1176.22,133.2 1204,137 C1584.49,189.08 1687.58,131.55 2066,197 C2075.36,198.62 2084.87,200.45 2094.45,202.44 " fill="none" id="DisplayComm2WayInterfaceImplementationTests-&gt;DisplayComm2WayInterfaceImplementation" style="stroke: #A80036; stroke-width: 1.0; stroke-dasharray: 7.0,7.0;"/><polygon fill="#A80036" points="2099.47,203.49,2091.4871,197.7217,2094.5773,202.4599,2089.839,205.5501,2099.47,203.49" style="stroke: #A80036; stroke-width: 1.0;"/><!--MD5=[6f3abcadcd809ea193290ea1cf8b820a]
link DisplayCommManagerImplementationTests to DisplayCommManagerImplementation--><path d="M757.56,122.01 C782.23,127.62 809.03,133.12 834,137 C1144.73,185.34 1228.91,144.7 1539,197 C1550.37,198.92 1561.96,201.07 1573.64,203.4 " fill="none" id="DisplayCommManagerImplementationTests-&gt;DisplayCommManagerImplementation" style="stroke: #A80036; stroke-width: 1.0; stroke-dasharray: 7.0,7.0;"/><polygon fill="#A80036" points="1578.64,204.41,1570.6056,198.7136,1573.7382,203.4239,1569.0279,206.5565,1578.64,204.41" style="stroke: #A80036; stroke-width: 1.0;"/><!--MD5=[f24e7409bf4fec90fef0ed7e05f90b9b]
link TrackDataPlotterTests to TrackDataPlotter--><path d="M367.1,122.01 C328.34,152.87 259.63,207.58 218.6,240.25 " fill="none" id="TrackDataPlotterTests-&gt;TrackDataPlotter" style="stroke: #A80036; stroke-width: 1.0; stroke-dasharray: 7.0,7.0;"/><polygon fill="#A80036" points="214.22,243.73,223.7533,241.2567,218.1327,240.617,218.7724,234.9964,214.22,243.73" style="stroke: #A80036; stroke-width: 1.0;"/><!--MD5=[6aaeadb42451b39b4e2cdcf83e2bb4cd]
reverse link DisplayComm2WayInterface to DisplayComm2WayInterfaceStub--><path d="M2045,120.07 C1874.13,145 1608.6,184.68 1563,197 C1532.07,205.35 1499.17,217.28 1470.12,228.94 " fill="none" id="DisplayComm2WayInterface&lt;-DisplayComm2WayInterfaceStub" style="stroke: #A80036; stroke-width: 1.0; stroke-dasharray: 7.0,7.0;"/><polygon fill="none" points="2044.03,113.14,2064.83,117.18,2046.05,126.99,2044.03,113.14" style="stroke: #A80036; stroke-width: 1.0;"/><!--MD5=[e6e0d8b3e0f7bf14f11c0899b3ad37ae]
reverse link DisplayCommManager to DisplayCommManagerStub--><path d="M1608.35,125.29 C1479.44,147.36 1307.78,178.22 1240,197 C1208.45,205.74 1174.72,217.5 1144.67,228.89 " fill="none" id="DisplayCommManager&lt;-DisplayCommManagerStub" style="stroke: #A80036; stroke-width: 1.0; stroke-dasharray: 7.0,7.0;"/><polygon fill="none" points="1607.36,118.36,1628.25,121.9,1609.71,132.16,1607.36,118.36" style="stroke: #A80036; stroke-width: 1.0;"/><!--MD5=[e64fbdf5bb528d8c773ddf08a076bcbf]
@startuml Display02Packages_InternalDependencies


package edu.oakland.production.display02 {
    
}


package edu.oakland.production.display02 {
    interface DisplayCommInterface {
        __
        .. Use Case 1 ..
        {abstract} + TrackData receiveRfidRequest(int rfidNum)
    }
}


package edu.oakland.production.display02 {
    interface DisplayComm2WayInterface {
        __
        .. Use Case 1 ..
        {abstract} + TrackData passRfidRequest(int rfidNum)
    }
}


package edu.oakland.production.display02 {
    interface DisplayCommManager {
        __
        .. Use Case 1 ..
        {abstract} + TrackData evaluateRfidRequest(int rfidNum)
    }
}


package edu.oakland.production.display02 {
    class DisplayCommInterfaceImplementation {
        DisplayComm2WayInterface receiver
        __
        {abstract} + DisplayCommInterface(DisplayComm2WayInterface receiver)
        .. Use Case 1 ..
        {abstract} + TrackData receiveRfidRequest(int rfidNum)
        {abstract} + TrackData passToComm2WayInterface(int rfidNum)

    }
}


DisplayCommInterfaceImplementation .up.|> DisplayCommInterface

package edu.oakland.production.display02 {
    class DisplayComm2WayInterfaceImplementation {
        DisplayCommManager manager
        __
        .. Use Case 1 ..
        {abstract} + DisplayComm2WayInterfaceImplementation(DisplayCommManager manager)
        {abstract} + TrackData passRfidRequest(int rfidNum)
        {abstract} + void determineUserRequestFormat(int rfidNum)
        {abstract} + void receiveRequestFromDisplayCommInterface(int rfidNum)
    }
}


DisplayComm2WayInterfaceImplementation .up.|> DisplayComm2WayInterface

package edu.oakland.production.display02 {
    class DisplayCommManagerImplementation {
        MiddlewareCommInterface middleware
        __
        {abstract} + DisplayCommManagerImplementation(MiddlewareCommInterface middleware)
        .. Use Case 1 ..
        {abstract} + TrackData evaluateRfidRequest(int rfidNum)
        {abstract} + TrackData passRequestToMiddlewareCommInterface(int rfidNum)
        {abstract} + void receiveRequestFromDisplay2WayInterface(int rfidNum)

    }
}


DisplayCommManagerImplementation .up.|> DisplayCommManager








package edu.oakland.test.display02 {
    
}


package edu.oakland.test.display02 {
    class DisplayCommInterfaceImplementationTests {

    }
}



package edu.oakland.test.display02 {
    class DisplayComm2WayInterfaceStub {
        __
        .. Use Case 1 ..
        {abstract} + TrackData passRfidRequest(int rfidNum)
    }
}

DisplayCommInterfaceImplementationTests ..> DisplayComm2WayInterfaceStub

package edu.oakland.test.display02 {
    class DisplayComm2WayInterfaceImplementationTests {

    }
}



package edu.oakland.test.display02 {
    class DisplayCommManagerStub {
        __
        .. Use Case 1 ..
        + TrackData evaluateRfidRequest(int rfidNum)
    }
}

DisplayComm2WayInterfaceImplementationTests ..> DisplayCommManagerStub

package edu.oakland.test.display02 {
    class DisplayCommManagerImplementationTests {

    }
}



package edu.oakland.test.display02 {
    class MiddlewareCommInterfaceStub {
        __
        .. Use Case 1 ..
        + TrackData requestRfid(int rfid)
    }
}

DisplayCommManagerImplementationTests ..> MiddlewareCommInterfaceStub

package edu.oakland.test.display02 {
    class TrackDataPlotterTests {

    }
}


DisplayCommInterfaceImplementationTests ..> DisplayCommInterfaceImplementation
DisplayComm2WayInterfaceImplementationTests ..> DisplayComm2WayInterfaceImplementation
DisplayCommManagerImplementationTests ..> DisplayCommManagerImplementation

package edu.oakland.helper.display02 {
    class TrackDataPlotter {
        
    }
}

TrackDataPlotterTests ..> TrackDataPlotter
DisplayComm2WayInterfaceStub .up.|> DisplayComm2WayInterface
DisplayCommManagerStub .up.|> DisplayCommManager


package edu.oakland.helper.display02 {
    
}




@enduml

PlantUML version 1.2020.02(Sun Mar 01 10:22:07 GMT 2020)
(GPL source distribution)
Java Runtime: OpenJDK Runtime Environment
JVM: OpenJDK 64-Bit Server VM
Java Version: 11.0.9+11-Ubuntu-0ubuntu1
Operating System: Linux
Default Encoding: ANSI_X3.4-1968
Language: en
Country: US
--></g></svg>