<?xml version="1.0" encoding="UTF-8" standalone="no"?><svg xmlns="http://www.w3.org/2000/svg" xmlns:xlink="http://www.w3.org/1999/xlink" contentScriptType="application/ecmascript" contentStyleType="text/css" height="396px" preserveAspectRatio="none" style="width:3067px;height:396px;" version="1.1" viewBox="0 0 3067 396" width="3067px" zoomAndPan="magnify"><defs><filter height="300%" id="f8aoke1hl0ymz" width="300%" x="-1" y="-1"><feGaussianBlur result="blurOut" stdDeviation="2.0"/><feColorMatrix in="blurOut" result="blurOut2" type="matrix" values="0 0 0 0 0 0 0 0 0 0 0 0 0 0 0 0 0 0 .4 0"/><feOffset dx="4.0" dy="4.0" in="blurOut2" result="blurOut3"/><feBlend in="SourceGraphic" in2="blurOut3" mode="normal"/></filter></defs><g><!--MD5=[fe59aae6f7bfe371a9c197ec1f7f843a]
cluster edu.oakland.production.display02--><polygon fill="#FFFFFF" filter="url(#f8aoke1hl0ymz)" points="22,38.5,295,38.5,302,60.7969,1432,60.7969,1432,384,22,384,22,38.5" style="stroke: #000000; stroke-width: 1.5;"/><line style="stroke: #000000; stroke-width: 1.5;" x1="22" x2="302" y1="60.7969" y2="60.7969"/><text fill="#000000" font-family="sans-serif" font-size="14" font-weight="bold" lengthAdjust="spacingAndGlyphs" textLength="267" x="26" y="53.4951">edu.oakland.production.display02</text><!--MD5=[9258003ec405d300d3379b4a3d8dd6ad]
cluster edu.oakland.test.display02--><polygon fill="#FFFFFF" filter="url(#f8aoke1hl0ymz)" points="1456,53.5,1674,53.5,1681,75.7969,2701,75.7969,2701,352,1456,352,1456,53.5" style="stroke: #000000; stroke-width: 1.5;"/><line style="stroke: #000000; stroke-width: 1.5;" x1="1456" x2="1681" y1="75.7969" y2="75.7969"/><text fill="#000000" font-family="sans-serif" font-size="14" font-weight="bold" lengthAdjust="spacingAndGlyphs" textLength="212" x="1460" y="68.4951">edu.oakland.test.display02</text><!--MD5=[a502031b5a5384de0a21e6ee820fd3b2]
cluster edu.oakland.helper.display02--><polygon fill="#FFFFFF" filter="url(#f8aoke1hl0ymz)" points="2725,238,2963,238,2970,260.2969,2973,260.2969,2973,337,2725,337,2725,238" style="stroke: #000000; stroke-width: 1.5;"/><line style="stroke: #000000; stroke-width: 1.5;" x1="2725" x2="2970" y1="260.2969" y2="260.2969"/><text fill="#000000" font-family="sans-serif" font-size="14" font-weight="bold" lengthAdjust="spacingAndGlyphs" textLength="232" x="2729" y="252.9951">edu.oakland.helper.display02</text><!--MD5=[33504725b8a69ba2207f0a836957a91c]
cluster edu.oakland.production.middleware02--><polygon fill="#FFFFFF" filter="url(#f8aoke1hl0ymz)" points="2725,24,3035,24,3042,46.2969,3045,46.2969,3045,182,2725,182,2725,24" style="stroke: #000000; stroke-width: 1.5;"/><line style="stroke: #000000; stroke-width: 1.5;" x1="2725" x2="3042" y1="46.2969" y2="46.2969"/><text fill="#000000" font-family="sans-serif" font-size="14" font-weight="bold" lengthAdjust="spacingAndGlyphs" textLength="304" x="2729" y="38.9951">edu.oakland.production.middleware02</text><!--MD5=[c8d1e3134fecb0c949fd2a76cc0bb992]
class DisplayCommInterface--><rect fill="#FEFECE" filter="url(#f8aoke1hl0ymz)" height="77.6094" id="DisplayCommInterface" style="stroke: #A80036; stroke-width: 1.5;" width="268" x="91" y="73.5"/><ellipse cx="151.25" cy="89.5" fill="#B4A7E5" rx="11" ry="11" style="stroke: #A80036; stroke-width: 1.0;"/><path d="M147.1719,85.2656 L147.1719,83.1094 L154.5625,83.1094 L154.5625,85.2656 L152.0938,85.2656 L152.0938,93.3438 L154.5625,93.3438 L154.5625,95.5 L147.1719,95.5 L147.1719,93.3438 L149.6406,93.3438 L149.6406,85.2656 L147.1719,85.2656 Z "/><text fill="#000000" font-family="sans-serif" font-size="12" font-style="italic" lengthAdjust="spacingAndGlyphs" textLength="139" x="171.75" y="93.6543">DisplayCommInterface</text><line style="stroke: #A80036; stroke-width: 1.5;" x1="92" x2="358" y1="105.5" y2="105.5"/><line style="stroke: #A80036; stroke-width: 1.5;" x1="92" x2="358" y1="113.5" y2="113.5"/><ellipse cx="102" cy="141.3047" fill="#84BE84" rx="3" ry="3" style="stroke: #038048; stroke-width: 1.0;"/><text fill="#000000" font-family="sans-serif" font-size="11" font-style="italic" lengthAdjust="spacingAndGlyphs" textLength="242" x="111" y="144.5151">TrackData receiveRfidRequest(int rfidNum)</text><line style="stroke: #A80036; stroke-width: 1.0; stroke-dasharray: 1.0,2.0;" x1="92" x2="192" y1="127.9023" y2="127.9023"/><text fill="#000000" font-family="sans-serif" font-size="11" lengthAdjust="spacingAndGlyphs" textLength="66" x="192" y="131.2104">Use Case 1</text><line style="stroke: #A80036; stroke-width: 1.0; stroke-dasharray: 1.0,2.0;" x1="258" x2="358" y1="127.9023" y2="127.9023"/><!--MD5=[f6b51b5f862da5ce226c62e411e84628]
class DisplayComm2WayInterface--><rect fill="#FEFECE" filter="url(#f8aoke1hl0ymz)" height="77.6094" id="DisplayComm2WayInterface" style="stroke: #A80036; stroke-width: 1.5;" width="252" x="678" y="73.5"/><ellipse cx="713.7" cy="89.5" fill="#B4A7E5" rx="11" ry="11" style="stroke: #A80036; stroke-width: 1.0;"/><path d="M709.6219,85.2656 L709.6219,83.1094 L717.0125,83.1094 L717.0125,85.2656 L714.5438,85.2656 L714.5438,93.3438 L717.0125,93.3438 L717.0125,95.5 L709.6219,95.5 L709.6219,93.3438 L712.0906,93.3438 L712.0906,85.2656 L709.6219,85.2656 Z "/><text fill="#000000" font-family="sans-serif" font-size="12" font-style="italic" lengthAdjust="spacingAndGlyphs" textLength="174" x="732.3" y="93.6543">DisplayComm2WayInterface</text><line style="stroke: #A80036; stroke-width: 1.5;" x1="679" x2="929" y1="105.5" y2="105.5"/><line style="stroke: #A80036; stroke-width: 1.5;" x1="679" x2="929" y1="113.5" y2="113.5"/><ellipse cx="689" cy="141.3047" fill="#84BE84" rx="3" ry="3" style="stroke: #038048; stroke-width: 1.0;"/><text fill="#000000" font-family="sans-serif" font-size="11" font-style="italic" lengthAdjust="spacingAndGlyphs" textLength="226" x="698" y="144.5151">TrackData passRfidRequest(int rfidNum)</text><line style="stroke: #A80036; stroke-width: 1.0; stroke-dasharray: 1.0,2.0;" x1="679" x2="771" y1="127.9023" y2="127.9023"/><text fill="#000000" font-family="sans-serif" font-size="11" lengthAdjust="spacingAndGlyphs" textLength="66" x="771" y="131.2104">Use Case 1</text><line style="stroke: #A80036; stroke-width: 1.0; stroke-dasharray: 1.0,2.0;" x1="837" x2="929" y1="127.9023" y2="127.9023"/><!--MD5=[6aeb72f2773d7cabb45309482beeff0a]
class DisplayCommManager--><rect fill="#FEFECE" filter="url(#f8aoke1hl0ymz)" height="77.6094" id="DisplayCommManager" style="stroke: #A80036; stroke-width: 1.5;" width="275" x="1091.5" y="73.5"/><ellipse cx="1156.25" cy="89.5" fill="#B4A7E5" rx="11" ry="11" style="stroke: #A80036; stroke-width: 1.0;"/><path d="M1152.1719,85.2656 L1152.1719,83.1094 L1159.5625,83.1094 L1159.5625,85.2656 L1157.0938,85.2656 L1157.0938,93.3438 L1159.5625,93.3438 L1159.5625,95.5 L1152.1719,95.5 L1152.1719,93.3438 L1154.6406,93.3438 L1154.6406,85.2656 L1152.1719,85.2656 Z "/><text fill="#000000" font-family="sans-serif" font-size="12" font-style="italic" lengthAdjust="spacingAndGlyphs" textLength="137" x="1176.75" y="93.6543">DisplayCommManager</text><line style="stroke: #A80036; stroke-width: 1.5;" x1="1092.5" x2="1365.5" y1="105.5" y2="105.5"/><line style="stroke: #A80036; stroke-width: 1.5;" x1="1092.5" x2="1365.5" y1="113.5" y2="113.5"/><ellipse cx="1102.5" cy="141.3047" fill="#84BE84" rx="3" ry="3" style="stroke: #038048; stroke-width: 1.0;"/><text fill="#000000" font-family="sans-serif" font-size="11" font-style="italic" lengthAdjust="spacingAndGlyphs" textLength="249" x="1111.5" y="144.5151">TrackData evaluateRfidRequest(int rfidNum)</text><line style="stroke: #A80036; stroke-width: 1.0; stroke-dasharray: 1.0,2.0;" x1="1092.5" x2="1196" y1="127.9023" y2="127.9023"/><text fill="#000000" font-family="sans-serif" font-size="11" lengthAdjust="spacingAndGlyphs" textLength="66" x="1196" y="131.2104">Use Case 1</text><line style="stroke: #A80036; stroke-width: 1.0; stroke-dasharray: 1.0,2.0;" x1="1262" x2="1365.5" y1="127.9023" y2="127.9023"/><!--MD5=[a35092e604da7274febf4e2cf9a25087]
class DisplayCommInterfaceImplementation--><rect fill="#FEFECE" filter="url(#f8aoke1hl0ymz)" height="128.8281" id="DisplayCommInterfaceImplementation" style="stroke: #A80036; stroke-width: 1.5;" width="373" x="38.5" y="232.5"/><ellipse cx="103.25" cy="248.5" fill="#ADD1B2" rx="11" ry="11" style="stroke: #A80036; stroke-width: 1.0;"/><path d="M106.2188,254.1406 Q105.6406,254.4375 105,254.5781 Q104.3594,254.7344 103.6563,254.7344 Q101.1563,254.7344 99.8281,253.0938 Q98.5156,251.4375 98.5156,248.3125 Q98.5156,245.1875 99.8281,243.5313 Q101.1563,241.875 103.6563,241.875 Q104.3594,241.875 105,242.0313 Q105.6563,242.1875 106.2188,242.4844 L106.2188,245.2031 Q105.5938,244.625 105,244.3594 Q104.4063,244.0781 103.7813,244.0781 Q102.4375,244.0781 101.75,245.1563 Q101.0625,246.2188 101.0625,248.3125 Q101.0625,250.4063 101.75,251.4844 Q102.4375,252.5469 103.7813,252.5469 Q104.4063,252.5469 105,252.2813 Q105.5938,252 106.2188,251.4219 L106.2188,254.1406 Z "/><text fill="#000000" font-family="sans-serif" font-size="12" lengthAdjust="spacingAndGlyphs" textLength="235" x="123.75" y="252.6543">DisplayCommInterfaceImplementation</text><line style="stroke: #A80036; stroke-width: 1.5;" x1="39.5" x2="410.5" y1="264.5" y2="264.5"/><text fill="#000000" font-family="sans-serif" font-size="11" lengthAdjust="spacingAndGlyphs" textLength="207" x="44.5" y="278.7104">DisplayComm2WayInterface receiver</text><line style="stroke: #A80036; stroke-width: 1.5;" x1="39.5" x2="410.5" y1="285.3047" y2="285.3047"/><ellipse cx="49.5" cy="296.3047" fill="#84BE84" rx="3" ry="3" style="stroke: #038048; stroke-width: 1.0;"/><text fill="#000000" font-family="sans-serif" font-size="11" font-style="italic" lengthAdjust="spacingAndGlyphs" textLength="347" x="58.5" y="299.5151">DisplayCommInterface(DisplayComm2WayInterface receiver)</text><ellipse cx="49.5" cy="325.9141" fill="#84BE84" rx="3" ry="3" style="stroke: #038048; stroke-width: 1.0;"/><text fill="#000000" font-family="sans-serif" font-size="11" font-style="italic" lengthAdjust="spacingAndGlyphs" textLength="242" x="58.5" y="329.1245">TrackData receiveRfidRequest(int rfidNum)</text><ellipse cx="49.5" cy="338.7188" fill="#84BE84" rx="3" ry="3" style="stroke: #038048; stroke-width: 1.0;"/><text fill="#000000" font-family="sans-serif" font-size="11" font-style="italic" lengthAdjust="spacingAndGlyphs" textLength="291" x="58.5" y="341.9292">TrackData passToComm2WayInterface(int rfidNum)</text><text fill="#000000" font-family="sans-serif" font-size="11" lengthAdjust="spacingAndGlyphs" textLength="0" x="62.5" y="354.7339"/><line style="stroke: #A80036; stroke-width: 1.0; stroke-dasharray: 1.0,2.0;" x1="39.5" x2="192" y1="312.5117" y2="312.5117"/><text fill="#000000" font-family="sans-serif" font-size="11" lengthAdjust="spacingAndGlyphs" textLength="66" x="192" y="315.8198">Use Case 1</text><line style="stroke: #A80036; stroke-width: 1.0; stroke-dasharray: 1.0,2.0;" x1="258" x2="410.5" y1="312.5117" y2="312.5117"/><!--MD5=[46657c2900260d4d40350fe3f8c544df]
class DisplayComm2WayInterfaceImplementation--><rect fill="#FEFECE" filter="url(#f8aoke1hl0ymz)" height="128.8281" id="DisplayComm2WayInterfaceImplementation" style="stroke: #A80036; stroke-width: 1.5;" width="464" x="447" y="232.5"/><ellipse cx="540.75" cy="248.5" fill="#ADD1B2" rx="11" ry="11" style="stroke: #A80036; stroke-width: 1.0;"/><path d="M543.7188,254.1406 Q543.1406,254.4375 542.5,254.5781 Q541.8594,254.7344 541.1563,254.7344 Q538.6563,254.7344 537.3281,253.0938 Q536.0156,251.4375 536.0156,248.3125 Q536.0156,245.1875 537.3281,243.5313 Q538.6563,241.875 541.1563,241.875 Q541.8594,241.875 542.5,242.0313 Q543.1563,242.1875 543.7188,242.4844 L543.7188,245.2031 Q543.0938,244.625 542.5,244.3594 Q541.9063,244.0781 541.2813,244.0781 Q539.9375,244.0781 539.25,245.1563 Q538.5625,246.2188 538.5625,248.3125 Q538.5625,250.4063 539.25,251.4844 Q539.9375,252.5469 541.2813,252.5469 Q541.9063,252.5469 542.5,252.2813 Q543.0938,252 543.7188,251.4219 L543.7188,254.1406 Z "/><text fill="#000000" font-family="sans-serif" font-size="12" lengthAdjust="spacingAndGlyphs" textLength="268" x="561.25" y="252.6543">DisplayComm2WayInterfaceImplementation</text><line style="stroke: #A80036; stroke-width: 1.5;" x1="448" x2="910" y1="264.5" y2="264.5"/><text fill="#000000" font-family="sans-serif" font-size="11" lengthAdjust="spacingAndGlyphs" textLength="182" x="453" y="278.7104">DisplayCommManager manager</text><line style="stroke: #A80036; stroke-width: 1.5;" x1="448" x2="910" y1="285.3047" y2="285.3047"/><ellipse cx="458" cy="313.1094" fill="#84BE84" rx="3" ry="3" style="stroke: #038048; stroke-width: 1.0;"/><text fill="#000000" font-family="sans-serif" font-size="11" font-style="italic" lengthAdjust="spacingAndGlyphs" textLength="438" x="467" y="316.3198">DisplayComm2WayInterfaceImplementation(DisplayCommManager manager)</text><ellipse cx="458" cy="325.9141" fill="#84BE84" rx="3" ry="3" style="stroke: #038048; stroke-width: 1.0;"/><text fill="#000000" font-family="sans-serif" font-size="11" font-style="italic" lengthAdjust="spacingAndGlyphs" textLength="226" x="467" y="329.1245">TrackData passRfidRequest(int rfidNum)</text><ellipse cx="458" cy="338.7188" fill="#84BE84" rx="3" ry="3" style="stroke: #038048; stroke-width: 1.0;"/><text fill="#000000" font-family="sans-serif" font-size="11" font-style="italic" lengthAdjust="spacingAndGlyphs" textLength="269" x="467" y="341.9292">void determineUserRequestFormat(int rfidNum)</text><ellipse cx="458" cy="351.5234" fill="#84BE84" rx="3" ry="3" style="stroke: #038048; stroke-width: 1.0;"/><text fill="#000000" font-family="sans-serif" font-size="11" font-style="italic" lengthAdjust="spacingAndGlyphs" textLength="344" x="467" y="354.7339">void receiveRequestFromDisplayCommInterface(int rfidNum)</text><line style="stroke: #A80036; stroke-width: 1.0; stroke-dasharray: 1.0,2.0;" x1="448" x2="646" y1="299.707" y2="299.707"/><text fill="#000000" font-family="sans-serif" font-size="11" lengthAdjust="spacingAndGlyphs" textLength="66" x="646" y="303.0151">Use Case 1</text><line style="stroke: #A80036; stroke-width: 1.0; stroke-dasharray: 1.0,2.0;" x1="712" x2="910" y1="299.707" y2="299.707"/><!--MD5=[3a27b63ddb357afc5dde5581215f51f9]
class DisplayCommManagerImplementation--><rect fill="#FEFECE" filter="url(#f8aoke1hl0ymz)" height="141.6328" id="DisplayCommManagerImplementation" style="stroke: #A80036; stroke-width: 1.5;" width="470" x="946" y="226"/><ellipse cx="1059.75" cy="242" fill="#ADD1B2" rx="11" ry="11" style="stroke: #A80036; stroke-width: 1.0;"/><path d="M1062.7188,247.6406 Q1062.1406,247.9375 1061.5,248.0781 Q1060.8594,248.2344 1060.1563,248.2344 Q1057.6563,248.2344 1056.3281,246.5938 Q1055.0156,244.9375 1055.0156,241.8125 Q1055.0156,238.6875 1056.3281,237.0313 Q1057.6563,235.375 1060.1563,235.375 Q1060.8594,235.375 1061.5,235.5313 Q1062.1563,235.6875 1062.7188,235.9844 L1062.7188,238.7031 Q1062.0938,238.125 1061.5,237.8594 Q1060.9063,237.5781 1060.2813,237.5781 Q1058.9375,237.5781 1058.25,238.6563 Q1057.5625,239.7188 1057.5625,241.8125 Q1057.5625,243.9063 1058.25,244.9844 Q1058.9375,246.0469 1060.2813,246.0469 Q1060.9063,246.0469 1061.5,245.7813 Q1062.0938,245.5 1062.7188,244.9219 L1062.7188,247.6406 Z "/><text fill="#000000" font-family="sans-serif" font-size="12" lengthAdjust="spacingAndGlyphs" textLength="234" x="1080.25" y="246.1543">DisplayCommManagerImplementation</text><line style="stroke: #A80036; stroke-width: 1.5;" x1="947" x2="1415" y1="258" y2="258"/><text fill="#000000" font-family="sans-serif" font-size="11" lengthAdjust="spacingAndGlyphs" textLength="221" x="952" y="272.2104">MiddlewareCommInterface middleware</text><line style="stroke: #A80036; stroke-width: 1.5;" x1="947" x2="1415" y1="278.8047" y2="278.8047"/><ellipse cx="957" cy="289.8047" fill="#84BE84" rx="3" ry="3" style="stroke: #038048; stroke-width: 1.0;"/><text fill="#000000" font-family="sans-serif" font-size="11" font-style="italic" lengthAdjust="spacingAndGlyphs" textLength="444" x="966" y="293.0151">DisplayCommManagerImplementation(MiddlewareCommInterface middleware)</text><ellipse cx="957" cy="319.4141" fill="#84BE84" rx="3" ry="3" style="stroke: #038048; stroke-width: 1.0;"/><text fill="#000000" font-family="sans-serif" font-size="11" font-style="italic" lengthAdjust="spacingAndGlyphs" textLength="249" x="966" y="322.6245">TrackData evaluateRfidRequest(int rfidNum)</text><ellipse cx="957" cy="332.2188" fill="#84BE84" rx="3" ry="3" style="stroke: #038048; stroke-width: 1.0;"/><text fill="#000000" font-family="sans-serif" font-size="11" font-style="italic" lengthAdjust="spacingAndGlyphs" textLength="369" x="966" y="335.4292">TrackData passRequestToMiddlewareCommInterface(int rfidNum)</text><ellipse cx="957" cy="345.0234" fill="#84BE84" rx="3" ry="3" style="stroke: #038048; stroke-width: 1.0;"/><text fill="#000000" font-family="sans-serif" font-size="11" font-style="italic" lengthAdjust="spacingAndGlyphs" textLength="339" x="966" y="348.2339">void receiveRequestFromDisplay2WayInterface(int rfidNum)</text><text fill="#000000" font-family="sans-serif" font-size="11" lengthAdjust="spacingAndGlyphs" textLength="0" x="970" y="361.0386"/><line style="stroke: #A80036; stroke-width: 1.0; stroke-dasharray: 1.0,2.0;" x1="947" x2="1148" y1="306.0117" y2="306.0117"/><text fill="#000000" font-family="sans-serif" font-size="11" lengthAdjust="spacingAndGlyphs" textLength="66" x="1148" y="309.3198">Use Case 1</text><line style="stroke: #A80036; stroke-width: 1.0; stroke-dasharray: 1.0,2.0;" x1="1214" x2="1415" y1="306.0117" y2="306.0117"/><!--MD5=[d454b7777f115113290d89683d7a426c]
class DisplayCommInterfaceImplementationTests--><rect fill="#FEFECE" filter="url(#f8aoke1hl0ymz)" height="48" id="DisplayCommInterfaceImplementationTests" style="stroke: #A80036; stroke-width: 1.5;" width="301" x="1472.5" y="88.5"/><ellipse cx="1487.5" cy="104.5" fill="#ADD1B2" rx="11" ry="11" style="stroke: #A80036; stroke-width: 1.0;"/><path d="M1490.4688,110.1406 Q1489.8906,110.4375 1489.25,110.5781 Q1488.6094,110.7344 1487.9063,110.7344 Q1485.4063,110.7344 1484.0781,109.0938 Q1482.7656,107.4375 1482.7656,104.3125 Q1482.7656,101.1875 1484.0781,99.5313 Q1485.4063,97.875 1487.9063,97.875 Q1488.6094,97.875 1489.25,98.0313 Q1489.9063,98.1875 1490.4688,98.4844 L1490.4688,101.2031 Q1489.8438,100.625 1489.25,100.3594 Q1488.6563,100.0781 1488.0313,100.0781 Q1486.6875,100.0781 1486,101.1563 Q1485.3125,102.2188 1485.3125,104.3125 Q1485.3125,106.4063 1486,107.4844 Q1486.6875,108.5469 1488.0313,108.5469 Q1488.6563,108.5469 1489.25,108.2813 Q1489.8438,108 1490.4688,107.4219 L1490.4688,110.1406 Z "/><text fill="#000000" font-family="sans-serif" font-size="12" lengthAdjust="spacingAndGlyphs" textLength="269" x="1501.5" y="108.6543">DisplayCommInterfaceImplementationTests</text><line style="stroke: #A80036; stroke-width: 1.5;" x1="1473.5" x2="1772.5" y1="120.5" y2="120.5"/><line style="stroke: #A80036; stroke-width: 1.5;" x1="1473.5" x2="1772.5" y1="128.5" y2="128.5"/><!--MD5=[a333ac13e0fdf2a5898aafabd38d3c1b]
class DisplayComm2WayInterfaceStub--><rect fill="#FEFECE" filter="url(#f8aoke1hl0ymz)" height="77.6094" id="DisplayComm2WayInterfaceStub" style="stroke: #A80036; stroke-width: 1.5;" width="252" x="1485" y="258"/><ellipse cx="1509" cy="274" fill="#ADD1B2" rx="11" ry="11" style="stroke: #A80036; stroke-width: 1.0;"/><path d="M1511.9688,279.6406 Q1511.3906,279.9375 1510.75,280.0781 Q1510.1094,280.2344 1509.4063,280.2344 Q1506.9063,280.2344 1505.5781,278.5938 Q1504.2656,276.9375 1504.2656,273.8125 Q1504.2656,270.6875 1505.5781,269.0313 Q1506.9063,267.375 1509.4063,267.375 Q1510.1094,267.375 1510.75,267.5313 Q1511.4063,267.6875 1511.9688,267.9844 L1511.9688,270.7031 Q1511.3438,270.125 1510.75,269.8594 Q1510.1563,269.5781 1509.5313,269.5781 Q1508.1875,269.5781 1507.5,270.6563 Q1506.8125,271.7188 1506.8125,273.8125 Q1506.8125,275.9063 1507.5,276.9844 Q1508.1875,278.0469 1509.5313,278.0469 Q1510.1563,278.0469 1510.75,277.7813 Q1511.3438,277.5 1511.9688,276.9219 L1511.9688,279.6406 Z "/><text fill="#000000" font-family="sans-serif" font-size="12" lengthAdjust="spacingAndGlyphs" textLength="200" x="1525" y="278.1543">DisplayComm2WayInterfaceStub</text><line style="stroke: #A80036; stroke-width: 1.5;" x1="1486" x2="1736" y1="290" y2="290"/><line style="stroke: #A80036; stroke-width: 1.5;" x1="1486" x2="1736" y1="298" y2="298"/><ellipse cx="1496" cy="325.8047" fill="#84BE84" rx="3" ry="3" style="stroke: #038048; stroke-width: 1.0;"/><text fill="#000000" font-family="sans-serif" font-size="11" font-style="italic" lengthAdjust="spacingAndGlyphs" textLength="226" x="1505" y="329.0151">TrackData passRfidRequest(int rfidNum)</text><line style="stroke: #A80036; stroke-width: 1.0; stroke-dasharray: 1.0,2.0;" x1="1486" x2="1578" y1="312.4023" y2="312.4023"/><text fill="#000000" font-family="sans-serif" font-size="11" lengthAdjust="spacingAndGlyphs" textLength="66" x="1578" y="315.7104">Use Case 1</text><line style="stroke: #A80036; stroke-width: 1.0; stroke-dasharray: 1.0,2.0;" x1="1644" x2="1736" y1="312.4023" y2="312.4023"/><!--MD5=[178181f4c7684560c711246055fc01d3]
class DisplayComm2WayInterfaceImplementationTests--><rect fill="#FEFECE" filter="url(#f8aoke1hl0ymz)" height="48" id="DisplayComm2WayInterfaceImplementationTests" style="stroke: #A80036; stroke-width: 1.5;" width="334" x="1809" y="88.5"/><ellipse cx="1824" cy="104.5" fill="#ADD1B2" rx="11" ry="11" style="stroke: #A80036; stroke-width: 1.0;"/><path d="M1826.9688,110.1406 Q1826.3906,110.4375 1825.75,110.5781 Q1825.1094,110.7344 1824.4063,110.7344 Q1821.9063,110.7344 1820.5781,109.0938 Q1819.2656,107.4375 1819.2656,104.3125 Q1819.2656,101.1875 1820.5781,99.5313 Q1821.9063,97.875 1824.4063,97.875 Q1825.1094,97.875 1825.75,98.0313 Q1826.4063,98.1875 1826.9688,98.4844 L1826.9688,101.2031 Q1826.3438,100.625 1825.75,100.3594 Q1825.1563,100.0781 1824.5313,100.0781 Q1823.1875,100.0781 1822.5,101.1563 Q1821.8125,102.2188 1821.8125,104.3125 Q1821.8125,106.4063 1822.5,107.4844 Q1823.1875,108.5469 1824.5313,108.5469 Q1825.1563,108.5469 1825.75,108.2813 Q1826.3438,108 1826.9688,107.4219 L1826.9688,110.1406 Z "/><text fill="#000000" font-family="sans-serif" font-size="12" lengthAdjust="spacingAndGlyphs" textLength="302" x="1838" y="108.6543">DisplayComm2WayInterfaceImplementationTests</text><line style="stroke: #A80036; stroke-width: 1.5;" x1="1810" x2="2142" y1="120.5" y2="120.5"/><line style="stroke: #A80036; stroke-width: 1.5;" x1="1810" x2="2142" y1="128.5" y2="128.5"/><!--MD5=[2970358178d6cf57fc5a801b39eb8d0b]
class DisplayCommManagerStub--><rect fill="#FEFECE" filter="url(#f8aoke1hl0ymz)" height="77.6094" id="DisplayCommManagerStub" style="stroke: #A80036; stroke-width: 1.5;" width="273" x="1806.5" y="258"/><ellipse cx="1855.75" cy="274" fill="#ADD1B2" rx="11" ry="11" style="stroke: #A80036; stroke-width: 1.0;"/><path d="M1858.7188,279.6406 Q1858.1406,279.9375 1857.5,280.0781 Q1856.8594,280.2344 1856.1563,280.2344 Q1853.6563,280.2344 1852.3281,278.5938 Q1851.0156,276.9375 1851.0156,273.8125 Q1851.0156,270.6875 1852.3281,269.0313 Q1853.6563,267.375 1856.1563,267.375 Q1856.8594,267.375 1857.5,267.5313 Q1858.1563,267.6875 1858.7188,267.9844 L1858.7188,270.7031 Q1858.0938,270.125 1857.5,269.8594 Q1856.9063,269.5781 1856.2813,269.5781 Q1854.9375,269.5781 1854.25,270.6563 Q1853.5625,271.7188 1853.5625,273.8125 Q1853.5625,275.9063 1854.25,276.9844 Q1854.9375,278.0469 1856.2813,278.0469 Q1856.9063,278.0469 1857.5,277.7813 Q1858.0938,277.5 1858.7188,276.9219 L1858.7188,279.6406 Z "/><text fill="#000000" font-family="sans-serif" font-size="12" lengthAdjust="spacingAndGlyphs" textLength="166" x="1876.25" y="278.1543">DisplayCommManagerStub</text><line style="stroke: #A80036; stroke-width: 1.5;" x1="1807.5" x2="2078.5" y1="290" y2="290"/><line style="stroke: #A80036; stroke-width: 1.5;" x1="1807.5" x2="2078.5" y1="298" y2="298"/><ellipse cx="1817.5" cy="325.8047" fill="#84BE84" rx="3" ry="3" style="stroke: #038048; stroke-width: 1.0;"/><text fill="#000000" font-family="sans-serif" font-size="11" lengthAdjust="spacingAndGlyphs" textLength="247" x="1826.5" y="329.0151">TrackData evaluateRfidRequest(int rfidNum)</text><line style="stroke: #A80036; stroke-width: 1.0; stroke-dasharray: 1.0,2.0;" x1="1807.5" x2="1910" y1="312.4023" y2="312.4023"/><text fill="#000000" font-family="sans-serif" font-size="11" lengthAdjust="spacingAndGlyphs" textLength="66" x="1910" y="315.7104">Use Case 1</text><line style="stroke: #A80036; stroke-width: 1.0; stroke-dasharray: 1.0,2.0;" x1="1976" x2="2078.5" y1="312.4023" y2="312.4023"/><!--MD5=[937d6d8ff87a99d0d5dcd66ee05a1fa4]
class DisplayCommManagerImplementationTests--><rect fill="#FEFECE" filter="url(#f8aoke1hl0ymz)" height="48" id="DisplayCommManagerImplementationTests" style="stroke: #A80036; stroke-width: 1.5;" width="300" x="2178" y="88.5"/><ellipse cx="2193" cy="104.5" fill="#ADD1B2" rx="11" ry="11" style="stroke: #A80036; stroke-width: 1.0;"/><path d="M2195.9688,110.1406 Q2195.3906,110.4375 2194.75,110.5781 Q2194.1094,110.7344 2193.4063,110.7344 Q2190.9063,110.7344 2189.5781,109.0938 Q2188.2656,107.4375 2188.2656,104.3125 Q2188.2656,101.1875 2189.5781,99.5313 Q2190.9063,97.875 2193.4063,97.875 Q2194.1094,97.875 2194.75,98.0313 Q2195.4063,98.1875 2195.9688,98.4844 L2195.9688,101.2031 Q2195.3438,100.625 2194.75,100.3594 Q2194.1563,100.0781 2193.5313,100.0781 Q2192.1875,100.0781 2191.5,101.1563 Q2190.8125,102.2188 2190.8125,104.3125 Q2190.8125,106.4063 2191.5,107.4844 Q2192.1875,108.5469 2193.5313,108.5469 Q2194.1563,108.5469 2194.75,108.2813 Q2195.3438,108 2195.9688,107.4219 L2195.9688,110.1406 Z "/><text fill="#000000" font-family="sans-serif" font-size="12" lengthAdjust="spacingAndGlyphs" textLength="268" x="2207" y="108.6543">DisplayCommManagerImplementationTests</text><line style="stroke: #A80036; stroke-width: 1.5;" x1="2179" x2="2477" y1="120.5" y2="120.5"/><line style="stroke: #A80036; stroke-width: 1.5;" x1="2179" x2="2477" y1="128.5" y2="128.5"/><!--MD5=[cf56a65163663c6c6c7b84cd7c204b97]
class MiddlewareCommInterfaceStub--><rect fill="#FEFECE" filter="url(#f8aoke1hl0ymz)" height="77.6094" id="MiddlewareCommInterfaceStub" style="stroke: #A80036; stroke-width: 1.5;" width="225" x="2337.5" y="258"/><ellipse cx="2352.5" cy="274" fill="#ADD1B2" rx="11" ry="11" style="stroke: #A80036; stroke-width: 1.0;"/><path d="M2355.4688,279.6406 Q2354.8906,279.9375 2354.25,280.0781 Q2353.6094,280.2344 2352.9063,280.2344 Q2350.4063,280.2344 2349.0781,278.5938 Q2347.7656,276.9375 2347.7656,273.8125 Q2347.7656,270.6875 2349.0781,269.0313 Q2350.4063,267.375 2352.9063,267.375 Q2353.6094,267.375 2354.25,267.5313 Q2354.9063,267.6875 2355.4688,267.9844 L2355.4688,270.7031 Q2354.8438,270.125 2354.25,269.8594 Q2353.6563,269.5781 2353.0313,269.5781 Q2351.6875,269.5781 2351,270.6563 Q2350.3125,271.7188 2350.3125,273.8125 Q2350.3125,275.9063 2351,276.9844 Q2351.6875,278.0469 2353.0313,278.0469 Q2353.6563,278.0469 2354.25,277.7813 Q2354.8438,277.5 2355.4688,276.9219 L2355.4688,279.6406 Z "/><text fill="#000000" font-family="sans-serif" font-size="12" lengthAdjust="spacingAndGlyphs" textLength="193" x="2366.5" y="278.1543">MiddlewareCommInterfaceStub</text><line style="stroke: #A80036; stroke-width: 1.5;" x1="2338.5" x2="2561.5" y1="290" y2="290"/><line style="stroke: #A80036; stroke-width: 1.5;" x1="2338.5" x2="2561.5" y1="298" y2="298"/><ellipse cx="2348.5" cy="325.8047" fill="#84BE84" rx="3" ry="3" style="stroke: #038048; stroke-width: 1.0;"/><text fill="#000000" font-family="sans-serif" font-size="11" lengthAdjust="spacingAndGlyphs" textLength="171" x="2357.5" y="329.0151">TrackData requestRfid(int rfid)</text><line style="stroke: #A80036; stroke-width: 1.0; stroke-dasharray: 1.0,2.0;" x1="2338.5" x2="2417" y1="312.4023" y2="312.4023"/><text fill="#000000" font-family="sans-serif" font-size="11" lengthAdjust="spacingAndGlyphs" textLength="66" x="2417" y="315.7104">Use Case 1</text><line style="stroke: #A80036; stroke-width: 1.0; stroke-dasharray: 1.0,2.0;" x1="2483" x2="2561.5" y1="312.4023" y2="312.4023"/><!--MD5=[930c8140e7c1cb8e71aa7cd49967748e]
class TrackDataPlotterTests--><rect fill="#FEFECE" filter="url(#f8aoke1hl0ymz)" height="48" id="TrackDataPlotterTests" style="stroke: #A80036; stroke-width: 1.5;" width="172" x="2513" y="88.5"/><ellipse cx="2528" cy="104.5" fill="#ADD1B2" rx="11" ry="11" style="stroke: #A80036; stroke-width: 1.0;"/><path d="M2530.9688,110.1406 Q2530.3906,110.4375 2529.75,110.5781 Q2529.1094,110.7344 2528.4063,110.7344 Q2525.9063,110.7344 2524.5781,109.0938 Q2523.2656,107.4375 2523.2656,104.3125 Q2523.2656,101.1875 2524.5781,99.5313 Q2525.9063,97.875 2528.4063,97.875 Q2529.1094,97.875 2529.75,98.0313 Q2530.4063,98.1875 2530.9688,98.4844 L2530.9688,101.2031 Q2530.3438,100.625 2529.75,100.3594 Q2529.1563,100.0781 2528.5313,100.0781 Q2527.1875,100.0781 2526.5,101.1563 Q2525.8125,102.2188 2525.8125,104.3125 Q2525.8125,106.4063 2526.5,107.4844 Q2527.1875,108.5469 2528.5313,108.5469 Q2529.1563,108.5469 2529.75,108.2813 Q2530.3438,108 2530.9688,107.4219 L2530.9688,110.1406 Z "/><text fill="#000000" font-family="sans-serif" font-size="12" lengthAdjust="spacingAndGlyphs" textLength="140" x="2542" y="108.6543">TrackDataPlotterTests</text><line style="stroke: #A80036; stroke-width: 1.5;" x1="2514" x2="2684" y1="120.5" y2="120.5"/><line style="stroke: #A80036; stroke-width: 1.5;" x1="2514" x2="2684" y1="128.5" y2="128.5"/><!--MD5=[c986427b061286eff33e87a088ad4bf9]
class TrackDataPlotter--><rect fill="#FEFECE" filter="url(#f8aoke1hl0ymz)" height="48" id="TrackDataPlotter" style="stroke: #A80036; stroke-width: 1.5;" width="138" x="2741" y="273"/><ellipse cx="2756" cy="289" fill="#ADD1B2" rx="11" ry="11" style="stroke: #A80036; stroke-width: 1.0;"/><path d="M2758.9688,294.6406 Q2758.3906,294.9375 2757.75,295.0781 Q2757.1094,295.2344 2756.4063,295.2344 Q2753.9063,295.2344 2752.5781,293.5938 Q2751.2656,291.9375 2751.2656,288.8125 Q2751.2656,285.6875 2752.5781,284.0313 Q2753.9063,282.375 2756.4063,282.375 Q2757.1094,282.375 2757.75,282.5313 Q2758.4063,282.6875 2758.9688,282.9844 L2758.9688,285.7031 Q2758.3438,285.125 2757.75,284.8594 Q2757.1563,284.5781 2756.5313,284.5781 Q2755.1875,284.5781 2754.5,285.6563 Q2753.8125,286.7188 2753.8125,288.8125 Q2753.8125,290.9063 2754.5,291.9844 Q2755.1875,293.0469 2756.5313,293.0469 Q2757.1563,293.0469 2757.75,292.7813 Q2758.3438,292.5 2758.9688,291.9219 L2758.9688,294.6406 Z "/><text fill="#000000" font-family="sans-serif" font-size="12" lengthAdjust="spacingAndGlyphs" textLength="106" x="2770" y="293.1543">TrackDataPlotter</text><line style="stroke: #A80036; stroke-width: 1.5;" x1="2742" x2="2878" y1="305" y2="305"/><line style="stroke: #A80036; stroke-width: 1.5;" x1="2742" x2="2878" y1="313" y2="313"/><!--MD5=[d3cb230b9040bd9072bb1f490e167601]
class MiddlewareCommInterface--><rect fill="#FEFECE" filter="url(#f8aoke1hl0ymz)" height="107.2188" id="MiddlewareCommInterface" style="stroke: #A80036; stroke-width: 1.5;" width="198" x="2741" y="59"/><ellipse cx="2756" cy="75" fill="#B4A7E5" rx="11" ry="11" style="stroke: #A80036; stroke-width: 1.0;"/><path d="M2751.9219,70.7656 L2751.9219,68.6094 L2759.3125,68.6094 L2759.3125,70.7656 L2756.8438,70.7656 L2756.8438,78.8438 L2759.3125,78.8438 L2759.3125,81 L2751.9219,81 L2751.9219,78.8438 L2754.3906,78.8438 L2754.3906,70.7656 L2751.9219,70.7656 Z "/><text fill="#000000" font-family="sans-serif" font-size="12" font-style="italic" lengthAdjust="spacingAndGlyphs" textLength="166" x="2770" y="79.1543">MiddlewareCommInterface</text><line style="stroke: #A80036; stroke-width: 1.5;" x1="2742" x2="2938" y1="91" y2="91"/><line style="stroke: #A80036; stroke-width: 1.5;" x1="2742" x2="2938" y1="99" y2="99"/><ellipse cx="2752" cy="126.8047" fill="#84BE84" rx="3" ry="3" style="stroke: #038048; stroke-width: 1.0;"/><text fill="#000000" font-family="sans-serif" font-size="11" font-style="italic" lengthAdjust="spacingAndGlyphs" textLength="171" x="2761" y="130.0151">TrackData requestRfid(int rfid)</text><line style="stroke: #A80036; stroke-width: 1.0; stroke-dasharray: 1.0,2.0;" x1="2742" x2="2807" y1="113.4023" y2="113.4023"/><text fill="#000000" font-family="sans-serif" font-size="11" lengthAdjust="spacingAndGlyphs" textLength="66" x="2807" y="116.7104">Use Case 1</text><line style="stroke: #A80036; stroke-width: 1.0; stroke-dasharray: 1.0,2.0;" x1="2873" x2="2938" y1="113.4023" y2="113.4023"/><text fill="#000000" font-family="sans-serif" font-size="11" lengthAdjust="spacingAndGlyphs" textLength="0" x="2751" y="159.6245"/><line style="stroke: #A80036; stroke-width: 1.0; stroke-dasharray: 1.0,2.0;" x1="2742" x2="2807" y1="143.0117" y2="143.0117"/><text fill="#000000" font-family="sans-serif" font-size="11" lengthAdjust="spacingAndGlyphs" textLength="66" x="2807" y="146.3198">Use Case 2</text><line style="stroke: #A80036; stroke-width: 1.0; stroke-dasharray: 1.0,2.0;" x1="2873" x2="2938" y1="143.0117" y2="143.0117"/><!--MD5=[77bc37423dd8876786830fad4054e33b]
reverse link DisplayCommInterface to DisplayCommInterfaceImplementation--><path d="M225,171.94 C225,191.18 225,212.67 225,232.29 " fill="none" id="DisplayCommInterface&lt;-DisplayCommInterfaceImplementation" style="stroke: #A80036; stroke-width: 1.0; stroke-dasharray: 7.0,7.0;"/><polygon fill="none" points="218,171.76,225,151.76,232,171.76,218,171.76" style="stroke: #A80036; stroke-width: 1.0;"/><!--MD5=[4e991cf787e933c55089f97eae394828]
reverse link DisplayComm2WayInterface to DisplayComm2WayInterfaceImplementation--><path d="M766.49,168.26 C752.69,188.42 736.94,211.41 722.64,232.29 " fill="none" id="DisplayComm2WayInterface&lt;-DisplayComm2WayInterfaceImplementation" style="stroke: #A80036; stroke-width: 1.0; stroke-dasharray: 7.0,7.0;"/><polygon fill="none" points="760.72,164.3,777.8,151.76,772.27,172.21,760.72,164.3" style="stroke: #A80036; stroke-width: 1.0;"/><!--MD5=[5beed6c3c7e4a84a4bfaa95bdf8cce79]
reverse link DisplayCommManager to DisplayCommManagerImplementation--><path d="M1213.78,171.35 C1209.24,188.62 1204.21,207.75 1199.48,225.72 " fill="none" id="DisplayCommManager&lt;-DisplayCommManagerImplementation" style="stroke: #A80036; stroke-width: 1.0; stroke-dasharray: 7.0,7.0;"/><polygon fill="none" points="1207.08,169.32,1218.94,151.76,1220.62,172.88,1207.08,169.32" style="stroke: #A80036; stroke-width: 1.0;"/><!--MD5=[9a02b467888c5123255f55ebe5217d7a]
link DisplayCommInterfaceImplementationTests to DisplayComm2WayInterfaceStub--><path d="M1621.48,136.61 C1619.57,165.68 1616.25,216.19 1613.86,252.57 " fill="none" id="DisplayCommInterfaceImplementationTests-&gt;DisplayComm2WayInterfaceStub" style="stroke: #A80036; stroke-width: 1.0; stroke-dasharray: 7.0,7.0;"/><polygon fill="#A80036" points="1613.51,257.83,1618.0932,249.1125,1613.8388,252.8408,1610.1105,248.5864,1613.51,257.83" style="stroke: #A80036; stroke-width: 1.0;"/><!--MD5=[69695ace36e753468876c8d4fe5d2708]
link DisplayComm2WayInterfaceImplementationTests to DisplayCommManagerStub--><path d="M1971.82,136.61 C1966.56,165.68 1957.43,216.19 1950.85,252.57 " fill="none" id="DisplayComm2WayInterfaceImplementationTests-&gt;DisplayCommManagerStub" style="stroke: #A80036; stroke-width: 1.0; stroke-dasharray: 7.0,7.0;"/><polygon fill="#A80036" points="1949.9,257.83,1955.4329,249.6822,1950.7869,252.9093,1947.5598,248.2632,1949.9,257.83" style="stroke: #A80036; stroke-width: 1.0;"/><!--MD5=[a3caa78d97a9caf08bd2afaaae1510f4]
link DisplayCommManagerImplementationTests to MiddlewareCommInterfaceStub--><path d="M2343.45,136.61 C2363.04,165.92 2397.2,217.02 2421.56,253.46 " fill="none" id="DisplayCommManagerImplementationTests-&gt;MiddlewareCommInterfaceStub" style="stroke: #A80036; stroke-width: 1.0; stroke-dasharray: 7.0,7.0;"/><polygon fill="#A80036" points="2424.48,257.83,2422.8159,248.1227,2421.7065,253.6697,2416.1595,252.5603,2424.48,257.83" style="stroke: #A80036; stroke-width: 1.0;"/><!--MD5=[0cd290e6298e838268680010d5032c0d]
link DisplayCommInterfaceImplementationTests to DisplayCommInterfaceImplementation--><path d="M1578.08,136.65 C1540.23,154.88 1484.07,178.99 1432,190 C996.02,282.21 868.22,145.13 430,226 C421.88,227.5 413.65,229.25 405.39,231.21 " fill="none" id="DisplayCommInterfaceImplementationTests-&gt;DisplayCommInterfaceImplementation" style="stroke: #A80036; stroke-width: 1.0; stroke-dasharray: 7.0,7.0;"/><polygon fill="#A80036" points="400.23,232.46,409.9219,234.2115,405.0874,231.2742,408.0246,226.4397,400.23,232.46" style="stroke: #A80036; stroke-width: 1.0;"/><!--MD5=[ce67f838794c14794f693dd46a642b9a]
link DisplayComm2WayInterfaceImplementationTests to DisplayComm2WayInterfaceImplementation--><path d="M1932.56,136.58 C1895.95,154.77 1841.57,178.85 1791,190 C1416.54,272.53 1307.71,165.9 929,226 C919.05,227.58 908.94,229.41 898.76,231.45 " fill="none" id="DisplayComm2WayInterfaceImplementationTests-&gt;DisplayComm2WayInterfaceImplementation" style="stroke: #A80036; stroke-width: 1.0; stroke-dasharray: 7.0,7.0;"/><polygon fill="#A80036" points="893.76,232.47,903.3781,234.5896,898.659,231.4702,901.7784,226.7511,893.76,232.47" style="stroke: #A80036; stroke-width: 1.0;"/><!--MD5=[6f3abcadcd809ea193290ea1cf8b820a]
link DisplayCommManagerImplementationTests to DisplayCommManagerImplementation--><path d="M2288.72,136.68 C2255.82,154.79 2207,178.73 2161,190 C1856.27,264.66 1766.21,179.07 1456,226 C1444.6,227.72 1432.98,229.72 1421.29,231.92 " fill="none" id="DisplayCommManagerImplementationTests-&gt;DisplayCommManagerImplementation" style="stroke: #A80036; stroke-width: 1.0; stroke-dasharray: 7.0,7.0;"/><polygon fill="#A80036" points="1416.27,232.88,1425.8562,235.1394,1421.1831,231.9517,1424.3708,227.2785,1416.27,232.88" style="stroke: #A80036; stroke-width: 1.0;"/><!--MD5=[f24e7409bf4fec90fef0ed7e05f90b9b]
link TrackDataPlotterTests to TrackDataPlotter--><path d="M2625.72,136.61 C2664.93,170.53 2737.88,233.62 2779.26,269.41 " fill="none" id="TrackDataPlotterTests-&gt;TrackDataPlotter" style="stroke: #A80036; stroke-width: 1.0; stroke-dasharray: 7.0,7.0;"/><polygon fill="#A80036" points="2783.16,272.79,2778.9657,263.8789,2779.3768,269.5208,2773.735,269.9319,2783.16,272.79" style="stroke: #A80036; stroke-width: 1.0;"/><!--MD5=[6aaeadb42451b39b4e2cdcf83e2bb4cd]
reverse link DisplayComm2WayInterface to DisplayComm2WayInterfaceStub--><path d="M940.63,157.25 C983.01,169.45 1030.11,181.64 1074,190 C1231.09,219.91 1276.54,188.53 1432,226 C1463.95,233.7 1497.82,245.84 1527.39,257.86 " fill="none" id="DisplayComm2WayInterface&lt;-DisplayComm2WayInterfaceStub" style="stroke: #A80036; stroke-width: 1.0; stroke-dasharray: 7.0,7.0;"/><polygon fill="none" points="938.44,163.9,921.21,151.56,942.37,150.47,938.44,163.9" style="stroke: #A80036; stroke-width: 1.0;"/><!--MD5=[e6e0d8b3e0f7bf14f11c0899b3ad37ae]
reverse link DisplayCommManager to DisplayCommManagerStub--><path d="M1346.41,158.18 C1381.27,170.04 1419.81,181.81 1456,190 C1586.55,219.53 1624.93,194.43 1755,226 C1788,234.01 1823.13,246.07 1853.99,257.94 " fill="none" id="DisplayCommManager&lt;-DisplayCommManagerStub" style="stroke: #A80036; stroke-width: 1.0; stroke-dasharray: 7.0,7.0;"/><polygon fill="none" points="1344.07,164.77,1327.47,151.6,1348.66,151.54,1344.07,164.77" style="stroke: #A80036; stroke-width: 1.0;"/><!--MD5=[72cb9e2c0df516d67fcc7a3605b88acd]
reverse link MiddlewareCommInterface to MiddlewareCommInterfaceStub--><path d="M2729.74,175.53 C2720.08,180.55 2710.41,185.44 2701,190 C2650.88,214.3 2593.76,238.67 2546.69,257.9 " fill="none" id="MiddlewareCommInterface&lt;-MiddlewareCommInterfaceStub" style="stroke: #A80036; stroke-width: 1.0; stroke-dasharray: 7.0,7.0;"/><polygon fill="none" points="2726.66,169.24,2747.61,166.08,2733.2,181.62,2726.66,169.24" style="stroke: #A80036; stroke-width: 1.0;"/><!--MD5=[4e36e1362dd18b414e37f4d648b14090]
@startuml Display02Packages_DirectDependencies


package edu.oakland.production.display02 {
    
}


package edu.oakland.production.display02 {
    
}


package edu.oakland.production.display02 {
    interface DisplayCommInterface {
        __
        .. Use Case 1 ..
        {abstract} + TrackData receiveRfidRequest(int rfidNum)
    }
}


package edu.oakland.production.display02 {
    interface DisplayComm2WayInterface {
        __
        .. Use Case 1 ..
        {abstract} + TrackData passRfidRequest(int rfidNum)
    }
}


package edu.oakland.production.display02 {
    interface DisplayCommManager {
        __
        .. Use Case 1 ..
        {abstract} + TrackData evaluateRfidRequest(int rfidNum)
    }
}


package edu.oakland.production.display02 {
    class DisplayCommInterfaceImplementation {
        DisplayComm2WayInterface receiver
        __
        {abstract} + DisplayCommInterface(DisplayComm2WayInterface receiver)
        .. Use Case 1 ..
        {abstract} + TrackData receiveRfidRequest(int rfidNum)
        {abstract} + TrackData passToComm2WayInterface(int rfidNum)

    }
}


DisplayCommInterfaceImplementation .up.|> DisplayCommInterface

package edu.oakland.production.display02 {
    class DisplayComm2WayInterfaceImplementation {
        DisplayCommManager manager
        __
        .. Use Case 1 ..
        {abstract} + DisplayComm2WayInterfaceImplementation(DisplayCommManager manager)
        {abstract} + TrackData passRfidRequest(int rfidNum)
        {abstract} + void determineUserRequestFormat(int rfidNum)
        {abstract} + void receiveRequestFromDisplayCommInterface(int rfidNum)
    }
}


DisplayComm2WayInterfaceImplementation .up.|> DisplayComm2WayInterface

package edu.oakland.production.display02 {
    class DisplayCommManagerImplementation {
        MiddlewareCommInterface middleware
        __
        {abstract} + DisplayCommManagerImplementation(MiddlewareCommInterface middleware)
        .. Use Case 1 ..
        {abstract} + TrackData evaluateRfidRequest(int rfidNum)
        {abstract} + TrackData passRequestToMiddlewareCommInterface(int rfidNum)
        {abstract} + void receiveRequestFromDisplay2WayInterface(int rfidNum)

    }
}


DisplayCommManagerImplementation .up.|> DisplayCommManager
















package edu.oakland.test.display02 {
    
}


package edu.oakland.test.display02 {
    
}


package edu.oakland.test.display02 {
    class DisplayCommInterfaceImplementationTests {

    }
}



package edu.oakland.test.display02 {
    class DisplayComm2WayInterfaceStub {
        __
        .. Use Case 1 ..
        {abstract} + TrackData passRfidRequest(int rfidNum)
    }
}

DisplayCommInterfaceImplementationTests ..> DisplayComm2WayInterfaceStub

package edu.oakland.test.display02 {
    class DisplayComm2WayInterfaceImplementationTests {

    }
}



package edu.oakland.test.display02 {
    class DisplayCommManagerStub {
        __
        .. Use Case 1 ..
        + TrackData evaluateRfidRequest(int rfidNum)
    }
}

DisplayComm2WayInterfaceImplementationTests ..> DisplayCommManagerStub

package edu.oakland.test.display02 {
    class DisplayCommManagerImplementationTests {

    }
}



package edu.oakland.test.display02 {
    class MiddlewareCommInterfaceStub {
        __
        .. Use Case 1 ..
        + TrackData requestRfid(int rfid)
    }
}

DisplayCommManagerImplementationTests ..> MiddlewareCommInterfaceStub

package edu.oakland.test.display02 {
    class TrackDataPlotterTests {

    }
}


DisplayCommInterfaceImplementationTests ..> DisplayCommInterfaceImplementation
DisplayComm2WayInterfaceImplementationTests ..> DisplayComm2WayInterfaceImplementation
DisplayCommManagerImplementationTests ..> DisplayCommManagerImplementation

package edu.oakland.helper.display02 {
    class TrackDataPlotter {
        
    }
}

TrackDataPlotterTests ..> TrackDataPlotter
DisplayComm2WayInterfaceStub .up.|> DisplayComm2WayInterface
DisplayCommManagerStub .up.|> DisplayCommManager









package edu.oakland.production.middleware02 {
    interface MiddlewareCommInterface {
        __
        .. Use Case 1 ..
        {abstract} + TrackData requestRfid(int rfid)
        .. Use Case 2 ..

    }
}

MiddlewareCommInterfaceStub .up.|> MiddlewareCommInterface


package edu.oakland.helper.display02 {
    
}



@enduml

PlantUML version 1.2020.02(Sun Mar 01 10:22:07 GMT 2020)
(GPL source distribution)
Java Runtime: OpenJDK Runtime Environment
JVM: OpenJDK 64-Bit Server VM
Java Version: 11.0.9+11-Ubuntu-0ubuntu1
Operating System: Linux
Default Encoding: ANSI_X3.4-1968
Language: en
Country: US
--></g></svg>