<?xml version="1.0" encoding="UTF-8" standalone="no"?><svg xmlns="http://www.w3.org/2000/svg" xmlns:xlink="http://www.w3.org/1999/xlink" contentScriptType="application/ecmascript" contentStyleType="text/css" height="645px" preserveAspectRatio="none" style="width:3098px;height:645px;" version="1.1" viewBox="0 0 3098 645" width="3098px" zoomAndPan="magnify"><defs><filter height="300%" id="f1nnnsy8xdwr63" width="300%" x="-1" y="-1"><feGaussianBlur result="blurOut" stdDeviation="2.0"/><feColorMatrix in="blurOut" result="blurOut2" type="matrix" values="0 0 0 0 0 0 0 0 0 0 0 0 0 0 0 0 0 0 .4 0"/><feOffset dx="4.0" dy="4.0" in="blurOut2" result="blurOut3"/><feBlend in="SourceGraphic" in2="blurOut3" mode="normal"/></filter></defs><g><!--MD5=[fe59aae6f7bfe371a9c197ec1f7f843a]
cluster edu.oakland.production.display02--><polygon fill="#FFFFFF" filter="url(#f1nnnsy8xdwr63)" points="22,107,295,107,302,129.2969,1656,129.2969,1656,495,22,495,22,107" style="stroke: #000000; stroke-width: 1.5;"/><line style="stroke: #000000; stroke-width: 1.5;" x1="22" x2="302" y1="129.2969" y2="129.2969"/><text fill="#000000" font-family="sans-serif" font-size="14" font-weight="bold" lengthAdjust="spacingAndGlyphs" textLength="267" x="26" y="121.9951">edu.oakland.production.display02</text><!--MD5=[9258003ec405d300d3379b4a3d8dd6ad]
cluster edu.oakland.test.display02--><polygon fill="#FFFFFF" filter="url(#f1nnnsy8xdwr63)" points="1680,103,1898,103,1905,125.2969,2718,125.2969,2718,633,1680,633,1680,103" style="stroke: #000000; stroke-width: 1.5;"/><line style="stroke: #000000; stroke-width: 1.5;" x1="1680" x2="1905" y1="125.2969" y2="125.2969"/><text fill="#000000" font-family="sans-serif" font-size="14" font-weight="bold" lengthAdjust="spacingAndGlyphs" textLength="212" x="1684" y="117.9951">edu.oakland.test.display02</text><!--MD5=[a502031b5a5384de0a21e6ee820fd3b2]
cluster edu.oakland.helper.display02--><polygon fill="#FFFFFF" filter="url(#f1nnnsy8xdwr63)" points="2742,24,2980,24,2987,46.2969,3076,46.2969,3076,319,2742,319,2742,24" style="stroke: #000000; stroke-width: 1.5;"/><line style="stroke: #000000; stroke-width: 1.5;" x1="2742" x2="2987" y1="46.2969" y2="46.2969"/><text fill="#000000" font-family="sans-serif" font-size="14" font-weight="bold" lengthAdjust="spacingAndGlyphs" textLength="232" x="2746" y="38.9951">edu.oakland.helper.display02</text><!--MD5=[c8d1e3134fecb0c949fd2a76cc0bb992]
class DisplayCommInterface--><rect fill="#FEFECE" filter="url(#f1nnnsy8xdwr63)" height="77.6094" id="DisplayCommInterface" style="stroke: #A80036; stroke-width: 1.5;" width="268" x="144" y="142"/><ellipse cx="204.25" cy="158" fill="#B4A7E5" rx="11" ry="11" style="stroke: #A80036; stroke-width: 1.0;"/><path d="M200.1719,153.7656 L200.1719,151.6094 L207.5625,151.6094 L207.5625,153.7656 L205.0938,153.7656 L205.0938,161.8438 L207.5625,161.8438 L207.5625,164 L200.1719,164 L200.1719,161.8438 L202.6406,161.8438 L202.6406,153.7656 L200.1719,153.7656 Z "/><text fill="#000000" font-family="sans-serif" font-size="12" font-style="italic" lengthAdjust="spacingAndGlyphs" textLength="139" x="224.75" y="162.1543">DisplayCommInterface</text><line style="stroke: #A80036; stroke-width: 1.5;" x1="145" x2="411" y1="174" y2="174"/><line style="stroke: #A80036; stroke-width: 1.5;" x1="145" x2="411" y1="182" y2="182"/><ellipse cx="155" cy="209.8047" fill="#84BE84" rx="3" ry="3" style="stroke: #038048; stroke-width: 1.0;"/><text fill="#000000" font-family="sans-serif" font-size="11" font-style="italic" lengthAdjust="spacingAndGlyphs" textLength="242" x="164" y="213.0151">TrackData receiveRfidRequest(int rfidNum)</text><line style="stroke: #A80036; stroke-width: 1.0; stroke-dasharray: 1.0,2.0;" x1="145" x2="245" y1="196.4023" y2="196.4023"/><text fill="#000000" font-family="sans-serif" font-size="11" lengthAdjust="spacingAndGlyphs" textLength="66" x="245" y="199.7104">Use Case 1</text><line style="stroke: #A80036; stroke-width: 1.0; stroke-dasharray: 1.0,2.0;" x1="311" x2="411" y1="196.4023" y2="196.4023"/><!--MD5=[f6b51b5f862da5ce226c62e411e84628]
class DisplayComm2WayInterface--><rect fill="#FEFECE" filter="url(#f1nnnsy8xdwr63)" height="77.6094" id="DisplayComm2WayInterface" style="stroke: #A80036; stroke-width: 1.5;" width="252" x="447" y="142"/><ellipse cx="482.7" cy="158" fill="#B4A7E5" rx="11" ry="11" style="stroke: #A80036; stroke-width: 1.0;"/><path d="M478.6219,153.7656 L478.6219,151.6094 L486.0125,151.6094 L486.0125,153.7656 L483.5438,153.7656 L483.5438,161.8438 L486.0125,161.8438 L486.0125,164 L478.6219,164 L478.6219,161.8438 L481.0906,161.8438 L481.0906,153.7656 L478.6219,153.7656 Z "/><text fill="#000000" font-family="sans-serif" font-size="12" font-style="italic" lengthAdjust="spacingAndGlyphs" textLength="174" x="501.3" y="162.1543">DisplayComm2WayInterface</text><line style="stroke: #A80036; stroke-width: 1.5;" x1="448" x2="698" y1="174" y2="174"/><line style="stroke: #A80036; stroke-width: 1.5;" x1="448" x2="698" y1="182" y2="182"/><ellipse cx="458" cy="209.8047" fill="#84BE84" rx="3" ry="3" style="stroke: #038048; stroke-width: 1.0;"/><text fill="#000000" font-family="sans-serif" font-size="11" font-style="italic" lengthAdjust="spacingAndGlyphs" textLength="226" x="467" y="213.0151">TrackData passRfidRequest(int rfidNum)</text><line style="stroke: #A80036; stroke-width: 1.0; stroke-dasharray: 1.0,2.0;" x1="448" x2="540" y1="196.4023" y2="196.4023"/><text fill="#000000" font-family="sans-serif" font-size="11" lengthAdjust="spacingAndGlyphs" textLength="66" x="540" y="199.7104">Use Case 1</text><line style="stroke: #A80036; stroke-width: 1.0; stroke-dasharray: 1.0,2.0;" x1="606" x2="698" y1="196.4023" y2="196.4023"/><!--MD5=[6aeb72f2773d7cabb45309482beeff0a]
class DisplayCommManager--><rect fill="#FEFECE" filter="url(#f1nnnsy8xdwr63)" height="77.6094" id="DisplayCommManager" style="stroke: #A80036; stroke-width: 1.5;" width="249" x="734.5" y="142"/><ellipse cx="786.25" cy="158" fill="#B4A7E5" rx="11" ry="11" style="stroke: #A80036; stroke-width: 1.0;"/><path d="M782.1719,153.7656 L782.1719,151.6094 L789.5625,151.6094 L789.5625,153.7656 L787.0938,153.7656 L787.0938,161.8438 L789.5625,161.8438 L789.5625,164 L782.1719,164 L782.1719,161.8438 L784.6406,161.8438 L784.6406,153.7656 L782.1719,153.7656 Z "/><text fill="#000000" font-family="sans-serif" font-size="12" font-style="italic" lengthAdjust="spacingAndGlyphs" textLength="137" x="806.75" y="162.1543">DisplayCommManager</text><line style="stroke: #A80036; stroke-width: 1.5;" x1="735.5" x2="982.5" y1="174" y2="174"/><line style="stroke: #A80036; stroke-width: 1.5;" x1="735.5" x2="982.5" y1="182" y2="182"/><ellipse cx="745.5" cy="209.8047" fill="#84BE84" rx="3" ry="3" style="stroke: #038048; stroke-width: 1.0;"/><text fill="#000000" font-family="sans-serif" font-size="11" font-style="italic" lengthAdjust="spacingAndGlyphs" textLength="223" x="754.5" y="213.0151">TrackData evaluateRfidRequest(int rfid)</text><line style="stroke: #A80036; stroke-width: 1.0; stroke-dasharray: 1.0,2.0;" x1="735.5" x2="826" y1="196.4023" y2="196.4023"/><text fill="#000000" font-family="sans-serif" font-size="11" lengthAdjust="spacingAndGlyphs" textLength="66" x="826" y="199.7104">Use Case 1</text><line style="stroke: #A80036; stroke-width: 1.0; stroke-dasharray: 1.0,2.0;" x1="892" x2="982.5" y1="196.4023" y2="196.4023"/><!--MD5=[a35092e604da7274febf4e2cf9a25087]
class DisplayCommInterfaceImplementation--><rect fill="#FEFECE" filter="url(#f1nnnsy8xdwr63)" height="116.0234" id="DisplayCommInterfaceImplementation" style="stroke: #A80036; stroke-width: 1.5;" width="479" x="38.5" y="363"/><ellipse cx="156.25" cy="379" fill="#ADD1B2" rx="11" ry="11" style="stroke: #A80036; stroke-width: 1.0;"/><path d="M159.2188,384.6406 Q158.6406,384.9375 158,385.0781 Q157.3594,385.2344 156.6563,385.2344 Q154.1563,385.2344 152.8281,383.5938 Q151.5156,381.9375 151.5156,378.8125 Q151.5156,375.6875 152.8281,374.0313 Q154.1563,372.375 156.6563,372.375 Q157.3594,372.375 158,372.5313 Q158.6563,372.6875 159.2188,372.9844 L159.2188,375.7031 Q158.5938,375.125 158,374.8594 Q157.4063,374.5781 156.7813,374.5781 Q155.4375,374.5781 154.75,375.6563 Q154.0625,376.7188 154.0625,378.8125 Q154.0625,380.9063 154.75,381.9844 Q155.4375,383.0469 156.7813,383.0469 Q157.4063,383.0469 158,382.7813 Q158.5938,382.5 159.2188,381.9219 L159.2188,384.6406 Z "/><text fill="#000000" font-family="sans-serif" font-size="12" lengthAdjust="spacingAndGlyphs" textLength="235" x="176.75" y="383.1543">DisplayCommInterfaceImplementation</text><line style="stroke: #A80036; stroke-width: 1.5;" x1="39.5" x2="516.5" y1="395" y2="395"/><rect fill="none" height="6" style="stroke: #C82930; stroke-width: 1.0;" width="6" x="46.5" y="403"/><text fill="#000000" font-family="sans-serif" font-size="11" lengthAdjust="spacingAndGlyphs" textLength="225" x="58.5" y="409.2104">DisplayComm2WayInterface comm2Way</text><line style="stroke: #A80036; stroke-width: 1.5;" x1="39.5" x2="516.5" y1="415.8047" y2="415.8047"/><ellipse cx="49.5" cy="426.8047" fill="#84BE84" rx="3" ry="3" style="stroke: #038048; stroke-width: 1.0;"/><text fill="#000000" font-family="sans-serif" font-size="11" lengthAdjust="spacingAndGlyphs" textLength="453" x="58.5" y="430.0151">DisplayCommInterface(DisplayComm2WayInterface displayComm2WayInterface)</text><ellipse cx="49.5" cy="456.4141" fill="#84BE84" rx="3" ry="3" style="stroke: #038048; stroke-width: 1.0;"/><text fill="#000000" font-family="sans-serif" font-size="11" lengthAdjust="spacingAndGlyphs" textLength="240" x="58.5" y="459.6245">TrackData receiveRfidRequest(int rfidNum)</text><text fill="#000000" font-family="sans-serif" font-size="11" lengthAdjust="spacingAndGlyphs" textLength="0" x="62.5" y="472.4292"/><line style="stroke: #A80036; stroke-width: 1.0; stroke-dasharray: 1.0,2.0;" x1="39.5" x2="245" y1="443.0117" y2="443.0117"/><text fill="#000000" font-family="sans-serif" font-size="11" lengthAdjust="spacingAndGlyphs" textLength="66" x="245" y="446.3198">Use Case 1</text><line style="stroke: #A80036; stroke-width: 1.0; stroke-dasharray: 1.0,2.0;" x1="311" x2="516.5" y1="443.0117" y2="443.0117"/><!--MD5=[46657c2900260d4d40350fe3f8c544df]
class DisplayComm2WayInterfaceImplementation--><rect fill="#FEFECE" filter="url(#f1nnnsy8xdwr63)" height="103.2188" id="DisplayComm2WayInterfaceImplementation" style="stroke: #A80036; stroke-width: 1.5;" width="494" x="553" y="369.5"/><ellipse cx="661.75" cy="385.5" fill="#ADD1B2" rx="11" ry="11" style="stroke: #A80036; stroke-width: 1.0;"/><path d="M664.7188,391.1406 Q664.1406,391.4375 663.5,391.5781 Q662.8594,391.7344 662.1563,391.7344 Q659.6563,391.7344 658.3281,390.0938 Q657.0156,388.4375 657.0156,385.3125 Q657.0156,382.1875 658.3281,380.5313 Q659.6563,378.875 662.1563,378.875 Q662.8594,378.875 663.5,379.0313 Q664.1563,379.1875 664.7188,379.4844 L664.7188,382.2031 Q664.0938,381.625 663.5,381.3594 Q662.9063,381.0781 662.2813,381.0781 Q660.9375,381.0781 660.25,382.1563 Q659.5625,383.2188 659.5625,385.3125 Q659.5625,387.4063 660.25,388.4844 Q660.9375,389.5469 662.2813,389.5469 Q662.9063,389.5469 663.5,389.2813 Q664.0938,389 664.7188,388.4219 L664.7188,391.1406 Z "/><text fill="#000000" font-family="sans-serif" font-size="12" lengthAdjust="spacingAndGlyphs" textLength="268" x="682.25" y="389.6543">DisplayComm2WayInterfaceImplementation</text><line style="stroke: #A80036; stroke-width: 1.5;" x1="554" x2="1046" y1="401.5" y2="401.5"/><rect fill="none" height="6" style="stroke: #C82930; stroke-width: 1.0;" width="6" x="561" y="409.5"/><text fill="#000000" font-family="sans-serif" font-size="11" lengthAdjust="spacingAndGlyphs" textLength="215" x="573" y="415.7104">DisplayCommManager commManager</text><line style="stroke: #A80036; stroke-width: 1.5;" x1="554" x2="1046" y1="422.3047" y2="422.3047"/><ellipse cx="564" cy="433.3047" fill="#84BE84" rx="3" ry="3" style="stroke: #038048; stroke-width: 1.0;"/><text fill="#000000" font-family="sans-serif" font-size="11" lengthAdjust="spacingAndGlyphs" textLength="468" x="573" y="436.5151">DisplayComm2WayInterfaceImplementation(DisplayCommManager commManager)</text><ellipse cx="564" cy="462.9141" fill="#84BE84" rx="3" ry="3" style="stroke: #038048; stroke-width: 1.0;"/><text fill="#000000" font-family="sans-serif" font-size="11" lengthAdjust="spacingAndGlyphs" textLength="227" x="573" y="466.1245">TrackData passRfidRequest(int rfidNum)</text><line style="stroke: #A80036; stroke-width: 1.0; stroke-dasharray: 1.0,2.0;" x1="554" x2="767" y1="449.5117" y2="449.5117"/><text fill="#000000" font-family="sans-serif" font-size="11" lengthAdjust="spacingAndGlyphs" textLength="66" x="767" y="452.8198">Use Case 1</text><line style="stroke: #A80036; stroke-width: 1.0; stroke-dasharray: 1.0,2.0;" x1="833" x2="1046" y1="449.5117" y2="449.5117"/><!--MD5=[3a27b63ddb357afc5dde5581215f51f9]
class DisplayCommManagerImplementation--><rect fill="#FEFECE" filter="url(#f1nnnsy8xdwr63)" height="103.2188" id="DisplayCommManagerImplementation" style="stroke: #A80036; stroke-width: 1.5;" width="557" x="1082.5" y="369.5"/><ellipse cx="1239.75" cy="385.5" fill="#ADD1B2" rx="11" ry="11" style="stroke: #A80036; stroke-width: 1.0;"/><path d="M1242.7188,391.1406 Q1242.1406,391.4375 1241.5,391.5781 Q1240.8594,391.7344 1240.1563,391.7344 Q1237.6563,391.7344 1236.3281,390.0938 Q1235.0156,388.4375 1235.0156,385.3125 Q1235.0156,382.1875 1236.3281,380.5313 Q1237.6563,378.875 1240.1563,378.875 Q1240.8594,378.875 1241.5,379.0313 Q1242.1563,379.1875 1242.7188,379.4844 L1242.7188,382.2031 Q1242.0938,381.625 1241.5,381.3594 Q1240.9063,381.0781 1240.2813,381.0781 Q1238.9375,381.0781 1238.25,382.1563 Q1237.5625,383.2188 1237.5625,385.3125 Q1237.5625,387.4063 1238.25,388.4844 Q1238.9375,389.5469 1240.2813,389.5469 Q1240.9063,389.5469 1241.5,389.2813 Q1242.0938,389 1242.7188,388.4219 L1242.7188,391.1406 Z "/><text fill="#000000" font-family="sans-serif" font-size="12" lengthAdjust="spacingAndGlyphs" textLength="234" x="1260.25" y="389.6543">DisplayCommManagerImplementation</text><line style="stroke: #A80036; stroke-width: 1.5;" x1="1083.5" x2="1638.5" y1="401.5" y2="401.5"/><rect fill="none" height="6" style="stroke: #C82930; stroke-width: 1.0;" width="6" x="1090.5" y="409.5"/><text fill="#000000" font-family="sans-serif" font-size="11" lengthAdjust="spacingAndGlyphs" textLength="221" x="1102.5" y="415.7104">MiddlewareCommInterface middleware</text><line style="stroke: #A80036; stroke-width: 1.5;" x1="1083.5" x2="1638.5" y1="422.3047" y2="422.3047"/><ellipse cx="1093.5" cy="433.3047" fill="#84BE84" rx="3" ry="3" style="stroke: #038048; stroke-width: 1.0;"/><text fill="#000000" font-family="sans-serif" font-size="11" lengthAdjust="spacingAndGlyphs" textLength="531" x="1102.5" y="436.5151">DisplayCommManagerImplementation(MiddlewareCommInterface middlewareCommInterface)</text><ellipse cx="1093.5" cy="462.9141" fill="#84BE84" rx="3" ry="3" style="stroke: #038048; stroke-width: 1.0;"/><text fill="#000000" font-family="sans-serif" font-size="11" lengthAdjust="spacingAndGlyphs" textLength="221" x="1102.5" y="466.1245">TrackData evaluateRfidRequest(int rfid)</text><line style="stroke: #A80036; stroke-width: 1.0; stroke-dasharray: 1.0,2.0;" x1="1083.5" x2="1328" y1="449.5117" y2="449.5117"/><text fill="#000000" font-family="sans-serif" font-size="11" lengthAdjust="spacingAndGlyphs" textLength="66" x="1328" y="452.8198">Use Case 1</text><line style="stroke: #A80036; stroke-width: 1.0; stroke-dasharray: 1.0,2.0;" x1="1394" x2="1638.5" y1="449.5117" y2="449.5117"/><!--MD5=[d454b7777f115113290d89683d7a426c]
class DisplayCommInterfaceImplementationTests--><rect fill="#FEFECE" filter="url(#f1nnnsy8xdwr63)" height="86.4141" id="DisplayCommInterfaceImplementationTests" style="stroke: #A80036; stroke-width: 1.5;" width="301" x="1696.5" y="138"/><ellipse cx="1711.5" cy="154" fill="#ADD1B2" rx="11" ry="11" style="stroke: #A80036; stroke-width: 1.0;"/><path d="M1714.4688,159.6406 Q1713.8906,159.9375 1713.25,160.0781 Q1712.6094,160.2344 1711.9063,160.2344 Q1709.4063,160.2344 1708.0781,158.5938 Q1706.7656,156.9375 1706.7656,153.8125 Q1706.7656,150.6875 1708.0781,149.0313 Q1709.4063,147.375 1711.9063,147.375 Q1712.6094,147.375 1713.25,147.5313 Q1713.9063,147.6875 1714.4688,147.9844 L1714.4688,150.7031 Q1713.8438,150.125 1713.25,149.8594 Q1712.6563,149.5781 1712.0313,149.5781 Q1710.6875,149.5781 1710,150.6563 Q1709.3125,151.7188 1709.3125,153.8125 Q1709.3125,155.9063 1710,156.9844 Q1710.6875,158.0469 1712.0313,158.0469 Q1712.6563,158.0469 1713.25,157.7813 Q1713.8438,157.5 1714.4688,156.9219 L1714.4688,159.6406 Z "/><text fill="#000000" font-family="sans-serif" font-size="12" lengthAdjust="spacingAndGlyphs" textLength="269" x="1725.5" y="158.1543">DisplayCommInterfaceImplementationTests</text><line style="stroke: #A80036; stroke-width: 1.5;" x1="1697.5" x2="1996.5" y1="170" y2="170"/><line style="stroke: #A80036; stroke-width: 1.5;" x1="1697.5" x2="1996.5" y1="178" y2="178"/><ellipse cx="1707.5" cy="189" fill="#84BE84" rx="3" ry="3" style="stroke: #038048; stroke-width: 1.0;"/><text fill="#000000" font-family="sans-serif" font-size="11" lengthAdjust="spacingAndGlyphs" textLength="191" x="1716.5" y="192.2104">void displayComm2WayIsNotNull()</text><ellipse cx="1707.5" cy="201.8047" fill="#84BE84" rx="3" ry="3" style="stroke: #038048; stroke-width: 1.0;"/><text fill="#000000" font-family="sans-serif" font-size="11" lengthAdjust="spacingAndGlyphs" textLength="254" x="1716.5" y="205.0151">void zeroPointTrackDataDoesNotDisplayPlot()</text><ellipse cx="1707.5" cy="214.6094" fill="#84BE84" rx="3" ry="3" style="stroke: #038048; stroke-width: 1.0;"/><text fill="#000000" font-family="sans-serif" font-size="11" lengthAdjust="spacingAndGlyphs" textLength="154" x="1716.5" y="217.8198">void display2WayIsNotNull()</text><!--MD5=[178181f4c7684560c711246055fc01d3]
class DisplayComm2WayInterfaceImplementationTests--><rect fill="#FEFECE" filter="url(#f1nnnsy8xdwr63)" height="86.4141" id="DisplayComm2WayInterfaceImplementationTests" style="stroke: #A80036; stroke-width: 1.5;" width="334" x="2033" y="138"/><ellipse cx="2048" cy="154" fill="#ADD1B2" rx="11" ry="11" style="stroke: #A80036; stroke-width: 1.0;"/><path d="M2050.9688,159.6406 Q2050.3906,159.9375 2049.75,160.0781 Q2049.1094,160.2344 2048.4063,160.2344 Q2045.9063,160.2344 2044.5781,158.5938 Q2043.2656,156.9375 2043.2656,153.8125 Q2043.2656,150.6875 2044.5781,149.0313 Q2045.9063,147.375 2048.4063,147.375 Q2049.1094,147.375 2049.75,147.5313 Q2050.4063,147.6875 2050.9688,147.9844 L2050.9688,150.7031 Q2050.3438,150.125 2049.75,149.8594 Q2049.1563,149.5781 2048.5313,149.5781 Q2047.1875,149.5781 2046.5,150.6563 Q2045.8125,151.7188 2045.8125,153.8125 Q2045.8125,155.9063 2046.5,156.9844 Q2047.1875,158.0469 2048.5313,158.0469 Q2049.1563,158.0469 2049.75,157.7813 Q2050.3438,157.5 2050.9688,156.9219 L2050.9688,159.6406 Z "/><text fill="#000000" font-family="sans-serif" font-size="12" lengthAdjust="spacingAndGlyphs" textLength="302" x="2062" y="158.1543">DisplayComm2WayInterfaceImplementationTests</text><line style="stroke: #A80036; stroke-width: 1.5;" x1="2034" x2="2366" y1="170" y2="170"/><line style="stroke: #A80036; stroke-width: 1.5;" x1="2034" x2="2366" y1="178" y2="178"/><ellipse cx="2044" cy="189" fill="#84BE84" rx="3" ry="3" style="stroke: #038048; stroke-width: 1.0;"/><text fill="#000000" font-family="sans-serif" font-size="11" lengthAdjust="spacingAndGlyphs" textLength="115" x="2053" y="192.2104">void rfidInIsRfidOut()</text><ellipse cx="2044" cy="201.8047" fill="#84BE84" rx="3" ry="3" style="stroke: #038048; stroke-width: 1.0;"/><text fill="#000000" font-family="sans-serif" font-size="11" lengthAdjust="spacingAndGlyphs" textLength="169" x="2053" y="205.0151">void commManagerIsNotNull()</text><rect fill="#F24D5C" height="6" style="stroke: #C82930; stroke-width: 1.0;" width="6" x="2041" y="211.6094"/><text fill="#000000" font-family="sans-serif" font-size="11" lengthAdjust="spacingAndGlyphs" textLength="144" x="2053" y="217.8198">int generateRandomRfid()</text><!--MD5=[937d6d8ff87a99d0d5dcd66ee05a1fa4]
class DisplayCommManagerImplementationTests--><rect fill="#FEFECE" filter="url(#f1nnnsy8xdwr63)" height="86.4141" id="DisplayCommManagerImplementationTests" style="stroke: #A80036; stroke-width: 1.5;" width="300" x="2402" y="138"/><ellipse cx="2417" cy="154" fill="#ADD1B2" rx="11" ry="11" style="stroke: #A80036; stroke-width: 1.0;"/><path d="M2419.9688,159.6406 Q2419.3906,159.9375 2418.75,160.0781 Q2418.1094,160.2344 2417.4063,160.2344 Q2414.9063,160.2344 2413.5781,158.5938 Q2412.2656,156.9375 2412.2656,153.8125 Q2412.2656,150.6875 2413.5781,149.0313 Q2414.9063,147.375 2417.4063,147.375 Q2418.1094,147.375 2418.75,147.5313 Q2419.4063,147.6875 2419.9688,147.9844 L2419.9688,150.7031 Q2419.3438,150.125 2418.75,149.8594 Q2418.1563,149.5781 2417.5313,149.5781 Q2416.1875,149.5781 2415.5,150.6563 Q2414.8125,151.7188 2414.8125,153.8125 Q2414.8125,155.9063 2415.5,156.9844 Q2416.1875,158.0469 2417.5313,158.0469 Q2418.1563,158.0469 2418.75,157.7813 Q2419.3438,157.5 2419.9688,156.9219 L2419.9688,159.6406 Z "/><text fill="#000000" font-family="sans-serif" font-size="12" lengthAdjust="spacingAndGlyphs" textLength="268" x="2431" y="158.1543">DisplayCommManagerImplementationTests</text><line style="stroke: #A80036; stroke-width: 1.5;" x1="2403" x2="2701" y1="170" y2="170"/><line style="stroke: #A80036; stroke-width: 1.5;" x1="2403" x2="2701" y1="178" y2="178"/><ellipse cx="2413" cy="189" fill="#84BE84" rx="3" ry="3" style="stroke: #038048; stroke-width: 1.0;"/><text fill="#000000" font-family="sans-serif" font-size="11" lengthAdjust="spacingAndGlyphs" textLength="115" x="2422" y="192.2104">void rfidInIsRfidOut()</text><ellipse cx="2413" cy="201.8047" fill="#84BE84" rx="3" ry="3" style="stroke: #038048; stroke-width: 1.0;"/><text fill="#000000" font-family="sans-serif" font-size="11" lengthAdjust="spacingAndGlyphs" textLength="151" x="2422" y="205.0151">void middlewareIsNotNull()</text><rect fill="#F24D5C" height="6" style="stroke: #C82930; stroke-width: 1.0;" width="6" x="2410" y="211.6094"/><text fill="#000000" font-family="sans-serif" font-size="11" lengthAdjust="spacingAndGlyphs" textLength="144" x="2422" y="217.8198">int generateRandomRfid()</text><!--MD5=[930c8140e7c1cb8e71aa7cd49967748e]
class TrackDataPlotterTests--><rect fill="#FEFECE" filter="url(#f1nnnsy8xdwr63)" height="112.0234" id="TrackDataPlotterTests" style="stroke: #A80036; stroke-width: 1.5;" width="262" x="1716" y="365"/><ellipse cx="1772.75" cy="381" fill="#ADD1B2" rx="11" ry="11" style="stroke: #A80036; stroke-width: 1.0;"/><path d="M1775.7188,386.6406 Q1775.1406,386.9375 1774.5,387.0781 Q1773.8594,387.2344 1773.1563,387.2344 Q1770.6563,387.2344 1769.3281,385.5938 Q1768.0156,383.9375 1768.0156,380.8125 Q1768.0156,377.6875 1769.3281,376.0313 Q1770.6563,374.375 1773.1563,374.375 Q1773.8594,374.375 1774.5,374.5313 Q1775.1563,374.6875 1775.7188,374.9844 L1775.7188,377.7031 Q1775.0938,377.125 1774.5,376.8594 Q1773.9063,376.5781 1773.2813,376.5781 Q1771.9375,376.5781 1771.25,377.6563 Q1770.5625,378.7188 1770.5625,380.8125 Q1770.5625,382.9063 1771.25,383.9844 Q1771.9375,385.0469 1773.2813,385.0469 Q1773.9063,385.0469 1774.5,384.7813 Q1775.0938,384.5 1775.7188,383.9219 L1775.7188,386.6406 Z "/><text fill="#000000" font-family="sans-serif" font-size="12" lengthAdjust="spacingAndGlyphs" textLength="140" x="1793.25" y="385.1543">TrackDataPlotterTests</text><line style="stroke: #A80036; stroke-width: 1.5;" x1="1717" x2="1977" y1="397" y2="397"/><line style="stroke: #A80036; stroke-width: 1.5;" x1="1717" x2="1977" y1="405" y2="405"/><ellipse cx="1727" cy="416" fill="#84BE84" rx="3" ry="3" style="stroke: #038048; stroke-width: 1.0;"/><text fill="#000000" font-family="sans-serif" font-size="11" lengthAdjust="spacingAndGlyphs" textLength="212" x="1736" y="419.2104">void plotIsDisplayedWith5DataPoints()</text><ellipse cx="1727" cy="428.8047" fill="#84BE84" rx="3" ry="3" style="stroke: #038048; stroke-width: 1.0;"/><text fill="#000000" font-family="sans-serif" font-size="11" lengthAdjust="spacingAndGlyphs" textLength="205" x="1736" y="432.0151">void plotIsDisplayedWith1DataPoint()</text><ellipse cx="1727" cy="441.6094" fill="#84BE84" rx="3" ry="3" style="stroke: #038048; stroke-width: 1.0;"/><text fill="#000000" font-family="sans-serif" font-size="11" lengthAdjust="spacingAndGlyphs" textLength="236" x="1736" y="444.8198">void plotIsDisplayedWith2PlusDataPoints()</text><ellipse cx="1727" cy="454.4141" fill="#84BE84" rx="3" ry="3" style="stroke: #038048; stroke-width: 1.0;"/><text fill="#000000" font-family="sans-serif" font-size="11" lengthAdjust="spacingAndGlyphs" textLength="174" x="1736" y="457.6245">void nullTrackDataNotAllowed()</text><ellipse cx="1727" cy="467.2188" fill="#84BE84" rx="3" ry="3" style="stroke: #038048; stroke-width: 1.0;"/><text fill="#000000" font-family="sans-serif" font-size="11" lengthAdjust="spacingAndGlyphs" textLength="206" x="1736" y="470.4292">void zeroPointTrackDataNotAllowed()</text><!--MD5=[a333ac13e0fdf2a5898aafabd38d3c1b]
class DisplayComm2WayInterfaceStub--><rect fill="#FEFECE" filter="url(#f1nnnsy8xdwr63)" height="103.2188" id="DisplayComm2WayInterfaceStub" style="stroke: #A80036; stroke-width: 1.5;" width="334" x="2013" y="369.5"/><ellipse cx="2075.75" cy="385.5" fill="#ADD1B2" rx="11" ry="11" style="stroke: #A80036; stroke-width: 1.0;"/><path d="M2078.7188,391.1406 Q2078.1406,391.4375 2077.5,391.5781 Q2076.8594,391.7344 2076.1563,391.7344 Q2073.6563,391.7344 2072.3281,390.0938 Q2071.0156,388.4375 2071.0156,385.3125 Q2071.0156,382.1875 2072.3281,380.5313 Q2073.6563,378.875 2076.1563,378.875 Q2076.8594,378.875 2077.5,379.0313 Q2078.1563,379.1875 2078.7188,379.4844 L2078.7188,382.2031 Q2078.0938,381.625 2077.5,381.3594 Q2076.9063,381.0781 2076.2813,381.0781 Q2074.9375,381.0781 2074.25,382.1563 Q2073.5625,383.2188 2073.5625,385.3125 Q2073.5625,387.4063 2074.25,388.4844 Q2074.9375,389.5469 2076.2813,389.5469 Q2076.9063,389.5469 2077.5,389.2813 Q2078.0938,389 2078.7188,388.4219 L2078.7188,391.1406 Z "/><text fill="#000000" font-family="sans-serif" font-size="12" lengthAdjust="spacingAndGlyphs" textLength="200" x="2096.25" y="389.6543">DisplayComm2WayInterfaceStub</text><line style="stroke: #A80036; stroke-width: 1.5;" x1="2014" x2="2346" y1="401.5" y2="401.5"/><rect fill="none" height="6" style="stroke: #C82930; stroke-width: 1.0;" width="6" x="2021" y="409.5"/><text fill="#000000" font-family="sans-serif" font-size="11" lengthAdjust="spacingAndGlyphs" textLength="115" x="2033" y="415.7104">TrackData trackData</text><line style="stroke: #A80036; stroke-width: 1.5;" x1="2014" x2="2346" y1="422.3047" y2="422.3047"/><ellipse cx="2024" cy="433.3047" fill="#84BE84" rx="3" ry="3" style="stroke: #038048; stroke-width: 1.0;"/><text fill="#000000" font-family="sans-serif" font-size="11" font-style="italic" lengthAdjust="spacingAndGlyphs" textLength="308" x="2033" y="436.5151">DisplayComm2WayInterfaceStub(TrackData trackData)</text><ellipse cx="2024" cy="462.9141" fill="#84BE84" rx="3" ry="3" style="stroke: #038048; stroke-width: 1.0;"/><text fill="#000000" font-family="sans-serif" font-size="11" font-style="italic" lengthAdjust="spacingAndGlyphs" textLength="200" x="2033" y="466.1245">TrackData passRfidRequest(int rfid)</text><line style="stroke: #A80036; stroke-width: 1.0; stroke-dasharray: 1.0,2.0;" x1="2014" x2="2147" y1="449.5117" y2="449.5117"/><text fill="#000000" font-family="sans-serif" font-size="11" lengthAdjust="spacingAndGlyphs" textLength="66" x="2147" y="452.8198">Use Case 1</text><line style="stroke: #A80036; stroke-width: 1.0; stroke-dasharray: 1.0,2.0;" x1="2213" x2="2346" y1="449.5117" y2="449.5117"/><!--MD5=[2970358178d6cf57fc5a801b39eb8d0b]
class DisplayCommManagerStub--><rect fill="#FEFECE" filter="url(#f1nnnsy8xdwr63)" height="77.6094" id="DisplayCommManagerStub" style="stroke: #A80036; stroke-width: 1.5;" width="247" x="2382.5" y="382"/><ellipse cx="2419.55" cy="398" fill="#ADD1B2" rx="11" ry="11" style="stroke: #A80036; stroke-width: 1.0;"/><path d="M2422.5188,403.6406 Q2421.9406,403.9375 2421.3,404.0781 Q2420.6594,404.2344 2419.9563,404.2344 Q2417.4563,404.2344 2416.1281,402.5938 Q2414.8156,400.9375 2414.8156,397.8125 Q2414.8156,394.6875 2416.1281,393.0313 Q2417.4563,391.375 2419.9563,391.375 Q2420.6594,391.375 2421.3,391.5313 Q2421.9563,391.6875 2422.5188,391.9844 L2422.5188,394.7031 Q2421.8938,394.125 2421.3,393.8594 Q2420.7063,393.5781 2420.0813,393.5781 Q2418.7375,393.5781 2418.05,394.6563 Q2417.3625,395.7188 2417.3625,397.8125 Q2417.3625,399.9063 2418.05,400.9844 Q2418.7375,402.0469 2420.0813,402.0469 Q2420.7063,402.0469 2421.3,401.7813 Q2421.8938,401.5 2422.5188,400.9219 L2422.5188,403.6406 Z "/><text fill="#000000" font-family="sans-serif" font-size="12" lengthAdjust="spacingAndGlyphs" textLength="166" x="2438.45" y="402.1543">DisplayCommManagerStub</text><line style="stroke: #A80036; stroke-width: 1.5;" x1="2383.5" x2="2628.5" y1="414" y2="414"/><line style="stroke: #A80036; stroke-width: 1.5;" x1="2383.5" x2="2628.5" y1="422" y2="422"/><ellipse cx="2393.5" cy="449.8047" fill="#84BE84" rx="3" ry="3" style="stroke: #038048; stroke-width: 1.0;"/><text fill="#000000" font-family="sans-serif" font-size="11" lengthAdjust="spacingAndGlyphs" textLength="221" x="2402.5" y="453.0151">TrackData evaluateRfidRequest(int rfid)</text><line style="stroke: #A80036; stroke-width: 1.0; stroke-dasharray: 1.0,2.0;" x1="2383.5" x2="2473" y1="436.4023" y2="436.4023"/><text fill="#000000" font-family="sans-serif" font-size="11" lengthAdjust="spacingAndGlyphs" textLength="66" x="2473" y="439.7104">Use Case 1</text><line style="stroke: #A80036; stroke-width: 1.0; stroke-dasharray: 1.0,2.0;" x1="2539" x2="2628.5" y1="436.4023" y2="436.4023"/><!--MD5=[cf56a65163663c6c6c7b84cd7c204b97]
class MiddlewareCommInterfaceStub--><rect fill="#FEFECE" filter="url(#f1nnnsy8xdwr63)" height="77.6094" id="MiddlewareCommInterfaceStub" style="stroke: #A80036; stroke-width: 1.5;" width="225" x="1734.5" y="539"/><ellipse cx="1749.5" cy="555" fill="#ADD1B2" rx="11" ry="11" style="stroke: #A80036; stroke-width: 1.0;"/><path d="M1752.4688,560.6406 Q1751.8906,560.9375 1751.25,561.0781 Q1750.6094,561.2344 1749.9063,561.2344 Q1747.4063,561.2344 1746.0781,559.5938 Q1744.7656,557.9375 1744.7656,554.8125 Q1744.7656,551.6875 1746.0781,550.0313 Q1747.4063,548.375 1749.9063,548.375 Q1750.6094,548.375 1751.25,548.5313 Q1751.9063,548.6875 1752.4688,548.9844 L1752.4688,551.7031 Q1751.8438,551.125 1751.25,550.8594 Q1750.6563,550.5781 1750.0313,550.5781 Q1748.6875,550.5781 1748,551.6563 Q1747.3125,552.7188 1747.3125,554.8125 Q1747.3125,556.9063 1748,557.9844 Q1748.6875,559.0469 1750.0313,559.0469 Q1750.6563,559.0469 1751.25,558.7813 Q1751.8438,558.5 1752.4688,557.9219 L1752.4688,560.6406 Z "/><text fill="#000000" font-family="sans-serif" font-size="12" lengthAdjust="spacingAndGlyphs" textLength="193" x="1763.5" y="559.1543">MiddlewareCommInterfaceStub</text><line style="stroke: #A80036; stroke-width: 1.5;" x1="1735.5" x2="1958.5" y1="571" y2="571"/><line style="stroke: #A80036; stroke-width: 1.5;" x1="1735.5" x2="1958.5" y1="579" y2="579"/><ellipse cx="1745.5" cy="606.8047" fill="#84BE84" rx="3" ry="3" style="stroke: #038048; stroke-width: 1.0;"/><text fill="#000000" font-family="sans-serif" font-size="11" lengthAdjust="spacingAndGlyphs" textLength="171" x="1754.5" y="610.0151">TrackData requestRfid(int rfid)</text><line style="stroke: #A80036; stroke-width: 1.0; stroke-dasharray: 1.0,2.0;" x1="1735.5" x2="1814" y1="593.4023" y2="593.4023"/><text fill="#000000" font-family="sans-serif" font-size="11" lengthAdjust="spacingAndGlyphs" textLength="66" x="1814" y="596.7104">Use Case 1</text><line style="stroke: #A80036; stroke-width: 1.0; stroke-dasharray: 1.0,2.0;" x1="1880" x2="1958.5" y1="593.4023" y2="593.4023"/><!--MD5=[c986427b061286eff33e87a088ad4bf9]
class TrackDataPlotter--><rect fill="#FEFECE" filter="url(#f1nnnsy8xdwr63)" height="244.0703" id="TrackDataPlotter" style="stroke: #A80036; stroke-width: 1.5;" width="302" x="2758" y="59"/><ellipse cx="2851.75" cy="75" fill="#ADD1B2" rx="11" ry="11" style="stroke: #A80036; stroke-width: 1.0;"/><path d="M2854.7188,80.6406 Q2854.1406,80.9375 2853.5,81.0781 Q2852.8594,81.2344 2852.1563,81.2344 Q2849.6563,81.2344 2848.3281,79.5938 Q2847.0156,77.9375 2847.0156,74.8125 Q2847.0156,71.6875 2848.3281,70.0313 Q2849.6563,68.375 2852.1563,68.375 Q2852.8594,68.375 2853.5,68.5313 Q2854.1563,68.6875 2854.7188,68.9844 L2854.7188,71.7031 Q2854.0938,71.125 2853.5,70.8594 Q2852.9063,70.5781 2852.2813,70.5781 Q2850.9375,70.5781 2850.25,71.6563 Q2849.5625,72.7188 2849.5625,74.8125 Q2849.5625,76.9063 2850.25,77.9844 Q2850.9375,79.0469 2852.2813,79.0469 Q2852.9063,79.0469 2853.5,78.7813 Q2854.0938,78.5 2854.7188,77.9219 L2854.7188,80.6406 Z "/><text fill="#000000" font-family="sans-serif" font-size="12" lengthAdjust="spacingAndGlyphs" textLength="106" x="2872.25" y="79.1543">TrackDataPlotter</text><line style="stroke: #A80036; stroke-width: 1.5;" x1="2759" x2="3059" y1="91" y2="91"/><rect fill="none" height="6" style="stroke: #C82930; stroke-width: 1.0;" width="6" x="2766" y="99"/><text fill="#000000" font-family="sans-serif" font-size="11" lengthAdjust="spacingAndGlyphs" textLength="51" x="2778" y="105.2104">float[] lat</text><rect fill="none" height="6" style="stroke: #C82930; stroke-width: 1.0;" width="6" x="2766" y="111.8047"/><text fill="#000000" font-family="sans-serif" font-size="11" lengthAdjust="spacingAndGlyphs" textLength="54" x="2778" y="118.0151">float[] lng</text><rect fill="none" height="6" style="stroke: #C82930; stroke-width: 1.0;" width="6" x="2766" y="124.6094"/><text fill="#000000" font-family="sans-serif" font-size="11" lengthAdjust="spacingAndGlyphs" textLength="115" x="2778" y="130.8198">XYSeries dataPoints</text><rect fill="none" height="6" style="stroke: #C82930; stroke-width: 1.0;" width="6" x="2766" y="137.4141"/><text fill="#000000" font-family="sans-serif" font-size="11" lengthAdjust="spacingAndGlyphs" textLength="89" x="2778" y="143.6245">XYSeries fitLine</text><rect fill="none" height="6" style="stroke: #C82930; stroke-width: 1.0;" width="6" x="2766" y="150.2188"/><text fill="#000000" font-family="sans-serif" font-size="11" lengthAdjust="spacingAndGlyphs" textLength="92" x="2778" y="156.4292">JFreeChart chart</text><rect fill="none" height="6" style="stroke: #C82930; stroke-width: 1.0;" width="6" x="2766" y="163.0234"/><text fill="#000000" font-family="sans-serif" font-size="11" lengthAdjust="spacingAndGlyphs" textLength="134" x="2778" y="169.2339">boolean displayedChart</text><line style="stroke: #A80036; stroke-width: 1.5;" x1="2759" x2="3059" y1="175.8281" y2="175.8281"/><ellipse cx="2769" cy="186.8281" fill="#84BE84" rx="3" ry="3" style="stroke: #038048; stroke-width: 1.0;"/><text fill="#000000" font-family="sans-serif" font-size="11" lengthAdjust="spacingAndGlyphs" textLength="188" x="2778" y="190.0386">TrackDataPlotter(TrackData data)</text><ellipse cx="2769" cy="216.4375" fill="#84BE84" rx="3" ry="3" style="stroke: #038048; stroke-width: 1.0;"/><text fill="#000000" font-family="sans-serif" font-size="11" lengthAdjust="spacingAndGlyphs" textLength="106" x="2778" y="219.6479">void displayChart()</text><ellipse cx="2769" cy="229.2422" fill="#84BE84" rx="3" ry="3" style="stroke: #038048; stroke-width: 1.0;"/><text fill="#000000" font-family="sans-serif" font-size="11" lengthAdjust="spacingAndGlyphs" textLength="154" x="2778" y="232.4526">boolean getDisplayeChart()</text><ellipse cx="2769" cy="242.0469" fill="#84BE84" rx="3" ry="3" style="stroke: #038048; stroke-width: 1.0;"/><text fill="#000000" font-family="sans-serif" font-size="11" lengthAdjust="spacingAndGlyphs" textLength="232" x="2778" y="245.2573">XYSeries getTrackData(float[] x, float[] y)</text><rect fill="#F24D5C" height="6" style="stroke: #C82930; stroke-width: 1.0;" width="6" x="2766" y="251.8516"/><text fill="#000000" font-family="sans-serif" font-size="11" lengthAdjust="spacingAndGlyphs" textLength="230" x="2778" y="258.062">XYSeries calculateLine(float[] x, float[] y)</text><rect fill="#F24D5C" height="6" style="stroke: #C82930; stroke-width: 1.0;" width="6" x="2766" y="264.6563"/><text fill="#000000" font-family="sans-serif" font-size="11" lengthAdjust="spacingAndGlyphs" textLength="273" x="2778" y="270.8667">float[] extractLatFromTrackData(TrackData data)</text><rect fill="#F24D5C" height="6" style="stroke: #C82930; stroke-width: 1.0;" width="6" x="2766" y="277.4609"/><text fill="#000000" font-family="sans-serif" font-size="11" lengthAdjust="spacingAndGlyphs" textLength="276" x="2778" y="283.6714">float[] extractLngFromTrackData(TrackData data)</text><rect fill="#F24D5C" height="6" style="stroke: #C82930; stroke-width: 1.0;" width="6" x="2766" y="290.2656"/><text fill="#000000" font-family="sans-serif" font-size="11" lengthAdjust="spacingAndGlyphs" textLength="138" x="2778" y="296.4761">JFreeChart createChart()</text><line style="stroke: #A80036; stroke-width: 1.0; stroke-dasharray: 1.0,2.0;" x1="2759" x2="2876" y1="203.0352" y2="203.0352"/><text fill="#000000" font-family="sans-serif" font-size="11" lengthAdjust="spacingAndGlyphs" textLength="66" x="2876" y="206.3433">Use Case 1</text><line style="stroke: #A80036; stroke-width: 1.0; stroke-dasharray: 1.0,2.0;" x1="2942" x2="3059" y1="203.0352" y2="203.0352"/><!--MD5=[c9341cce37a1a8bee80ad1365349afef]
link DisplayCommInterface to DisplayComm2WayInterface--><!--MD5=[7835b7bc4a765bae53638d0402d5d5e6]
link DisplayComm2WayInterface to DisplayCommManager--><!--MD5=[7d92106ecb9088e13e6754b44ec571b0]
link DisplayCommInterface to DisplayCommInterfaceImplementation--><!--MD5=[51e28edbb9f88779af066724948e7048]
link DisplayCommInterfaceImplementation to DisplayComm2WayInterfaceImplementation--><!--MD5=[ea4cd417ea9ea2c0dbdbdf4e4e3d21de]
link DisplayComm2WayInterfaceImplementation to DisplayCommManagerImplementation--><!--MD5=[64e942b00478e9eef28430a914bbb142]
link DisplayCommInterfaceImplementationTests to DisplayComm2WayInterfaceImplementationTests--><!--MD5=[8dbe1f493aaf019419238fc4702b450a]
link DisplayComm2WayInterfaceImplementationTests to DisplayCommManagerImplementationTests--><!--MD5=[e81de192ca7bc9df286fd4cb58be8b46]
link DisplayCommInterfaceImplementationTests to TrackDataPlotterTests--><!--MD5=[8b898a72046de76ad345afd61090e7dd]
link TrackDataPlotterTests to DisplayComm2WayInterfaceStub--><!--MD5=[c9c9241041dbc47aa626fe1afc095e03]
link DisplayComm2WayInterfaceStub to DisplayCommManagerStub--><!--MD5=[61d9c608a539b4614526ad59aeb385a2]
link TrackDataPlotterTests to MiddlewareCommInterfaceStub--><!--MD5=[246645852905b44a6a80b69caf841c48]
@startuml Display02Packages


package edu.oakland.production.display02 {

}


package edu.oakland.production.display02 {
    interface DisplayCommInterface {
        __
        .. Use Case 1 ..
        {abstract} + TrackData receiveRfidRequest(int rfidNum)
    }
}


package edu.oakland.production.display02 {
    interface DisplayComm2WayInterface {
        __
        .. Use Case 1 ..
        {abstract} + TrackData passRfidRequest(int rfidNum)
    }
}


package edu.oakland.production.display02 {
    interface DisplayCommManager {
        __
        .. Use Case 1 ..
        {abstract} + TrackData evaluateRfidRequest(int rfid)
    }
}


package edu.oakland.production.display02 {
    class DisplayCommInterfaceImplementation {
        - DisplayComm2WayInterface comm2Way
        __
        + DisplayCommInterface(DisplayComm2WayInterface displayComm2WayInterface)
        .. Use Case 1 ..
        + TrackData receiveRfidRequest(int rfidNum)
        
    }
}


package edu.oakland.production.display02 {
    class DisplayComm2WayInterfaceImplementation {
        - DisplayCommManager commManager
        __
        + DisplayComm2WayInterfaceImplementation(DisplayCommManager commManager)
        .. Use Case 1 ..
        + TrackData passRfidRequest(int rfidNum)
    }
}


package edu.oakland.production.display02 {
    class DisplayCommManagerImplementation {
        - MiddlewareCommInterface middleware
        __
        + DisplayCommManagerImplementation(MiddlewareCommInterface middlewareCommInterface)
        .. Use Case 1 ..
        + TrackData evaluateRfidRequest(int rfid)        
    }
}



package edu.oakland.test.display02 {
    
}


package edu.oakland.test.display02 {
    class DisplayCommInterfaceImplementationTests {
        + void displayComm2WayIsNotNull()
        + void zeroPointTrackDataDoesNotDisplayPlot()
        + void display2WayIsNotNull()
    }
}


package edu.oakland.test.display02 {
    class DisplayComm2WayInterfaceImplementationTests {
        + void rfidInIsRfidOut()
        + void commManagerIsNotNull()
        - int generateRandomRfid()
    }
}


package edu.oakland.test.display02 {
    class DisplayCommManagerImplementationTests {
        + void rfidInIsRfidOut()
        + void middlewareIsNotNull()
        - int generateRandomRfid()
    }
}


package edu.oakland.test.display02 {
    class TrackDataPlotterTests {
        + void plotIsDisplayedWith5DataPoints()
        + void plotIsDisplayedWith1DataPoint()
        + void plotIsDisplayedWith2PlusDataPoints()
        + void nullTrackDataNotAllowed()
        + void zeroPointTrackDataNotAllowed() 
    }
}


package edu.oakland.test.display02 {
    class DisplayComm2WayInterfaceStub {
        - TrackData trackData
        __
        {abstract} + DisplayComm2WayInterfaceStub(TrackData trackData)
        .. Use Case 1 ..
        {abstract} + TrackData passRfidRequest(int rfid)
    }
}


package edu.oakland.test.display02 {
    class DisplayCommManagerStub {
        __
        .. Use Case 1 ..
        + TrackData evaluateRfidRequest(int rfid)
    }
}


package edu.oakland.test.display02 {
    class MiddlewareCommInterfaceStub {
        __
        .. Use Case 1 ..
        + TrackData requestRfid(int rfid)
    }
}



package edu.oakland.helper.display02 {

}


package edu.oakland.helper.display02 {
    class TrackDataPlotter {
        - float[] lat
        - float[] lng
        - XYSeries dataPoints
        - XYSeries fitLine
        - JFreeChart chart
        - boolean displayedChart
        __
        + TrackDataPlotter(TrackData data)
        .. Use Case 1 ..
        + void displayChart()
        + boolean getDisplayeChart()
        + XYSeries getTrackData(float[] x, float[] y)
        - XYSeries calculateLine(float[] x, float[] y)
        - float[] extractLatFromTrackData(TrackData data)
        - float[] extractLngFromTrackData(TrackData data)
        - JFreeChart createChart()
    }
}



@enduml

PlantUML version 1.2020.02(Sun Mar 01 10:22:07 GMT 2020)
(GPL source distribution)
Java Runtime: OpenJDK Runtime Environment
JVM: OpenJDK 64-Bit Server VM
Java Version: 11.0.9+11-Ubuntu-0ubuntu1
Operating System: Linux
Default Encoding: ANSI_X3.4-1968
Language: en
Country: US
--></g></svg>