<?xml version="1.0" encoding="UTF-8" standalone="no"?><svg xmlns="http://www.w3.org/2000/svg" xmlns:xlink="http://www.w3.org/1999/xlink" contentScriptType="application/ecmascript" contentStyleType="text/css" height="505px" preserveAspectRatio="none" style="width:3069px;height:505px;" version="1.1" viewBox="0 0 3069 505" width="3069px" zoomAndPan="magnify"><defs><filter height="300%" id="f1cix6bvaunni9" width="300%" x="-1" y="-1"><feGaussianBlur result="blurOut" stdDeviation="2.0"/><feColorMatrix in="blurOut" result="blurOut2" type="matrix" values="0 0 0 0 0 0 0 0 0 0 0 0 0 0 0 0 0 0 .4 0"/><feOffset dx="4.0" dy="4.0" in="blurOut2" result="blurOut3"/><feBlend in="SourceGraphic" in2="blurOut3" mode="normal"/></filter></defs><g><!--MD5=[fe59aae6f7bfe371a9c197ec1f7f843a]
cluster edu.oakland.production.display02--><polygon fill="#FFFFFF" filter="url(#f1cix6bvaunni9)" points="22,38.5,295,38.5,302,60.7969,1432,60.7969,1432,446,22,446,22,38.5" style="stroke: #000000; stroke-width: 1.5;"/><line style="stroke: #000000; stroke-width: 1.5;" x1="22" x2="302" y1="60.7969" y2="60.7969"/><text fill="#000000" font-family="sans-serif" font-size="14" font-weight="bold" lengthAdjust="spacingAndGlyphs" textLength="267" x="26" y="53.4951">edu.oakland.production.display02</text><!--MD5=[9258003ec405d300d3379b4a3d8dd6ad]
cluster edu.oakland.test.display02--><polygon fill="#FFFFFF" filter="url(#f1cix6bvaunni9)" points="1456,53.5,1674,53.5,1681,75.7969,2701,75.7969,2701,414,1456,414,1456,53.5" style="stroke: #000000; stroke-width: 1.5;"/><line style="stroke: #000000; stroke-width: 1.5;" x1="1456" x2="1681" y1="75.7969" y2="75.7969"/><text fill="#000000" font-family="sans-serif" font-size="14" font-weight="bold" lengthAdjust="spacingAndGlyphs" textLength="212" x="1460" y="68.4951">edu.oakland.test.display02</text><!--MD5=[33504725b8a69ba2207f0a836957a91c]
cluster edu.oakland.production.middleware02--><polygon fill="#FFFFFF" filter="url(#f1cix6bvaunni9)" points="2725,24,3035,24,3042,46.2969,3045,46.2969,3045,182,2725,182,2725,24" style="stroke: #000000; stroke-width: 1.5;"/><line style="stroke: #000000; stroke-width: 1.5;" x1="2725" x2="3042" y1="46.2969" y2="46.2969"/><text fill="#000000" font-family="sans-serif" font-size="14" font-weight="bold" lengthAdjust="spacingAndGlyphs" textLength="304" x="2729" y="38.9951">edu.oakland.production.middleware02</text><!--MD5=[a502031b5a5384de0a21e6ee820fd3b2]
cluster edu.oakland.helper.display02--><polygon fill="#FFFFFF" filter="url(#f1cix6bvaunni9)" points="2725,206,2963,206,2970,228.2969,3047,228.2969,3047,493,2725,493,2725,206" style="stroke: #000000; stroke-width: 1.5;"/><line style="stroke: #000000; stroke-width: 1.5;" x1="2725" x2="2970" y1="228.2969" y2="228.2969"/><text fill="#000000" font-family="sans-serif" font-size="14" font-weight="bold" lengthAdjust="spacingAndGlyphs" textLength="232" x="2729" y="220.9951">edu.oakland.helper.display02</text><!--MD5=[c8d1e3134fecb0c949fd2a76cc0bb992]
class DisplayCommInterface--><rect fill="#FEFECE" filter="url(#f1cix6bvaunni9)" height="77.6094" id="DisplayCommInterface" style="stroke: #A80036; stroke-width: 1.5;" width="268" x="91" y="73.5"/><ellipse cx="151.25" cy="89.5" fill="#B4A7E5" rx="11" ry="11" style="stroke: #A80036; stroke-width: 1.0;"/><path d="M147.1719,85.2656 L147.1719,83.1094 L154.5625,83.1094 L154.5625,85.2656 L152.0938,85.2656 L152.0938,93.3438 L154.5625,93.3438 L154.5625,95.5 L147.1719,95.5 L147.1719,93.3438 L149.6406,93.3438 L149.6406,85.2656 L147.1719,85.2656 Z "/><text fill="#000000" font-family="sans-serif" font-size="12" font-style="italic" lengthAdjust="spacingAndGlyphs" textLength="139" x="171.75" y="93.6543">DisplayCommInterface</text><line style="stroke: #A80036; stroke-width: 1.5;" x1="92" x2="358" y1="105.5" y2="105.5"/><line style="stroke: #A80036; stroke-width: 1.5;" x1="92" x2="358" y1="113.5" y2="113.5"/><ellipse cx="102" cy="141.3047" fill="#84BE84" rx="3" ry="3" style="stroke: #038048; stroke-width: 1.0;"/><text fill="#000000" font-family="sans-serif" font-size="11" font-style="italic" lengthAdjust="spacingAndGlyphs" textLength="242" x="111" y="144.5151">TrackData receiveRfidRequest(int rfidNum)</text><line style="stroke: #A80036; stroke-width: 1.0; stroke-dasharray: 1.0,2.0;" x1="92" x2="192" y1="127.9023" y2="127.9023"/><text fill="#000000" font-family="sans-serif" font-size="11" lengthAdjust="spacingAndGlyphs" textLength="66" x="192" y="131.2104">Use Case 1</text><line style="stroke: #A80036; stroke-width: 1.0; stroke-dasharray: 1.0,2.0;" x1="258" x2="358" y1="127.9023" y2="127.9023"/><!--MD5=[f6b51b5f862da5ce226c62e411e84628]
class DisplayComm2WayInterface--><rect fill="#FEFECE" filter="url(#f1cix6bvaunni9)" height="77.6094" id="DisplayComm2WayInterface" style="stroke: #A80036; stroke-width: 1.5;" width="252" x="678" y="73.5"/><ellipse cx="713.7" cy="89.5" fill="#B4A7E5" rx="11" ry="11" style="stroke: #A80036; stroke-width: 1.0;"/><path d="M709.6219,85.2656 L709.6219,83.1094 L717.0125,83.1094 L717.0125,85.2656 L714.5438,85.2656 L714.5438,93.3438 L717.0125,93.3438 L717.0125,95.5 L709.6219,95.5 L709.6219,93.3438 L712.0906,93.3438 L712.0906,85.2656 L709.6219,85.2656 Z "/><text fill="#000000" font-family="sans-serif" font-size="12" font-style="italic" lengthAdjust="spacingAndGlyphs" textLength="174" x="732.3" y="93.6543">DisplayComm2WayInterface</text><line style="stroke: #A80036; stroke-width: 1.5;" x1="679" x2="929" y1="105.5" y2="105.5"/><line style="stroke: #A80036; stroke-width: 1.5;" x1="679" x2="929" y1="113.5" y2="113.5"/><ellipse cx="689" cy="141.3047" fill="#84BE84" rx="3" ry="3" style="stroke: #038048; stroke-width: 1.0;"/><text fill="#000000" font-family="sans-serif" font-size="11" font-style="italic" lengthAdjust="spacingAndGlyphs" textLength="226" x="698" y="144.5151">TrackData passRfidRequest(int rfidNum)</text><line style="stroke: #A80036; stroke-width: 1.0; stroke-dasharray: 1.0,2.0;" x1="679" x2="771" y1="127.9023" y2="127.9023"/><text fill="#000000" font-family="sans-serif" font-size="11" lengthAdjust="spacingAndGlyphs" textLength="66" x="771" y="131.2104">Use Case 1</text><line style="stroke: #A80036; stroke-width: 1.0; stroke-dasharray: 1.0,2.0;" x1="837" x2="929" y1="127.9023" y2="127.9023"/><!--MD5=[6aeb72f2773d7cabb45309482beeff0a]
class DisplayCommManager--><rect fill="#FEFECE" filter="url(#f1cix6bvaunni9)" height="77.6094" id="DisplayCommManager" style="stroke: #A80036; stroke-width: 1.5;" width="275" x="1091.5" y="73.5"/><ellipse cx="1156.25" cy="89.5" fill="#B4A7E5" rx="11" ry="11" style="stroke: #A80036; stroke-width: 1.0;"/><path d="M1152.1719,85.2656 L1152.1719,83.1094 L1159.5625,83.1094 L1159.5625,85.2656 L1157.0938,85.2656 L1157.0938,93.3438 L1159.5625,93.3438 L1159.5625,95.5 L1152.1719,95.5 L1152.1719,93.3438 L1154.6406,93.3438 L1154.6406,85.2656 L1152.1719,85.2656 Z "/><text fill="#000000" font-family="sans-serif" font-size="12" font-style="italic" lengthAdjust="spacingAndGlyphs" textLength="137" x="1176.75" y="93.6543">DisplayCommManager</text><line style="stroke: #A80036; stroke-width: 1.5;" x1="1092.5" x2="1365.5" y1="105.5" y2="105.5"/><line style="stroke: #A80036; stroke-width: 1.5;" x1="1092.5" x2="1365.5" y1="113.5" y2="113.5"/><ellipse cx="1102.5" cy="141.3047" fill="#84BE84" rx="3" ry="3" style="stroke: #038048; stroke-width: 1.0;"/><text fill="#000000" font-family="sans-serif" font-size="11" font-style="italic" lengthAdjust="spacingAndGlyphs" textLength="249" x="1111.5" y="144.5151">TrackData evaluateRfidRequest(int rfidNum)</text><line style="stroke: #A80036; stroke-width: 1.0; stroke-dasharray: 1.0,2.0;" x1="1092.5" x2="1196" y1="127.9023" y2="127.9023"/><text fill="#000000" font-family="sans-serif" font-size="11" lengthAdjust="spacingAndGlyphs" textLength="66" x="1196" y="131.2104">Use Case 1</text><line style="stroke: #A80036; stroke-width: 1.0; stroke-dasharray: 1.0,2.0;" x1="1262" x2="1365.5" y1="127.9023" y2="127.9023"/><!--MD5=[a35092e604da7274febf4e2cf9a25087]
class DisplayCommInterfaceImplementation--><rect fill="#FEFECE" filter="url(#f1cix6bvaunni9)" height="128.8281" id="DisplayCommInterfaceImplementation" style="stroke: #A80036; stroke-width: 1.5;" width="373" x="38.5" y="294.5"/><ellipse cx="103.25" cy="310.5" fill="#ADD1B2" rx="11" ry="11" style="stroke: #A80036; stroke-width: 1.0;"/><path d="M106.2188,316.1406 Q105.6406,316.4375 105,316.5781 Q104.3594,316.7344 103.6563,316.7344 Q101.1563,316.7344 99.8281,315.0938 Q98.5156,313.4375 98.5156,310.3125 Q98.5156,307.1875 99.8281,305.5313 Q101.1563,303.875 103.6563,303.875 Q104.3594,303.875 105,304.0313 Q105.6563,304.1875 106.2188,304.4844 L106.2188,307.2031 Q105.5938,306.625 105,306.3594 Q104.4063,306.0781 103.7813,306.0781 Q102.4375,306.0781 101.75,307.1563 Q101.0625,308.2188 101.0625,310.3125 Q101.0625,312.4063 101.75,313.4844 Q102.4375,314.5469 103.7813,314.5469 Q104.4063,314.5469 105,314.2813 Q105.5938,314 106.2188,313.4219 L106.2188,316.1406 Z "/><text fill="#000000" font-family="sans-serif" font-size="12" lengthAdjust="spacingAndGlyphs" textLength="235" x="123.75" y="314.6543">DisplayCommInterfaceImplementation</text><line style="stroke: #A80036; stroke-width: 1.5;" x1="39.5" x2="410.5" y1="326.5" y2="326.5"/><text fill="#000000" font-family="sans-serif" font-size="11" lengthAdjust="spacingAndGlyphs" textLength="207" x="44.5" y="340.7104">DisplayComm2WayInterface receiver</text><line style="stroke: #A80036; stroke-width: 1.5;" x1="39.5" x2="410.5" y1="347.3047" y2="347.3047"/><ellipse cx="49.5" cy="358.3047" fill="#84BE84" rx="3" ry="3" style="stroke: #038048; stroke-width: 1.0;"/><text fill="#000000" font-family="sans-serif" font-size="11" font-style="italic" lengthAdjust="spacingAndGlyphs" textLength="347" x="58.5" y="361.5151">DisplayCommInterface(DisplayComm2WayInterface receiver)</text><ellipse cx="49.5" cy="387.9141" fill="#84BE84" rx="3" ry="3" style="stroke: #038048; stroke-width: 1.0;"/><text fill="#000000" font-family="sans-serif" font-size="11" font-style="italic" lengthAdjust="spacingAndGlyphs" textLength="242" x="58.5" y="391.1245">TrackData receiveRfidRequest(int rfidNum)</text><ellipse cx="49.5" cy="400.7188" fill="#84BE84" rx="3" ry="3" style="stroke: #038048; stroke-width: 1.0;"/><text fill="#000000" font-family="sans-serif" font-size="11" font-style="italic" lengthAdjust="spacingAndGlyphs" textLength="291" x="58.5" y="403.9292">TrackData passToComm2WayInterface(int rfidNum)</text><text fill="#000000" font-family="sans-serif" font-size="11" lengthAdjust="spacingAndGlyphs" textLength="0" x="62.5" y="416.7339"/><line style="stroke: #A80036; stroke-width: 1.0; stroke-dasharray: 1.0,2.0;" x1="39.5" x2="192" y1="374.5117" y2="374.5117"/><text fill="#000000" font-family="sans-serif" font-size="11" lengthAdjust="spacingAndGlyphs" textLength="66" x="192" y="377.8198">Use Case 1</text><line style="stroke: #A80036; stroke-width: 1.0; stroke-dasharray: 1.0,2.0;" x1="258" x2="410.5" y1="374.5117" y2="374.5117"/><!--MD5=[46657c2900260d4d40350fe3f8c544df]
class DisplayComm2WayInterfaceImplementation--><rect fill="#FEFECE" filter="url(#f1cix6bvaunni9)" height="128.8281" id="DisplayComm2WayInterfaceImplementation" style="stroke: #A80036; stroke-width: 1.5;" width="464" x="447" y="294.5"/><ellipse cx="540.75" cy="310.5" fill="#ADD1B2" rx="11" ry="11" style="stroke: #A80036; stroke-width: 1.0;"/><path d="M543.7188,316.1406 Q543.1406,316.4375 542.5,316.5781 Q541.8594,316.7344 541.1563,316.7344 Q538.6563,316.7344 537.3281,315.0938 Q536.0156,313.4375 536.0156,310.3125 Q536.0156,307.1875 537.3281,305.5313 Q538.6563,303.875 541.1563,303.875 Q541.8594,303.875 542.5,304.0313 Q543.1563,304.1875 543.7188,304.4844 L543.7188,307.2031 Q543.0938,306.625 542.5,306.3594 Q541.9063,306.0781 541.2813,306.0781 Q539.9375,306.0781 539.25,307.1563 Q538.5625,308.2188 538.5625,310.3125 Q538.5625,312.4063 539.25,313.4844 Q539.9375,314.5469 541.2813,314.5469 Q541.9063,314.5469 542.5,314.2813 Q543.0938,314 543.7188,313.4219 L543.7188,316.1406 Z "/><text fill="#000000" font-family="sans-serif" font-size="12" lengthAdjust="spacingAndGlyphs" textLength="268" x="561.25" y="314.6543">DisplayComm2WayInterfaceImplementation</text><line style="stroke: #A80036; stroke-width: 1.5;" x1="448" x2="910" y1="326.5" y2="326.5"/><text fill="#000000" font-family="sans-serif" font-size="11" lengthAdjust="spacingAndGlyphs" textLength="182" x="453" y="340.7104">DisplayCommManager manager</text><line style="stroke: #A80036; stroke-width: 1.5;" x1="448" x2="910" y1="347.3047" y2="347.3047"/><ellipse cx="458" cy="358.3047" fill="#84BE84" rx="3" ry="3" style="stroke: #038048; stroke-width: 1.0;"/><text fill="#000000" font-family="sans-serif" font-size="11" font-style="italic" lengthAdjust="spacingAndGlyphs" textLength="438" x="467" y="361.5151">DisplayComm2WayInterfaceImplementation(DisplayCommManager manager)</text><ellipse cx="458" cy="387.9141" fill="#84BE84" rx="3" ry="3" style="stroke: #038048; stroke-width: 1.0;"/><text fill="#000000" font-family="sans-serif" font-size="11" font-style="italic" lengthAdjust="spacingAndGlyphs" textLength="226" x="467" y="391.1245">TrackData passRfidRequest(int rfidNum)</text><ellipse cx="458" cy="400.7188" fill="#84BE84" rx="3" ry="3" style="stroke: #038048; stroke-width: 1.0;"/><text fill="#000000" font-family="sans-serif" font-size="11" font-style="italic" lengthAdjust="spacingAndGlyphs" textLength="269" x="467" y="403.9292">void determineUserRequestFormat(int rfidNum)</text><ellipse cx="458" cy="413.5234" fill="#84BE84" rx="3" ry="3" style="stroke: #038048; stroke-width: 1.0;"/><text fill="#000000" font-family="sans-serif" font-size="11" font-style="italic" lengthAdjust="spacingAndGlyphs" textLength="344" x="467" y="416.7339">void receiveRequestFromDisplayCommInterface(int rfidNum)</text><line style="stroke: #A80036; stroke-width: 1.0; stroke-dasharray: 1.0,2.0;" x1="448" x2="646" y1="374.5117" y2="374.5117"/><text fill="#000000" font-family="sans-serif" font-size="11" lengthAdjust="spacingAndGlyphs" textLength="66" x="646" y="377.8198">Use Case 1</text><line style="stroke: #A80036; stroke-width: 1.0; stroke-dasharray: 1.0,2.0;" x1="712" x2="910" y1="374.5117" y2="374.5117"/><!--MD5=[3a27b63ddb357afc5dde5581215f51f9]
class DisplayCommManagerImplementation--><rect fill="#FEFECE" filter="url(#f1cix6bvaunni9)" height="141.6328" id="DisplayCommManagerImplementation" style="stroke: #A80036; stroke-width: 1.5;" width="470" x="946" y="288"/><ellipse cx="1059.75" cy="304" fill="#ADD1B2" rx="11" ry="11" style="stroke: #A80036; stroke-width: 1.0;"/><path d="M1062.7188,309.6406 Q1062.1406,309.9375 1061.5,310.0781 Q1060.8594,310.2344 1060.1563,310.2344 Q1057.6563,310.2344 1056.3281,308.5938 Q1055.0156,306.9375 1055.0156,303.8125 Q1055.0156,300.6875 1056.3281,299.0313 Q1057.6563,297.375 1060.1563,297.375 Q1060.8594,297.375 1061.5,297.5313 Q1062.1563,297.6875 1062.7188,297.9844 L1062.7188,300.7031 Q1062.0938,300.125 1061.5,299.8594 Q1060.9063,299.5781 1060.2813,299.5781 Q1058.9375,299.5781 1058.25,300.6563 Q1057.5625,301.7188 1057.5625,303.8125 Q1057.5625,305.9063 1058.25,306.9844 Q1058.9375,308.0469 1060.2813,308.0469 Q1060.9063,308.0469 1061.5,307.7813 Q1062.0938,307.5 1062.7188,306.9219 L1062.7188,309.6406 Z "/><text fill="#000000" font-family="sans-serif" font-size="12" lengthAdjust="spacingAndGlyphs" textLength="234" x="1080.25" y="308.1543">DisplayCommManagerImplementation</text><line style="stroke: #A80036; stroke-width: 1.5;" x1="947" x2="1415" y1="320" y2="320"/><text fill="#000000" font-family="sans-serif" font-size="11" lengthAdjust="spacingAndGlyphs" textLength="221" x="952" y="334.2104">MiddlewareCommInterface middleware</text><line style="stroke: #A80036; stroke-width: 1.5;" x1="947" x2="1415" y1="340.8047" y2="340.8047"/><ellipse cx="957" cy="351.8047" fill="#84BE84" rx="3" ry="3" style="stroke: #038048; stroke-width: 1.0;"/><text fill="#000000" font-family="sans-serif" font-size="11" font-style="italic" lengthAdjust="spacingAndGlyphs" textLength="444" x="966" y="355.0151">DisplayCommManagerImplementation(MiddlewareCommInterface middleware)</text><ellipse cx="957" cy="381.4141" fill="#84BE84" rx="3" ry="3" style="stroke: #038048; stroke-width: 1.0;"/><text fill="#000000" font-family="sans-serif" font-size="11" font-style="italic" lengthAdjust="spacingAndGlyphs" textLength="249" x="966" y="384.6245">TrackData evaluateRfidRequest(int rfidNum)</text><ellipse cx="957" cy="394.2188" fill="#84BE84" rx="3" ry="3" style="stroke: #038048; stroke-width: 1.0;"/><text fill="#000000" font-family="sans-serif" font-size="11" font-style="italic" lengthAdjust="spacingAndGlyphs" textLength="369" x="966" y="397.4292">TrackData passRequestToMiddlewareCommInterface(int rfidNum)</text><ellipse cx="957" cy="407.0234" fill="#84BE84" rx="3" ry="3" style="stroke: #038048; stroke-width: 1.0;"/><text fill="#000000" font-family="sans-serif" font-size="11" font-style="italic" lengthAdjust="spacingAndGlyphs" textLength="339" x="966" y="410.2339">void receiveRequestFromDisplay2WayInterface(int rfidNum)</text><text fill="#000000" font-family="sans-serif" font-size="11" lengthAdjust="spacingAndGlyphs" textLength="0" x="970" y="423.0386"/><line style="stroke: #A80036; stroke-width: 1.0; stroke-dasharray: 1.0,2.0;" x1="947" x2="1148" y1="368.0117" y2="368.0117"/><text fill="#000000" font-family="sans-serif" font-size="11" lengthAdjust="spacingAndGlyphs" textLength="66" x="1148" y="371.3198">Use Case 1</text><line style="stroke: #A80036; stroke-width: 1.0; stroke-dasharray: 1.0,2.0;" x1="1214" x2="1415" y1="368.0117" y2="368.0117"/><!--MD5=[d454b7777f115113290d89683d7a426c]
class DisplayCommInterfaceImplementationTests--><rect fill="#FEFECE" filter="url(#f1cix6bvaunni9)" height="48" id="DisplayCommInterfaceImplementationTests" style="stroke: #A80036; stroke-width: 1.5;" width="301" x="1472.5" y="88.5"/><ellipse cx="1487.5" cy="104.5" fill="#ADD1B2" rx="11" ry="11" style="stroke: #A80036; stroke-width: 1.0;"/><path d="M1490.4688,110.1406 Q1489.8906,110.4375 1489.25,110.5781 Q1488.6094,110.7344 1487.9063,110.7344 Q1485.4063,110.7344 1484.0781,109.0938 Q1482.7656,107.4375 1482.7656,104.3125 Q1482.7656,101.1875 1484.0781,99.5313 Q1485.4063,97.875 1487.9063,97.875 Q1488.6094,97.875 1489.25,98.0313 Q1489.9063,98.1875 1490.4688,98.4844 L1490.4688,101.2031 Q1489.8438,100.625 1489.25,100.3594 Q1488.6563,100.0781 1488.0313,100.0781 Q1486.6875,100.0781 1486,101.1563 Q1485.3125,102.2188 1485.3125,104.3125 Q1485.3125,106.4063 1486,107.4844 Q1486.6875,108.5469 1488.0313,108.5469 Q1488.6563,108.5469 1489.25,108.2813 Q1489.8438,108 1490.4688,107.4219 L1490.4688,110.1406 Z "/><text fill="#000000" font-family="sans-serif" font-size="12" lengthAdjust="spacingAndGlyphs" textLength="269" x="1501.5" y="108.6543">DisplayCommInterfaceImplementationTests</text><line style="stroke: #A80036; stroke-width: 1.5;" x1="1473.5" x2="1772.5" y1="120.5" y2="120.5"/><line style="stroke: #A80036; stroke-width: 1.5;" x1="1473.5" x2="1772.5" y1="128.5" y2="128.5"/><!--MD5=[a333ac13e0fdf2a5898aafabd38d3c1b]
class DisplayComm2WayInterfaceStub--><rect fill="#FEFECE" filter="url(#f1cix6bvaunni9)" height="77.6094" id="DisplayComm2WayInterfaceStub" style="stroke: #A80036; stroke-width: 1.5;" width="252" x="1485" y="320"/><ellipse cx="1509" cy="336" fill="#ADD1B2" rx="11" ry="11" style="stroke: #A80036; stroke-width: 1.0;"/><path d="M1511.9688,341.6406 Q1511.3906,341.9375 1510.75,342.0781 Q1510.1094,342.2344 1509.4063,342.2344 Q1506.9063,342.2344 1505.5781,340.5938 Q1504.2656,338.9375 1504.2656,335.8125 Q1504.2656,332.6875 1505.5781,331.0313 Q1506.9063,329.375 1509.4063,329.375 Q1510.1094,329.375 1510.75,329.5313 Q1511.4063,329.6875 1511.9688,329.9844 L1511.9688,332.7031 Q1511.3438,332.125 1510.75,331.8594 Q1510.1563,331.5781 1509.5313,331.5781 Q1508.1875,331.5781 1507.5,332.6563 Q1506.8125,333.7188 1506.8125,335.8125 Q1506.8125,337.9063 1507.5,338.9844 Q1508.1875,340.0469 1509.5313,340.0469 Q1510.1563,340.0469 1510.75,339.7813 Q1511.3438,339.5 1511.9688,338.9219 L1511.9688,341.6406 Z "/><text fill="#000000" font-family="sans-serif" font-size="12" lengthAdjust="spacingAndGlyphs" textLength="200" x="1525" y="340.1543">DisplayComm2WayInterfaceStub</text><line style="stroke: #A80036; stroke-width: 1.5;" x1="1486" x2="1736" y1="352" y2="352"/><line style="stroke: #A80036; stroke-width: 1.5;" x1="1486" x2="1736" y1="360" y2="360"/><ellipse cx="1496" cy="387.8047" fill="#84BE84" rx="3" ry="3" style="stroke: #038048; stroke-width: 1.0;"/><text fill="#000000" font-family="sans-serif" font-size="11" font-style="italic" lengthAdjust="spacingAndGlyphs" textLength="226" x="1505" y="391.0151">TrackData passRfidRequest(int rfidNum)</text><line style="stroke: #A80036; stroke-width: 1.0; stroke-dasharray: 1.0,2.0;" x1="1486" x2="1578" y1="374.4023" y2="374.4023"/><text fill="#000000" font-family="sans-serif" font-size="11" lengthAdjust="spacingAndGlyphs" textLength="66" x="1578" y="377.7104">Use Case 1</text><line style="stroke: #A80036; stroke-width: 1.0; stroke-dasharray: 1.0,2.0;" x1="1644" x2="1736" y1="374.4023" y2="374.4023"/><!--MD5=[178181f4c7684560c711246055fc01d3]
class DisplayComm2WayInterfaceImplementationTests--><rect fill="#FEFECE" filter="url(#f1cix6bvaunni9)" height="48" id="DisplayComm2WayInterfaceImplementationTests" style="stroke: #A80036; stroke-width: 1.5;" width="334" x="1809" y="88.5"/><ellipse cx="1824" cy="104.5" fill="#ADD1B2" rx="11" ry="11" style="stroke: #A80036; stroke-width: 1.0;"/><path d="M1826.9688,110.1406 Q1826.3906,110.4375 1825.75,110.5781 Q1825.1094,110.7344 1824.4063,110.7344 Q1821.9063,110.7344 1820.5781,109.0938 Q1819.2656,107.4375 1819.2656,104.3125 Q1819.2656,101.1875 1820.5781,99.5313 Q1821.9063,97.875 1824.4063,97.875 Q1825.1094,97.875 1825.75,98.0313 Q1826.4063,98.1875 1826.9688,98.4844 L1826.9688,101.2031 Q1826.3438,100.625 1825.75,100.3594 Q1825.1563,100.0781 1824.5313,100.0781 Q1823.1875,100.0781 1822.5,101.1563 Q1821.8125,102.2188 1821.8125,104.3125 Q1821.8125,106.4063 1822.5,107.4844 Q1823.1875,108.5469 1824.5313,108.5469 Q1825.1563,108.5469 1825.75,108.2813 Q1826.3438,108 1826.9688,107.4219 L1826.9688,110.1406 Z "/><text fill="#000000" font-family="sans-serif" font-size="12" lengthAdjust="spacingAndGlyphs" textLength="302" x="1838" y="108.6543">DisplayComm2WayInterfaceImplementationTests</text><line style="stroke: #A80036; stroke-width: 1.5;" x1="1810" x2="2142" y1="120.5" y2="120.5"/><line style="stroke: #A80036; stroke-width: 1.5;" x1="1810" x2="2142" y1="128.5" y2="128.5"/><!--MD5=[2970358178d6cf57fc5a801b39eb8d0b]
class DisplayCommManagerStub--><rect fill="#FEFECE" filter="url(#f1cix6bvaunni9)" height="77.6094" id="DisplayCommManagerStub" style="stroke: #A80036; stroke-width: 1.5;" width="273" x="1806.5" y="320"/><ellipse cx="1855.75" cy="336" fill="#ADD1B2" rx="11" ry="11" style="stroke: #A80036; stroke-width: 1.0;"/><path d="M1858.7188,341.6406 Q1858.1406,341.9375 1857.5,342.0781 Q1856.8594,342.2344 1856.1563,342.2344 Q1853.6563,342.2344 1852.3281,340.5938 Q1851.0156,338.9375 1851.0156,335.8125 Q1851.0156,332.6875 1852.3281,331.0313 Q1853.6563,329.375 1856.1563,329.375 Q1856.8594,329.375 1857.5,329.5313 Q1858.1563,329.6875 1858.7188,329.9844 L1858.7188,332.7031 Q1858.0938,332.125 1857.5,331.8594 Q1856.9063,331.5781 1856.2813,331.5781 Q1854.9375,331.5781 1854.25,332.6563 Q1853.5625,333.7188 1853.5625,335.8125 Q1853.5625,337.9063 1854.25,338.9844 Q1854.9375,340.0469 1856.2813,340.0469 Q1856.9063,340.0469 1857.5,339.7813 Q1858.0938,339.5 1858.7188,338.9219 L1858.7188,341.6406 Z "/><text fill="#000000" font-family="sans-serif" font-size="12" lengthAdjust="spacingAndGlyphs" textLength="166" x="1876.25" y="340.1543">DisplayCommManagerStub</text><line style="stroke: #A80036; stroke-width: 1.5;" x1="1807.5" x2="2078.5" y1="352" y2="352"/><line style="stroke: #A80036; stroke-width: 1.5;" x1="1807.5" x2="2078.5" y1="360" y2="360"/><ellipse cx="1817.5" cy="387.8047" fill="#84BE84" rx="3" ry="3" style="stroke: #038048; stroke-width: 1.0;"/><text fill="#000000" font-family="sans-serif" font-size="11" lengthAdjust="spacingAndGlyphs" textLength="247" x="1826.5" y="391.0151">TrackData evaluateRfidRequest(int rfidNum)</text><line style="stroke: #A80036; stroke-width: 1.0; stroke-dasharray: 1.0,2.0;" x1="1807.5" x2="1910" y1="374.4023" y2="374.4023"/><text fill="#000000" font-family="sans-serif" font-size="11" lengthAdjust="spacingAndGlyphs" textLength="66" x="1910" y="377.7104">Use Case 1</text><line style="stroke: #A80036; stroke-width: 1.0; stroke-dasharray: 1.0,2.0;" x1="1976" x2="2078.5" y1="374.4023" y2="374.4023"/><!--MD5=[937d6d8ff87a99d0d5dcd66ee05a1fa4]
class DisplayCommManagerImplementationTests--><rect fill="#FEFECE" filter="url(#f1cix6bvaunni9)" height="48" id="DisplayCommManagerImplementationTests" style="stroke: #A80036; stroke-width: 1.5;" width="300" x="2178" y="88.5"/><ellipse cx="2193" cy="104.5" fill="#ADD1B2" rx="11" ry="11" style="stroke: #A80036; stroke-width: 1.0;"/><path d="M2195.9688,110.1406 Q2195.3906,110.4375 2194.75,110.5781 Q2194.1094,110.7344 2193.4063,110.7344 Q2190.9063,110.7344 2189.5781,109.0938 Q2188.2656,107.4375 2188.2656,104.3125 Q2188.2656,101.1875 2189.5781,99.5313 Q2190.9063,97.875 2193.4063,97.875 Q2194.1094,97.875 2194.75,98.0313 Q2195.4063,98.1875 2195.9688,98.4844 L2195.9688,101.2031 Q2195.3438,100.625 2194.75,100.3594 Q2194.1563,100.0781 2193.5313,100.0781 Q2192.1875,100.0781 2191.5,101.1563 Q2190.8125,102.2188 2190.8125,104.3125 Q2190.8125,106.4063 2191.5,107.4844 Q2192.1875,108.5469 2193.5313,108.5469 Q2194.1563,108.5469 2194.75,108.2813 Q2195.3438,108 2195.9688,107.4219 L2195.9688,110.1406 Z "/><text fill="#000000" font-family="sans-serif" font-size="12" lengthAdjust="spacingAndGlyphs" textLength="268" x="2207" y="108.6543">DisplayCommManagerImplementationTests</text><line style="stroke: #A80036; stroke-width: 1.5;" x1="2179" x2="2477" y1="120.5" y2="120.5"/><line style="stroke: #A80036; stroke-width: 1.5;" x1="2179" x2="2477" y1="128.5" y2="128.5"/><!--MD5=[cf56a65163663c6c6c7b84cd7c204b97]
class MiddlewareCommInterfaceStub--><rect fill="#FEFECE" filter="url(#f1cix6bvaunni9)" height="77.6094" id="MiddlewareCommInterfaceStub" style="stroke: #A80036; stroke-width: 1.5;" width="225" x="2337.5" y="320"/><ellipse cx="2352.5" cy="336" fill="#ADD1B2" rx="11" ry="11" style="stroke: #A80036; stroke-width: 1.0;"/><path d="M2355.4688,341.6406 Q2354.8906,341.9375 2354.25,342.0781 Q2353.6094,342.2344 2352.9063,342.2344 Q2350.4063,342.2344 2349.0781,340.5938 Q2347.7656,338.9375 2347.7656,335.8125 Q2347.7656,332.6875 2349.0781,331.0313 Q2350.4063,329.375 2352.9063,329.375 Q2353.6094,329.375 2354.25,329.5313 Q2354.9063,329.6875 2355.4688,329.9844 L2355.4688,332.7031 Q2354.8438,332.125 2354.25,331.8594 Q2353.6563,331.5781 2353.0313,331.5781 Q2351.6875,331.5781 2351,332.6563 Q2350.3125,333.7188 2350.3125,335.8125 Q2350.3125,337.9063 2351,338.9844 Q2351.6875,340.0469 2353.0313,340.0469 Q2353.6563,340.0469 2354.25,339.7813 Q2354.8438,339.5 2355.4688,338.9219 L2355.4688,341.6406 Z "/><text fill="#000000" font-family="sans-serif" font-size="12" lengthAdjust="spacingAndGlyphs" textLength="193" x="2366.5" y="340.1543">MiddlewareCommInterfaceStub</text><line style="stroke: #A80036; stroke-width: 1.5;" x1="2338.5" x2="2561.5" y1="352" y2="352"/><line style="stroke: #A80036; stroke-width: 1.5;" x1="2338.5" x2="2561.5" y1="360" y2="360"/><ellipse cx="2348.5" cy="387.8047" fill="#84BE84" rx="3" ry="3" style="stroke: #038048; stroke-width: 1.0;"/><text fill="#000000" font-family="sans-serif" font-size="11" lengthAdjust="spacingAndGlyphs" textLength="171" x="2357.5" y="391.0151">TrackData requestRfid(int rfid)</text><line style="stroke: #A80036; stroke-width: 1.0; stroke-dasharray: 1.0,2.0;" x1="2338.5" x2="2417" y1="374.4023" y2="374.4023"/><text fill="#000000" font-family="sans-serif" font-size="11" lengthAdjust="spacingAndGlyphs" textLength="66" x="2417" y="377.7104">Use Case 1</text><line style="stroke: #A80036; stroke-width: 1.0; stroke-dasharray: 1.0,2.0;" x1="2483" x2="2561.5" y1="374.4023" y2="374.4023"/><!--MD5=[930c8140e7c1cb8e71aa7cd49967748e]
class TrackDataPlotterTests--><rect fill="#FEFECE" filter="url(#f1cix6bvaunni9)" height="48" id="TrackDataPlotterTests" style="stroke: #A80036; stroke-width: 1.5;" width="172" x="2513" y="88.5"/><ellipse cx="2528" cy="104.5" fill="#ADD1B2" rx="11" ry="11" style="stroke: #A80036; stroke-width: 1.0;"/><path d="M2530.9688,110.1406 Q2530.3906,110.4375 2529.75,110.5781 Q2529.1094,110.7344 2528.4063,110.7344 Q2525.9063,110.7344 2524.5781,109.0938 Q2523.2656,107.4375 2523.2656,104.3125 Q2523.2656,101.1875 2524.5781,99.5313 Q2525.9063,97.875 2528.4063,97.875 Q2529.1094,97.875 2529.75,98.0313 Q2530.4063,98.1875 2530.9688,98.4844 L2530.9688,101.2031 Q2530.3438,100.625 2529.75,100.3594 Q2529.1563,100.0781 2528.5313,100.0781 Q2527.1875,100.0781 2526.5,101.1563 Q2525.8125,102.2188 2525.8125,104.3125 Q2525.8125,106.4063 2526.5,107.4844 Q2527.1875,108.5469 2528.5313,108.5469 Q2529.1563,108.5469 2529.75,108.2813 Q2530.3438,108 2530.9688,107.4219 L2530.9688,110.1406 Z "/><text fill="#000000" font-family="sans-serif" font-size="12" lengthAdjust="spacingAndGlyphs" textLength="140" x="2542" y="108.6543">TrackDataPlotterTests</text><line style="stroke: #A80036; stroke-width: 1.5;" x1="2514" x2="2684" y1="120.5" y2="120.5"/><line style="stroke: #A80036; stroke-width: 1.5;" x1="2514" x2="2684" y1="128.5" y2="128.5"/><!--MD5=[d3cb230b9040bd9072bb1f490e167601]
class MiddlewareCommInterface--><rect fill="#FEFECE" filter="url(#f1cix6bvaunni9)" height="107.2188" id="MiddlewareCommInterface" style="stroke: #A80036; stroke-width: 1.5;" width="198" x="2741" y="59"/><ellipse cx="2756" cy="75" fill="#B4A7E5" rx="11" ry="11" style="stroke: #A80036; stroke-width: 1.0;"/><path d="M2751.9219,70.7656 L2751.9219,68.6094 L2759.3125,68.6094 L2759.3125,70.7656 L2756.8438,70.7656 L2756.8438,78.8438 L2759.3125,78.8438 L2759.3125,81 L2751.9219,81 L2751.9219,78.8438 L2754.3906,78.8438 L2754.3906,70.7656 L2751.9219,70.7656 Z "/><text fill="#000000" font-family="sans-serif" font-size="12" font-style="italic" lengthAdjust="spacingAndGlyphs" textLength="166" x="2770" y="79.1543">MiddlewareCommInterface</text><line style="stroke: #A80036; stroke-width: 1.5;" x1="2742" x2="2938" y1="91" y2="91"/><line style="stroke: #A80036; stroke-width: 1.5;" x1="2742" x2="2938" y1="99" y2="99"/><ellipse cx="2752" cy="126.8047" fill="#84BE84" rx="3" ry="3" style="stroke: #038048; stroke-width: 1.0;"/><text fill="#000000" font-family="sans-serif" font-size="11" font-style="italic" lengthAdjust="spacingAndGlyphs" textLength="171" x="2761" y="130.0151">TrackData requestRfid(int rfid)</text><line style="stroke: #A80036; stroke-width: 1.0; stroke-dasharray: 1.0,2.0;" x1="2742" x2="2807" y1="113.4023" y2="113.4023"/><text fill="#000000" font-family="sans-serif" font-size="11" lengthAdjust="spacingAndGlyphs" textLength="66" x="2807" y="116.7104">Use Case 1</text><line style="stroke: #A80036; stroke-width: 1.0; stroke-dasharray: 1.0,2.0;" x1="2873" x2="2938" y1="113.4023" y2="113.4023"/><text fill="#000000" font-family="sans-serif" font-size="11" lengthAdjust="spacingAndGlyphs" textLength="0" x="2751" y="159.6245"/><line style="stroke: #A80036; stroke-width: 1.0; stroke-dasharray: 1.0,2.0;" x1="2742" x2="2807" y1="143.0117" y2="143.0117"/><text fill="#000000" font-family="sans-serif" font-size="11" lengthAdjust="spacingAndGlyphs" textLength="66" x="2807" y="146.3198">Use Case 2</text><line style="stroke: #A80036; stroke-width: 1.0; stroke-dasharray: 1.0,2.0;" x1="2873" x2="2938" y1="143.0117" y2="143.0117"/><!--MD5=[c986427b061286eff33e87a088ad4bf9]
class TrackDataPlotter--><rect fill="#FEFECE" filter="url(#f1cix6bvaunni9)" height="236.0703" id="TrackDataPlotter" style="stroke: #A80036; stroke-width: 1.5;" width="291" x="2740.5" y="241"/><ellipse cx="2828.75" cy="257" fill="#ADD1B2" rx="11" ry="11" style="stroke: #A80036; stroke-width: 1.0;"/><path d="M2831.7188,262.6406 Q2831.1406,262.9375 2830.5,263.0781 Q2829.8594,263.2344 2829.1563,263.2344 Q2826.6563,263.2344 2825.3281,261.5938 Q2824.0156,259.9375 2824.0156,256.8125 Q2824.0156,253.6875 2825.3281,252.0313 Q2826.6563,250.375 2829.1563,250.375 Q2829.8594,250.375 2830.5,250.5313 Q2831.1563,250.6875 2831.7188,250.9844 L2831.7188,253.7031 Q2831.0938,253.125 2830.5,252.8594 Q2829.9063,252.5781 2829.2813,252.5781 Q2827.9375,252.5781 2827.25,253.6563 Q2826.5625,254.7188 2826.5625,256.8125 Q2826.5625,258.9063 2827.25,259.9844 Q2827.9375,261.0469 2829.2813,261.0469 Q2829.9063,261.0469 2830.5,260.7813 Q2831.0938,260.5 2831.7188,259.9219 L2831.7188,262.6406 Z "/><text fill="#000000" font-family="sans-serif" font-size="12" lengthAdjust="spacingAndGlyphs" textLength="106" x="2849.25" y="261.1543">TrackDataPlotter</text><line style="stroke: #A80036; stroke-width: 1.5;" x1="2741.5" x2="3030.5" y1="273" y2="273"/><rect fill="none" height="6" style="stroke: #C82930; stroke-width: 1.0;" width="6" x="2748.5" y="281"/><text fill="#000000" font-family="sans-serif" font-size="11" lengthAdjust="spacingAndGlyphs" textLength="86" x="2760.5" y="287.2104">TrackData data</text><rect fill="none" height="6" style="stroke: #C82930; stroke-width: 1.0;" width="6" x="2748.5" y="293.8047"/><text fill="#000000" font-family="sans-serif" font-size="11" lengthAdjust="spacingAndGlyphs" textLength="97" x="2760.5" y="300.0151">XYDataset points</text><rect fill="none" height="6" style="stroke: #C82930; stroke-width: 1.0;" width="6" x="2748.5" y="306.6094"/><text fill="#000000" font-family="sans-serif" font-size="11" lengthAdjust="spacingAndGlyphs" textLength="82" x="2760.5" y="312.8198">XYDataset line</text><rect fill="none" height="6" style="stroke: #C82930; stroke-width: 1.0;" width="6" x="2748.5" y="319.4141"/><text fill="#000000" font-family="sans-serif" font-size="11" lengthAdjust="spacingAndGlyphs" textLength="99" x="2760.5" y="325.6245">JFreeChart chart1</text><rect fill="none" height="6" style="stroke: #C82930; stroke-width: 1.0;" width="6" x="2748.5" y="332.2188"/><text fill="#000000" font-family="sans-serif" font-size="11" lengthAdjust="spacingAndGlyphs" textLength="99" x="2760.5" y="338.4292">JFreeChart chart2</text><rect fill="none" height="6" style="stroke: #C82930; stroke-width: 1.0;" width="6" x="2748.5" y="345.0234"/><text fill="#000000" font-family="sans-serif" font-size="11" lengthAdjust="spacingAndGlyphs" textLength="60" x="2760.5" y="351.2339">XYPlot plot</text><rect fill="none" height="6" style="stroke: #C82930; stroke-width: 1.0;" width="6" x="2748.5" y="357.8281"/><text fill="#000000" font-family="sans-serif" font-size="11" lengthAdjust="spacingAndGlyphs" textLength="133" x="2760.5" y="364.0386">ChartPanel chartPanel1</text><rect fill="none" height="6" style="stroke: #C82930; stroke-width: 1.0;" width="6" x="2748.5" y="370.6328"/><text fill="#000000" font-family="sans-serif" font-size="11" lengthAdjust="spacingAndGlyphs" textLength="133" x="2760.5" y="376.8433">ChartPanel chartPanel2</text><text fill="#000000" font-family="sans-serif" font-size="11" lengthAdjust="spacingAndGlyphs" textLength="6" x="2760.5" y="389.6479">_</text><ellipse cx="2751.5" cy="399.2422" fill="#84BE84" rx="3" ry="3" style="stroke: #038048; stroke-width: 1.0;"/><text fill="#000000" font-family="sans-serif" font-size="11" lengthAdjust="spacingAndGlyphs" textLength="188" x="2760.5" y="402.4526">TrackDataPlotter(TrackData data)</text><rect fill="#F24D5C" height="6" style="stroke: #C82930; stroke-width: 1.0;" width="6" x="2748.5" y="425.8516"/><text fill="#000000" font-family="sans-serif" font-size="11" lengthAdjust="spacingAndGlyphs" textLength="138" x="2760.5" y="432.062">XYSeries getTrackData()</text><rect fill="#F24D5C" height="6" style="stroke: #C82930; stroke-width: 1.0;" width="6" x="2748.5" y="438.6563"/><text fill="#000000" font-family="sans-serif" font-size="11" lengthAdjust="spacingAndGlyphs" textLength="208" x="2760.5" y="444.8667">XYSeries calculateLine(int[] x, int[] y)</text><rect fill="#F24D5C" height="6" style="stroke: #C82930; stroke-width: 1.0;" width="6" x="2748.5" y="451.4609"/><text fill="#000000" font-family="sans-serif" font-size="11" lengthAdjust="spacingAndGlyphs" textLength="262" x="2760.5" y="457.6714">int[] extractLatFromTrackData(TrackData data)</text><rect fill="#F24D5C" height="6" style="stroke: #C82930; stroke-width: 1.0;" width="6" x="2748.5" y="464.2656"/><text fill="#000000" font-family="sans-serif" font-size="11" lengthAdjust="spacingAndGlyphs" textLength="265" x="2760.5" y="470.4761">int[] extractLngFromTrackData(TrackData data)</text><line style="stroke: #A80036; stroke-width: 1.0; stroke-dasharray: 1.0,2.0;" x1="2741.5" x2="2853" y1="415.4492" y2="415.4492"/><text fill="#000000" font-family="sans-serif" font-size="11" lengthAdjust="spacingAndGlyphs" textLength="66" x="2853" y="418.7573">Use Case 1</text><line style="stroke: #A80036; stroke-width: 1.0; stroke-dasharray: 1.0,2.0;" x1="2919" x2="3030.5" y1="415.4492" y2="415.4492"/><!--MD5=[77bc37423dd8876786830fad4054e33b]
reverse link DisplayCommInterface to DisplayCommInterfaceImplementation--><path d="M225,171.77 C225,208.7 225,256.48 225,294.4 " fill="none" id="DisplayCommInterface&lt;-DisplayCommInterfaceImplementation" style="stroke: #A80036; stroke-width: 1.0; stroke-dasharray: 7.0,7.0;"/><polygon fill="none" points="218,171.7,225,151.7,232,171.7,218,171.7" style="stroke: #A80036; stroke-width: 1.0;"/><!--MD5=[4e991cf787e933c55089f97eae394828]
reverse link DisplayComm2WayInterface to DisplayComm2WayInterfaceImplementation--><path d="M775.26,169.72 C756.24,206.92 731.26,255.78 711.52,294.4 " fill="none" id="DisplayComm2WayInterface&lt;-DisplayComm2WayInterfaceImplementation" style="stroke: #A80036; stroke-width: 1.0; stroke-dasharray: 7.0,7.0;"/><polygon fill="none" points="769.13,166.32,784.47,151.7,781.6,172.7,769.13,166.32" style="stroke: #A80036; stroke-width: 1.0;"/><!--MD5=[5beed6c3c7e4a84a4bfaa95bdf8cce79]
reverse link DisplayCommManager to DisplayCommManagerImplementation--><path d="M1217.62,171.45 C1210.79,206.26 1202.05,250.79 1194.82,287.61 " fill="none" id="DisplayCommManager&lt;-DisplayCommManagerImplementation" style="stroke: #A80036; stroke-width: 1.0; stroke-dasharray: 7.0,7.0;"/><polygon fill="none" points="1210.78,169.98,1221.5,151.7,1224.52,172.68,1210.78,169.98" style="stroke: #A80036; stroke-width: 1.0;"/><!--MD5=[6aaeadb42451b39b4e2cdcf83e2bb4cd]
reverse link DisplayComm2WayInterface to DisplayComm2WayInterfaceStub--><path d="M933.42,157.37 C977.5,170.37 1027.42,183 1074,190 C1113.35,195.92 1394.99,183.39 1432,198 C1495.2,222.94 1550.49,280.99 1582.32,319.87 " fill="none" id="DisplayComm2WayInterface&lt;-DisplayComm2WayInterfaceStub" style="stroke: #A80036; stroke-width: 1.0; stroke-dasharray: 7.0,7.0;"/><polygon fill="none" points="931.39,164.07,914.27,151.59,935.44,150.66,931.39,164.07" style="stroke: #A80036; stroke-width: 1.0;"/><!--MD5=[9a02b467888c5123255f55ebe5217d7a]
link DisplayCommInterfaceImplementationTests to DisplayComm2WayInterfaceStub--><path d="M1621.87,136.5 C1619.87,177.19 1615.69,262.45 1613.13,314.52 " fill="none" id="DisplayCommInterfaceImplementationTests-&gt;DisplayComm2WayInterfaceStub" style="stroke: #A80036; stroke-width: 1.0; stroke-dasharray: 7.0,7.0;"/><polygon fill="#A80036" points="1612.88,319.76,1617.3119,310.9647,1613.1226,314.7659,1609.3213,310.5765,1612.88,319.76" style="stroke: #A80036; stroke-width: 1.0;"/><!--MD5=[0cd290e6298e838268680010d5032c0d]
link DisplayCommInterfaceImplementationTests to DisplayCommInterfaceImplementation--><path d="M1578.92,136.66 C1541.11,155.16 1484.57,179.65 1432,190 C1377.38,200.76 482.57,179.68 430,198 C376.32,216.71 325.85,255.72 288.42,290.54 " fill="none" id="DisplayCommInterfaceImplementationTests-&gt;DisplayCommInterfaceImplementation" style="stroke: #A80036; stroke-width: 1.0; stroke-dasharray: 7.0,7.0;"/><polygon fill="#A80036" points="284.39,294.32,293.692,291.0839,288.0381,290.9008,288.2213,285.2469,284.39,294.32" style="stroke: #A80036; stroke-width: 1.0;"/><!--MD5=[e6e0d8b3e0f7bf14f11c0899b3ad37ae]
reverse link DisplayCommManager to DisplayCommManagerStub--><path d="M1340.32,158.38 C1376.6,171 1417.47,183.15 1456,190 C1488.72,195.82 1723.97,186.11 1755,198 C1820.23,223 1878.61,281.03 1912.42,319.89 " fill="none" id="DisplayCommManager&lt;-DisplayCommManagerStub" style="stroke: #A80036; stroke-width: 1.0; stroke-dasharray: 7.0,7.0;"/><polygon fill="none" points="1337.71,164.88,1321.24,151.55,1342.42,151.7,1337.71,164.88" style="stroke: #A80036; stroke-width: 1.0;"/><!--MD5=[69695ace36e753468876c8d4fe5d2708]
link DisplayComm2WayInterfaceImplementationTests to DisplayCommManagerStub--><path d="M1972.9,136.5 C1967.4,177.19 1955.9,262.45 1948.87,314.52 " fill="none" id="DisplayComm2WayInterfaceImplementationTests-&gt;DisplayCommManagerStub" style="stroke: #A80036; stroke-width: 1.0; stroke-dasharray: 7.0,7.0;"/><polygon fill="#A80036" points="1948.16,319.76,1953.335,311.3803,1948.833,314.8055,1945.4078,310.3035,1948.16,319.76" style="stroke: #A80036; stroke-width: 1.0;"/><!--MD5=[ce67f838794c14794f693dd46a642b9a]
link DisplayComm2WayInterfaceImplementationTests to DisplayComm2WayInterfaceImplementation--><path d="M1933.39,136.64 C1896.82,155.13 1842.09,179.61 1791,190 C1744.07,199.55 974.9,184.34 929,198 C866.32,216.66 804.34,256.14 757.77,291.22 " fill="none" id="DisplayComm2WayInterfaceImplementationTests-&gt;DisplayComm2WayInterfaceImplementation" style="stroke: #A80036; stroke-width: 1.0; stroke-dasharray: 7.0,7.0;"/><polygon fill="#A80036" points="753.6,294.38,763.1911,292.1416,757.588,291.364,758.3655,285.7609,753.6,294.38" style="stroke: #A80036; stroke-width: 1.0;"/><!--MD5=[72cb9e2c0df516d67fcc7a3605b88acd]
reverse link MiddlewareCommInterface to MiddlewareCommInterfaceStub--><path d="M2738.48,177.15 C2666.23,222.44 2571.57,281.79 2510.75,319.91 " fill="none" id="MiddlewareCommInterface&lt;-MiddlewareCommInterfaceStub" style="stroke: #A80036; stroke-width: 1.0; stroke-dasharray: 7.0,7.0;"/><polygon fill="none" points="2735.19,170.94,2755.86,166.25,2742.63,182.81,2735.19,170.94" style="stroke: #A80036; stroke-width: 1.0;"/><!--MD5=[a3caa78d97a9caf08bd2afaaae1510f4]
link DisplayCommManagerImplementationTests to MiddlewareCommInterfaceStub--><path d="M2339.48,136.5 C2359.86,177.35 2402.67,263.14 2428.62,315.15 " fill="none" id="DisplayCommManagerImplementationTests-&gt;MiddlewareCommInterfaceStub" style="stroke: #A80036; stroke-width: 1.0; stroke-dasharray: 7.0,7.0;"/><polygon fill="#A80036" points="2430.92,319.76,2430.4854,309.9207,2428.6897,315.285,2423.3254,313.4893,2430.92,319.76" style="stroke: #A80036; stroke-width: 1.0;"/><!--MD5=[6f3abcadcd809ea193290ea1cf8b820a]
link DisplayCommManagerImplementationTests to DisplayCommManagerImplementation--><path d="M2289.82,136.61 C2256.99,155.07 2207.68,179.54 2161,190 C2084.56,207.13 1531.52,177.17 1456,198 C1392.3,215.57 1328.07,251.66 1277.73,285.13 " fill="none" id="DisplayCommManagerImplementationTests-&gt;DisplayCommManagerImplementation" style="stroke: #A80036; stroke-width: 1.0; stroke-dasharray: 7.0,7.0;"/><polygon fill="#A80036" points="1273.52,287.94,1283.2233,286.2528,1277.6737,285.1566,1278.7699,279.607,1273.52,287.94" style="stroke: #A80036; stroke-width: 1.0;"/><!--MD5=[f24e7409bf4fec90fef0ed7e05f90b9b]
link TrackDataPlotterTests to TrackDataPlotter--><path d="M2627.28,136.65 C2647.82,153.55 2676.25,177.05 2701,198 C2716.01,210.71 2731.65,224.06 2747.2,237.4 " fill="none" id="TrackDataPlotterTests-&gt;TrackDataPlotter" style="stroke: #A80036; stroke-width: 1.0; stroke-dasharray: 7.0,7.0;"/><polygon fill="#A80036" points="2751.15,240.79,2746.9199,231.8959,2747.3537,237.536,2741.7135,237.9699,2751.15,240.79" style="stroke: #A80036; stroke-width: 1.0;"/><!--MD5=[c92d30e5029b50e54bac40b823aa5a19]
@startuml Display02Packages_Closure


package edu.oakland.production.display02 {
    
}



package edu.oakland.production.display02 {
    interface DisplayCommInterface {
        __
        .. Use Case 1 ..
        {abstract} + TrackData receiveRfidRequest(int rfidNum)
    }
}








package edu.oakland.production.display02 {
    interface DisplayComm2WayInterface {
        __
        .. Use Case 1 ..
        {abstract} + TrackData passRfidRequest(int rfidNum)
    }
}








package edu.oakland.production.display02 {
    interface DisplayCommManager {
        __
        .. Use Case 1 ..
        {abstract} + TrackData evaluateRfidRequest(int rfidNum)
    }
}








package edu.oakland.production.display02 {
    class DisplayCommInterfaceImplementation {
        DisplayComm2WayInterface receiver
        __
        {abstract} + DisplayCommInterface(DisplayComm2WayInterface receiver)
        .. Use Case 1 ..
        {abstract} + TrackData receiveRfidRequest(int rfidNum)
        {abstract} + TrackData passToComm2WayInterface(int rfidNum)

    }
}


DisplayCommInterfaceImplementation .up.|> DisplayCommInterface







package edu.oakland.production.display02 {
    class DisplayComm2WayInterfaceImplementation {
        DisplayCommManager manager
        __
        {abstract} + DisplayComm2WayInterfaceImplementation(DisplayCommManager manager)
        .. Use Case 1 ..
        {abstract} + TrackData passRfidRequest(int rfidNum)
        {abstract} + void determineUserRequestFormat(int rfidNum)
        {abstract} + void receiveRequestFromDisplayCommInterface(int rfidNum)
    }
}


DisplayComm2WayInterfaceImplementation .up.|> DisplayComm2WayInterface







package edu.oakland.production.display02 {
    class DisplayCommManagerImplementation {
        MiddlewareCommInterface middleware
        __
        {abstract} + DisplayCommManagerImplementation(MiddlewareCommInterface middleware)
        .. Use Case 1 ..
        {abstract} + TrackData evaluateRfidRequest(int rfidNum)
        {abstract} + TrackData passRequestToMiddlewareCommInterface(int rfidNum)
        {abstract} + void receiveRequestFromDisplay2WayInterface(int rfidNum)

    }
}


DisplayCommManagerImplementation .up.|> DisplayCommManager







package edu.oakland.test.display02 {
    
}



package edu.oakland.test.display02 {
    class DisplayCommInterfaceImplementationTests {

    }
}




package edu.oakland.test.display02 {
    class DisplayComm2WayInterfaceStub {
        __
        .. Use Case 1 ..
        {abstract} + TrackData passRfidRequest(int rfidNum)
    }
}


DisplayComm2WayInterfaceStub .up.|> DisplayComm2WayInterface



DisplayCommInterfaceImplementationTests ..> DisplayComm2WayInterfaceStub

DisplayCommInterfaceImplementationTests ..> DisplayCommInterfaceImplementation





package edu.oakland.test.display02 {
    class DisplayComm2WayInterfaceImplementationTests {

    }
}




package edu.oakland.test.display02 {
    class DisplayCommManagerStub {
        __
        .. Use Case 1 ..
        + TrackData evaluateRfidRequest(int rfidNum)
    }
}


DisplayCommManagerStub .up.|> DisplayCommManager



DisplayComm2WayInterfaceImplementationTests ..> DisplayCommManagerStub

DisplayComm2WayInterfaceImplementationTests ..> DisplayComm2WayInterfaceImplementation





package edu.oakland.test.display02 {
    class DisplayCommManagerImplementationTests {

    }
}




package edu.oakland.test.display02 {
    class MiddlewareCommInterfaceStub {
        __
        .. Use Case 1 ..
        + TrackData requestRfid(int rfid)
    }
}






package edu.oakland.production.middleware02 {
    interface MiddlewareCommInterface {
        __
        .. Use Case 1 ..
        {abstract} + TrackData requestRfid(int rfid)
        .. Use Case 2 ..

    }
}






MiddlewareCommInterfaceStub .up.|> MiddlewareCommInterface

DisplayCommManagerImplementationTests ..> MiddlewareCommInterfaceStub

DisplayCommManagerImplementationTests ..> DisplayCommManagerImplementation





package edu.oakland.test.display02 {
    class TrackDataPlotterTests {

    }
}




package edu.oakland.helper.display02 {
    class TrackDataPlotter {
        - TrackData data
        - XYDataset points
        - XYDataset line
        - JFreeChart chart1
        - JFreeChart chart2
        - XYPlot plot
        - ChartPanel chartPanel1
        - ChartPanel chartPanel2
        _
        + TrackDataPlotter(TrackData data)
        .. Use Case 1 ..
        - XYSeries getTrackData()
        - XYSeries calculateLine(int[] x, int[] y)
        - int[] extractLatFromTrackData(TrackData data)
        - int[] extractLngFromTrackData(TrackData data)
    }
}






TrackDataPlotterTests ..> TrackDataPlotter





package edu.oakland.helper.display02 {
    
}



@enduml

PlantUML version 1.2020.02(Sun Mar 01 10:22:07 GMT 2020)
(GPL source distribution)
Java Runtime: OpenJDK Runtime Environment
JVM: OpenJDK 64-Bit Server VM
Java Version: 11.0.9+11-Ubuntu-0ubuntu1
Operating System: Linux
Default Encoding: ANSI_X3.4-1968
Language: en
Country: US
--></g></svg>