<?xml version="1.0" encoding="UTF-8" standalone="no"?><svg xmlns="http://www.w3.org/2000/svg" xmlns:xlink="http://www.w3.org/1999/xlink" contentScriptType="application/ecmascript" contentStyleType="text/css" height="505px" preserveAspectRatio="none" style="width:3062px;height:505px;" version="1.1" viewBox="0 0 3062 505" width="3062px" zoomAndPan="magnify"><defs><filter height="300%" id="f1tppquop0gz1o" width="300%" x="-1" y="-1"><feGaussianBlur result="blurOut" stdDeviation="2.0"/><feColorMatrix in="blurOut" result="blurOut2" type="matrix" values="0 0 0 0 0 0 0 0 0 0 0 0 0 0 0 0 0 0 .4 0"/><feOffset dx="4.0" dy="4.0" in="blurOut2" result="blurOut3"/><feBlend in="SourceGraphic" in2="blurOut3" mode="normal"/></filter></defs><g><!--MD5=[fe59aae6f7bfe371a9c197ec1f7f843a]
cluster edu.oakland.production.display02--><polygon fill="#FFFFFF" filter="url(#f1tppquop0gz1o)" points="22,38.5,295,38.5,302,60.7969,1425,60.7969,1425,446,22,446,22,38.5" style="stroke: #000000; stroke-width: 1.5;"/><line style="stroke: #000000; stroke-width: 1.5;" x1="22" x2="302" y1="60.7969" y2="60.7969"/><text fill="#000000" font-family="sans-serif" font-size="14" font-weight="bold" lengthAdjust="spacingAndGlyphs" textLength="267" x="26" y="53.4951">edu.oakland.production.display02</text><!--MD5=[9258003ec405d300d3379b4a3d8dd6ad]
cluster edu.oakland.test.display02--><polygon fill="#FFFFFF" filter="url(#f1tppquop0gz1o)" points="1449,53.5,1667,53.5,1674,75.7969,2694,75.7969,2694,414,1449,414,1449,53.5" style="stroke: #000000; stroke-width: 1.5;"/><line style="stroke: #000000; stroke-width: 1.5;" x1="1449" x2="1674" y1="75.7969" y2="75.7969"/><text fill="#000000" font-family="sans-serif" font-size="14" font-weight="bold" lengthAdjust="spacingAndGlyphs" textLength="212" x="1453" y="68.4951">edu.oakland.test.display02</text><!--MD5=[33504725b8a69ba2207f0a836957a91c]
cluster edu.oakland.production.middleware02--><polygon fill="#FFFFFF" filter="url(#f1tppquop0gz1o)" points="2718,24,3028,24,3035,46.2969,3038,46.2969,3038,182,2718,182,2718,24" style="stroke: #000000; stroke-width: 1.5;"/><line style="stroke: #000000; stroke-width: 1.5;" x1="2718" x2="3035" y1="46.2969" y2="46.2969"/><text fill="#000000" font-family="sans-serif" font-size="14" font-weight="bold" lengthAdjust="spacingAndGlyphs" textLength="304" x="2722" y="38.9951">edu.oakland.production.middleware02</text><!--MD5=[a502031b5a5384de0a21e6ee820fd3b2]
cluster edu.oakland.helper.display02--><polygon fill="#FFFFFF" filter="url(#f1tppquop0gz1o)" points="2718,206,2956,206,2963,228.2969,3040,228.2969,3040,493,2718,493,2718,206" style="stroke: #000000; stroke-width: 1.5;"/><line style="stroke: #000000; stroke-width: 1.5;" x1="2718" x2="2963" y1="228.2969" y2="228.2969"/><text fill="#000000" font-family="sans-serif" font-size="14" font-weight="bold" lengthAdjust="spacingAndGlyphs" textLength="232" x="2722" y="220.9951">edu.oakland.helper.display02</text><!--MD5=[c8d1e3134fecb0c949fd2a76cc0bb992]
class DisplayCommInterface--><rect fill="#FEFECE" filter="url(#f1tppquop0gz1o)" height="77.6094" id="DisplayCommInterface" style="stroke: #A80036; stroke-width: 1.5;" width="268" x="89" y="73.5"/><ellipse cx="149.25" cy="89.5" fill="#B4A7E5" rx="11" ry="11" style="stroke: #A80036; stroke-width: 1.0;"/><path d="M145.1719,85.2656 L145.1719,83.1094 L152.5625,83.1094 L152.5625,85.2656 L150.0938,85.2656 L150.0938,93.3438 L152.5625,93.3438 L152.5625,95.5 L145.1719,95.5 L145.1719,93.3438 L147.6406,93.3438 L147.6406,85.2656 L145.1719,85.2656 Z "/><text fill="#000000" font-family="sans-serif" font-size="12" font-style="italic" lengthAdjust="spacingAndGlyphs" textLength="139" x="169.75" y="93.6543">DisplayCommInterface</text><line style="stroke: #A80036; stroke-width: 1.5;" x1="90" x2="356" y1="105.5" y2="105.5"/><line style="stroke: #A80036; stroke-width: 1.5;" x1="90" x2="356" y1="113.5" y2="113.5"/><ellipse cx="100" cy="141.3047" fill="#84BE84" rx="3" ry="3" style="stroke: #038048; stroke-width: 1.0;"/><text fill="#000000" font-family="sans-serif" font-size="11" font-style="italic" lengthAdjust="spacingAndGlyphs" textLength="242" x="109" y="144.5151">TrackData receiveRfidRequest(int rfidNum)</text><line style="stroke: #A80036; stroke-width: 1.0; stroke-dasharray: 1.0,2.0;" x1="90" x2="190" y1="127.9023" y2="127.9023"/><text fill="#000000" font-family="sans-serif" font-size="11" lengthAdjust="spacingAndGlyphs" textLength="66" x="190" y="131.2104">Use Case 1</text><line style="stroke: #A80036; stroke-width: 1.0; stroke-dasharray: 1.0,2.0;" x1="256" x2="356" y1="127.9023" y2="127.9023"/><!--MD5=[f6b51b5f862da5ce226c62e411e84628]
class DisplayComm2WayInterface--><rect fill="#FEFECE" filter="url(#f1tppquop0gz1o)" height="77.6094" id="DisplayComm2WayInterface" style="stroke: #A80036; stroke-width: 1.5;" width="252" x="672" y="73.5"/><ellipse cx="707.7" cy="89.5" fill="#B4A7E5" rx="11" ry="11" style="stroke: #A80036; stroke-width: 1.0;"/><path d="M703.6219,85.2656 L703.6219,83.1094 L711.0125,83.1094 L711.0125,85.2656 L708.5438,85.2656 L708.5438,93.3438 L711.0125,93.3438 L711.0125,95.5 L703.6219,95.5 L703.6219,93.3438 L706.0906,93.3438 L706.0906,85.2656 L703.6219,85.2656 Z "/><text fill="#000000" font-family="sans-serif" font-size="12" font-style="italic" lengthAdjust="spacingAndGlyphs" textLength="174" x="726.3" y="93.6543">DisplayComm2WayInterface</text><line style="stroke: #A80036; stroke-width: 1.5;" x1="673" x2="923" y1="105.5" y2="105.5"/><line style="stroke: #A80036; stroke-width: 1.5;" x1="673" x2="923" y1="113.5" y2="113.5"/><ellipse cx="683" cy="141.3047" fill="#84BE84" rx="3" ry="3" style="stroke: #038048; stroke-width: 1.0;"/><text fill="#000000" font-family="sans-serif" font-size="11" font-style="italic" lengthAdjust="spacingAndGlyphs" textLength="226" x="692" y="144.5151">TrackData passRfidRequest(int rfidNum)</text><line style="stroke: #A80036; stroke-width: 1.0; stroke-dasharray: 1.0,2.0;" x1="673" x2="765" y1="127.9023" y2="127.9023"/><text fill="#000000" font-family="sans-serif" font-size="11" lengthAdjust="spacingAndGlyphs" textLength="66" x="765" y="131.2104">Use Case 1</text><line style="stroke: #A80036; stroke-width: 1.0; stroke-dasharray: 1.0,2.0;" x1="831" x2="923" y1="127.9023" y2="127.9023"/><!--MD5=[6aeb72f2773d7cabb45309482beeff0a]
class DisplayCommManager--><rect fill="#FEFECE" filter="url(#f1tppquop0gz1o)" height="77.6094" id="DisplayCommManager" style="stroke: #A80036; stroke-width: 1.5;" width="275" x="1084.5" y="73.5"/><ellipse cx="1149.25" cy="89.5" fill="#B4A7E5" rx="11" ry="11" style="stroke: #A80036; stroke-width: 1.0;"/><path d="M1145.1719,85.2656 L1145.1719,83.1094 L1152.5625,83.1094 L1152.5625,85.2656 L1150.0938,85.2656 L1150.0938,93.3438 L1152.5625,93.3438 L1152.5625,95.5 L1145.1719,95.5 L1145.1719,93.3438 L1147.6406,93.3438 L1147.6406,85.2656 L1145.1719,85.2656 Z "/><text fill="#000000" font-family="sans-serif" font-size="12" font-style="italic" lengthAdjust="spacingAndGlyphs" textLength="137" x="1169.75" y="93.6543">DisplayCommManager</text><line style="stroke: #A80036; stroke-width: 1.5;" x1="1085.5" x2="1358.5" y1="105.5" y2="105.5"/><line style="stroke: #A80036; stroke-width: 1.5;" x1="1085.5" x2="1358.5" y1="113.5" y2="113.5"/><ellipse cx="1095.5" cy="141.3047" fill="#84BE84" rx="3" ry="3" style="stroke: #038048; stroke-width: 1.0;"/><text fill="#000000" font-family="sans-serif" font-size="11" font-style="italic" lengthAdjust="spacingAndGlyphs" textLength="249" x="1104.5" y="144.5151">TrackData evaluateRfidRequest(int rfidNum)</text><line style="stroke: #A80036; stroke-width: 1.0; stroke-dasharray: 1.0,2.0;" x1="1085.5" x2="1189" y1="127.9023" y2="127.9023"/><text fill="#000000" font-family="sans-serif" font-size="11" lengthAdjust="spacingAndGlyphs" textLength="66" x="1189" y="131.2104">Use Case 1</text><line style="stroke: #A80036; stroke-width: 1.0; stroke-dasharray: 1.0,2.0;" x1="1255" x2="1358.5" y1="127.9023" y2="127.9023"/><!--MD5=[a35092e604da7274febf4e2cf9a25087]
class DisplayCommInterfaceImplementation--><rect fill="#FEFECE" filter="url(#f1tppquop0gz1o)" height="128.8281" id="DisplayCommInterfaceImplementation" style="stroke: #A80036; stroke-width: 1.5;" width="369" x="38.5" y="294.5"/><ellipse cx="101.25" cy="310.5" fill="#ADD1B2" rx="11" ry="11" style="stroke: #A80036; stroke-width: 1.0;"/><path d="M104.2188,316.1406 Q103.6406,316.4375 103,316.5781 Q102.3594,316.7344 101.6563,316.7344 Q99.1563,316.7344 97.8281,315.0938 Q96.5156,313.4375 96.5156,310.3125 Q96.5156,307.1875 97.8281,305.5313 Q99.1563,303.875 101.6563,303.875 Q102.3594,303.875 103,304.0313 Q103.6563,304.1875 104.2188,304.4844 L104.2188,307.2031 Q103.5938,306.625 103,306.3594 Q102.4063,306.0781 101.7813,306.0781 Q100.4375,306.0781 99.75,307.1563 Q99.0625,308.2188 99.0625,310.3125 Q99.0625,312.4063 99.75,313.4844 Q100.4375,314.5469 101.7813,314.5469 Q102.4063,314.5469 103,314.2813 Q103.5938,314 104.2188,313.4219 L104.2188,316.1406 Z "/><text fill="#000000" font-family="sans-serif" font-size="12" lengthAdjust="spacingAndGlyphs" textLength="235" x="121.75" y="314.6543">DisplayCommInterfaceImplementation</text><line style="stroke: #A80036; stroke-width: 1.5;" x1="39.5" x2="406.5" y1="326.5" y2="326.5"/><rect fill="none" height="6" style="stroke: #C82930; stroke-width: 1.0;" width="6" x="46.5" y="334.5"/><text fill="#000000" font-family="sans-serif" font-size="11" lengthAdjust="spacingAndGlyphs" textLength="207" x="58.5" y="340.7104">DisplayComm2WayInterface receiver</text><line style="stroke: #A80036; stroke-width: 1.5;" x1="39.5" x2="406.5" y1="347.3047" y2="347.3047"/><ellipse cx="49.5" cy="358.3047" fill="#84BE84" rx="3" ry="3" style="stroke: #038048; stroke-width: 1.0;"/><text fill="#000000" font-family="sans-serif" font-size="11" lengthAdjust="spacingAndGlyphs" textLength="343" x="58.5" y="361.5151">DisplayCommInterface(DisplayComm2WayInterface receiver)</text><ellipse cx="49.5" cy="387.9141" fill="#84BE84" rx="3" ry="3" style="stroke: #038048; stroke-width: 1.0;"/><text fill="#000000" font-family="sans-serif" font-size="11" lengthAdjust="spacingAndGlyphs" textLength="240" x="58.5" y="391.1245">TrackData receiveRfidRequest(int rfidNum)</text><rect fill="#F24D5C" height="6" style="stroke: #C82930; stroke-width: 1.0;" width="6" x="46.5" y="397.7188"/><text fill="#000000" font-family="sans-serif" font-size="11" lengthAdjust="spacingAndGlyphs" textLength="290" x="58.5" y="403.9292">TrackData passToComm2WayInterface(int rfidNum)</text><text fill="#000000" font-family="sans-serif" font-size="11" lengthAdjust="spacingAndGlyphs" textLength="0" x="62.5" y="416.7339"/><line style="stroke: #A80036; stroke-width: 1.0; stroke-dasharray: 1.0,2.0;" x1="39.5" x2="190" y1="374.5117" y2="374.5117"/><text fill="#000000" font-family="sans-serif" font-size="11" lengthAdjust="spacingAndGlyphs" textLength="66" x="190" y="377.8198">Use Case 1</text><line style="stroke: #A80036; stroke-width: 1.0; stroke-dasharray: 1.0,2.0;" x1="256" x2="406.5" y1="374.5117" y2="374.5117"/><!--MD5=[46657c2900260d4d40350fe3f8c544df]
class DisplayComm2WayInterfaceImplementation--><rect fill="#FEFECE" filter="url(#f1tppquop0gz1o)" height="128.8281" id="DisplayComm2WayInterfaceImplementation" style="stroke: #A80036; stroke-width: 1.5;" width="461" x="442.5" y="294.5"/><ellipse cx="534.75" cy="310.5" fill="#ADD1B2" rx="11" ry="11" style="stroke: #A80036; stroke-width: 1.0;"/><path d="M537.7188,316.1406 Q537.1406,316.4375 536.5,316.5781 Q535.8594,316.7344 535.1563,316.7344 Q532.6563,316.7344 531.3281,315.0938 Q530.0156,313.4375 530.0156,310.3125 Q530.0156,307.1875 531.3281,305.5313 Q532.6563,303.875 535.1563,303.875 Q535.8594,303.875 536.5,304.0313 Q537.1563,304.1875 537.7188,304.4844 L537.7188,307.2031 Q537.0938,306.625 536.5,306.3594 Q535.9063,306.0781 535.2813,306.0781 Q533.9375,306.0781 533.25,307.1563 Q532.5625,308.2188 532.5625,310.3125 Q532.5625,312.4063 533.25,313.4844 Q533.9375,314.5469 535.2813,314.5469 Q535.9063,314.5469 536.5,314.2813 Q537.0938,314 537.7188,313.4219 L537.7188,316.1406 Z "/><text fill="#000000" font-family="sans-serif" font-size="12" lengthAdjust="spacingAndGlyphs" textLength="268" x="555.25" y="314.6543">DisplayComm2WayInterfaceImplementation</text><line style="stroke: #A80036; stroke-width: 1.5;" x1="443.5" x2="902.5" y1="326.5" y2="326.5"/><rect fill="none" height="6" style="stroke: #C82930; stroke-width: 1.0;" width="6" x="450.5" y="334.5"/><text fill="#000000" font-family="sans-serif" font-size="11" lengthAdjust="spacingAndGlyphs" textLength="182" x="462.5" y="340.7104">DisplayCommManager manager</text><line style="stroke: #A80036; stroke-width: 1.5;" x1="443.5" x2="902.5" y1="347.3047" y2="347.3047"/><ellipse cx="453.5" cy="358.3047" fill="#84BE84" rx="3" ry="3" style="stroke: #038048; stroke-width: 1.0;"/><text fill="#000000" font-family="sans-serif" font-size="11" lengthAdjust="spacingAndGlyphs" textLength="435" x="462.5" y="361.5151">DisplayComm2WayInterfaceImplementation(DisplayCommManager manager)</text><ellipse cx="453.5" cy="387.9141" fill="#84BE84" rx="3" ry="3" style="stroke: #038048; stroke-width: 1.0;"/><text fill="#000000" font-family="sans-serif" font-size="11" lengthAdjust="spacingAndGlyphs" textLength="227" x="462.5" y="391.1245">TrackData passRfidRequest(int rfidNum)</text><rect fill="#F24D5C" height="6" style="stroke: #C82930; stroke-width: 1.0;" width="6" x="450.5" y="397.7188"/><text fill="#000000" font-family="sans-serif" font-size="11" lengthAdjust="spacingAndGlyphs" textLength="269" x="462.5" y="403.9292">void determineUserRequestFormat(int rfidNum)</text><rect fill="#F24D5C" height="6" style="stroke: #C82930; stroke-width: 1.0;" width="6" x="450.5" y="410.5234"/><text fill="#000000" font-family="sans-serif" font-size="11" lengthAdjust="spacingAndGlyphs" textLength="342" x="462.5" y="416.7339">void receiveRequestFromDisplayCommInterface(int rfidNum)</text><line style="stroke: #A80036; stroke-width: 1.0; stroke-dasharray: 1.0,2.0;" x1="443.5" x2="640" y1="374.5117" y2="374.5117"/><text fill="#000000" font-family="sans-serif" font-size="11" lengthAdjust="spacingAndGlyphs" textLength="66" x="640" y="377.8198">Use Case 1</text><line style="stroke: #A80036; stroke-width: 1.0; stroke-dasharray: 1.0,2.0;" x1="706" x2="902.5" y1="374.5117" y2="374.5117"/><!--MD5=[3a27b63ddb357afc5dde5581215f51f9]
class DisplayCommManagerImplementation--><rect fill="#FEFECE" filter="url(#f1tppquop0gz1o)" height="141.6328" id="DisplayCommManagerImplementation" style="stroke: #A80036; stroke-width: 1.5;" width="470" x="939" y="288"/><ellipse cx="1052.75" cy="304" fill="#ADD1B2" rx="11" ry="11" style="stroke: #A80036; stroke-width: 1.0;"/><path d="M1055.7188,309.6406 Q1055.1406,309.9375 1054.5,310.0781 Q1053.8594,310.2344 1053.1563,310.2344 Q1050.6563,310.2344 1049.3281,308.5938 Q1048.0156,306.9375 1048.0156,303.8125 Q1048.0156,300.6875 1049.3281,299.0313 Q1050.6563,297.375 1053.1563,297.375 Q1053.8594,297.375 1054.5,297.5313 Q1055.1563,297.6875 1055.7188,297.9844 L1055.7188,300.7031 Q1055.0938,300.125 1054.5,299.8594 Q1053.9063,299.5781 1053.2813,299.5781 Q1051.9375,299.5781 1051.25,300.6563 Q1050.5625,301.7188 1050.5625,303.8125 Q1050.5625,305.9063 1051.25,306.9844 Q1051.9375,308.0469 1053.2813,308.0469 Q1053.9063,308.0469 1054.5,307.7813 Q1055.0938,307.5 1055.7188,306.9219 L1055.7188,309.6406 Z "/><text fill="#000000" font-family="sans-serif" font-size="12" lengthAdjust="spacingAndGlyphs" textLength="234" x="1073.25" y="308.1543">DisplayCommManagerImplementation</text><line style="stroke: #A80036; stroke-width: 1.5;" x1="940" x2="1408" y1="320" y2="320"/><rect fill="none" height="6" style="stroke: #C82930; stroke-width: 1.0;" width="6" x="947" y="328"/><text fill="#000000" font-family="sans-serif" font-size="11" lengthAdjust="spacingAndGlyphs" textLength="221" x="959" y="334.2104">MiddlewareCommInterface middleware</text><line style="stroke: #A80036; stroke-width: 1.5;" x1="940" x2="1408" y1="340.8047" y2="340.8047"/><ellipse cx="950" cy="351.8047" fill="#84BE84" rx="3" ry="3" style="stroke: #038048; stroke-width: 1.0;"/><text fill="#000000" font-family="sans-serif" font-size="11" lengthAdjust="spacingAndGlyphs" textLength="444" x="959" y="355.0151">DisplayCommManagerImplementation(MiddlewareCommInterface middleware)</text><ellipse cx="950" cy="381.4141" fill="#84BE84" rx="3" ry="3" style="stroke: #038048; stroke-width: 1.0;"/><text fill="#000000" font-family="sans-serif" font-size="11" font-style="italic" lengthAdjust="spacingAndGlyphs" textLength="249" x="959" y="384.6245">TrackData evaluateRfidRequest(int rfidNum)</text><ellipse cx="950" cy="394.2188" fill="#84BE84" rx="3" ry="3" style="stroke: #038048; stroke-width: 1.0;"/><text fill="#000000" font-family="sans-serif" font-size="11" font-style="italic" lengthAdjust="spacingAndGlyphs" textLength="369" x="959" y="397.4292">TrackData passRequestToMiddlewareCommInterface(int rfidNum)</text><ellipse cx="950" cy="407.0234" fill="#84BE84" rx="3" ry="3" style="stroke: #038048; stroke-width: 1.0;"/><text fill="#000000" font-family="sans-serif" font-size="11" font-style="italic" lengthAdjust="spacingAndGlyphs" textLength="339" x="959" y="410.2339">void receiveRequestFromDisplay2WayInterface(int rfidNum)</text><text fill="#000000" font-family="sans-serif" font-size="11" lengthAdjust="spacingAndGlyphs" textLength="0" x="963" y="423.0386"/><line style="stroke: #A80036; stroke-width: 1.0; stroke-dasharray: 1.0,2.0;" x1="940" x2="1141" y1="368.0117" y2="368.0117"/><text fill="#000000" font-family="sans-serif" font-size="11" lengthAdjust="spacingAndGlyphs" textLength="66" x="1141" y="371.3198">Use Case 1</text><line style="stroke: #A80036; stroke-width: 1.0; stroke-dasharray: 1.0,2.0;" x1="1207" x2="1408" y1="368.0117" y2="368.0117"/><!--MD5=[d454b7777f115113290d89683d7a426c]
class DisplayCommInterfaceImplementationTests--><rect fill="#FEFECE" filter="url(#f1tppquop0gz1o)" height="48" id="DisplayCommInterfaceImplementationTests" style="stroke: #A80036; stroke-width: 1.5;" width="301" x="1465.5" y="88.5"/><ellipse cx="1480.5" cy="104.5" fill="#ADD1B2" rx="11" ry="11" style="stroke: #A80036; stroke-width: 1.0;"/><path d="M1483.4688,110.1406 Q1482.8906,110.4375 1482.25,110.5781 Q1481.6094,110.7344 1480.9063,110.7344 Q1478.4063,110.7344 1477.0781,109.0938 Q1475.7656,107.4375 1475.7656,104.3125 Q1475.7656,101.1875 1477.0781,99.5313 Q1478.4063,97.875 1480.9063,97.875 Q1481.6094,97.875 1482.25,98.0313 Q1482.9063,98.1875 1483.4688,98.4844 L1483.4688,101.2031 Q1482.8438,100.625 1482.25,100.3594 Q1481.6563,100.0781 1481.0313,100.0781 Q1479.6875,100.0781 1479,101.1563 Q1478.3125,102.2188 1478.3125,104.3125 Q1478.3125,106.4063 1479,107.4844 Q1479.6875,108.5469 1481.0313,108.5469 Q1481.6563,108.5469 1482.25,108.2813 Q1482.8438,108 1483.4688,107.4219 L1483.4688,110.1406 Z "/><text fill="#000000" font-family="sans-serif" font-size="12" lengthAdjust="spacingAndGlyphs" textLength="269" x="1494.5" y="108.6543">DisplayCommInterfaceImplementationTests</text><line style="stroke: #A80036; stroke-width: 1.5;" x1="1466.5" x2="1765.5" y1="120.5" y2="120.5"/><line style="stroke: #A80036; stroke-width: 1.5;" x1="1466.5" x2="1765.5" y1="128.5" y2="128.5"/><!--MD5=[a333ac13e0fdf2a5898aafabd38d3c1b]
class DisplayComm2WayInterfaceStub--><rect fill="#FEFECE" filter="url(#f1tppquop0gz1o)" height="77.6094" id="DisplayComm2WayInterfaceStub" style="stroke: #A80036; stroke-width: 1.5;" width="252" x="1478" y="320"/><ellipse cx="1502" cy="336" fill="#ADD1B2" rx="11" ry="11" style="stroke: #A80036; stroke-width: 1.0;"/><path d="M1504.9688,341.6406 Q1504.3906,341.9375 1503.75,342.0781 Q1503.1094,342.2344 1502.4063,342.2344 Q1499.9063,342.2344 1498.5781,340.5938 Q1497.2656,338.9375 1497.2656,335.8125 Q1497.2656,332.6875 1498.5781,331.0313 Q1499.9063,329.375 1502.4063,329.375 Q1503.1094,329.375 1503.75,329.5313 Q1504.4063,329.6875 1504.9688,329.9844 L1504.9688,332.7031 Q1504.3438,332.125 1503.75,331.8594 Q1503.1563,331.5781 1502.5313,331.5781 Q1501.1875,331.5781 1500.5,332.6563 Q1499.8125,333.7188 1499.8125,335.8125 Q1499.8125,337.9063 1500.5,338.9844 Q1501.1875,340.0469 1502.5313,340.0469 Q1503.1563,340.0469 1503.75,339.7813 Q1504.3438,339.5 1504.9688,338.9219 L1504.9688,341.6406 Z "/><text fill="#000000" font-family="sans-serif" font-size="12" lengthAdjust="spacingAndGlyphs" textLength="200" x="1518" y="340.1543">DisplayComm2WayInterfaceStub</text><line style="stroke: #A80036; stroke-width: 1.5;" x1="1479" x2="1729" y1="352" y2="352"/><line style="stroke: #A80036; stroke-width: 1.5;" x1="1479" x2="1729" y1="360" y2="360"/><ellipse cx="1489" cy="387.8047" fill="#84BE84" rx="3" ry="3" style="stroke: #038048; stroke-width: 1.0;"/><text fill="#000000" font-family="sans-serif" font-size="11" font-style="italic" lengthAdjust="spacingAndGlyphs" textLength="226" x="1498" y="391.0151">TrackData passRfidRequest(int rfidNum)</text><line style="stroke: #A80036; stroke-width: 1.0; stroke-dasharray: 1.0,2.0;" x1="1479" x2="1571" y1="374.4023" y2="374.4023"/><text fill="#000000" font-family="sans-serif" font-size="11" lengthAdjust="spacingAndGlyphs" textLength="66" x="1571" y="377.7104">Use Case 1</text><line style="stroke: #A80036; stroke-width: 1.0; stroke-dasharray: 1.0,2.0;" x1="1637" x2="1729" y1="374.4023" y2="374.4023"/><!--MD5=[178181f4c7684560c711246055fc01d3]
class DisplayComm2WayInterfaceImplementationTests--><rect fill="#FEFECE" filter="url(#f1tppquop0gz1o)" height="48" id="DisplayComm2WayInterfaceImplementationTests" style="stroke: #A80036; stroke-width: 1.5;" width="334" x="1802" y="88.5"/><ellipse cx="1817" cy="104.5" fill="#ADD1B2" rx="11" ry="11" style="stroke: #A80036; stroke-width: 1.0;"/><path d="M1819.9688,110.1406 Q1819.3906,110.4375 1818.75,110.5781 Q1818.1094,110.7344 1817.4063,110.7344 Q1814.9063,110.7344 1813.5781,109.0938 Q1812.2656,107.4375 1812.2656,104.3125 Q1812.2656,101.1875 1813.5781,99.5313 Q1814.9063,97.875 1817.4063,97.875 Q1818.1094,97.875 1818.75,98.0313 Q1819.4063,98.1875 1819.9688,98.4844 L1819.9688,101.2031 Q1819.3438,100.625 1818.75,100.3594 Q1818.1563,100.0781 1817.5313,100.0781 Q1816.1875,100.0781 1815.5,101.1563 Q1814.8125,102.2188 1814.8125,104.3125 Q1814.8125,106.4063 1815.5,107.4844 Q1816.1875,108.5469 1817.5313,108.5469 Q1818.1563,108.5469 1818.75,108.2813 Q1819.3438,108 1819.9688,107.4219 L1819.9688,110.1406 Z "/><text fill="#000000" font-family="sans-serif" font-size="12" lengthAdjust="spacingAndGlyphs" textLength="302" x="1831" y="108.6543">DisplayComm2WayInterfaceImplementationTests</text><line style="stroke: #A80036; stroke-width: 1.5;" x1="1803" x2="2135" y1="120.5" y2="120.5"/><line style="stroke: #A80036; stroke-width: 1.5;" x1="1803" x2="2135" y1="128.5" y2="128.5"/><!--MD5=[2970358178d6cf57fc5a801b39eb8d0b]
class DisplayCommManagerStub--><rect fill="#FEFECE" filter="url(#f1tppquop0gz1o)" height="77.6094" id="DisplayCommManagerStub" style="stroke: #A80036; stroke-width: 1.5;" width="273" x="1799.5" y="320"/><ellipse cx="1848.75" cy="336" fill="#ADD1B2" rx="11" ry="11" style="stroke: #A80036; stroke-width: 1.0;"/><path d="M1851.7188,341.6406 Q1851.1406,341.9375 1850.5,342.0781 Q1849.8594,342.2344 1849.1563,342.2344 Q1846.6563,342.2344 1845.3281,340.5938 Q1844.0156,338.9375 1844.0156,335.8125 Q1844.0156,332.6875 1845.3281,331.0313 Q1846.6563,329.375 1849.1563,329.375 Q1849.8594,329.375 1850.5,329.5313 Q1851.1563,329.6875 1851.7188,329.9844 L1851.7188,332.7031 Q1851.0938,332.125 1850.5,331.8594 Q1849.9063,331.5781 1849.2813,331.5781 Q1847.9375,331.5781 1847.25,332.6563 Q1846.5625,333.7188 1846.5625,335.8125 Q1846.5625,337.9063 1847.25,338.9844 Q1847.9375,340.0469 1849.2813,340.0469 Q1849.9063,340.0469 1850.5,339.7813 Q1851.0938,339.5 1851.7188,338.9219 L1851.7188,341.6406 Z "/><text fill="#000000" font-family="sans-serif" font-size="12" lengthAdjust="spacingAndGlyphs" textLength="166" x="1869.25" y="340.1543">DisplayCommManagerStub</text><line style="stroke: #A80036; stroke-width: 1.5;" x1="1800.5" x2="2071.5" y1="352" y2="352"/><line style="stroke: #A80036; stroke-width: 1.5;" x1="1800.5" x2="2071.5" y1="360" y2="360"/><ellipse cx="1810.5" cy="387.8047" fill="#84BE84" rx="3" ry="3" style="stroke: #038048; stroke-width: 1.0;"/><text fill="#000000" font-family="sans-serif" font-size="11" lengthAdjust="spacingAndGlyphs" textLength="247" x="1819.5" y="391.0151">TrackData evaluateRfidRequest(int rfidNum)</text><line style="stroke: #A80036; stroke-width: 1.0; stroke-dasharray: 1.0,2.0;" x1="1800.5" x2="1903" y1="374.4023" y2="374.4023"/><text fill="#000000" font-family="sans-serif" font-size="11" lengthAdjust="spacingAndGlyphs" textLength="66" x="1903" y="377.7104">Use Case 1</text><line style="stroke: #A80036; stroke-width: 1.0; stroke-dasharray: 1.0,2.0;" x1="1969" x2="2071.5" y1="374.4023" y2="374.4023"/><!--MD5=[937d6d8ff87a99d0d5dcd66ee05a1fa4]
class DisplayCommManagerImplementationTests--><rect fill="#FEFECE" filter="url(#f1tppquop0gz1o)" height="48" id="DisplayCommManagerImplementationTests" style="stroke: #A80036; stroke-width: 1.5;" width="300" x="2171" y="88.5"/><ellipse cx="2186" cy="104.5" fill="#ADD1B2" rx="11" ry="11" style="stroke: #A80036; stroke-width: 1.0;"/><path d="M2188.9688,110.1406 Q2188.3906,110.4375 2187.75,110.5781 Q2187.1094,110.7344 2186.4063,110.7344 Q2183.9063,110.7344 2182.5781,109.0938 Q2181.2656,107.4375 2181.2656,104.3125 Q2181.2656,101.1875 2182.5781,99.5313 Q2183.9063,97.875 2186.4063,97.875 Q2187.1094,97.875 2187.75,98.0313 Q2188.4063,98.1875 2188.9688,98.4844 L2188.9688,101.2031 Q2188.3438,100.625 2187.75,100.3594 Q2187.1563,100.0781 2186.5313,100.0781 Q2185.1875,100.0781 2184.5,101.1563 Q2183.8125,102.2188 2183.8125,104.3125 Q2183.8125,106.4063 2184.5,107.4844 Q2185.1875,108.5469 2186.5313,108.5469 Q2187.1563,108.5469 2187.75,108.2813 Q2188.3438,108 2188.9688,107.4219 L2188.9688,110.1406 Z "/><text fill="#000000" font-family="sans-serif" font-size="12" lengthAdjust="spacingAndGlyphs" textLength="268" x="2200" y="108.6543">DisplayCommManagerImplementationTests</text><line style="stroke: #A80036; stroke-width: 1.5;" x1="2172" x2="2470" y1="120.5" y2="120.5"/><line style="stroke: #A80036; stroke-width: 1.5;" x1="2172" x2="2470" y1="128.5" y2="128.5"/><!--MD5=[cf56a65163663c6c6c7b84cd7c204b97]
class MiddlewareCommInterfaceStub--><rect fill="#FEFECE" filter="url(#f1tppquop0gz1o)" height="77.6094" id="MiddlewareCommInterfaceStub" style="stroke: #A80036; stroke-width: 1.5;" width="225" x="2330.5" y="320"/><ellipse cx="2345.5" cy="336" fill="#ADD1B2" rx="11" ry="11" style="stroke: #A80036; stroke-width: 1.0;"/><path d="M2348.4688,341.6406 Q2347.8906,341.9375 2347.25,342.0781 Q2346.6094,342.2344 2345.9063,342.2344 Q2343.4063,342.2344 2342.0781,340.5938 Q2340.7656,338.9375 2340.7656,335.8125 Q2340.7656,332.6875 2342.0781,331.0313 Q2343.4063,329.375 2345.9063,329.375 Q2346.6094,329.375 2347.25,329.5313 Q2347.9063,329.6875 2348.4688,329.9844 L2348.4688,332.7031 Q2347.8438,332.125 2347.25,331.8594 Q2346.6563,331.5781 2346.0313,331.5781 Q2344.6875,331.5781 2344,332.6563 Q2343.3125,333.7188 2343.3125,335.8125 Q2343.3125,337.9063 2344,338.9844 Q2344.6875,340.0469 2346.0313,340.0469 Q2346.6563,340.0469 2347.25,339.7813 Q2347.8438,339.5 2348.4688,338.9219 L2348.4688,341.6406 Z "/><text fill="#000000" font-family="sans-serif" font-size="12" lengthAdjust="spacingAndGlyphs" textLength="193" x="2359.5" y="340.1543">MiddlewareCommInterfaceStub</text><line style="stroke: #A80036; stroke-width: 1.5;" x1="2331.5" x2="2554.5" y1="352" y2="352"/><line style="stroke: #A80036; stroke-width: 1.5;" x1="2331.5" x2="2554.5" y1="360" y2="360"/><ellipse cx="2341.5" cy="387.8047" fill="#84BE84" rx="3" ry="3" style="stroke: #038048; stroke-width: 1.0;"/><text fill="#000000" font-family="sans-serif" font-size="11" lengthAdjust="spacingAndGlyphs" textLength="171" x="2350.5" y="391.0151">TrackData requestRfid(int rfid)</text><line style="stroke: #A80036; stroke-width: 1.0; stroke-dasharray: 1.0,2.0;" x1="2331.5" x2="2410" y1="374.4023" y2="374.4023"/><text fill="#000000" font-family="sans-serif" font-size="11" lengthAdjust="spacingAndGlyphs" textLength="66" x="2410" y="377.7104">Use Case 1</text><line style="stroke: #A80036; stroke-width: 1.0; stroke-dasharray: 1.0,2.0;" x1="2476" x2="2554.5" y1="374.4023" y2="374.4023"/><!--MD5=[930c8140e7c1cb8e71aa7cd49967748e]
class TrackDataPlotterTests--><rect fill="#FEFECE" filter="url(#f1tppquop0gz1o)" height="48" id="TrackDataPlotterTests" style="stroke: #A80036; stroke-width: 1.5;" width="172" x="2506" y="88.5"/><ellipse cx="2521" cy="104.5" fill="#ADD1B2" rx="11" ry="11" style="stroke: #A80036; stroke-width: 1.0;"/><path d="M2523.9688,110.1406 Q2523.3906,110.4375 2522.75,110.5781 Q2522.1094,110.7344 2521.4063,110.7344 Q2518.9063,110.7344 2517.5781,109.0938 Q2516.2656,107.4375 2516.2656,104.3125 Q2516.2656,101.1875 2517.5781,99.5313 Q2518.9063,97.875 2521.4063,97.875 Q2522.1094,97.875 2522.75,98.0313 Q2523.4063,98.1875 2523.9688,98.4844 L2523.9688,101.2031 Q2523.3438,100.625 2522.75,100.3594 Q2522.1563,100.0781 2521.5313,100.0781 Q2520.1875,100.0781 2519.5,101.1563 Q2518.8125,102.2188 2518.8125,104.3125 Q2518.8125,106.4063 2519.5,107.4844 Q2520.1875,108.5469 2521.5313,108.5469 Q2522.1563,108.5469 2522.75,108.2813 Q2523.3438,108 2523.9688,107.4219 L2523.9688,110.1406 Z "/><text fill="#000000" font-family="sans-serif" font-size="12" lengthAdjust="spacingAndGlyphs" textLength="140" x="2535" y="108.6543">TrackDataPlotterTests</text><line style="stroke: #A80036; stroke-width: 1.5;" x1="2507" x2="2677" y1="120.5" y2="120.5"/><line style="stroke: #A80036; stroke-width: 1.5;" x1="2507" x2="2677" y1="128.5" y2="128.5"/><!--MD5=[d3cb230b9040bd9072bb1f490e167601]
class MiddlewareCommInterface--><rect fill="#FEFECE" filter="url(#f1tppquop0gz1o)" height="107.2188" id="MiddlewareCommInterface" style="stroke: #A80036; stroke-width: 1.5;" width="198" x="2734" y="59"/><ellipse cx="2749" cy="75" fill="#B4A7E5" rx="11" ry="11" style="stroke: #A80036; stroke-width: 1.0;"/><path d="M2744.9219,70.7656 L2744.9219,68.6094 L2752.3125,68.6094 L2752.3125,70.7656 L2749.8438,70.7656 L2749.8438,78.8438 L2752.3125,78.8438 L2752.3125,81 L2744.9219,81 L2744.9219,78.8438 L2747.3906,78.8438 L2747.3906,70.7656 L2744.9219,70.7656 Z "/><text fill="#000000" font-family="sans-serif" font-size="12" font-style="italic" lengthAdjust="spacingAndGlyphs" textLength="166" x="2763" y="79.1543">MiddlewareCommInterface</text><line style="stroke: #A80036; stroke-width: 1.5;" x1="2735" x2="2931" y1="91" y2="91"/><line style="stroke: #A80036; stroke-width: 1.5;" x1="2735" x2="2931" y1="99" y2="99"/><ellipse cx="2745" cy="126.8047" fill="#84BE84" rx="3" ry="3" style="stroke: #038048; stroke-width: 1.0;"/><text fill="#000000" font-family="sans-serif" font-size="11" font-style="italic" lengthAdjust="spacingAndGlyphs" textLength="171" x="2754" y="130.0151">TrackData requestRfid(int rfid)</text><line style="stroke: #A80036; stroke-width: 1.0; stroke-dasharray: 1.0,2.0;" x1="2735" x2="2800" y1="113.4023" y2="113.4023"/><text fill="#000000" font-family="sans-serif" font-size="11" lengthAdjust="spacingAndGlyphs" textLength="66" x="2800" y="116.7104">Use Case 1</text><line style="stroke: #A80036; stroke-width: 1.0; stroke-dasharray: 1.0,2.0;" x1="2866" x2="2931" y1="113.4023" y2="113.4023"/><text fill="#000000" font-family="sans-serif" font-size="11" lengthAdjust="spacingAndGlyphs" textLength="0" x="2744" y="159.6245"/><line style="stroke: #A80036; stroke-width: 1.0; stroke-dasharray: 1.0,2.0;" x1="2735" x2="2800" y1="143.0117" y2="143.0117"/><text fill="#000000" font-family="sans-serif" font-size="11" lengthAdjust="spacingAndGlyphs" textLength="66" x="2800" y="146.3198">Use Case 2</text><line style="stroke: #A80036; stroke-width: 1.0; stroke-dasharray: 1.0,2.0;" x1="2866" x2="2931" y1="143.0117" y2="143.0117"/><!--MD5=[c986427b061286eff33e87a088ad4bf9]
class TrackDataPlotter--><rect fill="#FEFECE" filter="url(#f1tppquop0gz1o)" height="236.0703" id="TrackDataPlotter" style="stroke: #A80036; stroke-width: 1.5;" width="291" x="2733.5" y="241"/><ellipse cx="2821.75" cy="257" fill="#ADD1B2" rx="11" ry="11" style="stroke: #A80036; stroke-width: 1.0;"/><path d="M2824.7188,262.6406 Q2824.1406,262.9375 2823.5,263.0781 Q2822.8594,263.2344 2822.1563,263.2344 Q2819.6563,263.2344 2818.3281,261.5938 Q2817.0156,259.9375 2817.0156,256.8125 Q2817.0156,253.6875 2818.3281,252.0313 Q2819.6563,250.375 2822.1563,250.375 Q2822.8594,250.375 2823.5,250.5313 Q2824.1563,250.6875 2824.7188,250.9844 L2824.7188,253.7031 Q2824.0938,253.125 2823.5,252.8594 Q2822.9063,252.5781 2822.2813,252.5781 Q2820.9375,252.5781 2820.25,253.6563 Q2819.5625,254.7188 2819.5625,256.8125 Q2819.5625,258.9063 2820.25,259.9844 Q2820.9375,261.0469 2822.2813,261.0469 Q2822.9063,261.0469 2823.5,260.7813 Q2824.0938,260.5 2824.7188,259.9219 L2824.7188,262.6406 Z "/><text fill="#000000" font-family="sans-serif" font-size="12" lengthAdjust="spacingAndGlyphs" textLength="106" x="2842.25" y="261.1543">TrackDataPlotter</text><line style="stroke: #A80036; stroke-width: 1.5;" x1="2734.5" x2="3023.5" y1="273" y2="273"/><rect fill="none" height="6" style="stroke: #C82930; stroke-width: 1.0;" width="6" x="2741.5" y="281"/><text fill="#000000" font-family="sans-serif" font-size="11" lengthAdjust="spacingAndGlyphs" textLength="86" x="2753.5" y="287.2104">TrackData data</text><rect fill="none" height="6" style="stroke: #C82930; stroke-width: 1.0;" width="6" x="2741.5" y="293.8047"/><text fill="#000000" font-family="sans-serif" font-size="11" lengthAdjust="spacingAndGlyphs" textLength="97" x="2753.5" y="300.0151">XYDataset points</text><rect fill="none" height="6" style="stroke: #C82930; stroke-width: 1.0;" width="6" x="2741.5" y="306.6094"/><text fill="#000000" font-family="sans-serif" font-size="11" lengthAdjust="spacingAndGlyphs" textLength="82" x="2753.5" y="312.8198">XYDataset line</text><rect fill="none" height="6" style="stroke: #C82930; stroke-width: 1.0;" width="6" x="2741.5" y="319.4141"/><text fill="#000000" font-family="sans-serif" font-size="11" lengthAdjust="spacingAndGlyphs" textLength="99" x="2753.5" y="325.6245">JFreeChart chart1</text><rect fill="none" height="6" style="stroke: #C82930; stroke-width: 1.0;" width="6" x="2741.5" y="332.2188"/><text fill="#000000" font-family="sans-serif" font-size="11" lengthAdjust="spacingAndGlyphs" textLength="99" x="2753.5" y="338.4292">JFreeChart chart2</text><rect fill="none" height="6" style="stroke: #C82930; stroke-width: 1.0;" width="6" x="2741.5" y="345.0234"/><text fill="#000000" font-family="sans-serif" font-size="11" lengthAdjust="spacingAndGlyphs" textLength="60" x="2753.5" y="351.2339">XYPlot plot</text><rect fill="none" height="6" style="stroke: #C82930; stroke-width: 1.0;" width="6" x="2741.5" y="357.8281"/><text fill="#000000" font-family="sans-serif" font-size="11" lengthAdjust="spacingAndGlyphs" textLength="133" x="2753.5" y="364.0386">ChartPanel chartPanel1</text><rect fill="none" height="6" style="stroke: #C82930; stroke-width: 1.0;" width="6" x="2741.5" y="370.6328"/><text fill="#000000" font-family="sans-serif" font-size="11" lengthAdjust="spacingAndGlyphs" textLength="133" x="2753.5" y="376.8433">ChartPanel chartPanel2</text><text fill="#000000" font-family="sans-serif" font-size="11" lengthAdjust="spacingAndGlyphs" textLength="6" x="2753.5" y="389.6479">_</text><ellipse cx="2744.5" cy="399.2422" fill="#84BE84" rx="3" ry="3" style="stroke: #038048; stroke-width: 1.0;"/><text fill="#000000" font-family="sans-serif" font-size="11" lengthAdjust="spacingAndGlyphs" textLength="188" x="2753.5" y="402.4526">TrackDataPlotter(TrackData data)</text><rect fill="#F24D5C" height="6" style="stroke: #C82930; stroke-width: 1.0;" width="6" x="2741.5" y="425.8516"/><text fill="#000000" font-family="sans-serif" font-size="11" lengthAdjust="spacingAndGlyphs" textLength="138" x="2753.5" y="432.062">XYSeries getTrackData()</text><rect fill="#F24D5C" height="6" style="stroke: #C82930; stroke-width: 1.0;" width="6" x="2741.5" y="438.6563"/><text fill="#000000" font-family="sans-serif" font-size="11" lengthAdjust="spacingAndGlyphs" textLength="208" x="2753.5" y="444.8667">XYSeries calculateLine(int[] x, int[] y)</text><rect fill="#F24D5C" height="6" style="stroke: #C82930; stroke-width: 1.0;" width="6" x="2741.5" y="451.4609"/><text fill="#000000" font-family="sans-serif" font-size="11" lengthAdjust="spacingAndGlyphs" textLength="262" x="2753.5" y="457.6714">int[] extractLatFromTrackData(TrackData data)</text><rect fill="#F24D5C" height="6" style="stroke: #C82930; stroke-width: 1.0;" width="6" x="2741.5" y="464.2656"/><text fill="#000000" font-family="sans-serif" font-size="11" lengthAdjust="spacingAndGlyphs" textLength="265" x="2753.5" y="470.4761">int[] extractLngFromTrackData(TrackData data)</text><line style="stroke: #A80036; stroke-width: 1.0; stroke-dasharray: 1.0,2.0;" x1="2734.5" x2="2846" y1="415.4492" y2="415.4492"/><text fill="#000000" font-family="sans-serif" font-size="11" lengthAdjust="spacingAndGlyphs" textLength="66" x="2846" y="418.7573">Use Case 1</text><line style="stroke: #A80036; stroke-width: 1.0; stroke-dasharray: 1.0,2.0;" x1="2912" x2="3023.5" y1="415.4492" y2="415.4492"/><!--MD5=[77bc37423dd8876786830fad4054e33b]
reverse link DisplayCommInterface to DisplayCommInterfaceImplementation--><path d="M223,171.77 C223,208.7 223,256.48 223,294.4 " fill="none" id="DisplayCommInterface&lt;-DisplayCommInterfaceImplementation" style="stroke: #A80036; stroke-width: 1.0; stroke-dasharray: 7.0,7.0;"/><polygon fill="none" points="216,171.7,223,151.7,230,171.7,216,171.7" style="stroke: #A80036; stroke-width: 1.0;"/><!--MD5=[4e991cf787e933c55089f97eae394828]
reverse link DisplayComm2WayInterface to DisplayComm2WayInterfaceImplementation--><path d="M769.26,169.72 C750.24,206.92 725.26,255.78 705.52,294.4 " fill="none" id="DisplayComm2WayInterface&lt;-DisplayComm2WayInterfaceImplementation" style="stroke: #A80036; stroke-width: 1.0; stroke-dasharray: 7.0,7.0;"/><polygon fill="none" points="763.13,166.32,778.47,151.7,775.6,172.7,763.13,166.32" style="stroke: #A80036; stroke-width: 1.0;"/><!--MD5=[5beed6c3c7e4a84a4bfaa95bdf8cce79]
reverse link DisplayCommManager to DisplayCommManagerImplementation--><path d="M1210.62,171.45 C1203.79,206.26 1195.05,250.79 1187.82,287.61 " fill="none" id="DisplayCommManager&lt;-DisplayCommManagerImplementation" style="stroke: #A80036; stroke-width: 1.0; stroke-dasharray: 7.0,7.0;"/><polygon fill="none" points="1203.78,169.98,1214.5,151.7,1217.52,172.68,1203.78,169.98" style="stroke: #A80036; stroke-width: 1.0;"/><!--MD5=[6aaeadb42451b39b4e2cdcf83e2bb4cd]
reverse link DisplayComm2WayInterface to DisplayComm2WayInterfaceStub--><path d="M927.23,157.46 C971.07,170.43 1020.68,183.01 1067,190 C1106.34,195.93 1387.99,183.39 1425,198 C1488.2,222.94 1543.49,280.99 1575.32,319.87 " fill="none" id="DisplayComm2WayInterface&lt;-DisplayComm2WayInterfaceStub" style="stroke: #A80036; stroke-width: 1.0; stroke-dasharray: 7.0,7.0;"/><polygon fill="none" points="924.96,164.08,907.85,151.59,929.02,150.68,924.96,164.08" style="stroke: #A80036; stroke-width: 1.0;"/><!--MD5=[9a02b467888c5123255f55ebe5217d7a]
link DisplayCommInterfaceImplementationTests to DisplayComm2WayInterfaceStub--><path d="M1614.87,136.5 C1612.87,177.19 1608.69,262.45 1606.13,314.52 " fill="none" id="DisplayCommInterfaceImplementationTests-&gt;DisplayComm2WayInterfaceStub" style="stroke: #A80036; stroke-width: 1.0; stroke-dasharray: 7.0,7.0;"/><polygon fill="#A80036" points="1605.88,319.76,1610.3119,310.9647,1606.1226,314.7659,1602.3213,310.5765,1605.88,319.76" style="stroke: #A80036; stroke-width: 1.0;"/><!--MD5=[0cd290e6298e838268680010d5032c0d]
link DisplayCommInterfaceImplementationTests to DisplayCommInterfaceImplementation--><path d="M1571.92,136.66 C1534.11,155.16 1477.57,179.65 1425,190 C1370.49,200.74 477.4,179.53 425,198 C371.87,216.73 322.14,255.74 285.32,290.55 " fill="none" id="DisplayCommInterfaceImplementationTests-&gt;DisplayCommInterfaceImplementation" style="stroke: #A80036; stroke-width: 1.0; stroke-dasharray: 7.0,7.0;"/><polygon fill="#A80036" points="281.34,294.34,290.6152,291.0278,284.96,290.891,285.0968,285.2358,281.34,294.34" style="stroke: #A80036; stroke-width: 1.0;"/><!--MD5=[e6e0d8b3e0f7bf14f11c0899b3ad37ae]
reverse link DisplayCommManager to DisplayCommManagerStub--><path d="M1333.32,158.38 C1369.6,171 1410.47,183.15 1449,190 C1481.72,195.82 1716.97,186.11 1748,198 C1813.23,223 1871.61,281.03 1905.42,319.89 " fill="none" id="DisplayCommManager&lt;-DisplayCommManagerStub" style="stroke: #A80036; stroke-width: 1.0; stroke-dasharray: 7.0,7.0;"/><polygon fill="none" points="1330.71,164.88,1314.24,151.55,1335.42,151.7,1330.71,164.88" style="stroke: #A80036; stroke-width: 1.0;"/><!--MD5=[69695ace36e753468876c8d4fe5d2708]
link DisplayComm2WayInterfaceImplementationTests to DisplayCommManagerStub--><path d="M1965.9,136.5 C1960.4,177.19 1948.9,262.45 1941.87,314.52 " fill="none" id="DisplayComm2WayInterfaceImplementationTests-&gt;DisplayCommManagerStub" style="stroke: #A80036; stroke-width: 1.0; stroke-dasharray: 7.0,7.0;"/><polygon fill="#A80036" points="1941.16,319.76,1946.335,311.3803,1941.833,314.8055,1938.4078,310.3035,1941.16,319.76" style="stroke: #A80036; stroke-width: 1.0;"/><!--MD5=[ce67f838794c14794f693dd46a642b9a]
link DisplayComm2WayInterfaceImplementationTests to DisplayComm2WayInterfaceImplementation--><path d="M1926.39,136.64 C1889.82,155.13 1835.09,179.61 1784,190 C1737.07,199.55 967.89,184.3 922,198 C859.51,216.66 797.78,256.15 751.41,291.22 " fill="none" id="DisplayComm2WayInterfaceImplementationTests-&gt;DisplayComm2WayInterfaceImplementation" style="stroke: #A80036; stroke-width: 1.0; stroke-dasharray: 7.0,7.0;"/><polygon fill="#A80036" points="747.26,294.38,756.846,292.1198,751.2411,291.3549,752.0059,285.75,747.26,294.38" style="stroke: #A80036; stroke-width: 1.0;"/><!--MD5=[72cb9e2c0df516d67fcc7a3605b88acd]
reverse link MiddlewareCommInterface to MiddlewareCommInterfaceStub--><path d="M2731.48,177.15 C2659.23,222.44 2564.57,281.79 2503.75,319.91 " fill="none" id="MiddlewareCommInterface&lt;-MiddlewareCommInterfaceStub" style="stroke: #A80036; stroke-width: 1.0; stroke-dasharray: 7.0,7.0;"/><polygon fill="none" points="2728.19,170.94,2748.86,166.25,2735.63,182.81,2728.19,170.94" style="stroke: #A80036; stroke-width: 1.0;"/><!--MD5=[a3caa78d97a9caf08bd2afaaae1510f4]
link DisplayCommManagerImplementationTests to MiddlewareCommInterfaceStub--><path d="M2332.48,136.5 C2352.86,177.35 2395.67,263.14 2421.62,315.15 " fill="none" id="DisplayCommManagerImplementationTests-&gt;MiddlewareCommInterfaceStub" style="stroke: #A80036; stroke-width: 1.0; stroke-dasharray: 7.0,7.0;"/><polygon fill="#A80036" points="2423.92,319.76,2423.4854,309.9207,2421.6897,315.285,2416.3254,313.4893,2423.92,319.76" style="stroke: #A80036; stroke-width: 1.0;"/><!--MD5=[6f3abcadcd809ea193290ea1cf8b820a]
link DisplayCommManagerImplementationTests to DisplayCommManagerImplementation--><path d="M2282.82,136.61 C2249.99,155.07 2200.68,179.54 2154,190 C2077.56,207.13 1524.52,177.17 1449,198 C1385.3,215.57 1321.07,251.66 1270.73,285.13 " fill="none" id="DisplayCommManagerImplementationTests-&gt;DisplayCommManagerImplementation" style="stroke: #A80036; stroke-width: 1.0; stroke-dasharray: 7.0,7.0;"/><polygon fill="#A80036" points="1266.52,287.94,1276.2233,286.2528,1270.6737,285.1566,1271.7699,279.607,1266.52,287.94" style="stroke: #A80036; stroke-width: 1.0;"/><!--MD5=[f24e7409bf4fec90fef0ed7e05f90b9b]
link TrackDataPlotterTests to TrackDataPlotter--><path d="M2620.28,136.65 C2640.82,153.55 2669.25,177.05 2694,198 C2709.01,210.71 2724.65,224.06 2740.2,237.4 " fill="none" id="TrackDataPlotterTests-&gt;TrackDataPlotter" style="stroke: #A80036; stroke-width: 1.0; stroke-dasharray: 7.0,7.0;"/><polygon fill="#A80036" points="2744.15,240.79,2739.9199,231.8959,2740.3537,237.536,2734.7135,237.9699,2744.15,240.79" style="stroke: #A80036; stroke-width: 1.0;"/><!--MD5=[fce8e48662c400612d5d6369d13771bb]
@startuml Display02Packages_Closure


package edu.oakland.production.display02 {
    
}



package edu.oakland.production.display02 {
    interface DisplayCommInterface {
        __
        .. Use Case 1 ..
        {abstract} + TrackData receiveRfidRequest(int rfidNum)
    }
}








package edu.oakland.production.display02 {
    interface DisplayComm2WayInterface {
        __
        .. Use Case 1 ..
        {abstract} + TrackData passRfidRequest(int rfidNum)
    }
}








package edu.oakland.production.display02 {
    interface DisplayCommManager {
        __
        .. Use Case 1 ..
        {abstract} + TrackData evaluateRfidRequest(int rfidNum)
    }
}








package edu.oakland.production.display02 {
    class DisplayCommInterfaceImplementation {
        - DisplayComm2WayInterface receiver
        __
        + DisplayCommInterface(DisplayComm2WayInterface receiver)
        .. Use Case 1 ..
        + TrackData receiveRfidRequest(int rfidNum)
        - TrackData passToComm2WayInterface(int rfidNum)

    }
}


DisplayCommInterfaceImplementation .up.|> DisplayCommInterface







package edu.oakland.production.display02 {
    class DisplayComm2WayInterfaceImplementation {
        - DisplayCommManager manager
        __
        + DisplayComm2WayInterfaceImplementation(DisplayCommManager manager)
        .. Use Case 1 ..
        + TrackData passRfidRequest(int rfidNum)
        - void determineUserRequestFormat(int rfidNum)
        - void receiveRequestFromDisplayCommInterface(int rfidNum)
    }
}


DisplayComm2WayInterfaceImplementation .up.|> DisplayComm2WayInterface







package edu.oakland.production.display02 {
    class DisplayCommManagerImplementation {
        - MiddlewareCommInterface middleware
        __
        + DisplayCommManagerImplementation(MiddlewareCommInterface middleware)
        .. Use Case 1 ..
        {abstract} + TrackData evaluateRfidRequest(int rfidNum)
        {abstract} + TrackData passRequestToMiddlewareCommInterface(int rfidNum)
        {abstract} + void receiveRequestFromDisplay2WayInterface(int rfidNum)

    }
}


DisplayCommManagerImplementation .up.|> DisplayCommManager







package edu.oakland.test.display02 {
    
}



package edu.oakland.test.display02 {
    class DisplayCommInterfaceImplementationTests {

    }
}




package edu.oakland.test.display02 {
    class DisplayComm2WayInterfaceStub {
        __
        .. Use Case 1 ..
        {abstract} + TrackData passRfidRequest(int rfidNum)
    }
}


DisplayComm2WayInterfaceStub .up.|> DisplayComm2WayInterface



DisplayCommInterfaceImplementationTests ..> DisplayComm2WayInterfaceStub

DisplayCommInterfaceImplementationTests ..> DisplayCommInterfaceImplementation





package edu.oakland.test.display02 {
    class DisplayComm2WayInterfaceImplementationTests {

    }
}




package edu.oakland.test.display02 {
    class DisplayCommManagerStub {
        __
        .. Use Case 1 ..
        + TrackData evaluateRfidRequest(int rfidNum)
    }
}


DisplayCommManagerStub .up.|> DisplayCommManager



DisplayComm2WayInterfaceImplementationTests ..> DisplayCommManagerStub

DisplayComm2WayInterfaceImplementationTests ..> DisplayComm2WayInterfaceImplementation





package edu.oakland.test.display02 {
    class DisplayCommManagerImplementationTests {

    }
}




package edu.oakland.test.display02 {
    class MiddlewareCommInterfaceStub {
        __
        .. Use Case 1 ..
        + TrackData requestRfid(int rfid)
    }
}






package edu.oakland.production.middleware02 {
    interface MiddlewareCommInterface {
        __
        .. Use Case 1 ..
        {abstract} + TrackData requestRfid(int rfid)
        .. Use Case 2 ..

    }
}






MiddlewareCommInterfaceStub .up.|> MiddlewareCommInterface

DisplayCommManagerImplementationTests ..> MiddlewareCommInterfaceStub

DisplayCommManagerImplementationTests ..> DisplayCommManagerImplementation





package edu.oakland.test.display02 {
    class TrackDataPlotterTests {

    }
}




package edu.oakland.helper.display02 {
    class TrackDataPlotter {
        - TrackData data
        - XYDataset points
        - XYDataset line
        - JFreeChart chart1
        - JFreeChart chart2
        - XYPlot plot
        - ChartPanel chartPanel1
        - ChartPanel chartPanel2
        _
        + TrackDataPlotter(TrackData data)
        .. Use Case 1 ..
        - XYSeries getTrackData()
        - XYSeries calculateLine(int[] x, int[] y)
        - int[] extractLatFromTrackData(TrackData data)
        - int[] extractLngFromTrackData(TrackData data)
    }
}






TrackDataPlotterTests ..> TrackDataPlotter





package edu.oakland.helper.display02 {
    
}



@enduml

PlantUML version 1.2020.02(Sun Mar 01 10:22:07 GMT 2020)
(GPL source distribution)
Java Runtime: OpenJDK Runtime Environment
JVM: OpenJDK 64-Bit Server VM
Java Version: 11.0.9+11-Ubuntu-0ubuntu1
Operating System: Linux
Default Encoding: ANSI_X3.4-1968
Language: en
Country: US
--></g></svg>