<?xml version="1.0" encoding="UTF-8" standalone="no"?><svg xmlns="http://www.w3.org/2000/svg" xmlns:xlink="http://www.w3.org/1999/xlink" contentScriptType="application/ecmascript" contentStyleType="text/css" height="464px" preserveAspectRatio="none" style="width:3062px;height:464px;" version="1.1" viewBox="0 0 3062 464" width="3062px" zoomAndPan="magnify"><defs><filter height="300%" id="feypi4ctwolfa" width="300%" x="-1" y="-1"><feGaussianBlur result="blurOut" stdDeviation="2.0"/><feColorMatrix in="blurOut" result="blurOut2" type="matrix" values="0 0 0 0 0 0 0 0 0 0 0 0 0 0 0 0 0 0 .4 0"/><feOffset dx="4.0" dy="4.0" in="blurOut2" result="blurOut3"/><feBlend in="SourceGraphic" in2="blurOut3" mode="normal"/></filter></defs><g><!--MD5=[fe59aae6f7bfe371a9c197ec1f7f843a]
cluster edu.oakland.production.display02--><polygon fill="#FFFFFF" filter="url(#feypi4ctwolfa)" points="1637,28,1910,28,1917,50.2969,3040,50.2969,3040,407.5,1637,407.5,1637,28" style="stroke: #000000; stroke-width: 1.5;"/><line style="stroke: #000000; stroke-width: 1.5;" x1="1637" x2="1917" y1="50.2969" y2="50.2969"/><text fill="#000000" font-family="sans-serif" font-size="14" font-weight="bold" lengthAdjust="spacingAndGlyphs" textLength="267" x="1641" y="42.9951">edu.oakland.production.display02</text><!--MD5=[9258003ec405d300d3379b4a3d8dd6ad]
cluster edu.oakland.test.display02--><polygon fill="#FFFFFF" filter="url(#feypi4ctwolfa)" points="368,24,586,24,593,46.2969,1613,46.2969,1613,375.5,368,375.5,368,24" style="stroke: #000000; stroke-width: 1.5;"/><line style="stroke: #000000; stroke-width: 1.5;" x1="368" x2="593" y1="46.2969" y2="46.2969"/><text fill="#000000" font-family="sans-serif" font-size="14" font-weight="bold" lengthAdjust="spacingAndGlyphs" textLength="212" x="372" y="38.9951">edu.oakland.test.display02</text><!--MD5=[a502031b5a5384de0a21e6ee820fd3b2]
cluster edu.oakland.helper.display02--><polygon fill="#FFFFFF" filter="url(#feypi4ctwolfa)" points="22,170,260,170,267,192.2969,344,192.2969,344,452,22,452,22,170" style="stroke: #000000; stroke-width: 1.5;"/><line style="stroke: #000000; stroke-width: 1.5;" x1="22" x2="267" y1="192.2969" y2="192.2969"/><text fill="#000000" font-family="sans-serif" font-size="14" font-weight="bold" lengthAdjust="spacingAndGlyphs" textLength="232" x="26" y="184.9951">edu.oakland.helper.display02</text><!--MD5=[c8d1e3134fecb0c949fd2a76cc0bb992]
class DisplayCommInterface--><rect fill="#FEFECE" filter="url(#feypi4ctwolfa)" height="77.6094" id="DisplayCommInterface" style="stroke: #A80036; stroke-width: 1.5;" width="268" x="2705" y="63"/><ellipse cx="2765.25" cy="79" fill="#B4A7E5" rx="11" ry="11" style="stroke: #A80036; stroke-width: 1.0;"/><path d="M2761.1719,74.7656 L2761.1719,72.6094 L2768.5625,72.6094 L2768.5625,74.7656 L2766.0938,74.7656 L2766.0938,82.8438 L2768.5625,82.8438 L2768.5625,85 L2761.1719,85 L2761.1719,82.8438 L2763.6406,82.8438 L2763.6406,74.7656 L2761.1719,74.7656 Z "/><text fill="#000000" font-family="sans-serif" font-size="12" font-style="italic" lengthAdjust="spacingAndGlyphs" textLength="139" x="2785.75" y="83.1543">DisplayCommInterface</text><line style="stroke: #A80036; stroke-width: 1.5;" x1="2706" x2="2972" y1="95" y2="95"/><line style="stroke: #A80036; stroke-width: 1.5;" x1="2706" x2="2972" y1="103" y2="103"/><ellipse cx="2716" cy="130.8047" fill="#84BE84" rx="3" ry="3" style="stroke: #038048; stroke-width: 1.0;"/><text fill="#000000" font-family="sans-serif" font-size="11" font-style="italic" lengthAdjust="spacingAndGlyphs" textLength="242" x="2725" y="134.0151">TrackData receiveRfidRequest(int rfidNum)</text><line style="stroke: #A80036; stroke-width: 1.0; stroke-dasharray: 1.0,2.0;" x1="2706" x2="2806" y1="117.4023" y2="117.4023"/><text fill="#000000" font-family="sans-serif" font-size="11" lengthAdjust="spacingAndGlyphs" textLength="66" x="2806" y="120.7104">Use Case 1</text><line style="stroke: #A80036; stroke-width: 1.0; stroke-dasharray: 1.0,2.0;" x1="2872" x2="2972" y1="117.4023" y2="117.4023"/><!--MD5=[f6b51b5f862da5ce226c62e411e84628]
class DisplayComm2WayInterface--><rect fill="#FEFECE" filter="url(#feypi4ctwolfa)" height="77.6094" id="DisplayComm2WayInterface" style="stroke: #A80036; stroke-width: 1.5;" width="252" x="2138" y="63"/><ellipse cx="2173.7" cy="79" fill="#B4A7E5" rx="11" ry="11" style="stroke: #A80036; stroke-width: 1.0;"/><path d="M2169.6219,74.7656 L2169.6219,72.6094 L2177.0125,72.6094 L2177.0125,74.7656 L2174.5438,74.7656 L2174.5438,82.8438 L2177.0125,82.8438 L2177.0125,85 L2169.6219,85 L2169.6219,82.8438 L2172.0906,82.8438 L2172.0906,74.7656 L2169.6219,74.7656 Z "/><text fill="#000000" font-family="sans-serif" font-size="12" font-style="italic" lengthAdjust="spacingAndGlyphs" textLength="174" x="2192.3" y="83.1543">DisplayComm2WayInterface</text><line style="stroke: #A80036; stroke-width: 1.5;" x1="2139" x2="2389" y1="95" y2="95"/><line style="stroke: #A80036; stroke-width: 1.5;" x1="2139" x2="2389" y1="103" y2="103"/><ellipse cx="2149" cy="130.8047" fill="#84BE84" rx="3" ry="3" style="stroke: #038048; stroke-width: 1.0;"/><text fill="#000000" font-family="sans-serif" font-size="11" font-style="italic" lengthAdjust="spacingAndGlyphs" textLength="226" x="2158" y="134.0151">TrackData passRfidRequest(int rfidNum)</text><line style="stroke: #A80036; stroke-width: 1.0; stroke-dasharray: 1.0,2.0;" x1="2139" x2="2231" y1="117.4023" y2="117.4023"/><text fill="#000000" font-family="sans-serif" font-size="11" lengthAdjust="spacingAndGlyphs" textLength="66" x="2231" y="120.7104">Use Case 1</text><line style="stroke: #A80036; stroke-width: 1.0; stroke-dasharray: 1.0,2.0;" x1="2297" x2="2389" y1="117.4023" y2="117.4023"/><!--MD5=[6aeb72f2773d7cabb45309482beeff0a]
class DisplayCommManager--><rect fill="#FEFECE" filter="url(#feypi4ctwolfa)" height="77.6094" id="DisplayCommManager" style="stroke: #A80036; stroke-width: 1.5;" width="275" x="1702.5" y="63"/><ellipse cx="1767.25" cy="79" fill="#B4A7E5" rx="11" ry="11" style="stroke: #A80036; stroke-width: 1.0;"/><path d="M1763.1719,74.7656 L1763.1719,72.6094 L1770.5625,72.6094 L1770.5625,74.7656 L1768.0938,74.7656 L1768.0938,82.8438 L1770.5625,82.8438 L1770.5625,85 L1763.1719,85 L1763.1719,82.8438 L1765.6406,82.8438 L1765.6406,74.7656 L1763.1719,74.7656 Z "/><text fill="#000000" font-family="sans-serif" font-size="12" font-style="italic" lengthAdjust="spacingAndGlyphs" textLength="137" x="1787.75" y="83.1543">DisplayCommManager</text><line style="stroke: #A80036; stroke-width: 1.5;" x1="1703.5" x2="1976.5" y1="95" y2="95"/><line style="stroke: #A80036; stroke-width: 1.5;" x1="1703.5" x2="1976.5" y1="103" y2="103"/><ellipse cx="1713.5" cy="130.8047" fill="#84BE84" rx="3" ry="3" style="stroke: #038048; stroke-width: 1.0;"/><text fill="#000000" font-family="sans-serif" font-size="11" font-style="italic" lengthAdjust="spacingAndGlyphs" textLength="249" x="1722.5" y="134.0151">TrackData evaluateRfidRequest(int rfidNum)</text><line style="stroke: #A80036; stroke-width: 1.0; stroke-dasharray: 1.0,2.0;" x1="1703.5" x2="1807" y1="117.4023" y2="117.4023"/><text fill="#000000" font-family="sans-serif" font-size="11" lengthAdjust="spacingAndGlyphs" textLength="66" x="1807" y="120.7104">Use Case 1</text><line style="stroke: #A80036; stroke-width: 1.0; stroke-dasharray: 1.0,2.0;" x1="1873" x2="1976.5" y1="117.4023" y2="117.4023"/><!--MD5=[a35092e604da7274febf4e2cf9a25087]
class DisplayCommInterfaceImplementation--><rect fill="#FEFECE" filter="url(#feypi4ctwolfa)" height="116.0234" id="DisplayCommInterfaceImplementation" style="stroke: #A80036; stroke-width: 1.5;" width="369" x="2654.5" y="262.5"/><ellipse cx="2717.25" cy="278.5" fill="#ADD1B2" rx="11" ry="11" style="stroke: #A80036; stroke-width: 1.0;"/><path d="M2720.2188,284.1406 Q2719.6406,284.4375 2719,284.5781 Q2718.3594,284.7344 2717.6563,284.7344 Q2715.1563,284.7344 2713.8281,283.0938 Q2712.5156,281.4375 2712.5156,278.3125 Q2712.5156,275.1875 2713.8281,273.5313 Q2715.1563,271.875 2717.6563,271.875 Q2718.3594,271.875 2719,272.0313 Q2719.6563,272.1875 2720.2188,272.4844 L2720.2188,275.2031 Q2719.5938,274.625 2719,274.3594 Q2718.4063,274.0781 2717.7813,274.0781 Q2716.4375,274.0781 2715.75,275.1563 Q2715.0625,276.2188 2715.0625,278.3125 Q2715.0625,280.4063 2715.75,281.4844 Q2716.4375,282.5469 2717.7813,282.5469 Q2718.4063,282.5469 2719,282.2813 Q2719.5938,282 2720.2188,281.4219 L2720.2188,284.1406 Z "/><text fill="#000000" font-family="sans-serif" font-size="12" lengthAdjust="spacingAndGlyphs" textLength="235" x="2737.75" y="282.6543">DisplayCommInterfaceImplementation</text><line style="stroke: #A80036; stroke-width: 1.5;" x1="2655.5" x2="3022.5" y1="294.5" y2="294.5"/><rect fill="none" height="6" style="stroke: #C82930; stroke-width: 1.0;" width="6" x="2662.5" y="302.5"/><text fill="#000000" font-family="sans-serif" font-size="11" lengthAdjust="spacingAndGlyphs" textLength="207" x="2674.5" y="308.7104">DisplayComm2WayInterface receiver</text><line style="stroke: #A80036; stroke-width: 1.5;" x1="2655.5" x2="3022.5" y1="315.3047" y2="315.3047"/><ellipse cx="2665.5" cy="326.3047" fill="#84BE84" rx="3" ry="3" style="stroke: #038048; stroke-width: 1.0;"/><text fill="#000000" font-family="sans-serif" font-size="11" lengthAdjust="spacingAndGlyphs" textLength="343" x="2674.5" y="329.5151">DisplayCommInterface(DisplayComm2WayInterface receiver)</text><ellipse cx="2665.5" cy="355.9141" fill="#84BE84" rx="3" ry="3" style="stroke: #038048; stroke-width: 1.0;"/><text fill="#000000" font-family="sans-serif" font-size="11" lengthAdjust="spacingAndGlyphs" textLength="240" x="2674.5" y="359.1245">TrackData receiveRfidRequest(int rfidNum)</text><rect fill="#F24D5C" height="6" style="stroke: #C82930; stroke-width: 1.0;" width="6" x="2662.5" y="365.7188"/><text fill="#000000" font-family="sans-serif" font-size="11" lengthAdjust="spacingAndGlyphs" textLength="290" x="2674.5" y="371.9292">TrackData passToComm2WayInterface(int rfidNum)</text><line style="stroke: #A80036; stroke-width: 1.0; stroke-dasharray: 1.0,2.0;" x1="2655.5" x2="2806" y1="342.5117" y2="342.5117"/><text fill="#000000" font-family="sans-serif" font-size="11" lengthAdjust="spacingAndGlyphs" textLength="66" x="2806" y="345.8198">Use Case 1</text><line style="stroke: #A80036; stroke-width: 1.0; stroke-dasharray: 1.0,2.0;" x1="2872" x2="3022.5" y1="342.5117" y2="342.5117"/><!--MD5=[46657c2900260d4d40350fe3f8c544df]
class DisplayComm2WayInterfaceImplementation--><rect fill="#FEFECE" filter="url(#feypi4ctwolfa)" height="128.8281" id="DisplayComm2WayInterfaceImplementation" style="stroke: #A80036; stroke-width: 1.5;" width="461" x="2158.5" y="256"/><ellipse cx="2250.75" cy="272" fill="#ADD1B2" rx="11" ry="11" style="stroke: #A80036; stroke-width: 1.0;"/><path d="M2253.7188,277.6406 Q2253.1406,277.9375 2252.5,278.0781 Q2251.8594,278.2344 2251.1563,278.2344 Q2248.6563,278.2344 2247.3281,276.5938 Q2246.0156,274.9375 2246.0156,271.8125 Q2246.0156,268.6875 2247.3281,267.0313 Q2248.6563,265.375 2251.1563,265.375 Q2251.8594,265.375 2252.5,265.5313 Q2253.1563,265.6875 2253.7188,265.9844 L2253.7188,268.7031 Q2253.0938,268.125 2252.5,267.8594 Q2251.9063,267.5781 2251.2813,267.5781 Q2249.9375,267.5781 2249.25,268.6563 Q2248.5625,269.7188 2248.5625,271.8125 Q2248.5625,273.9063 2249.25,274.9844 Q2249.9375,276.0469 2251.2813,276.0469 Q2251.9063,276.0469 2252.5,275.7813 Q2253.0938,275.5 2253.7188,274.9219 L2253.7188,277.6406 Z "/><text fill="#000000" font-family="sans-serif" font-size="12" lengthAdjust="spacingAndGlyphs" textLength="268" x="2271.25" y="276.1543">DisplayComm2WayInterfaceImplementation</text><line style="stroke: #A80036; stroke-width: 1.5;" x1="2159.5" x2="2618.5" y1="288" y2="288"/><rect fill="none" height="6" style="stroke: #C82930; stroke-width: 1.0;" width="6" x="2166.5" y="296"/><text fill="#000000" font-family="sans-serif" font-size="11" lengthAdjust="spacingAndGlyphs" textLength="182" x="2178.5" y="302.2104">DisplayCommManager manager</text><line style="stroke: #A80036; stroke-width: 1.5;" x1="2159.5" x2="2618.5" y1="308.8047" y2="308.8047"/><ellipse cx="2169.5" cy="319.8047" fill="#84BE84" rx="3" ry="3" style="stroke: #038048; stroke-width: 1.0;"/><text fill="#000000" font-family="sans-serif" font-size="11" lengthAdjust="spacingAndGlyphs" textLength="435" x="2178.5" y="323.0151">DisplayComm2WayInterfaceImplementation(DisplayCommManager manager)</text><ellipse cx="2169.5" cy="349.4141" fill="#84BE84" rx="3" ry="3" style="stroke: #038048; stroke-width: 1.0;"/><text fill="#000000" font-family="sans-serif" font-size="11" lengthAdjust="spacingAndGlyphs" textLength="227" x="2178.5" y="352.6245">TrackData passRfidRequest(int rfidNum)</text><rect fill="#F24D5C" height="6" style="stroke: #C82930; stroke-width: 1.0;" width="6" x="2166.5" y="359.2188"/><text fill="#000000" font-family="sans-serif" font-size="11" lengthAdjust="spacingAndGlyphs" textLength="269" x="2178.5" y="365.4292">void determineUserRequestFormat(int rfidNum)</text><rect fill="#F24D5C" height="6" style="stroke: #C82930; stroke-width: 1.0;" width="6" x="2166.5" y="372.0234"/><text fill="#000000" font-family="sans-serif" font-size="11" lengthAdjust="spacingAndGlyphs" textLength="342" x="2178.5" y="378.2339">void receiveRequestFromDisplayCommInterface(int rfidNum)</text><line style="stroke: #A80036; stroke-width: 1.0; stroke-dasharray: 1.0,2.0;" x1="2159.5" x2="2356" y1="336.0117" y2="336.0117"/><text fill="#000000" font-family="sans-serif" font-size="11" lengthAdjust="spacingAndGlyphs" textLength="66" x="2356" y="339.3198">Use Case 1</text><line style="stroke: #A80036; stroke-width: 1.0; stroke-dasharray: 1.0,2.0;" x1="2422" x2="2618.5" y1="336.0117" y2="336.0117"/><!--MD5=[3a27b63ddb357afc5dde5581215f51f9]
class DisplayCommManagerImplementation--><rect fill="#FEFECE" filter="url(#feypi4ctwolfa)" height="141.6328" id="DisplayCommManagerImplementation" style="stroke: #A80036; stroke-width: 1.5;" width="470" x="1653" y="249.5"/><ellipse cx="1766.75" cy="265.5" fill="#ADD1B2" rx="11" ry="11" style="stroke: #A80036; stroke-width: 1.0;"/><path d="M1769.7188,271.1406 Q1769.1406,271.4375 1768.5,271.5781 Q1767.8594,271.7344 1767.1563,271.7344 Q1764.6563,271.7344 1763.3281,270.0938 Q1762.0156,268.4375 1762.0156,265.3125 Q1762.0156,262.1875 1763.3281,260.5313 Q1764.6563,258.875 1767.1563,258.875 Q1767.8594,258.875 1768.5,259.0313 Q1769.1563,259.1875 1769.7188,259.4844 L1769.7188,262.2031 Q1769.0938,261.625 1768.5,261.3594 Q1767.9063,261.0781 1767.2813,261.0781 Q1765.9375,261.0781 1765.25,262.1563 Q1764.5625,263.2188 1764.5625,265.3125 Q1764.5625,267.4063 1765.25,268.4844 Q1765.9375,269.5469 1767.2813,269.5469 Q1767.9063,269.5469 1768.5,269.2813 Q1769.0938,269 1769.7188,268.4219 L1769.7188,271.1406 Z "/><text fill="#000000" font-family="sans-serif" font-size="12" lengthAdjust="spacingAndGlyphs" textLength="234" x="1787.25" y="269.6543">DisplayCommManagerImplementation</text><line style="stroke: #A80036; stroke-width: 1.5;" x1="1654" x2="2122" y1="281.5" y2="281.5"/><rect fill="none" height="6" style="stroke: #C82930; stroke-width: 1.0;" width="6" x="1661" y="289.5"/><text fill="#000000" font-family="sans-serif" font-size="11" lengthAdjust="spacingAndGlyphs" textLength="221" x="1673" y="295.7104">MiddlewareCommInterface middleware</text><line style="stroke: #A80036; stroke-width: 1.5;" x1="1654" x2="2122" y1="302.3047" y2="302.3047"/><ellipse cx="1664" cy="313.3047" fill="#84BE84" rx="3" ry="3" style="stroke: #038048; stroke-width: 1.0;"/><text fill="#000000" font-family="sans-serif" font-size="11" lengthAdjust="spacingAndGlyphs" textLength="444" x="1673" y="316.5151">DisplayCommManagerImplementation(MiddlewareCommInterface middleware)</text><ellipse cx="1664" cy="342.9141" fill="#84BE84" rx="3" ry="3" style="stroke: #038048; stroke-width: 1.0;"/><text fill="#000000" font-family="sans-serif" font-size="11" lengthAdjust="spacingAndGlyphs" textLength="368" x="1673" y="346.1245">TrackData receiveRequestFromDisplay2WayInterface(int rfidNum)</text><rect fill="#F24D5C" height="6" style="stroke: #C82930; stroke-width: 1.0;" width="6" x="1661" y="352.7188"/><text fill="#000000" font-family="sans-serif" font-size="11" lengthAdjust="spacingAndGlyphs" textLength="247" x="1673" y="358.9292">TrackData evaluateRfidRequest(int rfidNum)</text><rect fill="#F24D5C" height="6" style="stroke: #C82930; stroke-width: 1.0;" width="6" x="1661" y="365.5234"/><text fill="#000000" font-family="sans-serif" font-size="11" lengthAdjust="spacingAndGlyphs" textLength="371" x="1673" y="371.7339">TrackData passRequestToMiddlewareCommInterface(int rfidNum)</text><text fill="#000000" font-family="sans-serif" font-size="11" lengthAdjust="spacingAndGlyphs" textLength="0" x="1677" y="384.5386"/><line style="stroke: #A80036; stroke-width: 1.0; stroke-dasharray: 1.0,2.0;" x1="1654" x2="1855" y1="329.5117" y2="329.5117"/><text fill="#000000" font-family="sans-serif" font-size="11" lengthAdjust="spacingAndGlyphs" textLength="66" x="1855" y="332.8198">Use Case 1</text><line style="stroke: #A80036; stroke-width: 1.0; stroke-dasharray: 1.0,2.0;" x1="1921" x2="2122" y1="329.5117" y2="329.5117"/><!--MD5=[d454b7777f115113290d89683d7a426c]
class DisplayCommInterfaceImplementationTests--><rect fill="#FEFECE" filter="url(#feypi4ctwolfa)" height="86.4141" id="DisplayCommInterfaceImplementationTests" style="stroke: #A80036; stroke-width: 1.5;" width="301" x="1295.5" y="59"/><ellipse cx="1310.5" cy="75" fill="#ADD1B2" rx="11" ry="11" style="stroke: #A80036; stroke-width: 1.0;"/><path d="M1313.4688,80.6406 Q1312.8906,80.9375 1312.25,81.0781 Q1311.6094,81.2344 1310.9063,81.2344 Q1308.4063,81.2344 1307.0781,79.5938 Q1305.7656,77.9375 1305.7656,74.8125 Q1305.7656,71.6875 1307.0781,70.0313 Q1308.4063,68.375 1310.9063,68.375 Q1311.6094,68.375 1312.25,68.5313 Q1312.9063,68.6875 1313.4688,68.9844 L1313.4688,71.7031 Q1312.8438,71.125 1312.25,70.8594 Q1311.6563,70.5781 1311.0313,70.5781 Q1309.6875,70.5781 1309,71.6563 Q1308.3125,72.7188 1308.3125,74.8125 Q1308.3125,76.9063 1309,77.9844 Q1309.6875,79.0469 1311.0313,79.0469 Q1311.6563,79.0469 1312.25,78.7813 Q1312.8438,78.5 1313.4688,77.9219 L1313.4688,80.6406 Z "/><text fill="#000000" font-family="sans-serif" font-size="12" lengthAdjust="spacingAndGlyphs" textLength="269" x="1324.5" y="79.1543">DisplayCommInterfaceImplementationTests</text><line style="stroke: #A80036; stroke-width: 1.5;" x1="1296.5" x2="1595.5" y1="91" y2="91"/><line style="stroke: #A80036; stroke-width: 1.5;" x1="1296.5" x2="1595.5" y1="99" y2="99"/><ellipse cx="1306.5" cy="110" fill="#84BE84" rx="3" ry="3" style="stroke: #038048; stroke-width: 1.0;"/><text fill="#000000" font-family="sans-serif" font-size="11" lengthAdjust="spacingAndGlyphs" textLength="116" x="1315.5" y="113.2104">void isRfidRecieved()</text><ellipse cx="1306.5" cy="122.8047" fill="#84BE84" rx="3" ry="3" style="stroke: #038048; stroke-width: 1.0;"/><text fill="#000000" font-family="sans-serif" font-size="11" lengthAdjust="spacingAndGlyphs" textLength="193" x="1315.5" y="126.0151">void passToComm2WayisNotNull()</text><ellipse cx="1306.5" cy="135.6094" fill="#84BE84" rx="3" ry="3" style="stroke: #038048; stroke-width: 1.0;"/><text fill="#000000" font-family="sans-serif" font-size="11" lengthAdjust="spacingAndGlyphs" textLength="115" x="1315.5" y="138.8198">void rfidInIsRfidOut()</text><!--MD5=[a333ac13e0fdf2a5898aafabd38d3c1b]
class DisplayComm2WayInterfaceStub--><rect fill="#FEFECE" filter="url(#feypi4ctwolfa)" height="77.6094" id="DisplayComm2WayInterfaceStub" style="stroke: #A80036; stroke-width: 1.5;" width="252" x="1332" y="281.5"/><ellipse cx="1356" cy="297.5" fill="#ADD1B2" rx="11" ry="11" style="stroke: #A80036; stroke-width: 1.0;"/><path d="M1358.9688,303.1406 Q1358.3906,303.4375 1357.75,303.5781 Q1357.1094,303.7344 1356.4063,303.7344 Q1353.9063,303.7344 1352.5781,302.0938 Q1351.2656,300.4375 1351.2656,297.3125 Q1351.2656,294.1875 1352.5781,292.5313 Q1353.9063,290.875 1356.4063,290.875 Q1357.1094,290.875 1357.75,291.0313 Q1358.4063,291.1875 1358.9688,291.4844 L1358.9688,294.2031 Q1358.3438,293.625 1357.75,293.3594 Q1357.1563,293.0781 1356.5313,293.0781 Q1355.1875,293.0781 1354.5,294.1563 Q1353.8125,295.2188 1353.8125,297.3125 Q1353.8125,299.4063 1354.5,300.4844 Q1355.1875,301.5469 1356.5313,301.5469 Q1357.1563,301.5469 1357.75,301.2813 Q1358.3438,301 1358.9688,300.4219 L1358.9688,303.1406 Z "/><text fill="#000000" font-family="sans-serif" font-size="12" lengthAdjust="spacingAndGlyphs" textLength="200" x="1372" y="301.6543">DisplayComm2WayInterfaceStub</text><line style="stroke: #A80036; stroke-width: 1.5;" x1="1333" x2="1583" y1="313.5" y2="313.5"/><line style="stroke: #A80036; stroke-width: 1.5;" x1="1333" x2="1583" y1="321.5" y2="321.5"/><ellipse cx="1343" cy="349.3047" fill="#84BE84" rx="3" ry="3" style="stroke: #038048; stroke-width: 1.0;"/><text fill="#000000" font-family="sans-serif" font-size="11" font-style="italic" lengthAdjust="spacingAndGlyphs" textLength="226" x="1352" y="352.5151">TrackData passRfidRequest(int rfidNum)</text><line style="stroke: #A80036; stroke-width: 1.0; stroke-dasharray: 1.0,2.0;" x1="1333" x2="1425" y1="335.9023" y2="335.9023"/><text fill="#000000" font-family="sans-serif" font-size="11" lengthAdjust="spacingAndGlyphs" textLength="66" x="1425" y="339.2104">Use Case 1</text><line style="stroke: #A80036; stroke-width: 1.0; stroke-dasharray: 1.0,2.0;" x1="1491" x2="1583" y1="335.9023" y2="335.9023"/><!--MD5=[178181f4c7684560c711246055fc01d3]
class DisplayComm2WayInterfaceImplementationTests--><rect fill="#FEFECE" filter="url(#feypi4ctwolfa)" height="48" id="DisplayComm2WayInterfaceImplementationTests" style="stroke: #A80036; stroke-width: 1.5;" width="334" x="926" y="78"/><ellipse cx="941" cy="94" fill="#ADD1B2" rx="11" ry="11" style="stroke: #A80036; stroke-width: 1.0;"/><path d="M943.9688,99.6406 Q943.3906,99.9375 942.75,100.0781 Q942.1094,100.2344 941.4063,100.2344 Q938.9063,100.2344 937.5781,98.5938 Q936.2656,96.9375 936.2656,93.8125 Q936.2656,90.6875 937.5781,89.0313 Q938.9063,87.375 941.4063,87.375 Q942.1094,87.375 942.75,87.5313 Q943.4063,87.6875 943.9688,87.9844 L943.9688,90.7031 Q943.3438,90.125 942.75,89.8594 Q942.1563,89.5781 941.5313,89.5781 Q940.1875,89.5781 939.5,90.6563 Q938.8125,91.7188 938.8125,93.8125 Q938.8125,95.9063 939.5,96.9844 Q940.1875,98.0469 941.5313,98.0469 Q942.1563,98.0469 942.75,97.7813 Q943.3438,97.5 943.9688,96.9219 L943.9688,99.6406 Z "/><text fill="#000000" font-family="sans-serif" font-size="12" lengthAdjust="spacingAndGlyphs" textLength="302" x="955" y="98.1543">DisplayComm2WayInterfaceImplementationTests</text><line style="stroke: #A80036; stroke-width: 1.5;" x1="927" x2="1259" y1="110" y2="110"/><line style="stroke: #A80036; stroke-width: 1.5;" x1="927" x2="1259" y1="118" y2="118"/><!--MD5=[2970358178d6cf57fc5a801b39eb8d0b]
class DisplayCommManagerStub--><rect fill="#FEFECE" filter="url(#feypi4ctwolfa)" height="77.6094" id="DisplayCommManagerStub" style="stroke: #A80036; stroke-width: 1.5;" width="273" x="989.5" y="281.5"/><ellipse cx="1038.75" cy="297.5" fill="#ADD1B2" rx="11" ry="11" style="stroke: #A80036; stroke-width: 1.0;"/><path d="M1041.7188,303.1406 Q1041.1406,303.4375 1040.5,303.5781 Q1039.8594,303.7344 1039.1563,303.7344 Q1036.6563,303.7344 1035.3281,302.0938 Q1034.0156,300.4375 1034.0156,297.3125 Q1034.0156,294.1875 1035.3281,292.5313 Q1036.6563,290.875 1039.1563,290.875 Q1039.8594,290.875 1040.5,291.0313 Q1041.1563,291.1875 1041.7188,291.4844 L1041.7188,294.2031 Q1041.0938,293.625 1040.5,293.3594 Q1039.9063,293.0781 1039.2813,293.0781 Q1037.9375,293.0781 1037.25,294.1563 Q1036.5625,295.2188 1036.5625,297.3125 Q1036.5625,299.4063 1037.25,300.4844 Q1037.9375,301.5469 1039.2813,301.5469 Q1039.9063,301.5469 1040.5,301.2813 Q1041.0938,301 1041.7188,300.4219 L1041.7188,303.1406 Z "/><text fill="#000000" font-family="sans-serif" font-size="12" lengthAdjust="spacingAndGlyphs" textLength="166" x="1059.25" y="301.6543">DisplayCommManagerStub</text><line style="stroke: #A80036; stroke-width: 1.5;" x1="990.5" x2="1261.5" y1="313.5" y2="313.5"/><line style="stroke: #A80036; stroke-width: 1.5;" x1="990.5" x2="1261.5" y1="321.5" y2="321.5"/><ellipse cx="1000.5" cy="349.3047" fill="#84BE84" rx="3" ry="3" style="stroke: #038048; stroke-width: 1.0;"/><text fill="#000000" font-family="sans-serif" font-size="11" lengthAdjust="spacingAndGlyphs" textLength="247" x="1009.5" y="352.5151">TrackData evaluateRfidRequest(int rfidNum)</text><line style="stroke: #A80036; stroke-width: 1.0; stroke-dasharray: 1.0,2.0;" x1="990.5" x2="1093" y1="335.9023" y2="335.9023"/><text fill="#000000" font-family="sans-serif" font-size="11" lengthAdjust="spacingAndGlyphs" textLength="66" x="1093" y="339.2104">Use Case 1</text><line style="stroke: #A80036; stroke-width: 1.0; stroke-dasharray: 1.0,2.0;" x1="1159" x2="1261.5" y1="335.9023" y2="335.9023"/><!--MD5=[937d6d8ff87a99d0d5dcd66ee05a1fa4]
class DisplayCommManagerImplementationTests--><rect fill="#FEFECE" filter="url(#feypi4ctwolfa)" height="48" id="DisplayCommManagerImplementationTests" style="stroke: #A80036; stroke-width: 1.5;" width="300" x="591" y="78"/><ellipse cx="606" cy="94" fill="#ADD1B2" rx="11" ry="11" style="stroke: #A80036; stroke-width: 1.0;"/><path d="M608.9688,99.6406 Q608.3906,99.9375 607.75,100.0781 Q607.1094,100.2344 606.4063,100.2344 Q603.9063,100.2344 602.5781,98.5938 Q601.2656,96.9375 601.2656,93.8125 Q601.2656,90.6875 602.5781,89.0313 Q603.9063,87.375 606.4063,87.375 Q607.1094,87.375 607.75,87.5313 Q608.4063,87.6875 608.9688,87.9844 L608.9688,90.7031 Q608.3438,90.125 607.75,89.8594 Q607.1563,89.5781 606.5313,89.5781 Q605.1875,89.5781 604.5,90.6563 Q603.8125,91.7188 603.8125,93.8125 Q603.8125,95.9063 604.5,96.9844 Q605.1875,98.0469 606.5313,98.0469 Q607.1563,98.0469 607.75,97.7813 Q608.3438,97.5 608.9688,96.9219 L608.9688,99.6406 Z "/><text fill="#000000" font-family="sans-serif" font-size="12" lengthAdjust="spacingAndGlyphs" textLength="268" x="620" y="98.1543">DisplayCommManagerImplementationTests</text><line style="stroke: #A80036; stroke-width: 1.5;" x1="592" x2="890" y1="110" y2="110"/><line style="stroke: #A80036; stroke-width: 1.5;" x1="592" x2="890" y1="118" y2="118"/><!--MD5=[cf56a65163663c6c6c7b84cd7c204b97]
class MiddlewareCommInterfaceStub--><rect fill="#FEFECE" filter="url(#feypi4ctwolfa)" height="77.6094" id="MiddlewareCommInterfaceStub" style="stroke: #A80036; stroke-width: 1.5;" width="225" x="628.5" y="281.5"/><ellipse cx="643.5" cy="297.5" fill="#ADD1B2" rx="11" ry="11" style="stroke: #A80036; stroke-width: 1.0;"/><path d="M646.4688,303.1406 Q645.8906,303.4375 645.25,303.5781 Q644.6094,303.7344 643.9063,303.7344 Q641.4063,303.7344 640.0781,302.0938 Q638.7656,300.4375 638.7656,297.3125 Q638.7656,294.1875 640.0781,292.5313 Q641.4063,290.875 643.9063,290.875 Q644.6094,290.875 645.25,291.0313 Q645.9063,291.1875 646.4688,291.4844 L646.4688,294.2031 Q645.8438,293.625 645.25,293.3594 Q644.6563,293.0781 644.0313,293.0781 Q642.6875,293.0781 642,294.1563 Q641.3125,295.2188 641.3125,297.3125 Q641.3125,299.4063 642,300.4844 Q642.6875,301.5469 644.0313,301.5469 Q644.6563,301.5469 645.25,301.2813 Q645.8438,301 646.4688,300.4219 L646.4688,303.1406 Z "/><text fill="#000000" font-family="sans-serif" font-size="12" lengthAdjust="spacingAndGlyphs" textLength="193" x="657.5" y="301.6543">MiddlewareCommInterfaceStub</text><line style="stroke: #A80036; stroke-width: 1.5;" x1="629.5" x2="852.5" y1="313.5" y2="313.5"/><line style="stroke: #A80036; stroke-width: 1.5;" x1="629.5" x2="852.5" y1="321.5" y2="321.5"/><ellipse cx="639.5" cy="349.3047" fill="#84BE84" rx="3" ry="3" style="stroke: #038048; stroke-width: 1.0;"/><text fill="#000000" font-family="sans-serif" font-size="11" lengthAdjust="spacingAndGlyphs" textLength="171" x="648.5" y="352.5151">TrackData requestRfid(int rfid)</text><line style="stroke: #A80036; stroke-width: 1.0; stroke-dasharray: 1.0,2.0;" x1="629.5" x2="708" y1="335.9023" y2="335.9023"/><text fill="#000000" font-family="sans-serif" font-size="11" lengthAdjust="spacingAndGlyphs" textLength="66" x="708" y="339.2104">Use Case 1</text><line style="stroke: #A80036; stroke-width: 1.0; stroke-dasharray: 1.0,2.0;" x1="774" x2="852.5" y1="335.9023" y2="335.9023"/><!--MD5=[930c8140e7c1cb8e71aa7cd49967748e]
class TrackDataPlotterTests--><rect fill="#FEFECE" filter="url(#feypi4ctwolfa)" height="48" id="TrackDataPlotterTests" style="stroke: #A80036; stroke-width: 1.5;" width="172" x="384" y="78"/><ellipse cx="399" cy="94" fill="#ADD1B2" rx="11" ry="11" style="stroke: #A80036; stroke-width: 1.0;"/><path d="M401.9688,99.6406 Q401.3906,99.9375 400.75,100.0781 Q400.1094,100.2344 399.4063,100.2344 Q396.9063,100.2344 395.5781,98.5938 Q394.2656,96.9375 394.2656,93.8125 Q394.2656,90.6875 395.5781,89.0313 Q396.9063,87.375 399.4063,87.375 Q400.1094,87.375 400.75,87.5313 Q401.4063,87.6875 401.9688,87.9844 L401.9688,90.7031 Q401.3438,90.125 400.75,89.8594 Q400.1563,89.5781 399.5313,89.5781 Q398.1875,89.5781 397.5,90.6563 Q396.8125,91.7188 396.8125,93.8125 Q396.8125,95.9063 397.5,96.9844 Q398.1875,98.0469 399.5313,98.0469 Q400.1563,98.0469 400.75,97.7813 Q401.3438,97.5 401.9688,96.9219 L401.9688,99.6406 Z "/><text fill="#000000" font-family="sans-serif" font-size="12" lengthAdjust="spacingAndGlyphs" textLength="140" x="413" y="98.1543">TrackDataPlotterTests</text><line style="stroke: #A80036; stroke-width: 1.5;" x1="385" x2="555" y1="110" y2="110"/><line style="stroke: #A80036; stroke-width: 1.5;" x1="385" x2="555" y1="118" y2="118"/><!--MD5=[c986427b061286eff33e87a088ad4bf9]
class TrackDataPlotter--><rect fill="#FEFECE" filter="url(#feypi4ctwolfa)" height="231.2656" id="TrackDataPlotter" style="stroke: #A80036; stroke-width: 1.5;" width="291" x="37.5" y="205"/><ellipse cx="125.75" cy="221" fill="#ADD1B2" rx="11" ry="11" style="stroke: #A80036; stroke-width: 1.0;"/><path d="M128.7188,226.6406 Q128.1406,226.9375 127.5,227.0781 Q126.8594,227.2344 126.1563,227.2344 Q123.6563,227.2344 122.3281,225.5938 Q121.0156,223.9375 121.0156,220.8125 Q121.0156,217.6875 122.3281,216.0313 Q123.6563,214.375 126.1563,214.375 Q126.8594,214.375 127.5,214.5313 Q128.1563,214.6875 128.7188,214.9844 L128.7188,217.7031 Q128.0938,217.125 127.5,216.8594 Q126.9063,216.5781 126.2813,216.5781 Q124.9375,216.5781 124.25,217.6563 Q123.5625,218.7188 123.5625,220.8125 Q123.5625,222.9063 124.25,223.9844 Q124.9375,225.0469 126.2813,225.0469 Q126.9063,225.0469 127.5,224.7813 Q128.0938,224.5 128.7188,223.9219 L128.7188,226.6406 Z "/><text fill="#000000" font-family="sans-serif" font-size="12" lengthAdjust="spacingAndGlyphs" textLength="106" x="146.25" y="225.1543">TrackDataPlotter</text><line style="stroke: #A80036; stroke-width: 1.5;" x1="38.5" x2="327.5" y1="237" y2="237"/><rect fill="none" height="6" style="stroke: #C82930; stroke-width: 1.0;" width="6" x="45.5" y="245"/><text fill="#000000" font-family="sans-serif" font-size="11" lengthAdjust="spacingAndGlyphs" textLength="86" x="57.5" y="251.2104">TrackData data</text><rect fill="none" height="6" style="stroke: #C82930; stroke-width: 1.0;" width="6" x="45.5" y="257.8047"/><text fill="#000000" font-family="sans-serif" font-size="11" lengthAdjust="spacingAndGlyphs" textLength="97" x="57.5" y="264.0151">XYDataset points</text><rect fill="none" height="6" style="stroke: #C82930; stroke-width: 1.0;" width="6" x="45.5" y="270.6094"/><text fill="#000000" font-family="sans-serif" font-size="11" lengthAdjust="spacingAndGlyphs" textLength="82" x="57.5" y="276.8198">XYDataset line</text><rect fill="none" height="6" style="stroke: #C82930; stroke-width: 1.0;" width="6" x="45.5" y="283.4141"/><text fill="#000000" font-family="sans-serif" font-size="11" lengthAdjust="spacingAndGlyphs" textLength="99" x="57.5" y="289.6245">JFreeChart chart1</text><rect fill="none" height="6" style="stroke: #C82930; stroke-width: 1.0;" width="6" x="45.5" y="296.2188"/><text fill="#000000" font-family="sans-serif" font-size="11" lengthAdjust="spacingAndGlyphs" textLength="99" x="57.5" y="302.4292">JFreeChart chart2</text><rect fill="none" height="6" style="stroke: #C82930; stroke-width: 1.0;" width="6" x="45.5" y="309.0234"/><text fill="#000000" font-family="sans-serif" font-size="11" lengthAdjust="spacingAndGlyphs" textLength="60" x="57.5" y="315.2339">XYPlot plot</text><rect fill="none" height="6" style="stroke: #C82930; stroke-width: 1.0;" width="6" x="45.5" y="321.8281"/><text fill="#000000" font-family="sans-serif" font-size="11" lengthAdjust="spacingAndGlyphs" textLength="133" x="57.5" y="328.0386">ChartPanel chartPanel1</text><rect fill="none" height="6" style="stroke: #C82930; stroke-width: 1.0;" width="6" x="45.5" y="334.6328"/><text fill="#000000" font-family="sans-serif" font-size="11" lengthAdjust="spacingAndGlyphs" textLength="133" x="57.5" y="340.8433">ChartPanel chartPanel2</text><line style="stroke: #A80036; stroke-width: 1.5;" x1="38.5" x2="327.5" y1="347.4375" y2="347.4375"/><ellipse cx="48.5" cy="358.4375" fill="#84BE84" rx="3" ry="3" style="stroke: #038048; stroke-width: 1.0;"/><text fill="#000000" font-family="sans-serif" font-size="11" lengthAdjust="spacingAndGlyphs" textLength="188" x="57.5" y="361.6479">TrackDataPlotter(TrackData data)</text><rect fill="#F24D5C" height="6" style="stroke: #C82930; stroke-width: 1.0;" width="6" x="45.5" y="385.0469"/><text fill="#000000" font-family="sans-serif" font-size="11" lengthAdjust="spacingAndGlyphs" textLength="138" x="57.5" y="391.2573">XYSeries getTrackData()</text><rect fill="#F24D5C" height="6" style="stroke: #C82930; stroke-width: 1.0;" width="6" x="45.5" y="397.8516"/><text fill="#000000" font-family="sans-serif" font-size="11" lengthAdjust="spacingAndGlyphs" textLength="208" x="57.5" y="404.062">XYSeries calculateLine(int[] x, int[] y)</text><rect fill="#F24D5C" height="6" style="stroke: #C82930; stroke-width: 1.0;" width="6" x="45.5" y="410.6563"/><text fill="#000000" font-family="sans-serif" font-size="11" lengthAdjust="spacingAndGlyphs" textLength="262" x="57.5" y="416.8667">int[] extractLatFromTrackData(TrackData data)</text><rect fill="#F24D5C" height="6" style="stroke: #C82930; stroke-width: 1.0;" width="6" x="45.5" y="423.4609"/><text fill="#000000" font-family="sans-serif" font-size="11" lengthAdjust="spacingAndGlyphs" textLength="265" x="57.5" y="429.6714">int[] extractLngFromTrackData(TrackData data)</text><line style="stroke: #A80036; stroke-width: 1.0; stroke-dasharray: 1.0,2.0;" x1="38.5" x2="150" y1="374.6445" y2="374.6445"/><text fill="#000000" font-family="sans-serif" font-size="11" lengthAdjust="spacingAndGlyphs" textLength="66" x="150" y="377.9526">Use Case 1</text><line style="stroke: #A80036; stroke-width: 1.0; stroke-dasharray: 1.0,2.0;" x1="216" x2="327.5" y1="374.6445" y2="374.6445"/><!--MD5=[77bc37423dd8876786830fad4054e33b]
reverse link DisplayCommInterface to DisplayCommInterfaceImplementation--><path d="M2839,161.53 C2839,192.77 2839,231.07 2839,262.13 " fill="none" id="DisplayCommInterface&lt;-DisplayCommInterfaceImplementation" style="stroke: #A80036; stroke-width: 1.0; stroke-dasharray: 7.0,7.0;"/><polygon fill="none" points="2832,161.21,2839,141.21,2846,161.21,2832,161.21" style="stroke: #A80036; stroke-width: 1.0;"/><!--MD5=[4e991cf787e933c55089f97eae394828]
reverse link DisplayComm2WayInterface to DisplayComm2WayInterfaceImplementation--><path d="M2296.14,158.67 C2313.28,188.35 2334.44,225 2352.23,255.81 " fill="none" id="DisplayComm2WayInterface&lt;-DisplayComm2WayInterfaceImplementation" style="stroke: #A80036; stroke-width: 1.0; stroke-dasharray: 7.0,7.0;"/><polygon fill="none" points="2290,162.03,2286.06,141.21,2302.12,155.03,2290,162.03" style="stroke: #A80036; stroke-width: 1.0;"/><!--MD5=[5beed6c3c7e4a84a4bfaa95bdf8cce79]
reverse link DisplayCommManager to DisplayCommManagerImplementation--><path d="M1852.81,160.79 C1858.85,188 1866.09,220.69 1872.44,249.31 " fill="none" id="DisplayCommManager&lt;-DisplayCommManagerImplementation" style="stroke: #A80036; stroke-width: 1.0; stroke-dasharray: 7.0,7.0;"/><polygon fill="none" points="1845.97,162.25,1848.47,141.21,1859.63,159.22,1845.97,162.25" style="stroke: #A80036; stroke-width: 1.0;"/><!--MD5=[9a02b467888c5123255f55ebe5217d7a]
link DisplayCommInterfaceImplementationTests to DisplayComm2WayInterfaceStub--><path d="M1448.33,145 C1450.42,182.78 1453.49,238.04 1455.6,276.21 " fill="none" id="DisplayCommInterfaceImplementationTests-&gt;DisplayComm2WayInterfaceStub" style="stroke: #A80036; stroke-width: 1.0; stroke-dasharray: 7.0,7.0;"/><polygon fill="#A80036" points="1455.88,281.25,1459.3848,272.0459,1455.6082,276.2574,1451.3967,272.4808,1455.88,281.25" style="stroke: #A80036; stroke-width: 1.0;"/><!--MD5=[69695ace36e753468876c8d4fe5d2708]
link DisplayComm2WayInterfaceImplementationTests to DisplayCommManagerStub--><path d="M1096.53,126.17 C1101.98,161.88 1112.51,230.97 1119.39,276.15 " fill="none" id="DisplayComm2WayInterfaceImplementationTests-&gt;DisplayCommManagerStub" style="stroke: #A80036; stroke-width: 1.0; stroke-dasharray: 7.0,7.0;"/><polygon fill="#A80036" points="1120.17,281.26,1122.7612,271.7581,1119.4129,276.3176,1114.8534,272.9694,1120.17,281.26" style="stroke: #A80036; stroke-width: 1.0;"/><!--MD5=[a3caa78d97a9caf08bd2afaaae1510f4]
link DisplayCommManagerImplementationTests to MiddlewareCommInterfaceStub--><path d="M741,126.17 C741,161.88 741,230.97 741,276.15 " fill="none" id="DisplayCommManagerImplementationTests-&gt;MiddlewareCommInterfaceStub" style="stroke: #A80036; stroke-width: 1.0; stroke-dasharray: 7.0,7.0;"/><polygon fill="#A80036" points="741,281.26,745,272.26,741,276.26,737,272.26,741,281.26" style="stroke: #A80036; stroke-width: 1.0;"/><!--MD5=[0cd290e6298e838268680010d5032c0d]
link DisplayCommInterfaceImplementationTests to DisplayCommInterfaceImplementation--><path d="M1596.7,139.05 C1610.27,141.41 1623.85,143.46 1637,145 C1692.19,151.47 2584.61,143.49 2637,162 C2692.42,181.58 2744.47,222.93 2781.85,258.35 " fill="none" id="DisplayCommInterfaceImplementationTests-&gt;DisplayCommInterfaceImplementation" style="stroke: #A80036; stroke-width: 1.0; stroke-dasharray: 7.0,7.0;"/><polygon fill="#A80036" points="2785.87,262.2,2782.1311,253.0884,2782.2568,258.7439,2776.6013,258.8696,2785.87,262.2" style="stroke: #A80036; stroke-width: 1.0;"/><!--MD5=[ce67f838794c14794f693dd46a642b9a]
link DisplayComm2WayInterfaceImplementationTests to DisplayComm2WayInterfaceImplementation--><path d="M1177.56,126 C1208.87,133.51 1244.82,140.95 1278,145 C1373.09,156.61 2048.25,134.44 2140,162 C2201.46,180.47 2262.49,218.66 2308.74,252.81 " fill="none" id="DisplayComm2WayInterfaceImplementationTests-&gt;DisplayComm2WayInterfaceImplementation" style="stroke: #A80036; stroke-width: 1.0; stroke-dasharray: 7.0,7.0;"/><polygon fill="#A80036" points="2312.89,255.89,2308.0557,247.3093,2308.878,252.906,2303.2813,253.7284,2312.89,255.89" style="stroke: #A80036; stroke-width: 1.0;"/><!--MD5=[6f3abcadcd809ea193290ea1cf8b820a]
link DisplayCommManagerImplementationTests to DisplayCommManagerImplementation--><path d="M817.62,126.07 C845.78,133.53 878.08,140.93 908,145 C985.64,155.57 1537.53,140.94 1613,162 C1675.5,179.44 1738.78,214.24 1788.85,246.7 " fill="none" id="DisplayCommManagerImplementationTests-&gt;DisplayCommManagerImplementation" style="stroke: #A80036; stroke-width: 1.0; stroke-dasharray: 7.0,7.0;"/><polygon fill="#A80036" points="1793.04,249.43,1787.672,241.1726,1788.8471,246.7061,1783.3137,247.8812,1793.04,249.43" style="stroke: #A80036; stroke-width: 1.0;"/><!--MD5=[f24e7409bf4fec90fef0ed7e05f90b9b]
link TrackDataPlotterTests to TrackDataPlotter--><path d="M426.25,126.02 C407.8,136.3 386.38,149.02 368,162 C350.62,174.27 332.91,187.82 315.67,201.67 " fill="none" id="TrackDataPlotterTests-&gt;TrackDataPlotter" style="stroke: #A80036; stroke-width: 1.0; stroke-dasharray: 7.0,7.0;"/><polygon fill="#A80036" points="311.77,204.82,321.2876,202.2873,315.6632,201.6826,316.2678,196.0582,311.77,204.82" style="stroke: #A80036; stroke-width: 1.0;"/><!--MD5=[6aaeadb42451b39b4e2cdcf83e2bb4cd]
reverse link DisplayComm2WayInterface to DisplayComm2WayInterfaceStub--><path d="M2117.95,128.73 C2078.18,134.93 2035.03,140.94 1995,145 C1915.76,153.04 1710.83,132.12 1637,162 C1575.03,187.08 1520.01,243.2 1487.83,281.21 " fill="none" id="DisplayComm2WayInterface&lt;-DisplayComm2WayInterfaceStub" style="stroke: #A80036; stroke-width: 1.0; stroke-dasharray: 7.0,7.0;"/><polygon fill="none" points="2116.93,121.8,2137.78,125.57,2119.13,135.63,2116.93,121.8" style="stroke: #A80036; stroke-width: 1.0;"/><!--MD5=[e6e0d8b3e0f7bf14f11c0899b3ad37ae]
reverse link DisplayCommManager to DisplayCommManagerStub--><path d="M1682.55,134.78 C1659.3,138.7 1635.58,142.28 1613,145 C1546.93,152.96 1375.88,137.5 1314,162 C1250.07,187.32 1191.98,243.38 1157.8,281.31 " fill="none" id="DisplayCommManager&lt;-DisplayCommManagerStub" style="stroke: #A80036; stroke-width: 1.0; stroke-dasharray: 7.0,7.0;"/><polygon fill="none" points="1681.47,127.86,1702.38,131.34,1683.87,141.66,1681.47,127.86" style="stroke: #A80036; stroke-width: 1.0;"/><!--MD5=[4e4aeaa36211dcaf16e909ced605b17f]
@startuml Display02Packages_InternalDependencies


package edu.oakland.production.display02 {
    
}


package edu.oakland.production.display02 {
    interface DisplayCommInterface {
        __
        .. Use Case 1 ..
        {abstract} + TrackData receiveRfidRequest(int rfidNum)
    }
}


package edu.oakland.production.display02 {
    interface DisplayComm2WayInterface {
        __
        .. Use Case 1 ..
        {abstract} + TrackData passRfidRequest(int rfidNum)
    }
}


package edu.oakland.production.display02 {
    interface DisplayCommManager {
        __
        .. Use Case 1 ..
        {abstract} + TrackData evaluateRfidRequest(int rfidNum)
    }
}


package edu.oakland.production.display02 {
    class DisplayCommInterfaceImplementation {
        - DisplayComm2WayInterface receiver
        __
        + DisplayCommInterface(DisplayComm2WayInterface receiver)
        .. Use Case 1 ..
        + TrackData receiveRfidRequest(int rfidNum)
        - TrackData passToComm2WayInterface(int rfidNum)
    }
}


DisplayCommInterfaceImplementation .up.|> DisplayCommInterface

package edu.oakland.production.display02 {
    class DisplayComm2WayInterfaceImplementation {
        - DisplayCommManager manager
        __
        + DisplayComm2WayInterfaceImplementation(DisplayCommManager manager)
        .. Use Case 1 ..
        + TrackData passRfidRequest(int rfidNum)
        - void determineUserRequestFormat(int rfidNum)
        - void receiveRequestFromDisplayCommInterface(int rfidNum)
    }
}


DisplayComm2WayInterfaceImplementation .up.|> DisplayComm2WayInterface

package edu.oakland.production.display02 {
    class DisplayCommManagerImplementation {
        - MiddlewareCommInterface middleware
        __
        + DisplayCommManagerImplementation(MiddlewareCommInterface middleware)
        .. Use Case 1 ..
        + TrackData receiveRequestFromDisplay2WayInterface(int rfidNum)
        - TrackData evaluateRfidRequest(int rfidNum)
        - TrackData passRequestToMiddlewareCommInterface(int rfidNum)
        
    }
}


DisplayCommManagerImplementation .up.|> DisplayCommManager








package edu.oakland.test.display02 {
    
}


package edu.oakland.test.display02 {
    class DisplayCommInterfaceImplementationTests {
        + void isRfidRecieved()
        + void passToComm2WayisNotNull()
        + void rfidInIsRfidOut()

    }
}



package edu.oakland.test.display02 {
    class DisplayComm2WayInterfaceStub {
        __
        .. Use Case 1 ..
        {abstract} + TrackData passRfidRequest(int rfidNum)
    }
}

DisplayCommInterfaceImplementationTests ..> DisplayComm2WayInterfaceStub

package edu.oakland.test.display02 {
    class DisplayComm2WayInterfaceImplementationTests {

    }
}



package edu.oakland.test.display02 {
    class DisplayCommManagerStub {
        __
        .. Use Case 1 ..
        + TrackData evaluateRfidRequest(int rfidNum)
    }
}

DisplayComm2WayInterfaceImplementationTests ..> DisplayCommManagerStub

package edu.oakland.test.display02 {
    class DisplayCommManagerImplementationTests {

    }
}



package edu.oakland.test.display02 {
    class MiddlewareCommInterfaceStub {
        __
        .. Use Case 1 ..
        + TrackData requestRfid(int rfid)
    }
}

DisplayCommManagerImplementationTests ..> MiddlewareCommInterfaceStub

package edu.oakland.test.display02 {
    class TrackDataPlotterTests {

    }
}


DisplayCommInterfaceImplementationTests ..> DisplayCommInterfaceImplementation
DisplayComm2WayInterfaceImplementationTests ..> DisplayComm2WayInterfaceImplementation
DisplayCommManagerImplementationTests ..> DisplayCommManagerImplementation

package edu.oakland.helper.display02 {
    class TrackDataPlotter {
        - TrackData data
        - XYDataset points
        - XYDataset line
        - JFreeChart chart1
        - JFreeChart chart2
        - XYPlot plot
        - ChartPanel chartPanel1
        - ChartPanel chartPanel2
        __
        + TrackDataPlotter(TrackData data)
        .. Use Case 1 ..
        - XYSeries getTrackData()
        - XYSeries calculateLine(int[] x, int[] y)
        - int[] extractLatFromTrackData(TrackData data)
        - int[] extractLngFromTrackData(TrackData data)
    }
}

TrackDataPlotterTests ..> TrackDataPlotter
DisplayComm2WayInterfaceStub .up.|> DisplayComm2WayInterface
DisplayCommManagerStub .up.|> DisplayCommManager


package edu.oakland.helper.display02 {
    
}




@enduml

PlantUML version 1.2020.02(Sun Mar 01 10:22:07 GMT 2020)
(GPL source distribution)
Java Runtime: OpenJDK Runtime Environment
JVM: OpenJDK 64-Bit Server VM
Java Version: 11.0.9+11-Ubuntu-0ubuntu1
Operating System: Linux
Default Encoding: ANSI_X3.4-1968
Language: en
Country: US
--></g></svg>