<?xml version="1.0" encoding="UTF-8" standalone="no"?><svg xmlns="http://www.w3.org/2000/svg" xmlns:xlink="http://www.w3.org/1999/xlink" contentScriptType="application/ecmascript" contentStyleType="text/css" height="451px" preserveAspectRatio="none" style="width:3118px;height:451px;" version="1.1" viewBox="0 0 3118 451" width="3118px" zoomAndPan="magnify"><defs><filter height="300%" id="fjye7oze3xwka" width="300%" x="-1" y="-1"><feGaussianBlur result="blurOut" stdDeviation="2.0"/><feColorMatrix in="blurOut" result="blurOut2" type="matrix" values="0 0 0 0 0 0 0 0 0 0 0 0 0 0 0 0 0 0 .4 0"/><feOffset dx="4.0" dy="4.0" in="blurOut2" result="blurOut3"/><feBlend in="SourceGraphic" in2="blurOut3" mode="normal"/></filter></defs><g><!--MD5=[fe59aae6f7bfe371a9c197ec1f7f843a]
cluster edu.oakland.production.display02--><polygon fill="#FFFFFF" filter="url(#fjye7oze3xwka)" points="1693,28,1966,28,1973,50.2969,3096,50.2969,3096,401,1693,401,1693,28" style="stroke: #000000; stroke-width: 1.5;"/><line style="stroke: #000000; stroke-width: 1.5;" x1="1693" x2="1973" y1="50.2969" y2="50.2969"/><text fill="#000000" font-family="sans-serif" font-size="14" font-weight="bold" lengthAdjust="spacingAndGlyphs" textLength="267" x="1697" y="42.9951">edu.oakland.production.display02</text><!--MD5=[9258003ec405d300d3379b4a3d8dd6ad]
cluster edu.oakland.test.display02--><polygon fill="#FFFFFF" filter="url(#fjye7oze3xwka)" points="380,24,598,24,605,46.2969,1669,46.2969,1669,369,380,369,380,24" style="stroke: #000000; stroke-width: 1.5;"/><line style="stroke: #000000; stroke-width: 1.5;" x1="380" x2="605" y1="46.2969" y2="46.2969"/><text fill="#000000" font-family="sans-serif" font-size="14" font-weight="bold" lengthAdjust="spacingAndGlyphs" textLength="212" x="384" y="38.9951">edu.oakland.test.display02</text><!--MD5=[a502031b5a5384de0a21e6ee820fd3b2]
cluster edu.oakland.helper.display02--><polygon fill="#FFFFFF" filter="url(#fjye7oze3xwka)" points="22,170,260,170,267,192.2969,356,192.2969,356,439,22,439,22,170" style="stroke: #000000; stroke-width: 1.5;"/><line style="stroke: #000000; stroke-width: 1.5;" x1="22" x2="267" y1="192.2969" y2="192.2969"/><text fill="#000000" font-family="sans-serif" font-size="14" font-weight="bold" lengthAdjust="spacingAndGlyphs" textLength="232" x="26" y="184.9951">edu.oakland.helper.display02</text><!--MD5=[c8d1e3134fecb0c949fd2a76cc0bb992]
class DisplayCommInterface--><rect fill="#FEFECE" filter="url(#fjye7oze3xwka)" height="77.6094" id="DisplayCommInterface" style="stroke: #A80036; stroke-width: 1.5;" width="268" x="2761" y="63"/><ellipse cx="2821.25" cy="79" fill="#B4A7E5" rx="11" ry="11" style="stroke: #A80036; stroke-width: 1.0;"/><path d="M2817.1719,74.7656 L2817.1719,72.6094 L2824.5625,72.6094 L2824.5625,74.7656 L2822.0938,74.7656 L2822.0938,82.8438 L2824.5625,82.8438 L2824.5625,85 L2817.1719,85 L2817.1719,82.8438 L2819.6406,82.8438 L2819.6406,74.7656 L2817.1719,74.7656 Z "/><text fill="#000000" font-family="sans-serif" font-size="12" font-style="italic" lengthAdjust="spacingAndGlyphs" textLength="139" x="2841.75" y="83.1543">DisplayCommInterface</text><line style="stroke: #A80036; stroke-width: 1.5;" x1="2762" x2="3028" y1="95" y2="95"/><line style="stroke: #A80036; stroke-width: 1.5;" x1="2762" x2="3028" y1="103" y2="103"/><ellipse cx="2772" cy="130.8047" fill="#84BE84" rx="3" ry="3" style="stroke: #038048; stroke-width: 1.0;"/><text fill="#000000" font-family="sans-serif" font-size="11" font-style="italic" lengthAdjust="spacingAndGlyphs" textLength="242" x="2781" y="134.0151">TrackData receiveRfidRequest(int rfidNum)</text><line style="stroke: #A80036; stroke-width: 1.0; stroke-dasharray: 1.0,2.0;" x1="2762" x2="2862" y1="117.4023" y2="117.4023"/><text fill="#000000" font-family="sans-serif" font-size="11" lengthAdjust="spacingAndGlyphs" textLength="66" x="2862" y="120.7104">Use Case 1</text><line style="stroke: #A80036; stroke-width: 1.0; stroke-dasharray: 1.0,2.0;" x1="2928" x2="3028" y1="117.4023" y2="117.4023"/><!--MD5=[f6b51b5f862da5ce226c62e411e84628]
class DisplayComm2WayInterface--><rect fill="#FEFECE" filter="url(#fjye7oze3xwka)" height="77.6094" id="DisplayComm2WayInterface" style="stroke: #A80036; stroke-width: 1.5;" width="252" x="2184" y="63"/><ellipse cx="2219.7" cy="79" fill="#B4A7E5" rx="11" ry="11" style="stroke: #A80036; stroke-width: 1.0;"/><path d="M2215.6219,74.7656 L2215.6219,72.6094 L2223.0125,72.6094 L2223.0125,74.7656 L2220.5438,74.7656 L2220.5438,82.8438 L2223.0125,82.8438 L2223.0125,85 L2215.6219,85 L2215.6219,82.8438 L2218.0906,82.8438 L2218.0906,74.7656 L2215.6219,74.7656 Z "/><text fill="#000000" font-family="sans-serif" font-size="12" font-style="italic" lengthAdjust="spacingAndGlyphs" textLength="174" x="2238.3" y="83.1543">DisplayComm2WayInterface</text><line style="stroke: #A80036; stroke-width: 1.5;" x1="2185" x2="2435" y1="95" y2="95"/><line style="stroke: #A80036; stroke-width: 1.5;" x1="2185" x2="2435" y1="103" y2="103"/><ellipse cx="2195" cy="130.8047" fill="#84BE84" rx="3" ry="3" style="stroke: #038048; stroke-width: 1.0;"/><text fill="#000000" font-family="sans-serif" font-size="11" font-style="italic" lengthAdjust="spacingAndGlyphs" textLength="226" x="2204" y="134.0151">TrackData passRfidRequest(int rfidNum)</text><line style="stroke: #A80036; stroke-width: 1.0; stroke-dasharray: 1.0,2.0;" x1="2185" x2="2277" y1="117.4023" y2="117.4023"/><text fill="#000000" font-family="sans-serif" font-size="11" lengthAdjust="spacingAndGlyphs" textLength="66" x="2277" y="120.7104">Use Case 1</text><line style="stroke: #A80036; stroke-width: 1.0; stroke-dasharray: 1.0,2.0;" x1="2343" x2="2435" y1="117.4023" y2="117.4023"/><!--MD5=[6aeb72f2773d7cabb45309482beeff0a]
class DisplayCommManager--><rect fill="#FEFECE" filter="url(#fjye7oze3xwka)" height="77.6094" id="DisplayCommManager" style="stroke: #A80036; stroke-width: 1.5;" width="249" x="1764.5" y="63"/><ellipse cx="1816.25" cy="79" fill="#B4A7E5" rx="11" ry="11" style="stroke: #A80036; stroke-width: 1.0;"/><path d="M1812.1719,74.7656 L1812.1719,72.6094 L1819.5625,72.6094 L1819.5625,74.7656 L1817.0938,74.7656 L1817.0938,82.8438 L1819.5625,82.8438 L1819.5625,85 L1812.1719,85 L1812.1719,82.8438 L1814.6406,82.8438 L1814.6406,74.7656 L1812.1719,74.7656 Z "/><text fill="#000000" font-family="sans-serif" font-size="12" font-style="italic" lengthAdjust="spacingAndGlyphs" textLength="137" x="1836.75" y="83.1543">DisplayCommManager</text><line style="stroke: #A80036; stroke-width: 1.5;" x1="1765.5" x2="2012.5" y1="95" y2="95"/><line style="stroke: #A80036; stroke-width: 1.5;" x1="1765.5" x2="2012.5" y1="103" y2="103"/><ellipse cx="1775.5" cy="130.8047" fill="#84BE84" rx="3" ry="3" style="stroke: #038048; stroke-width: 1.0;"/><text fill="#000000" font-family="sans-serif" font-size="11" font-style="italic" lengthAdjust="spacingAndGlyphs" textLength="223" x="1784.5" y="134.0151">TrackData evaluateRfidRequest(int rfid)</text><line style="stroke: #A80036; stroke-width: 1.0; stroke-dasharray: 1.0,2.0;" x1="1765.5" x2="1856" y1="117.4023" y2="117.4023"/><text fill="#000000" font-family="sans-serif" font-size="11" lengthAdjust="spacingAndGlyphs" textLength="66" x="1856" y="120.7104">Use Case 1</text><line style="stroke: #A80036; stroke-width: 1.0; stroke-dasharray: 1.0,2.0;" x1="1922" x2="2012.5" y1="117.4023" y2="117.4023"/><!--MD5=[a35092e604da7274febf4e2cf9a25087]
class DisplayCommInterfaceImplementation--><rect fill="#FEFECE" filter="url(#fjye7oze3xwka)" height="141.6328" id="DisplayCommInterfaceImplementation" style="stroke: #A80036; stroke-width: 1.5;" width="369" x="2710.5" y="243"/><ellipse cx="2773.25" cy="259" fill="#ADD1B2" rx="11" ry="11" style="stroke: #A80036; stroke-width: 1.0;"/><path d="M2776.2188,264.6406 Q2775.6406,264.9375 2775,265.0781 Q2774.3594,265.2344 2773.6563,265.2344 Q2771.1563,265.2344 2769.8281,263.5938 Q2768.5156,261.9375 2768.5156,258.8125 Q2768.5156,255.6875 2769.8281,254.0313 Q2771.1563,252.375 2773.6563,252.375 Q2774.3594,252.375 2775,252.5313 Q2775.6563,252.6875 2776.2188,252.9844 L2776.2188,255.7031 Q2775.5938,255.125 2775,254.8594 Q2774.4063,254.5781 2773.7813,254.5781 Q2772.4375,254.5781 2771.75,255.6563 Q2771.0625,256.7188 2771.0625,258.8125 Q2771.0625,260.9063 2771.75,261.9844 Q2772.4375,263.0469 2773.7813,263.0469 Q2774.4063,263.0469 2775,262.7813 Q2775.5938,262.5 2776.2188,261.9219 L2776.2188,264.6406 Z "/><text fill="#000000" font-family="sans-serif" font-size="12" lengthAdjust="spacingAndGlyphs" textLength="235" x="2793.75" y="263.1543">DisplayCommInterfaceImplementation</text><line style="stroke: #A80036; stroke-width: 1.5;" x1="2711.5" x2="3078.5" y1="275" y2="275"/><rect fill="none" height="6" style="stroke: #C82930; stroke-width: 1.0;" width="6" x="2718.5" y="283"/><text fill="#000000" font-family="sans-serif" font-size="11" lengthAdjust="spacingAndGlyphs" textLength="207" x="2730.5" y="289.2104">DisplayComm2WayInterface receiver</text><rect fill="none" height="6" style="stroke: #C82930; stroke-width: 1.0;" width="6" x="2718.5" y="295.8047"/><text fill="#000000" font-family="sans-serif" font-size="11" lengthAdjust="spacingAndGlyphs" textLength="86" x="2730.5" y="302.0151">TrackData data</text><rect fill="none" height="6" style="stroke: #C82930; stroke-width: 1.0;" width="6" x="2718.5" y="308.6094"/><text fill="#000000" font-family="sans-serif" font-size="11" lengthAdjust="spacingAndGlyphs" textLength="135" x="2730.5" y="314.8198">TrackDataPlotter plotter</text><line style="stroke: #A80036; stroke-width: 1.5;" x1="2711.5" x2="3078.5" y1="321.4141" y2="321.4141"/><ellipse cx="2721.5" cy="332.4141" fill="#84BE84" rx="3" ry="3" style="stroke: #038048; stroke-width: 1.0;"/><text fill="#000000" font-family="sans-serif" font-size="11" lengthAdjust="spacingAndGlyphs" textLength="343" x="2730.5" y="335.6245">DisplayCommInterface(DisplayComm2WayInterface receiver)</text><ellipse cx="2721.5" cy="362.0234" fill="#84BE84" rx="3" ry="3" style="stroke: #038048; stroke-width: 1.0;"/><text fill="#000000" font-family="sans-serif" font-size="11" lengthAdjust="spacingAndGlyphs" textLength="240" x="2730.5" y="365.2339">TrackData receiveRfidRequest(int rfidNum)</text><text fill="#000000" font-family="sans-serif" font-size="11" lengthAdjust="spacingAndGlyphs" textLength="0" x="2734.5" y="378.0386"/><line style="stroke: #A80036; stroke-width: 1.0; stroke-dasharray: 1.0,2.0;" x1="2711.5" x2="2862" y1="348.6211" y2="348.6211"/><text fill="#000000" font-family="sans-serif" font-size="11" lengthAdjust="spacingAndGlyphs" textLength="66" x="2862" y="351.9292">Use Case 1</text><line style="stroke: #A80036; stroke-width: 1.0; stroke-dasharray: 1.0,2.0;" x1="2928" x2="3078.5" y1="348.6211" y2="348.6211"/><!--MD5=[46657c2900260d4d40350fe3f8c544df]
class DisplayComm2WayInterfaceImplementation--><rect fill="#FEFECE" filter="url(#fjye7oze3xwka)" height="103.2188" id="DisplayComm2WayInterfaceImplementation" style="stroke: #A80036; stroke-width: 1.5;" width="461" x="2214.5" y="262.5"/><ellipse cx="2306.75" cy="278.5" fill="#ADD1B2" rx="11" ry="11" style="stroke: #A80036; stroke-width: 1.0;"/><path d="M2309.7188,284.1406 Q2309.1406,284.4375 2308.5,284.5781 Q2307.8594,284.7344 2307.1563,284.7344 Q2304.6563,284.7344 2303.3281,283.0938 Q2302.0156,281.4375 2302.0156,278.3125 Q2302.0156,275.1875 2303.3281,273.5313 Q2304.6563,271.875 2307.1563,271.875 Q2307.8594,271.875 2308.5,272.0313 Q2309.1563,272.1875 2309.7188,272.4844 L2309.7188,275.2031 Q2309.0938,274.625 2308.5,274.3594 Q2307.9063,274.0781 2307.2813,274.0781 Q2305.9375,274.0781 2305.25,275.1563 Q2304.5625,276.2188 2304.5625,278.3125 Q2304.5625,280.4063 2305.25,281.4844 Q2305.9375,282.5469 2307.2813,282.5469 Q2307.9063,282.5469 2308.5,282.2813 Q2309.0938,282 2309.7188,281.4219 L2309.7188,284.1406 Z "/><text fill="#000000" font-family="sans-serif" font-size="12" lengthAdjust="spacingAndGlyphs" textLength="268" x="2327.25" y="282.6543">DisplayComm2WayInterfaceImplementation</text><line style="stroke: #A80036; stroke-width: 1.5;" x1="2215.5" x2="2674.5" y1="294.5" y2="294.5"/><rect fill="none" height="6" style="stroke: #C82930; stroke-width: 1.0;" width="6" x="2222.5" y="302.5"/><text fill="#000000" font-family="sans-serif" font-size="11" lengthAdjust="spacingAndGlyphs" textLength="182" x="2234.5" y="308.7104">DisplayCommManager manager</text><line style="stroke: #A80036; stroke-width: 1.5;" x1="2215.5" x2="2674.5" y1="315.3047" y2="315.3047"/><ellipse cx="2225.5" cy="326.3047" fill="#84BE84" rx="3" ry="3" style="stroke: #038048; stroke-width: 1.0;"/><text fill="#000000" font-family="sans-serif" font-size="11" lengthAdjust="spacingAndGlyphs" textLength="435" x="2234.5" y="329.5151">DisplayComm2WayInterfaceImplementation(DisplayCommManager manager)</text><ellipse cx="2225.5" cy="355.9141" fill="#84BE84" rx="3" ry="3" style="stroke: #038048; stroke-width: 1.0;"/><text fill="#000000" font-family="sans-serif" font-size="11" lengthAdjust="spacingAndGlyphs" textLength="227" x="2234.5" y="359.1245">TrackData passRfidRequest(int rfidNum)</text><line style="stroke: #A80036; stroke-width: 1.0; stroke-dasharray: 1.0,2.0;" x1="2215.5" x2="2412" y1="342.5117" y2="342.5117"/><text fill="#000000" font-family="sans-serif" font-size="11" lengthAdjust="spacingAndGlyphs" textLength="66" x="2412" y="345.8198">Use Case 1</text><line style="stroke: #A80036; stroke-width: 1.0; stroke-dasharray: 1.0,2.0;" x1="2478" x2="2674.5" y1="342.5117" y2="342.5117"/><!--MD5=[3a27b63ddb357afc5dde5581215f51f9]
class DisplayCommManagerImplementation--><rect fill="#FEFECE" filter="url(#fjye7oze3xwka)" height="103.2188" id="DisplayCommManagerImplementation" style="stroke: #A80036; stroke-width: 1.5;" width="470" x="1709" y="262.5"/><ellipse cx="1822.75" cy="278.5" fill="#ADD1B2" rx="11" ry="11" style="stroke: #A80036; stroke-width: 1.0;"/><path d="M1825.7188,284.1406 Q1825.1406,284.4375 1824.5,284.5781 Q1823.8594,284.7344 1823.1563,284.7344 Q1820.6563,284.7344 1819.3281,283.0938 Q1818.0156,281.4375 1818.0156,278.3125 Q1818.0156,275.1875 1819.3281,273.5313 Q1820.6563,271.875 1823.1563,271.875 Q1823.8594,271.875 1824.5,272.0313 Q1825.1563,272.1875 1825.7188,272.4844 L1825.7188,275.2031 Q1825.0938,274.625 1824.5,274.3594 Q1823.9063,274.0781 1823.2813,274.0781 Q1821.9375,274.0781 1821.25,275.1563 Q1820.5625,276.2188 1820.5625,278.3125 Q1820.5625,280.4063 1821.25,281.4844 Q1821.9375,282.5469 1823.2813,282.5469 Q1823.9063,282.5469 1824.5,282.2813 Q1825.0938,282 1825.7188,281.4219 L1825.7188,284.1406 Z "/><text fill="#000000" font-family="sans-serif" font-size="12" lengthAdjust="spacingAndGlyphs" textLength="234" x="1843.25" y="282.6543">DisplayCommManagerImplementation</text><line style="stroke: #A80036; stroke-width: 1.5;" x1="1710" x2="2178" y1="294.5" y2="294.5"/><rect fill="none" height="6" style="stroke: #C82930; stroke-width: 1.0;" width="6" x="1717" y="302.5"/><text fill="#000000" font-family="sans-serif" font-size="11" lengthAdjust="spacingAndGlyphs" textLength="221" x="1729" y="308.7104">MiddlewareCommInterface middleware</text><line style="stroke: #A80036; stroke-width: 1.5;" x1="1710" x2="2178" y1="315.3047" y2="315.3047"/><ellipse cx="1720" cy="326.3047" fill="#84BE84" rx="3" ry="3" style="stroke: #038048; stroke-width: 1.0;"/><text fill="#000000" font-family="sans-serif" font-size="11" lengthAdjust="spacingAndGlyphs" textLength="444" x="1729" y="329.5151">DisplayCommManagerImplementation(MiddlewareCommInterface middleware)</text><ellipse cx="1720" cy="355.9141" fill="#84BE84" rx="3" ry="3" style="stroke: #038048; stroke-width: 1.0;"/><text fill="#000000" font-family="sans-serif" font-size="11" lengthAdjust="spacingAndGlyphs" textLength="221" x="1729" y="359.1245">TrackData evaluateRfidRequest(int rfid)</text><line style="stroke: #A80036; stroke-width: 1.0; stroke-dasharray: 1.0,2.0;" x1="1710" x2="1911" y1="342.5117" y2="342.5117"/><text fill="#000000" font-family="sans-serif" font-size="11" lengthAdjust="spacingAndGlyphs" textLength="66" x="1911" y="345.8198">Use Case 1</text><line style="stroke: #A80036; stroke-width: 1.0; stroke-dasharray: 1.0,2.0;" x1="1977" x2="2178" y1="342.5117" y2="342.5117"/><!--MD5=[d454b7777f115113290d89683d7a426c]
class DisplayCommInterfaceImplementationTests--><rect fill="#FEFECE" filter="url(#fjye7oze3xwka)" height="73.6094" id="DisplayCommInterfaceImplementationTests" style="stroke: #A80036; stroke-width: 1.5;" width="301" x="1351.5" y="65"/><ellipse cx="1366.5" cy="81" fill="#ADD1B2" rx="11" ry="11" style="stroke: #A80036; stroke-width: 1.0;"/><path d="M1369.4688,86.6406 Q1368.8906,86.9375 1368.25,87.0781 Q1367.6094,87.2344 1366.9063,87.2344 Q1364.4063,87.2344 1363.0781,85.5938 Q1361.7656,83.9375 1361.7656,80.8125 Q1361.7656,77.6875 1363.0781,76.0313 Q1364.4063,74.375 1366.9063,74.375 Q1367.6094,74.375 1368.25,74.5313 Q1368.9063,74.6875 1369.4688,74.9844 L1369.4688,77.7031 Q1368.8438,77.125 1368.25,76.8594 Q1367.6563,76.5781 1367.0313,76.5781 Q1365.6875,76.5781 1365,77.6563 Q1364.3125,78.7188 1364.3125,80.8125 Q1364.3125,82.9063 1365,83.9844 Q1365.6875,85.0469 1367.0313,85.0469 Q1367.6563,85.0469 1368.25,84.7813 Q1368.8438,84.5 1369.4688,83.9219 L1369.4688,86.6406 Z "/><text fill="#000000" font-family="sans-serif" font-size="12" lengthAdjust="spacingAndGlyphs" textLength="269" x="1380.5" y="85.1543">DisplayCommInterfaceImplementationTests</text><line style="stroke: #A80036; stroke-width: 1.5;" x1="1352.5" x2="1651.5" y1="97" y2="97"/><line style="stroke: #A80036; stroke-width: 1.5;" x1="1352.5" x2="1651.5" y1="105" y2="105"/><ellipse cx="1362.5" cy="116" fill="#84BE84" rx="3" ry="3" style="stroke: #038048; stroke-width: 1.0;"/><text fill="#000000" font-family="sans-serif" font-size="11" lengthAdjust="spacingAndGlyphs" textLength="191" x="1371.5" y="119.2104">void displayComm2WayIsNotNull()</text><ellipse cx="1362.5" cy="128.8047" fill="#84BE84" rx="3" ry="3" style="stroke: #038048; stroke-width: 1.0;"/><text fill="#000000" font-family="sans-serif" font-size="11" lengthAdjust="spacingAndGlyphs" textLength="115" x="1371.5" y="132.0151">void rfidInIsRfidOut()</text><!--MD5=[a333ac13e0fdf2a5898aafabd38d3c1b]
class DisplayComm2WayInterfaceStub--><rect fill="#FEFECE" filter="url(#fjye7oze3xwka)" height="77.6094" id="DisplayComm2WayInterfaceStub" style="stroke: #A80036; stroke-width: 1.5;" width="252" x="1388" y="275"/><ellipse cx="1412" cy="291" fill="#ADD1B2" rx="11" ry="11" style="stroke: #A80036; stroke-width: 1.0;"/><path d="M1414.9688,296.6406 Q1414.3906,296.9375 1413.75,297.0781 Q1413.1094,297.2344 1412.4063,297.2344 Q1409.9063,297.2344 1408.5781,295.5938 Q1407.2656,293.9375 1407.2656,290.8125 Q1407.2656,287.6875 1408.5781,286.0313 Q1409.9063,284.375 1412.4063,284.375 Q1413.1094,284.375 1413.75,284.5313 Q1414.4063,284.6875 1414.9688,284.9844 L1414.9688,287.7031 Q1414.3438,287.125 1413.75,286.8594 Q1413.1563,286.5781 1412.5313,286.5781 Q1411.1875,286.5781 1410.5,287.6563 Q1409.8125,288.7188 1409.8125,290.8125 Q1409.8125,292.9063 1410.5,293.9844 Q1411.1875,295.0469 1412.5313,295.0469 Q1413.1563,295.0469 1413.75,294.7813 Q1414.3438,294.5 1414.9688,293.9219 L1414.9688,296.6406 Z "/><text fill="#000000" font-family="sans-serif" font-size="12" lengthAdjust="spacingAndGlyphs" textLength="200" x="1428" y="295.1543">DisplayComm2WayInterfaceStub</text><line style="stroke: #A80036; stroke-width: 1.5;" x1="1389" x2="1639" y1="307" y2="307"/><line style="stroke: #A80036; stroke-width: 1.5;" x1="1389" x2="1639" y1="315" y2="315"/><ellipse cx="1399" cy="342.8047" fill="#84BE84" rx="3" ry="3" style="stroke: #038048; stroke-width: 1.0;"/><text fill="#000000" font-family="sans-serif" font-size="11" font-style="italic" lengthAdjust="spacingAndGlyphs" textLength="226" x="1408" y="346.0151">TrackData passRfidRequest(int rfidNum)</text><line style="stroke: #A80036; stroke-width: 1.0; stroke-dasharray: 1.0,2.0;" x1="1389" x2="1481" y1="329.4023" y2="329.4023"/><text fill="#000000" font-family="sans-serif" font-size="11" lengthAdjust="spacingAndGlyphs" textLength="66" x="1481" y="332.7104">Use Case 1</text><line style="stroke: #A80036; stroke-width: 1.0; stroke-dasharray: 1.0,2.0;" x1="1547" x2="1639" y1="329.4023" y2="329.4023"/><!--MD5=[178181f4c7684560c711246055fc01d3]
class DisplayComm2WayInterfaceImplementationTests--><rect fill="#FEFECE" filter="url(#fjye7oze3xwka)" height="73.6094" id="DisplayComm2WayInterfaceImplementationTests" style="stroke: #A80036; stroke-width: 1.5;" width="334" x="982" y="65"/><ellipse cx="997" cy="81" fill="#ADD1B2" rx="11" ry="11" style="stroke: #A80036; stroke-width: 1.0;"/><path d="M999.9688,86.6406 Q999.3906,86.9375 998.75,87.0781 Q998.1094,87.2344 997.4063,87.2344 Q994.9063,87.2344 993.5781,85.5938 Q992.2656,83.9375 992.2656,80.8125 Q992.2656,77.6875 993.5781,76.0313 Q994.9063,74.375 997.4063,74.375 Q998.1094,74.375 998.75,74.5313 Q999.4063,74.6875 999.9688,74.9844 L999.9688,77.7031 Q999.3438,77.125 998.75,76.8594 Q998.1563,76.5781 997.5313,76.5781 Q996.1875,76.5781 995.5,77.6563 Q994.8125,78.7188 994.8125,80.8125 Q994.8125,82.9063 995.5,83.9844 Q996.1875,85.0469 997.5313,85.0469 Q998.1563,85.0469 998.75,84.7813 Q999.3438,84.5 999.9688,83.9219 L999.9688,86.6406 Z "/><text fill="#000000" font-family="sans-serif" font-size="12" lengthAdjust="spacingAndGlyphs" textLength="302" x="1011" y="85.1543">DisplayComm2WayInterfaceImplementationTests</text><line style="stroke: #A80036; stroke-width: 1.5;" x1="983" x2="1315" y1="97" y2="97"/><line style="stroke: #A80036; stroke-width: 1.5;" x1="983" x2="1315" y1="105" y2="105"/><ellipse cx="993" cy="116" fill="#84BE84" rx="3" ry="3" style="stroke: #038048; stroke-width: 1.0;"/><text fill="#000000" font-family="sans-serif" font-size="11" lengthAdjust="spacingAndGlyphs" textLength="115" x="1002" y="119.2104">void rfidInIsRfidOut()</text><ellipse cx="993" cy="128.8047" fill="#84BE84" rx="3" ry="3" style="stroke: #038048; stroke-width: 1.0;"/><text fill="#000000" font-family="sans-serif" font-size="11" lengthAdjust="spacingAndGlyphs" textLength="211" x="1002" y="132.0151">void displayCommManagerIsNotNull()</text><!--MD5=[2970358178d6cf57fc5a801b39eb8d0b]
class DisplayCommManagerStub--><rect fill="#FEFECE" filter="url(#fjye7oze3xwka)" height="77.6094" id="DisplayCommManagerStub" style="stroke: #A80036; stroke-width: 1.5;" width="273" x="1045.5" y="275"/><ellipse cx="1094.75" cy="291" fill="#ADD1B2" rx="11" ry="11" style="stroke: #A80036; stroke-width: 1.0;"/><path d="M1097.7188,296.6406 Q1097.1406,296.9375 1096.5,297.0781 Q1095.8594,297.2344 1095.1563,297.2344 Q1092.6563,297.2344 1091.3281,295.5938 Q1090.0156,293.9375 1090.0156,290.8125 Q1090.0156,287.6875 1091.3281,286.0313 Q1092.6563,284.375 1095.1563,284.375 Q1095.8594,284.375 1096.5,284.5313 Q1097.1563,284.6875 1097.7188,284.9844 L1097.7188,287.7031 Q1097.0938,287.125 1096.5,286.8594 Q1095.9063,286.5781 1095.2813,286.5781 Q1093.9375,286.5781 1093.25,287.6563 Q1092.5625,288.7188 1092.5625,290.8125 Q1092.5625,292.9063 1093.25,293.9844 Q1093.9375,295.0469 1095.2813,295.0469 Q1095.9063,295.0469 1096.5,294.7813 Q1097.0938,294.5 1097.7188,293.9219 L1097.7188,296.6406 Z "/><text fill="#000000" font-family="sans-serif" font-size="12" lengthAdjust="spacingAndGlyphs" textLength="166" x="1115.25" y="295.1543">DisplayCommManagerStub</text><line style="stroke: #A80036; stroke-width: 1.5;" x1="1046.5" x2="1317.5" y1="307" y2="307"/><line style="stroke: #A80036; stroke-width: 1.5;" x1="1046.5" x2="1317.5" y1="315" y2="315"/><ellipse cx="1056.5" cy="342.8047" fill="#84BE84" rx="3" ry="3" style="stroke: #038048; stroke-width: 1.0;"/><text fill="#000000" font-family="sans-serif" font-size="11" lengthAdjust="spacingAndGlyphs" textLength="247" x="1065.5" y="346.0151">TrackData evaluateRfidRequest(int rfidNum)</text><line style="stroke: #A80036; stroke-width: 1.0; stroke-dasharray: 1.0,2.0;" x1="1046.5" x2="1149" y1="329.4023" y2="329.4023"/><text fill="#000000" font-family="sans-serif" font-size="11" lengthAdjust="spacingAndGlyphs" textLength="66" x="1149" y="332.7104">Use Case 1</text><line style="stroke: #A80036; stroke-width: 1.0; stroke-dasharray: 1.0,2.0;" x1="1215" x2="1317.5" y1="329.4023" y2="329.4023"/><!--MD5=[937d6d8ff87a99d0d5dcd66ee05a1fa4]
class DisplayCommManagerImplementationTests--><rect fill="#FEFECE" filter="url(#fjye7oze3xwka)" height="86.4141" id="DisplayCommManagerImplementationTests" style="stroke: #A80036; stroke-width: 1.5;" width="300" x="647" y="59"/><ellipse cx="662" cy="75" fill="#ADD1B2" rx="11" ry="11" style="stroke: #A80036; stroke-width: 1.0;"/><path d="M664.9688,80.6406 Q664.3906,80.9375 663.75,81.0781 Q663.1094,81.2344 662.4063,81.2344 Q659.9063,81.2344 658.5781,79.5938 Q657.2656,77.9375 657.2656,74.8125 Q657.2656,71.6875 658.5781,70.0313 Q659.9063,68.375 662.4063,68.375 Q663.1094,68.375 663.75,68.5313 Q664.4063,68.6875 664.9688,68.9844 L664.9688,71.7031 Q664.3438,71.125 663.75,70.8594 Q663.1563,70.5781 662.5313,70.5781 Q661.1875,70.5781 660.5,71.6563 Q659.8125,72.7188 659.8125,74.8125 Q659.8125,76.9063 660.5,77.9844 Q661.1875,79.0469 662.5313,79.0469 Q663.1563,79.0469 663.75,78.7813 Q664.3438,78.5 664.9688,77.9219 L664.9688,80.6406 Z "/><text fill="#000000" font-family="sans-serif" font-size="12" lengthAdjust="spacingAndGlyphs" textLength="268" x="676" y="79.1543">DisplayCommManagerImplementationTests</text><line style="stroke: #A80036; stroke-width: 1.5;" x1="648" x2="946" y1="91" y2="91"/><line style="stroke: #A80036; stroke-width: 1.5;" x1="648" x2="946" y1="99" y2="99"/><ellipse cx="658" cy="110" fill="#84BE84" rx="3" ry="3" style="stroke: #038048; stroke-width: 1.0;"/><text fill="#000000" font-family="sans-serif" font-size="11" lengthAdjust="spacingAndGlyphs" textLength="115" x="667" y="113.2104">void rfidInIsRfidOut()</text><ellipse cx="658" cy="122.8047" fill="#84BE84" rx="3" ry="3" style="stroke: #038048; stroke-width: 1.0;"/><text fill="#000000" font-family="sans-serif" font-size="11" lengthAdjust="spacingAndGlyphs" textLength="151" x="667" y="126.0151">void middlewareIsNotNull()</text><rect fill="#F24D5C" height="6" style="stroke: #C82930; stroke-width: 1.0;" width="6" x="655" y="132.6094"/><text fill="#000000" font-family="sans-serif" font-size="11" lengthAdjust="spacingAndGlyphs" textLength="144" x="667" y="138.8198">int generateRandomRfid()</text><!--MD5=[cf56a65163663c6c6c7b84cd7c204b97]
class MiddlewareCommInterfaceStub--><rect fill="#FEFECE" filter="url(#fjye7oze3xwka)" height="77.6094" id="MiddlewareCommInterfaceStub" style="stroke: #A80036; stroke-width: 1.5;" width="225" x="684.5" y="275"/><ellipse cx="699.5" cy="291" fill="#ADD1B2" rx="11" ry="11" style="stroke: #A80036; stroke-width: 1.0;"/><path d="M702.4688,296.6406 Q701.8906,296.9375 701.25,297.0781 Q700.6094,297.2344 699.9063,297.2344 Q697.4063,297.2344 696.0781,295.5938 Q694.7656,293.9375 694.7656,290.8125 Q694.7656,287.6875 696.0781,286.0313 Q697.4063,284.375 699.9063,284.375 Q700.6094,284.375 701.25,284.5313 Q701.9063,284.6875 702.4688,284.9844 L702.4688,287.7031 Q701.8438,287.125 701.25,286.8594 Q700.6563,286.5781 700.0313,286.5781 Q698.6875,286.5781 698,287.6563 Q697.3125,288.7188 697.3125,290.8125 Q697.3125,292.9063 698,293.9844 Q698.6875,295.0469 700.0313,295.0469 Q700.6563,295.0469 701.25,294.7813 Q701.8438,294.5 702.4688,293.9219 L702.4688,296.6406 Z "/><text fill="#000000" font-family="sans-serif" font-size="12" lengthAdjust="spacingAndGlyphs" textLength="193" x="713.5" y="295.1543">MiddlewareCommInterfaceStub</text><line style="stroke: #A80036; stroke-width: 1.5;" x1="685.5" x2="908.5" y1="307" y2="307"/><line style="stroke: #A80036; stroke-width: 1.5;" x1="685.5" x2="908.5" y1="315" y2="315"/><ellipse cx="695.5" cy="342.8047" fill="#84BE84" rx="3" ry="3" style="stroke: #038048; stroke-width: 1.0;"/><text fill="#000000" font-family="sans-serif" font-size="11" lengthAdjust="spacingAndGlyphs" textLength="171" x="704.5" y="346.0151">TrackData requestRfid(int rfid)</text><line style="stroke: #A80036; stroke-width: 1.0; stroke-dasharray: 1.0,2.0;" x1="685.5" x2="764" y1="329.4023" y2="329.4023"/><text fill="#000000" font-family="sans-serif" font-size="11" lengthAdjust="spacingAndGlyphs" textLength="66" x="764" y="332.7104">Use Case 1</text><line style="stroke: #A80036; stroke-width: 1.0; stroke-dasharray: 1.0,2.0;" x1="830" x2="908.5" y1="329.4023" y2="329.4023"/><!--MD5=[930c8140e7c1cb8e71aa7cd49967748e]
class TrackDataPlotterTests--><rect fill="#FEFECE" filter="url(#fjye7oze3xwka)" height="86.4141" id="TrackDataPlotterTests" style="stroke: #A80036; stroke-width: 1.5;" width="216" x="396" y="59"/><ellipse cx="430.8" cy="75" fill="#ADD1B2" rx="11" ry="11" style="stroke: #A80036; stroke-width: 1.0;"/><path d="M433.7688,80.6406 Q433.1906,80.9375 432.55,81.0781 Q431.9094,81.2344 431.2063,81.2344 Q428.7063,81.2344 427.3781,79.5938 Q426.0656,77.9375 426.0656,74.8125 Q426.0656,71.6875 427.3781,70.0313 Q428.7063,68.375 431.2063,68.375 Q431.9094,68.375 432.55,68.5313 Q433.2063,68.6875 433.7688,68.9844 L433.7688,71.7031 Q433.1438,71.125 432.55,70.8594 Q431.9563,70.5781 431.3313,70.5781 Q429.9875,70.5781 429.3,71.6563 Q428.6125,72.7188 428.6125,74.8125 Q428.6125,76.9063 429.3,77.9844 Q429.9875,79.0469 431.3313,79.0469 Q431.9563,79.0469 432.55,78.7813 Q433.1438,78.5 433.7688,77.9219 L433.7688,80.6406 Z "/><text fill="#000000" font-family="sans-serif" font-size="12" lengthAdjust="spacingAndGlyphs" textLength="140" x="449.2" y="79.1543">TrackDataPlotterTests</text><line style="stroke: #A80036; stroke-width: 1.5;" x1="397" x2="611" y1="91" y2="91"/><line style="stroke: #A80036; stroke-width: 1.5;" x1="397" x2="611" y1="99" y2="99"/><ellipse cx="407" cy="110" fill="#84BE84" rx="3" ry="3" style="stroke: #038048; stroke-width: 1.0;"/><text fill="#000000" font-family="sans-serif" font-size="11" lengthAdjust="spacingAndGlyphs" textLength="121" x="416" y="113.2104">void plotIsDisplayed()</text><ellipse cx="407" cy="122.8047" fill="#84BE84" rx="3" ry="3" style="stroke: #038048; stroke-width: 1.0;"/><text fill="#000000" font-family="sans-serif" font-size="11" lengthAdjust="spacingAndGlyphs" textLength="174" x="416" y="126.0151">void nullTrackDataNotAllowed()</text><ellipse cx="407" cy="135.6094" fill="#84BE84" rx="3" ry="3" style="stroke: #038048; stroke-width: 1.0;"/><text fill="#000000" font-family="sans-serif" font-size="11" lengthAdjust="spacingAndGlyphs" textLength="190" x="416" y="138.8198">void invalidTrackDataNotAllowed()</text><!--MD5=[c986427b061286eff33e87a088ad4bf9]
class TrackDataPlotter--><rect fill="#FEFECE" filter="url(#fjye7oze3xwka)" height="218.4609" id="TrackDataPlotter" style="stroke: #A80036; stroke-width: 1.5;" width="302" x="38" y="205"/><ellipse cx="131.75" cy="221" fill="#ADD1B2" rx="11" ry="11" style="stroke: #A80036; stroke-width: 1.0;"/><path d="M134.7188,226.6406 Q134.1406,226.9375 133.5,227.0781 Q132.8594,227.2344 132.1563,227.2344 Q129.6563,227.2344 128.3281,225.5938 Q127.0156,223.9375 127.0156,220.8125 Q127.0156,217.6875 128.3281,216.0313 Q129.6563,214.375 132.1563,214.375 Q132.8594,214.375 133.5,214.5313 Q134.1563,214.6875 134.7188,214.9844 L134.7188,217.7031 Q134.0938,217.125 133.5,216.8594 Q132.9063,216.5781 132.2813,216.5781 Q130.9375,216.5781 130.25,217.6563 Q129.5625,218.7188 129.5625,220.8125 Q129.5625,222.9063 130.25,223.9844 Q130.9375,225.0469 132.2813,225.0469 Q132.9063,225.0469 133.5,224.7813 Q134.0938,224.5 134.7188,223.9219 L134.7188,226.6406 Z "/><text fill="#000000" font-family="sans-serif" font-size="12" lengthAdjust="spacingAndGlyphs" textLength="106" x="152.25" y="225.1543">TrackDataPlotter</text><line style="stroke: #A80036; stroke-width: 1.5;" x1="39" x2="339" y1="237" y2="237"/><rect fill="none" height="6" style="stroke: #C82930; stroke-width: 1.0;" width="6" x="46" y="245"/><text fill="#000000" font-family="sans-serif" font-size="11" lengthAdjust="spacingAndGlyphs" textLength="86" x="58" y="251.2104">TrackData data</text><rect fill="none" height="6" style="stroke: #C82930; stroke-width: 1.0;" width="6" x="46" y="257.8047"/><text fill="#000000" font-family="sans-serif" font-size="11" lengthAdjust="spacingAndGlyphs" textLength="90" x="58" y="264.0151">XYSeries points</text><rect fill="none" height="6" style="stroke: #C82930; stroke-width: 1.0;" width="6" x="46" y="270.6094"/><text fill="#000000" font-family="sans-serif" font-size="11" lengthAdjust="spacingAndGlyphs" textLength="89" x="58" y="276.8198">XYSeries fitLine</text><rect fill="none" height="6" style="stroke: #C82930; stroke-width: 1.0;" width="6" x="46" y="283.4141"/><text fill="#000000" font-family="sans-serif" font-size="11" lengthAdjust="spacingAndGlyphs" textLength="92" x="58" y="289.6245">JFreeChart chart</text><line style="stroke: #A80036; stroke-width: 1.5;" x1="39" x2="339" y1="296.2188" y2="296.2188"/><ellipse cx="49" cy="307.2188" fill="#84BE84" rx="3" ry="3" style="stroke: #038048; stroke-width: 1.0;"/><text fill="#000000" font-family="sans-serif" font-size="11" lengthAdjust="spacingAndGlyphs" textLength="188" x="58" y="310.4292">TrackDataPlotter(TrackData data)</text><ellipse cx="49" cy="336.8281" fill="#84BE84" rx="3" ry="3" style="stroke: #038048; stroke-width: 1.0;"/><text fill="#000000" font-family="sans-serif" font-size="11" lengthAdjust="spacingAndGlyphs" textLength="106" x="58" y="340.0386">void displayChart()</text><ellipse cx="49" cy="349.6328" fill="#84BE84" rx="3" ry="3" style="stroke: #038048; stroke-width: 1.0;"/><text fill="#000000" font-family="sans-serif" font-size="11" lengthAdjust="spacingAndGlyphs" textLength="154" x="58" y="352.8433">boolean getDisplayeChart()</text><rect fill="#F24D5C" height="6" style="stroke: #C82930; stroke-width: 1.0;" width="6" x="46" y="359.4375"/><text fill="#000000" font-family="sans-serif" font-size="11" lengthAdjust="spacingAndGlyphs" textLength="138" x="58" y="365.6479">XYSeries getTrackData()</text><rect fill="#F24D5C" height="6" style="stroke: #C82930; stroke-width: 1.0;" width="6" x="46" y="372.2422"/><text fill="#000000" font-family="sans-serif" font-size="11" lengthAdjust="spacingAndGlyphs" textLength="208" x="58" y="378.4526">XYSeries calculateLine(int[] x, int[] y)</text><rect fill="#F24D5C" height="6" style="stroke: #C82930; stroke-width: 1.0;" width="6" x="46" y="385.0469"/><text fill="#000000" font-family="sans-serif" font-size="11" lengthAdjust="spacingAndGlyphs" textLength="273" x="58" y="391.2573">float[] extractLatFromTrackData(TrackData data)</text><rect fill="#F24D5C" height="6" style="stroke: #C82930; stroke-width: 1.0;" width="6" x="46" y="397.8516"/><text fill="#000000" font-family="sans-serif" font-size="11" lengthAdjust="spacingAndGlyphs" textLength="276" x="58" y="404.062">float[] extractLngFromTrackData(TrackData data)</text><rect fill="#F24D5C" height="6" style="stroke: #C82930; stroke-width: 1.0;" width="6" x="46" y="410.6563"/><text fill="#000000" font-family="sans-serif" font-size="11" lengthAdjust="spacingAndGlyphs" textLength="138" x="58" y="416.8667">JFreeChart createChart()</text><line style="stroke: #A80036; stroke-width: 1.0; stroke-dasharray: 1.0,2.0;" x1="39" x2="156" y1="323.4258" y2="323.4258"/><text fill="#000000" font-family="sans-serif" font-size="11" lengthAdjust="spacingAndGlyphs" textLength="66" x="156" y="326.7339">Use Case 1</text><line style="stroke: #A80036; stroke-width: 1.0; stroke-dasharray: 1.0,2.0;" x1="222" x2="339" y1="323.4258" y2="323.4258"/><!--MD5=[77bc37423dd8876786830fad4054e33b]
reverse link DisplayCommInterface to DisplayCommInterfaceImplementation--><path d="M2895,161.08 C2895,186.44 2895,216.4 2895,242.98 " fill="none" id="DisplayCommInterface&lt;-DisplayCommInterfaceImplementation" style="stroke: #A80036; stroke-width: 1.0; stroke-dasharray: 7.0,7.0;"/><polygon fill="none" points="2888,161.03,2895,141.03,2902,161.03,2888,161.03" style="stroke: #A80036; stroke-width: 1.0;"/><!--MD5=[4e991cf787e933c55089f97eae394828]
reverse link DisplayComm2WayInterface to DisplayComm2WayInterfaceImplementation--><path d="M2345.35,157.99 C2366.09,190.25 2392.1,230.71 2412.35,262.21 " fill="none" id="DisplayComm2WayInterface&lt;-DisplayComm2WayInterfaceImplementation" style="stroke: #A80036; stroke-width: 1.0; stroke-dasharray: 7.0,7.0;"/><polygon fill="none" points="2339.37,161.64,2334.45,141.03,2351.15,154.07,2339.37,161.64" style="stroke: #A80036; stroke-width: 1.0;"/><!--MD5=[5beed6c3c7e4a84a4bfaa95bdf8cce79]
reverse link DisplayCommManager to DisplayCommManagerImplementation--><path d="M1904.11,160.7 C1912.44,192.49 1922.68,231.59 1930.7,262.21 " fill="none" id="DisplayCommManager&lt;-DisplayCommManagerImplementation" style="stroke: #A80036; stroke-width: 1.0; stroke-dasharray: 7.0,7.0;"/><polygon fill="none" points="1897.26,162.15,1898.96,141.03,1910.8,158.6,1897.26,162.15" style="stroke: #A80036; stroke-width: 1.0;"/><!--MD5=[9a02b467888c5123255f55ebe5217d7a]
link DisplayCommInterfaceImplementationTests to DisplayComm2WayInterfaceStub--><path d="M1504.06,139.1 C1506.13,175.35 1509.33,231.22 1511.53,269.8 " fill="none" id="DisplayCommInterfaceImplementationTests-&gt;DisplayComm2WayInterfaceStub" style="stroke: #A80036; stroke-width: 1.0; stroke-dasharray: 7.0,7.0;"/><polygon fill="#A80036" points="1511.82,274.89,1515.2985,265.6759,1511.5339,269.8982,1507.3116,266.1336,1511.82,274.89" style="stroke: #A80036; stroke-width: 1.0;"/><!--MD5=[69695ace36e753468876c8d4fe5d2708]
link DisplayComm2WayInterfaceImplementationTests to DisplayCommManagerStub--><path d="M1154.67,139.1 C1160.37,175.35 1169.15,231.22 1175.21,269.8 " fill="none" id="DisplayComm2WayInterfaceImplementationTests-&gt;DisplayCommManagerStub" style="stroke: #A80036; stroke-width: 1.0; stroke-dasharray: 7.0,7.0;"/><polygon fill="#A80036" points="1176.01,274.89,1178.5701,265.3797,1175.2368,269.9501,1170.6664,266.6168,1176.01,274.89" style="stroke: #A80036; stroke-width: 1.0;"/><!--MD5=[a3caa78d97a9caf08bd2afaaae1510f4]
link DisplayCommManagerImplementationTests to MiddlewareCommInterfaceStub--><path d="M797,145.24 C797,181.32 797,233 797,269.45 " fill="none" id="DisplayCommManagerImplementationTests-&gt;MiddlewareCommInterfaceStub" style="stroke: #A80036; stroke-width: 1.0; stroke-dasharray: 7.0,7.0;"/><polygon fill="#A80036" points="797,274.71,801,265.71,797,269.71,793,265.71,797,274.71" style="stroke: #A80036; stroke-width: 1.0;"/><!--MD5=[0cd290e6298e838268680010d5032c0d]
link DisplayCommInterfaceImplementationTests to DisplayCommInterfaceImplementation--><path d="M1652.44,139 C1666.1,141.38 1679.76,143.45 1693,145 C1748.19,151.47 2640.42,144.02 2693,162 C2739.97,178.06 2784.95,209.51 2820.5,239.57 " fill="none" id="DisplayCommInterfaceImplementationTests-&gt;DisplayCommInterfaceImplementation" style="stroke: #A80036; stroke-width: 1.0; stroke-dasharray: 7.0,7.0;"/><polygon fill="#A80036" points="2824.35,242.85,2820.1006,233.9651,2820.5467,239.6043,2814.9074,240.0504,2824.35,242.85" style="stroke: #A80036; stroke-width: 1.0;"/><!--MD5=[ce67f838794c14794f693dd46a642b9a]
link DisplayComm2WayInterfaceImplementationTests to DisplayComm2WayInterfaceImplementation--><path d="M1294.94,139.02 C1308.09,141.39 1321.25,143.44 1334,145 C1429.09,156.61 2104,135.3 2196,162 C2263.4,181.56 2330.91,224.3 2378.61,259.34 " fill="none" id="DisplayComm2WayInterfaceImplementationTests-&gt;DisplayComm2WayInterfaceImplementation" style="stroke: #A80036; stroke-width: 1.0; stroke-dasharray: 7.0,7.0;"/><polygon fill="#A80036" points="2382.87,262.49,2378.016,253.9204,2378.8512,259.5152,2373.2563,260.3505,2382.87,262.49" style="stroke: #A80036; stroke-width: 1.0;"/><!--MD5=[6f3abcadcd809ea193290ea1cf8b820a]
link DisplayCommManagerImplementationTests to DisplayCommManagerImplementation--><path d="M947.36,142.45 C952.96,143.4 958.52,144.25 964,145 C1041.64,155.57 1593.34,141.62 1669,162 C1742.02,181.67 1816.73,224.42 1869.81,259.43 " fill="none" id="DisplayCommManagerImplementationTests-&gt;DisplayCommManagerImplementation" style="stroke: #A80036; stroke-width: 1.0; stroke-dasharray: 7.0,7.0;"/><polygon fill="#A80036" points="1874.24,262.37,1868.9572,254.0578,1870.0754,259.6031,1864.5301,260.7213,1874.24,262.37" style="stroke: #A80036; stroke-width: 1.0;"/><!--MD5=[f24e7409bf4fec90fef0ed7e05f90b9b]
link TrackDataPlotterTests to TrackDataPlotter--><path d="M409.7,145.1 C399.5,150.47 389.41,156.14 380,162 C360.65,174.04 340.97,187.71 321.97,201.78 " fill="none" id="TrackDataPlotterTests-&gt;TrackDataPlotter" style="stroke: #A80036; stroke-width: 1.0; stroke-dasharray: 7.0,7.0;"/><polygon fill="#A80036" points="317.67,204.98,327.2787,202.8184,321.682,201.996,322.5043,196.3993,317.67,204.98" style="stroke: #A80036; stroke-width: 1.0;"/><!--MD5=[6aaeadb42451b39b4e2cdcf83e2bb4cd]
reverse link DisplayComm2WayInterface to DisplayComm2WayInterfaceStub--><path d="M2163.98,127.77 C2121.23,134.27 2074.34,140.66 2031,145 C1956.17,152.5 1762.97,134.42 1693,162 C1632.67,185.78 1578.03,238.55 1545.41,274.95 " fill="none" id="DisplayComm2WayInterface&lt;-DisplayComm2WayInterfaceStub" style="stroke: #A80036; stroke-width: 1.0; stroke-dasharray: 7.0,7.0;"/><polygon fill="none" points="2163.11,120.82,2183.95,124.69,2165.25,134.66,2163.11,120.82" style="stroke: #A80036; stroke-width: 1.0;"/><!--MD5=[e6e0d8b3e0f7bf14f11c0899b3ad37ae]
reverse link DisplayCommManager to DisplayCommManagerStub--><path d="M1744.49,133.4 C1719.41,137.87 1693.51,141.98 1669,145 C1602.95,153.15 1432.13,138.14 1370,162 C1307.86,185.87 1250.39,238.34 1215.76,274.67 " fill="none" id="DisplayCommManager&lt;-DisplayCommManagerStub" style="stroke: #A80036; stroke-width: 1.0; stroke-dasharray: 7.0,7.0;"/><polygon fill="none" points="1743.45,126.47,1764.38,129.75,1745.97,140.24,1743.45,126.47" style="stroke: #A80036; stroke-width: 1.0;"/><!--MD5=[ef218693fff3cbe838ba3ddd260ecbca]
@startuml Display02Packages_InternalDependencies


package edu.oakland.production.display02 {
    
}


package edu.oakland.production.display02 {
    interface DisplayCommInterface {
        __
        .. Use Case 1 ..
        {abstract} + TrackData receiveRfidRequest(int rfidNum)
    }
}


package edu.oakland.production.display02 {
    interface DisplayComm2WayInterface {
        __
        .. Use Case 1 ..
        {abstract} + TrackData passRfidRequest(int rfidNum)
    }
}


package edu.oakland.production.display02 {
    interface DisplayCommManager {
        __
        .. Use Case 1 ..
        {abstract} + TrackData evaluateRfidRequest(int rfid)
    }
}


package edu.oakland.production.display02 {
    class DisplayCommInterfaceImplementation {
        - DisplayComm2WayInterface receiver
        - TrackData data
        - TrackDataPlotter plotter
        __
        + DisplayCommInterface(DisplayComm2WayInterface receiver)
        .. Use Case 1 ..
        + TrackData receiveRfidRequest(int rfidNum)
        
    }
}


DisplayCommInterfaceImplementation .up.|> DisplayCommInterface

package edu.oakland.production.display02 {
    class DisplayComm2WayInterfaceImplementation {
        - DisplayCommManager manager
        __
        + DisplayComm2WayInterfaceImplementation(DisplayCommManager manager)
        .. Use Case 1 ..
        + TrackData passRfidRequest(int rfidNum)
    }
}


DisplayComm2WayInterfaceImplementation .up.|> DisplayComm2WayInterface

package edu.oakland.production.display02 {
    class DisplayCommManagerImplementation {
        - MiddlewareCommInterface middleware
        __
        + DisplayCommManagerImplementation(MiddlewareCommInterface middleware)
        .. Use Case 1 ..
        + TrackData evaluateRfidRequest(int rfid)        
    }
}


DisplayCommManagerImplementation .up.|> DisplayCommManager








package edu.oakland.test.display02 {
    
}


package edu.oakland.test.display02 {
    class DisplayCommInterfaceImplementationTests {
        + void displayComm2WayIsNotNull()
        + void rfidInIsRfidOut()

    }
}



package edu.oakland.test.display02 {
    class DisplayComm2WayInterfaceStub {
        __
        .. Use Case 1 ..
        {abstract} + TrackData passRfidRequest(int rfidNum)
    }
}

DisplayCommInterfaceImplementationTests ..> DisplayComm2WayInterfaceStub

package edu.oakland.test.display02 {
    class DisplayComm2WayInterfaceImplementationTests {
        + void rfidInIsRfidOut()
        + void displayCommManagerIsNotNull()
    }
}



package edu.oakland.test.display02 {
    class DisplayCommManagerStub {
        __
        .. Use Case 1 ..
        + TrackData evaluateRfidRequest(int rfidNum)
    }
}

DisplayComm2WayInterfaceImplementationTests ..> DisplayCommManagerStub

package edu.oakland.test.display02 {
    class DisplayCommManagerImplementationTests {
        + void rfidInIsRfidOut()
        + void middlewareIsNotNull()
        - int generateRandomRfid()
    }
}



package edu.oakland.test.display02 {
    class MiddlewareCommInterfaceStub {
        __
        .. Use Case 1 ..
        + TrackData requestRfid(int rfid)
    }
}

DisplayCommManagerImplementationTests ..> MiddlewareCommInterfaceStub

package edu.oakland.test.display02 {
    class TrackDataPlotterTests {
        + void plotIsDisplayed()
        + void nullTrackDataNotAllowed()
        + void invalidTrackDataNotAllowed()
    }
}


DisplayCommInterfaceImplementationTests ..> DisplayCommInterfaceImplementation
DisplayComm2WayInterfaceImplementationTests ..> DisplayComm2WayInterfaceImplementation
DisplayCommManagerImplementationTests ..> DisplayCommManagerImplementation

package edu.oakland.helper.display02 {
    class TrackDataPlotter {
        - TrackData data
        - XYSeries points
        - XYSeries fitLine
        - JFreeChart chart
        __
        + TrackDataPlotter(TrackData data)
        .. Use Case 1 ..
        + void displayChart()
        + boolean getDisplayeChart()
        - XYSeries getTrackData()
        - XYSeries calculateLine(int[] x, int[] y)
        - float[] extractLatFromTrackData(TrackData data)
        - float[] extractLngFromTrackData(TrackData data)
        - JFreeChart createChart()
    }
}

TrackDataPlotterTests ..> TrackDataPlotter
DisplayComm2WayInterfaceStub .up.|> DisplayComm2WayInterface
DisplayCommManagerStub .up.|> DisplayCommManager


package edu.oakland.helper.display02 {
    
}




@enduml

PlantUML version 1.2020.02(Sun Mar 01 10:22:07 GMT 2020)
(GPL source distribution)
Java Runtime: OpenJDK Runtime Environment
JVM: OpenJDK 64-Bit Server VM
Java Version: 11.0.9+11-Ubuntu-0ubuntu1
Operating System: Linux
Default Encoding: ANSI_X3.4-1968
Language: en
Country: US
--></g></svg>