<?xml version="1.0" encoding="UTF-8" standalone="no"?><svg xmlns="http://www.w3.org/2000/svg" xmlns:xlink="http://www.w3.org/1999/xlink" contentScriptType="application/ecmascript" contentStyleType="text/css" height="509px" preserveAspectRatio="none" style="width:2564px;height:509px;" version="1.1" viewBox="0 0 2564 509" width="2564px" zoomAndPan="magnify"><defs><filter height="300%" id="fj9fxjuw341ln" width="300%" x="-1" y="-1"><feGaussianBlur result="blurOut" stdDeviation="2.0"/><feColorMatrix in="blurOut" result="blurOut2" type="matrix" values="0 0 0 0 0 0 0 0 0 0 0 0 0 0 0 0 0 0 .4 0"/><feOffset dx="4.0" dy="4.0" in="blurOut2" result="blurOut3"/><feBlend in="SourceGraphic" in2="blurOut3" mode="normal"/></filter></defs><g><!--MD5=[fe59aae6f7bfe371a9c197ec1f7f843a]
cluster edu.oakland.production.display02--><polygon fill="#FFFFFF" filter="url(#fj9fxjuw341ln)" points="22,24,295,24,302,46.2969,1208,46.2969,1208,359,22,359,22,24" style="stroke: #000000; stroke-width: 1.5;"/><line style="stroke: #000000; stroke-width: 1.5;" x1="22" x2="302" y1="46.2969" y2="46.2969"/><text fill="#000000" font-family="sans-serif" font-size="14" font-weight="bold" lengthAdjust="spacingAndGlyphs" textLength="267" x="26" y="38.9951">edu.oakland.production.display02</text><!--MD5=[9258003ec405d300d3379b4a3d8dd6ad]
cluster edu.oakland.test.display02--><polygon fill="#FFFFFF" filter="url(#fj9fxjuw341ln)" points="1232,39,1450,39,1457,61.2969,2270,61.2969,2270,497,1232,497,1232,39" style="stroke: #000000; stroke-width: 1.5;"/><line style="stroke: #000000; stroke-width: 1.5;" x1="1232" x2="1457" y1="61.2969" y2="61.2969"/><text fill="#000000" font-family="sans-serif" font-size="14" font-weight="bold" lengthAdjust="spacingAndGlyphs" textLength="212" x="1236" y="53.9951">edu.oakland.test.display02</text><!--MD5=[a502031b5a5384de0a21e6ee820fd3b2]
cluster edu.oakland.helper.display02--><polygon fill="#FFFFFF" filter="url(#fj9fxjuw341ln)" points="2294,39,2532,39,2539,61.2969,2542,61.2969,2542,138,2294,138,2294,39" style="stroke: #000000; stroke-width: 1.5;"/><line style="stroke: #000000; stroke-width: 1.5;" x1="2294" x2="2539" y1="61.2969" y2="61.2969"/><text fill="#000000" font-family="sans-serif" font-size="14" font-weight="bold" lengthAdjust="spacingAndGlyphs" textLength="232" x="2298" y="53.9951">edu.oakland.helper.display02</text><!--MD5=[c8d1e3134fecb0c949fd2a76cc0bb992]
class DisplayCommInterface--><rect fill="#FEFECE" filter="url(#fj9fxjuw341ln)" height="77.6094" id="DisplayCommInterface" style="stroke: #A80036; stroke-width: 1.5;" width="268" x="63" y="59"/><ellipse cx="123.25" cy="75" fill="#B4A7E5" rx="11" ry="11" style="stroke: #A80036; stroke-width: 1.0;"/><path d="M119.1719,70.7656 L119.1719,68.6094 L126.5625,68.6094 L126.5625,70.7656 L124.0938,70.7656 L124.0938,78.8438 L126.5625,78.8438 L126.5625,81 L119.1719,81 L119.1719,78.8438 L121.6406,78.8438 L121.6406,70.7656 L119.1719,70.7656 Z "/><text fill="#000000" font-family="sans-serif" font-size="12" font-style="italic" lengthAdjust="spacingAndGlyphs" textLength="139" x="143.75" y="79.1543">DisplayCommInterface</text><line style="stroke: #A80036; stroke-width: 1.5;" x1="64" x2="330" y1="91" y2="91"/><line style="stroke: #A80036; stroke-width: 1.5;" x1="64" x2="330" y1="99" y2="99"/><ellipse cx="74" cy="126.8047" fill="#84BE84" rx="3" ry="3" style="stroke: #038048; stroke-width: 1.0;"/><text fill="#000000" font-family="sans-serif" font-size="11" font-style="italic" lengthAdjust="spacingAndGlyphs" textLength="242" x="83" y="130.0151">TrackData receiveRfidRequest(int rfidNum)</text><line style="stroke: #A80036; stroke-width: 1.0; stroke-dasharray: 1.0,2.0;" x1="64" x2="164" y1="113.4023" y2="113.4023"/><text fill="#000000" font-family="sans-serif" font-size="11" lengthAdjust="spacingAndGlyphs" textLength="66" x="164" y="116.7104">Use Case 1</text><line style="stroke: #A80036; stroke-width: 1.0; stroke-dasharray: 1.0,2.0;" x1="230" x2="330" y1="113.4023" y2="113.4023"/><!--MD5=[f6b51b5f862da5ce226c62e411e84628]
class DisplayComm2WayInterface--><rect fill="#FEFECE" filter="url(#fj9fxjuw341ln)" height="77.6094" id="DisplayComm2WayInterface" style="stroke: #A80036; stroke-width: 1.5;" width="252" x="366" y="59"/><ellipse cx="401.7" cy="75" fill="#B4A7E5" rx="11" ry="11" style="stroke: #A80036; stroke-width: 1.0;"/><path d="M397.6219,70.7656 L397.6219,68.6094 L405.0125,68.6094 L405.0125,70.7656 L402.5438,70.7656 L402.5438,78.8438 L405.0125,78.8438 L405.0125,81 L397.6219,81 L397.6219,78.8438 L400.0906,78.8438 L400.0906,70.7656 L397.6219,70.7656 Z "/><text fill="#000000" font-family="sans-serif" font-size="12" font-style="italic" lengthAdjust="spacingAndGlyphs" textLength="174" x="420.3" y="79.1543">DisplayComm2WayInterface</text><line style="stroke: #A80036; stroke-width: 1.5;" x1="367" x2="617" y1="91" y2="91"/><line style="stroke: #A80036; stroke-width: 1.5;" x1="367" x2="617" y1="99" y2="99"/><ellipse cx="377" cy="126.8047" fill="#84BE84" rx="3" ry="3" style="stroke: #038048; stroke-width: 1.0;"/><text fill="#000000" font-family="sans-serif" font-size="11" font-style="italic" lengthAdjust="spacingAndGlyphs" textLength="226" x="386" y="130.0151">TrackData passRfidRequest(int rfidNum)</text><line style="stroke: #A80036; stroke-width: 1.0; stroke-dasharray: 1.0,2.0;" x1="367" x2="459" y1="113.4023" y2="113.4023"/><text fill="#000000" font-family="sans-serif" font-size="11" lengthAdjust="spacingAndGlyphs" textLength="66" x="459" y="116.7104">Use Case 1</text><line style="stroke: #A80036; stroke-width: 1.0; stroke-dasharray: 1.0,2.0;" x1="525" x2="617" y1="113.4023" y2="113.4023"/><!--MD5=[6aeb72f2773d7cabb45309482beeff0a]
class DisplayCommManager--><rect fill="#FEFECE" filter="url(#fj9fxjuw341ln)" height="77.6094" id="DisplayCommManager" style="stroke: #A80036; stroke-width: 1.5;" width="275" x="653.5" y="59"/><ellipse cx="718.25" cy="75" fill="#B4A7E5" rx="11" ry="11" style="stroke: #A80036; stroke-width: 1.0;"/><path d="M714.1719,70.7656 L714.1719,68.6094 L721.5625,68.6094 L721.5625,70.7656 L719.0938,70.7656 L719.0938,78.8438 L721.5625,78.8438 L721.5625,81 L714.1719,81 L714.1719,78.8438 L716.6406,78.8438 L716.6406,70.7656 L714.1719,70.7656 Z "/><text fill="#000000" font-family="sans-serif" font-size="12" font-style="italic" lengthAdjust="spacingAndGlyphs" textLength="137" x="738.75" y="79.1543">DisplayCommManager</text><line style="stroke: #A80036; stroke-width: 1.5;" x1="654.5" x2="927.5" y1="91" y2="91"/><line style="stroke: #A80036; stroke-width: 1.5;" x1="654.5" x2="927.5" y1="99" y2="99"/><ellipse cx="664.5" cy="126.8047" fill="#84BE84" rx="3" ry="3" style="stroke: #038048; stroke-width: 1.0;"/><text fill="#000000" font-family="sans-serif" font-size="11" font-style="italic" lengthAdjust="spacingAndGlyphs" textLength="249" x="673.5" y="130.0151">TrackData evaluateRfidRequest(int rfidNum)</text><line style="stroke: #A80036; stroke-width: 1.0; stroke-dasharray: 1.0,2.0;" x1="654.5" x2="758" y1="113.4023" y2="113.4023"/><text fill="#000000" font-family="sans-serif" font-size="11" lengthAdjust="spacingAndGlyphs" textLength="66" x="758" y="116.7104">Use Case 1</text><line style="stroke: #A80036; stroke-width: 1.0; stroke-dasharray: 1.0,2.0;" x1="824" x2="927.5" y1="113.4023" y2="113.4023"/><!--MD5=[a35092e604da7274febf4e2cf9a25087]
class DisplayCommInterfaceImplementation--><rect fill="#FEFECE" filter="url(#fj9fxjuw341ln)" height="120.0234" id="DisplayCommInterfaceImplementation" style="stroke: #A80036; stroke-width: 1.5;" width="317" x="38.5" y="210"/><ellipse cx="76" cy="226" fill="#ADD1B2" rx="11" ry="11" style="stroke: #A80036; stroke-width: 1.0;"/><path d="M78.9688,231.6406 Q78.3906,231.9375 77.75,232.0781 Q77.1094,232.2344 76.4063,232.2344 Q73.9063,232.2344 72.5781,230.5938 Q71.2656,228.9375 71.2656,225.8125 Q71.2656,222.6875 72.5781,221.0313 Q73.9063,219.375 76.4063,219.375 Q77.1094,219.375 77.75,219.5313 Q78.4063,219.6875 78.9688,219.9844 L78.9688,222.7031 Q78.3438,222.125 77.75,221.8594 Q77.1563,221.5781 76.5313,221.5781 Q75.1875,221.5781 74.5,222.6563 Q73.8125,223.7188 73.8125,225.8125 Q73.8125,227.9063 74.5,228.9844 Q75.1875,230.0469 76.5313,230.0469 Q77.1563,230.0469 77.75,229.7813 Q78.3438,229.5 78.9688,228.9219 L78.9688,231.6406 Z "/><text fill="#000000" font-family="sans-serif" font-size="12" lengthAdjust="spacingAndGlyphs" textLength="235" x="95" y="230.1543">DisplayCommInterfaceImplementation</text><line style="stroke: #A80036; stroke-width: 1.5;" x1="39.5" x2="354.5" y1="242" y2="242"/><line style="stroke: #A80036; stroke-width: 1.5;" x1="39.5" x2="354.5" y1="250" y2="250"/><ellipse cx="49.5" cy="277.8047" fill="#84BE84" rx="3" ry="3" style="stroke: #038048; stroke-width: 1.0;"/><text fill="#000000" font-family="sans-serif" font-size="11" font-style="italic" lengthAdjust="spacingAndGlyphs" textLength="242" x="58.5" y="281.0151">TrackData receiveRfidRequest(int rfidNum)</text><ellipse cx="49.5" cy="290.6094" fill="#84BE84" rx="3" ry="3" style="stroke: #038048; stroke-width: 1.0;"/><text fill="#000000" font-family="sans-serif" font-size="11" font-style="italic" lengthAdjust="spacingAndGlyphs" textLength="291" x="58.5" y="293.8198">TrackData passToComm2WayInterface(int rfidNum)</text><line style="stroke: #A80036; stroke-width: 1.0; stroke-dasharray: 1.0,2.0;" x1="39.5" x2="164" y1="264.4023" y2="264.4023"/><text fill="#000000" font-family="sans-serif" font-size="11" lengthAdjust="spacingAndGlyphs" textLength="66" x="164" y="267.7104">Use Case 1</text><line style="stroke: #A80036; stroke-width: 1.0; stroke-dasharray: 1.0,2.0;" x1="230" x2="354.5" y1="264.4023" y2="264.4023"/><text fill="#000000" font-family="sans-serif" font-size="11" lengthAdjust="spacingAndGlyphs" textLength="0" x="48.5" y="323.4292"/><line style="stroke: #A80036; stroke-width: 1.0; stroke-dasharray: 1.0,2.0;" x1="39.5" x2="164" y1="306.8164" y2="306.8164"/><text fill="#000000" font-family="sans-serif" font-size="11" lengthAdjust="spacingAndGlyphs" textLength="66" x="164" y="310.1245">Use Case 2</text><line style="stroke: #A80036; stroke-width: 1.0; stroke-dasharray: 1.0,2.0;" x1="230" x2="354.5" y1="306.8164" y2="306.8164"/><!--MD5=[46657c2900260d4d40350fe3f8c544df]
class DisplayComm2WayInterfaceImplementation--><rect fill="#FEFECE" filter="url(#fj9fxjuw341ln)" height="103.2188" id="DisplayComm2WayInterfaceImplementation" style="stroke: #A80036; stroke-width: 1.5;" width="370" x="391" y="218.5"/><ellipse cx="437.75" cy="234.5" fill="#ADD1B2" rx="11" ry="11" style="stroke: #A80036; stroke-width: 1.0;"/><path d="M440.7188,240.1406 Q440.1406,240.4375 439.5,240.5781 Q438.8594,240.7344 438.1563,240.7344 Q435.6563,240.7344 434.3281,239.0938 Q433.0156,237.4375 433.0156,234.3125 Q433.0156,231.1875 434.3281,229.5313 Q435.6563,227.875 438.1563,227.875 Q438.8594,227.875 439.5,228.0313 Q440.1563,228.1875 440.7188,228.4844 L440.7188,231.2031 Q440.0938,230.625 439.5,230.3594 Q438.9063,230.0781 438.2813,230.0781 Q436.9375,230.0781 436.25,231.1563 Q435.5625,232.2188 435.5625,234.3125 Q435.5625,236.4063 436.25,237.4844 Q436.9375,238.5469 438.2813,238.5469 Q438.9063,238.5469 439.5,238.2813 Q440.0938,238 440.7188,237.4219 L440.7188,240.1406 Z "/><text fill="#000000" font-family="sans-serif" font-size="12" lengthAdjust="spacingAndGlyphs" textLength="268" x="458.25" y="238.6543">DisplayComm2WayInterfaceImplementation</text><line style="stroke: #A80036; stroke-width: 1.5;" x1="392" x2="760" y1="250.5" y2="250.5"/><line style="stroke: #A80036; stroke-width: 1.5;" x1="392" x2="760" y1="258.5" y2="258.5"/><ellipse cx="402" cy="286.3047" fill="#84BE84" rx="3" ry="3" style="stroke: #038048; stroke-width: 1.0;"/><text fill="#000000" font-family="sans-serif" font-size="11" font-style="italic" lengthAdjust="spacingAndGlyphs" textLength="226" x="411" y="289.5151">TrackData passRfidRequest(int rfidNum)</text><ellipse cx="402" cy="299.1094" fill="#84BE84" rx="3" ry="3" style="stroke: #038048; stroke-width: 1.0;"/><text fill="#000000" font-family="sans-serif" font-size="11" font-style="italic" lengthAdjust="spacingAndGlyphs" textLength="269" x="411" y="302.3198">void determineUserRequestFormat(int rfidNum)</text><ellipse cx="402" cy="311.9141" fill="#84BE84" rx="3" ry="3" style="stroke: #038048; stroke-width: 1.0;"/><text fill="#000000" font-family="sans-serif" font-size="11" font-style="italic" lengthAdjust="spacingAndGlyphs" textLength="344" x="411" y="315.1245">void receiveRequestFromDisplayCommInterface(int rfidNum)</text><line style="stroke: #A80036; stroke-width: 1.0; stroke-dasharray: 1.0,2.0;" x1="392" x2="543" y1="272.9023" y2="272.9023"/><text fill="#000000" font-family="sans-serif" font-size="11" lengthAdjust="spacingAndGlyphs" textLength="66" x="543" y="276.2104">Use Case 1</text><line style="stroke: #A80036; stroke-width: 1.0; stroke-dasharray: 1.0,2.0;" x1="609" x2="760" y1="272.9023" y2="272.9023"/><!--MD5=[3a27b63ddb357afc5dde5581215f51f9]
class DisplayCommManagerImplementation--><rect fill="#FEFECE" filter="url(#fj9fxjuw341ln)" height="145.6328" id="DisplayCommManagerImplementation" style="stroke: #A80036; stroke-width: 1.5;" width="395" x="796.5" y="197"/><ellipse cx="872.75" cy="213" fill="#ADD1B2" rx="11" ry="11" style="stroke: #A80036; stroke-width: 1.0;"/><path d="M875.7188,218.6406 Q875.1406,218.9375 874.5,219.0781 Q873.8594,219.2344 873.1563,219.2344 Q870.6563,219.2344 869.3281,217.5938 Q868.0156,215.9375 868.0156,212.8125 Q868.0156,209.6875 869.3281,208.0313 Q870.6563,206.375 873.1563,206.375 Q873.8594,206.375 874.5,206.5313 Q875.1563,206.6875 875.7188,206.9844 L875.7188,209.7031 Q875.0938,209.125 874.5,208.8594 Q873.9063,208.5781 873.2813,208.5781 Q871.9375,208.5781 871.25,209.6563 Q870.5625,210.7188 870.5625,212.8125 Q870.5625,214.9063 871.25,215.9844 Q871.9375,217.0469 873.2813,217.0469 Q873.9063,217.0469 874.5,216.7813 Q875.0938,216.5 875.7188,215.9219 L875.7188,218.6406 Z "/><text fill="#000000" font-family="sans-serif" font-size="12" lengthAdjust="spacingAndGlyphs" textLength="234" x="893.25" y="217.1543">DisplayCommManagerImplementation</text><line style="stroke: #A80036; stroke-width: 1.5;" x1="797.5" x2="1190.5" y1="229" y2="229"/><line style="stroke: #A80036; stroke-width: 1.5;" x1="797.5" x2="1190.5" y1="237" y2="237"/><ellipse cx="807.5" cy="264.8047" fill="#84BE84" rx="3" ry="3" style="stroke: #038048; stroke-width: 1.0;"/><text fill="#000000" font-family="sans-serif" font-size="11" font-style="italic" lengthAdjust="spacingAndGlyphs" textLength="249" x="816.5" y="268.0151">TrackData evaluateRfidRequest(int rfidNum)</text><ellipse cx="807.5" cy="277.6094" fill="#84BE84" rx="3" ry="3" style="stroke: #038048; stroke-width: 1.0;"/><text fill="#000000" font-family="sans-serif" font-size="11" font-style="italic" lengthAdjust="spacingAndGlyphs" textLength="369" x="816.5" y="280.8198">TrackData passRequestToMiddlewareCommInterface(int rfidNum)</text><ellipse cx="807.5" cy="290.4141" fill="#84BE84" rx="3" ry="3" style="stroke: #038048; stroke-width: 1.0;"/><text fill="#000000" font-family="sans-serif" font-size="11" font-style="italic" lengthAdjust="spacingAndGlyphs" textLength="339" x="816.5" y="293.6245">void receiveRequestFromDisplay2WayInterface(int rfidNum)</text><text fill="#000000" font-family="sans-serif" font-size="11" lengthAdjust="spacingAndGlyphs" textLength="0" x="820.5" y="306.4292"/><line style="stroke: #A80036; stroke-width: 1.0; stroke-dasharray: 1.0,2.0;" x1="797.5" x2="961" y1="251.4023" y2="251.4023"/><text fill="#000000" font-family="sans-serif" font-size="11" lengthAdjust="spacingAndGlyphs" textLength="66" x="961" y="254.7104">Use Case 1</text><line style="stroke: #A80036; stroke-width: 1.0; stroke-dasharray: 1.0,2.0;" x1="1027" x2="1190.5" y1="251.4023" y2="251.4023"/><text fill="#000000" font-family="sans-serif" font-size="11" lengthAdjust="spacingAndGlyphs" textLength="0" x="806.5" y="336.0386"/><line style="stroke: #A80036; stroke-width: 1.0; stroke-dasharray: 1.0,2.0;" x1="797.5" x2="961" y1="319.4258" y2="319.4258"/><text fill="#000000" font-family="sans-serif" font-size="11" lengthAdjust="spacingAndGlyphs" textLength="66" x="961" y="322.7339">Use Case 2</text><line style="stroke: #A80036; stroke-width: 1.0; stroke-dasharray: 1.0,2.0;" x1="1027" x2="1190.5" y1="319.4258" y2="319.4258"/><!--MD5=[d454b7777f115113290d89683d7a426c]
class DisplayCommInterfaceImplementationTests--><rect fill="#FEFECE" filter="url(#fj9fxjuw341ln)" height="48" id="DisplayCommInterfaceImplementationTests" style="stroke: #A80036; stroke-width: 1.5;" width="301" x="1248.5" y="74"/><ellipse cx="1263.5" cy="90" fill="#ADD1B2" rx="11" ry="11" style="stroke: #A80036; stroke-width: 1.0;"/><path d="M1266.4688,95.6406 Q1265.8906,95.9375 1265.25,96.0781 Q1264.6094,96.2344 1263.9063,96.2344 Q1261.4063,96.2344 1260.0781,94.5938 Q1258.7656,92.9375 1258.7656,89.8125 Q1258.7656,86.6875 1260.0781,85.0313 Q1261.4063,83.375 1263.9063,83.375 Q1264.6094,83.375 1265.25,83.5313 Q1265.9063,83.6875 1266.4688,83.9844 L1266.4688,86.7031 Q1265.8438,86.125 1265.25,85.8594 Q1264.6563,85.5781 1264.0313,85.5781 Q1262.6875,85.5781 1262,86.6563 Q1261.3125,87.7188 1261.3125,89.8125 Q1261.3125,91.9063 1262,92.9844 Q1262.6875,94.0469 1264.0313,94.0469 Q1264.6563,94.0469 1265.25,93.7813 Q1265.8438,93.5 1266.4688,92.9219 L1266.4688,95.6406 Z "/><text fill="#000000" font-family="sans-serif" font-size="12" lengthAdjust="spacingAndGlyphs" textLength="269" x="1277.5" y="94.1543">DisplayCommInterfaceImplementationTests</text><line style="stroke: #A80036; stroke-width: 1.5;" x1="1249.5" x2="1548.5" y1="106" y2="106"/><line style="stroke: #A80036; stroke-width: 1.5;" x1="1249.5" x2="1548.5" y1="114" y2="114"/><!--MD5=[178181f4c7684560c711246055fc01d3]
class DisplayComm2WayInterfaceImplementationTests--><rect fill="#FEFECE" filter="url(#fj9fxjuw341ln)" height="48" id="DisplayComm2WayInterfaceImplementationTests" style="stroke: #A80036; stroke-width: 1.5;" width="334" x="1585" y="74"/><ellipse cx="1600" cy="90" fill="#ADD1B2" rx="11" ry="11" style="stroke: #A80036; stroke-width: 1.0;"/><path d="M1602.9688,95.6406 Q1602.3906,95.9375 1601.75,96.0781 Q1601.1094,96.2344 1600.4063,96.2344 Q1597.9063,96.2344 1596.5781,94.5938 Q1595.2656,92.9375 1595.2656,89.8125 Q1595.2656,86.6875 1596.5781,85.0313 Q1597.9063,83.375 1600.4063,83.375 Q1601.1094,83.375 1601.75,83.5313 Q1602.4063,83.6875 1602.9688,83.9844 L1602.9688,86.7031 Q1602.3438,86.125 1601.75,85.8594 Q1601.1563,85.5781 1600.5313,85.5781 Q1599.1875,85.5781 1598.5,86.6563 Q1597.8125,87.7188 1597.8125,89.8125 Q1597.8125,91.9063 1598.5,92.9844 Q1599.1875,94.0469 1600.5313,94.0469 Q1601.1563,94.0469 1601.75,93.7813 Q1602.3438,93.5 1602.9688,92.9219 L1602.9688,95.6406 Z "/><text fill="#000000" font-family="sans-serif" font-size="12" lengthAdjust="spacingAndGlyphs" textLength="302" x="1614" y="94.1543">DisplayComm2WayInterfaceImplementationTests</text><line style="stroke: #A80036; stroke-width: 1.5;" x1="1586" x2="1918" y1="106" y2="106"/><line style="stroke: #A80036; stroke-width: 1.5;" x1="1586" x2="1918" y1="114" y2="114"/><!--MD5=[937d6d8ff87a99d0d5dcd66ee05a1fa4]
class DisplayCommManagerImplementationTests--><rect fill="#FEFECE" filter="url(#fj9fxjuw341ln)" height="48" id="DisplayCommManagerImplementationTests" style="stroke: #A80036; stroke-width: 1.5;" width="300" x="1954" y="74"/><ellipse cx="1969" cy="90" fill="#ADD1B2" rx="11" ry="11" style="stroke: #A80036; stroke-width: 1.0;"/><path d="M1971.9688,95.6406 Q1971.3906,95.9375 1970.75,96.0781 Q1970.1094,96.2344 1969.4063,96.2344 Q1966.9063,96.2344 1965.5781,94.5938 Q1964.2656,92.9375 1964.2656,89.8125 Q1964.2656,86.6875 1965.5781,85.0313 Q1966.9063,83.375 1969.4063,83.375 Q1970.1094,83.375 1970.75,83.5313 Q1971.4063,83.6875 1971.9688,83.9844 L1971.9688,86.7031 Q1971.3438,86.125 1970.75,85.8594 Q1970.1563,85.5781 1969.5313,85.5781 Q1968.1875,85.5781 1967.5,86.6563 Q1966.8125,87.7188 1966.8125,89.8125 Q1966.8125,91.9063 1967.5,92.9844 Q1968.1875,94.0469 1969.5313,94.0469 Q1970.1563,94.0469 1970.75,93.7813 Q1971.3438,93.5 1971.9688,92.9219 L1971.9688,95.6406 Z "/><text fill="#000000" font-family="sans-serif" font-size="12" lengthAdjust="spacingAndGlyphs" textLength="268" x="1983" y="94.1543">DisplayCommManagerImplementationTests</text><line style="stroke: #A80036; stroke-width: 1.5;" x1="1955" x2="2253" y1="106" y2="106"/><line style="stroke: #A80036; stroke-width: 1.5;" x1="1955" x2="2253" y1="114" y2="114"/><!--MD5=[930c8140e7c1cb8e71aa7cd49967748e]
class TrackDataPlotterTests--><rect fill="#FEFECE" filter="url(#fj9fxjuw341ln)" height="48" id="TrackDataPlotterTests" style="stroke: #A80036; stroke-width: 1.5;" width="172" x="1313" y="246"/><ellipse cx="1328" cy="262" fill="#ADD1B2" rx="11" ry="11" style="stroke: #A80036; stroke-width: 1.0;"/><path d="M1330.9688,267.6406 Q1330.3906,267.9375 1329.75,268.0781 Q1329.1094,268.2344 1328.4063,268.2344 Q1325.9063,268.2344 1324.5781,266.5938 Q1323.2656,264.9375 1323.2656,261.8125 Q1323.2656,258.6875 1324.5781,257.0313 Q1325.9063,255.375 1328.4063,255.375 Q1329.1094,255.375 1329.75,255.5313 Q1330.4063,255.6875 1330.9688,255.9844 L1330.9688,258.7031 Q1330.3438,258.125 1329.75,257.8594 Q1329.1563,257.5781 1328.5313,257.5781 Q1327.1875,257.5781 1326.5,258.6563 Q1325.8125,259.7188 1325.8125,261.8125 Q1325.8125,263.9063 1326.5,264.9844 Q1327.1875,266.0469 1328.5313,266.0469 Q1329.1563,266.0469 1329.75,265.7813 Q1330.3438,265.5 1330.9688,264.9219 L1330.9688,267.6406 Z "/><text fill="#000000" font-family="sans-serif" font-size="12" lengthAdjust="spacingAndGlyphs" textLength="140" x="1342" y="266.1543">TrackDataPlotterTests</text><line style="stroke: #A80036; stroke-width: 1.5;" x1="1314" x2="1484" y1="278" y2="278"/><line style="stroke: #A80036; stroke-width: 1.5;" x1="1314" x2="1484" y1="286" y2="286"/><!--MD5=[a333ac13e0fdf2a5898aafabd38d3c1b]
class DisplayComm2WayInterfaceStub--><rect fill="#FEFECE" filter="url(#fj9fxjuw341ln)" height="77.6094" id="DisplayComm2WayInterfaceStub" style="stroke: #A80036; stroke-width: 1.5;" width="252" x="1520" y="231"/><ellipse cx="1544" cy="247" fill="#ADD1B2" rx="11" ry="11" style="stroke: #A80036; stroke-width: 1.0;"/><path d="M1546.9688,252.6406 Q1546.3906,252.9375 1545.75,253.0781 Q1545.1094,253.2344 1544.4063,253.2344 Q1541.9063,253.2344 1540.5781,251.5938 Q1539.2656,249.9375 1539.2656,246.8125 Q1539.2656,243.6875 1540.5781,242.0313 Q1541.9063,240.375 1544.4063,240.375 Q1545.1094,240.375 1545.75,240.5313 Q1546.4063,240.6875 1546.9688,240.9844 L1546.9688,243.7031 Q1546.3438,243.125 1545.75,242.8594 Q1545.1563,242.5781 1544.5313,242.5781 Q1543.1875,242.5781 1542.5,243.6563 Q1541.8125,244.7188 1541.8125,246.8125 Q1541.8125,248.9063 1542.5,249.9844 Q1543.1875,251.0469 1544.5313,251.0469 Q1545.1563,251.0469 1545.75,250.7813 Q1546.3438,250.5 1546.9688,249.9219 L1546.9688,252.6406 Z "/><text fill="#000000" font-family="sans-serif" font-size="12" lengthAdjust="spacingAndGlyphs" textLength="200" x="1560" y="251.1543">DisplayComm2WayInterfaceStub</text><line style="stroke: #A80036; stroke-width: 1.5;" x1="1521" x2="1771" y1="263" y2="263"/><line style="stroke: #A80036; stroke-width: 1.5;" x1="1521" x2="1771" y1="271" y2="271"/><ellipse cx="1531" cy="298.8047" fill="#84BE84" rx="3" ry="3" style="stroke: #038048; stroke-width: 1.0;"/><text fill="#000000" font-family="sans-serif" font-size="11" font-style="italic" lengthAdjust="spacingAndGlyphs" textLength="226" x="1540" y="302.0151">TrackData passRfidRequest(int rfidNum)</text><line style="stroke: #A80036; stroke-width: 1.0; stroke-dasharray: 1.0,2.0;" x1="1521" x2="1613" y1="285.4023" y2="285.4023"/><text fill="#000000" font-family="sans-serif" font-size="11" lengthAdjust="spacingAndGlyphs" textLength="66" x="1613" y="288.7104">Use Case 1</text><line style="stroke: #A80036; stroke-width: 1.0; stroke-dasharray: 1.0,2.0;" x1="1679" x2="1771" y1="285.4023" y2="285.4023"/><!--MD5=[2970358178d6cf57fc5a801b39eb8d0b]
class DisplayCommManagerStub--><rect fill="#FEFECE" filter="url(#fj9fxjuw341ln)" height="77.6094" id="DisplayCommManagerStub" style="stroke: #A80036; stroke-width: 1.5;" width="273" x="1807.5" y="231"/><ellipse cx="1856.75" cy="247" fill="#ADD1B2" rx="11" ry="11" style="stroke: #A80036; stroke-width: 1.0;"/><path d="M1859.7188,252.6406 Q1859.1406,252.9375 1858.5,253.0781 Q1857.8594,253.2344 1857.1563,253.2344 Q1854.6563,253.2344 1853.3281,251.5938 Q1852.0156,249.9375 1852.0156,246.8125 Q1852.0156,243.6875 1853.3281,242.0313 Q1854.6563,240.375 1857.1563,240.375 Q1857.8594,240.375 1858.5,240.5313 Q1859.1563,240.6875 1859.7188,240.9844 L1859.7188,243.7031 Q1859.0938,243.125 1858.5,242.8594 Q1857.9063,242.5781 1857.2813,242.5781 Q1855.9375,242.5781 1855.25,243.6563 Q1854.5625,244.7188 1854.5625,246.8125 Q1854.5625,248.9063 1855.25,249.9844 Q1855.9375,251.0469 1857.2813,251.0469 Q1857.9063,251.0469 1858.5,250.7813 Q1859.0938,250.5 1859.7188,249.9219 L1859.7188,252.6406 Z "/><text fill="#000000" font-family="sans-serif" font-size="12" lengthAdjust="spacingAndGlyphs" textLength="166" x="1877.25" y="251.1543">DisplayCommManagerStub</text><line style="stroke: #A80036; stroke-width: 1.5;" x1="1808.5" x2="2079.5" y1="263" y2="263"/><line style="stroke: #A80036; stroke-width: 1.5;" x1="1808.5" x2="2079.5" y1="271" y2="271"/><ellipse cx="1818.5" cy="298.8047" fill="#84BE84" rx="3" ry="3" style="stroke: #038048; stroke-width: 1.0;"/><text fill="#000000" font-family="sans-serif" font-size="11" lengthAdjust="spacingAndGlyphs" textLength="247" x="1827.5" y="302.0151">TrackData evaluateRfidRequest(int rfidNum)</text><line style="stroke: #A80036; stroke-width: 1.0; stroke-dasharray: 1.0,2.0;" x1="1808.5" x2="1911" y1="285.4023" y2="285.4023"/><text fill="#000000" font-family="sans-serif" font-size="11" lengthAdjust="spacingAndGlyphs" textLength="66" x="1911" y="288.7104">Use Case 1</text><line style="stroke: #A80036; stroke-width: 1.0; stroke-dasharray: 1.0,2.0;" x1="1977" x2="2079.5" y1="285.4023" y2="285.4023"/><!--MD5=[cf56a65163663c6c6c7b84cd7c204b97]
class MiddlewareCommInterfaceStub--><rect fill="#FEFECE" filter="url(#fj9fxjuw341ln)" height="77.6094" id="MiddlewareCommInterfaceStub" style="stroke: #A80036; stroke-width: 1.5;" width="225" x="1286.5" y="403"/><ellipse cx="1301.5" cy="419" fill="#ADD1B2" rx="11" ry="11" style="stroke: #A80036; stroke-width: 1.0;"/><path d="M1304.4688,424.6406 Q1303.8906,424.9375 1303.25,425.0781 Q1302.6094,425.2344 1301.9063,425.2344 Q1299.4063,425.2344 1298.0781,423.5938 Q1296.7656,421.9375 1296.7656,418.8125 Q1296.7656,415.6875 1298.0781,414.0313 Q1299.4063,412.375 1301.9063,412.375 Q1302.6094,412.375 1303.25,412.5313 Q1303.9063,412.6875 1304.4688,412.9844 L1304.4688,415.7031 Q1303.8438,415.125 1303.25,414.8594 Q1302.6563,414.5781 1302.0313,414.5781 Q1300.6875,414.5781 1300,415.6563 Q1299.3125,416.7188 1299.3125,418.8125 Q1299.3125,420.9063 1300,421.9844 Q1300.6875,423.0469 1302.0313,423.0469 Q1302.6563,423.0469 1303.25,422.7813 Q1303.8438,422.5 1304.4688,421.9219 L1304.4688,424.6406 Z "/><text fill="#000000" font-family="sans-serif" font-size="12" lengthAdjust="spacingAndGlyphs" textLength="193" x="1315.5" y="423.1543">MiddlewareCommInterfaceStub</text><line style="stroke: #A80036; stroke-width: 1.5;" x1="1287.5" x2="1510.5" y1="435" y2="435"/><line style="stroke: #A80036; stroke-width: 1.5;" x1="1287.5" x2="1510.5" y1="443" y2="443"/><ellipse cx="1297.5" cy="470.8047" fill="#84BE84" rx="3" ry="3" style="stroke: #038048; stroke-width: 1.0;"/><text fill="#000000" font-family="sans-serif" font-size="11" lengthAdjust="spacingAndGlyphs" textLength="171" x="1306.5" y="474.0151">TrackData requestRfid(int rfid)</text><line style="stroke: #A80036; stroke-width: 1.0; stroke-dasharray: 1.0,2.0;" x1="1287.5" x2="1366" y1="457.4023" y2="457.4023"/><text fill="#000000" font-family="sans-serif" font-size="11" lengthAdjust="spacingAndGlyphs" textLength="66" x="1366" y="460.7104">Use Case 1</text><line style="stroke: #A80036; stroke-width: 1.0; stroke-dasharray: 1.0,2.0;" x1="1432" x2="1510.5" y1="457.4023" y2="457.4023"/><!--MD5=[c986427b061286eff33e87a088ad4bf9]
class TrackDataPlotter--><rect fill="#FEFECE" filter="url(#fj9fxjuw341ln)" height="48" id="TrackDataPlotter" style="stroke: #A80036; stroke-width: 1.5;" width="138" x="2349" y="74"/><ellipse cx="2364" cy="90" fill="#ADD1B2" rx="11" ry="11" style="stroke: #A80036; stroke-width: 1.0;"/><path d="M2366.9688,95.6406 Q2366.3906,95.9375 2365.75,96.0781 Q2365.1094,96.2344 2364.4063,96.2344 Q2361.9063,96.2344 2360.5781,94.5938 Q2359.2656,92.9375 2359.2656,89.8125 Q2359.2656,86.6875 2360.5781,85.0313 Q2361.9063,83.375 2364.4063,83.375 Q2365.1094,83.375 2365.75,83.5313 Q2366.4063,83.6875 2366.9688,83.9844 L2366.9688,86.7031 Q2366.3438,86.125 2365.75,85.8594 Q2365.1563,85.5781 2364.5313,85.5781 Q2363.1875,85.5781 2362.5,86.6563 Q2361.8125,87.7188 2361.8125,89.8125 Q2361.8125,91.9063 2362.5,92.9844 Q2363.1875,94.0469 2364.5313,94.0469 Q2365.1563,94.0469 2365.75,93.7813 Q2366.3438,93.5 2366.9688,92.9219 L2366.9688,95.6406 Z "/><text fill="#000000" font-family="sans-serif" font-size="12" lengthAdjust="spacingAndGlyphs" textLength="106" x="2378" y="94.1543">TrackDataPlotter</text><line style="stroke: #A80036; stroke-width: 1.5;" x1="2350" x2="2486" y1="106" y2="106"/><line style="stroke: #A80036; stroke-width: 1.5;" x1="2350" x2="2486" y1="114" y2="114"/><!--MD5=[c9341cce37a1a8bee80ad1365349afef]
link DisplayCommInterface to DisplayComm2WayInterface--><!--MD5=[7835b7bc4a765bae53638d0402d5d5e6]
link DisplayComm2WayInterface to DisplayCommManager--><!--MD5=[7d92106ecb9088e13e6754b44ec571b0]
link DisplayCommInterface to DisplayCommInterfaceImplementation--><!--MD5=[51e28edbb9f88779af066724948e7048]
link DisplayCommInterfaceImplementation to DisplayComm2WayInterfaceImplementation--><!--MD5=[ea4cd417ea9ea2c0dbdbdf4e4e3d21de]
link DisplayComm2WayInterfaceImplementation to DisplayCommManagerImplementation--><!--MD5=[64e942b00478e9eef28430a914bbb142]
link DisplayCommInterfaceImplementationTests to DisplayComm2WayInterfaceImplementationTests--><!--MD5=[8dbe1f493aaf019419238fc4702b450a]
link DisplayComm2WayInterfaceImplementationTests to DisplayCommManagerImplementationTests--><!--MD5=[e81de192ca7bc9df286fd4cb58be8b46]
link DisplayCommInterfaceImplementationTests to TrackDataPlotterTests--><!--MD5=[8b898a72046de76ad345afd61090e7dd]
link TrackDataPlotterTests to DisplayComm2WayInterfaceStub--><!--MD5=[c9c9241041dbc47aa626fe1afc095e03]
link DisplayComm2WayInterfaceStub to DisplayCommManagerStub--><!--MD5=[61d9c608a539b4614526ad59aeb385a2]
link TrackDataPlotterTests to MiddlewareCommInterfaceStub--><!--MD5=[e026056910ed6199e1a0541aef5aa07f]
@startuml Display02Packages


package edu.oakland.production.display02 {

}


package edu.oakland.production.display02 {
    interface DisplayCommInterface {
        __
        .. Use Case 1 ..
        {abstract} + TrackData receiveRfidRequest(int rfidNum)
    }
}


package edu.oakland.production.display02 {
    interface DisplayComm2WayInterface {
        __
        .. Use Case 1 ..
        {abstract} + TrackData passRfidRequest(int rfidNum)
    }
}


package edu.oakland.production.display02 {
    interface DisplayCommManager {
        __
        .. Use Case 1 ..
        {abstract} + TrackData evaluateRfidRequest(int rfidNum)
    }
}


package edu.oakland.production.display02 {
    class DisplayCommInterfaceImplementation {
        __
        .. Use Case 1 ..
        {abstract} + TrackData receiveRfidRequest(int rfidNum)
        {abstract} + TrackData passToComm2WayInterface(int rfidNum)
        .. Use Case 2 ..

    }
}


package edu.oakland.production.display02 {
    class DisplayComm2WayInterfaceImplementation {
        __
        .. Use Case 1 ..
        {abstract} + TrackData passRfidRequest(int rfidNum)
        {abstract} + void determineUserRequestFormat(int rfidNum)
        {abstract} + void receiveRequestFromDisplayCommInterface(int rfidNum)
    }
}


package edu.oakland.production.display02 {
    class DisplayCommManagerImplementation {
        __
        .. Use Case 1 ..
        {abstract} + TrackData evaluateRfidRequest(int rfidNum)
        {abstract} + TrackData passRequestToMiddlewareCommInterface(int rfidNum)
        {abstract} + void receiveRequestFromDisplay2WayInterface(int rfidNum)

        .. Use Case 2 ..

    }
}



package edu.oakland.test.display02 {
    
}


package edu.oakland.test.display02 {
    class DisplayCommInterfaceImplementationTests {

    }
}


package edu.oakland.test.display02 {
    class DisplayComm2WayInterfaceImplementationTests {

    }
}


package edu.oakland.test.display02 {
    class DisplayCommManagerImplementationTests {

    }
}


package edu.oakland.test.display02 {
    class TrackDataPlotterTests {

    }
}


package edu.oakland.test.display02 {
    class DisplayComm2WayInterfaceStub {
        __
        .. Use Case 1 ..
        {abstract} + TrackData passRfidRequest(int rfidNum)
    }
}


package edu.oakland.test.display02 {
    class DisplayCommManagerStub {
        __
        .. Use Case 1 ..
        + TrackData evaluateRfidRequest(int rfidNum)
    }
}


package edu.oakland.test.display02 {
    class MiddlewareCommInterfaceStub {
        __
        .. Use Case 1 ..
        + TrackData requestRfid(int rfid)
    }
}



package edu.oakland.helper.display02 {

}


package edu.oakland.helper.display02 {
    class TrackDataPlotter {
        
    }
}



@enduml

PlantUML version 1.2020.02(Sun Mar 01 10:22:07 GMT 2020)
(GPL source distribution)
Java Runtime: OpenJDK Runtime Environment
JVM: OpenJDK 64-Bit Server VM
Java Version: 11.0.9+11-Ubuntu-0ubuntu1
Operating System: Linux
Default Encoding: ANSI_X3.4-1968
Language: en
Country: US
--></g></svg>