<?xml version="1.0" encoding="UTF-8" standalone="no"?><svg xmlns="http://www.w3.org/2000/svg" xmlns:xlink="http://www.w3.org/1999/xlink" contentScriptType="application/ecmascript" contentStyleType="text/css" height="462px" preserveAspectRatio="none" style="width:3118px;height:462px;" version="1.1" viewBox="0 0 3118 462" width="3118px" zoomAndPan="magnify"><defs><filter height="300%" id="f63hcs60x16pd" width="300%" x="-1" y="-1"><feGaussianBlur result="blurOut" stdDeviation="2.0"/><feColorMatrix in="blurOut" result="blurOut2" type="matrix" values="0 0 0 0 0 0 0 0 0 0 0 0 0 0 0 0 0 0 .4 0"/><feOffset dx="4.0" dy="4.0" in="blurOut2" result="blurOut3"/><feBlend in="SourceGraphic" in2="blurOut3" mode="normal"/></filter></defs><g><!--MD5=[fe59aae6f7bfe371a9c197ec1f7f843a]
cluster edu.oakland.production.display02--><polygon fill="#FFFFFF" filter="url(#f63hcs60x16pd)" points="22,28,295,28,302,50.2969,1425,50.2969,1425,412,22,412,22,28" style="stroke: #000000; stroke-width: 1.5;"/><line style="stroke: #000000; stroke-width: 1.5;" x1="22" x2="302" y1="50.2969" y2="50.2969"/><text fill="#000000" font-family="sans-serif" font-size="14" font-weight="bold" lengthAdjust="spacingAndGlyphs" textLength="267" x="26" y="42.9951">edu.oakland.production.display02</text><!--MD5=[9258003ec405d300d3379b4a3d8dd6ad]
cluster edu.oakland.test.display02--><polygon fill="#FFFFFF" filter="url(#f63hcs60x16pd)" points="1449,24,1667,24,1674,46.2969,2738,46.2969,2738,380,1449,380,1449,24" style="stroke: #000000; stroke-width: 1.5;"/><line style="stroke: #000000; stroke-width: 1.5;" x1="1449" x2="1674" y1="46.2969" y2="46.2969"/><text fill="#000000" font-family="sans-serif" font-size="14" font-weight="bold" lengthAdjust="spacingAndGlyphs" textLength="212" x="1453" y="38.9951">edu.oakland.test.display02</text><!--MD5=[33504725b8a69ba2207f0a836957a91c]
cluster edu.oakland.production.middleware02--><polygon fill="#FFFFFF" filter="url(#f63hcs60x16pd)" points="2762,28,3072,28,3079,50.2969,3082,50.2969,3082,157,2762,157,2762,28" style="stroke: #000000; stroke-width: 1.5;"/><line style="stroke: #000000; stroke-width: 1.5;" x1="2762" x2="3079" y1="50.2969" y2="50.2969"/><text fill="#000000" font-family="sans-serif" font-size="14" font-weight="bold" lengthAdjust="spacingAndGlyphs" textLength="304" x="2766" y="42.9951">edu.oakland.production.middleware02</text><!--MD5=[a502031b5a5384de0a21e6ee820fd3b2]
cluster edu.oakland.helper.display02--><polygon fill="#FFFFFF" filter="url(#f63hcs60x16pd)" points="2762,181,3000,181,3007,203.2969,3096,203.2969,3096,450,2762,450,2762,181" style="stroke: #000000; stroke-width: 1.5;"/><line style="stroke: #000000; stroke-width: 1.5;" x1="2762" x2="3007" y1="203.2969" y2="203.2969"/><text fill="#000000" font-family="sans-serif" font-size="14" font-weight="bold" lengthAdjust="spacingAndGlyphs" textLength="232" x="2766" y="195.9951">edu.oakland.helper.display02</text><!--MD5=[c8d1e3134fecb0c949fd2a76cc0bb992]
class DisplayCommInterface--><rect fill="#FEFECE" filter="url(#f63hcs60x16pd)" height="77.6094" id="DisplayCommInterface" style="stroke: #A80036; stroke-width: 1.5;" width="268" x="89" y="63"/><ellipse cx="149.25" cy="79" fill="#B4A7E5" rx="11" ry="11" style="stroke: #A80036; stroke-width: 1.0;"/><path d="M145.1719,74.7656 L145.1719,72.6094 L152.5625,72.6094 L152.5625,74.7656 L150.0938,74.7656 L150.0938,82.8438 L152.5625,82.8438 L152.5625,85 L145.1719,85 L145.1719,82.8438 L147.6406,82.8438 L147.6406,74.7656 L145.1719,74.7656 Z "/><text fill="#000000" font-family="sans-serif" font-size="12" font-style="italic" lengthAdjust="spacingAndGlyphs" textLength="139" x="169.75" y="83.1543">DisplayCommInterface</text><line style="stroke: #A80036; stroke-width: 1.5;" x1="90" x2="356" y1="95" y2="95"/><line style="stroke: #A80036; stroke-width: 1.5;" x1="90" x2="356" y1="103" y2="103"/><ellipse cx="100" cy="130.8047" fill="#84BE84" rx="3" ry="3" style="stroke: #038048; stroke-width: 1.0;"/><text fill="#000000" font-family="sans-serif" font-size="11" font-style="italic" lengthAdjust="spacingAndGlyphs" textLength="242" x="109" y="134.0151">TrackData receiveRfidRequest(int rfidNum)</text><line style="stroke: #A80036; stroke-width: 1.0; stroke-dasharray: 1.0,2.0;" x1="90" x2="190" y1="117.4023" y2="117.4023"/><text fill="#000000" font-family="sans-serif" font-size="11" lengthAdjust="spacingAndGlyphs" textLength="66" x="190" y="120.7104">Use Case 1</text><line style="stroke: #A80036; stroke-width: 1.0; stroke-dasharray: 1.0,2.0;" x1="256" x2="356" y1="117.4023" y2="117.4023"/><!--MD5=[f6b51b5f862da5ce226c62e411e84628]
class DisplayComm2WayInterface--><rect fill="#FEFECE" filter="url(#f63hcs60x16pd)" height="77.6094" id="DisplayComm2WayInterface" style="stroke: #A80036; stroke-width: 1.5;" width="252" x="682" y="63"/><ellipse cx="717.7" cy="79" fill="#B4A7E5" rx="11" ry="11" style="stroke: #A80036; stroke-width: 1.0;"/><path d="M713.6219,74.7656 L713.6219,72.6094 L721.0125,72.6094 L721.0125,74.7656 L718.5438,74.7656 L718.5438,82.8438 L721.0125,82.8438 L721.0125,85 L713.6219,85 L713.6219,82.8438 L716.0906,82.8438 L716.0906,74.7656 L713.6219,74.7656 Z "/><text fill="#000000" font-family="sans-serif" font-size="12" font-style="italic" lengthAdjust="spacingAndGlyphs" textLength="174" x="736.3" y="83.1543">DisplayComm2WayInterface</text><line style="stroke: #A80036; stroke-width: 1.5;" x1="683" x2="933" y1="95" y2="95"/><line style="stroke: #A80036; stroke-width: 1.5;" x1="683" x2="933" y1="103" y2="103"/><ellipse cx="693" cy="130.8047" fill="#84BE84" rx="3" ry="3" style="stroke: #038048; stroke-width: 1.0;"/><text fill="#000000" font-family="sans-serif" font-size="11" font-style="italic" lengthAdjust="spacingAndGlyphs" textLength="226" x="702" y="134.0151">TrackData passRfidRequest(int rfidNum)</text><line style="stroke: #A80036; stroke-width: 1.0; stroke-dasharray: 1.0,2.0;" x1="683" x2="775" y1="117.4023" y2="117.4023"/><text fill="#000000" font-family="sans-serif" font-size="11" lengthAdjust="spacingAndGlyphs" textLength="66" x="775" y="120.7104">Use Case 1</text><line style="stroke: #A80036; stroke-width: 1.0; stroke-dasharray: 1.0,2.0;" x1="841" x2="933" y1="117.4023" y2="117.4023"/><!--MD5=[6aeb72f2773d7cabb45309482beeff0a]
class DisplayCommManager--><rect fill="#FEFECE" filter="url(#f63hcs60x16pd)" height="77.6094" id="DisplayCommManager" style="stroke: #A80036; stroke-width: 1.5;" width="249" x="1104.5" y="63"/><ellipse cx="1156.25" cy="79" fill="#B4A7E5" rx="11" ry="11" style="stroke: #A80036; stroke-width: 1.0;"/><path d="M1152.1719,74.7656 L1152.1719,72.6094 L1159.5625,72.6094 L1159.5625,74.7656 L1157.0938,74.7656 L1157.0938,82.8438 L1159.5625,82.8438 L1159.5625,85 L1152.1719,85 L1152.1719,82.8438 L1154.6406,82.8438 L1154.6406,74.7656 L1152.1719,74.7656 Z "/><text fill="#000000" font-family="sans-serif" font-size="12" font-style="italic" lengthAdjust="spacingAndGlyphs" textLength="137" x="1176.75" y="83.1543">DisplayCommManager</text><line style="stroke: #A80036; stroke-width: 1.5;" x1="1105.5" x2="1352.5" y1="95" y2="95"/><line style="stroke: #A80036; stroke-width: 1.5;" x1="1105.5" x2="1352.5" y1="103" y2="103"/><ellipse cx="1115.5" cy="130.8047" fill="#84BE84" rx="3" ry="3" style="stroke: #038048; stroke-width: 1.0;"/><text fill="#000000" font-family="sans-serif" font-size="11" font-style="italic" lengthAdjust="spacingAndGlyphs" textLength="223" x="1124.5" y="134.0151">TrackData evaluateRfidRequest(int rfid)</text><line style="stroke: #A80036; stroke-width: 1.0; stroke-dasharray: 1.0,2.0;" x1="1105.5" x2="1196" y1="117.4023" y2="117.4023"/><text fill="#000000" font-family="sans-serif" font-size="11" lengthAdjust="spacingAndGlyphs" textLength="66" x="1196" y="120.7104">Use Case 1</text><line style="stroke: #A80036; stroke-width: 1.0; stroke-dasharray: 1.0,2.0;" x1="1262" x2="1352.5" y1="117.4023" y2="117.4023"/><!--MD5=[a35092e604da7274febf4e2cf9a25087]
class DisplayCommInterfaceImplementation--><rect fill="#FEFECE" filter="url(#f63hcs60x16pd)" height="141.6328" id="DisplayCommInterfaceImplementation" style="stroke: #A80036; stroke-width: 1.5;" width="369" x="38.5" y="254"/><ellipse cx="101.25" cy="270" fill="#ADD1B2" rx="11" ry="11" style="stroke: #A80036; stroke-width: 1.0;"/><path d="M104.2188,275.6406 Q103.6406,275.9375 103,276.0781 Q102.3594,276.2344 101.6563,276.2344 Q99.1563,276.2344 97.8281,274.5938 Q96.5156,272.9375 96.5156,269.8125 Q96.5156,266.6875 97.8281,265.0313 Q99.1563,263.375 101.6563,263.375 Q102.3594,263.375 103,263.5313 Q103.6563,263.6875 104.2188,263.9844 L104.2188,266.7031 Q103.5938,266.125 103,265.8594 Q102.4063,265.5781 101.7813,265.5781 Q100.4375,265.5781 99.75,266.6563 Q99.0625,267.7188 99.0625,269.8125 Q99.0625,271.9063 99.75,272.9844 Q100.4375,274.0469 101.7813,274.0469 Q102.4063,274.0469 103,273.7813 Q103.5938,273.5 104.2188,272.9219 L104.2188,275.6406 Z "/><text fill="#000000" font-family="sans-serif" font-size="12" lengthAdjust="spacingAndGlyphs" textLength="235" x="121.75" y="274.1543">DisplayCommInterfaceImplementation</text><line style="stroke: #A80036; stroke-width: 1.5;" x1="39.5" x2="406.5" y1="286" y2="286"/><rect fill="none" height="6" style="stroke: #C82930; stroke-width: 1.0;" width="6" x="46.5" y="294"/><text fill="#000000" font-family="sans-serif" font-size="11" lengthAdjust="spacingAndGlyphs" textLength="207" x="58.5" y="300.2104">DisplayComm2WayInterface receiver</text><rect fill="none" height="6" style="stroke: #C82930; stroke-width: 1.0;" width="6" x="46.5" y="306.8047"/><text fill="#000000" font-family="sans-serif" font-size="11" lengthAdjust="spacingAndGlyphs" textLength="86" x="58.5" y="313.0151">TrackData data</text><rect fill="none" height="6" style="stroke: #C82930; stroke-width: 1.0;" width="6" x="46.5" y="319.6094"/><text fill="#000000" font-family="sans-serif" font-size="11" lengthAdjust="spacingAndGlyphs" textLength="135" x="58.5" y="325.8198">TrackDataPlotter plotter</text><line style="stroke: #A80036; stroke-width: 1.5;" x1="39.5" x2="406.5" y1="332.4141" y2="332.4141"/><ellipse cx="49.5" cy="343.4141" fill="#84BE84" rx="3" ry="3" style="stroke: #038048; stroke-width: 1.0;"/><text fill="#000000" font-family="sans-serif" font-size="11" lengthAdjust="spacingAndGlyphs" textLength="343" x="58.5" y="346.6245">DisplayCommInterface(DisplayComm2WayInterface receiver)</text><ellipse cx="49.5" cy="373.0234" fill="#84BE84" rx="3" ry="3" style="stroke: #038048; stroke-width: 1.0;"/><text fill="#000000" font-family="sans-serif" font-size="11" lengthAdjust="spacingAndGlyphs" textLength="240" x="58.5" y="376.2339">TrackData receiveRfidRequest(int rfidNum)</text><text fill="#000000" font-family="sans-serif" font-size="11" lengthAdjust="spacingAndGlyphs" textLength="0" x="62.5" y="389.0386"/><line style="stroke: #A80036; stroke-width: 1.0; stroke-dasharray: 1.0,2.0;" x1="39.5" x2="190" y1="359.6211" y2="359.6211"/><text fill="#000000" font-family="sans-serif" font-size="11" lengthAdjust="spacingAndGlyphs" textLength="66" x="190" y="362.9292">Use Case 1</text><line style="stroke: #A80036; stroke-width: 1.0; stroke-dasharray: 1.0,2.0;" x1="256" x2="406.5" y1="359.6211" y2="359.6211"/><!--MD5=[46657c2900260d4d40350fe3f8c544df]
class DisplayComm2WayInterfaceImplementation--><rect fill="#FEFECE" filter="url(#f63hcs60x16pd)" height="103.2188" id="DisplayComm2WayInterfaceImplementation" style="stroke: #A80036; stroke-width: 1.5;" width="461" x="442.5" y="273.5"/><ellipse cx="534.75" cy="289.5" fill="#ADD1B2" rx="11" ry="11" style="stroke: #A80036; stroke-width: 1.0;"/><path d="M537.7188,295.1406 Q537.1406,295.4375 536.5,295.5781 Q535.8594,295.7344 535.1563,295.7344 Q532.6563,295.7344 531.3281,294.0938 Q530.0156,292.4375 530.0156,289.3125 Q530.0156,286.1875 531.3281,284.5313 Q532.6563,282.875 535.1563,282.875 Q535.8594,282.875 536.5,283.0313 Q537.1563,283.1875 537.7188,283.4844 L537.7188,286.2031 Q537.0938,285.625 536.5,285.3594 Q535.9063,285.0781 535.2813,285.0781 Q533.9375,285.0781 533.25,286.1563 Q532.5625,287.2188 532.5625,289.3125 Q532.5625,291.4063 533.25,292.4844 Q533.9375,293.5469 535.2813,293.5469 Q535.9063,293.5469 536.5,293.2813 Q537.0938,293 537.7188,292.4219 L537.7188,295.1406 Z "/><text fill="#000000" font-family="sans-serif" font-size="12" lengthAdjust="spacingAndGlyphs" textLength="268" x="555.25" y="293.6543">DisplayComm2WayInterfaceImplementation</text><line style="stroke: #A80036; stroke-width: 1.5;" x1="443.5" x2="902.5" y1="305.5" y2="305.5"/><rect fill="none" height="6" style="stroke: #C82930; stroke-width: 1.0;" width="6" x="450.5" y="313.5"/><text fill="#000000" font-family="sans-serif" font-size="11" lengthAdjust="spacingAndGlyphs" textLength="182" x="462.5" y="319.7104">DisplayCommManager manager</text><line style="stroke: #A80036; stroke-width: 1.5;" x1="443.5" x2="902.5" y1="326.3047" y2="326.3047"/><ellipse cx="453.5" cy="337.3047" fill="#84BE84" rx="3" ry="3" style="stroke: #038048; stroke-width: 1.0;"/><text fill="#000000" font-family="sans-serif" font-size="11" lengthAdjust="spacingAndGlyphs" textLength="435" x="462.5" y="340.5151">DisplayComm2WayInterfaceImplementation(DisplayCommManager manager)</text><ellipse cx="453.5" cy="366.9141" fill="#84BE84" rx="3" ry="3" style="stroke: #038048; stroke-width: 1.0;"/><text fill="#000000" font-family="sans-serif" font-size="11" lengthAdjust="spacingAndGlyphs" textLength="227" x="462.5" y="370.1245">TrackData passRfidRequest(int rfidNum)</text><line style="stroke: #A80036; stroke-width: 1.0; stroke-dasharray: 1.0,2.0;" x1="443.5" x2="640" y1="353.5117" y2="353.5117"/><text fill="#000000" font-family="sans-serif" font-size="11" lengthAdjust="spacingAndGlyphs" textLength="66" x="640" y="356.8198">Use Case 1</text><line style="stroke: #A80036; stroke-width: 1.0; stroke-dasharray: 1.0,2.0;" x1="706" x2="902.5" y1="353.5117" y2="353.5117"/><!--MD5=[3a27b63ddb357afc5dde5581215f51f9]
class DisplayCommManagerImplementation--><rect fill="#FEFECE" filter="url(#f63hcs60x16pd)" height="103.2188" id="DisplayCommManagerImplementation" style="stroke: #A80036; stroke-width: 1.5;" width="470" x="939" y="273.5"/><ellipse cx="1052.75" cy="289.5" fill="#ADD1B2" rx="11" ry="11" style="stroke: #A80036; stroke-width: 1.0;"/><path d="M1055.7188,295.1406 Q1055.1406,295.4375 1054.5,295.5781 Q1053.8594,295.7344 1053.1563,295.7344 Q1050.6563,295.7344 1049.3281,294.0938 Q1048.0156,292.4375 1048.0156,289.3125 Q1048.0156,286.1875 1049.3281,284.5313 Q1050.6563,282.875 1053.1563,282.875 Q1053.8594,282.875 1054.5,283.0313 Q1055.1563,283.1875 1055.7188,283.4844 L1055.7188,286.2031 Q1055.0938,285.625 1054.5,285.3594 Q1053.9063,285.0781 1053.2813,285.0781 Q1051.9375,285.0781 1051.25,286.1563 Q1050.5625,287.2188 1050.5625,289.3125 Q1050.5625,291.4063 1051.25,292.4844 Q1051.9375,293.5469 1053.2813,293.5469 Q1053.9063,293.5469 1054.5,293.2813 Q1055.0938,293 1055.7188,292.4219 L1055.7188,295.1406 Z "/><text fill="#000000" font-family="sans-serif" font-size="12" lengthAdjust="spacingAndGlyphs" textLength="234" x="1073.25" y="293.6543">DisplayCommManagerImplementation</text><line style="stroke: #A80036; stroke-width: 1.5;" x1="940" x2="1408" y1="305.5" y2="305.5"/><rect fill="none" height="6" style="stroke: #C82930; stroke-width: 1.0;" width="6" x="947" y="313.5"/><text fill="#000000" font-family="sans-serif" font-size="11" lengthAdjust="spacingAndGlyphs" textLength="221" x="959" y="319.7104">MiddlewareCommInterface middleware</text><line style="stroke: #A80036; stroke-width: 1.5;" x1="940" x2="1408" y1="326.3047" y2="326.3047"/><ellipse cx="950" cy="337.3047" fill="#84BE84" rx="3" ry="3" style="stroke: #038048; stroke-width: 1.0;"/><text fill="#000000" font-family="sans-serif" font-size="11" lengthAdjust="spacingAndGlyphs" textLength="444" x="959" y="340.5151">DisplayCommManagerImplementation(MiddlewareCommInterface middleware)</text><ellipse cx="950" cy="366.9141" fill="#84BE84" rx="3" ry="3" style="stroke: #038048; stroke-width: 1.0;"/><text fill="#000000" font-family="sans-serif" font-size="11" lengthAdjust="spacingAndGlyphs" textLength="221" x="959" y="370.1245">TrackData evaluateRfidRequest(int rfid)</text><line style="stroke: #A80036; stroke-width: 1.0; stroke-dasharray: 1.0,2.0;" x1="940" x2="1141" y1="353.5117" y2="353.5117"/><text fill="#000000" font-family="sans-serif" font-size="11" lengthAdjust="spacingAndGlyphs" textLength="66" x="1141" y="356.8198">Use Case 1</text><line style="stroke: #A80036; stroke-width: 1.0; stroke-dasharray: 1.0,2.0;" x1="1207" x2="1408" y1="353.5117" y2="353.5117"/><!--MD5=[d454b7777f115113290d89683d7a426c]
class DisplayCommInterfaceImplementationTests--><rect fill="#FEFECE" filter="url(#f63hcs60x16pd)" height="73.6094" id="DisplayCommInterfaceImplementationTests" style="stroke: #A80036; stroke-width: 1.5;" width="301" x="1465.5" y="65"/><ellipse cx="1480.5" cy="81" fill="#ADD1B2" rx="11" ry="11" style="stroke: #A80036; stroke-width: 1.0;"/><path d="M1483.4688,86.6406 Q1482.8906,86.9375 1482.25,87.0781 Q1481.6094,87.2344 1480.9063,87.2344 Q1478.4063,87.2344 1477.0781,85.5938 Q1475.7656,83.9375 1475.7656,80.8125 Q1475.7656,77.6875 1477.0781,76.0313 Q1478.4063,74.375 1480.9063,74.375 Q1481.6094,74.375 1482.25,74.5313 Q1482.9063,74.6875 1483.4688,74.9844 L1483.4688,77.7031 Q1482.8438,77.125 1482.25,76.8594 Q1481.6563,76.5781 1481.0313,76.5781 Q1479.6875,76.5781 1479,77.6563 Q1478.3125,78.7188 1478.3125,80.8125 Q1478.3125,82.9063 1479,83.9844 Q1479.6875,85.0469 1481.0313,85.0469 Q1481.6563,85.0469 1482.25,84.7813 Q1482.8438,84.5 1483.4688,83.9219 L1483.4688,86.6406 Z "/><text fill="#000000" font-family="sans-serif" font-size="12" lengthAdjust="spacingAndGlyphs" textLength="269" x="1494.5" y="85.1543">DisplayCommInterfaceImplementationTests</text><line style="stroke: #A80036; stroke-width: 1.5;" x1="1466.5" x2="1765.5" y1="97" y2="97"/><line style="stroke: #A80036; stroke-width: 1.5;" x1="1466.5" x2="1765.5" y1="105" y2="105"/><ellipse cx="1476.5" cy="116" fill="#84BE84" rx="3" ry="3" style="stroke: #038048; stroke-width: 1.0;"/><text fill="#000000" font-family="sans-serif" font-size="11" lengthAdjust="spacingAndGlyphs" textLength="191" x="1485.5" y="119.2104">void displayComm2WayIsNotNull()</text><ellipse cx="1476.5" cy="128.8047" fill="#84BE84" rx="3" ry="3" style="stroke: #038048; stroke-width: 1.0;"/><text fill="#000000" font-family="sans-serif" font-size="11" lengthAdjust="spacingAndGlyphs" textLength="115" x="1485.5" y="132.0151">void rfidInIsRfidOut()</text><!--MD5=[a333ac13e0fdf2a5898aafabd38d3c1b]
class DisplayComm2WayInterfaceStub--><rect fill="#FEFECE" filter="url(#f63hcs60x16pd)" height="77.6094" id="DisplayComm2WayInterfaceStub" style="stroke: #A80036; stroke-width: 1.5;" width="252" x="1478" y="286"/><ellipse cx="1502" cy="302" fill="#ADD1B2" rx="11" ry="11" style="stroke: #A80036; stroke-width: 1.0;"/><path d="M1504.9688,307.6406 Q1504.3906,307.9375 1503.75,308.0781 Q1503.1094,308.2344 1502.4063,308.2344 Q1499.9063,308.2344 1498.5781,306.5938 Q1497.2656,304.9375 1497.2656,301.8125 Q1497.2656,298.6875 1498.5781,297.0313 Q1499.9063,295.375 1502.4063,295.375 Q1503.1094,295.375 1503.75,295.5313 Q1504.4063,295.6875 1504.9688,295.9844 L1504.9688,298.7031 Q1504.3438,298.125 1503.75,297.8594 Q1503.1563,297.5781 1502.5313,297.5781 Q1501.1875,297.5781 1500.5,298.6563 Q1499.8125,299.7188 1499.8125,301.8125 Q1499.8125,303.9063 1500.5,304.9844 Q1501.1875,306.0469 1502.5313,306.0469 Q1503.1563,306.0469 1503.75,305.7813 Q1504.3438,305.5 1504.9688,304.9219 L1504.9688,307.6406 Z "/><text fill="#000000" font-family="sans-serif" font-size="12" lengthAdjust="spacingAndGlyphs" textLength="200" x="1518" y="306.1543">DisplayComm2WayInterfaceStub</text><line style="stroke: #A80036; stroke-width: 1.5;" x1="1479" x2="1729" y1="318" y2="318"/><line style="stroke: #A80036; stroke-width: 1.5;" x1="1479" x2="1729" y1="326" y2="326"/><ellipse cx="1489" cy="353.8047" fill="#84BE84" rx="3" ry="3" style="stroke: #038048; stroke-width: 1.0;"/><text fill="#000000" font-family="sans-serif" font-size="11" font-style="italic" lengthAdjust="spacingAndGlyphs" textLength="226" x="1498" y="357.0151">TrackData passRfidRequest(int rfidNum)</text><line style="stroke: #A80036; stroke-width: 1.0; stroke-dasharray: 1.0,2.0;" x1="1479" x2="1571" y1="340.4023" y2="340.4023"/><text fill="#000000" font-family="sans-serif" font-size="11" lengthAdjust="spacingAndGlyphs" textLength="66" x="1571" y="343.7104">Use Case 1</text><line style="stroke: #A80036; stroke-width: 1.0; stroke-dasharray: 1.0,2.0;" x1="1637" x2="1729" y1="340.4023" y2="340.4023"/><!--MD5=[178181f4c7684560c711246055fc01d3]
class DisplayComm2WayInterfaceImplementationTests--><rect fill="#FEFECE" filter="url(#f63hcs60x16pd)" height="73.6094" id="DisplayComm2WayInterfaceImplementationTests" style="stroke: #A80036; stroke-width: 1.5;" width="334" x="1802" y="65"/><ellipse cx="1817" cy="81" fill="#ADD1B2" rx="11" ry="11" style="stroke: #A80036; stroke-width: 1.0;"/><path d="M1819.9688,86.6406 Q1819.3906,86.9375 1818.75,87.0781 Q1818.1094,87.2344 1817.4063,87.2344 Q1814.9063,87.2344 1813.5781,85.5938 Q1812.2656,83.9375 1812.2656,80.8125 Q1812.2656,77.6875 1813.5781,76.0313 Q1814.9063,74.375 1817.4063,74.375 Q1818.1094,74.375 1818.75,74.5313 Q1819.4063,74.6875 1819.9688,74.9844 L1819.9688,77.7031 Q1819.3438,77.125 1818.75,76.8594 Q1818.1563,76.5781 1817.5313,76.5781 Q1816.1875,76.5781 1815.5,77.6563 Q1814.8125,78.7188 1814.8125,80.8125 Q1814.8125,82.9063 1815.5,83.9844 Q1816.1875,85.0469 1817.5313,85.0469 Q1818.1563,85.0469 1818.75,84.7813 Q1819.3438,84.5 1819.9688,83.9219 L1819.9688,86.6406 Z "/><text fill="#000000" font-family="sans-serif" font-size="12" lengthAdjust="spacingAndGlyphs" textLength="302" x="1831" y="85.1543">DisplayComm2WayInterfaceImplementationTests</text><line style="stroke: #A80036; stroke-width: 1.5;" x1="1803" x2="2135" y1="97" y2="97"/><line style="stroke: #A80036; stroke-width: 1.5;" x1="1803" x2="2135" y1="105" y2="105"/><ellipse cx="1813" cy="116" fill="#84BE84" rx="3" ry="3" style="stroke: #038048; stroke-width: 1.0;"/><text fill="#000000" font-family="sans-serif" font-size="11" lengthAdjust="spacingAndGlyphs" textLength="115" x="1822" y="119.2104">void rfidInIsRfidOut()</text><ellipse cx="1813" cy="128.8047" fill="#84BE84" rx="3" ry="3" style="stroke: #038048; stroke-width: 1.0;"/><text fill="#000000" font-family="sans-serif" font-size="11" lengthAdjust="spacingAndGlyphs" textLength="211" x="1822" y="132.0151">void displayCommManagerIsNotNull()</text><!--MD5=[2970358178d6cf57fc5a801b39eb8d0b]
class DisplayCommManagerStub--><rect fill="#FEFECE" filter="url(#f63hcs60x16pd)" height="77.6094" id="DisplayCommManagerStub" style="stroke: #A80036; stroke-width: 1.5;" width="273" x="1799.5" y="286"/><ellipse cx="1848.75" cy="302" fill="#ADD1B2" rx="11" ry="11" style="stroke: #A80036; stroke-width: 1.0;"/><path d="M1851.7188,307.6406 Q1851.1406,307.9375 1850.5,308.0781 Q1849.8594,308.2344 1849.1563,308.2344 Q1846.6563,308.2344 1845.3281,306.5938 Q1844.0156,304.9375 1844.0156,301.8125 Q1844.0156,298.6875 1845.3281,297.0313 Q1846.6563,295.375 1849.1563,295.375 Q1849.8594,295.375 1850.5,295.5313 Q1851.1563,295.6875 1851.7188,295.9844 L1851.7188,298.7031 Q1851.0938,298.125 1850.5,297.8594 Q1849.9063,297.5781 1849.2813,297.5781 Q1847.9375,297.5781 1847.25,298.6563 Q1846.5625,299.7188 1846.5625,301.8125 Q1846.5625,303.9063 1847.25,304.9844 Q1847.9375,306.0469 1849.2813,306.0469 Q1849.9063,306.0469 1850.5,305.7813 Q1851.0938,305.5 1851.7188,304.9219 L1851.7188,307.6406 Z "/><text fill="#000000" font-family="sans-serif" font-size="12" lengthAdjust="spacingAndGlyphs" textLength="166" x="1869.25" y="306.1543">DisplayCommManagerStub</text><line style="stroke: #A80036; stroke-width: 1.5;" x1="1800.5" x2="2071.5" y1="318" y2="318"/><line style="stroke: #A80036; stroke-width: 1.5;" x1="1800.5" x2="2071.5" y1="326" y2="326"/><ellipse cx="1810.5" cy="353.8047" fill="#84BE84" rx="3" ry="3" style="stroke: #038048; stroke-width: 1.0;"/><text fill="#000000" font-family="sans-serif" font-size="11" lengthAdjust="spacingAndGlyphs" textLength="247" x="1819.5" y="357.0151">TrackData evaluateRfidRequest(int rfidNum)</text><line style="stroke: #A80036; stroke-width: 1.0; stroke-dasharray: 1.0,2.0;" x1="1800.5" x2="1903" y1="340.4023" y2="340.4023"/><text fill="#000000" font-family="sans-serif" font-size="11" lengthAdjust="spacingAndGlyphs" textLength="66" x="1903" y="343.7104">Use Case 1</text><line style="stroke: #A80036; stroke-width: 1.0; stroke-dasharray: 1.0,2.0;" x1="1969" x2="2071.5" y1="340.4023" y2="340.4023"/><!--MD5=[937d6d8ff87a99d0d5dcd66ee05a1fa4]
class DisplayCommManagerImplementationTests--><rect fill="#FEFECE" filter="url(#f63hcs60x16pd)" height="86.4141" id="DisplayCommManagerImplementationTests" style="stroke: #A80036; stroke-width: 1.5;" width="300" x="2171" y="59"/><ellipse cx="2186" cy="75" fill="#ADD1B2" rx="11" ry="11" style="stroke: #A80036; stroke-width: 1.0;"/><path d="M2188.9688,80.6406 Q2188.3906,80.9375 2187.75,81.0781 Q2187.1094,81.2344 2186.4063,81.2344 Q2183.9063,81.2344 2182.5781,79.5938 Q2181.2656,77.9375 2181.2656,74.8125 Q2181.2656,71.6875 2182.5781,70.0313 Q2183.9063,68.375 2186.4063,68.375 Q2187.1094,68.375 2187.75,68.5313 Q2188.4063,68.6875 2188.9688,68.9844 L2188.9688,71.7031 Q2188.3438,71.125 2187.75,70.8594 Q2187.1563,70.5781 2186.5313,70.5781 Q2185.1875,70.5781 2184.5,71.6563 Q2183.8125,72.7188 2183.8125,74.8125 Q2183.8125,76.9063 2184.5,77.9844 Q2185.1875,79.0469 2186.5313,79.0469 Q2187.1563,79.0469 2187.75,78.7813 Q2188.3438,78.5 2188.9688,77.9219 L2188.9688,80.6406 Z "/><text fill="#000000" font-family="sans-serif" font-size="12" lengthAdjust="spacingAndGlyphs" textLength="268" x="2200" y="79.1543">DisplayCommManagerImplementationTests</text><line style="stroke: #A80036; stroke-width: 1.5;" x1="2172" x2="2470" y1="91" y2="91"/><line style="stroke: #A80036; stroke-width: 1.5;" x1="2172" x2="2470" y1="99" y2="99"/><ellipse cx="2182" cy="110" fill="#84BE84" rx="3" ry="3" style="stroke: #038048; stroke-width: 1.0;"/><text fill="#000000" font-family="sans-serif" font-size="11" lengthAdjust="spacingAndGlyphs" textLength="115" x="2191" y="113.2104">void rfidInIsRfidOut()</text><ellipse cx="2182" cy="122.8047" fill="#84BE84" rx="3" ry="3" style="stroke: #038048; stroke-width: 1.0;"/><text fill="#000000" font-family="sans-serif" font-size="11" lengthAdjust="spacingAndGlyphs" textLength="151" x="2191" y="126.0151">void middlewareIsNotNull()</text><rect fill="#F24D5C" height="6" style="stroke: #C82930; stroke-width: 1.0;" width="6" x="2179" y="132.6094"/><text fill="#000000" font-family="sans-serif" font-size="11" lengthAdjust="spacingAndGlyphs" textLength="144" x="2191" y="138.8198">int generateRandomRfid()</text><!--MD5=[cf56a65163663c6c6c7b84cd7c204b97]
class MiddlewareCommInterfaceStub--><rect fill="#FEFECE" filter="url(#f63hcs60x16pd)" height="77.6094" id="MiddlewareCommInterfaceStub" style="stroke: #A80036; stroke-width: 1.5;" width="225" x="2352.5" y="286"/><ellipse cx="2367.5" cy="302" fill="#ADD1B2" rx="11" ry="11" style="stroke: #A80036; stroke-width: 1.0;"/><path d="M2370.4688,307.6406 Q2369.8906,307.9375 2369.25,308.0781 Q2368.6094,308.2344 2367.9063,308.2344 Q2365.4063,308.2344 2364.0781,306.5938 Q2362.7656,304.9375 2362.7656,301.8125 Q2362.7656,298.6875 2364.0781,297.0313 Q2365.4063,295.375 2367.9063,295.375 Q2368.6094,295.375 2369.25,295.5313 Q2369.9063,295.6875 2370.4688,295.9844 L2370.4688,298.7031 Q2369.8438,298.125 2369.25,297.8594 Q2368.6563,297.5781 2368.0313,297.5781 Q2366.6875,297.5781 2366,298.6563 Q2365.3125,299.7188 2365.3125,301.8125 Q2365.3125,303.9063 2366,304.9844 Q2366.6875,306.0469 2368.0313,306.0469 Q2368.6563,306.0469 2369.25,305.7813 Q2369.8438,305.5 2370.4688,304.9219 L2370.4688,307.6406 Z "/><text fill="#000000" font-family="sans-serif" font-size="12" lengthAdjust="spacingAndGlyphs" textLength="193" x="2381.5" y="306.1543">MiddlewareCommInterfaceStub</text><line style="stroke: #A80036; stroke-width: 1.5;" x1="2353.5" x2="2576.5" y1="318" y2="318"/><line style="stroke: #A80036; stroke-width: 1.5;" x1="2353.5" x2="2576.5" y1="326" y2="326"/><ellipse cx="2363.5" cy="353.8047" fill="#84BE84" rx="3" ry="3" style="stroke: #038048; stroke-width: 1.0;"/><text fill="#000000" font-family="sans-serif" font-size="11" lengthAdjust="spacingAndGlyphs" textLength="171" x="2372.5" y="357.0151">TrackData requestRfid(int rfid)</text><line style="stroke: #A80036; stroke-width: 1.0; stroke-dasharray: 1.0,2.0;" x1="2353.5" x2="2432" y1="340.4023" y2="340.4023"/><text fill="#000000" font-family="sans-serif" font-size="11" lengthAdjust="spacingAndGlyphs" textLength="66" x="2432" y="343.7104">Use Case 1</text><line style="stroke: #A80036; stroke-width: 1.0; stroke-dasharray: 1.0,2.0;" x1="2498" x2="2576.5" y1="340.4023" y2="340.4023"/><!--MD5=[930c8140e7c1cb8e71aa7cd49967748e]
class TrackDataPlotterTests--><rect fill="#FEFECE" filter="url(#f63hcs60x16pd)" height="86.4141" id="TrackDataPlotterTests" style="stroke: #A80036; stroke-width: 1.5;" width="216" x="2506" y="59"/><ellipse cx="2540.8" cy="75" fill="#ADD1B2" rx="11" ry="11" style="stroke: #A80036; stroke-width: 1.0;"/><path d="M2543.7688,80.6406 Q2543.1906,80.9375 2542.55,81.0781 Q2541.9094,81.2344 2541.2063,81.2344 Q2538.7063,81.2344 2537.3781,79.5938 Q2536.0656,77.9375 2536.0656,74.8125 Q2536.0656,71.6875 2537.3781,70.0313 Q2538.7063,68.375 2541.2063,68.375 Q2541.9094,68.375 2542.55,68.5313 Q2543.2063,68.6875 2543.7688,68.9844 L2543.7688,71.7031 Q2543.1438,71.125 2542.55,70.8594 Q2541.9563,70.5781 2541.3313,70.5781 Q2539.9875,70.5781 2539.3,71.6563 Q2538.6125,72.7188 2538.6125,74.8125 Q2538.6125,76.9063 2539.3,77.9844 Q2539.9875,79.0469 2541.3313,79.0469 Q2541.9563,79.0469 2542.55,78.7813 Q2543.1438,78.5 2543.7688,77.9219 L2543.7688,80.6406 Z "/><text fill="#000000" font-family="sans-serif" font-size="12" lengthAdjust="spacingAndGlyphs" textLength="140" x="2559.2" y="79.1543">TrackDataPlotterTests</text><line style="stroke: #A80036; stroke-width: 1.5;" x1="2507" x2="2721" y1="91" y2="91"/><line style="stroke: #A80036; stroke-width: 1.5;" x1="2507" x2="2721" y1="99" y2="99"/><ellipse cx="2517" cy="110" fill="#84BE84" rx="3" ry="3" style="stroke: #038048; stroke-width: 1.0;"/><text fill="#000000" font-family="sans-serif" font-size="11" lengthAdjust="spacingAndGlyphs" textLength="121" x="2526" y="113.2104">void plotIsDisplayed()</text><ellipse cx="2517" cy="122.8047" fill="#84BE84" rx="3" ry="3" style="stroke: #038048; stroke-width: 1.0;"/><text fill="#000000" font-family="sans-serif" font-size="11" lengthAdjust="spacingAndGlyphs" textLength="174" x="2526" y="126.0151">void nullTrackDataNotAllowed()</text><ellipse cx="2517" cy="135.6094" fill="#84BE84" rx="3" ry="3" style="stroke: #038048; stroke-width: 1.0;"/><text fill="#000000" font-family="sans-serif" font-size="11" lengthAdjust="spacingAndGlyphs" textLength="190" x="2526" y="138.8198">void invalidTrackDataNotAllowed()</text><!--MD5=[d3cb230b9040bd9072bb1f490e167601]
class MiddlewareCommInterface--><rect fill="#FEFECE" filter="url(#f63hcs60x16pd)" height="77.6094" id="MiddlewareCommInterface" style="stroke: #A80036; stroke-width: 1.5;" width="198" x="2778" y="63"/><ellipse cx="2793" cy="79" fill="#B4A7E5" rx="11" ry="11" style="stroke: #A80036; stroke-width: 1.0;"/><path d="M2788.9219,74.7656 L2788.9219,72.6094 L2796.3125,72.6094 L2796.3125,74.7656 L2793.8438,74.7656 L2793.8438,82.8438 L2796.3125,82.8438 L2796.3125,85 L2788.9219,85 L2788.9219,82.8438 L2791.3906,82.8438 L2791.3906,74.7656 L2788.9219,74.7656 Z "/><text fill="#000000" font-family="sans-serif" font-size="12" font-style="italic" lengthAdjust="spacingAndGlyphs" textLength="166" x="2807" y="83.1543">MiddlewareCommInterface</text><line style="stroke: #A80036; stroke-width: 1.5;" x1="2779" x2="2975" y1="95" y2="95"/><line style="stroke: #A80036; stroke-width: 1.5;" x1="2779" x2="2975" y1="103" y2="103"/><ellipse cx="2789" cy="130.8047" fill="#84BE84" rx="3" ry="3" style="stroke: #038048; stroke-width: 1.0;"/><text fill="#000000" font-family="sans-serif" font-size="11" font-style="italic" lengthAdjust="spacingAndGlyphs" textLength="171" x="2798" y="134.0151">TrackData requestRfid(int rfid)</text><line style="stroke: #A80036; stroke-width: 1.0; stroke-dasharray: 1.0,2.0;" x1="2779" x2="2844" y1="117.4023" y2="117.4023"/><text fill="#000000" font-family="sans-serif" font-size="11" lengthAdjust="spacingAndGlyphs" textLength="66" x="2844" y="120.7104">Use Case 1</text><line style="stroke: #A80036; stroke-width: 1.0; stroke-dasharray: 1.0,2.0;" x1="2910" x2="2975" y1="117.4023" y2="117.4023"/><!--MD5=[c986427b061286eff33e87a088ad4bf9]
class TrackDataPlotter--><rect fill="#FEFECE" filter="url(#f63hcs60x16pd)" height="218.4609" id="TrackDataPlotter" style="stroke: #A80036; stroke-width: 1.5;" width="302" x="2778" y="216"/><ellipse cx="2871.75" cy="232" fill="#ADD1B2" rx="11" ry="11" style="stroke: #A80036; stroke-width: 1.0;"/><path d="M2874.7188,237.6406 Q2874.1406,237.9375 2873.5,238.0781 Q2872.8594,238.2344 2872.1563,238.2344 Q2869.6563,238.2344 2868.3281,236.5938 Q2867.0156,234.9375 2867.0156,231.8125 Q2867.0156,228.6875 2868.3281,227.0313 Q2869.6563,225.375 2872.1563,225.375 Q2872.8594,225.375 2873.5,225.5313 Q2874.1563,225.6875 2874.7188,225.9844 L2874.7188,228.7031 Q2874.0938,228.125 2873.5,227.8594 Q2872.9063,227.5781 2872.2813,227.5781 Q2870.9375,227.5781 2870.25,228.6563 Q2869.5625,229.7188 2869.5625,231.8125 Q2869.5625,233.9063 2870.25,234.9844 Q2870.9375,236.0469 2872.2813,236.0469 Q2872.9063,236.0469 2873.5,235.7813 Q2874.0938,235.5 2874.7188,234.9219 L2874.7188,237.6406 Z "/><text fill="#000000" font-family="sans-serif" font-size="12" lengthAdjust="spacingAndGlyphs" textLength="106" x="2892.25" y="236.1543">TrackDataPlotter</text><line style="stroke: #A80036; stroke-width: 1.5;" x1="2779" x2="3079" y1="248" y2="248"/><rect fill="none" height="6" style="stroke: #C82930; stroke-width: 1.0;" width="6" x="2786" y="256"/><text fill="#000000" font-family="sans-serif" font-size="11" lengthAdjust="spacingAndGlyphs" textLength="86" x="2798" y="262.2104">TrackData data</text><rect fill="none" height="6" style="stroke: #C82930; stroke-width: 1.0;" width="6" x="2786" y="268.8047"/><text fill="#000000" font-family="sans-serif" font-size="11" lengthAdjust="spacingAndGlyphs" textLength="90" x="2798" y="275.0151">XYSeries points</text><rect fill="none" height="6" style="stroke: #C82930; stroke-width: 1.0;" width="6" x="2786" y="281.6094"/><text fill="#000000" font-family="sans-serif" font-size="11" lengthAdjust="spacingAndGlyphs" textLength="89" x="2798" y="287.8198">XYSeries fitLine</text><rect fill="none" height="6" style="stroke: #C82930; stroke-width: 1.0;" width="6" x="2786" y="294.4141"/><text fill="#000000" font-family="sans-serif" font-size="11" lengthAdjust="spacingAndGlyphs" textLength="92" x="2798" y="300.6245">JFreeChart chart</text><line style="stroke: #A80036; stroke-width: 1.5;" x1="2779" x2="3079" y1="307.2188" y2="307.2188"/><ellipse cx="2789" cy="318.2188" fill="#84BE84" rx="3" ry="3" style="stroke: #038048; stroke-width: 1.0;"/><text fill="#000000" font-family="sans-serif" font-size="11" lengthAdjust="spacingAndGlyphs" textLength="188" x="2798" y="321.4292">TrackDataPlotter(TrackData data)</text><ellipse cx="2789" cy="347.8281" fill="#84BE84" rx="3" ry="3" style="stroke: #038048; stroke-width: 1.0;"/><text fill="#000000" font-family="sans-serif" font-size="11" lengthAdjust="spacingAndGlyphs" textLength="106" x="2798" y="351.0386">void displayChart()</text><ellipse cx="2789" cy="360.6328" fill="#84BE84" rx="3" ry="3" style="stroke: #038048; stroke-width: 1.0;"/><text fill="#000000" font-family="sans-serif" font-size="11" lengthAdjust="spacingAndGlyphs" textLength="154" x="2798" y="363.8433">boolean getDisplayeChart()</text><rect fill="#F24D5C" height="6" style="stroke: #C82930; stroke-width: 1.0;" width="6" x="2786" y="370.4375"/><text fill="#000000" font-family="sans-serif" font-size="11" lengthAdjust="spacingAndGlyphs" textLength="138" x="2798" y="376.6479">XYSeries getTrackData()</text><rect fill="#F24D5C" height="6" style="stroke: #C82930; stroke-width: 1.0;" width="6" x="2786" y="383.2422"/><text fill="#000000" font-family="sans-serif" font-size="11" lengthAdjust="spacingAndGlyphs" textLength="208" x="2798" y="389.4526">XYSeries calculateLine(int[] x, int[] y)</text><rect fill="#F24D5C" height="6" style="stroke: #C82930; stroke-width: 1.0;" width="6" x="2786" y="396.0469"/><text fill="#000000" font-family="sans-serif" font-size="11" lengthAdjust="spacingAndGlyphs" textLength="273" x="2798" y="402.2573">float[] extractLatFromTrackData(TrackData data)</text><rect fill="#F24D5C" height="6" style="stroke: #C82930; stroke-width: 1.0;" width="6" x="2786" y="408.8516"/><text fill="#000000" font-family="sans-serif" font-size="11" lengthAdjust="spacingAndGlyphs" textLength="276" x="2798" y="415.062">float[] extractLngFromTrackData(TrackData data)</text><rect fill="#F24D5C" height="6" style="stroke: #C82930; stroke-width: 1.0;" width="6" x="2786" y="421.6563"/><text fill="#000000" font-family="sans-serif" font-size="11" lengthAdjust="spacingAndGlyphs" textLength="138" x="2798" y="427.8667">JFreeChart createChart()</text><line style="stroke: #A80036; stroke-width: 1.0; stroke-dasharray: 1.0,2.0;" x1="2779" x2="2896" y1="334.4258" y2="334.4258"/><text fill="#000000" font-family="sans-serif" font-size="11" lengthAdjust="spacingAndGlyphs" textLength="66" x="2896" y="337.7339">Use Case 1</text><line style="stroke: #A80036; stroke-width: 1.0; stroke-dasharray: 1.0,2.0;" x1="2962" x2="3079" y1="334.4258" y2="334.4258"/><!--MD5=[77bc37423dd8876786830fad4054e33b]
reverse link DisplayCommInterface to DisplayCommInterfaceImplementation--><path d="M223,161.55 C223,189.83 223,223.99 223,253.67 " fill="none" id="DisplayCommInterface&lt;-DisplayCommInterfaceImplementation" style="stroke: #A80036; stroke-width: 1.0; stroke-dasharray: 7.0,7.0;"/><polygon fill="none" points="216,161.24,223,141.24,230,161.24,216,161.24" style="stroke: #A80036; stroke-width: 1.0;"/><!--MD5=[4e991cf787e933c55089f97eae394828]
reverse link DisplayComm2WayInterface to DisplayComm2WayInterfaceImplementation--><path d="M774,158.66 C752.46,193.91 724.83,239.15 703.92,273.39 " fill="none" id="DisplayComm2WayInterface&lt;-DisplayComm2WayInterfaceImplementation" style="stroke: #A80036; stroke-width: 1.0; stroke-dasharray: 7.0,7.0;"/><polygon fill="none" points="768.24,154.66,784.64,141.24,780.19,161.96,768.24,154.66" style="stroke: #A80036; stroke-width: 1.0;"/><!--MD5=[5beed6c3c7e4a84a4bfaa95bdf8cce79]
reverse link DisplayCommManager to DisplayCommManagerImplementation--><path d="M1214.54,161.1 C1205.86,195.98 1194.92,239.93 1186.6,273.39 " fill="none" id="DisplayCommManager&lt;-DisplayCommManagerImplementation" style="stroke: #A80036; stroke-width: 1.0; stroke-dasharray: 7.0,7.0;"/><polygon fill="none" points="1207.86,158.96,1219.48,141.24,1221.45,162.34,1207.86,158.96" style="stroke: #A80036; stroke-width: 1.0;"/><!--MD5=[6aaeadb42451b39b4e2cdcf83e2bb4cd]
reverse link DisplayComm2WayInterface to DisplayComm2WayInterfaceStub--><path d="M953.77,141.02 C996.42,150.61 1043.32,159.68 1087,165 C1124.29,169.54 1389.87,159.69 1425,173 C1485.83,196.05 1540.54,249.27 1573.03,285.95 " fill="none" id="DisplayComm2WayInterface&lt;-DisplayComm2WayInterfaceStub" style="stroke: #A80036; stroke-width: 1.0; stroke-dasharray: 7.0,7.0;"/><polygon fill="none" points="952.1,147.82,934.18,136.51,955.24,134.17,952.1,147.82" style="stroke: #A80036; stroke-width: 1.0;"/><!--MD5=[9a02b467888c5123255f55ebe5217d7a]
link DisplayCommInterfaceImplementationTests to DisplayComm2WayInterfaceStub--><path d="M1614.02,139.49 C1611.91,178.29 1608.58,239.62 1606.35,280.8 " fill="none" id="DisplayCommInterfaceImplementationTests-&gt;DisplayComm2WayInterfaceStub" style="stroke: #A80036; stroke-width: 1.0; stroke-dasharray: 7.0,7.0;"/><polygon fill="#A80036" points="1606.07,285.97,1610.5533,277.2008,1606.3418,280.9774,1602.5652,276.7659,1606.07,285.97" style="stroke: #A80036; stroke-width: 1.0;"/><!--MD5=[0cd290e6298e838268680010d5032c0d]
link DisplayCommInterfaceImplementationTests to DisplayCommInterfaceImplementation--><path d="M1524.15,139.1 C1493.15,149.58 1458.04,159.64 1425,165 C1370.16,173.9 477.65,155.26 425,173 C377.96,188.85 332.97,220.27 297.43,250.37 " fill="none" id="DisplayCommInterfaceImplementationTests-&gt;DisplayCommInterfaceImplementation" style="stroke: #A80036; stroke-width: 1.0; stroke-dasharray: 7.0,7.0;"/><polygon fill="#A80036" points="293.59,253.65,303.0265,250.8299,297.3863,250.396,297.8201,244.7559,293.59,253.65" style="stroke: #A80036; stroke-width: 1.0;"/><!--MD5=[e6e0d8b3e0f7bf14f11c0899b3ad37ae]
reverse link DisplayCommManager to DisplayCommManagerStub--><path d="M1363.08,146.47 C1391.19,153.97 1420.85,160.72 1449,165 C1481.86,169.99 1716.8,161.55 1748,173 C1810.88,196.08 1868.6,249.29 1903.04,285.96 " fill="none" id="DisplayCommManager&lt;-DisplayCommManagerStub" style="stroke: #A80036; stroke-width: 1.0; stroke-dasharray: 7.0,7.0;"/><polygon fill="none" points="1360.84,153.11,1343.43,141.04,1364.57,139.62,1360.84,153.11" style="stroke: #A80036; stroke-width: 1.0;"/><!--MD5=[69695ace36e753468876c8d4fe5d2708]
link DisplayComm2WayInterfaceImplementationTests to DisplayCommManagerStub--><path d="M1963.55,139.49 C1957.76,178.29 1948.6,239.62 1942.45,280.8 " fill="none" id="DisplayComm2WayInterfaceImplementationTests-&gt;DisplayCommManagerStub" style="stroke: #A80036; stroke-width: 1.0; stroke-dasharray: 7.0,7.0;"/><polygon fill="#A80036" points="1941.68,285.97,1946.9497,277.6495,1942.4091,281.0234,1939.0352,276.4829,1941.68,285.97" style="stroke: #A80036; stroke-width: 1.0;"/><!--MD5=[ce67f838794c14794f693dd46a642b9a]
link DisplayComm2WayInterfaceImplementationTests to DisplayComm2WayInterfaceImplementation--><path d="M1880.12,139.07 C1850.1,149.55 1816.07,159.62 1784,165 C1736.77,172.93 968.06,159.89 922,173 C854.38,192.24 786.76,235.13 739.08,270.3 " fill="none" id="DisplayComm2WayInterfaceImplementationTests-&gt;DisplayComm2WayInterfaceImplementation" style="stroke: #A80036; stroke-width: 1.0; stroke-dasharray: 7.0,7.0;"/><polygon fill="#A80036" points="734.82,273.46,744.4287,271.2984,738.832,270.476,739.6543,264.8793,734.82,273.46" style="stroke: #A80036; stroke-width: 1.0;"/><!--MD5=[72cb9e2c0df516d67fcc7a3605b88acd]
reverse link MiddlewareCommInterface to MiddlewareCommInterfaceStub--><path d="M2787.73,150.88 C2712.35,191.32 2605.83,248.46 2536.11,285.86 " fill="none" id="MiddlewareCommInterface&lt;-MiddlewareCommInterfaceStub" style="stroke: #A80036; stroke-width: 1.0; stroke-dasharray: 7.0,7.0;"/><polygon fill="none" points="2784.77,144.53,2805.71,141.24,2791.39,156.87,2784.77,144.53" style="stroke: #A80036; stroke-width: 1.0;"/><!--MD5=[a3caa78d97a9caf08bd2afaaae1510f4]
link DisplayCommManagerImplementationTests to MiddlewareCommInterfaceStub--><path d="M2348.42,145.09 C2373.93,184.24 2411.75,242.28 2437.34,281.55 " fill="none" id="DisplayCommManagerImplementationTests-&gt;MiddlewareCommInterfaceStub" style="stroke: #A80036; stroke-width: 1.0; stroke-dasharray: 7.0,7.0;"/><polygon fill="#A80036" points="2440.08,285.76,2438.5161,276.0361,2437.3495,281.5714,2431.8143,280.4049,2440.08,285.76" style="stroke: #A80036; stroke-width: 1.0;"/><!--MD5=[6f3abcadcd809ea193290ea1cf8b820a]
link DisplayCommManagerImplementationTests to DisplayCommManagerImplementation--><path d="M2225.02,145.02 C2202.17,153.22 2177.57,160.63 2154,165 C2076.98,179.29 1524.77,153.11 1449,173 C1375.6,192.27 1300.63,235.3 1247.55,270.51 " fill="none" id="DisplayCommManagerImplementationTests-&gt;DisplayCommManagerImplementation" style="stroke: #A80036; stroke-width: 1.0; stroke-dasharray: 7.0,7.0;"/><polygon fill="#A80036" points="1243.13,273.46,1252.8373,271.7959,1247.2903,270.6865,1248.3997,265.1395,1243.13,273.46" style="stroke: #A80036; stroke-width: 1.0;"/><!--MD5=[f24e7409bf4fec90fef0ed7e05f90b9b]
link TrackDataPlotterTests to TrackDataPlotter--><path d="M2692.84,145.07 C2708.08,153.88 2723.74,163.42 2738,173 C2756.35,185.33 2775.17,198.92 2793.51,212.74 " fill="none" id="TrackDataPlotterTests-&gt;TrackDataPlotter" style="stroke: #A80036; stroke-width: 1.0; stroke-dasharray: 7.0,7.0;"/><polygon fill="#A80036" points="2797.66,215.88,2792.8945,207.2609,2793.672,212.864,2788.0689,213.6416,2797.66,215.88" style="stroke: #A80036; stroke-width: 1.0;"/><!--MD5=[ff5ff4f6d1468edce24ec161862ba9b6]
@startuml Display02Packages_Closure


package edu.oakland.production.display02 {
    
}



package edu.oakland.production.display02 {
    interface DisplayCommInterface {
        __
        .. Use Case 1 ..
        {abstract} + TrackData receiveRfidRequest(int rfidNum)
    }
}








package edu.oakland.production.display02 {
    interface DisplayComm2WayInterface {
        __
        .. Use Case 1 ..
        {abstract} + TrackData passRfidRequest(int rfidNum)
    }
}








package edu.oakland.production.display02 {
    interface DisplayCommManager {
        __
        .. Use Case 1 ..
        {abstract} + TrackData evaluateRfidRequest(int rfid)
    }
}








package edu.oakland.production.display02 {
    class DisplayCommInterfaceImplementation {
        - DisplayComm2WayInterface receiver
        - TrackData data
        - TrackDataPlotter plotter
        __
        + DisplayCommInterface(DisplayComm2WayInterface receiver)
        .. Use Case 1 ..
        + TrackData receiveRfidRequest(int rfidNum)
        
    }
}


DisplayCommInterfaceImplementation .up.|> DisplayCommInterface







package edu.oakland.production.display02 {
    class DisplayComm2WayInterfaceImplementation {
        - DisplayCommManager manager
        __
        + DisplayComm2WayInterfaceImplementation(DisplayCommManager manager)
        .. Use Case 1 ..
        + TrackData passRfidRequest(int rfidNum)
    }
}


DisplayComm2WayInterfaceImplementation .up.|> DisplayComm2WayInterface







package edu.oakland.production.display02 {
    class DisplayCommManagerImplementation {
        - MiddlewareCommInterface middleware
        __
        + DisplayCommManagerImplementation(MiddlewareCommInterface middleware)
        .. Use Case 1 ..
        + TrackData evaluateRfidRequest(int rfid)        
    }
}


DisplayCommManagerImplementation .up.|> DisplayCommManager







package edu.oakland.test.display02 {
    
}



package edu.oakland.test.display02 {
    class DisplayCommInterfaceImplementationTests {
        + void displayComm2WayIsNotNull()
        + void rfidInIsRfidOut()

    }
}




package edu.oakland.test.display02 {
    class DisplayComm2WayInterfaceStub {
        __
        .. Use Case 1 ..
        {abstract} + TrackData passRfidRequest(int rfidNum)
    }
}


DisplayComm2WayInterfaceStub .up.|> DisplayComm2WayInterface



DisplayCommInterfaceImplementationTests ..> DisplayComm2WayInterfaceStub

DisplayCommInterfaceImplementationTests ..> DisplayCommInterfaceImplementation





package edu.oakland.test.display02 {
    class DisplayComm2WayInterfaceImplementationTests {
        + void rfidInIsRfidOut()
        + void displayCommManagerIsNotNull()
    }
}




package edu.oakland.test.display02 {
    class DisplayCommManagerStub {
        __
        .. Use Case 1 ..
        + TrackData evaluateRfidRequest(int rfidNum)
    }
}


DisplayCommManagerStub .up.|> DisplayCommManager



DisplayComm2WayInterfaceImplementationTests ..> DisplayCommManagerStub

DisplayComm2WayInterfaceImplementationTests ..> DisplayComm2WayInterfaceImplementation





package edu.oakland.test.display02 {
    class DisplayCommManagerImplementationTests {
        + void rfidInIsRfidOut()
        + void middlewareIsNotNull()
        - int generateRandomRfid()
    }
}




package edu.oakland.test.display02 {
    class MiddlewareCommInterfaceStub {
        __
        .. Use Case 1 ..
        + TrackData requestRfid(int rfid)
    }
}






package edu.oakland.production.middleware02 {
    interface MiddlewareCommInterface {
        __
        .. Use Case 1 ..
        {abstract} + TrackData requestRfid(int rfid)
    }
}






MiddlewareCommInterfaceStub .up.|> MiddlewareCommInterface

DisplayCommManagerImplementationTests ..> MiddlewareCommInterfaceStub

DisplayCommManagerImplementationTests ..> DisplayCommManagerImplementation





package edu.oakland.test.display02 {
    class TrackDataPlotterTests {
        + void plotIsDisplayed()
        + void nullTrackDataNotAllowed()
        + void invalidTrackDataNotAllowed()
    }
}




package edu.oakland.helper.display02 {
    class TrackDataPlotter {
        - TrackData data
        - XYSeries points
        - XYSeries fitLine
        - JFreeChart chart
        __
        + TrackDataPlotter(TrackData data)
        .. Use Case 1 ..
        + void displayChart()
        + boolean getDisplayeChart()
        - XYSeries getTrackData()
        - XYSeries calculateLine(int[] x, int[] y)
        - float[] extractLatFromTrackData(TrackData data)
        - float[] extractLngFromTrackData(TrackData data)
        - JFreeChart createChart()
    }
}






TrackDataPlotterTests ..> TrackDataPlotter





package edu.oakland.helper.display02 {
    
}



@enduml

PlantUML version 1.2020.02(Sun Mar 01 10:22:07 GMT 2020)
(GPL source distribution)
Java Runtime: OpenJDK Runtime Environment
JVM: OpenJDK 64-Bit Server VM
Java Version: 11.0.9+11-Ubuntu-0ubuntu1
Operating System: Linux
Default Encoding: ANSI_X3.4-1968
Language: en
Country: US
--></g></svg>