<?xml version="1.0" encoding="UTF-8" standalone="no"?><svg xmlns="http://www.w3.org/2000/svg" xmlns:xlink="http://www.w3.org/1999/xlink" contentScriptType="application/ecmascript" contentStyleType="text/css" height="475px" preserveAspectRatio="none" style="width:3106px;height:475px;" version="1.1" viewBox="0 0 3106 475" width="3106px" zoomAndPan="magnify"><defs><filter height="300%" id="f1j1odahcp3cn2" width="300%" x="-1" y="-1"><feGaussianBlur result="blurOut" stdDeviation="2.0"/><feColorMatrix in="blurOut" result="blurOut2" type="matrix" values="0 0 0 0 0 0 0 0 0 0 0 0 0 0 0 0 0 0 .4 0"/><feOffset dx="4.0" dy="4.0" in="blurOut2" result="blurOut3"/><feBlend in="SourceGraphic" in2="blurOut3" mode="normal"/></filter></defs><g><!--MD5=[fe59aae6f7bfe371a9c197ec1f7f843a]
cluster edu.oakland.production.display02--><polygon fill="#FFFFFF" filter="url(#f1j1odahcp3cn2)" points="22,28,295,28,302,50.2969,1425,50.2969,1425,418.5,22,418.5,22,28" style="stroke: #000000; stroke-width: 1.5;"/><line style="stroke: #000000; stroke-width: 1.5;" x1="22" x2="302" y1="50.2969" y2="50.2969"/><text fill="#000000" font-family="sans-serif" font-size="14" font-weight="bold" lengthAdjust="spacingAndGlyphs" textLength="267" x="26" y="42.9951">edu.oakland.production.display02</text><!--MD5=[9258003ec405d300d3379b4a3d8dd6ad]
cluster edu.oakland.test.display02--><polygon fill="#FFFFFF" filter="url(#f1j1odahcp3cn2)" points="1449,24,1667,24,1674,46.2969,2738,46.2969,2738,386.5,1449,386.5,1449,24" style="stroke: #000000; stroke-width: 1.5;"/><line style="stroke: #000000; stroke-width: 1.5;" x1="1449" x2="1674" y1="46.2969" y2="46.2969"/><text fill="#000000" font-family="sans-serif" font-size="14" font-weight="bold" lengthAdjust="spacingAndGlyphs" textLength="212" x="1453" y="38.9951">edu.oakland.test.display02</text><!--MD5=[33504725b8a69ba2207f0a836957a91c]
cluster edu.oakland.production.middleware02--><polygon fill="#FFFFFF" filter="url(#f1j1odahcp3cn2)" points="2762,28,3072,28,3079,50.2969,3082,50.2969,3082,157,2762,157,2762,28" style="stroke: #000000; stroke-width: 1.5;"/><line style="stroke: #000000; stroke-width: 1.5;" x1="2762" x2="3079" y1="50.2969" y2="50.2969"/><text fill="#000000" font-family="sans-serif" font-size="14" font-weight="bold" lengthAdjust="spacingAndGlyphs" textLength="304" x="2766" y="42.9951">edu.oakland.production.middleware02</text><!--MD5=[a502031b5a5384de0a21e6ee820fd3b2]
cluster edu.oakland.helper.display02--><polygon fill="#FFFFFF" filter="url(#f1j1odahcp3cn2)" points="2762,181,3000,181,3007,203.2969,3084,203.2969,3084,463,2762,463,2762,181" style="stroke: #000000; stroke-width: 1.5;"/><line style="stroke: #000000; stroke-width: 1.5;" x1="2762" x2="3007" y1="203.2969" y2="203.2969"/><text fill="#000000" font-family="sans-serif" font-size="14" font-weight="bold" lengthAdjust="spacingAndGlyphs" textLength="232" x="2766" y="195.9951">edu.oakland.helper.display02</text><!--MD5=[c8d1e3134fecb0c949fd2a76cc0bb992]
class DisplayCommInterface--><rect fill="#FEFECE" filter="url(#f1j1odahcp3cn2)" height="77.6094" id="DisplayCommInterface" style="stroke: #A80036; stroke-width: 1.5;" width="268" x="89" y="63"/><ellipse cx="149.25" cy="79" fill="#B4A7E5" rx="11" ry="11" style="stroke: #A80036; stroke-width: 1.0;"/><path d="M145.1719,74.7656 L145.1719,72.6094 L152.5625,72.6094 L152.5625,74.7656 L150.0938,74.7656 L150.0938,82.8438 L152.5625,82.8438 L152.5625,85 L145.1719,85 L145.1719,82.8438 L147.6406,82.8438 L147.6406,74.7656 L145.1719,74.7656 Z "/><text fill="#000000" font-family="sans-serif" font-size="12" font-style="italic" lengthAdjust="spacingAndGlyphs" textLength="139" x="169.75" y="83.1543">DisplayCommInterface</text><line style="stroke: #A80036; stroke-width: 1.5;" x1="90" x2="356" y1="95" y2="95"/><line style="stroke: #A80036; stroke-width: 1.5;" x1="90" x2="356" y1="103" y2="103"/><ellipse cx="100" cy="130.8047" fill="#84BE84" rx="3" ry="3" style="stroke: #038048; stroke-width: 1.0;"/><text fill="#000000" font-family="sans-serif" font-size="11" font-style="italic" lengthAdjust="spacingAndGlyphs" textLength="242" x="109" y="134.0151">TrackData receiveRfidRequest(int rfidNum)</text><line style="stroke: #A80036; stroke-width: 1.0; stroke-dasharray: 1.0,2.0;" x1="90" x2="190" y1="117.4023" y2="117.4023"/><text fill="#000000" font-family="sans-serif" font-size="11" lengthAdjust="spacingAndGlyphs" textLength="66" x="190" y="120.7104">Use Case 1</text><line style="stroke: #A80036; stroke-width: 1.0; stroke-dasharray: 1.0,2.0;" x1="256" x2="356" y1="117.4023" y2="117.4023"/><!--MD5=[f6b51b5f862da5ce226c62e411e84628]
class DisplayComm2WayInterface--><rect fill="#FEFECE" filter="url(#f1j1odahcp3cn2)" height="77.6094" id="DisplayComm2WayInterface" style="stroke: #A80036; stroke-width: 1.5;" width="252" x="672" y="63"/><ellipse cx="707.7" cy="79" fill="#B4A7E5" rx="11" ry="11" style="stroke: #A80036; stroke-width: 1.0;"/><path d="M703.6219,74.7656 L703.6219,72.6094 L711.0125,72.6094 L711.0125,74.7656 L708.5438,74.7656 L708.5438,82.8438 L711.0125,82.8438 L711.0125,85 L703.6219,85 L703.6219,82.8438 L706.0906,82.8438 L706.0906,74.7656 L703.6219,74.7656 Z "/><text fill="#000000" font-family="sans-serif" font-size="12" font-style="italic" lengthAdjust="spacingAndGlyphs" textLength="174" x="726.3" y="83.1543">DisplayComm2WayInterface</text><line style="stroke: #A80036; stroke-width: 1.5;" x1="673" x2="923" y1="95" y2="95"/><line style="stroke: #A80036; stroke-width: 1.5;" x1="673" x2="923" y1="103" y2="103"/><ellipse cx="683" cy="130.8047" fill="#84BE84" rx="3" ry="3" style="stroke: #038048; stroke-width: 1.0;"/><text fill="#000000" font-family="sans-serif" font-size="11" font-style="italic" lengthAdjust="spacingAndGlyphs" textLength="226" x="692" y="134.0151">TrackData passRfidRequest(int rfidNum)</text><line style="stroke: #A80036; stroke-width: 1.0; stroke-dasharray: 1.0,2.0;" x1="673" x2="765" y1="117.4023" y2="117.4023"/><text fill="#000000" font-family="sans-serif" font-size="11" lengthAdjust="spacingAndGlyphs" textLength="66" x="765" y="120.7104">Use Case 1</text><line style="stroke: #A80036; stroke-width: 1.0; stroke-dasharray: 1.0,2.0;" x1="831" x2="923" y1="117.4023" y2="117.4023"/><!--MD5=[6aeb72f2773d7cabb45309482beeff0a]
class DisplayCommManager--><rect fill="#FEFECE" filter="url(#f1j1odahcp3cn2)" height="77.6094" id="DisplayCommManager" style="stroke: #A80036; stroke-width: 1.5;" width="275" x="1084.5" y="63"/><ellipse cx="1149.25" cy="79" fill="#B4A7E5" rx="11" ry="11" style="stroke: #A80036; stroke-width: 1.0;"/><path d="M1145.1719,74.7656 L1145.1719,72.6094 L1152.5625,72.6094 L1152.5625,74.7656 L1150.0938,74.7656 L1150.0938,82.8438 L1152.5625,82.8438 L1152.5625,85 L1145.1719,85 L1145.1719,82.8438 L1147.6406,82.8438 L1147.6406,74.7656 L1145.1719,74.7656 Z "/><text fill="#000000" font-family="sans-serif" font-size="12" font-style="italic" lengthAdjust="spacingAndGlyphs" textLength="137" x="1169.75" y="83.1543">DisplayCommManager</text><line style="stroke: #A80036; stroke-width: 1.5;" x1="1085.5" x2="1358.5" y1="95" y2="95"/><line style="stroke: #A80036; stroke-width: 1.5;" x1="1085.5" x2="1358.5" y1="103" y2="103"/><ellipse cx="1095.5" cy="130.8047" fill="#84BE84" rx="3" ry="3" style="stroke: #038048; stroke-width: 1.0;"/><text fill="#000000" font-family="sans-serif" font-size="11" font-style="italic" lengthAdjust="spacingAndGlyphs" textLength="249" x="1104.5" y="134.0151">TrackData evaluateRfidRequest(int rfidNum)</text><line style="stroke: #A80036; stroke-width: 1.0; stroke-dasharray: 1.0,2.0;" x1="1085.5" x2="1189" y1="117.4023" y2="117.4023"/><text fill="#000000" font-family="sans-serif" font-size="11" lengthAdjust="spacingAndGlyphs" textLength="66" x="1189" y="120.7104">Use Case 1</text><line style="stroke: #A80036; stroke-width: 1.0; stroke-dasharray: 1.0,2.0;" x1="1255" x2="1358.5" y1="117.4023" y2="117.4023"/><!--MD5=[a35092e604da7274febf4e2cf9a25087]
class DisplayCommInterfaceImplementation--><rect fill="#FEFECE" filter="url(#f1j1odahcp3cn2)" height="116.0234" id="DisplayCommInterfaceImplementation" style="stroke: #A80036; stroke-width: 1.5;" width="369" x="38.5" y="273.5"/><ellipse cx="101.25" cy="289.5" fill="#ADD1B2" rx="11" ry="11" style="stroke: #A80036; stroke-width: 1.0;"/><path d="M104.2188,295.1406 Q103.6406,295.4375 103,295.5781 Q102.3594,295.7344 101.6563,295.7344 Q99.1563,295.7344 97.8281,294.0938 Q96.5156,292.4375 96.5156,289.3125 Q96.5156,286.1875 97.8281,284.5313 Q99.1563,282.875 101.6563,282.875 Q102.3594,282.875 103,283.0313 Q103.6563,283.1875 104.2188,283.4844 L104.2188,286.2031 Q103.5938,285.625 103,285.3594 Q102.4063,285.0781 101.7813,285.0781 Q100.4375,285.0781 99.75,286.1563 Q99.0625,287.2188 99.0625,289.3125 Q99.0625,291.4063 99.75,292.4844 Q100.4375,293.5469 101.7813,293.5469 Q102.4063,293.5469 103,293.2813 Q103.5938,293 104.2188,292.4219 L104.2188,295.1406 Z "/><text fill="#000000" font-family="sans-serif" font-size="12" lengthAdjust="spacingAndGlyphs" textLength="235" x="121.75" y="293.6543">DisplayCommInterfaceImplementation</text><line style="stroke: #A80036; stroke-width: 1.5;" x1="39.5" x2="406.5" y1="305.5" y2="305.5"/><rect fill="none" height="6" style="stroke: #C82930; stroke-width: 1.0;" width="6" x="46.5" y="313.5"/><text fill="#000000" font-family="sans-serif" font-size="11" lengthAdjust="spacingAndGlyphs" textLength="207" x="58.5" y="319.7104">DisplayComm2WayInterface receiver</text><line style="stroke: #A80036; stroke-width: 1.5;" x1="39.5" x2="406.5" y1="326.3047" y2="326.3047"/><ellipse cx="49.5" cy="337.3047" fill="#84BE84" rx="3" ry="3" style="stroke: #038048; stroke-width: 1.0;"/><text fill="#000000" font-family="sans-serif" font-size="11" lengthAdjust="spacingAndGlyphs" textLength="343" x="58.5" y="340.5151">DisplayCommInterface(DisplayComm2WayInterface receiver)</text><ellipse cx="49.5" cy="366.9141" fill="#84BE84" rx="3" ry="3" style="stroke: #038048; stroke-width: 1.0;"/><text fill="#000000" font-family="sans-serif" font-size="11" lengthAdjust="spacingAndGlyphs" textLength="240" x="58.5" y="370.1245">TrackData receiveRfidRequest(int rfidNum)</text><rect fill="#F24D5C" height="6" style="stroke: #C82930; stroke-width: 1.0;" width="6" x="46.5" y="376.7188"/><text fill="#000000" font-family="sans-serif" font-size="11" lengthAdjust="spacingAndGlyphs" textLength="290" x="58.5" y="382.9292">TrackData passToComm2WayInterface(int rfidNum)</text><line style="stroke: #A80036; stroke-width: 1.0; stroke-dasharray: 1.0,2.0;" x1="39.5" x2="190" y1="353.5117" y2="353.5117"/><text fill="#000000" font-family="sans-serif" font-size="11" lengthAdjust="spacingAndGlyphs" textLength="66" x="190" y="356.8198">Use Case 1</text><line style="stroke: #A80036; stroke-width: 1.0; stroke-dasharray: 1.0,2.0;" x1="256" x2="406.5" y1="353.5117" y2="353.5117"/><!--MD5=[46657c2900260d4d40350fe3f8c544df]
class DisplayComm2WayInterfaceImplementation--><rect fill="#FEFECE" filter="url(#f1j1odahcp3cn2)" height="128.8281" id="DisplayComm2WayInterfaceImplementation" style="stroke: #A80036; stroke-width: 1.5;" width="461" x="442.5" y="267"/><ellipse cx="534.75" cy="283" fill="#ADD1B2" rx="11" ry="11" style="stroke: #A80036; stroke-width: 1.0;"/><path d="M537.7188,288.6406 Q537.1406,288.9375 536.5,289.0781 Q535.8594,289.2344 535.1563,289.2344 Q532.6563,289.2344 531.3281,287.5938 Q530.0156,285.9375 530.0156,282.8125 Q530.0156,279.6875 531.3281,278.0313 Q532.6563,276.375 535.1563,276.375 Q535.8594,276.375 536.5,276.5313 Q537.1563,276.6875 537.7188,276.9844 L537.7188,279.7031 Q537.0938,279.125 536.5,278.8594 Q535.9063,278.5781 535.2813,278.5781 Q533.9375,278.5781 533.25,279.6563 Q532.5625,280.7188 532.5625,282.8125 Q532.5625,284.9063 533.25,285.9844 Q533.9375,287.0469 535.2813,287.0469 Q535.9063,287.0469 536.5,286.7813 Q537.0938,286.5 537.7188,285.9219 L537.7188,288.6406 Z "/><text fill="#000000" font-family="sans-serif" font-size="12" lengthAdjust="spacingAndGlyphs" textLength="268" x="555.25" y="287.1543">DisplayComm2WayInterfaceImplementation</text><line style="stroke: #A80036; stroke-width: 1.5;" x1="443.5" x2="902.5" y1="299" y2="299"/><rect fill="none" height="6" style="stroke: #C82930; stroke-width: 1.0;" width="6" x="450.5" y="307"/><text fill="#000000" font-family="sans-serif" font-size="11" lengthAdjust="spacingAndGlyphs" textLength="182" x="462.5" y="313.2104">DisplayCommManager manager</text><line style="stroke: #A80036; stroke-width: 1.5;" x1="443.5" x2="902.5" y1="319.8047" y2="319.8047"/><ellipse cx="453.5" cy="330.8047" fill="#84BE84" rx="3" ry="3" style="stroke: #038048; stroke-width: 1.0;"/><text fill="#000000" font-family="sans-serif" font-size="11" lengthAdjust="spacingAndGlyphs" textLength="435" x="462.5" y="334.0151">DisplayComm2WayInterfaceImplementation(DisplayCommManager manager)</text><ellipse cx="453.5" cy="360.4141" fill="#84BE84" rx="3" ry="3" style="stroke: #038048; stroke-width: 1.0;"/><text fill="#000000" font-family="sans-serif" font-size="11" lengthAdjust="spacingAndGlyphs" textLength="227" x="462.5" y="363.6245">TrackData passRfidRequest(int rfidNum)</text><rect fill="#F24D5C" height="6" style="stroke: #C82930; stroke-width: 1.0;" width="6" x="450.5" y="370.2188"/><text fill="#000000" font-family="sans-serif" font-size="11" lengthAdjust="spacingAndGlyphs" textLength="269" x="462.5" y="376.4292">void determineUserRequestFormat(int rfidNum)</text><rect fill="#F24D5C" height="6" style="stroke: #C82930; stroke-width: 1.0;" width="6" x="450.5" y="383.0234"/><text fill="#000000" font-family="sans-serif" font-size="11" lengthAdjust="spacingAndGlyphs" textLength="342" x="462.5" y="389.2339">void receiveRequestFromDisplayCommInterface(int rfidNum)</text><line style="stroke: #A80036; stroke-width: 1.0; stroke-dasharray: 1.0,2.0;" x1="443.5" x2="640" y1="347.0117" y2="347.0117"/><text fill="#000000" font-family="sans-serif" font-size="11" lengthAdjust="spacingAndGlyphs" textLength="66" x="640" y="350.3198">Use Case 1</text><line style="stroke: #A80036; stroke-width: 1.0; stroke-dasharray: 1.0,2.0;" x1="706" x2="902.5" y1="347.0117" y2="347.0117"/><!--MD5=[3a27b63ddb357afc5dde5581215f51f9]
class DisplayCommManagerImplementation--><rect fill="#FEFECE" filter="url(#f1j1odahcp3cn2)" height="141.6328" id="DisplayCommManagerImplementation" style="stroke: #A80036; stroke-width: 1.5;" width="470" x="939" y="260.5"/><ellipse cx="1052.75" cy="276.5" fill="#ADD1B2" rx="11" ry="11" style="stroke: #A80036; stroke-width: 1.0;"/><path d="M1055.7188,282.1406 Q1055.1406,282.4375 1054.5,282.5781 Q1053.8594,282.7344 1053.1563,282.7344 Q1050.6563,282.7344 1049.3281,281.0938 Q1048.0156,279.4375 1048.0156,276.3125 Q1048.0156,273.1875 1049.3281,271.5313 Q1050.6563,269.875 1053.1563,269.875 Q1053.8594,269.875 1054.5,270.0313 Q1055.1563,270.1875 1055.7188,270.4844 L1055.7188,273.2031 Q1055.0938,272.625 1054.5,272.3594 Q1053.9063,272.0781 1053.2813,272.0781 Q1051.9375,272.0781 1051.25,273.1563 Q1050.5625,274.2188 1050.5625,276.3125 Q1050.5625,278.4063 1051.25,279.4844 Q1051.9375,280.5469 1053.2813,280.5469 Q1053.9063,280.5469 1054.5,280.2813 Q1055.0938,280 1055.7188,279.4219 L1055.7188,282.1406 Z "/><text fill="#000000" font-family="sans-serif" font-size="12" lengthAdjust="spacingAndGlyphs" textLength="234" x="1073.25" y="280.6543">DisplayCommManagerImplementation</text><line style="stroke: #A80036; stroke-width: 1.5;" x1="940" x2="1408" y1="292.5" y2="292.5"/><rect fill="none" height="6" style="stroke: #C82930; stroke-width: 1.0;" width="6" x="947" y="300.5"/><text fill="#000000" font-family="sans-serif" font-size="11" lengthAdjust="spacingAndGlyphs" textLength="221" x="959" y="306.7104">MiddlewareCommInterface middleware</text><line style="stroke: #A80036; stroke-width: 1.5;" x1="940" x2="1408" y1="313.3047" y2="313.3047"/><ellipse cx="950" cy="324.3047" fill="#84BE84" rx="3" ry="3" style="stroke: #038048; stroke-width: 1.0;"/><text fill="#000000" font-family="sans-serif" font-size="11" lengthAdjust="spacingAndGlyphs" textLength="444" x="959" y="327.5151">DisplayCommManagerImplementation(MiddlewareCommInterface middleware)</text><ellipse cx="950" cy="353.9141" fill="#84BE84" rx="3" ry="3" style="stroke: #038048; stroke-width: 1.0;"/><text fill="#000000" font-family="sans-serif" font-size="11" lengthAdjust="spacingAndGlyphs" textLength="368" x="959" y="357.1245">TrackData receiveRequestFromDisplay2WayInterface(int rfidNum)</text><rect fill="#F24D5C" height="6" style="stroke: #C82930; stroke-width: 1.0;" width="6" x="947" y="363.7188"/><text fill="#000000" font-family="sans-serif" font-size="11" lengthAdjust="spacingAndGlyphs" textLength="247" x="959" y="369.9292">TrackData evaluateRfidRequest(int rfidNum)</text><rect fill="#F24D5C" height="6" style="stroke: #C82930; stroke-width: 1.0;" width="6" x="947" y="376.5234"/><text fill="#000000" font-family="sans-serif" font-size="11" lengthAdjust="spacingAndGlyphs" textLength="371" x="959" y="382.7339">TrackData passRequestToMiddlewareCommInterface(int rfidNum)</text><text fill="#000000" font-family="sans-serif" font-size="11" lengthAdjust="spacingAndGlyphs" textLength="0" x="963" y="395.5386"/><line style="stroke: #A80036; stroke-width: 1.0; stroke-dasharray: 1.0,2.0;" x1="940" x2="1141" y1="340.5117" y2="340.5117"/><text fill="#000000" font-family="sans-serif" font-size="11" lengthAdjust="spacingAndGlyphs" textLength="66" x="1141" y="343.8198">Use Case 1</text><line style="stroke: #A80036; stroke-width: 1.0; stroke-dasharray: 1.0,2.0;" x1="1207" x2="1408" y1="340.5117" y2="340.5117"/><!--MD5=[d454b7777f115113290d89683d7a426c]
class DisplayCommInterfaceImplementationTests--><rect fill="#FEFECE" filter="url(#f1j1odahcp3cn2)" height="48" id="DisplayCommInterfaceImplementationTests" style="stroke: #A80036; stroke-width: 1.5;" width="301" x="1465.5" y="78"/><ellipse cx="1480.5" cy="94" fill="#ADD1B2" rx="11" ry="11" style="stroke: #A80036; stroke-width: 1.0;"/><path d="M1483.4688,99.6406 Q1482.8906,99.9375 1482.25,100.0781 Q1481.6094,100.2344 1480.9063,100.2344 Q1478.4063,100.2344 1477.0781,98.5938 Q1475.7656,96.9375 1475.7656,93.8125 Q1475.7656,90.6875 1477.0781,89.0313 Q1478.4063,87.375 1480.9063,87.375 Q1481.6094,87.375 1482.25,87.5313 Q1482.9063,87.6875 1483.4688,87.9844 L1483.4688,90.7031 Q1482.8438,90.125 1482.25,89.8594 Q1481.6563,89.5781 1481.0313,89.5781 Q1479.6875,89.5781 1479,90.6563 Q1478.3125,91.7188 1478.3125,93.8125 Q1478.3125,95.9063 1479,96.9844 Q1479.6875,98.0469 1481.0313,98.0469 Q1481.6563,98.0469 1482.25,97.7813 Q1482.8438,97.5 1483.4688,96.9219 L1483.4688,99.6406 Z "/><text fill="#000000" font-family="sans-serif" font-size="12" lengthAdjust="spacingAndGlyphs" textLength="269" x="1494.5" y="98.1543">DisplayCommInterfaceImplementationTests</text><line style="stroke: #A80036; stroke-width: 1.5;" x1="1466.5" x2="1765.5" y1="110" y2="110"/><line style="stroke: #A80036; stroke-width: 1.5;" x1="1466.5" x2="1765.5" y1="118" y2="118"/><!--MD5=[a333ac13e0fdf2a5898aafabd38d3c1b]
class DisplayComm2WayInterfaceStub--><rect fill="#FEFECE" filter="url(#f1j1odahcp3cn2)" height="77.6094" id="DisplayComm2WayInterfaceStub" style="stroke: #A80036; stroke-width: 1.5;" width="252" x="1478" y="292.5"/><ellipse cx="1502" cy="308.5" fill="#ADD1B2" rx="11" ry="11" style="stroke: #A80036; stroke-width: 1.0;"/><path d="M1504.9688,314.1406 Q1504.3906,314.4375 1503.75,314.5781 Q1503.1094,314.7344 1502.4063,314.7344 Q1499.9063,314.7344 1498.5781,313.0938 Q1497.2656,311.4375 1497.2656,308.3125 Q1497.2656,305.1875 1498.5781,303.5313 Q1499.9063,301.875 1502.4063,301.875 Q1503.1094,301.875 1503.75,302.0313 Q1504.4063,302.1875 1504.9688,302.4844 L1504.9688,305.2031 Q1504.3438,304.625 1503.75,304.3594 Q1503.1563,304.0781 1502.5313,304.0781 Q1501.1875,304.0781 1500.5,305.1563 Q1499.8125,306.2188 1499.8125,308.3125 Q1499.8125,310.4063 1500.5,311.4844 Q1501.1875,312.5469 1502.5313,312.5469 Q1503.1563,312.5469 1503.75,312.2813 Q1504.3438,312 1504.9688,311.4219 L1504.9688,314.1406 Z "/><text fill="#000000" font-family="sans-serif" font-size="12" lengthAdjust="spacingAndGlyphs" textLength="200" x="1518" y="312.6543">DisplayComm2WayInterfaceStub</text><line style="stroke: #A80036; stroke-width: 1.5;" x1="1479" x2="1729" y1="324.5" y2="324.5"/><line style="stroke: #A80036; stroke-width: 1.5;" x1="1479" x2="1729" y1="332.5" y2="332.5"/><ellipse cx="1489" cy="360.3047" fill="#84BE84" rx="3" ry="3" style="stroke: #038048; stroke-width: 1.0;"/><text fill="#000000" font-family="sans-serif" font-size="11" font-style="italic" lengthAdjust="spacingAndGlyphs" textLength="226" x="1498" y="363.5151">TrackData passRfidRequest(int rfidNum)</text><line style="stroke: #A80036; stroke-width: 1.0; stroke-dasharray: 1.0,2.0;" x1="1479" x2="1571" y1="346.9023" y2="346.9023"/><text fill="#000000" font-family="sans-serif" font-size="11" lengthAdjust="spacingAndGlyphs" textLength="66" x="1571" y="350.2104">Use Case 1</text><line style="stroke: #A80036; stroke-width: 1.0; stroke-dasharray: 1.0,2.0;" x1="1637" x2="1729" y1="346.9023" y2="346.9023"/><!--MD5=[178181f4c7684560c711246055fc01d3]
class DisplayComm2WayInterfaceImplementationTests--><rect fill="#FEFECE" filter="url(#f1j1odahcp3cn2)" height="48" id="DisplayComm2WayInterfaceImplementationTests" style="stroke: #A80036; stroke-width: 1.5;" width="334" x="1802" y="78"/><ellipse cx="1817" cy="94" fill="#ADD1B2" rx="11" ry="11" style="stroke: #A80036; stroke-width: 1.0;"/><path d="M1819.9688,99.6406 Q1819.3906,99.9375 1818.75,100.0781 Q1818.1094,100.2344 1817.4063,100.2344 Q1814.9063,100.2344 1813.5781,98.5938 Q1812.2656,96.9375 1812.2656,93.8125 Q1812.2656,90.6875 1813.5781,89.0313 Q1814.9063,87.375 1817.4063,87.375 Q1818.1094,87.375 1818.75,87.5313 Q1819.4063,87.6875 1819.9688,87.9844 L1819.9688,90.7031 Q1819.3438,90.125 1818.75,89.8594 Q1818.1563,89.5781 1817.5313,89.5781 Q1816.1875,89.5781 1815.5,90.6563 Q1814.8125,91.7188 1814.8125,93.8125 Q1814.8125,95.9063 1815.5,96.9844 Q1816.1875,98.0469 1817.5313,98.0469 Q1818.1563,98.0469 1818.75,97.7813 Q1819.3438,97.5 1819.9688,96.9219 L1819.9688,99.6406 Z "/><text fill="#000000" font-family="sans-serif" font-size="12" lengthAdjust="spacingAndGlyphs" textLength="302" x="1831" y="98.1543">DisplayComm2WayInterfaceImplementationTests</text><line style="stroke: #A80036; stroke-width: 1.5;" x1="1803" x2="2135" y1="110" y2="110"/><line style="stroke: #A80036; stroke-width: 1.5;" x1="1803" x2="2135" y1="118" y2="118"/><!--MD5=[2970358178d6cf57fc5a801b39eb8d0b]
class DisplayCommManagerStub--><rect fill="#FEFECE" filter="url(#f1j1odahcp3cn2)" height="77.6094" id="DisplayCommManagerStub" style="stroke: #A80036; stroke-width: 1.5;" width="273" x="1799.5" y="292.5"/><ellipse cx="1848.75" cy="308.5" fill="#ADD1B2" rx="11" ry="11" style="stroke: #A80036; stroke-width: 1.0;"/><path d="M1851.7188,314.1406 Q1851.1406,314.4375 1850.5,314.5781 Q1849.8594,314.7344 1849.1563,314.7344 Q1846.6563,314.7344 1845.3281,313.0938 Q1844.0156,311.4375 1844.0156,308.3125 Q1844.0156,305.1875 1845.3281,303.5313 Q1846.6563,301.875 1849.1563,301.875 Q1849.8594,301.875 1850.5,302.0313 Q1851.1563,302.1875 1851.7188,302.4844 L1851.7188,305.2031 Q1851.0938,304.625 1850.5,304.3594 Q1849.9063,304.0781 1849.2813,304.0781 Q1847.9375,304.0781 1847.25,305.1563 Q1846.5625,306.2188 1846.5625,308.3125 Q1846.5625,310.4063 1847.25,311.4844 Q1847.9375,312.5469 1849.2813,312.5469 Q1849.9063,312.5469 1850.5,312.2813 Q1851.0938,312 1851.7188,311.4219 L1851.7188,314.1406 Z "/><text fill="#000000" font-family="sans-serif" font-size="12" lengthAdjust="spacingAndGlyphs" textLength="166" x="1869.25" y="312.6543">DisplayCommManagerStub</text><line style="stroke: #A80036; stroke-width: 1.5;" x1="1800.5" x2="2071.5" y1="324.5" y2="324.5"/><line style="stroke: #A80036; stroke-width: 1.5;" x1="1800.5" x2="2071.5" y1="332.5" y2="332.5"/><ellipse cx="1810.5" cy="360.3047" fill="#84BE84" rx="3" ry="3" style="stroke: #038048; stroke-width: 1.0;"/><text fill="#000000" font-family="sans-serif" font-size="11" lengthAdjust="spacingAndGlyphs" textLength="247" x="1819.5" y="363.5151">TrackData evaluateRfidRequest(int rfidNum)</text><line style="stroke: #A80036; stroke-width: 1.0; stroke-dasharray: 1.0,2.0;" x1="1800.5" x2="1903" y1="346.9023" y2="346.9023"/><text fill="#000000" font-family="sans-serif" font-size="11" lengthAdjust="spacingAndGlyphs" textLength="66" x="1903" y="350.2104">Use Case 1</text><line style="stroke: #A80036; stroke-width: 1.0; stroke-dasharray: 1.0,2.0;" x1="1969" x2="2071.5" y1="346.9023" y2="346.9023"/><!--MD5=[937d6d8ff87a99d0d5dcd66ee05a1fa4]
class DisplayCommManagerImplementationTests--><rect fill="#FEFECE" filter="url(#f1j1odahcp3cn2)" height="48" id="DisplayCommManagerImplementationTests" style="stroke: #A80036; stroke-width: 1.5;" width="300" x="2171" y="78"/><ellipse cx="2186" cy="94" fill="#ADD1B2" rx="11" ry="11" style="stroke: #A80036; stroke-width: 1.0;"/><path d="M2188.9688,99.6406 Q2188.3906,99.9375 2187.75,100.0781 Q2187.1094,100.2344 2186.4063,100.2344 Q2183.9063,100.2344 2182.5781,98.5938 Q2181.2656,96.9375 2181.2656,93.8125 Q2181.2656,90.6875 2182.5781,89.0313 Q2183.9063,87.375 2186.4063,87.375 Q2187.1094,87.375 2187.75,87.5313 Q2188.4063,87.6875 2188.9688,87.9844 L2188.9688,90.7031 Q2188.3438,90.125 2187.75,89.8594 Q2187.1563,89.5781 2186.5313,89.5781 Q2185.1875,89.5781 2184.5,90.6563 Q2183.8125,91.7188 2183.8125,93.8125 Q2183.8125,95.9063 2184.5,96.9844 Q2185.1875,98.0469 2186.5313,98.0469 Q2187.1563,98.0469 2187.75,97.7813 Q2188.3438,97.5 2188.9688,96.9219 L2188.9688,99.6406 Z "/><text fill="#000000" font-family="sans-serif" font-size="12" lengthAdjust="spacingAndGlyphs" textLength="268" x="2200" y="98.1543">DisplayCommManagerImplementationTests</text><line style="stroke: #A80036; stroke-width: 1.5;" x1="2172" x2="2470" y1="110" y2="110"/><line style="stroke: #A80036; stroke-width: 1.5;" x1="2172" x2="2470" y1="118" y2="118"/><!--MD5=[cf56a65163663c6c6c7b84cd7c204b97]
class MiddlewareCommInterfaceStub--><rect fill="#FEFECE" filter="url(#f1j1odahcp3cn2)" height="77.6094" id="MiddlewareCommInterfaceStub" style="stroke: #A80036; stroke-width: 1.5;" width="225" x="2352.5" y="292.5"/><ellipse cx="2367.5" cy="308.5" fill="#ADD1B2" rx="11" ry="11" style="stroke: #A80036; stroke-width: 1.0;"/><path d="M2370.4688,314.1406 Q2369.8906,314.4375 2369.25,314.5781 Q2368.6094,314.7344 2367.9063,314.7344 Q2365.4063,314.7344 2364.0781,313.0938 Q2362.7656,311.4375 2362.7656,308.3125 Q2362.7656,305.1875 2364.0781,303.5313 Q2365.4063,301.875 2367.9063,301.875 Q2368.6094,301.875 2369.25,302.0313 Q2369.9063,302.1875 2370.4688,302.4844 L2370.4688,305.2031 Q2369.8438,304.625 2369.25,304.3594 Q2368.6563,304.0781 2368.0313,304.0781 Q2366.6875,304.0781 2366,305.1563 Q2365.3125,306.2188 2365.3125,308.3125 Q2365.3125,310.4063 2366,311.4844 Q2366.6875,312.5469 2368.0313,312.5469 Q2368.6563,312.5469 2369.25,312.2813 Q2369.8438,312 2370.4688,311.4219 L2370.4688,314.1406 Z "/><text fill="#000000" font-family="sans-serif" font-size="12" lengthAdjust="spacingAndGlyphs" textLength="193" x="2381.5" y="312.6543">MiddlewareCommInterfaceStub</text><line style="stroke: #A80036; stroke-width: 1.5;" x1="2353.5" x2="2576.5" y1="324.5" y2="324.5"/><line style="stroke: #A80036; stroke-width: 1.5;" x1="2353.5" x2="2576.5" y1="332.5" y2="332.5"/><ellipse cx="2363.5" cy="360.3047" fill="#84BE84" rx="3" ry="3" style="stroke: #038048; stroke-width: 1.0;"/><text fill="#000000" font-family="sans-serif" font-size="11" lengthAdjust="spacingAndGlyphs" textLength="171" x="2372.5" y="363.5151">TrackData requestRfid(int rfid)</text><line style="stroke: #A80036; stroke-width: 1.0; stroke-dasharray: 1.0,2.0;" x1="2353.5" x2="2432" y1="346.9023" y2="346.9023"/><text fill="#000000" font-family="sans-serif" font-size="11" lengthAdjust="spacingAndGlyphs" textLength="66" x="2432" y="350.2104">Use Case 1</text><line style="stroke: #A80036; stroke-width: 1.0; stroke-dasharray: 1.0,2.0;" x1="2498" x2="2576.5" y1="346.9023" y2="346.9023"/><!--MD5=[930c8140e7c1cb8e71aa7cd49967748e]
class TrackDataPlotterTests--><rect fill="#FEFECE" filter="url(#f1j1odahcp3cn2)" height="86.4141" id="TrackDataPlotterTests" style="stroke: #A80036; stroke-width: 1.5;" width="216" x="2506" y="59"/><ellipse cx="2540.8" cy="75" fill="#ADD1B2" rx="11" ry="11" style="stroke: #A80036; stroke-width: 1.0;"/><path d="M2543.7688,80.6406 Q2543.1906,80.9375 2542.55,81.0781 Q2541.9094,81.2344 2541.2063,81.2344 Q2538.7063,81.2344 2537.3781,79.5938 Q2536.0656,77.9375 2536.0656,74.8125 Q2536.0656,71.6875 2537.3781,70.0313 Q2538.7063,68.375 2541.2063,68.375 Q2541.9094,68.375 2542.55,68.5313 Q2543.2063,68.6875 2543.7688,68.9844 L2543.7688,71.7031 Q2543.1438,71.125 2542.55,70.8594 Q2541.9563,70.5781 2541.3313,70.5781 Q2539.9875,70.5781 2539.3,71.6563 Q2538.6125,72.7188 2538.6125,74.8125 Q2538.6125,76.9063 2539.3,77.9844 Q2539.9875,79.0469 2541.3313,79.0469 Q2541.9563,79.0469 2542.55,78.7813 Q2543.1438,78.5 2543.7688,77.9219 L2543.7688,80.6406 Z "/><text fill="#000000" font-family="sans-serif" font-size="12" lengthAdjust="spacingAndGlyphs" textLength="140" x="2559.2" y="79.1543">TrackDataPlotterTests</text><line style="stroke: #A80036; stroke-width: 1.5;" x1="2507" x2="2721" y1="91" y2="91"/><line style="stroke: #A80036; stroke-width: 1.5;" x1="2507" x2="2721" y1="99" y2="99"/><ellipse cx="2517" cy="110" fill="#84BE84" rx="3" ry="3" style="stroke: #038048; stroke-width: 1.0;"/><text fill="#000000" font-family="sans-serif" font-size="11" lengthAdjust="spacingAndGlyphs" textLength="121" x="2526" y="113.2104">void plotIsDisplayed()</text><ellipse cx="2517" cy="122.8047" fill="#84BE84" rx="3" ry="3" style="stroke: #038048; stroke-width: 1.0;"/><text fill="#000000" font-family="sans-serif" font-size="11" lengthAdjust="spacingAndGlyphs" textLength="174" x="2526" y="126.0151">void nullTrackDataNotAllowed()</text><ellipse cx="2517" cy="135.6094" fill="#84BE84" rx="3" ry="3" style="stroke: #038048; stroke-width: 1.0;"/><text fill="#000000" font-family="sans-serif" font-size="11" lengthAdjust="spacingAndGlyphs" textLength="190" x="2526" y="138.8198">void invalidTrackDataNotAllowed()</text><!--MD5=[d3cb230b9040bd9072bb1f490e167601]
class MiddlewareCommInterface--><rect fill="#FEFECE" filter="url(#f1j1odahcp3cn2)" height="77.6094" id="MiddlewareCommInterface" style="stroke: #A80036; stroke-width: 1.5;" width="198" x="2778" y="63"/><ellipse cx="2793" cy="79" fill="#B4A7E5" rx="11" ry="11" style="stroke: #A80036; stroke-width: 1.0;"/><path d="M2788.9219,74.7656 L2788.9219,72.6094 L2796.3125,72.6094 L2796.3125,74.7656 L2793.8438,74.7656 L2793.8438,82.8438 L2796.3125,82.8438 L2796.3125,85 L2788.9219,85 L2788.9219,82.8438 L2791.3906,82.8438 L2791.3906,74.7656 L2788.9219,74.7656 Z "/><text fill="#000000" font-family="sans-serif" font-size="12" font-style="italic" lengthAdjust="spacingAndGlyphs" textLength="166" x="2807" y="83.1543">MiddlewareCommInterface</text><line style="stroke: #A80036; stroke-width: 1.5;" x1="2779" x2="2975" y1="95" y2="95"/><line style="stroke: #A80036; stroke-width: 1.5;" x1="2779" x2="2975" y1="103" y2="103"/><ellipse cx="2789" cy="130.8047" fill="#84BE84" rx="3" ry="3" style="stroke: #038048; stroke-width: 1.0;"/><text fill="#000000" font-family="sans-serif" font-size="11" font-style="italic" lengthAdjust="spacingAndGlyphs" textLength="171" x="2798" y="134.0151">TrackData requestRfid(int rfid)</text><line style="stroke: #A80036; stroke-width: 1.0; stroke-dasharray: 1.0,2.0;" x1="2779" x2="2844" y1="117.4023" y2="117.4023"/><text fill="#000000" font-family="sans-serif" font-size="11" lengthAdjust="spacingAndGlyphs" textLength="66" x="2844" y="120.7104">Use Case 1</text><line style="stroke: #A80036; stroke-width: 1.0; stroke-dasharray: 1.0,2.0;" x1="2910" x2="2975" y1="117.4023" y2="117.4023"/><!--MD5=[c986427b061286eff33e87a088ad4bf9]
class TrackDataPlotter--><rect fill="#FEFECE" filter="url(#f1j1odahcp3cn2)" height="231.2656" id="TrackDataPlotter" style="stroke: #A80036; stroke-width: 1.5;" width="291" x="2777.5" y="216"/><ellipse cx="2865.75" cy="232" fill="#ADD1B2" rx="11" ry="11" style="stroke: #A80036; stroke-width: 1.0;"/><path d="M2868.7188,237.6406 Q2868.1406,237.9375 2867.5,238.0781 Q2866.8594,238.2344 2866.1563,238.2344 Q2863.6563,238.2344 2862.3281,236.5938 Q2861.0156,234.9375 2861.0156,231.8125 Q2861.0156,228.6875 2862.3281,227.0313 Q2863.6563,225.375 2866.1563,225.375 Q2866.8594,225.375 2867.5,225.5313 Q2868.1563,225.6875 2868.7188,225.9844 L2868.7188,228.7031 Q2868.0938,228.125 2867.5,227.8594 Q2866.9063,227.5781 2866.2813,227.5781 Q2864.9375,227.5781 2864.25,228.6563 Q2863.5625,229.7188 2863.5625,231.8125 Q2863.5625,233.9063 2864.25,234.9844 Q2864.9375,236.0469 2866.2813,236.0469 Q2866.9063,236.0469 2867.5,235.7813 Q2868.0938,235.5 2868.7188,234.9219 L2868.7188,237.6406 Z "/><text fill="#000000" font-family="sans-serif" font-size="12" lengthAdjust="spacingAndGlyphs" textLength="106" x="2886.25" y="236.1543">TrackDataPlotter</text><line style="stroke: #A80036; stroke-width: 1.5;" x1="2778.5" x2="3067.5" y1="248" y2="248"/><rect fill="none" height="6" style="stroke: #C82930; stroke-width: 1.0;" width="6" x="2785.5" y="256"/><text fill="#000000" font-family="sans-serif" font-size="11" lengthAdjust="spacingAndGlyphs" textLength="86" x="2797.5" y="262.2104">TrackData data</text><rect fill="none" height="6" style="stroke: #C82930; stroke-width: 1.0;" width="6" x="2785.5" y="268.8047"/><text fill="#000000" font-family="sans-serif" font-size="11" lengthAdjust="spacingAndGlyphs" textLength="97" x="2797.5" y="275.0151">XYDataset points</text><rect fill="none" height="6" style="stroke: #C82930; stroke-width: 1.0;" width="6" x="2785.5" y="281.6094"/><text fill="#000000" font-family="sans-serif" font-size="11" lengthAdjust="spacingAndGlyphs" textLength="82" x="2797.5" y="287.8198">XYDataset line</text><rect fill="none" height="6" style="stroke: #C82930; stroke-width: 1.0;" width="6" x="2785.5" y="294.4141"/><text fill="#000000" font-family="sans-serif" font-size="11" lengthAdjust="spacingAndGlyphs" textLength="99" x="2797.5" y="300.6245">JFreeChart chart1</text><rect fill="none" height="6" style="stroke: #C82930; stroke-width: 1.0;" width="6" x="2785.5" y="307.2188"/><text fill="#000000" font-family="sans-serif" font-size="11" lengthAdjust="spacingAndGlyphs" textLength="99" x="2797.5" y="313.4292">JFreeChart chart2</text><rect fill="none" height="6" style="stroke: #C82930; stroke-width: 1.0;" width="6" x="2785.5" y="320.0234"/><text fill="#000000" font-family="sans-serif" font-size="11" lengthAdjust="spacingAndGlyphs" textLength="60" x="2797.5" y="326.2339">XYPlot plot</text><rect fill="none" height="6" style="stroke: #C82930; stroke-width: 1.0;" width="6" x="2785.5" y="332.8281"/><text fill="#000000" font-family="sans-serif" font-size="11" lengthAdjust="spacingAndGlyphs" textLength="133" x="2797.5" y="339.0386">ChartPanel chartPanel1</text><rect fill="none" height="6" style="stroke: #C82930; stroke-width: 1.0;" width="6" x="2785.5" y="345.6328"/><text fill="#000000" font-family="sans-serif" font-size="11" lengthAdjust="spacingAndGlyphs" textLength="133" x="2797.5" y="351.8433">ChartPanel chartPanel2</text><line style="stroke: #A80036; stroke-width: 1.5;" x1="2778.5" x2="3067.5" y1="358.4375" y2="358.4375"/><ellipse cx="2788.5" cy="369.4375" fill="#84BE84" rx="3" ry="3" style="stroke: #038048; stroke-width: 1.0;"/><text fill="#000000" font-family="sans-serif" font-size="11" lengthAdjust="spacingAndGlyphs" textLength="188" x="2797.5" y="372.6479">TrackDataPlotter(TrackData data)</text><rect fill="#F24D5C" height="6" style="stroke: #C82930; stroke-width: 1.0;" width="6" x="2785.5" y="396.0469"/><text fill="#000000" font-family="sans-serif" font-size="11" lengthAdjust="spacingAndGlyphs" textLength="138" x="2797.5" y="402.2573">XYSeries getTrackData()</text><rect fill="#F24D5C" height="6" style="stroke: #C82930; stroke-width: 1.0;" width="6" x="2785.5" y="408.8516"/><text fill="#000000" font-family="sans-serif" font-size="11" lengthAdjust="spacingAndGlyphs" textLength="208" x="2797.5" y="415.062">XYSeries calculateLine(int[] x, int[] y)</text><rect fill="#F24D5C" height="6" style="stroke: #C82930; stroke-width: 1.0;" width="6" x="2785.5" y="421.6563"/><text fill="#000000" font-family="sans-serif" font-size="11" lengthAdjust="spacingAndGlyphs" textLength="262" x="2797.5" y="427.8667">int[] extractLatFromTrackData(TrackData data)</text><rect fill="#F24D5C" height="6" style="stroke: #C82930; stroke-width: 1.0;" width="6" x="2785.5" y="434.4609"/><text fill="#000000" font-family="sans-serif" font-size="11" lengthAdjust="spacingAndGlyphs" textLength="265" x="2797.5" y="440.6714">int[] extractLngFromTrackData(TrackData data)</text><line style="stroke: #A80036; stroke-width: 1.0; stroke-dasharray: 1.0,2.0;" x1="2778.5" x2="2890" y1="385.6445" y2="385.6445"/><text fill="#000000" font-family="sans-serif" font-size="11" lengthAdjust="spacingAndGlyphs" textLength="66" x="2890" y="388.9526">Use Case 1</text><line style="stroke: #A80036; stroke-width: 1.0; stroke-dasharray: 1.0,2.0;" x1="2956" x2="3067.5" y1="385.6445" y2="385.6445"/><!--MD5=[77bc37423dd8876786830fad4054e33b]
reverse link DisplayCommInterface to DisplayCommInterfaceImplementation--><path d="M223,161.15 C223,195.51 223,238.84 223,273.07 " fill="none" id="DisplayCommInterface&lt;-DisplayCommInterfaceImplementation" style="stroke: #A80036; stroke-width: 1.0; stroke-dasharray: 7.0,7.0;"/><polygon fill="none" points="216,161.08,223,141.08,230,161.08,216,161.08" style="stroke: #A80036; stroke-width: 1.0;"/><!--MD5=[4e991cf787e933c55089f97eae394828]
reverse link DisplayComm2WayInterface to DisplayComm2WayInterfaceImplementation--><path d="M767.38,158.73 C749.41,191.44 726.63,232.9 707.95,266.89 " fill="none" id="DisplayComm2WayInterface&lt;-DisplayComm2WayInterfaceImplementation" style="stroke: #A80036; stroke-width: 1.0; stroke-dasharray: 7.0,7.0;"/><polygon fill="none" points="761.31,155.24,777.08,141.08,773.58,161.98,761.31,155.24" style="stroke: #A80036; stroke-width: 1.0;"/><!--MD5=[5beed6c3c7e4a84a4bfaa95bdf8cce79]
reverse link DisplayCommManager to DisplayCommManagerImplementation--><path d="M1209.82,160.72 C1203.45,190.93 1195.59,228.18 1188.86,260.08 " fill="none" id="DisplayCommManager&lt;-DisplayCommManagerImplementation" style="stroke: #A80036; stroke-width: 1.0; stroke-dasharray: 7.0,7.0;"/><polygon fill="none" points="1202.99,159.2,1213.97,141.08,1216.69,162.09,1202.99,159.2" style="stroke: #A80036; stroke-width: 1.0;"/><!--MD5=[6aaeadb42451b39b4e2cdcf83e2bb4cd]
reverse link DisplayComm2WayInterface to DisplayComm2WayInterfaceStub--><path d="M943.78,142.3 C983.46,151.43 1026.63,159.95 1067,165 C1106.48,169.94 1387.93,158.54 1425,173 C1487.47,197.37 1542.56,253.97 1574.59,292.25 " fill="none" id="DisplayComm2WayInterface&lt;-DisplayComm2WayInterfaceStub" style="stroke: #A80036; stroke-width: 1.0; stroke-dasharray: 7.0,7.0;"/><polygon fill="none" points="942.16,149.11,924.3,137.71,945.38,135.49,942.16,149.11" style="stroke: #A80036; stroke-width: 1.0;"/><!--MD5=[9a02b467888c5123255f55ebe5217d7a]
link DisplayCommInterfaceImplementationTests to DisplayComm2WayInterfaceStub--><path d="M1614.78,126.07 C1612.79,163.78 1608.81,239.22 1606.29,287.16 " fill="none" id="DisplayCommInterfaceImplementationTests-&gt;DisplayComm2WayInterfaceStub" style="stroke: #A80036; stroke-width: 1.0; stroke-dasharray: 7.0,7.0;"/><polygon fill="#A80036" points="1606.02,292.29,1610.477,283.5073,1606.2768,287.2966,1602.4875,283.0964,1606.02,292.29" style="stroke: #A80036; stroke-width: 1.0;"/><!--MD5=[0cd290e6298e838268680010d5032c0d]
link DisplayCommInterfaceImplementationTests to DisplayCommInterfaceImplementation--><path d="M1560.29,126.09 C1522.78,140.38 1471.8,157.4 1425,165 C1397.58,169.45 451.23,163.86 425,173 C369.29,192.4 317.07,233.99 279.69,269.56 " fill="none" id="DisplayCommInterfaceImplementationTests-&gt;DisplayCommInterfaceImplementation" style="stroke: #A80036; stroke-width: 1.0; stroke-dasharray: 7.0,7.0;"/><polygon fill="#A80036" points="275.66,273.43,284.9218,270.0805,279.2661,269.9665,279.3801,264.3107,275.66,273.43" style="stroke: #A80036; stroke-width: 1.0;"/><!--MD5=[e6e0d8b3e0f7bf14f11c0899b3ad37ae]
reverse link DisplayCommManager to DisplayCommManagerStub--><path d="M1359.58,146.24 C1388.83,153.83 1419.72,160.67 1449,165 C1481.88,169.86 1716.92,161.23 1748,173 C1812.51,197.43 1870.66,254.01 1904.66,292.27 " fill="none" id="DisplayCommManager&lt;-DisplayCommManagerStub" style="stroke: #A80036; stroke-width: 1.0; stroke-dasharray: 7.0,7.0;"/><polygon fill="none" points="1357.65,152.97,1340.14,141.03,1361.27,139.45,1357.65,152.97" style="stroke: #A80036; stroke-width: 1.0;"/><!--MD5=[69695ace36e753468876c8d4fe5d2708]
link DisplayComm2WayInterfaceImplementationTests to DisplayCommManagerStub--><path d="M1965.65,126.07 C1960.18,163.78 1949.24,239.22 1942.29,287.16 " fill="none" id="DisplayComm2WayInterfaceImplementationTests-&gt;DisplayCommManagerStub" style="stroke: #A80036; stroke-width: 1.0; stroke-dasharray: 7.0,7.0;"/><polygon fill="#A80036" points="1941.54,292.29,1946.7861,283.9546,1942.2551,287.3414,1938.8683,282.8104,1941.54,292.29" style="stroke: #A80036; stroke-width: 1.0;"/><!--MD5=[ce67f838794c14794f693dd46a642b9a]
link DisplayComm2WayInterfaceImplementationTests to DisplayComm2WayInterfaceImplementation--><path d="M1915.11,126.07 C1878.8,140.35 1829.43,157.37 1784,165 C1736.77,172.93 967.94,159.46 922,173 C860.32,191.18 799.18,229.48 752.92,263.76 " fill="none" id="DisplayComm2WayInterfaceImplementationTests-&gt;DisplayComm2WayInterfaceImplementation" style="stroke: #A80036; stroke-width: 1.0; stroke-dasharray: 7.0,7.0;"/><polygon fill="#A80036" points="748.77,266.85,758.3787,264.6884,752.782,263.866,753.6043,258.2693,748.77,266.85" style="stroke: #A80036; stroke-width: 1.0;"/><!--MD5=[72cb9e2c0df516d67fcc7a3605b88acd]
reverse link MiddlewareCommInterface to MiddlewareCommInterfaceStub--><path d="M2790.36,150.84 C2714.03,192.99 2604.31,253.57 2533.84,292.49 " fill="none" id="MiddlewareCommInterface&lt;-MiddlewareCommInterfaceStub" style="stroke: #A80036; stroke-width: 1.0; stroke-dasharray: 7.0,7.0;"/><polygon fill="none" points="2787.15,144.62,2808.04,141.08,2793.92,156.87,2787.15,144.62" style="stroke: #A80036; stroke-width: 1.0;"/><!--MD5=[a3caa78d97a9caf08bd2afaaae1510f4]
link DisplayCommManagerImplementationTests to MiddlewareCommInterfaceStub--><path d="M2335.6,126.07 C2359.61,164.01 2407.81,240.14 2438.12,288.03 " fill="none" id="DisplayCommManagerImplementationTests-&gt;MiddlewareCommInterfaceStub" style="stroke: #A80036; stroke-width: 1.0; stroke-dasharray: 7.0,7.0;"/><polygon fill="#A80036" points="2440.82,292.29,2439.3948,282.5448,2438.1495,288.0629,2432.6314,286.8176,2440.82,292.29" style="stroke: #A80036; stroke-width: 1.0;"/><!--MD5=[6f3abcadcd809ea193290ea1cf8b820a]
link DisplayCommManagerImplementationTests to DisplayCommManagerImplementation--><path d="M2272.58,126.04 C2239.9,140.31 2195.35,157.33 2154,165 C2115.49,172.14 1486.79,162.71 1449,173 C1386.26,190.08 1322.84,224.95 1272.74,257.55 " fill="none" id="DisplayCommManagerImplementationTests-&gt;DisplayCommManagerImplementation" style="stroke: #A80036; stroke-width: 1.0; stroke-dasharray: 7.0,7.0;"/><polygon fill="#A80036" points="1268.55,260.29,1278.2739,258.7261,1272.7386,257.5595,1273.9051,252.0243,1268.55,260.29" style="stroke: #A80036; stroke-width: 1.0;"/><!--MD5=[f24e7409bf4fec90fef0ed7e05f90b9b]
link TrackDataPlotterTests to TrackDataPlotter--><path d="M2693.77,145.04 C2708.78,153.79 2724.12,163.3 2738,173 C2755.52,185.24 2773.36,198.8 2790.69,212.68 " fill="none" id="TrackDataPlotterTests-&gt;TrackDataPlotter" style="stroke: #A80036; stroke-width: 1.0; stroke-dasharray: 7.0,7.0;"/><polygon fill="#A80036" points="2794.62,215.84,2790.1222,207.0782,2790.7268,212.7026,2785.1024,213.3073,2794.62,215.84" style="stroke: #A80036; stroke-width: 1.0;"/><!--MD5=[9fed7c5ececb9e6b5a7ef26d8606bdb8]
@startuml Display02Packages_Closure


package edu.oakland.production.display02 {
    
}



package edu.oakland.production.display02 {
    interface DisplayCommInterface {
        __
        .. Use Case 1 ..
        {abstract} + TrackData receiveRfidRequest(int rfidNum)
    }
}








package edu.oakland.production.display02 {
    interface DisplayComm2WayInterface {
        __
        .. Use Case 1 ..
        {abstract} + TrackData passRfidRequest(int rfidNum)
    }
}








package edu.oakland.production.display02 {
    interface DisplayCommManager {
        __
        .. Use Case 1 ..
        {abstract} + TrackData evaluateRfidRequest(int rfidNum)
    }
}








package edu.oakland.production.display02 {
    class DisplayCommInterfaceImplementation {
        - DisplayComm2WayInterface receiver
        __
        + DisplayCommInterface(DisplayComm2WayInterface receiver)
        .. Use Case 1 ..
        + TrackData receiveRfidRequest(int rfidNum)
        - TrackData passToComm2WayInterface(int rfidNum)
    }
}


DisplayCommInterfaceImplementation .up.|> DisplayCommInterface







package edu.oakland.production.display02 {
    class DisplayComm2WayInterfaceImplementation {
        - DisplayCommManager manager
        __
        + DisplayComm2WayInterfaceImplementation(DisplayCommManager manager)
        .. Use Case 1 ..
        + TrackData passRfidRequest(int rfidNum)
        - void determineUserRequestFormat(int rfidNum)
        - void receiveRequestFromDisplayCommInterface(int rfidNum)
    }
}


DisplayComm2WayInterfaceImplementation .up.|> DisplayComm2WayInterface







package edu.oakland.production.display02 {
    class DisplayCommManagerImplementation {
        - MiddlewareCommInterface middleware
        __
        + DisplayCommManagerImplementation(MiddlewareCommInterface middleware)
        .. Use Case 1 ..
        + TrackData receiveRequestFromDisplay2WayInterface(int rfidNum)
        - TrackData evaluateRfidRequest(int rfidNum)
        - TrackData passRequestToMiddlewareCommInterface(int rfidNum)
        
    }
}


DisplayCommManagerImplementation .up.|> DisplayCommManager







package edu.oakland.test.display02 {
    
}



package edu.oakland.test.display02 {
    class DisplayCommInterfaceImplementationTests {

    }
}




package edu.oakland.test.display02 {
    class DisplayComm2WayInterfaceStub {
        __
        .. Use Case 1 ..
        {abstract} + TrackData passRfidRequest(int rfidNum)
    }
}


DisplayComm2WayInterfaceStub .up.|> DisplayComm2WayInterface



DisplayCommInterfaceImplementationTests ..> DisplayComm2WayInterfaceStub

DisplayCommInterfaceImplementationTests ..> DisplayCommInterfaceImplementation





package edu.oakland.test.display02 {
    class DisplayComm2WayInterfaceImplementationTests {

    }
}




package edu.oakland.test.display02 {
    class DisplayCommManagerStub {
        __
        .. Use Case 1 ..
        + TrackData evaluateRfidRequest(int rfidNum)
    }
}


DisplayCommManagerStub .up.|> DisplayCommManager



DisplayComm2WayInterfaceImplementationTests ..> DisplayCommManagerStub

DisplayComm2WayInterfaceImplementationTests ..> DisplayComm2WayInterfaceImplementation





package edu.oakland.test.display02 {
    class DisplayCommManagerImplementationTests {

    }
}




package edu.oakland.test.display02 {
    class MiddlewareCommInterfaceStub {
        __
        .. Use Case 1 ..
        + TrackData requestRfid(int rfid)
    }
}






package edu.oakland.production.middleware02 {
    interface MiddlewareCommInterface {
        __
        .. Use Case 1 ..
        {abstract} + TrackData requestRfid(int rfid)
    }
}






MiddlewareCommInterfaceStub .up.|> MiddlewareCommInterface

DisplayCommManagerImplementationTests ..> MiddlewareCommInterfaceStub

DisplayCommManagerImplementationTests ..> DisplayCommManagerImplementation





package edu.oakland.test.display02 {
    class TrackDataPlotterTests {
        + void plotIsDisplayed()
        + void nullTrackDataNotAllowed()
        + void invalidTrackDataNotAllowed()
    }
}




package edu.oakland.helper.display02 {
    class TrackDataPlotter {
        - TrackData data
        - XYDataset points
        - XYDataset line
        - JFreeChart chart1
        - JFreeChart chart2
        - XYPlot plot
        - ChartPanel chartPanel1
        - ChartPanel chartPanel2
        __
        + TrackDataPlotter(TrackData data)
        .. Use Case 1 ..
        - XYSeries getTrackData()
        - XYSeries calculateLine(int[] x, int[] y)
        - int[] extractLatFromTrackData(TrackData data)
        - int[] extractLngFromTrackData(TrackData data)
    }
}






TrackDataPlotterTests ..> TrackDataPlotter





package edu.oakland.helper.display02 {
    
}



@enduml

PlantUML version 1.2020.02(Sun Mar 01 10:22:07 GMT 2020)
(GPL source distribution)
Java Runtime: OpenJDK Runtime Environment
JVM: OpenJDK 64-Bit Server VM
Java Version: 11.0.9+11-Ubuntu-0ubuntu1
Operating System: Linux
Default Encoding: ANSI_X3.4-1968
Language: en
Country: US
--></g></svg>