<?xml version="1.0" encoding="UTF-8" standalone="no"?><svg xmlns="http://www.w3.org/2000/svg" xmlns:xlink="http://www.w3.org/1999/xlink" contentScriptType="application/ecmascript" contentStyleType="text/css" height="492px" preserveAspectRatio="none" style="width:2694px;height:492px;" version="1.1" viewBox="0 0 2694 492" width="2694px" zoomAndPan="magnify"><defs><filter height="300%" id="f14dxsxl5dp2vx" width="300%" x="-1" y="-1"><feGaussianBlur result="blurOut" stdDeviation="2.0"/><feColorMatrix in="blurOut" result="blurOut2" type="matrix" values="0 0 0 0 0 0 0 0 0 0 0 0 0 0 0 0 0 0 .4 0"/><feOffset dx="4.0" dy="4.0" in="blurOut2" result="blurOut3"/><feBlend in="SourceGraphic" in2="blurOut3" mode="normal"/></filter></defs><g><!--MD5=[fe59aae6f7bfe371a9c197ec1f7f843a]
cluster edu.oakland.production.display02--><polygon fill="#FFFFFF" filter="url(#f14dxsxl5dp2vx)" points="22,24,295,24,302,46.2969,1338,46.2969,1338,342,22,342,22,24" style="stroke: #000000; stroke-width: 1.5;"/><line style="stroke: #000000; stroke-width: 1.5;" x1="22" x2="302" y1="46.2969" y2="46.2969"/><text fill="#000000" font-family="sans-serif" font-size="14" font-weight="bold" lengthAdjust="spacingAndGlyphs" textLength="267" x="26" y="38.9951">edu.oakland.production.display02</text><!--MD5=[9258003ec405d300d3379b4a3d8dd6ad]
cluster edu.oakland.test.display02--><polygon fill="#FFFFFF" filter="url(#f14dxsxl5dp2vx)" points="1362,39,1580,39,1587,61.2969,2400,61.2969,2400,480,1362,480,1362,39" style="stroke: #000000; stroke-width: 1.5;"/><line style="stroke: #000000; stroke-width: 1.5;" x1="1362" x2="1587" y1="61.2969" y2="61.2969"/><text fill="#000000" font-family="sans-serif" font-size="14" font-weight="bold" lengthAdjust="spacingAndGlyphs" textLength="212" x="1366" y="53.9951">edu.oakland.test.display02</text><!--MD5=[a502031b5a5384de0a21e6ee820fd3b2]
cluster edu.oakland.helper.display02--><polygon fill="#FFFFFF" filter="url(#f14dxsxl5dp2vx)" points="2424,39,2662,39,2669,61.2969,2672,61.2969,2672,138,2424,138,2424,39" style="stroke: #000000; stroke-width: 1.5;"/><line style="stroke: #000000; stroke-width: 1.5;" x1="2424" x2="2669" y1="61.2969" y2="61.2969"/><text fill="#000000" font-family="sans-serif" font-size="14" font-weight="bold" lengthAdjust="spacingAndGlyphs" textLength="232" x="2428" y="53.9951">edu.oakland.helper.display02</text><!--MD5=[c8d1e3134fecb0c949fd2a76cc0bb992]
class DisplayCommInterface--><rect fill="#FEFECE" filter="url(#f14dxsxl5dp2vx)" height="77.6094" id="DisplayCommInterface" style="stroke: #A80036; stroke-width: 1.5;" width="268" x="91" y="59"/><ellipse cx="151.25" cy="75" fill="#B4A7E5" rx="11" ry="11" style="stroke: #A80036; stroke-width: 1.0;"/><path d="M147.1719,70.7656 L147.1719,68.6094 L154.5625,68.6094 L154.5625,70.7656 L152.0938,70.7656 L152.0938,78.8438 L154.5625,78.8438 L154.5625,81 L147.1719,81 L147.1719,78.8438 L149.6406,78.8438 L149.6406,70.7656 L147.1719,70.7656 Z "/><text fill="#000000" font-family="sans-serif" font-size="12" font-style="italic" lengthAdjust="spacingAndGlyphs" textLength="139" x="171.75" y="79.1543">DisplayCommInterface</text><line style="stroke: #A80036; stroke-width: 1.5;" x1="92" x2="358" y1="91" y2="91"/><line style="stroke: #A80036; stroke-width: 1.5;" x1="92" x2="358" y1="99" y2="99"/><ellipse cx="102" cy="126.8047" fill="#84BE84" rx="3" ry="3" style="stroke: #038048; stroke-width: 1.0;"/><text fill="#000000" font-family="sans-serif" font-size="11" font-style="italic" lengthAdjust="spacingAndGlyphs" textLength="242" x="111" y="130.0151">TrackData receiveRfidRequest(int rfidNum)</text><line style="stroke: #A80036; stroke-width: 1.0; stroke-dasharray: 1.0,2.0;" x1="92" x2="192" y1="113.4023" y2="113.4023"/><text fill="#000000" font-family="sans-serif" font-size="11" lengthAdjust="spacingAndGlyphs" textLength="66" x="192" y="116.7104">Use Case 1</text><line style="stroke: #A80036; stroke-width: 1.0; stroke-dasharray: 1.0,2.0;" x1="258" x2="358" y1="113.4023" y2="113.4023"/><!--MD5=[f6b51b5f862da5ce226c62e411e84628]
class DisplayComm2WayInterface--><rect fill="#FEFECE" filter="url(#f14dxsxl5dp2vx)" height="77.6094" id="DisplayComm2WayInterface" style="stroke: #A80036; stroke-width: 1.5;" width="252" x="394" y="59"/><ellipse cx="429.7" cy="75" fill="#B4A7E5" rx="11" ry="11" style="stroke: #A80036; stroke-width: 1.0;"/><path d="M425.6219,70.7656 L425.6219,68.6094 L433.0125,68.6094 L433.0125,70.7656 L430.5438,70.7656 L430.5438,78.8438 L433.0125,78.8438 L433.0125,81 L425.6219,81 L425.6219,78.8438 L428.0906,78.8438 L428.0906,70.7656 L425.6219,70.7656 Z "/><text fill="#000000" font-family="sans-serif" font-size="12" font-style="italic" lengthAdjust="spacingAndGlyphs" textLength="174" x="448.3" y="79.1543">DisplayComm2WayInterface</text><line style="stroke: #A80036; stroke-width: 1.5;" x1="395" x2="645" y1="91" y2="91"/><line style="stroke: #A80036; stroke-width: 1.5;" x1="395" x2="645" y1="99" y2="99"/><ellipse cx="405" cy="126.8047" fill="#84BE84" rx="3" ry="3" style="stroke: #038048; stroke-width: 1.0;"/><text fill="#000000" font-family="sans-serif" font-size="11" font-style="italic" lengthAdjust="spacingAndGlyphs" textLength="226" x="414" y="130.0151">TrackData passRfidRequest(int rfidNum)</text><line style="stroke: #A80036; stroke-width: 1.0; stroke-dasharray: 1.0,2.0;" x1="395" x2="487" y1="113.4023" y2="113.4023"/><text fill="#000000" font-family="sans-serif" font-size="11" lengthAdjust="spacingAndGlyphs" textLength="66" x="487" y="116.7104">Use Case 1</text><line style="stroke: #A80036; stroke-width: 1.0; stroke-dasharray: 1.0,2.0;" x1="553" x2="645" y1="113.4023" y2="113.4023"/><!--MD5=[6aeb72f2773d7cabb45309482beeff0a]
class DisplayCommManager--><rect fill="#FEFECE" filter="url(#f14dxsxl5dp2vx)" height="77.6094" id="DisplayCommManager" style="stroke: #A80036; stroke-width: 1.5;" width="275" x="681.5" y="59"/><ellipse cx="746.25" cy="75" fill="#B4A7E5" rx="11" ry="11" style="stroke: #A80036; stroke-width: 1.0;"/><path d="M742.1719,70.7656 L742.1719,68.6094 L749.5625,68.6094 L749.5625,70.7656 L747.0938,70.7656 L747.0938,78.8438 L749.5625,78.8438 L749.5625,81 L742.1719,81 L742.1719,78.8438 L744.6406,78.8438 L744.6406,70.7656 L742.1719,70.7656 Z "/><text fill="#000000" font-family="sans-serif" font-size="12" font-style="italic" lengthAdjust="spacingAndGlyphs" textLength="137" x="766.75" y="79.1543">DisplayCommManager</text><line style="stroke: #A80036; stroke-width: 1.5;" x1="682.5" x2="955.5" y1="91" y2="91"/><line style="stroke: #A80036; stroke-width: 1.5;" x1="682.5" x2="955.5" y1="99" y2="99"/><ellipse cx="692.5" cy="126.8047" fill="#84BE84" rx="3" ry="3" style="stroke: #038048; stroke-width: 1.0;"/><text fill="#000000" font-family="sans-serif" font-size="11" font-style="italic" lengthAdjust="spacingAndGlyphs" textLength="249" x="701.5" y="130.0151">TrackData evaluateRfidRequest(int rfidNum)</text><line style="stroke: #A80036; stroke-width: 1.0; stroke-dasharray: 1.0,2.0;" x1="682.5" x2="786" y1="113.4023" y2="113.4023"/><text fill="#000000" font-family="sans-serif" font-size="11" lengthAdjust="spacingAndGlyphs" textLength="66" x="786" y="116.7104">Use Case 1</text><line style="stroke: #A80036; stroke-width: 1.0; stroke-dasharray: 1.0,2.0;" x1="852" x2="955.5" y1="113.4023" y2="113.4023"/><!--MD5=[a35092e604da7274febf4e2cf9a25087]
class DisplayCommInterfaceImplementation--><rect fill="#FEFECE" filter="url(#f14dxsxl5dp2vx)" height="128.8281" id="DisplayCommInterfaceImplementation" style="stroke: #A80036; stroke-width: 1.5;" width="373" x="38.5" y="197"/><ellipse cx="103.25" cy="213" fill="#ADD1B2" rx="11" ry="11" style="stroke: #A80036; stroke-width: 1.0;"/><path d="M106.2188,218.6406 Q105.6406,218.9375 105,219.0781 Q104.3594,219.2344 103.6563,219.2344 Q101.1563,219.2344 99.8281,217.5938 Q98.5156,215.9375 98.5156,212.8125 Q98.5156,209.6875 99.8281,208.0313 Q101.1563,206.375 103.6563,206.375 Q104.3594,206.375 105,206.5313 Q105.6563,206.6875 106.2188,206.9844 L106.2188,209.7031 Q105.5938,209.125 105,208.8594 Q104.4063,208.5781 103.7813,208.5781 Q102.4375,208.5781 101.75,209.6563 Q101.0625,210.7188 101.0625,212.8125 Q101.0625,214.9063 101.75,215.9844 Q102.4375,217.0469 103.7813,217.0469 Q104.4063,217.0469 105,216.7813 Q105.5938,216.5 106.2188,215.9219 L106.2188,218.6406 Z "/><text fill="#000000" font-family="sans-serif" font-size="12" lengthAdjust="spacingAndGlyphs" textLength="235" x="123.75" y="217.1543">DisplayCommInterfaceImplementation</text><line style="stroke: #A80036; stroke-width: 1.5;" x1="39.5" x2="410.5" y1="229" y2="229"/><text fill="#000000" font-family="sans-serif" font-size="11" lengthAdjust="spacingAndGlyphs" textLength="207" x="44.5" y="243.2104">DisplayComm2WayInterface receiver</text><line style="stroke: #A80036; stroke-width: 1.5;" x1="39.5" x2="410.5" y1="249.8047" y2="249.8047"/><ellipse cx="49.5" cy="260.8047" fill="#84BE84" rx="3" ry="3" style="stroke: #038048; stroke-width: 1.0;"/><text fill="#000000" font-family="sans-serif" font-size="11" font-style="italic" lengthAdjust="spacingAndGlyphs" textLength="347" x="58.5" y="264.0151">DisplayCommInterface(DisplayComm2WayInterface receiver)</text><ellipse cx="49.5" cy="290.4141" fill="#84BE84" rx="3" ry="3" style="stroke: #038048; stroke-width: 1.0;"/><text fill="#000000" font-family="sans-serif" font-size="11" font-style="italic" lengthAdjust="spacingAndGlyphs" textLength="242" x="58.5" y="293.6245">TrackData receiveRfidRequest(int rfidNum)</text><ellipse cx="49.5" cy="303.2188" fill="#84BE84" rx="3" ry="3" style="stroke: #038048; stroke-width: 1.0;"/><text fill="#000000" font-family="sans-serif" font-size="11" font-style="italic" lengthAdjust="spacingAndGlyphs" textLength="291" x="58.5" y="306.4292">TrackData passToComm2WayInterface(int rfidNum)</text><text fill="#000000" font-family="sans-serif" font-size="11" lengthAdjust="spacingAndGlyphs" textLength="0" x="62.5" y="319.2339"/><line style="stroke: #A80036; stroke-width: 1.0; stroke-dasharray: 1.0,2.0;" x1="39.5" x2="192" y1="277.0117" y2="277.0117"/><text fill="#000000" font-family="sans-serif" font-size="11" lengthAdjust="spacingAndGlyphs" textLength="66" x="192" y="280.3198">Use Case 1</text><line style="stroke: #A80036; stroke-width: 1.0; stroke-dasharray: 1.0,2.0;" x1="258" x2="410.5" y1="277.0117" y2="277.0117"/><!--MD5=[46657c2900260d4d40350fe3f8c544df]
class DisplayComm2WayInterfaceImplementation--><rect fill="#FEFECE" filter="url(#f14dxsxl5dp2vx)" height="103.2188" id="DisplayComm2WayInterfaceImplementation" style="stroke: #A80036; stroke-width: 1.5;" width="370" x="447" y="210"/><ellipse cx="493.75" cy="226" fill="#ADD1B2" rx="11" ry="11" style="stroke: #A80036; stroke-width: 1.0;"/><path d="M496.7188,231.6406 Q496.1406,231.9375 495.5,232.0781 Q494.8594,232.2344 494.1563,232.2344 Q491.6563,232.2344 490.3281,230.5938 Q489.0156,228.9375 489.0156,225.8125 Q489.0156,222.6875 490.3281,221.0313 Q491.6563,219.375 494.1563,219.375 Q494.8594,219.375 495.5,219.5313 Q496.1563,219.6875 496.7188,219.9844 L496.7188,222.7031 Q496.0938,222.125 495.5,221.8594 Q494.9063,221.5781 494.2813,221.5781 Q492.9375,221.5781 492.25,222.6563 Q491.5625,223.7188 491.5625,225.8125 Q491.5625,227.9063 492.25,228.9844 Q492.9375,230.0469 494.2813,230.0469 Q494.9063,230.0469 495.5,229.7813 Q496.0938,229.5 496.7188,228.9219 L496.7188,231.6406 Z "/><text fill="#000000" font-family="sans-serif" font-size="12" lengthAdjust="spacingAndGlyphs" textLength="268" x="514.25" y="230.1543">DisplayComm2WayInterfaceImplementation</text><line style="stroke: #A80036; stroke-width: 1.5;" x1="448" x2="816" y1="242" y2="242"/><line style="stroke: #A80036; stroke-width: 1.5;" x1="448" x2="816" y1="250" y2="250"/><ellipse cx="458" cy="277.8047" fill="#84BE84" rx="3" ry="3" style="stroke: #038048; stroke-width: 1.0;"/><text fill="#000000" font-family="sans-serif" font-size="11" font-style="italic" lengthAdjust="spacingAndGlyphs" textLength="226" x="467" y="281.0151">TrackData passRfidRequest(int rfidNum)</text><ellipse cx="458" cy="290.6094" fill="#84BE84" rx="3" ry="3" style="stroke: #038048; stroke-width: 1.0;"/><text fill="#000000" font-family="sans-serif" font-size="11" font-style="italic" lengthAdjust="spacingAndGlyphs" textLength="269" x="467" y="293.8198">void determineUserRequestFormat(int rfidNum)</text><ellipse cx="458" cy="303.4141" fill="#84BE84" rx="3" ry="3" style="stroke: #038048; stroke-width: 1.0;"/><text fill="#000000" font-family="sans-serif" font-size="11" font-style="italic" lengthAdjust="spacingAndGlyphs" textLength="344" x="467" y="306.6245">void receiveRequestFromDisplayCommInterface(int rfidNum)</text><line style="stroke: #A80036; stroke-width: 1.0; stroke-dasharray: 1.0,2.0;" x1="448" x2="599" y1="264.4023" y2="264.4023"/><text fill="#000000" font-family="sans-serif" font-size="11" lengthAdjust="spacingAndGlyphs" textLength="66" x="599" y="267.7104">Use Case 1</text><line style="stroke: #A80036; stroke-width: 1.0; stroke-dasharray: 1.0,2.0;" x1="665" x2="816" y1="264.4023" y2="264.4023"/><!--MD5=[3a27b63ddb357afc5dde5581215f51f9]
class DisplayCommManagerImplementation--><rect fill="#FEFECE" filter="url(#f14dxsxl5dp2vx)" height="124.8281" id="DisplayCommManagerImplementation" style="stroke: #A80036; stroke-width: 1.5;" width="470" x="852" y="199"/><ellipse cx="965.75" cy="215" fill="#ADD1B2" rx="11" ry="11" style="stroke: #A80036; stroke-width: 1.0;"/><path d="M968.7188,220.6406 Q968.1406,220.9375 967.5,221.0781 Q966.8594,221.2344 966.1563,221.2344 Q963.6563,221.2344 962.3281,219.5938 Q961.0156,217.9375 961.0156,214.8125 Q961.0156,211.6875 962.3281,210.0313 Q963.6563,208.375 966.1563,208.375 Q966.8594,208.375 967.5,208.5313 Q968.1563,208.6875 968.7188,208.9844 L968.7188,211.7031 Q968.0938,211.125 967.5,210.8594 Q966.9063,210.5781 966.2813,210.5781 Q964.9375,210.5781 964.25,211.6563 Q963.5625,212.7188 963.5625,214.8125 Q963.5625,216.9063 964.25,217.9844 Q964.9375,219.0469 966.2813,219.0469 Q966.9063,219.0469 967.5,218.7813 Q968.0938,218.5 968.7188,217.9219 L968.7188,220.6406 Z "/><text fill="#000000" font-family="sans-serif" font-size="12" lengthAdjust="spacingAndGlyphs" textLength="234" x="986.25" y="219.1543">DisplayCommManagerImplementation</text><line style="stroke: #A80036; stroke-width: 1.5;" x1="853" x2="1321" y1="231" y2="231"/><text fill="#000000" font-family="sans-serif" font-size="11" lengthAdjust="spacingAndGlyphs" textLength="221" x="858" y="245.2104">MiddlewareCommInterface middleware</text><line style="stroke: #A80036; stroke-width: 1.5;" x1="853" x2="1321" y1="251.8047" y2="251.8047"/><ellipse cx="863" cy="262.8047" fill="#84BE84" rx="3" ry="3" style="stroke: #038048; stroke-width: 1.0;"/><text fill="#000000" font-family="sans-serif" font-size="11" font-style="italic" lengthAdjust="spacingAndGlyphs" textLength="444" x="872" y="266.0151">DisplayCommManagerImplementation(MiddlewareCommInterface middleware)</text><ellipse cx="863" cy="275.6094" fill="#84BE84" rx="3" ry="3" style="stroke: #038048; stroke-width: 1.0;"/><text fill="#000000" font-family="sans-serif" font-size="11" font-style="italic" lengthAdjust="spacingAndGlyphs" textLength="249" x="872" y="278.8198">TrackData evaluateRfidRequest(int rfidNum)</text><ellipse cx="863" cy="288.4141" fill="#84BE84" rx="3" ry="3" style="stroke: #038048; stroke-width: 1.0;"/><text fill="#000000" font-family="sans-serif" font-size="11" font-style="italic" lengthAdjust="spacingAndGlyphs" textLength="369" x="872" y="291.6245">TrackData passRequestToMiddlewareCommInterface(int rfidNum)</text><ellipse cx="863" cy="301.2188" fill="#84BE84" rx="3" ry="3" style="stroke: #038048; stroke-width: 1.0;"/><text fill="#000000" font-family="sans-serif" font-size="11" font-style="italic" lengthAdjust="spacingAndGlyphs" textLength="339" x="872" y="304.4292">void receiveRequestFromDisplay2WayInterface(int rfidNum)</text><text fill="#000000" font-family="sans-serif" font-size="11" lengthAdjust="spacingAndGlyphs" textLength="0" x="876" y="317.2339"/><!--MD5=[d454b7777f115113290d89683d7a426c]
class DisplayCommInterfaceImplementationTests--><rect fill="#FEFECE" filter="url(#f14dxsxl5dp2vx)" height="48" id="DisplayCommInterfaceImplementationTests" style="stroke: #A80036; stroke-width: 1.5;" width="301" x="1378.5" y="74"/><ellipse cx="1393.5" cy="90" fill="#ADD1B2" rx="11" ry="11" style="stroke: #A80036; stroke-width: 1.0;"/><path d="M1396.4688,95.6406 Q1395.8906,95.9375 1395.25,96.0781 Q1394.6094,96.2344 1393.9063,96.2344 Q1391.4063,96.2344 1390.0781,94.5938 Q1388.7656,92.9375 1388.7656,89.8125 Q1388.7656,86.6875 1390.0781,85.0313 Q1391.4063,83.375 1393.9063,83.375 Q1394.6094,83.375 1395.25,83.5313 Q1395.9063,83.6875 1396.4688,83.9844 L1396.4688,86.7031 Q1395.8438,86.125 1395.25,85.8594 Q1394.6563,85.5781 1394.0313,85.5781 Q1392.6875,85.5781 1392,86.6563 Q1391.3125,87.7188 1391.3125,89.8125 Q1391.3125,91.9063 1392,92.9844 Q1392.6875,94.0469 1394.0313,94.0469 Q1394.6563,94.0469 1395.25,93.7813 Q1395.8438,93.5 1396.4688,92.9219 L1396.4688,95.6406 Z "/><text fill="#000000" font-family="sans-serif" font-size="12" lengthAdjust="spacingAndGlyphs" textLength="269" x="1407.5" y="94.1543">DisplayCommInterfaceImplementationTests</text><line style="stroke: #A80036; stroke-width: 1.5;" x1="1379.5" x2="1678.5" y1="106" y2="106"/><line style="stroke: #A80036; stroke-width: 1.5;" x1="1379.5" x2="1678.5" y1="114" y2="114"/><!--MD5=[178181f4c7684560c711246055fc01d3]
class DisplayComm2WayInterfaceImplementationTests--><rect fill="#FEFECE" filter="url(#f14dxsxl5dp2vx)" height="48" id="DisplayComm2WayInterfaceImplementationTests" style="stroke: #A80036; stroke-width: 1.5;" width="334" x="1715" y="74"/><ellipse cx="1730" cy="90" fill="#ADD1B2" rx="11" ry="11" style="stroke: #A80036; stroke-width: 1.0;"/><path d="M1732.9688,95.6406 Q1732.3906,95.9375 1731.75,96.0781 Q1731.1094,96.2344 1730.4063,96.2344 Q1727.9063,96.2344 1726.5781,94.5938 Q1725.2656,92.9375 1725.2656,89.8125 Q1725.2656,86.6875 1726.5781,85.0313 Q1727.9063,83.375 1730.4063,83.375 Q1731.1094,83.375 1731.75,83.5313 Q1732.4063,83.6875 1732.9688,83.9844 L1732.9688,86.7031 Q1732.3438,86.125 1731.75,85.8594 Q1731.1563,85.5781 1730.5313,85.5781 Q1729.1875,85.5781 1728.5,86.6563 Q1727.8125,87.7188 1727.8125,89.8125 Q1727.8125,91.9063 1728.5,92.9844 Q1729.1875,94.0469 1730.5313,94.0469 Q1731.1563,94.0469 1731.75,93.7813 Q1732.3438,93.5 1732.9688,92.9219 L1732.9688,95.6406 Z "/><text fill="#000000" font-family="sans-serif" font-size="12" lengthAdjust="spacingAndGlyphs" textLength="302" x="1744" y="94.1543">DisplayComm2WayInterfaceImplementationTests</text><line style="stroke: #A80036; stroke-width: 1.5;" x1="1716" x2="2048" y1="106" y2="106"/><line style="stroke: #A80036; stroke-width: 1.5;" x1="1716" x2="2048" y1="114" y2="114"/><!--MD5=[937d6d8ff87a99d0d5dcd66ee05a1fa4]
class DisplayCommManagerImplementationTests--><rect fill="#FEFECE" filter="url(#f14dxsxl5dp2vx)" height="48" id="DisplayCommManagerImplementationTests" style="stroke: #A80036; stroke-width: 1.5;" width="300" x="2084" y="74"/><ellipse cx="2099" cy="90" fill="#ADD1B2" rx="11" ry="11" style="stroke: #A80036; stroke-width: 1.0;"/><path d="M2101.9688,95.6406 Q2101.3906,95.9375 2100.75,96.0781 Q2100.1094,96.2344 2099.4063,96.2344 Q2096.9063,96.2344 2095.5781,94.5938 Q2094.2656,92.9375 2094.2656,89.8125 Q2094.2656,86.6875 2095.5781,85.0313 Q2096.9063,83.375 2099.4063,83.375 Q2100.1094,83.375 2100.75,83.5313 Q2101.4063,83.6875 2101.9688,83.9844 L2101.9688,86.7031 Q2101.3438,86.125 2100.75,85.8594 Q2100.1563,85.5781 2099.5313,85.5781 Q2098.1875,85.5781 2097.5,86.6563 Q2096.8125,87.7188 2096.8125,89.8125 Q2096.8125,91.9063 2097.5,92.9844 Q2098.1875,94.0469 2099.5313,94.0469 Q2100.1563,94.0469 2100.75,93.7813 Q2101.3438,93.5 2101.9688,92.9219 L2101.9688,95.6406 Z "/><text fill="#000000" font-family="sans-serif" font-size="12" lengthAdjust="spacingAndGlyphs" textLength="268" x="2113" y="94.1543">DisplayCommManagerImplementationTests</text><line style="stroke: #A80036; stroke-width: 1.5;" x1="2085" x2="2383" y1="106" y2="106"/><line style="stroke: #A80036; stroke-width: 1.5;" x1="2085" x2="2383" y1="114" y2="114"/><!--MD5=[930c8140e7c1cb8e71aa7cd49967748e]
class TrackDataPlotterTests--><rect fill="#FEFECE" filter="url(#f14dxsxl5dp2vx)" height="48" id="TrackDataPlotterTests" style="stroke: #A80036; stroke-width: 1.5;" width="172" x="1443" y="237.5"/><ellipse cx="1458" cy="253.5" fill="#ADD1B2" rx="11" ry="11" style="stroke: #A80036; stroke-width: 1.0;"/><path d="M1460.9688,259.1406 Q1460.3906,259.4375 1459.75,259.5781 Q1459.1094,259.7344 1458.4063,259.7344 Q1455.9063,259.7344 1454.5781,258.0938 Q1453.2656,256.4375 1453.2656,253.3125 Q1453.2656,250.1875 1454.5781,248.5313 Q1455.9063,246.875 1458.4063,246.875 Q1459.1094,246.875 1459.75,247.0313 Q1460.4063,247.1875 1460.9688,247.4844 L1460.9688,250.2031 Q1460.3438,249.625 1459.75,249.3594 Q1459.1563,249.0781 1458.5313,249.0781 Q1457.1875,249.0781 1456.5,250.1563 Q1455.8125,251.2188 1455.8125,253.3125 Q1455.8125,255.4063 1456.5,256.4844 Q1457.1875,257.5469 1458.5313,257.5469 Q1459.1563,257.5469 1459.75,257.2813 Q1460.3438,257 1460.9688,256.4219 L1460.9688,259.1406 Z "/><text fill="#000000" font-family="sans-serif" font-size="12" lengthAdjust="spacingAndGlyphs" textLength="140" x="1472" y="257.6543">TrackDataPlotterTests</text><line style="stroke: #A80036; stroke-width: 1.5;" x1="1444" x2="1614" y1="269.5" y2="269.5"/><line style="stroke: #A80036; stroke-width: 1.5;" x1="1444" x2="1614" y1="277.5" y2="277.5"/><!--MD5=[a333ac13e0fdf2a5898aafabd38d3c1b]
class DisplayComm2WayInterfaceStub--><rect fill="#FEFECE" filter="url(#f14dxsxl5dp2vx)" height="77.6094" id="DisplayComm2WayInterfaceStub" style="stroke: #A80036; stroke-width: 1.5;" width="252" x="1650" y="222.5"/><ellipse cx="1674" cy="238.5" fill="#ADD1B2" rx="11" ry="11" style="stroke: #A80036; stroke-width: 1.0;"/><path d="M1676.9688,244.1406 Q1676.3906,244.4375 1675.75,244.5781 Q1675.1094,244.7344 1674.4063,244.7344 Q1671.9063,244.7344 1670.5781,243.0938 Q1669.2656,241.4375 1669.2656,238.3125 Q1669.2656,235.1875 1670.5781,233.5313 Q1671.9063,231.875 1674.4063,231.875 Q1675.1094,231.875 1675.75,232.0313 Q1676.4063,232.1875 1676.9688,232.4844 L1676.9688,235.2031 Q1676.3438,234.625 1675.75,234.3594 Q1675.1563,234.0781 1674.5313,234.0781 Q1673.1875,234.0781 1672.5,235.1563 Q1671.8125,236.2188 1671.8125,238.3125 Q1671.8125,240.4063 1672.5,241.4844 Q1673.1875,242.5469 1674.5313,242.5469 Q1675.1563,242.5469 1675.75,242.2813 Q1676.3438,242 1676.9688,241.4219 L1676.9688,244.1406 Z "/><text fill="#000000" font-family="sans-serif" font-size="12" lengthAdjust="spacingAndGlyphs" textLength="200" x="1690" y="242.6543">DisplayComm2WayInterfaceStub</text><line style="stroke: #A80036; stroke-width: 1.5;" x1="1651" x2="1901" y1="254.5" y2="254.5"/><line style="stroke: #A80036; stroke-width: 1.5;" x1="1651" x2="1901" y1="262.5" y2="262.5"/><ellipse cx="1661" cy="290.3047" fill="#84BE84" rx="3" ry="3" style="stroke: #038048; stroke-width: 1.0;"/><text fill="#000000" font-family="sans-serif" font-size="11" font-style="italic" lengthAdjust="spacingAndGlyphs" textLength="226" x="1670" y="293.5151">TrackData passRfidRequest(int rfidNum)</text><line style="stroke: #A80036; stroke-width: 1.0; stroke-dasharray: 1.0,2.0;" x1="1651" x2="1743" y1="276.9023" y2="276.9023"/><text fill="#000000" font-family="sans-serif" font-size="11" lengthAdjust="spacingAndGlyphs" textLength="66" x="1743" y="280.2104">Use Case 1</text><line style="stroke: #A80036; stroke-width: 1.0; stroke-dasharray: 1.0,2.0;" x1="1809" x2="1901" y1="276.9023" y2="276.9023"/><!--MD5=[2970358178d6cf57fc5a801b39eb8d0b]
class DisplayCommManagerStub--><rect fill="#FEFECE" filter="url(#f14dxsxl5dp2vx)" height="77.6094" id="DisplayCommManagerStub" style="stroke: #A80036; stroke-width: 1.5;" width="273" x="1937.5" y="222.5"/><ellipse cx="1986.75" cy="238.5" fill="#ADD1B2" rx="11" ry="11" style="stroke: #A80036; stroke-width: 1.0;"/><path d="M1989.7188,244.1406 Q1989.1406,244.4375 1988.5,244.5781 Q1987.8594,244.7344 1987.1563,244.7344 Q1984.6563,244.7344 1983.3281,243.0938 Q1982.0156,241.4375 1982.0156,238.3125 Q1982.0156,235.1875 1983.3281,233.5313 Q1984.6563,231.875 1987.1563,231.875 Q1987.8594,231.875 1988.5,232.0313 Q1989.1563,232.1875 1989.7188,232.4844 L1989.7188,235.2031 Q1989.0938,234.625 1988.5,234.3594 Q1987.9063,234.0781 1987.2813,234.0781 Q1985.9375,234.0781 1985.25,235.1563 Q1984.5625,236.2188 1984.5625,238.3125 Q1984.5625,240.4063 1985.25,241.4844 Q1985.9375,242.5469 1987.2813,242.5469 Q1987.9063,242.5469 1988.5,242.2813 Q1989.0938,242 1989.7188,241.4219 L1989.7188,244.1406 Z "/><text fill="#000000" font-family="sans-serif" font-size="12" lengthAdjust="spacingAndGlyphs" textLength="166" x="2007.25" y="242.6543">DisplayCommManagerStub</text><line style="stroke: #A80036; stroke-width: 1.5;" x1="1938.5" x2="2209.5" y1="254.5" y2="254.5"/><line style="stroke: #A80036; stroke-width: 1.5;" x1="1938.5" x2="2209.5" y1="262.5" y2="262.5"/><ellipse cx="1948.5" cy="290.3047" fill="#84BE84" rx="3" ry="3" style="stroke: #038048; stroke-width: 1.0;"/><text fill="#000000" font-family="sans-serif" font-size="11" lengthAdjust="spacingAndGlyphs" textLength="247" x="1957.5" y="293.5151">TrackData evaluateRfidRequest(int rfidNum)</text><line style="stroke: #A80036; stroke-width: 1.0; stroke-dasharray: 1.0,2.0;" x1="1938.5" x2="2041" y1="276.9023" y2="276.9023"/><text fill="#000000" font-family="sans-serif" font-size="11" lengthAdjust="spacingAndGlyphs" textLength="66" x="2041" y="280.2104">Use Case 1</text><line style="stroke: #A80036; stroke-width: 1.0; stroke-dasharray: 1.0,2.0;" x1="2107" x2="2209.5" y1="276.9023" y2="276.9023"/><!--MD5=[cf56a65163663c6c6c7b84cd7c204b97]
class MiddlewareCommInterfaceStub--><rect fill="#FEFECE" filter="url(#f14dxsxl5dp2vx)" height="77.6094" id="MiddlewareCommInterfaceStub" style="stroke: #A80036; stroke-width: 1.5;" width="225" x="1416.5" y="386"/><ellipse cx="1431.5" cy="402" fill="#ADD1B2" rx="11" ry="11" style="stroke: #A80036; stroke-width: 1.0;"/><path d="M1434.4688,407.6406 Q1433.8906,407.9375 1433.25,408.0781 Q1432.6094,408.2344 1431.9063,408.2344 Q1429.4063,408.2344 1428.0781,406.5938 Q1426.7656,404.9375 1426.7656,401.8125 Q1426.7656,398.6875 1428.0781,397.0313 Q1429.4063,395.375 1431.9063,395.375 Q1432.6094,395.375 1433.25,395.5313 Q1433.9063,395.6875 1434.4688,395.9844 L1434.4688,398.7031 Q1433.8438,398.125 1433.25,397.8594 Q1432.6563,397.5781 1432.0313,397.5781 Q1430.6875,397.5781 1430,398.6563 Q1429.3125,399.7188 1429.3125,401.8125 Q1429.3125,403.9063 1430,404.9844 Q1430.6875,406.0469 1432.0313,406.0469 Q1432.6563,406.0469 1433.25,405.7813 Q1433.8438,405.5 1434.4688,404.9219 L1434.4688,407.6406 Z "/><text fill="#000000" font-family="sans-serif" font-size="12" lengthAdjust="spacingAndGlyphs" textLength="193" x="1445.5" y="406.1543">MiddlewareCommInterfaceStub</text><line style="stroke: #A80036; stroke-width: 1.5;" x1="1417.5" x2="1640.5" y1="418" y2="418"/><line style="stroke: #A80036; stroke-width: 1.5;" x1="1417.5" x2="1640.5" y1="426" y2="426"/><ellipse cx="1427.5" cy="453.8047" fill="#84BE84" rx="3" ry="3" style="stroke: #038048; stroke-width: 1.0;"/><text fill="#000000" font-family="sans-serif" font-size="11" lengthAdjust="spacingAndGlyphs" textLength="171" x="1436.5" y="457.0151">TrackData requestRfid(int rfid)</text><line style="stroke: #A80036; stroke-width: 1.0; stroke-dasharray: 1.0,2.0;" x1="1417.5" x2="1496" y1="440.4023" y2="440.4023"/><text fill="#000000" font-family="sans-serif" font-size="11" lengthAdjust="spacingAndGlyphs" textLength="66" x="1496" y="443.7104">Use Case 1</text><line style="stroke: #A80036; stroke-width: 1.0; stroke-dasharray: 1.0,2.0;" x1="1562" x2="1640.5" y1="440.4023" y2="440.4023"/><!--MD5=[c986427b061286eff33e87a088ad4bf9]
class TrackDataPlotter--><rect fill="#FEFECE" filter="url(#f14dxsxl5dp2vx)" height="48" id="TrackDataPlotter" style="stroke: #A80036; stroke-width: 1.5;" width="138" x="2479" y="74"/><ellipse cx="2494" cy="90" fill="#ADD1B2" rx="11" ry="11" style="stroke: #A80036; stroke-width: 1.0;"/><path d="M2496.9688,95.6406 Q2496.3906,95.9375 2495.75,96.0781 Q2495.1094,96.2344 2494.4063,96.2344 Q2491.9063,96.2344 2490.5781,94.5938 Q2489.2656,92.9375 2489.2656,89.8125 Q2489.2656,86.6875 2490.5781,85.0313 Q2491.9063,83.375 2494.4063,83.375 Q2495.1094,83.375 2495.75,83.5313 Q2496.4063,83.6875 2496.9688,83.9844 L2496.9688,86.7031 Q2496.3438,86.125 2495.75,85.8594 Q2495.1563,85.5781 2494.5313,85.5781 Q2493.1875,85.5781 2492.5,86.6563 Q2491.8125,87.7188 2491.8125,89.8125 Q2491.8125,91.9063 2492.5,92.9844 Q2493.1875,94.0469 2494.5313,94.0469 Q2495.1563,94.0469 2495.75,93.7813 Q2496.3438,93.5 2496.9688,92.9219 L2496.9688,95.6406 Z "/><text fill="#000000" font-family="sans-serif" font-size="12" lengthAdjust="spacingAndGlyphs" textLength="106" x="2508" y="94.1543">TrackDataPlotter</text><line style="stroke: #A80036; stroke-width: 1.5;" x1="2480" x2="2616" y1="106" y2="106"/><line style="stroke: #A80036; stroke-width: 1.5;" x1="2480" x2="2616" y1="114" y2="114"/><!--MD5=[c9341cce37a1a8bee80ad1365349afef]
link DisplayCommInterface to DisplayComm2WayInterface--><!--MD5=[7835b7bc4a765bae53638d0402d5d5e6]
link DisplayComm2WayInterface to DisplayCommManager--><!--MD5=[7d92106ecb9088e13e6754b44ec571b0]
link DisplayCommInterface to DisplayCommInterfaceImplementation--><!--MD5=[51e28edbb9f88779af066724948e7048]
link DisplayCommInterfaceImplementation to DisplayComm2WayInterfaceImplementation--><!--MD5=[ea4cd417ea9ea2c0dbdbdf4e4e3d21de]
link DisplayComm2WayInterfaceImplementation to DisplayCommManagerImplementation--><!--MD5=[64e942b00478e9eef28430a914bbb142]
link DisplayCommInterfaceImplementationTests to DisplayComm2WayInterfaceImplementationTests--><!--MD5=[8dbe1f493aaf019419238fc4702b450a]
link DisplayComm2WayInterfaceImplementationTests to DisplayCommManagerImplementationTests--><!--MD5=[e81de192ca7bc9df286fd4cb58be8b46]
link DisplayCommInterfaceImplementationTests to TrackDataPlotterTests--><!--MD5=[8b898a72046de76ad345afd61090e7dd]
link TrackDataPlotterTests to DisplayComm2WayInterfaceStub--><!--MD5=[c9c9241041dbc47aa626fe1afc095e03]
link DisplayComm2WayInterfaceStub to DisplayCommManagerStub--><!--MD5=[61d9c608a539b4614526ad59aeb385a2]
link TrackDataPlotterTests to MiddlewareCommInterfaceStub--><!--MD5=[9241f32c52360049d15e97b85d1b867b]
@startuml Display02Packages


package edu.oakland.production.display02 {

}


package edu.oakland.production.display02 {
    interface DisplayCommInterface {
        __
        .. Use Case 1 ..
        {abstract} + TrackData receiveRfidRequest(int rfidNum)
    }
}


package edu.oakland.production.display02 {
    interface DisplayComm2WayInterface {
        __
        .. Use Case 1 ..
        {abstract} + TrackData passRfidRequest(int rfidNum)
    }
}


package edu.oakland.production.display02 {
    interface DisplayCommManager {
        __
        .. Use Case 1 ..
        {abstract} + TrackData evaluateRfidRequest(int rfidNum)
    }
}


package edu.oakland.production.display02 {
    class DisplayCommInterfaceImplementation {
        DisplayComm2WayInterface receiver
        __
        {abstract} + DisplayCommInterface(DisplayComm2WayInterface receiver)
        .. Use Case 1 ..
        {abstract} + TrackData receiveRfidRequest(int rfidNum)
        {abstract} + TrackData passToComm2WayInterface(int rfidNum)

    }
}


package edu.oakland.production.display02 {
    class DisplayComm2WayInterfaceImplementation {
        __
        .. Use Case 1 ..
        {abstract} + TrackData passRfidRequest(int rfidNum)
        {abstract} + void determineUserRequestFormat(int rfidNum)
        {abstract} + void receiveRequestFromDisplayCommInterface(int rfidNum)
    }
}


package edu.oakland.production.display02 {
    class DisplayCommManagerImplementation {
        MiddlewareCommInterface middleware
        __
        {abstract} + DisplayCommManagerImplementation(MiddlewareCommInterface middleware)
        {abstract} + TrackData evaluateRfidRequest(int rfidNum)
        {abstract} + TrackData passRequestToMiddlewareCommInterface(int rfidNum)
        {abstract} + void receiveRequestFromDisplay2WayInterface(int rfidNum)

    }
}



package edu.oakland.test.display02 {
    
}


package edu.oakland.test.display02 {
    class DisplayCommInterfaceImplementationTests {

    }
}


package edu.oakland.test.display02 {
    class DisplayComm2WayInterfaceImplementationTests {

    }
}


package edu.oakland.test.display02 {
    class DisplayCommManagerImplementationTests {

    }
}


package edu.oakland.test.display02 {
    class TrackDataPlotterTests {

    }
}


package edu.oakland.test.display02 {
    class DisplayComm2WayInterfaceStub {
        __
        .. Use Case 1 ..
        {abstract} + TrackData passRfidRequest(int rfidNum)
    }
}


package edu.oakland.test.display02 {
    class DisplayCommManagerStub {
        __
        .. Use Case 1 ..
        + TrackData evaluateRfidRequest(int rfidNum)
    }
}


package edu.oakland.test.display02 {
    class MiddlewareCommInterfaceStub {
        __
        .. Use Case 1 ..
        + TrackData requestRfid(int rfid)
    }
}



package edu.oakland.helper.display02 {

}


package edu.oakland.helper.display02 {
    class TrackDataPlotter {
        
    }
}



@enduml

PlantUML version 1.2020.02(Sun Mar 01 10:22:07 GMT 2020)
(GPL source distribution)
Java Runtime: OpenJDK Runtime Environment
JVM: OpenJDK 64-Bit Server VM
Java Version: 11.0.9+11-Ubuntu-0ubuntu1
Operating System: Linux
Default Encoding: ANSI_X3.4-1968
Language: en
Country: US
--></g></svg>