<?xml version="1.0" encoding="UTF-8" standalone="no"?><svg xmlns="http://www.w3.org/2000/svg" xmlns:xlink="http://www.w3.org/1999/xlink" contentScriptType="application/ecmascript" contentStyleType="text/css" height="332px" preserveAspectRatio="none" style="width:2521px;height:332px;" version="1.1" viewBox="0 0 2521 332" width="2521px" zoomAndPan="magnify"><defs><filter height="300%" id="f14ekuv5oz2jt9" width="300%" x="-1" y="-1"><feGaussianBlur result="blurOut" stdDeviation="2.0"/><feColorMatrix in="blurOut" result="blurOut2" type="matrix" values="0 0 0 0 0 0 0 0 0 0 0 0 0 0 0 0 0 0 .4 0"/><feOffset dx="4.0" dy="4.0" in="blurOut2" result="blurOut3"/><feBlend in="SourceGraphic" in2="blurOut3" mode="normal"/></filter></defs><g><!--MD5=[fe59aae6f7bfe371a9c197ec1f7f843a]
cluster edu.oakland.production.display02--><polygon fill="#FFFFFF" filter="url(#f14ekuv5oz2jt9)" points="1563,24,1836,24,1843,46.2969,2499,46.2969,2499,320,1563,320,1563,24" style="stroke: #000000; stroke-width: 1.5;"/><line style="stroke: #000000; stroke-width: 1.5;" x1="1563" x2="1843" y1="46.2969" y2="46.2969"/><text fill="#000000" font-family="sans-serif" font-size="14" font-weight="bold" lengthAdjust="spacingAndGlyphs" textLength="267" x="1567" y="38.9951">edu.oakland.production.display02</text><!--MD5=[9258003ec405d300d3379b4a3d8dd6ad]
cluster edu.oakland.test.display02--><polygon fill="#FFFFFF" filter="url(#f14ekuv5oz2jt9)" points="294,39,512,39,519,61.2969,1539,61.2969,1539,305.5,294,305.5,294,39" style="stroke: #000000; stroke-width: 1.5;"/><line style="stroke: #000000; stroke-width: 1.5;" x1="294" x2="519" y1="61.2969" y2="61.2969"/><text fill="#000000" font-family="sans-serif" font-size="14" font-weight="bold" lengthAdjust="spacingAndGlyphs" textLength="212" x="298" y="53.9951">edu.oakland.test.display02</text><!--MD5=[a502031b5a5384de0a21e6ee820fd3b2]
cluster edu.oakland.helper.display02--><polygon fill="#FFFFFF" filter="url(#f14ekuv5oz2jt9)" points="22,191.5,260,191.5,267,213.7969,270,213.7969,270,290.5,22,290.5,22,191.5" style="stroke: #000000; stroke-width: 1.5;"/><line style="stroke: #000000; stroke-width: 1.5;" x1="22" x2="267" y1="213.7969" y2="213.7969"/><text fill="#000000" font-family="sans-serif" font-size="14" font-weight="bold" lengthAdjust="spacingAndGlyphs" textLength="232" x="26" y="206.4951">edu.oakland.helper.display02</text><!--MD5=[c8d1e3134fecb0c949fd2a76cc0bb992]
class DisplayCommInterface--><rect fill="#FEFECE" filter="url(#f14ekuv5oz2jt9)" height="77.6094" id="DisplayCommInterface" style="stroke: #A80036; stroke-width: 1.5;" width="268" x="2215" y="59"/><ellipse cx="2275.25" cy="75" fill="#B4A7E5" rx="11" ry="11" style="stroke: #A80036; stroke-width: 1.0;"/><path d="M2271.1719,70.7656 L2271.1719,68.6094 L2278.5625,68.6094 L2278.5625,70.7656 L2276.0938,70.7656 L2276.0938,78.8438 L2278.5625,78.8438 L2278.5625,81 L2271.1719,81 L2271.1719,78.8438 L2273.6406,78.8438 L2273.6406,70.7656 L2271.1719,70.7656 Z "/><text fill="#000000" font-family="sans-serif" font-size="12" font-style="italic" lengthAdjust="spacingAndGlyphs" textLength="139" x="2295.75" y="79.1543">DisplayCommInterface</text><line style="stroke: #A80036; stroke-width: 1.5;" x1="2216" x2="2482" y1="91" y2="91"/><line style="stroke: #A80036; stroke-width: 1.5;" x1="2216" x2="2482" y1="99" y2="99"/><ellipse cx="2226" cy="126.8047" fill="#84BE84" rx="3" ry="3" style="stroke: #038048; stroke-width: 1.0;"/><text fill="#000000" font-family="sans-serif" font-size="11" font-style="italic" lengthAdjust="spacingAndGlyphs" textLength="242" x="2235" y="130.0151">TrackData receiveRfidRequest(int rfidNum)</text><line style="stroke: #A80036; stroke-width: 1.0; stroke-dasharray: 1.0,2.0;" x1="2216" x2="2316" y1="113.4023" y2="113.4023"/><text fill="#000000" font-family="sans-serif" font-size="11" lengthAdjust="spacingAndGlyphs" textLength="66" x="2316" y="116.7104">Use Case 1</text><line style="stroke: #A80036; stroke-width: 1.0; stroke-dasharray: 1.0,2.0;" x1="2382" x2="2482" y1="113.4023" y2="113.4023"/><!--MD5=[f6b51b5f862da5ce226c62e411e84628]
class DisplayComm2WayInterface--><rect fill="#FEFECE" filter="url(#f14ekuv5oz2jt9)" height="77.6094" id="DisplayComm2WayInterface" style="stroke: #A80036; stroke-width: 1.5;" width="252" x="1897" y="59"/><ellipse cx="1932.7" cy="75" fill="#B4A7E5" rx="11" ry="11" style="stroke: #A80036; stroke-width: 1.0;"/><path d="M1928.6219,70.7656 L1928.6219,68.6094 L1936.0125,68.6094 L1936.0125,70.7656 L1933.5438,70.7656 L1933.5438,78.8438 L1936.0125,78.8438 L1936.0125,81 L1928.6219,81 L1928.6219,78.8438 L1931.0906,78.8438 L1931.0906,70.7656 L1928.6219,70.7656 Z "/><text fill="#000000" font-family="sans-serif" font-size="12" font-style="italic" lengthAdjust="spacingAndGlyphs" textLength="174" x="1951.3" y="79.1543">DisplayComm2WayInterface</text><line style="stroke: #A80036; stroke-width: 1.5;" x1="1898" x2="2148" y1="91" y2="91"/><line style="stroke: #A80036; stroke-width: 1.5;" x1="1898" x2="2148" y1="99" y2="99"/><ellipse cx="1908" cy="126.8047" fill="#84BE84" rx="3" ry="3" style="stroke: #038048; stroke-width: 1.0;"/><text fill="#000000" font-family="sans-serif" font-size="11" font-style="italic" lengthAdjust="spacingAndGlyphs" textLength="226" x="1917" y="130.0151">TrackData passRfidRequest(int rfidNum)</text><line style="stroke: #A80036; stroke-width: 1.0; stroke-dasharray: 1.0,2.0;" x1="1898" x2="1990" y1="113.4023" y2="113.4023"/><text fill="#000000" font-family="sans-serif" font-size="11" lengthAdjust="spacingAndGlyphs" textLength="66" x="1990" y="116.7104">Use Case 1</text><line style="stroke: #A80036; stroke-width: 1.0; stroke-dasharray: 1.0,2.0;" x1="2056" x2="2148" y1="113.4023" y2="113.4023"/><!--MD5=[6aeb72f2773d7cabb45309482beeff0a]
class DisplayCommManager--><rect fill="#FEFECE" filter="url(#f14ekuv5oz2jt9)" height="77.6094" id="DisplayCommManager" style="stroke: #A80036; stroke-width: 1.5;" width="275" x="1579.5" y="59"/><ellipse cx="1644.25" cy="75" fill="#B4A7E5" rx="11" ry="11" style="stroke: #A80036; stroke-width: 1.0;"/><path d="M1640.1719,70.7656 L1640.1719,68.6094 L1647.5625,68.6094 L1647.5625,70.7656 L1645.0938,70.7656 L1645.0938,78.8438 L1647.5625,78.8438 L1647.5625,81 L1640.1719,81 L1640.1719,78.8438 L1642.6406,78.8438 L1642.6406,70.7656 L1640.1719,70.7656 Z "/><text fill="#000000" font-family="sans-serif" font-size="12" font-style="italic" lengthAdjust="spacingAndGlyphs" textLength="137" x="1664.75" y="79.1543">DisplayCommManager</text><line style="stroke: #A80036; stroke-width: 1.5;" x1="1580.5" x2="1853.5" y1="91" y2="91"/><line style="stroke: #A80036; stroke-width: 1.5;" x1="1580.5" x2="1853.5" y1="99" y2="99"/><ellipse cx="1590.5" cy="126.8047" fill="#84BE84" rx="3" ry="3" style="stroke: #038048; stroke-width: 1.0;"/><text fill="#000000" font-family="sans-serif" font-size="11" font-style="italic" lengthAdjust="spacingAndGlyphs" textLength="249" x="1599.5" y="130.0151">TrackData evaluateRfidRequest(int rfidNum)</text><line style="stroke: #A80036; stroke-width: 1.0; stroke-dasharray: 1.0,2.0;" x1="1580.5" x2="1684" y1="113.4023" y2="113.4023"/><text fill="#000000" font-family="sans-serif" font-size="11" lengthAdjust="spacingAndGlyphs" textLength="66" x="1684" y="116.7104">Use Case 1</text><line style="stroke: #A80036; stroke-width: 1.0; stroke-dasharray: 1.0,2.0;" x1="1750" x2="1853.5" y1="113.4023" y2="113.4023"/><!--MD5=[a35092e604da7274febf4e2cf9a25087]
class DisplayCommInterfaceImplementation--><rect fill="#FEFECE" filter="url(#f14ekuv5oz2jt9)" height="107.2188" id="DisplayCommInterfaceImplementation" style="stroke: #A80036; stroke-width: 1.5;" width="267" x="2215.5" y="197"/><ellipse cx="2230.5" cy="213" fill="#ADD1B2" rx="11" ry="11" style="stroke: #A80036; stroke-width: 1.0;"/><path d="M2233.4688,218.6406 Q2232.8906,218.9375 2232.25,219.0781 Q2231.6094,219.2344 2230.9063,219.2344 Q2228.4063,219.2344 2227.0781,217.5938 Q2225.7656,215.9375 2225.7656,212.8125 Q2225.7656,209.6875 2227.0781,208.0313 Q2228.4063,206.375 2230.9063,206.375 Q2231.6094,206.375 2232.25,206.5313 Q2232.9063,206.6875 2233.4688,206.9844 L2233.4688,209.7031 Q2232.8438,209.125 2232.25,208.8594 Q2231.6563,208.5781 2231.0313,208.5781 Q2229.6875,208.5781 2229,209.6563 Q2228.3125,210.7188 2228.3125,212.8125 Q2228.3125,214.9063 2229,215.9844 Q2229.6875,217.0469 2231.0313,217.0469 Q2231.6563,217.0469 2232.25,216.7813 Q2232.8438,216.5 2233.4688,215.9219 L2233.4688,218.6406 Z "/><text fill="#000000" font-family="sans-serif" font-size="12" lengthAdjust="spacingAndGlyphs" textLength="235" x="2244.5" y="217.1543">DisplayCommInterfaceImplementation</text><line style="stroke: #A80036; stroke-width: 1.5;" x1="2216.5" x2="2481.5" y1="229" y2="229"/><line style="stroke: #A80036; stroke-width: 1.5;" x1="2216.5" x2="2481.5" y1="237" y2="237"/><text fill="#000000" font-family="sans-serif" font-size="11" lengthAdjust="spacingAndGlyphs" textLength="0" x="2225.5" y="268.0151"/><line style="stroke: #A80036; stroke-width: 1.0; stroke-dasharray: 1.0,2.0;" x1="2216.5" x2="2316" y1="251.4023" y2="251.4023"/><text fill="#000000" font-family="sans-serif" font-size="11" lengthAdjust="spacingAndGlyphs" textLength="66" x="2316" y="254.7104">Use Case 1</text><line style="stroke: #A80036; stroke-width: 1.0; stroke-dasharray: 1.0,2.0;" x1="2382" x2="2481.5" y1="251.4023" y2="251.4023"/><text fill="#000000" font-family="sans-serif" font-size="11" lengthAdjust="spacingAndGlyphs" textLength="0" x="2225.5" y="297.6245"/><line style="stroke: #A80036; stroke-width: 1.0; stroke-dasharray: 1.0,2.0;" x1="2216.5" x2="2316" y1="281.0117" y2="281.0117"/><text fill="#000000" font-family="sans-serif" font-size="11" lengthAdjust="spacingAndGlyphs" textLength="66" x="2316" y="284.3198">Use Case 2</text><line style="stroke: #A80036; stroke-width: 1.0; stroke-dasharray: 1.0,2.0;" x1="2382" x2="2481.5" y1="281.0117" y2="281.0117"/><!--MD5=[46657c2900260d4d40350fe3f8c544df]
class DisplayComm2WayInterfaceImplementation--><rect fill="#FEFECE" filter="url(#f14ekuv5oz2jt9)" height="77.6094" id="DisplayComm2WayInterfaceImplementation" style="stroke: #A80036; stroke-width: 1.5;" width="300" x="1880" y="211.5"/><ellipse cx="1895" cy="227.5" fill="#ADD1B2" rx="11" ry="11" style="stroke: #A80036; stroke-width: 1.0;"/><path d="M1897.9688,233.1406 Q1897.3906,233.4375 1896.75,233.5781 Q1896.1094,233.7344 1895.4063,233.7344 Q1892.9063,233.7344 1891.5781,232.0938 Q1890.2656,230.4375 1890.2656,227.3125 Q1890.2656,224.1875 1891.5781,222.5313 Q1892.9063,220.875 1895.4063,220.875 Q1896.1094,220.875 1896.75,221.0313 Q1897.4063,221.1875 1897.9688,221.4844 L1897.9688,224.2031 Q1897.3438,223.625 1896.75,223.3594 Q1896.1563,223.0781 1895.5313,223.0781 Q1894.1875,223.0781 1893.5,224.1563 Q1892.8125,225.2188 1892.8125,227.3125 Q1892.8125,229.4063 1893.5,230.4844 Q1894.1875,231.5469 1895.5313,231.5469 Q1896.1563,231.5469 1896.75,231.2813 Q1897.3438,231 1897.9688,230.4219 L1897.9688,233.1406 Z "/><text fill="#000000" font-family="sans-serif" font-size="12" lengthAdjust="spacingAndGlyphs" textLength="268" x="1909" y="231.6543">DisplayComm2WayInterfaceImplementation</text><line style="stroke: #A80036; stroke-width: 1.5;" x1="1881" x2="2179" y1="243.5" y2="243.5"/><line style="stroke: #A80036; stroke-width: 1.5;" x1="1881" x2="2179" y1="251.5" y2="251.5"/><ellipse cx="1891" cy="279.3047" fill="#84BE84" rx="3" ry="3" style="stroke: #038048; stroke-width: 1.0;"/><text fill="#000000" font-family="sans-serif" font-size="11" font-style="italic" lengthAdjust="spacingAndGlyphs" textLength="270" x="1900" y="282.5151">LocationDataPoint passRfidRequest(int rfidNum)</text><line style="stroke: #A80036; stroke-width: 1.0; stroke-dasharray: 1.0,2.0;" x1="1881" x2="1997" y1="265.9023" y2="265.9023"/><text fill="#000000" font-family="sans-serif" font-size="11" lengthAdjust="spacingAndGlyphs" textLength="66" x="1997" y="269.2104">Use Case 1</text><line style="stroke: #A80036; stroke-width: 1.0; stroke-dasharray: 1.0,2.0;" x1="2063" x2="2179" y1="265.9023" y2="265.9023"/><!--MD5=[3a27b63ddb357afc5dde5581215f51f9]
class DisplayCommManagerImplementation--><rect fill="#FEFECE" filter="url(#f14ekuv5oz2jt9)" height="107.2188" id="DisplayCommManagerImplementation" style="stroke: #A80036; stroke-width: 1.5;" width="266" x="1579" y="197"/><ellipse cx="1594" cy="213" fill="#ADD1B2" rx="11" ry="11" style="stroke: #A80036; stroke-width: 1.0;"/><path d="M1596.9688,218.6406 Q1596.3906,218.9375 1595.75,219.0781 Q1595.1094,219.2344 1594.4063,219.2344 Q1591.9063,219.2344 1590.5781,217.5938 Q1589.2656,215.9375 1589.2656,212.8125 Q1589.2656,209.6875 1590.5781,208.0313 Q1591.9063,206.375 1594.4063,206.375 Q1595.1094,206.375 1595.75,206.5313 Q1596.4063,206.6875 1596.9688,206.9844 L1596.9688,209.7031 Q1596.3438,209.125 1595.75,208.8594 Q1595.1563,208.5781 1594.5313,208.5781 Q1593.1875,208.5781 1592.5,209.6563 Q1591.8125,210.7188 1591.8125,212.8125 Q1591.8125,214.9063 1592.5,215.9844 Q1593.1875,217.0469 1594.5313,217.0469 Q1595.1563,217.0469 1595.75,216.7813 Q1596.3438,216.5 1596.9688,215.9219 L1596.9688,218.6406 Z "/><text fill="#000000" font-family="sans-serif" font-size="12" lengthAdjust="spacingAndGlyphs" textLength="234" x="1608" y="217.1543">DisplayCommManagerImplementation</text><line style="stroke: #A80036; stroke-width: 1.5;" x1="1580" x2="1844" y1="229" y2="229"/><line style="stroke: #A80036; stroke-width: 1.5;" x1="1580" x2="1844" y1="237" y2="237"/><text fill="#000000" font-family="sans-serif" font-size="11" lengthAdjust="spacingAndGlyphs" textLength="0" x="1589" y="268.0151"/><line style="stroke: #A80036; stroke-width: 1.0; stroke-dasharray: 1.0,2.0;" x1="1580" x2="1679" y1="251.4023" y2="251.4023"/><text fill="#000000" font-family="sans-serif" font-size="11" lengthAdjust="spacingAndGlyphs" textLength="66" x="1679" y="254.7104">Use Case 1</text><line style="stroke: #A80036; stroke-width: 1.0; stroke-dasharray: 1.0,2.0;" x1="1745" x2="1844" y1="251.4023" y2="251.4023"/><text fill="#000000" font-family="sans-serif" font-size="11" lengthAdjust="spacingAndGlyphs" textLength="0" x="1589" y="297.6245"/><line style="stroke: #A80036; stroke-width: 1.0; stroke-dasharray: 1.0,2.0;" x1="1580" x2="1679" y1="281.0117" y2="281.0117"/><text fill="#000000" font-family="sans-serif" font-size="11" lengthAdjust="spacingAndGlyphs" textLength="66" x="1679" y="284.3198">Use Case 2</text><line style="stroke: #A80036; stroke-width: 1.0; stroke-dasharray: 1.0,2.0;" x1="1745" x2="1844" y1="281.0117" y2="281.0117"/><!--MD5=[d454b7777f115113290d89683d7a426c]
class DisplayCommInterfaceImplementationTests--><rect fill="#FEFECE" filter="url(#f14ekuv5oz2jt9)" height="48" id="DisplayCommInterfaceImplementationTests" style="stroke: #A80036; stroke-width: 1.5;" width="301" x="1221.5" y="74"/><ellipse cx="1236.5" cy="90" fill="#ADD1B2" rx="11" ry="11" style="stroke: #A80036; stroke-width: 1.0;"/><path d="M1239.4688,95.6406 Q1238.8906,95.9375 1238.25,96.0781 Q1237.6094,96.2344 1236.9063,96.2344 Q1234.4063,96.2344 1233.0781,94.5938 Q1231.7656,92.9375 1231.7656,89.8125 Q1231.7656,86.6875 1233.0781,85.0313 Q1234.4063,83.375 1236.9063,83.375 Q1237.6094,83.375 1238.25,83.5313 Q1238.9063,83.6875 1239.4688,83.9844 L1239.4688,86.7031 Q1238.8438,86.125 1238.25,85.8594 Q1237.6563,85.5781 1237.0313,85.5781 Q1235.6875,85.5781 1235,86.6563 Q1234.3125,87.7188 1234.3125,89.8125 Q1234.3125,91.9063 1235,92.9844 Q1235.6875,94.0469 1237.0313,94.0469 Q1237.6563,94.0469 1238.25,93.7813 Q1238.8438,93.5 1239.4688,92.9219 L1239.4688,95.6406 Z "/><text fill="#000000" font-family="sans-serif" font-size="12" lengthAdjust="spacingAndGlyphs" textLength="269" x="1250.5" y="94.1543">DisplayCommInterfaceImplementationTests</text><line style="stroke: #A80036; stroke-width: 1.5;" x1="1222.5" x2="1521.5" y1="106" y2="106"/><line style="stroke: #A80036; stroke-width: 1.5;" x1="1222.5" x2="1521.5" y1="114" y2="114"/><!--MD5=[a333ac13e0fdf2a5898aafabd38d3c1b]
class DisplayComm2WayInterfaceStub--><rect fill="#FEFECE" filter="url(#f14ekuv5oz2jt9)" height="77.6094" id="DisplayComm2WayInterfaceStub" style="stroke: #A80036; stroke-width: 1.5;" width="252" x="1258" y="211.5"/><ellipse cx="1282" cy="227.5" fill="#ADD1B2" rx="11" ry="11" style="stroke: #A80036; stroke-width: 1.0;"/><path d="M1284.9688,233.1406 Q1284.3906,233.4375 1283.75,233.5781 Q1283.1094,233.7344 1282.4063,233.7344 Q1279.9063,233.7344 1278.5781,232.0938 Q1277.2656,230.4375 1277.2656,227.3125 Q1277.2656,224.1875 1278.5781,222.5313 Q1279.9063,220.875 1282.4063,220.875 Q1283.1094,220.875 1283.75,221.0313 Q1284.4063,221.1875 1284.9688,221.4844 L1284.9688,224.2031 Q1284.3438,223.625 1283.75,223.3594 Q1283.1563,223.0781 1282.5313,223.0781 Q1281.1875,223.0781 1280.5,224.1563 Q1279.8125,225.2188 1279.8125,227.3125 Q1279.8125,229.4063 1280.5,230.4844 Q1281.1875,231.5469 1282.5313,231.5469 Q1283.1563,231.5469 1283.75,231.2813 Q1284.3438,231 1284.9688,230.4219 L1284.9688,233.1406 Z "/><text fill="#000000" font-family="sans-serif" font-size="12" lengthAdjust="spacingAndGlyphs" textLength="200" x="1298" y="231.6543">DisplayComm2WayInterfaceStub</text><line style="stroke: #A80036; stroke-width: 1.5;" x1="1259" x2="1509" y1="243.5" y2="243.5"/><line style="stroke: #A80036; stroke-width: 1.5;" x1="1259" x2="1509" y1="251.5" y2="251.5"/><ellipse cx="1269" cy="279.3047" fill="#84BE84" rx="3" ry="3" style="stroke: #038048; stroke-width: 1.0;"/><text fill="#000000" font-family="sans-serif" font-size="11" font-style="italic" lengthAdjust="spacingAndGlyphs" textLength="226" x="1278" y="282.5151">TrackData passRfidRequest(int rfidNum)</text><line style="stroke: #A80036; stroke-width: 1.0; stroke-dasharray: 1.0,2.0;" x1="1259" x2="1351" y1="265.9023" y2="265.9023"/><text fill="#000000" font-family="sans-serif" font-size="11" lengthAdjust="spacingAndGlyphs" textLength="66" x="1351" y="269.2104">Use Case 1</text><line style="stroke: #A80036; stroke-width: 1.0; stroke-dasharray: 1.0,2.0;" x1="1417" x2="1509" y1="265.9023" y2="265.9023"/><!--MD5=[178181f4c7684560c711246055fc01d3]
class DisplayComm2WayInterfaceImplementationTests--><rect fill="#FEFECE" filter="url(#f14ekuv5oz2jt9)" height="48" id="DisplayComm2WayInterfaceImplementationTests" style="stroke: #A80036; stroke-width: 1.5;" width="334" x="852" y="74"/><ellipse cx="867" cy="90" fill="#ADD1B2" rx="11" ry="11" style="stroke: #A80036; stroke-width: 1.0;"/><path d="M869.9688,95.6406 Q869.3906,95.9375 868.75,96.0781 Q868.1094,96.2344 867.4063,96.2344 Q864.9063,96.2344 863.5781,94.5938 Q862.2656,92.9375 862.2656,89.8125 Q862.2656,86.6875 863.5781,85.0313 Q864.9063,83.375 867.4063,83.375 Q868.1094,83.375 868.75,83.5313 Q869.4063,83.6875 869.9688,83.9844 L869.9688,86.7031 Q869.3438,86.125 868.75,85.8594 Q868.1563,85.5781 867.5313,85.5781 Q866.1875,85.5781 865.5,86.6563 Q864.8125,87.7188 864.8125,89.8125 Q864.8125,91.9063 865.5,92.9844 Q866.1875,94.0469 867.5313,94.0469 Q868.1563,94.0469 868.75,93.7813 Q869.3438,93.5 869.9688,92.9219 L869.9688,95.6406 Z "/><text fill="#000000" font-family="sans-serif" font-size="12" lengthAdjust="spacingAndGlyphs" textLength="302" x="881" y="94.1543">DisplayComm2WayInterfaceImplementationTests</text><line style="stroke: #A80036; stroke-width: 1.5;" x1="853" x2="1185" y1="106" y2="106"/><line style="stroke: #A80036; stroke-width: 1.5;" x1="853" x2="1185" y1="114" y2="114"/><!--MD5=[2970358178d6cf57fc5a801b39eb8d0b]
class DisplayCommManagerStub--><rect fill="#FEFECE" filter="url(#f14ekuv5oz2jt9)" height="77.6094" id="DisplayCommManagerStub" style="stroke: #A80036; stroke-width: 1.5;" width="273" x="915.5" y="211.5"/><ellipse cx="964.75" cy="227.5" fill="#ADD1B2" rx="11" ry="11" style="stroke: #A80036; stroke-width: 1.0;"/><path d="M967.7188,233.1406 Q967.1406,233.4375 966.5,233.5781 Q965.8594,233.7344 965.1563,233.7344 Q962.6563,233.7344 961.3281,232.0938 Q960.0156,230.4375 960.0156,227.3125 Q960.0156,224.1875 961.3281,222.5313 Q962.6563,220.875 965.1563,220.875 Q965.8594,220.875 966.5,221.0313 Q967.1563,221.1875 967.7188,221.4844 L967.7188,224.2031 Q967.0938,223.625 966.5,223.3594 Q965.9063,223.0781 965.2813,223.0781 Q963.9375,223.0781 963.25,224.1563 Q962.5625,225.2188 962.5625,227.3125 Q962.5625,229.4063 963.25,230.4844 Q963.9375,231.5469 965.2813,231.5469 Q965.9063,231.5469 966.5,231.2813 Q967.0938,231 967.7188,230.4219 L967.7188,233.1406 Z "/><text fill="#000000" font-family="sans-serif" font-size="12" lengthAdjust="spacingAndGlyphs" textLength="166" x="985.25" y="231.6543">DisplayCommManagerStub</text><line style="stroke: #A80036; stroke-width: 1.5;" x1="916.5" x2="1187.5" y1="243.5" y2="243.5"/><line style="stroke: #A80036; stroke-width: 1.5;" x1="916.5" x2="1187.5" y1="251.5" y2="251.5"/><ellipse cx="926.5" cy="279.3047" fill="#84BE84" rx="3" ry="3" style="stroke: #038048; stroke-width: 1.0;"/><text fill="#000000" font-family="sans-serif" font-size="11" lengthAdjust="spacingAndGlyphs" textLength="247" x="935.5" y="282.5151">TrackData evaluateRfidRequest(int rfidNum)</text><line style="stroke: #A80036; stroke-width: 1.0; stroke-dasharray: 1.0,2.0;" x1="916.5" x2="1019" y1="265.9023" y2="265.9023"/><text fill="#000000" font-family="sans-serif" font-size="11" lengthAdjust="spacingAndGlyphs" textLength="66" x="1019" y="269.2104">Use Case 1</text><line style="stroke: #A80036; stroke-width: 1.0; stroke-dasharray: 1.0,2.0;" x1="1085" x2="1187.5" y1="265.9023" y2="265.9023"/><!--MD5=[937d6d8ff87a99d0d5dcd66ee05a1fa4]
class DisplayCommManagerImplementationTests--><rect fill="#FEFECE" filter="url(#f14ekuv5oz2jt9)" height="48" id="DisplayCommManagerImplementationTests" style="stroke: #A80036; stroke-width: 1.5;" width="300" x="517" y="74"/><ellipse cx="532" cy="90" fill="#ADD1B2" rx="11" ry="11" style="stroke: #A80036; stroke-width: 1.0;"/><path d="M534.9688,95.6406 Q534.3906,95.9375 533.75,96.0781 Q533.1094,96.2344 532.4063,96.2344 Q529.9063,96.2344 528.5781,94.5938 Q527.2656,92.9375 527.2656,89.8125 Q527.2656,86.6875 528.5781,85.0313 Q529.9063,83.375 532.4063,83.375 Q533.1094,83.375 533.75,83.5313 Q534.4063,83.6875 534.9688,83.9844 L534.9688,86.7031 Q534.3438,86.125 533.75,85.8594 Q533.1563,85.5781 532.5313,85.5781 Q531.1875,85.5781 530.5,86.6563 Q529.8125,87.7188 529.8125,89.8125 Q529.8125,91.9063 530.5,92.9844 Q531.1875,94.0469 532.5313,94.0469 Q533.1563,94.0469 533.75,93.7813 Q534.3438,93.5 534.9688,92.9219 L534.9688,95.6406 Z "/><text fill="#000000" font-family="sans-serif" font-size="12" lengthAdjust="spacingAndGlyphs" textLength="268" x="546" y="94.1543">DisplayCommManagerImplementationTests</text><line style="stroke: #A80036; stroke-width: 1.5;" x1="518" x2="816" y1="106" y2="106"/><line style="stroke: #A80036; stroke-width: 1.5;" x1="518" x2="816" y1="114" y2="114"/><!--MD5=[cf56a65163663c6c6c7b84cd7c204b97]
class MiddlewareCommInterfaceStub--><rect fill="#FEFECE" filter="url(#f14ekuv5oz2jt9)" height="77.6094" id="MiddlewareCommInterfaceStub" style="stroke: #A80036; stroke-width: 1.5;" width="225" x="554.5" y="211.5"/><ellipse cx="569.5" cy="227.5" fill="#ADD1B2" rx="11" ry="11" style="stroke: #A80036; stroke-width: 1.0;"/><path d="M572.4688,233.1406 Q571.8906,233.4375 571.25,233.5781 Q570.6094,233.7344 569.9063,233.7344 Q567.4063,233.7344 566.0781,232.0938 Q564.7656,230.4375 564.7656,227.3125 Q564.7656,224.1875 566.0781,222.5313 Q567.4063,220.875 569.9063,220.875 Q570.6094,220.875 571.25,221.0313 Q571.9063,221.1875 572.4688,221.4844 L572.4688,224.2031 Q571.8438,223.625 571.25,223.3594 Q570.6563,223.0781 570.0313,223.0781 Q568.6875,223.0781 568,224.1563 Q567.3125,225.2188 567.3125,227.3125 Q567.3125,229.4063 568,230.4844 Q568.6875,231.5469 570.0313,231.5469 Q570.6563,231.5469 571.25,231.2813 Q571.8438,231 572.4688,230.4219 L572.4688,233.1406 Z "/><text fill="#000000" font-family="sans-serif" font-size="12" lengthAdjust="spacingAndGlyphs" textLength="193" x="583.5" y="231.6543">MiddlewareCommInterfaceStub</text><line style="stroke: #A80036; stroke-width: 1.5;" x1="555.5" x2="778.5" y1="243.5" y2="243.5"/><line style="stroke: #A80036; stroke-width: 1.5;" x1="555.5" x2="778.5" y1="251.5" y2="251.5"/><ellipse cx="565.5" cy="279.3047" fill="#84BE84" rx="3" ry="3" style="stroke: #038048; stroke-width: 1.0;"/><text fill="#000000" font-family="sans-serif" font-size="11" lengthAdjust="spacingAndGlyphs" textLength="171" x="574.5" y="282.5151">TrackData requestRfid(int rfid)</text><line style="stroke: #A80036; stroke-width: 1.0; stroke-dasharray: 1.0,2.0;" x1="555.5" x2="634" y1="265.9023" y2="265.9023"/><text fill="#000000" font-family="sans-serif" font-size="11" lengthAdjust="spacingAndGlyphs" textLength="66" x="634" y="269.2104">Use Case 1</text><line style="stroke: #A80036; stroke-width: 1.0; stroke-dasharray: 1.0,2.0;" x1="700" x2="778.5" y1="265.9023" y2="265.9023"/><!--MD5=[930c8140e7c1cb8e71aa7cd49967748e]
class TrackDataPlotterTests--><rect fill="#FEFECE" filter="url(#f14ekuv5oz2jt9)" height="48" id="TrackDataPlotterTests" style="stroke: #A80036; stroke-width: 1.5;" width="172" x="310" y="74"/><ellipse cx="325" cy="90" fill="#ADD1B2" rx="11" ry="11" style="stroke: #A80036; stroke-width: 1.0;"/><path d="M327.9688,95.6406 Q327.3906,95.9375 326.75,96.0781 Q326.1094,96.2344 325.4063,96.2344 Q322.9063,96.2344 321.5781,94.5938 Q320.2656,92.9375 320.2656,89.8125 Q320.2656,86.6875 321.5781,85.0313 Q322.9063,83.375 325.4063,83.375 Q326.1094,83.375 326.75,83.5313 Q327.4063,83.6875 327.9688,83.9844 L327.9688,86.7031 Q327.3438,86.125 326.75,85.8594 Q326.1563,85.5781 325.5313,85.5781 Q324.1875,85.5781 323.5,86.6563 Q322.8125,87.7188 322.8125,89.8125 Q322.8125,91.9063 323.5,92.9844 Q324.1875,94.0469 325.5313,94.0469 Q326.1563,94.0469 326.75,93.7813 Q327.3438,93.5 327.9688,92.9219 L327.9688,95.6406 Z "/><text fill="#000000" font-family="sans-serif" font-size="12" lengthAdjust="spacingAndGlyphs" textLength="140" x="339" y="94.1543">TrackDataPlotterTests</text><line style="stroke: #A80036; stroke-width: 1.5;" x1="311" x2="481" y1="106" y2="106"/><line style="stroke: #A80036; stroke-width: 1.5;" x1="311" x2="481" y1="114" y2="114"/><!--MD5=[c986427b061286eff33e87a088ad4bf9]
class TrackDataPlotter--><rect fill="#FEFECE" filter="url(#f14ekuv5oz2jt9)" height="48" id="TrackDataPlotter" style="stroke: #A80036; stroke-width: 1.5;" width="138" x="116" y="226.5"/><ellipse cx="131" cy="242.5" fill="#ADD1B2" rx="11" ry="11" style="stroke: #A80036; stroke-width: 1.0;"/><path d="M133.9688,248.1406 Q133.3906,248.4375 132.75,248.5781 Q132.1094,248.7344 131.4063,248.7344 Q128.9063,248.7344 127.5781,247.0938 Q126.2656,245.4375 126.2656,242.3125 Q126.2656,239.1875 127.5781,237.5313 Q128.9063,235.875 131.4063,235.875 Q132.1094,235.875 132.75,236.0313 Q133.4063,236.1875 133.9688,236.4844 L133.9688,239.2031 Q133.3438,238.625 132.75,238.3594 Q132.1563,238.0781 131.5313,238.0781 Q130.1875,238.0781 129.5,239.1563 Q128.8125,240.2188 128.8125,242.3125 Q128.8125,244.4063 129.5,245.4844 Q130.1875,246.5469 131.5313,246.5469 Q132.1563,246.5469 132.75,246.2813 Q133.3438,246 133.9688,245.4219 L133.9688,248.1406 Z "/><text fill="#000000" font-family="sans-serif" font-size="12" lengthAdjust="spacingAndGlyphs" textLength="106" x="145" y="246.6543">TrackDataPlotter</text><line style="stroke: #A80036; stroke-width: 1.5;" x1="117" x2="253" y1="258.5" y2="258.5"/><line style="stroke: #A80036; stroke-width: 1.5;" x1="117" x2="253" y1="266.5" y2="266.5"/><!--MD5=[77bc37423dd8876786830fad4054e33b]
reverse link DisplayCommInterface to DisplayCommInterfaceImplementation--><path d="M2349,157.51 C2349,170.43 2349,184.05 2349,196.72 " fill="none" id="DisplayCommInterface&lt;-DisplayCommInterfaceImplementation" style="stroke: #A80036; stroke-width: 1.0; stroke-dasharray: 7.0,7.0;"/><polygon fill="none" points="2342,157.37,2349,137.37,2356,157.37,2342,157.37" style="stroke: #A80036; stroke-width: 1.0;"/><!--MD5=[4e991cf787e933c55089f97eae394828]
reverse link DisplayComm2WayInterface to DisplayComm2WayInterfaceImplementation--><path d="M2025.72,157.4 C2026.56,175.55 2027.47,195.08 2028.23,211.46 " fill="none" id="DisplayComm2WayInterface&lt;-DisplayComm2WayInterfaceImplementation" style="stroke: #A80036; stroke-width: 1.0; stroke-dasharray: 7.0,7.0;"/><polygon fill="none" points="2018.72,157.67,2024.78,137.37,2032.71,157.02,2018.72,157.67" style="stroke: #A80036; stroke-width: 1.0;"/><!--MD5=[5beed6c3c7e4a84a4bfaa95bdf8cce79]
reverse link DisplayCommManager to DisplayCommManagerImplementation--><path d="M1715.06,157.51 C1714.63,170.43 1714.17,184.05 1713.75,196.72 " fill="none" id="DisplayCommManager&lt;-DisplayCommManagerImplementation" style="stroke: #A80036; stroke-width: 1.0; stroke-dasharray: 7.0,7.0;"/><polygon fill="none" points="1708.07,157.12,1715.73,137.37,1722.06,157.59,1708.07,157.12" style="stroke: #A80036; stroke-width: 1.0;"/><!--MD5=[9a02b467888c5123255f55ebe5217d7a]
link DisplayCommInterfaceImplementationTests to DisplayComm2WayInterfaceStub--><path d="M1373.85,122.19 C1375.63,144.54 1378.37,178.92 1380.56,206.32 " fill="none" id="DisplayCommInterfaceImplementationTests-&gt;DisplayComm2WayInterfaceStub" style="stroke: #A80036; stroke-width: 1.0; stroke-dasharray: 7.0,7.0;"/><polygon fill="#A80036" points="1380.96,211.35,1384.2274,202.0589,1380.5601,206.366,1376.2531,202.6987,1380.96,211.35" style="stroke: #A80036; stroke-width: 1.0;"/><!--MD5=[69695ace36e753468876c8d4fe5d2708]
link DisplayComm2WayInterfaceImplementationTests to DisplayCommManagerStub--><path d="M1024.08,122.19 C1028.99,144.54 1036.52,178.92 1042.53,206.32 " fill="none" id="DisplayComm2WayInterfaceImplementationTests-&gt;DisplayCommManagerStub" style="stroke: #A80036; stroke-width: 1.0; stroke-dasharray: 7.0,7.0;"/><polygon fill="#A80036" points="1043.64,211.35,1045.6134,201.7009,1042.566,206.4667,1037.8001,203.4193,1043.64,211.35" style="stroke: #A80036; stroke-width: 1.0;"/><!--MD5=[a3caa78d97a9caf08bd2afaaae1510f4]
link DisplayCommManagerImplementationTests to MiddlewareCommInterfaceStub--><path d="M667,122.19 C667,144.54 667,178.92 667,206.32 " fill="none" id="DisplayCommManagerImplementationTests-&gt;MiddlewareCommInterfaceStub" style="stroke: #A80036; stroke-width: 1.0; stroke-dasharray: 7.0,7.0;"/><polygon fill="#A80036" points="667,211.35,671,202.35,667,206.35,663,202.35,667,211.35" style="stroke: #A80036; stroke-width: 1.0;"/><!--MD5=[0cd290e6298e838268680010d5032c0d]
link DisplayCommInterfaceImplementationTests to DisplayCommInterfaceImplementation--><path d="M1475.69,122.04 C1503.9,127.65 1534.52,133.14 1563,137 C1842.97,174.97 1922.66,115.95 2197,183.5 C2209.45,186.57 2222.18,190.57 2234.71,195.08 " fill="none" id="DisplayCommInterfaceImplementationTests-&gt;DisplayCommInterfaceImplementation" style="stroke: #A80036; stroke-width: 1.0; stroke-dasharray: 7.0,7.0;"/><polygon fill="#A80036" points="2239.68,196.91,2232.5955,190.0682,2234.9827,195.1967,2229.8542,197.5839,2239.68,196.91" style="stroke: #A80036; stroke-width: 1.0;"/><!--MD5=[ce67f838794c14794f693dd46a642b9a]
link DisplayComm2WayInterfaceImplementationTests to DisplayComm2WayInterfaceImplementation--><path d="M1118.92,122.04 C1146.37,127.68 1176.23,133.18 1204,137 C1494.44,176.91 1576.05,118.82 1862,183.5 C1889.05,189.62 1917.47,199.39 1943.08,209.56 " fill="none" id="DisplayComm2WayInterfaceImplementationTests-&gt;DisplayComm2WayInterfaceImplementation" style="stroke: #A80036; stroke-width: 1.0; stroke-dasharray: 7.0,7.0;"/><polygon fill="#A80036" points="1947.83,211.47,1940.9593,204.4136,1943.1876,209.613,1937.9881,211.8414,1947.83,211.47" style="stroke: #A80036; stroke-width: 1.0;"/><!--MD5=[6f3abcadcd809ea193290ea1cf8b820a]
link DisplayCommManagerImplementationTests to DisplayCommManagerImplementation--><path d="M756.21,122.04 C781.23,127.75 808.55,133.29 834,137 C1144.73,182.31 1232.23,116.46 1539,183.5 C1553.25,186.61 1567.88,190.7 1582.31,195.31 " fill="none" id="DisplayCommManagerImplementationTests-&gt;DisplayCommManagerImplementation" style="stroke: #A80036; stroke-width: 1.0; stroke-dasharray: 7.0,7.0;"/><polygon fill="#A80036" points="1587.2,196.89,1579.873,190.3086,1582.4439,195.3475,1577.405,197.9183,1587.2,196.89" style="stroke: #A80036; stroke-width: 1.0;"/><!--MD5=[f24e7409bf4fec90fef0ed7e05f90b9b]
link TrackDataPlotterTests to TrackDataPlotter--><path d="M363.49,122.19 C325.24,149.47 261.86,194.68 221.82,223.23 " fill="none" id="TrackDataPlotterTests-&gt;TrackDataPlotter" style="stroke: #A80036; stroke-width: 1.0; stroke-dasharray: 7.0,7.0;"/><polygon fill="#A80036" points="217.54,226.29,227.1912,224.3266,221.6125,223.3892,222.5499,217.8106,217.54,226.29" style="stroke: #A80036; stroke-width: 1.0;"/><!--MD5=[6aaeadb42451b39b4e2cdcf83e2bb4cd]
reverse link DisplayComm2WayInterface to DisplayComm2WayInterfaceStub--><path d="M1876.95,135.99 C1875.29,136.33 1873.64,136.67 1872,137 C1735.83,164.31 1697.52,148.96 1563,183.5 C1534.29,190.87 1503.77,201.16 1476.23,211.41 " fill="none" id="DisplayComm2WayInterface&lt;-DisplayComm2WayInterfaceStub" style="stroke: #A80036; stroke-width: 1.0; stroke-dasharray: 7.0,7.0;"/><polygon fill="none" points="1875.71,129.1,1896.74,131.74,1878.66,142.79,1875.71,129.1" style="stroke: #A80036; stroke-width: 1.0;"/><!--MD5=[e6e0d8b3e0f7bf14f11c0899b3ad37ae]
reverse link DisplayCommManager to DisplayCommManagerStub--><path d="M1559.52,133.11 C1552.59,134.46 1545.73,135.76 1539,137 C1406.74,161.38 1370.44,150.76 1240,183.5 C1210.14,191 1178.32,201.26 1149.51,211.45 " fill="none" id="DisplayCommManager&lt;-DisplayCommManagerStub" style="stroke: #A80036; stroke-width: 1.0; stroke-dasharray: 7.0,7.0;"/><polygon fill="none" points="1558.18,126.24,1579.16,129.22,1560.9,139.97,1558.18,126.24" style="stroke: #A80036; stroke-width: 1.0;"/><!--MD5=[5d81552e0299c8bf3f961b848960bf8e]
@startuml Display02Packages_InternalDependencies


package edu.oakland.production.display02 {
    
}


package edu.oakland.production.display02 {
    interface DisplayCommInterface {
        __
        .. Use Case 1 ..
        {abstract} + TrackData receiveRfidRequest(int rfidNum)
    }
}


package edu.oakland.production.display02 {
    interface DisplayComm2WayInterface {
        __
        .. Use Case 1 ..
        {abstract} + TrackData passRfidRequest(int rfidNum)
    }
}


package edu.oakland.production.display02 {
    interface DisplayCommManager {
        __
        .. Use Case 1 ..
        {abstract} + TrackData evaluateRfidRequest(int rfidNum)
    }
}


package edu.oakland.production.display02 {
    class DisplayCommInterfaceImplementation {
        __
        .. Use Case 1 ..

        .. Use Case 2 ..

    }
}


DisplayCommInterfaceImplementation .up.|> DisplayCommInterface

package edu.oakland.production.display02 {
    class DisplayComm2WayInterfaceImplementation {
        __
        .. Use Case 1 ..
        {abstract} + LocationDataPoint passRfidRequest(int rfidNum)
    }
}


DisplayComm2WayInterfaceImplementation .up.|> DisplayComm2WayInterface

package edu.oakland.production.display02 {
    class DisplayCommManagerImplementation {
        __
        .. Use Case 1 ..

        .. Use Case 2 ..

    }
}


DisplayCommManagerImplementation .up.|> DisplayCommManager








package edu.oakland.test.display02 {
    
}


package edu.oakland.test.display02 {
    class DisplayCommInterfaceImplementationTests {

    }
}



package edu.oakland.test.display02 {
    class DisplayComm2WayInterfaceStub {
        __
        .. Use Case 1 ..
        {abstract} + TrackData passRfidRequest(int rfidNum)
    }
}

DisplayCommInterfaceImplementationTests ..> DisplayComm2WayInterfaceStub

package edu.oakland.test.display02 {
    class DisplayComm2WayInterfaceImplementationTests {

    }
}



package edu.oakland.test.display02 {
    class DisplayCommManagerStub {
        __
        .. Use Case 1 ..
        + TrackData evaluateRfidRequest(int rfidNum)
    }
}

DisplayComm2WayInterfaceImplementationTests ..> DisplayCommManagerStub

package edu.oakland.test.display02 {
    class DisplayCommManagerImplementationTests {

    }
}



package edu.oakland.test.display02 {
    class MiddlewareCommInterfaceStub {
        __
        .. Use Case 1 ..
        + TrackData requestRfid(int rfid)
    }
}

DisplayCommManagerImplementationTests ..> MiddlewareCommInterfaceStub

package edu.oakland.test.display02 {
    class TrackDataPlotterTests {

    }
}


DisplayCommInterfaceImplementationTests ..> DisplayCommInterfaceImplementation
DisplayComm2WayInterfaceImplementationTests ..> DisplayComm2WayInterfaceImplementation
DisplayCommManagerImplementationTests ..> DisplayCommManagerImplementation

package edu.oakland.helper.display02 {
    class TrackDataPlotter {
        
    }
}

TrackDataPlotterTests ..> TrackDataPlotter
DisplayComm2WayInterfaceStub .up.|> DisplayComm2WayInterface
DisplayCommManagerStub .up.|> DisplayCommManager


package edu.oakland.helper.display02 {
    
}




@enduml

PlantUML version 1.2020.02(Sun Mar 01 10:22:07 GMT 2020)
(GPL source distribution)
Java Runtime: OpenJDK Runtime Environment
JVM: OpenJDK 64-Bit Server VM
Java Version: 11.0.9+11-Ubuntu-0ubuntu1
Operating System: Linux
Default Encoding: ANSI_X3.4-1968
Language: en
Country: US
--></g></svg>