<?xml version="1.0" encoding="UTF-8" standalone="no"?><svg xmlns="http://www.w3.org/2000/svg" xmlns:xlink="http://www.w3.org/1999/xlink" contentScriptType="application/ecmascript" contentStyleType="text/css" height="509px" preserveAspectRatio="none" style="width:2514px;height:509px;" version="1.1" viewBox="0 0 2514 509" width="2514px" zoomAndPan="magnify"><defs><filter height="300%" id="f1b58t3azz2ncz" width="300%" x="-1" y="-1"><feGaussianBlur result="blurOut" stdDeviation="2.0"/><feColorMatrix in="blurOut" result="blurOut2" type="matrix" values="0 0 0 0 0 0 0 0 0 0 0 0 0 0 0 0 0 0 .4 0"/><feOffset dx="4.0" dy="4.0" in="blurOut2" result="blurOut3"/><feBlend in="SourceGraphic" in2="blurOut3" mode="normal"/></filter></defs><g><!--MD5=[fe59aae6f7bfe371a9c197ec1f7f843a]
cluster edu.oakland.production.display02--><polygon fill="#FFFFFF" filter="url(#f1b58t3azz2ncz)" points="22,24,295,24,302,46.2969,1158,46.2969,1158,359,22,359,22,24" style="stroke: #000000; stroke-width: 1.5;"/><line style="stroke: #000000; stroke-width: 1.5;" x1="22" x2="302" y1="46.2969" y2="46.2969"/><text fill="#000000" font-family="sans-serif" font-size="14" font-weight="bold" lengthAdjust="spacingAndGlyphs" textLength="267" x="26" y="38.9951">edu.oakland.production.display02</text><!--MD5=[9258003ec405d300d3379b4a3d8dd6ad]
cluster edu.oakland.test.display02--><polygon fill="#FFFFFF" filter="url(#f1b58t3azz2ncz)" points="1182,39,1400,39,1407,61.2969,2220,61.2969,2220,497,1182,497,1182,39" style="stroke: #000000; stroke-width: 1.5;"/><line style="stroke: #000000; stroke-width: 1.5;" x1="1182" x2="1407" y1="61.2969" y2="61.2969"/><text fill="#000000" font-family="sans-serif" font-size="14" font-weight="bold" lengthAdjust="spacingAndGlyphs" textLength="212" x="1186" y="53.9951">edu.oakland.test.display02</text><!--MD5=[a502031b5a5384de0a21e6ee820fd3b2]
cluster edu.oakland.helper.display02--><polygon fill="#FFFFFF" filter="url(#f1b58t3azz2ncz)" points="2244,39,2482,39,2489,61.2969,2492,61.2969,2492,138,2244,138,2244,39" style="stroke: #000000; stroke-width: 1.5;"/><line style="stroke: #000000; stroke-width: 1.5;" x1="2244" x2="2489" y1="61.2969" y2="61.2969"/><text fill="#000000" font-family="sans-serif" font-size="14" font-weight="bold" lengthAdjust="spacingAndGlyphs" textLength="232" x="2248" y="53.9951">edu.oakland.helper.display02</text><!--MD5=[c8d1e3134fecb0c949fd2a76cc0bb992]
class DisplayCommInterface--><rect fill="#FEFECE" filter="url(#f1b58t3azz2ncz)" height="77.6094" id="DisplayCommInterface" style="stroke: #A80036; stroke-width: 1.5;" width="268" x="38" y="59"/><ellipse cx="98.25" cy="75" fill="#B4A7E5" rx="11" ry="11" style="stroke: #A80036; stroke-width: 1.0;"/><path d="M94.1719,70.7656 L94.1719,68.6094 L101.5625,68.6094 L101.5625,70.7656 L99.0938,70.7656 L99.0938,78.8438 L101.5625,78.8438 L101.5625,81 L94.1719,81 L94.1719,78.8438 L96.6406,78.8438 L96.6406,70.7656 L94.1719,70.7656 Z "/><text fill="#000000" font-family="sans-serif" font-size="12" font-style="italic" lengthAdjust="spacingAndGlyphs" textLength="139" x="118.75" y="79.1543">DisplayCommInterface</text><line style="stroke: #A80036; stroke-width: 1.5;" x1="39" x2="305" y1="91" y2="91"/><line style="stroke: #A80036; stroke-width: 1.5;" x1="39" x2="305" y1="99" y2="99"/><ellipse cx="49" cy="126.8047" fill="#84BE84" rx="3" ry="3" style="stroke: #038048; stroke-width: 1.0;"/><text fill="#000000" font-family="sans-serif" font-size="11" font-style="italic" lengthAdjust="spacingAndGlyphs" textLength="242" x="58" y="130.0151">TrackData receiveRfidRequest(int rfidNum)</text><line style="stroke: #A80036; stroke-width: 1.0; stroke-dasharray: 1.0,2.0;" x1="39" x2="139" y1="113.4023" y2="113.4023"/><text fill="#000000" font-family="sans-serif" font-size="11" lengthAdjust="spacingAndGlyphs" textLength="66" x="139" y="116.7104">Use Case 1</text><line style="stroke: #A80036; stroke-width: 1.0; stroke-dasharray: 1.0,2.0;" x1="205" x2="305" y1="113.4023" y2="113.4023"/><!--MD5=[f6b51b5f862da5ce226c62e411e84628]
class DisplayComm2WayInterface--><rect fill="#FEFECE" filter="url(#f1b58t3azz2ncz)" height="77.6094" id="DisplayComm2WayInterface" style="stroke: #A80036; stroke-width: 1.5;" width="252" x="341" y="59"/><ellipse cx="376.7" cy="75" fill="#B4A7E5" rx="11" ry="11" style="stroke: #A80036; stroke-width: 1.0;"/><path d="M372.6219,70.7656 L372.6219,68.6094 L380.0125,68.6094 L380.0125,70.7656 L377.5438,70.7656 L377.5438,78.8438 L380.0125,78.8438 L380.0125,81 L372.6219,81 L372.6219,78.8438 L375.0906,78.8438 L375.0906,70.7656 L372.6219,70.7656 Z "/><text fill="#000000" font-family="sans-serif" font-size="12" font-style="italic" lengthAdjust="spacingAndGlyphs" textLength="174" x="395.3" y="79.1543">DisplayComm2WayInterface</text><line style="stroke: #A80036; stroke-width: 1.5;" x1="342" x2="592" y1="91" y2="91"/><line style="stroke: #A80036; stroke-width: 1.5;" x1="342" x2="592" y1="99" y2="99"/><ellipse cx="352" cy="126.8047" fill="#84BE84" rx="3" ry="3" style="stroke: #038048; stroke-width: 1.0;"/><text fill="#000000" font-family="sans-serif" font-size="11" font-style="italic" lengthAdjust="spacingAndGlyphs" textLength="226" x="361" y="130.0151">TrackData passRfidRequest(int rfidNum)</text><line style="stroke: #A80036; stroke-width: 1.0; stroke-dasharray: 1.0,2.0;" x1="342" x2="434" y1="113.4023" y2="113.4023"/><text fill="#000000" font-family="sans-serif" font-size="11" lengthAdjust="spacingAndGlyphs" textLength="66" x="434" y="116.7104">Use Case 1</text><line style="stroke: #A80036; stroke-width: 1.0; stroke-dasharray: 1.0,2.0;" x1="500" x2="592" y1="113.4023" y2="113.4023"/><!--MD5=[6aeb72f2773d7cabb45309482beeff0a]
class DisplayCommManager--><rect fill="#FEFECE" filter="url(#f1b58t3azz2ncz)" height="77.6094" id="DisplayCommManager" style="stroke: #A80036; stroke-width: 1.5;" width="275" x="628.5" y="59"/><ellipse cx="693.25" cy="75" fill="#B4A7E5" rx="11" ry="11" style="stroke: #A80036; stroke-width: 1.0;"/><path d="M689.1719,70.7656 L689.1719,68.6094 L696.5625,68.6094 L696.5625,70.7656 L694.0938,70.7656 L694.0938,78.8438 L696.5625,78.8438 L696.5625,81 L689.1719,81 L689.1719,78.8438 L691.6406,78.8438 L691.6406,70.7656 L689.1719,70.7656 Z "/><text fill="#000000" font-family="sans-serif" font-size="12" font-style="italic" lengthAdjust="spacingAndGlyphs" textLength="137" x="713.75" y="79.1543">DisplayCommManager</text><line style="stroke: #A80036; stroke-width: 1.5;" x1="629.5" x2="902.5" y1="91" y2="91"/><line style="stroke: #A80036; stroke-width: 1.5;" x1="629.5" x2="902.5" y1="99" y2="99"/><ellipse cx="639.5" cy="126.8047" fill="#84BE84" rx="3" ry="3" style="stroke: #038048; stroke-width: 1.0;"/><text fill="#000000" font-family="sans-serif" font-size="11" font-style="italic" lengthAdjust="spacingAndGlyphs" textLength="249" x="648.5" y="130.0151">TrackData evaluateRfidRequest(int rfidNum)</text><line style="stroke: #A80036; stroke-width: 1.0; stroke-dasharray: 1.0,2.0;" x1="629.5" x2="733" y1="113.4023" y2="113.4023"/><text fill="#000000" font-family="sans-serif" font-size="11" lengthAdjust="spacingAndGlyphs" textLength="66" x="733" y="116.7104">Use Case 1</text><line style="stroke: #A80036; stroke-width: 1.0; stroke-dasharray: 1.0,2.0;" x1="799" x2="902.5" y1="113.4023" y2="113.4023"/><!--MD5=[a35092e604da7274febf4e2cf9a25087]
class DisplayCommInterfaceImplementation--><rect fill="#FEFECE" filter="url(#f1b58t3azz2ncz)" height="107.2188" id="DisplayCommInterfaceImplementation" style="stroke: #A80036; stroke-width: 1.5;" width="268" x="38" y="216.5"/><ellipse cx="53.45" cy="232.5" fill="#ADD1B2" rx="11" ry="11" style="stroke: #A80036; stroke-width: 1.0;"/><path d="M56.4188,238.1406 Q55.8406,238.4375 55.2,238.5781 Q54.5594,238.7344 53.8563,238.7344 Q51.3563,238.7344 50.0281,237.0938 Q48.7156,235.4375 48.7156,232.3125 Q48.7156,229.1875 50.0281,227.5313 Q51.3563,225.875 53.8563,225.875 Q54.5594,225.875 55.2,226.0313 Q55.8563,226.1875 56.4188,226.4844 L56.4188,229.2031 Q55.7938,228.625 55.2,228.3594 Q54.6063,228.0781 53.9813,228.0781 Q52.6375,228.0781 51.95,229.1563 Q51.2625,230.2188 51.2625,232.3125 Q51.2625,234.4063 51.95,235.4844 Q52.6375,236.5469 53.9813,236.5469 Q54.6063,236.5469 55.2,236.2813 Q55.7938,236 56.4188,235.4219 L56.4188,238.1406 Z "/><text fill="#000000" font-family="sans-serif" font-size="12" lengthAdjust="spacingAndGlyphs" textLength="235" x="67.55" y="236.6543">DisplayCommInterfaceImplementation</text><line style="stroke: #A80036; stroke-width: 1.5;" x1="39" x2="305" y1="248.5" y2="248.5"/><line style="stroke: #A80036; stroke-width: 1.5;" x1="39" x2="305" y1="256.5" y2="256.5"/><ellipse cx="49" cy="284.3047" fill="#84BE84" rx="3" ry="3" style="stroke: #038048; stroke-width: 1.0;"/><text fill="#000000" font-family="sans-serif" font-size="11" font-style="italic" lengthAdjust="spacingAndGlyphs" textLength="242" x="58" y="287.5151">TrackData receiveRfidRequest(int rfidNum)</text><line style="stroke: #A80036; stroke-width: 1.0; stroke-dasharray: 1.0,2.0;" x1="39" x2="139" y1="270.9023" y2="270.9023"/><text fill="#000000" font-family="sans-serif" font-size="11" lengthAdjust="spacingAndGlyphs" textLength="66" x="139" y="274.2104">Use Case 1</text><line style="stroke: #A80036; stroke-width: 1.0; stroke-dasharray: 1.0,2.0;" x1="205" x2="305" y1="270.9023" y2="270.9023"/><text fill="#000000" font-family="sans-serif" font-size="11" lengthAdjust="spacingAndGlyphs" textLength="0" x="48" y="317.1245"/><line style="stroke: #A80036; stroke-width: 1.0; stroke-dasharray: 1.0,2.0;" x1="39" x2="139" y1="300.5117" y2="300.5117"/><text fill="#000000" font-family="sans-serif" font-size="11" lengthAdjust="spacingAndGlyphs" textLength="66" x="139" y="303.8198">Use Case 2</text><line style="stroke: #A80036; stroke-width: 1.0; stroke-dasharray: 1.0,2.0;" x1="205" x2="305" y1="300.5117" y2="300.5117"/><!--MD5=[46657c2900260d4d40350fe3f8c544df]
class DisplayComm2WayInterfaceImplementation--><rect fill="#FEFECE" filter="url(#f1b58t3azz2ncz)" height="103.2188" id="DisplayComm2WayInterfaceImplementation" style="stroke: #A80036; stroke-width: 1.5;" width="370" x="341" y="218.5"/><ellipse cx="387.75" cy="234.5" fill="#ADD1B2" rx="11" ry="11" style="stroke: #A80036; stroke-width: 1.0;"/><path d="M390.7188,240.1406 Q390.1406,240.4375 389.5,240.5781 Q388.8594,240.7344 388.1563,240.7344 Q385.6563,240.7344 384.3281,239.0938 Q383.0156,237.4375 383.0156,234.3125 Q383.0156,231.1875 384.3281,229.5313 Q385.6563,227.875 388.1563,227.875 Q388.8594,227.875 389.5,228.0313 Q390.1563,228.1875 390.7188,228.4844 L390.7188,231.2031 Q390.0938,230.625 389.5,230.3594 Q388.9063,230.0781 388.2813,230.0781 Q386.9375,230.0781 386.25,231.1563 Q385.5625,232.2188 385.5625,234.3125 Q385.5625,236.4063 386.25,237.4844 Q386.9375,238.5469 388.2813,238.5469 Q388.9063,238.5469 389.5,238.2813 Q390.0938,238 390.7188,237.4219 L390.7188,240.1406 Z "/><text fill="#000000" font-family="sans-serif" font-size="12" lengthAdjust="spacingAndGlyphs" textLength="268" x="408.25" y="238.6543">DisplayComm2WayInterfaceImplementation</text><line style="stroke: #A80036; stroke-width: 1.5;" x1="342" x2="710" y1="250.5" y2="250.5"/><line style="stroke: #A80036; stroke-width: 1.5;" x1="342" x2="710" y1="258.5" y2="258.5"/><ellipse cx="352" cy="286.3047" fill="#84BE84" rx="3" ry="3" style="stroke: #038048; stroke-width: 1.0;"/><text fill="#000000" font-family="sans-serif" font-size="11" font-style="italic" lengthAdjust="spacingAndGlyphs" textLength="226" x="361" y="289.5151">TrackData passRfidRequest(int rfidNum)</text><ellipse cx="352" cy="299.1094" fill="#84BE84" rx="3" ry="3" style="stroke: #038048; stroke-width: 1.0;"/><text fill="#000000" font-family="sans-serif" font-size="11" font-style="italic" lengthAdjust="spacingAndGlyphs" textLength="269" x="361" y="302.3198">void determineUserRequestFormat(int rfidNum)</text><ellipse cx="352" cy="311.9141" fill="#84BE84" rx="3" ry="3" style="stroke: #038048; stroke-width: 1.0;"/><text fill="#000000" font-family="sans-serif" font-size="11" font-style="italic" lengthAdjust="spacingAndGlyphs" textLength="344" x="361" y="315.1245">void receiveRequestFromDisplayCommInterface(int rfidNum)</text><line style="stroke: #A80036; stroke-width: 1.0; stroke-dasharray: 1.0,2.0;" x1="342" x2="493" y1="272.9023" y2="272.9023"/><text fill="#000000" font-family="sans-serif" font-size="11" lengthAdjust="spacingAndGlyphs" textLength="66" x="493" y="276.2104">Use Case 1</text><line style="stroke: #A80036; stroke-width: 1.0; stroke-dasharray: 1.0,2.0;" x1="559" x2="710" y1="272.9023" y2="272.9023"/><!--MD5=[3a27b63ddb357afc5dde5581215f51f9]
class DisplayCommManagerImplementation--><rect fill="#FEFECE" filter="url(#f1b58t3azz2ncz)" height="145.6328" id="DisplayCommManagerImplementation" style="stroke: #A80036; stroke-width: 1.5;" width="395" x="746.5" y="197"/><ellipse cx="822.75" cy="213" fill="#ADD1B2" rx="11" ry="11" style="stroke: #A80036; stroke-width: 1.0;"/><path d="M825.7188,218.6406 Q825.1406,218.9375 824.5,219.0781 Q823.8594,219.2344 823.1563,219.2344 Q820.6563,219.2344 819.3281,217.5938 Q818.0156,215.9375 818.0156,212.8125 Q818.0156,209.6875 819.3281,208.0313 Q820.6563,206.375 823.1563,206.375 Q823.8594,206.375 824.5,206.5313 Q825.1563,206.6875 825.7188,206.9844 L825.7188,209.7031 Q825.0938,209.125 824.5,208.8594 Q823.9063,208.5781 823.2813,208.5781 Q821.9375,208.5781 821.25,209.6563 Q820.5625,210.7188 820.5625,212.8125 Q820.5625,214.9063 821.25,215.9844 Q821.9375,217.0469 823.2813,217.0469 Q823.9063,217.0469 824.5,216.7813 Q825.0938,216.5 825.7188,215.9219 L825.7188,218.6406 Z "/><text fill="#000000" font-family="sans-serif" font-size="12" lengthAdjust="spacingAndGlyphs" textLength="234" x="843.25" y="217.1543">DisplayCommManagerImplementation</text><line style="stroke: #A80036; stroke-width: 1.5;" x1="747.5" x2="1140.5" y1="229" y2="229"/><line style="stroke: #A80036; stroke-width: 1.5;" x1="747.5" x2="1140.5" y1="237" y2="237"/><ellipse cx="757.5" cy="264.8047" fill="#84BE84" rx="3" ry="3" style="stroke: #038048; stroke-width: 1.0;"/><text fill="#000000" font-family="sans-serif" font-size="11" font-style="italic" lengthAdjust="spacingAndGlyphs" textLength="249" x="766.5" y="268.0151">TrackData evaluateRfidRequest(int rfidNum)</text><ellipse cx="757.5" cy="277.6094" fill="#84BE84" rx="3" ry="3" style="stroke: #038048; stroke-width: 1.0;"/><text fill="#000000" font-family="sans-serif" font-size="11" font-style="italic" lengthAdjust="spacingAndGlyphs" textLength="369" x="766.5" y="280.8198">TrackData passRequestToMiddlewareCommInterface(int rfidNum)</text><ellipse cx="757.5" cy="290.4141" fill="#84BE84" rx="3" ry="3" style="stroke: #038048; stroke-width: 1.0;"/><text fill="#000000" font-family="sans-serif" font-size="11" font-style="italic" lengthAdjust="spacingAndGlyphs" textLength="339" x="766.5" y="293.6245">void receiveRequestFromDisplay2WayInterface(int rfidNum)</text><text fill="#000000" font-family="sans-serif" font-size="11" lengthAdjust="spacingAndGlyphs" textLength="0" x="770.5" y="306.4292"/><line style="stroke: #A80036; stroke-width: 1.0; stroke-dasharray: 1.0,2.0;" x1="747.5" x2="911" y1="251.4023" y2="251.4023"/><text fill="#000000" font-family="sans-serif" font-size="11" lengthAdjust="spacingAndGlyphs" textLength="66" x="911" y="254.7104">Use Case 1</text><line style="stroke: #A80036; stroke-width: 1.0; stroke-dasharray: 1.0,2.0;" x1="977" x2="1140.5" y1="251.4023" y2="251.4023"/><text fill="#000000" font-family="sans-serif" font-size="11" lengthAdjust="spacingAndGlyphs" textLength="0" x="756.5" y="336.0386"/><line style="stroke: #A80036; stroke-width: 1.0; stroke-dasharray: 1.0,2.0;" x1="747.5" x2="911" y1="319.4258" y2="319.4258"/><text fill="#000000" font-family="sans-serif" font-size="11" lengthAdjust="spacingAndGlyphs" textLength="66" x="911" y="322.7339">Use Case 2</text><line style="stroke: #A80036; stroke-width: 1.0; stroke-dasharray: 1.0,2.0;" x1="977" x2="1140.5" y1="319.4258" y2="319.4258"/><!--MD5=[d454b7777f115113290d89683d7a426c]
class DisplayCommInterfaceImplementationTests--><rect fill="#FEFECE" filter="url(#f1b58t3azz2ncz)" height="48" id="DisplayCommInterfaceImplementationTests" style="stroke: #A80036; stroke-width: 1.5;" width="301" x="1198.5" y="74"/><ellipse cx="1213.5" cy="90" fill="#ADD1B2" rx="11" ry="11" style="stroke: #A80036; stroke-width: 1.0;"/><path d="M1216.4688,95.6406 Q1215.8906,95.9375 1215.25,96.0781 Q1214.6094,96.2344 1213.9063,96.2344 Q1211.4063,96.2344 1210.0781,94.5938 Q1208.7656,92.9375 1208.7656,89.8125 Q1208.7656,86.6875 1210.0781,85.0313 Q1211.4063,83.375 1213.9063,83.375 Q1214.6094,83.375 1215.25,83.5313 Q1215.9063,83.6875 1216.4688,83.9844 L1216.4688,86.7031 Q1215.8438,86.125 1215.25,85.8594 Q1214.6563,85.5781 1214.0313,85.5781 Q1212.6875,85.5781 1212,86.6563 Q1211.3125,87.7188 1211.3125,89.8125 Q1211.3125,91.9063 1212,92.9844 Q1212.6875,94.0469 1214.0313,94.0469 Q1214.6563,94.0469 1215.25,93.7813 Q1215.8438,93.5 1216.4688,92.9219 L1216.4688,95.6406 Z "/><text fill="#000000" font-family="sans-serif" font-size="12" lengthAdjust="spacingAndGlyphs" textLength="269" x="1227.5" y="94.1543">DisplayCommInterfaceImplementationTests</text><line style="stroke: #A80036; stroke-width: 1.5;" x1="1199.5" x2="1498.5" y1="106" y2="106"/><line style="stroke: #A80036; stroke-width: 1.5;" x1="1199.5" x2="1498.5" y1="114" y2="114"/><!--MD5=[178181f4c7684560c711246055fc01d3]
class DisplayComm2WayInterfaceImplementationTests--><rect fill="#FEFECE" filter="url(#f1b58t3azz2ncz)" height="48" id="DisplayComm2WayInterfaceImplementationTests" style="stroke: #A80036; stroke-width: 1.5;" width="334" x="1535" y="74"/><ellipse cx="1550" cy="90" fill="#ADD1B2" rx="11" ry="11" style="stroke: #A80036; stroke-width: 1.0;"/><path d="M1552.9688,95.6406 Q1552.3906,95.9375 1551.75,96.0781 Q1551.1094,96.2344 1550.4063,96.2344 Q1547.9063,96.2344 1546.5781,94.5938 Q1545.2656,92.9375 1545.2656,89.8125 Q1545.2656,86.6875 1546.5781,85.0313 Q1547.9063,83.375 1550.4063,83.375 Q1551.1094,83.375 1551.75,83.5313 Q1552.4063,83.6875 1552.9688,83.9844 L1552.9688,86.7031 Q1552.3438,86.125 1551.75,85.8594 Q1551.1563,85.5781 1550.5313,85.5781 Q1549.1875,85.5781 1548.5,86.6563 Q1547.8125,87.7188 1547.8125,89.8125 Q1547.8125,91.9063 1548.5,92.9844 Q1549.1875,94.0469 1550.5313,94.0469 Q1551.1563,94.0469 1551.75,93.7813 Q1552.3438,93.5 1552.9688,92.9219 L1552.9688,95.6406 Z "/><text fill="#000000" font-family="sans-serif" font-size="12" lengthAdjust="spacingAndGlyphs" textLength="302" x="1564" y="94.1543">DisplayComm2WayInterfaceImplementationTests</text><line style="stroke: #A80036; stroke-width: 1.5;" x1="1536" x2="1868" y1="106" y2="106"/><line style="stroke: #A80036; stroke-width: 1.5;" x1="1536" x2="1868" y1="114" y2="114"/><!--MD5=[937d6d8ff87a99d0d5dcd66ee05a1fa4]
class DisplayCommManagerImplementationTests--><rect fill="#FEFECE" filter="url(#f1b58t3azz2ncz)" height="48" id="DisplayCommManagerImplementationTests" style="stroke: #A80036; stroke-width: 1.5;" width="300" x="1904" y="74"/><ellipse cx="1919" cy="90" fill="#ADD1B2" rx="11" ry="11" style="stroke: #A80036; stroke-width: 1.0;"/><path d="M1921.9688,95.6406 Q1921.3906,95.9375 1920.75,96.0781 Q1920.1094,96.2344 1919.4063,96.2344 Q1916.9063,96.2344 1915.5781,94.5938 Q1914.2656,92.9375 1914.2656,89.8125 Q1914.2656,86.6875 1915.5781,85.0313 Q1916.9063,83.375 1919.4063,83.375 Q1920.1094,83.375 1920.75,83.5313 Q1921.4063,83.6875 1921.9688,83.9844 L1921.9688,86.7031 Q1921.3438,86.125 1920.75,85.8594 Q1920.1563,85.5781 1919.5313,85.5781 Q1918.1875,85.5781 1917.5,86.6563 Q1916.8125,87.7188 1916.8125,89.8125 Q1916.8125,91.9063 1917.5,92.9844 Q1918.1875,94.0469 1919.5313,94.0469 Q1920.1563,94.0469 1920.75,93.7813 Q1921.3438,93.5 1921.9688,92.9219 L1921.9688,95.6406 Z "/><text fill="#000000" font-family="sans-serif" font-size="12" lengthAdjust="spacingAndGlyphs" textLength="268" x="1933" y="94.1543">DisplayCommManagerImplementationTests</text><line style="stroke: #A80036; stroke-width: 1.5;" x1="1905" x2="2203" y1="106" y2="106"/><line style="stroke: #A80036; stroke-width: 1.5;" x1="1905" x2="2203" y1="114" y2="114"/><!--MD5=[930c8140e7c1cb8e71aa7cd49967748e]
class TrackDataPlotterTests--><rect fill="#FEFECE" filter="url(#f1b58t3azz2ncz)" height="48" id="TrackDataPlotterTests" style="stroke: #A80036; stroke-width: 1.5;" width="172" x="1263" y="246"/><ellipse cx="1278" cy="262" fill="#ADD1B2" rx="11" ry="11" style="stroke: #A80036; stroke-width: 1.0;"/><path d="M1280.9688,267.6406 Q1280.3906,267.9375 1279.75,268.0781 Q1279.1094,268.2344 1278.4063,268.2344 Q1275.9063,268.2344 1274.5781,266.5938 Q1273.2656,264.9375 1273.2656,261.8125 Q1273.2656,258.6875 1274.5781,257.0313 Q1275.9063,255.375 1278.4063,255.375 Q1279.1094,255.375 1279.75,255.5313 Q1280.4063,255.6875 1280.9688,255.9844 L1280.9688,258.7031 Q1280.3438,258.125 1279.75,257.8594 Q1279.1563,257.5781 1278.5313,257.5781 Q1277.1875,257.5781 1276.5,258.6563 Q1275.8125,259.7188 1275.8125,261.8125 Q1275.8125,263.9063 1276.5,264.9844 Q1277.1875,266.0469 1278.5313,266.0469 Q1279.1563,266.0469 1279.75,265.7813 Q1280.3438,265.5 1280.9688,264.9219 L1280.9688,267.6406 Z "/><text fill="#000000" font-family="sans-serif" font-size="12" lengthAdjust="spacingAndGlyphs" textLength="140" x="1292" y="266.1543">TrackDataPlotterTests</text><line style="stroke: #A80036; stroke-width: 1.5;" x1="1264" x2="1434" y1="278" y2="278"/><line style="stroke: #A80036; stroke-width: 1.5;" x1="1264" x2="1434" y1="286" y2="286"/><!--MD5=[a333ac13e0fdf2a5898aafabd38d3c1b]
class DisplayComm2WayInterfaceStub--><rect fill="#FEFECE" filter="url(#f1b58t3azz2ncz)" height="77.6094" id="DisplayComm2WayInterfaceStub" style="stroke: #A80036; stroke-width: 1.5;" width="252" x="1470" y="231"/><ellipse cx="1494" cy="247" fill="#ADD1B2" rx="11" ry="11" style="stroke: #A80036; stroke-width: 1.0;"/><path d="M1496.9688,252.6406 Q1496.3906,252.9375 1495.75,253.0781 Q1495.1094,253.2344 1494.4063,253.2344 Q1491.9063,253.2344 1490.5781,251.5938 Q1489.2656,249.9375 1489.2656,246.8125 Q1489.2656,243.6875 1490.5781,242.0313 Q1491.9063,240.375 1494.4063,240.375 Q1495.1094,240.375 1495.75,240.5313 Q1496.4063,240.6875 1496.9688,240.9844 L1496.9688,243.7031 Q1496.3438,243.125 1495.75,242.8594 Q1495.1563,242.5781 1494.5313,242.5781 Q1493.1875,242.5781 1492.5,243.6563 Q1491.8125,244.7188 1491.8125,246.8125 Q1491.8125,248.9063 1492.5,249.9844 Q1493.1875,251.0469 1494.5313,251.0469 Q1495.1563,251.0469 1495.75,250.7813 Q1496.3438,250.5 1496.9688,249.9219 L1496.9688,252.6406 Z "/><text fill="#000000" font-family="sans-serif" font-size="12" lengthAdjust="spacingAndGlyphs" textLength="200" x="1510" y="251.1543">DisplayComm2WayInterfaceStub</text><line style="stroke: #A80036; stroke-width: 1.5;" x1="1471" x2="1721" y1="263" y2="263"/><line style="stroke: #A80036; stroke-width: 1.5;" x1="1471" x2="1721" y1="271" y2="271"/><ellipse cx="1481" cy="298.8047" fill="#84BE84" rx="3" ry="3" style="stroke: #038048; stroke-width: 1.0;"/><text fill="#000000" font-family="sans-serif" font-size="11" font-style="italic" lengthAdjust="spacingAndGlyphs" textLength="226" x="1490" y="302.0151">TrackData passRfidRequest(int rfidNum)</text><line style="stroke: #A80036; stroke-width: 1.0; stroke-dasharray: 1.0,2.0;" x1="1471" x2="1563" y1="285.4023" y2="285.4023"/><text fill="#000000" font-family="sans-serif" font-size="11" lengthAdjust="spacingAndGlyphs" textLength="66" x="1563" y="288.7104">Use Case 1</text><line style="stroke: #A80036; stroke-width: 1.0; stroke-dasharray: 1.0,2.0;" x1="1629" x2="1721" y1="285.4023" y2="285.4023"/><!--MD5=[2970358178d6cf57fc5a801b39eb8d0b]
class DisplayCommManagerStub--><rect fill="#FEFECE" filter="url(#f1b58t3azz2ncz)" height="77.6094" id="DisplayCommManagerStub" style="stroke: #A80036; stroke-width: 1.5;" width="273" x="1757.5" y="231"/><ellipse cx="1806.75" cy="247" fill="#ADD1B2" rx="11" ry="11" style="stroke: #A80036; stroke-width: 1.0;"/><path d="M1809.7188,252.6406 Q1809.1406,252.9375 1808.5,253.0781 Q1807.8594,253.2344 1807.1563,253.2344 Q1804.6563,253.2344 1803.3281,251.5938 Q1802.0156,249.9375 1802.0156,246.8125 Q1802.0156,243.6875 1803.3281,242.0313 Q1804.6563,240.375 1807.1563,240.375 Q1807.8594,240.375 1808.5,240.5313 Q1809.1563,240.6875 1809.7188,240.9844 L1809.7188,243.7031 Q1809.0938,243.125 1808.5,242.8594 Q1807.9063,242.5781 1807.2813,242.5781 Q1805.9375,242.5781 1805.25,243.6563 Q1804.5625,244.7188 1804.5625,246.8125 Q1804.5625,248.9063 1805.25,249.9844 Q1805.9375,251.0469 1807.2813,251.0469 Q1807.9063,251.0469 1808.5,250.7813 Q1809.0938,250.5 1809.7188,249.9219 L1809.7188,252.6406 Z "/><text fill="#000000" font-family="sans-serif" font-size="12" lengthAdjust="spacingAndGlyphs" textLength="166" x="1827.25" y="251.1543">DisplayCommManagerStub</text><line style="stroke: #A80036; stroke-width: 1.5;" x1="1758.5" x2="2029.5" y1="263" y2="263"/><line style="stroke: #A80036; stroke-width: 1.5;" x1="1758.5" x2="2029.5" y1="271" y2="271"/><ellipse cx="1768.5" cy="298.8047" fill="#84BE84" rx="3" ry="3" style="stroke: #038048; stroke-width: 1.0;"/><text fill="#000000" font-family="sans-serif" font-size="11" lengthAdjust="spacingAndGlyphs" textLength="247" x="1777.5" y="302.0151">TrackData evaluateRfidRequest(int rfidNum)</text><line style="stroke: #A80036; stroke-width: 1.0; stroke-dasharray: 1.0,2.0;" x1="1758.5" x2="1861" y1="285.4023" y2="285.4023"/><text fill="#000000" font-family="sans-serif" font-size="11" lengthAdjust="spacingAndGlyphs" textLength="66" x="1861" y="288.7104">Use Case 1</text><line style="stroke: #A80036; stroke-width: 1.0; stroke-dasharray: 1.0,2.0;" x1="1927" x2="2029.5" y1="285.4023" y2="285.4023"/><!--MD5=[cf56a65163663c6c6c7b84cd7c204b97]
class MiddlewareCommInterfaceStub--><rect fill="#FEFECE" filter="url(#f1b58t3azz2ncz)" height="77.6094" id="MiddlewareCommInterfaceStub" style="stroke: #A80036; stroke-width: 1.5;" width="225" x="1236.5" y="403"/><ellipse cx="1251.5" cy="419" fill="#ADD1B2" rx="11" ry="11" style="stroke: #A80036; stroke-width: 1.0;"/><path d="M1254.4688,424.6406 Q1253.8906,424.9375 1253.25,425.0781 Q1252.6094,425.2344 1251.9063,425.2344 Q1249.4063,425.2344 1248.0781,423.5938 Q1246.7656,421.9375 1246.7656,418.8125 Q1246.7656,415.6875 1248.0781,414.0313 Q1249.4063,412.375 1251.9063,412.375 Q1252.6094,412.375 1253.25,412.5313 Q1253.9063,412.6875 1254.4688,412.9844 L1254.4688,415.7031 Q1253.8438,415.125 1253.25,414.8594 Q1252.6563,414.5781 1252.0313,414.5781 Q1250.6875,414.5781 1250,415.6563 Q1249.3125,416.7188 1249.3125,418.8125 Q1249.3125,420.9063 1250,421.9844 Q1250.6875,423.0469 1252.0313,423.0469 Q1252.6563,423.0469 1253.25,422.7813 Q1253.8438,422.5 1254.4688,421.9219 L1254.4688,424.6406 Z "/><text fill="#000000" font-family="sans-serif" font-size="12" lengthAdjust="spacingAndGlyphs" textLength="193" x="1265.5" y="423.1543">MiddlewareCommInterfaceStub</text><line style="stroke: #A80036; stroke-width: 1.5;" x1="1237.5" x2="1460.5" y1="435" y2="435"/><line style="stroke: #A80036; stroke-width: 1.5;" x1="1237.5" x2="1460.5" y1="443" y2="443"/><ellipse cx="1247.5" cy="470.8047" fill="#84BE84" rx="3" ry="3" style="stroke: #038048; stroke-width: 1.0;"/><text fill="#000000" font-family="sans-serif" font-size="11" lengthAdjust="spacingAndGlyphs" textLength="171" x="1256.5" y="474.0151">TrackData requestRfid(int rfid)</text><line style="stroke: #A80036; stroke-width: 1.0; stroke-dasharray: 1.0,2.0;" x1="1237.5" x2="1316" y1="457.4023" y2="457.4023"/><text fill="#000000" font-family="sans-serif" font-size="11" lengthAdjust="spacingAndGlyphs" textLength="66" x="1316" y="460.7104">Use Case 1</text><line style="stroke: #A80036; stroke-width: 1.0; stroke-dasharray: 1.0,2.0;" x1="1382" x2="1460.5" y1="457.4023" y2="457.4023"/><!--MD5=[c986427b061286eff33e87a088ad4bf9]
class TrackDataPlotter--><rect fill="#FEFECE" filter="url(#f1b58t3azz2ncz)" height="48" id="TrackDataPlotter" style="stroke: #A80036; stroke-width: 1.5;" width="138" x="2299" y="74"/><ellipse cx="2314" cy="90" fill="#ADD1B2" rx="11" ry="11" style="stroke: #A80036; stroke-width: 1.0;"/><path d="M2316.9688,95.6406 Q2316.3906,95.9375 2315.75,96.0781 Q2315.1094,96.2344 2314.4063,96.2344 Q2311.9063,96.2344 2310.5781,94.5938 Q2309.2656,92.9375 2309.2656,89.8125 Q2309.2656,86.6875 2310.5781,85.0313 Q2311.9063,83.375 2314.4063,83.375 Q2315.1094,83.375 2315.75,83.5313 Q2316.4063,83.6875 2316.9688,83.9844 L2316.9688,86.7031 Q2316.3438,86.125 2315.75,85.8594 Q2315.1563,85.5781 2314.5313,85.5781 Q2313.1875,85.5781 2312.5,86.6563 Q2311.8125,87.7188 2311.8125,89.8125 Q2311.8125,91.9063 2312.5,92.9844 Q2313.1875,94.0469 2314.5313,94.0469 Q2315.1563,94.0469 2315.75,93.7813 Q2316.3438,93.5 2316.9688,92.9219 L2316.9688,95.6406 Z "/><text fill="#000000" font-family="sans-serif" font-size="12" lengthAdjust="spacingAndGlyphs" textLength="106" x="2328" y="94.1543">TrackDataPlotter</text><line style="stroke: #A80036; stroke-width: 1.5;" x1="2300" x2="2436" y1="106" y2="106"/><line style="stroke: #A80036; stroke-width: 1.5;" x1="2300" x2="2436" y1="114" y2="114"/><!--MD5=[c9341cce37a1a8bee80ad1365349afef]
link DisplayCommInterface to DisplayComm2WayInterface--><!--MD5=[7835b7bc4a765bae53638d0402d5d5e6]
link DisplayComm2WayInterface to DisplayCommManager--><!--MD5=[7d92106ecb9088e13e6754b44ec571b0]
link DisplayCommInterface to DisplayCommInterfaceImplementation--><!--MD5=[51e28edbb9f88779af066724948e7048]
link DisplayCommInterfaceImplementation to DisplayComm2WayInterfaceImplementation--><!--MD5=[ea4cd417ea9ea2c0dbdbdf4e4e3d21de]
link DisplayComm2WayInterfaceImplementation to DisplayCommManagerImplementation--><!--MD5=[64e942b00478e9eef28430a914bbb142]
link DisplayCommInterfaceImplementationTests to DisplayComm2WayInterfaceImplementationTests--><!--MD5=[8dbe1f493aaf019419238fc4702b450a]
link DisplayComm2WayInterfaceImplementationTests to DisplayCommManagerImplementationTests--><!--MD5=[e81de192ca7bc9df286fd4cb58be8b46]
link DisplayCommInterfaceImplementationTests to TrackDataPlotterTests--><!--MD5=[8b898a72046de76ad345afd61090e7dd]
link TrackDataPlotterTests to DisplayComm2WayInterfaceStub--><!--MD5=[c9c9241041dbc47aa626fe1afc095e03]
link DisplayComm2WayInterfaceStub to DisplayCommManagerStub--><!--MD5=[61d9c608a539b4614526ad59aeb385a2]
link TrackDataPlotterTests to MiddlewareCommInterfaceStub--><!--MD5=[a0fcd88588e1092c45c73d33df5a2ca4]
@startuml Display02Packages


package edu.oakland.production.display02 {

}


package edu.oakland.production.display02 {
    interface DisplayCommInterface {
        __
        .. Use Case 1 ..
        {abstract} + TrackData receiveRfidRequest(int rfidNum)
    }
}


package edu.oakland.production.display02 {
    interface DisplayComm2WayInterface {
        __
        .. Use Case 1 ..
        {abstract} + TrackData passRfidRequest(int rfidNum)
    }
}


package edu.oakland.production.display02 {
    interface DisplayCommManager {
        __
        .. Use Case 1 ..
        {abstract} + TrackData evaluateRfidRequest(int rfidNum)
    }
}


package edu.oakland.production.display02 {
    class DisplayCommInterfaceImplementation {
        __
        .. Use Case 1 ..
        {abstract} + TrackData receiveRfidRequest(int rfidNum)
        .. Use Case 2 ..

    }
}


package edu.oakland.production.display02 {
    class DisplayComm2WayInterfaceImplementation {
        __
        .. Use Case 1 ..
        {abstract} + TrackData passRfidRequest(int rfidNum)
        {abstract} + void determineUserRequestFormat(int rfidNum)
        {abstract} + void receiveRequestFromDisplayCommInterface(int rfidNum)
    }
}


package edu.oakland.production.display02 {
    class DisplayCommManagerImplementation {
        __
        .. Use Case 1 ..
        {abstract} + TrackData evaluateRfidRequest(int rfidNum)
        {abstract} + TrackData passRequestToMiddlewareCommInterface(int rfidNum)
        {abstract} + void receiveRequestFromDisplay2WayInterface(int rfidNum)

        .. Use Case 2 ..

    }
}



package edu.oakland.test.display02 {
    
}


package edu.oakland.test.display02 {
    class DisplayCommInterfaceImplementationTests {

    }
}


package edu.oakland.test.display02 {
    class DisplayComm2WayInterfaceImplementationTests {

    }
}


package edu.oakland.test.display02 {
    class DisplayCommManagerImplementationTests {

    }
}


package edu.oakland.test.display02 {
    class TrackDataPlotterTests {

    }
}


package edu.oakland.test.display02 {
    class DisplayComm2WayInterfaceStub {
        __
        .. Use Case 1 ..
        {abstract} + TrackData passRfidRequest(int rfidNum)
    }
}


package edu.oakland.test.display02 {
    class DisplayCommManagerStub {
        __
        .. Use Case 1 ..
        + TrackData evaluateRfidRequest(int rfidNum)
    }
}


package edu.oakland.test.display02 {
    class MiddlewareCommInterfaceStub {
        __
        .. Use Case 1 ..
        + TrackData requestRfid(int rfid)
    }
}



package edu.oakland.helper.display02 {

}


package edu.oakland.helper.display02 {
    class TrackDataPlotter {
        
    }
}



@enduml

PlantUML version 1.2020.02(Sun Mar 01 10:22:07 GMT 2020)
(GPL source distribution)
Java Runtime: OpenJDK Runtime Environment
JVM: OpenJDK 64-Bit Server VM
Java Version: 11.0.9+11-Ubuntu-0ubuntu1
Operating System: Linux
Default Encoding: ANSI_X3.4-1968
Language: en
Country: US
--></g></svg>