<?xml version="1.0" encoding="UTF-8" standalone="no"?><svg xmlns="http://www.w3.org/2000/svg" xmlns:xlink="http://www.w3.org/1999/xlink" contentScriptType="application/ecmascript" contentStyleType="text/css" height="361px" preserveAspectRatio="none" style="width:2593px;height:361px;" version="1.1" viewBox="0 0 2593 361" width="2593px" zoomAndPan="magnify"><defs><filter height="300%" id="frpuy2jcdnjp1" width="300%" x="-1" y="-1"><feGaussianBlur result="blurOut" stdDeviation="2.0"/><feColorMatrix in="blurOut" result="blurOut2" type="matrix" values="0 0 0 0 0 0 0 0 0 0 0 0 0 0 0 0 0 0 .4 0"/><feOffset dx="4.0" dy="4.0" in="blurOut2" result="blurOut3"/><feBlend in="SourceGraphic" in2="blurOut3" mode="normal"/></filter></defs><g><!--MD5=[fe59aae6f7bfe371a9c197ec1f7f843a]
cluster edu.oakland.production.display02--><polygon fill="#FFFFFF" filter="url(#frpuy2jcdnjp1)" points="22,38.5,295,38.5,302,60.7969,958,60.7969,958,349,22,349,22,38.5" style="stroke: #000000; stroke-width: 1.5;"/><line style="stroke: #000000; stroke-width: 1.5;" x1="22" x2="302" y1="60.7969" y2="60.7969"/><text fill="#000000" font-family="sans-serif" font-size="14" font-weight="bold" lengthAdjust="spacingAndGlyphs" textLength="267" x="26" y="53.4951">edu.oakland.production.display02</text><!--MD5=[9258003ec405d300d3379b4a3d8dd6ad]
cluster edu.oakland.test.display02--><polygon fill="#FFFFFF" filter="url(#frpuy2jcdnjp1)" points="982,53.5,1200,53.5,1207,75.7969,2227,75.7969,2227,334.5,982,334.5,982,53.5" style="stroke: #000000; stroke-width: 1.5;"/><line style="stroke: #000000; stroke-width: 1.5;" x1="982" x2="1207" y1="75.7969" y2="75.7969"/><text fill="#000000" font-family="sans-serif" font-size="14" font-weight="bold" lengthAdjust="spacingAndGlyphs" textLength="212" x="986" y="68.4951">edu.oakland.test.display02</text><!--MD5=[33504725b8a69ba2207f0a836957a91c]
cluster edu.oakland.production.middleware02--><polygon fill="#FFFFFF" filter="url(#frpuy2jcdnjp1)" points="2251,24,2561,24,2568,46.2969,2571,46.2969,2571,182,2251,182,2251,24" style="stroke: #000000; stroke-width: 1.5;"/><line style="stroke: #000000; stroke-width: 1.5;" x1="2251" x2="2568" y1="46.2969" y2="46.2969"/><text fill="#000000" font-family="sans-serif" font-size="14" font-weight="bold" lengthAdjust="spacingAndGlyphs" textLength="304" x="2255" y="38.9951">edu.oakland.production.middleware02</text><!--MD5=[a502031b5a5384de0a21e6ee820fd3b2]
cluster edu.oakland.helper.display02--><polygon fill="#FFFFFF" filter="url(#frpuy2jcdnjp1)" points="2251,220.5,2489,220.5,2496,242.7969,2499,242.7969,2499,319.5,2251,319.5,2251,220.5" style="stroke: #000000; stroke-width: 1.5;"/><line style="stroke: #000000; stroke-width: 1.5;" x1="2251" x2="2496" y1="242.7969" y2="242.7969"/><text fill="#000000" font-family="sans-serif" font-size="14" font-weight="bold" lengthAdjust="spacingAndGlyphs" textLength="232" x="2255" y="235.4951">edu.oakland.helper.display02</text><!--MD5=[c8d1e3134fecb0c949fd2a76cc0bb992]
class DisplayCommInterface--><rect fill="#FEFECE" filter="url(#frpuy2jcdnjp1)" height="77.6094" id="DisplayCommInterface" style="stroke: #A80036; stroke-width: 1.5;" width="268" x="38" y="73.5"/><ellipse cx="98.25" cy="89.5" fill="#B4A7E5" rx="11" ry="11" style="stroke: #A80036; stroke-width: 1.0;"/><path d="M94.1719,85.2656 L94.1719,83.1094 L101.5625,83.1094 L101.5625,85.2656 L99.0938,85.2656 L99.0938,93.3438 L101.5625,93.3438 L101.5625,95.5 L94.1719,95.5 L94.1719,93.3438 L96.6406,93.3438 L96.6406,85.2656 L94.1719,85.2656 Z "/><text fill="#000000" font-family="sans-serif" font-size="12" font-style="italic" lengthAdjust="spacingAndGlyphs" textLength="139" x="118.75" y="93.6543">DisplayCommInterface</text><line style="stroke: #A80036; stroke-width: 1.5;" x1="39" x2="305" y1="105.5" y2="105.5"/><line style="stroke: #A80036; stroke-width: 1.5;" x1="39" x2="305" y1="113.5" y2="113.5"/><ellipse cx="49" cy="141.3047" fill="#84BE84" rx="3" ry="3" style="stroke: #038048; stroke-width: 1.0;"/><text fill="#000000" font-family="sans-serif" font-size="11" font-style="italic" lengthAdjust="spacingAndGlyphs" textLength="242" x="58" y="144.5151">TrackData receiveRfidRequest(int rfidNum)</text><line style="stroke: #A80036; stroke-width: 1.0; stroke-dasharray: 1.0,2.0;" x1="39" x2="139" y1="127.9023" y2="127.9023"/><text fill="#000000" font-family="sans-serif" font-size="11" lengthAdjust="spacingAndGlyphs" textLength="66" x="139" y="131.2104">Use Case 1</text><line style="stroke: #A80036; stroke-width: 1.0; stroke-dasharray: 1.0,2.0;" x1="205" x2="305" y1="127.9023" y2="127.9023"/><!--MD5=[f6b51b5f862da5ce226c62e411e84628]
class DisplayComm2WayInterface--><rect fill="#FEFECE" filter="url(#frpuy2jcdnjp1)" height="77.6094" id="DisplayComm2WayInterface" style="stroke: #A80036; stroke-width: 1.5;" width="252" x="372" y="73.5"/><ellipse cx="407.7" cy="89.5" fill="#B4A7E5" rx="11" ry="11" style="stroke: #A80036; stroke-width: 1.0;"/><path d="M403.6219,85.2656 L403.6219,83.1094 L411.0125,83.1094 L411.0125,85.2656 L408.5438,85.2656 L408.5438,93.3438 L411.0125,93.3438 L411.0125,95.5 L403.6219,95.5 L403.6219,93.3438 L406.0906,93.3438 L406.0906,85.2656 L403.6219,85.2656 Z "/><text fill="#000000" font-family="sans-serif" font-size="12" font-style="italic" lengthAdjust="spacingAndGlyphs" textLength="174" x="426.3" y="93.6543">DisplayComm2WayInterface</text><line style="stroke: #A80036; stroke-width: 1.5;" x1="373" x2="623" y1="105.5" y2="105.5"/><line style="stroke: #A80036; stroke-width: 1.5;" x1="373" x2="623" y1="113.5" y2="113.5"/><ellipse cx="383" cy="141.3047" fill="#84BE84" rx="3" ry="3" style="stroke: #038048; stroke-width: 1.0;"/><text fill="#000000" font-family="sans-serif" font-size="11" font-style="italic" lengthAdjust="spacingAndGlyphs" textLength="226" x="392" y="144.5151">TrackData passRfidRequest(int rfidNum)</text><line style="stroke: #A80036; stroke-width: 1.0; stroke-dasharray: 1.0,2.0;" x1="373" x2="465" y1="127.9023" y2="127.9023"/><text fill="#000000" font-family="sans-serif" font-size="11" lengthAdjust="spacingAndGlyphs" textLength="66" x="465" y="131.2104">Use Case 1</text><line style="stroke: #A80036; stroke-width: 1.0; stroke-dasharray: 1.0,2.0;" x1="531" x2="623" y1="127.9023" y2="127.9023"/><!--MD5=[6aeb72f2773d7cabb45309482beeff0a]
class DisplayCommManager--><rect fill="#FEFECE" filter="url(#frpuy2jcdnjp1)" height="77.6094" id="DisplayCommManager" style="stroke: #A80036; stroke-width: 1.5;" width="275" x="666.5" y="73.5"/><ellipse cx="731.25" cy="89.5" fill="#B4A7E5" rx="11" ry="11" style="stroke: #A80036; stroke-width: 1.0;"/><path d="M727.1719,85.2656 L727.1719,83.1094 L734.5625,83.1094 L734.5625,85.2656 L732.0938,85.2656 L732.0938,93.3438 L734.5625,93.3438 L734.5625,95.5 L727.1719,95.5 L727.1719,93.3438 L729.6406,93.3438 L729.6406,85.2656 L727.1719,85.2656 Z "/><text fill="#000000" font-family="sans-serif" font-size="12" font-style="italic" lengthAdjust="spacingAndGlyphs" textLength="137" x="751.75" y="93.6543">DisplayCommManager</text><line style="stroke: #A80036; stroke-width: 1.5;" x1="667.5" x2="940.5" y1="105.5" y2="105.5"/><line style="stroke: #A80036; stroke-width: 1.5;" x1="667.5" x2="940.5" y1="113.5" y2="113.5"/><ellipse cx="677.5" cy="141.3047" fill="#84BE84" rx="3" ry="3" style="stroke: #038048; stroke-width: 1.0;"/><text fill="#000000" font-family="sans-serif" font-size="11" font-style="italic" lengthAdjust="spacingAndGlyphs" textLength="249" x="686.5" y="144.5151">TrackData evaluateRfidRequest(int rfidNum)</text><line style="stroke: #A80036; stroke-width: 1.0; stroke-dasharray: 1.0,2.0;" x1="667.5" x2="771" y1="127.9023" y2="127.9023"/><text fill="#000000" font-family="sans-serif" font-size="11" lengthAdjust="spacingAndGlyphs" textLength="66" x="771" y="131.2104">Use Case 1</text><line style="stroke: #A80036; stroke-width: 1.0; stroke-dasharray: 1.0,2.0;" x1="837" x2="940.5" y1="127.9023" y2="127.9023"/><!--MD5=[a35092e604da7274febf4e2cf9a25087]
class DisplayCommInterfaceImplementation--><rect fill="#FEFECE" filter="url(#frpuy2jcdnjp1)" height="107.2188" id="DisplayCommInterfaceImplementation" style="stroke: #A80036; stroke-width: 1.5;" width="268" x="38" y="226"/><ellipse cx="53.45" cy="242" fill="#ADD1B2" rx="11" ry="11" style="stroke: #A80036; stroke-width: 1.0;"/><path d="M56.4188,247.6406 Q55.8406,247.9375 55.2,248.0781 Q54.5594,248.2344 53.8563,248.2344 Q51.3563,248.2344 50.0281,246.5938 Q48.7156,244.9375 48.7156,241.8125 Q48.7156,238.6875 50.0281,237.0313 Q51.3563,235.375 53.8563,235.375 Q54.5594,235.375 55.2,235.5313 Q55.8563,235.6875 56.4188,235.9844 L56.4188,238.7031 Q55.7938,238.125 55.2,237.8594 Q54.6063,237.5781 53.9813,237.5781 Q52.6375,237.5781 51.95,238.6563 Q51.2625,239.7188 51.2625,241.8125 Q51.2625,243.9063 51.95,244.9844 Q52.6375,246.0469 53.9813,246.0469 Q54.6063,246.0469 55.2,245.7813 Q55.7938,245.5 56.4188,244.9219 L56.4188,247.6406 Z "/><text fill="#000000" font-family="sans-serif" font-size="12" lengthAdjust="spacingAndGlyphs" textLength="235" x="67.55" y="246.1543">DisplayCommInterfaceImplementation</text><line style="stroke: #A80036; stroke-width: 1.5;" x1="39" x2="305" y1="258" y2="258"/><line style="stroke: #A80036; stroke-width: 1.5;" x1="39" x2="305" y1="266" y2="266"/><ellipse cx="49" cy="293.8047" fill="#84BE84" rx="3" ry="3" style="stroke: #038048; stroke-width: 1.0;"/><text fill="#000000" font-family="sans-serif" font-size="11" font-style="italic" lengthAdjust="spacingAndGlyphs" textLength="242" x="58" y="297.0151">TrackData receiveRfidRequest(int rfidNum)</text><line style="stroke: #A80036; stroke-width: 1.0; stroke-dasharray: 1.0,2.0;" x1="39" x2="139" y1="280.4023" y2="280.4023"/><text fill="#000000" font-family="sans-serif" font-size="11" lengthAdjust="spacingAndGlyphs" textLength="66" x="139" y="283.7104">Use Case 1</text><line style="stroke: #A80036; stroke-width: 1.0; stroke-dasharray: 1.0,2.0;" x1="205" x2="305" y1="280.4023" y2="280.4023"/><text fill="#000000" font-family="sans-serif" font-size="11" lengthAdjust="spacingAndGlyphs" textLength="0" x="48" y="326.6245"/><line style="stroke: #A80036; stroke-width: 1.0; stroke-dasharray: 1.0,2.0;" x1="39" x2="139" y1="310.0117" y2="310.0117"/><text fill="#000000" font-family="sans-serif" font-size="11" lengthAdjust="spacingAndGlyphs" textLength="66" x="139" y="313.3198">Use Case 2</text><line style="stroke: #A80036; stroke-width: 1.0; stroke-dasharray: 1.0,2.0;" x1="205" x2="305" y1="310.0117" y2="310.0117"/><!--MD5=[46657c2900260d4d40350fe3f8c544df]
class DisplayComm2WayInterfaceImplementation--><rect fill="#FEFECE" filter="url(#frpuy2jcdnjp1)" height="77.6094" id="DisplayComm2WayInterfaceImplementation" style="stroke: #A80036; stroke-width: 1.5;" width="300" x="341" y="240.5"/><ellipse cx="356" cy="256.5" fill="#ADD1B2" rx="11" ry="11" style="stroke: #A80036; stroke-width: 1.0;"/><path d="M358.9688,262.1406 Q358.3906,262.4375 357.75,262.5781 Q357.1094,262.7344 356.4063,262.7344 Q353.9063,262.7344 352.5781,261.0938 Q351.2656,259.4375 351.2656,256.3125 Q351.2656,253.1875 352.5781,251.5313 Q353.9063,249.875 356.4063,249.875 Q357.1094,249.875 357.75,250.0313 Q358.4063,250.1875 358.9688,250.4844 L358.9688,253.2031 Q358.3438,252.625 357.75,252.3594 Q357.1563,252.0781 356.5313,252.0781 Q355.1875,252.0781 354.5,253.1563 Q353.8125,254.2188 353.8125,256.3125 Q353.8125,258.4063 354.5,259.4844 Q355.1875,260.5469 356.5313,260.5469 Q357.1563,260.5469 357.75,260.2813 Q358.3438,260 358.9688,259.4219 L358.9688,262.1406 Z "/><text fill="#000000" font-family="sans-serif" font-size="12" lengthAdjust="spacingAndGlyphs" textLength="268" x="370" y="260.6543">DisplayComm2WayInterfaceImplementation</text><line style="stroke: #A80036; stroke-width: 1.5;" x1="342" x2="640" y1="272.5" y2="272.5"/><line style="stroke: #A80036; stroke-width: 1.5;" x1="342" x2="640" y1="280.5" y2="280.5"/><ellipse cx="352" cy="308.3047" fill="#84BE84" rx="3" ry="3" style="stroke: #038048; stroke-width: 1.0;"/><text fill="#000000" font-family="sans-serif" font-size="11" font-style="italic" lengthAdjust="spacingAndGlyphs" textLength="270" x="361" y="311.5151">LocationDataPoint passRfidRequest(int rfidNum)</text><line style="stroke: #A80036; stroke-width: 1.0; stroke-dasharray: 1.0,2.0;" x1="342" x2="458" y1="294.9023" y2="294.9023"/><text fill="#000000" font-family="sans-serif" font-size="11" lengthAdjust="spacingAndGlyphs" textLength="66" x="458" y="298.2104">Use Case 1</text><line style="stroke: #A80036; stroke-width: 1.0; stroke-dasharray: 1.0,2.0;" x1="524" x2="640" y1="294.9023" y2="294.9023"/><!--MD5=[3a27b63ddb357afc5dde5581215f51f9]
class DisplayCommManagerImplementation--><rect fill="#FEFECE" filter="url(#frpuy2jcdnjp1)" height="107.2188" id="DisplayCommManagerImplementation" style="stroke: #A80036; stroke-width: 1.5;" width="266" x="676" y="226"/><ellipse cx="691" cy="242" fill="#ADD1B2" rx="11" ry="11" style="stroke: #A80036; stroke-width: 1.0;"/><path d="M693.9688,247.6406 Q693.3906,247.9375 692.75,248.0781 Q692.1094,248.2344 691.4063,248.2344 Q688.9063,248.2344 687.5781,246.5938 Q686.2656,244.9375 686.2656,241.8125 Q686.2656,238.6875 687.5781,237.0313 Q688.9063,235.375 691.4063,235.375 Q692.1094,235.375 692.75,235.5313 Q693.4063,235.6875 693.9688,235.9844 L693.9688,238.7031 Q693.3438,238.125 692.75,237.8594 Q692.1563,237.5781 691.5313,237.5781 Q690.1875,237.5781 689.5,238.6563 Q688.8125,239.7188 688.8125,241.8125 Q688.8125,243.9063 689.5,244.9844 Q690.1875,246.0469 691.5313,246.0469 Q692.1563,246.0469 692.75,245.7813 Q693.3438,245.5 693.9688,244.9219 L693.9688,247.6406 Z "/><text fill="#000000" font-family="sans-serif" font-size="12" lengthAdjust="spacingAndGlyphs" textLength="234" x="705" y="246.1543">DisplayCommManagerImplementation</text><line style="stroke: #A80036; stroke-width: 1.5;" x1="677" x2="941" y1="258" y2="258"/><line style="stroke: #A80036; stroke-width: 1.5;" x1="677" x2="941" y1="266" y2="266"/><text fill="#000000" font-family="sans-serif" font-size="11" lengthAdjust="spacingAndGlyphs" textLength="0" x="686" y="297.0151"/><line style="stroke: #A80036; stroke-width: 1.0; stroke-dasharray: 1.0,2.0;" x1="677" x2="776" y1="280.4023" y2="280.4023"/><text fill="#000000" font-family="sans-serif" font-size="11" lengthAdjust="spacingAndGlyphs" textLength="66" x="776" y="283.7104">Use Case 1</text><line style="stroke: #A80036; stroke-width: 1.0; stroke-dasharray: 1.0,2.0;" x1="842" x2="941" y1="280.4023" y2="280.4023"/><text fill="#000000" font-family="sans-serif" font-size="11" lengthAdjust="spacingAndGlyphs" textLength="0" x="686" y="326.6245"/><line style="stroke: #A80036; stroke-width: 1.0; stroke-dasharray: 1.0,2.0;" x1="677" x2="776" y1="310.0117" y2="310.0117"/><text fill="#000000" font-family="sans-serif" font-size="11" lengthAdjust="spacingAndGlyphs" textLength="66" x="776" y="313.3198">Use Case 2</text><line style="stroke: #A80036; stroke-width: 1.0; stroke-dasharray: 1.0,2.0;" x1="842" x2="941" y1="310.0117" y2="310.0117"/><!--MD5=[d454b7777f115113290d89683d7a426c]
class DisplayCommInterfaceImplementationTests--><rect fill="#FEFECE" filter="url(#frpuy2jcdnjp1)" height="48" id="DisplayCommInterfaceImplementationTests" style="stroke: #A80036; stroke-width: 1.5;" width="301" x="998.5" y="88.5"/><ellipse cx="1013.5" cy="104.5" fill="#ADD1B2" rx="11" ry="11" style="stroke: #A80036; stroke-width: 1.0;"/><path d="M1016.4688,110.1406 Q1015.8906,110.4375 1015.25,110.5781 Q1014.6094,110.7344 1013.9063,110.7344 Q1011.4063,110.7344 1010.0781,109.0938 Q1008.7656,107.4375 1008.7656,104.3125 Q1008.7656,101.1875 1010.0781,99.5313 Q1011.4063,97.875 1013.9063,97.875 Q1014.6094,97.875 1015.25,98.0313 Q1015.9063,98.1875 1016.4688,98.4844 L1016.4688,101.2031 Q1015.8438,100.625 1015.25,100.3594 Q1014.6563,100.0781 1014.0313,100.0781 Q1012.6875,100.0781 1012,101.1563 Q1011.3125,102.2188 1011.3125,104.3125 Q1011.3125,106.4063 1012,107.4844 Q1012.6875,108.5469 1014.0313,108.5469 Q1014.6563,108.5469 1015.25,108.2813 Q1015.8438,108 1016.4688,107.4219 L1016.4688,110.1406 Z "/><text fill="#000000" font-family="sans-serif" font-size="12" lengthAdjust="spacingAndGlyphs" textLength="269" x="1027.5" y="108.6543">DisplayCommInterfaceImplementationTests</text><line style="stroke: #A80036; stroke-width: 1.5;" x1="999.5" x2="1298.5" y1="120.5" y2="120.5"/><line style="stroke: #A80036; stroke-width: 1.5;" x1="999.5" x2="1298.5" y1="128.5" y2="128.5"/><!--MD5=[a333ac13e0fdf2a5898aafabd38d3c1b]
class DisplayComm2WayInterfaceStub--><rect fill="#FEFECE" filter="url(#frpuy2jcdnjp1)" height="77.6094" id="DisplayComm2WayInterfaceStub" style="stroke: #A80036; stroke-width: 1.5;" width="252" x="1011" y="240.5"/><ellipse cx="1035" cy="256.5" fill="#ADD1B2" rx="11" ry="11" style="stroke: #A80036; stroke-width: 1.0;"/><path d="M1037.9688,262.1406 Q1037.3906,262.4375 1036.75,262.5781 Q1036.1094,262.7344 1035.4063,262.7344 Q1032.9063,262.7344 1031.5781,261.0938 Q1030.2656,259.4375 1030.2656,256.3125 Q1030.2656,253.1875 1031.5781,251.5313 Q1032.9063,249.875 1035.4063,249.875 Q1036.1094,249.875 1036.75,250.0313 Q1037.4063,250.1875 1037.9688,250.4844 L1037.9688,253.2031 Q1037.3438,252.625 1036.75,252.3594 Q1036.1563,252.0781 1035.5313,252.0781 Q1034.1875,252.0781 1033.5,253.1563 Q1032.8125,254.2188 1032.8125,256.3125 Q1032.8125,258.4063 1033.5,259.4844 Q1034.1875,260.5469 1035.5313,260.5469 Q1036.1563,260.5469 1036.75,260.2813 Q1037.3438,260 1037.9688,259.4219 L1037.9688,262.1406 Z "/><text fill="#000000" font-family="sans-serif" font-size="12" lengthAdjust="spacingAndGlyphs" textLength="200" x="1051" y="260.6543">DisplayComm2WayInterfaceStub</text><line style="stroke: #A80036; stroke-width: 1.5;" x1="1012" x2="1262" y1="272.5" y2="272.5"/><line style="stroke: #A80036; stroke-width: 1.5;" x1="1012" x2="1262" y1="280.5" y2="280.5"/><ellipse cx="1022" cy="308.3047" fill="#84BE84" rx="3" ry="3" style="stroke: #038048; stroke-width: 1.0;"/><text fill="#000000" font-family="sans-serif" font-size="11" font-style="italic" lengthAdjust="spacingAndGlyphs" textLength="226" x="1031" y="311.5151">TrackData passRfidRequest(int rfidNum)</text><line style="stroke: #A80036; stroke-width: 1.0; stroke-dasharray: 1.0,2.0;" x1="1012" x2="1104" y1="294.9023" y2="294.9023"/><text fill="#000000" font-family="sans-serif" font-size="11" lengthAdjust="spacingAndGlyphs" textLength="66" x="1104" y="298.2104">Use Case 1</text><line style="stroke: #A80036; stroke-width: 1.0; stroke-dasharray: 1.0,2.0;" x1="1170" x2="1262" y1="294.9023" y2="294.9023"/><!--MD5=[178181f4c7684560c711246055fc01d3]
class DisplayComm2WayInterfaceImplementationTests--><rect fill="#FEFECE" filter="url(#frpuy2jcdnjp1)" height="48" id="DisplayComm2WayInterfaceImplementationTests" style="stroke: #A80036; stroke-width: 1.5;" width="334" x="1335" y="88.5"/><ellipse cx="1350" cy="104.5" fill="#ADD1B2" rx="11" ry="11" style="stroke: #A80036; stroke-width: 1.0;"/><path d="M1352.9688,110.1406 Q1352.3906,110.4375 1351.75,110.5781 Q1351.1094,110.7344 1350.4063,110.7344 Q1347.9063,110.7344 1346.5781,109.0938 Q1345.2656,107.4375 1345.2656,104.3125 Q1345.2656,101.1875 1346.5781,99.5313 Q1347.9063,97.875 1350.4063,97.875 Q1351.1094,97.875 1351.75,98.0313 Q1352.4063,98.1875 1352.9688,98.4844 L1352.9688,101.2031 Q1352.3438,100.625 1351.75,100.3594 Q1351.1563,100.0781 1350.5313,100.0781 Q1349.1875,100.0781 1348.5,101.1563 Q1347.8125,102.2188 1347.8125,104.3125 Q1347.8125,106.4063 1348.5,107.4844 Q1349.1875,108.5469 1350.5313,108.5469 Q1351.1563,108.5469 1351.75,108.2813 Q1352.3438,108 1352.9688,107.4219 L1352.9688,110.1406 Z "/><text fill="#000000" font-family="sans-serif" font-size="12" lengthAdjust="spacingAndGlyphs" textLength="302" x="1364" y="108.6543">DisplayComm2WayInterfaceImplementationTests</text><line style="stroke: #A80036; stroke-width: 1.5;" x1="1336" x2="1668" y1="120.5" y2="120.5"/><line style="stroke: #A80036; stroke-width: 1.5;" x1="1336" x2="1668" y1="128.5" y2="128.5"/><!--MD5=[2970358178d6cf57fc5a801b39eb8d0b]
class DisplayCommManagerStub--><rect fill="#FEFECE" filter="url(#frpuy2jcdnjp1)" height="77.6094" id="DisplayCommManagerStub" style="stroke: #A80036; stroke-width: 1.5;" width="273" x="1332.5" y="240.5"/><ellipse cx="1381.75" cy="256.5" fill="#ADD1B2" rx="11" ry="11" style="stroke: #A80036; stroke-width: 1.0;"/><path d="M1384.7188,262.1406 Q1384.1406,262.4375 1383.5,262.5781 Q1382.8594,262.7344 1382.1563,262.7344 Q1379.6563,262.7344 1378.3281,261.0938 Q1377.0156,259.4375 1377.0156,256.3125 Q1377.0156,253.1875 1378.3281,251.5313 Q1379.6563,249.875 1382.1563,249.875 Q1382.8594,249.875 1383.5,250.0313 Q1384.1563,250.1875 1384.7188,250.4844 L1384.7188,253.2031 Q1384.0938,252.625 1383.5,252.3594 Q1382.9063,252.0781 1382.2813,252.0781 Q1380.9375,252.0781 1380.25,253.1563 Q1379.5625,254.2188 1379.5625,256.3125 Q1379.5625,258.4063 1380.25,259.4844 Q1380.9375,260.5469 1382.2813,260.5469 Q1382.9063,260.5469 1383.5,260.2813 Q1384.0938,260 1384.7188,259.4219 L1384.7188,262.1406 Z "/><text fill="#000000" font-family="sans-serif" font-size="12" lengthAdjust="spacingAndGlyphs" textLength="166" x="1402.25" y="260.6543">DisplayCommManagerStub</text><line style="stroke: #A80036; stroke-width: 1.5;" x1="1333.5" x2="1604.5" y1="272.5" y2="272.5"/><line style="stroke: #A80036; stroke-width: 1.5;" x1="1333.5" x2="1604.5" y1="280.5" y2="280.5"/><ellipse cx="1343.5" cy="308.3047" fill="#84BE84" rx="3" ry="3" style="stroke: #038048; stroke-width: 1.0;"/><text fill="#000000" font-family="sans-serif" font-size="11" lengthAdjust="spacingAndGlyphs" textLength="247" x="1352.5" y="311.5151">TrackData evaluateRfidRequest(int rfidNum)</text><line style="stroke: #A80036; stroke-width: 1.0; stroke-dasharray: 1.0,2.0;" x1="1333.5" x2="1436" y1="294.9023" y2="294.9023"/><text fill="#000000" font-family="sans-serif" font-size="11" lengthAdjust="spacingAndGlyphs" textLength="66" x="1436" y="298.2104">Use Case 1</text><line style="stroke: #A80036; stroke-width: 1.0; stroke-dasharray: 1.0,2.0;" x1="1502" x2="1604.5" y1="294.9023" y2="294.9023"/><!--MD5=[937d6d8ff87a99d0d5dcd66ee05a1fa4]
class DisplayCommManagerImplementationTests--><rect fill="#FEFECE" filter="url(#frpuy2jcdnjp1)" height="48" id="DisplayCommManagerImplementationTests" style="stroke: #A80036; stroke-width: 1.5;" width="300" x="1704" y="88.5"/><ellipse cx="1719" cy="104.5" fill="#ADD1B2" rx="11" ry="11" style="stroke: #A80036; stroke-width: 1.0;"/><path d="M1721.9688,110.1406 Q1721.3906,110.4375 1720.75,110.5781 Q1720.1094,110.7344 1719.4063,110.7344 Q1716.9063,110.7344 1715.5781,109.0938 Q1714.2656,107.4375 1714.2656,104.3125 Q1714.2656,101.1875 1715.5781,99.5313 Q1716.9063,97.875 1719.4063,97.875 Q1720.1094,97.875 1720.75,98.0313 Q1721.4063,98.1875 1721.9688,98.4844 L1721.9688,101.2031 Q1721.3438,100.625 1720.75,100.3594 Q1720.1563,100.0781 1719.5313,100.0781 Q1718.1875,100.0781 1717.5,101.1563 Q1716.8125,102.2188 1716.8125,104.3125 Q1716.8125,106.4063 1717.5,107.4844 Q1718.1875,108.5469 1719.5313,108.5469 Q1720.1563,108.5469 1720.75,108.2813 Q1721.3438,108 1721.9688,107.4219 L1721.9688,110.1406 Z "/><text fill="#000000" font-family="sans-serif" font-size="12" lengthAdjust="spacingAndGlyphs" textLength="268" x="1733" y="108.6543">DisplayCommManagerImplementationTests</text><line style="stroke: #A80036; stroke-width: 1.5;" x1="1705" x2="2003" y1="120.5" y2="120.5"/><line style="stroke: #A80036; stroke-width: 1.5;" x1="1705" x2="2003" y1="128.5" y2="128.5"/><!--MD5=[cf56a65163663c6c6c7b84cd7c204b97]
class MiddlewareCommInterfaceStub--><rect fill="#FEFECE" filter="url(#frpuy2jcdnjp1)" height="77.6094" id="MiddlewareCommInterfaceStub" style="stroke: #A80036; stroke-width: 1.5;" width="225" x="1863.5" y="240.5"/><ellipse cx="1878.5" cy="256.5" fill="#ADD1B2" rx="11" ry="11" style="stroke: #A80036; stroke-width: 1.0;"/><path d="M1881.4688,262.1406 Q1880.8906,262.4375 1880.25,262.5781 Q1879.6094,262.7344 1878.9063,262.7344 Q1876.4063,262.7344 1875.0781,261.0938 Q1873.7656,259.4375 1873.7656,256.3125 Q1873.7656,253.1875 1875.0781,251.5313 Q1876.4063,249.875 1878.9063,249.875 Q1879.6094,249.875 1880.25,250.0313 Q1880.9063,250.1875 1881.4688,250.4844 L1881.4688,253.2031 Q1880.8438,252.625 1880.25,252.3594 Q1879.6563,252.0781 1879.0313,252.0781 Q1877.6875,252.0781 1877,253.1563 Q1876.3125,254.2188 1876.3125,256.3125 Q1876.3125,258.4063 1877,259.4844 Q1877.6875,260.5469 1879.0313,260.5469 Q1879.6563,260.5469 1880.25,260.2813 Q1880.8438,260 1881.4688,259.4219 L1881.4688,262.1406 Z "/><text fill="#000000" font-family="sans-serif" font-size="12" lengthAdjust="spacingAndGlyphs" textLength="193" x="1892.5" y="260.6543">MiddlewareCommInterfaceStub</text><line style="stroke: #A80036; stroke-width: 1.5;" x1="1864.5" x2="2087.5" y1="272.5" y2="272.5"/><line style="stroke: #A80036; stroke-width: 1.5;" x1="1864.5" x2="2087.5" y1="280.5" y2="280.5"/><ellipse cx="1874.5" cy="308.3047" fill="#84BE84" rx="3" ry="3" style="stroke: #038048; stroke-width: 1.0;"/><text fill="#000000" font-family="sans-serif" font-size="11" lengthAdjust="spacingAndGlyphs" textLength="171" x="1883.5" y="311.5151">TrackData requestRfid(int rfid)</text><line style="stroke: #A80036; stroke-width: 1.0; stroke-dasharray: 1.0,2.0;" x1="1864.5" x2="1943" y1="294.9023" y2="294.9023"/><text fill="#000000" font-family="sans-serif" font-size="11" lengthAdjust="spacingAndGlyphs" textLength="66" x="1943" y="298.2104">Use Case 1</text><line style="stroke: #A80036; stroke-width: 1.0; stroke-dasharray: 1.0,2.0;" x1="2009" x2="2087.5" y1="294.9023" y2="294.9023"/><!--MD5=[930c8140e7c1cb8e71aa7cd49967748e]
class TrackDataPlotterTests--><rect fill="#FEFECE" filter="url(#frpuy2jcdnjp1)" height="48" id="TrackDataPlotterTests" style="stroke: #A80036; stroke-width: 1.5;" width="172" x="2039" y="88.5"/><ellipse cx="2054" cy="104.5" fill="#ADD1B2" rx="11" ry="11" style="stroke: #A80036; stroke-width: 1.0;"/><path d="M2056.9688,110.1406 Q2056.3906,110.4375 2055.75,110.5781 Q2055.1094,110.7344 2054.4063,110.7344 Q2051.9063,110.7344 2050.5781,109.0938 Q2049.2656,107.4375 2049.2656,104.3125 Q2049.2656,101.1875 2050.5781,99.5313 Q2051.9063,97.875 2054.4063,97.875 Q2055.1094,97.875 2055.75,98.0313 Q2056.4063,98.1875 2056.9688,98.4844 L2056.9688,101.2031 Q2056.3438,100.625 2055.75,100.3594 Q2055.1563,100.0781 2054.5313,100.0781 Q2053.1875,100.0781 2052.5,101.1563 Q2051.8125,102.2188 2051.8125,104.3125 Q2051.8125,106.4063 2052.5,107.4844 Q2053.1875,108.5469 2054.5313,108.5469 Q2055.1563,108.5469 2055.75,108.2813 Q2056.3438,108 2056.9688,107.4219 L2056.9688,110.1406 Z "/><text fill="#000000" font-family="sans-serif" font-size="12" lengthAdjust="spacingAndGlyphs" textLength="140" x="2068" y="108.6543">TrackDataPlotterTests</text><line style="stroke: #A80036; stroke-width: 1.5;" x1="2040" x2="2210" y1="120.5" y2="120.5"/><line style="stroke: #A80036; stroke-width: 1.5;" x1="2040" x2="2210" y1="128.5" y2="128.5"/><!--MD5=[d3cb230b9040bd9072bb1f490e167601]
class MiddlewareCommInterface--><rect fill="#FEFECE" filter="url(#frpuy2jcdnjp1)" height="107.2188" id="MiddlewareCommInterface" style="stroke: #A80036; stroke-width: 1.5;" width="198" x="2267" y="59"/><ellipse cx="2282" cy="75" fill="#B4A7E5" rx="11" ry="11" style="stroke: #A80036; stroke-width: 1.0;"/><path d="M2277.9219,70.7656 L2277.9219,68.6094 L2285.3125,68.6094 L2285.3125,70.7656 L2282.8438,70.7656 L2282.8438,78.8438 L2285.3125,78.8438 L2285.3125,81 L2277.9219,81 L2277.9219,78.8438 L2280.3906,78.8438 L2280.3906,70.7656 L2277.9219,70.7656 Z "/><text fill="#000000" font-family="sans-serif" font-size="12" font-style="italic" lengthAdjust="spacingAndGlyphs" textLength="166" x="2296" y="79.1543">MiddlewareCommInterface</text><line style="stroke: #A80036; stroke-width: 1.5;" x1="2268" x2="2464" y1="91" y2="91"/><line style="stroke: #A80036; stroke-width: 1.5;" x1="2268" x2="2464" y1="99" y2="99"/><ellipse cx="2278" cy="126.8047" fill="#84BE84" rx="3" ry="3" style="stroke: #038048; stroke-width: 1.0;"/><text fill="#000000" font-family="sans-serif" font-size="11" font-style="italic" lengthAdjust="spacingAndGlyphs" textLength="171" x="2287" y="130.0151">TrackData requestRfid(int rfid)</text><line style="stroke: #A80036; stroke-width: 1.0; stroke-dasharray: 1.0,2.0;" x1="2268" x2="2333" y1="113.4023" y2="113.4023"/><text fill="#000000" font-family="sans-serif" font-size="11" lengthAdjust="spacingAndGlyphs" textLength="66" x="2333" y="116.7104">Use Case 1</text><line style="stroke: #A80036; stroke-width: 1.0; stroke-dasharray: 1.0,2.0;" x1="2399" x2="2464" y1="113.4023" y2="113.4023"/><text fill="#000000" font-family="sans-serif" font-size="11" lengthAdjust="spacingAndGlyphs" textLength="0" x="2277" y="159.6245"/><line style="stroke: #A80036; stroke-width: 1.0; stroke-dasharray: 1.0,2.0;" x1="2268" x2="2333" y1="143.0117" y2="143.0117"/><text fill="#000000" font-family="sans-serif" font-size="11" lengthAdjust="spacingAndGlyphs" textLength="66" x="2333" y="146.3198">Use Case 2</text><line style="stroke: #A80036; stroke-width: 1.0; stroke-dasharray: 1.0,2.0;" x1="2399" x2="2464" y1="143.0117" y2="143.0117"/><!--MD5=[c986427b061286eff33e87a088ad4bf9]
class TrackDataPlotter--><rect fill="#FEFECE" filter="url(#frpuy2jcdnjp1)" height="48" id="TrackDataPlotter" style="stroke: #A80036; stroke-width: 1.5;" width="138" x="2267" y="255.5"/><ellipse cx="2282" cy="271.5" fill="#ADD1B2" rx="11" ry="11" style="stroke: #A80036; stroke-width: 1.0;"/><path d="M2284.9688,277.1406 Q2284.3906,277.4375 2283.75,277.5781 Q2283.1094,277.7344 2282.4063,277.7344 Q2279.9063,277.7344 2278.5781,276.0938 Q2277.2656,274.4375 2277.2656,271.3125 Q2277.2656,268.1875 2278.5781,266.5313 Q2279.9063,264.875 2282.4063,264.875 Q2283.1094,264.875 2283.75,265.0313 Q2284.4063,265.1875 2284.9688,265.4844 L2284.9688,268.2031 Q2284.3438,267.625 2283.75,267.3594 Q2283.1563,267.0781 2282.5313,267.0781 Q2281.1875,267.0781 2280.5,268.1563 Q2279.8125,269.2188 2279.8125,271.3125 Q2279.8125,273.4063 2280.5,274.4844 Q2281.1875,275.5469 2282.5313,275.5469 Q2283.1563,275.5469 2283.75,275.2813 Q2284.3438,275 2284.9688,274.4219 L2284.9688,277.1406 Z "/><text fill="#000000" font-family="sans-serif" font-size="12" lengthAdjust="spacingAndGlyphs" textLength="106" x="2296" y="275.6543">TrackDataPlotter</text><line style="stroke: #A80036; stroke-width: 1.5;" x1="2268" x2="2404" y1="287.5" y2="287.5"/><line style="stroke: #A80036; stroke-width: 1.5;" x1="2268" x2="2404" y1="295.5" y2="295.5"/><!--MD5=[77bc37423dd8876786830fad4054e33b]
reverse link DisplayCommInterface to DisplayCommInterfaceImplementation--><path d="M172,171.81 C172,189.38 172,208.56 172,225.75 " fill="none" id="DisplayCommInterface&lt;-DisplayCommInterfaceImplementation" style="stroke: #A80036; stroke-width: 1.0; stroke-dasharray: 7.0,7.0;"/><polygon fill="none" points="165,171.77,172,151.77,179,171.77,165,171.77" style="stroke: #A80036; stroke-width: 1.0;"/><!--MD5=[4e991cf787e933c55089f97eae394828]
reverse link DisplayComm2WayInterface to DisplayComm2WayInterfaceImplementation--><path d="M495.51,172.08 C494.55,194.8 493.47,220.17 492.61,240.44 " fill="none" id="DisplayComm2WayInterface&lt;-DisplayComm2WayInterfaceImplementation" style="stroke: #A80036; stroke-width: 1.0; stroke-dasharray: 7.0,7.0;"/><polygon fill="none" points="488.53,171.45,496.38,151.77,502.52,172.05,488.53,171.45" style="stroke: #A80036; stroke-width: 1.0;"/><!--MD5=[5beed6c3c7e4a84a4bfaa95bdf8cce79]
reverse link DisplayCommManager to DisplayCommManagerImplementation--><path d="M805.77,171.81 C806.3,189.38 806.88,208.56 807.4,225.75 " fill="none" id="DisplayCommManager&lt;-DisplayCommManagerImplementation" style="stroke: #A80036; stroke-width: 1.0; stroke-dasharray: 7.0,7.0;"/><polygon fill="none" points="798.77,171.97,805.16,151.77,812.76,171.55,798.77,171.97" style="stroke: #A80036; stroke-width: 1.0;"/><!--MD5=[6aaeadb42451b39b4e2cdcf83e2bb4cd]
reverse link DisplayComm2WayInterface to DisplayComm2WayInterfaceStub--><path d="M577.13,160.97 C599.63,172.39 624.65,183.24 649,190 C781.68,226.84 823.41,183.4 958,212.5 C988.27,219.05 1020.31,229.61 1048.78,240.39 " fill="none" id="DisplayComm2WayInterface&lt;-DisplayComm2WayInterfaceStub" style="stroke: #A80036; stroke-width: 1.0; stroke-dasharray: 7.0,7.0;"/><polygon fill="none" points="573.7,167.07,559.29,151.53,580.24,154.69,573.7,167.07" style="stroke: #A80036; stroke-width: 1.0;"/><!--MD5=[9a02b467888c5123255f55ebe5217d7a]
link DisplayCommInterfaceImplementationTests to DisplayComm2WayInterfaceStub--><path d="M1147.31,136.79 C1145.46,162.23 1142.45,203.56 1140.16,235.04 " fill="none" id="DisplayCommInterfaceImplementationTests-&gt;DisplayComm2WayInterfaceStub" style="stroke: #A80036; stroke-width: 1.0; stroke-dasharray: 7.0,7.0;"/><polygon fill="#A80036" points="1139.77,240.39,1144.4028,231.6988,1140.1273,235.4028,1136.4233,231.1272,1139.77,240.39" style="stroke: #A80036; stroke-width: 1.0;"/><!--MD5=[0cd290e6298e838268680010d5032c0d]
link DisplayCommInterfaceImplementationTests to DisplayCommInterfaceImplementation--><path d="M1104.08,136.66 C1066.23,154.89 1010.07,179 958,190 C682.13,248.28 599,150.26 324,212.5 C311,215.44 297.74,219.48 284.72,224.12 " fill="none" id="DisplayCommInterfaceImplementationTests-&gt;DisplayCommInterfaceImplementation" style="stroke: #A80036; stroke-width: 1.0; stroke-dasharray: 7.0,7.0;"/><polygon fill="#A80036" points="279.94,225.85,289.7639,226.5503,284.6419,224.1493,287.0428,219.0273,279.94,225.85" style="stroke: #A80036; stroke-width: 1.0;"/><!--MD5=[e6e0d8b3e0f7bf14f11c0899b3ad37ae]
reverse link DisplayCommManager to DisplayCommManagerStub--><path d="M895.7,159.76 C922.85,171.56 953.07,182.9 982,190 C1111.43,221.74 1150.56,185.19 1281,212.5 C1312.66,219.13 1346.27,229.72 1376.18,240.49 " fill="none" id="DisplayCommManager&lt;-DisplayCommManagerStub" style="stroke: #A80036; stroke-width: 1.0; stroke-dasharray: 7.0,7.0;"/><polygon fill="none" points="892.83,166.14,877.45,151.57,898.56,153.37,892.83,166.14" style="stroke: #A80036; stroke-width: 1.0;"/><!--MD5=[69695ace36e753468876c8d4fe5d2708]
link DisplayComm2WayInterfaceImplementationTests to DisplayCommManagerStub--><path d="M1497.34,136.79 C1492.23,162.34 1483.92,203.9 1477.62,235.42 " fill="none" id="DisplayComm2WayInterfaceImplementationTests-&gt;DisplayCommManagerStub" style="stroke: #A80036; stroke-width: 1.0; stroke-dasharray: 7.0,7.0;"/><polygon fill="#A80036" points="1476.62,240.39,1482.2938,232.3397,1477.5923,235.4855,1474.4466,230.784,1476.62,240.39" style="stroke: #A80036; stroke-width: 1.0;"/><!--MD5=[ce67f838794c14794f693dd46a642b9a]
link DisplayComm2WayInterfaceImplementationTests to DisplayComm2WayInterfaceImplementation--><path d="M1458.59,136.68 C1421.98,154.93 1367.61,179.05 1317,190 C1031.01,251.9 945.53,153.15 659,212.5 C631.41,218.21 602.48,228.06 576.55,238.42 " fill="none" id="DisplayComm2WayInterfaceImplementationTests-&gt;DisplayComm2WayInterfaceImplementation" style="stroke: #A80036; stroke-width: 1.0; stroke-dasharray: 7.0,7.0;"/><polygon fill="#A80036" points="571.75,240.36,581.5932,240.6948,576.3854,238.4858,578.5944,233.2781,571.75,240.36" style="stroke: #A80036; stroke-width: 1.0;"/><!--MD5=[72cb9e2c0df516d67fcc7a3605b88acd]
reverse link MiddlewareCommInterface to MiddlewareCommInterfaceStub--><path d="M2257.36,175.48 C2247.2,180.61 2236.98,185.53 2227,190 C2182.72,209.83 2132.54,228.28 2088.75,243.15 " fill="none" id="MiddlewareCommInterface&lt;-MiddlewareCommInterfaceStub" style="stroke: #A80036; stroke-width: 1.0; stroke-dasharray: 7.0,7.0;"/><polygon fill="none" points="2254.51,169.07,2275.49,166.09,2260.96,181.5,2254.51,169.07" style="stroke: #A80036; stroke-width: 1.0;"/><!--MD5=[a3caa78d97a9caf08bd2afaaae1510f4]
link DisplayCommManagerImplementationTests to MiddlewareCommInterfaceStub--><path d="M1871.22,136.79 C1890.27,162.55 1921.35,204.59 1944.72,236.2 " fill="none" id="DisplayCommManagerImplementationTests-&gt;MiddlewareCommInterfaceStub" style="stroke: #A80036; stroke-width: 1.0; stroke-dasharray: 7.0,7.0;"/><polygon fill="#A80036" points="1947.82,240.39,1945.6968,230.7727,1944.8521,236.3662,1939.2586,235.5214,1947.82,240.39" style="stroke: #A80036; stroke-width: 1.0;"/><!--MD5=[6f3abcadcd809ea193290ea1cf8b820a]
link DisplayCommManagerImplementationTests to DisplayCommManagerImplementation--><path d="M1815.44,136.54 C1782.57,154.84 1733.41,179.1 1687,190 C1534.41,225.85 1135.68,181.64 982,212.5 C967.13,215.49 951.87,219.61 936.87,224.36 " fill="none" id="DisplayCommManagerImplementationTests-&gt;DisplayCommManagerImplementation" style="stroke: #A80036; stroke-width: 1.0; stroke-dasharray: 7.0,7.0;"/><polygon fill="#A80036" points="931.79,225.99,941.585,227.0183,936.5461,224.4475,939.117,219.4086,931.79,225.99" style="stroke: #A80036; stroke-width: 1.0;"/><!--MD5=[f24e7409bf4fec90fef0ed7e05f90b9b]
link TrackDataPlotterTests to TrackDataPlotter--><path d="M2154.78,136.79 C2193.58,167.13 2261.26,220.06 2302.02,251.93 " fill="none" id="TrackDataPlotterTests-&gt;TrackDataPlotter" style="stroke: #A80036; stroke-width: 1.0; stroke-dasharray: 7.0,7.0;"/><polygon fill="#A80036" points="2306.37,255.33,2301.7477,246.6332,2302.4325,252.2485,2296.8172,252.9332,2306.37,255.33" style="stroke: #A80036; stroke-width: 1.0;"/><!--MD5=[1c564b5f1811536ff6eed0c9a08aa9ec]
@startuml Display02Packages_Closure


package edu.oakland.production.display02 {
    
}



package edu.oakland.production.display02 {
    interface DisplayCommInterface {
        __
        .. Use Case 1 ..
        {abstract} + TrackData receiveRfidRequest(int rfidNum)
    }
}








package edu.oakland.production.display02 {
    interface DisplayComm2WayInterface {
        __
        .. Use Case 1 ..
        {abstract} + TrackData passRfidRequest(int rfidNum)
    }
}








package edu.oakland.production.display02 {
    interface DisplayCommManager {
        __
        .. Use Case 1 ..
        {abstract} + TrackData evaluateRfidRequest(int rfidNum)
    }
}








package edu.oakland.production.display02 {
    class DisplayCommInterfaceImplementation {
        __
        .. Use Case 1 ..
        {abstract} + TrackData receiveRfidRequest(int rfidNum)
        .. Use Case 2 ..

    }
}


DisplayCommInterfaceImplementation .up.|> DisplayCommInterface







package edu.oakland.production.display02 {
    class DisplayComm2WayInterfaceImplementation {
        __
        .. Use Case 1 ..
        {abstract} + LocationDataPoint passRfidRequest(int rfidNum)
    }
}


DisplayComm2WayInterfaceImplementation .up.|> DisplayComm2WayInterface







package edu.oakland.production.display02 {
    class DisplayCommManagerImplementation {
        __
        .. Use Case 1 ..

        .. Use Case 2 ..

    }
}


DisplayCommManagerImplementation .up.|> DisplayCommManager







package edu.oakland.test.display02 {
    
}



package edu.oakland.test.display02 {
    class DisplayCommInterfaceImplementationTests {

    }
}




package edu.oakland.test.display02 {
    class DisplayComm2WayInterfaceStub {
        __
        .. Use Case 1 ..
        {abstract} + TrackData passRfidRequest(int rfidNum)
    }
}


DisplayComm2WayInterfaceStub .up.|> DisplayComm2WayInterface



DisplayCommInterfaceImplementationTests ..> DisplayComm2WayInterfaceStub

DisplayCommInterfaceImplementationTests ..> DisplayCommInterfaceImplementation





package edu.oakland.test.display02 {
    class DisplayComm2WayInterfaceImplementationTests {

    }
}




package edu.oakland.test.display02 {
    class DisplayCommManagerStub {
        __
        .. Use Case 1 ..
        + TrackData evaluateRfidRequest(int rfidNum)
    }
}


DisplayCommManagerStub .up.|> DisplayCommManager



DisplayComm2WayInterfaceImplementationTests ..> DisplayCommManagerStub

DisplayComm2WayInterfaceImplementationTests ..> DisplayComm2WayInterfaceImplementation





package edu.oakland.test.display02 {
    class DisplayCommManagerImplementationTests {

    }
}




package edu.oakland.test.display02 {
    class MiddlewareCommInterfaceStub {
        __
        .. Use Case 1 ..
        + TrackData requestRfid(int rfid)
    }
}






package edu.oakland.production.middleware02 {
    interface MiddlewareCommInterface {
        __
        .. Use Case 1 ..
        {abstract} + TrackData requestRfid(int rfid)
        .. Use Case 2 ..

    }
}






MiddlewareCommInterfaceStub .up.|> MiddlewareCommInterface

DisplayCommManagerImplementationTests ..> MiddlewareCommInterfaceStub

DisplayCommManagerImplementationTests ..> DisplayCommManagerImplementation





package edu.oakland.test.display02 {
    class TrackDataPlotterTests {

    }
}




package edu.oakland.helper.display02 {
    class TrackDataPlotter {
        
    }
}






TrackDataPlotterTests ..> TrackDataPlotter





package edu.oakland.helper.display02 {
    
}



@enduml

PlantUML version 1.2020.02(Sun Mar 01 10:22:07 GMT 2020)
(GPL source distribution)
Java Runtime: OpenJDK Runtime Environment
JVM: OpenJDK 64-Bit Server VM
Java Version: 11.0.9+11-Ubuntu-0ubuntu1
Operating System: Linux
Default Encoding: ANSI_X3.4-1968
Language: en
Country: US
--></g></svg>