<?xml version="1.0" encoding="UTF-8" standalone="no"?><svg xmlns="http://www.w3.org/2000/svg" xmlns:xlink="http://www.w3.org/1999/xlink" contentScriptType="application/ecmascript" contentStyleType="text/css" height="354px" preserveAspectRatio="none" style="width:2901px;height:354px;" version="1.1" viewBox="0 0 2901 354" width="2901px" zoomAndPan="magnify"><defs><filter height="300%" id="ffv9mqwyddj30" width="300%" x="-1" y="-1"><feGaussianBlur result="blurOut" stdDeviation="2.0"/><feColorMatrix in="blurOut" result="blurOut2" type="matrix" values="0 0 0 0 0 0 0 0 0 0 0 0 0 0 0 0 0 0 .4 0"/><feOffset dx="4.0" dy="4.0" in="blurOut2" result="blurOut3"/><feBlend in="SourceGraphic" in2="blurOut3" mode="normal"/></filter></defs><g><!--MD5=[fe59aae6f7bfe371a9c197ec1f7f843a]
cluster edu.oakland.production.display02--><polygon fill="#FFFFFF" filter="url(#ffv9mqwyddj30)" points="1563,24,1836,24,1843,46.2969,2879,46.2969,2879,342,1563,342,1563,24" style="stroke: #000000; stroke-width: 1.5;"/><line style="stroke: #000000; stroke-width: 1.5;" x1="1563" x2="1843" y1="46.2969" y2="46.2969"/><text fill="#000000" font-family="sans-serif" font-size="14" font-weight="bold" lengthAdjust="spacingAndGlyphs" textLength="267" x="1567" y="38.9951">edu.oakland.production.display02</text><!--MD5=[9258003ec405d300d3379b4a3d8dd6ad]
cluster edu.oakland.test.display02--><polygon fill="#FFFFFF" filter="url(#ffv9mqwyddj30)" points="294,39,512,39,519,61.2969,1539,61.2969,1539,316.5,294,316.5,294,39" style="stroke: #000000; stroke-width: 1.5;"/><line style="stroke: #000000; stroke-width: 1.5;" x1="294" x2="519" y1="61.2969" y2="61.2969"/><text fill="#000000" font-family="sans-serif" font-size="14" font-weight="bold" lengthAdjust="spacingAndGlyphs" textLength="212" x="298" y="53.9951">edu.oakland.test.display02</text><!--MD5=[a502031b5a5384de0a21e6ee820fd3b2]
cluster edu.oakland.helper.display02--><polygon fill="#FFFFFF" filter="url(#ffv9mqwyddj30)" points="22,202.5,260,202.5,267,224.7969,270,224.7969,270,301.5,22,301.5,22,202.5" style="stroke: #000000; stroke-width: 1.5;"/><line style="stroke: #000000; stroke-width: 1.5;" x1="22" x2="267" y1="224.7969" y2="224.7969"/><text fill="#000000" font-family="sans-serif" font-size="14" font-weight="bold" lengthAdjust="spacingAndGlyphs" textLength="232" x="26" y="217.4951">edu.oakland.helper.display02</text><!--MD5=[c8d1e3134fecb0c949fd2a76cc0bb992]
class DisplayCommInterface--><rect fill="#FEFECE" filter="url(#ffv9mqwyddj30)" height="77.6094" id="DisplayCommInterface" style="stroke: #A80036; stroke-width: 1.5;" width="268" x="2542" y="59"/><ellipse cx="2602.25" cy="75" fill="#B4A7E5" rx="11" ry="11" style="stroke: #A80036; stroke-width: 1.0;"/><path d="M2598.1719,70.7656 L2598.1719,68.6094 L2605.5625,68.6094 L2605.5625,70.7656 L2603.0938,70.7656 L2603.0938,78.8438 L2605.5625,78.8438 L2605.5625,81 L2598.1719,81 L2598.1719,78.8438 L2600.6406,78.8438 L2600.6406,70.7656 L2598.1719,70.7656 Z "/><text fill="#000000" font-family="sans-serif" font-size="12" font-style="italic" lengthAdjust="spacingAndGlyphs" textLength="139" x="2622.75" y="79.1543">DisplayCommInterface</text><line style="stroke: #A80036; stroke-width: 1.5;" x1="2543" x2="2809" y1="91" y2="91"/><line style="stroke: #A80036; stroke-width: 1.5;" x1="2543" x2="2809" y1="99" y2="99"/><ellipse cx="2553" cy="126.8047" fill="#84BE84" rx="3" ry="3" style="stroke: #038048; stroke-width: 1.0;"/><text fill="#000000" font-family="sans-serif" font-size="11" font-style="italic" lengthAdjust="spacingAndGlyphs" textLength="242" x="2562" y="130.0151">TrackData receiveRfidRequest(int rfidNum)</text><line style="stroke: #A80036; stroke-width: 1.0; stroke-dasharray: 1.0,2.0;" x1="2543" x2="2643" y1="113.4023" y2="113.4023"/><text fill="#000000" font-family="sans-serif" font-size="11" lengthAdjust="spacingAndGlyphs" textLength="66" x="2643" y="116.7104">Use Case 1</text><line style="stroke: #A80036; stroke-width: 1.0; stroke-dasharray: 1.0,2.0;" x1="2709" x2="2809" y1="113.4023" y2="113.4023"/><!--MD5=[f6b51b5f862da5ce226c62e411e84628]
class DisplayComm2WayInterface--><rect fill="#FEFECE" filter="url(#ffv9mqwyddj30)" height="77.6094" id="DisplayComm2WayInterface" style="stroke: #A80036; stroke-width: 1.5;" width="252" x="2041" y="59"/><ellipse cx="2076.7" cy="75" fill="#B4A7E5" rx="11" ry="11" style="stroke: #A80036; stroke-width: 1.0;"/><path d="M2072.6219,70.7656 L2072.6219,68.6094 L2080.0125,68.6094 L2080.0125,70.7656 L2077.5438,70.7656 L2077.5438,78.8438 L2080.0125,78.8438 L2080.0125,81 L2072.6219,81 L2072.6219,78.8438 L2075.0906,78.8438 L2075.0906,70.7656 L2072.6219,70.7656 Z "/><text fill="#000000" font-family="sans-serif" font-size="12" font-style="italic" lengthAdjust="spacingAndGlyphs" textLength="174" x="2095.3" y="79.1543">DisplayComm2WayInterface</text><line style="stroke: #A80036; stroke-width: 1.5;" x1="2042" x2="2292" y1="91" y2="91"/><line style="stroke: #A80036; stroke-width: 1.5;" x1="2042" x2="2292" y1="99" y2="99"/><ellipse cx="2052" cy="126.8047" fill="#84BE84" rx="3" ry="3" style="stroke: #038048; stroke-width: 1.0;"/><text fill="#000000" font-family="sans-serif" font-size="11" font-style="italic" lengthAdjust="spacingAndGlyphs" textLength="226" x="2061" y="130.0151">TrackData passRfidRequest(int rfidNum)</text><line style="stroke: #A80036; stroke-width: 1.0; stroke-dasharray: 1.0,2.0;" x1="2042" x2="2134" y1="113.4023" y2="113.4023"/><text fill="#000000" font-family="sans-serif" font-size="11" lengthAdjust="spacingAndGlyphs" textLength="66" x="2134" y="116.7104">Use Case 1</text><line style="stroke: #A80036; stroke-width: 1.0; stroke-dasharray: 1.0,2.0;" x1="2200" x2="2292" y1="113.4023" y2="113.4023"/><!--MD5=[6aeb72f2773d7cabb45309482beeff0a]
class DisplayCommManager--><rect fill="#FEFECE" filter="url(#ffv9mqwyddj30)" height="77.6094" id="DisplayCommManager" style="stroke: #A80036; stroke-width: 1.5;" width="275" x="1628.5" y="59"/><ellipse cx="1693.25" cy="75" fill="#B4A7E5" rx="11" ry="11" style="stroke: #A80036; stroke-width: 1.0;"/><path d="M1689.1719,70.7656 L1689.1719,68.6094 L1696.5625,68.6094 L1696.5625,70.7656 L1694.0938,70.7656 L1694.0938,78.8438 L1696.5625,78.8438 L1696.5625,81 L1689.1719,81 L1689.1719,78.8438 L1691.6406,78.8438 L1691.6406,70.7656 L1689.1719,70.7656 Z "/><text fill="#000000" font-family="sans-serif" font-size="12" font-style="italic" lengthAdjust="spacingAndGlyphs" textLength="137" x="1713.75" y="79.1543">DisplayCommManager</text><line style="stroke: #A80036; stroke-width: 1.5;" x1="1629.5" x2="1902.5" y1="91" y2="91"/><line style="stroke: #A80036; stroke-width: 1.5;" x1="1629.5" x2="1902.5" y1="99" y2="99"/><ellipse cx="1639.5" cy="126.8047" fill="#84BE84" rx="3" ry="3" style="stroke: #038048; stroke-width: 1.0;"/><text fill="#000000" font-family="sans-serif" font-size="11" font-style="italic" lengthAdjust="spacingAndGlyphs" textLength="249" x="1648.5" y="130.0151">TrackData evaluateRfidRequest(int rfidNum)</text><line style="stroke: #A80036; stroke-width: 1.0; stroke-dasharray: 1.0,2.0;" x1="1629.5" x2="1733" y1="113.4023" y2="113.4023"/><text fill="#000000" font-family="sans-serif" font-size="11" lengthAdjust="spacingAndGlyphs" textLength="66" x="1733" y="116.7104">Use Case 1</text><line style="stroke: #A80036; stroke-width: 1.0; stroke-dasharray: 1.0,2.0;" x1="1799" x2="1902.5" y1="113.4023" y2="113.4023"/><!--MD5=[a35092e604da7274febf4e2cf9a25087]
class DisplayCommInterfaceImplementation--><rect fill="#FEFECE" filter="url(#ffv9mqwyddj30)" height="128.8281" id="DisplayCommInterfaceImplementation" style="stroke: #A80036; stroke-width: 1.5;" width="373" x="2489.5" y="197"/><ellipse cx="2554.25" cy="213" fill="#ADD1B2" rx="11" ry="11" style="stroke: #A80036; stroke-width: 1.0;"/><path d="M2557.2188,218.6406 Q2556.6406,218.9375 2556,219.0781 Q2555.3594,219.2344 2554.6563,219.2344 Q2552.1563,219.2344 2550.8281,217.5938 Q2549.5156,215.9375 2549.5156,212.8125 Q2549.5156,209.6875 2550.8281,208.0313 Q2552.1563,206.375 2554.6563,206.375 Q2555.3594,206.375 2556,206.5313 Q2556.6563,206.6875 2557.2188,206.9844 L2557.2188,209.7031 Q2556.5938,209.125 2556,208.8594 Q2555.4063,208.5781 2554.7813,208.5781 Q2553.4375,208.5781 2552.75,209.6563 Q2552.0625,210.7188 2552.0625,212.8125 Q2552.0625,214.9063 2552.75,215.9844 Q2553.4375,217.0469 2554.7813,217.0469 Q2555.4063,217.0469 2556,216.7813 Q2556.5938,216.5 2557.2188,215.9219 L2557.2188,218.6406 Z "/><text fill="#000000" font-family="sans-serif" font-size="12" lengthAdjust="spacingAndGlyphs" textLength="235" x="2574.75" y="217.1543">DisplayCommInterfaceImplementation</text><line style="stroke: #A80036; stroke-width: 1.5;" x1="2490.5" x2="2861.5" y1="229" y2="229"/><text fill="#000000" font-family="sans-serif" font-size="11" lengthAdjust="spacingAndGlyphs" textLength="207" x="2495.5" y="243.2104">DisplayComm2WayInterface receiver</text><line style="stroke: #A80036; stroke-width: 1.5;" x1="2490.5" x2="2861.5" y1="249.8047" y2="249.8047"/><ellipse cx="2500.5" cy="260.8047" fill="#84BE84" rx="3" ry="3" style="stroke: #038048; stroke-width: 1.0;"/><text fill="#000000" font-family="sans-serif" font-size="11" font-style="italic" lengthAdjust="spacingAndGlyphs" textLength="347" x="2509.5" y="264.0151">DisplayCommInterface(DisplayComm2WayInterface receiver)</text><ellipse cx="2500.5" cy="290.4141" fill="#84BE84" rx="3" ry="3" style="stroke: #038048; stroke-width: 1.0;"/><text fill="#000000" font-family="sans-serif" font-size="11" font-style="italic" lengthAdjust="spacingAndGlyphs" textLength="242" x="2509.5" y="293.6245">TrackData receiveRfidRequest(int rfidNum)</text><ellipse cx="2500.5" cy="303.2188" fill="#84BE84" rx="3" ry="3" style="stroke: #038048; stroke-width: 1.0;"/><text fill="#000000" font-family="sans-serif" font-size="11" font-style="italic" lengthAdjust="spacingAndGlyphs" textLength="291" x="2509.5" y="306.4292">TrackData passToComm2WayInterface(int rfidNum)</text><text fill="#000000" font-family="sans-serif" font-size="11" lengthAdjust="spacingAndGlyphs" textLength="0" x="2513.5" y="319.2339"/><line style="stroke: #A80036; stroke-width: 1.0; stroke-dasharray: 1.0,2.0;" x1="2490.5" x2="2643" y1="277.0117" y2="277.0117"/><text fill="#000000" font-family="sans-serif" font-size="11" lengthAdjust="spacingAndGlyphs" textLength="66" x="2643" y="280.3198">Use Case 1</text><line style="stroke: #A80036; stroke-width: 1.0; stroke-dasharray: 1.0,2.0;" x1="2709" x2="2861.5" y1="277.0117" y2="277.0117"/><!--MD5=[46657c2900260d4d40350fe3f8c544df]
class DisplayComm2WayInterfaceImplementation--><rect fill="#FEFECE" filter="url(#ffv9mqwyddj30)" height="103.2188" id="DisplayComm2WayInterfaceImplementation" style="stroke: #A80036; stroke-width: 1.5;" width="370" x="2084" y="210"/><ellipse cx="2130.75" cy="226" fill="#ADD1B2" rx="11" ry="11" style="stroke: #A80036; stroke-width: 1.0;"/><path d="M2133.7188,231.6406 Q2133.1406,231.9375 2132.5,232.0781 Q2131.8594,232.2344 2131.1563,232.2344 Q2128.6563,232.2344 2127.3281,230.5938 Q2126.0156,228.9375 2126.0156,225.8125 Q2126.0156,222.6875 2127.3281,221.0313 Q2128.6563,219.375 2131.1563,219.375 Q2131.8594,219.375 2132.5,219.5313 Q2133.1563,219.6875 2133.7188,219.9844 L2133.7188,222.7031 Q2133.0938,222.125 2132.5,221.8594 Q2131.9063,221.5781 2131.2813,221.5781 Q2129.9375,221.5781 2129.25,222.6563 Q2128.5625,223.7188 2128.5625,225.8125 Q2128.5625,227.9063 2129.25,228.9844 Q2129.9375,230.0469 2131.2813,230.0469 Q2131.9063,230.0469 2132.5,229.7813 Q2133.0938,229.5 2133.7188,228.9219 L2133.7188,231.6406 Z "/><text fill="#000000" font-family="sans-serif" font-size="12" lengthAdjust="spacingAndGlyphs" textLength="268" x="2151.25" y="230.1543">DisplayComm2WayInterfaceImplementation</text><line style="stroke: #A80036; stroke-width: 1.5;" x1="2085" x2="2453" y1="242" y2="242"/><line style="stroke: #A80036; stroke-width: 1.5;" x1="2085" x2="2453" y1="250" y2="250"/><ellipse cx="2095" cy="277.8047" fill="#84BE84" rx="3" ry="3" style="stroke: #038048; stroke-width: 1.0;"/><text fill="#000000" font-family="sans-serif" font-size="11" font-style="italic" lengthAdjust="spacingAndGlyphs" textLength="226" x="2104" y="281.0151">TrackData passRfidRequest(int rfidNum)</text><ellipse cx="2095" cy="290.6094" fill="#84BE84" rx="3" ry="3" style="stroke: #038048; stroke-width: 1.0;"/><text fill="#000000" font-family="sans-serif" font-size="11" font-style="italic" lengthAdjust="spacingAndGlyphs" textLength="269" x="2104" y="293.8198">void determineUserRequestFormat(int rfidNum)</text><ellipse cx="2095" cy="303.4141" fill="#84BE84" rx="3" ry="3" style="stroke: #038048; stroke-width: 1.0;"/><text fill="#000000" font-family="sans-serif" font-size="11" font-style="italic" lengthAdjust="spacingAndGlyphs" textLength="344" x="2104" y="306.6245">void receiveRequestFromDisplayCommInterface(int rfidNum)</text><line style="stroke: #A80036; stroke-width: 1.0; stroke-dasharray: 1.0,2.0;" x1="2085" x2="2236" y1="264.4023" y2="264.4023"/><text fill="#000000" font-family="sans-serif" font-size="11" lengthAdjust="spacingAndGlyphs" textLength="66" x="2236" y="267.7104">Use Case 1</text><line style="stroke: #A80036; stroke-width: 1.0; stroke-dasharray: 1.0,2.0;" x1="2302" x2="2453" y1="264.4023" y2="264.4023"/><!--MD5=[3a27b63ddb357afc5dde5581215f51f9]
class DisplayCommManagerImplementation--><rect fill="#FEFECE" filter="url(#ffv9mqwyddj30)" height="124.8281" id="DisplayCommManagerImplementation" style="stroke: #A80036; stroke-width: 1.5;" width="470" x="1579" y="199"/><ellipse cx="1692.75" cy="215" fill="#ADD1B2" rx="11" ry="11" style="stroke: #A80036; stroke-width: 1.0;"/><path d="M1695.7188,220.6406 Q1695.1406,220.9375 1694.5,221.0781 Q1693.8594,221.2344 1693.1563,221.2344 Q1690.6563,221.2344 1689.3281,219.5938 Q1688.0156,217.9375 1688.0156,214.8125 Q1688.0156,211.6875 1689.3281,210.0313 Q1690.6563,208.375 1693.1563,208.375 Q1693.8594,208.375 1694.5,208.5313 Q1695.1563,208.6875 1695.7188,208.9844 L1695.7188,211.7031 Q1695.0938,211.125 1694.5,210.8594 Q1693.9063,210.5781 1693.2813,210.5781 Q1691.9375,210.5781 1691.25,211.6563 Q1690.5625,212.7188 1690.5625,214.8125 Q1690.5625,216.9063 1691.25,217.9844 Q1691.9375,219.0469 1693.2813,219.0469 Q1693.9063,219.0469 1694.5,218.7813 Q1695.0938,218.5 1695.7188,217.9219 L1695.7188,220.6406 Z "/><text fill="#000000" font-family="sans-serif" font-size="12" lengthAdjust="spacingAndGlyphs" textLength="234" x="1713.25" y="219.1543">DisplayCommManagerImplementation</text><line style="stroke: #A80036; stroke-width: 1.5;" x1="1580" x2="2048" y1="231" y2="231"/><text fill="#000000" font-family="sans-serif" font-size="11" lengthAdjust="spacingAndGlyphs" textLength="221" x="1585" y="245.2104">MiddlewareCommInterface middleware</text><line style="stroke: #A80036; stroke-width: 1.5;" x1="1580" x2="2048" y1="251.8047" y2="251.8047"/><ellipse cx="1590" cy="262.8047" fill="#84BE84" rx="3" ry="3" style="stroke: #038048; stroke-width: 1.0;"/><text fill="#000000" font-family="sans-serif" font-size="11" font-style="italic" lengthAdjust="spacingAndGlyphs" textLength="444" x="1599" y="266.0151">DisplayCommManagerImplementation(MiddlewareCommInterface middleware)</text><ellipse cx="1590" cy="275.6094" fill="#84BE84" rx="3" ry="3" style="stroke: #038048; stroke-width: 1.0;"/><text fill="#000000" font-family="sans-serif" font-size="11" font-style="italic" lengthAdjust="spacingAndGlyphs" textLength="249" x="1599" y="278.8198">TrackData evaluateRfidRequest(int rfidNum)</text><ellipse cx="1590" cy="288.4141" fill="#84BE84" rx="3" ry="3" style="stroke: #038048; stroke-width: 1.0;"/><text fill="#000000" font-family="sans-serif" font-size="11" font-style="italic" lengthAdjust="spacingAndGlyphs" textLength="369" x="1599" y="291.6245">TrackData passRequestToMiddlewareCommInterface(int rfidNum)</text><ellipse cx="1590" cy="301.2188" fill="#84BE84" rx="3" ry="3" style="stroke: #038048; stroke-width: 1.0;"/><text fill="#000000" font-family="sans-serif" font-size="11" font-style="italic" lengthAdjust="spacingAndGlyphs" textLength="339" x="1599" y="304.4292">void receiveRequestFromDisplay2WayInterface(int rfidNum)</text><text fill="#000000" font-family="sans-serif" font-size="11" lengthAdjust="spacingAndGlyphs" textLength="0" x="1603" y="317.2339"/><!--MD5=[d454b7777f115113290d89683d7a426c]
class DisplayCommInterfaceImplementationTests--><rect fill="#FEFECE" filter="url(#ffv9mqwyddj30)" height="48" id="DisplayCommInterfaceImplementationTests" style="stroke: #A80036; stroke-width: 1.5;" width="301" x="1221.5" y="74"/><ellipse cx="1236.5" cy="90" fill="#ADD1B2" rx="11" ry="11" style="stroke: #A80036; stroke-width: 1.0;"/><path d="M1239.4688,95.6406 Q1238.8906,95.9375 1238.25,96.0781 Q1237.6094,96.2344 1236.9063,96.2344 Q1234.4063,96.2344 1233.0781,94.5938 Q1231.7656,92.9375 1231.7656,89.8125 Q1231.7656,86.6875 1233.0781,85.0313 Q1234.4063,83.375 1236.9063,83.375 Q1237.6094,83.375 1238.25,83.5313 Q1238.9063,83.6875 1239.4688,83.9844 L1239.4688,86.7031 Q1238.8438,86.125 1238.25,85.8594 Q1237.6563,85.5781 1237.0313,85.5781 Q1235.6875,85.5781 1235,86.6563 Q1234.3125,87.7188 1234.3125,89.8125 Q1234.3125,91.9063 1235,92.9844 Q1235.6875,94.0469 1237.0313,94.0469 Q1237.6563,94.0469 1238.25,93.7813 Q1238.8438,93.5 1239.4688,92.9219 L1239.4688,95.6406 Z "/><text fill="#000000" font-family="sans-serif" font-size="12" lengthAdjust="spacingAndGlyphs" textLength="269" x="1250.5" y="94.1543">DisplayCommInterfaceImplementationTests</text><line style="stroke: #A80036; stroke-width: 1.5;" x1="1222.5" x2="1521.5" y1="106" y2="106"/><line style="stroke: #A80036; stroke-width: 1.5;" x1="1222.5" x2="1521.5" y1="114" y2="114"/><!--MD5=[a333ac13e0fdf2a5898aafabd38d3c1b]
class DisplayComm2WayInterfaceStub--><rect fill="#FEFECE" filter="url(#ffv9mqwyddj30)" height="77.6094" id="DisplayComm2WayInterfaceStub" style="stroke: #A80036; stroke-width: 1.5;" width="252" x="1258" y="222.5"/><ellipse cx="1282" cy="238.5" fill="#ADD1B2" rx="11" ry="11" style="stroke: #A80036; stroke-width: 1.0;"/><path d="M1284.9688,244.1406 Q1284.3906,244.4375 1283.75,244.5781 Q1283.1094,244.7344 1282.4063,244.7344 Q1279.9063,244.7344 1278.5781,243.0938 Q1277.2656,241.4375 1277.2656,238.3125 Q1277.2656,235.1875 1278.5781,233.5313 Q1279.9063,231.875 1282.4063,231.875 Q1283.1094,231.875 1283.75,232.0313 Q1284.4063,232.1875 1284.9688,232.4844 L1284.9688,235.2031 Q1284.3438,234.625 1283.75,234.3594 Q1283.1563,234.0781 1282.5313,234.0781 Q1281.1875,234.0781 1280.5,235.1563 Q1279.8125,236.2188 1279.8125,238.3125 Q1279.8125,240.4063 1280.5,241.4844 Q1281.1875,242.5469 1282.5313,242.5469 Q1283.1563,242.5469 1283.75,242.2813 Q1284.3438,242 1284.9688,241.4219 L1284.9688,244.1406 Z "/><text fill="#000000" font-family="sans-serif" font-size="12" lengthAdjust="spacingAndGlyphs" textLength="200" x="1298" y="242.6543">DisplayComm2WayInterfaceStub</text><line style="stroke: #A80036; stroke-width: 1.5;" x1="1259" x2="1509" y1="254.5" y2="254.5"/><line style="stroke: #A80036; stroke-width: 1.5;" x1="1259" x2="1509" y1="262.5" y2="262.5"/><ellipse cx="1269" cy="290.3047" fill="#84BE84" rx="3" ry="3" style="stroke: #038048; stroke-width: 1.0;"/><text fill="#000000" font-family="sans-serif" font-size="11" font-style="italic" lengthAdjust="spacingAndGlyphs" textLength="226" x="1278" y="293.5151">TrackData passRfidRequest(int rfidNum)</text><line style="stroke: #A80036; stroke-width: 1.0; stroke-dasharray: 1.0,2.0;" x1="1259" x2="1351" y1="276.9023" y2="276.9023"/><text fill="#000000" font-family="sans-serif" font-size="11" lengthAdjust="spacingAndGlyphs" textLength="66" x="1351" y="280.2104">Use Case 1</text><line style="stroke: #A80036; stroke-width: 1.0; stroke-dasharray: 1.0,2.0;" x1="1417" x2="1509" y1="276.9023" y2="276.9023"/><!--MD5=[178181f4c7684560c711246055fc01d3]
class DisplayComm2WayInterfaceImplementationTests--><rect fill="#FEFECE" filter="url(#ffv9mqwyddj30)" height="48" id="DisplayComm2WayInterfaceImplementationTests" style="stroke: #A80036; stroke-width: 1.5;" width="334" x="852" y="74"/><ellipse cx="867" cy="90" fill="#ADD1B2" rx="11" ry="11" style="stroke: #A80036; stroke-width: 1.0;"/><path d="M869.9688,95.6406 Q869.3906,95.9375 868.75,96.0781 Q868.1094,96.2344 867.4063,96.2344 Q864.9063,96.2344 863.5781,94.5938 Q862.2656,92.9375 862.2656,89.8125 Q862.2656,86.6875 863.5781,85.0313 Q864.9063,83.375 867.4063,83.375 Q868.1094,83.375 868.75,83.5313 Q869.4063,83.6875 869.9688,83.9844 L869.9688,86.7031 Q869.3438,86.125 868.75,85.8594 Q868.1563,85.5781 867.5313,85.5781 Q866.1875,85.5781 865.5,86.6563 Q864.8125,87.7188 864.8125,89.8125 Q864.8125,91.9063 865.5,92.9844 Q866.1875,94.0469 867.5313,94.0469 Q868.1563,94.0469 868.75,93.7813 Q869.3438,93.5 869.9688,92.9219 L869.9688,95.6406 Z "/><text fill="#000000" font-family="sans-serif" font-size="12" lengthAdjust="spacingAndGlyphs" textLength="302" x="881" y="94.1543">DisplayComm2WayInterfaceImplementationTests</text><line style="stroke: #A80036; stroke-width: 1.5;" x1="853" x2="1185" y1="106" y2="106"/><line style="stroke: #A80036; stroke-width: 1.5;" x1="853" x2="1185" y1="114" y2="114"/><!--MD5=[2970358178d6cf57fc5a801b39eb8d0b]
class DisplayCommManagerStub--><rect fill="#FEFECE" filter="url(#ffv9mqwyddj30)" height="77.6094" id="DisplayCommManagerStub" style="stroke: #A80036; stroke-width: 1.5;" width="273" x="915.5" y="222.5"/><ellipse cx="964.75" cy="238.5" fill="#ADD1B2" rx="11" ry="11" style="stroke: #A80036; stroke-width: 1.0;"/><path d="M967.7188,244.1406 Q967.1406,244.4375 966.5,244.5781 Q965.8594,244.7344 965.1563,244.7344 Q962.6563,244.7344 961.3281,243.0938 Q960.0156,241.4375 960.0156,238.3125 Q960.0156,235.1875 961.3281,233.5313 Q962.6563,231.875 965.1563,231.875 Q965.8594,231.875 966.5,232.0313 Q967.1563,232.1875 967.7188,232.4844 L967.7188,235.2031 Q967.0938,234.625 966.5,234.3594 Q965.9063,234.0781 965.2813,234.0781 Q963.9375,234.0781 963.25,235.1563 Q962.5625,236.2188 962.5625,238.3125 Q962.5625,240.4063 963.25,241.4844 Q963.9375,242.5469 965.2813,242.5469 Q965.9063,242.5469 966.5,242.2813 Q967.0938,242 967.7188,241.4219 L967.7188,244.1406 Z "/><text fill="#000000" font-family="sans-serif" font-size="12" lengthAdjust="spacingAndGlyphs" textLength="166" x="985.25" y="242.6543">DisplayCommManagerStub</text><line style="stroke: #A80036; stroke-width: 1.5;" x1="916.5" x2="1187.5" y1="254.5" y2="254.5"/><line style="stroke: #A80036; stroke-width: 1.5;" x1="916.5" x2="1187.5" y1="262.5" y2="262.5"/><ellipse cx="926.5" cy="290.3047" fill="#84BE84" rx="3" ry="3" style="stroke: #038048; stroke-width: 1.0;"/><text fill="#000000" font-family="sans-serif" font-size="11" lengthAdjust="spacingAndGlyphs" textLength="247" x="935.5" y="293.5151">TrackData evaluateRfidRequest(int rfidNum)</text><line style="stroke: #A80036; stroke-width: 1.0; stroke-dasharray: 1.0,2.0;" x1="916.5" x2="1019" y1="276.9023" y2="276.9023"/><text fill="#000000" font-family="sans-serif" font-size="11" lengthAdjust="spacingAndGlyphs" textLength="66" x="1019" y="280.2104">Use Case 1</text><line style="stroke: #A80036; stroke-width: 1.0; stroke-dasharray: 1.0,2.0;" x1="1085" x2="1187.5" y1="276.9023" y2="276.9023"/><!--MD5=[937d6d8ff87a99d0d5dcd66ee05a1fa4]
class DisplayCommManagerImplementationTests--><rect fill="#FEFECE" filter="url(#ffv9mqwyddj30)" height="48" id="DisplayCommManagerImplementationTests" style="stroke: #A80036; stroke-width: 1.5;" width="300" x="517" y="74"/><ellipse cx="532" cy="90" fill="#ADD1B2" rx="11" ry="11" style="stroke: #A80036; stroke-width: 1.0;"/><path d="M534.9688,95.6406 Q534.3906,95.9375 533.75,96.0781 Q533.1094,96.2344 532.4063,96.2344 Q529.9063,96.2344 528.5781,94.5938 Q527.2656,92.9375 527.2656,89.8125 Q527.2656,86.6875 528.5781,85.0313 Q529.9063,83.375 532.4063,83.375 Q533.1094,83.375 533.75,83.5313 Q534.4063,83.6875 534.9688,83.9844 L534.9688,86.7031 Q534.3438,86.125 533.75,85.8594 Q533.1563,85.5781 532.5313,85.5781 Q531.1875,85.5781 530.5,86.6563 Q529.8125,87.7188 529.8125,89.8125 Q529.8125,91.9063 530.5,92.9844 Q531.1875,94.0469 532.5313,94.0469 Q533.1563,94.0469 533.75,93.7813 Q534.3438,93.5 534.9688,92.9219 L534.9688,95.6406 Z "/><text fill="#000000" font-family="sans-serif" font-size="12" lengthAdjust="spacingAndGlyphs" textLength="268" x="546" y="94.1543">DisplayCommManagerImplementationTests</text><line style="stroke: #A80036; stroke-width: 1.5;" x1="518" x2="816" y1="106" y2="106"/><line style="stroke: #A80036; stroke-width: 1.5;" x1="518" x2="816" y1="114" y2="114"/><!--MD5=[cf56a65163663c6c6c7b84cd7c204b97]
class MiddlewareCommInterfaceStub--><rect fill="#FEFECE" filter="url(#ffv9mqwyddj30)" height="77.6094" id="MiddlewareCommInterfaceStub" style="stroke: #A80036; stroke-width: 1.5;" width="225" x="554.5" y="222.5"/><ellipse cx="569.5" cy="238.5" fill="#ADD1B2" rx="11" ry="11" style="stroke: #A80036; stroke-width: 1.0;"/><path d="M572.4688,244.1406 Q571.8906,244.4375 571.25,244.5781 Q570.6094,244.7344 569.9063,244.7344 Q567.4063,244.7344 566.0781,243.0938 Q564.7656,241.4375 564.7656,238.3125 Q564.7656,235.1875 566.0781,233.5313 Q567.4063,231.875 569.9063,231.875 Q570.6094,231.875 571.25,232.0313 Q571.9063,232.1875 572.4688,232.4844 L572.4688,235.2031 Q571.8438,234.625 571.25,234.3594 Q570.6563,234.0781 570.0313,234.0781 Q568.6875,234.0781 568,235.1563 Q567.3125,236.2188 567.3125,238.3125 Q567.3125,240.4063 568,241.4844 Q568.6875,242.5469 570.0313,242.5469 Q570.6563,242.5469 571.25,242.2813 Q571.8438,242 572.4688,241.4219 L572.4688,244.1406 Z "/><text fill="#000000" font-family="sans-serif" font-size="12" lengthAdjust="spacingAndGlyphs" textLength="193" x="583.5" y="242.6543">MiddlewareCommInterfaceStub</text><line style="stroke: #A80036; stroke-width: 1.5;" x1="555.5" x2="778.5" y1="254.5" y2="254.5"/><line style="stroke: #A80036; stroke-width: 1.5;" x1="555.5" x2="778.5" y1="262.5" y2="262.5"/><ellipse cx="565.5" cy="290.3047" fill="#84BE84" rx="3" ry="3" style="stroke: #038048; stroke-width: 1.0;"/><text fill="#000000" font-family="sans-serif" font-size="11" lengthAdjust="spacingAndGlyphs" textLength="171" x="574.5" y="293.5151">TrackData requestRfid(int rfid)</text><line style="stroke: #A80036; stroke-width: 1.0; stroke-dasharray: 1.0,2.0;" x1="555.5" x2="634" y1="276.9023" y2="276.9023"/><text fill="#000000" font-family="sans-serif" font-size="11" lengthAdjust="spacingAndGlyphs" textLength="66" x="634" y="280.2104">Use Case 1</text><line style="stroke: #A80036; stroke-width: 1.0; stroke-dasharray: 1.0,2.0;" x1="700" x2="778.5" y1="276.9023" y2="276.9023"/><!--MD5=[930c8140e7c1cb8e71aa7cd49967748e]
class TrackDataPlotterTests--><rect fill="#FEFECE" filter="url(#ffv9mqwyddj30)" height="48" id="TrackDataPlotterTests" style="stroke: #A80036; stroke-width: 1.5;" width="172" x="310" y="74"/><ellipse cx="325" cy="90" fill="#ADD1B2" rx="11" ry="11" style="stroke: #A80036; stroke-width: 1.0;"/><path d="M327.9688,95.6406 Q327.3906,95.9375 326.75,96.0781 Q326.1094,96.2344 325.4063,96.2344 Q322.9063,96.2344 321.5781,94.5938 Q320.2656,92.9375 320.2656,89.8125 Q320.2656,86.6875 321.5781,85.0313 Q322.9063,83.375 325.4063,83.375 Q326.1094,83.375 326.75,83.5313 Q327.4063,83.6875 327.9688,83.9844 L327.9688,86.7031 Q327.3438,86.125 326.75,85.8594 Q326.1563,85.5781 325.5313,85.5781 Q324.1875,85.5781 323.5,86.6563 Q322.8125,87.7188 322.8125,89.8125 Q322.8125,91.9063 323.5,92.9844 Q324.1875,94.0469 325.5313,94.0469 Q326.1563,94.0469 326.75,93.7813 Q327.3438,93.5 327.9688,92.9219 L327.9688,95.6406 Z "/><text fill="#000000" font-family="sans-serif" font-size="12" lengthAdjust="spacingAndGlyphs" textLength="140" x="339" y="94.1543">TrackDataPlotterTests</text><line style="stroke: #A80036; stroke-width: 1.5;" x1="311" x2="481" y1="106" y2="106"/><line style="stroke: #A80036; stroke-width: 1.5;" x1="311" x2="481" y1="114" y2="114"/><!--MD5=[c986427b061286eff33e87a088ad4bf9]
class TrackDataPlotter--><rect fill="#FEFECE" filter="url(#ffv9mqwyddj30)" height="48" id="TrackDataPlotter" style="stroke: #A80036; stroke-width: 1.5;" width="138" x="116" y="237.5"/><ellipse cx="131" cy="253.5" fill="#ADD1B2" rx="11" ry="11" style="stroke: #A80036; stroke-width: 1.0;"/><path d="M133.9688,259.1406 Q133.3906,259.4375 132.75,259.5781 Q132.1094,259.7344 131.4063,259.7344 Q128.9063,259.7344 127.5781,258.0938 Q126.2656,256.4375 126.2656,253.3125 Q126.2656,250.1875 127.5781,248.5313 Q128.9063,246.875 131.4063,246.875 Q132.1094,246.875 132.75,247.0313 Q133.4063,247.1875 133.9688,247.4844 L133.9688,250.2031 Q133.3438,249.625 132.75,249.3594 Q132.1563,249.0781 131.5313,249.0781 Q130.1875,249.0781 129.5,250.1563 Q128.8125,251.2188 128.8125,253.3125 Q128.8125,255.4063 129.5,256.4844 Q130.1875,257.5469 131.5313,257.5469 Q132.1563,257.5469 132.75,257.2813 Q133.3438,257 133.9688,256.4219 L133.9688,259.1406 Z "/><text fill="#000000" font-family="sans-serif" font-size="12" lengthAdjust="spacingAndGlyphs" textLength="106" x="145" y="257.6543">TrackDataPlotter</text><line style="stroke: #A80036; stroke-width: 1.5;" x1="117" x2="253" y1="269.5" y2="269.5"/><line style="stroke: #A80036; stroke-width: 1.5;" x1="117" x2="253" y1="277.5" y2="277.5"/><!--MD5=[77bc37423dd8876786830fad4054e33b]
reverse link DisplayCommInterface to DisplayCommInterfaceImplementation--><path d="M2676,157.73 C2676,170.47 2676,184.01 2676,196.93 " fill="none" id="DisplayCommInterface&lt;-DisplayCommInterfaceImplementation" style="stroke: #A80036; stroke-width: 1.0; stroke-dasharray: 7.0,7.0;"/><polygon fill="none" points="2669,157.27,2676,137.27,2683,157.27,2669,157.27" style="stroke: #A80036; stroke-width: 1.0;"/><!--MD5=[4e991cf787e933c55089f97eae394828]
reverse link DisplayComm2WayInterface to DisplayComm2WayInterfaceImplementation--><path d="M2201.87,154.22 C2213.29,172.29 2225.9,192.26 2237.08,209.97 " fill="none" id="DisplayComm2WayInterface&lt;-DisplayComm2WayInterfaceImplementation" style="stroke: #A80036; stroke-width: 1.0; stroke-dasharray: 7.0,7.0;"/><polygon fill="none" points="2195.93,157.92,2191.17,137.27,2207.77,150.45,2195.93,157.92" style="stroke: #A80036; stroke-width: 1.0;"/><!--MD5=[5beed6c3c7e4a84a4bfaa95bdf8cce79]
reverse link DisplayCommManager to DisplayCommManagerImplementation--><path d="M1783.08,156.48 C1787.16,170.21 1791.54,184.92 1795.67,198.83 " fill="none" id="DisplayCommManager&lt;-DisplayCommManagerImplementation" style="stroke: #A80036; stroke-width: 1.0; stroke-dasharray: 7.0,7.0;"/><polygon fill="none" points="1776.36,158.44,1777.38,137.27,1789.78,154.45,1776.36,158.44" style="stroke: #A80036; stroke-width: 1.0;"/><!--MD5=[9a02b467888c5123255f55ebe5217d7a]
link DisplayCommInterfaceImplementationTests to DisplayComm2WayInterfaceStub--><path d="M1373.72,122.14 C1375.56,146.87 1378.51,186.66 1380.78,217.23 " fill="none" id="DisplayCommInterfaceImplementationTests-&gt;DisplayComm2WayInterfaceStub" style="stroke: #A80036; stroke-width: 1.0; stroke-dasharray: 7.0,7.0;"/><polygon fill="#A80036" points="1381.17,222.44,1384.4903,213.1677,1380.7985,217.4538,1376.5124,213.762,1381.17,222.44" style="stroke: #A80036; stroke-width: 1.0;"/><!--MD5=[69695ace36e753468876c8d4fe5d2708]
link DisplayComm2WayInterfaceImplementationTests to DisplayCommManagerStub--><path d="M1023.73,122.14 C1028.78,146.87 1036.91,186.66 1043.16,217.23 " fill="none" id="DisplayComm2WayInterfaceImplementationTests-&gt;DisplayCommManagerStub" style="stroke: #A80036; stroke-width: 1.0; stroke-dasharray: 7.0,7.0;"/><polygon fill="#A80036" points="1044.22,222.44,1046.3396,212.8219,1043.2202,217.541,1038.5011,214.4216,1044.22,222.44" style="stroke: #A80036; stroke-width: 1.0;"/><!--MD5=[a3caa78d97a9caf08bd2afaaae1510f4]
link DisplayCommManagerImplementationTests to MiddlewareCommInterfaceStub--><path d="M667,122.14 C667,146.87 667,186.66 667,217.23 " fill="none" id="DisplayCommManagerImplementationTests-&gt;MiddlewareCommInterfaceStub" style="stroke: #A80036; stroke-width: 1.0; stroke-dasharray: 7.0,7.0;"/><polygon fill="#A80036" points="667,222.44,671,213.44,667,217.44,663,213.44,667,222.44" style="stroke: #A80036; stroke-width: 1.0;"/><!--MD5=[0cd290e6298e838268680010d5032c0d]
link DisplayCommInterfaceImplementationTests to DisplayCommInterfaceImplementation--><path d="M1474.67,122.04 C1503.15,127.71 1534.17,133.24 1563,137 C1963.96,189.35 2073.71,119.18 2471,194.5 C2475.45,195.34 2479.94,196.26 2484.45,197.23 " fill="none" id="DisplayCommInterfaceImplementationTests-&gt;DisplayCommInterfaceImplementation" style="stroke: #A80036; stroke-width: 1.0; stroke-dasharray: 7.0,7.0;"/><polygon fill="#A80036" points="2489.36,198.3,2481.4257,192.465,2484.4761,197.229,2479.7121,200.2793,2489.36,198.3" style="stroke: #A80036; stroke-width: 1.0;"/><!--MD5=[ce67f838794c14794f693dd46a642b9a]
link DisplayComm2WayInterfaceImplementationTests to DisplayComm2WayInterfaceImplementation--><path d="M1118.43,122.01 C1146.01,127.69 1176.06,133.22 1204,137 C1584.49,188.52 1688.98,121.81 2066,194.5 C2084.95,198.15 2104.6,203.05 2123.87,208.54 " fill="none" id="DisplayComm2WayInterfaceImplementationTests-&gt;DisplayComm2WayInterfaceImplementation" style="stroke: #A80036; stroke-width: 1.0; stroke-dasharray: 7.0,7.0;"/><polygon fill="#A80036" points="2128.76,209.95,2121.2176,203.6166,2123.9551,208.567,2119.0047,211.3045,2128.76,209.95" style="stroke: #A80036; stroke-width: 1.0;"/><!--MD5=[6f3abcadcd809ea193290ea1cf8b820a]
link DisplayCommManagerImplementationTests to DisplayCommManagerImplementation--><path d="M757.56,122.07 C782.22,127.68 809.02,133.16 834,137 C1144.72,184.77 1228.57,144.89 1539,194.5 C1550.45,196.33 1562.14,198.39 1573.91,200.61 " fill="none" id="DisplayCommManagerImplementationTests-&gt;DisplayCommManagerImplementation" style="stroke: #A80036; stroke-width: 1.0; stroke-dasharray: 7.0,7.0;"/><polygon fill="#A80036" points="1578.96,201.57,1570.8592,195.9685,1574.0469,200.6417,1569.3738,203.8294,1578.96,201.57" style="stroke: #A80036; stroke-width: 1.0;"/><!--MD5=[f24e7409bf4fec90fef0ed7e05f90b9b]
link TrackDataPlotterTests to TrackDataPlotter--><path d="M365.77,122.14 C327.07,151.76 260.17,202.96 219.51,234.08 " fill="none" id="TrackDataPlotterTests-&gt;TrackDataPlotter" style="stroke: #A80036; stroke-width: 1.0; stroke-dasharray: 7.0,7.0;"/><polygon fill="#A80036" points="215.18,237.4,224.7529,235.0848,219.1437,234.3521,219.8763,228.7429,215.18,237.4" style="stroke: #A80036; stroke-width: 1.0;"/><!--MD5=[6aaeadb42451b39b4e2cdcf83e2bb4cd]
reverse link DisplayComm2WayInterface to DisplayComm2WayInterfaceStub--><path d="M2021.08,121.71 C1845.91,149.03 1574.11,191.6 1563,194.5 C1534.48,201.94 1504.15,212.18 1476.72,222.38 " fill="none" id="DisplayComm2WayInterface&lt;-DisplayComm2WayInterfaceStub" style="stroke: #A80036; stroke-width: 1.0; stroke-dasharray: 7.0,7.0;"/><polygon fill="none" points="2020.04,114.79,2040.88,118.63,2022.19,128.62,2020.04,114.79" style="stroke: #A80036; stroke-width: 1.0;"/><!--MD5=[e6e0d8b3e0f7bf14f11c0899b3ad37ae]
reverse link DisplayCommManager to DisplayCommManagerStub--><path d="M1608.13,126.36 C1466.4,151.14 1275.34,185.15 1240,194.5 C1210.74,202.24 1179.52,212.4 1151.09,222.42 " fill="none" id="DisplayCommManager&lt;-DisplayCommManagerStub" style="stroke: #A80036; stroke-width: 1.0; stroke-dasharray: 7.0,7.0;"/><polygon fill="none" points="1607.31,119.4,1628.21,122.85,1609.72,133.19,1607.31,119.4" style="stroke: #A80036; stroke-width: 1.0;"/><!--MD5=[fa64a23f68e0c00385a0985523596e70]
@startuml Display02Packages_InternalDependencies


package edu.oakland.production.display02 {
    
}


package edu.oakland.production.display02 {
    interface DisplayCommInterface {
        __
        .. Use Case 1 ..
        {abstract} + TrackData receiveRfidRequest(int rfidNum)
    }
}


package edu.oakland.production.display02 {
    interface DisplayComm2WayInterface {
        __
        .. Use Case 1 ..
        {abstract} + TrackData passRfidRequest(int rfidNum)
    }
}


package edu.oakland.production.display02 {
    interface DisplayCommManager {
        __
        .. Use Case 1 ..
        {abstract} + TrackData evaluateRfidRequest(int rfidNum)
    }
}


package edu.oakland.production.display02 {
    class DisplayCommInterfaceImplementation {
        DisplayComm2WayInterface receiver
        __
        {abstract} + DisplayCommInterface(DisplayComm2WayInterface receiver)
        .. Use Case 1 ..
        {abstract} + TrackData receiveRfidRequest(int rfidNum)
        {abstract} + TrackData passToComm2WayInterface(int rfidNum)

    }
}


DisplayCommInterfaceImplementation .up.|> DisplayCommInterface

package edu.oakland.production.display02 {
    class DisplayComm2WayInterfaceImplementation {
        __
        .. Use Case 1 ..
        {abstract} + TrackData passRfidRequest(int rfidNum)
        {abstract} + void determineUserRequestFormat(int rfidNum)
        {abstract} + void receiveRequestFromDisplayCommInterface(int rfidNum)
    }
}


DisplayComm2WayInterfaceImplementation .up.|> DisplayComm2WayInterface

package edu.oakland.production.display02 {
    class DisplayCommManagerImplementation {
        MiddlewareCommInterface middleware
        __
        {abstract} + DisplayCommManagerImplementation(MiddlewareCommInterface middleware)
        {abstract} + TrackData evaluateRfidRequest(int rfidNum)
        {abstract} + TrackData passRequestToMiddlewareCommInterface(int rfidNum)
        {abstract} + void receiveRequestFromDisplay2WayInterface(int rfidNum)

    }
}


DisplayCommManagerImplementation .up.|> DisplayCommManager








package edu.oakland.test.display02 {
    
}


package edu.oakland.test.display02 {
    class DisplayCommInterfaceImplementationTests {

    }
}



package edu.oakland.test.display02 {
    class DisplayComm2WayInterfaceStub {
        __
        .. Use Case 1 ..
        {abstract} + TrackData passRfidRequest(int rfidNum)
    }
}

DisplayCommInterfaceImplementationTests ..> DisplayComm2WayInterfaceStub

package edu.oakland.test.display02 {
    class DisplayComm2WayInterfaceImplementationTests {

    }
}



package edu.oakland.test.display02 {
    class DisplayCommManagerStub {
        __
        .. Use Case 1 ..
        + TrackData evaluateRfidRequest(int rfidNum)
    }
}

DisplayComm2WayInterfaceImplementationTests ..> DisplayCommManagerStub

package edu.oakland.test.display02 {
    class DisplayCommManagerImplementationTests {

    }
}



package edu.oakland.test.display02 {
    class MiddlewareCommInterfaceStub {
        __
        .. Use Case 1 ..
        + TrackData requestRfid(int rfid)
    }
}

DisplayCommManagerImplementationTests ..> MiddlewareCommInterfaceStub

package edu.oakland.test.display02 {
    class TrackDataPlotterTests {

    }
}


DisplayCommInterfaceImplementationTests ..> DisplayCommInterfaceImplementation
DisplayComm2WayInterfaceImplementationTests ..> DisplayComm2WayInterfaceImplementation
DisplayCommManagerImplementationTests ..> DisplayCommManagerImplementation

package edu.oakland.helper.display02 {
    class TrackDataPlotter {
        
    }
}

TrackDataPlotterTests ..> TrackDataPlotter
DisplayComm2WayInterfaceStub .up.|> DisplayComm2WayInterface
DisplayCommManagerStub .up.|> DisplayCommManager


package edu.oakland.helper.display02 {
    
}




@enduml

PlantUML version 1.2020.02(Sun Mar 01 10:22:07 GMT 2020)
(GPL source distribution)
Java Runtime: OpenJDK Runtime Environment
JVM: OpenJDK 64-Bit Server VM
Java Version: 11.0.9+11-Ubuntu-0ubuntu1
Operating System: Linux
Default Encoding: ANSI_X3.4-1968
Language: en
Country: US
--></g></svg>