<?xml version="1.0" encoding="UTF-8" standalone="no"?><svg xmlns="http://www.w3.org/2000/svg" xmlns:xlink="http://www.w3.org/1999/xlink" contentScriptType="application/ecmascript" contentStyleType="text/css" height="400px" preserveAspectRatio="none" style="width:2793px;height:400px;" version="1.1" viewBox="0 0 2793 400" width="2793px" zoomAndPan="magnify"><defs><filter height="300%" id="f95hxbnizgofc" width="300%" x="-1" y="-1"><feGaussianBlur result="blurOut" stdDeviation="2.0"/><feColorMatrix in="blurOut" result="blurOut2" type="matrix" values="0 0 0 0 0 0 0 0 0 0 0 0 0 0 0 0 0 0 .4 0"/><feOffset dx="4.0" dy="4.0" in="blurOut2" result="blurOut3"/><feBlend in="SourceGraphic" in2="blurOut3" mode="normal"/></filter></defs><g><!--MD5=[fe59aae6f7bfe371a9c197ec1f7f843a]
cluster edu.oakland.production.display02--><polygon fill="#FFFFFF" filter="url(#f95hxbnizgofc)" points="22,38.5,295,38.5,302,60.7969,1158,60.7969,1158,388,22,388,22,38.5" style="stroke: #000000; stroke-width: 1.5;"/><line style="stroke: #000000; stroke-width: 1.5;" x1="22" x2="302" y1="60.7969" y2="60.7969"/><text fill="#000000" font-family="sans-serif" font-size="14" font-weight="bold" lengthAdjust="spacingAndGlyphs" textLength="267" x="26" y="53.4951">edu.oakland.production.display02</text><!--MD5=[9258003ec405d300d3379b4a3d8dd6ad]
cluster edu.oakland.test.display02--><polygon fill="#FFFFFF" filter="url(#f95hxbnizgofc)" points="1182,53.5,1400,53.5,1407,75.7969,2427,75.7969,2427,354,1182,354,1182,53.5" style="stroke: #000000; stroke-width: 1.5;"/><line style="stroke: #000000; stroke-width: 1.5;" x1="1182" x2="1407" y1="75.7969" y2="75.7969"/><text fill="#000000" font-family="sans-serif" font-size="14" font-weight="bold" lengthAdjust="spacingAndGlyphs" textLength="212" x="1186" y="68.4951">edu.oakland.test.display02</text><!--MD5=[33504725b8a69ba2207f0a836957a91c]
cluster edu.oakland.production.middleware02--><polygon fill="#FFFFFF" filter="url(#f95hxbnizgofc)" points="2451,24,2761,24,2768,46.2969,2771,46.2969,2771,182,2451,182,2451,24" style="stroke: #000000; stroke-width: 1.5;"/><line style="stroke: #000000; stroke-width: 1.5;" x1="2451" x2="2768" y1="46.2969" y2="46.2969"/><text fill="#000000" font-family="sans-serif" font-size="14" font-weight="bold" lengthAdjust="spacingAndGlyphs" textLength="304" x="2455" y="38.9951">edu.oakland.production.middleware02</text><!--MD5=[a502031b5a5384de0a21e6ee820fd3b2]
cluster edu.oakland.helper.display02--><polygon fill="#FFFFFF" filter="url(#f95hxbnizgofc)" points="2451,240,2689,240,2696,262.2969,2699,262.2969,2699,339,2451,339,2451,240" style="stroke: #000000; stroke-width: 1.5;"/><line style="stroke: #000000; stroke-width: 1.5;" x1="2451" x2="2696" y1="262.2969" y2="262.2969"/><text fill="#000000" font-family="sans-serif" font-size="14" font-weight="bold" lengthAdjust="spacingAndGlyphs" textLength="232" x="2455" y="254.9951">edu.oakland.helper.display02</text><!--MD5=[c8d1e3134fecb0c949fd2a76cc0bb992]
class DisplayCommInterface--><rect fill="#FEFECE" filter="url(#f95hxbnizgofc)" height="77.6094" id="DisplayCommInterface" style="stroke: #A80036; stroke-width: 1.5;" width="268" x="38" y="73.5"/><ellipse cx="98.25" cy="89.5" fill="#B4A7E5" rx="11" ry="11" style="stroke: #A80036; stroke-width: 1.0;"/><path d="M94.1719,85.2656 L94.1719,83.1094 L101.5625,83.1094 L101.5625,85.2656 L99.0938,85.2656 L99.0938,93.3438 L101.5625,93.3438 L101.5625,95.5 L94.1719,95.5 L94.1719,93.3438 L96.6406,93.3438 L96.6406,85.2656 L94.1719,85.2656 Z "/><text fill="#000000" font-family="sans-serif" font-size="12" font-style="italic" lengthAdjust="spacingAndGlyphs" textLength="139" x="118.75" y="93.6543">DisplayCommInterface</text><line style="stroke: #A80036; stroke-width: 1.5;" x1="39" x2="305" y1="105.5" y2="105.5"/><line style="stroke: #A80036; stroke-width: 1.5;" x1="39" x2="305" y1="113.5" y2="113.5"/><ellipse cx="49" cy="141.3047" fill="#84BE84" rx="3" ry="3" style="stroke: #038048; stroke-width: 1.0;"/><text fill="#000000" font-family="sans-serif" font-size="11" font-style="italic" lengthAdjust="spacingAndGlyphs" textLength="242" x="58" y="144.5151">TrackData receiveRfidRequest(int rfidNum)</text><line style="stroke: #A80036; stroke-width: 1.0; stroke-dasharray: 1.0,2.0;" x1="39" x2="139" y1="127.9023" y2="127.9023"/><text fill="#000000" font-family="sans-serif" font-size="11" lengthAdjust="spacingAndGlyphs" textLength="66" x="139" y="131.2104">Use Case 1</text><line style="stroke: #A80036; stroke-width: 1.0; stroke-dasharray: 1.0,2.0;" x1="205" x2="305" y1="127.9023" y2="127.9023"/><!--MD5=[f6b51b5f862da5ce226c62e411e84628]
class DisplayComm2WayInterface--><rect fill="#FEFECE" filter="url(#f95hxbnizgofc)" height="77.6094" id="DisplayComm2WayInterface" style="stroke: #A80036; stroke-width: 1.5;" width="252" x="474" y="73.5"/><ellipse cx="509.7" cy="89.5" fill="#B4A7E5" rx="11" ry="11" style="stroke: #A80036; stroke-width: 1.0;"/><path d="M505.6219,85.2656 L505.6219,83.1094 L513.0125,83.1094 L513.0125,85.2656 L510.5438,85.2656 L510.5438,93.3438 L513.0125,93.3438 L513.0125,95.5 L505.6219,95.5 L505.6219,93.3438 L508.0906,93.3438 L508.0906,85.2656 L505.6219,85.2656 Z "/><text fill="#000000" font-family="sans-serif" font-size="12" font-style="italic" lengthAdjust="spacingAndGlyphs" textLength="174" x="528.3" y="93.6543">DisplayComm2WayInterface</text><line style="stroke: #A80036; stroke-width: 1.5;" x1="475" x2="725" y1="105.5" y2="105.5"/><line style="stroke: #A80036; stroke-width: 1.5;" x1="475" x2="725" y1="113.5" y2="113.5"/><ellipse cx="485" cy="141.3047" fill="#84BE84" rx="3" ry="3" style="stroke: #038048; stroke-width: 1.0;"/><text fill="#000000" font-family="sans-serif" font-size="11" font-style="italic" lengthAdjust="spacingAndGlyphs" textLength="226" x="494" y="144.5151">TrackData passRfidRequest(int rfidNum)</text><line style="stroke: #A80036; stroke-width: 1.0; stroke-dasharray: 1.0,2.0;" x1="475" x2="567" y1="127.9023" y2="127.9023"/><text fill="#000000" font-family="sans-serif" font-size="11" lengthAdjust="spacingAndGlyphs" textLength="66" x="567" y="131.2104">Use Case 1</text><line style="stroke: #A80036; stroke-width: 1.0; stroke-dasharray: 1.0,2.0;" x1="633" x2="725" y1="127.9023" y2="127.9023"/><!--MD5=[6aeb72f2773d7cabb45309482beeff0a]
class DisplayCommManager--><rect fill="#FEFECE" filter="url(#f95hxbnizgofc)" height="77.6094" id="DisplayCommManager" style="stroke: #A80036; stroke-width: 1.5;" width="275" x="836.5" y="73.5"/><ellipse cx="901.25" cy="89.5" fill="#B4A7E5" rx="11" ry="11" style="stroke: #A80036; stroke-width: 1.0;"/><path d="M897.1719,85.2656 L897.1719,83.1094 L904.5625,83.1094 L904.5625,85.2656 L902.0938,85.2656 L902.0938,93.3438 L904.5625,93.3438 L904.5625,95.5 L897.1719,95.5 L897.1719,93.3438 L899.6406,93.3438 L899.6406,85.2656 L897.1719,85.2656 Z "/><text fill="#000000" font-family="sans-serif" font-size="12" font-style="italic" lengthAdjust="spacingAndGlyphs" textLength="137" x="921.75" y="93.6543">DisplayCommManager</text><line style="stroke: #A80036; stroke-width: 1.5;" x1="837.5" x2="1110.5" y1="105.5" y2="105.5"/><line style="stroke: #A80036; stroke-width: 1.5;" x1="837.5" x2="1110.5" y1="113.5" y2="113.5"/><ellipse cx="847.5" cy="141.3047" fill="#84BE84" rx="3" ry="3" style="stroke: #038048; stroke-width: 1.0;"/><text fill="#000000" font-family="sans-serif" font-size="11" font-style="italic" lengthAdjust="spacingAndGlyphs" textLength="249" x="856.5" y="144.5151">TrackData evaluateRfidRequest(int rfidNum)</text><line style="stroke: #A80036; stroke-width: 1.0; stroke-dasharray: 1.0,2.0;" x1="837.5" x2="941" y1="127.9023" y2="127.9023"/><text fill="#000000" font-family="sans-serif" font-size="11" lengthAdjust="spacingAndGlyphs" textLength="66" x="941" y="131.2104">Use Case 1</text><line style="stroke: #A80036; stroke-width: 1.0; stroke-dasharray: 1.0,2.0;" x1="1007" x2="1110.5" y1="127.9023" y2="127.9023"/><!--MD5=[a35092e604da7274febf4e2cf9a25087]
class DisplayCommInterfaceImplementation--><rect fill="#FEFECE" filter="url(#f95hxbnizgofc)" height="107.2188" id="DisplayCommInterfaceImplementation" style="stroke: #A80036; stroke-width: 1.5;" width="268" x="38" y="245.5"/><ellipse cx="53.45" cy="261.5" fill="#ADD1B2" rx="11" ry="11" style="stroke: #A80036; stroke-width: 1.0;"/><path d="M56.4188,267.1406 Q55.8406,267.4375 55.2,267.5781 Q54.5594,267.7344 53.8563,267.7344 Q51.3563,267.7344 50.0281,266.0938 Q48.7156,264.4375 48.7156,261.3125 Q48.7156,258.1875 50.0281,256.5313 Q51.3563,254.875 53.8563,254.875 Q54.5594,254.875 55.2,255.0313 Q55.8563,255.1875 56.4188,255.4844 L56.4188,258.2031 Q55.7938,257.625 55.2,257.3594 Q54.6063,257.0781 53.9813,257.0781 Q52.6375,257.0781 51.95,258.1563 Q51.2625,259.2188 51.2625,261.3125 Q51.2625,263.4063 51.95,264.4844 Q52.6375,265.5469 53.9813,265.5469 Q54.6063,265.5469 55.2,265.2813 Q55.7938,265 56.4188,264.4219 L56.4188,267.1406 Z "/><text fill="#000000" font-family="sans-serif" font-size="12" lengthAdjust="spacingAndGlyphs" textLength="235" x="67.55" y="265.6543">DisplayCommInterfaceImplementation</text><line style="stroke: #A80036; stroke-width: 1.5;" x1="39" x2="305" y1="277.5" y2="277.5"/><line style="stroke: #A80036; stroke-width: 1.5;" x1="39" x2="305" y1="285.5" y2="285.5"/><ellipse cx="49" cy="313.3047" fill="#84BE84" rx="3" ry="3" style="stroke: #038048; stroke-width: 1.0;"/><text fill="#000000" font-family="sans-serif" font-size="11" font-style="italic" lengthAdjust="spacingAndGlyphs" textLength="242" x="58" y="316.5151">TrackData receiveRfidRequest(int rfidNum)</text><line style="stroke: #A80036; stroke-width: 1.0; stroke-dasharray: 1.0,2.0;" x1="39" x2="139" y1="299.9023" y2="299.9023"/><text fill="#000000" font-family="sans-serif" font-size="11" lengthAdjust="spacingAndGlyphs" textLength="66" x="139" y="303.2104">Use Case 1</text><line style="stroke: #A80036; stroke-width: 1.0; stroke-dasharray: 1.0,2.0;" x1="205" x2="305" y1="299.9023" y2="299.9023"/><text fill="#000000" font-family="sans-serif" font-size="11" lengthAdjust="spacingAndGlyphs" textLength="0" x="48" y="346.1245"/><line style="stroke: #A80036; stroke-width: 1.0; stroke-dasharray: 1.0,2.0;" x1="39" x2="139" y1="329.5117" y2="329.5117"/><text fill="#000000" font-family="sans-serif" font-size="11" lengthAdjust="spacingAndGlyphs" textLength="66" x="139" y="332.8198">Use Case 2</text><line style="stroke: #A80036; stroke-width: 1.0; stroke-dasharray: 1.0,2.0;" x1="205" x2="305" y1="329.5117" y2="329.5117"/><!--MD5=[46657c2900260d4d40350fe3f8c544df]
class DisplayComm2WayInterfaceImplementation--><rect fill="#FEFECE" filter="url(#f95hxbnizgofc)" height="103.2188" id="DisplayComm2WayInterfaceImplementation" style="stroke: #A80036; stroke-width: 1.5;" width="370" x="341" y="247.5"/><ellipse cx="387.75" cy="263.5" fill="#ADD1B2" rx="11" ry="11" style="stroke: #A80036; stroke-width: 1.0;"/><path d="M390.7188,269.1406 Q390.1406,269.4375 389.5,269.5781 Q388.8594,269.7344 388.1563,269.7344 Q385.6563,269.7344 384.3281,268.0938 Q383.0156,266.4375 383.0156,263.3125 Q383.0156,260.1875 384.3281,258.5313 Q385.6563,256.875 388.1563,256.875 Q388.8594,256.875 389.5,257.0313 Q390.1563,257.1875 390.7188,257.4844 L390.7188,260.2031 Q390.0938,259.625 389.5,259.3594 Q388.9063,259.0781 388.2813,259.0781 Q386.9375,259.0781 386.25,260.1563 Q385.5625,261.2188 385.5625,263.3125 Q385.5625,265.4063 386.25,266.4844 Q386.9375,267.5469 388.2813,267.5469 Q388.9063,267.5469 389.5,267.2813 Q390.0938,267 390.7188,266.4219 L390.7188,269.1406 Z "/><text fill="#000000" font-family="sans-serif" font-size="12" lengthAdjust="spacingAndGlyphs" textLength="268" x="408.25" y="267.6543">DisplayComm2WayInterfaceImplementation</text><line style="stroke: #A80036; stroke-width: 1.5;" x1="342" x2="710" y1="279.5" y2="279.5"/><line style="stroke: #A80036; stroke-width: 1.5;" x1="342" x2="710" y1="287.5" y2="287.5"/><ellipse cx="352" cy="315.3047" fill="#84BE84" rx="3" ry="3" style="stroke: #038048; stroke-width: 1.0;"/><text fill="#000000" font-family="sans-serif" font-size="11" font-style="italic" lengthAdjust="spacingAndGlyphs" textLength="226" x="361" y="318.5151">TrackData passRfidRequest(int rfidNum)</text><ellipse cx="352" cy="328.1094" fill="#84BE84" rx="3" ry="3" style="stroke: #038048; stroke-width: 1.0;"/><text fill="#000000" font-family="sans-serif" font-size="11" font-style="italic" lengthAdjust="spacingAndGlyphs" textLength="269" x="361" y="331.3198">void determineUserRequestFormat(int rfidNum)</text><ellipse cx="352" cy="340.9141" fill="#84BE84" rx="3" ry="3" style="stroke: #038048; stroke-width: 1.0;"/><text fill="#000000" font-family="sans-serif" font-size="11" font-style="italic" lengthAdjust="spacingAndGlyphs" textLength="344" x="361" y="344.1245">void receiveRequestFromDisplayCommInterface(int rfidNum)</text><line style="stroke: #A80036; stroke-width: 1.0; stroke-dasharray: 1.0,2.0;" x1="342" x2="493" y1="301.9023" y2="301.9023"/><text fill="#000000" font-family="sans-serif" font-size="11" lengthAdjust="spacingAndGlyphs" textLength="66" x="493" y="305.2104">Use Case 1</text><line style="stroke: #A80036; stroke-width: 1.0; stroke-dasharray: 1.0,2.0;" x1="559" x2="710" y1="301.9023" y2="301.9023"/><!--MD5=[3a27b63ddb357afc5dde5581215f51f9]
class DisplayCommManagerImplementation--><rect fill="#FEFECE" filter="url(#f95hxbnizgofc)" height="145.6328" id="DisplayCommManagerImplementation" style="stroke: #A80036; stroke-width: 1.5;" width="395" x="746.5" y="226"/><ellipse cx="822.75" cy="242" fill="#ADD1B2" rx="11" ry="11" style="stroke: #A80036; stroke-width: 1.0;"/><path d="M825.7188,247.6406 Q825.1406,247.9375 824.5,248.0781 Q823.8594,248.2344 823.1563,248.2344 Q820.6563,248.2344 819.3281,246.5938 Q818.0156,244.9375 818.0156,241.8125 Q818.0156,238.6875 819.3281,237.0313 Q820.6563,235.375 823.1563,235.375 Q823.8594,235.375 824.5,235.5313 Q825.1563,235.6875 825.7188,235.9844 L825.7188,238.7031 Q825.0938,238.125 824.5,237.8594 Q823.9063,237.5781 823.2813,237.5781 Q821.9375,237.5781 821.25,238.6563 Q820.5625,239.7188 820.5625,241.8125 Q820.5625,243.9063 821.25,244.9844 Q821.9375,246.0469 823.2813,246.0469 Q823.9063,246.0469 824.5,245.7813 Q825.0938,245.5 825.7188,244.9219 L825.7188,247.6406 Z "/><text fill="#000000" font-family="sans-serif" font-size="12" lengthAdjust="spacingAndGlyphs" textLength="234" x="843.25" y="246.1543">DisplayCommManagerImplementation</text><line style="stroke: #A80036; stroke-width: 1.5;" x1="747.5" x2="1140.5" y1="258" y2="258"/><line style="stroke: #A80036; stroke-width: 1.5;" x1="747.5" x2="1140.5" y1="266" y2="266"/><ellipse cx="757.5" cy="293.8047" fill="#84BE84" rx="3" ry="3" style="stroke: #038048; stroke-width: 1.0;"/><text fill="#000000" font-family="sans-serif" font-size="11" font-style="italic" lengthAdjust="spacingAndGlyphs" textLength="249" x="766.5" y="297.0151">TrackData evaluateRfidRequest(int rfidNum)</text><ellipse cx="757.5" cy="306.6094" fill="#84BE84" rx="3" ry="3" style="stroke: #038048; stroke-width: 1.0;"/><text fill="#000000" font-family="sans-serif" font-size="11" font-style="italic" lengthAdjust="spacingAndGlyphs" textLength="369" x="766.5" y="309.8198">TrackData passRequestToMiddlewareCommInterface(int rfidNum)</text><ellipse cx="757.5" cy="319.4141" fill="#84BE84" rx="3" ry="3" style="stroke: #038048; stroke-width: 1.0;"/><text fill="#000000" font-family="sans-serif" font-size="11" font-style="italic" lengthAdjust="spacingAndGlyphs" textLength="339" x="766.5" y="322.6245">void receiveRequestFromDisplay2WayInterface(int rfidNum)</text><text fill="#000000" font-family="sans-serif" font-size="11" lengthAdjust="spacingAndGlyphs" textLength="0" x="770.5" y="335.4292"/><line style="stroke: #A80036; stroke-width: 1.0; stroke-dasharray: 1.0,2.0;" x1="747.5" x2="911" y1="280.4023" y2="280.4023"/><text fill="#000000" font-family="sans-serif" font-size="11" lengthAdjust="spacingAndGlyphs" textLength="66" x="911" y="283.7104">Use Case 1</text><line style="stroke: #A80036; stroke-width: 1.0; stroke-dasharray: 1.0,2.0;" x1="977" x2="1140.5" y1="280.4023" y2="280.4023"/><text fill="#000000" font-family="sans-serif" font-size="11" lengthAdjust="spacingAndGlyphs" textLength="0" x="756.5" y="365.0386"/><line style="stroke: #A80036; stroke-width: 1.0; stroke-dasharray: 1.0,2.0;" x1="747.5" x2="911" y1="348.4258" y2="348.4258"/><text fill="#000000" font-family="sans-serif" font-size="11" lengthAdjust="spacingAndGlyphs" textLength="66" x="911" y="351.7339">Use Case 2</text><line style="stroke: #A80036; stroke-width: 1.0; stroke-dasharray: 1.0,2.0;" x1="977" x2="1140.5" y1="348.4258" y2="348.4258"/><!--MD5=[d454b7777f115113290d89683d7a426c]
class DisplayCommInterfaceImplementationTests--><rect fill="#FEFECE" filter="url(#f95hxbnizgofc)" height="48" id="DisplayCommInterfaceImplementationTests" style="stroke: #A80036; stroke-width: 1.5;" width="301" x="1198.5" y="88.5"/><ellipse cx="1213.5" cy="104.5" fill="#ADD1B2" rx="11" ry="11" style="stroke: #A80036; stroke-width: 1.0;"/><path d="M1216.4688,110.1406 Q1215.8906,110.4375 1215.25,110.5781 Q1214.6094,110.7344 1213.9063,110.7344 Q1211.4063,110.7344 1210.0781,109.0938 Q1208.7656,107.4375 1208.7656,104.3125 Q1208.7656,101.1875 1210.0781,99.5313 Q1211.4063,97.875 1213.9063,97.875 Q1214.6094,97.875 1215.25,98.0313 Q1215.9063,98.1875 1216.4688,98.4844 L1216.4688,101.2031 Q1215.8438,100.625 1215.25,100.3594 Q1214.6563,100.0781 1214.0313,100.0781 Q1212.6875,100.0781 1212,101.1563 Q1211.3125,102.2188 1211.3125,104.3125 Q1211.3125,106.4063 1212,107.4844 Q1212.6875,108.5469 1214.0313,108.5469 Q1214.6563,108.5469 1215.25,108.2813 Q1215.8438,108 1216.4688,107.4219 L1216.4688,110.1406 Z "/><text fill="#000000" font-family="sans-serif" font-size="12" lengthAdjust="spacingAndGlyphs" textLength="269" x="1227.5" y="108.6543">DisplayCommInterfaceImplementationTests</text><line style="stroke: #A80036; stroke-width: 1.5;" x1="1199.5" x2="1498.5" y1="120.5" y2="120.5"/><line style="stroke: #A80036; stroke-width: 1.5;" x1="1199.5" x2="1498.5" y1="128.5" y2="128.5"/><!--MD5=[a333ac13e0fdf2a5898aafabd38d3c1b]
class DisplayComm2WayInterfaceStub--><rect fill="#FEFECE" filter="url(#f95hxbnizgofc)" height="77.6094" id="DisplayComm2WayInterfaceStub" style="stroke: #A80036; stroke-width: 1.5;" width="252" x="1211" y="260"/><ellipse cx="1235" cy="276" fill="#ADD1B2" rx="11" ry="11" style="stroke: #A80036; stroke-width: 1.0;"/><path d="M1237.9688,281.6406 Q1237.3906,281.9375 1236.75,282.0781 Q1236.1094,282.2344 1235.4063,282.2344 Q1232.9063,282.2344 1231.5781,280.5938 Q1230.2656,278.9375 1230.2656,275.8125 Q1230.2656,272.6875 1231.5781,271.0313 Q1232.9063,269.375 1235.4063,269.375 Q1236.1094,269.375 1236.75,269.5313 Q1237.4063,269.6875 1237.9688,269.9844 L1237.9688,272.7031 Q1237.3438,272.125 1236.75,271.8594 Q1236.1563,271.5781 1235.5313,271.5781 Q1234.1875,271.5781 1233.5,272.6563 Q1232.8125,273.7188 1232.8125,275.8125 Q1232.8125,277.9063 1233.5,278.9844 Q1234.1875,280.0469 1235.5313,280.0469 Q1236.1563,280.0469 1236.75,279.7813 Q1237.3438,279.5 1237.9688,278.9219 L1237.9688,281.6406 Z "/><text fill="#000000" font-family="sans-serif" font-size="12" lengthAdjust="spacingAndGlyphs" textLength="200" x="1251" y="280.1543">DisplayComm2WayInterfaceStub</text><line style="stroke: #A80036; stroke-width: 1.5;" x1="1212" x2="1462" y1="292" y2="292"/><line style="stroke: #A80036; stroke-width: 1.5;" x1="1212" x2="1462" y1="300" y2="300"/><ellipse cx="1222" cy="327.8047" fill="#84BE84" rx="3" ry="3" style="stroke: #038048; stroke-width: 1.0;"/><text fill="#000000" font-family="sans-serif" font-size="11" font-style="italic" lengthAdjust="spacingAndGlyphs" textLength="226" x="1231" y="331.0151">TrackData passRfidRequest(int rfidNum)</text><line style="stroke: #A80036; stroke-width: 1.0; stroke-dasharray: 1.0,2.0;" x1="1212" x2="1304" y1="314.4023" y2="314.4023"/><text fill="#000000" font-family="sans-serif" font-size="11" lengthAdjust="spacingAndGlyphs" textLength="66" x="1304" y="317.7104">Use Case 1</text><line style="stroke: #A80036; stroke-width: 1.0; stroke-dasharray: 1.0,2.0;" x1="1370" x2="1462" y1="314.4023" y2="314.4023"/><!--MD5=[178181f4c7684560c711246055fc01d3]
class DisplayComm2WayInterfaceImplementationTests--><rect fill="#FEFECE" filter="url(#f95hxbnizgofc)" height="48" id="DisplayComm2WayInterfaceImplementationTests" style="stroke: #A80036; stroke-width: 1.5;" width="334" x="1535" y="88.5"/><ellipse cx="1550" cy="104.5" fill="#ADD1B2" rx="11" ry="11" style="stroke: #A80036; stroke-width: 1.0;"/><path d="M1552.9688,110.1406 Q1552.3906,110.4375 1551.75,110.5781 Q1551.1094,110.7344 1550.4063,110.7344 Q1547.9063,110.7344 1546.5781,109.0938 Q1545.2656,107.4375 1545.2656,104.3125 Q1545.2656,101.1875 1546.5781,99.5313 Q1547.9063,97.875 1550.4063,97.875 Q1551.1094,97.875 1551.75,98.0313 Q1552.4063,98.1875 1552.9688,98.4844 L1552.9688,101.2031 Q1552.3438,100.625 1551.75,100.3594 Q1551.1563,100.0781 1550.5313,100.0781 Q1549.1875,100.0781 1548.5,101.1563 Q1547.8125,102.2188 1547.8125,104.3125 Q1547.8125,106.4063 1548.5,107.4844 Q1549.1875,108.5469 1550.5313,108.5469 Q1551.1563,108.5469 1551.75,108.2813 Q1552.3438,108 1552.9688,107.4219 L1552.9688,110.1406 Z "/><text fill="#000000" font-family="sans-serif" font-size="12" lengthAdjust="spacingAndGlyphs" textLength="302" x="1564" y="108.6543">DisplayComm2WayInterfaceImplementationTests</text><line style="stroke: #A80036; stroke-width: 1.5;" x1="1536" x2="1868" y1="120.5" y2="120.5"/><line style="stroke: #A80036; stroke-width: 1.5;" x1="1536" x2="1868" y1="128.5" y2="128.5"/><!--MD5=[2970358178d6cf57fc5a801b39eb8d0b]
class DisplayCommManagerStub--><rect fill="#FEFECE" filter="url(#f95hxbnizgofc)" height="77.6094" id="DisplayCommManagerStub" style="stroke: #A80036; stroke-width: 1.5;" width="273" x="1532.5" y="260"/><ellipse cx="1581.75" cy="276" fill="#ADD1B2" rx="11" ry="11" style="stroke: #A80036; stroke-width: 1.0;"/><path d="M1584.7188,281.6406 Q1584.1406,281.9375 1583.5,282.0781 Q1582.8594,282.2344 1582.1563,282.2344 Q1579.6563,282.2344 1578.3281,280.5938 Q1577.0156,278.9375 1577.0156,275.8125 Q1577.0156,272.6875 1578.3281,271.0313 Q1579.6563,269.375 1582.1563,269.375 Q1582.8594,269.375 1583.5,269.5313 Q1584.1563,269.6875 1584.7188,269.9844 L1584.7188,272.7031 Q1584.0938,272.125 1583.5,271.8594 Q1582.9063,271.5781 1582.2813,271.5781 Q1580.9375,271.5781 1580.25,272.6563 Q1579.5625,273.7188 1579.5625,275.8125 Q1579.5625,277.9063 1580.25,278.9844 Q1580.9375,280.0469 1582.2813,280.0469 Q1582.9063,280.0469 1583.5,279.7813 Q1584.0938,279.5 1584.7188,278.9219 L1584.7188,281.6406 Z "/><text fill="#000000" font-family="sans-serif" font-size="12" lengthAdjust="spacingAndGlyphs" textLength="166" x="1602.25" y="280.1543">DisplayCommManagerStub</text><line style="stroke: #A80036; stroke-width: 1.5;" x1="1533.5" x2="1804.5" y1="292" y2="292"/><line style="stroke: #A80036; stroke-width: 1.5;" x1="1533.5" x2="1804.5" y1="300" y2="300"/><ellipse cx="1543.5" cy="327.8047" fill="#84BE84" rx="3" ry="3" style="stroke: #038048; stroke-width: 1.0;"/><text fill="#000000" font-family="sans-serif" font-size="11" lengthAdjust="spacingAndGlyphs" textLength="247" x="1552.5" y="331.0151">TrackData evaluateRfidRequest(int rfidNum)</text><line style="stroke: #A80036; stroke-width: 1.0; stroke-dasharray: 1.0,2.0;" x1="1533.5" x2="1636" y1="314.4023" y2="314.4023"/><text fill="#000000" font-family="sans-serif" font-size="11" lengthAdjust="spacingAndGlyphs" textLength="66" x="1636" y="317.7104">Use Case 1</text><line style="stroke: #A80036; stroke-width: 1.0; stroke-dasharray: 1.0,2.0;" x1="1702" x2="1804.5" y1="314.4023" y2="314.4023"/><!--MD5=[937d6d8ff87a99d0d5dcd66ee05a1fa4]
class DisplayCommManagerImplementationTests--><rect fill="#FEFECE" filter="url(#f95hxbnizgofc)" height="48" id="DisplayCommManagerImplementationTests" style="stroke: #A80036; stroke-width: 1.5;" width="300" x="1904" y="88.5"/><ellipse cx="1919" cy="104.5" fill="#ADD1B2" rx="11" ry="11" style="stroke: #A80036; stroke-width: 1.0;"/><path d="M1921.9688,110.1406 Q1921.3906,110.4375 1920.75,110.5781 Q1920.1094,110.7344 1919.4063,110.7344 Q1916.9063,110.7344 1915.5781,109.0938 Q1914.2656,107.4375 1914.2656,104.3125 Q1914.2656,101.1875 1915.5781,99.5313 Q1916.9063,97.875 1919.4063,97.875 Q1920.1094,97.875 1920.75,98.0313 Q1921.4063,98.1875 1921.9688,98.4844 L1921.9688,101.2031 Q1921.3438,100.625 1920.75,100.3594 Q1920.1563,100.0781 1919.5313,100.0781 Q1918.1875,100.0781 1917.5,101.1563 Q1916.8125,102.2188 1916.8125,104.3125 Q1916.8125,106.4063 1917.5,107.4844 Q1918.1875,108.5469 1919.5313,108.5469 Q1920.1563,108.5469 1920.75,108.2813 Q1921.3438,108 1921.9688,107.4219 L1921.9688,110.1406 Z "/><text fill="#000000" font-family="sans-serif" font-size="12" lengthAdjust="spacingAndGlyphs" textLength="268" x="1933" y="108.6543">DisplayCommManagerImplementationTests</text><line style="stroke: #A80036; stroke-width: 1.5;" x1="1905" x2="2203" y1="120.5" y2="120.5"/><line style="stroke: #A80036; stroke-width: 1.5;" x1="1905" x2="2203" y1="128.5" y2="128.5"/><!--MD5=[cf56a65163663c6c6c7b84cd7c204b97]
class MiddlewareCommInterfaceStub--><rect fill="#FEFECE" filter="url(#f95hxbnizgofc)" height="77.6094" id="MiddlewareCommInterfaceStub" style="stroke: #A80036; stroke-width: 1.5;" width="225" x="2063.5" y="260"/><ellipse cx="2078.5" cy="276" fill="#ADD1B2" rx="11" ry="11" style="stroke: #A80036; stroke-width: 1.0;"/><path d="M2081.4688,281.6406 Q2080.8906,281.9375 2080.25,282.0781 Q2079.6094,282.2344 2078.9063,282.2344 Q2076.4063,282.2344 2075.0781,280.5938 Q2073.7656,278.9375 2073.7656,275.8125 Q2073.7656,272.6875 2075.0781,271.0313 Q2076.4063,269.375 2078.9063,269.375 Q2079.6094,269.375 2080.25,269.5313 Q2080.9063,269.6875 2081.4688,269.9844 L2081.4688,272.7031 Q2080.8438,272.125 2080.25,271.8594 Q2079.6563,271.5781 2079.0313,271.5781 Q2077.6875,271.5781 2077,272.6563 Q2076.3125,273.7188 2076.3125,275.8125 Q2076.3125,277.9063 2077,278.9844 Q2077.6875,280.0469 2079.0313,280.0469 Q2079.6563,280.0469 2080.25,279.7813 Q2080.8438,279.5 2081.4688,278.9219 L2081.4688,281.6406 Z "/><text fill="#000000" font-family="sans-serif" font-size="12" lengthAdjust="spacingAndGlyphs" textLength="193" x="2092.5" y="280.1543">MiddlewareCommInterfaceStub</text><line style="stroke: #A80036; stroke-width: 1.5;" x1="2064.5" x2="2287.5" y1="292" y2="292"/><line style="stroke: #A80036; stroke-width: 1.5;" x1="2064.5" x2="2287.5" y1="300" y2="300"/><ellipse cx="2074.5" cy="327.8047" fill="#84BE84" rx="3" ry="3" style="stroke: #038048; stroke-width: 1.0;"/><text fill="#000000" font-family="sans-serif" font-size="11" lengthAdjust="spacingAndGlyphs" textLength="171" x="2083.5" y="331.0151">TrackData requestRfid(int rfid)</text><line style="stroke: #A80036; stroke-width: 1.0; stroke-dasharray: 1.0,2.0;" x1="2064.5" x2="2143" y1="314.4023" y2="314.4023"/><text fill="#000000" font-family="sans-serif" font-size="11" lengthAdjust="spacingAndGlyphs" textLength="66" x="2143" y="317.7104">Use Case 1</text><line style="stroke: #A80036; stroke-width: 1.0; stroke-dasharray: 1.0,2.0;" x1="2209" x2="2287.5" y1="314.4023" y2="314.4023"/><!--MD5=[930c8140e7c1cb8e71aa7cd49967748e]
class TrackDataPlotterTests--><rect fill="#FEFECE" filter="url(#f95hxbnizgofc)" height="48" id="TrackDataPlotterTests" style="stroke: #A80036; stroke-width: 1.5;" width="172" x="2239" y="88.5"/><ellipse cx="2254" cy="104.5" fill="#ADD1B2" rx="11" ry="11" style="stroke: #A80036; stroke-width: 1.0;"/><path d="M2256.9688,110.1406 Q2256.3906,110.4375 2255.75,110.5781 Q2255.1094,110.7344 2254.4063,110.7344 Q2251.9063,110.7344 2250.5781,109.0938 Q2249.2656,107.4375 2249.2656,104.3125 Q2249.2656,101.1875 2250.5781,99.5313 Q2251.9063,97.875 2254.4063,97.875 Q2255.1094,97.875 2255.75,98.0313 Q2256.4063,98.1875 2256.9688,98.4844 L2256.9688,101.2031 Q2256.3438,100.625 2255.75,100.3594 Q2255.1563,100.0781 2254.5313,100.0781 Q2253.1875,100.0781 2252.5,101.1563 Q2251.8125,102.2188 2251.8125,104.3125 Q2251.8125,106.4063 2252.5,107.4844 Q2253.1875,108.5469 2254.5313,108.5469 Q2255.1563,108.5469 2255.75,108.2813 Q2256.3438,108 2256.9688,107.4219 L2256.9688,110.1406 Z "/><text fill="#000000" font-family="sans-serif" font-size="12" lengthAdjust="spacingAndGlyphs" textLength="140" x="2268" y="108.6543">TrackDataPlotterTests</text><line style="stroke: #A80036; stroke-width: 1.5;" x1="2240" x2="2410" y1="120.5" y2="120.5"/><line style="stroke: #A80036; stroke-width: 1.5;" x1="2240" x2="2410" y1="128.5" y2="128.5"/><!--MD5=[d3cb230b9040bd9072bb1f490e167601]
class MiddlewareCommInterface--><rect fill="#FEFECE" filter="url(#f95hxbnizgofc)" height="107.2188" id="MiddlewareCommInterface" style="stroke: #A80036; stroke-width: 1.5;" width="198" x="2467" y="59"/><ellipse cx="2482" cy="75" fill="#B4A7E5" rx="11" ry="11" style="stroke: #A80036; stroke-width: 1.0;"/><path d="M2477.9219,70.7656 L2477.9219,68.6094 L2485.3125,68.6094 L2485.3125,70.7656 L2482.8438,70.7656 L2482.8438,78.8438 L2485.3125,78.8438 L2485.3125,81 L2477.9219,81 L2477.9219,78.8438 L2480.3906,78.8438 L2480.3906,70.7656 L2477.9219,70.7656 Z "/><text fill="#000000" font-family="sans-serif" font-size="12" font-style="italic" lengthAdjust="spacingAndGlyphs" textLength="166" x="2496" y="79.1543">MiddlewareCommInterface</text><line style="stroke: #A80036; stroke-width: 1.5;" x1="2468" x2="2664" y1="91" y2="91"/><line style="stroke: #A80036; stroke-width: 1.5;" x1="2468" x2="2664" y1="99" y2="99"/><ellipse cx="2478" cy="126.8047" fill="#84BE84" rx="3" ry="3" style="stroke: #038048; stroke-width: 1.0;"/><text fill="#000000" font-family="sans-serif" font-size="11" font-style="italic" lengthAdjust="spacingAndGlyphs" textLength="171" x="2487" y="130.0151">TrackData requestRfid(int rfid)</text><line style="stroke: #A80036; stroke-width: 1.0; stroke-dasharray: 1.0,2.0;" x1="2468" x2="2533" y1="113.4023" y2="113.4023"/><text fill="#000000" font-family="sans-serif" font-size="11" lengthAdjust="spacingAndGlyphs" textLength="66" x="2533" y="116.7104">Use Case 1</text><line style="stroke: #A80036; stroke-width: 1.0; stroke-dasharray: 1.0,2.0;" x1="2599" x2="2664" y1="113.4023" y2="113.4023"/><text fill="#000000" font-family="sans-serif" font-size="11" lengthAdjust="spacingAndGlyphs" textLength="0" x="2477" y="159.6245"/><line style="stroke: #A80036; stroke-width: 1.0; stroke-dasharray: 1.0,2.0;" x1="2468" x2="2533" y1="143.0117" y2="143.0117"/><text fill="#000000" font-family="sans-serif" font-size="11" lengthAdjust="spacingAndGlyphs" textLength="66" x="2533" y="146.3198">Use Case 2</text><line style="stroke: #A80036; stroke-width: 1.0; stroke-dasharray: 1.0,2.0;" x1="2599" x2="2664" y1="143.0117" y2="143.0117"/><!--MD5=[c986427b061286eff33e87a088ad4bf9]
class TrackDataPlotter--><rect fill="#FEFECE" filter="url(#f95hxbnizgofc)" height="48" id="TrackDataPlotter" style="stroke: #A80036; stroke-width: 1.5;" width="138" x="2467" y="275"/><ellipse cx="2482" cy="291" fill="#ADD1B2" rx="11" ry="11" style="stroke: #A80036; stroke-width: 1.0;"/><path d="M2484.9688,296.6406 Q2484.3906,296.9375 2483.75,297.0781 Q2483.1094,297.2344 2482.4063,297.2344 Q2479.9063,297.2344 2478.5781,295.5938 Q2477.2656,293.9375 2477.2656,290.8125 Q2477.2656,287.6875 2478.5781,286.0313 Q2479.9063,284.375 2482.4063,284.375 Q2483.1094,284.375 2483.75,284.5313 Q2484.4063,284.6875 2484.9688,284.9844 L2484.9688,287.7031 Q2484.3438,287.125 2483.75,286.8594 Q2483.1563,286.5781 2482.5313,286.5781 Q2481.1875,286.5781 2480.5,287.6563 Q2479.8125,288.7188 2479.8125,290.8125 Q2479.8125,292.9063 2480.5,293.9844 Q2481.1875,295.0469 2482.5313,295.0469 Q2483.1563,295.0469 2483.75,294.7813 Q2484.3438,294.5 2484.9688,293.9219 L2484.9688,296.6406 Z "/><text fill="#000000" font-family="sans-serif" font-size="12" lengthAdjust="spacingAndGlyphs" textLength="106" x="2496" y="295.1543">TrackDataPlotter</text><line style="stroke: #A80036; stroke-width: 1.5;" x1="2468" x2="2604" y1="307" y2="307"/><line style="stroke: #A80036; stroke-width: 1.5;" x1="2468" x2="2604" y1="315" y2="315"/><!--MD5=[77bc37423dd8876786830fad4054e33b]
reverse link DisplayCommInterface to DisplayCommInterfaceImplementation--><path d="M172,171.82 C172,195.43 172,222.49 172,245.48 " fill="none" id="DisplayCommInterface&lt;-DisplayCommInterfaceImplementation" style="stroke: #A80036; stroke-width: 1.0; stroke-dasharray: 7.0,7.0;"/><polygon fill="none" points="165,171.73,172,151.73,179,171.73,165,171.73" style="stroke: #A80036; stroke-width: 1.0;"/><!--MD5=[4e991cf787e933c55089f97eae394828]
reverse link DisplayComm2WayInterface to DisplayComm2WayInterfaceImplementation--><path d="M577.18,170.4 C567.34,194.94 555.92,223.4 546.37,247.21 " fill="none" id="DisplayComm2WayInterface&lt;-DisplayComm2WayInterfaceImplementation" style="stroke: #A80036; stroke-width: 1.0; stroke-dasharray: 7.0,7.0;"/><polygon fill="none" points="570.73,167.69,584.67,151.73,583.72,172.9,570.73,167.69" style="stroke: #A80036; stroke-width: 1.0;"/><!--MD5=[5beed6c3c7e4a84a4bfaa95bdf8cce79]
reverse link DisplayCommManager to DisplayCommManagerImplementation--><path d="M964.55,171.62 C961.75,188.84 958.65,207.9 955.73,225.89 " fill="none" id="DisplayCommManager&lt;-DisplayCommManagerImplementation" style="stroke: #A80036; stroke-width: 1.0; stroke-dasharray: 7.0,7.0;"/><polygon fill="none" points="957.66,170.35,967.78,151.73,971.48,172.59,957.66,170.35" style="stroke: #A80036; stroke-width: 1.0;"/><!--MD5=[6aaeadb42451b39b4e2cdcf83e2bb4cd]
reverse link DisplayComm2WayInterface to DisplayComm2WayInterfaceStub--><path d="M712.61,158.4 C746.36,170.33 783.77,182.09 819,190 C966.83,223.2 1010.98,189.38 1158,226 C1190.99,234.22 1225.96,247.24 1256.15,259.96 " fill="none" id="DisplayComm2WayInterface&lt;-DisplayComm2WayInterfaceStub" style="stroke: #A80036; stroke-width: 1.0; stroke-dasharray: 7.0,7.0;"/><polygon fill="none" points="710.17,164.96,693.74,151.58,714.93,151.8,710.17,164.96" style="stroke: #A80036; stroke-width: 1.0;"/><!--MD5=[9a02b467888c5123255f55ebe5217d7a]
link DisplayCommInterfaceImplementationTests to DisplayComm2WayInterfaceStub--><path d="M1347.48,136.87 C1345.56,166.35 1342.23,217.64 1339.83,254.44 " fill="none" id="DisplayCommInterfaceImplementationTests-&gt;DisplayComm2WayInterfaceStub" style="stroke: #A80036; stroke-width: 1.0; stroke-dasharray: 7.0,7.0;"/><polygon fill="#A80036" points="1339.49,259.76,1344.0483,251.0295,1339.8046,254.7699,1336.0641,250.5262,1339.49,259.76" style="stroke: #A80036; stroke-width: 1.0;"/><!--MD5=[0cd290e6298e838268680010d5032c0d]
link DisplayCommInterfaceImplementationTests to DisplayCommInterfaceImplementation--><path d="M1304.06,136.55 C1266.2,154.72 1210.03,178.8 1158,190 C795.3,268.08 684.13,136.82 324,226 C307.03,230.2 289.68,236.38 273.07,243.37 " fill="none" id="DisplayCommInterfaceImplementationTests-&gt;DisplayCommInterfaceImplementation" style="stroke: #A80036; stroke-width: 1.0; stroke-dasharray: 7.0,7.0;"/><polygon fill="#A80036" points="268.4,245.37,278.2476,245.5272,273.0009,243.4125,275.1156,238.1658,268.4,245.37" style="stroke: #A80036; stroke-width: 1.0;"/><!--MD5=[e6e0d8b3e0f7bf14f11c0899b3ad37ae]
reverse link DisplayCommManager to DisplayCommManagerStub--><path d="M1082.2,158.7 C1113.9,170.46 1148.93,182.04 1182,190 C1312.13,221.31 1351.08,193.82 1481,226 C1515.1,234.44 1551.39,247.36 1582.91,259.92 " fill="none" id="DisplayCommManager&lt;-DisplayCommManagerStub" style="stroke: #A80036; stroke-width: 1.0; stroke-dasharray: 7.0,7.0;"/><polygon fill="none" points="1079.67,165.23,1063.45,151.59,1084.63,152.14,1079.67,165.23" style="stroke: #A80036; stroke-width: 1.0;"/><!--MD5=[69695ace36e753468876c8d4fe5d2708]
link DisplayComm2WayInterfaceImplementationTests to DisplayCommManagerStub--><path d="M1697.82,136.87 C1692.55,166.35 1683.37,217.64 1676.79,254.44 " fill="none" id="DisplayComm2WayInterfaceImplementationTests-&gt;DisplayCommManagerStub" style="stroke: #A80036; stroke-width: 1.0; stroke-dasharray: 7.0,7.0;"/><polygon fill="#A80036" points="1675.84,259.76,1681.3729,251.6122,1676.7269,254.8393,1673.4998,250.1932,1675.84,259.76" style="stroke: #A80036; stroke-width: 1.0;"/><!--MD5=[ce67f838794c14794f693dd46a642b9a]
link DisplayComm2WayInterfaceImplementationTests to DisplayComm2WayInterfaceImplementation--><path d="M1658.55,136.53 C1621.93,154.69 1567.55,178.76 1517,190 C1174.78,266.12 1073.06,158.67 729,226 C704.66,230.76 679.3,237.89 655.09,245.84 " fill="none" id="DisplayComm2WayInterfaceImplementationTests-&gt;DisplayComm2WayInterfaceImplementation" style="stroke: #A80036; stroke-width: 1.0; stroke-dasharray: 7.0,7.0;"/><polygon fill="#A80036" points="650.27,247.44,660.0713,248.4064,655.0163,245.8674,657.5552,240.8124,650.27,247.44" style="stroke: #A80036; stroke-width: 1.0;"/><!--MD5=[72cb9e2c0df516d67fcc7a3605b88acd]
reverse link MiddlewareCommInterface to MiddlewareCommInterfaceStub--><path d="M2455.47,175.58 C2445.9,180.58 2436.32,185.45 2427,190 C2375.96,214.95 2317.75,240.19 2270.25,259.99 " fill="none" id="MiddlewareCommInterface&lt;-MiddlewareCommInterfaceStub" style="stroke: #A80036; stroke-width: 1.0; stroke-dasharray: 7.0,7.0;"/><polygon fill="none" points="2452.24,169.37,2473.19,166.19,2458.79,181.74,2452.24,169.37" style="stroke: #A80036; stroke-width: 1.0;"/><!--MD5=[a3caa78d97a9caf08bd2afaaae1510f4]
link DisplayCommManagerImplementationTests to MiddlewareCommInterfaceStub--><path d="M2069.45,136.87 C2089.11,166.59 2123.42,218.48 2147.79,255.34 " fill="none" id="DisplayCommManagerImplementationTests-&gt;MiddlewareCommInterfaceStub" style="stroke: #A80036; stroke-width: 1.0; stroke-dasharray: 7.0,7.0;"/><polygon fill="#A80036" points="2150.71,259.76,2149.0844,250.0462,2147.953,255.5888,2142.4104,254.4574,2150.71,259.76" style="stroke: #A80036; stroke-width: 1.0;"/><!--MD5=[6f3abcadcd809ea193290ea1cf8b820a]
link DisplayCommManagerImplementationTests to DisplayCommManagerImplementation--><path d="M2014.72,136.68 C1981.82,154.79 1933,178.73 1887,190 C1582.27,264.66 1491.09,172.18 1182,226 C1170.46,228.01 1158.7,230.4 1146.89,233.07 " fill="none" id="DisplayCommManagerImplementationTests-&gt;DisplayCommManagerImplementation" style="stroke: #A80036; stroke-width: 1.0; stroke-dasharray: 7.0,7.0;"/><polygon fill="#A80036" points="1141.82,234.23,1151.4906,236.0955,1146.691,233.1015,1149.685,228.302,1141.82,234.23" style="stroke: #A80036; stroke-width: 1.0;"/><!--MD5=[f24e7409bf4fec90fef0ed7e05f90b9b]
link TrackDataPlotterTests to TrackDataPlotter--><path d="M2351.72,136.87 C2391.04,171.25 2464.28,235.28 2505.6,271.42 " fill="none" id="TrackDataPlotterTests-&gt;TrackDataPlotter" style="stroke: #A80036; stroke-width: 1.0; stroke-dasharray: 7.0,7.0;"/><polygon fill="#A80036" points="2509.49,274.82,2505.3316,265.8921,2505.72,271.5356,2500.0765,271.924,2509.49,274.82" style="stroke: #A80036; stroke-width: 1.0;"/><!--MD5=[6d19ac751123a4052150336e7feced3f]
@startuml Display02Packages_Closure


package edu.oakland.production.display02 {
    
}



package edu.oakland.production.display02 {
    interface DisplayCommInterface {
        __
        .. Use Case 1 ..
        {abstract} + TrackData receiveRfidRequest(int rfidNum)
    }
}








package edu.oakland.production.display02 {
    interface DisplayComm2WayInterface {
        __
        .. Use Case 1 ..
        {abstract} + TrackData passRfidRequest(int rfidNum)
    }
}








package edu.oakland.production.display02 {
    interface DisplayCommManager {
        __
        .. Use Case 1 ..
        {abstract} + TrackData evaluateRfidRequest(int rfidNum)
    }
}








package edu.oakland.production.display02 {
    class DisplayCommInterfaceImplementation {
        __
        .. Use Case 1 ..
        {abstract} + TrackData receiveRfidRequest(int rfidNum)
        .. Use Case 2 ..

    }
}


DisplayCommInterfaceImplementation .up.|> DisplayCommInterface







package edu.oakland.production.display02 {
    class DisplayComm2WayInterfaceImplementation {
        __
        .. Use Case 1 ..
        {abstract} + TrackData passRfidRequest(int rfidNum)
        {abstract} + void determineUserRequestFormat(int rfidNum)
        {abstract} + void receiveRequestFromDisplayCommInterface(int rfidNum)
    }
}


DisplayComm2WayInterfaceImplementation .up.|> DisplayComm2WayInterface







package edu.oakland.production.display02 {
    class DisplayCommManagerImplementation {
        __
        .. Use Case 1 ..
        {abstract} + TrackData evaluateRfidRequest(int rfidNum)
        {abstract} + TrackData passRequestToMiddlewareCommInterface(int rfidNum)
        {abstract} + void receiveRequestFromDisplay2WayInterface(int rfidNum)

        .. Use Case 2 ..

    }
}


DisplayCommManagerImplementation .up.|> DisplayCommManager







package edu.oakland.test.display02 {
    
}



package edu.oakland.test.display02 {
    class DisplayCommInterfaceImplementationTests {

    }
}




package edu.oakland.test.display02 {
    class DisplayComm2WayInterfaceStub {
        __
        .. Use Case 1 ..
        {abstract} + TrackData passRfidRequest(int rfidNum)
    }
}


DisplayComm2WayInterfaceStub .up.|> DisplayComm2WayInterface



DisplayCommInterfaceImplementationTests ..> DisplayComm2WayInterfaceStub

DisplayCommInterfaceImplementationTests ..> DisplayCommInterfaceImplementation





package edu.oakland.test.display02 {
    class DisplayComm2WayInterfaceImplementationTests {

    }
}




package edu.oakland.test.display02 {
    class DisplayCommManagerStub {
        __
        .. Use Case 1 ..
        + TrackData evaluateRfidRequest(int rfidNum)
    }
}


DisplayCommManagerStub .up.|> DisplayCommManager



DisplayComm2WayInterfaceImplementationTests ..> DisplayCommManagerStub

DisplayComm2WayInterfaceImplementationTests ..> DisplayComm2WayInterfaceImplementation





package edu.oakland.test.display02 {
    class DisplayCommManagerImplementationTests {

    }
}




package edu.oakland.test.display02 {
    class MiddlewareCommInterfaceStub {
        __
        .. Use Case 1 ..
        + TrackData requestRfid(int rfid)
    }
}






package edu.oakland.production.middleware02 {
    interface MiddlewareCommInterface {
        __
        .. Use Case 1 ..
        {abstract} + TrackData requestRfid(int rfid)
        .. Use Case 2 ..

    }
}






MiddlewareCommInterfaceStub .up.|> MiddlewareCommInterface

DisplayCommManagerImplementationTests ..> MiddlewareCommInterfaceStub

DisplayCommManagerImplementationTests ..> DisplayCommManagerImplementation





package edu.oakland.test.display02 {
    class TrackDataPlotterTests {

    }
}




package edu.oakland.helper.display02 {
    class TrackDataPlotter {
        
    }
}






TrackDataPlotterTests ..> TrackDataPlotter





package edu.oakland.helper.display02 {
    
}



@enduml

PlantUML version 1.2020.02(Sun Mar 01 10:22:07 GMT 2020)
(GPL source distribution)
Java Runtime: OpenJDK Runtime Environment
JVM: OpenJDK 64-Bit Server VM
Java Version: 11.0.9+11-Ubuntu-0ubuntu1
Operating System: Linux
Default Encoding: ANSI_X3.4-1968
Language: en
Country: US
--></g></svg>