<?xml version="1.0" encoding="UTF-8" standalone="no"?><svg xmlns="http://www.w3.org/2000/svg" xmlns:xlink="http://www.w3.org/1999/xlink" contentScriptType="application/ecmascript" contentStyleType="text/css" height="400px" preserveAspectRatio="none" style="width:2723px;height:400px;" version="1.1" viewBox="0 0 2723 400" width="2723px" zoomAndPan="magnify"><defs><filter height="300%" id="f12mn8o7ice2md" width="300%" x="-1" y="-1"><feGaussianBlur result="blurOut" stdDeviation="2.0"/><feColorMatrix in="blurOut" result="blurOut2" type="matrix" values="0 0 0 0 0 0 0 0 0 0 0 0 0 0 0 0 0 0 .4 0"/><feOffset dx="4.0" dy="4.0" in="blurOut2" result="blurOut3"/><feBlend in="SourceGraphic" in2="blurOut3" mode="normal"/></filter></defs><g><!--MD5=[fe59aae6f7bfe371a9c197ec1f7f843a]
cluster edu.oakland.production.display02--><polygon fill="#FFFFFF" filter="url(#f12mn8o7ice2md)" points="22,38.5,295,38.5,302,60.7969,1088,60.7969,1088,388,22,388,22,38.5" style="stroke: #000000; stroke-width: 1.5;"/><line style="stroke: #000000; stroke-width: 1.5;" x1="22" x2="302" y1="60.7969" y2="60.7969"/><text fill="#000000" font-family="sans-serif" font-size="14" font-weight="bold" lengthAdjust="spacingAndGlyphs" textLength="267" x="26" y="53.4951">edu.oakland.production.display02</text><!--MD5=[9258003ec405d300d3379b4a3d8dd6ad]
cluster edu.oakland.test.display02--><polygon fill="#FFFFFF" filter="url(#f12mn8o7ice2md)" points="1112,53.5,1330,53.5,1337,75.7969,2357,75.7969,2357,354,1112,354,1112,53.5" style="stroke: #000000; stroke-width: 1.5;"/><line style="stroke: #000000; stroke-width: 1.5;" x1="1112" x2="1337" y1="75.7969" y2="75.7969"/><text fill="#000000" font-family="sans-serif" font-size="14" font-weight="bold" lengthAdjust="spacingAndGlyphs" textLength="212" x="1116" y="68.4951">edu.oakland.test.display02</text><!--MD5=[33504725b8a69ba2207f0a836957a91c]
cluster edu.oakland.production.middleware02--><polygon fill="#FFFFFF" filter="url(#f12mn8o7ice2md)" points="2381,24,2691,24,2698,46.2969,2701,46.2969,2701,182,2381,182,2381,24" style="stroke: #000000; stroke-width: 1.5;"/><line style="stroke: #000000; stroke-width: 1.5;" x1="2381" x2="2698" y1="46.2969" y2="46.2969"/><text fill="#000000" font-family="sans-serif" font-size="14" font-weight="bold" lengthAdjust="spacingAndGlyphs" textLength="304" x="2385" y="38.9951">edu.oakland.production.middleware02</text><!--MD5=[a502031b5a5384de0a21e6ee820fd3b2]
cluster edu.oakland.helper.display02--><polygon fill="#FFFFFF" filter="url(#f12mn8o7ice2md)" points="2381,240,2619,240,2626,262.2969,2629,262.2969,2629,339,2381,339,2381,240" style="stroke: #000000; stroke-width: 1.5;"/><line style="stroke: #000000; stroke-width: 1.5;" x1="2381" x2="2626" y1="262.2969" y2="262.2969"/><text fill="#000000" font-family="sans-serif" font-size="14" font-weight="bold" lengthAdjust="spacingAndGlyphs" textLength="232" x="2385" y="254.9951">edu.oakland.helper.display02</text><!--MD5=[c8d1e3134fecb0c949fd2a76cc0bb992]
class DisplayCommInterface--><rect fill="#FEFECE" filter="url(#f12mn8o7ice2md)" height="77.6094" id="DisplayCommInterface" style="stroke: #A80036; stroke-width: 1.5;" width="268" x="38" y="73.5"/><ellipse cx="98.25" cy="89.5" fill="#B4A7E5" rx="11" ry="11" style="stroke: #A80036; stroke-width: 1.0;"/><path d="M94.1719,85.2656 L94.1719,83.1094 L101.5625,83.1094 L101.5625,85.2656 L99.0938,85.2656 L99.0938,93.3438 L101.5625,93.3438 L101.5625,95.5 L94.1719,95.5 L94.1719,93.3438 L96.6406,93.3438 L96.6406,85.2656 L94.1719,85.2656 Z "/><text fill="#000000" font-family="sans-serif" font-size="12" font-style="italic" lengthAdjust="spacingAndGlyphs" textLength="139" x="118.75" y="93.6543">DisplayCommInterface</text><line style="stroke: #A80036; stroke-width: 1.5;" x1="39" x2="305" y1="105.5" y2="105.5"/><line style="stroke: #A80036; stroke-width: 1.5;" x1="39" x2="305" y1="113.5" y2="113.5"/><ellipse cx="49" cy="141.3047" fill="#84BE84" rx="3" ry="3" style="stroke: #038048; stroke-width: 1.0;"/><text fill="#000000" font-family="sans-serif" font-size="11" font-style="italic" lengthAdjust="spacingAndGlyphs" textLength="242" x="58" y="144.5151">TrackData receiveRfidRequest(int rfidNum)</text><line style="stroke: #A80036; stroke-width: 1.0; stroke-dasharray: 1.0,2.0;" x1="39" x2="139" y1="127.9023" y2="127.9023"/><text fill="#000000" font-family="sans-serif" font-size="11" lengthAdjust="spacingAndGlyphs" textLength="66" x="139" y="131.2104">Use Case 1</text><line style="stroke: #A80036; stroke-width: 1.0; stroke-dasharray: 1.0,2.0;" x1="205" x2="305" y1="127.9023" y2="127.9023"/><!--MD5=[f6b51b5f862da5ce226c62e411e84628]
class DisplayComm2WayInterface--><rect fill="#FEFECE" filter="url(#f12mn8o7ice2md)" height="77.6094" id="DisplayComm2WayInterface" style="stroke: #A80036; stroke-width: 1.5;" width="252" x="422" y="73.5"/><ellipse cx="457.7" cy="89.5" fill="#B4A7E5" rx="11" ry="11" style="stroke: #A80036; stroke-width: 1.0;"/><path d="M453.6219,85.2656 L453.6219,83.1094 L461.0125,83.1094 L461.0125,85.2656 L458.5438,85.2656 L458.5438,93.3438 L461.0125,93.3438 L461.0125,95.5 L453.6219,95.5 L453.6219,93.3438 L456.0906,93.3438 L456.0906,85.2656 L453.6219,85.2656 Z "/><text fill="#000000" font-family="sans-serif" font-size="12" font-style="italic" lengthAdjust="spacingAndGlyphs" textLength="174" x="476.3" y="93.6543">DisplayComm2WayInterface</text><line style="stroke: #A80036; stroke-width: 1.5;" x1="423" x2="673" y1="105.5" y2="105.5"/><line style="stroke: #A80036; stroke-width: 1.5;" x1="423" x2="673" y1="113.5" y2="113.5"/><ellipse cx="433" cy="141.3047" fill="#84BE84" rx="3" ry="3" style="stroke: #038048; stroke-width: 1.0;"/><text fill="#000000" font-family="sans-serif" font-size="11" font-style="italic" lengthAdjust="spacingAndGlyphs" textLength="226" x="442" y="144.5151">TrackData passRfidRequest(int rfidNum)</text><line style="stroke: #A80036; stroke-width: 1.0; stroke-dasharray: 1.0,2.0;" x1="423" x2="515" y1="127.9023" y2="127.9023"/><text fill="#000000" font-family="sans-serif" font-size="11" lengthAdjust="spacingAndGlyphs" textLength="66" x="515" y="131.2104">Use Case 1</text><line style="stroke: #A80036; stroke-width: 1.0; stroke-dasharray: 1.0,2.0;" x1="581" x2="673" y1="127.9023" y2="127.9023"/><!--MD5=[6aeb72f2773d7cabb45309482beeff0a]
class DisplayCommManager--><rect fill="#FEFECE" filter="url(#f12mn8o7ice2md)" height="77.6094" id="DisplayCommManager" style="stroke: #A80036; stroke-width: 1.5;" width="275" x="766.5" y="73.5"/><ellipse cx="831.25" cy="89.5" fill="#B4A7E5" rx="11" ry="11" style="stroke: #A80036; stroke-width: 1.0;"/><path d="M827.1719,85.2656 L827.1719,83.1094 L834.5625,83.1094 L834.5625,85.2656 L832.0938,85.2656 L832.0938,93.3438 L834.5625,93.3438 L834.5625,95.5 L827.1719,95.5 L827.1719,93.3438 L829.6406,93.3438 L829.6406,85.2656 L827.1719,85.2656 Z "/><text fill="#000000" font-family="sans-serif" font-size="12" font-style="italic" lengthAdjust="spacingAndGlyphs" textLength="137" x="851.75" y="93.6543">DisplayCommManager</text><line style="stroke: #A80036; stroke-width: 1.5;" x1="767.5" x2="1040.5" y1="105.5" y2="105.5"/><line style="stroke: #A80036; stroke-width: 1.5;" x1="767.5" x2="1040.5" y1="113.5" y2="113.5"/><ellipse cx="777.5" cy="141.3047" fill="#84BE84" rx="3" ry="3" style="stroke: #038048; stroke-width: 1.0;"/><text fill="#000000" font-family="sans-serif" font-size="11" font-style="italic" lengthAdjust="spacingAndGlyphs" textLength="249" x="786.5" y="144.5151">TrackData evaluateRfidRequest(int rfidNum)</text><line style="stroke: #A80036; stroke-width: 1.0; stroke-dasharray: 1.0,2.0;" x1="767.5" x2="871" y1="127.9023" y2="127.9023"/><text fill="#000000" font-family="sans-serif" font-size="11" lengthAdjust="spacingAndGlyphs" textLength="66" x="871" y="131.2104">Use Case 1</text><line style="stroke: #A80036; stroke-width: 1.0; stroke-dasharray: 1.0,2.0;" x1="937" x2="1040.5" y1="127.9023" y2="127.9023"/><!--MD5=[a35092e604da7274febf4e2cf9a25087]
class DisplayCommInterfaceImplementation--><rect fill="#FEFECE" filter="url(#f12mn8o7ice2md)" height="107.2188" id="DisplayCommInterfaceImplementation" style="stroke: #A80036; stroke-width: 1.5;" width="268" x="38" y="245.5"/><ellipse cx="53.45" cy="261.5" fill="#ADD1B2" rx="11" ry="11" style="stroke: #A80036; stroke-width: 1.0;"/><path d="M56.4188,267.1406 Q55.8406,267.4375 55.2,267.5781 Q54.5594,267.7344 53.8563,267.7344 Q51.3563,267.7344 50.0281,266.0938 Q48.7156,264.4375 48.7156,261.3125 Q48.7156,258.1875 50.0281,256.5313 Q51.3563,254.875 53.8563,254.875 Q54.5594,254.875 55.2,255.0313 Q55.8563,255.1875 56.4188,255.4844 L56.4188,258.2031 Q55.7938,257.625 55.2,257.3594 Q54.6063,257.0781 53.9813,257.0781 Q52.6375,257.0781 51.95,258.1563 Q51.2625,259.2188 51.2625,261.3125 Q51.2625,263.4063 51.95,264.4844 Q52.6375,265.5469 53.9813,265.5469 Q54.6063,265.5469 55.2,265.2813 Q55.7938,265 56.4188,264.4219 L56.4188,267.1406 Z "/><text fill="#000000" font-family="sans-serif" font-size="12" lengthAdjust="spacingAndGlyphs" textLength="235" x="67.55" y="265.6543">DisplayCommInterfaceImplementation</text><line style="stroke: #A80036; stroke-width: 1.5;" x1="39" x2="305" y1="277.5" y2="277.5"/><line style="stroke: #A80036; stroke-width: 1.5;" x1="39" x2="305" y1="285.5" y2="285.5"/><ellipse cx="49" cy="313.3047" fill="#84BE84" rx="3" ry="3" style="stroke: #038048; stroke-width: 1.0;"/><text fill="#000000" font-family="sans-serif" font-size="11" font-style="italic" lengthAdjust="spacingAndGlyphs" textLength="242" x="58" y="316.5151">TrackData receiveRfidRequest(int rfidNum)</text><line style="stroke: #A80036; stroke-width: 1.0; stroke-dasharray: 1.0,2.0;" x1="39" x2="139" y1="299.9023" y2="299.9023"/><text fill="#000000" font-family="sans-serif" font-size="11" lengthAdjust="spacingAndGlyphs" textLength="66" x="139" y="303.2104">Use Case 1</text><line style="stroke: #A80036; stroke-width: 1.0; stroke-dasharray: 1.0,2.0;" x1="205" x2="305" y1="299.9023" y2="299.9023"/><text fill="#000000" font-family="sans-serif" font-size="11" lengthAdjust="spacingAndGlyphs" textLength="0" x="48" y="346.1245"/><line style="stroke: #A80036; stroke-width: 1.0; stroke-dasharray: 1.0,2.0;" x1="39" x2="139" y1="329.5117" y2="329.5117"/><text fill="#000000" font-family="sans-serif" font-size="11" lengthAdjust="spacingAndGlyphs" textLength="66" x="139" y="332.8198">Use Case 2</text><line style="stroke: #A80036; stroke-width: 1.0; stroke-dasharray: 1.0,2.0;" x1="205" x2="305" y1="329.5117" y2="329.5117"/><!--MD5=[46657c2900260d4d40350fe3f8c544df]
class DisplayComm2WayInterfaceImplementation--><rect fill="#FEFECE" filter="url(#f12mn8o7ice2md)" height="77.6094" id="DisplayComm2WayInterfaceImplementation" style="stroke: #A80036; stroke-width: 1.5;" width="300" x="341" y="260"/><ellipse cx="356" cy="276" fill="#ADD1B2" rx="11" ry="11" style="stroke: #A80036; stroke-width: 1.0;"/><path d="M358.9688,281.6406 Q358.3906,281.9375 357.75,282.0781 Q357.1094,282.2344 356.4063,282.2344 Q353.9063,282.2344 352.5781,280.5938 Q351.2656,278.9375 351.2656,275.8125 Q351.2656,272.6875 352.5781,271.0313 Q353.9063,269.375 356.4063,269.375 Q357.1094,269.375 357.75,269.5313 Q358.4063,269.6875 358.9688,269.9844 L358.9688,272.7031 Q358.3438,272.125 357.75,271.8594 Q357.1563,271.5781 356.5313,271.5781 Q355.1875,271.5781 354.5,272.6563 Q353.8125,273.7188 353.8125,275.8125 Q353.8125,277.9063 354.5,278.9844 Q355.1875,280.0469 356.5313,280.0469 Q357.1563,280.0469 357.75,279.7813 Q358.3438,279.5 358.9688,278.9219 L358.9688,281.6406 Z "/><text fill="#000000" font-family="sans-serif" font-size="12" lengthAdjust="spacingAndGlyphs" textLength="268" x="370" y="280.1543">DisplayComm2WayInterfaceImplementation</text><line style="stroke: #A80036; stroke-width: 1.5;" x1="342" x2="640" y1="292" y2="292"/><line style="stroke: #A80036; stroke-width: 1.5;" x1="342" x2="640" y1="300" y2="300"/><ellipse cx="352" cy="327.8047" fill="#84BE84" rx="3" ry="3" style="stroke: #038048; stroke-width: 1.0;"/><text fill="#000000" font-family="sans-serif" font-size="11" font-style="italic" lengthAdjust="spacingAndGlyphs" textLength="270" x="361" y="331.0151">LocationDataPoint passRfidRequest(int rfidNum)</text><line style="stroke: #A80036; stroke-width: 1.0; stroke-dasharray: 1.0,2.0;" x1="342" x2="458" y1="314.4023" y2="314.4023"/><text fill="#000000" font-family="sans-serif" font-size="11" lengthAdjust="spacingAndGlyphs" textLength="66" x="458" y="317.7104">Use Case 1</text><line style="stroke: #A80036; stroke-width: 1.0; stroke-dasharray: 1.0,2.0;" x1="524" x2="640" y1="314.4023" y2="314.4023"/><!--MD5=[3a27b63ddb357afc5dde5581215f51f9]
class DisplayCommManagerImplementation--><rect fill="#FEFECE" filter="url(#f12mn8o7ice2md)" height="145.6328" id="DisplayCommManagerImplementation" style="stroke: #A80036; stroke-width: 1.5;" width="395" x="676.5" y="226"/><ellipse cx="752.75" cy="242" fill="#ADD1B2" rx="11" ry="11" style="stroke: #A80036; stroke-width: 1.0;"/><path d="M755.7188,247.6406 Q755.1406,247.9375 754.5,248.0781 Q753.8594,248.2344 753.1563,248.2344 Q750.6563,248.2344 749.3281,246.5938 Q748.0156,244.9375 748.0156,241.8125 Q748.0156,238.6875 749.3281,237.0313 Q750.6563,235.375 753.1563,235.375 Q753.8594,235.375 754.5,235.5313 Q755.1563,235.6875 755.7188,235.9844 L755.7188,238.7031 Q755.0938,238.125 754.5,237.8594 Q753.9063,237.5781 753.2813,237.5781 Q751.9375,237.5781 751.25,238.6563 Q750.5625,239.7188 750.5625,241.8125 Q750.5625,243.9063 751.25,244.9844 Q751.9375,246.0469 753.2813,246.0469 Q753.9063,246.0469 754.5,245.7813 Q755.0938,245.5 755.7188,244.9219 L755.7188,247.6406 Z "/><text fill="#000000" font-family="sans-serif" font-size="12" lengthAdjust="spacingAndGlyphs" textLength="234" x="773.25" y="246.1543">DisplayCommManagerImplementation</text><line style="stroke: #A80036; stroke-width: 1.5;" x1="677.5" x2="1070.5" y1="258" y2="258"/><line style="stroke: #A80036; stroke-width: 1.5;" x1="677.5" x2="1070.5" y1="266" y2="266"/><ellipse cx="687.5" cy="293.8047" fill="#84BE84" rx="3" ry="3" style="stroke: #038048; stroke-width: 1.0;"/><text fill="#000000" font-family="sans-serif" font-size="11" font-style="italic" lengthAdjust="spacingAndGlyphs" textLength="249" x="696.5" y="297.0151">TrackData evaluateRfidRequest(int rfidNum)</text><ellipse cx="687.5" cy="306.6094" fill="#84BE84" rx="3" ry="3" style="stroke: #038048; stroke-width: 1.0;"/><text fill="#000000" font-family="sans-serif" font-size="11" font-style="italic" lengthAdjust="spacingAndGlyphs" textLength="369" x="696.5" y="309.8198">TrackData passRequestToMiddlewareCommInterface(int rfidNum)</text><ellipse cx="687.5" cy="319.4141" fill="#84BE84" rx="3" ry="3" style="stroke: #038048; stroke-width: 1.0;"/><text fill="#000000" font-family="sans-serif" font-size="11" font-style="italic" lengthAdjust="spacingAndGlyphs" textLength="339" x="696.5" y="322.6245">void receiveRequestFromDisplay2WayInterface(int rfidNum)</text><text fill="#000000" font-family="sans-serif" font-size="11" lengthAdjust="spacingAndGlyphs" textLength="0" x="700.5" y="335.4292"/><line style="stroke: #A80036; stroke-width: 1.0; stroke-dasharray: 1.0,2.0;" x1="677.5" x2="841" y1="280.4023" y2="280.4023"/><text fill="#000000" font-family="sans-serif" font-size="11" lengthAdjust="spacingAndGlyphs" textLength="66" x="841" y="283.7104">Use Case 1</text><line style="stroke: #A80036; stroke-width: 1.0; stroke-dasharray: 1.0,2.0;" x1="907" x2="1070.5" y1="280.4023" y2="280.4023"/><text fill="#000000" font-family="sans-serif" font-size="11" lengthAdjust="spacingAndGlyphs" textLength="0" x="686.5" y="365.0386"/><line style="stroke: #A80036; stroke-width: 1.0; stroke-dasharray: 1.0,2.0;" x1="677.5" x2="841" y1="348.4258" y2="348.4258"/><text fill="#000000" font-family="sans-serif" font-size="11" lengthAdjust="spacingAndGlyphs" textLength="66" x="841" y="351.7339">Use Case 2</text><line style="stroke: #A80036; stroke-width: 1.0; stroke-dasharray: 1.0,2.0;" x1="907" x2="1070.5" y1="348.4258" y2="348.4258"/><!--MD5=[d454b7777f115113290d89683d7a426c]
class DisplayCommInterfaceImplementationTests--><rect fill="#FEFECE" filter="url(#f12mn8o7ice2md)" height="48" id="DisplayCommInterfaceImplementationTests" style="stroke: #A80036; stroke-width: 1.5;" width="301" x="1128.5" y="88.5"/><ellipse cx="1143.5" cy="104.5" fill="#ADD1B2" rx="11" ry="11" style="stroke: #A80036; stroke-width: 1.0;"/><path d="M1146.4688,110.1406 Q1145.8906,110.4375 1145.25,110.5781 Q1144.6094,110.7344 1143.9063,110.7344 Q1141.4063,110.7344 1140.0781,109.0938 Q1138.7656,107.4375 1138.7656,104.3125 Q1138.7656,101.1875 1140.0781,99.5313 Q1141.4063,97.875 1143.9063,97.875 Q1144.6094,97.875 1145.25,98.0313 Q1145.9063,98.1875 1146.4688,98.4844 L1146.4688,101.2031 Q1145.8438,100.625 1145.25,100.3594 Q1144.6563,100.0781 1144.0313,100.0781 Q1142.6875,100.0781 1142,101.1563 Q1141.3125,102.2188 1141.3125,104.3125 Q1141.3125,106.4063 1142,107.4844 Q1142.6875,108.5469 1144.0313,108.5469 Q1144.6563,108.5469 1145.25,108.2813 Q1145.8438,108 1146.4688,107.4219 L1146.4688,110.1406 Z "/><text fill="#000000" font-family="sans-serif" font-size="12" lengthAdjust="spacingAndGlyphs" textLength="269" x="1157.5" y="108.6543">DisplayCommInterfaceImplementationTests</text><line style="stroke: #A80036; stroke-width: 1.5;" x1="1129.5" x2="1428.5" y1="120.5" y2="120.5"/><line style="stroke: #A80036; stroke-width: 1.5;" x1="1129.5" x2="1428.5" y1="128.5" y2="128.5"/><!--MD5=[a333ac13e0fdf2a5898aafabd38d3c1b]
class DisplayComm2WayInterfaceStub--><rect fill="#FEFECE" filter="url(#f12mn8o7ice2md)" height="77.6094" id="DisplayComm2WayInterfaceStub" style="stroke: #A80036; stroke-width: 1.5;" width="252" x="1141" y="260"/><ellipse cx="1165" cy="276" fill="#ADD1B2" rx="11" ry="11" style="stroke: #A80036; stroke-width: 1.0;"/><path d="M1167.9688,281.6406 Q1167.3906,281.9375 1166.75,282.0781 Q1166.1094,282.2344 1165.4063,282.2344 Q1162.9063,282.2344 1161.5781,280.5938 Q1160.2656,278.9375 1160.2656,275.8125 Q1160.2656,272.6875 1161.5781,271.0313 Q1162.9063,269.375 1165.4063,269.375 Q1166.1094,269.375 1166.75,269.5313 Q1167.4063,269.6875 1167.9688,269.9844 L1167.9688,272.7031 Q1167.3438,272.125 1166.75,271.8594 Q1166.1563,271.5781 1165.5313,271.5781 Q1164.1875,271.5781 1163.5,272.6563 Q1162.8125,273.7188 1162.8125,275.8125 Q1162.8125,277.9063 1163.5,278.9844 Q1164.1875,280.0469 1165.5313,280.0469 Q1166.1563,280.0469 1166.75,279.7813 Q1167.3438,279.5 1167.9688,278.9219 L1167.9688,281.6406 Z "/><text fill="#000000" font-family="sans-serif" font-size="12" lengthAdjust="spacingAndGlyphs" textLength="200" x="1181" y="280.1543">DisplayComm2WayInterfaceStub</text><line style="stroke: #A80036; stroke-width: 1.5;" x1="1142" x2="1392" y1="292" y2="292"/><line style="stroke: #A80036; stroke-width: 1.5;" x1="1142" x2="1392" y1="300" y2="300"/><ellipse cx="1152" cy="327.8047" fill="#84BE84" rx="3" ry="3" style="stroke: #038048; stroke-width: 1.0;"/><text fill="#000000" font-family="sans-serif" font-size="11" font-style="italic" lengthAdjust="spacingAndGlyphs" textLength="226" x="1161" y="331.0151">TrackData passRfidRequest(int rfidNum)</text><line style="stroke: #A80036; stroke-width: 1.0; stroke-dasharray: 1.0,2.0;" x1="1142" x2="1234" y1="314.4023" y2="314.4023"/><text fill="#000000" font-family="sans-serif" font-size="11" lengthAdjust="spacingAndGlyphs" textLength="66" x="1234" y="317.7104">Use Case 1</text><line style="stroke: #A80036; stroke-width: 1.0; stroke-dasharray: 1.0,2.0;" x1="1300" x2="1392" y1="314.4023" y2="314.4023"/><!--MD5=[178181f4c7684560c711246055fc01d3]
class DisplayComm2WayInterfaceImplementationTests--><rect fill="#FEFECE" filter="url(#f12mn8o7ice2md)" height="48" id="DisplayComm2WayInterfaceImplementationTests" style="stroke: #A80036; stroke-width: 1.5;" width="334" x="1465" y="88.5"/><ellipse cx="1480" cy="104.5" fill="#ADD1B2" rx="11" ry="11" style="stroke: #A80036; stroke-width: 1.0;"/><path d="M1482.9688,110.1406 Q1482.3906,110.4375 1481.75,110.5781 Q1481.1094,110.7344 1480.4063,110.7344 Q1477.9063,110.7344 1476.5781,109.0938 Q1475.2656,107.4375 1475.2656,104.3125 Q1475.2656,101.1875 1476.5781,99.5313 Q1477.9063,97.875 1480.4063,97.875 Q1481.1094,97.875 1481.75,98.0313 Q1482.4063,98.1875 1482.9688,98.4844 L1482.9688,101.2031 Q1482.3438,100.625 1481.75,100.3594 Q1481.1563,100.0781 1480.5313,100.0781 Q1479.1875,100.0781 1478.5,101.1563 Q1477.8125,102.2188 1477.8125,104.3125 Q1477.8125,106.4063 1478.5,107.4844 Q1479.1875,108.5469 1480.5313,108.5469 Q1481.1563,108.5469 1481.75,108.2813 Q1482.3438,108 1482.9688,107.4219 L1482.9688,110.1406 Z "/><text fill="#000000" font-family="sans-serif" font-size="12" lengthAdjust="spacingAndGlyphs" textLength="302" x="1494" y="108.6543">DisplayComm2WayInterfaceImplementationTests</text><line style="stroke: #A80036; stroke-width: 1.5;" x1="1466" x2="1798" y1="120.5" y2="120.5"/><line style="stroke: #A80036; stroke-width: 1.5;" x1="1466" x2="1798" y1="128.5" y2="128.5"/><!--MD5=[2970358178d6cf57fc5a801b39eb8d0b]
class DisplayCommManagerStub--><rect fill="#FEFECE" filter="url(#f12mn8o7ice2md)" height="77.6094" id="DisplayCommManagerStub" style="stroke: #A80036; stroke-width: 1.5;" width="273" x="1462.5" y="260"/><ellipse cx="1511.75" cy="276" fill="#ADD1B2" rx="11" ry="11" style="stroke: #A80036; stroke-width: 1.0;"/><path d="M1514.7188,281.6406 Q1514.1406,281.9375 1513.5,282.0781 Q1512.8594,282.2344 1512.1563,282.2344 Q1509.6563,282.2344 1508.3281,280.5938 Q1507.0156,278.9375 1507.0156,275.8125 Q1507.0156,272.6875 1508.3281,271.0313 Q1509.6563,269.375 1512.1563,269.375 Q1512.8594,269.375 1513.5,269.5313 Q1514.1563,269.6875 1514.7188,269.9844 L1514.7188,272.7031 Q1514.0938,272.125 1513.5,271.8594 Q1512.9063,271.5781 1512.2813,271.5781 Q1510.9375,271.5781 1510.25,272.6563 Q1509.5625,273.7188 1509.5625,275.8125 Q1509.5625,277.9063 1510.25,278.9844 Q1510.9375,280.0469 1512.2813,280.0469 Q1512.9063,280.0469 1513.5,279.7813 Q1514.0938,279.5 1514.7188,278.9219 L1514.7188,281.6406 Z "/><text fill="#000000" font-family="sans-serif" font-size="12" lengthAdjust="spacingAndGlyphs" textLength="166" x="1532.25" y="280.1543">DisplayCommManagerStub</text><line style="stroke: #A80036; stroke-width: 1.5;" x1="1463.5" x2="1734.5" y1="292" y2="292"/><line style="stroke: #A80036; stroke-width: 1.5;" x1="1463.5" x2="1734.5" y1="300" y2="300"/><ellipse cx="1473.5" cy="327.8047" fill="#84BE84" rx="3" ry="3" style="stroke: #038048; stroke-width: 1.0;"/><text fill="#000000" font-family="sans-serif" font-size="11" lengthAdjust="spacingAndGlyphs" textLength="247" x="1482.5" y="331.0151">TrackData evaluateRfidRequest(int rfidNum)</text><line style="stroke: #A80036; stroke-width: 1.0; stroke-dasharray: 1.0,2.0;" x1="1463.5" x2="1566" y1="314.4023" y2="314.4023"/><text fill="#000000" font-family="sans-serif" font-size="11" lengthAdjust="spacingAndGlyphs" textLength="66" x="1566" y="317.7104">Use Case 1</text><line style="stroke: #A80036; stroke-width: 1.0; stroke-dasharray: 1.0,2.0;" x1="1632" x2="1734.5" y1="314.4023" y2="314.4023"/><!--MD5=[937d6d8ff87a99d0d5dcd66ee05a1fa4]
class DisplayCommManagerImplementationTests--><rect fill="#FEFECE" filter="url(#f12mn8o7ice2md)" height="48" id="DisplayCommManagerImplementationTests" style="stroke: #A80036; stroke-width: 1.5;" width="300" x="1834" y="88.5"/><ellipse cx="1849" cy="104.5" fill="#ADD1B2" rx="11" ry="11" style="stroke: #A80036; stroke-width: 1.0;"/><path d="M1851.9688,110.1406 Q1851.3906,110.4375 1850.75,110.5781 Q1850.1094,110.7344 1849.4063,110.7344 Q1846.9063,110.7344 1845.5781,109.0938 Q1844.2656,107.4375 1844.2656,104.3125 Q1844.2656,101.1875 1845.5781,99.5313 Q1846.9063,97.875 1849.4063,97.875 Q1850.1094,97.875 1850.75,98.0313 Q1851.4063,98.1875 1851.9688,98.4844 L1851.9688,101.2031 Q1851.3438,100.625 1850.75,100.3594 Q1850.1563,100.0781 1849.5313,100.0781 Q1848.1875,100.0781 1847.5,101.1563 Q1846.8125,102.2188 1846.8125,104.3125 Q1846.8125,106.4063 1847.5,107.4844 Q1848.1875,108.5469 1849.5313,108.5469 Q1850.1563,108.5469 1850.75,108.2813 Q1851.3438,108 1851.9688,107.4219 L1851.9688,110.1406 Z "/><text fill="#000000" font-family="sans-serif" font-size="12" lengthAdjust="spacingAndGlyphs" textLength="268" x="1863" y="108.6543">DisplayCommManagerImplementationTests</text><line style="stroke: #A80036; stroke-width: 1.5;" x1="1835" x2="2133" y1="120.5" y2="120.5"/><line style="stroke: #A80036; stroke-width: 1.5;" x1="1835" x2="2133" y1="128.5" y2="128.5"/><!--MD5=[cf56a65163663c6c6c7b84cd7c204b97]
class MiddlewareCommInterfaceStub--><rect fill="#FEFECE" filter="url(#f12mn8o7ice2md)" height="77.6094" id="MiddlewareCommInterfaceStub" style="stroke: #A80036; stroke-width: 1.5;" width="225" x="1993.5" y="260"/><ellipse cx="2008.5" cy="276" fill="#ADD1B2" rx="11" ry="11" style="stroke: #A80036; stroke-width: 1.0;"/><path d="M2011.4688,281.6406 Q2010.8906,281.9375 2010.25,282.0781 Q2009.6094,282.2344 2008.9063,282.2344 Q2006.4063,282.2344 2005.0781,280.5938 Q2003.7656,278.9375 2003.7656,275.8125 Q2003.7656,272.6875 2005.0781,271.0313 Q2006.4063,269.375 2008.9063,269.375 Q2009.6094,269.375 2010.25,269.5313 Q2010.9063,269.6875 2011.4688,269.9844 L2011.4688,272.7031 Q2010.8438,272.125 2010.25,271.8594 Q2009.6563,271.5781 2009.0313,271.5781 Q2007.6875,271.5781 2007,272.6563 Q2006.3125,273.7188 2006.3125,275.8125 Q2006.3125,277.9063 2007,278.9844 Q2007.6875,280.0469 2009.0313,280.0469 Q2009.6563,280.0469 2010.25,279.7813 Q2010.8438,279.5 2011.4688,278.9219 L2011.4688,281.6406 Z "/><text fill="#000000" font-family="sans-serif" font-size="12" lengthAdjust="spacingAndGlyphs" textLength="193" x="2022.5" y="280.1543">MiddlewareCommInterfaceStub</text><line style="stroke: #A80036; stroke-width: 1.5;" x1="1994.5" x2="2217.5" y1="292" y2="292"/><line style="stroke: #A80036; stroke-width: 1.5;" x1="1994.5" x2="2217.5" y1="300" y2="300"/><ellipse cx="2004.5" cy="327.8047" fill="#84BE84" rx="3" ry="3" style="stroke: #038048; stroke-width: 1.0;"/><text fill="#000000" font-family="sans-serif" font-size="11" lengthAdjust="spacingAndGlyphs" textLength="171" x="2013.5" y="331.0151">TrackData requestRfid(int rfid)</text><line style="stroke: #A80036; stroke-width: 1.0; stroke-dasharray: 1.0,2.0;" x1="1994.5" x2="2073" y1="314.4023" y2="314.4023"/><text fill="#000000" font-family="sans-serif" font-size="11" lengthAdjust="spacingAndGlyphs" textLength="66" x="2073" y="317.7104">Use Case 1</text><line style="stroke: #A80036; stroke-width: 1.0; stroke-dasharray: 1.0,2.0;" x1="2139" x2="2217.5" y1="314.4023" y2="314.4023"/><!--MD5=[930c8140e7c1cb8e71aa7cd49967748e]
class TrackDataPlotterTests--><rect fill="#FEFECE" filter="url(#f12mn8o7ice2md)" height="48" id="TrackDataPlotterTests" style="stroke: #A80036; stroke-width: 1.5;" width="172" x="2169" y="88.5"/><ellipse cx="2184" cy="104.5" fill="#ADD1B2" rx="11" ry="11" style="stroke: #A80036; stroke-width: 1.0;"/><path d="M2186.9688,110.1406 Q2186.3906,110.4375 2185.75,110.5781 Q2185.1094,110.7344 2184.4063,110.7344 Q2181.9063,110.7344 2180.5781,109.0938 Q2179.2656,107.4375 2179.2656,104.3125 Q2179.2656,101.1875 2180.5781,99.5313 Q2181.9063,97.875 2184.4063,97.875 Q2185.1094,97.875 2185.75,98.0313 Q2186.4063,98.1875 2186.9688,98.4844 L2186.9688,101.2031 Q2186.3438,100.625 2185.75,100.3594 Q2185.1563,100.0781 2184.5313,100.0781 Q2183.1875,100.0781 2182.5,101.1563 Q2181.8125,102.2188 2181.8125,104.3125 Q2181.8125,106.4063 2182.5,107.4844 Q2183.1875,108.5469 2184.5313,108.5469 Q2185.1563,108.5469 2185.75,108.2813 Q2186.3438,108 2186.9688,107.4219 L2186.9688,110.1406 Z "/><text fill="#000000" font-family="sans-serif" font-size="12" lengthAdjust="spacingAndGlyphs" textLength="140" x="2198" y="108.6543">TrackDataPlotterTests</text><line style="stroke: #A80036; stroke-width: 1.5;" x1="2170" x2="2340" y1="120.5" y2="120.5"/><line style="stroke: #A80036; stroke-width: 1.5;" x1="2170" x2="2340" y1="128.5" y2="128.5"/><!--MD5=[d3cb230b9040bd9072bb1f490e167601]
class MiddlewareCommInterface--><rect fill="#FEFECE" filter="url(#f12mn8o7ice2md)" height="107.2188" id="MiddlewareCommInterface" style="stroke: #A80036; stroke-width: 1.5;" width="198" x="2397" y="59"/><ellipse cx="2412" cy="75" fill="#B4A7E5" rx="11" ry="11" style="stroke: #A80036; stroke-width: 1.0;"/><path d="M2407.9219,70.7656 L2407.9219,68.6094 L2415.3125,68.6094 L2415.3125,70.7656 L2412.8438,70.7656 L2412.8438,78.8438 L2415.3125,78.8438 L2415.3125,81 L2407.9219,81 L2407.9219,78.8438 L2410.3906,78.8438 L2410.3906,70.7656 L2407.9219,70.7656 Z "/><text fill="#000000" font-family="sans-serif" font-size="12" font-style="italic" lengthAdjust="spacingAndGlyphs" textLength="166" x="2426" y="79.1543">MiddlewareCommInterface</text><line style="stroke: #A80036; stroke-width: 1.5;" x1="2398" x2="2594" y1="91" y2="91"/><line style="stroke: #A80036; stroke-width: 1.5;" x1="2398" x2="2594" y1="99" y2="99"/><ellipse cx="2408" cy="126.8047" fill="#84BE84" rx="3" ry="3" style="stroke: #038048; stroke-width: 1.0;"/><text fill="#000000" font-family="sans-serif" font-size="11" font-style="italic" lengthAdjust="spacingAndGlyphs" textLength="171" x="2417" y="130.0151">TrackData requestRfid(int rfid)</text><line style="stroke: #A80036; stroke-width: 1.0; stroke-dasharray: 1.0,2.0;" x1="2398" x2="2463" y1="113.4023" y2="113.4023"/><text fill="#000000" font-family="sans-serif" font-size="11" lengthAdjust="spacingAndGlyphs" textLength="66" x="2463" y="116.7104">Use Case 1</text><line style="stroke: #A80036; stroke-width: 1.0; stroke-dasharray: 1.0,2.0;" x1="2529" x2="2594" y1="113.4023" y2="113.4023"/><text fill="#000000" font-family="sans-serif" font-size="11" lengthAdjust="spacingAndGlyphs" textLength="0" x="2407" y="159.6245"/><line style="stroke: #A80036; stroke-width: 1.0; stroke-dasharray: 1.0,2.0;" x1="2398" x2="2463" y1="143.0117" y2="143.0117"/><text fill="#000000" font-family="sans-serif" font-size="11" lengthAdjust="spacingAndGlyphs" textLength="66" x="2463" y="146.3198">Use Case 2</text><line style="stroke: #A80036; stroke-width: 1.0; stroke-dasharray: 1.0,2.0;" x1="2529" x2="2594" y1="143.0117" y2="143.0117"/><!--MD5=[c986427b061286eff33e87a088ad4bf9]
class TrackDataPlotter--><rect fill="#FEFECE" filter="url(#f12mn8o7ice2md)" height="48" id="TrackDataPlotter" style="stroke: #A80036; stroke-width: 1.5;" width="138" x="2397" y="275"/><ellipse cx="2412" cy="291" fill="#ADD1B2" rx="11" ry="11" style="stroke: #A80036; stroke-width: 1.0;"/><path d="M2414.9688,296.6406 Q2414.3906,296.9375 2413.75,297.0781 Q2413.1094,297.2344 2412.4063,297.2344 Q2409.9063,297.2344 2408.5781,295.5938 Q2407.2656,293.9375 2407.2656,290.8125 Q2407.2656,287.6875 2408.5781,286.0313 Q2409.9063,284.375 2412.4063,284.375 Q2413.1094,284.375 2413.75,284.5313 Q2414.4063,284.6875 2414.9688,284.9844 L2414.9688,287.7031 Q2414.3438,287.125 2413.75,286.8594 Q2413.1563,286.5781 2412.5313,286.5781 Q2411.1875,286.5781 2410.5,287.6563 Q2409.8125,288.7188 2409.8125,290.8125 Q2409.8125,292.9063 2410.5,293.9844 Q2411.1875,295.0469 2412.5313,295.0469 Q2413.1563,295.0469 2413.75,294.7813 Q2414.3438,294.5 2414.9688,293.9219 L2414.9688,296.6406 Z "/><text fill="#000000" font-family="sans-serif" font-size="12" lengthAdjust="spacingAndGlyphs" textLength="106" x="2426" y="295.1543">TrackDataPlotter</text><line style="stroke: #A80036; stroke-width: 1.5;" x1="2398" x2="2534" y1="307" y2="307"/><line style="stroke: #A80036; stroke-width: 1.5;" x1="2398" x2="2534" y1="315" y2="315"/><!--MD5=[77bc37423dd8876786830fad4054e33b]
reverse link DisplayCommInterface to DisplayCommInterfaceImplementation--><path d="M172,171.82 C172,195.43 172,222.49 172,245.48 " fill="none" id="DisplayCommInterface&lt;-DisplayCommInterfaceImplementation" style="stroke: #A80036; stroke-width: 1.0; stroke-dasharray: 7.0,7.0;"/><polygon fill="none" points="165,171.73,172,151.73,179,171.73,165,171.73" style="stroke: #A80036; stroke-width: 1.0;"/><!--MD5=[4e991cf787e933c55089f97eae394828]
reverse link DisplayComm2WayInterface to DisplayComm2WayInterfaceImplementation--><path d="M530.18,171.17 C521.26,200.05 510.7,234.23 502.8,259.82 " fill="none" id="DisplayComm2WayInterface&lt;-DisplayComm2WayInterfaceImplementation" style="stroke: #A80036; stroke-width: 1.0; stroke-dasharray: 7.0,7.0;"/><polygon fill="none" points="523.6,168.77,536.19,151.73,536.97,172.9,523.6,168.77" style="stroke: #A80036; stroke-width: 1.0;"/><!--MD5=[5beed6c3c7e4a84a4bfaa95bdf8cce79]
reverse link DisplayCommManager to DisplayCommManagerImplementation--><path d="M894.55,171.62 C891.75,188.84 888.65,207.9 885.73,225.89 " fill="none" id="DisplayCommManager&lt;-DisplayCommManagerImplementation" style="stroke: #A80036; stroke-width: 1.0; stroke-dasharray: 7.0,7.0;"/><polygon fill="none" points="887.66,170.35,897.78,151.73,901.48,172.59,887.66,170.35" style="stroke: #A80036; stroke-width: 1.0;"/><!--MD5=[6aaeadb42451b39b4e2cdcf83e2bb4cd]
reverse link DisplayComm2WayInterface to DisplayComm2WayInterfaceStub--><path d="M652.16,158.98 C682.84,170.77 716.82,182.31 749,190 C896.36,225.24 940.98,189.38 1088,226 C1120.99,234.22 1155.96,247.24 1186.15,259.96 " fill="none" id="DisplayComm2WayInterface&lt;-DisplayComm2WayInterfaceStub" style="stroke: #A80036; stroke-width: 1.0; stroke-dasharray: 7.0,7.0;"/><polygon fill="none" points="649.56,165.48,633.52,151.64,654.7,152.46,649.56,165.48" style="stroke: #A80036; stroke-width: 1.0;"/><!--MD5=[9a02b467888c5123255f55ebe5217d7a]
link DisplayCommInterfaceImplementationTests to DisplayComm2WayInterfaceStub--><path d="M1277.48,136.87 C1275.56,166.35 1272.23,217.64 1269.83,254.44 " fill="none" id="DisplayCommInterfaceImplementationTests-&gt;DisplayComm2WayInterfaceStub" style="stroke: #A80036; stroke-width: 1.0; stroke-dasharray: 7.0,7.0;"/><polygon fill="#A80036" points="1269.49,259.76,1274.0483,251.0295,1269.8046,254.7699,1266.0641,250.5262,1269.49,259.76" style="stroke: #A80036; stroke-width: 1.0;"/><!--MD5=[0cd290e6298e838268680010d5032c0d]
link DisplayCommInterfaceImplementationTests to DisplayCommInterfaceImplementation--><path d="M1233.67,136.68 C1195.8,154.8 1139.83,178.73 1088,190 C755.82,262.2 653.8,143.64 324,226 C307.04,230.24 289.7,236.43 273.08,243.43 " fill="none" id="DisplayCommInterfaceImplementationTests-&gt;DisplayCommInterfaceImplementation" style="stroke: #A80036; stroke-width: 1.0; stroke-dasharray: 7.0,7.0;"/><polygon fill="#A80036" points="268.41,245.43,278.258,245.5613,273.0057,243.4604,275.1066,238.2081,268.41,245.43" style="stroke: #A80036; stroke-width: 1.0;"/><!--MD5=[e6e0d8b3e0f7bf14f11c0899b3ad37ae]
reverse link DisplayCommManager to DisplayCommManagerStub--><path d="M1012.2,158.7 C1043.9,170.46 1078.93,182.04 1112,190 C1242.13,221.31 1281.08,193.82 1411,226 C1445.1,234.44 1481.39,247.36 1512.91,259.92 " fill="none" id="DisplayCommManager&lt;-DisplayCommManagerStub" style="stroke: #A80036; stroke-width: 1.0; stroke-dasharray: 7.0,7.0;"/><polygon fill="none" points="1009.67,165.23,993.45,151.59,1014.63,152.14,1009.67,165.23" style="stroke: #A80036; stroke-width: 1.0;"/><!--MD5=[69695ace36e753468876c8d4fe5d2708]
link DisplayComm2WayInterfaceImplementationTests to DisplayCommManagerStub--><path d="M1627.82,136.87 C1622.55,166.35 1613.37,217.64 1606.79,254.44 " fill="none" id="DisplayComm2WayInterfaceImplementationTests-&gt;DisplayCommManagerStub" style="stroke: #A80036; stroke-width: 1.0; stroke-dasharray: 7.0,7.0;"/><polygon fill="#A80036" points="1605.84,259.76,1611.3729,251.6122,1606.7269,254.8393,1603.4998,250.1932,1605.84,259.76" style="stroke: #A80036; stroke-width: 1.0;"/><!--MD5=[ce67f838794c14794f693dd46a642b9a]
link DisplayComm2WayInterfaceImplementationTests to DisplayComm2WayInterfaceImplementation--><path d="M1588.55,136.53 C1551.93,154.69 1497.55,178.76 1447,190 C1104.78,266.12 1000.73,147.69 659,226 C628.45,233 596.46,245.32 568.69,257.81 " fill="none" id="DisplayComm2WayInterfaceImplementationTests-&gt;DisplayComm2WayInterfaceImplementation" style="stroke: #A80036; stroke-width: 1.0; stroke-dasharray: 7.0,7.0;"/><polygon fill="#A80036" points="563.91,259.98,573.7585,259.8972,568.4618,257.911,570.4481,252.6143,563.91,259.98" style="stroke: #A80036; stroke-width: 1.0;"/><!--MD5=[72cb9e2c0df516d67fcc7a3605b88acd]
reverse link MiddlewareCommInterface to MiddlewareCommInterfaceStub--><path d="M2385.47,175.58 C2375.9,180.58 2366.32,185.45 2357,190 C2305.96,214.95 2247.75,240.19 2200.25,259.99 " fill="none" id="MiddlewareCommInterface&lt;-MiddlewareCommInterfaceStub" style="stroke: #A80036; stroke-width: 1.0; stroke-dasharray: 7.0,7.0;"/><polygon fill="none" points="2382.24,169.37,2403.19,166.19,2388.79,181.74,2382.24,169.37" style="stroke: #A80036; stroke-width: 1.0;"/><!--MD5=[a3caa78d97a9caf08bd2afaaae1510f4]
link DisplayCommManagerImplementationTests to MiddlewareCommInterfaceStub--><path d="M1999.45,136.87 C2019.11,166.59 2053.42,218.48 2077.79,255.34 " fill="none" id="DisplayCommManagerImplementationTests-&gt;MiddlewareCommInterfaceStub" style="stroke: #A80036; stroke-width: 1.0; stroke-dasharray: 7.0,7.0;"/><polygon fill="#A80036" points="2080.71,259.76,2079.0844,250.0462,2077.953,255.5888,2072.4104,254.4574,2080.71,259.76" style="stroke: #A80036; stroke-width: 1.0;"/><!--MD5=[6f3abcadcd809ea193290ea1cf8b820a]
link DisplayCommManagerImplementationTests to DisplayCommManagerImplementation--><path d="M1944.72,136.68 C1911.82,154.79 1863,178.73 1817,190 C1512.27,264.66 1421.09,172.18 1112,226 C1100.46,228.01 1088.7,230.4 1076.89,233.07 " fill="none" id="DisplayCommManagerImplementationTests-&gt;DisplayCommManagerImplementation" style="stroke: #A80036; stroke-width: 1.0; stroke-dasharray: 7.0,7.0;"/><polygon fill="#A80036" points="1071.82,234.23,1081.4906,236.0955,1076.691,233.1015,1079.685,228.302,1071.82,234.23" style="stroke: #A80036; stroke-width: 1.0;"/><!--MD5=[f24e7409bf4fec90fef0ed7e05f90b9b]
link TrackDataPlotterTests to TrackDataPlotter--><path d="M2281.72,136.87 C2321.04,171.25 2394.28,235.28 2435.6,271.42 " fill="none" id="TrackDataPlotterTests-&gt;TrackDataPlotter" style="stroke: #A80036; stroke-width: 1.0; stroke-dasharray: 7.0,7.0;"/><polygon fill="#A80036" points="2439.49,274.82,2435.3316,265.8921,2435.72,271.5356,2430.0765,271.924,2439.49,274.82" style="stroke: #A80036; stroke-width: 1.0;"/><!--MD5=[62578951e9f2debae8a6beff90949287]
@startuml Display02Packages_Closure


package edu.oakland.production.display02 {
    
}



package edu.oakland.production.display02 {
    interface DisplayCommInterface {
        __
        .. Use Case 1 ..
        {abstract} + TrackData receiveRfidRequest(int rfidNum)
    }
}








package edu.oakland.production.display02 {
    interface DisplayComm2WayInterface {
        __
        .. Use Case 1 ..
        {abstract} + TrackData passRfidRequest(int rfidNum)
    }
}








package edu.oakland.production.display02 {
    interface DisplayCommManager {
        __
        .. Use Case 1 ..
        {abstract} + TrackData evaluateRfidRequest(int rfidNum)
    }
}








package edu.oakland.production.display02 {
    class DisplayCommInterfaceImplementation {
        __
        .. Use Case 1 ..
        {abstract} + TrackData receiveRfidRequest(int rfidNum)
        .. Use Case 2 ..

    }
}


DisplayCommInterfaceImplementation .up.|> DisplayCommInterface







package edu.oakland.production.display02 {
    class DisplayComm2WayInterfaceImplementation {
        __
        .. Use Case 1 ..
        {abstract} + LocationDataPoint passRfidRequest(int rfidNum)
    }
}


DisplayComm2WayInterfaceImplementation .up.|> DisplayComm2WayInterface







package edu.oakland.production.display02 {
    class DisplayCommManagerImplementation {
        __
        .. Use Case 1 ..
        {abstract} + TrackData evaluateRfidRequest(int rfidNum)
        {abstract} + TrackData passRequestToMiddlewareCommInterface(int rfidNum)
        {abstract} + void receiveRequestFromDisplay2WayInterface(int rfidNum)

        .. Use Case 2 ..

    }
}


DisplayCommManagerImplementation .up.|> DisplayCommManager







package edu.oakland.test.display02 {
    
}



package edu.oakland.test.display02 {
    class DisplayCommInterfaceImplementationTests {

    }
}




package edu.oakland.test.display02 {
    class DisplayComm2WayInterfaceStub {
        __
        .. Use Case 1 ..
        {abstract} + TrackData passRfidRequest(int rfidNum)
    }
}


DisplayComm2WayInterfaceStub .up.|> DisplayComm2WayInterface



DisplayCommInterfaceImplementationTests ..> DisplayComm2WayInterfaceStub

DisplayCommInterfaceImplementationTests ..> DisplayCommInterfaceImplementation





package edu.oakland.test.display02 {
    class DisplayComm2WayInterfaceImplementationTests {

    }
}




package edu.oakland.test.display02 {
    class DisplayCommManagerStub {
        __
        .. Use Case 1 ..
        + TrackData evaluateRfidRequest(int rfidNum)
    }
}


DisplayCommManagerStub .up.|> DisplayCommManager



DisplayComm2WayInterfaceImplementationTests ..> DisplayCommManagerStub

DisplayComm2WayInterfaceImplementationTests ..> DisplayComm2WayInterfaceImplementation





package edu.oakland.test.display02 {
    class DisplayCommManagerImplementationTests {

    }
}




package edu.oakland.test.display02 {
    class MiddlewareCommInterfaceStub {
        __
        .. Use Case 1 ..
        + TrackData requestRfid(int rfid)
    }
}






package edu.oakland.production.middleware02 {
    interface MiddlewareCommInterface {
        __
        .. Use Case 1 ..
        {abstract} + TrackData requestRfid(int rfid)
        .. Use Case 2 ..

    }
}






MiddlewareCommInterfaceStub .up.|> MiddlewareCommInterface

DisplayCommManagerImplementationTests ..> MiddlewareCommInterfaceStub

DisplayCommManagerImplementationTests ..> DisplayCommManagerImplementation





package edu.oakland.test.display02 {
    class TrackDataPlotterTests {

    }
}




package edu.oakland.helper.display02 {
    class TrackDataPlotter {
        
    }
}






TrackDataPlotterTests ..> TrackDataPlotter





package edu.oakland.helper.display02 {
    
}



@enduml

PlantUML version 1.2020.02(Sun Mar 01 10:22:07 GMT 2020)
(GPL source distribution)
Java Runtime: OpenJDK Runtime Environment
JVM: OpenJDK 64-Bit Server VM
Java Version: 11.0.9+11-Ubuntu-0ubuntu1
Operating System: Linux
Default Encoding: ANSI_X3.4-1968
Language: en
Country: US
--></g></svg>