<?xml version="1.0" encoding="UTF-8" standalone="no"?><svg xmlns="http://www.w3.org/2000/svg" xmlns:xlink="http://www.w3.org/1999/xlink" contentScriptType="application/ecmascript" contentStyleType="text/css" height="663px" preserveAspectRatio="none" style="width:2855px;height:663px;" version="1.1" viewBox="0 0 2855 663" width="2855px" zoomAndPan="magnify"><defs><filter height="300%" id="f13r7tf950sa2k" width="300%" x="-1" y="-1"><feGaussianBlur result="blurOut" stdDeviation="2.0"/><feColorMatrix in="blurOut" result="blurOut2" type="matrix" values="0 0 0 0 0 0 0 0 0 0 0 0 0 0 0 0 0 0 .4 0"/><feOffset dx="4.0" dy="4.0" in="blurOut2" result="blurOut3"/><feBlend in="SourceGraphic" in2="blurOut3" mode="normal"/></filter></defs><g><!--MD5=[fe59aae6f7bfe371a9c197ec1f7f843a]
cluster edu.oakland.production.display02--><polygon fill="#FFFFFF" filter="url(#f13r7tf950sa2k)" points="22,103,295,103,302,125.2969,1425,125.2969,1425,513,22,513,22,103" style="stroke: #000000; stroke-width: 1.5;"/><line style="stroke: #000000; stroke-width: 1.5;" x1="22" x2="302" y1="125.2969" y2="125.2969"/><text fill="#000000" font-family="sans-serif" font-size="14" font-weight="bold" lengthAdjust="spacingAndGlyphs" textLength="267" x="26" y="117.9951">edu.oakland.production.display02</text><!--MD5=[9258003ec405d300d3379b4a3d8dd6ad]
cluster edu.oakland.test.display02--><polygon fill="#FFFFFF" filter="url(#f13r7tf950sa2k)" points="1449,118,1667,118,1674,140.2969,2487,140.2969,2487,651,1449,651,1449,118" style="stroke: #000000; stroke-width: 1.5;"/><line style="stroke: #000000; stroke-width: 1.5;" x1="1449" x2="1674" y1="140.2969" y2="140.2969"/><text fill="#000000" font-family="sans-serif" font-size="14" font-weight="bold" lengthAdjust="spacingAndGlyphs" textLength="212" x="1453" y="132.9951">edu.oakland.test.display02</text><!--MD5=[a502031b5a5384de0a21e6ee820fd3b2]
cluster edu.oakland.helper.display02--><polygon fill="#FFFFFF" filter="url(#f13r7tf950sa2k)" points="2511,24,2749,24,2756,46.2969,2833,46.2969,2833,311,2511,311,2511,24" style="stroke: #000000; stroke-width: 1.5;"/><line style="stroke: #000000; stroke-width: 1.5;" x1="2511" x2="2756" y1="46.2969" y2="46.2969"/><text fill="#000000" font-family="sans-serif" font-size="14" font-weight="bold" lengthAdjust="spacingAndGlyphs" textLength="232" x="2515" y="38.9951">edu.oakland.helper.display02</text><!--MD5=[c8d1e3134fecb0c949fd2a76cc0bb992]
class DisplayCommInterface--><rect fill="#FEFECE" filter="url(#f13r7tf950sa2k)" height="77.6094" id="DisplayCommInterface" style="stroke: #A80036; stroke-width: 1.5;" width="268" x="89" y="138"/><ellipse cx="149.25" cy="154" fill="#B4A7E5" rx="11" ry="11" style="stroke: #A80036; stroke-width: 1.0;"/><path d="M145.1719,149.7656 L145.1719,147.6094 L152.5625,147.6094 L152.5625,149.7656 L150.0938,149.7656 L150.0938,157.8438 L152.5625,157.8438 L152.5625,160 L145.1719,160 L145.1719,157.8438 L147.6406,157.8438 L147.6406,149.7656 L145.1719,149.7656 Z "/><text fill="#000000" font-family="sans-serif" font-size="12" font-style="italic" lengthAdjust="spacingAndGlyphs" textLength="139" x="169.75" y="158.1543">DisplayCommInterface</text><line style="stroke: #A80036; stroke-width: 1.5;" x1="90" x2="356" y1="170" y2="170"/><line style="stroke: #A80036; stroke-width: 1.5;" x1="90" x2="356" y1="178" y2="178"/><ellipse cx="100" cy="205.8047" fill="#84BE84" rx="3" ry="3" style="stroke: #038048; stroke-width: 1.0;"/><text fill="#000000" font-family="sans-serif" font-size="11" font-style="italic" lengthAdjust="spacingAndGlyphs" textLength="242" x="109" y="209.0151">TrackData receiveRfidRequest(int rfidNum)</text><line style="stroke: #A80036; stroke-width: 1.0; stroke-dasharray: 1.0,2.0;" x1="90" x2="190" y1="192.4023" y2="192.4023"/><text fill="#000000" font-family="sans-serif" font-size="11" lengthAdjust="spacingAndGlyphs" textLength="66" x="190" y="195.7104">Use Case 1</text><line style="stroke: #A80036; stroke-width: 1.0; stroke-dasharray: 1.0,2.0;" x1="256" x2="356" y1="192.4023" y2="192.4023"/><!--MD5=[f6b51b5f862da5ce226c62e411e84628]
class DisplayComm2WayInterface--><rect fill="#FEFECE" filter="url(#f13r7tf950sa2k)" height="77.6094" id="DisplayComm2WayInterface" style="stroke: #A80036; stroke-width: 1.5;" width="252" x="392" y="138"/><ellipse cx="427.7" cy="154" fill="#B4A7E5" rx="11" ry="11" style="stroke: #A80036; stroke-width: 1.0;"/><path d="M423.6219,149.7656 L423.6219,147.6094 L431.0125,147.6094 L431.0125,149.7656 L428.5438,149.7656 L428.5438,157.8438 L431.0125,157.8438 L431.0125,160 L423.6219,160 L423.6219,157.8438 L426.0906,157.8438 L426.0906,149.7656 L423.6219,149.7656 Z "/><text fill="#000000" font-family="sans-serif" font-size="12" font-style="italic" lengthAdjust="spacingAndGlyphs" textLength="174" x="446.3" y="158.1543">DisplayComm2WayInterface</text><line style="stroke: #A80036; stroke-width: 1.5;" x1="393" x2="643" y1="170" y2="170"/><line style="stroke: #A80036; stroke-width: 1.5;" x1="393" x2="643" y1="178" y2="178"/><ellipse cx="403" cy="205.8047" fill="#84BE84" rx="3" ry="3" style="stroke: #038048; stroke-width: 1.0;"/><text fill="#000000" font-family="sans-serif" font-size="11" font-style="italic" lengthAdjust="spacingAndGlyphs" textLength="226" x="412" y="209.0151">TrackData passRfidRequest(int rfidNum)</text><line style="stroke: #A80036; stroke-width: 1.0; stroke-dasharray: 1.0,2.0;" x1="393" x2="485" y1="192.4023" y2="192.4023"/><text fill="#000000" font-family="sans-serif" font-size="11" lengthAdjust="spacingAndGlyphs" textLength="66" x="485" y="195.7104">Use Case 1</text><line style="stroke: #A80036; stroke-width: 1.0; stroke-dasharray: 1.0,2.0;" x1="551" x2="643" y1="192.4023" y2="192.4023"/><!--MD5=[6aeb72f2773d7cabb45309482beeff0a]
class DisplayCommManager--><rect fill="#FEFECE" filter="url(#f13r7tf950sa2k)" height="77.6094" id="DisplayCommManager" style="stroke: #A80036; stroke-width: 1.5;" width="275" x="679.5" y="138"/><ellipse cx="744.25" cy="154" fill="#B4A7E5" rx="11" ry="11" style="stroke: #A80036; stroke-width: 1.0;"/><path d="M740.1719,149.7656 L740.1719,147.6094 L747.5625,147.6094 L747.5625,149.7656 L745.0938,149.7656 L745.0938,157.8438 L747.5625,157.8438 L747.5625,160 L740.1719,160 L740.1719,157.8438 L742.6406,157.8438 L742.6406,149.7656 L740.1719,149.7656 Z "/><text fill="#000000" font-family="sans-serif" font-size="12" font-style="italic" lengthAdjust="spacingAndGlyphs" textLength="137" x="764.75" y="158.1543">DisplayCommManager</text><line style="stroke: #A80036; stroke-width: 1.5;" x1="680.5" x2="953.5" y1="170" y2="170"/><line style="stroke: #A80036; stroke-width: 1.5;" x1="680.5" x2="953.5" y1="178" y2="178"/><ellipse cx="690.5" cy="205.8047" fill="#84BE84" rx="3" ry="3" style="stroke: #038048; stroke-width: 1.0;"/><text fill="#000000" font-family="sans-serif" font-size="11" font-style="italic" lengthAdjust="spacingAndGlyphs" textLength="249" x="699.5" y="209.0151">TrackData evaluateRfidRequest(int rfidNum)</text><line style="stroke: #A80036; stroke-width: 1.0; stroke-dasharray: 1.0,2.0;" x1="680.5" x2="784" y1="192.4023" y2="192.4023"/><text fill="#000000" font-family="sans-serif" font-size="11" lengthAdjust="spacingAndGlyphs" textLength="66" x="784" y="195.7104">Use Case 1</text><line style="stroke: #A80036; stroke-width: 1.0; stroke-dasharray: 1.0,2.0;" x1="850" x2="953.5" y1="192.4023" y2="192.4023"/><!--MD5=[a35092e604da7274febf4e2cf9a25087]
class DisplayCommInterfaceImplementation--><rect fill="#FEFECE" filter="url(#f13r7tf950sa2k)" height="128.8281" id="DisplayCommInterfaceImplementation" style="stroke: #A80036; stroke-width: 1.5;" width="369" x="38.5" y="361.5"/><ellipse cx="101.25" cy="377.5" fill="#ADD1B2" rx="11" ry="11" style="stroke: #A80036; stroke-width: 1.0;"/><path d="M104.2188,383.1406 Q103.6406,383.4375 103,383.5781 Q102.3594,383.7344 101.6563,383.7344 Q99.1563,383.7344 97.8281,382.0938 Q96.5156,380.4375 96.5156,377.3125 Q96.5156,374.1875 97.8281,372.5313 Q99.1563,370.875 101.6563,370.875 Q102.3594,370.875 103,371.0313 Q103.6563,371.1875 104.2188,371.4844 L104.2188,374.2031 Q103.5938,373.625 103,373.3594 Q102.4063,373.0781 101.7813,373.0781 Q100.4375,373.0781 99.75,374.1563 Q99.0625,375.2188 99.0625,377.3125 Q99.0625,379.4063 99.75,380.4844 Q100.4375,381.5469 101.7813,381.5469 Q102.4063,381.5469 103,381.2813 Q103.5938,381 104.2188,380.4219 L104.2188,383.1406 Z "/><text fill="#000000" font-family="sans-serif" font-size="12" lengthAdjust="spacingAndGlyphs" textLength="235" x="121.75" y="381.6543">DisplayCommInterfaceImplementation</text><line style="stroke: #A80036; stroke-width: 1.5;" x1="39.5" x2="406.5" y1="393.5" y2="393.5"/><rect fill="none" height="6" style="stroke: #C82930; stroke-width: 1.0;" width="6" x="46.5" y="401.5"/><text fill="#000000" font-family="sans-serif" font-size="11" lengthAdjust="spacingAndGlyphs" textLength="207" x="58.5" y="407.7104">DisplayComm2WayInterface receiver</text><line style="stroke: #A80036; stroke-width: 1.5;" x1="39.5" x2="406.5" y1="414.3047" y2="414.3047"/><ellipse cx="49.5" cy="425.3047" fill="#84BE84" rx="3" ry="3" style="stroke: #038048; stroke-width: 1.0;"/><text fill="#000000" font-family="sans-serif" font-size="11" lengthAdjust="spacingAndGlyphs" textLength="343" x="58.5" y="428.5151">DisplayCommInterface(DisplayComm2WayInterface receiver)</text><ellipse cx="49.5" cy="454.9141" fill="#84BE84" rx="3" ry="3" style="stroke: #038048; stroke-width: 1.0;"/><text fill="#000000" font-family="sans-serif" font-size="11" lengthAdjust="spacingAndGlyphs" textLength="240" x="58.5" y="458.1245">TrackData receiveRfidRequest(int rfidNum)</text><rect fill="#F24D5C" height="6" style="stroke: #C82930; stroke-width: 1.0;" width="6" x="46.5" y="464.7188"/><text fill="#000000" font-family="sans-serif" font-size="11" lengthAdjust="spacingAndGlyphs" textLength="290" x="58.5" y="470.9292">TrackData passToComm2WayInterface(int rfidNum)</text><text fill="#000000" font-family="sans-serif" font-size="11" lengthAdjust="spacingAndGlyphs" textLength="0" x="62.5" y="483.7339"/><line style="stroke: #A80036; stroke-width: 1.0; stroke-dasharray: 1.0,2.0;" x1="39.5" x2="190" y1="441.5117" y2="441.5117"/><text fill="#000000" font-family="sans-serif" font-size="11" lengthAdjust="spacingAndGlyphs" textLength="66" x="190" y="444.8198">Use Case 1</text><line style="stroke: #A80036; stroke-width: 1.0; stroke-dasharray: 1.0,2.0;" x1="256" x2="406.5" y1="441.5117" y2="441.5117"/><!--MD5=[46657c2900260d4d40350fe3f8c544df]
class DisplayComm2WayInterfaceImplementation--><rect fill="#FEFECE" filter="url(#f13r7tf950sa2k)" height="128.8281" id="DisplayComm2WayInterfaceImplementation" style="stroke: #A80036; stroke-width: 1.5;" width="461" x="442.5" y="361.5"/><ellipse cx="534.75" cy="377.5" fill="#ADD1B2" rx="11" ry="11" style="stroke: #A80036; stroke-width: 1.0;"/><path d="M537.7188,383.1406 Q537.1406,383.4375 536.5,383.5781 Q535.8594,383.7344 535.1563,383.7344 Q532.6563,383.7344 531.3281,382.0938 Q530.0156,380.4375 530.0156,377.3125 Q530.0156,374.1875 531.3281,372.5313 Q532.6563,370.875 535.1563,370.875 Q535.8594,370.875 536.5,371.0313 Q537.1563,371.1875 537.7188,371.4844 L537.7188,374.2031 Q537.0938,373.625 536.5,373.3594 Q535.9063,373.0781 535.2813,373.0781 Q533.9375,373.0781 533.25,374.1563 Q532.5625,375.2188 532.5625,377.3125 Q532.5625,379.4063 533.25,380.4844 Q533.9375,381.5469 535.2813,381.5469 Q535.9063,381.5469 536.5,381.2813 Q537.0938,381 537.7188,380.4219 L537.7188,383.1406 Z "/><text fill="#000000" font-family="sans-serif" font-size="12" lengthAdjust="spacingAndGlyphs" textLength="268" x="555.25" y="381.6543">DisplayComm2WayInterfaceImplementation</text><line style="stroke: #A80036; stroke-width: 1.5;" x1="443.5" x2="902.5" y1="393.5" y2="393.5"/><rect fill="none" height="6" style="stroke: #C82930; stroke-width: 1.0;" width="6" x="450.5" y="401.5"/><text fill="#000000" font-family="sans-serif" font-size="11" lengthAdjust="spacingAndGlyphs" textLength="182" x="462.5" y="407.7104">DisplayCommManager manager</text><line style="stroke: #A80036; stroke-width: 1.5;" x1="443.5" x2="902.5" y1="414.3047" y2="414.3047"/><ellipse cx="453.5" cy="425.3047" fill="#84BE84" rx="3" ry="3" style="stroke: #038048; stroke-width: 1.0;"/><text fill="#000000" font-family="sans-serif" font-size="11" lengthAdjust="spacingAndGlyphs" textLength="435" x="462.5" y="428.5151">DisplayComm2WayInterfaceImplementation(DisplayCommManager manager)</text><ellipse cx="453.5" cy="454.9141" fill="#84BE84" rx="3" ry="3" style="stroke: #038048; stroke-width: 1.0;"/><text fill="#000000" font-family="sans-serif" font-size="11" lengthAdjust="spacingAndGlyphs" textLength="227" x="462.5" y="458.1245">TrackData passRfidRequest(int rfidNum)</text><rect fill="#F24D5C" height="6" style="stroke: #C82930; stroke-width: 1.0;" width="6" x="450.5" y="464.7188"/><text fill="#000000" font-family="sans-serif" font-size="11" lengthAdjust="spacingAndGlyphs" textLength="269" x="462.5" y="470.9292">void determineUserRequestFormat(int rfidNum)</text><rect fill="#F24D5C" height="6" style="stroke: #C82930; stroke-width: 1.0;" width="6" x="450.5" y="477.5234"/><text fill="#000000" font-family="sans-serif" font-size="11" lengthAdjust="spacingAndGlyphs" textLength="342" x="462.5" y="483.7339">void receiveRequestFromDisplayCommInterface(int rfidNum)</text><line style="stroke: #A80036; stroke-width: 1.0; stroke-dasharray: 1.0,2.0;" x1="443.5" x2="640" y1="441.5117" y2="441.5117"/><text fill="#000000" font-family="sans-serif" font-size="11" lengthAdjust="spacingAndGlyphs" textLength="66" x="640" y="444.8198">Use Case 1</text><line style="stroke: #A80036; stroke-width: 1.0; stroke-dasharray: 1.0,2.0;" x1="706" x2="902.5" y1="441.5117" y2="441.5117"/><!--MD5=[3a27b63ddb357afc5dde5581215f51f9]
class DisplayCommManagerImplementation--><rect fill="#FEFECE" filter="url(#f13r7tf950sa2k)" height="141.6328" id="DisplayCommManagerImplementation" style="stroke: #A80036; stroke-width: 1.5;" width="470" x="939" y="355"/><ellipse cx="1052.75" cy="371" fill="#ADD1B2" rx="11" ry="11" style="stroke: #A80036; stroke-width: 1.0;"/><path d="M1055.7188,376.6406 Q1055.1406,376.9375 1054.5,377.0781 Q1053.8594,377.2344 1053.1563,377.2344 Q1050.6563,377.2344 1049.3281,375.5938 Q1048.0156,373.9375 1048.0156,370.8125 Q1048.0156,367.6875 1049.3281,366.0313 Q1050.6563,364.375 1053.1563,364.375 Q1053.8594,364.375 1054.5,364.5313 Q1055.1563,364.6875 1055.7188,364.9844 L1055.7188,367.7031 Q1055.0938,367.125 1054.5,366.8594 Q1053.9063,366.5781 1053.2813,366.5781 Q1051.9375,366.5781 1051.25,367.6563 Q1050.5625,368.7188 1050.5625,370.8125 Q1050.5625,372.9063 1051.25,373.9844 Q1051.9375,375.0469 1053.2813,375.0469 Q1053.9063,375.0469 1054.5,374.7813 Q1055.0938,374.5 1055.7188,373.9219 L1055.7188,376.6406 Z "/><text fill="#000000" font-family="sans-serif" font-size="12" lengthAdjust="spacingAndGlyphs" textLength="234" x="1073.25" y="375.1543">DisplayCommManagerImplementation</text><line style="stroke: #A80036; stroke-width: 1.5;" x1="940" x2="1408" y1="387" y2="387"/><rect fill="none" height="6" style="stroke: #C82930; stroke-width: 1.0;" width="6" x="947" y="395"/><text fill="#000000" font-family="sans-serif" font-size="11" lengthAdjust="spacingAndGlyphs" textLength="221" x="959" y="401.2104">MiddlewareCommInterface middleware</text><line style="stroke: #A80036; stroke-width: 1.5;" x1="940" x2="1408" y1="407.8047" y2="407.8047"/><ellipse cx="950" cy="418.8047" fill="#84BE84" rx="3" ry="3" style="stroke: #038048; stroke-width: 1.0;"/><text fill="#000000" font-family="sans-serif" font-size="11" lengthAdjust="spacingAndGlyphs" textLength="444" x="959" y="422.0151">DisplayCommManagerImplementation(MiddlewareCommInterface middleware)</text><ellipse cx="950" cy="448.4141" fill="#84BE84" rx="3" ry="3" style="stroke: #038048; stroke-width: 1.0;"/><text fill="#000000" font-family="sans-serif" font-size="11" lengthAdjust="spacingAndGlyphs" textLength="368" x="959" y="451.6245">TrackData receiveRequestFromDisplay2WayInterface(int rfidNum)</text><rect fill="#F24D5C" height="6" style="stroke: #C82930; stroke-width: 1.0;" width="6" x="947" y="458.2188"/><text fill="#000000" font-family="sans-serif" font-size="11" lengthAdjust="spacingAndGlyphs" textLength="247" x="959" y="464.4292">TrackData evaluateRfidRequest(int rfidNum)</text><rect fill="#F24D5C" height="6" style="stroke: #C82930; stroke-width: 1.0;" width="6" x="947" y="471.0234"/><text fill="#000000" font-family="sans-serif" font-size="11" lengthAdjust="spacingAndGlyphs" textLength="371" x="959" y="477.2339">TrackData passRequestToMiddlewareCommInterface(int rfidNum)</text><text fill="#000000" font-family="sans-serif" font-size="11" lengthAdjust="spacingAndGlyphs" textLength="0" x="963" y="490.0386"/><line style="stroke: #A80036; stroke-width: 1.0; stroke-dasharray: 1.0,2.0;" x1="940" x2="1141" y1="435.0117" y2="435.0117"/><text fill="#000000" font-family="sans-serif" font-size="11" lengthAdjust="spacingAndGlyphs" textLength="66" x="1141" y="438.3198">Use Case 1</text><line style="stroke: #A80036; stroke-width: 1.0; stroke-dasharray: 1.0,2.0;" x1="1207" x2="1408" y1="435.0117" y2="435.0117"/><!--MD5=[d454b7777f115113290d89683d7a426c]
class DisplayCommInterfaceImplementationTests--><rect fill="#FEFECE" filter="url(#f13r7tf950sa2k)" height="48" id="DisplayCommInterfaceImplementationTests" style="stroke: #A80036; stroke-width: 1.5;" width="301" x="1465.5" y="153"/><ellipse cx="1480.5" cy="169" fill="#ADD1B2" rx="11" ry="11" style="stroke: #A80036; stroke-width: 1.0;"/><path d="M1483.4688,174.6406 Q1482.8906,174.9375 1482.25,175.0781 Q1481.6094,175.2344 1480.9063,175.2344 Q1478.4063,175.2344 1477.0781,173.5938 Q1475.7656,171.9375 1475.7656,168.8125 Q1475.7656,165.6875 1477.0781,164.0313 Q1478.4063,162.375 1480.9063,162.375 Q1481.6094,162.375 1482.25,162.5313 Q1482.9063,162.6875 1483.4688,162.9844 L1483.4688,165.7031 Q1482.8438,165.125 1482.25,164.8594 Q1481.6563,164.5781 1481.0313,164.5781 Q1479.6875,164.5781 1479,165.6563 Q1478.3125,166.7188 1478.3125,168.8125 Q1478.3125,170.9063 1479,171.9844 Q1479.6875,173.0469 1481.0313,173.0469 Q1481.6563,173.0469 1482.25,172.7813 Q1482.8438,172.5 1483.4688,171.9219 L1483.4688,174.6406 Z "/><text fill="#000000" font-family="sans-serif" font-size="12" lengthAdjust="spacingAndGlyphs" textLength="269" x="1494.5" y="173.1543">DisplayCommInterfaceImplementationTests</text><line style="stroke: #A80036; stroke-width: 1.5;" x1="1466.5" x2="1765.5" y1="185" y2="185"/><line style="stroke: #A80036; stroke-width: 1.5;" x1="1466.5" x2="1765.5" y1="193" y2="193"/><!--MD5=[178181f4c7684560c711246055fc01d3]
class DisplayComm2WayInterfaceImplementationTests--><rect fill="#FEFECE" filter="url(#f13r7tf950sa2k)" height="48" id="DisplayComm2WayInterfaceImplementationTests" style="stroke: #A80036; stroke-width: 1.5;" width="334" x="1802" y="153"/><ellipse cx="1817" cy="169" fill="#ADD1B2" rx="11" ry="11" style="stroke: #A80036; stroke-width: 1.0;"/><path d="M1819.9688,174.6406 Q1819.3906,174.9375 1818.75,175.0781 Q1818.1094,175.2344 1817.4063,175.2344 Q1814.9063,175.2344 1813.5781,173.5938 Q1812.2656,171.9375 1812.2656,168.8125 Q1812.2656,165.6875 1813.5781,164.0313 Q1814.9063,162.375 1817.4063,162.375 Q1818.1094,162.375 1818.75,162.5313 Q1819.4063,162.6875 1819.9688,162.9844 L1819.9688,165.7031 Q1819.3438,165.125 1818.75,164.8594 Q1818.1563,164.5781 1817.5313,164.5781 Q1816.1875,164.5781 1815.5,165.6563 Q1814.8125,166.7188 1814.8125,168.8125 Q1814.8125,170.9063 1815.5,171.9844 Q1816.1875,173.0469 1817.5313,173.0469 Q1818.1563,173.0469 1818.75,172.7813 Q1819.3438,172.5 1819.9688,171.9219 L1819.9688,174.6406 Z "/><text fill="#000000" font-family="sans-serif" font-size="12" lengthAdjust="spacingAndGlyphs" textLength="302" x="1831" y="173.1543">DisplayComm2WayInterfaceImplementationTests</text><line style="stroke: #A80036; stroke-width: 1.5;" x1="1803" x2="2135" y1="185" y2="185"/><line style="stroke: #A80036; stroke-width: 1.5;" x1="1803" x2="2135" y1="193" y2="193"/><!--MD5=[937d6d8ff87a99d0d5dcd66ee05a1fa4]
class DisplayCommManagerImplementationTests--><rect fill="#FEFECE" filter="url(#f13r7tf950sa2k)" height="48" id="DisplayCommManagerImplementationTests" style="stroke: #A80036; stroke-width: 1.5;" width="300" x="2171" y="153"/><ellipse cx="2186" cy="169" fill="#ADD1B2" rx="11" ry="11" style="stroke: #A80036; stroke-width: 1.0;"/><path d="M2188.9688,174.6406 Q2188.3906,174.9375 2187.75,175.0781 Q2187.1094,175.2344 2186.4063,175.2344 Q2183.9063,175.2344 2182.5781,173.5938 Q2181.2656,171.9375 2181.2656,168.8125 Q2181.2656,165.6875 2182.5781,164.0313 Q2183.9063,162.375 2186.4063,162.375 Q2187.1094,162.375 2187.75,162.5313 Q2188.4063,162.6875 2188.9688,162.9844 L2188.9688,165.7031 Q2188.3438,165.125 2187.75,164.8594 Q2187.1563,164.5781 2186.5313,164.5781 Q2185.1875,164.5781 2184.5,165.6563 Q2183.8125,166.7188 2183.8125,168.8125 Q2183.8125,170.9063 2184.5,171.9844 Q2185.1875,173.0469 2186.5313,173.0469 Q2187.1563,173.0469 2187.75,172.7813 Q2188.3438,172.5 2188.9688,171.9219 L2188.9688,174.6406 Z "/><text fill="#000000" font-family="sans-serif" font-size="12" lengthAdjust="spacingAndGlyphs" textLength="268" x="2200" y="173.1543">DisplayCommManagerImplementationTests</text><line style="stroke: #A80036; stroke-width: 1.5;" x1="2172" x2="2470" y1="185" y2="185"/><line style="stroke: #A80036; stroke-width: 1.5;" x1="2172" x2="2470" y1="193" y2="193"/><!--MD5=[930c8140e7c1cb8e71aa7cd49967748e]
class TrackDataPlotterTests--><rect fill="#FEFECE" filter="url(#f13r7tf950sa2k)" height="48" id="TrackDataPlotterTests" style="stroke: #A80036; stroke-width: 1.5;" width="172" x="1530" y="402"/><ellipse cx="1545" cy="418" fill="#ADD1B2" rx="11" ry="11" style="stroke: #A80036; stroke-width: 1.0;"/><path d="M1547.9688,423.6406 Q1547.3906,423.9375 1546.75,424.0781 Q1546.1094,424.2344 1545.4063,424.2344 Q1542.9063,424.2344 1541.5781,422.5938 Q1540.2656,420.9375 1540.2656,417.8125 Q1540.2656,414.6875 1541.5781,413.0313 Q1542.9063,411.375 1545.4063,411.375 Q1546.1094,411.375 1546.75,411.5313 Q1547.4063,411.6875 1547.9688,411.9844 L1547.9688,414.7031 Q1547.3438,414.125 1546.75,413.8594 Q1546.1563,413.5781 1545.5313,413.5781 Q1544.1875,413.5781 1543.5,414.6563 Q1542.8125,415.7188 1542.8125,417.8125 Q1542.8125,419.9063 1543.5,420.9844 Q1544.1875,422.0469 1545.5313,422.0469 Q1546.1563,422.0469 1546.75,421.7813 Q1547.3438,421.5 1547.9688,420.9219 L1547.9688,423.6406 Z "/><text fill="#000000" font-family="sans-serif" font-size="12" lengthAdjust="spacingAndGlyphs" textLength="140" x="1559" y="422.1543">TrackDataPlotterTests</text><line style="stroke: #A80036; stroke-width: 1.5;" x1="1531" x2="1701" y1="434" y2="434"/><line style="stroke: #A80036; stroke-width: 1.5;" x1="1531" x2="1701" y1="442" y2="442"/><!--MD5=[a333ac13e0fdf2a5898aafabd38d3c1b]
class DisplayComm2WayInterfaceStub--><rect fill="#FEFECE" filter="url(#f13r7tf950sa2k)" height="77.6094" id="DisplayComm2WayInterfaceStub" style="stroke: #A80036; stroke-width: 1.5;" width="252" x="1737" y="387"/><ellipse cx="1761" cy="403" fill="#ADD1B2" rx="11" ry="11" style="stroke: #A80036; stroke-width: 1.0;"/><path d="M1763.9688,408.6406 Q1763.3906,408.9375 1762.75,409.0781 Q1762.1094,409.2344 1761.4063,409.2344 Q1758.9063,409.2344 1757.5781,407.5938 Q1756.2656,405.9375 1756.2656,402.8125 Q1756.2656,399.6875 1757.5781,398.0313 Q1758.9063,396.375 1761.4063,396.375 Q1762.1094,396.375 1762.75,396.5313 Q1763.4063,396.6875 1763.9688,396.9844 L1763.9688,399.7031 Q1763.3438,399.125 1762.75,398.8594 Q1762.1563,398.5781 1761.5313,398.5781 Q1760.1875,398.5781 1759.5,399.6563 Q1758.8125,400.7188 1758.8125,402.8125 Q1758.8125,404.9063 1759.5,405.9844 Q1760.1875,407.0469 1761.5313,407.0469 Q1762.1563,407.0469 1762.75,406.7813 Q1763.3438,406.5 1763.9688,405.9219 L1763.9688,408.6406 Z "/><text fill="#000000" font-family="sans-serif" font-size="12" lengthAdjust="spacingAndGlyphs" textLength="200" x="1777" y="407.1543">DisplayComm2WayInterfaceStub</text><line style="stroke: #A80036; stroke-width: 1.5;" x1="1738" x2="1988" y1="419" y2="419"/><line style="stroke: #A80036; stroke-width: 1.5;" x1="1738" x2="1988" y1="427" y2="427"/><ellipse cx="1748" cy="454.8047" fill="#84BE84" rx="3" ry="3" style="stroke: #038048; stroke-width: 1.0;"/><text fill="#000000" font-family="sans-serif" font-size="11" font-style="italic" lengthAdjust="spacingAndGlyphs" textLength="226" x="1757" y="458.0151">TrackData passRfidRequest(int rfidNum)</text><line style="stroke: #A80036; stroke-width: 1.0; stroke-dasharray: 1.0,2.0;" x1="1738" x2="1830" y1="441.4023" y2="441.4023"/><text fill="#000000" font-family="sans-serif" font-size="11" lengthAdjust="spacingAndGlyphs" textLength="66" x="1830" y="444.7104">Use Case 1</text><line style="stroke: #A80036; stroke-width: 1.0; stroke-dasharray: 1.0,2.0;" x1="1896" x2="1988" y1="441.4023" y2="441.4023"/><!--MD5=[2970358178d6cf57fc5a801b39eb8d0b]
class DisplayCommManagerStub--><rect fill="#FEFECE" filter="url(#f13r7tf950sa2k)" height="77.6094" id="DisplayCommManagerStub" style="stroke: #A80036; stroke-width: 1.5;" width="273" x="2024.5" y="387"/><ellipse cx="2073.75" cy="403" fill="#ADD1B2" rx="11" ry="11" style="stroke: #A80036; stroke-width: 1.0;"/><path d="M2076.7188,408.6406 Q2076.1406,408.9375 2075.5,409.0781 Q2074.8594,409.2344 2074.1563,409.2344 Q2071.6563,409.2344 2070.3281,407.5938 Q2069.0156,405.9375 2069.0156,402.8125 Q2069.0156,399.6875 2070.3281,398.0313 Q2071.6563,396.375 2074.1563,396.375 Q2074.8594,396.375 2075.5,396.5313 Q2076.1563,396.6875 2076.7188,396.9844 L2076.7188,399.7031 Q2076.0938,399.125 2075.5,398.8594 Q2074.9063,398.5781 2074.2813,398.5781 Q2072.9375,398.5781 2072.25,399.6563 Q2071.5625,400.7188 2071.5625,402.8125 Q2071.5625,404.9063 2072.25,405.9844 Q2072.9375,407.0469 2074.2813,407.0469 Q2074.9063,407.0469 2075.5,406.7813 Q2076.0938,406.5 2076.7188,405.9219 L2076.7188,408.6406 Z "/><text fill="#000000" font-family="sans-serif" font-size="12" lengthAdjust="spacingAndGlyphs" textLength="166" x="2094.25" y="407.1543">DisplayCommManagerStub</text><line style="stroke: #A80036; stroke-width: 1.5;" x1="2025.5" x2="2296.5" y1="419" y2="419"/><line style="stroke: #A80036; stroke-width: 1.5;" x1="2025.5" x2="2296.5" y1="427" y2="427"/><ellipse cx="2035.5" cy="454.8047" fill="#84BE84" rx="3" ry="3" style="stroke: #038048; stroke-width: 1.0;"/><text fill="#000000" font-family="sans-serif" font-size="11" lengthAdjust="spacingAndGlyphs" textLength="247" x="2044.5" y="458.0151">TrackData evaluateRfidRequest(int rfidNum)</text><line style="stroke: #A80036; stroke-width: 1.0; stroke-dasharray: 1.0,2.0;" x1="2025.5" x2="2128" y1="441.4023" y2="441.4023"/><text fill="#000000" font-family="sans-serif" font-size="11" lengthAdjust="spacingAndGlyphs" textLength="66" x="2128" y="444.7104">Use Case 1</text><line style="stroke: #A80036; stroke-width: 1.0; stroke-dasharray: 1.0,2.0;" x1="2194" x2="2296.5" y1="441.4023" y2="441.4023"/><!--MD5=[cf56a65163663c6c6c7b84cd7c204b97]
class MiddlewareCommInterfaceStub--><rect fill="#FEFECE" filter="url(#f13r7tf950sa2k)" height="77.6094" id="MiddlewareCommInterfaceStub" style="stroke: #A80036; stroke-width: 1.5;" width="225" x="1503.5" y="557"/><ellipse cx="1518.5" cy="573" fill="#ADD1B2" rx="11" ry="11" style="stroke: #A80036; stroke-width: 1.0;"/><path d="M1521.4688,578.6406 Q1520.8906,578.9375 1520.25,579.0781 Q1519.6094,579.2344 1518.9063,579.2344 Q1516.4063,579.2344 1515.0781,577.5938 Q1513.7656,575.9375 1513.7656,572.8125 Q1513.7656,569.6875 1515.0781,568.0313 Q1516.4063,566.375 1518.9063,566.375 Q1519.6094,566.375 1520.25,566.5313 Q1520.9063,566.6875 1521.4688,566.9844 L1521.4688,569.7031 Q1520.8438,569.125 1520.25,568.8594 Q1519.6563,568.5781 1519.0313,568.5781 Q1517.6875,568.5781 1517,569.6563 Q1516.3125,570.7188 1516.3125,572.8125 Q1516.3125,574.9063 1517,575.9844 Q1517.6875,577.0469 1519.0313,577.0469 Q1519.6563,577.0469 1520.25,576.7813 Q1520.8438,576.5 1521.4688,575.9219 L1521.4688,578.6406 Z "/><text fill="#000000" font-family="sans-serif" font-size="12" lengthAdjust="spacingAndGlyphs" textLength="193" x="1532.5" y="577.1543">MiddlewareCommInterfaceStub</text><line style="stroke: #A80036; stroke-width: 1.5;" x1="1504.5" x2="1727.5" y1="589" y2="589"/><line style="stroke: #A80036; stroke-width: 1.5;" x1="1504.5" x2="1727.5" y1="597" y2="597"/><ellipse cx="1514.5" cy="624.8047" fill="#84BE84" rx="3" ry="3" style="stroke: #038048; stroke-width: 1.0;"/><text fill="#000000" font-family="sans-serif" font-size="11" lengthAdjust="spacingAndGlyphs" textLength="171" x="1523.5" y="628.0151">TrackData requestRfid(int rfid)</text><line style="stroke: #A80036; stroke-width: 1.0; stroke-dasharray: 1.0,2.0;" x1="1504.5" x2="1583" y1="611.4023" y2="611.4023"/><text fill="#000000" font-family="sans-serif" font-size="11" lengthAdjust="spacingAndGlyphs" textLength="66" x="1583" y="614.7104">Use Case 1</text><line style="stroke: #A80036; stroke-width: 1.0; stroke-dasharray: 1.0,2.0;" x1="1649" x2="1727.5" y1="611.4023" y2="611.4023"/><!--MD5=[c986427b061286eff33e87a088ad4bf9]
class TrackDataPlotter--><rect fill="#FEFECE" filter="url(#f13r7tf950sa2k)" height="236.0703" id="TrackDataPlotter" style="stroke: #A80036; stroke-width: 1.5;" width="291" x="2526.5" y="59"/><ellipse cx="2614.75" cy="75" fill="#ADD1B2" rx="11" ry="11" style="stroke: #A80036; stroke-width: 1.0;"/><path d="M2617.7188,80.6406 Q2617.1406,80.9375 2616.5,81.0781 Q2615.8594,81.2344 2615.1563,81.2344 Q2612.6563,81.2344 2611.3281,79.5938 Q2610.0156,77.9375 2610.0156,74.8125 Q2610.0156,71.6875 2611.3281,70.0313 Q2612.6563,68.375 2615.1563,68.375 Q2615.8594,68.375 2616.5,68.5313 Q2617.1563,68.6875 2617.7188,68.9844 L2617.7188,71.7031 Q2617.0938,71.125 2616.5,70.8594 Q2615.9063,70.5781 2615.2813,70.5781 Q2613.9375,70.5781 2613.25,71.6563 Q2612.5625,72.7188 2612.5625,74.8125 Q2612.5625,76.9063 2613.25,77.9844 Q2613.9375,79.0469 2615.2813,79.0469 Q2615.9063,79.0469 2616.5,78.7813 Q2617.0938,78.5 2617.7188,77.9219 L2617.7188,80.6406 Z "/><text fill="#000000" font-family="sans-serif" font-size="12" lengthAdjust="spacingAndGlyphs" textLength="106" x="2635.25" y="79.1543">TrackDataPlotter</text><line style="stroke: #A80036; stroke-width: 1.5;" x1="2527.5" x2="2816.5" y1="91" y2="91"/><rect fill="none" height="6" style="stroke: #C82930; stroke-width: 1.0;" width="6" x="2534.5" y="99"/><text fill="#000000" font-family="sans-serif" font-size="11" lengthAdjust="spacingAndGlyphs" textLength="86" x="2546.5" y="105.2104">TrackData data</text><rect fill="none" height="6" style="stroke: #C82930; stroke-width: 1.0;" width="6" x="2534.5" y="111.8047"/><text fill="#000000" font-family="sans-serif" font-size="11" lengthAdjust="spacingAndGlyphs" textLength="97" x="2546.5" y="118.0151">XYDataset points</text><rect fill="none" height="6" style="stroke: #C82930; stroke-width: 1.0;" width="6" x="2534.5" y="124.6094"/><text fill="#000000" font-family="sans-serif" font-size="11" lengthAdjust="spacingAndGlyphs" textLength="82" x="2546.5" y="130.8198">XYDataset line</text><rect fill="none" height="6" style="stroke: #C82930; stroke-width: 1.0;" width="6" x="2534.5" y="137.4141"/><text fill="#000000" font-family="sans-serif" font-size="11" lengthAdjust="spacingAndGlyphs" textLength="99" x="2546.5" y="143.6245">JFreeChart chart1</text><rect fill="none" height="6" style="stroke: #C82930; stroke-width: 1.0;" width="6" x="2534.5" y="150.2188"/><text fill="#000000" font-family="sans-serif" font-size="11" lengthAdjust="spacingAndGlyphs" textLength="99" x="2546.5" y="156.4292">JFreeChart chart2</text><rect fill="none" height="6" style="stroke: #C82930; stroke-width: 1.0;" width="6" x="2534.5" y="163.0234"/><text fill="#000000" font-family="sans-serif" font-size="11" lengthAdjust="spacingAndGlyphs" textLength="60" x="2546.5" y="169.2339">XYPlot plot</text><rect fill="none" height="6" style="stroke: #C82930; stroke-width: 1.0;" width="6" x="2534.5" y="175.8281"/><text fill="#000000" font-family="sans-serif" font-size="11" lengthAdjust="spacingAndGlyphs" textLength="133" x="2546.5" y="182.0386">ChartPanel chartPanel1</text><rect fill="none" height="6" style="stroke: #C82930; stroke-width: 1.0;" width="6" x="2534.5" y="188.6328"/><text fill="#000000" font-family="sans-serif" font-size="11" lengthAdjust="spacingAndGlyphs" textLength="133" x="2546.5" y="194.8433">ChartPanel chartPanel2</text><text fill="#000000" font-family="sans-serif" font-size="11" lengthAdjust="spacingAndGlyphs" textLength="6" x="2546.5" y="207.6479">_</text><ellipse cx="2537.5" cy="217.2422" fill="#84BE84" rx="3" ry="3" style="stroke: #038048; stroke-width: 1.0;"/><text fill="#000000" font-family="sans-serif" font-size="11" lengthAdjust="spacingAndGlyphs" textLength="188" x="2546.5" y="220.4526">TrackDataPlotter(TrackData data)</text><rect fill="#F24D5C" height="6" style="stroke: #C82930; stroke-width: 1.0;" width="6" x="2534.5" y="243.8516"/><text fill="#000000" font-family="sans-serif" font-size="11" lengthAdjust="spacingAndGlyphs" textLength="138" x="2546.5" y="250.062">XYSeries getTrackData()</text><rect fill="#F24D5C" height="6" style="stroke: #C82930; stroke-width: 1.0;" width="6" x="2534.5" y="256.6563"/><text fill="#000000" font-family="sans-serif" font-size="11" lengthAdjust="spacingAndGlyphs" textLength="208" x="2546.5" y="262.8667">XYSeries calculateLine(int[] x, int[] y)</text><rect fill="#F24D5C" height="6" style="stroke: #C82930; stroke-width: 1.0;" width="6" x="2534.5" y="269.4609"/><text fill="#000000" font-family="sans-serif" font-size="11" lengthAdjust="spacingAndGlyphs" textLength="262" x="2546.5" y="275.6714">int[] extractLatFromTrackData(TrackData data)</text><rect fill="#F24D5C" height="6" style="stroke: #C82930; stroke-width: 1.0;" width="6" x="2534.5" y="282.2656"/><text fill="#000000" font-family="sans-serif" font-size="11" lengthAdjust="spacingAndGlyphs" textLength="265" x="2546.5" y="288.4761">int[] extractLngFromTrackData(TrackData data)</text><line style="stroke: #A80036; stroke-width: 1.0; stroke-dasharray: 1.0,2.0;" x1="2527.5" x2="2639" y1="233.4492" y2="233.4492"/><text fill="#000000" font-family="sans-serif" font-size="11" lengthAdjust="spacingAndGlyphs" textLength="66" x="2639" y="236.7573">Use Case 1</text><line style="stroke: #A80036; stroke-width: 1.0; stroke-dasharray: 1.0,2.0;" x1="2705" x2="2816.5" y1="233.4492" y2="233.4492"/><!--MD5=[c9341cce37a1a8bee80ad1365349afef]
link DisplayCommInterface to DisplayComm2WayInterface--><!--MD5=[7835b7bc4a765bae53638d0402d5d5e6]
link DisplayComm2WayInterface to DisplayCommManager--><!--MD5=[7d92106ecb9088e13e6754b44ec571b0]
link DisplayCommInterface to DisplayCommInterfaceImplementation--><!--MD5=[51e28edbb9f88779af066724948e7048]
link DisplayCommInterfaceImplementation to DisplayComm2WayInterfaceImplementation--><!--MD5=[ea4cd417ea9ea2c0dbdbdf4e4e3d21de]
link DisplayComm2WayInterfaceImplementation to DisplayCommManagerImplementation--><!--MD5=[64e942b00478e9eef28430a914bbb142]
link DisplayCommInterfaceImplementationTests to DisplayComm2WayInterfaceImplementationTests--><!--MD5=[8dbe1f493aaf019419238fc4702b450a]
link DisplayComm2WayInterfaceImplementationTests to DisplayCommManagerImplementationTests--><!--MD5=[e81de192ca7bc9df286fd4cb58be8b46]
link DisplayCommInterfaceImplementationTests to TrackDataPlotterTests--><!--MD5=[8b898a72046de76ad345afd61090e7dd]
link TrackDataPlotterTests to DisplayComm2WayInterfaceStub--><!--MD5=[c9c9241041dbc47aa626fe1afc095e03]
link DisplayComm2WayInterfaceStub to DisplayCommManagerStub--><!--MD5=[61d9c608a539b4614526ad59aeb385a2]
link TrackDataPlotterTests to MiddlewareCommInterfaceStub--><!--MD5=[08a5862f3d753a2a0d84e5ce8d9c2659]
@startuml Display02Packages


package edu.oakland.production.display02 {

}


package edu.oakland.production.display02 {
    interface DisplayCommInterface {
        __
        .. Use Case 1 ..
        {abstract} + TrackData receiveRfidRequest(int rfidNum)
    }
}


package edu.oakland.production.display02 {
    interface DisplayComm2WayInterface {
        __
        .. Use Case 1 ..
        {abstract} + TrackData passRfidRequest(int rfidNum)
    }
}


package edu.oakland.production.display02 {
    interface DisplayCommManager {
        __
        .. Use Case 1 ..
        {abstract} + TrackData evaluateRfidRequest(int rfidNum)
    }
}


package edu.oakland.production.display02 {
    class DisplayCommInterfaceImplementation {
        - DisplayComm2WayInterface receiver
        __
        + DisplayCommInterface(DisplayComm2WayInterface receiver)
        .. Use Case 1 ..
        + TrackData receiveRfidRequest(int rfidNum)
        - TrackData passToComm2WayInterface(int rfidNum)

    }
}


package edu.oakland.production.display02 {
    class DisplayComm2WayInterfaceImplementation {
        - DisplayCommManager manager
        __
        + DisplayComm2WayInterfaceImplementation(DisplayCommManager manager)
        .. Use Case 1 ..
        + TrackData passRfidRequest(int rfidNum)
        - void determineUserRequestFormat(int rfidNum)
        - void receiveRequestFromDisplayCommInterface(int rfidNum)
    }
}


package edu.oakland.production.display02 {
    class DisplayCommManagerImplementation {
        - MiddlewareCommInterface middleware
        __
        + DisplayCommManagerImplementation(MiddlewareCommInterface middleware)
        .. Use Case 1 ..
        + TrackData receiveRequestFromDisplay2WayInterface(int rfidNum)
        - TrackData evaluateRfidRequest(int rfidNum)
        - TrackData passRequestToMiddlewareCommInterface(int rfidNum)
        
    }
}



package edu.oakland.test.display02 {
    
}


package edu.oakland.test.display02 {
    class DisplayCommInterfaceImplementationTests {

    }
}


package edu.oakland.test.display02 {
    class DisplayComm2WayInterfaceImplementationTests {

    }
}


package edu.oakland.test.display02 {
    class DisplayCommManagerImplementationTests {

    }
}


package edu.oakland.test.display02 {
    class TrackDataPlotterTests {

    }
}


package edu.oakland.test.display02 {
    class DisplayComm2WayInterfaceStub {
        __
        .. Use Case 1 ..
        {abstract} + TrackData passRfidRequest(int rfidNum)
    }
}


package edu.oakland.test.display02 {
    class DisplayCommManagerStub {
        __
        .. Use Case 1 ..
        + TrackData evaluateRfidRequest(int rfidNum)
    }
}


package edu.oakland.test.display02 {
    class MiddlewareCommInterfaceStub {
        __
        .. Use Case 1 ..
        + TrackData requestRfid(int rfid)
    }
}



package edu.oakland.helper.display02 {

}


package edu.oakland.helper.display02 {
    class TrackDataPlotter {
        - TrackData data
        - XYDataset points
        - XYDataset line
        - JFreeChart chart1
        - JFreeChart chart2
        - XYPlot plot
        - ChartPanel chartPanel1
        - ChartPanel chartPanel2
        _
        + TrackDataPlotter(TrackData data)
        .. Use Case 1 ..
        - XYSeries getTrackData()
        - XYSeries calculateLine(int[] x, int[] y)
        - int[] extractLatFromTrackData(TrackData data)
        - int[] extractLngFromTrackData(TrackData data)
    }
}



@enduml

PlantUML version 1.2020.02(Sun Mar 01 10:22:07 GMT 2020)
(GPL source distribution)
Java Runtime: OpenJDK Runtime Environment
JVM: OpenJDK 64-Bit Server VM
Java Version: 11.0.9+11-Ubuntu-0ubuntu1
Operating System: Linux
Default Encoding: ANSI_X3.4-1968
Language: en
Country: US
--></g></svg>