<?xml version="1.0" encoding="UTF-8" standalone="no"?><svg xmlns="http://www.w3.org/2000/svg" xmlns:xlink="http://www.w3.org/1999/xlink" contentScriptType="application/ecmascript" contentStyleType="text/css" height="470px" preserveAspectRatio="none" style="width:2384px;height:470px;" version="1.1" viewBox="0 0 2384 470" width="2384px" zoomAndPan="magnify"><defs><filter height="300%" id="f5os83sk3br9l" width="300%" x="-1" y="-1"><feGaussianBlur result="blurOut" stdDeviation="2.0"/><feColorMatrix in="blurOut" result="blurOut2" type="matrix" values="0 0 0 0 0 0 0 0 0 0 0 0 0 0 0 0 0 0 .4 0"/><feOffset dx="4.0" dy="4.0" in="blurOut2" result="blurOut3"/><feBlend in="SourceGraphic" in2="blurOut3" mode="normal"/></filter></defs><g><!--MD5=[fe59aae6f7bfe371a9c197ec1f7f843a]
cluster edu.oakland.production.display02--><polygon fill="#FFFFFF" filter="url(#f5os83sk3br9l)" points="22,24,295,24,302,46.2969,1028,46.2969,1028,320,22,320,22,24" style="stroke: #000000; stroke-width: 1.5;"/><line style="stroke: #000000; stroke-width: 1.5;" x1="22" x2="302" y1="46.2969" y2="46.2969"/><text fill="#000000" font-family="sans-serif" font-size="14" font-weight="bold" lengthAdjust="spacingAndGlyphs" textLength="267" x="26" y="38.9951">edu.oakland.production.display02</text><!--MD5=[9258003ec405d300d3379b4a3d8dd6ad]
cluster edu.oakland.test.display02--><polygon fill="#FFFFFF" filter="url(#f5os83sk3br9l)" points="1052,39,1270,39,1277,61.2969,2090,61.2969,2090,458,1052,458,1052,39" style="stroke: #000000; stroke-width: 1.5;"/><line style="stroke: #000000; stroke-width: 1.5;" x1="1052" x2="1277" y1="61.2969" y2="61.2969"/><text fill="#000000" font-family="sans-serif" font-size="14" font-weight="bold" lengthAdjust="spacingAndGlyphs" textLength="212" x="1056" y="53.9951">edu.oakland.test.display02</text><!--MD5=[a502031b5a5384de0a21e6ee820fd3b2]
cluster edu.oakland.helper.display02--><polygon fill="#FFFFFF" filter="url(#f5os83sk3br9l)" points="2114,39,2352,39,2359,61.2969,2362,61.2969,2362,138,2114,138,2114,39" style="stroke: #000000; stroke-width: 1.5;"/><line style="stroke: #000000; stroke-width: 1.5;" x1="2114" x2="2359" y1="61.2969" y2="61.2969"/><text fill="#000000" font-family="sans-serif" font-size="14" font-weight="bold" lengthAdjust="spacingAndGlyphs" textLength="232" x="2118" y="53.9951">edu.oakland.helper.display02</text><!--MD5=[c8d1e3134fecb0c949fd2a76cc0bb992]
class DisplayCommInterface--><rect fill="#FEFECE" filter="url(#f5os83sk3br9l)" height="77.6094" id="DisplayCommInterface" style="stroke: #A80036; stroke-width: 1.5;" width="268" x="38" y="59"/><ellipse cx="98.25" cy="75" fill="#B4A7E5" rx="11" ry="11" style="stroke: #A80036; stroke-width: 1.0;"/><path d="M94.1719,70.7656 L94.1719,68.6094 L101.5625,68.6094 L101.5625,70.7656 L99.0938,70.7656 L99.0938,78.8438 L101.5625,78.8438 L101.5625,81 L94.1719,81 L94.1719,78.8438 L96.6406,78.8438 L96.6406,70.7656 L94.1719,70.7656 Z "/><text fill="#000000" font-family="sans-serif" font-size="12" font-style="italic" lengthAdjust="spacingAndGlyphs" textLength="139" x="118.75" y="79.1543">DisplayCommInterface</text><line style="stroke: #A80036; stroke-width: 1.5;" x1="39" x2="305" y1="91" y2="91"/><line style="stroke: #A80036; stroke-width: 1.5;" x1="39" x2="305" y1="99" y2="99"/><ellipse cx="49" cy="126.8047" fill="#84BE84" rx="3" ry="3" style="stroke: #038048; stroke-width: 1.0;"/><text fill="#000000" font-family="sans-serif" font-size="11" font-style="italic" lengthAdjust="spacingAndGlyphs" textLength="242" x="58" y="130.0151">TrackData receiveRfidRequest(int rfidNum)</text><line style="stroke: #A80036; stroke-width: 1.0; stroke-dasharray: 1.0,2.0;" x1="39" x2="139" y1="113.4023" y2="113.4023"/><text fill="#000000" font-family="sans-serif" font-size="11" lengthAdjust="spacingAndGlyphs" textLength="66" x="139" y="116.7104">Use Case 1</text><line style="stroke: #A80036; stroke-width: 1.0; stroke-dasharray: 1.0,2.0;" x1="205" x2="305" y1="113.4023" y2="113.4023"/><!--MD5=[f6b51b5f862da5ce226c62e411e84628]
class DisplayComm2WayInterface--><rect fill="#FEFECE" filter="url(#f5os83sk3br9l)" height="77.6094" id="DisplayComm2WayInterface" style="stroke: #A80036; stroke-width: 1.5;" width="252" x="341" y="59"/><ellipse cx="376.7" cy="75" fill="#B4A7E5" rx="11" ry="11" style="stroke: #A80036; stroke-width: 1.0;"/><path d="M372.6219,70.7656 L372.6219,68.6094 L380.0125,68.6094 L380.0125,70.7656 L377.5438,70.7656 L377.5438,78.8438 L380.0125,78.8438 L380.0125,81 L372.6219,81 L372.6219,78.8438 L375.0906,78.8438 L375.0906,70.7656 L372.6219,70.7656 Z "/><text fill="#000000" font-family="sans-serif" font-size="12" font-style="italic" lengthAdjust="spacingAndGlyphs" textLength="174" x="395.3" y="79.1543">DisplayComm2WayInterface</text><line style="stroke: #A80036; stroke-width: 1.5;" x1="342" x2="592" y1="91" y2="91"/><line style="stroke: #A80036; stroke-width: 1.5;" x1="342" x2="592" y1="99" y2="99"/><ellipse cx="352" cy="126.8047" fill="#84BE84" rx="3" ry="3" style="stroke: #038048; stroke-width: 1.0;"/><text fill="#000000" font-family="sans-serif" font-size="11" font-style="italic" lengthAdjust="spacingAndGlyphs" textLength="226" x="361" y="130.0151">TrackData passRfidRequest(int rfidNum)</text><line style="stroke: #A80036; stroke-width: 1.0; stroke-dasharray: 1.0,2.0;" x1="342" x2="434" y1="113.4023" y2="113.4023"/><text fill="#000000" font-family="sans-serif" font-size="11" lengthAdjust="spacingAndGlyphs" textLength="66" x="434" y="116.7104">Use Case 1</text><line style="stroke: #A80036; stroke-width: 1.0; stroke-dasharray: 1.0,2.0;" x1="500" x2="592" y1="113.4023" y2="113.4023"/><!--MD5=[6aeb72f2773d7cabb45309482beeff0a]
class DisplayCommManager--><rect fill="#FEFECE" filter="url(#f5os83sk3br9l)" height="77.6094" id="DisplayCommManager" style="stroke: #A80036; stroke-width: 1.5;" width="275" x="628.5" y="59"/><ellipse cx="693.25" cy="75" fill="#B4A7E5" rx="11" ry="11" style="stroke: #A80036; stroke-width: 1.0;"/><path d="M689.1719,70.7656 L689.1719,68.6094 L696.5625,68.6094 L696.5625,70.7656 L694.0938,70.7656 L694.0938,78.8438 L696.5625,78.8438 L696.5625,81 L689.1719,81 L689.1719,78.8438 L691.6406,78.8438 L691.6406,70.7656 L689.1719,70.7656 Z "/><text fill="#000000" font-family="sans-serif" font-size="12" font-style="italic" lengthAdjust="spacingAndGlyphs" textLength="137" x="713.75" y="79.1543">DisplayCommManager</text><line style="stroke: #A80036; stroke-width: 1.5;" x1="629.5" x2="902.5" y1="91" y2="91"/><line style="stroke: #A80036; stroke-width: 1.5;" x1="629.5" x2="902.5" y1="99" y2="99"/><ellipse cx="639.5" cy="126.8047" fill="#84BE84" rx="3" ry="3" style="stroke: #038048; stroke-width: 1.0;"/><text fill="#000000" font-family="sans-serif" font-size="11" font-style="italic" lengthAdjust="spacingAndGlyphs" textLength="249" x="648.5" y="130.0151">TrackData evaluateRfidRequest(int rfidNum)</text><line style="stroke: #A80036; stroke-width: 1.0; stroke-dasharray: 1.0,2.0;" x1="629.5" x2="733" y1="113.4023" y2="113.4023"/><text fill="#000000" font-family="sans-serif" font-size="11" lengthAdjust="spacingAndGlyphs" textLength="66" x="733" y="116.7104">Use Case 1</text><line style="stroke: #A80036; stroke-width: 1.0; stroke-dasharray: 1.0,2.0;" x1="799" x2="902.5" y1="113.4023" y2="113.4023"/><!--MD5=[a35092e604da7274febf4e2cf9a25087]
class DisplayCommInterfaceImplementation--><rect fill="#FEFECE" filter="url(#f5os83sk3br9l)" height="107.2188" id="DisplayCommInterfaceImplementation" style="stroke: #A80036; stroke-width: 1.5;" width="268" x="38" y="197"/><ellipse cx="53.45" cy="213" fill="#ADD1B2" rx="11" ry="11" style="stroke: #A80036; stroke-width: 1.0;"/><path d="M56.4188,218.6406 Q55.8406,218.9375 55.2,219.0781 Q54.5594,219.2344 53.8563,219.2344 Q51.3563,219.2344 50.0281,217.5938 Q48.7156,215.9375 48.7156,212.8125 Q48.7156,209.6875 50.0281,208.0313 Q51.3563,206.375 53.8563,206.375 Q54.5594,206.375 55.2,206.5313 Q55.8563,206.6875 56.4188,206.9844 L56.4188,209.7031 Q55.7938,209.125 55.2,208.8594 Q54.6063,208.5781 53.9813,208.5781 Q52.6375,208.5781 51.95,209.6563 Q51.2625,210.7188 51.2625,212.8125 Q51.2625,214.9063 51.95,215.9844 Q52.6375,217.0469 53.9813,217.0469 Q54.6063,217.0469 55.2,216.7813 Q55.7938,216.5 56.4188,215.9219 L56.4188,218.6406 Z "/><text fill="#000000" font-family="sans-serif" font-size="12" lengthAdjust="spacingAndGlyphs" textLength="235" x="67.55" y="217.1543">DisplayCommInterfaceImplementation</text><line style="stroke: #A80036; stroke-width: 1.5;" x1="39" x2="305" y1="229" y2="229"/><line style="stroke: #A80036; stroke-width: 1.5;" x1="39" x2="305" y1="237" y2="237"/><ellipse cx="49" cy="264.8047" fill="#84BE84" rx="3" ry="3" style="stroke: #038048; stroke-width: 1.0;"/><text fill="#000000" font-family="sans-serif" font-size="11" font-style="italic" lengthAdjust="spacingAndGlyphs" textLength="242" x="58" y="268.0151">TrackData receiveRfidRequest(int rfidNum)</text><line style="stroke: #A80036; stroke-width: 1.0; stroke-dasharray: 1.0,2.0;" x1="39" x2="139" y1="251.4023" y2="251.4023"/><text fill="#000000" font-family="sans-serif" font-size="11" lengthAdjust="spacingAndGlyphs" textLength="66" x="139" y="254.7104">Use Case 1</text><line style="stroke: #A80036; stroke-width: 1.0; stroke-dasharray: 1.0,2.0;" x1="205" x2="305" y1="251.4023" y2="251.4023"/><text fill="#000000" font-family="sans-serif" font-size="11" lengthAdjust="spacingAndGlyphs" textLength="0" x="48" y="297.6245"/><line style="stroke: #A80036; stroke-width: 1.0; stroke-dasharray: 1.0,2.0;" x1="39" x2="139" y1="281.0117" y2="281.0117"/><text fill="#000000" font-family="sans-serif" font-size="11" lengthAdjust="spacingAndGlyphs" textLength="66" x="139" y="284.3198">Use Case 2</text><line style="stroke: #A80036; stroke-width: 1.0; stroke-dasharray: 1.0,2.0;" x1="205" x2="305" y1="281.0117" y2="281.0117"/><!--MD5=[46657c2900260d4d40350fe3f8c544df]
class DisplayComm2WayInterfaceImplementation--><rect fill="#FEFECE" filter="url(#f5os83sk3br9l)" height="103.2188" id="DisplayComm2WayInterfaceImplementation" style="stroke: #A80036; stroke-width: 1.5;" width="370" x="341" y="199"/><ellipse cx="387.75" cy="215" fill="#ADD1B2" rx="11" ry="11" style="stroke: #A80036; stroke-width: 1.0;"/><path d="M390.7188,220.6406 Q390.1406,220.9375 389.5,221.0781 Q388.8594,221.2344 388.1563,221.2344 Q385.6563,221.2344 384.3281,219.5938 Q383.0156,217.9375 383.0156,214.8125 Q383.0156,211.6875 384.3281,210.0313 Q385.6563,208.375 388.1563,208.375 Q388.8594,208.375 389.5,208.5313 Q390.1563,208.6875 390.7188,208.9844 L390.7188,211.7031 Q390.0938,211.125 389.5,210.8594 Q388.9063,210.5781 388.2813,210.5781 Q386.9375,210.5781 386.25,211.6563 Q385.5625,212.7188 385.5625,214.8125 Q385.5625,216.9063 386.25,217.9844 Q386.9375,219.0469 388.2813,219.0469 Q388.9063,219.0469 389.5,218.7813 Q390.0938,218.5 390.7188,217.9219 L390.7188,220.6406 Z "/><text fill="#000000" font-family="sans-serif" font-size="12" lengthAdjust="spacingAndGlyphs" textLength="268" x="408.25" y="219.1543">DisplayComm2WayInterfaceImplementation</text><line style="stroke: #A80036; stroke-width: 1.5;" x1="342" x2="710" y1="231" y2="231"/><line style="stroke: #A80036; stroke-width: 1.5;" x1="342" x2="710" y1="239" y2="239"/><ellipse cx="352" cy="266.8047" fill="#84BE84" rx="3" ry="3" style="stroke: #038048; stroke-width: 1.0;"/><text fill="#000000" font-family="sans-serif" font-size="11" font-style="italic" lengthAdjust="spacingAndGlyphs" textLength="226" x="361" y="270.0151">TrackData passRfidRequest(int rfidNum)</text><ellipse cx="352" cy="279.6094" fill="#84BE84" rx="3" ry="3" style="stroke: #038048; stroke-width: 1.0;"/><text fill="#000000" font-family="sans-serif" font-size="11" font-style="italic" lengthAdjust="spacingAndGlyphs" textLength="269" x="361" y="282.8198">void determineUserRequestFormat(int rfidNum)</text><ellipse cx="352" cy="292.4141" fill="#84BE84" rx="3" ry="3" style="stroke: #038048; stroke-width: 1.0;"/><text fill="#000000" font-family="sans-serif" font-size="11" font-style="italic" lengthAdjust="spacingAndGlyphs" textLength="344" x="361" y="295.6245">void receiveRequestFromDisplayCommInterface(int rfidNum)</text><line style="stroke: #A80036; stroke-width: 1.0; stroke-dasharray: 1.0,2.0;" x1="342" x2="493" y1="253.4023" y2="253.4023"/><text fill="#000000" font-family="sans-serif" font-size="11" lengthAdjust="spacingAndGlyphs" textLength="66" x="493" y="256.7104">Use Case 1</text><line style="stroke: #A80036; stroke-width: 1.0; stroke-dasharray: 1.0,2.0;" x1="559" x2="710" y1="253.4023" y2="253.4023"/><!--MD5=[3a27b63ddb357afc5dde5581215f51f9]
class DisplayCommManagerImplementation--><rect fill="#FEFECE" filter="url(#f5os83sk3br9l)" height="107.2188" id="DisplayCommManagerImplementation" style="stroke: #A80036; stroke-width: 1.5;" width="266" x="746" y="197"/><ellipse cx="761" cy="213" fill="#ADD1B2" rx="11" ry="11" style="stroke: #A80036; stroke-width: 1.0;"/><path d="M763.9688,218.6406 Q763.3906,218.9375 762.75,219.0781 Q762.1094,219.2344 761.4063,219.2344 Q758.9063,219.2344 757.5781,217.5938 Q756.2656,215.9375 756.2656,212.8125 Q756.2656,209.6875 757.5781,208.0313 Q758.9063,206.375 761.4063,206.375 Q762.1094,206.375 762.75,206.5313 Q763.4063,206.6875 763.9688,206.9844 L763.9688,209.7031 Q763.3438,209.125 762.75,208.8594 Q762.1563,208.5781 761.5313,208.5781 Q760.1875,208.5781 759.5,209.6563 Q758.8125,210.7188 758.8125,212.8125 Q758.8125,214.9063 759.5,215.9844 Q760.1875,217.0469 761.5313,217.0469 Q762.1563,217.0469 762.75,216.7813 Q763.3438,216.5 763.9688,215.9219 L763.9688,218.6406 Z "/><text fill="#000000" font-family="sans-serif" font-size="12" lengthAdjust="spacingAndGlyphs" textLength="234" x="775" y="217.1543">DisplayCommManagerImplementation</text><line style="stroke: #A80036; stroke-width: 1.5;" x1="747" x2="1011" y1="229" y2="229"/><line style="stroke: #A80036; stroke-width: 1.5;" x1="747" x2="1011" y1="237" y2="237"/><text fill="#000000" font-family="sans-serif" font-size="11" lengthAdjust="spacingAndGlyphs" textLength="0" x="756" y="268.0151"/><line style="stroke: #A80036; stroke-width: 1.0; stroke-dasharray: 1.0,2.0;" x1="747" x2="846" y1="251.4023" y2="251.4023"/><text fill="#000000" font-family="sans-serif" font-size="11" lengthAdjust="spacingAndGlyphs" textLength="66" x="846" y="254.7104">Use Case 1</text><line style="stroke: #A80036; stroke-width: 1.0; stroke-dasharray: 1.0,2.0;" x1="912" x2="1011" y1="251.4023" y2="251.4023"/><text fill="#000000" font-family="sans-serif" font-size="11" lengthAdjust="spacingAndGlyphs" textLength="0" x="756" y="297.6245"/><line style="stroke: #A80036; stroke-width: 1.0; stroke-dasharray: 1.0,2.0;" x1="747" x2="846" y1="281.0117" y2="281.0117"/><text fill="#000000" font-family="sans-serif" font-size="11" lengthAdjust="spacingAndGlyphs" textLength="66" x="846" y="284.3198">Use Case 2</text><line style="stroke: #A80036; stroke-width: 1.0; stroke-dasharray: 1.0,2.0;" x1="912" x2="1011" y1="281.0117" y2="281.0117"/><!--MD5=[d454b7777f115113290d89683d7a426c]
class DisplayCommInterfaceImplementationTests--><rect fill="#FEFECE" filter="url(#f5os83sk3br9l)" height="48" id="DisplayCommInterfaceImplementationTests" style="stroke: #A80036; stroke-width: 1.5;" width="301" x="1068.5" y="74"/><ellipse cx="1083.5" cy="90" fill="#ADD1B2" rx="11" ry="11" style="stroke: #A80036; stroke-width: 1.0;"/><path d="M1086.4688,95.6406 Q1085.8906,95.9375 1085.25,96.0781 Q1084.6094,96.2344 1083.9063,96.2344 Q1081.4063,96.2344 1080.0781,94.5938 Q1078.7656,92.9375 1078.7656,89.8125 Q1078.7656,86.6875 1080.0781,85.0313 Q1081.4063,83.375 1083.9063,83.375 Q1084.6094,83.375 1085.25,83.5313 Q1085.9063,83.6875 1086.4688,83.9844 L1086.4688,86.7031 Q1085.8438,86.125 1085.25,85.8594 Q1084.6563,85.5781 1084.0313,85.5781 Q1082.6875,85.5781 1082,86.6563 Q1081.3125,87.7188 1081.3125,89.8125 Q1081.3125,91.9063 1082,92.9844 Q1082.6875,94.0469 1084.0313,94.0469 Q1084.6563,94.0469 1085.25,93.7813 Q1085.8438,93.5 1086.4688,92.9219 L1086.4688,95.6406 Z "/><text fill="#000000" font-family="sans-serif" font-size="12" lengthAdjust="spacingAndGlyphs" textLength="269" x="1097.5" y="94.1543">DisplayCommInterfaceImplementationTests</text><line style="stroke: #A80036; stroke-width: 1.5;" x1="1069.5" x2="1368.5" y1="106" y2="106"/><line style="stroke: #A80036; stroke-width: 1.5;" x1="1069.5" x2="1368.5" y1="114" y2="114"/><!--MD5=[178181f4c7684560c711246055fc01d3]
class DisplayComm2WayInterfaceImplementationTests--><rect fill="#FEFECE" filter="url(#f5os83sk3br9l)" height="48" id="DisplayComm2WayInterfaceImplementationTests" style="stroke: #A80036; stroke-width: 1.5;" width="334" x="1405" y="74"/><ellipse cx="1420" cy="90" fill="#ADD1B2" rx="11" ry="11" style="stroke: #A80036; stroke-width: 1.0;"/><path d="M1422.9688,95.6406 Q1422.3906,95.9375 1421.75,96.0781 Q1421.1094,96.2344 1420.4063,96.2344 Q1417.9063,96.2344 1416.5781,94.5938 Q1415.2656,92.9375 1415.2656,89.8125 Q1415.2656,86.6875 1416.5781,85.0313 Q1417.9063,83.375 1420.4063,83.375 Q1421.1094,83.375 1421.75,83.5313 Q1422.4063,83.6875 1422.9688,83.9844 L1422.9688,86.7031 Q1422.3438,86.125 1421.75,85.8594 Q1421.1563,85.5781 1420.5313,85.5781 Q1419.1875,85.5781 1418.5,86.6563 Q1417.8125,87.7188 1417.8125,89.8125 Q1417.8125,91.9063 1418.5,92.9844 Q1419.1875,94.0469 1420.5313,94.0469 Q1421.1563,94.0469 1421.75,93.7813 Q1422.3438,93.5 1422.9688,92.9219 L1422.9688,95.6406 Z "/><text fill="#000000" font-family="sans-serif" font-size="12" lengthAdjust="spacingAndGlyphs" textLength="302" x="1434" y="94.1543">DisplayComm2WayInterfaceImplementationTests</text><line style="stroke: #A80036; stroke-width: 1.5;" x1="1406" x2="1738" y1="106" y2="106"/><line style="stroke: #A80036; stroke-width: 1.5;" x1="1406" x2="1738" y1="114" y2="114"/><!--MD5=[937d6d8ff87a99d0d5dcd66ee05a1fa4]
class DisplayCommManagerImplementationTests--><rect fill="#FEFECE" filter="url(#f5os83sk3br9l)" height="48" id="DisplayCommManagerImplementationTests" style="stroke: #A80036; stroke-width: 1.5;" width="300" x="1774" y="74"/><ellipse cx="1789" cy="90" fill="#ADD1B2" rx="11" ry="11" style="stroke: #A80036; stroke-width: 1.0;"/><path d="M1791.9688,95.6406 Q1791.3906,95.9375 1790.75,96.0781 Q1790.1094,96.2344 1789.4063,96.2344 Q1786.9063,96.2344 1785.5781,94.5938 Q1784.2656,92.9375 1784.2656,89.8125 Q1784.2656,86.6875 1785.5781,85.0313 Q1786.9063,83.375 1789.4063,83.375 Q1790.1094,83.375 1790.75,83.5313 Q1791.4063,83.6875 1791.9688,83.9844 L1791.9688,86.7031 Q1791.3438,86.125 1790.75,85.8594 Q1790.1563,85.5781 1789.5313,85.5781 Q1788.1875,85.5781 1787.5,86.6563 Q1786.8125,87.7188 1786.8125,89.8125 Q1786.8125,91.9063 1787.5,92.9844 Q1788.1875,94.0469 1789.5313,94.0469 Q1790.1563,94.0469 1790.75,93.7813 Q1791.3438,93.5 1791.9688,92.9219 L1791.9688,95.6406 Z "/><text fill="#000000" font-family="sans-serif" font-size="12" lengthAdjust="spacingAndGlyphs" textLength="268" x="1803" y="94.1543">DisplayCommManagerImplementationTests</text><line style="stroke: #A80036; stroke-width: 1.5;" x1="1775" x2="2073" y1="106" y2="106"/><line style="stroke: #A80036; stroke-width: 1.5;" x1="1775" x2="2073" y1="114" y2="114"/><!--MD5=[930c8140e7c1cb8e71aa7cd49967748e]
class TrackDataPlotterTests--><rect fill="#FEFECE" filter="url(#f5os83sk3br9l)" height="48" id="TrackDataPlotterTests" style="stroke: #A80036; stroke-width: 1.5;" width="172" x="1133" y="226.5"/><ellipse cx="1148" cy="242.5" fill="#ADD1B2" rx="11" ry="11" style="stroke: #A80036; stroke-width: 1.0;"/><path d="M1150.9688,248.1406 Q1150.3906,248.4375 1149.75,248.5781 Q1149.1094,248.7344 1148.4063,248.7344 Q1145.9063,248.7344 1144.5781,247.0938 Q1143.2656,245.4375 1143.2656,242.3125 Q1143.2656,239.1875 1144.5781,237.5313 Q1145.9063,235.875 1148.4063,235.875 Q1149.1094,235.875 1149.75,236.0313 Q1150.4063,236.1875 1150.9688,236.4844 L1150.9688,239.2031 Q1150.3438,238.625 1149.75,238.3594 Q1149.1563,238.0781 1148.5313,238.0781 Q1147.1875,238.0781 1146.5,239.1563 Q1145.8125,240.2188 1145.8125,242.3125 Q1145.8125,244.4063 1146.5,245.4844 Q1147.1875,246.5469 1148.5313,246.5469 Q1149.1563,246.5469 1149.75,246.2813 Q1150.3438,246 1150.9688,245.4219 L1150.9688,248.1406 Z "/><text fill="#000000" font-family="sans-serif" font-size="12" lengthAdjust="spacingAndGlyphs" textLength="140" x="1162" y="246.6543">TrackDataPlotterTests</text><line style="stroke: #A80036; stroke-width: 1.5;" x1="1134" x2="1304" y1="258.5" y2="258.5"/><line style="stroke: #A80036; stroke-width: 1.5;" x1="1134" x2="1304" y1="266.5" y2="266.5"/><!--MD5=[a333ac13e0fdf2a5898aafabd38d3c1b]
class DisplayComm2WayInterfaceStub--><rect fill="#FEFECE" filter="url(#f5os83sk3br9l)" height="77.6094" id="DisplayComm2WayInterfaceStub" style="stroke: #A80036; stroke-width: 1.5;" width="252" x="1340" y="211.5"/><ellipse cx="1364" cy="227.5" fill="#ADD1B2" rx="11" ry="11" style="stroke: #A80036; stroke-width: 1.0;"/><path d="M1366.9688,233.1406 Q1366.3906,233.4375 1365.75,233.5781 Q1365.1094,233.7344 1364.4063,233.7344 Q1361.9063,233.7344 1360.5781,232.0938 Q1359.2656,230.4375 1359.2656,227.3125 Q1359.2656,224.1875 1360.5781,222.5313 Q1361.9063,220.875 1364.4063,220.875 Q1365.1094,220.875 1365.75,221.0313 Q1366.4063,221.1875 1366.9688,221.4844 L1366.9688,224.2031 Q1366.3438,223.625 1365.75,223.3594 Q1365.1563,223.0781 1364.5313,223.0781 Q1363.1875,223.0781 1362.5,224.1563 Q1361.8125,225.2188 1361.8125,227.3125 Q1361.8125,229.4063 1362.5,230.4844 Q1363.1875,231.5469 1364.5313,231.5469 Q1365.1563,231.5469 1365.75,231.2813 Q1366.3438,231 1366.9688,230.4219 L1366.9688,233.1406 Z "/><text fill="#000000" font-family="sans-serif" font-size="12" lengthAdjust="spacingAndGlyphs" textLength="200" x="1380" y="231.6543">DisplayComm2WayInterfaceStub</text><line style="stroke: #A80036; stroke-width: 1.5;" x1="1341" x2="1591" y1="243.5" y2="243.5"/><line style="stroke: #A80036; stroke-width: 1.5;" x1="1341" x2="1591" y1="251.5" y2="251.5"/><ellipse cx="1351" cy="279.3047" fill="#84BE84" rx="3" ry="3" style="stroke: #038048; stroke-width: 1.0;"/><text fill="#000000" font-family="sans-serif" font-size="11" font-style="italic" lengthAdjust="spacingAndGlyphs" textLength="226" x="1360" y="282.5151">TrackData passRfidRequest(int rfidNum)</text><line style="stroke: #A80036; stroke-width: 1.0; stroke-dasharray: 1.0,2.0;" x1="1341" x2="1433" y1="265.9023" y2="265.9023"/><text fill="#000000" font-family="sans-serif" font-size="11" lengthAdjust="spacingAndGlyphs" textLength="66" x="1433" y="269.2104">Use Case 1</text><line style="stroke: #A80036; stroke-width: 1.0; stroke-dasharray: 1.0,2.0;" x1="1499" x2="1591" y1="265.9023" y2="265.9023"/><!--MD5=[2970358178d6cf57fc5a801b39eb8d0b]
class DisplayCommManagerStub--><rect fill="#FEFECE" filter="url(#f5os83sk3br9l)" height="77.6094" id="DisplayCommManagerStub" style="stroke: #A80036; stroke-width: 1.5;" width="273" x="1627.5" y="211.5"/><ellipse cx="1676.75" cy="227.5" fill="#ADD1B2" rx="11" ry="11" style="stroke: #A80036; stroke-width: 1.0;"/><path d="M1679.7188,233.1406 Q1679.1406,233.4375 1678.5,233.5781 Q1677.8594,233.7344 1677.1563,233.7344 Q1674.6563,233.7344 1673.3281,232.0938 Q1672.0156,230.4375 1672.0156,227.3125 Q1672.0156,224.1875 1673.3281,222.5313 Q1674.6563,220.875 1677.1563,220.875 Q1677.8594,220.875 1678.5,221.0313 Q1679.1563,221.1875 1679.7188,221.4844 L1679.7188,224.2031 Q1679.0938,223.625 1678.5,223.3594 Q1677.9063,223.0781 1677.2813,223.0781 Q1675.9375,223.0781 1675.25,224.1563 Q1674.5625,225.2188 1674.5625,227.3125 Q1674.5625,229.4063 1675.25,230.4844 Q1675.9375,231.5469 1677.2813,231.5469 Q1677.9063,231.5469 1678.5,231.2813 Q1679.0938,231 1679.7188,230.4219 L1679.7188,233.1406 Z "/><text fill="#000000" font-family="sans-serif" font-size="12" lengthAdjust="spacingAndGlyphs" textLength="166" x="1697.25" y="231.6543">DisplayCommManagerStub</text><line style="stroke: #A80036; stroke-width: 1.5;" x1="1628.5" x2="1899.5" y1="243.5" y2="243.5"/><line style="stroke: #A80036; stroke-width: 1.5;" x1="1628.5" x2="1899.5" y1="251.5" y2="251.5"/><ellipse cx="1638.5" cy="279.3047" fill="#84BE84" rx="3" ry="3" style="stroke: #038048; stroke-width: 1.0;"/><text fill="#000000" font-family="sans-serif" font-size="11" lengthAdjust="spacingAndGlyphs" textLength="247" x="1647.5" y="282.5151">TrackData evaluateRfidRequest(int rfidNum)</text><line style="stroke: #A80036; stroke-width: 1.0; stroke-dasharray: 1.0,2.0;" x1="1628.5" x2="1731" y1="265.9023" y2="265.9023"/><text fill="#000000" font-family="sans-serif" font-size="11" lengthAdjust="spacingAndGlyphs" textLength="66" x="1731" y="269.2104">Use Case 1</text><line style="stroke: #A80036; stroke-width: 1.0; stroke-dasharray: 1.0,2.0;" x1="1797" x2="1899.5" y1="265.9023" y2="265.9023"/><!--MD5=[cf56a65163663c6c6c7b84cd7c204b97]
class MiddlewareCommInterfaceStub--><rect fill="#FEFECE" filter="url(#f5os83sk3br9l)" height="77.6094" id="MiddlewareCommInterfaceStub" style="stroke: #A80036; stroke-width: 1.5;" width="225" x="1106.5" y="364"/><ellipse cx="1121.5" cy="380" fill="#ADD1B2" rx="11" ry="11" style="stroke: #A80036; stroke-width: 1.0;"/><path d="M1124.4688,385.6406 Q1123.8906,385.9375 1123.25,386.0781 Q1122.6094,386.2344 1121.9063,386.2344 Q1119.4063,386.2344 1118.0781,384.5938 Q1116.7656,382.9375 1116.7656,379.8125 Q1116.7656,376.6875 1118.0781,375.0313 Q1119.4063,373.375 1121.9063,373.375 Q1122.6094,373.375 1123.25,373.5313 Q1123.9063,373.6875 1124.4688,373.9844 L1124.4688,376.7031 Q1123.8438,376.125 1123.25,375.8594 Q1122.6563,375.5781 1122.0313,375.5781 Q1120.6875,375.5781 1120,376.6563 Q1119.3125,377.7188 1119.3125,379.8125 Q1119.3125,381.9063 1120,382.9844 Q1120.6875,384.0469 1122.0313,384.0469 Q1122.6563,384.0469 1123.25,383.7813 Q1123.8438,383.5 1124.4688,382.9219 L1124.4688,385.6406 Z "/><text fill="#000000" font-family="sans-serif" font-size="12" lengthAdjust="spacingAndGlyphs" textLength="193" x="1135.5" y="384.1543">MiddlewareCommInterfaceStub</text><line style="stroke: #A80036; stroke-width: 1.5;" x1="1107.5" x2="1330.5" y1="396" y2="396"/><line style="stroke: #A80036; stroke-width: 1.5;" x1="1107.5" x2="1330.5" y1="404" y2="404"/><ellipse cx="1117.5" cy="431.8047" fill="#84BE84" rx="3" ry="3" style="stroke: #038048; stroke-width: 1.0;"/><text fill="#000000" font-family="sans-serif" font-size="11" lengthAdjust="spacingAndGlyphs" textLength="171" x="1126.5" y="435.0151">TrackData requestRfid(int rfid)</text><line style="stroke: #A80036; stroke-width: 1.0; stroke-dasharray: 1.0,2.0;" x1="1107.5" x2="1186" y1="418.4023" y2="418.4023"/><text fill="#000000" font-family="sans-serif" font-size="11" lengthAdjust="spacingAndGlyphs" textLength="66" x="1186" y="421.7104">Use Case 1</text><line style="stroke: #A80036; stroke-width: 1.0; stroke-dasharray: 1.0,2.0;" x1="1252" x2="1330.5" y1="418.4023" y2="418.4023"/><!--MD5=[c986427b061286eff33e87a088ad4bf9]
class TrackDataPlotter--><rect fill="#FEFECE" filter="url(#f5os83sk3br9l)" height="48" id="TrackDataPlotter" style="stroke: #A80036; stroke-width: 1.5;" width="138" x="2169" y="74"/><ellipse cx="2184" cy="90" fill="#ADD1B2" rx="11" ry="11" style="stroke: #A80036; stroke-width: 1.0;"/><path d="M2186.9688,95.6406 Q2186.3906,95.9375 2185.75,96.0781 Q2185.1094,96.2344 2184.4063,96.2344 Q2181.9063,96.2344 2180.5781,94.5938 Q2179.2656,92.9375 2179.2656,89.8125 Q2179.2656,86.6875 2180.5781,85.0313 Q2181.9063,83.375 2184.4063,83.375 Q2185.1094,83.375 2185.75,83.5313 Q2186.4063,83.6875 2186.9688,83.9844 L2186.9688,86.7031 Q2186.3438,86.125 2185.75,85.8594 Q2185.1563,85.5781 2184.5313,85.5781 Q2183.1875,85.5781 2182.5,86.6563 Q2181.8125,87.7188 2181.8125,89.8125 Q2181.8125,91.9063 2182.5,92.9844 Q2183.1875,94.0469 2184.5313,94.0469 Q2185.1563,94.0469 2185.75,93.7813 Q2186.3438,93.5 2186.9688,92.9219 L2186.9688,95.6406 Z "/><text fill="#000000" font-family="sans-serif" font-size="12" lengthAdjust="spacingAndGlyphs" textLength="106" x="2198" y="94.1543">TrackDataPlotter</text><line style="stroke: #A80036; stroke-width: 1.5;" x1="2170" x2="2306" y1="106" y2="106"/><line style="stroke: #A80036; stroke-width: 1.5;" x1="2170" x2="2306" y1="114" y2="114"/><!--MD5=[c9341cce37a1a8bee80ad1365349afef]
link DisplayCommInterface to DisplayComm2WayInterface--><!--MD5=[7835b7bc4a765bae53638d0402d5d5e6]
link DisplayComm2WayInterface to DisplayCommManager--><!--MD5=[7d92106ecb9088e13e6754b44ec571b0]
link DisplayCommInterface to DisplayCommInterfaceImplementation--><!--MD5=[51e28edbb9f88779af066724948e7048]
link DisplayCommInterfaceImplementation to DisplayComm2WayInterfaceImplementation--><!--MD5=[ea4cd417ea9ea2c0dbdbdf4e4e3d21de]
link DisplayComm2WayInterfaceImplementation to DisplayCommManagerImplementation--><!--MD5=[64e942b00478e9eef28430a914bbb142]
link DisplayCommInterfaceImplementationTests to DisplayComm2WayInterfaceImplementationTests--><!--MD5=[8dbe1f493aaf019419238fc4702b450a]
link DisplayComm2WayInterfaceImplementationTests to DisplayCommManagerImplementationTests--><!--MD5=[e81de192ca7bc9df286fd4cb58be8b46]
link DisplayCommInterfaceImplementationTests to TrackDataPlotterTests--><!--MD5=[8b898a72046de76ad345afd61090e7dd]
link TrackDataPlotterTests to DisplayComm2WayInterfaceStub--><!--MD5=[c9c9241041dbc47aa626fe1afc095e03]
link DisplayComm2WayInterfaceStub to DisplayCommManagerStub--><!--MD5=[61d9c608a539b4614526ad59aeb385a2]
link TrackDataPlotterTests to MiddlewareCommInterfaceStub--><!--MD5=[657a7aa8da8d9236de9751a6da7fab22]
@startuml Display02Packages


package edu.oakland.production.display02 {

}


package edu.oakland.production.display02 {
    interface DisplayCommInterface {
        __
        .. Use Case 1 ..
        {abstract} + TrackData receiveRfidRequest(int rfidNum)
    }
}


package edu.oakland.production.display02 {
    interface DisplayComm2WayInterface {
        __
        .. Use Case 1 ..
        {abstract} + TrackData passRfidRequest(int rfidNum)
    }
}


package edu.oakland.production.display02 {
    interface DisplayCommManager {
        __
        .. Use Case 1 ..
        {abstract} + TrackData evaluateRfidRequest(int rfidNum)
    }
}


package edu.oakland.production.display02 {
    class DisplayCommInterfaceImplementation {
        __
        .. Use Case 1 ..
        {abstract} + TrackData receiveRfidRequest(int rfidNum)
        .. Use Case 2 ..

    }
}


package edu.oakland.production.display02 {
    class DisplayComm2WayInterfaceImplementation {
        __
        .. Use Case 1 ..
        {abstract} + TrackData passRfidRequest(int rfidNum)
        {abstract} + void determineUserRequestFormat(int rfidNum)
        {abstract} + void receiveRequestFromDisplayCommInterface(int rfidNum)
    }
}


package edu.oakland.production.display02 {
    class DisplayCommManagerImplementation {
        __
        .. Use Case 1 ..

        .. Use Case 2 ..

    }
}



package edu.oakland.test.display02 {
    
}


package edu.oakland.test.display02 {
    class DisplayCommInterfaceImplementationTests {

    }
}


package edu.oakland.test.display02 {
    class DisplayComm2WayInterfaceImplementationTests {

    }
}


package edu.oakland.test.display02 {
    class DisplayCommManagerImplementationTests {

    }
}


package edu.oakland.test.display02 {
    class TrackDataPlotterTests {

    }
}


package edu.oakland.test.display02 {
    class DisplayComm2WayInterfaceStub {
        __
        .. Use Case 1 ..
        {abstract} + TrackData passRfidRequest(int rfidNum)
    }
}


package edu.oakland.test.display02 {
    class DisplayCommManagerStub {
        __
        .. Use Case 1 ..
        + TrackData evaluateRfidRequest(int rfidNum)
    }
}


package edu.oakland.test.display02 {
    class MiddlewareCommInterfaceStub {
        __
        .. Use Case 1 ..
        + TrackData requestRfid(int rfid)
    }
}



package edu.oakland.helper.display02 {

}


package edu.oakland.helper.display02 {
    class TrackDataPlotter {
        
    }
}



@enduml

PlantUML version 1.2020.02(Sun Mar 01 10:22:07 GMT 2020)
(GPL source distribution)
Java Runtime: OpenJDK Runtime Environment
JVM: OpenJDK 64-Bit Server VM
Java Version: 11.0.9+11-Ubuntu-0ubuntu1
Operating System: Linux
Default Encoding: ANSI_X3.4-1968
Language: en
Country: US
--></g></svg>