<?xml version="1.0" encoding="UTF-8" standalone="no"?><svg xmlns="http://www.w3.org/2000/svg" xmlns:xlink="http://www.w3.org/1999/xlink" contentScriptType="application/ecmascript" contentStyleType="text/css" height="505px" preserveAspectRatio="none" style="width:2788px;height:505px;" version="1.1" viewBox="0 0 2788 505" width="2788px" zoomAndPan="magnify"><defs><filter height="300%" id="fsyr1bw2z50g4" width="300%" x="-1" y="-1"><feGaussianBlur result="blurOut" stdDeviation="2.0"/><feColorMatrix in="blurOut" result="blurOut2" type="matrix" values="0 0 0 0 0 0 0 0 0 0 0 0 0 0 0 0 0 0 .4 0"/><feOffset dx="4.0" dy="4.0" in="blurOut2" result="blurOut3"/><feBlend in="SourceGraphic" in2="blurOut3" mode="normal"/></filter></defs><g><!--MD5=[fe59aae6f7bfe371a9c197ec1f7f843a]
cluster edu.oakland.production.display02--><polygon fill="#FFFFFF" filter="url(#fsyr1bw2z50g4)" points="22,24,295,24,302,46.2969,1432,46.2969,1432,355,22,355,22,24" style="stroke: #000000; stroke-width: 1.5;"/><line style="stroke: #000000; stroke-width: 1.5;" x1="22" x2="302" y1="46.2969" y2="46.2969"/><text fill="#000000" font-family="sans-serif" font-size="14" font-weight="bold" lengthAdjust="spacingAndGlyphs" textLength="267" x="26" y="38.9951">edu.oakland.production.display02</text><!--MD5=[9258003ec405d300d3379b4a3d8dd6ad]
cluster edu.oakland.test.display02--><polygon fill="#FFFFFF" filter="url(#fsyr1bw2z50g4)" points="1456,39,1674,39,1681,61.2969,2494,61.2969,2494,493,1456,493,1456,39" style="stroke: #000000; stroke-width: 1.5;"/><line style="stroke: #000000; stroke-width: 1.5;" x1="1456" x2="1681" y1="61.2969" y2="61.2969"/><text fill="#000000" font-family="sans-serif" font-size="14" font-weight="bold" lengthAdjust="spacingAndGlyphs" textLength="212" x="1460" y="53.9951">edu.oakland.test.display02</text><!--MD5=[a502031b5a5384de0a21e6ee820fd3b2]
cluster edu.oakland.helper.display02--><polygon fill="#FFFFFF" filter="url(#fsyr1bw2z50g4)" points="2518,39,2756,39,2763,61.2969,2766,61.2969,2766,138,2518,138,2518,39" style="stroke: #000000; stroke-width: 1.5;"/><line style="stroke: #000000; stroke-width: 1.5;" x1="2518" x2="2763" y1="61.2969" y2="61.2969"/><text fill="#000000" font-family="sans-serif" font-size="14" font-weight="bold" lengthAdjust="spacingAndGlyphs" textLength="232" x="2522" y="53.9951">edu.oakland.helper.display02</text><!--MD5=[c8d1e3134fecb0c949fd2a76cc0bb992]
class DisplayCommInterface--><rect fill="#FEFECE" filter="url(#fsyr1bw2z50g4)" height="77.6094" id="DisplayCommInterface" style="stroke: #A80036; stroke-width: 1.5;" width="268" x="91" y="59"/><ellipse cx="151.25" cy="75" fill="#B4A7E5" rx="11" ry="11" style="stroke: #A80036; stroke-width: 1.0;"/><path d="M147.1719,70.7656 L147.1719,68.6094 L154.5625,68.6094 L154.5625,70.7656 L152.0938,70.7656 L152.0938,78.8438 L154.5625,78.8438 L154.5625,81 L147.1719,81 L147.1719,78.8438 L149.6406,78.8438 L149.6406,70.7656 L147.1719,70.7656 Z "/><text fill="#000000" font-family="sans-serif" font-size="12" font-style="italic" lengthAdjust="spacingAndGlyphs" textLength="139" x="171.75" y="79.1543">DisplayCommInterface</text><line style="stroke: #A80036; stroke-width: 1.5;" x1="92" x2="358" y1="91" y2="91"/><line style="stroke: #A80036; stroke-width: 1.5;" x1="92" x2="358" y1="99" y2="99"/><ellipse cx="102" cy="126.8047" fill="#84BE84" rx="3" ry="3" style="stroke: #038048; stroke-width: 1.0;"/><text fill="#000000" font-family="sans-serif" font-size="11" font-style="italic" lengthAdjust="spacingAndGlyphs" textLength="242" x="111" y="130.0151">TrackData receiveRfidRequest(int rfidNum)</text><line style="stroke: #A80036; stroke-width: 1.0; stroke-dasharray: 1.0,2.0;" x1="92" x2="192" y1="113.4023" y2="113.4023"/><text fill="#000000" font-family="sans-serif" font-size="11" lengthAdjust="spacingAndGlyphs" textLength="66" x="192" y="116.7104">Use Case 1</text><line style="stroke: #A80036; stroke-width: 1.0; stroke-dasharray: 1.0,2.0;" x1="258" x2="358" y1="113.4023" y2="113.4023"/><!--MD5=[f6b51b5f862da5ce226c62e411e84628]
class DisplayComm2WayInterface--><rect fill="#FEFECE" filter="url(#fsyr1bw2z50g4)" height="77.6094" id="DisplayComm2WayInterface" style="stroke: #A80036; stroke-width: 1.5;" width="252" x="394" y="59"/><ellipse cx="429.7" cy="75" fill="#B4A7E5" rx="11" ry="11" style="stroke: #A80036; stroke-width: 1.0;"/><path d="M425.6219,70.7656 L425.6219,68.6094 L433.0125,68.6094 L433.0125,70.7656 L430.5438,70.7656 L430.5438,78.8438 L433.0125,78.8438 L433.0125,81 L425.6219,81 L425.6219,78.8438 L428.0906,78.8438 L428.0906,70.7656 L425.6219,70.7656 Z "/><text fill="#000000" font-family="sans-serif" font-size="12" font-style="italic" lengthAdjust="spacingAndGlyphs" textLength="174" x="448.3" y="79.1543">DisplayComm2WayInterface</text><line style="stroke: #A80036; stroke-width: 1.5;" x1="395" x2="645" y1="91" y2="91"/><line style="stroke: #A80036; stroke-width: 1.5;" x1="395" x2="645" y1="99" y2="99"/><ellipse cx="405" cy="126.8047" fill="#84BE84" rx="3" ry="3" style="stroke: #038048; stroke-width: 1.0;"/><text fill="#000000" font-family="sans-serif" font-size="11" font-style="italic" lengthAdjust="spacingAndGlyphs" textLength="226" x="414" y="130.0151">TrackData passRfidRequest(int rfidNum)</text><line style="stroke: #A80036; stroke-width: 1.0; stroke-dasharray: 1.0,2.0;" x1="395" x2="487" y1="113.4023" y2="113.4023"/><text fill="#000000" font-family="sans-serif" font-size="11" lengthAdjust="spacingAndGlyphs" textLength="66" x="487" y="116.7104">Use Case 1</text><line style="stroke: #A80036; stroke-width: 1.0; stroke-dasharray: 1.0,2.0;" x1="553" x2="645" y1="113.4023" y2="113.4023"/><!--MD5=[6aeb72f2773d7cabb45309482beeff0a]
class DisplayCommManager--><rect fill="#FEFECE" filter="url(#fsyr1bw2z50g4)" height="77.6094" id="DisplayCommManager" style="stroke: #A80036; stroke-width: 1.5;" width="275" x="681.5" y="59"/><ellipse cx="746.25" cy="75" fill="#B4A7E5" rx="11" ry="11" style="stroke: #A80036; stroke-width: 1.0;"/><path d="M742.1719,70.7656 L742.1719,68.6094 L749.5625,68.6094 L749.5625,70.7656 L747.0938,70.7656 L747.0938,78.8438 L749.5625,78.8438 L749.5625,81 L742.1719,81 L742.1719,78.8438 L744.6406,78.8438 L744.6406,70.7656 L742.1719,70.7656 Z "/><text fill="#000000" font-family="sans-serif" font-size="12" font-style="italic" lengthAdjust="spacingAndGlyphs" textLength="137" x="766.75" y="79.1543">DisplayCommManager</text><line style="stroke: #A80036; stroke-width: 1.5;" x1="682.5" x2="955.5" y1="91" y2="91"/><line style="stroke: #A80036; stroke-width: 1.5;" x1="682.5" x2="955.5" y1="99" y2="99"/><ellipse cx="692.5" cy="126.8047" fill="#84BE84" rx="3" ry="3" style="stroke: #038048; stroke-width: 1.0;"/><text fill="#000000" font-family="sans-serif" font-size="11" font-style="italic" lengthAdjust="spacingAndGlyphs" textLength="249" x="701.5" y="130.0151">TrackData evaluateRfidRequest(int rfidNum)</text><line style="stroke: #A80036; stroke-width: 1.0; stroke-dasharray: 1.0,2.0;" x1="682.5" x2="786" y1="113.4023" y2="113.4023"/><text fill="#000000" font-family="sans-serif" font-size="11" lengthAdjust="spacingAndGlyphs" textLength="66" x="786" y="116.7104">Use Case 1</text><line style="stroke: #A80036; stroke-width: 1.0; stroke-dasharray: 1.0,2.0;" x1="852" x2="955.5" y1="113.4023" y2="113.4023"/><!--MD5=[a35092e604da7274febf4e2cf9a25087]
class DisplayCommInterfaceImplementation--><rect fill="#FEFECE" filter="url(#fsyr1bw2z50g4)" height="128.8281" id="DisplayCommInterfaceImplementation" style="stroke: #A80036; stroke-width: 1.5;" width="373" x="38.5" y="203.5"/><ellipse cx="103.25" cy="219.5" fill="#ADD1B2" rx="11" ry="11" style="stroke: #A80036; stroke-width: 1.0;"/><path d="M106.2188,225.1406 Q105.6406,225.4375 105,225.5781 Q104.3594,225.7344 103.6563,225.7344 Q101.1563,225.7344 99.8281,224.0938 Q98.5156,222.4375 98.5156,219.3125 Q98.5156,216.1875 99.8281,214.5313 Q101.1563,212.875 103.6563,212.875 Q104.3594,212.875 105,213.0313 Q105.6563,213.1875 106.2188,213.4844 L106.2188,216.2031 Q105.5938,215.625 105,215.3594 Q104.4063,215.0781 103.7813,215.0781 Q102.4375,215.0781 101.75,216.1563 Q101.0625,217.2188 101.0625,219.3125 Q101.0625,221.4063 101.75,222.4844 Q102.4375,223.5469 103.7813,223.5469 Q104.4063,223.5469 105,223.2813 Q105.5938,223 106.2188,222.4219 L106.2188,225.1406 Z "/><text fill="#000000" font-family="sans-serif" font-size="12" lengthAdjust="spacingAndGlyphs" textLength="235" x="123.75" y="223.6543">DisplayCommInterfaceImplementation</text><line style="stroke: #A80036; stroke-width: 1.5;" x1="39.5" x2="410.5" y1="235.5" y2="235.5"/><text fill="#000000" font-family="sans-serif" font-size="11" lengthAdjust="spacingAndGlyphs" textLength="207" x="44.5" y="249.7104">DisplayComm2WayInterface receiver</text><line style="stroke: #A80036; stroke-width: 1.5;" x1="39.5" x2="410.5" y1="256.3047" y2="256.3047"/><ellipse cx="49.5" cy="267.3047" fill="#84BE84" rx="3" ry="3" style="stroke: #038048; stroke-width: 1.0;"/><text fill="#000000" font-family="sans-serif" font-size="11" font-style="italic" lengthAdjust="spacingAndGlyphs" textLength="347" x="58.5" y="270.5151">DisplayCommInterface(DisplayComm2WayInterface receiver)</text><ellipse cx="49.5" cy="296.9141" fill="#84BE84" rx="3" ry="3" style="stroke: #038048; stroke-width: 1.0;"/><text fill="#000000" font-family="sans-serif" font-size="11" font-style="italic" lengthAdjust="spacingAndGlyphs" textLength="242" x="58.5" y="300.1245">TrackData receiveRfidRequest(int rfidNum)</text><ellipse cx="49.5" cy="309.7188" fill="#84BE84" rx="3" ry="3" style="stroke: #038048; stroke-width: 1.0;"/><text fill="#000000" font-family="sans-serif" font-size="11" font-style="italic" lengthAdjust="spacingAndGlyphs" textLength="291" x="58.5" y="312.9292">TrackData passToComm2WayInterface(int rfidNum)</text><text fill="#000000" font-family="sans-serif" font-size="11" lengthAdjust="spacingAndGlyphs" textLength="0" x="62.5" y="325.7339"/><line style="stroke: #A80036; stroke-width: 1.0; stroke-dasharray: 1.0,2.0;" x1="39.5" x2="192" y1="283.5117" y2="283.5117"/><text fill="#000000" font-family="sans-serif" font-size="11" lengthAdjust="spacingAndGlyphs" textLength="66" x="192" y="286.8198">Use Case 1</text><line style="stroke: #A80036; stroke-width: 1.0; stroke-dasharray: 1.0,2.0;" x1="258" x2="410.5" y1="283.5117" y2="283.5117"/><!--MD5=[46657c2900260d4d40350fe3f8c544df]
class DisplayComm2WayInterfaceImplementation--><rect fill="#FEFECE" filter="url(#fsyr1bw2z50g4)" height="128.8281" id="DisplayComm2WayInterfaceImplementation" style="stroke: #A80036; stroke-width: 1.5;" width="464" x="447" y="203.5"/><ellipse cx="540.75" cy="219.5" fill="#ADD1B2" rx="11" ry="11" style="stroke: #A80036; stroke-width: 1.0;"/><path d="M543.7188,225.1406 Q543.1406,225.4375 542.5,225.5781 Q541.8594,225.7344 541.1563,225.7344 Q538.6563,225.7344 537.3281,224.0938 Q536.0156,222.4375 536.0156,219.3125 Q536.0156,216.1875 537.3281,214.5313 Q538.6563,212.875 541.1563,212.875 Q541.8594,212.875 542.5,213.0313 Q543.1563,213.1875 543.7188,213.4844 L543.7188,216.2031 Q543.0938,215.625 542.5,215.3594 Q541.9063,215.0781 541.2813,215.0781 Q539.9375,215.0781 539.25,216.1563 Q538.5625,217.2188 538.5625,219.3125 Q538.5625,221.4063 539.25,222.4844 Q539.9375,223.5469 541.2813,223.5469 Q541.9063,223.5469 542.5,223.2813 Q543.0938,223 543.7188,222.4219 L543.7188,225.1406 Z "/><text fill="#000000" font-family="sans-serif" font-size="12" lengthAdjust="spacingAndGlyphs" textLength="268" x="561.25" y="223.6543">DisplayComm2WayInterfaceImplementation</text><line style="stroke: #A80036; stroke-width: 1.5;" x1="448" x2="910" y1="235.5" y2="235.5"/><text fill="#000000" font-family="sans-serif" font-size="11" lengthAdjust="spacingAndGlyphs" textLength="182" x="453" y="249.7104">DisplayCommManager manager</text><line style="stroke: #A80036; stroke-width: 1.5;" x1="448" x2="910" y1="256.3047" y2="256.3047"/><ellipse cx="458" cy="284.1094" fill="#84BE84" rx="3" ry="3" style="stroke: #038048; stroke-width: 1.0;"/><text fill="#000000" font-family="sans-serif" font-size="11" font-style="italic" lengthAdjust="spacingAndGlyphs" textLength="438" x="467" y="287.3198">DisplayComm2WayInterfaceImplementation(DisplayCommManager manager)</text><ellipse cx="458" cy="296.9141" fill="#84BE84" rx="3" ry="3" style="stroke: #038048; stroke-width: 1.0;"/><text fill="#000000" font-family="sans-serif" font-size="11" font-style="italic" lengthAdjust="spacingAndGlyphs" textLength="226" x="467" y="300.1245">TrackData passRfidRequest(int rfidNum)</text><ellipse cx="458" cy="309.7188" fill="#84BE84" rx="3" ry="3" style="stroke: #038048; stroke-width: 1.0;"/><text fill="#000000" font-family="sans-serif" font-size="11" font-style="italic" lengthAdjust="spacingAndGlyphs" textLength="269" x="467" y="312.9292">void determineUserRequestFormat(int rfidNum)</text><ellipse cx="458" cy="322.5234" fill="#84BE84" rx="3" ry="3" style="stroke: #038048; stroke-width: 1.0;"/><text fill="#000000" font-family="sans-serif" font-size="11" font-style="italic" lengthAdjust="spacingAndGlyphs" textLength="344" x="467" y="325.7339">void receiveRequestFromDisplayCommInterface(int rfidNum)</text><line style="stroke: #A80036; stroke-width: 1.0; stroke-dasharray: 1.0,2.0;" x1="448" x2="646" y1="270.707" y2="270.707"/><text fill="#000000" font-family="sans-serif" font-size="11" lengthAdjust="spacingAndGlyphs" textLength="66" x="646" y="274.0151">Use Case 1</text><line style="stroke: #A80036; stroke-width: 1.0; stroke-dasharray: 1.0,2.0;" x1="712" x2="910" y1="270.707" y2="270.707"/><!--MD5=[3a27b63ddb357afc5dde5581215f51f9]
class DisplayCommManagerImplementation--><rect fill="#FEFECE" filter="url(#fsyr1bw2z50g4)" height="141.6328" id="DisplayCommManagerImplementation" style="stroke: #A80036; stroke-width: 1.5;" width="470" x="946" y="197"/><ellipse cx="1059.75" cy="213" fill="#ADD1B2" rx="11" ry="11" style="stroke: #A80036; stroke-width: 1.0;"/><path d="M1062.7188,218.6406 Q1062.1406,218.9375 1061.5,219.0781 Q1060.8594,219.2344 1060.1563,219.2344 Q1057.6563,219.2344 1056.3281,217.5938 Q1055.0156,215.9375 1055.0156,212.8125 Q1055.0156,209.6875 1056.3281,208.0313 Q1057.6563,206.375 1060.1563,206.375 Q1060.8594,206.375 1061.5,206.5313 Q1062.1563,206.6875 1062.7188,206.9844 L1062.7188,209.7031 Q1062.0938,209.125 1061.5,208.8594 Q1060.9063,208.5781 1060.2813,208.5781 Q1058.9375,208.5781 1058.25,209.6563 Q1057.5625,210.7188 1057.5625,212.8125 Q1057.5625,214.9063 1058.25,215.9844 Q1058.9375,217.0469 1060.2813,217.0469 Q1060.9063,217.0469 1061.5,216.7813 Q1062.0938,216.5 1062.7188,215.9219 L1062.7188,218.6406 Z "/><text fill="#000000" font-family="sans-serif" font-size="12" lengthAdjust="spacingAndGlyphs" textLength="234" x="1080.25" y="217.1543">DisplayCommManagerImplementation</text><line style="stroke: #A80036; stroke-width: 1.5;" x1="947" x2="1415" y1="229" y2="229"/><text fill="#000000" font-family="sans-serif" font-size="11" lengthAdjust="spacingAndGlyphs" textLength="221" x="952" y="243.2104">MiddlewareCommInterface middleware</text><line style="stroke: #A80036; stroke-width: 1.5;" x1="947" x2="1415" y1="249.8047" y2="249.8047"/><ellipse cx="957" cy="260.8047" fill="#84BE84" rx="3" ry="3" style="stroke: #038048; stroke-width: 1.0;"/><text fill="#000000" font-family="sans-serif" font-size="11" font-style="italic" lengthAdjust="spacingAndGlyphs" textLength="444" x="966" y="264.0151">DisplayCommManagerImplementation(MiddlewareCommInterface middleware)</text><ellipse cx="957" cy="290.4141" fill="#84BE84" rx="3" ry="3" style="stroke: #038048; stroke-width: 1.0;"/><text fill="#000000" font-family="sans-serif" font-size="11" font-style="italic" lengthAdjust="spacingAndGlyphs" textLength="249" x="966" y="293.6245">TrackData evaluateRfidRequest(int rfidNum)</text><ellipse cx="957" cy="303.2188" fill="#84BE84" rx="3" ry="3" style="stroke: #038048; stroke-width: 1.0;"/><text fill="#000000" font-family="sans-serif" font-size="11" font-style="italic" lengthAdjust="spacingAndGlyphs" textLength="369" x="966" y="306.4292">TrackData passRequestToMiddlewareCommInterface(int rfidNum)</text><ellipse cx="957" cy="316.0234" fill="#84BE84" rx="3" ry="3" style="stroke: #038048; stroke-width: 1.0;"/><text fill="#000000" font-family="sans-serif" font-size="11" font-style="italic" lengthAdjust="spacingAndGlyphs" textLength="339" x="966" y="319.2339">void receiveRequestFromDisplay2WayInterface(int rfidNum)</text><text fill="#000000" font-family="sans-serif" font-size="11" lengthAdjust="spacingAndGlyphs" textLength="0" x="970" y="332.0386"/><line style="stroke: #A80036; stroke-width: 1.0; stroke-dasharray: 1.0,2.0;" x1="947" x2="1148" y1="277.0117" y2="277.0117"/><text fill="#000000" font-family="sans-serif" font-size="11" lengthAdjust="spacingAndGlyphs" textLength="66" x="1148" y="280.3198">Use Case 1</text><line style="stroke: #A80036; stroke-width: 1.0; stroke-dasharray: 1.0,2.0;" x1="1214" x2="1415" y1="277.0117" y2="277.0117"/><!--MD5=[d454b7777f115113290d89683d7a426c]
class DisplayCommInterfaceImplementationTests--><rect fill="#FEFECE" filter="url(#fsyr1bw2z50g4)" height="48" id="DisplayCommInterfaceImplementationTests" style="stroke: #A80036; stroke-width: 1.5;" width="301" x="1472.5" y="74"/><ellipse cx="1487.5" cy="90" fill="#ADD1B2" rx="11" ry="11" style="stroke: #A80036; stroke-width: 1.0;"/><path d="M1490.4688,95.6406 Q1489.8906,95.9375 1489.25,96.0781 Q1488.6094,96.2344 1487.9063,96.2344 Q1485.4063,96.2344 1484.0781,94.5938 Q1482.7656,92.9375 1482.7656,89.8125 Q1482.7656,86.6875 1484.0781,85.0313 Q1485.4063,83.375 1487.9063,83.375 Q1488.6094,83.375 1489.25,83.5313 Q1489.9063,83.6875 1490.4688,83.9844 L1490.4688,86.7031 Q1489.8438,86.125 1489.25,85.8594 Q1488.6563,85.5781 1488.0313,85.5781 Q1486.6875,85.5781 1486,86.6563 Q1485.3125,87.7188 1485.3125,89.8125 Q1485.3125,91.9063 1486,92.9844 Q1486.6875,94.0469 1488.0313,94.0469 Q1488.6563,94.0469 1489.25,93.7813 Q1489.8438,93.5 1490.4688,92.9219 L1490.4688,95.6406 Z "/><text fill="#000000" font-family="sans-serif" font-size="12" lengthAdjust="spacingAndGlyphs" textLength="269" x="1501.5" y="94.1543">DisplayCommInterfaceImplementationTests</text><line style="stroke: #A80036; stroke-width: 1.5;" x1="1473.5" x2="1772.5" y1="106" y2="106"/><line style="stroke: #A80036; stroke-width: 1.5;" x1="1473.5" x2="1772.5" y1="114" y2="114"/><!--MD5=[178181f4c7684560c711246055fc01d3]
class DisplayComm2WayInterfaceImplementationTests--><rect fill="#FEFECE" filter="url(#fsyr1bw2z50g4)" height="48" id="DisplayComm2WayInterfaceImplementationTests" style="stroke: #A80036; stroke-width: 1.5;" width="334" x="1809" y="74"/><ellipse cx="1824" cy="90" fill="#ADD1B2" rx="11" ry="11" style="stroke: #A80036; stroke-width: 1.0;"/><path d="M1826.9688,95.6406 Q1826.3906,95.9375 1825.75,96.0781 Q1825.1094,96.2344 1824.4063,96.2344 Q1821.9063,96.2344 1820.5781,94.5938 Q1819.2656,92.9375 1819.2656,89.8125 Q1819.2656,86.6875 1820.5781,85.0313 Q1821.9063,83.375 1824.4063,83.375 Q1825.1094,83.375 1825.75,83.5313 Q1826.4063,83.6875 1826.9688,83.9844 L1826.9688,86.7031 Q1826.3438,86.125 1825.75,85.8594 Q1825.1563,85.5781 1824.5313,85.5781 Q1823.1875,85.5781 1822.5,86.6563 Q1821.8125,87.7188 1821.8125,89.8125 Q1821.8125,91.9063 1822.5,92.9844 Q1823.1875,94.0469 1824.5313,94.0469 Q1825.1563,94.0469 1825.75,93.7813 Q1826.3438,93.5 1826.9688,92.9219 L1826.9688,95.6406 Z "/><text fill="#000000" font-family="sans-serif" font-size="12" lengthAdjust="spacingAndGlyphs" textLength="302" x="1838" y="94.1543">DisplayComm2WayInterfaceImplementationTests</text><line style="stroke: #A80036; stroke-width: 1.5;" x1="1810" x2="2142" y1="106" y2="106"/><line style="stroke: #A80036; stroke-width: 1.5;" x1="1810" x2="2142" y1="114" y2="114"/><!--MD5=[937d6d8ff87a99d0d5dcd66ee05a1fa4]
class DisplayCommManagerImplementationTests--><rect fill="#FEFECE" filter="url(#fsyr1bw2z50g4)" height="48" id="DisplayCommManagerImplementationTests" style="stroke: #A80036; stroke-width: 1.5;" width="300" x="2178" y="74"/><ellipse cx="2193" cy="90" fill="#ADD1B2" rx="11" ry="11" style="stroke: #A80036; stroke-width: 1.0;"/><path d="M2195.9688,95.6406 Q2195.3906,95.9375 2194.75,96.0781 Q2194.1094,96.2344 2193.4063,96.2344 Q2190.9063,96.2344 2189.5781,94.5938 Q2188.2656,92.9375 2188.2656,89.8125 Q2188.2656,86.6875 2189.5781,85.0313 Q2190.9063,83.375 2193.4063,83.375 Q2194.1094,83.375 2194.75,83.5313 Q2195.4063,83.6875 2195.9688,83.9844 L2195.9688,86.7031 Q2195.3438,86.125 2194.75,85.8594 Q2194.1563,85.5781 2193.5313,85.5781 Q2192.1875,85.5781 2191.5,86.6563 Q2190.8125,87.7188 2190.8125,89.8125 Q2190.8125,91.9063 2191.5,92.9844 Q2192.1875,94.0469 2193.5313,94.0469 Q2194.1563,94.0469 2194.75,93.7813 Q2195.3438,93.5 2195.9688,92.9219 L2195.9688,95.6406 Z "/><text fill="#000000" font-family="sans-serif" font-size="12" lengthAdjust="spacingAndGlyphs" textLength="268" x="2207" y="94.1543">DisplayCommManagerImplementationTests</text><line style="stroke: #A80036; stroke-width: 1.5;" x1="2179" x2="2477" y1="106" y2="106"/><line style="stroke: #A80036; stroke-width: 1.5;" x1="2179" x2="2477" y1="114" y2="114"/><!--MD5=[930c8140e7c1cb8e71aa7cd49967748e]
class TrackDataPlotterTests--><rect fill="#FEFECE" filter="url(#fsyr1bw2z50g4)" height="48" id="TrackDataPlotterTests" style="stroke: #A80036; stroke-width: 1.5;" width="172" x="1537" y="244"/><ellipse cx="1552" cy="260" fill="#ADD1B2" rx="11" ry="11" style="stroke: #A80036; stroke-width: 1.0;"/><path d="M1554.9688,265.6406 Q1554.3906,265.9375 1553.75,266.0781 Q1553.1094,266.2344 1552.4063,266.2344 Q1549.9063,266.2344 1548.5781,264.5938 Q1547.2656,262.9375 1547.2656,259.8125 Q1547.2656,256.6875 1548.5781,255.0313 Q1549.9063,253.375 1552.4063,253.375 Q1553.1094,253.375 1553.75,253.5313 Q1554.4063,253.6875 1554.9688,253.9844 L1554.9688,256.7031 Q1554.3438,256.125 1553.75,255.8594 Q1553.1563,255.5781 1552.5313,255.5781 Q1551.1875,255.5781 1550.5,256.6563 Q1549.8125,257.7188 1549.8125,259.8125 Q1549.8125,261.9063 1550.5,262.9844 Q1551.1875,264.0469 1552.5313,264.0469 Q1553.1563,264.0469 1553.75,263.7813 Q1554.3438,263.5 1554.9688,262.9219 L1554.9688,265.6406 Z "/><text fill="#000000" font-family="sans-serif" font-size="12" lengthAdjust="spacingAndGlyphs" textLength="140" x="1566" y="264.1543">TrackDataPlotterTests</text><line style="stroke: #A80036; stroke-width: 1.5;" x1="1538" x2="1708" y1="276" y2="276"/><line style="stroke: #A80036; stroke-width: 1.5;" x1="1538" x2="1708" y1="284" y2="284"/><!--MD5=[a333ac13e0fdf2a5898aafabd38d3c1b]
class DisplayComm2WayInterfaceStub--><rect fill="#FEFECE" filter="url(#fsyr1bw2z50g4)" height="77.6094" id="DisplayComm2WayInterfaceStub" style="stroke: #A80036; stroke-width: 1.5;" width="252" x="1744" y="229"/><ellipse cx="1768" cy="245" fill="#ADD1B2" rx="11" ry="11" style="stroke: #A80036; stroke-width: 1.0;"/><path d="M1770.9688,250.6406 Q1770.3906,250.9375 1769.75,251.0781 Q1769.1094,251.2344 1768.4063,251.2344 Q1765.9063,251.2344 1764.5781,249.5938 Q1763.2656,247.9375 1763.2656,244.8125 Q1763.2656,241.6875 1764.5781,240.0313 Q1765.9063,238.375 1768.4063,238.375 Q1769.1094,238.375 1769.75,238.5313 Q1770.4063,238.6875 1770.9688,238.9844 L1770.9688,241.7031 Q1770.3438,241.125 1769.75,240.8594 Q1769.1563,240.5781 1768.5313,240.5781 Q1767.1875,240.5781 1766.5,241.6563 Q1765.8125,242.7188 1765.8125,244.8125 Q1765.8125,246.9063 1766.5,247.9844 Q1767.1875,249.0469 1768.5313,249.0469 Q1769.1563,249.0469 1769.75,248.7813 Q1770.3438,248.5 1770.9688,247.9219 L1770.9688,250.6406 Z "/><text fill="#000000" font-family="sans-serif" font-size="12" lengthAdjust="spacingAndGlyphs" textLength="200" x="1784" y="249.1543">DisplayComm2WayInterfaceStub</text><line style="stroke: #A80036; stroke-width: 1.5;" x1="1745" x2="1995" y1="261" y2="261"/><line style="stroke: #A80036; stroke-width: 1.5;" x1="1745" x2="1995" y1="269" y2="269"/><ellipse cx="1755" cy="296.8047" fill="#84BE84" rx="3" ry="3" style="stroke: #038048; stroke-width: 1.0;"/><text fill="#000000" font-family="sans-serif" font-size="11" font-style="italic" lengthAdjust="spacingAndGlyphs" textLength="226" x="1764" y="300.0151">TrackData passRfidRequest(int rfidNum)</text><line style="stroke: #A80036; stroke-width: 1.0; stroke-dasharray: 1.0,2.0;" x1="1745" x2="1837" y1="283.4023" y2="283.4023"/><text fill="#000000" font-family="sans-serif" font-size="11" lengthAdjust="spacingAndGlyphs" textLength="66" x="1837" y="286.7104">Use Case 1</text><line style="stroke: #A80036; stroke-width: 1.0; stroke-dasharray: 1.0,2.0;" x1="1903" x2="1995" y1="283.4023" y2="283.4023"/><!--MD5=[2970358178d6cf57fc5a801b39eb8d0b]
class DisplayCommManagerStub--><rect fill="#FEFECE" filter="url(#fsyr1bw2z50g4)" height="77.6094" id="DisplayCommManagerStub" style="stroke: #A80036; stroke-width: 1.5;" width="273" x="2031.5" y="229"/><ellipse cx="2080.75" cy="245" fill="#ADD1B2" rx="11" ry="11" style="stroke: #A80036; stroke-width: 1.0;"/><path d="M2083.7188,250.6406 Q2083.1406,250.9375 2082.5,251.0781 Q2081.8594,251.2344 2081.1563,251.2344 Q2078.6563,251.2344 2077.3281,249.5938 Q2076.0156,247.9375 2076.0156,244.8125 Q2076.0156,241.6875 2077.3281,240.0313 Q2078.6563,238.375 2081.1563,238.375 Q2081.8594,238.375 2082.5,238.5313 Q2083.1563,238.6875 2083.7188,238.9844 L2083.7188,241.7031 Q2083.0938,241.125 2082.5,240.8594 Q2081.9063,240.5781 2081.2813,240.5781 Q2079.9375,240.5781 2079.25,241.6563 Q2078.5625,242.7188 2078.5625,244.8125 Q2078.5625,246.9063 2079.25,247.9844 Q2079.9375,249.0469 2081.2813,249.0469 Q2081.9063,249.0469 2082.5,248.7813 Q2083.0938,248.5 2083.7188,247.9219 L2083.7188,250.6406 Z "/><text fill="#000000" font-family="sans-serif" font-size="12" lengthAdjust="spacingAndGlyphs" textLength="166" x="2101.25" y="249.1543">DisplayCommManagerStub</text><line style="stroke: #A80036; stroke-width: 1.5;" x1="2032.5" x2="2303.5" y1="261" y2="261"/><line style="stroke: #A80036; stroke-width: 1.5;" x1="2032.5" x2="2303.5" y1="269" y2="269"/><ellipse cx="2042.5" cy="296.8047" fill="#84BE84" rx="3" ry="3" style="stroke: #038048; stroke-width: 1.0;"/><text fill="#000000" font-family="sans-serif" font-size="11" lengthAdjust="spacingAndGlyphs" textLength="247" x="2051.5" y="300.0151">TrackData evaluateRfidRequest(int rfidNum)</text><line style="stroke: #A80036; stroke-width: 1.0; stroke-dasharray: 1.0,2.0;" x1="2032.5" x2="2135" y1="283.4023" y2="283.4023"/><text fill="#000000" font-family="sans-serif" font-size="11" lengthAdjust="spacingAndGlyphs" textLength="66" x="2135" y="286.7104">Use Case 1</text><line style="stroke: #A80036; stroke-width: 1.0; stroke-dasharray: 1.0,2.0;" x1="2201" x2="2303.5" y1="283.4023" y2="283.4023"/><!--MD5=[cf56a65163663c6c6c7b84cd7c204b97]
class MiddlewareCommInterfaceStub--><rect fill="#FEFECE" filter="url(#fsyr1bw2z50g4)" height="77.6094" id="MiddlewareCommInterfaceStub" style="stroke: #A80036; stroke-width: 1.5;" width="225" x="1510.5" y="399"/><ellipse cx="1525.5" cy="415" fill="#ADD1B2" rx="11" ry="11" style="stroke: #A80036; stroke-width: 1.0;"/><path d="M1528.4688,420.6406 Q1527.8906,420.9375 1527.25,421.0781 Q1526.6094,421.2344 1525.9063,421.2344 Q1523.4063,421.2344 1522.0781,419.5938 Q1520.7656,417.9375 1520.7656,414.8125 Q1520.7656,411.6875 1522.0781,410.0313 Q1523.4063,408.375 1525.9063,408.375 Q1526.6094,408.375 1527.25,408.5313 Q1527.9063,408.6875 1528.4688,408.9844 L1528.4688,411.7031 Q1527.8438,411.125 1527.25,410.8594 Q1526.6563,410.5781 1526.0313,410.5781 Q1524.6875,410.5781 1524,411.6563 Q1523.3125,412.7188 1523.3125,414.8125 Q1523.3125,416.9063 1524,417.9844 Q1524.6875,419.0469 1526.0313,419.0469 Q1526.6563,419.0469 1527.25,418.7813 Q1527.8438,418.5 1528.4688,417.9219 L1528.4688,420.6406 Z "/><text fill="#000000" font-family="sans-serif" font-size="12" lengthAdjust="spacingAndGlyphs" textLength="193" x="1539.5" y="419.1543">MiddlewareCommInterfaceStub</text><line style="stroke: #A80036; stroke-width: 1.5;" x1="1511.5" x2="1734.5" y1="431" y2="431"/><line style="stroke: #A80036; stroke-width: 1.5;" x1="1511.5" x2="1734.5" y1="439" y2="439"/><ellipse cx="1521.5" cy="466.8047" fill="#84BE84" rx="3" ry="3" style="stroke: #038048; stroke-width: 1.0;"/><text fill="#000000" font-family="sans-serif" font-size="11" lengthAdjust="spacingAndGlyphs" textLength="171" x="1530.5" y="470.0151">TrackData requestRfid(int rfid)</text><line style="stroke: #A80036; stroke-width: 1.0; stroke-dasharray: 1.0,2.0;" x1="1511.5" x2="1590" y1="453.4023" y2="453.4023"/><text fill="#000000" font-family="sans-serif" font-size="11" lengthAdjust="spacingAndGlyphs" textLength="66" x="1590" y="456.7104">Use Case 1</text><line style="stroke: #A80036; stroke-width: 1.0; stroke-dasharray: 1.0,2.0;" x1="1656" x2="1734.5" y1="453.4023" y2="453.4023"/><!--MD5=[c986427b061286eff33e87a088ad4bf9]
class TrackDataPlotter--><rect fill="#FEFECE" filter="url(#fsyr1bw2z50g4)" height="48" id="TrackDataPlotter" style="stroke: #A80036; stroke-width: 1.5;" width="138" x="2573" y="74"/><ellipse cx="2588" cy="90" fill="#ADD1B2" rx="11" ry="11" style="stroke: #A80036; stroke-width: 1.0;"/><path d="M2590.9688,95.6406 Q2590.3906,95.9375 2589.75,96.0781 Q2589.1094,96.2344 2588.4063,96.2344 Q2585.9063,96.2344 2584.5781,94.5938 Q2583.2656,92.9375 2583.2656,89.8125 Q2583.2656,86.6875 2584.5781,85.0313 Q2585.9063,83.375 2588.4063,83.375 Q2589.1094,83.375 2589.75,83.5313 Q2590.4063,83.6875 2590.9688,83.9844 L2590.9688,86.7031 Q2590.3438,86.125 2589.75,85.8594 Q2589.1563,85.5781 2588.5313,85.5781 Q2587.1875,85.5781 2586.5,86.6563 Q2585.8125,87.7188 2585.8125,89.8125 Q2585.8125,91.9063 2586.5,92.9844 Q2587.1875,94.0469 2588.5313,94.0469 Q2589.1563,94.0469 2589.75,93.7813 Q2590.3438,93.5 2590.9688,92.9219 L2590.9688,95.6406 Z "/><text fill="#000000" font-family="sans-serif" font-size="12" lengthAdjust="spacingAndGlyphs" textLength="106" x="2602" y="94.1543">TrackDataPlotter</text><line style="stroke: #A80036; stroke-width: 1.5;" x1="2574" x2="2710" y1="106" y2="106"/><line style="stroke: #A80036; stroke-width: 1.5;" x1="2574" x2="2710" y1="114" y2="114"/><!--MD5=[c9341cce37a1a8bee80ad1365349afef]
link DisplayCommInterface to DisplayComm2WayInterface--><!--MD5=[7835b7bc4a765bae53638d0402d5d5e6]
link DisplayComm2WayInterface to DisplayCommManager--><!--MD5=[7d92106ecb9088e13e6754b44ec571b0]
link DisplayCommInterface to DisplayCommInterfaceImplementation--><!--MD5=[51e28edbb9f88779af066724948e7048]
link DisplayCommInterfaceImplementation to DisplayComm2WayInterfaceImplementation--><!--MD5=[ea4cd417ea9ea2c0dbdbdf4e4e3d21de]
link DisplayComm2WayInterfaceImplementation to DisplayCommManagerImplementation--><!--MD5=[64e942b00478e9eef28430a914bbb142]
link DisplayCommInterfaceImplementationTests to DisplayComm2WayInterfaceImplementationTests--><!--MD5=[8dbe1f493aaf019419238fc4702b450a]
link DisplayComm2WayInterfaceImplementationTests to DisplayCommManagerImplementationTests--><!--MD5=[e81de192ca7bc9df286fd4cb58be8b46]
link DisplayCommInterfaceImplementationTests to TrackDataPlotterTests--><!--MD5=[8b898a72046de76ad345afd61090e7dd]
link TrackDataPlotterTests to DisplayComm2WayInterfaceStub--><!--MD5=[c9c9241041dbc47aa626fe1afc095e03]
link DisplayComm2WayInterfaceStub to DisplayCommManagerStub--><!--MD5=[61d9c608a539b4614526ad59aeb385a2]
link TrackDataPlotterTests to MiddlewareCommInterfaceStub--><!--MD5=[b69b915a5db5272270232b3f870a899b]
@startuml Display02Packages


package edu.oakland.production.display02 {

}


package edu.oakland.production.display02 {
    interface DisplayCommInterface {
        __
        .. Use Case 1 ..
        {abstract} + TrackData receiveRfidRequest(int rfidNum)
    }
}


package edu.oakland.production.display02 {
    interface DisplayComm2WayInterface {
        __
        .. Use Case 1 ..
        {abstract} + TrackData passRfidRequest(int rfidNum)
    }
}


package edu.oakland.production.display02 {
    interface DisplayCommManager {
        __
        .. Use Case 1 ..
        {abstract} + TrackData evaluateRfidRequest(int rfidNum)
    }
}


package edu.oakland.production.display02 {
    class DisplayCommInterfaceImplementation {
        DisplayComm2WayInterface receiver
        __
        {abstract} + DisplayCommInterface(DisplayComm2WayInterface receiver)
        .. Use Case 1 ..
        {abstract} + TrackData receiveRfidRequest(int rfidNum)
        {abstract} + TrackData passToComm2WayInterface(int rfidNum)

    }
}


package edu.oakland.production.display02 {
    class DisplayComm2WayInterfaceImplementation {
        DisplayCommManager manager
        __
        .. Use Case 1 ..
        {abstract} + DisplayComm2WayInterfaceImplementation(DisplayCommManager manager)
        {abstract} + TrackData passRfidRequest(int rfidNum)
        {abstract} + void determineUserRequestFormat(int rfidNum)
        {abstract} + void receiveRequestFromDisplayCommInterface(int rfidNum)
    }
}


package edu.oakland.production.display02 {
    class DisplayCommManagerImplementation {
        MiddlewareCommInterface middleware
        __
        {abstract} + DisplayCommManagerImplementation(MiddlewareCommInterface middleware)
        .. Use Case 1 ..
        {abstract} + TrackData evaluateRfidRequest(int rfidNum)
        {abstract} + TrackData passRequestToMiddlewareCommInterface(int rfidNum)
        {abstract} + void receiveRequestFromDisplay2WayInterface(int rfidNum)

    }
}



package edu.oakland.test.display02 {
    
}


package edu.oakland.test.display02 {
    class DisplayCommInterfaceImplementationTests {

    }
}


package edu.oakland.test.display02 {
    class DisplayComm2WayInterfaceImplementationTests {

    }
}


package edu.oakland.test.display02 {
    class DisplayCommManagerImplementationTests {

    }
}


package edu.oakland.test.display02 {
    class TrackDataPlotterTests {

    }
}


package edu.oakland.test.display02 {
    class DisplayComm2WayInterfaceStub {
        __
        .. Use Case 1 ..
        {abstract} + TrackData passRfidRequest(int rfidNum)
    }
}


package edu.oakland.test.display02 {
    class DisplayCommManagerStub {
        __
        .. Use Case 1 ..
        + TrackData evaluateRfidRequest(int rfidNum)
    }
}


package edu.oakland.test.display02 {
    class MiddlewareCommInterfaceStub {
        __
        .. Use Case 1 ..
        + TrackData requestRfid(int rfid)
    }
}



package edu.oakland.helper.display02 {

}


package edu.oakland.helper.display02 {
    class TrackDataPlotter {
        
    }
}



@enduml

PlantUML version 1.2020.02(Sun Mar 01 10:22:07 GMT 2020)
(GPL source distribution)
Java Runtime: OpenJDK Runtime Environment
JVM: OpenJDK 64-Bit Server VM
Java Version: 11.0.9+11-Ubuntu-0ubuntu1
Operating System: Linux
Default Encoding: ANSI_X3.4-1968
Language: en
Country: US
--></g></svg>