<?xml version="1.0" encoding="UTF-8" standalone="no"?><svg xmlns="http://www.w3.org/2000/svg" xmlns:xlink="http://www.w3.org/1999/xlink" contentScriptType="application/ecmascript" contentStyleType="text/css" height="509px" preserveAspectRatio="none" style="width:2620px;height:509px;" version="1.1" viewBox="0 0 2620 509" width="2620px" zoomAndPan="magnify"><defs><filter height="300%" id="f24gyvqap0rya" width="300%" x="-1" y="-1"><feGaussianBlur result="blurOut" stdDeviation="2.0"/><feColorMatrix in="blurOut" result="blurOut2" type="matrix" values="0 0 0 0 0 0 0 0 0 0 0 0 0 0 0 0 0 0 .4 0"/><feOffset dx="4.0" dy="4.0" in="blurOut2" result="blurOut3"/><feBlend in="SourceGraphic" in2="blurOut3" mode="normal"/></filter></defs><g><!--MD5=[fe59aae6f7bfe371a9c197ec1f7f843a]
cluster edu.oakland.production.display02--><polygon fill="#FFFFFF" filter="url(#f24gyvqap0rya)" points="22,24,295,24,302,46.2969,1264,46.2969,1264,359,22,359,22,24" style="stroke: #000000; stroke-width: 1.5;"/><line style="stroke: #000000; stroke-width: 1.5;" x1="22" x2="302" y1="46.2969" y2="46.2969"/><text fill="#000000" font-family="sans-serif" font-size="14" font-weight="bold" lengthAdjust="spacingAndGlyphs" textLength="267" x="26" y="38.9951">edu.oakland.production.display02</text><!--MD5=[9258003ec405d300d3379b4a3d8dd6ad]
cluster edu.oakland.test.display02--><polygon fill="#FFFFFF" filter="url(#f24gyvqap0rya)" points="1288,39,1506,39,1513,61.2969,2326,61.2969,2326,497,1288,497,1288,39" style="stroke: #000000; stroke-width: 1.5;"/><line style="stroke: #000000; stroke-width: 1.5;" x1="1288" x2="1513" y1="61.2969" y2="61.2969"/><text fill="#000000" font-family="sans-serif" font-size="14" font-weight="bold" lengthAdjust="spacingAndGlyphs" textLength="212" x="1292" y="53.9951">edu.oakland.test.display02</text><!--MD5=[a502031b5a5384de0a21e6ee820fd3b2]
cluster edu.oakland.helper.display02--><polygon fill="#FFFFFF" filter="url(#f24gyvqap0rya)" points="2350,39,2588,39,2595,61.2969,2598,61.2969,2598,138,2350,138,2350,39" style="stroke: #000000; stroke-width: 1.5;"/><line style="stroke: #000000; stroke-width: 1.5;" x1="2350" x2="2595" y1="61.2969" y2="61.2969"/><text fill="#000000" font-family="sans-serif" font-size="14" font-weight="bold" lengthAdjust="spacingAndGlyphs" textLength="232" x="2354" y="53.9951">edu.oakland.helper.display02</text><!--MD5=[c8d1e3134fecb0c949fd2a76cc0bb992]
class DisplayCommInterface--><rect fill="#FEFECE" filter="url(#f24gyvqap0rya)" height="77.6094" id="DisplayCommInterface" style="stroke: #A80036; stroke-width: 1.5;" width="268" x="91" y="59"/><ellipse cx="151.25" cy="75" fill="#B4A7E5" rx="11" ry="11" style="stroke: #A80036; stroke-width: 1.0;"/><path d="M147.1719,70.7656 L147.1719,68.6094 L154.5625,68.6094 L154.5625,70.7656 L152.0938,70.7656 L152.0938,78.8438 L154.5625,78.8438 L154.5625,81 L147.1719,81 L147.1719,78.8438 L149.6406,78.8438 L149.6406,70.7656 L147.1719,70.7656 Z "/><text fill="#000000" font-family="sans-serif" font-size="12" font-style="italic" lengthAdjust="spacingAndGlyphs" textLength="139" x="171.75" y="79.1543">DisplayCommInterface</text><line style="stroke: #A80036; stroke-width: 1.5;" x1="92" x2="358" y1="91" y2="91"/><line style="stroke: #A80036; stroke-width: 1.5;" x1="92" x2="358" y1="99" y2="99"/><ellipse cx="102" cy="126.8047" fill="#84BE84" rx="3" ry="3" style="stroke: #038048; stroke-width: 1.0;"/><text fill="#000000" font-family="sans-serif" font-size="11" font-style="italic" lengthAdjust="spacingAndGlyphs" textLength="242" x="111" y="130.0151">TrackData receiveRfidRequest(int rfidNum)</text><line style="stroke: #A80036; stroke-width: 1.0; stroke-dasharray: 1.0,2.0;" x1="92" x2="192" y1="113.4023" y2="113.4023"/><text fill="#000000" font-family="sans-serif" font-size="11" lengthAdjust="spacingAndGlyphs" textLength="66" x="192" y="116.7104">Use Case 1</text><line style="stroke: #A80036; stroke-width: 1.0; stroke-dasharray: 1.0,2.0;" x1="258" x2="358" y1="113.4023" y2="113.4023"/><!--MD5=[f6b51b5f862da5ce226c62e411e84628]
class DisplayComm2WayInterface--><rect fill="#FEFECE" filter="url(#f24gyvqap0rya)" height="77.6094" id="DisplayComm2WayInterface" style="stroke: #A80036; stroke-width: 1.5;" width="252" x="394" y="59"/><ellipse cx="429.7" cy="75" fill="#B4A7E5" rx="11" ry="11" style="stroke: #A80036; stroke-width: 1.0;"/><path d="M425.6219,70.7656 L425.6219,68.6094 L433.0125,68.6094 L433.0125,70.7656 L430.5438,70.7656 L430.5438,78.8438 L433.0125,78.8438 L433.0125,81 L425.6219,81 L425.6219,78.8438 L428.0906,78.8438 L428.0906,70.7656 L425.6219,70.7656 Z "/><text fill="#000000" font-family="sans-serif" font-size="12" font-style="italic" lengthAdjust="spacingAndGlyphs" textLength="174" x="448.3" y="79.1543">DisplayComm2WayInterface</text><line style="stroke: #A80036; stroke-width: 1.5;" x1="395" x2="645" y1="91" y2="91"/><line style="stroke: #A80036; stroke-width: 1.5;" x1="395" x2="645" y1="99" y2="99"/><ellipse cx="405" cy="126.8047" fill="#84BE84" rx="3" ry="3" style="stroke: #038048; stroke-width: 1.0;"/><text fill="#000000" font-family="sans-serif" font-size="11" font-style="italic" lengthAdjust="spacingAndGlyphs" textLength="226" x="414" y="130.0151">TrackData passRfidRequest(int rfidNum)</text><line style="stroke: #A80036; stroke-width: 1.0; stroke-dasharray: 1.0,2.0;" x1="395" x2="487" y1="113.4023" y2="113.4023"/><text fill="#000000" font-family="sans-serif" font-size="11" lengthAdjust="spacingAndGlyphs" textLength="66" x="487" y="116.7104">Use Case 1</text><line style="stroke: #A80036; stroke-width: 1.0; stroke-dasharray: 1.0,2.0;" x1="553" x2="645" y1="113.4023" y2="113.4023"/><!--MD5=[6aeb72f2773d7cabb45309482beeff0a]
class DisplayCommManager--><rect fill="#FEFECE" filter="url(#f24gyvqap0rya)" height="77.6094" id="DisplayCommManager" style="stroke: #A80036; stroke-width: 1.5;" width="275" x="681.5" y="59"/><ellipse cx="746.25" cy="75" fill="#B4A7E5" rx="11" ry="11" style="stroke: #A80036; stroke-width: 1.0;"/><path d="M742.1719,70.7656 L742.1719,68.6094 L749.5625,68.6094 L749.5625,70.7656 L747.0938,70.7656 L747.0938,78.8438 L749.5625,78.8438 L749.5625,81 L742.1719,81 L742.1719,78.8438 L744.6406,78.8438 L744.6406,70.7656 L742.1719,70.7656 Z "/><text fill="#000000" font-family="sans-serif" font-size="12" font-style="italic" lengthAdjust="spacingAndGlyphs" textLength="137" x="766.75" y="79.1543">DisplayCommManager</text><line style="stroke: #A80036; stroke-width: 1.5;" x1="682.5" x2="955.5" y1="91" y2="91"/><line style="stroke: #A80036; stroke-width: 1.5;" x1="682.5" x2="955.5" y1="99" y2="99"/><ellipse cx="692.5" cy="126.8047" fill="#84BE84" rx="3" ry="3" style="stroke: #038048; stroke-width: 1.0;"/><text fill="#000000" font-family="sans-serif" font-size="11" font-style="italic" lengthAdjust="spacingAndGlyphs" textLength="249" x="701.5" y="130.0151">TrackData evaluateRfidRequest(int rfidNum)</text><line style="stroke: #A80036; stroke-width: 1.0; stroke-dasharray: 1.0,2.0;" x1="682.5" x2="786" y1="113.4023" y2="113.4023"/><text fill="#000000" font-family="sans-serif" font-size="11" lengthAdjust="spacingAndGlyphs" textLength="66" x="786" y="116.7104">Use Case 1</text><line style="stroke: #A80036; stroke-width: 1.0; stroke-dasharray: 1.0,2.0;" x1="852" x2="955.5" y1="113.4023" y2="113.4023"/><!--MD5=[a35092e604da7274febf4e2cf9a25087]
class DisplayCommInterfaceImplementation--><rect fill="#FEFECE" filter="url(#f24gyvqap0rya)" height="128.8281" id="DisplayCommInterfaceImplementation" style="stroke: #A80036; stroke-width: 1.5;" width="373" x="38.5" y="205.5"/><ellipse cx="103.25" cy="221.5" fill="#ADD1B2" rx="11" ry="11" style="stroke: #A80036; stroke-width: 1.0;"/><path d="M106.2188,227.1406 Q105.6406,227.4375 105,227.5781 Q104.3594,227.7344 103.6563,227.7344 Q101.1563,227.7344 99.8281,226.0938 Q98.5156,224.4375 98.5156,221.3125 Q98.5156,218.1875 99.8281,216.5313 Q101.1563,214.875 103.6563,214.875 Q104.3594,214.875 105,215.0313 Q105.6563,215.1875 106.2188,215.4844 L106.2188,218.2031 Q105.5938,217.625 105,217.3594 Q104.4063,217.0781 103.7813,217.0781 Q102.4375,217.0781 101.75,218.1563 Q101.0625,219.2188 101.0625,221.3125 Q101.0625,223.4063 101.75,224.4844 Q102.4375,225.5469 103.7813,225.5469 Q104.4063,225.5469 105,225.2813 Q105.5938,225 106.2188,224.4219 L106.2188,227.1406 Z "/><text fill="#000000" font-family="sans-serif" font-size="12" lengthAdjust="spacingAndGlyphs" textLength="235" x="123.75" y="225.6543">DisplayCommInterfaceImplementation</text><line style="stroke: #A80036; stroke-width: 1.5;" x1="39.5" x2="410.5" y1="237.5" y2="237.5"/><text fill="#000000" font-family="sans-serif" font-size="11" lengthAdjust="spacingAndGlyphs" textLength="207" x="44.5" y="251.7104">DisplayComm2WayInterface receiver</text><line style="stroke: #A80036; stroke-width: 1.5;" x1="39.5" x2="410.5" y1="258.3047" y2="258.3047"/><ellipse cx="49.5" cy="269.3047" fill="#84BE84" rx="3" ry="3" style="stroke: #038048; stroke-width: 1.0;"/><text fill="#000000" font-family="sans-serif" font-size="11" font-style="italic" lengthAdjust="spacingAndGlyphs" textLength="347" x="58.5" y="272.5151">DisplayCommInterface(DisplayComm2WayInterface receiver)</text><ellipse cx="49.5" cy="298.9141" fill="#84BE84" rx="3" ry="3" style="stroke: #038048; stroke-width: 1.0;"/><text fill="#000000" font-family="sans-serif" font-size="11" font-style="italic" lengthAdjust="spacingAndGlyphs" textLength="242" x="58.5" y="302.1245">TrackData receiveRfidRequest(int rfidNum)</text><ellipse cx="49.5" cy="311.7188" fill="#84BE84" rx="3" ry="3" style="stroke: #038048; stroke-width: 1.0;"/><text fill="#000000" font-family="sans-serif" font-size="11" font-style="italic" lengthAdjust="spacingAndGlyphs" textLength="291" x="58.5" y="314.9292">TrackData passToComm2WayInterface(int rfidNum)</text><text fill="#000000" font-family="sans-serif" font-size="11" lengthAdjust="spacingAndGlyphs" textLength="0" x="62.5" y="327.7339"/><line style="stroke: #A80036; stroke-width: 1.0; stroke-dasharray: 1.0,2.0;" x1="39.5" x2="192" y1="285.5117" y2="285.5117"/><text fill="#000000" font-family="sans-serif" font-size="11" lengthAdjust="spacingAndGlyphs" textLength="66" x="192" y="288.8198">Use Case 1</text><line style="stroke: #A80036; stroke-width: 1.0; stroke-dasharray: 1.0,2.0;" x1="258" x2="410.5" y1="285.5117" y2="285.5117"/><!--MD5=[46657c2900260d4d40350fe3f8c544df]
class DisplayComm2WayInterfaceImplementation--><rect fill="#FEFECE" filter="url(#f24gyvqap0rya)" height="103.2188" id="DisplayComm2WayInterfaceImplementation" style="stroke: #A80036; stroke-width: 1.5;" width="370" x="447" y="218.5"/><ellipse cx="493.75" cy="234.5" fill="#ADD1B2" rx="11" ry="11" style="stroke: #A80036; stroke-width: 1.0;"/><path d="M496.7188,240.1406 Q496.1406,240.4375 495.5,240.5781 Q494.8594,240.7344 494.1563,240.7344 Q491.6563,240.7344 490.3281,239.0938 Q489.0156,237.4375 489.0156,234.3125 Q489.0156,231.1875 490.3281,229.5313 Q491.6563,227.875 494.1563,227.875 Q494.8594,227.875 495.5,228.0313 Q496.1563,228.1875 496.7188,228.4844 L496.7188,231.2031 Q496.0938,230.625 495.5,230.3594 Q494.9063,230.0781 494.2813,230.0781 Q492.9375,230.0781 492.25,231.1563 Q491.5625,232.2188 491.5625,234.3125 Q491.5625,236.4063 492.25,237.4844 Q492.9375,238.5469 494.2813,238.5469 Q494.9063,238.5469 495.5,238.2813 Q496.0938,238 496.7188,237.4219 L496.7188,240.1406 Z "/><text fill="#000000" font-family="sans-serif" font-size="12" lengthAdjust="spacingAndGlyphs" textLength="268" x="514.25" y="238.6543">DisplayComm2WayInterfaceImplementation</text><line style="stroke: #A80036; stroke-width: 1.5;" x1="448" x2="816" y1="250.5" y2="250.5"/><line style="stroke: #A80036; stroke-width: 1.5;" x1="448" x2="816" y1="258.5" y2="258.5"/><ellipse cx="458" cy="286.3047" fill="#84BE84" rx="3" ry="3" style="stroke: #038048; stroke-width: 1.0;"/><text fill="#000000" font-family="sans-serif" font-size="11" font-style="italic" lengthAdjust="spacingAndGlyphs" textLength="226" x="467" y="289.5151">TrackData passRfidRequest(int rfidNum)</text><ellipse cx="458" cy="299.1094" fill="#84BE84" rx="3" ry="3" style="stroke: #038048; stroke-width: 1.0;"/><text fill="#000000" font-family="sans-serif" font-size="11" font-style="italic" lengthAdjust="spacingAndGlyphs" textLength="269" x="467" y="302.3198">void determineUserRequestFormat(int rfidNum)</text><ellipse cx="458" cy="311.9141" fill="#84BE84" rx="3" ry="3" style="stroke: #038048; stroke-width: 1.0;"/><text fill="#000000" font-family="sans-serif" font-size="11" font-style="italic" lengthAdjust="spacingAndGlyphs" textLength="344" x="467" y="315.1245">void receiveRequestFromDisplayCommInterface(int rfidNum)</text><line style="stroke: #A80036; stroke-width: 1.0; stroke-dasharray: 1.0,2.0;" x1="448" x2="599" y1="272.9023" y2="272.9023"/><text fill="#000000" font-family="sans-serif" font-size="11" lengthAdjust="spacingAndGlyphs" textLength="66" x="599" y="276.2104">Use Case 1</text><line style="stroke: #A80036; stroke-width: 1.0; stroke-dasharray: 1.0,2.0;" x1="665" x2="816" y1="272.9023" y2="272.9023"/><!--MD5=[3a27b63ddb357afc5dde5581215f51f9]
class DisplayCommManagerImplementation--><rect fill="#FEFECE" filter="url(#f24gyvqap0rya)" height="145.6328" id="DisplayCommManagerImplementation" style="stroke: #A80036; stroke-width: 1.5;" width="395" x="852.5" y="197"/><ellipse cx="928.75" cy="213" fill="#ADD1B2" rx="11" ry="11" style="stroke: #A80036; stroke-width: 1.0;"/><path d="M931.7188,218.6406 Q931.1406,218.9375 930.5,219.0781 Q929.8594,219.2344 929.1563,219.2344 Q926.6563,219.2344 925.3281,217.5938 Q924.0156,215.9375 924.0156,212.8125 Q924.0156,209.6875 925.3281,208.0313 Q926.6563,206.375 929.1563,206.375 Q929.8594,206.375 930.5,206.5313 Q931.1563,206.6875 931.7188,206.9844 L931.7188,209.7031 Q931.0938,209.125 930.5,208.8594 Q929.9063,208.5781 929.2813,208.5781 Q927.9375,208.5781 927.25,209.6563 Q926.5625,210.7188 926.5625,212.8125 Q926.5625,214.9063 927.25,215.9844 Q927.9375,217.0469 929.2813,217.0469 Q929.9063,217.0469 930.5,216.7813 Q931.0938,216.5 931.7188,215.9219 L931.7188,218.6406 Z "/><text fill="#000000" font-family="sans-serif" font-size="12" lengthAdjust="spacingAndGlyphs" textLength="234" x="949.25" y="217.1543">DisplayCommManagerImplementation</text><line style="stroke: #A80036; stroke-width: 1.5;" x1="853.5" x2="1246.5" y1="229" y2="229"/><line style="stroke: #A80036; stroke-width: 1.5;" x1="853.5" x2="1246.5" y1="237" y2="237"/><ellipse cx="863.5" cy="264.8047" fill="#84BE84" rx="3" ry="3" style="stroke: #038048; stroke-width: 1.0;"/><text fill="#000000" font-family="sans-serif" font-size="11" font-style="italic" lengthAdjust="spacingAndGlyphs" textLength="249" x="872.5" y="268.0151">TrackData evaluateRfidRequest(int rfidNum)</text><ellipse cx="863.5" cy="277.6094" fill="#84BE84" rx="3" ry="3" style="stroke: #038048; stroke-width: 1.0;"/><text fill="#000000" font-family="sans-serif" font-size="11" font-style="italic" lengthAdjust="spacingAndGlyphs" textLength="369" x="872.5" y="280.8198">TrackData passRequestToMiddlewareCommInterface(int rfidNum)</text><ellipse cx="863.5" cy="290.4141" fill="#84BE84" rx="3" ry="3" style="stroke: #038048; stroke-width: 1.0;"/><text fill="#000000" font-family="sans-serif" font-size="11" font-style="italic" lengthAdjust="spacingAndGlyphs" textLength="339" x="872.5" y="293.6245">void receiveRequestFromDisplay2WayInterface(int rfidNum)</text><text fill="#000000" font-family="sans-serif" font-size="11" lengthAdjust="spacingAndGlyphs" textLength="0" x="876.5" y="306.4292"/><line style="stroke: #A80036; stroke-width: 1.0; stroke-dasharray: 1.0,2.0;" x1="853.5" x2="1017" y1="251.4023" y2="251.4023"/><text fill="#000000" font-family="sans-serif" font-size="11" lengthAdjust="spacingAndGlyphs" textLength="66" x="1017" y="254.7104">Use Case 1</text><line style="stroke: #A80036; stroke-width: 1.0; stroke-dasharray: 1.0,2.0;" x1="1083" x2="1246.5" y1="251.4023" y2="251.4023"/><text fill="#000000" font-family="sans-serif" font-size="11" lengthAdjust="spacingAndGlyphs" textLength="0" x="862.5" y="336.0386"/><line style="stroke: #A80036; stroke-width: 1.0; stroke-dasharray: 1.0,2.0;" x1="853.5" x2="1017" y1="319.4258" y2="319.4258"/><text fill="#000000" font-family="sans-serif" font-size="11" lengthAdjust="spacingAndGlyphs" textLength="66" x="1017" y="322.7339">Use Case 2</text><line style="stroke: #A80036; stroke-width: 1.0; stroke-dasharray: 1.0,2.0;" x1="1083" x2="1246.5" y1="319.4258" y2="319.4258"/><!--MD5=[d454b7777f115113290d89683d7a426c]
class DisplayCommInterfaceImplementationTests--><rect fill="#FEFECE" filter="url(#f24gyvqap0rya)" height="48" id="DisplayCommInterfaceImplementationTests" style="stroke: #A80036; stroke-width: 1.5;" width="301" x="1304.5" y="74"/><ellipse cx="1319.5" cy="90" fill="#ADD1B2" rx="11" ry="11" style="stroke: #A80036; stroke-width: 1.0;"/><path d="M1322.4688,95.6406 Q1321.8906,95.9375 1321.25,96.0781 Q1320.6094,96.2344 1319.9063,96.2344 Q1317.4063,96.2344 1316.0781,94.5938 Q1314.7656,92.9375 1314.7656,89.8125 Q1314.7656,86.6875 1316.0781,85.0313 Q1317.4063,83.375 1319.9063,83.375 Q1320.6094,83.375 1321.25,83.5313 Q1321.9063,83.6875 1322.4688,83.9844 L1322.4688,86.7031 Q1321.8438,86.125 1321.25,85.8594 Q1320.6563,85.5781 1320.0313,85.5781 Q1318.6875,85.5781 1318,86.6563 Q1317.3125,87.7188 1317.3125,89.8125 Q1317.3125,91.9063 1318,92.9844 Q1318.6875,94.0469 1320.0313,94.0469 Q1320.6563,94.0469 1321.25,93.7813 Q1321.8438,93.5 1322.4688,92.9219 L1322.4688,95.6406 Z "/><text fill="#000000" font-family="sans-serif" font-size="12" lengthAdjust="spacingAndGlyphs" textLength="269" x="1333.5" y="94.1543">DisplayCommInterfaceImplementationTests</text><line style="stroke: #A80036; stroke-width: 1.5;" x1="1305.5" x2="1604.5" y1="106" y2="106"/><line style="stroke: #A80036; stroke-width: 1.5;" x1="1305.5" x2="1604.5" y1="114" y2="114"/><!--MD5=[178181f4c7684560c711246055fc01d3]
class DisplayComm2WayInterfaceImplementationTests--><rect fill="#FEFECE" filter="url(#f24gyvqap0rya)" height="48" id="DisplayComm2WayInterfaceImplementationTests" style="stroke: #A80036; stroke-width: 1.5;" width="334" x="1641" y="74"/><ellipse cx="1656" cy="90" fill="#ADD1B2" rx="11" ry="11" style="stroke: #A80036; stroke-width: 1.0;"/><path d="M1658.9688,95.6406 Q1658.3906,95.9375 1657.75,96.0781 Q1657.1094,96.2344 1656.4063,96.2344 Q1653.9063,96.2344 1652.5781,94.5938 Q1651.2656,92.9375 1651.2656,89.8125 Q1651.2656,86.6875 1652.5781,85.0313 Q1653.9063,83.375 1656.4063,83.375 Q1657.1094,83.375 1657.75,83.5313 Q1658.4063,83.6875 1658.9688,83.9844 L1658.9688,86.7031 Q1658.3438,86.125 1657.75,85.8594 Q1657.1563,85.5781 1656.5313,85.5781 Q1655.1875,85.5781 1654.5,86.6563 Q1653.8125,87.7188 1653.8125,89.8125 Q1653.8125,91.9063 1654.5,92.9844 Q1655.1875,94.0469 1656.5313,94.0469 Q1657.1563,94.0469 1657.75,93.7813 Q1658.3438,93.5 1658.9688,92.9219 L1658.9688,95.6406 Z "/><text fill="#000000" font-family="sans-serif" font-size="12" lengthAdjust="spacingAndGlyphs" textLength="302" x="1670" y="94.1543">DisplayComm2WayInterfaceImplementationTests</text><line style="stroke: #A80036; stroke-width: 1.5;" x1="1642" x2="1974" y1="106" y2="106"/><line style="stroke: #A80036; stroke-width: 1.5;" x1="1642" x2="1974" y1="114" y2="114"/><!--MD5=[937d6d8ff87a99d0d5dcd66ee05a1fa4]
class DisplayCommManagerImplementationTests--><rect fill="#FEFECE" filter="url(#f24gyvqap0rya)" height="48" id="DisplayCommManagerImplementationTests" style="stroke: #A80036; stroke-width: 1.5;" width="300" x="2010" y="74"/><ellipse cx="2025" cy="90" fill="#ADD1B2" rx="11" ry="11" style="stroke: #A80036; stroke-width: 1.0;"/><path d="M2027.9688,95.6406 Q2027.3906,95.9375 2026.75,96.0781 Q2026.1094,96.2344 2025.4063,96.2344 Q2022.9063,96.2344 2021.5781,94.5938 Q2020.2656,92.9375 2020.2656,89.8125 Q2020.2656,86.6875 2021.5781,85.0313 Q2022.9063,83.375 2025.4063,83.375 Q2026.1094,83.375 2026.75,83.5313 Q2027.4063,83.6875 2027.9688,83.9844 L2027.9688,86.7031 Q2027.3438,86.125 2026.75,85.8594 Q2026.1563,85.5781 2025.5313,85.5781 Q2024.1875,85.5781 2023.5,86.6563 Q2022.8125,87.7188 2022.8125,89.8125 Q2022.8125,91.9063 2023.5,92.9844 Q2024.1875,94.0469 2025.5313,94.0469 Q2026.1563,94.0469 2026.75,93.7813 Q2027.3438,93.5 2027.9688,92.9219 L2027.9688,95.6406 Z "/><text fill="#000000" font-family="sans-serif" font-size="12" lengthAdjust="spacingAndGlyphs" textLength="268" x="2039" y="94.1543">DisplayCommManagerImplementationTests</text><line style="stroke: #A80036; stroke-width: 1.5;" x1="2011" x2="2309" y1="106" y2="106"/><line style="stroke: #A80036; stroke-width: 1.5;" x1="2011" x2="2309" y1="114" y2="114"/><!--MD5=[930c8140e7c1cb8e71aa7cd49967748e]
class TrackDataPlotterTests--><rect fill="#FEFECE" filter="url(#f24gyvqap0rya)" height="48" id="TrackDataPlotterTests" style="stroke: #A80036; stroke-width: 1.5;" width="172" x="1369" y="246"/><ellipse cx="1384" cy="262" fill="#ADD1B2" rx="11" ry="11" style="stroke: #A80036; stroke-width: 1.0;"/><path d="M1386.9688,267.6406 Q1386.3906,267.9375 1385.75,268.0781 Q1385.1094,268.2344 1384.4063,268.2344 Q1381.9063,268.2344 1380.5781,266.5938 Q1379.2656,264.9375 1379.2656,261.8125 Q1379.2656,258.6875 1380.5781,257.0313 Q1381.9063,255.375 1384.4063,255.375 Q1385.1094,255.375 1385.75,255.5313 Q1386.4063,255.6875 1386.9688,255.9844 L1386.9688,258.7031 Q1386.3438,258.125 1385.75,257.8594 Q1385.1563,257.5781 1384.5313,257.5781 Q1383.1875,257.5781 1382.5,258.6563 Q1381.8125,259.7188 1381.8125,261.8125 Q1381.8125,263.9063 1382.5,264.9844 Q1383.1875,266.0469 1384.5313,266.0469 Q1385.1563,266.0469 1385.75,265.7813 Q1386.3438,265.5 1386.9688,264.9219 L1386.9688,267.6406 Z "/><text fill="#000000" font-family="sans-serif" font-size="12" lengthAdjust="spacingAndGlyphs" textLength="140" x="1398" y="266.1543">TrackDataPlotterTests</text><line style="stroke: #A80036; stroke-width: 1.5;" x1="1370" x2="1540" y1="278" y2="278"/><line style="stroke: #A80036; stroke-width: 1.5;" x1="1370" x2="1540" y1="286" y2="286"/><!--MD5=[a333ac13e0fdf2a5898aafabd38d3c1b]
class DisplayComm2WayInterfaceStub--><rect fill="#FEFECE" filter="url(#f24gyvqap0rya)" height="77.6094" id="DisplayComm2WayInterfaceStub" style="stroke: #A80036; stroke-width: 1.5;" width="252" x="1576" y="231"/><ellipse cx="1600" cy="247" fill="#ADD1B2" rx="11" ry="11" style="stroke: #A80036; stroke-width: 1.0;"/><path d="M1602.9688,252.6406 Q1602.3906,252.9375 1601.75,253.0781 Q1601.1094,253.2344 1600.4063,253.2344 Q1597.9063,253.2344 1596.5781,251.5938 Q1595.2656,249.9375 1595.2656,246.8125 Q1595.2656,243.6875 1596.5781,242.0313 Q1597.9063,240.375 1600.4063,240.375 Q1601.1094,240.375 1601.75,240.5313 Q1602.4063,240.6875 1602.9688,240.9844 L1602.9688,243.7031 Q1602.3438,243.125 1601.75,242.8594 Q1601.1563,242.5781 1600.5313,242.5781 Q1599.1875,242.5781 1598.5,243.6563 Q1597.8125,244.7188 1597.8125,246.8125 Q1597.8125,248.9063 1598.5,249.9844 Q1599.1875,251.0469 1600.5313,251.0469 Q1601.1563,251.0469 1601.75,250.7813 Q1602.3438,250.5 1602.9688,249.9219 L1602.9688,252.6406 Z "/><text fill="#000000" font-family="sans-serif" font-size="12" lengthAdjust="spacingAndGlyphs" textLength="200" x="1616" y="251.1543">DisplayComm2WayInterfaceStub</text><line style="stroke: #A80036; stroke-width: 1.5;" x1="1577" x2="1827" y1="263" y2="263"/><line style="stroke: #A80036; stroke-width: 1.5;" x1="1577" x2="1827" y1="271" y2="271"/><ellipse cx="1587" cy="298.8047" fill="#84BE84" rx="3" ry="3" style="stroke: #038048; stroke-width: 1.0;"/><text fill="#000000" font-family="sans-serif" font-size="11" font-style="italic" lengthAdjust="spacingAndGlyphs" textLength="226" x="1596" y="302.0151">TrackData passRfidRequest(int rfidNum)</text><line style="stroke: #A80036; stroke-width: 1.0; stroke-dasharray: 1.0,2.0;" x1="1577" x2="1669" y1="285.4023" y2="285.4023"/><text fill="#000000" font-family="sans-serif" font-size="11" lengthAdjust="spacingAndGlyphs" textLength="66" x="1669" y="288.7104">Use Case 1</text><line style="stroke: #A80036; stroke-width: 1.0; stroke-dasharray: 1.0,2.0;" x1="1735" x2="1827" y1="285.4023" y2="285.4023"/><!--MD5=[2970358178d6cf57fc5a801b39eb8d0b]
class DisplayCommManagerStub--><rect fill="#FEFECE" filter="url(#f24gyvqap0rya)" height="77.6094" id="DisplayCommManagerStub" style="stroke: #A80036; stroke-width: 1.5;" width="273" x="1863.5" y="231"/><ellipse cx="1912.75" cy="247" fill="#ADD1B2" rx="11" ry="11" style="stroke: #A80036; stroke-width: 1.0;"/><path d="M1915.7188,252.6406 Q1915.1406,252.9375 1914.5,253.0781 Q1913.8594,253.2344 1913.1563,253.2344 Q1910.6563,253.2344 1909.3281,251.5938 Q1908.0156,249.9375 1908.0156,246.8125 Q1908.0156,243.6875 1909.3281,242.0313 Q1910.6563,240.375 1913.1563,240.375 Q1913.8594,240.375 1914.5,240.5313 Q1915.1563,240.6875 1915.7188,240.9844 L1915.7188,243.7031 Q1915.0938,243.125 1914.5,242.8594 Q1913.9063,242.5781 1913.2813,242.5781 Q1911.9375,242.5781 1911.25,243.6563 Q1910.5625,244.7188 1910.5625,246.8125 Q1910.5625,248.9063 1911.25,249.9844 Q1911.9375,251.0469 1913.2813,251.0469 Q1913.9063,251.0469 1914.5,250.7813 Q1915.0938,250.5 1915.7188,249.9219 L1915.7188,252.6406 Z "/><text fill="#000000" font-family="sans-serif" font-size="12" lengthAdjust="spacingAndGlyphs" textLength="166" x="1933.25" y="251.1543">DisplayCommManagerStub</text><line style="stroke: #A80036; stroke-width: 1.5;" x1="1864.5" x2="2135.5" y1="263" y2="263"/><line style="stroke: #A80036; stroke-width: 1.5;" x1="1864.5" x2="2135.5" y1="271" y2="271"/><ellipse cx="1874.5" cy="298.8047" fill="#84BE84" rx="3" ry="3" style="stroke: #038048; stroke-width: 1.0;"/><text fill="#000000" font-family="sans-serif" font-size="11" lengthAdjust="spacingAndGlyphs" textLength="247" x="1883.5" y="302.0151">TrackData evaluateRfidRequest(int rfidNum)</text><line style="stroke: #A80036; stroke-width: 1.0; stroke-dasharray: 1.0,2.0;" x1="1864.5" x2="1967" y1="285.4023" y2="285.4023"/><text fill="#000000" font-family="sans-serif" font-size="11" lengthAdjust="spacingAndGlyphs" textLength="66" x="1967" y="288.7104">Use Case 1</text><line style="stroke: #A80036; stroke-width: 1.0; stroke-dasharray: 1.0,2.0;" x1="2033" x2="2135.5" y1="285.4023" y2="285.4023"/><!--MD5=[cf56a65163663c6c6c7b84cd7c204b97]
class MiddlewareCommInterfaceStub--><rect fill="#FEFECE" filter="url(#f24gyvqap0rya)" height="77.6094" id="MiddlewareCommInterfaceStub" style="stroke: #A80036; stroke-width: 1.5;" width="225" x="1342.5" y="403"/><ellipse cx="1357.5" cy="419" fill="#ADD1B2" rx="11" ry="11" style="stroke: #A80036; stroke-width: 1.0;"/><path d="M1360.4688,424.6406 Q1359.8906,424.9375 1359.25,425.0781 Q1358.6094,425.2344 1357.9063,425.2344 Q1355.4063,425.2344 1354.0781,423.5938 Q1352.7656,421.9375 1352.7656,418.8125 Q1352.7656,415.6875 1354.0781,414.0313 Q1355.4063,412.375 1357.9063,412.375 Q1358.6094,412.375 1359.25,412.5313 Q1359.9063,412.6875 1360.4688,412.9844 L1360.4688,415.7031 Q1359.8438,415.125 1359.25,414.8594 Q1358.6563,414.5781 1358.0313,414.5781 Q1356.6875,414.5781 1356,415.6563 Q1355.3125,416.7188 1355.3125,418.8125 Q1355.3125,420.9063 1356,421.9844 Q1356.6875,423.0469 1358.0313,423.0469 Q1358.6563,423.0469 1359.25,422.7813 Q1359.8438,422.5 1360.4688,421.9219 L1360.4688,424.6406 Z "/><text fill="#000000" font-family="sans-serif" font-size="12" lengthAdjust="spacingAndGlyphs" textLength="193" x="1371.5" y="423.1543">MiddlewareCommInterfaceStub</text><line style="stroke: #A80036; stroke-width: 1.5;" x1="1343.5" x2="1566.5" y1="435" y2="435"/><line style="stroke: #A80036; stroke-width: 1.5;" x1="1343.5" x2="1566.5" y1="443" y2="443"/><ellipse cx="1353.5" cy="470.8047" fill="#84BE84" rx="3" ry="3" style="stroke: #038048; stroke-width: 1.0;"/><text fill="#000000" font-family="sans-serif" font-size="11" lengthAdjust="spacingAndGlyphs" textLength="171" x="1362.5" y="474.0151">TrackData requestRfid(int rfid)</text><line style="stroke: #A80036; stroke-width: 1.0; stroke-dasharray: 1.0,2.0;" x1="1343.5" x2="1422" y1="457.4023" y2="457.4023"/><text fill="#000000" font-family="sans-serif" font-size="11" lengthAdjust="spacingAndGlyphs" textLength="66" x="1422" y="460.7104">Use Case 1</text><line style="stroke: #A80036; stroke-width: 1.0; stroke-dasharray: 1.0,2.0;" x1="1488" x2="1566.5" y1="457.4023" y2="457.4023"/><!--MD5=[c986427b061286eff33e87a088ad4bf9]
class TrackDataPlotter--><rect fill="#FEFECE" filter="url(#f24gyvqap0rya)" height="48" id="TrackDataPlotter" style="stroke: #A80036; stroke-width: 1.5;" width="138" x="2405" y="74"/><ellipse cx="2420" cy="90" fill="#ADD1B2" rx="11" ry="11" style="stroke: #A80036; stroke-width: 1.0;"/><path d="M2422.9688,95.6406 Q2422.3906,95.9375 2421.75,96.0781 Q2421.1094,96.2344 2420.4063,96.2344 Q2417.9063,96.2344 2416.5781,94.5938 Q2415.2656,92.9375 2415.2656,89.8125 Q2415.2656,86.6875 2416.5781,85.0313 Q2417.9063,83.375 2420.4063,83.375 Q2421.1094,83.375 2421.75,83.5313 Q2422.4063,83.6875 2422.9688,83.9844 L2422.9688,86.7031 Q2422.3438,86.125 2421.75,85.8594 Q2421.1563,85.5781 2420.5313,85.5781 Q2419.1875,85.5781 2418.5,86.6563 Q2417.8125,87.7188 2417.8125,89.8125 Q2417.8125,91.9063 2418.5,92.9844 Q2419.1875,94.0469 2420.5313,94.0469 Q2421.1563,94.0469 2421.75,93.7813 Q2422.3438,93.5 2422.9688,92.9219 L2422.9688,95.6406 Z "/><text fill="#000000" font-family="sans-serif" font-size="12" lengthAdjust="spacingAndGlyphs" textLength="106" x="2434" y="94.1543">TrackDataPlotter</text><line style="stroke: #A80036; stroke-width: 1.5;" x1="2406" x2="2542" y1="106" y2="106"/><line style="stroke: #A80036; stroke-width: 1.5;" x1="2406" x2="2542" y1="114" y2="114"/><!--MD5=[c9341cce37a1a8bee80ad1365349afef]
link DisplayCommInterface to DisplayComm2WayInterface--><!--MD5=[7835b7bc4a765bae53638d0402d5d5e6]
link DisplayComm2WayInterface to DisplayCommManager--><!--MD5=[7d92106ecb9088e13e6754b44ec571b0]
link DisplayCommInterface to DisplayCommInterfaceImplementation--><!--MD5=[51e28edbb9f88779af066724948e7048]
link DisplayCommInterfaceImplementation to DisplayComm2WayInterfaceImplementation--><!--MD5=[ea4cd417ea9ea2c0dbdbdf4e4e3d21de]
link DisplayComm2WayInterfaceImplementation to DisplayCommManagerImplementation--><!--MD5=[64e942b00478e9eef28430a914bbb142]
link DisplayCommInterfaceImplementationTests to DisplayComm2WayInterfaceImplementationTests--><!--MD5=[8dbe1f493aaf019419238fc4702b450a]
link DisplayComm2WayInterfaceImplementationTests to DisplayCommManagerImplementationTests--><!--MD5=[e81de192ca7bc9df286fd4cb58be8b46]
link DisplayCommInterfaceImplementationTests to TrackDataPlotterTests--><!--MD5=[8b898a72046de76ad345afd61090e7dd]
link TrackDataPlotterTests to DisplayComm2WayInterfaceStub--><!--MD5=[c9c9241041dbc47aa626fe1afc095e03]
link DisplayComm2WayInterfaceStub to DisplayCommManagerStub--><!--MD5=[61d9c608a539b4614526ad59aeb385a2]
link TrackDataPlotterTests to MiddlewareCommInterfaceStub--><!--MD5=[777176280fa713195188d9f6f4c105f2]
@startuml Display02Packages


package edu.oakland.production.display02 {

}


package edu.oakland.production.display02 {
    interface DisplayCommInterface {
        __
        .. Use Case 1 ..
        {abstract} + TrackData receiveRfidRequest(int rfidNum)
    }
}


package edu.oakland.production.display02 {
    interface DisplayComm2WayInterface {
        __
        .. Use Case 1 ..
        {abstract} + TrackData passRfidRequest(int rfidNum)
    }
}


package edu.oakland.production.display02 {
    interface DisplayCommManager {
        __
        .. Use Case 1 ..
        {abstract} + TrackData evaluateRfidRequest(int rfidNum)
    }
}


package edu.oakland.production.display02 {
    class DisplayCommInterfaceImplementation {
        DisplayComm2WayInterface receiver
        __
        {abstract} + DisplayCommInterface(DisplayComm2WayInterface receiver)
        .. Use Case 1 ..
        {abstract} + TrackData receiveRfidRequest(int rfidNum)
        {abstract} + TrackData passToComm2WayInterface(int rfidNum)

    }
}


package edu.oakland.production.display02 {
    class DisplayComm2WayInterfaceImplementation {
        __
        .. Use Case 1 ..
        {abstract} + TrackData passRfidRequest(int rfidNum)
        {abstract} + void determineUserRequestFormat(int rfidNum)
        {abstract} + void receiveRequestFromDisplayCommInterface(int rfidNum)
    }
}


package edu.oakland.production.display02 {
    class DisplayCommManagerImplementation {
        __
        .. Use Case 1 ..
        {abstract} + TrackData evaluateRfidRequest(int rfidNum)
        {abstract} + TrackData passRequestToMiddlewareCommInterface(int rfidNum)
        {abstract} + void receiveRequestFromDisplay2WayInterface(int rfidNum)

        .. Use Case 2 ..

    }
}



package edu.oakland.test.display02 {
    
}


package edu.oakland.test.display02 {
    class DisplayCommInterfaceImplementationTests {

    }
}


package edu.oakland.test.display02 {
    class DisplayComm2WayInterfaceImplementationTests {

    }
}


package edu.oakland.test.display02 {
    class DisplayCommManagerImplementationTests {

    }
}


package edu.oakland.test.display02 {
    class TrackDataPlotterTests {

    }
}


package edu.oakland.test.display02 {
    class DisplayComm2WayInterfaceStub {
        __
        .. Use Case 1 ..
        {abstract} + TrackData passRfidRequest(int rfidNum)
    }
}


package edu.oakland.test.display02 {
    class DisplayCommManagerStub {
        __
        .. Use Case 1 ..
        + TrackData evaluateRfidRequest(int rfidNum)
    }
}


package edu.oakland.test.display02 {
    class MiddlewareCommInterfaceStub {
        __
        .. Use Case 1 ..
        + TrackData requestRfid(int rfid)
    }
}



package edu.oakland.helper.display02 {

}


package edu.oakland.helper.display02 {
    class TrackDataPlotter {
        
    }
}



@enduml

PlantUML version 1.2020.02(Sun Mar 01 10:22:07 GMT 2020)
(GPL source distribution)
Java Runtime: OpenJDK Runtime Environment
JVM: OpenJDK 64-Bit Server VM
Java Version: 11.0.9+11-Ubuntu-0ubuntu1
Operating System: Linux
Default Encoding: ANSI_X3.4-1968
Language: en
Country: US
--></g></svg>