<?xml version="1.0" encoding="UTF-8" standalone="no"?><svg xmlns="http://www.w3.org/2000/svg" xmlns:xlink="http://www.w3.org/1999/xlink" contentScriptType="application/ecmascript" contentStyleType="text/css" height="743px" preserveAspectRatio="none" style="width:3230px;height:743px;" version="1.1" viewBox="0 0 3230 743" width="3230px" zoomAndPan="magnify"><defs><filter height="300%" id="fz8cgvthf8tgu" width="300%" x="-1" y="-1"><feGaussianBlur result="blurOut" stdDeviation="2.0"/><feColorMatrix in="blurOut" result="blurOut2" type="matrix" values="0 0 0 0 0 0 0 0 0 0 0 0 0 0 0 0 0 0 .4 0"/><feOffset dx="4.0" dy="4.0" in="blurOut2" result="blurOut3"/><feBlend in="SourceGraphic" in2="blurOut3" mode="normal"/></filter></defs><g><!--MD5=[fe59aae6f7bfe371a9c197ec1f7f843a]
cluster edu.oakland.production.display02--><polygon fill="#FFFFFF" filter="url(#fz8cgvthf8tgu)" points="22,107,295,107,302,129.2969,1656,129.2969,1656,544,22,544,22,107" style="stroke: #000000; stroke-width: 1.5;"/><line style="stroke: #000000; stroke-width: 1.5;" x1="22" x2="302" y1="129.2969" y2="129.2969"/><text fill="#000000" font-family="sans-serif" font-size="14" font-weight="bold" lengthAdjust="spacingAndGlyphs" textLength="267" x="26" y="121.9951">edu.oakland.production.display02</text><!--MD5=[9258003ec405d300d3379b4a3d8dd6ad]
cluster edu.oakland.test.display02--><polygon fill="#FFFFFF" filter="url(#fz8cgvthf8tgu)" points="1680,71,1898,71,1905,93.2969,2850,93.2969,2850,731,1680,731,1680,71" style="stroke: #000000; stroke-width: 1.5;"/><line style="stroke: #000000; stroke-width: 1.5;" x1="1680" x2="1905" y1="93.2969" y2="93.2969"/><text fill="#000000" font-family="sans-serif" font-size="14" font-weight="bold" lengthAdjust="spacingAndGlyphs" textLength="212" x="1684" y="85.9951">edu.oakland.test.display02</text><!--MD5=[a502031b5a5384de0a21e6ee820fd3b2]
cluster edu.oakland.helper.display02--><polygon fill="#FFFFFF" filter="url(#fz8cgvthf8tgu)" points="2874,24,3112,24,3119,46.2969,3208,46.2969,3208,319,2874,319,2874,24" style="stroke: #000000; stroke-width: 1.5;"/><line style="stroke: #000000; stroke-width: 1.5;" x1="2874" x2="3119" y1="46.2969" y2="46.2969"/><text fill="#000000" font-family="sans-serif" font-size="14" font-weight="bold" lengthAdjust="spacingAndGlyphs" textLength="232" x="2878" y="38.9951">edu.oakland.helper.display02</text><!--MD5=[c8d1e3134fecb0c949fd2a76cc0bb992]
class DisplayCommInterface--><rect fill="#FEFECE" filter="url(#fz8cgvthf8tgu)" height="77.6094" id="DisplayCommInterface" style="stroke: #A80036; stroke-width: 1.5;" width="268" x="144" y="142"/><ellipse cx="204.25" cy="158" fill="#B4A7E5" rx="11" ry="11" style="stroke: #A80036; stroke-width: 1.0;"/><path d="M200.1719,153.7656 L200.1719,151.6094 L207.5625,151.6094 L207.5625,153.7656 L205.0938,153.7656 L205.0938,161.8438 L207.5625,161.8438 L207.5625,164 L200.1719,164 L200.1719,161.8438 L202.6406,161.8438 L202.6406,153.7656 L200.1719,153.7656 Z "/><text fill="#000000" font-family="sans-serif" font-size="12" font-style="italic" lengthAdjust="spacingAndGlyphs" textLength="139" x="224.75" y="162.1543">DisplayCommInterface</text><line style="stroke: #A80036; stroke-width: 1.5;" x1="145" x2="411" y1="174" y2="174"/><line style="stroke: #A80036; stroke-width: 1.5;" x1="145" x2="411" y1="182" y2="182"/><ellipse cx="155" cy="209.8047" fill="#84BE84" rx="3" ry="3" style="stroke: #038048; stroke-width: 1.0;"/><text fill="#000000" font-family="sans-serif" font-size="11" font-style="italic" lengthAdjust="spacingAndGlyphs" textLength="242" x="164" y="213.0151">TrackData receiveRfidRequest(int rfidNum)</text><line style="stroke: #A80036; stroke-width: 1.0; stroke-dasharray: 1.0,2.0;" x1="145" x2="245" y1="196.4023" y2="196.4023"/><text fill="#000000" font-family="sans-serif" font-size="11" lengthAdjust="spacingAndGlyphs" textLength="66" x="245" y="199.7104">Use Case 1</text><line style="stroke: #A80036; stroke-width: 1.0; stroke-dasharray: 1.0,2.0;" x1="311" x2="411" y1="196.4023" y2="196.4023"/><!--MD5=[f6b51b5f862da5ce226c62e411e84628]
class DisplayComm2WayInterface--><rect fill="#FEFECE" filter="url(#fz8cgvthf8tgu)" height="77.6094" id="DisplayComm2WayInterface" style="stroke: #A80036; stroke-width: 1.5;" width="252" x="447" y="142"/><ellipse cx="482.7" cy="158" fill="#B4A7E5" rx="11" ry="11" style="stroke: #A80036; stroke-width: 1.0;"/><path d="M478.6219,153.7656 L478.6219,151.6094 L486.0125,151.6094 L486.0125,153.7656 L483.5438,153.7656 L483.5438,161.8438 L486.0125,161.8438 L486.0125,164 L478.6219,164 L478.6219,161.8438 L481.0906,161.8438 L481.0906,153.7656 L478.6219,153.7656 Z "/><text fill="#000000" font-family="sans-serif" font-size="12" font-style="italic" lengthAdjust="spacingAndGlyphs" textLength="174" x="501.3" y="162.1543">DisplayComm2WayInterface</text><line style="stroke: #A80036; stroke-width: 1.5;" x1="448" x2="698" y1="174" y2="174"/><line style="stroke: #A80036; stroke-width: 1.5;" x1="448" x2="698" y1="182" y2="182"/><ellipse cx="458" cy="209.8047" fill="#84BE84" rx="3" ry="3" style="stroke: #038048; stroke-width: 1.0;"/><text fill="#000000" font-family="sans-serif" font-size="11" font-style="italic" lengthAdjust="spacingAndGlyphs" textLength="226" x="467" y="213.0151">TrackData passRfidRequest(int rfidNum)</text><line style="stroke: #A80036; stroke-width: 1.0; stroke-dasharray: 1.0,2.0;" x1="448" x2="540" y1="196.4023" y2="196.4023"/><text fill="#000000" font-family="sans-serif" font-size="11" lengthAdjust="spacingAndGlyphs" textLength="66" x="540" y="199.7104">Use Case 1</text><line style="stroke: #A80036; stroke-width: 1.0; stroke-dasharray: 1.0,2.0;" x1="606" x2="698" y1="196.4023" y2="196.4023"/><!--MD5=[6aeb72f2773d7cabb45309482beeff0a]
class DisplayCommManager--><rect fill="#FEFECE" filter="url(#fz8cgvthf8tgu)" height="77.6094" id="DisplayCommManager" style="stroke: #A80036; stroke-width: 1.5;" width="249" x="734.5" y="142"/><ellipse cx="786.25" cy="158" fill="#B4A7E5" rx="11" ry="11" style="stroke: #A80036; stroke-width: 1.0;"/><path d="M782.1719,153.7656 L782.1719,151.6094 L789.5625,151.6094 L789.5625,153.7656 L787.0938,153.7656 L787.0938,161.8438 L789.5625,161.8438 L789.5625,164 L782.1719,164 L782.1719,161.8438 L784.6406,161.8438 L784.6406,153.7656 L782.1719,153.7656 Z "/><text fill="#000000" font-family="sans-serif" font-size="12" font-style="italic" lengthAdjust="spacingAndGlyphs" textLength="137" x="806.75" y="162.1543">DisplayCommManager</text><line style="stroke: #A80036; stroke-width: 1.5;" x1="735.5" x2="982.5" y1="174" y2="174"/><line style="stroke: #A80036; stroke-width: 1.5;" x1="735.5" x2="982.5" y1="182" y2="182"/><ellipse cx="745.5" cy="209.8047" fill="#84BE84" rx="3" ry="3" style="stroke: #038048; stroke-width: 1.0;"/><text fill="#000000" font-family="sans-serif" font-size="11" font-style="italic" lengthAdjust="spacingAndGlyphs" textLength="223" x="754.5" y="213.0151">TrackData evaluateRfidRequest(int rfid)</text><line style="stroke: #A80036; stroke-width: 1.0; stroke-dasharray: 1.0,2.0;" x1="735.5" x2="826" y1="196.4023" y2="196.4023"/><text fill="#000000" font-family="sans-serif" font-size="11" lengthAdjust="spacingAndGlyphs" textLength="66" x="826" y="199.7104">Use Case 1</text><line style="stroke: #A80036; stroke-width: 1.0; stroke-dasharray: 1.0,2.0;" x1="892" x2="982.5" y1="196.4023" y2="196.4023"/><!--MD5=[a35092e604da7274febf4e2cf9a25087]
class DisplayCommInterfaceImplementation--><rect fill="#FEFECE" filter="url(#fz8cgvthf8tgu)" height="116.0234" id="DisplayCommInterfaceImplementation" style="stroke: #A80036; stroke-width: 1.5;" width="479" x="38.5" y="412"/><ellipse cx="156.25" cy="428" fill="#ADD1B2" rx="11" ry="11" style="stroke: #A80036; stroke-width: 1.0;"/><path d="M159.2188,433.6406 Q158.6406,433.9375 158,434.0781 Q157.3594,434.2344 156.6563,434.2344 Q154.1563,434.2344 152.8281,432.5938 Q151.5156,430.9375 151.5156,427.8125 Q151.5156,424.6875 152.8281,423.0313 Q154.1563,421.375 156.6563,421.375 Q157.3594,421.375 158,421.5313 Q158.6563,421.6875 159.2188,421.9844 L159.2188,424.7031 Q158.5938,424.125 158,423.8594 Q157.4063,423.5781 156.7813,423.5781 Q155.4375,423.5781 154.75,424.6563 Q154.0625,425.7188 154.0625,427.8125 Q154.0625,429.9063 154.75,430.9844 Q155.4375,432.0469 156.7813,432.0469 Q157.4063,432.0469 158,431.7813 Q158.5938,431.5 159.2188,430.9219 L159.2188,433.6406 Z "/><text fill="#000000" font-family="sans-serif" font-size="12" lengthAdjust="spacingAndGlyphs" textLength="235" x="176.75" y="432.1543">DisplayCommInterfaceImplementation</text><line style="stroke: #A80036; stroke-width: 1.5;" x1="39.5" x2="516.5" y1="444" y2="444"/><rect fill="none" height="6" style="stroke: #C82930; stroke-width: 1.0;" width="6" x="46.5" y="452"/><text fill="#000000" font-family="sans-serif" font-size="11" lengthAdjust="spacingAndGlyphs" textLength="225" x="58.5" y="458.2104">DisplayComm2WayInterface comm2Way</text><line style="stroke: #A80036; stroke-width: 1.5;" x1="39.5" x2="516.5" y1="464.8047" y2="464.8047"/><ellipse cx="49.5" cy="475.8047" fill="#84BE84" rx="3" ry="3" style="stroke: #038048; stroke-width: 1.0;"/><text fill="#000000" font-family="sans-serif" font-size="11" lengthAdjust="spacingAndGlyphs" textLength="453" x="58.5" y="479.0151">DisplayCommInterface(DisplayComm2WayInterface displayComm2WayInterface)</text><ellipse cx="49.5" cy="505.4141" fill="#84BE84" rx="3" ry="3" style="stroke: #038048; stroke-width: 1.0;"/><text fill="#000000" font-family="sans-serif" font-size="11" lengthAdjust="spacingAndGlyphs" textLength="240" x="58.5" y="508.6245">TrackData receiveRfidRequest(int rfidNum)</text><text fill="#000000" font-family="sans-serif" font-size="11" lengthAdjust="spacingAndGlyphs" textLength="0" x="62.5" y="521.4292"/><line style="stroke: #A80036; stroke-width: 1.0; stroke-dasharray: 1.0,2.0;" x1="39.5" x2="245" y1="492.0117" y2="492.0117"/><text fill="#000000" font-family="sans-serif" font-size="11" lengthAdjust="spacingAndGlyphs" textLength="66" x="245" y="495.3198">Use Case 1</text><line style="stroke: #A80036; stroke-width: 1.0; stroke-dasharray: 1.0,2.0;" x1="311" x2="516.5" y1="492.0117" y2="492.0117"/><!--MD5=[46657c2900260d4d40350fe3f8c544df]
class DisplayComm2WayInterfaceImplementation--><rect fill="#FEFECE" filter="url(#fz8cgvthf8tgu)" height="103.2188" id="DisplayComm2WayInterfaceImplementation" style="stroke: #A80036; stroke-width: 1.5;" width="494" x="553" y="418.5"/><ellipse cx="661.75" cy="434.5" fill="#ADD1B2" rx="11" ry="11" style="stroke: #A80036; stroke-width: 1.0;"/><path d="M664.7188,440.1406 Q664.1406,440.4375 663.5,440.5781 Q662.8594,440.7344 662.1563,440.7344 Q659.6563,440.7344 658.3281,439.0938 Q657.0156,437.4375 657.0156,434.3125 Q657.0156,431.1875 658.3281,429.5313 Q659.6563,427.875 662.1563,427.875 Q662.8594,427.875 663.5,428.0313 Q664.1563,428.1875 664.7188,428.4844 L664.7188,431.2031 Q664.0938,430.625 663.5,430.3594 Q662.9063,430.0781 662.2813,430.0781 Q660.9375,430.0781 660.25,431.1563 Q659.5625,432.2188 659.5625,434.3125 Q659.5625,436.4063 660.25,437.4844 Q660.9375,438.5469 662.2813,438.5469 Q662.9063,438.5469 663.5,438.2813 Q664.0938,438 664.7188,437.4219 L664.7188,440.1406 Z "/><text fill="#000000" font-family="sans-serif" font-size="12" lengthAdjust="spacingAndGlyphs" textLength="268" x="682.25" y="438.6543">DisplayComm2WayInterfaceImplementation</text><line style="stroke: #A80036; stroke-width: 1.5;" x1="554" x2="1046" y1="450.5" y2="450.5"/><rect fill="none" height="6" style="stroke: #C82930; stroke-width: 1.0;" width="6" x="561" y="458.5"/><text fill="#000000" font-family="sans-serif" font-size="11" lengthAdjust="spacingAndGlyphs" textLength="215" x="573" y="464.7104">DisplayCommManager commManager</text><line style="stroke: #A80036; stroke-width: 1.5;" x1="554" x2="1046" y1="471.3047" y2="471.3047"/><ellipse cx="564" cy="482.3047" fill="#84BE84" rx="3" ry="3" style="stroke: #038048; stroke-width: 1.0;"/><text fill="#000000" font-family="sans-serif" font-size="11" lengthAdjust="spacingAndGlyphs" textLength="468" x="573" y="485.5151">DisplayComm2WayInterfaceImplementation(DisplayCommManager commManager)</text><ellipse cx="564" cy="511.9141" fill="#84BE84" rx="3" ry="3" style="stroke: #038048; stroke-width: 1.0;"/><text fill="#000000" font-family="sans-serif" font-size="11" lengthAdjust="spacingAndGlyphs" textLength="227" x="573" y="515.1245">TrackData passRfidRequest(int rfidNum)</text><line style="stroke: #A80036; stroke-width: 1.0; stroke-dasharray: 1.0,2.0;" x1="554" x2="767" y1="498.5117" y2="498.5117"/><text fill="#000000" font-family="sans-serif" font-size="11" lengthAdjust="spacingAndGlyphs" textLength="66" x="767" y="501.8198">Use Case 1</text><line style="stroke: #A80036; stroke-width: 1.0; stroke-dasharray: 1.0,2.0;" x1="833" x2="1046" y1="498.5117" y2="498.5117"/><!--MD5=[3a27b63ddb357afc5dde5581215f51f9]
class DisplayCommManagerImplementation--><rect fill="#FEFECE" filter="url(#fz8cgvthf8tgu)" height="103.2188" id="DisplayCommManagerImplementation" style="stroke: #A80036; stroke-width: 1.5;" width="557" x="1082.5" y="418.5"/><ellipse cx="1239.75" cy="434.5" fill="#ADD1B2" rx="11" ry="11" style="stroke: #A80036; stroke-width: 1.0;"/><path d="M1242.7188,440.1406 Q1242.1406,440.4375 1241.5,440.5781 Q1240.8594,440.7344 1240.1563,440.7344 Q1237.6563,440.7344 1236.3281,439.0938 Q1235.0156,437.4375 1235.0156,434.3125 Q1235.0156,431.1875 1236.3281,429.5313 Q1237.6563,427.875 1240.1563,427.875 Q1240.8594,427.875 1241.5,428.0313 Q1242.1563,428.1875 1242.7188,428.4844 L1242.7188,431.2031 Q1242.0938,430.625 1241.5,430.3594 Q1240.9063,430.0781 1240.2813,430.0781 Q1238.9375,430.0781 1238.25,431.1563 Q1237.5625,432.2188 1237.5625,434.3125 Q1237.5625,436.4063 1238.25,437.4844 Q1238.9375,438.5469 1240.2813,438.5469 Q1240.9063,438.5469 1241.5,438.2813 Q1242.0938,438 1242.7188,437.4219 L1242.7188,440.1406 Z "/><text fill="#000000" font-family="sans-serif" font-size="12" lengthAdjust="spacingAndGlyphs" textLength="234" x="1260.25" y="438.6543">DisplayCommManagerImplementation</text><line style="stroke: #A80036; stroke-width: 1.5;" x1="1083.5" x2="1638.5" y1="450.5" y2="450.5"/><rect fill="none" height="6" style="stroke: #C82930; stroke-width: 1.0;" width="6" x="1090.5" y="458.5"/><text fill="#000000" font-family="sans-serif" font-size="11" lengthAdjust="spacingAndGlyphs" textLength="221" x="1102.5" y="464.7104">MiddlewareCommInterface middleware</text><line style="stroke: #A80036; stroke-width: 1.5;" x1="1083.5" x2="1638.5" y1="471.3047" y2="471.3047"/><ellipse cx="1093.5" cy="482.3047" fill="#84BE84" rx="3" ry="3" style="stroke: #038048; stroke-width: 1.0;"/><text fill="#000000" font-family="sans-serif" font-size="11" lengthAdjust="spacingAndGlyphs" textLength="531" x="1102.5" y="485.5151">DisplayCommManagerImplementation(MiddlewareCommInterface middlewareCommInterface)</text><ellipse cx="1093.5" cy="511.9141" fill="#84BE84" rx="3" ry="3" style="stroke: #038048; stroke-width: 1.0;"/><text fill="#000000" font-family="sans-serif" font-size="11" lengthAdjust="spacingAndGlyphs" textLength="221" x="1102.5" y="515.1245">TrackData evaluateRfidRequest(int rfid)</text><line style="stroke: #A80036; stroke-width: 1.0; stroke-dasharray: 1.0,2.0;" x1="1083.5" x2="1328" y1="498.5117" y2="498.5117"/><text fill="#000000" font-family="sans-serif" font-size="11" lengthAdjust="spacingAndGlyphs" textLength="66" x="1328" y="501.8198">Use Case 1</text><line style="stroke: #A80036; stroke-width: 1.0; stroke-dasharray: 1.0,2.0;" x1="1394" x2="1638.5" y1="498.5117" y2="498.5117"/><!--MD5=[d454b7777f115113290d89683d7a426c]
class DisplayCommInterfaceImplementationTests--><rect fill="#FEFECE" filter="url(#fz8cgvthf8tgu)" height="150.4375" id="DisplayCommInterfaceImplementationTests" style="stroke: #A80036; stroke-width: 1.5;" width="435" x="1695.5" y="106"/><ellipse cx="1774.25" cy="122" fill="#ADD1B2" rx="11" ry="11" style="stroke: #A80036; stroke-width: 1.0;"/><path d="M1777.2188,127.6406 Q1776.6406,127.9375 1776,128.0781 Q1775.3594,128.2344 1774.6563,128.2344 Q1772.1563,128.2344 1770.8281,126.5938 Q1769.5156,124.9375 1769.5156,121.8125 Q1769.5156,118.6875 1770.8281,117.0313 Q1772.1563,115.375 1774.6563,115.375 Q1775.3594,115.375 1776,115.5313 Q1776.6563,115.6875 1777.2188,115.9844 L1777.2188,118.7031 Q1776.5938,118.125 1776,117.8594 Q1775.4063,117.5781 1774.7813,117.5781 Q1773.4375,117.5781 1772.75,118.6563 Q1772.0625,119.7188 1772.0625,121.8125 Q1772.0625,123.9063 1772.75,124.9844 Q1773.4375,126.0469 1774.7813,126.0469 Q1775.4063,126.0469 1776,125.7813 Q1776.5938,125.5 1777.2188,124.9219 L1777.2188,127.6406 Z "/><text fill="#000000" font-family="sans-serif" font-size="12" lengthAdjust="spacingAndGlyphs" textLength="269" x="1794.75" y="126.1543">DisplayCommInterfaceImplementationTests</text><line style="stroke: #A80036; stroke-width: 1.5;" x1="1696.5" x2="2129.5" y1="138" y2="138"/><line style="stroke: #A80036; stroke-width: 1.5;" x1="1696.5" x2="2129.5" y1="146" y2="146"/><ellipse cx="1706.5" cy="157" fill="#84BE84" rx="3" ry="3" style="stroke: #038048; stroke-width: 1.0;"/><text fill="#000000" font-family="sans-serif" font-size="11" lengthAdjust="spacingAndGlyphs" textLength="191" x="1715.5" y="160.2104">void displayComm2WayIsNotNull()</text><ellipse cx="1706.5" cy="169.8047" fill="#84BE84" rx="3" ry="3" style="stroke: #038048; stroke-width: 1.0;"/><text fill="#000000" font-family="sans-serif" font-size="11" lengthAdjust="spacingAndGlyphs" textLength="254" x="1715.5" y="173.0151">void zeroPointTrackDataDoesNotDisplayPlot()</text><ellipse cx="1706.5" cy="182.6094" fill="#84BE84" rx="3" ry="3" style="stroke: #038048; stroke-width: 1.0;"/><text fill="#000000" font-family="sans-serif" font-size="11" lengthAdjust="spacingAndGlyphs" textLength="154" x="1715.5" y="185.8198">void display2WayIsNotNull()</text><rect fill="#F24D5C" height="6" style="stroke: #C82930; stroke-width: 1.0;" width="6" x="1703.5" y="192.4141"/><text fill="#000000" font-family="sans-serif" font-size="11" lengthAdjust="spacingAndGlyphs" textLength="144" x="1715.5" y="198.6245">int generateRandomRfid()</text><rect fill="#F24D5C" height="6" style="stroke: #C82930; stroke-width: 1.0;" width="6" x="1703.5" y="205.2188"/><text fill="#000000" font-family="sans-serif" font-size="11" lengthAdjust="spacingAndGlyphs" textLength="175" x="1715.5" y="211.4292">float generateRandomCourse()</text><rect fill="#F24D5C" height="6" style="stroke: #C82930; stroke-width: 1.0;" width="6" x="1703.5" y="218.0234"/><text fill="#000000" font-family="sans-serif" font-size="11" lengthAdjust="spacingAndGlyphs" textLength="170" x="1715.5" y="224.2339">float generateRandomSpeed()</text><rect fill="#F24D5C" height="6" style="stroke: #C82930; stroke-width: 1.0;" width="6" x="1703.5" y="230.8281"/><text fill="#000000" font-family="sans-serif" font-size="11" lengthAdjust="spacingAndGlyphs" textLength="409" x="1715.5" y="237.0386">LocationDataPoint[] generateRandomLocationDataPointsArray(int length)</text><rect fill="#F24D5C" height="6" style="stroke: #C82930; stroke-width: 1.0;" width="6" x="1703.5" y="243.6328"/><text fill="#000000" font-family="sans-serif" font-size="11" lengthAdjust="spacingAndGlyphs" textLength="311" x="1715.5" y="249.8433">LocationDataPoint generateRandomLocationDataPoint()</text><!--MD5=[178181f4c7684560c711246055fc01d3]
class DisplayComm2WayInterfaceImplementationTests--><rect fill="#FEFECE" filter="url(#fz8cgvthf8tgu)" height="86.4141" id="DisplayComm2WayInterfaceImplementationTests" style="stroke: #A80036; stroke-width: 1.5;" width="334" x="2165" y="138"/><ellipse cx="2180" cy="154" fill="#ADD1B2" rx="11" ry="11" style="stroke: #A80036; stroke-width: 1.0;"/><path d="M2182.9688,159.6406 Q2182.3906,159.9375 2181.75,160.0781 Q2181.1094,160.2344 2180.4063,160.2344 Q2177.9063,160.2344 2176.5781,158.5938 Q2175.2656,156.9375 2175.2656,153.8125 Q2175.2656,150.6875 2176.5781,149.0313 Q2177.9063,147.375 2180.4063,147.375 Q2181.1094,147.375 2181.75,147.5313 Q2182.4063,147.6875 2182.9688,147.9844 L2182.9688,150.7031 Q2182.3438,150.125 2181.75,149.8594 Q2181.1563,149.5781 2180.5313,149.5781 Q2179.1875,149.5781 2178.5,150.6563 Q2177.8125,151.7188 2177.8125,153.8125 Q2177.8125,155.9063 2178.5,156.9844 Q2179.1875,158.0469 2180.5313,158.0469 Q2181.1563,158.0469 2181.75,157.7813 Q2182.3438,157.5 2182.9688,156.9219 L2182.9688,159.6406 Z "/><text fill="#000000" font-family="sans-serif" font-size="12" lengthAdjust="spacingAndGlyphs" textLength="302" x="2194" y="158.1543">DisplayComm2WayInterfaceImplementationTests</text><line style="stroke: #A80036; stroke-width: 1.5;" x1="2166" x2="2498" y1="170" y2="170"/><line style="stroke: #A80036; stroke-width: 1.5;" x1="2166" x2="2498" y1="178" y2="178"/><ellipse cx="2176" cy="189" fill="#84BE84" rx="3" ry="3" style="stroke: #038048; stroke-width: 1.0;"/><text fill="#000000" font-family="sans-serif" font-size="11" lengthAdjust="spacingAndGlyphs" textLength="115" x="2185" y="192.2104">void rfidInIsRfidOut()</text><ellipse cx="2176" cy="201.8047" fill="#84BE84" rx="3" ry="3" style="stroke: #038048; stroke-width: 1.0;"/><text fill="#000000" font-family="sans-serif" font-size="11" lengthAdjust="spacingAndGlyphs" textLength="169" x="2185" y="205.0151">void commManagerIsNotNull()</text><rect fill="#F24D5C" height="6" style="stroke: #C82930; stroke-width: 1.0;" width="6" x="2173" y="211.6094"/><text fill="#000000" font-family="sans-serif" font-size="11" lengthAdjust="spacingAndGlyphs" textLength="144" x="2185" y="217.8198">int generateRandomRfid()</text><!--MD5=[937d6d8ff87a99d0d5dcd66ee05a1fa4]
class DisplayCommManagerImplementationTests--><rect fill="#FEFECE" filter="url(#fz8cgvthf8tgu)" height="86.4141" id="DisplayCommManagerImplementationTests" style="stroke: #A80036; stroke-width: 1.5;" width="300" x="2534" y="138"/><ellipse cx="2549" cy="154" fill="#ADD1B2" rx="11" ry="11" style="stroke: #A80036; stroke-width: 1.0;"/><path d="M2551.9688,159.6406 Q2551.3906,159.9375 2550.75,160.0781 Q2550.1094,160.2344 2549.4063,160.2344 Q2546.9063,160.2344 2545.5781,158.5938 Q2544.2656,156.9375 2544.2656,153.8125 Q2544.2656,150.6875 2545.5781,149.0313 Q2546.9063,147.375 2549.4063,147.375 Q2550.1094,147.375 2550.75,147.5313 Q2551.4063,147.6875 2551.9688,147.9844 L2551.9688,150.7031 Q2551.3438,150.125 2550.75,149.8594 Q2550.1563,149.5781 2549.5313,149.5781 Q2548.1875,149.5781 2547.5,150.6563 Q2546.8125,151.7188 2546.8125,153.8125 Q2546.8125,155.9063 2547.5,156.9844 Q2548.1875,158.0469 2549.5313,158.0469 Q2550.1563,158.0469 2550.75,157.7813 Q2551.3438,157.5 2551.9688,156.9219 L2551.9688,159.6406 Z "/><text fill="#000000" font-family="sans-serif" font-size="12" lengthAdjust="spacingAndGlyphs" textLength="268" x="2563" y="158.1543">DisplayCommManagerImplementationTests</text><line style="stroke: #A80036; stroke-width: 1.5;" x1="2535" x2="2833" y1="170" y2="170"/><line style="stroke: #A80036; stroke-width: 1.5;" x1="2535" x2="2833" y1="178" y2="178"/><ellipse cx="2545" cy="189" fill="#84BE84" rx="3" ry="3" style="stroke: #038048; stroke-width: 1.0;"/><text fill="#000000" font-family="sans-serif" font-size="11" lengthAdjust="spacingAndGlyphs" textLength="115" x="2554" y="192.2104">void rfidInIsRfidOut()</text><ellipse cx="2545" cy="201.8047" fill="#84BE84" rx="3" ry="3" style="stroke: #038048; stroke-width: 1.0;"/><text fill="#000000" font-family="sans-serif" font-size="11" lengthAdjust="spacingAndGlyphs" textLength="151" x="2554" y="205.0151">void middlewareIsNotNull()</text><rect fill="#F24D5C" height="6" style="stroke: #C82930; stroke-width: 1.0;" width="6" x="2542" y="211.6094"/><text fill="#000000" font-family="sans-serif" font-size="11" lengthAdjust="spacingAndGlyphs" textLength="144" x="2554" y="217.8198">int generateRandomRfid()</text><!--MD5=[930c8140e7c1cb8e71aa7cd49967748e]
class TrackDataPlotterTests--><rect fill="#FEFECE" filter="url(#fz8cgvthf8tgu)" height="214.4609" id="TrackDataPlotterTests" style="stroke: #A80036; stroke-width: 1.5;" width="435" x="1695.5" y="363"/><ellipse cx="1838.75" cy="379" fill="#ADD1B2" rx="11" ry="11" style="stroke: #A80036; stroke-width: 1.0;"/><path d="M1841.7188,384.6406 Q1841.1406,384.9375 1840.5,385.0781 Q1839.8594,385.2344 1839.1563,385.2344 Q1836.6563,385.2344 1835.3281,383.5938 Q1834.0156,381.9375 1834.0156,378.8125 Q1834.0156,375.6875 1835.3281,374.0313 Q1836.6563,372.375 1839.1563,372.375 Q1839.8594,372.375 1840.5,372.5313 Q1841.1563,372.6875 1841.7188,372.9844 L1841.7188,375.7031 Q1841.0938,375.125 1840.5,374.8594 Q1839.9063,374.5781 1839.2813,374.5781 Q1837.9375,374.5781 1837.25,375.6563 Q1836.5625,376.7188 1836.5625,378.8125 Q1836.5625,380.9063 1837.25,381.9844 Q1837.9375,383.0469 1839.2813,383.0469 Q1839.9063,383.0469 1840.5,382.7813 Q1841.0938,382.5 1841.7188,381.9219 L1841.7188,384.6406 Z "/><text fill="#000000" font-family="sans-serif" font-size="12" lengthAdjust="spacingAndGlyphs" textLength="140" x="1859.25" y="383.1543">TrackDataPlotterTests</text><line style="stroke: #A80036; stroke-width: 1.5;" x1="1696.5" x2="2129.5" y1="395" y2="395"/><line style="stroke: #A80036; stroke-width: 1.5;" x1="1696.5" x2="2129.5" y1="403" y2="403"/><ellipse cx="1706.5" cy="414" fill="#84BE84" rx="3" ry="3" style="stroke: #038048; stroke-width: 1.0;"/><text fill="#000000" font-family="sans-serif" font-size="11" lengthAdjust="spacingAndGlyphs" textLength="212" x="1715.5" y="417.2104">void plotIsDisplayedWith5DataPoints()</text><ellipse cx="1706.5" cy="426.8047" fill="#84BE84" rx="3" ry="3" style="stroke: #038048; stroke-width: 1.0;"/><text fill="#000000" font-family="sans-serif" font-size="11" lengthAdjust="spacingAndGlyphs" textLength="205" x="1715.5" y="430.0151">void plotIsDisplayedWith1DataPoint()</text><ellipse cx="1706.5" cy="439.6094" fill="#84BE84" rx="3" ry="3" style="stroke: #038048; stroke-width: 1.0;"/><text fill="#000000" font-family="sans-serif" font-size="11" lengthAdjust="spacingAndGlyphs" textLength="236" x="1715.5" y="442.8198">void plotIsDisplayedWith2PlusDataPoints()</text><ellipse cx="1706.5" cy="452.4141" fill="#84BE84" rx="3" ry="3" style="stroke: #038048; stroke-width: 1.0;"/><text fill="#000000" font-family="sans-serif" font-size="11" lengthAdjust="spacingAndGlyphs" textLength="174" x="1715.5" y="455.6245">void nullTrackDataNotAllowed()</text><ellipse cx="1706.5" cy="465.2188" fill="#84BE84" rx="3" ry="3" style="stroke: #038048; stroke-width: 1.0;"/><text fill="#000000" font-family="sans-serif" font-size="11" lengthAdjust="spacingAndGlyphs" textLength="206" x="1715.5" y="468.4292">void zeroPointTrackDataNotAllowed()</text><rect fill="#F24D5C" height="6" style="stroke: #C82930; stroke-width: 1.0;" width="6" x="1703.5" y="475.0234"/><text fill="#000000" font-family="sans-serif" font-size="11" lengthAdjust="spacingAndGlyphs" textLength="204" x="1715.5" y="481.2339">TrackData generateValidTrackData()</text><rect fill="#F24D5C" height="6" style="stroke: #C82930; stroke-width: 1.0;" width="6" x="1703.5" y="487.8281"/><text fill="#000000" font-family="sans-serif" font-size="11" lengthAdjust="spacingAndGlyphs" textLength="240" x="1715.5" y="494.0386">TrackData generateSinglePointTrackData()</text><rect fill="#F24D5C" height="6" style="stroke: #C82930; stroke-width: 1.0;" width="6" x="1703.5" y="500.6328"/><text fill="#000000" font-family="sans-serif" font-size="11" lengthAdjust="spacingAndGlyphs" textLength="233" x="1715.5" y="506.8433">TrackData generate2To4PointTrackData()</text><rect fill="#F24D5C" height="6" style="stroke: #C82930; stroke-width: 1.0;" width="6" x="1703.5" y="513.4375"/><text fill="#000000" font-family="sans-serif" font-size="11" lengthAdjust="spacingAndGlyphs" textLength="175" x="1715.5" y="519.6479">float generateRandomCourse()</text><rect fill="#F24D5C" height="6" style="stroke: #C82930; stroke-width: 1.0;" width="6" x="1703.5" y="526.2422"/><text fill="#000000" font-family="sans-serif" font-size="11" lengthAdjust="spacingAndGlyphs" textLength="170" x="1715.5" y="532.4526">float generateRandomSpeed()</text><rect fill="#F24D5C" height="6" style="stroke: #C82930; stroke-width: 1.0;" width="6" x="1703.5" y="539.0469"/><text fill="#000000" font-family="sans-serif" font-size="11" lengthAdjust="spacingAndGlyphs" textLength="244" x="1715.5" y="545.2573">int generateRandomTooSmallArrayLength()</text><rect fill="#F24D5C" height="6" style="stroke: #C82930; stroke-width: 1.0;" width="6" x="1703.5" y="551.8516"/><text fill="#000000" font-family="sans-serif" font-size="11" lengthAdjust="spacingAndGlyphs" textLength="409" x="1715.5" y="558.062">LocationDataPoint[] generateRandomLocationDataPointsArray(int length)</text><rect fill="#F24D5C" height="6" style="stroke: #C82930; stroke-width: 1.0;" width="6" x="1703.5" y="564.6563"/><text fill="#000000" font-family="sans-serif" font-size="11" lengthAdjust="spacingAndGlyphs" textLength="311" x="1715.5" y="570.8667">LocationDataPoint generateRandomLocationDataPoint()</text><!--MD5=[a333ac13e0fdf2a5898aafabd38d3c1b]
class DisplayComm2WayInterfaceStub--><rect fill="#FEFECE" filter="url(#fz8cgvthf8tgu)" height="103.2188" id="DisplayComm2WayInterfaceStub" style="stroke: #A80036; stroke-width: 1.5;" width="334" x="2165" y="418.5"/><ellipse cx="2227.75" cy="434.5" fill="#ADD1B2" rx="11" ry="11" style="stroke: #A80036; stroke-width: 1.0;"/><path d="M2230.7188,440.1406 Q2230.1406,440.4375 2229.5,440.5781 Q2228.8594,440.7344 2228.1563,440.7344 Q2225.6563,440.7344 2224.3281,439.0938 Q2223.0156,437.4375 2223.0156,434.3125 Q2223.0156,431.1875 2224.3281,429.5313 Q2225.6563,427.875 2228.1563,427.875 Q2228.8594,427.875 2229.5,428.0313 Q2230.1563,428.1875 2230.7188,428.4844 L2230.7188,431.2031 Q2230.0938,430.625 2229.5,430.3594 Q2228.9063,430.0781 2228.2813,430.0781 Q2226.9375,430.0781 2226.25,431.1563 Q2225.5625,432.2188 2225.5625,434.3125 Q2225.5625,436.4063 2226.25,437.4844 Q2226.9375,438.5469 2228.2813,438.5469 Q2228.9063,438.5469 2229.5,438.2813 Q2230.0938,438 2230.7188,437.4219 L2230.7188,440.1406 Z "/><text fill="#000000" font-family="sans-serif" font-size="12" lengthAdjust="spacingAndGlyphs" textLength="200" x="2248.25" y="438.6543">DisplayComm2WayInterfaceStub</text><line style="stroke: #A80036; stroke-width: 1.5;" x1="2166" x2="2498" y1="450.5" y2="450.5"/><rect fill="none" height="6" style="stroke: #C82930; stroke-width: 1.0;" width="6" x="2173" y="458.5"/><text fill="#000000" font-family="sans-serif" font-size="11" lengthAdjust="spacingAndGlyphs" textLength="115" x="2185" y="464.7104">TrackData trackData</text><line style="stroke: #A80036; stroke-width: 1.5;" x1="2166" x2="2498" y1="471.3047" y2="471.3047"/><ellipse cx="2176" cy="482.3047" fill="#84BE84" rx="3" ry="3" style="stroke: #038048; stroke-width: 1.0;"/><text fill="#000000" font-family="sans-serif" font-size="11" font-style="italic" lengthAdjust="spacingAndGlyphs" textLength="308" x="2185" y="485.5151">DisplayComm2WayInterfaceStub(TrackData trackData)</text><ellipse cx="2176" cy="511.9141" fill="#84BE84" rx="3" ry="3" style="stroke: #038048; stroke-width: 1.0;"/><text fill="#000000" font-family="sans-serif" font-size="11" font-style="italic" lengthAdjust="spacingAndGlyphs" textLength="200" x="2185" y="515.1245">TrackData passRfidRequest(int rfid)</text><line style="stroke: #A80036; stroke-width: 1.0; stroke-dasharray: 1.0,2.0;" x1="2166" x2="2299" y1="498.5117" y2="498.5117"/><text fill="#000000" font-family="sans-serif" font-size="11" lengthAdjust="spacingAndGlyphs" textLength="66" x="2299" y="501.8198">Use Case 1</text><line style="stroke: #A80036; stroke-width: 1.0; stroke-dasharray: 1.0,2.0;" x1="2365" x2="2498" y1="498.5117" y2="498.5117"/><!--MD5=[2970358178d6cf57fc5a801b39eb8d0b]
class DisplayCommManagerStub--><rect fill="#FEFECE" filter="url(#fz8cgvthf8tgu)" height="77.6094" id="DisplayCommManagerStub" style="stroke: #A80036; stroke-width: 1.5;" width="247" x="2534.5" y="431"/><ellipse cx="2571.55" cy="447" fill="#ADD1B2" rx="11" ry="11" style="stroke: #A80036; stroke-width: 1.0;"/><path d="M2574.5188,452.6406 Q2573.9406,452.9375 2573.3,453.0781 Q2572.6594,453.2344 2571.9563,453.2344 Q2569.4563,453.2344 2568.1281,451.5938 Q2566.8156,449.9375 2566.8156,446.8125 Q2566.8156,443.6875 2568.1281,442.0313 Q2569.4563,440.375 2571.9563,440.375 Q2572.6594,440.375 2573.3,440.5313 Q2573.9563,440.6875 2574.5188,440.9844 L2574.5188,443.7031 Q2573.8938,443.125 2573.3,442.8594 Q2572.7063,442.5781 2572.0813,442.5781 Q2570.7375,442.5781 2570.05,443.6563 Q2569.3625,444.7188 2569.3625,446.8125 Q2569.3625,448.9063 2570.05,449.9844 Q2570.7375,451.0469 2572.0813,451.0469 Q2572.7063,451.0469 2573.3,450.7813 Q2573.8938,450.5 2574.5188,449.9219 L2574.5188,452.6406 Z "/><text fill="#000000" font-family="sans-serif" font-size="12" lengthAdjust="spacingAndGlyphs" textLength="166" x="2590.45" y="451.1543">DisplayCommManagerStub</text><line style="stroke: #A80036; stroke-width: 1.5;" x1="2535.5" x2="2780.5" y1="463" y2="463"/><line style="stroke: #A80036; stroke-width: 1.5;" x1="2535.5" x2="2780.5" y1="471" y2="471"/><ellipse cx="2545.5" cy="498.8047" fill="#84BE84" rx="3" ry="3" style="stroke: #038048; stroke-width: 1.0;"/><text fill="#000000" font-family="sans-serif" font-size="11" lengthAdjust="spacingAndGlyphs" textLength="221" x="2554.5" y="502.0151">TrackData evaluateRfidRequest(int rfid)</text><line style="stroke: #A80036; stroke-width: 1.0; stroke-dasharray: 1.0,2.0;" x1="2535.5" x2="2625" y1="485.4023" y2="485.4023"/><text fill="#000000" font-family="sans-serif" font-size="11" lengthAdjust="spacingAndGlyphs" textLength="66" x="2625" y="488.7104">Use Case 1</text><line style="stroke: #A80036; stroke-width: 1.0; stroke-dasharray: 1.0,2.0;" x1="2691" x2="2780.5" y1="485.4023" y2="485.4023"/><!--MD5=[cf56a65163663c6c6c7b84cd7c204b97]
class MiddlewareCommInterfaceStub--><rect fill="#FEFECE" filter="url(#fz8cgvthf8tgu)" height="77.6094" id="MiddlewareCommInterfaceStub" style="stroke: #A80036; stroke-width: 1.5;" width="225" x="1800.5" y="637"/><ellipse cx="1815.5" cy="653" fill="#ADD1B2" rx="11" ry="11" style="stroke: #A80036; stroke-width: 1.0;"/><path d="M1818.4688,658.6406 Q1817.8906,658.9375 1817.25,659.0781 Q1816.6094,659.2344 1815.9063,659.2344 Q1813.4063,659.2344 1812.0781,657.5938 Q1810.7656,655.9375 1810.7656,652.8125 Q1810.7656,649.6875 1812.0781,648.0313 Q1813.4063,646.375 1815.9063,646.375 Q1816.6094,646.375 1817.25,646.5313 Q1817.9063,646.6875 1818.4688,646.9844 L1818.4688,649.7031 Q1817.8438,649.125 1817.25,648.8594 Q1816.6563,648.5781 1816.0313,648.5781 Q1814.6875,648.5781 1814,649.6563 Q1813.3125,650.7188 1813.3125,652.8125 Q1813.3125,654.9063 1814,655.9844 Q1814.6875,657.0469 1816.0313,657.0469 Q1816.6563,657.0469 1817.25,656.7813 Q1817.8438,656.5 1818.4688,655.9219 L1818.4688,658.6406 Z "/><text fill="#000000" font-family="sans-serif" font-size="12" lengthAdjust="spacingAndGlyphs" textLength="193" x="1829.5" y="657.1543">MiddlewareCommInterfaceStub</text><line style="stroke: #A80036; stroke-width: 1.5;" x1="1801.5" x2="2024.5" y1="669" y2="669"/><line style="stroke: #A80036; stroke-width: 1.5;" x1="1801.5" x2="2024.5" y1="677" y2="677"/><ellipse cx="1811.5" cy="704.8047" fill="#84BE84" rx="3" ry="3" style="stroke: #038048; stroke-width: 1.0;"/><text fill="#000000" font-family="sans-serif" font-size="11" lengthAdjust="spacingAndGlyphs" textLength="171" x="1820.5" y="708.0151">TrackData requestRfid(int rfid)</text><line style="stroke: #A80036; stroke-width: 1.0; stroke-dasharray: 1.0,2.0;" x1="1801.5" x2="1880" y1="691.4023" y2="691.4023"/><text fill="#000000" font-family="sans-serif" font-size="11" lengthAdjust="spacingAndGlyphs" textLength="66" x="1880" y="694.7104">Use Case 1</text><line style="stroke: #A80036; stroke-width: 1.0; stroke-dasharray: 1.0,2.0;" x1="1946" x2="2024.5" y1="691.4023" y2="691.4023"/><!--MD5=[c986427b061286eff33e87a088ad4bf9]
class TrackDataPlotter--><rect fill="#FEFECE" filter="url(#fz8cgvthf8tgu)" height="244.0703" id="TrackDataPlotter" style="stroke: #A80036; stroke-width: 1.5;" width="302" x="2890" y="59"/><ellipse cx="2983.75" cy="75" fill="#ADD1B2" rx="11" ry="11" style="stroke: #A80036; stroke-width: 1.0;"/><path d="M2986.7188,80.6406 Q2986.1406,80.9375 2985.5,81.0781 Q2984.8594,81.2344 2984.1563,81.2344 Q2981.6563,81.2344 2980.3281,79.5938 Q2979.0156,77.9375 2979.0156,74.8125 Q2979.0156,71.6875 2980.3281,70.0313 Q2981.6563,68.375 2984.1563,68.375 Q2984.8594,68.375 2985.5,68.5313 Q2986.1563,68.6875 2986.7188,68.9844 L2986.7188,71.7031 Q2986.0938,71.125 2985.5,70.8594 Q2984.9063,70.5781 2984.2813,70.5781 Q2982.9375,70.5781 2982.25,71.6563 Q2981.5625,72.7188 2981.5625,74.8125 Q2981.5625,76.9063 2982.25,77.9844 Q2982.9375,79.0469 2984.2813,79.0469 Q2984.9063,79.0469 2985.5,78.7813 Q2986.0938,78.5 2986.7188,77.9219 L2986.7188,80.6406 Z "/><text fill="#000000" font-family="sans-serif" font-size="12" lengthAdjust="spacingAndGlyphs" textLength="106" x="3004.25" y="79.1543">TrackDataPlotter</text><line style="stroke: #A80036; stroke-width: 1.5;" x1="2891" x2="3191" y1="91" y2="91"/><rect fill="none" height="6" style="stroke: #C82930; stroke-width: 1.0;" width="6" x="2898" y="99"/><text fill="#000000" font-family="sans-serif" font-size="11" lengthAdjust="spacingAndGlyphs" textLength="51" x="2910" y="105.2104">float[] lat</text><rect fill="none" height="6" style="stroke: #C82930; stroke-width: 1.0;" width="6" x="2898" y="111.8047"/><text fill="#000000" font-family="sans-serif" font-size="11" lengthAdjust="spacingAndGlyphs" textLength="54" x="2910" y="118.0151">float[] lng</text><rect fill="none" height="6" style="stroke: #C82930; stroke-width: 1.0;" width="6" x="2898" y="124.6094"/><text fill="#000000" font-family="sans-serif" font-size="11" lengthAdjust="spacingAndGlyphs" textLength="115" x="2910" y="130.8198">XYSeries dataPoints</text><rect fill="none" height="6" style="stroke: #C82930; stroke-width: 1.0;" width="6" x="2898" y="137.4141"/><text fill="#000000" font-family="sans-serif" font-size="11" lengthAdjust="spacingAndGlyphs" textLength="89" x="2910" y="143.6245">XYSeries fitLine</text><rect fill="none" height="6" style="stroke: #C82930; stroke-width: 1.0;" width="6" x="2898" y="150.2188"/><text fill="#000000" font-family="sans-serif" font-size="11" lengthAdjust="spacingAndGlyphs" textLength="92" x="2910" y="156.4292">JFreeChart chart</text><rect fill="none" height="6" style="stroke: #C82930; stroke-width: 1.0;" width="6" x="2898" y="163.0234"/><text fill="#000000" font-family="sans-serif" font-size="11" lengthAdjust="spacingAndGlyphs" textLength="134" x="2910" y="169.2339">boolean displayedChart</text><line style="stroke: #A80036; stroke-width: 1.5;" x1="2891" x2="3191" y1="175.8281" y2="175.8281"/><ellipse cx="2901" cy="186.8281" fill="#84BE84" rx="3" ry="3" style="stroke: #038048; stroke-width: 1.0;"/><text fill="#000000" font-family="sans-serif" font-size="11" lengthAdjust="spacingAndGlyphs" textLength="188" x="2910" y="190.0386">TrackDataPlotter(TrackData data)</text><ellipse cx="2901" cy="216.4375" fill="#84BE84" rx="3" ry="3" style="stroke: #038048; stroke-width: 1.0;"/><text fill="#000000" font-family="sans-serif" font-size="11" lengthAdjust="spacingAndGlyphs" textLength="106" x="2910" y="219.6479">void displayChart()</text><ellipse cx="2901" cy="229.2422" fill="#84BE84" rx="3" ry="3" style="stroke: #038048; stroke-width: 1.0;"/><text fill="#000000" font-family="sans-serif" font-size="11" lengthAdjust="spacingAndGlyphs" textLength="154" x="2910" y="232.4526">boolean getDisplayeChart()</text><ellipse cx="2901" cy="242.0469" fill="#84BE84" rx="3" ry="3" style="stroke: #038048; stroke-width: 1.0;"/><text fill="#000000" font-family="sans-serif" font-size="11" lengthAdjust="spacingAndGlyphs" textLength="232" x="2910" y="245.2573">XYSeries getTrackData(float[] x, float[] y)</text><rect fill="#F24D5C" height="6" style="stroke: #C82930; stroke-width: 1.0;" width="6" x="2898" y="251.8516"/><text fill="#000000" font-family="sans-serif" font-size="11" lengthAdjust="spacingAndGlyphs" textLength="230" x="2910" y="258.062">XYSeries calculateLine(float[] x, float[] y)</text><rect fill="#F24D5C" height="6" style="stroke: #C82930; stroke-width: 1.0;" width="6" x="2898" y="264.6563"/><text fill="#000000" font-family="sans-serif" font-size="11" lengthAdjust="spacingAndGlyphs" textLength="273" x="2910" y="270.8667">float[] extractLatFromTrackData(TrackData data)</text><rect fill="#F24D5C" height="6" style="stroke: #C82930; stroke-width: 1.0;" width="6" x="2898" y="277.4609"/><text fill="#000000" font-family="sans-serif" font-size="11" lengthAdjust="spacingAndGlyphs" textLength="276" x="2910" y="283.6714">float[] extractLngFromTrackData(TrackData data)</text><rect fill="#F24D5C" height="6" style="stroke: #C82930; stroke-width: 1.0;" width="6" x="2898" y="290.2656"/><text fill="#000000" font-family="sans-serif" font-size="11" lengthAdjust="spacingAndGlyphs" textLength="138" x="2910" y="296.4761">JFreeChart createChart()</text><line style="stroke: #A80036; stroke-width: 1.0; stroke-dasharray: 1.0,2.0;" x1="2891" x2="3008" y1="203.0352" y2="203.0352"/><text fill="#000000" font-family="sans-serif" font-size="11" lengthAdjust="spacingAndGlyphs" textLength="66" x="3008" y="206.3433">Use Case 1</text><line style="stroke: #A80036; stroke-width: 1.0; stroke-dasharray: 1.0,2.0;" x1="3074" x2="3191" y1="203.0352" y2="203.0352"/><!--MD5=[c9341cce37a1a8bee80ad1365349afef]
link DisplayCommInterface to DisplayComm2WayInterface--><!--MD5=[7835b7bc4a765bae53638d0402d5d5e6]
link DisplayComm2WayInterface to DisplayCommManager--><!--MD5=[7d92106ecb9088e13e6754b44ec571b0]
link DisplayCommInterface to DisplayCommInterfaceImplementation--><!--MD5=[51e28edbb9f88779af066724948e7048]
link DisplayCommInterfaceImplementation to DisplayComm2WayInterfaceImplementation--><!--MD5=[ea4cd417ea9ea2c0dbdbdf4e4e3d21de]
link DisplayComm2WayInterfaceImplementation to DisplayCommManagerImplementation--><!--MD5=[64e942b00478e9eef28430a914bbb142]
link DisplayCommInterfaceImplementationTests to DisplayComm2WayInterfaceImplementationTests--><!--MD5=[8dbe1f493aaf019419238fc4702b450a]
link DisplayComm2WayInterfaceImplementationTests to DisplayCommManagerImplementationTests--><!--MD5=[e81de192ca7bc9df286fd4cb58be8b46]
link DisplayCommInterfaceImplementationTests to TrackDataPlotterTests--><!--MD5=[8b898a72046de76ad345afd61090e7dd]
link TrackDataPlotterTests to DisplayComm2WayInterfaceStub--><!--MD5=[c9c9241041dbc47aa626fe1afc095e03]
link DisplayComm2WayInterfaceStub to DisplayCommManagerStub--><!--MD5=[61d9c608a539b4614526ad59aeb385a2]
link TrackDataPlotterTests to MiddlewareCommInterfaceStub--><!--MD5=[edeb42cf0551a8648c97a52a90e466b5]
@startuml Display02Packages


package edu.oakland.production.display02 {

}


package edu.oakland.production.display02 {
    interface DisplayCommInterface {
        __
        .. Use Case 1 ..
        {abstract} + TrackData receiveRfidRequest(int rfidNum)
    }
}


package edu.oakland.production.display02 {
    interface DisplayComm2WayInterface {
        __
        .. Use Case 1 ..
        {abstract} + TrackData passRfidRequest(int rfidNum)
    }
}


package edu.oakland.production.display02 {
    interface DisplayCommManager {
        __
        .. Use Case 1 ..
        {abstract} + TrackData evaluateRfidRequest(int rfid)
    }
}


package edu.oakland.production.display02 {
    class DisplayCommInterfaceImplementation {
        - DisplayComm2WayInterface comm2Way
        __
        + DisplayCommInterface(DisplayComm2WayInterface displayComm2WayInterface)
        .. Use Case 1 ..
        + TrackData receiveRfidRequest(int rfidNum)
        
    }
}


package edu.oakland.production.display02 {
    class DisplayComm2WayInterfaceImplementation {
        - DisplayCommManager commManager
        __
        + DisplayComm2WayInterfaceImplementation(DisplayCommManager commManager)
        .. Use Case 1 ..
        + TrackData passRfidRequest(int rfidNum)
    }
}


package edu.oakland.production.display02 {
    class DisplayCommManagerImplementation {
        - MiddlewareCommInterface middleware
        __
        + DisplayCommManagerImplementation(MiddlewareCommInterface middlewareCommInterface)
        .. Use Case 1 ..
        + TrackData evaluateRfidRequest(int rfid)        
    }
}



package edu.oakland.test.display02 {
    
}


package edu.oakland.test.display02 {
    class DisplayCommInterfaceImplementationTests {
        + void displayComm2WayIsNotNull()
        + void zeroPointTrackDataDoesNotDisplayPlot()
        + void display2WayIsNotNull()
        - int generateRandomRfid()
        - float generateRandomCourse()
        - float generateRandomSpeed()
        - LocationDataPoint[] generateRandomLocationDataPointsArray(int length)
        - LocationDataPoint generateRandomLocationDataPoint()
    }
}


package edu.oakland.test.display02 {
    class DisplayComm2WayInterfaceImplementationTests {
        + void rfidInIsRfidOut()
        + void commManagerIsNotNull()
        - int generateRandomRfid()
    }
}


package edu.oakland.test.display02 {
    class DisplayCommManagerImplementationTests {
        + void rfidInIsRfidOut()
        + void middlewareIsNotNull()
        - int generateRandomRfid()
    }
}


package edu.oakland.test.display02 {
    class TrackDataPlotterTests {
        + void plotIsDisplayedWith5DataPoints()
        + void plotIsDisplayedWith1DataPoint()
        + void plotIsDisplayedWith2PlusDataPoints()
        + void nullTrackDataNotAllowed()
        + void zeroPointTrackDataNotAllowed() 
        - TrackData generateValidTrackData()
        - TrackData generateSinglePointTrackData()
        - TrackData generate2To4PointTrackData()
        - float generateRandomCourse()
        - float generateRandomSpeed()
        - int generateRandomTooSmallArrayLength()
        - LocationDataPoint[] generateRandomLocationDataPointsArray(int length)
        - LocationDataPoint generateRandomLocationDataPoint()

    }
}


package edu.oakland.test.display02 {
    class DisplayComm2WayInterfaceStub {
        - TrackData trackData
        __
        {abstract} + DisplayComm2WayInterfaceStub(TrackData trackData)
        .. Use Case 1 ..
        {abstract} + TrackData passRfidRequest(int rfid)
    }
}


package edu.oakland.test.display02 {
    class DisplayCommManagerStub {
        __
        .. Use Case 1 ..
        + TrackData evaluateRfidRequest(int rfid)
    }
}


package edu.oakland.test.display02 {
    class MiddlewareCommInterfaceStub {
        __
        .. Use Case 1 ..
        + TrackData requestRfid(int rfid)
    }
}



package edu.oakland.helper.display02 {

}


package edu.oakland.helper.display02 {
    class TrackDataPlotter {
        - float[] lat
        - float[] lng
        - XYSeries dataPoints
        - XYSeries fitLine
        - JFreeChart chart
        - boolean displayedChart
        __
        + TrackDataPlotter(TrackData data)
        .. Use Case 1 ..
        + void displayChart()
        + boolean getDisplayeChart()
        + XYSeries getTrackData(float[] x, float[] y)
        - XYSeries calculateLine(float[] x, float[] y)
        - float[] extractLatFromTrackData(TrackData data)
        - float[] extractLngFromTrackData(TrackData data)
        - JFreeChart createChart()
    }
}



@enduml

PlantUML version 1.2020.02(Sun Mar 01 10:22:07 GMT 2020)
(GPL source distribution)
Java Runtime: OpenJDK Runtime Environment
JVM: OpenJDK 64-Bit Server VM
Java Version: 11.0.9+11-Ubuntu-0ubuntu1
Operating System: Linux
Default Encoding: ANSI_X3.4-1968
Language: en
Country: US
--></g></svg>