<?xml version="1.0" encoding="UTF-8" standalone="no"?><svg xmlns="http://www.w3.org/2000/svg" xmlns:xlink="http://www.w3.org/1999/xlink" contentScriptType="application/ecmascript" contentStyleType="text/css" height="383px" preserveAspectRatio="none" style="width:2973px;height:383px;" version="1.1" viewBox="0 0 2973 383" width="2973px" zoomAndPan="magnify"><defs><filter height="300%" id="f1o06p317ci6ds" width="300%" x="-1" y="-1"><feGaussianBlur result="blurOut" stdDeviation="2.0"/><feColorMatrix in="blurOut" result="blurOut2" type="matrix" values="0 0 0 0 0 0 0 0 0 0 0 0 0 0 0 0 0 0 .4 0"/><feOffset dx="4.0" dy="4.0" in="blurOut2" result="blurOut3"/><feBlend in="SourceGraphic" in2="blurOut3" mode="normal"/></filter></defs><g><!--MD5=[fe59aae6f7bfe371a9c197ec1f7f843a]
cluster edu.oakland.production.display02--><polygon fill="#FFFFFF" filter="url(#f1o06p317ci6ds)" points="22,38.5,295,38.5,302,60.7969,1338,60.7969,1338,371,22,371,22,38.5" style="stroke: #000000; stroke-width: 1.5;"/><line style="stroke: #000000; stroke-width: 1.5;" x1="22" x2="302" y1="60.7969" y2="60.7969"/><text fill="#000000" font-family="sans-serif" font-size="14" font-weight="bold" lengthAdjust="spacingAndGlyphs" textLength="267" x="26" y="53.4951">edu.oakland.production.display02</text><!--MD5=[9258003ec405d300d3379b4a3d8dd6ad]
cluster edu.oakland.test.display02--><polygon fill="#FFFFFF" filter="url(#f1o06p317ci6ds)" points="1362,53.5,1580,53.5,1587,75.7969,2607,75.7969,2607,345.5,1362,345.5,1362,53.5" style="stroke: #000000; stroke-width: 1.5;"/><line style="stroke: #000000; stroke-width: 1.5;" x1="1362" x2="1587" y1="75.7969" y2="75.7969"/><text fill="#000000" font-family="sans-serif" font-size="14" font-weight="bold" lengthAdjust="spacingAndGlyphs" textLength="212" x="1366" y="68.4951">edu.oakland.test.display02</text><!--MD5=[a502031b5a5384de0a21e6ee820fd3b2]
cluster edu.oakland.helper.display02--><polygon fill="#FFFFFF" filter="url(#f1o06p317ci6ds)" points="2631,231.5,2869,231.5,2876,253.7969,2879,253.7969,2879,330.5,2631,330.5,2631,231.5" style="stroke: #000000; stroke-width: 1.5;"/><line style="stroke: #000000; stroke-width: 1.5;" x1="2631" x2="2876" y1="253.7969" y2="253.7969"/><text fill="#000000" font-family="sans-serif" font-size="14" font-weight="bold" lengthAdjust="spacingAndGlyphs" textLength="232" x="2635" y="246.4951">edu.oakland.helper.display02</text><!--MD5=[33504725b8a69ba2207f0a836957a91c]
cluster edu.oakland.production.middleware02--><polygon fill="#FFFFFF" filter="url(#f1o06p317ci6ds)" points="2631,24,2941,24,2948,46.2969,2951,46.2969,2951,182,2631,182,2631,24" style="stroke: #000000; stroke-width: 1.5;"/><line style="stroke: #000000; stroke-width: 1.5;" x1="2631" x2="2948" y1="46.2969" y2="46.2969"/><text fill="#000000" font-family="sans-serif" font-size="14" font-weight="bold" lengthAdjust="spacingAndGlyphs" textLength="304" x="2635" y="38.9951">edu.oakland.production.middleware02</text><!--MD5=[c8d1e3134fecb0c949fd2a76cc0bb992]
class DisplayCommInterface--><rect fill="#FEFECE" filter="url(#f1o06p317ci6ds)" height="77.6094" id="DisplayCommInterface" style="stroke: #A80036; stroke-width: 1.5;" width="268" x="91" y="73.5"/><ellipse cx="151.25" cy="89.5" fill="#B4A7E5" rx="11" ry="11" style="stroke: #A80036; stroke-width: 1.0;"/><path d="M147.1719,85.2656 L147.1719,83.1094 L154.5625,83.1094 L154.5625,85.2656 L152.0938,85.2656 L152.0938,93.3438 L154.5625,93.3438 L154.5625,95.5 L147.1719,95.5 L147.1719,93.3438 L149.6406,93.3438 L149.6406,85.2656 L147.1719,85.2656 Z "/><text fill="#000000" font-family="sans-serif" font-size="12" font-style="italic" lengthAdjust="spacingAndGlyphs" textLength="139" x="171.75" y="93.6543">DisplayCommInterface</text><line style="stroke: #A80036; stroke-width: 1.5;" x1="92" x2="358" y1="105.5" y2="105.5"/><line style="stroke: #A80036; stroke-width: 1.5;" x1="92" x2="358" y1="113.5" y2="113.5"/><ellipse cx="102" cy="141.3047" fill="#84BE84" rx="3" ry="3" style="stroke: #038048; stroke-width: 1.0;"/><text fill="#000000" font-family="sans-serif" font-size="11" font-style="italic" lengthAdjust="spacingAndGlyphs" textLength="242" x="111" y="144.5151">TrackData receiveRfidRequest(int rfidNum)</text><line style="stroke: #A80036; stroke-width: 1.0; stroke-dasharray: 1.0,2.0;" x1="92" x2="192" y1="127.9023" y2="127.9023"/><text fill="#000000" font-family="sans-serif" font-size="11" lengthAdjust="spacingAndGlyphs" textLength="66" x="192" y="131.2104">Use Case 1</text><line style="stroke: #A80036; stroke-width: 1.0; stroke-dasharray: 1.0,2.0;" x1="258" x2="358" y1="127.9023" y2="127.9023"/><!--MD5=[f6b51b5f862da5ce226c62e411e84628]
class DisplayComm2WayInterface--><rect fill="#FEFECE" filter="url(#f1o06p317ci6ds)" height="77.6094" id="DisplayComm2WayInterface" style="stroke: #A80036; stroke-width: 1.5;" width="252" x="608" y="73.5"/><ellipse cx="643.7" cy="89.5" fill="#B4A7E5" rx="11" ry="11" style="stroke: #A80036; stroke-width: 1.0;"/><path d="M639.6219,85.2656 L639.6219,83.1094 L647.0125,83.1094 L647.0125,85.2656 L644.5438,85.2656 L644.5438,93.3438 L647.0125,93.3438 L647.0125,95.5 L639.6219,95.5 L639.6219,93.3438 L642.0906,93.3438 L642.0906,85.2656 L639.6219,85.2656 Z "/><text fill="#000000" font-family="sans-serif" font-size="12" font-style="italic" lengthAdjust="spacingAndGlyphs" textLength="174" x="662.3" y="93.6543">DisplayComm2WayInterface</text><line style="stroke: #A80036; stroke-width: 1.5;" x1="609" x2="859" y1="105.5" y2="105.5"/><line style="stroke: #A80036; stroke-width: 1.5;" x1="609" x2="859" y1="113.5" y2="113.5"/><ellipse cx="619" cy="141.3047" fill="#84BE84" rx="3" ry="3" style="stroke: #038048; stroke-width: 1.0;"/><text fill="#000000" font-family="sans-serif" font-size="11" font-style="italic" lengthAdjust="spacingAndGlyphs" textLength="226" x="628" y="144.5151">TrackData passRfidRequest(int rfidNum)</text><line style="stroke: #A80036; stroke-width: 1.0; stroke-dasharray: 1.0,2.0;" x1="609" x2="701" y1="127.9023" y2="127.9023"/><text fill="#000000" font-family="sans-serif" font-size="11" lengthAdjust="spacingAndGlyphs" textLength="66" x="701" y="131.2104">Use Case 1</text><line style="stroke: #A80036; stroke-width: 1.0; stroke-dasharray: 1.0,2.0;" x1="767" x2="859" y1="127.9023" y2="127.9023"/><!--MD5=[6aeb72f2773d7cabb45309482beeff0a]
class DisplayCommManager--><rect fill="#FEFECE" filter="url(#f1o06p317ci6ds)" height="77.6094" id="DisplayCommManager" style="stroke: #A80036; stroke-width: 1.5;" width="275" x="997.5" y="73.5"/><ellipse cx="1062.25" cy="89.5" fill="#B4A7E5" rx="11" ry="11" style="stroke: #A80036; stroke-width: 1.0;"/><path d="M1058.1719,85.2656 L1058.1719,83.1094 L1065.5625,83.1094 L1065.5625,85.2656 L1063.0938,85.2656 L1063.0938,93.3438 L1065.5625,93.3438 L1065.5625,95.5 L1058.1719,95.5 L1058.1719,93.3438 L1060.6406,93.3438 L1060.6406,85.2656 L1058.1719,85.2656 Z "/><text fill="#000000" font-family="sans-serif" font-size="12" font-style="italic" lengthAdjust="spacingAndGlyphs" textLength="137" x="1082.75" y="93.6543">DisplayCommManager</text><line style="stroke: #A80036; stroke-width: 1.5;" x1="998.5" x2="1271.5" y1="105.5" y2="105.5"/><line style="stroke: #A80036; stroke-width: 1.5;" x1="998.5" x2="1271.5" y1="113.5" y2="113.5"/><ellipse cx="1008.5" cy="141.3047" fill="#84BE84" rx="3" ry="3" style="stroke: #038048; stroke-width: 1.0;"/><text fill="#000000" font-family="sans-serif" font-size="11" font-style="italic" lengthAdjust="spacingAndGlyphs" textLength="249" x="1017.5" y="144.5151">TrackData evaluateRfidRequest(int rfidNum)</text><line style="stroke: #A80036; stroke-width: 1.0; stroke-dasharray: 1.0,2.0;" x1="998.5" x2="1102" y1="127.9023" y2="127.9023"/><text fill="#000000" font-family="sans-serif" font-size="11" lengthAdjust="spacingAndGlyphs" textLength="66" x="1102" y="131.2104">Use Case 1</text><line style="stroke: #A80036; stroke-width: 1.0; stroke-dasharray: 1.0,2.0;" x1="1168" x2="1271.5" y1="127.9023" y2="127.9023"/><!--MD5=[a35092e604da7274febf4e2cf9a25087]
class DisplayCommInterfaceImplementation--><rect fill="#FEFECE" filter="url(#f1o06p317ci6ds)" height="128.8281" id="DisplayCommInterfaceImplementation" style="stroke: #A80036; stroke-width: 1.5;" width="373" x="38.5" y="226"/><ellipse cx="103.25" cy="242" fill="#ADD1B2" rx="11" ry="11" style="stroke: #A80036; stroke-width: 1.0;"/><path d="M106.2188,247.6406 Q105.6406,247.9375 105,248.0781 Q104.3594,248.2344 103.6563,248.2344 Q101.1563,248.2344 99.8281,246.5938 Q98.5156,244.9375 98.5156,241.8125 Q98.5156,238.6875 99.8281,237.0313 Q101.1563,235.375 103.6563,235.375 Q104.3594,235.375 105,235.5313 Q105.6563,235.6875 106.2188,235.9844 L106.2188,238.7031 Q105.5938,238.125 105,237.8594 Q104.4063,237.5781 103.7813,237.5781 Q102.4375,237.5781 101.75,238.6563 Q101.0625,239.7188 101.0625,241.8125 Q101.0625,243.9063 101.75,244.9844 Q102.4375,246.0469 103.7813,246.0469 Q104.4063,246.0469 105,245.7813 Q105.5938,245.5 106.2188,244.9219 L106.2188,247.6406 Z "/><text fill="#000000" font-family="sans-serif" font-size="12" lengthAdjust="spacingAndGlyphs" textLength="235" x="123.75" y="246.1543">DisplayCommInterfaceImplementation</text><line style="stroke: #A80036; stroke-width: 1.5;" x1="39.5" x2="410.5" y1="258" y2="258"/><text fill="#000000" font-family="sans-serif" font-size="11" lengthAdjust="spacingAndGlyphs" textLength="207" x="44.5" y="272.2104">DisplayComm2WayInterface receiver</text><line style="stroke: #A80036; stroke-width: 1.5;" x1="39.5" x2="410.5" y1="278.8047" y2="278.8047"/><ellipse cx="49.5" cy="289.8047" fill="#84BE84" rx="3" ry="3" style="stroke: #038048; stroke-width: 1.0;"/><text fill="#000000" font-family="sans-serif" font-size="11" font-style="italic" lengthAdjust="spacingAndGlyphs" textLength="347" x="58.5" y="293.0151">DisplayCommInterface(DisplayComm2WayInterface receiver)</text><ellipse cx="49.5" cy="319.4141" fill="#84BE84" rx="3" ry="3" style="stroke: #038048; stroke-width: 1.0;"/><text fill="#000000" font-family="sans-serif" font-size="11" font-style="italic" lengthAdjust="spacingAndGlyphs" textLength="242" x="58.5" y="322.6245">TrackData receiveRfidRequest(int rfidNum)</text><ellipse cx="49.5" cy="332.2188" fill="#84BE84" rx="3" ry="3" style="stroke: #038048; stroke-width: 1.0;"/><text fill="#000000" font-family="sans-serif" font-size="11" font-style="italic" lengthAdjust="spacingAndGlyphs" textLength="291" x="58.5" y="335.4292">TrackData passToComm2WayInterface(int rfidNum)</text><text fill="#000000" font-family="sans-serif" font-size="11" lengthAdjust="spacingAndGlyphs" textLength="0" x="62.5" y="348.2339"/><line style="stroke: #A80036; stroke-width: 1.0; stroke-dasharray: 1.0,2.0;" x1="39.5" x2="192" y1="306.0117" y2="306.0117"/><text fill="#000000" font-family="sans-serif" font-size="11" lengthAdjust="spacingAndGlyphs" textLength="66" x="192" y="309.3198">Use Case 1</text><line style="stroke: #A80036; stroke-width: 1.0; stroke-dasharray: 1.0,2.0;" x1="258" x2="410.5" y1="306.0117" y2="306.0117"/><!--MD5=[46657c2900260d4d40350fe3f8c544df]
class DisplayComm2WayInterfaceImplementation--><rect fill="#FEFECE" filter="url(#f1o06p317ci6ds)" height="103.2188" id="DisplayComm2WayInterfaceImplementation" style="stroke: #A80036; stroke-width: 1.5;" width="370" x="447" y="239"/><ellipse cx="493.75" cy="255" fill="#ADD1B2" rx="11" ry="11" style="stroke: #A80036; stroke-width: 1.0;"/><path d="M496.7188,260.6406 Q496.1406,260.9375 495.5,261.0781 Q494.8594,261.2344 494.1563,261.2344 Q491.6563,261.2344 490.3281,259.5938 Q489.0156,257.9375 489.0156,254.8125 Q489.0156,251.6875 490.3281,250.0313 Q491.6563,248.375 494.1563,248.375 Q494.8594,248.375 495.5,248.5313 Q496.1563,248.6875 496.7188,248.9844 L496.7188,251.7031 Q496.0938,251.125 495.5,250.8594 Q494.9063,250.5781 494.2813,250.5781 Q492.9375,250.5781 492.25,251.6563 Q491.5625,252.7188 491.5625,254.8125 Q491.5625,256.9063 492.25,257.9844 Q492.9375,259.0469 494.2813,259.0469 Q494.9063,259.0469 495.5,258.7813 Q496.0938,258.5 496.7188,257.9219 L496.7188,260.6406 Z "/><text fill="#000000" font-family="sans-serif" font-size="12" lengthAdjust="spacingAndGlyphs" textLength="268" x="514.25" y="259.1543">DisplayComm2WayInterfaceImplementation</text><line style="stroke: #A80036; stroke-width: 1.5;" x1="448" x2="816" y1="271" y2="271"/><line style="stroke: #A80036; stroke-width: 1.5;" x1="448" x2="816" y1="279" y2="279"/><ellipse cx="458" cy="306.8047" fill="#84BE84" rx="3" ry="3" style="stroke: #038048; stroke-width: 1.0;"/><text fill="#000000" font-family="sans-serif" font-size="11" font-style="italic" lengthAdjust="spacingAndGlyphs" textLength="226" x="467" y="310.0151">TrackData passRfidRequest(int rfidNum)</text><ellipse cx="458" cy="319.6094" fill="#84BE84" rx="3" ry="3" style="stroke: #038048; stroke-width: 1.0;"/><text fill="#000000" font-family="sans-serif" font-size="11" font-style="italic" lengthAdjust="spacingAndGlyphs" textLength="269" x="467" y="322.8198">void determineUserRequestFormat(int rfidNum)</text><ellipse cx="458" cy="332.4141" fill="#84BE84" rx="3" ry="3" style="stroke: #038048; stroke-width: 1.0;"/><text fill="#000000" font-family="sans-serif" font-size="11" font-style="italic" lengthAdjust="spacingAndGlyphs" textLength="344" x="467" y="335.6245">void receiveRequestFromDisplayCommInterface(int rfidNum)</text><line style="stroke: #A80036; stroke-width: 1.0; stroke-dasharray: 1.0,2.0;" x1="448" x2="599" y1="293.4023" y2="293.4023"/><text fill="#000000" font-family="sans-serif" font-size="11" lengthAdjust="spacingAndGlyphs" textLength="66" x="599" y="296.7104">Use Case 1</text><line style="stroke: #A80036; stroke-width: 1.0; stroke-dasharray: 1.0,2.0;" x1="665" x2="816" y1="293.4023" y2="293.4023"/><!--MD5=[3a27b63ddb357afc5dde5581215f51f9]
class DisplayCommManagerImplementation--><rect fill="#FEFECE" filter="url(#f1o06p317ci6ds)" height="124.8281" id="DisplayCommManagerImplementation" style="stroke: #A80036; stroke-width: 1.5;" width="470" x="852" y="228"/><ellipse cx="965.75" cy="244" fill="#ADD1B2" rx="11" ry="11" style="stroke: #A80036; stroke-width: 1.0;"/><path d="M968.7188,249.6406 Q968.1406,249.9375 967.5,250.0781 Q966.8594,250.2344 966.1563,250.2344 Q963.6563,250.2344 962.3281,248.5938 Q961.0156,246.9375 961.0156,243.8125 Q961.0156,240.6875 962.3281,239.0313 Q963.6563,237.375 966.1563,237.375 Q966.8594,237.375 967.5,237.5313 Q968.1563,237.6875 968.7188,237.9844 L968.7188,240.7031 Q968.0938,240.125 967.5,239.8594 Q966.9063,239.5781 966.2813,239.5781 Q964.9375,239.5781 964.25,240.6563 Q963.5625,241.7188 963.5625,243.8125 Q963.5625,245.9063 964.25,246.9844 Q964.9375,248.0469 966.2813,248.0469 Q966.9063,248.0469 967.5,247.7813 Q968.0938,247.5 968.7188,246.9219 L968.7188,249.6406 Z "/><text fill="#000000" font-family="sans-serif" font-size="12" lengthAdjust="spacingAndGlyphs" textLength="234" x="986.25" y="248.1543">DisplayCommManagerImplementation</text><line style="stroke: #A80036; stroke-width: 1.5;" x1="853" x2="1321" y1="260" y2="260"/><text fill="#000000" font-family="sans-serif" font-size="11" lengthAdjust="spacingAndGlyphs" textLength="221" x="858" y="274.2104">MiddlewareCommInterface middleware</text><line style="stroke: #A80036; stroke-width: 1.5;" x1="853" x2="1321" y1="280.8047" y2="280.8047"/><ellipse cx="863" cy="291.8047" fill="#84BE84" rx="3" ry="3" style="stroke: #038048; stroke-width: 1.0;"/><text fill="#000000" font-family="sans-serif" font-size="11" font-style="italic" lengthAdjust="spacingAndGlyphs" textLength="444" x="872" y="295.0151">DisplayCommManagerImplementation(MiddlewareCommInterface middleware)</text><ellipse cx="863" cy="304.6094" fill="#84BE84" rx="3" ry="3" style="stroke: #038048; stroke-width: 1.0;"/><text fill="#000000" font-family="sans-serif" font-size="11" font-style="italic" lengthAdjust="spacingAndGlyphs" textLength="249" x="872" y="307.8198">TrackData evaluateRfidRequest(int rfidNum)</text><ellipse cx="863" cy="317.4141" fill="#84BE84" rx="3" ry="3" style="stroke: #038048; stroke-width: 1.0;"/><text fill="#000000" font-family="sans-serif" font-size="11" font-style="italic" lengthAdjust="spacingAndGlyphs" textLength="369" x="872" y="320.6245">TrackData passRequestToMiddlewareCommInterface(int rfidNum)</text><ellipse cx="863" cy="330.2188" fill="#84BE84" rx="3" ry="3" style="stroke: #038048; stroke-width: 1.0;"/><text fill="#000000" font-family="sans-serif" font-size="11" font-style="italic" lengthAdjust="spacingAndGlyphs" textLength="339" x="872" y="333.4292">void receiveRequestFromDisplay2WayInterface(int rfidNum)</text><text fill="#000000" font-family="sans-serif" font-size="11" lengthAdjust="spacingAndGlyphs" textLength="0" x="876" y="346.2339"/><!--MD5=[d454b7777f115113290d89683d7a426c]
class DisplayCommInterfaceImplementationTests--><rect fill="#FEFECE" filter="url(#f1o06p317ci6ds)" height="48" id="DisplayCommInterfaceImplementationTests" style="stroke: #A80036; stroke-width: 1.5;" width="301" x="1378.5" y="88.5"/><ellipse cx="1393.5" cy="104.5" fill="#ADD1B2" rx="11" ry="11" style="stroke: #A80036; stroke-width: 1.0;"/><path d="M1396.4688,110.1406 Q1395.8906,110.4375 1395.25,110.5781 Q1394.6094,110.7344 1393.9063,110.7344 Q1391.4063,110.7344 1390.0781,109.0938 Q1388.7656,107.4375 1388.7656,104.3125 Q1388.7656,101.1875 1390.0781,99.5313 Q1391.4063,97.875 1393.9063,97.875 Q1394.6094,97.875 1395.25,98.0313 Q1395.9063,98.1875 1396.4688,98.4844 L1396.4688,101.2031 Q1395.8438,100.625 1395.25,100.3594 Q1394.6563,100.0781 1394.0313,100.0781 Q1392.6875,100.0781 1392,101.1563 Q1391.3125,102.2188 1391.3125,104.3125 Q1391.3125,106.4063 1392,107.4844 Q1392.6875,108.5469 1394.0313,108.5469 Q1394.6563,108.5469 1395.25,108.2813 Q1395.8438,108 1396.4688,107.4219 L1396.4688,110.1406 Z "/><text fill="#000000" font-family="sans-serif" font-size="12" lengthAdjust="spacingAndGlyphs" textLength="269" x="1407.5" y="108.6543">DisplayCommInterfaceImplementationTests</text><line style="stroke: #A80036; stroke-width: 1.5;" x1="1379.5" x2="1678.5" y1="120.5" y2="120.5"/><line style="stroke: #A80036; stroke-width: 1.5;" x1="1379.5" x2="1678.5" y1="128.5" y2="128.5"/><!--MD5=[a333ac13e0fdf2a5898aafabd38d3c1b]
class DisplayComm2WayInterfaceStub--><rect fill="#FEFECE" filter="url(#f1o06p317ci6ds)" height="77.6094" id="DisplayComm2WayInterfaceStub" style="stroke: #A80036; stroke-width: 1.5;" width="252" x="1391" y="251.5"/><ellipse cx="1415" cy="267.5" fill="#ADD1B2" rx="11" ry="11" style="stroke: #A80036; stroke-width: 1.0;"/><path d="M1417.9688,273.1406 Q1417.3906,273.4375 1416.75,273.5781 Q1416.1094,273.7344 1415.4063,273.7344 Q1412.9063,273.7344 1411.5781,272.0938 Q1410.2656,270.4375 1410.2656,267.3125 Q1410.2656,264.1875 1411.5781,262.5313 Q1412.9063,260.875 1415.4063,260.875 Q1416.1094,260.875 1416.75,261.0313 Q1417.4063,261.1875 1417.9688,261.4844 L1417.9688,264.2031 Q1417.3438,263.625 1416.75,263.3594 Q1416.1563,263.0781 1415.5313,263.0781 Q1414.1875,263.0781 1413.5,264.1563 Q1412.8125,265.2188 1412.8125,267.3125 Q1412.8125,269.4063 1413.5,270.4844 Q1414.1875,271.5469 1415.5313,271.5469 Q1416.1563,271.5469 1416.75,271.2813 Q1417.3438,271 1417.9688,270.4219 L1417.9688,273.1406 Z "/><text fill="#000000" font-family="sans-serif" font-size="12" lengthAdjust="spacingAndGlyphs" textLength="200" x="1431" y="271.6543">DisplayComm2WayInterfaceStub</text><line style="stroke: #A80036; stroke-width: 1.5;" x1="1392" x2="1642" y1="283.5" y2="283.5"/><line style="stroke: #A80036; stroke-width: 1.5;" x1="1392" x2="1642" y1="291.5" y2="291.5"/><ellipse cx="1402" cy="319.3047" fill="#84BE84" rx="3" ry="3" style="stroke: #038048; stroke-width: 1.0;"/><text fill="#000000" font-family="sans-serif" font-size="11" font-style="italic" lengthAdjust="spacingAndGlyphs" textLength="226" x="1411" y="322.5151">TrackData passRfidRequest(int rfidNum)</text><line style="stroke: #A80036; stroke-width: 1.0; stroke-dasharray: 1.0,2.0;" x1="1392" x2="1484" y1="305.9023" y2="305.9023"/><text fill="#000000" font-family="sans-serif" font-size="11" lengthAdjust="spacingAndGlyphs" textLength="66" x="1484" y="309.2104">Use Case 1</text><line style="stroke: #A80036; stroke-width: 1.0; stroke-dasharray: 1.0,2.0;" x1="1550" x2="1642" y1="305.9023" y2="305.9023"/><!--MD5=[178181f4c7684560c711246055fc01d3]
class DisplayComm2WayInterfaceImplementationTests--><rect fill="#FEFECE" filter="url(#f1o06p317ci6ds)" height="48" id="DisplayComm2WayInterfaceImplementationTests" style="stroke: #A80036; stroke-width: 1.5;" width="334" x="1715" y="88.5"/><ellipse cx="1730" cy="104.5" fill="#ADD1B2" rx="11" ry="11" style="stroke: #A80036; stroke-width: 1.0;"/><path d="M1732.9688,110.1406 Q1732.3906,110.4375 1731.75,110.5781 Q1731.1094,110.7344 1730.4063,110.7344 Q1727.9063,110.7344 1726.5781,109.0938 Q1725.2656,107.4375 1725.2656,104.3125 Q1725.2656,101.1875 1726.5781,99.5313 Q1727.9063,97.875 1730.4063,97.875 Q1731.1094,97.875 1731.75,98.0313 Q1732.4063,98.1875 1732.9688,98.4844 L1732.9688,101.2031 Q1732.3438,100.625 1731.75,100.3594 Q1731.1563,100.0781 1730.5313,100.0781 Q1729.1875,100.0781 1728.5,101.1563 Q1727.8125,102.2188 1727.8125,104.3125 Q1727.8125,106.4063 1728.5,107.4844 Q1729.1875,108.5469 1730.5313,108.5469 Q1731.1563,108.5469 1731.75,108.2813 Q1732.3438,108 1732.9688,107.4219 L1732.9688,110.1406 Z "/><text fill="#000000" font-family="sans-serif" font-size="12" lengthAdjust="spacingAndGlyphs" textLength="302" x="1744" y="108.6543">DisplayComm2WayInterfaceImplementationTests</text><line style="stroke: #A80036; stroke-width: 1.5;" x1="1716" x2="2048" y1="120.5" y2="120.5"/><line style="stroke: #A80036; stroke-width: 1.5;" x1="1716" x2="2048" y1="128.5" y2="128.5"/><!--MD5=[2970358178d6cf57fc5a801b39eb8d0b]
class DisplayCommManagerStub--><rect fill="#FEFECE" filter="url(#f1o06p317ci6ds)" height="77.6094" id="DisplayCommManagerStub" style="stroke: #A80036; stroke-width: 1.5;" width="273" x="1712.5" y="251.5"/><ellipse cx="1761.75" cy="267.5" fill="#ADD1B2" rx="11" ry="11" style="stroke: #A80036; stroke-width: 1.0;"/><path d="M1764.7188,273.1406 Q1764.1406,273.4375 1763.5,273.5781 Q1762.8594,273.7344 1762.1563,273.7344 Q1759.6563,273.7344 1758.3281,272.0938 Q1757.0156,270.4375 1757.0156,267.3125 Q1757.0156,264.1875 1758.3281,262.5313 Q1759.6563,260.875 1762.1563,260.875 Q1762.8594,260.875 1763.5,261.0313 Q1764.1563,261.1875 1764.7188,261.4844 L1764.7188,264.2031 Q1764.0938,263.625 1763.5,263.3594 Q1762.9063,263.0781 1762.2813,263.0781 Q1760.9375,263.0781 1760.25,264.1563 Q1759.5625,265.2188 1759.5625,267.3125 Q1759.5625,269.4063 1760.25,270.4844 Q1760.9375,271.5469 1762.2813,271.5469 Q1762.9063,271.5469 1763.5,271.2813 Q1764.0938,271 1764.7188,270.4219 L1764.7188,273.1406 Z "/><text fill="#000000" font-family="sans-serif" font-size="12" lengthAdjust="spacingAndGlyphs" textLength="166" x="1782.25" y="271.6543">DisplayCommManagerStub</text><line style="stroke: #A80036; stroke-width: 1.5;" x1="1713.5" x2="1984.5" y1="283.5" y2="283.5"/><line style="stroke: #A80036; stroke-width: 1.5;" x1="1713.5" x2="1984.5" y1="291.5" y2="291.5"/><ellipse cx="1723.5" cy="319.3047" fill="#84BE84" rx="3" ry="3" style="stroke: #038048; stroke-width: 1.0;"/><text fill="#000000" font-family="sans-serif" font-size="11" lengthAdjust="spacingAndGlyphs" textLength="247" x="1732.5" y="322.5151">TrackData evaluateRfidRequest(int rfidNum)</text><line style="stroke: #A80036; stroke-width: 1.0; stroke-dasharray: 1.0,2.0;" x1="1713.5" x2="1816" y1="305.9023" y2="305.9023"/><text fill="#000000" font-family="sans-serif" font-size="11" lengthAdjust="spacingAndGlyphs" textLength="66" x="1816" y="309.2104">Use Case 1</text><line style="stroke: #A80036; stroke-width: 1.0; stroke-dasharray: 1.0,2.0;" x1="1882" x2="1984.5" y1="305.9023" y2="305.9023"/><!--MD5=[937d6d8ff87a99d0d5dcd66ee05a1fa4]
class DisplayCommManagerImplementationTests--><rect fill="#FEFECE" filter="url(#f1o06p317ci6ds)" height="48" id="DisplayCommManagerImplementationTests" style="stroke: #A80036; stroke-width: 1.5;" width="300" x="2084" y="88.5"/><ellipse cx="2099" cy="104.5" fill="#ADD1B2" rx="11" ry="11" style="stroke: #A80036; stroke-width: 1.0;"/><path d="M2101.9688,110.1406 Q2101.3906,110.4375 2100.75,110.5781 Q2100.1094,110.7344 2099.4063,110.7344 Q2096.9063,110.7344 2095.5781,109.0938 Q2094.2656,107.4375 2094.2656,104.3125 Q2094.2656,101.1875 2095.5781,99.5313 Q2096.9063,97.875 2099.4063,97.875 Q2100.1094,97.875 2100.75,98.0313 Q2101.4063,98.1875 2101.9688,98.4844 L2101.9688,101.2031 Q2101.3438,100.625 2100.75,100.3594 Q2100.1563,100.0781 2099.5313,100.0781 Q2098.1875,100.0781 2097.5,101.1563 Q2096.8125,102.2188 2096.8125,104.3125 Q2096.8125,106.4063 2097.5,107.4844 Q2098.1875,108.5469 2099.5313,108.5469 Q2100.1563,108.5469 2100.75,108.2813 Q2101.3438,108 2101.9688,107.4219 L2101.9688,110.1406 Z "/><text fill="#000000" font-family="sans-serif" font-size="12" lengthAdjust="spacingAndGlyphs" textLength="268" x="2113" y="108.6543">DisplayCommManagerImplementationTests</text><line style="stroke: #A80036; stroke-width: 1.5;" x1="2085" x2="2383" y1="120.5" y2="120.5"/><line style="stroke: #A80036; stroke-width: 1.5;" x1="2085" x2="2383" y1="128.5" y2="128.5"/><!--MD5=[cf56a65163663c6c6c7b84cd7c204b97]
class MiddlewareCommInterfaceStub--><rect fill="#FEFECE" filter="url(#f1o06p317ci6ds)" height="77.6094" id="MiddlewareCommInterfaceStub" style="stroke: #A80036; stroke-width: 1.5;" width="225" x="2243.5" y="251.5"/><ellipse cx="2258.5" cy="267.5" fill="#ADD1B2" rx="11" ry="11" style="stroke: #A80036; stroke-width: 1.0;"/><path d="M2261.4688,273.1406 Q2260.8906,273.4375 2260.25,273.5781 Q2259.6094,273.7344 2258.9063,273.7344 Q2256.4063,273.7344 2255.0781,272.0938 Q2253.7656,270.4375 2253.7656,267.3125 Q2253.7656,264.1875 2255.0781,262.5313 Q2256.4063,260.875 2258.9063,260.875 Q2259.6094,260.875 2260.25,261.0313 Q2260.9063,261.1875 2261.4688,261.4844 L2261.4688,264.2031 Q2260.8438,263.625 2260.25,263.3594 Q2259.6563,263.0781 2259.0313,263.0781 Q2257.6875,263.0781 2257,264.1563 Q2256.3125,265.2188 2256.3125,267.3125 Q2256.3125,269.4063 2257,270.4844 Q2257.6875,271.5469 2259.0313,271.5469 Q2259.6563,271.5469 2260.25,271.2813 Q2260.8438,271 2261.4688,270.4219 L2261.4688,273.1406 Z "/><text fill="#000000" font-family="sans-serif" font-size="12" lengthAdjust="spacingAndGlyphs" textLength="193" x="2272.5" y="271.6543">MiddlewareCommInterfaceStub</text><line style="stroke: #A80036; stroke-width: 1.5;" x1="2244.5" x2="2467.5" y1="283.5" y2="283.5"/><line style="stroke: #A80036; stroke-width: 1.5;" x1="2244.5" x2="2467.5" y1="291.5" y2="291.5"/><ellipse cx="2254.5" cy="319.3047" fill="#84BE84" rx="3" ry="3" style="stroke: #038048; stroke-width: 1.0;"/><text fill="#000000" font-family="sans-serif" font-size="11" lengthAdjust="spacingAndGlyphs" textLength="171" x="2263.5" y="322.5151">TrackData requestRfid(int rfid)</text><line style="stroke: #A80036; stroke-width: 1.0; stroke-dasharray: 1.0,2.0;" x1="2244.5" x2="2323" y1="305.9023" y2="305.9023"/><text fill="#000000" font-family="sans-serif" font-size="11" lengthAdjust="spacingAndGlyphs" textLength="66" x="2323" y="309.2104">Use Case 1</text><line style="stroke: #A80036; stroke-width: 1.0; stroke-dasharray: 1.0,2.0;" x1="2389" x2="2467.5" y1="305.9023" y2="305.9023"/><!--MD5=[930c8140e7c1cb8e71aa7cd49967748e]
class TrackDataPlotterTests--><rect fill="#FEFECE" filter="url(#f1o06p317ci6ds)" height="48" id="TrackDataPlotterTests" style="stroke: #A80036; stroke-width: 1.5;" width="172" x="2419" y="88.5"/><ellipse cx="2434" cy="104.5" fill="#ADD1B2" rx="11" ry="11" style="stroke: #A80036; stroke-width: 1.0;"/><path d="M2436.9688,110.1406 Q2436.3906,110.4375 2435.75,110.5781 Q2435.1094,110.7344 2434.4063,110.7344 Q2431.9063,110.7344 2430.5781,109.0938 Q2429.2656,107.4375 2429.2656,104.3125 Q2429.2656,101.1875 2430.5781,99.5313 Q2431.9063,97.875 2434.4063,97.875 Q2435.1094,97.875 2435.75,98.0313 Q2436.4063,98.1875 2436.9688,98.4844 L2436.9688,101.2031 Q2436.3438,100.625 2435.75,100.3594 Q2435.1563,100.0781 2434.5313,100.0781 Q2433.1875,100.0781 2432.5,101.1563 Q2431.8125,102.2188 2431.8125,104.3125 Q2431.8125,106.4063 2432.5,107.4844 Q2433.1875,108.5469 2434.5313,108.5469 Q2435.1563,108.5469 2435.75,108.2813 Q2436.3438,108 2436.9688,107.4219 L2436.9688,110.1406 Z "/><text fill="#000000" font-family="sans-serif" font-size="12" lengthAdjust="spacingAndGlyphs" textLength="140" x="2448" y="108.6543">TrackDataPlotterTests</text><line style="stroke: #A80036; stroke-width: 1.5;" x1="2420" x2="2590" y1="120.5" y2="120.5"/><line style="stroke: #A80036; stroke-width: 1.5;" x1="2420" x2="2590" y1="128.5" y2="128.5"/><!--MD5=[c986427b061286eff33e87a088ad4bf9]
class TrackDataPlotter--><rect fill="#FEFECE" filter="url(#f1o06p317ci6ds)" height="48" id="TrackDataPlotter" style="stroke: #A80036; stroke-width: 1.5;" width="138" x="2647" y="266.5"/><ellipse cx="2662" cy="282.5" fill="#ADD1B2" rx="11" ry="11" style="stroke: #A80036; stroke-width: 1.0;"/><path d="M2664.9688,288.1406 Q2664.3906,288.4375 2663.75,288.5781 Q2663.1094,288.7344 2662.4063,288.7344 Q2659.9063,288.7344 2658.5781,287.0938 Q2657.2656,285.4375 2657.2656,282.3125 Q2657.2656,279.1875 2658.5781,277.5313 Q2659.9063,275.875 2662.4063,275.875 Q2663.1094,275.875 2663.75,276.0313 Q2664.4063,276.1875 2664.9688,276.4844 L2664.9688,279.2031 Q2664.3438,278.625 2663.75,278.3594 Q2663.1563,278.0781 2662.5313,278.0781 Q2661.1875,278.0781 2660.5,279.1563 Q2659.8125,280.2188 2659.8125,282.3125 Q2659.8125,284.4063 2660.5,285.4844 Q2661.1875,286.5469 2662.5313,286.5469 Q2663.1563,286.5469 2663.75,286.2813 Q2664.3438,286 2664.9688,285.4219 L2664.9688,288.1406 Z "/><text fill="#000000" font-family="sans-serif" font-size="12" lengthAdjust="spacingAndGlyphs" textLength="106" x="2676" y="286.6543">TrackDataPlotter</text><line style="stroke: #A80036; stroke-width: 1.5;" x1="2648" x2="2784" y1="298.5" y2="298.5"/><line style="stroke: #A80036; stroke-width: 1.5;" x1="2648" x2="2784" y1="306.5" y2="306.5"/><!--MD5=[d3cb230b9040bd9072bb1f490e167601]
class MiddlewareCommInterface--><rect fill="#FEFECE" filter="url(#f1o06p317ci6ds)" height="107.2188" id="MiddlewareCommInterface" style="stroke: #A80036; stroke-width: 1.5;" width="198" x="2647" y="59"/><ellipse cx="2662" cy="75" fill="#B4A7E5" rx="11" ry="11" style="stroke: #A80036; stroke-width: 1.0;"/><path d="M2657.9219,70.7656 L2657.9219,68.6094 L2665.3125,68.6094 L2665.3125,70.7656 L2662.8438,70.7656 L2662.8438,78.8438 L2665.3125,78.8438 L2665.3125,81 L2657.9219,81 L2657.9219,78.8438 L2660.3906,78.8438 L2660.3906,70.7656 L2657.9219,70.7656 Z "/><text fill="#000000" font-family="sans-serif" font-size="12" font-style="italic" lengthAdjust="spacingAndGlyphs" textLength="166" x="2676" y="79.1543">MiddlewareCommInterface</text><line style="stroke: #A80036; stroke-width: 1.5;" x1="2648" x2="2844" y1="91" y2="91"/><line style="stroke: #A80036; stroke-width: 1.5;" x1="2648" x2="2844" y1="99" y2="99"/><ellipse cx="2658" cy="126.8047" fill="#84BE84" rx="3" ry="3" style="stroke: #038048; stroke-width: 1.0;"/><text fill="#000000" font-family="sans-serif" font-size="11" font-style="italic" lengthAdjust="spacingAndGlyphs" textLength="171" x="2667" y="130.0151">TrackData requestRfid(int rfid)</text><line style="stroke: #A80036; stroke-width: 1.0; stroke-dasharray: 1.0,2.0;" x1="2648" x2="2713" y1="113.4023" y2="113.4023"/><text fill="#000000" font-family="sans-serif" font-size="11" lengthAdjust="spacingAndGlyphs" textLength="66" x="2713" y="116.7104">Use Case 1</text><line style="stroke: #A80036; stroke-width: 1.0; stroke-dasharray: 1.0,2.0;" x1="2779" x2="2844" y1="113.4023" y2="113.4023"/><text fill="#000000" font-family="sans-serif" font-size="11" lengthAdjust="spacingAndGlyphs" textLength="0" x="2657" y="159.6245"/><line style="stroke: #A80036; stroke-width: 1.0; stroke-dasharray: 1.0,2.0;" x1="2648" x2="2713" y1="143.0117" y2="143.0117"/><text fill="#000000" font-family="sans-serif" font-size="11" lengthAdjust="spacingAndGlyphs" textLength="66" x="2713" y="146.3198">Use Case 2</text><line style="stroke: #A80036; stroke-width: 1.0; stroke-dasharray: 1.0,2.0;" x1="2779" x2="2844" y1="143.0117" y2="143.0117"/><!--MD5=[77bc37423dd8876786830fad4054e33b]
reverse link DisplayCommInterface to DisplayCommInterfaceImplementation--><path d="M225,171.74 C225,189.06 225,208.13 225,225.78 " fill="none" id="DisplayCommInterface&lt;-DisplayCommInterfaceImplementation" style="stroke: #A80036; stroke-width: 1.0; stroke-dasharray: 7.0,7.0;"/><polygon fill="none" points="218,171.69,225,151.69,232,171.69,218,171.69" style="stroke: #A80036; stroke-width: 1.0;"/><!--MD5=[4e991cf787e933c55089f97eae394828]
reverse link DisplayComm2WayInterface to DisplayComm2WayInterfaceImplementation--><path d="M701.77,169.12 C688.85,191.4 674.07,216.91 661.45,238.69 " fill="none" id="DisplayComm2WayInterface&lt;-DisplayComm2WayInterfaceImplementation" style="stroke: #A80036; stroke-width: 1.0; stroke-dasharray: 7.0,7.0;"/><polygon fill="none" points="695.78,165.48,711.87,151.69,707.9,172.5,695.78,165.48" style="stroke: #A80036; stroke-width: 1.0;"/><!--MD5=[5beed6c3c7e4a84a4bfaa95bdf8cce79]
reverse link DisplayCommManager to DisplayCommManagerImplementation--><path d="M1119.27,171.16 C1114.32,189.32 1108.84,209.44 1103.81,227.86 " fill="none" id="DisplayCommManager&lt;-DisplayCommManagerImplementation" style="stroke: #A80036; stroke-width: 1.0; stroke-dasharray: 7.0,7.0;"/><polygon fill="none" points="1112.57,169.14,1124.58,151.69,1126.08,172.83,1112.57,169.14" style="stroke: #A80036; stroke-width: 1.0;"/><!--MD5=[9a02b467888c5123255f55ebe5217d7a]
link DisplayCommInterfaceImplementationTests to DisplayComm2WayInterfaceStub--><path d="M1527.43,136.51 C1525.54,164.31 1522.31,211.65 1519.94,246.33 " fill="none" id="DisplayCommInterfaceImplementationTests-&gt;DisplayComm2WayInterfaceStub" style="stroke: #A80036; stroke-width: 1.0; stroke-dasharray: 7.0,7.0;"/><polygon fill="#A80036" points="1519.6,251.35,1524.208,242.6456,1519.943,246.3618,1516.2269,242.0968,1519.6,251.35" style="stroke: #A80036; stroke-width: 1.0;"/><!--MD5=[69695ace36e753468876c8d4fe5d2708]
link DisplayComm2WayInterfaceImplementationTests to DisplayCommManagerStub--><path d="M1877.69,136.51 C1872.47,164.31 1863.6,211.65 1857.09,246.33 " fill="none" id="DisplayComm2WayInterfaceImplementationTests-&gt;DisplayCommManagerStub" style="stroke: #A80036; stroke-width: 1.0; stroke-dasharray: 7.0,7.0;"/><polygon fill="#A80036" points="1856.15,251.35,1861.7515,243.2492,1857.0783,246.4369,1853.8906,241.7638,1856.15,251.35" style="stroke: #A80036; stroke-width: 1.0;"/><!--MD5=[a3caa78d97a9caf08bd2afaaae1510f4]
link DisplayCommManagerImplementationTests to MiddlewareCommInterfaceStub--><path d="M2249.95,136.51 C2269.38,164.53 2302.58,212.43 2326.66,247.18 " fill="none" id="DisplayCommManagerImplementationTests-&gt;MiddlewareCommInterfaceStub" style="stroke: #A80036; stroke-width: 1.0; stroke-dasharray: 7.0,7.0;"/><polygon fill="#A80036" points="2329.55,251.35,2327.6861,241.6791,2326.6913,247.2478,2321.1226,246.253,2329.55,251.35" style="stroke: #A80036; stroke-width: 1.0;"/><!--MD5=[0cd290e6298e838268680010d5032c0d]
link DisplayCommInterfaceImplementationTests to DisplayCommInterfaceImplementation--><path d="M1484.08,136.64 C1446.23,154.86 1390.07,178.96 1338,190 C942.95,273.75 827.72,153.52 430,223.5 C425.54,224.29 421.04,225.14 416.52,226.07 " fill="none" id="DisplayCommInterfaceImplementationTests-&gt;DisplayCommInterfaceImplementation" style="stroke: #A80036; stroke-width: 1.0; stroke-dasharray: 7.0,7.0;"/><polygon fill="#A80036" points="411.6,227.09,421.2252,229.1771,416.4956,226.0737,419.599,221.3441,411.6,227.09" style="stroke: #A80036; stroke-width: 1.0;"/><!--MD5=[ce67f838794c14794f693dd46a642b9a]
link DisplayComm2WayInterfaceImplementationTests to DisplayComm2WayInterfaceImplementation--><path d="M1838.57,136.62 C1801.96,154.83 1747.59,178.93 1697,190 C1322.47,271.97 1212.44,156.15 835,223.5 C815.41,227 795.11,231.93 775.25,237.54 " fill="none" id="DisplayComm2WayInterfaceImplementationTests-&gt;DisplayComm2WayInterfaceImplementation" style="stroke: #A80036; stroke-width: 1.0; stroke-dasharray: 7.0,7.0;"/><polygon fill="#A80036" points="770.21,238.98,779.9626,240.3536,775.0176,237.6064,777.7648,232.6614,770.21,238.98" style="stroke: #A80036; stroke-width: 1.0;"/><!--MD5=[6f3abcadcd809ea193290ea1cf8b820a]
link DisplayCommManagerImplementationTests to DisplayCommManagerImplementation--><path d="M2195.06,136.54 C2162.17,154.7 2113.17,178.77 2067,190 C1762.19,264.11 1672.55,179.26 1362,223.5 C1350.62,225.12 1339.03,227 1327.35,229.07 " fill="none" id="DisplayCommManagerImplementationTests-&gt;DisplayCommManagerImplementation" style="stroke: #A80036; stroke-width: 1.0; stroke-dasharray: 7.0,7.0;"/><polygon fill="#A80036" points="1322.34,229.97,1331.9056,232.315,1327.2612,229.0856,1330.4906,224.4412,1322.34,229.97" style="stroke: #A80036; stroke-width: 1.0;"/><!--MD5=[f24e7409bf4fec90fef0ed7e05f90b9b]
link TrackDataPlotterTests to TrackDataPlotter--><path d="M2532.58,136.51 C2571.76,169.19 2643.32,228.87 2684.52,263.24 " fill="none" id="TrackDataPlotterTests-&gt;TrackDataPlotter" style="stroke: #A80036; stroke-width: 1.0; stroke-dasharray: 7.0,7.0;"/><polygon fill="#A80036" points="2688.41,266.49,2684.0535,257.657,2684.5677,263.2905,2678.9343,263.8047,2688.41,266.49" style="stroke: #A80036; stroke-width: 1.0;"/><!--MD5=[6aaeadb42451b39b4e2cdcf83e2bb4cd]
reverse link DisplayComm2WayInterface to DisplayComm2WayInterfaceStub--><path d="M858.43,157.71 C896.97,169.9 939.86,181.97 980,190 C1136.7,221.34 1182.16,188.11 1338,223.5 C1367.88,230.28 1399.53,240.78 1427.78,251.42 " fill="none" id="DisplayComm2WayInterface&lt;-DisplayComm2WayInterfaceStub" style="stroke: #A80036; stroke-width: 1.0; stroke-dasharray: 7.0,7.0;"/><polygon fill="none" points="856.19,164.34,839.31,151.54,860.49,151.02,856.19,164.34" style="stroke: #A80036; stroke-width: 1.0;"/><!--MD5=[e6e0d8b3e0f7bf14f11c0899b3ad37ae]
reverse link DisplayCommManager to DisplayCommManagerStub--><path d="M1251.88,158.2 C1286.86,170.12 1325.6,181.93 1362,190 C1492.55,218.96 1530.64,193.72 1661,223.5 C1691.86,230.55 1724.67,240.99 1754.11,251.5 " fill="none" id="DisplayCommManager&lt;-DisplayCommManagerStub" style="stroke: #A80036; stroke-width: 1.0; stroke-dasharray: 7.0,7.0;"/><polygon fill="none" points="1249.46,164.77,1232.87,151.58,1254.06,151.54,1249.46,164.77" style="stroke: #A80036; stroke-width: 1.0;"/><!--MD5=[72cb9e2c0df516d67fcc7a3605b88acd]
reverse link MiddlewareCommInterface to MiddlewareCommInterfaceStub--><path d="M2636.08,175.63 C2626.33,180.65 2616.54,185.51 2607,190 C2559.72,212.27 2506.01,234.02 2460.44,251.47 " fill="none" id="MiddlewareCommInterface&lt;-MiddlewareCommInterfaceStub" style="stroke: #A80036; stroke-width: 1.0; stroke-dasharray: 7.0,7.0;"/><polygon fill="none" points="2633.16,169.26,2654.13,166.17,2639.66,181.66,2633.16,169.26" style="stroke: #A80036; stroke-width: 1.0;"/><!--MD5=[2f02bb2a3f67188842ea88ec4bbc4a71]
@startuml Display02Packages_DirectDependencies


package edu.oakland.production.display02 {
    
}


package edu.oakland.production.display02 {
    
}


package edu.oakland.production.display02 {
    interface DisplayCommInterface {
        __
        .. Use Case 1 ..
        {abstract} + TrackData receiveRfidRequest(int rfidNum)
    }
}


package edu.oakland.production.display02 {
    interface DisplayComm2WayInterface {
        __
        .. Use Case 1 ..
        {abstract} + TrackData passRfidRequest(int rfidNum)
    }
}


package edu.oakland.production.display02 {
    interface DisplayCommManager {
        __
        .. Use Case 1 ..
        {abstract} + TrackData evaluateRfidRequest(int rfidNum)
    }
}


package edu.oakland.production.display02 {
    class DisplayCommInterfaceImplementation {
        DisplayComm2WayInterface receiver
        __
        {abstract} + DisplayCommInterface(DisplayComm2WayInterface receiver)
        .. Use Case 1 ..
        {abstract} + TrackData receiveRfidRequest(int rfidNum)
        {abstract} + TrackData passToComm2WayInterface(int rfidNum)

    }
}


DisplayCommInterfaceImplementation .up.|> DisplayCommInterface

package edu.oakland.production.display02 {
    class DisplayComm2WayInterfaceImplementation {
        __
        .. Use Case 1 ..
        {abstract} + TrackData passRfidRequest(int rfidNum)
        {abstract} + void determineUserRequestFormat(int rfidNum)
        {abstract} + void receiveRequestFromDisplayCommInterface(int rfidNum)
    }
}


DisplayComm2WayInterfaceImplementation .up.|> DisplayComm2WayInterface

package edu.oakland.production.display02 {
    class DisplayCommManagerImplementation {
        MiddlewareCommInterface middleware
        __
        {abstract} + DisplayCommManagerImplementation(MiddlewareCommInterface middleware)
        {abstract} + TrackData evaluateRfidRequest(int rfidNum)
        {abstract} + TrackData passRequestToMiddlewareCommInterface(int rfidNum)
        {abstract} + void receiveRequestFromDisplay2WayInterface(int rfidNum)

    }
}


DisplayCommManagerImplementation .up.|> DisplayCommManager
















package edu.oakland.test.display02 {
    
}


package edu.oakland.test.display02 {
    
}


package edu.oakland.test.display02 {
    class DisplayCommInterfaceImplementationTests {

    }
}



package edu.oakland.test.display02 {
    class DisplayComm2WayInterfaceStub {
        __
        .. Use Case 1 ..
        {abstract} + TrackData passRfidRequest(int rfidNum)
    }
}

DisplayCommInterfaceImplementationTests ..> DisplayComm2WayInterfaceStub

package edu.oakland.test.display02 {
    class DisplayComm2WayInterfaceImplementationTests {

    }
}



package edu.oakland.test.display02 {
    class DisplayCommManagerStub {
        __
        .. Use Case 1 ..
        + TrackData evaluateRfidRequest(int rfidNum)
    }
}

DisplayComm2WayInterfaceImplementationTests ..> DisplayCommManagerStub

package edu.oakland.test.display02 {
    class DisplayCommManagerImplementationTests {

    }
}



package edu.oakland.test.display02 {
    class MiddlewareCommInterfaceStub {
        __
        .. Use Case 1 ..
        + TrackData requestRfid(int rfid)
    }
}

DisplayCommManagerImplementationTests ..> MiddlewareCommInterfaceStub

package edu.oakland.test.display02 {
    class TrackDataPlotterTests {

    }
}


DisplayCommInterfaceImplementationTests ..> DisplayCommInterfaceImplementation
DisplayComm2WayInterfaceImplementationTests ..> DisplayComm2WayInterfaceImplementation
DisplayCommManagerImplementationTests ..> DisplayCommManagerImplementation

package edu.oakland.helper.display02 {
    class TrackDataPlotter {
        
    }
}

TrackDataPlotterTests ..> TrackDataPlotter
DisplayComm2WayInterfaceStub .up.|> DisplayComm2WayInterface
DisplayCommManagerStub .up.|> DisplayCommManager









package edu.oakland.production.middleware02 {
    interface MiddlewareCommInterface {
        __
        .. Use Case 1 ..
        {abstract} + TrackData requestRfid(int rfid)
        .. Use Case 2 ..

    }
}

MiddlewareCommInterfaceStub .up.|> MiddlewareCommInterface


package edu.oakland.helper.display02 {
    
}



@enduml

PlantUML version 1.2020.02(Sun Mar 01 10:22:07 GMT 2020)
(GPL source distribution)
Java Runtime: OpenJDK Runtime Environment
JVM: OpenJDK 64-Bit Server VM
Java Version: 11.0.9+11-Ubuntu-0ubuntu1
Operating System: Linux
Default Encoding: ANSI_X3.4-1968
Language: en
Country: US
--></g></svg>