<?xml version="1.0" encoding="UTF-8" standalone="no"?><svg xmlns="http://www.w3.org/2000/svg" xmlns:xlink="http://www.w3.org/1999/xlink" contentScriptType="application/ecmascript" contentStyleType="text/css" height="371px" preserveAspectRatio="none" style="width:2721px;height:371px;" version="1.1" viewBox="0 0 2721 371" width="2721px" zoomAndPan="magnify"><defs><filter height="300%" id="fo6yzu7jdzdvm" width="300%" x="-1" y="-1"><feGaussianBlur result="blurOut" stdDeviation="2.0"/><feColorMatrix in="blurOut" result="blurOut2" type="matrix" values="0 0 0 0 0 0 0 0 0 0 0 0 0 0 0 0 0 0 .4 0"/><feOffset dx="4.0" dy="4.0" in="blurOut2" result="blurOut3"/><feBlend in="SourceGraphic" in2="blurOut3" mode="normal"/></filter></defs><g><!--MD5=[fe59aae6f7bfe371a9c197ec1f7f843a]
cluster edu.oakland.production.display02--><polygon fill="#FFFFFF" filter="url(#fo6yzu7jdzdvm)" points="1563,24,1836,24,1843,46.2969,2699,46.2969,2699,359,1563,359,1563,24" style="stroke: #000000; stroke-width: 1.5;"/><line style="stroke: #000000; stroke-width: 1.5;" x1="1563" x2="1843" y1="46.2969" y2="46.2969"/><text fill="#000000" font-family="sans-serif" font-size="14" font-weight="bold" lengthAdjust="spacingAndGlyphs" textLength="267" x="1567" y="38.9951">edu.oakland.production.display02</text><!--MD5=[9258003ec405d300d3379b4a3d8dd6ad]
cluster edu.oakland.test.display02--><polygon fill="#FFFFFF" filter="url(#fo6yzu7jdzdvm)" points="294,39,512,39,519,61.2969,1539,61.2969,1539,325,294,325,294,39" style="stroke: #000000; stroke-width: 1.5;"/><line style="stroke: #000000; stroke-width: 1.5;" x1="294" x2="519" y1="61.2969" y2="61.2969"/><text fill="#000000" font-family="sans-serif" font-size="14" font-weight="bold" lengthAdjust="spacingAndGlyphs" textLength="212" x="298" y="53.9951">edu.oakland.test.display02</text><!--MD5=[a502031b5a5384de0a21e6ee820fd3b2]
cluster edu.oakland.helper.display02--><polygon fill="#FFFFFF" filter="url(#fo6yzu7jdzdvm)" points="22,211,260,211,267,233.2969,270,233.2969,270,310,22,310,22,211" style="stroke: #000000; stroke-width: 1.5;"/><line style="stroke: #000000; stroke-width: 1.5;" x1="22" x2="267" y1="233.2969" y2="233.2969"/><text fill="#000000" font-family="sans-serif" font-size="14" font-weight="bold" lengthAdjust="spacingAndGlyphs" textLength="232" x="26" y="225.9951">edu.oakland.helper.display02</text><!--MD5=[c8d1e3134fecb0c949fd2a76cc0bb992]
class DisplayCommInterface--><rect fill="#FEFECE" filter="url(#fo6yzu7jdzdvm)" height="77.6094" id="DisplayCommInterface" style="stroke: #A80036; stroke-width: 1.5;" width="268" x="2415" y="59"/><ellipse cx="2475.25" cy="75" fill="#B4A7E5" rx="11" ry="11" style="stroke: #A80036; stroke-width: 1.0;"/><path d="M2471.1719,70.7656 L2471.1719,68.6094 L2478.5625,68.6094 L2478.5625,70.7656 L2476.0938,70.7656 L2476.0938,78.8438 L2478.5625,78.8438 L2478.5625,81 L2471.1719,81 L2471.1719,78.8438 L2473.6406,78.8438 L2473.6406,70.7656 L2471.1719,70.7656 Z "/><text fill="#000000" font-family="sans-serif" font-size="12" font-style="italic" lengthAdjust="spacingAndGlyphs" textLength="139" x="2495.75" y="79.1543">DisplayCommInterface</text><line style="stroke: #A80036; stroke-width: 1.5;" x1="2416" x2="2682" y1="91" y2="91"/><line style="stroke: #A80036; stroke-width: 1.5;" x1="2416" x2="2682" y1="99" y2="99"/><ellipse cx="2426" cy="126.8047" fill="#84BE84" rx="3" ry="3" style="stroke: #038048; stroke-width: 1.0;"/><text fill="#000000" font-family="sans-serif" font-size="11" font-style="italic" lengthAdjust="spacingAndGlyphs" textLength="242" x="2435" y="130.0151">TrackData receiveRfidRequest(int rfidNum)</text><line style="stroke: #A80036; stroke-width: 1.0; stroke-dasharray: 1.0,2.0;" x1="2416" x2="2516" y1="113.4023" y2="113.4023"/><text fill="#000000" font-family="sans-serif" font-size="11" lengthAdjust="spacingAndGlyphs" textLength="66" x="2516" y="116.7104">Use Case 1</text><line style="stroke: #A80036; stroke-width: 1.0; stroke-dasharray: 1.0,2.0;" x1="2582" x2="2682" y1="113.4023" y2="113.4023"/><!--MD5=[f6b51b5f862da5ce226c62e411e84628]
class DisplayComm2WayInterface--><rect fill="#FEFECE" filter="url(#fo6yzu7jdzdvm)" height="77.6094" id="DisplayComm2WayInterface" style="stroke: #A80036; stroke-width: 1.5;" width="252" x="1995" y="59"/><ellipse cx="2030.7" cy="75" fill="#B4A7E5" rx="11" ry="11" style="stroke: #A80036; stroke-width: 1.0;"/><path d="M2026.6219,70.7656 L2026.6219,68.6094 L2034.0125,68.6094 L2034.0125,70.7656 L2031.5438,70.7656 L2031.5438,78.8438 L2034.0125,78.8438 L2034.0125,81 L2026.6219,81 L2026.6219,78.8438 L2029.0906,78.8438 L2029.0906,70.7656 L2026.6219,70.7656 Z "/><text fill="#000000" font-family="sans-serif" font-size="12" font-style="italic" lengthAdjust="spacingAndGlyphs" textLength="174" x="2049.3" y="79.1543">DisplayComm2WayInterface</text><line style="stroke: #A80036; stroke-width: 1.5;" x1="1996" x2="2246" y1="91" y2="91"/><line style="stroke: #A80036; stroke-width: 1.5;" x1="1996" x2="2246" y1="99" y2="99"/><ellipse cx="2006" cy="126.8047" fill="#84BE84" rx="3" ry="3" style="stroke: #038048; stroke-width: 1.0;"/><text fill="#000000" font-family="sans-serif" font-size="11" font-style="italic" lengthAdjust="spacingAndGlyphs" textLength="226" x="2015" y="130.0151">TrackData passRfidRequest(int rfidNum)</text><line style="stroke: #A80036; stroke-width: 1.0; stroke-dasharray: 1.0,2.0;" x1="1996" x2="2088" y1="113.4023" y2="113.4023"/><text fill="#000000" font-family="sans-serif" font-size="11" lengthAdjust="spacingAndGlyphs" textLength="66" x="2088" y="116.7104">Use Case 1</text><line style="stroke: #A80036; stroke-width: 1.0; stroke-dasharray: 1.0,2.0;" x1="2154" x2="2246" y1="113.4023" y2="113.4023"/><!--MD5=[6aeb72f2773d7cabb45309482beeff0a]
class DisplayCommManager--><rect fill="#FEFECE" filter="url(#fo6yzu7jdzdvm)" height="77.6094" id="DisplayCommManager" style="stroke: #A80036; stroke-width: 1.5;" width="275" x="1609.5" y="59"/><ellipse cx="1674.25" cy="75" fill="#B4A7E5" rx="11" ry="11" style="stroke: #A80036; stroke-width: 1.0;"/><path d="M1670.1719,70.7656 L1670.1719,68.6094 L1677.5625,68.6094 L1677.5625,70.7656 L1675.0938,70.7656 L1675.0938,78.8438 L1677.5625,78.8438 L1677.5625,81 L1670.1719,81 L1670.1719,78.8438 L1672.6406,78.8438 L1672.6406,70.7656 L1670.1719,70.7656 Z "/><text fill="#000000" font-family="sans-serif" font-size="12" font-style="italic" lengthAdjust="spacingAndGlyphs" textLength="137" x="1694.75" y="79.1543">DisplayCommManager</text><line style="stroke: #A80036; stroke-width: 1.5;" x1="1610.5" x2="1883.5" y1="91" y2="91"/><line style="stroke: #A80036; stroke-width: 1.5;" x1="1610.5" x2="1883.5" y1="99" y2="99"/><ellipse cx="1620.5" cy="126.8047" fill="#84BE84" rx="3" ry="3" style="stroke: #038048; stroke-width: 1.0;"/><text fill="#000000" font-family="sans-serif" font-size="11" font-style="italic" lengthAdjust="spacingAndGlyphs" textLength="249" x="1629.5" y="130.0151">TrackData evaluateRfidRequest(int rfidNum)</text><line style="stroke: #A80036; stroke-width: 1.0; stroke-dasharray: 1.0,2.0;" x1="1610.5" x2="1714" y1="113.4023" y2="113.4023"/><text fill="#000000" font-family="sans-serif" font-size="11" lengthAdjust="spacingAndGlyphs" textLength="66" x="1714" y="116.7104">Use Case 1</text><line style="stroke: #A80036; stroke-width: 1.0; stroke-dasharray: 1.0,2.0;" x1="1780" x2="1883.5" y1="113.4023" y2="113.4023"/><!--MD5=[a35092e604da7274febf4e2cf9a25087]
class DisplayCommInterfaceImplementation--><rect fill="#FEFECE" filter="url(#fo6yzu7jdzdvm)" height="107.2188" id="DisplayCommInterfaceImplementation" style="stroke: #A80036; stroke-width: 1.5;" width="268" x="2415" y="216.5"/><ellipse cx="2430.45" cy="232.5" fill="#ADD1B2" rx="11" ry="11" style="stroke: #A80036; stroke-width: 1.0;"/><path d="M2433.4188,238.1406 Q2432.8406,238.4375 2432.2,238.5781 Q2431.5594,238.7344 2430.8563,238.7344 Q2428.3563,238.7344 2427.0281,237.0938 Q2425.7156,235.4375 2425.7156,232.3125 Q2425.7156,229.1875 2427.0281,227.5313 Q2428.3563,225.875 2430.8563,225.875 Q2431.5594,225.875 2432.2,226.0313 Q2432.8563,226.1875 2433.4188,226.4844 L2433.4188,229.2031 Q2432.7938,228.625 2432.2,228.3594 Q2431.6063,228.0781 2430.9813,228.0781 Q2429.6375,228.0781 2428.95,229.1563 Q2428.2625,230.2188 2428.2625,232.3125 Q2428.2625,234.4063 2428.95,235.4844 Q2429.6375,236.5469 2430.9813,236.5469 Q2431.6063,236.5469 2432.2,236.2813 Q2432.7938,236 2433.4188,235.4219 L2433.4188,238.1406 Z "/><text fill="#000000" font-family="sans-serif" font-size="12" lengthAdjust="spacingAndGlyphs" textLength="235" x="2444.55" y="236.6543">DisplayCommInterfaceImplementation</text><line style="stroke: #A80036; stroke-width: 1.5;" x1="2416" x2="2682" y1="248.5" y2="248.5"/><line style="stroke: #A80036; stroke-width: 1.5;" x1="2416" x2="2682" y1="256.5" y2="256.5"/><ellipse cx="2426" cy="284.3047" fill="#84BE84" rx="3" ry="3" style="stroke: #038048; stroke-width: 1.0;"/><text fill="#000000" font-family="sans-serif" font-size="11" font-style="italic" lengthAdjust="spacingAndGlyphs" textLength="242" x="2435" y="287.5151">TrackData receiveRfidRequest(int rfidNum)</text><line style="stroke: #A80036; stroke-width: 1.0; stroke-dasharray: 1.0,2.0;" x1="2416" x2="2516" y1="270.9023" y2="270.9023"/><text fill="#000000" font-family="sans-serif" font-size="11" lengthAdjust="spacingAndGlyphs" textLength="66" x="2516" y="274.2104">Use Case 1</text><line style="stroke: #A80036; stroke-width: 1.0; stroke-dasharray: 1.0,2.0;" x1="2582" x2="2682" y1="270.9023" y2="270.9023"/><text fill="#000000" font-family="sans-serif" font-size="11" lengthAdjust="spacingAndGlyphs" textLength="0" x="2425" y="317.1245"/><line style="stroke: #A80036; stroke-width: 1.0; stroke-dasharray: 1.0,2.0;" x1="2416" x2="2516" y1="300.5117" y2="300.5117"/><text fill="#000000" font-family="sans-serif" font-size="11" lengthAdjust="spacingAndGlyphs" textLength="66" x="2516" y="303.8198">Use Case 2</text><line style="stroke: #A80036; stroke-width: 1.0; stroke-dasharray: 1.0,2.0;" x1="2582" x2="2682" y1="300.5117" y2="300.5117"/><!--MD5=[46657c2900260d4d40350fe3f8c544df]
class DisplayComm2WayInterfaceImplementation--><rect fill="#FEFECE" filter="url(#fo6yzu7jdzdvm)" height="103.2188" id="DisplayComm2WayInterfaceImplementation" style="stroke: #A80036; stroke-width: 1.5;" width="370" x="2010" y="218.5"/><ellipse cx="2056.75" cy="234.5" fill="#ADD1B2" rx="11" ry="11" style="stroke: #A80036; stroke-width: 1.0;"/><path d="M2059.7188,240.1406 Q2059.1406,240.4375 2058.5,240.5781 Q2057.8594,240.7344 2057.1563,240.7344 Q2054.6563,240.7344 2053.3281,239.0938 Q2052.0156,237.4375 2052.0156,234.3125 Q2052.0156,231.1875 2053.3281,229.5313 Q2054.6563,227.875 2057.1563,227.875 Q2057.8594,227.875 2058.5,228.0313 Q2059.1563,228.1875 2059.7188,228.4844 L2059.7188,231.2031 Q2059.0938,230.625 2058.5,230.3594 Q2057.9063,230.0781 2057.2813,230.0781 Q2055.9375,230.0781 2055.25,231.1563 Q2054.5625,232.2188 2054.5625,234.3125 Q2054.5625,236.4063 2055.25,237.4844 Q2055.9375,238.5469 2057.2813,238.5469 Q2057.9063,238.5469 2058.5,238.2813 Q2059.0938,238 2059.7188,237.4219 L2059.7188,240.1406 Z "/><text fill="#000000" font-family="sans-serif" font-size="12" lengthAdjust="spacingAndGlyphs" textLength="268" x="2077.25" y="238.6543">DisplayComm2WayInterfaceImplementation</text><line style="stroke: #A80036; stroke-width: 1.5;" x1="2011" x2="2379" y1="250.5" y2="250.5"/><line style="stroke: #A80036; stroke-width: 1.5;" x1="2011" x2="2379" y1="258.5" y2="258.5"/><ellipse cx="2021" cy="286.3047" fill="#84BE84" rx="3" ry="3" style="stroke: #038048; stroke-width: 1.0;"/><text fill="#000000" font-family="sans-serif" font-size="11" font-style="italic" lengthAdjust="spacingAndGlyphs" textLength="226" x="2030" y="289.5151">TrackData passRfidRequest(int rfidNum)</text><ellipse cx="2021" cy="299.1094" fill="#84BE84" rx="3" ry="3" style="stroke: #038048; stroke-width: 1.0;"/><text fill="#000000" font-family="sans-serif" font-size="11" font-style="italic" lengthAdjust="spacingAndGlyphs" textLength="269" x="2030" y="302.3198">void determineUserRequestFormat(int rfidNum)</text><ellipse cx="2021" cy="311.9141" fill="#84BE84" rx="3" ry="3" style="stroke: #038048; stroke-width: 1.0;"/><text fill="#000000" font-family="sans-serif" font-size="11" font-style="italic" lengthAdjust="spacingAndGlyphs" textLength="344" x="2030" y="315.1245">void receiveRequestFromDisplayCommInterface(int rfidNum)</text><line style="stroke: #A80036; stroke-width: 1.0; stroke-dasharray: 1.0,2.0;" x1="2011" x2="2162" y1="272.9023" y2="272.9023"/><text fill="#000000" font-family="sans-serif" font-size="11" lengthAdjust="spacingAndGlyphs" textLength="66" x="2162" y="276.2104">Use Case 1</text><line style="stroke: #A80036; stroke-width: 1.0; stroke-dasharray: 1.0,2.0;" x1="2228" x2="2379" y1="272.9023" y2="272.9023"/><!--MD5=[3a27b63ddb357afc5dde5581215f51f9]
class DisplayCommManagerImplementation--><rect fill="#FEFECE" filter="url(#fo6yzu7jdzdvm)" height="145.6328" id="DisplayCommManagerImplementation" style="stroke: #A80036; stroke-width: 1.5;" width="395" x="1579.5" y="197"/><ellipse cx="1655.75" cy="213" fill="#ADD1B2" rx="11" ry="11" style="stroke: #A80036; stroke-width: 1.0;"/><path d="M1658.7188,218.6406 Q1658.1406,218.9375 1657.5,219.0781 Q1656.8594,219.2344 1656.1563,219.2344 Q1653.6563,219.2344 1652.3281,217.5938 Q1651.0156,215.9375 1651.0156,212.8125 Q1651.0156,209.6875 1652.3281,208.0313 Q1653.6563,206.375 1656.1563,206.375 Q1656.8594,206.375 1657.5,206.5313 Q1658.1563,206.6875 1658.7188,206.9844 L1658.7188,209.7031 Q1658.0938,209.125 1657.5,208.8594 Q1656.9063,208.5781 1656.2813,208.5781 Q1654.9375,208.5781 1654.25,209.6563 Q1653.5625,210.7188 1653.5625,212.8125 Q1653.5625,214.9063 1654.25,215.9844 Q1654.9375,217.0469 1656.2813,217.0469 Q1656.9063,217.0469 1657.5,216.7813 Q1658.0938,216.5 1658.7188,215.9219 L1658.7188,218.6406 Z "/><text fill="#000000" font-family="sans-serif" font-size="12" lengthAdjust="spacingAndGlyphs" textLength="234" x="1676.25" y="217.1543">DisplayCommManagerImplementation</text><line style="stroke: #A80036; stroke-width: 1.5;" x1="1580.5" x2="1973.5" y1="229" y2="229"/><line style="stroke: #A80036; stroke-width: 1.5;" x1="1580.5" x2="1973.5" y1="237" y2="237"/><ellipse cx="1590.5" cy="264.8047" fill="#84BE84" rx="3" ry="3" style="stroke: #038048; stroke-width: 1.0;"/><text fill="#000000" font-family="sans-serif" font-size="11" font-style="italic" lengthAdjust="spacingAndGlyphs" textLength="249" x="1599.5" y="268.0151">TrackData evaluateRfidRequest(int rfidNum)</text><ellipse cx="1590.5" cy="277.6094" fill="#84BE84" rx="3" ry="3" style="stroke: #038048; stroke-width: 1.0;"/><text fill="#000000" font-family="sans-serif" font-size="11" font-style="italic" lengthAdjust="spacingAndGlyphs" textLength="369" x="1599.5" y="280.8198">TrackData passRequestToMiddlewareCommInterface(int rfidNum)</text><ellipse cx="1590.5" cy="290.4141" fill="#84BE84" rx="3" ry="3" style="stroke: #038048; stroke-width: 1.0;"/><text fill="#000000" font-family="sans-serif" font-size="11" font-style="italic" lengthAdjust="spacingAndGlyphs" textLength="339" x="1599.5" y="293.6245">void receiveRequestFromDisplay2WayInterface(int rfidNum)</text><text fill="#000000" font-family="sans-serif" font-size="11" lengthAdjust="spacingAndGlyphs" textLength="0" x="1603.5" y="306.4292"/><line style="stroke: #A80036; stroke-width: 1.0; stroke-dasharray: 1.0,2.0;" x1="1580.5" x2="1744" y1="251.4023" y2="251.4023"/><text fill="#000000" font-family="sans-serif" font-size="11" lengthAdjust="spacingAndGlyphs" textLength="66" x="1744" y="254.7104">Use Case 1</text><line style="stroke: #A80036; stroke-width: 1.0; stroke-dasharray: 1.0,2.0;" x1="1810" x2="1973.5" y1="251.4023" y2="251.4023"/><text fill="#000000" font-family="sans-serif" font-size="11" lengthAdjust="spacingAndGlyphs" textLength="0" x="1589.5" y="336.0386"/><line style="stroke: #A80036; stroke-width: 1.0; stroke-dasharray: 1.0,2.0;" x1="1580.5" x2="1744" y1="319.4258" y2="319.4258"/><text fill="#000000" font-family="sans-serif" font-size="11" lengthAdjust="spacingAndGlyphs" textLength="66" x="1744" y="322.7339">Use Case 2</text><line style="stroke: #A80036; stroke-width: 1.0; stroke-dasharray: 1.0,2.0;" x1="1810" x2="1973.5" y1="319.4258" y2="319.4258"/><!--MD5=[d454b7777f115113290d89683d7a426c]
class DisplayCommInterfaceImplementationTests--><rect fill="#FEFECE" filter="url(#fo6yzu7jdzdvm)" height="48" id="DisplayCommInterfaceImplementationTests" style="stroke: #A80036; stroke-width: 1.5;" width="301" x="1221.5" y="74"/><ellipse cx="1236.5" cy="90" fill="#ADD1B2" rx="11" ry="11" style="stroke: #A80036; stroke-width: 1.0;"/><path d="M1239.4688,95.6406 Q1238.8906,95.9375 1238.25,96.0781 Q1237.6094,96.2344 1236.9063,96.2344 Q1234.4063,96.2344 1233.0781,94.5938 Q1231.7656,92.9375 1231.7656,89.8125 Q1231.7656,86.6875 1233.0781,85.0313 Q1234.4063,83.375 1236.9063,83.375 Q1237.6094,83.375 1238.25,83.5313 Q1238.9063,83.6875 1239.4688,83.9844 L1239.4688,86.7031 Q1238.8438,86.125 1238.25,85.8594 Q1237.6563,85.5781 1237.0313,85.5781 Q1235.6875,85.5781 1235,86.6563 Q1234.3125,87.7188 1234.3125,89.8125 Q1234.3125,91.9063 1235,92.9844 Q1235.6875,94.0469 1237.0313,94.0469 Q1237.6563,94.0469 1238.25,93.7813 Q1238.8438,93.5 1239.4688,92.9219 L1239.4688,95.6406 Z "/><text fill="#000000" font-family="sans-serif" font-size="12" lengthAdjust="spacingAndGlyphs" textLength="269" x="1250.5" y="94.1543">DisplayCommInterfaceImplementationTests</text><line style="stroke: #A80036; stroke-width: 1.5;" x1="1222.5" x2="1521.5" y1="106" y2="106"/><line style="stroke: #A80036; stroke-width: 1.5;" x1="1222.5" x2="1521.5" y1="114" y2="114"/><!--MD5=[a333ac13e0fdf2a5898aafabd38d3c1b]
class DisplayComm2WayInterfaceStub--><rect fill="#FEFECE" filter="url(#fo6yzu7jdzdvm)" height="77.6094" id="DisplayComm2WayInterfaceStub" style="stroke: #A80036; stroke-width: 1.5;" width="252" x="1258" y="231"/><ellipse cx="1282" cy="247" fill="#ADD1B2" rx="11" ry="11" style="stroke: #A80036; stroke-width: 1.0;"/><path d="M1284.9688,252.6406 Q1284.3906,252.9375 1283.75,253.0781 Q1283.1094,253.2344 1282.4063,253.2344 Q1279.9063,253.2344 1278.5781,251.5938 Q1277.2656,249.9375 1277.2656,246.8125 Q1277.2656,243.6875 1278.5781,242.0313 Q1279.9063,240.375 1282.4063,240.375 Q1283.1094,240.375 1283.75,240.5313 Q1284.4063,240.6875 1284.9688,240.9844 L1284.9688,243.7031 Q1284.3438,243.125 1283.75,242.8594 Q1283.1563,242.5781 1282.5313,242.5781 Q1281.1875,242.5781 1280.5,243.6563 Q1279.8125,244.7188 1279.8125,246.8125 Q1279.8125,248.9063 1280.5,249.9844 Q1281.1875,251.0469 1282.5313,251.0469 Q1283.1563,251.0469 1283.75,250.7813 Q1284.3438,250.5 1284.9688,249.9219 L1284.9688,252.6406 Z "/><text fill="#000000" font-family="sans-serif" font-size="12" lengthAdjust="spacingAndGlyphs" textLength="200" x="1298" y="251.1543">DisplayComm2WayInterfaceStub</text><line style="stroke: #A80036; stroke-width: 1.5;" x1="1259" x2="1509" y1="263" y2="263"/><line style="stroke: #A80036; stroke-width: 1.5;" x1="1259" x2="1509" y1="271" y2="271"/><ellipse cx="1269" cy="298.8047" fill="#84BE84" rx="3" ry="3" style="stroke: #038048; stroke-width: 1.0;"/><text fill="#000000" font-family="sans-serif" font-size="11" font-style="italic" lengthAdjust="spacingAndGlyphs" textLength="226" x="1278" y="302.0151">TrackData passRfidRequest(int rfidNum)</text><line style="stroke: #A80036; stroke-width: 1.0; stroke-dasharray: 1.0,2.0;" x1="1259" x2="1351" y1="285.4023" y2="285.4023"/><text fill="#000000" font-family="sans-serif" font-size="11" lengthAdjust="spacingAndGlyphs" textLength="66" x="1351" y="288.7104">Use Case 1</text><line style="stroke: #A80036; stroke-width: 1.0; stroke-dasharray: 1.0,2.0;" x1="1417" x2="1509" y1="285.4023" y2="285.4023"/><!--MD5=[178181f4c7684560c711246055fc01d3]
class DisplayComm2WayInterfaceImplementationTests--><rect fill="#FEFECE" filter="url(#fo6yzu7jdzdvm)" height="48" id="DisplayComm2WayInterfaceImplementationTests" style="stroke: #A80036; stroke-width: 1.5;" width="334" x="852" y="74"/><ellipse cx="867" cy="90" fill="#ADD1B2" rx="11" ry="11" style="stroke: #A80036; stroke-width: 1.0;"/><path d="M869.9688,95.6406 Q869.3906,95.9375 868.75,96.0781 Q868.1094,96.2344 867.4063,96.2344 Q864.9063,96.2344 863.5781,94.5938 Q862.2656,92.9375 862.2656,89.8125 Q862.2656,86.6875 863.5781,85.0313 Q864.9063,83.375 867.4063,83.375 Q868.1094,83.375 868.75,83.5313 Q869.4063,83.6875 869.9688,83.9844 L869.9688,86.7031 Q869.3438,86.125 868.75,85.8594 Q868.1563,85.5781 867.5313,85.5781 Q866.1875,85.5781 865.5,86.6563 Q864.8125,87.7188 864.8125,89.8125 Q864.8125,91.9063 865.5,92.9844 Q866.1875,94.0469 867.5313,94.0469 Q868.1563,94.0469 868.75,93.7813 Q869.3438,93.5 869.9688,92.9219 L869.9688,95.6406 Z "/><text fill="#000000" font-family="sans-serif" font-size="12" lengthAdjust="spacingAndGlyphs" textLength="302" x="881" y="94.1543">DisplayComm2WayInterfaceImplementationTests</text><line style="stroke: #A80036; stroke-width: 1.5;" x1="853" x2="1185" y1="106" y2="106"/><line style="stroke: #A80036; stroke-width: 1.5;" x1="853" x2="1185" y1="114" y2="114"/><!--MD5=[2970358178d6cf57fc5a801b39eb8d0b]
class DisplayCommManagerStub--><rect fill="#FEFECE" filter="url(#fo6yzu7jdzdvm)" height="77.6094" id="DisplayCommManagerStub" style="stroke: #A80036; stroke-width: 1.5;" width="273" x="915.5" y="231"/><ellipse cx="964.75" cy="247" fill="#ADD1B2" rx="11" ry="11" style="stroke: #A80036; stroke-width: 1.0;"/><path d="M967.7188,252.6406 Q967.1406,252.9375 966.5,253.0781 Q965.8594,253.2344 965.1563,253.2344 Q962.6563,253.2344 961.3281,251.5938 Q960.0156,249.9375 960.0156,246.8125 Q960.0156,243.6875 961.3281,242.0313 Q962.6563,240.375 965.1563,240.375 Q965.8594,240.375 966.5,240.5313 Q967.1563,240.6875 967.7188,240.9844 L967.7188,243.7031 Q967.0938,243.125 966.5,242.8594 Q965.9063,242.5781 965.2813,242.5781 Q963.9375,242.5781 963.25,243.6563 Q962.5625,244.7188 962.5625,246.8125 Q962.5625,248.9063 963.25,249.9844 Q963.9375,251.0469 965.2813,251.0469 Q965.9063,251.0469 966.5,250.7813 Q967.0938,250.5 967.7188,249.9219 L967.7188,252.6406 Z "/><text fill="#000000" font-family="sans-serif" font-size="12" lengthAdjust="spacingAndGlyphs" textLength="166" x="985.25" y="251.1543">DisplayCommManagerStub</text><line style="stroke: #A80036; stroke-width: 1.5;" x1="916.5" x2="1187.5" y1="263" y2="263"/><line style="stroke: #A80036; stroke-width: 1.5;" x1="916.5" x2="1187.5" y1="271" y2="271"/><ellipse cx="926.5" cy="298.8047" fill="#84BE84" rx="3" ry="3" style="stroke: #038048; stroke-width: 1.0;"/><text fill="#000000" font-family="sans-serif" font-size="11" lengthAdjust="spacingAndGlyphs" textLength="247" x="935.5" y="302.0151">TrackData evaluateRfidRequest(int rfidNum)</text><line style="stroke: #A80036; stroke-width: 1.0; stroke-dasharray: 1.0,2.0;" x1="916.5" x2="1019" y1="285.4023" y2="285.4023"/><text fill="#000000" font-family="sans-serif" font-size="11" lengthAdjust="spacingAndGlyphs" textLength="66" x="1019" y="288.7104">Use Case 1</text><line style="stroke: #A80036; stroke-width: 1.0; stroke-dasharray: 1.0,2.0;" x1="1085" x2="1187.5" y1="285.4023" y2="285.4023"/><!--MD5=[937d6d8ff87a99d0d5dcd66ee05a1fa4]
class DisplayCommManagerImplementationTests--><rect fill="#FEFECE" filter="url(#fo6yzu7jdzdvm)" height="48" id="DisplayCommManagerImplementationTests" style="stroke: #A80036; stroke-width: 1.5;" width="300" x="517" y="74"/><ellipse cx="532" cy="90" fill="#ADD1B2" rx="11" ry="11" style="stroke: #A80036; stroke-width: 1.0;"/><path d="M534.9688,95.6406 Q534.3906,95.9375 533.75,96.0781 Q533.1094,96.2344 532.4063,96.2344 Q529.9063,96.2344 528.5781,94.5938 Q527.2656,92.9375 527.2656,89.8125 Q527.2656,86.6875 528.5781,85.0313 Q529.9063,83.375 532.4063,83.375 Q533.1094,83.375 533.75,83.5313 Q534.4063,83.6875 534.9688,83.9844 L534.9688,86.7031 Q534.3438,86.125 533.75,85.8594 Q533.1563,85.5781 532.5313,85.5781 Q531.1875,85.5781 530.5,86.6563 Q529.8125,87.7188 529.8125,89.8125 Q529.8125,91.9063 530.5,92.9844 Q531.1875,94.0469 532.5313,94.0469 Q533.1563,94.0469 533.75,93.7813 Q534.3438,93.5 534.9688,92.9219 L534.9688,95.6406 Z "/><text fill="#000000" font-family="sans-serif" font-size="12" lengthAdjust="spacingAndGlyphs" textLength="268" x="546" y="94.1543">DisplayCommManagerImplementationTests</text><line style="stroke: #A80036; stroke-width: 1.5;" x1="518" x2="816" y1="106" y2="106"/><line style="stroke: #A80036; stroke-width: 1.5;" x1="518" x2="816" y1="114" y2="114"/><!--MD5=[cf56a65163663c6c6c7b84cd7c204b97]
class MiddlewareCommInterfaceStub--><rect fill="#FEFECE" filter="url(#fo6yzu7jdzdvm)" height="77.6094" id="MiddlewareCommInterfaceStub" style="stroke: #A80036; stroke-width: 1.5;" width="225" x="554.5" y="231"/><ellipse cx="569.5" cy="247" fill="#ADD1B2" rx="11" ry="11" style="stroke: #A80036; stroke-width: 1.0;"/><path d="M572.4688,252.6406 Q571.8906,252.9375 571.25,253.0781 Q570.6094,253.2344 569.9063,253.2344 Q567.4063,253.2344 566.0781,251.5938 Q564.7656,249.9375 564.7656,246.8125 Q564.7656,243.6875 566.0781,242.0313 Q567.4063,240.375 569.9063,240.375 Q570.6094,240.375 571.25,240.5313 Q571.9063,240.6875 572.4688,240.9844 L572.4688,243.7031 Q571.8438,243.125 571.25,242.8594 Q570.6563,242.5781 570.0313,242.5781 Q568.6875,242.5781 568,243.6563 Q567.3125,244.7188 567.3125,246.8125 Q567.3125,248.9063 568,249.9844 Q568.6875,251.0469 570.0313,251.0469 Q570.6563,251.0469 571.25,250.7813 Q571.8438,250.5 572.4688,249.9219 L572.4688,252.6406 Z "/><text fill="#000000" font-family="sans-serif" font-size="12" lengthAdjust="spacingAndGlyphs" textLength="193" x="583.5" y="251.1543">MiddlewareCommInterfaceStub</text><line style="stroke: #A80036; stroke-width: 1.5;" x1="555.5" x2="778.5" y1="263" y2="263"/><line style="stroke: #A80036; stroke-width: 1.5;" x1="555.5" x2="778.5" y1="271" y2="271"/><ellipse cx="565.5" cy="298.8047" fill="#84BE84" rx="3" ry="3" style="stroke: #038048; stroke-width: 1.0;"/><text fill="#000000" font-family="sans-serif" font-size="11" lengthAdjust="spacingAndGlyphs" textLength="171" x="574.5" y="302.0151">TrackData requestRfid(int rfid)</text><line style="stroke: #A80036; stroke-width: 1.0; stroke-dasharray: 1.0,2.0;" x1="555.5" x2="634" y1="285.4023" y2="285.4023"/><text fill="#000000" font-family="sans-serif" font-size="11" lengthAdjust="spacingAndGlyphs" textLength="66" x="634" y="288.7104">Use Case 1</text><line style="stroke: #A80036; stroke-width: 1.0; stroke-dasharray: 1.0,2.0;" x1="700" x2="778.5" y1="285.4023" y2="285.4023"/><!--MD5=[930c8140e7c1cb8e71aa7cd49967748e]
class TrackDataPlotterTests--><rect fill="#FEFECE" filter="url(#fo6yzu7jdzdvm)" height="48" id="TrackDataPlotterTests" style="stroke: #A80036; stroke-width: 1.5;" width="172" x="310" y="74"/><ellipse cx="325" cy="90" fill="#ADD1B2" rx="11" ry="11" style="stroke: #A80036; stroke-width: 1.0;"/><path d="M327.9688,95.6406 Q327.3906,95.9375 326.75,96.0781 Q326.1094,96.2344 325.4063,96.2344 Q322.9063,96.2344 321.5781,94.5938 Q320.2656,92.9375 320.2656,89.8125 Q320.2656,86.6875 321.5781,85.0313 Q322.9063,83.375 325.4063,83.375 Q326.1094,83.375 326.75,83.5313 Q327.4063,83.6875 327.9688,83.9844 L327.9688,86.7031 Q327.3438,86.125 326.75,85.8594 Q326.1563,85.5781 325.5313,85.5781 Q324.1875,85.5781 323.5,86.6563 Q322.8125,87.7188 322.8125,89.8125 Q322.8125,91.9063 323.5,92.9844 Q324.1875,94.0469 325.5313,94.0469 Q326.1563,94.0469 326.75,93.7813 Q327.3438,93.5 327.9688,92.9219 L327.9688,95.6406 Z "/><text fill="#000000" font-family="sans-serif" font-size="12" lengthAdjust="spacingAndGlyphs" textLength="140" x="339" y="94.1543">TrackDataPlotterTests</text><line style="stroke: #A80036; stroke-width: 1.5;" x1="311" x2="481" y1="106" y2="106"/><line style="stroke: #A80036; stroke-width: 1.5;" x1="311" x2="481" y1="114" y2="114"/><!--MD5=[c986427b061286eff33e87a088ad4bf9]
class TrackDataPlotter--><rect fill="#FEFECE" filter="url(#fo6yzu7jdzdvm)" height="48" id="TrackDataPlotter" style="stroke: #A80036; stroke-width: 1.5;" width="138" x="116" y="246"/><ellipse cx="131" cy="262" fill="#ADD1B2" rx="11" ry="11" style="stroke: #A80036; stroke-width: 1.0;"/><path d="M133.9688,267.6406 Q133.3906,267.9375 132.75,268.0781 Q132.1094,268.2344 131.4063,268.2344 Q128.9063,268.2344 127.5781,266.5938 Q126.2656,264.9375 126.2656,261.8125 Q126.2656,258.6875 127.5781,257.0313 Q128.9063,255.375 131.4063,255.375 Q132.1094,255.375 132.75,255.5313 Q133.4063,255.6875 133.9688,255.9844 L133.9688,258.7031 Q133.3438,258.125 132.75,257.8594 Q132.1563,257.5781 131.5313,257.5781 Q130.1875,257.5781 129.5,258.6563 Q128.8125,259.7188 128.8125,261.8125 Q128.8125,263.9063 129.5,264.9844 Q130.1875,266.0469 131.5313,266.0469 Q132.1563,266.0469 132.75,265.7813 Q133.3438,265.5 133.9688,264.9219 L133.9688,267.6406 Z "/><text fill="#000000" font-family="sans-serif" font-size="12" lengthAdjust="spacingAndGlyphs" textLength="106" x="145" y="266.1543">TrackDataPlotter</text><line style="stroke: #A80036; stroke-width: 1.5;" x1="117" x2="253" y1="278" y2="278"/><line style="stroke: #A80036; stroke-width: 1.5;" x1="117" x2="253" y1="286" y2="286"/><!--MD5=[77bc37423dd8876786830fad4054e33b]
reverse link DisplayCommInterface to DisplayCommInterfaceImplementation--><path d="M2549,157.34 C2549,176.54 2549,197.74 2549,216.47 " fill="none" id="DisplayCommInterface&lt;-DisplayCommInterfaceImplementation" style="stroke: #A80036; stroke-width: 1.0; stroke-dasharray: 7.0,7.0;"/><polygon fill="none" points="2542,157.15,2549,137.15,2556,157.15,2542,157.15" style="stroke: #A80036; stroke-width: 1.0;"/><!--MD5=[4e991cf787e933c55089f97eae394828]
reverse link DisplayComm2WayInterface to DisplayComm2WayInterfaceImplementation--><path d="M2145.67,155.67 C2154.5,175.95 2164.38,198.66 2172.97,218.4 " fill="none" id="DisplayComm2WayInterface&lt;-DisplayComm2WayInterfaceImplementation" style="stroke: #A80036; stroke-width: 1.0; stroke-dasharray: 7.0,7.0;"/><polygon fill="none" points="2139.17,158.28,2137.61,137.15,2152.01,152.7,2139.17,158.28" style="stroke: #A80036; stroke-width: 1.0;"/><!--MD5=[5beed6c3c7e4a84a4bfaa95bdf8cce79]
reverse link DisplayCommManager to DisplayCommManagerImplementation--><path d="M1757.23,156.97 C1759.49,169.78 1761.91,183.51 1764.26,196.81 " fill="none" id="DisplayCommManager&lt;-DisplayCommManagerImplementation" style="stroke: #A80036; stroke-width: 1.0; stroke-dasharray: 7.0,7.0;"/><polygon fill="none" points="1750.31,158.06,1753.73,137.15,1764.1,155.63,1750.31,158.06" style="stroke: #A80036; stroke-width: 1.0;"/><!--MD5=[9a02b467888c5123255f55ebe5217d7a]
link DisplayCommInterfaceImplementationTests to DisplayComm2WayInterfaceStub--><path d="M1373.64,122.28 C1375.51,148.78 1378.61,192.64 1380.93,225.52 " fill="none" id="DisplayCommInterfaceImplementationTests-&gt;DisplayComm2WayInterfaceStub" style="stroke: #A80036; stroke-width: 1.0; stroke-dasharray: 7.0,7.0;"/><polygon fill="#A80036" points="1381.3,230.7,1384.6731,221.4468,1380.957,225.7118,1376.692,221.9956,1381.3,230.7" style="stroke: #A80036; stroke-width: 1.0;"/><!--MD5=[69695ace36e753468876c8d4fe5d2708]
link DisplayComm2WayInterfaceImplementationTests to DisplayCommManagerStub--><path d="M1023.52,122.28 C1028.66,148.78 1037.18,192.64 1043.56,225.52 " fill="none" id="DisplayComm2WayInterfaceImplementationTests-&gt;DisplayCommManagerStub" style="stroke: #A80036; stroke-width: 1.0; stroke-dasharray: 7.0,7.0;"/><polygon fill="#A80036" points="1044.57,230.7,1046.8025,221.1075,1043.6279,225.7896,1038.9458,222.6149,1044.57,230.7" style="stroke: #A80036; stroke-width: 1.0;"/><!--MD5=[a3caa78d97a9caf08bd2afaaae1510f4]
link DisplayCommManagerImplementationTests to MiddlewareCommInterfaceStub--><path d="M667,122.28 C667,148.78 667,192.64 667,225.52 " fill="none" id="DisplayCommManagerImplementationTests-&gt;MiddlewareCommInterfaceStub" style="stroke: #A80036; stroke-width: 1.0; stroke-dasharray: 7.0,7.0;"/><polygon fill="#A80036" points="667,230.7,671,221.7,667,225.7,663,221.7,667,230.7" style="stroke: #A80036; stroke-width: 1.0;"/><!--MD5=[0cd290e6298e838268680010d5032c0d]
link DisplayCommInterfaceImplementationTests to DisplayCommInterfaceImplementation--><path d="M1475.69,122.07 C1503.9,127.68 1534.52,133.16 1563,137 C1931.29,186.69 2037.59,102.51 2397,197 C2413.65,201.38 2430.69,207.56 2447.06,214.48 " fill="none" id="DisplayCommInterfaceImplementationTests-&gt;DisplayCommInterfaceImplementation" style="stroke: #A80036; stroke-width: 1.0; stroke-dasharray: 7.0,7.0;"/><polygon fill="#A80036" points="2451.66,216.45,2444.9634,209.2281,2447.0643,214.4804,2441.812,216.5813,2451.66,216.45" style="stroke: #A80036; stroke-width: 1.0;"/><!--MD5=[ce67f838794c14794f693dd46a642b9a]
link DisplayComm2WayInterfaceImplementationTests to DisplayComm2WayInterfaceImplementation--><path d="M1119.41,122.03 C1146.73,127.64 1176.4,133.13 1204,137 C1551.83,185.77 1648.36,124.33 1992,197 C2015.57,201.98 2040.13,209.02 2063.69,216.76 " fill="none" id="DisplayComm2WayInterfaceImplementationTests-&gt;DisplayComm2WayInterfaceImplementation" style="stroke: #A80036; stroke-width: 1.0; stroke-dasharray: 7.0,7.0;"/><polygon fill="#A80036" points="2068.7,218.42,2061.4268,211.7792,2063.9566,216.8389,2058.8969,219.3687,2068.7,218.42" style="stroke: #A80036; stroke-width: 1.0;"/><!--MD5=[6f3abcadcd809ea193290ea1cf8b820a]
link DisplayCommManagerImplementationTests to DisplayCommManagerImplementation--><path d="M757.56,122.01 C782.23,127.62 809.03,133.12 834,137 C1144.73,185.34 1230.15,137.82 1539,197 C1550.59,199.22 1562.42,201.79 1574.31,204.61 " fill="none" id="DisplayCommManagerImplementationTests-&gt;DisplayCommManagerImplementation" style="stroke: #A80036; stroke-width: 1.0; stroke-dasharray: 7.0,7.0;"/><polygon fill="#A80036" points="1579.41,205.83,1571.582,199.8532,1574.5461,204.6713,1569.728,207.6354,1579.41,205.83" style="stroke: #A80036; stroke-width: 1.0;"/><!--MD5=[f24e7409bf4fec90fef0ed7e05f90b9b]
link TrackDataPlotterTests to TrackDataPlotter--><path d="M367.1,122.28 C328.12,153.69 258.85,209.5 217.91,242.49 " fill="none" id="TrackDataPlotterTests-&gt;TrackDataPlotter" style="stroke: #A80036; stroke-width: 1.0; stroke-dasharray: 7.0,7.0;"/><polygon fill="#A80036" points="213.55,246,223.0676,243.4673,217.4432,242.8626,218.0478,237.2382,213.55,246" style="stroke: #A80036; stroke-width: 1.0;"/><!--MD5=[6aaeadb42451b39b4e2cdcf83e2bb4cd]
reverse link DisplayComm2WayInterface to DisplayComm2WayInterfaceStub--><path d="M1974.8,124.49 C1811.16,153.04 1568.01,195.57 1563,197 C1531.44,206.01 1497.81,218.68 1468.32,230.88 " fill="none" id="DisplayComm2WayInterface&lt;-DisplayComm2WayInterfaceStub" style="stroke: #A80036; stroke-width: 1.0; stroke-dasharray: 7.0,7.0;"/><polygon fill="none" points="1973.93,117.53,1994.84,120.99,1976.34,131.33,1973.93,117.53" style="stroke: #A80036; stroke-width: 1.0;"/><!--MD5=[e6e0d8b3e0f7bf14f11c0899b3ad37ae]
reverse link DisplayCommManager to DisplayCommManagerStub--><path d="M1589.69,127.98 C1453.6,153.28 1273.53,187.42 1240,197 C1207.4,206.32 1172.52,218.91 1141.76,230.96 " fill="none" id="DisplayCommManager&lt;-DisplayCommManagerStub" style="stroke: #A80036; stroke-width: 1.0; stroke-dasharray: 7.0,7.0;"/><polygon fill="none" points="1588.48,121.08,1609.42,124.31,1591.04,134.85,1588.48,121.08" style="stroke: #A80036; stroke-width: 1.0;"/><!--MD5=[d8f535d0fb17ff337b3a374f317fc54f]
@startuml Display02Packages_InternalDependencies


package edu.oakland.production.display02 {
    
}


package edu.oakland.production.display02 {
    interface DisplayCommInterface {
        __
        .. Use Case 1 ..
        {abstract} + TrackData receiveRfidRequest(int rfidNum)
    }
}


package edu.oakland.production.display02 {
    interface DisplayComm2WayInterface {
        __
        .. Use Case 1 ..
        {abstract} + TrackData passRfidRequest(int rfidNum)
    }
}


package edu.oakland.production.display02 {
    interface DisplayCommManager {
        __
        .. Use Case 1 ..
        {abstract} + TrackData evaluateRfidRequest(int rfidNum)
    }
}


package edu.oakland.production.display02 {
    class DisplayCommInterfaceImplementation {
        __
        .. Use Case 1 ..
        {abstract} + TrackData receiveRfidRequest(int rfidNum)
        .. Use Case 2 ..

    }
}


DisplayCommInterfaceImplementation .up.|> DisplayCommInterface

package edu.oakland.production.display02 {
    class DisplayComm2WayInterfaceImplementation {
        __
        .. Use Case 1 ..
        {abstract} + TrackData passRfidRequest(int rfidNum)
        {abstract} + void determineUserRequestFormat(int rfidNum)
        {abstract} + void receiveRequestFromDisplayCommInterface(int rfidNum)
    }
}


DisplayComm2WayInterfaceImplementation .up.|> DisplayComm2WayInterface

package edu.oakland.production.display02 {
    class DisplayCommManagerImplementation {
        __
        .. Use Case 1 ..
        {abstract} + TrackData evaluateRfidRequest(int rfidNum)
        {abstract} + TrackData passRequestToMiddlewareCommInterface(int rfidNum)
        {abstract} + void receiveRequestFromDisplay2WayInterface(int rfidNum)

        .. Use Case 2 ..

    }
}


DisplayCommManagerImplementation .up.|> DisplayCommManager








package edu.oakland.test.display02 {
    
}


package edu.oakland.test.display02 {
    class DisplayCommInterfaceImplementationTests {

    }
}



package edu.oakland.test.display02 {
    class DisplayComm2WayInterfaceStub {
        __
        .. Use Case 1 ..
        {abstract} + TrackData passRfidRequest(int rfidNum)
    }
}

DisplayCommInterfaceImplementationTests ..> DisplayComm2WayInterfaceStub

package edu.oakland.test.display02 {
    class DisplayComm2WayInterfaceImplementationTests {

    }
}



package edu.oakland.test.display02 {
    class DisplayCommManagerStub {
        __
        .. Use Case 1 ..
        + TrackData evaluateRfidRequest(int rfidNum)
    }
}

DisplayComm2WayInterfaceImplementationTests ..> DisplayCommManagerStub

package edu.oakland.test.display02 {
    class DisplayCommManagerImplementationTests {

    }
}



package edu.oakland.test.display02 {
    class MiddlewareCommInterfaceStub {
        __
        .. Use Case 1 ..
        + TrackData requestRfid(int rfid)
    }
}

DisplayCommManagerImplementationTests ..> MiddlewareCommInterfaceStub

package edu.oakland.test.display02 {
    class TrackDataPlotterTests {

    }
}


DisplayCommInterfaceImplementationTests ..> DisplayCommInterfaceImplementation
DisplayComm2WayInterfaceImplementationTests ..> DisplayComm2WayInterfaceImplementation
DisplayCommManagerImplementationTests ..> DisplayCommManagerImplementation

package edu.oakland.helper.display02 {
    class TrackDataPlotter {
        
    }
}

TrackDataPlotterTests ..> TrackDataPlotter
DisplayComm2WayInterfaceStub .up.|> DisplayComm2WayInterface
DisplayCommManagerStub .up.|> DisplayCommManager


package edu.oakland.helper.display02 {
    
}




@enduml

PlantUML version 1.2020.02(Sun Mar 01 10:22:07 GMT 2020)
(GPL source distribution)
Java Runtime: OpenJDK Runtime Environment
JVM: OpenJDK 64-Bit Server VM
Java Version: 11.0.9+11-Ubuntu-0ubuntu1
Operating System: Linux
Default Encoding: ANSI_X3.4-1968
Language: en
Country: US
--></g></svg>