<?xml version="1.0" encoding="UTF-8" standalone="no"?><svg xmlns="http://www.w3.org/2000/svg" xmlns:xlink="http://www.w3.org/1999/xlink" contentScriptType="application/ecmascript" contentStyleType="text/css" height="470px" preserveAspectRatio="none" style="width:2314px;height:470px;" version="1.1" viewBox="0 0 2314 470" width="2314px" zoomAndPan="magnify"><defs><filter height="300%" id="fnr4k4l1ywims" width="300%" x="-1" y="-1"><feGaussianBlur result="blurOut" stdDeviation="2.0"/><feColorMatrix in="blurOut" result="blurOut2" type="matrix" values="0 0 0 0 0 0 0 0 0 0 0 0 0 0 0 0 0 0 .4 0"/><feOffset dx="4.0" dy="4.0" in="blurOut2" result="blurOut3"/><feBlend in="SourceGraphic" in2="blurOut3" mode="normal"/></filter></defs><g><!--MD5=[fe59aae6f7bfe371a9c197ec1f7f843a]
cluster edu.oakland.production.display02--><polygon fill="#FFFFFF" filter="url(#fnr4k4l1ywims)" points="22,24,295,24,302,46.2969,958,46.2969,958,320,22,320,22,24" style="stroke: #000000; stroke-width: 1.5;"/><line style="stroke: #000000; stroke-width: 1.5;" x1="22" x2="302" y1="46.2969" y2="46.2969"/><text fill="#000000" font-family="sans-serif" font-size="14" font-weight="bold" lengthAdjust="spacingAndGlyphs" textLength="267" x="26" y="38.9951">edu.oakland.production.display02</text><!--MD5=[9258003ec405d300d3379b4a3d8dd6ad]
cluster edu.oakland.test.display02--><polygon fill="#FFFFFF" filter="url(#fnr4k4l1ywims)" points="982,39,1200,39,1207,61.2969,2020,61.2969,2020,458,982,458,982,39" style="stroke: #000000; stroke-width: 1.5;"/><line style="stroke: #000000; stroke-width: 1.5;" x1="982" x2="1207" y1="61.2969" y2="61.2969"/><text fill="#000000" font-family="sans-serif" font-size="14" font-weight="bold" lengthAdjust="spacingAndGlyphs" textLength="212" x="986" y="53.9951">edu.oakland.test.display02</text><!--MD5=[a502031b5a5384de0a21e6ee820fd3b2]
cluster edu.oakland.helper.display02--><polygon fill="#FFFFFF" filter="url(#fnr4k4l1ywims)" points="2044,39,2282,39,2289,61.2969,2292,61.2969,2292,138,2044,138,2044,39" style="stroke: #000000; stroke-width: 1.5;"/><line style="stroke: #000000; stroke-width: 1.5;" x1="2044" x2="2289" y1="61.2969" y2="61.2969"/><text fill="#000000" font-family="sans-serif" font-size="14" font-weight="bold" lengthAdjust="spacingAndGlyphs" textLength="232" x="2048" y="53.9951">edu.oakland.helper.display02</text><!--MD5=[c8d1e3134fecb0c949fd2a76cc0bb992]
class DisplayCommInterface--><rect fill="#FEFECE" filter="url(#fnr4k4l1ywims)" height="77.6094" id="DisplayCommInterface" style="stroke: #A80036; stroke-width: 1.5;" width="268" x="38" y="59"/><ellipse cx="98.25" cy="75" fill="#B4A7E5" rx="11" ry="11" style="stroke: #A80036; stroke-width: 1.0;"/><path d="M94.1719,70.7656 L94.1719,68.6094 L101.5625,68.6094 L101.5625,70.7656 L99.0938,70.7656 L99.0938,78.8438 L101.5625,78.8438 L101.5625,81 L94.1719,81 L94.1719,78.8438 L96.6406,78.8438 L96.6406,70.7656 L94.1719,70.7656 Z "/><text fill="#000000" font-family="sans-serif" font-size="12" font-style="italic" lengthAdjust="spacingAndGlyphs" textLength="139" x="118.75" y="79.1543">DisplayCommInterface</text><line style="stroke: #A80036; stroke-width: 1.5;" x1="39" x2="305" y1="91" y2="91"/><line style="stroke: #A80036; stroke-width: 1.5;" x1="39" x2="305" y1="99" y2="99"/><ellipse cx="49" cy="126.8047" fill="#84BE84" rx="3" ry="3" style="stroke: #038048; stroke-width: 1.0;"/><text fill="#000000" font-family="sans-serif" font-size="11" font-style="italic" lengthAdjust="spacingAndGlyphs" textLength="242" x="58" y="130.0151">TrackData receiveRfidRequest(int rfidNum)</text><line style="stroke: #A80036; stroke-width: 1.0; stroke-dasharray: 1.0,2.0;" x1="39" x2="139" y1="113.4023" y2="113.4023"/><text fill="#000000" font-family="sans-serif" font-size="11" lengthAdjust="spacingAndGlyphs" textLength="66" x="139" y="116.7104">Use Case 1</text><line style="stroke: #A80036; stroke-width: 1.0; stroke-dasharray: 1.0,2.0;" x1="205" x2="305" y1="113.4023" y2="113.4023"/><!--MD5=[f6b51b5f862da5ce226c62e411e84628]
class DisplayComm2WayInterface--><rect fill="#FEFECE" filter="url(#fnr4k4l1ywims)" height="77.6094" id="DisplayComm2WayInterface" style="stroke: #A80036; stroke-width: 1.5;" width="252" x="341" y="59"/><ellipse cx="376.7" cy="75" fill="#B4A7E5" rx="11" ry="11" style="stroke: #A80036; stroke-width: 1.0;"/><path d="M372.6219,70.7656 L372.6219,68.6094 L380.0125,68.6094 L380.0125,70.7656 L377.5438,70.7656 L377.5438,78.8438 L380.0125,78.8438 L380.0125,81 L372.6219,81 L372.6219,78.8438 L375.0906,78.8438 L375.0906,70.7656 L372.6219,70.7656 Z "/><text fill="#000000" font-family="sans-serif" font-size="12" font-style="italic" lengthAdjust="spacingAndGlyphs" textLength="174" x="395.3" y="79.1543">DisplayComm2WayInterface</text><line style="stroke: #A80036; stroke-width: 1.5;" x1="342" x2="592" y1="91" y2="91"/><line style="stroke: #A80036; stroke-width: 1.5;" x1="342" x2="592" y1="99" y2="99"/><ellipse cx="352" cy="126.8047" fill="#84BE84" rx="3" ry="3" style="stroke: #038048; stroke-width: 1.0;"/><text fill="#000000" font-family="sans-serif" font-size="11" font-style="italic" lengthAdjust="spacingAndGlyphs" textLength="226" x="361" y="130.0151">TrackData passRfidRequest(int rfidNum)</text><line style="stroke: #A80036; stroke-width: 1.0; stroke-dasharray: 1.0,2.0;" x1="342" x2="434" y1="113.4023" y2="113.4023"/><text fill="#000000" font-family="sans-serif" font-size="11" lengthAdjust="spacingAndGlyphs" textLength="66" x="434" y="116.7104">Use Case 1</text><line style="stroke: #A80036; stroke-width: 1.0; stroke-dasharray: 1.0,2.0;" x1="500" x2="592" y1="113.4023" y2="113.4023"/><!--MD5=[6aeb72f2773d7cabb45309482beeff0a]
class DisplayCommManager--><rect fill="#FEFECE" filter="url(#fnr4k4l1ywims)" height="77.6094" id="DisplayCommManager" style="stroke: #A80036; stroke-width: 1.5;" width="275" x="628.5" y="59"/><ellipse cx="693.25" cy="75" fill="#B4A7E5" rx="11" ry="11" style="stroke: #A80036; stroke-width: 1.0;"/><path d="M689.1719,70.7656 L689.1719,68.6094 L696.5625,68.6094 L696.5625,70.7656 L694.0938,70.7656 L694.0938,78.8438 L696.5625,78.8438 L696.5625,81 L689.1719,81 L689.1719,78.8438 L691.6406,78.8438 L691.6406,70.7656 L689.1719,70.7656 Z "/><text fill="#000000" font-family="sans-serif" font-size="12" font-style="italic" lengthAdjust="spacingAndGlyphs" textLength="137" x="713.75" y="79.1543">DisplayCommManager</text><line style="stroke: #A80036; stroke-width: 1.5;" x1="629.5" x2="902.5" y1="91" y2="91"/><line style="stroke: #A80036; stroke-width: 1.5;" x1="629.5" x2="902.5" y1="99" y2="99"/><ellipse cx="639.5" cy="126.8047" fill="#84BE84" rx="3" ry="3" style="stroke: #038048; stroke-width: 1.0;"/><text fill="#000000" font-family="sans-serif" font-size="11" font-style="italic" lengthAdjust="spacingAndGlyphs" textLength="249" x="648.5" y="130.0151">TrackData evaluateRfidRequest(int rfidNum)</text><line style="stroke: #A80036; stroke-width: 1.0; stroke-dasharray: 1.0,2.0;" x1="629.5" x2="733" y1="113.4023" y2="113.4023"/><text fill="#000000" font-family="sans-serif" font-size="11" lengthAdjust="spacingAndGlyphs" textLength="66" x="733" y="116.7104">Use Case 1</text><line style="stroke: #A80036; stroke-width: 1.0; stroke-dasharray: 1.0,2.0;" x1="799" x2="902.5" y1="113.4023" y2="113.4023"/><!--MD5=[a35092e604da7274febf4e2cf9a25087]
class DisplayCommInterfaceImplementation--><rect fill="#FEFECE" filter="url(#fnr4k4l1ywims)" height="107.2188" id="DisplayCommInterfaceImplementation" style="stroke: #A80036; stroke-width: 1.5;" width="267" x="38.5" y="197"/><ellipse cx="53.5" cy="213" fill="#ADD1B2" rx="11" ry="11" style="stroke: #A80036; stroke-width: 1.0;"/><path d="M56.4688,218.6406 Q55.8906,218.9375 55.25,219.0781 Q54.6094,219.2344 53.9063,219.2344 Q51.4063,219.2344 50.0781,217.5938 Q48.7656,215.9375 48.7656,212.8125 Q48.7656,209.6875 50.0781,208.0313 Q51.4063,206.375 53.9063,206.375 Q54.6094,206.375 55.25,206.5313 Q55.9063,206.6875 56.4688,206.9844 L56.4688,209.7031 Q55.8438,209.125 55.25,208.8594 Q54.6563,208.5781 54.0313,208.5781 Q52.6875,208.5781 52,209.6563 Q51.3125,210.7188 51.3125,212.8125 Q51.3125,214.9063 52,215.9844 Q52.6875,217.0469 54.0313,217.0469 Q54.6563,217.0469 55.25,216.7813 Q55.8438,216.5 56.4688,215.9219 L56.4688,218.6406 Z "/><text fill="#000000" font-family="sans-serif" font-size="12" lengthAdjust="spacingAndGlyphs" textLength="235" x="67.5" y="217.1543">DisplayCommInterfaceImplementation</text><line style="stroke: #A80036; stroke-width: 1.5;" x1="39.5" x2="304.5" y1="229" y2="229"/><line style="stroke: #A80036; stroke-width: 1.5;" x1="39.5" x2="304.5" y1="237" y2="237"/><text fill="#000000" font-family="sans-serif" font-size="11" lengthAdjust="spacingAndGlyphs" textLength="0" x="48.5" y="268.0151"/><line style="stroke: #A80036; stroke-width: 1.0; stroke-dasharray: 1.0,2.0;" x1="39.5" x2="139" y1="251.4023" y2="251.4023"/><text fill="#000000" font-family="sans-serif" font-size="11" lengthAdjust="spacingAndGlyphs" textLength="66" x="139" y="254.7104">Use Case 1</text><line style="stroke: #A80036; stroke-width: 1.0; stroke-dasharray: 1.0,2.0;" x1="205" x2="304.5" y1="251.4023" y2="251.4023"/><text fill="#000000" font-family="sans-serif" font-size="11" lengthAdjust="spacingAndGlyphs" textLength="0" x="48.5" y="297.6245"/><line style="stroke: #A80036; stroke-width: 1.0; stroke-dasharray: 1.0,2.0;" x1="39.5" x2="139" y1="281.0117" y2="281.0117"/><text fill="#000000" font-family="sans-serif" font-size="11" lengthAdjust="spacingAndGlyphs" textLength="66" x="139" y="284.3198">Use Case 2</text><line style="stroke: #A80036; stroke-width: 1.0; stroke-dasharray: 1.0,2.0;" x1="205" x2="304.5" y1="281.0117" y2="281.0117"/><!--MD5=[46657c2900260d4d40350fe3f8c544df]
class DisplayComm2WayInterfaceImplementation--><rect fill="#FEFECE" filter="url(#fnr4k4l1ywims)" height="77.6094" id="DisplayComm2WayInterfaceImplementation" style="stroke: #A80036; stroke-width: 1.5;" width="300" x="341" y="211.5"/><ellipse cx="356" cy="227.5" fill="#ADD1B2" rx="11" ry="11" style="stroke: #A80036; stroke-width: 1.0;"/><path d="M358.9688,233.1406 Q358.3906,233.4375 357.75,233.5781 Q357.1094,233.7344 356.4063,233.7344 Q353.9063,233.7344 352.5781,232.0938 Q351.2656,230.4375 351.2656,227.3125 Q351.2656,224.1875 352.5781,222.5313 Q353.9063,220.875 356.4063,220.875 Q357.1094,220.875 357.75,221.0313 Q358.4063,221.1875 358.9688,221.4844 L358.9688,224.2031 Q358.3438,223.625 357.75,223.3594 Q357.1563,223.0781 356.5313,223.0781 Q355.1875,223.0781 354.5,224.1563 Q353.8125,225.2188 353.8125,227.3125 Q353.8125,229.4063 354.5,230.4844 Q355.1875,231.5469 356.5313,231.5469 Q357.1563,231.5469 357.75,231.2813 Q358.3438,231 358.9688,230.4219 L358.9688,233.1406 Z "/><text fill="#000000" font-family="sans-serif" font-size="12" lengthAdjust="spacingAndGlyphs" textLength="268" x="370" y="231.6543">DisplayComm2WayInterfaceImplementation</text><line style="stroke: #A80036; stroke-width: 1.5;" x1="342" x2="640" y1="243.5" y2="243.5"/><line style="stroke: #A80036; stroke-width: 1.5;" x1="342" x2="640" y1="251.5" y2="251.5"/><ellipse cx="352" cy="279.3047" fill="#84BE84" rx="3" ry="3" style="stroke: #038048; stroke-width: 1.0;"/><text fill="#000000" font-family="sans-serif" font-size="11" font-style="italic" lengthAdjust="spacingAndGlyphs" textLength="270" x="361" y="282.5151">LocationDataPoint passRfidRequest(int rfidNum)</text><line style="stroke: #A80036; stroke-width: 1.0; stroke-dasharray: 1.0,2.0;" x1="342" x2="458" y1="265.9023" y2="265.9023"/><text fill="#000000" font-family="sans-serif" font-size="11" lengthAdjust="spacingAndGlyphs" textLength="66" x="458" y="269.2104">Use Case 1</text><line style="stroke: #A80036; stroke-width: 1.0; stroke-dasharray: 1.0,2.0;" x1="524" x2="640" y1="265.9023" y2="265.9023"/><!--MD5=[3a27b63ddb357afc5dde5581215f51f9]
class DisplayCommManagerImplementation--><rect fill="#FEFECE" filter="url(#fnr4k4l1ywims)" height="107.2188" id="DisplayCommManagerImplementation" style="stroke: #A80036; stroke-width: 1.5;" width="266" x="676" y="197"/><ellipse cx="691" cy="213" fill="#ADD1B2" rx="11" ry="11" style="stroke: #A80036; stroke-width: 1.0;"/><path d="M693.9688,218.6406 Q693.3906,218.9375 692.75,219.0781 Q692.1094,219.2344 691.4063,219.2344 Q688.9063,219.2344 687.5781,217.5938 Q686.2656,215.9375 686.2656,212.8125 Q686.2656,209.6875 687.5781,208.0313 Q688.9063,206.375 691.4063,206.375 Q692.1094,206.375 692.75,206.5313 Q693.4063,206.6875 693.9688,206.9844 L693.9688,209.7031 Q693.3438,209.125 692.75,208.8594 Q692.1563,208.5781 691.5313,208.5781 Q690.1875,208.5781 689.5,209.6563 Q688.8125,210.7188 688.8125,212.8125 Q688.8125,214.9063 689.5,215.9844 Q690.1875,217.0469 691.5313,217.0469 Q692.1563,217.0469 692.75,216.7813 Q693.3438,216.5 693.9688,215.9219 L693.9688,218.6406 Z "/><text fill="#000000" font-family="sans-serif" font-size="12" lengthAdjust="spacingAndGlyphs" textLength="234" x="705" y="217.1543">DisplayCommManagerImplementation</text><line style="stroke: #A80036; stroke-width: 1.5;" x1="677" x2="941" y1="229" y2="229"/><line style="stroke: #A80036; stroke-width: 1.5;" x1="677" x2="941" y1="237" y2="237"/><text fill="#000000" font-family="sans-serif" font-size="11" lengthAdjust="spacingAndGlyphs" textLength="0" x="686" y="268.0151"/><line style="stroke: #A80036; stroke-width: 1.0; stroke-dasharray: 1.0,2.0;" x1="677" x2="776" y1="251.4023" y2="251.4023"/><text fill="#000000" font-family="sans-serif" font-size="11" lengthAdjust="spacingAndGlyphs" textLength="66" x="776" y="254.7104">Use Case 1</text><line style="stroke: #A80036; stroke-width: 1.0; stroke-dasharray: 1.0,2.0;" x1="842" x2="941" y1="251.4023" y2="251.4023"/><text fill="#000000" font-family="sans-serif" font-size="11" lengthAdjust="spacingAndGlyphs" textLength="0" x="686" y="297.6245"/><line style="stroke: #A80036; stroke-width: 1.0; stroke-dasharray: 1.0,2.0;" x1="677" x2="776" y1="281.0117" y2="281.0117"/><text fill="#000000" font-family="sans-serif" font-size="11" lengthAdjust="spacingAndGlyphs" textLength="66" x="776" y="284.3198">Use Case 2</text><line style="stroke: #A80036; stroke-width: 1.0; stroke-dasharray: 1.0,2.0;" x1="842" x2="941" y1="281.0117" y2="281.0117"/><!--MD5=[d454b7777f115113290d89683d7a426c]
class DisplayCommInterfaceImplementationTests--><rect fill="#FEFECE" filter="url(#fnr4k4l1ywims)" height="48" id="DisplayCommInterfaceImplementationTests" style="stroke: #A80036; stroke-width: 1.5;" width="301" x="998.5" y="74"/><ellipse cx="1013.5" cy="90" fill="#ADD1B2" rx="11" ry="11" style="stroke: #A80036; stroke-width: 1.0;"/><path d="M1016.4688,95.6406 Q1015.8906,95.9375 1015.25,96.0781 Q1014.6094,96.2344 1013.9063,96.2344 Q1011.4063,96.2344 1010.0781,94.5938 Q1008.7656,92.9375 1008.7656,89.8125 Q1008.7656,86.6875 1010.0781,85.0313 Q1011.4063,83.375 1013.9063,83.375 Q1014.6094,83.375 1015.25,83.5313 Q1015.9063,83.6875 1016.4688,83.9844 L1016.4688,86.7031 Q1015.8438,86.125 1015.25,85.8594 Q1014.6563,85.5781 1014.0313,85.5781 Q1012.6875,85.5781 1012,86.6563 Q1011.3125,87.7188 1011.3125,89.8125 Q1011.3125,91.9063 1012,92.9844 Q1012.6875,94.0469 1014.0313,94.0469 Q1014.6563,94.0469 1015.25,93.7813 Q1015.8438,93.5 1016.4688,92.9219 L1016.4688,95.6406 Z "/><text fill="#000000" font-family="sans-serif" font-size="12" lengthAdjust="spacingAndGlyphs" textLength="269" x="1027.5" y="94.1543">DisplayCommInterfaceImplementationTests</text><line style="stroke: #A80036; stroke-width: 1.5;" x1="999.5" x2="1298.5" y1="106" y2="106"/><line style="stroke: #A80036; stroke-width: 1.5;" x1="999.5" x2="1298.5" y1="114" y2="114"/><!--MD5=[178181f4c7684560c711246055fc01d3]
class DisplayComm2WayInterfaceImplementationTests--><rect fill="#FEFECE" filter="url(#fnr4k4l1ywims)" height="48" id="DisplayComm2WayInterfaceImplementationTests" style="stroke: #A80036; stroke-width: 1.5;" width="334" x="1335" y="74"/><ellipse cx="1350" cy="90" fill="#ADD1B2" rx="11" ry="11" style="stroke: #A80036; stroke-width: 1.0;"/><path d="M1352.9688,95.6406 Q1352.3906,95.9375 1351.75,96.0781 Q1351.1094,96.2344 1350.4063,96.2344 Q1347.9063,96.2344 1346.5781,94.5938 Q1345.2656,92.9375 1345.2656,89.8125 Q1345.2656,86.6875 1346.5781,85.0313 Q1347.9063,83.375 1350.4063,83.375 Q1351.1094,83.375 1351.75,83.5313 Q1352.4063,83.6875 1352.9688,83.9844 L1352.9688,86.7031 Q1352.3438,86.125 1351.75,85.8594 Q1351.1563,85.5781 1350.5313,85.5781 Q1349.1875,85.5781 1348.5,86.6563 Q1347.8125,87.7188 1347.8125,89.8125 Q1347.8125,91.9063 1348.5,92.9844 Q1349.1875,94.0469 1350.5313,94.0469 Q1351.1563,94.0469 1351.75,93.7813 Q1352.3438,93.5 1352.9688,92.9219 L1352.9688,95.6406 Z "/><text fill="#000000" font-family="sans-serif" font-size="12" lengthAdjust="spacingAndGlyphs" textLength="302" x="1364" y="94.1543">DisplayComm2WayInterfaceImplementationTests</text><line style="stroke: #A80036; stroke-width: 1.5;" x1="1336" x2="1668" y1="106" y2="106"/><line style="stroke: #A80036; stroke-width: 1.5;" x1="1336" x2="1668" y1="114" y2="114"/><!--MD5=[937d6d8ff87a99d0d5dcd66ee05a1fa4]
class DisplayCommManagerImplementationTests--><rect fill="#FEFECE" filter="url(#fnr4k4l1ywims)" height="48" id="DisplayCommManagerImplementationTests" style="stroke: #A80036; stroke-width: 1.5;" width="300" x="1704" y="74"/><ellipse cx="1719" cy="90" fill="#ADD1B2" rx="11" ry="11" style="stroke: #A80036; stroke-width: 1.0;"/><path d="M1721.9688,95.6406 Q1721.3906,95.9375 1720.75,96.0781 Q1720.1094,96.2344 1719.4063,96.2344 Q1716.9063,96.2344 1715.5781,94.5938 Q1714.2656,92.9375 1714.2656,89.8125 Q1714.2656,86.6875 1715.5781,85.0313 Q1716.9063,83.375 1719.4063,83.375 Q1720.1094,83.375 1720.75,83.5313 Q1721.4063,83.6875 1721.9688,83.9844 L1721.9688,86.7031 Q1721.3438,86.125 1720.75,85.8594 Q1720.1563,85.5781 1719.5313,85.5781 Q1718.1875,85.5781 1717.5,86.6563 Q1716.8125,87.7188 1716.8125,89.8125 Q1716.8125,91.9063 1717.5,92.9844 Q1718.1875,94.0469 1719.5313,94.0469 Q1720.1563,94.0469 1720.75,93.7813 Q1721.3438,93.5 1721.9688,92.9219 L1721.9688,95.6406 Z "/><text fill="#000000" font-family="sans-serif" font-size="12" lengthAdjust="spacingAndGlyphs" textLength="268" x="1733" y="94.1543">DisplayCommManagerImplementationTests</text><line style="stroke: #A80036; stroke-width: 1.5;" x1="1705" x2="2003" y1="106" y2="106"/><line style="stroke: #A80036; stroke-width: 1.5;" x1="1705" x2="2003" y1="114" y2="114"/><!--MD5=[930c8140e7c1cb8e71aa7cd49967748e]
class TrackDataPlotterTests--><rect fill="#FEFECE" filter="url(#fnr4k4l1ywims)" height="48" id="TrackDataPlotterTests" style="stroke: #A80036; stroke-width: 1.5;" width="172" x="1063" y="226.5"/><ellipse cx="1078" cy="242.5" fill="#ADD1B2" rx="11" ry="11" style="stroke: #A80036; stroke-width: 1.0;"/><path d="M1080.9688,248.1406 Q1080.3906,248.4375 1079.75,248.5781 Q1079.1094,248.7344 1078.4063,248.7344 Q1075.9063,248.7344 1074.5781,247.0938 Q1073.2656,245.4375 1073.2656,242.3125 Q1073.2656,239.1875 1074.5781,237.5313 Q1075.9063,235.875 1078.4063,235.875 Q1079.1094,235.875 1079.75,236.0313 Q1080.4063,236.1875 1080.9688,236.4844 L1080.9688,239.2031 Q1080.3438,238.625 1079.75,238.3594 Q1079.1563,238.0781 1078.5313,238.0781 Q1077.1875,238.0781 1076.5,239.1563 Q1075.8125,240.2188 1075.8125,242.3125 Q1075.8125,244.4063 1076.5,245.4844 Q1077.1875,246.5469 1078.5313,246.5469 Q1079.1563,246.5469 1079.75,246.2813 Q1080.3438,246 1080.9688,245.4219 L1080.9688,248.1406 Z "/><text fill="#000000" font-family="sans-serif" font-size="12" lengthAdjust="spacingAndGlyphs" textLength="140" x="1092" y="246.6543">TrackDataPlotterTests</text><line style="stroke: #A80036; stroke-width: 1.5;" x1="1064" x2="1234" y1="258.5" y2="258.5"/><line style="stroke: #A80036; stroke-width: 1.5;" x1="1064" x2="1234" y1="266.5" y2="266.5"/><!--MD5=[a333ac13e0fdf2a5898aafabd38d3c1b]
class DisplayComm2WayInterfaceStub--><rect fill="#FEFECE" filter="url(#fnr4k4l1ywims)" height="77.6094" id="DisplayComm2WayInterfaceStub" style="stroke: #A80036; stroke-width: 1.5;" width="252" x="1270" y="211.5"/><ellipse cx="1294" cy="227.5" fill="#ADD1B2" rx="11" ry="11" style="stroke: #A80036; stroke-width: 1.0;"/><path d="M1296.9688,233.1406 Q1296.3906,233.4375 1295.75,233.5781 Q1295.1094,233.7344 1294.4063,233.7344 Q1291.9063,233.7344 1290.5781,232.0938 Q1289.2656,230.4375 1289.2656,227.3125 Q1289.2656,224.1875 1290.5781,222.5313 Q1291.9063,220.875 1294.4063,220.875 Q1295.1094,220.875 1295.75,221.0313 Q1296.4063,221.1875 1296.9688,221.4844 L1296.9688,224.2031 Q1296.3438,223.625 1295.75,223.3594 Q1295.1563,223.0781 1294.5313,223.0781 Q1293.1875,223.0781 1292.5,224.1563 Q1291.8125,225.2188 1291.8125,227.3125 Q1291.8125,229.4063 1292.5,230.4844 Q1293.1875,231.5469 1294.5313,231.5469 Q1295.1563,231.5469 1295.75,231.2813 Q1296.3438,231 1296.9688,230.4219 L1296.9688,233.1406 Z "/><text fill="#000000" font-family="sans-serif" font-size="12" lengthAdjust="spacingAndGlyphs" textLength="200" x="1310" y="231.6543">DisplayComm2WayInterfaceStub</text><line style="stroke: #A80036; stroke-width: 1.5;" x1="1271" x2="1521" y1="243.5" y2="243.5"/><line style="stroke: #A80036; stroke-width: 1.5;" x1="1271" x2="1521" y1="251.5" y2="251.5"/><ellipse cx="1281" cy="279.3047" fill="#84BE84" rx="3" ry="3" style="stroke: #038048; stroke-width: 1.0;"/><text fill="#000000" font-family="sans-serif" font-size="11" font-style="italic" lengthAdjust="spacingAndGlyphs" textLength="226" x="1290" y="282.5151">TrackData passRfidRequest(int rfidNum)</text><line style="stroke: #A80036; stroke-width: 1.0; stroke-dasharray: 1.0,2.0;" x1="1271" x2="1363" y1="265.9023" y2="265.9023"/><text fill="#000000" font-family="sans-serif" font-size="11" lengthAdjust="spacingAndGlyphs" textLength="66" x="1363" y="269.2104">Use Case 1</text><line style="stroke: #A80036; stroke-width: 1.0; stroke-dasharray: 1.0,2.0;" x1="1429" x2="1521" y1="265.9023" y2="265.9023"/><!--MD5=[2970358178d6cf57fc5a801b39eb8d0b]
class DisplayCommManagerStub--><rect fill="#FEFECE" filter="url(#fnr4k4l1ywims)" height="77.6094" id="DisplayCommManagerStub" style="stroke: #A80036; stroke-width: 1.5;" width="273" x="1557.5" y="211.5"/><ellipse cx="1606.75" cy="227.5" fill="#ADD1B2" rx="11" ry="11" style="stroke: #A80036; stroke-width: 1.0;"/><path d="M1609.7188,233.1406 Q1609.1406,233.4375 1608.5,233.5781 Q1607.8594,233.7344 1607.1563,233.7344 Q1604.6563,233.7344 1603.3281,232.0938 Q1602.0156,230.4375 1602.0156,227.3125 Q1602.0156,224.1875 1603.3281,222.5313 Q1604.6563,220.875 1607.1563,220.875 Q1607.8594,220.875 1608.5,221.0313 Q1609.1563,221.1875 1609.7188,221.4844 L1609.7188,224.2031 Q1609.0938,223.625 1608.5,223.3594 Q1607.9063,223.0781 1607.2813,223.0781 Q1605.9375,223.0781 1605.25,224.1563 Q1604.5625,225.2188 1604.5625,227.3125 Q1604.5625,229.4063 1605.25,230.4844 Q1605.9375,231.5469 1607.2813,231.5469 Q1607.9063,231.5469 1608.5,231.2813 Q1609.0938,231 1609.7188,230.4219 L1609.7188,233.1406 Z "/><text fill="#000000" font-family="sans-serif" font-size="12" lengthAdjust="spacingAndGlyphs" textLength="166" x="1627.25" y="231.6543">DisplayCommManagerStub</text><line style="stroke: #A80036; stroke-width: 1.5;" x1="1558.5" x2="1829.5" y1="243.5" y2="243.5"/><line style="stroke: #A80036; stroke-width: 1.5;" x1="1558.5" x2="1829.5" y1="251.5" y2="251.5"/><ellipse cx="1568.5" cy="279.3047" fill="#84BE84" rx="3" ry="3" style="stroke: #038048; stroke-width: 1.0;"/><text fill="#000000" font-family="sans-serif" font-size="11" lengthAdjust="spacingAndGlyphs" textLength="247" x="1577.5" y="282.5151">TrackData evaluateRfidRequest(int rfidNum)</text><line style="stroke: #A80036; stroke-width: 1.0; stroke-dasharray: 1.0,2.0;" x1="1558.5" x2="1661" y1="265.9023" y2="265.9023"/><text fill="#000000" font-family="sans-serif" font-size="11" lengthAdjust="spacingAndGlyphs" textLength="66" x="1661" y="269.2104">Use Case 1</text><line style="stroke: #A80036; stroke-width: 1.0; stroke-dasharray: 1.0,2.0;" x1="1727" x2="1829.5" y1="265.9023" y2="265.9023"/><!--MD5=[cf56a65163663c6c6c7b84cd7c204b97]
class MiddlewareCommInterfaceStub--><rect fill="#FEFECE" filter="url(#fnr4k4l1ywims)" height="77.6094" id="MiddlewareCommInterfaceStub" style="stroke: #A80036; stroke-width: 1.5;" width="225" x="1036.5" y="364"/><ellipse cx="1051.5" cy="380" fill="#ADD1B2" rx="11" ry="11" style="stroke: #A80036; stroke-width: 1.0;"/><path d="M1054.4688,385.6406 Q1053.8906,385.9375 1053.25,386.0781 Q1052.6094,386.2344 1051.9063,386.2344 Q1049.4063,386.2344 1048.0781,384.5938 Q1046.7656,382.9375 1046.7656,379.8125 Q1046.7656,376.6875 1048.0781,375.0313 Q1049.4063,373.375 1051.9063,373.375 Q1052.6094,373.375 1053.25,373.5313 Q1053.9063,373.6875 1054.4688,373.9844 L1054.4688,376.7031 Q1053.8438,376.125 1053.25,375.8594 Q1052.6563,375.5781 1052.0313,375.5781 Q1050.6875,375.5781 1050,376.6563 Q1049.3125,377.7188 1049.3125,379.8125 Q1049.3125,381.9063 1050,382.9844 Q1050.6875,384.0469 1052.0313,384.0469 Q1052.6563,384.0469 1053.25,383.7813 Q1053.8438,383.5 1054.4688,382.9219 L1054.4688,385.6406 Z "/><text fill="#000000" font-family="sans-serif" font-size="12" lengthAdjust="spacingAndGlyphs" textLength="193" x="1065.5" y="384.1543">MiddlewareCommInterfaceStub</text><line style="stroke: #A80036; stroke-width: 1.5;" x1="1037.5" x2="1260.5" y1="396" y2="396"/><line style="stroke: #A80036; stroke-width: 1.5;" x1="1037.5" x2="1260.5" y1="404" y2="404"/><ellipse cx="1047.5" cy="431.8047" fill="#84BE84" rx="3" ry="3" style="stroke: #038048; stroke-width: 1.0;"/><text fill="#000000" font-family="sans-serif" font-size="11" lengthAdjust="spacingAndGlyphs" textLength="171" x="1056.5" y="435.0151">TrackData requestRfid(int rfid)</text><line style="stroke: #A80036; stroke-width: 1.0; stroke-dasharray: 1.0,2.0;" x1="1037.5" x2="1116" y1="418.4023" y2="418.4023"/><text fill="#000000" font-family="sans-serif" font-size="11" lengthAdjust="spacingAndGlyphs" textLength="66" x="1116" y="421.7104">Use Case 1</text><line style="stroke: #A80036; stroke-width: 1.0; stroke-dasharray: 1.0,2.0;" x1="1182" x2="1260.5" y1="418.4023" y2="418.4023"/><!--MD5=[c986427b061286eff33e87a088ad4bf9]
class TrackDataPlotter--><rect fill="#FEFECE" filter="url(#fnr4k4l1ywims)" height="48" id="TrackDataPlotter" style="stroke: #A80036; stroke-width: 1.5;" width="138" x="2099" y="74"/><ellipse cx="2114" cy="90" fill="#ADD1B2" rx="11" ry="11" style="stroke: #A80036; stroke-width: 1.0;"/><path d="M2116.9688,95.6406 Q2116.3906,95.9375 2115.75,96.0781 Q2115.1094,96.2344 2114.4063,96.2344 Q2111.9063,96.2344 2110.5781,94.5938 Q2109.2656,92.9375 2109.2656,89.8125 Q2109.2656,86.6875 2110.5781,85.0313 Q2111.9063,83.375 2114.4063,83.375 Q2115.1094,83.375 2115.75,83.5313 Q2116.4063,83.6875 2116.9688,83.9844 L2116.9688,86.7031 Q2116.3438,86.125 2115.75,85.8594 Q2115.1563,85.5781 2114.5313,85.5781 Q2113.1875,85.5781 2112.5,86.6563 Q2111.8125,87.7188 2111.8125,89.8125 Q2111.8125,91.9063 2112.5,92.9844 Q2113.1875,94.0469 2114.5313,94.0469 Q2115.1563,94.0469 2115.75,93.7813 Q2116.3438,93.5 2116.9688,92.9219 L2116.9688,95.6406 Z "/><text fill="#000000" font-family="sans-serif" font-size="12" lengthAdjust="spacingAndGlyphs" textLength="106" x="2128" y="94.1543">TrackDataPlotter</text><line style="stroke: #A80036; stroke-width: 1.5;" x1="2100" x2="2236" y1="106" y2="106"/><line style="stroke: #A80036; stroke-width: 1.5;" x1="2100" x2="2236" y1="114" y2="114"/><!--MD5=[c9341cce37a1a8bee80ad1365349afef]
link DisplayCommInterface to DisplayComm2WayInterface--><!--MD5=[7835b7bc4a765bae53638d0402d5d5e6]
link DisplayComm2WayInterface to DisplayCommManager--><!--MD5=[7d92106ecb9088e13e6754b44ec571b0]
link DisplayCommInterface to DisplayCommInterfaceImplementation--><!--MD5=[51e28edbb9f88779af066724948e7048]
link DisplayCommInterfaceImplementation to DisplayComm2WayInterfaceImplementation--><!--MD5=[ea4cd417ea9ea2c0dbdbdf4e4e3d21de]
link DisplayComm2WayInterfaceImplementation to DisplayCommManagerImplementation--><!--MD5=[64e942b00478e9eef28430a914bbb142]
link DisplayCommInterfaceImplementationTests to DisplayComm2WayInterfaceImplementationTests--><!--MD5=[8dbe1f493aaf019419238fc4702b450a]
link DisplayComm2WayInterfaceImplementationTests to DisplayCommManagerImplementationTests--><!--MD5=[e81de192ca7bc9df286fd4cb58be8b46]
link DisplayCommInterfaceImplementationTests to TrackDataPlotterTests--><!--MD5=[8b898a72046de76ad345afd61090e7dd]
link TrackDataPlotterTests to DisplayComm2WayInterfaceStub--><!--MD5=[c9c9241041dbc47aa626fe1afc095e03]
link DisplayComm2WayInterfaceStub to DisplayCommManagerStub--><!--MD5=[61d9c608a539b4614526ad59aeb385a2]
link TrackDataPlotterTests to MiddlewareCommInterfaceStub--><!--MD5=[df2c6cf0e268d91c999a85845da4b9c3]
@startuml Display02Packages


package edu.oakland.production.display02 {

}


package edu.oakland.production.display02 {
    interface DisplayCommInterface {
        __
        .. Use Case 1 ..
        {abstract} + TrackData receiveRfidRequest(int rfidNum)
    }
}


package edu.oakland.production.display02 {
    interface DisplayComm2WayInterface {
        __
        .. Use Case 1 ..
        {abstract} + TrackData passRfidRequest(int rfidNum)
    }
}


package edu.oakland.production.display02 {
    interface DisplayCommManager {
        __
        .. Use Case 1 ..
        {abstract} + TrackData evaluateRfidRequest(int rfidNum)
    }
}


package edu.oakland.production.display02 {
    class DisplayCommInterfaceImplementation {
        __
        .. Use Case 1 ..

        .. Use Case 2 ..

    }
}


package edu.oakland.production.display02 {
    class DisplayComm2WayInterfaceImplementation {
        __
        .. Use Case 1 ..
        {abstract} + LocationDataPoint passRfidRequest(int rfidNum)
    }
}


package edu.oakland.production.display02 {
    class DisplayCommManagerImplementation {
        __
        .. Use Case 1 ..

        .. Use Case 2 ..

    }
}



package edu.oakland.test.display02 {
    
}


package edu.oakland.test.display02 {
    class DisplayCommInterfaceImplementationTests {

    }
}


package edu.oakland.test.display02 {
    class DisplayComm2WayInterfaceImplementationTests {

    }
}


package edu.oakland.test.display02 {
    class DisplayCommManagerImplementationTests {

    }
}


package edu.oakland.test.display02 {
    class TrackDataPlotterTests {

    }
}


package edu.oakland.test.display02 {
    class DisplayComm2WayInterfaceStub {
        __
        .. Use Case 1 ..
        {abstract} + TrackData passRfidRequest(int rfidNum)
    }
}


package edu.oakland.test.display02 {
    class DisplayCommManagerStub {
        __
        .. Use Case 1 ..
        + TrackData evaluateRfidRequest(int rfidNum)
    }
}


package edu.oakland.test.display02 {
    class MiddlewareCommInterfaceStub {
        __
        .. Use Case 1 ..
        + TrackData requestRfid(int rfid)
    }
}



package edu.oakland.helper.display02 {

}


package edu.oakland.helper.display02 {
    class TrackDataPlotter {
        
    }
}



@enduml

PlantUML version 1.2020.02(Sun Mar 01 10:22:07 GMT 2020)
(GPL source distribution)
Java Runtime: OpenJDK Runtime Environment
JVM: OpenJDK 64-Bit Server VM
Java Version: 11.0.9+11-Ubuntu-0ubuntu1
Operating System: Linux
Default Encoding: ANSI_X3.4-1968
Language: en
Country: US
--></g></svg>