<?xml version="1.0" encoding="UTF-8" standalone="no"?><svg xmlns="http://www.w3.org/2000/svg" xmlns:xlink="http://www.w3.org/1999/xlink" contentScriptType="application/ecmascript" contentStyleType="text/css" height="500px" preserveAspectRatio="none" style="width:3062px;height:500px;" version="1.1" viewBox="0 0 3062 500" width="3062px" zoomAndPan="magnify"><defs><filter height="300%" id="fsv4ns1yrbyin" width="300%" x="-1" y="-1"><feGaussianBlur result="blurOut" stdDeviation="2.0"/><feColorMatrix in="blurOut" result="blurOut2" type="matrix" values="0 0 0 0 0 0 0 0 0 0 0 0 0 0 0 0 0 0 .4 0"/><feOffset dx="4.0" dy="4.0" in="blurOut2" result="blurOut3"/><feBlend in="SourceGraphic" in2="blurOut3" mode="normal"/></filter></defs><g><!--MD5=[fe59aae6f7bfe371a9c197ec1f7f843a]
cluster edu.oakland.production.display02--><polygon fill="#FFFFFF" filter="url(#fsv4ns1yrbyin)" points="22,38.5,295,38.5,302,60.7969,1425,60.7969,1425,443.5,22,443.5,22,38.5" style="stroke: #000000; stroke-width: 1.5;"/><line style="stroke: #000000; stroke-width: 1.5;" x1="22" x2="302" y1="60.7969" y2="60.7969"/><text fill="#000000" font-family="sans-serif" font-size="14" font-weight="bold" lengthAdjust="spacingAndGlyphs" textLength="267" x="26" y="53.4951">edu.oakland.production.display02</text><!--MD5=[9258003ec405d300d3379b4a3d8dd6ad]
cluster edu.oakland.test.display02--><polygon fill="#FFFFFF" filter="url(#fsv4ns1yrbyin)" points="1449,53.5,1667,53.5,1674,75.7969,2694,75.7969,2694,411.5,1449,411.5,1449,53.5" style="stroke: #000000; stroke-width: 1.5;"/><line style="stroke: #000000; stroke-width: 1.5;" x1="1449" x2="1674" y1="75.7969" y2="75.7969"/><text fill="#000000" font-family="sans-serif" font-size="14" font-weight="bold" lengthAdjust="spacingAndGlyphs" textLength="212" x="1453" y="68.4951">edu.oakland.test.display02</text><!--MD5=[a502031b5a5384de0a21e6ee820fd3b2]
cluster edu.oakland.helper.display02--><polygon fill="#FFFFFF" filter="url(#fsv4ns1yrbyin)" points="2718,206,2956,206,2963,228.2969,3040,228.2969,3040,488,2718,488,2718,206" style="stroke: #000000; stroke-width: 1.5;"/><line style="stroke: #000000; stroke-width: 1.5;" x1="2718" x2="2963" y1="228.2969" y2="228.2969"/><text fill="#000000" font-family="sans-serif" font-size="14" font-weight="bold" lengthAdjust="spacingAndGlyphs" textLength="232" x="2722" y="220.9951">edu.oakland.helper.display02</text><!--MD5=[33504725b8a69ba2207f0a836957a91c]
cluster edu.oakland.production.middleware02--><polygon fill="#FFFFFF" filter="url(#fsv4ns1yrbyin)" points="2718,24,3028,24,3035,46.2969,3038,46.2969,3038,182,2718,182,2718,24" style="stroke: #000000; stroke-width: 1.5;"/><line style="stroke: #000000; stroke-width: 1.5;" x1="2718" x2="3035" y1="46.2969" y2="46.2969"/><text fill="#000000" font-family="sans-serif" font-size="14" font-weight="bold" lengthAdjust="spacingAndGlyphs" textLength="304" x="2722" y="38.9951">edu.oakland.production.middleware02</text><!--MD5=[c8d1e3134fecb0c949fd2a76cc0bb992]
class DisplayCommInterface--><rect fill="#FEFECE" filter="url(#fsv4ns1yrbyin)" height="77.6094" id="DisplayCommInterface" style="stroke: #A80036; stroke-width: 1.5;" width="268" x="89" y="73.5"/><ellipse cx="149.25" cy="89.5" fill="#B4A7E5" rx="11" ry="11" style="stroke: #A80036; stroke-width: 1.0;"/><path d="M145.1719,85.2656 L145.1719,83.1094 L152.5625,83.1094 L152.5625,85.2656 L150.0938,85.2656 L150.0938,93.3438 L152.5625,93.3438 L152.5625,95.5 L145.1719,95.5 L145.1719,93.3438 L147.6406,93.3438 L147.6406,85.2656 L145.1719,85.2656 Z "/><text fill="#000000" font-family="sans-serif" font-size="12" font-style="italic" lengthAdjust="spacingAndGlyphs" textLength="139" x="169.75" y="93.6543">DisplayCommInterface</text><line style="stroke: #A80036; stroke-width: 1.5;" x1="90" x2="356" y1="105.5" y2="105.5"/><line style="stroke: #A80036; stroke-width: 1.5;" x1="90" x2="356" y1="113.5" y2="113.5"/><ellipse cx="100" cy="141.3047" fill="#84BE84" rx="3" ry="3" style="stroke: #038048; stroke-width: 1.0;"/><text fill="#000000" font-family="sans-serif" font-size="11" font-style="italic" lengthAdjust="spacingAndGlyphs" textLength="242" x="109" y="144.5151">TrackData receiveRfidRequest(int rfidNum)</text><line style="stroke: #A80036; stroke-width: 1.0; stroke-dasharray: 1.0,2.0;" x1="90" x2="190" y1="127.9023" y2="127.9023"/><text fill="#000000" font-family="sans-serif" font-size="11" lengthAdjust="spacingAndGlyphs" textLength="66" x="190" y="131.2104">Use Case 1</text><line style="stroke: #A80036; stroke-width: 1.0; stroke-dasharray: 1.0,2.0;" x1="256" x2="356" y1="127.9023" y2="127.9023"/><!--MD5=[f6b51b5f862da5ce226c62e411e84628]
class DisplayComm2WayInterface--><rect fill="#FEFECE" filter="url(#fsv4ns1yrbyin)" height="77.6094" id="DisplayComm2WayInterface" style="stroke: #A80036; stroke-width: 1.5;" width="252" x="672" y="73.5"/><ellipse cx="707.7" cy="89.5" fill="#B4A7E5" rx="11" ry="11" style="stroke: #A80036; stroke-width: 1.0;"/><path d="M703.6219,85.2656 L703.6219,83.1094 L711.0125,83.1094 L711.0125,85.2656 L708.5438,85.2656 L708.5438,93.3438 L711.0125,93.3438 L711.0125,95.5 L703.6219,95.5 L703.6219,93.3438 L706.0906,93.3438 L706.0906,85.2656 L703.6219,85.2656 Z "/><text fill="#000000" font-family="sans-serif" font-size="12" font-style="italic" lengthAdjust="spacingAndGlyphs" textLength="174" x="726.3" y="93.6543">DisplayComm2WayInterface</text><line style="stroke: #A80036; stroke-width: 1.5;" x1="673" x2="923" y1="105.5" y2="105.5"/><line style="stroke: #A80036; stroke-width: 1.5;" x1="673" x2="923" y1="113.5" y2="113.5"/><ellipse cx="683" cy="141.3047" fill="#84BE84" rx="3" ry="3" style="stroke: #038048; stroke-width: 1.0;"/><text fill="#000000" font-family="sans-serif" font-size="11" font-style="italic" lengthAdjust="spacingAndGlyphs" textLength="226" x="692" y="144.5151">TrackData passRfidRequest(int rfidNum)</text><line style="stroke: #A80036; stroke-width: 1.0; stroke-dasharray: 1.0,2.0;" x1="673" x2="765" y1="127.9023" y2="127.9023"/><text fill="#000000" font-family="sans-serif" font-size="11" lengthAdjust="spacingAndGlyphs" textLength="66" x="765" y="131.2104">Use Case 1</text><line style="stroke: #A80036; stroke-width: 1.0; stroke-dasharray: 1.0,2.0;" x1="831" x2="923" y1="127.9023" y2="127.9023"/><!--MD5=[6aeb72f2773d7cabb45309482beeff0a]
class DisplayCommManager--><rect fill="#FEFECE" filter="url(#fsv4ns1yrbyin)" height="77.6094" id="DisplayCommManager" style="stroke: #A80036; stroke-width: 1.5;" width="275" x="1084.5" y="73.5"/><ellipse cx="1149.25" cy="89.5" fill="#B4A7E5" rx="11" ry="11" style="stroke: #A80036; stroke-width: 1.0;"/><path d="M1145.1719,85.2656 L1145.1719,83.1094 L1152.5625,83.1094 L1152.5625,85.2656 L1150.0938,85.2656 L1150.0938,93.3438 L1152.5625,93.3438 L1152.5625,95.5 L1145.1719,95.5 L1145.1719,93.3438 L1147.6406,93.3438 L1147.6406,85.2656 L1145.1719,85.2656 Z "/><text fill="#000000" font-family="sans-serif" font-size="12" font-style="italic" lengthAdjust="spacingAndGlyphs" textLength="137" x="1169.75" y="93.6543">DisplayCommManager</text><line style="stroke: #A80036; stroke-width: 1.5;" x1="1085.5" x2="1358.5" y1="105.5" y2="105.5"/><line style="stroke: #A80036; stroke-width: 1.5;" x1="1085.5" x2="1358.5" y1="113.5" y2="113.5"/><ellipse cx="1095.5" cy="141.3047" fill="#84BE84" rx="3" ry="3" style="stroke: #038048; stroke-width: 1.0;"/><text fill="#000000" font-family="sans-serif" font-size="11" font-style="italic" lengthAdjust="spacingAndGlyphs" textLength="249" x="1104.5" y="144.5151">TrackData evaluateRfidRequest(int rfidNum)</text><line style="stroke: #A80036; stroke-width: 1.0; stroke-dasharray: 1.0,2.0;" x1="1085.5" x2="1189" y1="127.9023" y2="127.9023"/><text fill="#000000" font-family="sans-serif" font-size="11" lengthAdjust="spacingAndGlyphs" textLength="66" x="1189" y="131.2104">Use Case 1</text><line style="stroke: #A80036; stroke-width: 1.0; stroke-dasharray: 1.0,2.0;" x1="1255" x2="1358.5" y1="127.9023" y2="127.9023"/><!--MD5=[a35092e604da7274febf4e2cf9a25087]
class DisplayCommInterfaceImplementation--><rect fill="#FEFECE" filter="url(#fsv4ns1yrbyin)" height="116.0234" id="DisplayCommInterfaceImplementation" style="stroke: #A80036; stroke-width: 1.5;" width="369" x="38.5" y="298.5"/><ellipse cx="101.25" cy="314.5" fill="#ADD1B2" rx="11" ry="11" style="stroke: #A80036; stroke-width: 1.0;"/><path d="M104.2188,320.1406 Q103.6406,320.4375 103,320.5781 Q102.3594,320.7344 101.6563,320.7344 Q99.1563,320.7344 97.8281,319.0938 Q96.5156,317.4375 96.5156,314.3125 Q96.5156,311.1875 97.8281,309.5313 Q99.1563,307.875 101.6563,307.875 Q102.3594,307.875 103,308.0313 Q103.6563,308.1875 104.2188,308.4844 L104.2188,311.2031 Q103.5938,310.625 103,310.3594 Q102.4063,310.0781 101.7813,310.0781 Q100.4375,310.0781 99.75,311.1563 Q99.0625,312.2188 99.0625,314.3125 Q99.0625,316.4063 99.75,317.4844 Q100.4375,318.5469 101.7813,318.5469 Q102.4063,318.5469 103,318.2813 Q103.5938,318 104.2188,317.4219 L104.2188,320.1406 Z "/><text fill="#000000" font-family="sans-serif" font-size="12" lengthAdjust="spacingAndGlyphs" textLength="235" x="121.75" y="318.6543">DisplayCommInterfaceImplementation</text><line style="stroke: #A80036; stroke-width: 1.5;" x1="39.5" x2="406.5" y1="330.5" y2="330.5"/><rect fill="none" height="6" style="stroke: #C82930; stroke-width: 1.0;" width="6" x="46.5" y="338.5"/><text fill="#000000" font-family="sans-serif" font-size="11" lengthAdjust="spacingAndGlyphs" textLength="207" x="58.5" y="344.7104">DisplayComm2WayInterface receiver</text><line style="stroke: #A80036; stroke-width: 1.5;" x1="39.5" x2="406.5" y1="351.3047" y2="351.3047"/><ellipse cx="49.5" cy="362.3047" fill="#84BE84" rx="3" ry="3" style="stroke: #038048; stroke-width: 1.0;"/><text fill="#000000" font-family="sans-serif" font-size="11" lengthAdjust="spacingAndGlyphs" textLength="343" x="58.5" y="365.5151">DisplayCommInterface(DisplayComm2WayInterface receiver)</text><ellipse cx="49.5" cy="391.9141" fill="#84BE84" rx="3" ry="3" style="stroke: #038048; stroke-width: 1.0;"/><text fill="#000000" font-family="sans-serif" font-size="11" lengthAdjust="spacingAndGlyphs" textLength="240" x="58.5" y="395.1245">TrackData receiveRfidRequest(int rfidNum)</text><rect fill="#F24D5C" height="6" style="stroke: #C82930; stroke-width: 1.0;" width="6" x="46.5" y="401.7188"/><text fill="#000000" font-family="sans-serif" font-size="11" lengthAdjust="spacingAndGlyphs" textLength="290" x="58.5" y="407.9292">TrackData passToComm2WayInterface(int rfidNum)</text><line style="stroke: #A80036; stroke-width: 1.0; stroke-dasharray: 1.0,2.0;" x1="39.5" x2="190" y1="378.5117" y2="378.5117"/><text fill="#000000" font-family="sans-serif" font-size="11" lengthAdjust="spacingAndGlyphs" textLength="66" x="190" y="381.8198">Use Case 1</text><line style="stroke: #A80036; stroke-width: 1.0; stroke-dasharray: 1.0,2.0;" x1="256" x2="406.5" y1="378.5117" y2="378.5117"/><!--MD5=[46657c2900260d4d40350fe3f8c544df]
class DisplayComm2WayInterfaceImplementation--><rect fill="#FEFECE" filter="url(#fsv4ns1yrbyin)" height="128.8281" id="DisplayComm2WayInterfaceImplementation" style="stroke: #A80036; stroke-width: 1.5;" width="461" x="442.5" y="292"/><ellipse cx="534.75" cy="308" fill="#ADD1B2" rx="11" ry="11" style="stroke: #A80036; stroke-width: 1.0;"/><path d="M537.7188,313.6406 Q537.1406,313.9375 536.5,314.0781 Q535.8594,314.2344 535.1563,314.2344 Q532.6563,314.2344 531.3281,312.5938 Q530.0156,310.9375 530.0156,307.8125 Q530.0156,304.6875 531.3281,303.0313 Q532.6563,301.375 535.1563,301.375 Q535.8594,301.375 536.5,301.5313 Q537.1563,301.6875 537.7188,301.9844 L537.7188,304.7031 Q537.0938,304.125 536.5,303.8594 Q535.9063,303.5781 535.2813,303.5781 Q533.9375,303.5781 533.25,304.6563 Q532.5625,305.7188 532.5625,307.8125 Q532.5625,309.9063 533.25,310.9844 Q533.9375,312.0469 535.2813,312.0469 Q535.9063,312.0469 536.5,311.7813 Q537.0938,311.5 537.7188,310.9219 L537.7188,313.6406 Z "/><text fill="#000000" font-family="sans-serif" font-size="12" lengthAdjust="spacingAndGlyphs" textLength="268" x="555.25" y="312.1543">DisplayComm2WayInterfaceImplementation</text><line style="stroke: #A80036; stroke-width: 1.5;" x1="443.5" x2="902.5" y1="324" y2="324"/><rect fill="none" height="6" style="stroke: #C82930; stroke-width: 1.0;" width="6" x="450.5" y="332"/><text fill="#000000" font-family="sans-serif" font-size="11" lengthAdjust="spacingAndGlyphs" textLength="182" x="462.5" y="338.2104">DisplayCommManager manager</text><line style="stroke: #A80036; stroke-width: 1.5;" x1="443.5" x2="902.5" y1="344.8047" y2="344.8047"/><ellipse cx="453.5" cy="355.8047" fill="#84BE84" rx="3" ry="3" style="stroke: #038048; stroke-width: 1.0;"/><text fill="#000000" font-family="sans-serif" font-size="11" lengthAdjust="spacingAndGlyphs" textLength="435" x="462.5" y="359.0151">DisplayComm2WayInterfaceImplementation(DisplayCommManager manager)</text><ellipse cx="453.5" cy="385.4141" fill="#84BE84" rx="3" ry="3" style="stroke: #038048; stroke-width: 1.0;"/><text fill="#000000" font-family="sans-serif" font-size="11" lengthAdjust="spacingAndGlyphs" textLength="227" x="462.5" y="388.6245">TrackData passRfidRequest(int rfidNum)</text><rect fill="#F24D5C" height="6" style="stroke: #C82930; stroke-width: 1.0;" width="6" x="450.5" y="395.2188"/><text fill="#000000" font-family="sans-serif" font-size="11" lengthAdjust="spacingAndGlyphs" textLength="269" x="462.5" y="401.4292">void determineUserRequestFormat(int rfidNum)</text><rect fill="#F24D5C" height="6" style="stroke: #C82930; stroke-width: 1.0;" width="6" x="450.5" y="408.0234"/><text fill="#000000" font-family="sans-serif" font-size="11" lengthAdjust="spacingAndGlyphs" textLength="342" x="462.5" y="414.2339">void receiveRequestFromDisplayCommInterface(int rfidNum)</text><line style="stroke: #A80036; stroke-width: 1.0; stroke-dasharray: 1.0,2.0;" x1="443.5" x2="640" y1="372.0117" y2="372.0117"/><text fill="#000000" font-family="sans-serif" font-size="11" lengthAdjust="spacingAndGlyphs" textLength="66" x="640" y="375.3198">Use Case 1</text><line style="stroke: #A80036; stroke-width: 1.0; stroke-dasharray: 1.0,2.0;" x1="706" x2="902.5" y1="372.0117" y2="372.0117"/><!--MD5=[3a27b63ddb357afc5dde5581215f51f9]
class DisplayCommManagerImplementation--><rect fill="#FEFECE" filter="url(#fsv4ns1yrbyin)" height="141.6328" id="DisplayCommManagerImplementation" style="stroke: #A80036; stroke-width: 1.5;" width="470" x="939" y="285.5"/><ellipse cx="1052.75" cy="301.5" fill="#ADD1B2" rx="11" ry="11" style="stroke: #A80036; stroke-width: 1.0;"/><path d="M1055.7188,307.1406 Q1055.1406,307.4375 1054.5,307.5781 Q1053.8594,307.7344 1053.1563,307.7344 Q1050.6563,307.7344 1049.3281,306.0938 Q1048.0156,304.4375 1048.0156,301.3125 Q1048.0156,298.1875 1049.3281,296.5313 Q1050.6563,294.875 1053.1563,294.875 Q1053.8594,294.875 1054.5,295.0313 Q1055.1563,295.1875 1055.7188,295.4844 L1055.7188,298.2031 Q1055.0938,297.625 1054.5,297.3594 Q1053.9063,297.0781 1053.2813,297.0781 Q1051.9375,297.0781 1051.25,298.1563 Q1050.5625,299.2188 1050.5625,301.3125 Q1050.5625,303.4063 1051.25,304.4844 Q1051.9375,305.5469 1053.2813,305.5469 Q1053.9063,305.5469 1054.5,305.2813 Q1055.0938,305 1055.7188,304.4219 L1055.7188,307.1406 Z "/><text fill="#000000" font-family="sans-serif" font-size="12" lengthAdjust="spacingAndGlyphs" textLength="234" x="1073.25" y="305.6543">DisplayCommManagerImplementation</text><line style="stroke: #A80036; stroke-width: 1.5;" x1="940" x2="1408" y1="317.5" y2="317.5"/><rect fill="none" height="6" style="stroke: #C82930; stroke-width: 1.0;" width="6" x="947" y="325.5"/><text fill="#000000" font-family="sans-serif" font-size="11" lengthAdjust="spacingAndGlyphs" textLength="221" x="959" y="331.7104">MiddlewareCommInterface middleware</text><line style="stroke: #A80036; stroke-width: 1.5;" x1="940" x2="1408" y1="338.3047" y2="338.3047"/><ellipse cx="950" cy="349.3047" fill="#84BE84" rx="3" ry="3" style="stroke: #038048; stroke-width: 1.0;"/><text fill="#000000" font-family="sans-serif" font-size="11" lengthAdjust="spacingAndGlyphs" textLength="444" x="959" y="352.5151">DisplayCommManagerImplementation(MiddlewareCommInterface middleware)</text><ellipse cx="950" cy="378.9141" fill="#84BE84" rx="3" ry="3" style="stroke: #038048; stroke-width: 1.0;"/><text fill="#000000" font-family="sans-serif" font-size="11" lengthAdjust="spacingAndGlyphs" textLength="368" x="959" y="382.1245">TrackData receiveRequestFromDisplay2WayInterface(int rfidNum)</text><rect fill="#F24D5C" height="6" style="stroke: #C82930; stroke-width: 1.0;" width="6" x="947" y="388.7188"/><text fill="#000000" font-family="sans-serif" font-size="11" lengthAdjust="spacingAndGlyphs" textLength="247" x="959" y="394.9292">TrackData evaluateRfidRequest(int rfidNum)</text><rect fill="#F24D5C" height="6" style="stroke: #C82930; stroke-width: 1.0;" width="6" x="947" y="401.5234"/><text fill="#000000" font-family="sans-serif" font-size="11" lengthAdjust="spacingAndGlyphs" textLength="371" x="959" y="407.7339">TrackData passRequestToMiddlewareCommInterface(int rfidNum)</text><text fill="#000000" font-family="sans-serif" font-size="11" lengthAdjust="spacingAndGlyphs" textLength="0" x="963" y="420.5386"/><line style="stroke: #A80036; stroke-width: 1.0; stroke-dasharray: 1.0,2.0;" x1="940" x2="1141" y1="365.5117" y2="365.5117"/><text fill="#000000" font-family="sans-serif" font-size="11" lengthAdjust="spacingAndGlyphs" textLength="66" x="1141" y="368.8198">Use Case 1</text><line style="stroke: #A80036; stroke-width: 1.0; stroke-dasharray: 1.0,2.0;" x1="1207" x2="1408" y1="365.5117" y2="365.5117"/><!--MD5=[d454b7777f115113290d89683d7a426c]
class DisplayCommInterfaceImplementationTests--><rect fill="#FEFECE" filter="url(#fsv4ns1yrbyin)" height="48" id="DisplayCommInterfaceImplementationTests" style="stroke: #A80036; stroke-width: 1.5;" width="301" x="1465.5" y="88.5"/><ellipse cx="1480.5" cy="104.5" fill="#ADD1B2" rx="11" ry="11" style="stroke: #A80036; stroke-width: 1.0;"/><path d="M1483.4688,110.1406 Q1482.8906,110.4375 1482.25,110.5781 Q1481.6094,110.7344 1480.9063,110.7344 Q1478.4063,110.7344 1477.0781,109.0938 Q1475.7656,107.4375 1475.7656,104.3125 Q1475.7656,101.1875 1477.0781,99.5313 Q1478.4063,97.875 1480.9063,97.875 Q1481.6094,97.875 1482.25,98.0313 Q1482.9063,98.1875 1483.4688,98.4844 L1483.4688,101.2031 Q1482.8438,100.625 1482.25,100.3594 Q1481.6563,100.0781 1481.0313,100.0781 Q1479.6875,100.0781 1479,101.1563 Q1478.3125,102.2188 1478.3125,104.3125 Q1478.3125,106.4063 1479,107.4844 Q1479.6875,108.5469 1481.0313,108.5469 Q1481.6563,108.5469 1482.25,108.2813 Q1482.8438,108 1483.4688,107.4219 L1483.4688,110.1406 Z "/><text fill="#000000" font-family="sans-serif" font-size="12" lengthAdjust="spacingAndGlyphs" textLength="269" x="1494.5" y="108.6543">DisplayCommInterfaceImplementationTests</text><line style="stroke: #A80036; stroke-width: 1.5;" x1="1466.5" x2="1765.5" y1="120.5" y2="120.5"/><line style="stroke: #A80036; stroke-width: 1.5;" x1="1466.5" x2="1765.5" y1="128.5" y2="128.5"/><!--MD5=[a333ac13e0fdf2a5898aafabd38d3c1b]
class DisplayComm2WayInterfaceStub--><rect fill="#FEFECE" filter="url(#fsv4ns1yrbyin)" height="77.6094" id="DisplayComm2WayInterfaceStub" style="stroke: #A80036; stroke-width: 1.5;" width="252" x="1478" y="317.5"/><ellipse cx="1502" cy="333.5" fill="#ADD1B2" rx="11" ry="11" style="stroke: #A80036; stroke-width: 1.0;"/><path d="M1504.9688,339.1406 Q1504.3906,339.4375 1503.75,339.5781 Q1503.1094,339.7344 1502.4063,339.7344 Q1499.9063,339.7344 1498.5781,338.0938 Q1497.2656,336.4375 1497.2656,333.3125 Q1497.2656,330.1875 1498.5781,328.5313 Q1499.9063,326.875 1502.4063,326.875 Q1503.1094,326.875 1503.75,327.0313 Q1504.4063,327.1875 1504.9688,327.4844 L1504.9688,330.2031 Q1504.3438,329.625 1503.75,329.3594 Q1503.1563,329.0781 1502.5313,329.0781 Q1501.1875,329.0781 1500.5,330.1563 Q1499.8125,331.2188 1499.8125,333.3125 Q1499.8125,335.4063 1500.5,336.4844 Q1501.1875,337.5469 1502.5313,337.5469 Q1503.1563,337.5469 1503.75,337.2813 Q1504.3438,337 1504.9688,336.4219 L1504.9688,339.1406 Z "/><text fill="#000000" font-family="sans-serif" font-size="12" lengthAdjust="spacingAndGlyphs" textLength="200" x="1518" y="337.6543">DisplayComm2WayInterfaceStub</text><line style="stroke: #A80036; stroke-width: 1.5;" x1="1479" x2="1729" y1="349.5" y2="349.5"/><line style="stroke: #A80036; stroke-width: 1.5;" x1="1479" x2="1729" y1="357.5" y2="357.5"/><ellipse cx="1489" cy="385.3047" fill="#84BE84" rx="3" ry="3" style="stroke: #038048; stroke-width: 1.0;"/><text fill="#000000" font-family="sans-serif" font-size="11" font-style="italic" lengthAdjust="spacingAndGlyphs" textLength="226" x="1498" y="388.5151">TrackData passRfidRequest(int rfidNum)</text><line style="stroke: #A80036; stroke-width: 1.0; stroke-dasharray: 1.0,2.0;" x1="1479" x2="1571" y1="371.9023" y2="371.9023"/><text fill="#000000" font-family="sans-serif" font-size="11" lengthAdjust="spacingAndGlyphs" textLength="66" x="1571" y="375.2104">Use Case 1</text><line style="stroke: #A80036; stroke-width: 1.0; stroke-dasharray: 1.0,2.0;" x1="1637" x2="1729" y1="371.9023" y2="371.9023"/><!--MD5=[178181f4c7684560c711246055fc01d3]
class DisplayComm2WayInterfaceImplementationTests--><rect fill="#FEFECE" filter="url(#fsv4ns1yrbyin)" height="48" id="DisplayComm2WayInterfaceImplementationTests" style="stroke: #A80036; stroke-width: 1.5;" width="334" x="1802" y="88.5"/><ellipse cx="1817" cy="104.5" fill="#ADD1B2" rx="11" ry="11" style="stroke: #A80036; stroke-width: 1.0;"/><path d="M1819.9688,110.1406 Q1819.3906,110.4375 1818.75,110.5781 Q1818.1094,110.7344 1817.4063,110.7344 Q1814.9063,110.7344 1813.5781,109.0938 Q1812.2656,107.4375 1812.2656,104.3125 Q1812.2656,101.1875 1813.5781,99.5313 Q1814.9063,97.875 1817.4063,97.875 Q1818.1094,97.875 1818.75,98.0313 Q1819.4063,98.1875 1819.9688,98.4844 L1819.9688,101.2031 Q1819.3438,100.625 1818.75,100.3594 Q1818.1563,100.0781 1817.5313,100.0781 Q1816.1875,100.0781 1815.5,101.1563 Q1814.8125,102.2188 1814.8125,104.3125 Q1814.8125,106.4063 1815.5,107.4844 Q1816.1875,108.5469 1817.5313,108.5469 Q1818.1563,108.5469 1818.75,108.2813 Q1819.3438,108 1819.9688,107.4219 L1819.9688,110.1406 Z "/><text fill="#000000" font-family="sans-serif" font-size="12" lengthAdjust="spacingAndGlyphs" textLength="302" x="1831" y="108.6543">DisplayComm2WayInterfaceImplementationTests</text><line style="stroke: #A80036; stroke-width: 1.5;" x1="1803" x2="2135" y1="120.5" y2="120.5"/><line style="stroke: #A80036; stroke-width: 1.5;" x1="1803" x2="2135" y1="128.5" y2="128.5"/><!--MD5=[2970358178d6cf57fc5a801b39eb8d0b]
class DisplayCommManagerStub--><rect fill="#FEFECE" filter="url(#fsv4ns1yrbyin)" height="77.6094" id="DisplayCommManagerStub" style="stroke: #A80036; stroke-width: 1.5;" width="273" x="1799.5" y="317.5"/><ellipse cx="1848.75" cy="333.5" fill="#ADD1B2" rx="11" ry="11" style="stroke: #A80036; stroke-width: 1.0;"/><path d="M1851.7188,339.1406 Q1851.1406,339.4375 1850.5,339.5781 Q1849.8594,339.7344 1849.1563,339.7344 Q1846.6563,339.7344 1845.3281,338.0938 Q1844.0156,336.4375 1844.0156,333.3125 Q1844.0156,330.1875 1845.3281,328.5313 Q1846.6563,326.875 1849.1563,326.875 Q1849.8594,326.875 1850.5,327.0313 Q1851.1563,327.1875 1851.7188,327.4844 L1851.7188,330.2031 Q1851.0938,329.625 1850.5,329.3594 Q1849.9063,329.0781 1849.2813,329.0781 Q1847.9375,329.0781 1847.25,330.1563 Q1846.5625,331.2188 1846.5625,333.3125 Q1846.5625,335.4063 1847.25,336.4844 Q1847.9375,337.5469 1849.2813,337.5469 Q1849.9063,337.5469 1850.5,337.2813 Q1851.0938,337 1851.7188,336.4219 L1851.7188,339.1406 Z "/><text fill="#000000" font-family="sans-serif" font-size="12" lengthAdjust="spacingAndGlyphs" textLength="166" x="1869.25" y="337.6543">DisplayCommManagerStub</text><line style="stroke: #A80036; stroke-width: 1.5;" x1="1800.5" x2="2071.5" y1="349.5" y2="349.5"/><line style="stroke: #A80036; stroke-width: 1.5;" x1="1800.5" x2="2071.5" y1="357.5" y2="357.5"/><ellipse cx="1810.5" cy="385.3047" fill="#84BE84" rx="3" ry="3" style="stroke: #038048; stroke-width: 1.0;"/><text fill="#000000" font-family="sans-serif" font-size="11" lengthAdjust="spacingAndGlyphs" textLength="247" x="1819.5" y="388.5151">TrackData evaluateRfidRequest(int rfidNum)</text><line style="stroke: #A80036; stroke-width: 1.0; stroke-dasharray: 1.0,2.0;" x1="1800.5" x2="1903" y1="371.9023" y2="371.9023"/><text fill="#000000" font-family="sans-serif" font-size="11" lengthAdjust="spacingAndGlyphs" textLength="66" x="1903" y="375.2104">Use Case 1</text><line style="stroke: #A80036; stroke-width: 1.0; stroke-dasharray: 1.0,2.0;" x1="1969" x2="2071.5" y1="371.9023" y2="371.9023"/><!--MD5=[937d6d8ff87a99d0d5dcd66ee05a1fa4]
class DisplayCommManagerImplementationTests--><rect fill="#FEFECE" filter="url(#fsv4ns1yrbyin)" height="48" id="DisplayCommManagerImplementationTests" style="stroke: #A80036; stroke-width: 1.5;" width="300" x="2171" y="88.5"/><ellipse cx="2186" cy="104.5" fill="#ADD1B2" rx="11" ry="11" style="stroke: #A80036; stroke-width: 1.0;"/><path d="M2188.9688,110.1406 Q2188.3906,110.4375 2187.75,110.5781 Q2187.1094,110.7344 2186.4063,110.7344 Q2183.9063,110.7344 2182.5781,109.0938 Q2181.2656,107.4375 2181.2656,104.3125 Q2181.2656,101.1875 2182.5781,99.5313 Q2183.9063,97.875 2186.4063,97.875 Q2187.1094,97.875 2187.75,98.0313 Q2188.4063,98.1875 2188.9688,98.4844 L2188.9688,101.2031 Q2188.3438,100.625 2187.75,100.3594 Q2187.1563,100.0781 2186.5313,100.0781 Q2185.1875,100.0781 2184.5,101.1563 Q2183.8125,102.2188 2183.8125,104.3125 Q2183.8125,106.4063 2184.5,107.4844 Q2185.1875,108.5469 2186.5313,108.5469 Q2187.1563,108.5469 2187.75,108.2813 Q2188.3438,108 2188.9688,107.4219 L2188.9688,110.1406 Z "/><text fill="#000000" font-family="sans-serif" font-size="12" lengthAdjust="spacingAndGlyphs" textLength="268" x="2200" y="108.6543">DisplayCommManagerImplementationTests</text><line style="stroke: #A80036; stroke-width: 1.5;" x1="2172" x2="2470" y1="120.5" y2="120.5"/><line style="stroke: #A80036; stroke-width: 1.5;" x1="2172" x2="2470" y1="128.5" y2="128.5"/><!--MD5=[cf56a65163663c6c6c7b84cd7c204b97]
class MiddlewareCommInterfaceStub--><rect fill="#FEFECE" filter="url(#fsv4ns1yrbyin)" height="77.6094" id="MiddlewareCommInterfaceStub" style="stroke: #A80036; stroke-width: 1.5;" width="225" x="2330.5" y="317.5"/><ellipse cx="2345.5" cy="333.5" fill="#ADD1B2" rx="11" ry="11" style="stroke: #A80036; stroke-width: 1.0;"/><path d="M2348.4688,339.1406 Q2347.8906,339.4375 2347.25,339.5781 Q2346.6094,339.7344 2345.9063,339.7344 Q2343.4063,339.7344 2342.0781,338.0938 Q2340.7656,336.4375 2340.7656,333.3125 Q2340.7656,330.1875 2342.0781,328.5313 Q2343.4063,326.875 2345.9063,326.875 Q2346.6094,326.875 2347.25,327.0313 Q2347.9063,327.1875 2348.4688,327.4844 L2348.4688,330.2031 Q2347.8438,329.625 2347.25,329.3594 Q2346.6563,329.0781 2346.0313,329.0781 Q2344.6875,329.0781 2344,330.1563 Q2343.3125,331.2188 2343.3125,333.3125 Q2343.3125,335.4063 2344,336.4844 Q2344.6875,337.5469 2346.0313,337.5469 Q2346.6563,337.5469 2347.25,337.2813 Q2347.8438,337 2348.4688,336.4219 L2348.4688,339.1406 Z "/><text fill="#000000" font-family="sans-serif" font-size="12" lengthAdjust="spacingAndGlyphs" textLength="193" x="2359.5" y="337.6543">MiddlewareCommInterfaceStub</text><line style="stroke: #A80036; stroke-width: 1.5;" x1="2331.5" x2="2554.5" y1="349.5" y2="349.5"/><line style="stroke: #A80036; stroke-width: 1.5;" x1="2331.5" x2="2554.5" y1="357.5" y2="357.5"/><ellipse cx="2341.5" cy="385.3047" fill="#84BE84" rx="3" ry="3" style="stroke: #038048; stroke-width: 1.0;"/><text fill="#000000" font-family="sans-serif" font-size="11" lengthAdjust="spacingAndGlyphs" textLength="171" x="2350.5" y="388.5151">TrackData requestRfid(int rfid)</text><line style="stroke: #A80036; stroke-width: 1.0; stroke-dasharray: 1.0,2.0;" x1="2331.5" x2="2410" y1="371.9023" y2="371.9023"/><text fill="#000000" font-family="sans-serif" font-size="11" lengthAdjust="spacingAndGlyphs" textLength="66" x="2410" y="375.2104">Use Case 1</text><line style="stroke: #A80036; stroke-width: 1.0; stroke-dasharray: 1.0,2.0;" x1="2476" x2="2554.5" y1="371.9023" y2="371.9023"/><!--MD5=[930c8140e7c1cb8e71aa7cd49967748e]
class TrackDataPlotterTests--><rect fill="#FEFECE" filter="url(#fsv4ns1yrbyin)" height="48" id="TrackDataPlotterTests" style="stroke: #A80036; stroke-width: 1.5;" width="172" x="2506" y="88.5"/><ellipse cx="2521" cy="104.5" fill="#ADD1B2" rx="11" ry="11" style="stroke: #A80036; stroke-width: 1.0;"/><path d="M2523.9688,110.1406 Q2523.3906,110.4375 2522.75,110.5781 Q2522.1094,110.7344 2521.4063,110.7344 Q2518.9063,110.7344 2517.5781,109.0938 Q2516.2656,107.4375 2516.2656,104.3125 Q2516.2656,101.1875 2517.5781,99.5313 Q2518.9063,97.875 2521.4063,97.875 Q2522.1094,97.875 2522.75,98.0313 Q2523.4063,98.1875 2523.9688,98.4844 L2523.9688,101.2031 Q2523.3438,100.625 2522.75,100.3594 Q2522.1563,100.0781 2521.5313,100.0781 Q2520.1875,100.0781 2519.5,101.1563 Q2518.8125,102.2188 2518.8125,104.3125 Q2518.8125,106.4063 2519.5,107.4844 Q2520.1875,108.5469 2521.5313,108.5469 Q2522.1563,108.5469 2522.75,108.2813 Q2523.3438,108 2523.9688,107.4219 L2523.9688,110.1406 Z "/><text fill="#000000" font-family="sans-serif" font-size="12" lengthAdjust="spacingAndGlyphs" textLength="140" x="2535" y="108.6543">TrackDataPlotterTests</text><line style="stroke: #A80036; stroke-width: 1.5;" x1="2507" x2="2677" y1="120.5" y2="120.5"/><line style="stroke: #A80036; stroke-width: 1.5;" x1="2507" x2="2677" y1="128.5" y2="128.5"/><!--MD5=[c986427b061286eff33e87a088ad4bf9]
class TrackDataPlotter--><rect fill="#FEFECE" filter="url(#fsv4ns1yrbyin)" height="231.2656" id="TrackDataPlotter" style="stroke: #A80036; stroke-width: 1.5;" width="291" x="2733.5" y="241"/><ellipse cx="2821.75" cy="257" fill="#ADD1B2" rx="11" ry="11" style="stroke: #A80036; stroke-width: 1.0;"/><path d="M2824.7188,262.6406 Q2824.1406,262.9375 2823.5,263.0781 Q2822.8594,263.2344 2822.1563,263.2344 Q2819.6563,263.2344 2818.3281,261.5938 Q2817.0156,259.9375 2817.0156,256.8125 Q2817.0156,253.6875 2818.3281,252.0313 Q2819.6563,250.375 2822.1563,250.375 Q2822.8594,250.375 2823.5,250.5313 Q2824.1563,250.6875 2824.7188,250.9844 L2824.7188,253.7031 Q2824.0938,253.125 2823.5,252.8594 Q2822.9063,252.5781 2822.2813,252.5781 Q2820.9375,252.5781 2820.25,253.6563 Q2819.5625,254.7188 2819.5625,256.8125 Q2819.5625,258.9063 2820.25,259.9844 Q2820.9375,261.0469 2822.2813,261.0469 Q2822.9063,261.0469 2823.5,260.7813 Q2824.0938,260.5 2824.7188,259.9219 L2824.7188,262.6406 Z "/><text fill="#000000" font-family="sans-serif" font-size="12" lengthAdjust="spacingAndGlyphs" textLength="106" x="2842.25" y="261.1543">TrackDataPlotter</text><line style="stroke: #A80036; stroke-width: 1.5;" x1="2734.5" x2="3023.5" y1="273" y2="273"/><rect fill="none" height="6" style="stroke: #C82930; stroke-width: 1.0;" width="6" x="2741.5" y="281"/><text fill="#000000" font-family="sans-serif" font-size="11" lengthAdjust="spacingAndGlyphs" textLength="86" x="2753.5" y="287.2104">TrackData data</text><rect fill="none" height="6" style="stroke: #C82930; stroke-width: 1.0;" width="6" x="2741.5" y="293.8047"/><text fill="#000000" font-family="sans-serif" font-size="11" lengthAdjust="spacingAndGlyphs" textLength="97" x="2753.5" y="300.0151">XYDataset points</text><rect fill="none" height="6" style="stroke: #C82930; stroke-width: 1.0;" width="6" x="2741.5" y="306.6094"/><text fill="#000000" font-family="sans-serif" font-size="11" lengthAdjust="spacingAndGlyphs" textLength="82" x="2753.5" y="312.8198">XYDataset line</text><rect fill="none" height="6" style="stroke: #C82930; stroke-width: 1.0;" width="6" x="2741.5" y="319.4141"/><text fill="#000000" font-family="sans-serif" font-size="11" lengthAdjust="spacingAndGlyphs" textLength="99" x="2753.5" y="325.6245">JFreeChart chart1</text><rect fill="none" height="6" style="stroke: #C82930; stroke-width: 1.0;" width="6" x="2741.5" y="332.2188"/><text fill="#000000" font-family="sans-serif" font-size="11" lengthAdjust="spacingAndGlyphs" textLength="99" x="2753.5" y="338.4292">JFreeChart chart2</text><rect fill="none" height="6" style="stroke: #C82930; stroke-width: 1.0;" width="6" x="2741.5" y="345.0234"/><text fill="#000000" font-family="sans-serif" font-size="11" lengthAdjust="spacingAndGlyphs" textLength="60" x="2753.5" y="351.2339">XYPlot plot</text><rect fill="none" height="6" style="stroke: #C82930; stroke-width: 1.0;" width="6" x="2741.5" y="357.8281"/><text fill="#000000" font-family="sans-serif" font-size="11" lengthAdjust="spacingAndGlyphs" textLength="133" x="2753.5" y="364.0386">ChartPanel chartPanel1</text><rect fill="none" height="6" style="stroke: #C82930; stroke-width: 1.0;" width="6" x="2741.5" y="370.6328"/><text fill="#000000" font-family="sans-serif" font-size="11" lengthAdjust="spacingAndGlyphs" textLength="133" x="2753.5" y="376.8433">ChartPanel chartPanel2</text><line style="stroke: #A80036; stroke-width: 1.5;" x1="2734.5" x2="3023.5" y1="383.4375" y2="383.4375"/><ellipse cx="2744.5" cy="394.4375" fill="#84BE84" rx="3" ry="3" style="stroke: #038048; stroke-width: 1.0;"/><text fill="#000000" font-family="sans-serif" font-size="11" lengthAdjust="spacingAndGlyphs" textLength="188" x="2753.5" y="397.6479">TrackDataPlotter(TrackData data)</text><rect fill="#F24D5C" height="6" style="stroke: #C82930; stroke-width: 1.0;" width="6" x="2741.5" y="421.0469"/><text fill="#000000" font-family="sans-serif" font-size="11" lengthAdjust="spacingAndGlyphs" textLength="138" x="2753.5" y="427.2573">XYSeries getTrackData()</text><rect fill="#F24D5C" height="6" style="stroke: #C82930; stroke-width: 1.0;" width="6" x="2741.5" y="433.8516"/><text fill="#000000" font-family="sans-serif" font-size="11" lengthAdjust="spacingAndGlyphs" textLength="208" x="2753.5" y="440.062">XYSeries calculateLine(int[] x, int[] y)</text><rect fill="#F24D5C" height="6" style="stroke: #C82930; stroke-width: 1.0;" width="6" x="2741.5" y="446.6563"/><text fill="#000000" font-family="sans-serif" font-size="11" lengthAdjust="spacingAndGlyphs" textLength="262" x="2753.5" y="452.8667">int[] extractLatFromTrackData(TrackData data)</text><rect fill="#F24D5C" height="6" style="stroke: #C82930; stroke-width: 1.0;" width="6" x="2741.5" y="459.4609"/><text fill="#000000" font-family="sans-serif" font-size="11" lengthAdjust="spacingAndGlyphs" textLength="265" x="2753.5" y="465.6714">int[] extractLngFromTrackData(TrackData data)</text><line style="stroke: #A80036; stroke-width: 1.0; stroke-dasharray: 1.0,2.0;" x1="2734.5" x2="2846" y1="410.6445" y2="410.6445"/><text fill="#000000" font-family="sans-serif" font-size="11" lengthAdjust="spacingAndGlyphs" textLength="66" x="2846" y="413.9526">Use Case 1</text><line style="stroke: #A80036; stroke-width: 1.0; stroke-dasharray: 1.0,2.0;" x1="2912" x2="3023.5" y1="410.6445" y2="410.6445"/><!--MD5=[d3cb230b9040bd9072bb1f490e167601]
class MiddlewareCommInterface--><rect fill="#FEFECE" filter="url(#fsv4ns1yrbyin)" height="107.2188" id="MiddlewareCommInterface" style="stroke: #A80036; stroke-width: 1.5;" width="198" x="2734" y="59"/><ellipse cx="2749" cy="75" fill="#B4A7E5" rx="11" ry="11" style="stroke: #A80036; stroke-width: 1.0;"/><path d="M2744.9219,70.7656 L2744.9219,68.6094 L2752.3125,68.6094 L2752.3125,70.7656 L2749.8438,70.7656 L2749.8438,78.8438 L2752.3125,78.8438 L2752.3125,81 L2744.9219,81 L2744.9219,78.8438 L2747.3906,78.8438 L2747.3906,70.7656 L2744.9219,70.7656 Z "/><text fill="#000000" font-family="sans-serif" font-size="12" font-style="italic" lengthAdjust="spacingAndGlyphs" textLength="166" x="2763" y="79.1543">MiddlewareCommInterface</text><line style="stroke: #A80036; stroke-width: 1.5;" x1="2735" x2="2931" y1="91" y2="91"/><line style="stroke: #A80036; stroke-width: 1.5;" x1="2735" x2="2931" y1="99" y2="99"/><ellipse cx="2745" cy="126.8047" fill="#84BE84" rx="3" ry="3" style="stroke: #038048; stroke-width: 1.0;"/><text fill="#000000" font-family="sans-serif" font-size="11" font-style="italic" lengthAdjust="spacingAndGlyphs" textLength="171" x="2754" y="130.0151">TrackData requestRfid(int rfid)</text><line style="stroke: #A80036; stroke-width: 1.0; stroke-dasharray: 1.0,2.0;" x1="2735" x2="2800" y1="113.4023" y2="113.4023"/><text fill="#000000" font-family="sans-serif" font-size="11" lengthAdjust="spacingAndGlyphs" textLength="66" x="2800" y="116.7104">Use Case 1</text><line style="stroke: #A80036; stroke-width: 1.0; stroke-dasharray: 1.0,2.0;" x1="2866" x2="2931" y1="113.4023" y2="113.4023"/><text fill="#000000" font-family="sans-serif" font-size="11" lengthAdjust="spacingAndGlyphs" textLength="0" x="2744" y="159.6245"/><line style="stroke: #A80036; stroke-width: 1.0; stroke-dasharray: 1.0,2.0;" x1="2735" x2="2800" y1="143.0117" y2="143.0117"/><text fill="#000000" font-family="sans-serif" font-size="11" lengthAdjust="spacingAndGlyphs" textLength="66" x="2800" y="146.3198">Use Case 2</text><line style="stroke: #A80036; stroke-width: 1.0; stroke-dasharray: 1.0,2.0;" x1="2866" x2="2931" y1="143.0117" y2="143.0117"/><!--MD5=[77bc37423dd8876786830fad4054e33b]
reverse link DisplayCommInterface to DisplayCommInterfaceImplementation--><path d="M223,171.82 C223,210.18 223,260.15 223,298.28 " fill="none" id="DisplayCommInterface&lt;-DisplayCommInterfaceImplementation" style="stroke: #A80036; stroke-width: 1.0; stroke-dasharray: 7.0,7.0;"/><polygon fill="none" points="216,171.58,223,151.58,230,171.58,216,171.58" style="stroke: #A80036; stroke-width: 1.0;"/><!--MD5=[4e991cf787e933c55089f97eae394828]
reverse link DisplayComm2WayInterface to DisplayComm2WayInterfaceImplementation--><path d="M769.05,169.54 C750.19,206.05 725.54,253.78 705.93,291.74 " fill="none" id="DisplayComm2WayInterface&lt;-DisplayComm2WayInterfaceImplementation" style="stroke: #A80036; stroke-width: 1.0; stroke-dasharray: 7.0,7.0;"/><polygon fill="none" points="762.93,166.14,778.33,151.58,775.37,172.56,762.93,166.14" style="stroke: #A80036; stroke-width: 1.0;"/><!--MD5=[5beed6c3c7e4a84a4bfaa95bdf8cce79]
reverse link DisplayCommManager to DisplayCommManagerImplementation--><path d="M1210.49,171.55 C1203.69,205.79 1195.05,249.36 1187.89,285.5 " fill="none" id="DisplayCommManager&lt;-DisplayCommManagerImplementation" style="stroke: #A80036; stroke-width: 1.0; stroke-dasharray: 7.0,7.0;"/><polygon fill="none" points="1203.69,169.83,1214.45,151.58,1217.42,172.56,1203.69,169.83" style="stroke: #A80036; stroke-width: 1.0;"/><!--MD5=[9a02b467888c5123255f55ebe5217d7a]
link DisplayCommInterfaceImplementationTests to DisplayComm2WayInterfaceStub--><path d="M1614.85,136.7 C1612.85,177.08 1608.69,260.84 1606.15,312.21 " fill="none" id="DisplayCommInterfaceImplementationTests-&gt;DisplayComm2WayInterfaceStub" style="stroke: #A80036; stroke-width: 1.0; stroke-dasharray: 7.0,7.0;"/><polygon fill="#A80036" points="1605.89,317.39,1610.3219,308.5947,1606.1326,312.3959,1602.3313,308.2065,1605.89,317.39" style="stroke: #A80036; stroke-width: 1.0;"/><!--MD5=[69695ace36e753468876c8d4fe5d2708]
link DisplayComm2WayInterfaceImplementationTests to DisplayCommManagerStub--><path d="M1965.84,136.7 C1960.33,177.08 1948.91,260.84 1941.9,312.21 " fill="none" id="DisplayComm2WayInterfaceImplementationTests-&gt;DisplayCommManagerStub" style="stroke: #A80036; stroke-width: 1.0; stroke-dasharray: 7.0,7.0;"/><polygon fill="#A80036" points="1941.2,317.39,1946.3718,309.0083,1941.8711,312.4352,1938.4442,307.9346,1941.2,317.39" style="stroke: #A80036; stroke-width: 1.0;"/><!--MD5=[a3caa78d97a9caf08bd2afaaae1510f4]
link DisplayCommManagerImplementationTests to MiddlewareCommInterfaceStub--><path d="M2332.7,136.7 C2353.13,177.24 2395.62,261.52 2421.49,312.83 " fill="none" id="DisplayCommManagerImplementationTests-&gt;MiddlewareCommInterfaceStub" style="stroke: #A80036; stroke-width: 1.0; stroke-dasharray: 7.0,7.0;"/><polygon fill="#A80036" points="2423.79,317.39,2423.3051,307.5531,2421.5368,312.9265,2416.1635,311.1581,2423.79,317.39" style="stroke: #A80036; stroke-width: 1.0;"/><!--MD5=[0cd290e6298e838268680010d5032c0d]
link DisplayCommInterfaceImplementationTests to DisplayCommInterfaceImplementation--><path d="M1571.92,136.66 C1534.11,155.16 1477.57,179.65 1425,190 C1370.49,200.74 477.47,179.73 425,198 C369.29,217.4 317.07,258.99 279.69,294.56 " fill="none" id="DisplayCommInterfaceImplementationTests-&gt;DisplayCommInterfaceImplementation" style="stroke: #A80036; stroke-width: 1.0; stroke-dasharray: 7.0,7.0;"/><polygon fill="#A80036" points="275.66,298.43,284.9218,295.0805,279.2661,294.9665,279.3801,289.3107,275.66,298.43" style="stroke: #A80036; stroke-width: 1.0;"/><!--MD5=[ce67f838794c14794f693dd46a642b9a]
link DisplayComm2WayInterfaceImplementationTests to DisplayComm2WayInterfaceImplementation--><path d="M1926.39,136.64 C1889.82,155.13 1835.09,179.61 1784,190 C1737.07,199.55 967.94,184.46 922,198 C860.32,216.18 799.18,254.48 752.92,288.76 " fill="none" id="DisplayComm2WayInterfaceImplementationTests-&gt;DisplayComm2WayInterfaceImplementation" style="stroke: #A80036; stroke-width: 1.0; stroke-dasharray: 7.0,7.0;"/><polygon fill="#A80036" points="748.77,291.85,758.3787,289.6884,752.782,288.866,753.6043,283.2693,748.77,291.85" style="stroke: #A80036; stroke-width: 1.0;"/><!--MD5=[6f3abcadcd809ea193290ea1cf8b820a]
link DisplayCommManagerImplementationTests to DisplayCommManagerImplementation--><path d="M2282.82,136.61 C2249.99,155.07 2200.68,179.54 2154,190 C2077.56,207.13 1524.59,177.43 1449,198 C1386.26,215.08 1322.84,249.95 1272.74,282.55 " fill="none" id="DisplayCommManagerImplementationTests-&gt;DisplayCommManagerImplementation" style="stroke: #A80036; stroke-width: 1.0; stroke-dasharray: 7.0,7.0;"/><polygon fill="#A80036" points="1268.55,285.29,1278.2739,283.7261,1272.7386,282.5595,1273.9051,277.0243,1268.55,285.29" style="stroke: #A80036; stroke-width: 1.0;"/><!--MD5=[f24e7409bf4fec90fef0ed7e05f90b9b]
link TrackDataPlotterTests to TrackDataPlotter--><path d="M2620.23,136.71 C2640.75,153.63 2669.17,177.15 2694,198 C2709.19,210.75 2725.03,224.14 2740.79,237.48 " fill="none" id="TrackDataPlotterTests-&gt;TrackDataPlotter" style="stroke: #A80036; stroke-width: 1.0; stroke-dasharray: 7.0,7.0;"/><polygon fill="#A80036" points="2744.79,240.88,2740.5048,232.0123,2740.9736,237.6496,2735.3362,238.1185,2744.79,240.88" style="stroke: #A80036; stroke-width: 1.0;"/><!--MD5=[6aaeadb42451b39b4e2cdcf83e2bb4cd]
reverse link DisplayComm2WayInterface to DisplayComm2WayInterfaceStub--><path d="M927.23,157.46 C971.07,170.43 1020.68,183.01 1067,190 C1106.34,195.93 1387.93,183.54 1425,198 C1487.47,222.37 1542.56,278.97 1574.59,317.25 " fill="none" id="DisplayComm2WayInterface&lt;-DisplayComm2WayInterfaceStub" style="stroke: #A80036; stroke-width: 1.0; stroke-dasharray: 7.0,7.0;"/><polygon fill="none" points="924.96,164.08,907.85,151.59,929.02,150.68,924.96,164.08" style="stroke: #A80036; stroke-width: 1.0;"/><!--MD5=[e6e0d8b3e0f7bf14f11c0899b3ad37ae]
reverse link DisplayCommManager to DisplayCommManagerStub--><path d="M1333.32,158.38 C1369.6,171 1410.47,183.15 1449,190 C1481.72,195.82 1716.92,186.23 1748,198 C1812.51,222.43 1870.66,279.01 1904.66,317.27 " fill="none" id="DisplayCommManager&lt;-DisplayCommManagerStub" style="stroke: #A80036; stroke-width: 1.0; stroke-dasharray: 7.0,7.0;"/><polygon fill="none" points="1330.71,164.88,1314.24,151.55,1335.42,151.7,1330.71,164.88" style="stroke: #A80036; stroke-width: 1.0;"/><!--MD5=[72cb9e2c0df516d67fcc7a3605b88acd]
reverse link MiddlewareCommInterface to MiddlewareCommInterfaceStub--><path d="M2731.07,176.75 C2659.18,221.36 2565.23,279.66 2504.5,317.34 " fill="none" id="MiddlewareCommInterface&lt;-MiddlewareCommInterfaceStub" style="stroke: #A80036; stroke-width: 1.0; stroke-dasharray: 7.0,7.0;"/><polygon fill="none" points="2727.69,170.61,2748.38,166.01,2735.07,182.5,2727.69,170.61" style="stroke: #A80036; stroke-width: 1.0;"/><!--MD5=[27779b24e673c153b54f77136acfbf9c]
@startuml Display02Packages_DirectDependencies


package edu.oakland.production.display02 {
    
}


package edu.oakland.production.display02 {
    
}


package edu.oakland.production.display02 {
    interface DisplayCommInterface {
        __
        .. Use Case 1 ..
        {abstract} + TrackData receiveRfidRequest(int rfidNum)
    }
}


package edu.oakland.production.display02 {
    interface DisplayComm2WayInterface {
        __
        .. Use Case 1 ..
        {abstract} + TrackData passRfidRequest(int rfidNum)
    }
}


package edu.oakland.production.display02 {
    interface DisplayCommManager {
        __
        .. Use Case 1 ..
        {abstract} + TrackData evaluateRfidRequest(int rfidNum)
    }
}


package edu.oakland.production.display02 {
    class DisplayCommInterfaceImplementation {
        - DisplayComm2WayInterface receiver
        __
        + DisplayCommInterface(DisplayComm2WayInterface receiver)
        .. Use Case 1 ..
        + TrackData receiveRfidRequest(int rfidNum)
        - TrackData passToComm2WayInterface(int rfidNum)
    }
}


DisplayCommInterfaceImplementation .up.|> DisplayCommInterface

package edu.oakland.production.display02 {
    class DisplayComm2WayInterfaceImplementation {
        - DisplayCommManager manager
        __
        + DisplayComm2WayInterfaceImplementation(DisplayCommManager manager)
        .. Use Case 1 ..
        + TrackData passRfidRequest(int rfidNum)
        - void determineUserRequestFormat(int rfidNum)
        - void receiveRequestFromDisplayCommInterface(int rfidNum)
    }
}


DisplayComm2WayInterfaceImplementation .up.|> DisplayComm2WayInterface

package edu.oakland.production.display02 {
    class DisplayCommManagerImplementation {
        - MiddlewareCommInterface middleware
        __
        + DisplayCommManagerImplementation(MiddlewareCommInterface middleware)
        .. Use Case 1 ..
        + TrackData receiveRequestFromDisplay2WayInterface(int rfidNum)
        - TrackData evaluateRfidRequest(int rfidNum)
        - TrackData passRequestToMiddlewareCommInterface(int rfidNum)
        
    }
}


DisplayCommManagerImplementation .up.|> DisplayCommManager
















package edu.oakland.test.display02 {
    
}


package edu.oakland.test.display02 {
    
}


package edu.oakland.test.display02 {
    class DisplayCommInterfaceImplementationTests {

    }
}



package edu.oakland.test.display02 {
    class DisplayComm2WayInterfaceStub {
        __
        .. Use Case 1 ..
        {abstract} + TrackData passRfidRequest(int rfidNum)
    }
}

DisplayCommInterfaceImplementationTests ..> DisplayComm2WayInterfaceStub

package edu.oakland.test.display02 {
    class DisplayComm2WayInterfaceImplementationTests {

    }
}



package edu.oakland.test.display02 {
    class DisplayCommManagerStub {
        __
        .. Use Case 1 ..
        + TrackData evaluateRfidRequest(int rfidNum)
    }
}

DisplayComm2WayInterfaceImplementationTests ..> DisplayCommManagerStub

package edu.oakland.test.display02 {
    class DisplayCommManagerImplementationTests {

    }
}



package edu.oakland.test.display02 {
    class MiddlewareCommInterfaceStub {
        __
        .. Use Case 1 ..
        + TrackData requestRfid(int rfid)
    }
}

DisplayCommManagerImplementationTests ..> MiddlewareCommInterfaceStub

package edu.oakland.test.display02 {
    class TrackDataPlotterTests {

    }
}


DisplayCommInterfaceImplementationTests ..> DisplayCommInterfaceImplementation
DisplayComm2WayInterfaceImplementationTests ..> DisplayComm2WayInterfaceImplementation
DisplayCommManagerImplementationTests ..> DisplayCommManagerImplementation

package edu.oakland.helper.display02 {
    class TrackDataPlotter {
        - TrackData data
        - XYDataset points
        - XYDataset line
        - JFreeChart chart1
        - JFreeChart chart2
        - XYPlot plot
        - ChartPanel chartPanel1
        - ChartPanel chartPanel2
        __
        + TrackDataPlotter(TrackData data)
        .. Use Case 1 ..
        - XYSeries getTrackData()
        - XYSeries calculateLine(int[] x, int[] y)
        - int[] extractLatFromTrackData(TrackData data)
        - int[] extractLngFromTrackData(TrackData data)
    }
}

TrackDataPlotterTests ..> TrackDataPlotter
DisplayComm2WayInterfaceStub .up.|> DisplayComm2WayInterface
DisplayCommManagerStub .up.|> DisplayCommManager









package edu.oakland.production.middleware02 {
    interface MiddlewareCommInterface {
        __
        .. Use Case 1 ..
        {abstract} + TrackData requestRfid(int rfid)
        .. Use Case 2 ..

    }
}

MiddlewareCommInterfaceStub .up.|> MiddlewareCommInterface


package edu.oakland.helper.display02 {
    
}



@enduml

PlantUML version 1.2020.02(Sun Mar 01 10:22:07 GMT 2020)
(GPL source distribution)
Java Runtime: OpenJDK Runtime Environment
JVM: OpenJDK 64-Bit Server VM
Java Version: 11.0.9+11-Ubuntu-0ubuntu1
Operating System: Linux
Default Encoding: ANSI_X3.4-1968
Language: en
Country: US
--></g></svg>