<?xml version="1.0" encoding="UTF-8" standalone="no"?><svg xmlns="http://www.w3.org/2000/svg" xmlns:xlink="http://www.w3.org/1999/xlink" contentScriptType="application/ecmascript" contentStyleType="text/css" height="522px" preserveAspectRatio="none" style="width:2788px;height:522px;" version="1.1" viewBox="0 0 2788 522" width="2788px" zoomAndPan="magnify"><defs><filter height="300%" id="fjnhus84fj6g1" width="300%" x="-1" y="-1"><feGaussianBlur result="blurOut" stdDeviation="2.0"/><feColorMatrix in="blurOut" result="blurOut2" type="matrix" values="0 0 0 0 0 0 0 0 0 0 0 0 0 0 0 0 0 0 .4 0"/><feOffset dx="4.0" dy="4.0" in="blurOut2" result="blurOut3"/><feBlend in="SourceGraphic" in2="blurOut3" mode="normal"/></filter></defs><g><!--MD5=[fe59aae6f7bfe371a9c197ec1f7f843a]
cluster edu.oakland.production.display02--><polygon fill="#FFFFFF" filter="url(#fjnhus84fj6g1)" points="22,32.5,295,32.5,302,54.7969,1432,54.7969,1432,372,22,372,22,32.5" style="stroke: #000000; stroke-width: 1.5;"/><line style="stroke: #000000; stroke-width: 1.5;" x1="22" x2="302" y1="54.7969" y2="54.7969"/><text fill="#000000" font-family="sans-serif" font-size="14" font-weight="bold" lengthAdjust="spacingAndGlyphs" textLength="267" x="26" y="47.4951">edu.oakland.production.display02</text><!--MD5=[9258003ec405d300d3379b4a3d8dd6ad]
cluster edu.oakland.test.display02--><polygon fill="#FFFFFF" filter="url(#fjnhus84fj6g1)" points="1456,47.5,1674,47.5,1681,69.7969,2494,69.7969,2494,510,1456,510,1456,47.5" style="stroke: #000000; stroke-width: 1.5;"/><line style="stroke: #000000; stroke-width: 1.5;" x1="1456" x2="1681" y1="69.7969" y2="69.7969"/><text fill="#000000" font-family="sans-serif" font-size="14" font-weight="bold" lengthAdjust="spacingAndGlyphs" textLength="212" x="1460" y="62.4951">edu.oakland.test.display02</text><!--MD5=[a502031b5a5384de0a21e6ee820fd3b2]
cluster edu.oakland.helper.display02--><polygon fill="#FFFFFF" filter="url(#fjnhus84fj6g1)" points="2518,24,2756,24,2763,46.2969,2766,46.2969,2766,170,2518,170,2518,24" style="stroke: #000000; stroke-width: 1.5;"/><line style="stroke: #000000; stroke-width: 1.5;" x1="2518" x2="2763" y1="46.2969" y2="46.2969"/><text fill="#000000" font-family="sans-serif" font-size="14" font-weight="bold" lengthAdjust="spacingAndGlyphs" textLength="232" x="2522" y="38.9951">edu.oakland.helper.display02</text><!--MD5=[c8d1e3134fecb0c949fd2a76cc0bb992]
class DisplayCommInterface--><rect fill="#FEFECE" filter="url(#fjnhus84fj6g1)" height="77.6094" id="DisplayCommInterface" style="stroke: #A80036; stroke-width: 1.5;" width="268" x="91" y="67.5"/><ellipse cx="151.25" cy="83.5" fill="#B4A7E5" rx="11" ry="11" style="stroke: #A80036; stroke-width: 1.0;"/><path d="M147.1719,79.2656 L147.1719,77.1094 L154.5625,77.1094 L154.5625,79.2656 L152.0938,79.2656 L152.0938,87.3438 L154.5625,87.3438 L154.5625,89.5 L147.1719,89.5 L147.1719,87.3438 L149.6406,87.3438 L149.6406,79.2656 L147.1719,79.2656 Z "/><text fill="#000000" font-family="sans-serif" font-size="12" font-style="italic" lengthAdjust="spacingAndGlyphs" textLength="139" x="171.75" y="87.6543">DisplayCommInterface</text><line style="stroke: #A80036; stroke-width: 1.5;" x1="92" x2="358" y1="99.5" y2="99.5"/><line style="stroke: #A80036; stroke-width: 1.5;" x1="92" x2="358" y1="107.5" y2="107.5"/><ellipse cx="102" cy="135.3047" fill="#84BE84" rx="3" ry="3" style="stroke: #038048; stroke-width: 1.0;"/><text fill="#000000" font-family="sans-serif" font-size="11" font-style="italic" lengthAdjust="spacingAndGlyphs" textLength="242" x="111" y="138.5151">TrackData receiveRfidRequest(int rfidNum)</text><line style="stroke: #A80036; stroke-width: 1.0; stroke-dasharray: 1.0,2.0;" x1="92" x2="192" y1="121.9023" y2="121.9023"/><text fill="#000000" font-family="sans-serif" font-size="11" lengthAdjust="spacingAndGlyphs" textLength="66" x="192" y="125.2104">Use Case 1</text><line style="stroke: #A80036; stroke-width: 1.0; stroke-dasharray: 1.0,2.0;" x1="258" x2="358" y1="121.9023" y2="121.9023"/><!--MD5=[f6b51b5f862da5ce226c62e411e84628]
class DisplayComm2WayInterface--><rect fill="#FEFECE" filter="url(#fjnhus84fj6g1)" height="77.6094" id="DisplayComm2WayInterface" style="stroke: #A80036; stroke-width: 1.5;" width="252" x="394" y="67.5"/><ellipse cx="429.7" cy="83.5" fill="#B4A7E5" rx="11" ry="11" style="stroke: #A80036; stroke-width: 1.0;"/><path d="M425.6219,79.2656 L425.6219,77.1094 L433.0125,77.1094 L433.0125,79.2656 L430.5438,79.2656 L430.5438,87.3438 L433.0125,87.3438 L433.0125,89.5 L425.6219,89.5 L425.6219,87.3438 L428.0906,87.3438 L428.0906,79.2656 L425.6219,79.2656 Z "/><text fill="#000000" font-family="sans-serif" font-size="12" font-style="italic" lengthAdjust="spacingAndGlyphs" textLength="174" x="448.3" y="87.6543">DisplayComm2WayInterface</text><line style="stroke: #A80036; stroke-width: 1.5;" x1="395" x2="645" y1="99.5" y2="99.5"/><line style="stroke: #A80036; stroke-width: 1.5;" x1="395" x2="645" y1="107.5" y2="107.5"/><ellipse cx="405" cy="135.3047" fill="#84BE84" rx="3" ry="3" style="stroke: #038048; stroke-width: 1.0;"/><text fill="#000000" font-family="sans-serif" font-size="11" font-style="italic" lengthAdjust="spacingAndGlyphs" textLength="226" x="414" y="138.5151">TrackData passRfidRequest(int rfidNum)</text><line style="stroke: #A80036; stroke-width: 1.0; stroke-dasharray: 1.0,2.0;" x1="395" x2="487" y1="121.9023" y2="121.9023"/><text fill="#000000" font-family="sans-serif" font-size="11" lengthAdjust="spacingAndGlyphs" textLength="66" x="487" y="125.2104">Use Case 1</text><line style="stroke: #A80036; stroke-width: 1.0; stroke-dasharray: 1.0,2.0;" x1="553" x2="645" y1="121.9023" y2="121.9023"/><!--MD5=[6aeb72f2773d7cabb45309482beeff0a]
class DisplayCommManager--><rect fill="#FEFECE" filter="url(#fjnhus84fj6g1)" height="77.6094" id="DisplayCommManager" style="stroke: #A80036; stroke-width: 1.5;" width="275" x="681.5" y="67.5"/><ellipse cx="746.25" cy="83.5" fill="#B4A7E5" rx="11" ry="11" style="stroke: #A80036; stroke-width: 1.0;"/><path d="M742.1719,79.2656 L742.1719,77.1094 L749.5625,77.1094 L749.5625,79.2656 L747.0938,79.2656 L747.0938,87.3438 L749.5625,87.3438 L749.5625,89.5 L742.1719,89.5 L742.1719,87.3438 L744.6406,87.3438 L744.6406,79.2656 L742.1719,79.2656 Z "/><text fill="#000000" font-family="sans-serif" font-size="12" font-style="italic" lengthAdjust="spacingAndGlyphs" textLength="137" x="766.75" y="87.6543">DisplayCommManager</text><line style="stroke: #A80036; stroke-width: 1.5;" x1="682.5" x2="955.5" y1="99.5" y2="99.5"/><line style="stroke: #A80036; stroke-width: 1.5;" x1="682.5" x2="955.5" y1="107.5" y2="107.5"/><ellipse cx="692.5" cy="135.3047" fill="#84BE84" rx="3" ry="3" style="stroke: #038048; stroke-width: 1.0;"/><text fill="#000000" font-family="sans-serif" font-size="11" font-style="italic" lengthAdjust="spacingAndGlyphs" textLength="249" x="701.5" y="138.5151">TrackData evaluateRfidRequest(int rfidNum)</text><line style="stroke: #A80036; stroke-width: 1.0; stroke-dasharray: 1.0,2.0;" x1="682.5" x2="786" y1="121.9023" y2="121.9023"/><text fill="#000000" font-family="sans-serif" font-size="11" lengthAdjust="spacingAndGlyphs" textLength="66" x="786" y="125.2104">Use Case 1</text><line style="stroke: #A80036; stroke-width: 1.0; stroke-dasharray: 1.0,2.0;" x1="852" x2="955.5" y1="121.9023" y2="121.9023"/><!--MD5=[a35092e604da7274febf4e2cf9a25087]
class DisplayCommInterfaceImplementation--><rect fill="#FEFECE" filter="url(#fjnhus84fj6g1)" height="128.8281" id="DisplayCommInterfaceImplementation" style="stroke: #A80036; stroke-width: 1.5;" width="373" x="38.5" y="220.5"/><ellipse cx="103.25" cy="236.5" fill="#ADD1B2" rx="11" ry="11" style="stroke: #A80036; stroke-width: 1.0;"/><path d="M106.2188,242.1406 Q105.6406,242.4375 105,242.5781 Q104.3594,242.7344 103.6563,242.7344 Q101.1563,242.7344 99.8281,241.0938 Q98.5156,239.4375 98.5156,236.3125 Q98.5156,233.1875 99.8281,231.5313 Q101.1563,229.875 103.6563,229.875 Q104.3594,229.875 105,230.0313 Q105.6563,230.1875 106.2188,230.4844 L106.2188,233.2031 Q105.5938,232.625 105,232.3594 Q104.4063,232.0781 103.7813,232.0781 Q102.4375,232.0781 101.75,233.1563 Q101.0625,234.2188 101.0625,236.3125 Q101.0625,238.4063 101.75,239.4844 Q102.4375,240.5469 103.7813,240.5469 Q104.4063,240.5469 105,240.2813 Q105.5938,240 106.2188,239.4219 L106.2188,242.1406 Z "/><text fill="#000000" font-family="sans-serif" font-size="12" lengthAdjust="spacingAndGlyphs" textLength="235" x="123.75" y="240.6543">DisplayCommInterfaceImplementation</text><line style="stroke: #A80036; stroke-width: 1.5;" x1="39.5" x2="410.5" y1="252.5" y2="252.5"/><text fill="#000000" font-family="sans-serif" font-size="11" lengthAdjust="spacingAndGlyphs" textLength="207" x="44.5" y="266.7104">DisplayComm2WayInterface receiver</text><line style="stroke: #A80036; stroke-width: 1.5;" x1="39.5" x2="410.5" y1="273.3047" y2="273.3047"/><ellipse cx="49.5" cy="284.3047" fill="#84BE84" rx="3" ry="3" style="stroke: #038048; stroke-width: 1.0;"/><text fill="#000000" font-family="sans-serif" font-size="11" font-style="italic" lengthAdjust="spacingAndGlyphs" textLength="347" x="58.5" y="287.5151">DisplayCommInterface(DisplayComm2WayInterface receiver)</text><ellipse cx="49.5" cy="313.9141" fill="#84BE84" rx="3" ry="3" style="stroke: #038048; stroke-width: 1.0;"/><text fill="#000000" font-family="sans-serif" font-size="11" font-style="italic" lengthAdjust="spacingAndGlyphs" textLength="242" x="58.5" y="317.1245">TrackData receiveRfidRequest(int rfidNum)</text><ellipse cx="49.5" cy="326.7188" fill="#84BE84" rx="3" ry="3" style="stroke: #038048; stroke-width: 1.0;"/><text fill="#000000" font-family="sans-serif" font-size="11" font-style="italic" lengthAdjust="spacingAndGlyphs" textLength="291" x="58.5" y="329.9292">TrackData passToComm2WayInterface(int rfidNum)</text><text fill="#000000" font-family="sans-serif" font-size="11" lengthAdjust="spacingAndGlyphs" textLength="0" x="62.5" y="342.7339"/><line style="stroke: #A80036; stroke-width: 1.0; stroke-dasharray: 1.0,2.0;" x1="39.5" x2="192" y1="300.5117" y2="300.5117"/><text fill="#000000" font-family="sans-serif" font-size="11" lengthAdjust="spacingAndGlyphs" textLength="66" x="192" y="303.8198">Use Case 1</text><line style="stroke: #A80036; stroke-width: 1.0; stroke-dasharray: 1.0,2.0;" x1="258" x2="410.5" y1="300.5117" y2="300.5117"/><!--MD5=[46657c2900260d4d40350fe3f8c544df]
class DisplayComm2WayInterfaceImplementation--><rect fill="#FEFECE" filter="url(#fjnhus84fj6g1)" height="128.8281" id="DisplayComm2WayInterfaceImplementation" style="stroke: #A80036; stroke-width: 1.5;" width="464" x="447" y="220.5"/><ellipse cx="540.75" cy="236.5" fill="#ADD1B2" rx="11" ry="11" style="stroke: #A80036; stroke-width: 1.0;"/><path d="M543.7188,242.1406 Q543.1406,242.4375 542.5,242.5781 Q541.8594,242.7344 541.1563,242.7344 Q538.6563,242.7344 537.3281,241.0938 Q536.0156,239.4375 536.0156,236.3125 Q536.0156,233.1875 537.3281,231.5313 Q538.6563,229.875 541.1563,229.875 Q541.8594,229.875 542.5,230.0313 Q543.1563,230.1875 543.7188,230.4844 L543.7188,233.2031 Q543.0938,232.625 542.5,232.3594 Q541.9063,232.0781 541.2813,232.0781 Q539.9375,232.0781 539.25,233.1563 Q538.5625,234.2188 538.5625,236.3125 Q538.5625,238.4063 539.25,239.4844 Q539.9375,240.5469 541.2813,240.5469 Q541.9063,240.5469 542.5,240.2813 Q543.0938,240 543.7188,239.4219 L543.7188,242.1406 Z "/><text fill="#000000" font-family="sans-serif" font-size="12" lengthAdjust="spacingAndGlyphs" textLength="268" x="561.25" y="240.6543">DisplayComm2WayInterfaceImplementation</text><line style="stroke: #A80036; stroke-width: 1.5;" x1="448" x2="910" y1="252.5" y2="252.5"/><text fill="#000000" font-family="sans-serif" font-size="11" lengthAdjust="spacingAndGlyphs" textLength="182" x="453" y="266.7104">DisplayCommManager manager</text><line style="stroke: #A80036; stroke-width: 1.5;" x1="448" x2="910" y1="273.3047" y2="273.3047"/><ellipse cx="458" cy="284.3047" fill="#84BE84" rx="3" ry="3" style="stroke: #038048; stroke-width: 1.0;"/><text fill="#000000" font-family="sans-serif" font-size="11" font-style="italic" lengthAdjust="spacingAndGlyphs" textLength="438" x="467" y="287.5151">DisplayComm2WayInterfaceImplementation(DisplayCommManager manager)</text><ellipse cx="458" cy="313.9141" fill="#84BE84" rx="3" ry="3" style="stroke: #038048; stroke-width: 1.0;"/><text fill="#000000" font-family="sans-serif" font-size="11" font-style="italic" lengthAdjust="spacingAndGlyphs" textLength="226" x="467" y="317.1245">TrackData passRfidRequest(int rfidNum)</text><ellipse cx="458" cy="326.7188" fill="#84BE84" rx="3" ry="3" style="stroke: #038048; stroke-width: 1.0;"/><text fill="#000000" font-family="sans-serif" font-size="11" font-style="italic" lengthAdjust="spacingAndGlyphs" textLength="269" x="467" y="329.9292">void determineUserRequestFormat(int rfidNum)</text><ellipse cx="458" cy="339.5234" fill="#84BE84" rx="3" ry="3" style="stroke: #038048; stroke-width: 1.0;"/><text fill="#000000" font-family="sans-serif" font-size="11" font-style="italic" lengthAdjust="spacingAndGlyphs" textLength="344" x="467" y="342.7339">void receiveRequestFromDisplayCommInterface(int rfidNum)</text><line style="stroke: #A80036; stroke-width: 1.0; stroke-dasharray: 1.0,2.0;" x1="448" x2="646" y1="300.5117" y2="300.5117"/><text fill="#000000" font-family="sans-serif" font-size="11" lengthAdjust="spacingAndGlyphs" textLength="66" x="646" y="303.8198">Use Case 1</text><line style="stroke: #A80036; stroke-width: 1.0; stroke-dasharray: 1.0,2.0;" x1="712" x2="910" y1="300.5117" y2="300.5117"/><!--MD5=[3a27b63ddb357afc5dde5581215f51f9]
class DisplayCommManagerImplementation--><rect fill="#FEFECE" filter="url(#fjnhus84fj6g1)" height="141.6328" id="DisplayCommManagerImplementation" style="stroke: #A80036; stroke-width: 1.5;" width="470" x="946" y="214"/><ellipse cx="1059.75" cy="230" fill="#ADD1B2" rx="11" ry="11" style="stroke: #A80036; stroke-width: 1.0;"/><path d="M1062.7188,235.6406 Q1062.1406,235.9375 1061.5,236.0781 Q1060.8594,236.2344 1060.1563,236.2344 Q1057.6563,236.2344 1056.3281,234.5938 Q1055.0156,232.9375 1055.0156,229.8125 Q1055.0156,226.6875 1056.3281,225.0313 Q1057.6563,223.375 1060.1563,223.375 Q1060.8594,223.375 1061.5,223.5313 Q1062.1563,223.6875 1062.7188,223.9844 L1062.7188,226.7031 Q1062.0938,226.125 1061.5,225.8594 Q1060.9063,225.5781 1060.2813,225.5781 Q1058.9375,225.5781 1058.25,226.6563 Q1057.5625,227.7188 1057.5625,229.8125 Q1057.5625,231.9063 1058.25,232.9844 Q1058.9375,234.0469 1060.2813,234.0469 Q1060.9063,234.0469 1061.5,233.7813 Q1062.0938,233.5 1062.7188,232.9219 L1062.7188,235.6406 Z "/><text fill="#000000" font-family="sans-serif" font-size="12" lengthAdjust="spacingAndGlyphs" textLength="234" x="1080.25" y="234.1543">DisplayCommManagerImplementation</text><line style="stroke: #A80036; stroke-width: 1.5;" x1="947" x2="1415" y1="246" y2="246"/><text fill="#000000" font-family="sans-serif" font-size="11" lengthAdjust="spacingAndGlyphs" textLength="221" x="952" y="260.2104">MiddlewareCommInterface middleware</text><line style="stroke: #A80036; stroke-width: 1.5;" x1="947" x2="1415" y1="266.8047" y2="266.8047"/><ellipse cx="957" cy="277.8047" fill="#84BE84" rx="3" ry="3" style="stroke: #038048; stroke-width: 1.0;"/><text fill="#000000" font-family="sans-serif" font-size="11" font-style="italic" lengthAdjust="spacingAndGlyphs" textLength="444" x="966" y="281.0151">DisplayCommManagerImplementation(MiddlewareCommInterface middleware)</text><ellipse cx="957" cy="307.4141" fill="#84BE84" rx="3" ry="3" style="stroke: #038048; stroke-width: 1.0;"/><text fill="#000000" font-family="sans-serif" font-size="11" font-style="italic" lengthAdjust="spacingAndGlyphs" textLength="249" x="966" y="310.6245">TrackData evaluateRfidRequest(int rfidNum)</text><ellipse cx="957" cy="320.2188" fill="#84BE84" rx="3" ry="3" style="stroke: #038048; stroke-width: 1.0;"/><text fill="#000000" font-family="sans-serif" font-size="11" font-style="italic" lengthAdjust="spacingAndGlyphs" textLength="369" x="966" y="323.4292">TrackData passRequestToMiddlewareCommInterface(int rfidNum)</text><ellipse cx="957" cy="333.0234" fill="#84BE84" rx="3" ry="3" style="stroke: #038048; stroke-width: 1.0;"/><text fill="#000000" font-family="sans-serif" font-size="11" font-style="italic" lengthAdjust="spacingAndGlyphs" textLength="339" x="966" y="336.2339">void receiveRequestFromDisplay2WayInterface(int rfidNum)</text><text fill="#000000" font-family="sans-serif" font-size="11" lengthAdjust="spacingAndGlyphs" textLength="0" x="970" y="349.0386"/><line style="stroke: #A80036; stroke-width: 1.0; stroke-dasharray: 1.0,2.0;" x1="947" x2="1148" y1="294.0117" y2="294.0117"/><text fill="#000000" font-family="sans-serif" font-size="11" lengthAdjust="spacingAndGlyphs" textLength="66" x="1148" y="297.3198">Use Case 1</text><line style="stroke: #A80036; stroke-width: 1.0; stroke-dasharray: 1.0,2.0;" x1="1214" x2="1415" y1="294.0117" y2="294.0117"/><!--MD5=[d454b7777f115113290d89683d7a426c]
class DisplayCommInterfaceImplementationTests--><rect fill="#FEFECE" filter="url(#fjnhus84fj6g1)" height="48" id="DisplayCommInterfaceImplementationTests" style="stroke: #A80036; stroke-width: 1.5;" width="301" x="1472.5" y="82.5"/><ellipse cx="1487.5" cy="98.5" fill="#ADD1B2" rx="11" ry="11" style="stroke: #A80036; stroke-width: 1.0;"/><path d="M1490.4688,104.1406 Q1489.8906,104.4375 1489.25,104.5781 Q1488.6094,104.7344 1487.9063,104.7344 Q1485.4063,104.7344 1484.0781,103.0938 Q1482.7656,101.4375 1482.7656,98.3125 Q1482.7656,95.1875 1484.0781,93.5313 Q1485.4063,91.875 1487.9063,91.875 Q1488.6094,91.875 1489.25,92.0313 Q1489.9063,92.1875 1490.4688,92.4844 L1490.4688,95.2031 Q1489.8438,94.625 1489.25,94.3594 Q1488.6563,94.0781 1488.0313,94.0781 Q1486.6875,94.0781 1486,95.1563 Q1485.3125,96.2188 1485.3125,98.3125 Q1485.3125,100.4063 1486,101.4844 Q1486.6875,102.5469 1488.0313,102.5469 Q1488.6563,102.5469 1489.25,102.2813 Q1489.8438,102 1490.4688,101.4219 L1490.4688,104.1406 Z "/><text fill="#000000" font-family="sans-serif" font-size="12" lengthAdjust="spacingAndGlyphs" textLength="269" x="1501.5" y="102.6543">DisplayCommInterfaceImplementationTests</text><line style="stroke: #A80036; stroke-width: 1.5;" x1="1473.5" x2="1772.5" y1="114.5" y2="114.5"/><line style="stroke: #A80036; stroke-width: 1.5;" x1="1473.5" x2="1772.5" y1="122.5" y2="122.5"/><!--MD5=[178181f4c7684560c711246055fc01d3]
class DisplayComm2WayInterfaceImplementationTests--><rect fill="#FEFECE" filter="url(#fjnhus84fj6g1)" height="48" id="DisplayComm2WayInterfaceImplementationTests" style="stroke: #A80036; stroke-width: 1.5;" width="334" x="1809" y="82.5"/><ellipse cx="1824" cy="98.5" fill="#ADD1B2" rx="11" ry="11" style="stroke: #A80036; stroke-width: 1.0;"/><path d="M1826.9688,104.1406 Q1826.3906,104.4375 1825.75,104.5781 Q1825.1094,104.7344 1824.4063,104.7344 Q1821.9063,104.7344 1820.5781,103.0938 Q1819.2656,101.4375 1819.2656,98.3125 Q1819.2656,95.1875 1820.5781,93.5313 Q1821.9063,91.875 1824.4063,91.875 Q1825.1094,91.875 1825.75,92.0313 Q1826.4063,92.1875 1826.9688,92.4844 L1826.9688,95.2031 Q1826.3438,94.625 1825.75,94.3594 Q1825.1563,94.0781 1824.5313,94.0781 Q1823.1875,94.0781 1822.5,95.1563 Q1821.8125,96.2188 1821.8125,98.3125 Q1821.8125,100.4063 1822.5,101.4844 Q1823.1875,102.5469 1824.5313,102.5469 Q1825.1563,102.5469 1825.75,102.2813 Q1826.3438,102 1826.9688,101.4219 L1826.9688,104.1406 Z "/><text fill="#000000" font-family="sans-serif" font-size="12" lengthAdjust="spacingAndGlyphs" textLength="302" x="1838" y="102.6543">DisplayComm2WayInterfaceImplementationTests</text><line style="stroke: #A80036; stroke-width: 1.5;" x1="1810" x2="2142" y1="114.5" y2="114.5"/><line style="stroke: #A80036; stroke-width: 1.5;" x1="1810" x2="2142" y1="122.5" y2="122.5"/><!--MD5=[937d6d8ff87a99d0d5dcd66ee05a1fa4]
class DisplayCommManagerImplementationTests--><rect fill="#FEFECE" filter="url(#fjnhus84fj6g1)" height="48" id="DisplayCommManagerImplementationTests" style="stroke: #A80036; stroke-width: 1.5;" width="300" x="2178" y="82.5"/><ellipse cx="2193" cy="98.5" fill="#ADD1B2" rx="11" ry="11" style="stroke: #A80036; stroke-width: 1.0;"/><path d="M2195.9688,104.1406 Q2195.3906,104.4375 2194.75,104.5781 Q2194.1094,104.7344 2193.4063,104.7344 Q2190.9063,104.7344 2189.5781,103.0938 Q2188.2656,101.4375 2188.2656,98.3125 Q2188.2656,95.1875 2189.5781,93.5313 Q2190.9063,91.875 2193.4063,91.875 Q2194.1094,91.875 2194.75,92.0313 Q2195.4063,92.1875 2195.9688,92.4844 L2195.9688,95.2031 Q2195.3438,94.625 2194.75,94.3594 Q2194.1563,94.0781 2193.5313,94.0781 Q2192.1875,94.0781 2191.5,95.1563 Q2190.8125,96.2188 2190.8125,98.3125 Q2190.8125,100.4063 2191.5,101.4844 Q2192.1875,102.5469 2193.5313,102.5469 Q2194.1563,102.5469 2194.75,102.2813 Q2195.3438,102 2195.9688,101.4219 L2195.9688,104.1406 Z "/><text fill="#000000" font-family="sans-serif" font-size="12" lengthAdjust="spacingAndGlyphs" textLength="268" x="2207" y="102.6543">DisplayCommManagerImplementationTests</text><line style="stroke: #A80036; stroke-width: 1.5;" x1="2179" x2="2477" y1="114.5" y2="114.5"/><line style="stroke: #A80036; stroke-width: 1.5;" x1="2179" x2="2477" y1="122.5" y2="122.5"/><!--MD5=[930c8140e7c1cb8e71aa7cd49967748e]
class TrackDataPlotterTests--><rect fill="#FEFECE" filter="url(#fjnhus84fj6g1)" height="48" id="TrackDataPlotterTests" style="stroke: #A80036; stroke-width: 1.5;" width="172" x="1537" y="261"/><ellipse cx="1552" cy="277" fill="#ADD1B2" rx="11" ry="11" style="stroke: #A80036; stroke-width: 1.0;"/><path d="M1554.9688,282.6406 Q1554.3906,282.9375 1553.75,283.0781 Q1553.1094,283.2344 1552.4063,283.2344 Q1549.9063,283.2344 1548.5781,281.5938 Q1547.2656,279.9375 1547.2656,276.8125 Q1547.2656,273.6875 1548.5781,272.0313 Q1549.9063,270.375 1552.4063,270.375 Q1553.1094,270.375 1553.75,270.5313 Q1554.4063,270.6875 1554.9688,270.9844 L1554.9688,273.7031 Q1554.3438,273.125 1553.75,272.8594 Q1553.1563,272.5781 1552.5313,272.5781 Q1551.1875,272.5781 1550.5,273.6563 Q1549.8125,274.7188 1549.8125,276.8125 Q1549.8125,278.9063 1550.5,279.9844 Q1551.1875,281.0469 1552.5313,281.0469 Q1553.1563,281.0469 1553.75,280.7813 Q1554.3438,280.5 1554.9688,279.9219 L1554.9688,282.6406 Z "/><text fill="#000000" font-family="sans-serif" font-size="12" lengthAdjust="spacingAndGlyphs" textLength="140" x="1566" y="281.1543">TrackDataPlotterTests</text><line style="stroke: #A80036; stroke-width: 1.5;" x1="1538" x2="1708" y1="293" y2="293"/><line style="stroke: #A80036; stroke-width: 1.5;" x1="1538" x2="1708" y1="301" y2="301"/><!--MD5=[a333ac13e0fdf2a5898aafabd38d3c1b]
class DisplayComm2WayInterfaceStub--><rect fill="#FEFECE" filter="url(#fjnhus84fj6g1)" height="77.6094" id="DisplayComm2WayInterfaceStub" style="stroke: #A80036; stroke-width: 1.5;" width="252" x="1744" y="246"/><ellipse cx="1768" cy="262" fill="#ADD1B2" rx="11" ry="11" style="stroke: #A80036; stroke-width: 1.0;"/><path d="M1770.9688,267.6406 Q1770.3906,267.9375 1769.75,268.0781 Q1769.1094,268.2344 1768.4063,268.2344 Q1765.9063,268.2344 1764.5781,266.5938 Q1763.2656,264.9375 1763.2656,261.8125 Q1763.2656,258.6875 1764.5781,257.0313 Q1765.9063,255.375 1768.4063,255.375 Q1769.1094,255.375 1769.75,255.5313 Q1770.4063,255.6875 1770.9688,255.9844 L1770.9688,258.7031 Q1770.3438,258.125 1769.75,257.8594 Q1769.1563,257.5781 1768.5313,257.5781 Q1767.1875,257.5781 1766.5,258.6563 Q1765.8125,259.7188 1765.8125,261.8125 Q1765.8125,263.9063 1766.5,264.9844 Q1767.1875,266.0469 1768.5313,266.0469 Q1769.1563,266.0469 1769.75,265.7813 Q1770.3438,265.5 1770.9688,264.9219 L1770.9688,267.6406 Z "/><text fill="#000000" font-family="sans-serif" font-size="12" lengthAdjust="spacingAndGlyphs" textLength="200" x="1784" y="266.1543">DisplayComm2WayInterfaceStub</text><line style="stroke: #A80036; stroke-width: 1.5;" x1="1745" x2="1995" y1="278" y2="278"/><line style="stroke: #A80036; stroke-width: 1.5;" x1="1745" x2="1995" y1="286" y2="286"/><ellipse cx="1755" cy="313.8047" fill="#84BE84" rx="3" ry="3" style="stroke: #038048; stroke-width: 1.0;"/><text fill="#000000" font-family="sans-serif" font-size="11" font-style="italic" lengthAdjust="spacingAndGlyphs" textLength="226" x="1764" y="317.0151">TrackData passRfidRequest(int rfidNum)</text><line style="stroke: #A80036; stroke-width: 1.0; stroke-dasharray: 1.0,2.0;" x1="1745" x2="1837" y1="300.4023" y2="300.4023"/><text fill="#000000" font-family="sans-serif" font-size="11" lengthAdjust="spacingAndGlyphs" textLength="66" x="1837" y="303.7104">Use Case 1</text><line style="stroke: #A80036; stroke-width: 1.0; stroke-dasharray: 1.0,2.0;" x1="1903" x2="1995" y1="300.4023" y2="300.4023"/><!--MD5=[2970358178d6cf57fc5a801b39eb8d0b]
class DisplayCommManagerStub--><rect fill="#FEFECE" filter="url(#fjnhus84fj6g1)" height="77.6094" id="DisplayCommManagerStub" style="stroke: #A80036; stroke-width: 1.5;" width="273" x="2031.5" y="246"/><ellipse cx="2080.75" cy="262" fill="#ADD1B2" rx="11" ry="11" style="stroke: #A80036; stroke-width: 1.0;"/><path d="M2083.7188,267.6406 Q2083.1406,267.9375 2082.5,268.0781 Q2081.8594,268.2344 2081.1563,268.2344 Q2078.6563,268.2344 2077.3281,266.5938 Q2076.0156,264.9375 2076.0156,261.8125 Q2076.0156,258.6875 2077.3281,257.0313 Q2078.6563,255.375 2081.1563,255.375 Q2081.8594,255.375 2082.5,255.5313 Q2083.1563,255.6875 2083.7188,255.9844 L2083.7188,258.7031 Q2083.0938,258.125 2082.5,257.8594 Q2081.9063,257.5781 2081.2813,257.5781 Q2079.9375,257.5781 2079.25,258.6563 Q2078.5625,259.7188 2078.5625,261.8125 Q2078.5625,263.9063 2079.25,264.9844 Q2079.9375,266.0469 2081.2813,266.0469 Q2081.9063,266.0469 2082.5,265.7813 Q2083.0938,265.5 2083.7188,264.9219 L2083.7188,267.6406 Z "/><text fill="#000000" font-family="sans-serif" font-size="12" lengthAdjust="spacingAndGlyphs" textLength="166" x="2101.25" y="266.1543">DisplayCommManagerStub</text><line style="stroke: #A80036; stroke-width: 1.5;" x1="2032.5" x2="2303.5" y1="278" y2="278"/><line style="stroke: #A80036; stroke-width: 1.5;" x1="2032.5" x2="2303.5" y1="286" y2="286"/><ellipse cx="2042.5" cy="313.8047" fill="#84BE84" rx="3" ry="3" style="stroke: #038048; stroke-width: 1.0;"/><text fill="#000000" font-family="sans-serif" font-size="11" lengthAdjust="spacingAndGlyphs" textLength="247" x="2051.5" y="317.0151">TrackData evaluateRfidRequest(int rfidNum)</text><line style="stroke: #A80036; stroke-width: 1.0; stroke-dasharray: 1.0,2.0;" x1="2032.5" x2="2135" y1="300.4023" y2="300.4023"/><text fill="#000000" font-family="sans-serif" font-size="11" lengthAdjust="spacingAndGlyphs" textLength="66" x="2135" y="303.7104">Use Case 1</text><line style="stroke: #A80036; stroke-width: 1.0; stroke-dasharray: 1.0,2.0;" x1="2201" x2="2303.5" y1="300.4023" y2="300.4023"/><!--MD5=[cf56a65163663c6c6c7b84cd7c204b97]
class MiddlewareCommInterfaceStub--><rect fill="#FEFECE" filter="url(#fjnhus84fj6g1)" height="77.6094" id="MiddlewareCommInterfaceStub" style="stroke: #A80036; stroke-width: 1.5;" width="225" x="1510.5" y="416"/><ellipse cx="1525.5" cy="432" fill="#ADD1B2" rx="11" ry="11" style="stroke: #A80036; stroke-width: 1.0;"/><path d="M1528.4688,437.6406 Q1527.8906,437.9375 1527.25,438.0781 Q1526.6094,438.2344 1525.9063,438.2344 Q1523.4063,438.2344 1522.0781,436.5938 Q1520.7656,434.9375 1520.7656,431.8125 Q1520.7656,428.6875 1522.0781,427.0313 Q1523.4063,425.375 1525.9063,425.375 Q1526.6094,425.375 1527.25,425.5313 Q1527.9063,425.6875 1528.4688,425.9844 L1528.4688,428.7031 Q1527.8438,428.125 1527.25,427.8594 Q1526.6563,427.5781 1526.0313,427.5781 Q1524.6875,427.5781 1524,428.6563 Q1523.3125,429.7188 1523.3125,431.8125 Q1523.3125,433.9063 1524,434.9844 Q1524.6875,436.0469 1526.0313,436.0469 Q1526.6563,436.0469 1527.25,435.7813 Q1527.8438,435.5 1528.4688,434.9219 L1528.4688,437.6406 Z "/><text fill="#000000" font-family="sans-serif" font-size="12" lengthAdjust="spacingAndGlyphs" textLength="193" x="1539.5" y="436.1543">MiddlewareCommInterfaceStub</text><line style="stroke: #A80036; stroke-width: 1.5;" x1="1511.5" x2="1734.5" y1="448" y2="448"/><line style="stroke: #A80036; stroke-width: 1.5;" x1="1511.5" x2="1734.5" y1="456" y2="456"/><ellipse cx="1521.5" cy="483.8047" fill="#84BE84" rx="3" ry="3" style="stroke: #038048; stroke-width: 1.0;"/><text fill="#000000" font-family="sans-serif" font-size="11" lengthAdjust="spacingAndGlyphs" textLength="171" x="1530.5" y="487.0151">TrackData requestRfid(int rfid)</text><line style="stroke: #A80036; stroke-width: 1.0; stroke-dasharray: 1.0,2.0;" x1="1511.5" x2="1590" y1="470.4023" y2="470.4023"/><text fill="#000000" font-family="sans-serif" font-size="11" lengthAdjust="spacingAndGlyphs" textLength="66" x="1590" y="473.7104">Use Case 1</text><line style="stroke: #A80036; stroke-width: 1.0; stroke-dasharray: 1.0,2.0;" x1="1656" x2="1734.5" y1="470.4023" y2="470.4023"/><!--MD5=[c986427b061286eff33e87a088ad4bf9]
class TrackDataPlotter--><rect fill="#FEFECE" filter="url(#fjnhus84fj6g1)" height="95.2188" id="TrackDataPlotter" style="stroke: #A80036; stroke-width: 1.5;" width="138" x="2573" y="59"/><ellipse cx="2588" cy="75" fill="#ADD1B2" rx="11" ry="11" style="stroke: #A80036; stroke-width: 1.0;"/><path d="M2590.9688,80.6406 Q2590.3906,80.9375 2589.75,81.0781 Q2589.1094,81.2344 2588.4063,81.2344 Q2585.9063,81.2344 2584.5781,79.5938 Q2583.2656,77.9375 2583.2656,74.8125 Q2583.2656,71.6875 2584.5781,70.0313 Q2585.9063,68.375 2588.4063,68.375 Q2589.1094,68.375 2589.75,68.5313 Q2590.4063,68.6875 2590.9688,68.9844 L2590.9688,71.7031 Q2590.3438,71.125 2589.75,70.8594 Q2589.1563,70.5781 2588.5313,70.5781 Q2587.1875,70.5781 2586.5,71.6563 Q2585.8125,72.7188 2585.8125,74.8125 Q2585.8125,76.9063 2586.5,77.9844 Q2587.1875,79.0469 2588.5313,79.0469 Q2589.1563,79.0469 2589.75,78.7813 Q2590.3438,78.5 2590.9688,77.9219 L2590.9688,80.6406 Z "/><text fill="#000000" font-family="sans-serif" font-size="12" lengthAdjust="spacingAndGlyphs" textLength="106" x="2602" y="79.1543">TrackDataPlotter</text><line style="stroke: #A80036; stroke-width: 1.5;" x1="2574" x2="2710" y1="91" y2="91"/><text fill="#000000" font-family="sans-serif" font-size="11" lengthAdjust="spacingAndGlyphs" textLength="6" x="2579" y="105.2104">_</text><ellipse cx="2584" cy="131.6094" fill="#84BE84" rx="3" ry="3" style="stroke: #038048; stroke-width: 1.0;"/><text fill="#000000" font-family="sans-serif" font-size="11" font-style="italic" lengthAdjust="spacingAndGlyphs" textLength="102" x="2593" y="134.8198">TrackDataPlotter()</text><text fill="#000000" font-family="sans-serif" font-size="11" lengthAdjust="spacingAndGlyphs" textLength="0" x="2597" y="147.6245"/><line style="stroke: #A80036; stroke-width: 1.0; stroke-dasharray: 1.0,2.0;" x1="2574" x2="2609" y1="118.207" y2="118.207"/><text fill="#000000" font-family="sans-serif" font-size="11" lengthAdjust="spacingAndGlyphs" textLength="66" x="2609" y="121.5151">Use Case 1</text><line style="stroke: #A80036; stroke-width: 1.0; stroke-dasharray: 1.0,2.0;" x1="2675" x2="2710" y1="118.207" y2="118.207"/><!--MD5=[c9341cce37a1a8bee80ad1365349afef]
link DisplayCommInterface to DisplayComm2WayInterface--><!--MD5=[7835b7bc4a765bae53638d0402d5d5e6]
link DisplayComm2WayInterface to DisplayCommManager--><!--MD5=[7d92106ecb9088e13e6754b44ec571b0]
link DisplayCommInterface to DisplayCommInterfaceImplementation--><!--MD5=[51e28edbb9f88779af066724948e7048]
link DisplayCommInterfaceImplementation to DisplayComm2WayInterfaceImplementation--><!--MD5=[ea4cd417ea9ea2c0dbdbdf4e4e3d21de]
link DisplayComm2WayInterfaceImplementation to DisplayCommManagerImplementation--><!--MD5=[64e942b00478e9eef28430a914bbb142]
link DisplayCommInterfaceImplementationTests to DisplayComm2WayInterfaceImplementationTests--><!--MD5=[8dbe1f493aaf019419238fc4702b450a]
link DisplayComm2WayInterfaceImplementationTests to DisplayCommManagerImplementationTests--><!--MD5=[e81de192ca7bc9df286fd4cb58be8b46]
link DisplayCommInterfaceImplementationTests to TrackDataPlotterTests--><!--MD5=[8b898a72046de76ad345afd61090e7dd]
link TrackDataPlotterTests to DisplayComm2WayInterfaceStub--><!--MD5=[c9c9241041dbc47aa626fe1afc095e03]
link DisplayComm2WayInterfaceStub to DisplayCommManagerStub--><!--MD5=[61d9c608a539b4614526ad59aeb385a2]
link TrackDataPlotterTests to MiddlewareCommInterfaceStub--><!--MD5=[b380081febcb3fe7e5da65ee486062ab]
@startuml Display02Packages


package edu.oakland.production.display02 {

}


package edu.oakland.production.display02 {
    interface DisplayCommInterface {
        __
        .. Use Case 1 ..
        {abstract} + TrackData receiveRfidRequest(int rfidNum)
    }
}


package edu.oakland.production.display02 {
    interface DisplayComm2WayInterface {
        __
        .. Use Case 1 ..
        {abstract} + TrackData passRfidRequest(int rfidNum)
    }
}


package edu.oakland.production.display02 {
    interface DisplayCommManager {
        __
        .. Use Case 1 ..
        {abstract} + TrackData evaluateRfidRequest(int rfidNum)
    }
}


package edu.oakland.production.display02 {
    class DisplayCommInterfaceImplementation {
        DisplayComm2WayInterface receiver
        __
        {abstract} + DisplayCommInterface(DisplayComm2WayInterface receiver)
        .. Use Case 1 ..
        {abstract} + TrackData receiveRfidRequest(int rfidNum)
        {abstract} + TrackData passToComm2WayInterface(int rfidNum)

    }
}


package edu.oakland.production.display02 {
    class DisplayComm2WayInterfaceImplementation {
        DisplayCommManager manager
        __
        {abstract} + DisplayComm2WayInterfaceImplementation(DisplayCommManager manager)
        .. Use Case 1 ..
        {abstract} + TrackData passRfidRequest(int rfidNum)
        {abstract} + void determineUserRequestFormat(int rfidNum)
        {abstract} + void receiveRequestFromDisplayCommInterface(int rfidNum)
    }
}


package edu.oakland.production.display02 {
    class DisplayCommManagerImplementation {
        MiddlewareCommInterface middleware
        __
        {abstract} + DisplayCommManagerImplementation(MiddlewareCommInterface middleware)
        .. Use Case 1 ..
        {abstract} + TrackData evaluateRfidRequest(int rfidNum)
        {abstract} + TrackData passRequestToMiddlewareCommInterface(int rfidNum)
        {abstract} + void receiveRequestFromDisplay2WayInterface(int rfidNum)

    }
}



package edu.oakland.test.display02 {
    
}


package edu.oakland.test.display02 {
    class DisplayCommInterfaceImplementationTests {

    }
}


package edu.oakland.test.display02 {
    class DisplayComm2WayInterfaceImplementationTests {

    }
}


package edu.oakland.test.display02 {
    class DisplayCommManagerImplementationTests {

    }
}


package edu.oakland.test.display02 {
    class TrackDataPlotterTests {

    }
}


package edu.oakland.test.display02 {
    class DisplayComm2WayInterfaceStub {
        __
        .. Use Case 1 ..
        {abstract} + TrackData passRfidRequest(int rfidNum)
    }
}


package edu.oakland.test.display02 {
    class DisplayCommManagerStub {
        __
        .. Use Case 1 ..
        + TrackData evaluateRfidRequest(int rfidNum)
    }
}


package edu.oakland.test.display02 {
    class MiddlewareCommInterfaceStub {
        __
        .. Use Case 1 ..
        + TrackData requestRfid(int rfid)
    }
}



package edu.oakland.helper.display02 {

}


package edu.oakland.helper.display02 {
    class TrackDataPlotter {
    _
    .. Use Case 1 ..
    {abstract} + TrackDataPlotter()   
    
    }
}



@enduml

PlantUML version 1.2020.02(Sun Mar 01 10:22:07 GMT 2020)
(GPL source distribution)
Java Runtime: OpenJDK Runtime Environment
JVM: OpenJDK 64-Bit Server VM
Java Version: 11.0.9+11-Ubuntu-0ubuntu1
Operating System: Linux
Default Encoding: ANSI_X3.4-1968
Language: en
Country: US
--></g></svg>