<?xml version="1.0" encoding="UTF-8" standalone="no"?><svg xmlns="http://www.w3.org/2000/svg" xmlns:xlink="http://www.w3.org/1999/xlink" contentScriptType="application/ecmascript" contentStyleType="text/css" height="361px" preserveAspectRatio="none" style="width:2663px;height:361px;" version="1.1" viewBox="0 0 2663 361" width="2663px" zoomAndPan="magnify"><defs><filter height="300%" id="fjwgyzmnnxbyq" width="300%" x="-1" y="-1"><feGaussianBlur result="blurOut" stdDeviation="2.0"/><feColorMatrix in="blurOut" result="blurOut2" type="matrix" values="0 0 0 0 0 0 0 0 0 0 0 0 0 0 0 0 0 0 .4 0"/><feOffset dx="4.0" dy="4.0" in="blurOut2" result="blurOut3"/><feBlend in="SourceGraphic" in2="blurOut3" mode="normal"/></filter></defs><g><!--MD5=[fe59aae6f7bfe371a9c197ec1f7f843a]
cluster edu.oakland.production.display02--><polygon fill="#FFFFFF" filter="url(#fjwgyzmnnxbyq)" points="22,38.5,295,38.5,302,60.7969,1028,60.7969,1028,349,22,349,22,38.5" style="stroke: #000000; stroke-width: 1.5;"/><line style="stroke: #000000; stroke-width: 1.5;" x1="22" x2="302" y1="60.7969" y2="60.7969"/><text fill="#000000" font-family="sans-serif" font-size="14" font-weight="bold" lengthAdjust="spacingAndGlyphs" textLength="267" x="26" y="53.4951">edu.oakland.production.display02</text><!--MD5=[9258003ec405d300d3379b4a3d8dd6ad]
cluster edu.oakland.test.display02--><polygon fill="#FFFFFF" filter="url(#fjwgyzmnnxbyq)" points="1052,53.5,1270,53.5,1277,75.7969,2297,75.7969,2297,334.5,1052,334.5,1052,53.5" style="stroke: #000000; stroke-width: 1.5;"/><line style="stroke: #000000; stroke-width: 1.5;" x1="1052" x2="1277" y1="75.7969" y2="75.7969"/><text fill="#000000" font-family="sans-serif" font-size="14" font-weight="bold" lengthAdjust="spacingAndGlyphs" textLength="212" x="1056" y="68.4951">edu.oakland.test.display02</text><!--MD5=[33504725b8a69ba2207f0a836957a91c]
cluster edu.oakland.production.middleware02--><polygon fill="#FFFFFF" filter="url(#fjwgyzmnnxbyq)" points="2321,24,2631,24,2638,46.2969,2641,46.2969,2641,182,2321,182,2321,24" style="stroke: #000000; stroke-width: 1.5;"/><line style="stroke: #000000; stroke-width: 1.5;" x1="2321" x2="2638" y1="46.2969" y2="46.2969"/><text fill="#000000" font-family="sans-serif" font-size="14" font-weight="bold" lengthAdjust="spacingAndGlyphs" textLength="304" x="2325" y="38.9951">edu.oakland.production.middleware02</text><!--MD5=[a502031b5a5384de0a21e6ee820fd3b2]
cluster edu.oakland.helper.display02--><polygon fill="#FFFFFF" filter="url(#fjwgyzmnnxbyq)" points="2321,220.5,2559,220.5,2566,242.7969,2569,242.7969,2569,319.5,2321,319.5,2321,220.5" style="stroke: #000000; stroke-width: 1.5;"/><line style="stroke: #000000; stroke-width: 1.5;" x1="2321" x2="2566" y1="242.7969" y2="242.7969"/><text fill="#000000" font-family="sans-serif" font-size="14" font-weight="bold" lengthAdjust="spacingAndGlyphs" textLength="232" x="2325" y="235.4951">edu.oakland.helper.display02</text><!--MD5=[c8d1e3134fecb0c949fd2a76cc0bb992]
class DisplayCommInterface--><rect fill="#FEFECE" filter="url(#fjwgyzmnnxbyq)" height="77.6094" id="DisplayCommInterface" style="stroke: #A80036; stroke-width: 1.5;" width="268" x="38" y="73.5"/><ellipse cx="98.25" cy="89.5" fill="#B4A7E5" rx="11" ry="11" style="stroke: #A80036; stroke-width: 1.0;"/><path d="M94.1719,85.2656 L94.1719,83.1094 L101.5625,83.1094 L101.5625,85.2656 L99.0938,85.2656 L99.0938,93.3438 L101.5625,93.3438 L101.5625,95.5 L94.1719,95.5 L94.1719,93.3438 L96.6406,93.3438 L96.6406,85.2656 L94.1719,85.2656 Z "/><text fill="#000000" font-family="sans-serif" font-size="12" font-style="italic" lengthAdjust="spacingAndGlyphs" textLength="139" x="118.75" y="93.6543">DisplayCommInterface</text><line style="stroke: #A80036; stroke-width: 1.5;" x1="39" x2="305" y1="105.5" y2="105.5"/><line style="stroke: #A80036; stroke-width: 1.5;" x1="39" x2="305" y1="113.5" y2="113.5"/><ellipse cx="49" cy="141.3047" fill="#84BE84" rx="3" ry="3" style="stroke: #038048; stroke-width: 1.0;"/><text fill="#000000" font-family="sans-serif" font-size="11" font-style="italic" lengthAdjust="spacingAndGlyphs" textLength="242" x="58" y="144.5151">TrackData receiveRfidRequest(int rfidNum)</text><line style="stroke: #A80036; stroke-width: 1.0; stroke-dasharray: 1.0,2.0;" x1="39" x2="139" y1="127.9023" y2="127.9023"/><text fill="#000000" font-family="sans-serif" font-size="11" lengthAdjust="spacingAndGlyphs" textLength="66" x="139" y="131.2104">Use Case 1</text><line style="stroke: #A80036; stroke-width: 1.0; stroke-dasharray: 1.0,2.0;" x1="205" x2="305" y1="127.9023" y2="127.9023"/><!--MD5=[f6b51b5f862da5ce226c62e411e84628]
class DisplayComm2WayInterface--><rect fill="#FEFECE" filter="url(#fjwgyzmnnxbyq)" height="77.6094" id="DisplayComm2WayInterface" style="stroke: #A80036; stroke-width: 1.5;" width="252" x="424" y="73.5"/><ellipse cx="459.7" cy="89.5" fill="#B4A7E5" rx="11" ry="11" style="stroke: #A80036; stroke-width: 1.0;"/><path d="M455.6219,85.2656 L455.6219,83.1094 L463.0125,83.1094 L463.0125,85.2656 L460.5438,85.2656 L460.5438,93.3438 L463.0125,93.3438 L463.0125,95.5 L455.6219,95.5 L455.6219,93.3438 L458.0906,93.3438 L458.0906,85.2656 L455.6219,85.2656 Z "/><text fill="#000000" font-family="sans-serif" font-size="12" font-style="italic" lengthAdjust="spacingAndGlyphs" textLength="174" x="478.3" y="93.6543">DisplayComm2WayInterface</text><line style="stroke: #A80036; stroke-width: 1.5;" x1="425" x2="675" y1="105.5" y2="105.5"/><line style="stroke: #A80036; stroke-width: 1.5;" x1="425" x2="675" y1="113.5" y2="113.5"/><ellipse cx="435" cy="141.3047" fill="#84BE84" rx="3" ry="3" style="stroke: #038048; stroke-width: 1.0;"/><text fill="#000000" font-family="sans-serif" font-size="11" font-style="italic" lengthAdjust="spacingAndGlyphs" textLength="226" x="444" y="144.5151">TrackData passRfidRequest(int rfidNum)</text><line style="stroke: #A80036; stroke-width: 1.0; stroke-dasharray: 1.0,2.0;" x1="425" x2="517" y1="127.9023" y2="127.9023"/><text fill="#000000" font-family="sans-serif" font-size="11" lengthAdjust="spacingAndGlyphs" textLength="66" x="517" y="131.2104">Use Case 1</text><line style="stroke: #A80036; stroke-width: 1.0; stroke-dasharray: 1.0,2.0;" x1="583" x2="675" y1="127.9023" y2="127.9023"/><!--MD5=[6aeb72f2773d7cabb45309482beeff0a]
class DisplayCommManager--><rect fill="#FEFECE" filter="url(#fjwgyzmnnxbyq)" height="77.6094" id="DisplayCommManager" style="stroke: #A80036; stroke-width: 1.5;" width="275" x="736.5" y="73.5"/><ellipse cx="801.25" cy="89.5" fill="#B4A7E5" rx="11" ry="11" style="stroke: #A80036; stroke-width: 1.0;"/><path d="M797.1719,85.2656 L797.1719,83.1094 L804.5625,83.1094 L804.5625,85.2656 L802.0938,85.2656 L802.0938,93.3438 L804.5625,93.3438 L804.5625,95.5 L797.1719,95.5 L797.1719,93.3438 L799.6406,93.3438 L799.6406,85.2656 L797.1719,85.2656 Z "/><text fill="#000000" font-family="sans-serif" font-size="12" font-style="italic" lengthAdjust="spacingAndGlyphs" textLength="137" x="821.75" y="93.6543">DisplayCommManager</text><line style="stroke: #A80036; stroke-width: 1.5;" x1="737.5" x2="1010.5" y1="105.5" y2="105.5"/><line style="stroke: #A80036; stroke-width: 1.5;" x1="737.5" x2="1010.5" y1="113.5" y2="113.5"/><ellipse cx="747.5" cy="141.3047" fill="#84BE84" rx="3" ry="3" style="stroke: #038048; stroke-width: 1.0;"/><text fill="#000000" font-family="sans-serif" font-size="11" font-style="italic" lengthAdjust="spacingAndGlyphs" textLength="249" x="756.5" y="144.5151">TrackData evaluateRfidRequest(int rfidNum)</text><line style="stroke: #A80036; stroke-width: 1.0; stroke-dasharray: 1.0,2.0;" x1="737.5" x2="841" y1="127.9023" y2="127.9023"/><text fill="#000000" font-family="sans-serif" font-size="11" lengthAdjust="spacingAndGlyphs" textLength="66" x="841" y="131.2104">Use Case 1</text><line style="stroke: #A80036; stroke-width: 1.0; stroke-dasharray: 1.0,2.0;" x1="907" x2="1010.5" y1="127.9023" y2="127.9023"/><!--MD5=[a35092e604da7274febf4e2cf9a25087]
class DisplayCommInterfaceImplementation--><rect fill="#FEFECE" filter="url(#fjwgyzmnnxbyq)" height="107.2188" id="DisplayCommInterfaceImplementation" style="stroke: #A80036; stroke-width: 1.5;" width="268" x="38" y="226"/><ellipse cx="53.45" cy="242" fill="#ADD1B2" rx="11" ry="11" style="stroke: #A80036; stroke-width: 1.0;"/><path d="M56.4188,247.6406 Q55.8406,247.9375 55.2,248.0781 Q54.5594,248.2344 53.8563,248.2344 Q51.3563,248.2344 50.0281,246.5938 Q48.7156,244.9375 48.7156,241.8125 Q48.7156,238.6875 50.0281,237.0313 Q51.3563,235.375 53.8563,235.375 Q54.5594,235.375 55.2,235.5313 Q55.8563,235.6875 56.4188,235.9844 L56.4188,238.7031 Q55.7938,238.125 55.2,237.8594 Q54.6063,237.5781 53.9813,237.5781 Q52.6375,237.5781 51.95,238.6563 Q51.2625,239.7188 51.2625,241.8125 Q51.2625,243.9063 51.95,244.9844 Q52.6375,246.0469 53.9813,246.0469 Q54.6063,246.0469 55.2,245.7813 Q55.7938,245.5 56.4188,244.9219 L56.4188,247.6406 Z "/><text fill="#000000" font-family="sans-serif" font-size="12" lengthAdjust="spacingAndGlyphs" textLength="235" x="67.55" y="246.1543">DisplayCommInterfaceImplementation</text><line style="stroke: #A80036; stroke-width: 1.5;" x1="39" x2="305" y1="258" y2="258"/><line style="stroke: #A80036; stroke-width: 1.5;" x1="39" x2="305" y1="266" y2="266"/><ellipse cx="49" cy="293.8047" fill="#84BE84" rx="3" ry="3" style="stroke: #038048; stroke-width: 1.0;"/><text fill="#000000" font-family="sans-serif" font-size="11" font-style="italic" lengthAdjust="spacingAndGlyphs" textLength="242" x="58" y="297.0151">TrackData receiveRfidRequest(int rfidNum)</text><line style="stroke: #A80036; stroke-width: 1.0; stroke-dasharray: 1.0,2.0;" x1="39" x2="139" y1="280.4023" y2="280.4023"/><text fill="#000000" font-family="sans-serif" font-size="11" lengthAdjust="spacingAndGlyphs" textLength="66" x="139" y="283.7104">Use Case 1</text><line style="stroke: #A80036; stroke-width: 1.0; stroke-dasharray: 1.0,2.0;" x1="205" x2="305" y1="280.4023" y2="280.4023"/><text fill="#000000" font-family="sans-serif" font-size="11" lengthAdjust="spacingAndGlyphs" textLength="0" x="48" y="326.6245"/><line style="stroke: #A80036; stroke-width: 1.0; stroke-dasharray: 1.0,2.0;" x1="39" x2="139" y1="310.0117" y2="310.0117"/><text fill="#000000" font-family="sans-serif" font-size="11" lengthAdjust="spacingAndGlyphs" textLength="66" x="139" y="313.3198">Use Case 2</text><line style="stroke: #A80036; stroke-width: 1.0; stroke-dasharray: 1.0,2.0;" x1="205" x2="305" y1="310.0117" y2="310.0117"/><!--MD5=[46657c2900260d4d40350fe3f8c544df]
class DisplayComm2WayInterfaceImplementation--><rect fill="#FEFECE" filter="url(#fjwgyzmnnxbyq)" height="103.2188" id="DisplayComm2WayInterfaceImplementation" style="stroke: #A80036; stroke-width: 1.5;" width="370" x="341" y="228"/><ellipse cx="387.75" cy="244" fill="#ADD1B2" rx="11" ry="11" style="stroke: #A80036; stroke-width: 1.0;"/><path d="M390.7188,249.6406 Q390.1406,249.9375 389.5,250.0781 Q388.8594,250.2344 388.1563,250.2344 Q385.6563,250.2344 384.3281,248.5938 Q383.0156,246.9375 383.0156,243.8125 Q383.0156,240.6875 384.3281,239.0313 Q385.6563,237.375 388.1563,237.375 Q388.8594,237.375 389.5,237.5313 Q390.1563,237.6875 390.7188,237.9844 L390.7188,240.7031 Q390.0938,240.125 389.5,239.8594 Q388.9063,239.5781 388.2813,239.5781 Q386.9375,239.5781 386.25,240.6563 Q385.5625,241.7188 385.5625,243.8125 Q385.5625,245.9063 386.25,246.9844 Q386.9375,248.0469 388.2813,248.0469 Q388.9063,248.0469 389.5,247.7813 Q390.0938,247.5 390.7188,246.9219 L390.7188,249.6406 Z "/><text fill="#000000" font-family="sans-serif" font-size="12" lengthAdjust="spacingAndGlyphs" textLength="268" x="408.25" y="248.1543">DisplayComm2WayInterfaceImplementation</text><line style="stroke: #A80036; stroke-width: 1.5;" x1="342" x2="710" y1="260" y2="260"/><line style="stroke: #A80036; stroke-width: 1.5;" x1="342" x2="710" y1="268" y2="268"/><ellipse cx="352" cy="295.8047" fill="#84BE84" rx="3" ry="3" style="stroke: #038048; stroke-width: 1.0;"/><text fill="#000000" font-family="sans-serif" font-size="11" font-style="italic" lengthAdjust="spacingAndGlyphs" textLength="226" x="361" y="299.0151">TrackData passRfidRequest(int rfidNum)</text><ellipse cx="352" cy="308.6094" fill="#84BE84" rx="3" ry="3" style="stroke: #038048; stroke-width: 1.0;"/><text fill="#000000" font-family="sans-serif" font-size="11" font-style="italic" lengthAdjust="spacingAndGlyphs" textLength="269" x="361" y="311.8198">void determineUserRequestFormat(int rfidNum)</text><ellipse cx="352" cy="321.4141" fill="#84BE84" rx="3" ry="3" style="stroke: #038048; stroke-width: 1.0;"/><text fill="#000000" font-family="sans-serif" font-size="11" font-style="italic" lengthAdjust="spacingAndGlyphs" textLength="344" x="361" y="324.6245">void receiveRequestFromDisplayCommInterface(int rfidNum)</text><line style="stroke: #A80036; stroke-width: 1.0; stroke-dasharray: 1.0,2.0;" x1="342" x2="493" y1="282.4023" y2="282.4023"/><text fill="#000000" font-family="sans-serif" font-size="11" lengthAdjust="spacingAndGlyphs" textLength="66" x="493" y="285.7104">Use Case 1</text><line style="stroke: #A80036; stroke-width: 1.0; stroke-dasharray: 1.0,2.0;" x1="559" x2="710" y1="282.4023" y2="282.4023"/><!--MD5=[3a27b63ddb357afc5dde5581215f51f9]
class DisplayCommManagerImplementation--><rect fill="#FEFECE" filter="url(#fjwgyzmnnxbyq)" height="107.2188" id="DisplayCommManagerImplementation" style="stroke: #A80036; stroke-width: 1.5;" width="266" x="746" y="226"/><ellipse cx="761" cy="242" fill="#ADD1B2" rx="11" ry="11" style="stroke: #A80036; stroke-width: 1.0;"/><path d="M763.9688,247.6406 Q763.3906,247.9375 762.75,248.0781 Q762.1094,248.2344 761.4063,248.2344 Q758.9063,248.2344 757.5781,246.5938 Q756.2656,244.9375 756.2656,241.8125 Q756.2656,238.6875 757.5781,237.0313 Q758.9063,235.375 761.4063,235.375 Q762.1094,235.375 762.75,235.5313 Q763.4063,235.6875 763.9688,235.9844 L763.9688,238.7031 Q763.3438,238.125 762.75,237.8594 Q762.1563,237.5781 761.5313,237.5781 Q760.1875,237.5781 759.5,238.6563 Q758.8125,239.7188 758.8125,241.8125 Q758.8125,243.9063 759.5,244.9844 Q760.1875,246.0469 761.5313,246.0469 Q762.1563,246.0469 762.75,245.7813 Q763.3438,245.5 763.9688,244.9219 L763.9688,247.6406 Z "/><text fill="#000000" font-family="sans-serif" font-size="12" lengthAdjust="spacingAndGlyphs" textLength="234" x="775" y="246.1543">DisplayCommManagerImplementation</text><line style="stroke: #A80036; stroke-width: 1.5;" x1="747" x2="1011" y1="258" y2="258"/><line style="stroke: #A80036; stroke-width: 1.5;" x1="747" x2="1011" y1="266" y2="266"/><text fill="#000000" font-family="sans-serif" font-size="11" lengthAdjust="spacingAndGlyphs" textLength="0" x="756" y="297.0151"/><line style="stroke: #A80036; stroke-width: 1.0; stroke-dasharray: 1.0,2.0;" x1="747" x2="846" y1="280.4023" y2="280.4023"/><text fill="#000000" font-family="sans-serif" font-size="11" lengthAdjust="spacingAndGlyphs" textLength="66" x="846" y="283.7104">Use Case 1</text><line style="stroke: #A80036; stroke-width: 1.0; stroke-dasharray: 1.0,2.0;" x1="912" x2="1011" y1="280.4023" y2="280.4023"/><text fill="#000000" font-family="sans-serif" font-size="11" lengthAdjust="spacingAndGlyphs" textLength="0" x="756" y="326.6245"/><line style="stroke: #A80036; stroke-width: 1.0; stroke-dasharray: 1.0,2.0;" x1="747" x2="846" y1="310.0117" y2="310.0117"/><text fill="#000000" font-family="sans-serif" font-size="11" lengthAdjust="spacingAndGlyphs" textLength="66" x="846" y="313.3198">Use Case 2</text><line style="stroke: #A80036; stroke-width: 1.0; stroke-dasharray: 1.0,2.0;" x1="912" x2="1011" y1="310.0117" y2="310.0117"/><!--MD5=[d454b7777f115113290d89683d7a426c]
class DisplayCommInterfaceImplementationTests--><rect fill="#FEFECE" filter="url(#fjwgyzmnnxbyq)" height="48" id="DisplayCommInterfaceImplementationTests" style="stroke: #A80036; stroke-width: 1.5;" width="301" x="1068.5" y="88.5"/><ellipse cx="1083.5" cy="104.5" fill="#ADD1B2" rx="11" ry="11" style="stroke: #A80036; stroke-width: 1.0;"/><path d="M1086.4688,110.1406 Q1085.8906,110.4375 1085.25,110.5781 Q1084.6094,110.7344 1083.9063,110.7344 Q1081.4063,110.7344 1080.0781,109.0938 Q1078.7656,107.4375 1078.7656,104.3125 Q1078.7656,101.1875 1080.0781,99.5313 Q1081.4063,97.875 1083.9063,97.875 Q1084.6094,97.875 1085.25,98.0313 Q1085.9063,98.1875 1086.4688,98.4844 L1086.4688,101.2031 Q1085.8438,100.625 1085.25,100.3594 Q1084.6563,100.0781 1084.0313,100.0781 Q1082.6875,100.0781 1082,101.1563 Q1081.3125,102.2188 1081.3125,104.3125 Q1081.3125,106.4063 1082,107.4844 Q1082.6875,108.5469 1084.0313,108.5469 Q1084.6563,108.5469 1085.25,108.2813 Q1085.8438,108 1086.4688,107.4219 L1086.4688,110.1406 Z "/><text fill="#000000" font-family="sans-serif" font-size="12" lengthAdjust="spacingAndGlyphs" textLength="269" x="1097.5" y="108.6543">DisplayCommInterfaceImplementationTests</text><line style="stroke: #A80036; stroke-width: 1.5;" x1="1069.5" x2="1368.5" y1="120.5" y2="120.5"/><line style="stroke: #A80036; stroke-width: 1.5;" x1="1069.5" x2="1368.5" y1="128.5" y2="128.5"/><!--MD5=[a333ac13e0fdf2a5898aafabd38d3c1b]
class DisplayComm2WayInterfaceStub--><rect fill="#FEFECE" filter="url(#fjwgyzmnnxbyq)" height="77.6094" id="DisplayComm2WayInterfaceStub" style="stroke: #A80036; stroke-width: 1.5;" width="252" x="1081" y="240.5"/><ellipse cx="1105" cy="256.5" fill="#ADD1B2" rx="11" ry="11" style="stroke: #A80036; stroke-width: 1.0;"/><path d="M1107.9688,262.1406 Q1107.3906,262.4375 1106.75,262.5781 Q1106.1094,262.7344 1105.4063,262.7344 Q1102.9063,262.7344 1101.5781,261.0938 Q1100.2656,259.4375 1100.2656,256.3125 Q1100.2656,253.1875 1101.5781,251.5313 Q1102.9063,249.875 1105.4063,249.875 Q1106.1094,249.875 1106.75,250.0313 Q1107.4063,250.1875 1107.9688,250.4844 L1107.9688,253.2031 Q1107.3438,252.625 1106.75,252.3594 Q1106.1563,252.0781 1105.5313,252.0781 Q1104.1875,252.0781 1103.5,253.1563 Q1102.8125,254.2188 1102.8125,256.3125 Q1102.8125,258.4063 1103.5,259.4844 Q1104.1875,260.5469 1105.5313,260.5469 Q1106.1563,260.5469 1106.75,260.2813 Q1107.3438,260 1107.9688,259.4219 L1107.9688,262.1406 Z "/><text fill="#000000" font-family="sans-serif" font-size="12" lengthAdjust="spacingAndGlyphs" textLength="200" x="1121" y="260.6543">DisplayComm2WayInterfaceStub</text><line style="stroke: #A80036; stroke-width: 1.5;" x1="1082" x2="1332" y1="272.5" y2="272.5"/><line style="stroke: #A80036; stroke-width: 1.5;" x1="1082" x2="1332" y1="280.5" y2="280.5"/><ellipse cx="1092" cy="308.3047" fill="#84BE84" rx="3" ry="3" style="stroke: #038048; stroke-width: 1.0;"/><text fill="#000000" font-family="sans-serif" font-size="11" font-style="italic" lengthAdjust="spacingAndGlyphs" textLength="226" x="1101" y="311.5151">TrackData passRfidRequest(int rfidNum)</text><line style="stroke: #A80036; stroke-width: 1.0; stroke-dasharray: 1.0,2.0;" x1="1082" x2="1174" y1="294.9023" y2="294.9023"/><text fill="#000000" font-family="sans-serif" font-size="11" lengthAdjust="spacingAndGlyphs" textLength="66" x="1174" y="298.2104">Use Case 1</text><line style="stroke: #A80036; stroke-width: 1.0; stroke-dasharray: 1.0,2.0;" x1="1240" x2="1332" y1="294.9023" y2="294.9023"/><!--MD5=[178181f4c7684560c711246055fc01d3]
class DisplayComm2WayInterfaceImplementationTests--><rect fill="#FEFECE" filter="url(#fjwgyzmnnxbyq)" height="48" id="DisplayComm2WayInterfaceImplementationTests" style="stroke: #A80036; stroke-width: 1.5;" width="334" x="1405" y="88.5"/><ellipse cx="1420" cy="104.5" fill="#ADD1B2" rx="11" ry="11" style="stroke: #A80036; stroke-width: 1.0;"/><path d="M1422.9688,110.1406 Q1422.3906,110.4375 1421.75,110.5781 Q1421.1094,110.7344 1420.4063,110.7344 Q1417.9063,110.7344 1416.5781,109.0938 Q1415.2656,107.4375 1415.2656,104.3125 Q1415.2656,101.1875 1416.5781,99.5313 Q1417.9063,97.875 1420.4063,97.875 Q1421.1094,97.875 1421.75,98.0313 Q1422.4063,98.1875 1422.9688,98.4844 L1422.9688,101.2031 Q1422.3438,100.625 1421.75,100.3594 Q1421.1563,100.0781 1420.5313,100.0781 Q1419.1875,100.0781 1418.5,101.1563 Q1417.8125,102.2188 1417.8125,104.3125 Q1417.8125,106.4063 1418.5,107.4844 Q1419.1875,108.5469 1420.5313,108.5469 Q1421.1563,108.5469 1421.75,108.2813 Q1422.3438,108 1422.9688,107.4219 L1422.9688,110.1406 Z "/><text fill="#000000" font-family="sans-serif" font-size="12" lengthAdjust="spacingAndGlyphs" textLength="302" x="1434" y="108.6543">DisplayComm2WayInterfaceImplementationTests</text><line style="stroke: #A80036; stroke-width: 1.5;" x1="1406" x2="1738" y1="120.5" y2="120.5"/><line style="stroke: #A80036; stroke-width: 1.5;" x1="1406" x2="1738" y1="128.5" y2="128.5"/><!--MD5=[2970358178d6cf57fc5a801b39eb8d0b]
class DisplayCommManagerStub--><rect fill="#FEFECE" filter="url(#fjwgyzmnnxbyq)" height="77.6094" id="DisplayCommManagerStub" style="stroke: #A80036; stroke-width: 1.5;" width="273" x="1402.5" y="240.5"/><ellipse cx="1451.75" cy="256.5" fill="#ADD1B2" rx="11" ry="11" style="stroke: #A80036; stroke-width: 1.0;"/><path d="M1454.7188,262.1406 Q1454.1406,262.4375 1453.5,262.5781 Q1452.8594,262.7344 1452.1563,262.7344 Q1449.6563,262.7344 1448.3281,261.0938 Q1447.0156,259.4375 1447.0156,256.3125 Q1447.0156,253.1875 1448.3281,251.5313 Q1449.6563,249.875 1452.1563,249.875 Q1452.8594,249.875 1453.5,250.0313 Q1454.1563,250.1875 1454.7188,250.4844 L1454.7188,253.2031 Q1454.0938,252.625 1453.5,252.3594 Q1452.9063,252.0781 1452.2813,252.0781 Q1450.9375,252.0781 1450.25,253.1563 Q1449.5625,254.2188 1449.5625,256.3125 Q1449.5625,258.4063 1450.25,259.4844 Q1450.9375,260.5469 1452.2813,260.5469 Q1452.9063,260.5469 1453.5,260.2813 Q1454.0938,260 1454.7188,259.4219 L1454.7188,262.1406 Z "/><text fill="#000000" font-family="sans-serif" font-size="12" lengthAdjust="spacingAndGlyphs" textLength="166" x="1472.25" y="260.6543">DisplayCommManagerStub</text><line style="stroke: #A80036; stroke-width: 1.5;" x1="1403.5" x2="1674.5" y1="272.5" y2="272.5"/><line style="stroke: #A80036; stroke-width: 1.5;" x1="1403.5" x2="1674.5" y1="280.5" y2="280.5"/><ellipse cx="1413.5" cy="308.3047" fill="#84BE84" rx="3" ry="3" style="stroke: #038048; stroke-width: 1.0;"/><text fill="#000000" font-family="sans-serif" font-size="11" lengthAdjust="spacingAndGlyphs" textLength="247" x="1422.5" y="311.5151">TrackData evaluateRfidRequest(int rfidNum)</text><line style="stroke: #A80036; stroke-width: 1.0; stroke-dasharray: 1.0,2.0;" x1="1403.5" x2="1506" y1="294.9023" y2="294.9023"/><text fill="#000000" font-family="sans-serif" font-size="11" lengthAdjust="spacingAndGlyphs" textLength="66" x="1506" y="298.2104">Use Case 1</text><line style="stroke: #A80036; stroke-width: 1.0; stroke-dasharray: 1.0,2.0;" x1="1572" x2="1674.5" y1="294.9023" y2="294.9023"/><!--MD5=[937d6d8ff87a99d0d5dcd66ee05a1fa4]
class DisplayCommManagerImplementationTests--><rect fill="#FEFECE" filter="url(#fjwgyzmnnxbyq)" height="48" id="DisplayCommManagerImplementationTests" style="stroke: #A80036; stroke-width: 1.5;" width="300" x="1774" y="88.5"/><ellipse cx="1789" cy="104.5" fill="#ADD1B2" rx="11" ry="11" style="stroke: #A80036; stroke-width: 1.0;"/><path d="M1791.9688,110.1406 Q1791.3906,110.4375 1790.75,110.5781 Q1790.1094,110.7344 1789.4063,110.7344 Q1786.9063,110.7344 1785.5781,109.0938 Q1784.2656,107.4375 1784.2656,104.3125 Q1784.2656,101.1875 1785.5781,99.5313 Q1786.9063,97.875 1789.4063,97.875 Q1790.1094,97.875 1790.75,98.0313 Q1791.4063,98.1875 1791.9688,98.4844 L1791.9688,101.2031 Q1791.3438,100.625 1790.75,100.3594 Q1790.1563,100.0781 1789.5313,100.0781 Q1788.1875,100.0781 1787.5,101.1563 Q1786.8125,102.2188 1786.8125,104.3125 Q1786.8125,106.4063 1787.5,107.4844 Q1788.1875,108.5469 1789.5313,108.5469 Q1790.1563,108.5469 1790.75,108.2813 Q1791.3438,108 1791.9688,107.4219 L1791.9688,110.1406 Z "/><text fill="#000000" font-family="sans-serif" font-size="12" lengthAdjust="spacingAndGlyphs" textLength="268" x="1803" y="108.6543">DisplayCommManagerImplementationTests</text><line style="stroke: #A80036; stroke-width: 1.5;" x1="1775" x2="2073" y1="120.5" y2="120.5"/><line style="stroke: #A80036; stroke-width: 1.5;" x1="1775" x2="2073" y1="128.5" y2="128.5"/><!--MD5=[cf56a65163663c6c6c7b84cd7c204b97]
class MiddlewareCommInterfaceStub--><rect fill="#FEFECE" filter="url(#fjwgyzmnnxbyq)" height="77.6094" id="MiddlewareCommInterfaceStub" style="stroke: #A80036; stroke-width: 1.5;" width="225" x="1933.5" y="240.5"/><ellipse cx="1948.5" cy="256.5" fill="#ADD1B2" rx="11" ry="11" style="stroke: #A80036; stroke-width: 1.0;"/><path d="M1951.4688,262.1406 Q1950.8906,262.4375 1950.25,262.5781 Q1949.6094,262.7344 1948.9063,262.7344 Q1946.4063,262.7344 1945.0781,261.0938 Q1943.7656,259.4375 1943.7656,256.3125 Q1943.7656,253.1875 1945.0781,251.5313 Q1946.4063,249.875 1948.9063,249.875 Q1949.6094,249.875 1950.25,250.0313 Q1950.9063,250.1875 1951.4688,250.4844 L1951.4688,253.2031 Q1950.8438,252.625 1950.25,252.3594 Q1949.6563,252.0781 1949.0313,252.0781 Q1947.6875,252.0781 1947,253.1563 Q1946.3125,254.2188 1946.3125,256.3125 Q1946.3125,258.4063 1947,259.4844 Q1947.6875,260.5469 1949.0313,260.5469 Q1949.6563,260.5469 1950.25,260.2813 Q1950.8438,260 1951.4688,259.4219 L1951.4688,262.1406 Z "/><text fill="#000000" font-family="sans-serif" font-size="12" lengthAdjust="spacingAndGlyphs" textLength="193" x="1962.5" y="260.6543">MiddlewareCommInterfaceStub</text><line style="stroke: #A80036; stroke-width: 1.5;" x1="1934.5" x2="2157.5" y1="272.5" y2="272.5"/><line style="stroke: #A80036; stroke-width: 1.5;" x1="1934.5" x2="2157.5" y1="280.5" y2="280.5"/><ellipse cx="1944.5" cy="308.3047" fill="#84BE84" rx="3" ry="3" style="stroke: #038048; stroke-width: 1.0;"/><text fill="#000000" font-family="sans-serif" font-size="11" lengthAdjust="spacingAndGlyphs" textLength="171" x="1953.5" y="311.5151">TrackData requestRfid(int rfid)</text><line style="stroke: #A80036; stroke-width: 1.0; stroke-dasharray: 1.0,2.0;" x1="1934.5" x2="2013" y1="294.9023" y2="294.9023"/><text fill="#000000" font-family="sans-serif" font-size="11" lengthAdjust="spacingAndGlyphs" textLength="66" x="2013" y="298.2104">Use Case 1</text><line style="stroke: #A80036; stroke-width: 1.0; stroke-dasharray: 1.0,2.0;" x1="2079" x2="2157.5" y1="294.9023" y2="294.9023"/><!--MD5=[930c8140e7c1cb8e71aa7cd49967748e]
class TrackDataPlotterTests--><rect fill="#FEFECE" filter="url(#fjwgyzmnnxbyq)" height="48" id="TrackDataPlotterTests" style="stroke: #A80036; stroke-width: 1.5;" width="172" x="2109" y="88.5"/><ellipse cx="2124" cy="104.5" fill="#ADD1B2" rx="11" ry="11" style="stroke: #A80036; stroke-width: 1.0;"/><path d="M2126.9688,110.1406 Q2126.3906,110.4375 2125.75,110.5781 Q2125.1094,110.7344 2124.4063,110.7344 Q2121.9063,110.7344 2120.5781,109.0938 Q2119.2656,107.4375 2119.2656,104.3125 Q2119.2656,101.1875 2120.5781,99.5313 Q2121.9063,97.875 2124.4063,97.875 Q2125.1094,97.875 2125.75,98.0313 Q2126.4063,98.1875 2126.9688,98.4844 L2126.9688,101.2031 Q2126.3438,100.625 2125.75,100.3594 Q2125.1563,100.0781 2124.5313,100.0781 Q2123.1875,100.0781 2122.5,101.1563 Q2121.8125,102.2188 2121.8125,104.3125 Q2121.8125,106.4063 2122.5,107.4844 Q2123.1875,108.5469 2124.5313,108.5469 Q2125.1563,108.5469 2125.75,108.2813 Q2126.3438,108 2126.9688,107.4219 L2126.9688,110.1406 Z "/><text fill="#000000" font-family="sans-serif" font-size="12" lengthAdjust="spacingAndGlyphs" textLength="140" x="2138" y="108.6543">TrackDataPlotterTests</text><line style="stroke: #A80036; stroke-width: 1.5;" x1="2110" x2="2280" y1="120.5" y2="120.5"/><line style="stroke: #A80036; stroke-width: 1.5;" x1="2110" x2="2280" y1="128.5" y2="128.5"/><!--MD5=[d3cb230b9040bd9072bb1f490e167601]
class MiddlewareCommInterface--><rect fill="#FEFECE" filter="url(#fjwgyzmnnxbyq)" height="107.2188" id="MiddlewareCommInterface" style="stroke: #A80036; stroke-width: 1.5;" width="198" x="2337" y="59"/><ellipse cx="2352" cy="75" fill="#B4A7E5" rx="11" ry="11" style="stroke: #A80036; stroke-width: 1.0;"/><path d="M2347.9219,70.7656 L2347.9219,68.6094 L2355.3125,68.6094 L2355.3125,70.7656 L2352.8438,70.7656 L2352.8438,78.8438 L2355.3125,78.8438 L2355.3125,81 L2347.9219,81 L2347.9219,78.8438 L2350.3906,78.8438 L2350.3906,70.7656 L2347.9219,70.7656 Z "/><text fill="#000000" font-family="sans-serif" font-size="12" font-style="italic" lengthAdjust="spacingAndGlyphs" textLength="166" x="2366" y="79.1543">MiddlewareCommInterface</text><line style="stroke: #A80036; stroke-width: 1.5;" x1="2338" x2="2534" y1="91" y2="91"/><line style="stroke: #A80036; stroke-width: 1.5;" x1="2338" x2="2534" y1="99" y2="99"/><ellipse cx="2348" cy="126.8047" fill="#84BE84" rx="3" ry="3" style="stroke: #038048; stroke-width: 1.0;"/><text fill="#000000" font-family="sans-serif" font-size="11" font-style="italic" lengthAdjust="spacingAndGlyphs" textLength="171" x="2357" y="130.0151">TrackData requestRfid(int rfid)</text><line style="stroke: #A80036; stroke-width: 1.0; stroke-dasharray: 1.0,2.0;" x1="2338" x2="2403" y1="113.4023" y2="113.4023"/><text fill="#000000" font-family="sans-serif" font-size="11" lengthAdjust="spacingAndGlyphs" textLength="66" x="2403" y="116.7104">Use Case 1</text><line style="stroke: #A80036; stroke-width: 1.0; stroke-dasharray: 1.0,2.0;" x1="2469" x2="2534" y1="113.4023" y2="113.4023"/><text fill="#000000" font-family="sans-serif" font-size="11" lengthAdjust="spacingAndGlyphs" textLength="0" x="2347" y="159.6245"/><line style="stroke: #A80036; stroke-width: 1.0; stroke-dasharray: 1.0,2.0;" x1="2338" x2="2403" y1="143.0117" y2="143.0117"/><text fill="#000000" font-family="sans-serif" font-size="11" lengthAdjust="spacingAndGlyphs" textLength="66" x="2403" y="146.3198">Use Case 2</text><line style="stroke: #A80036; stroke-width: 1.0; stroke-dasharray: 1.0,2.0;" x1="2469" x2="2534" y1="143.0117" y2="143.0117"/><!--MD5=[c986427b061286eff33e87a088ad4bf9]
class TrackDataPlotter--><rect fill="#FEFECE" filter="url(#fjwgyzmnnxbyq)" height="48" id="TrackDataPlotter" style="stroke: #A80036; stroke-width: 1.5;" width="138" x="2337" y="255.5"/><ellipse cx="2352" cy="271.5" fill="#ADD1B2" rx="11" ry="11" style="stroke: #A80036; stroke-width: 1.0;"/><path d="M2354.9688,277.1406 Q2354.3906,277.4375 2353.75,277.5781 Q2353.1094,277.7344 2352.4063,277.7344 Q2349.9063,277.7344 2348.5781,276.0938 Q2347.2656,274.4375 2347.2656,271.3125 Q2347.2656,268.1875 2348.5781,266.5313 Q2349.9063,264.875 2352.4063,264.875 Q2353.1094,264.875 2353.75,265.0313 Q2354.4063,265.1875 2354.9688,265.4844 L2354.9688,268.2031 Q2354.3438,267.625 2353.75,267.3594 Q2353.1563,267.0781 2352.5313,267.0781 Q2351.1875,267.0781 2350.5,268.1563 Q2349.8125,269.2188 2349.8125,271.3125 Q2349.8125,273.4063 2350.5,274.4844 Q2351.1875,275.5469 2352.5313,275.5469 Q2353.1563,275.5469 2353.75,275.2813 Q2354.3438,275 2354.9688,274.4219 L2354.9688,277.1406 Z "/><text fill="#000000" font-family="sans-serif" font-size="12" lengthAdjust="spacingAndGlyphs" textLength="106" x="2366" y="275.6543">TrackDataPlotter</text><line style="stroke: #A80036; stroke-width: 1.5;" x1="2338" x2="2474" y1="287.5" y2="287.5"/><line style="stroke: #A80036; stroke-width: 1.5;" x1="2338" x2="2474" y1="295.5" y2="295.5"/><!--MD5=[77bc37423dd8876786830fad4054e33b]
reverse link DisplayCommInterface to DisplayCommInterfaceImplementation--><path d="M172,171.81 C172,189.38 172,208.56 172,225.75 " fill="none" id="DisplayCommInterface&lt;-DisplayCommInterfaceImplementation" style="stroke: #A80036; stroke-width: 1.0; stroke-dasharray: 7.0,7.0;"/><polygon fill="none" points="165,171.77,172,151.77,179,171.77,165,171.77" style="stroke: #A80036; stroke-width: 1.0;"/><!--MD5=[4e991cf787e933c55089f97eae394828]
reverse link DisplayComm2WayInterface to DisplayComm2WayInterfaceImplementation--><path d="M541.51,171.85 C538.85,190.16 535.93,210.21 533.36,227.93 " fill="none" id="DisplayComm2WayInterface&lt;-DisplayComm2WayInterfaceImplementation" style="stroke: #A80036; stroke-width: 1.0; stroke-dasharray: 7.0,7.0;"/><polygon fill="none" points="534.63,170.55,544.43,151.77,548.48,172.57,534.63,170.55" style="stroke: #A80036; stroke-width: 1.0;"/><!--MD5=[5beed6c3c7e4a84a4bfaa95bdf8cce79]
reverse link DisplayCommManager to DisplayCommManagerImplementation--><path d="M875.77,171.81 C876.3,189.38 876.88,208.56 877.4,225.75 " fill="none" id="DisplayCommManager&lt;-DisplayCommManagerImplementation" style="stroke: #A80036; stroke-width: 1.0; stroke-dasharray: 7.0,7.0;"/><polygon fill="none" points="868.77,171.97,875.16,151.77,882.76,171.55,868.77,171.97" style="stroke: #A80036; stroke-width: 1.0;"/><!--MD5=[6aaeadb42451b39b4e2cdcf83e2bb4cd]
reverse link DisplayComm2WayInterface to DisplayComm2WayInterfaceStub--><path d="M637.96,160.36 C663.44,171.98 691.75,183.08 719,190 C852.45,223.92 893.41,183.4 1028,212.5 C1058.27,219.05 1090.31,229.61 1118.78,240.39 " fill="none" id="DisplayComm2WayInterface&lt;-DisplayComm2WayInterfaceStub" style="stroke: #A80036; stroke-width: 1.0; stroke-dasharray: 7.0,7.0;"/><polygon fill="none" points="634.61,166.52,619.52,151.65,640.59,153.87,634.61,166.52" style="stroke: #A80036; stroke-width: 1.0;"/><!--MD5=[9a02b467888c5123255f55ebe5217d7a]
link DisplayCommInterfaceImplementationTests to DisplayComm2WayInterfaceStub--><path d="M1217.31,136.79 C1215.46,162.23 1212.45,203.56 1210.16,235.04 " fill="none" id="DisplayCommInterfaceImplementationTests-&gt;DisplayComm2WayInterfaceStub" style="stroke: #A80036; stroke-width: 1.0; stroke-dasharray: 7.0,7.0;"/><polygon fill="#A80036" points="1209.77,240.39,1214.4028,231.6988,1210.1273,235.4028,1206.4233,231.1272,1209.77,240.39" style="stroke: #A80036; stroke-width: 1.0;"/><!--MD5=[0cd290e6298e838268680010d5032c0d]
link DisplayCommInterfaceImplementationTests to DisplayCommInterfaceImplementation--><path d="M1174.47,136.52 C1136.63,154.8 1080.27,179.05 1028,190 C874.8,222.09 476.72,178.22 324,212.5 C310.87,215.45 297.47,219.52 284.33,224.21 " fill="none" id="DisplayCommInterfaceImplementationTests-&gt;DisplayCommInterfaceImplementation" style="stroke: #A80036; stroke-width: 1.0; stroke-dasharray: 7.0,7.0;"/><polygon fill="#A80036" points="279.51,225.96,289.3339,226.6603,284.2119,224.2593,286.6128,219.1373,279.51,225.96" style="stroke: #A80036; stroke-width: 1.0;"/><!--MD5=[e6e0d8b3e0f7bf14f11c0899b3ad37ae]
reverse link DisplayCommManager to DisplayCommManagerStub--><path d="M965.7,159.76 C992.85,171.56 1023.07,182.9 1052,190 C1181.43,221.74 1220.56,185.19 1351,212.5 C1382.66,219.13 1416.27,229.72 1446.18,240.49 " fill="none" id="DisplayCommManager&lt;-DisplayCommManagerStub" style="stroke: #A80036; stroke-width: 1.0; stroke-dasharray: 7.0,7.0;"/><polygon fill="none" points="962.83,166.14,947.45,151.57,968.56,153.37,962.83,166.14" style="stroke: #A80036; stroke-width: 1.0;"/><!--MD5=[69695ace36e753468876c8d4fe5d2708]
link DisplayComm2WayInterfaceImplementationTests to DisplayCommManagerStub--><path d="M1567.34,136.79 C1562.23,162.34 1553.92,203.9 1547.62,235.42 " fill="none" id="DisplayComm2WayInterfaceImplementationTests-&gt;DisplayCommManagerStub" style="stroke: #A80036; stroke-width: 1.0; stroke-dasharray: 7.0,7.0;"/><polygon fill="#A80036" points="1546.62,240.39,1552.2938,232.3397,1547.5923,235.4855,1544.4466,230.784,1546.62,240.39" style="stroke: #A80036; stroke-width: 1.0;"/><!--MD5=[ce67f838794c14794f693dd46a642b9a]
link DisplayComm2WayInterfaceImplementationTests to DisplayComm2WayInterfaceImplementation--><path d="M1528.59,136.68 C1491.98,154.93 1437.61,179.05 1387,190 C1244,220.95 873.09,187.13 729,212.5 C709.32,215.97 688.92,220.9 668.98,226.53 " fill="none" id="DisplayComm2WayInterfaceImplementationTests-&gt;DisplayComm2WayInterfaceImplementation" style="stroke: #A80036; stroke-width: 1.0; stroke-dasharray: 7.0,7.0;"/><polygon fill="#A80036" points="663.92,227.98,673.6726,229.3536,668.7276,226.6064,671.4748,221.6614,663.92,227.98" style="stroke: #A80036; stroke-width: 1.0;"/><!--MD5=[72cb9e2c0df516d67fcc7a3605b88acd]
reverse link MiddlewareCommInterface to MiddlewareCommInterfaceStub--><path d="M2327.36,175.48 C2317.2,180.61 2306.98,185.53 2297,190 C2252.72,209.83 2202.54,228.28 2158.75,243.15 " fill="none" id="MiddlewareCommInterface&lt;-MiddlewareCommInterfaceStub" style="stroke: #A80036; stroke-width: 1.0; stroke-dasharray: 7.0,7.0;"/><polygon fill="none" points="2324.51,169.07,2345.49,166.09,2330.96,181.5,2324.51,169.07" style="stroke: #A80036; stroke-width: 1.0;"/><!--MD5=[a3caa78d97a9caf08bd2afaaae1510f4]
link DisplayCommManagerImplementationTests to MiddlewareCommInterfaceStub--><path d="M1941.22,136.79 C1960.27,162.55 1991.35,204.59 2014.72,236.2 " fill="none" id="DisplayCommManagerImplementationTests-&gt;MiddlewareCommInterfaceStub" style="stroke: #A80036; stroke-width: 1.0; stroke-dasharray: 7.0,7.0;"/><polygon fill="#A80036" points="2017.82,240.39,2015.6968,230.7727,2014.8521,236.3662,2009.2586,235.5214,2017.82,240.39" style="stroke: #A80036; stroke-width: 1.0;"/><!--MD5=[6f3abcadcd809ea193290ea1cf8b820a]
link DisplayCommManagerImplementationTests to DisplayCommManagerImplementation--><path d="M1885.44,136.54 C1852.57,154.84 1803.41,179.1 1757,190 C1604.41,225.85 1205.68,181.64 1052,212.5 C1037.13,215.49 1021.87,219.61 1006.87,224.36 " fill="none" id="DisplayCommManagerImplementationTests-&gt;DisplayCommManagerImplementation" style="stroke: #A80036; stroke-width: 1.0; stroke-dasharray: 7.0,7.0;"/><polygon fill="#A80036" points="1001.79,225.99,1011.585,227.0183,1006.5461,224.4475,1009.117,219.4086,1001.79,225.99" style="stroke: #A80036; stroke-width: 1.0;"/><!--MD5=[f24e7409bf4fec90fef0ed7e05f90b9b]
link TrackDataPlotterTests to TrackDataPlotter--><path d="M2224.78,136.79 C2263.58,167.13 2331.26,220.06 2372.02,251.93 " fill="none" id="TrackDataPlotterTests-&gt;TrackDataPlotter" style="stroke: #A80036; stroke-width: 1.0; stroke-dasharray: 7.0,7.0;"/><polygon fill="#A80036" points="2376.37,255.33,2371.7477,246.6332,2372.4325,252.2485,2366.8172,252.9332,2376.37,255.33" style="stroke: #A80036; stroke-width: 1.0;"/><!--MD5=[e8607fa39286468ad65caac9e31210e9]
@startuml Display02Packages_Closure


package edu.oakland.production.display02 {
    
}



package edu.oakland.production.display02 {
    interface DisplayCommInterface {
        __
        .. Use Case 1 ..
        {abstract} + TrackData receiveRfidRequest(int rfidNum)
    }
}








package edu.oakland.production.display02 {
    interface DisplayComm2WayInterface {
        __
        .. Use Case 1 ..
        {abstract} + TrackData passRfidRequest(int rfidNum)
    }
}








package edu.oakland.production.display02 {
    interface DisplayCommManager {
        __
        .. Use Case 1 ..
        {abstract} + TrackData evaluateRfidRequest(int rfidNum)
    }
}








package edu.oakland.production.display02 {
    class DisplayCommInterfaceImplementation {
        __
        .. Use Case 1 ..
        {abstract} + TrackData receiveRfidRequest(int rfidNum)
        .. Use Case 2 ..

    }
}


DisplayCommInterfaceImplementation .up.|> DisplayCommInterface







package edu.oakland.production.display02 {
    class DisplayComm2WayInterfaceImplementation {
        __
        .. Use Case 1 ..
        {abstract} + TrackData passRfidRequest(int rfidNum)
        {abstract} + void determineUserRequestFormat(int rfidNum)
        {abstract} + void receiveRequestFromDisplayCommInterface(int rfidNum)
    }
}


DisplayComm2WayInterfaceImplementation .up.|> DisplayComm2WayInterface







package edu.oakland.production.display02 {
    class DisplayCommManagerImplementation {
        __
        .. Use Case 1 ..

        .. Use Case 2 ..

    }
}


DisplayCommManagerImplementation .up.|> DisplayCommManager







package edu.oakland.test.display02 {
    
}



package edu.oakland.test.display02 {
    class DisplayCommInterfaceImplementationTests {

    }
}




package edu.oakland.test.display02 {
    class DisplayComm2WayInterfaceStub {
        __
        .. Use Case 1 ..
        {abstract} + TrackData passRfidRequest(int rfidNum)
    }
}


DisplayComm2WayInterfaceStub .up.|> DisplayComm2WayInterface



DisplayCommInterfaceImplementationTests ..> DisplayComm2WayInterfaceStub

DisplayCommInterfaceImplementationTests ..> DisplayCommInterfaceImplementation





package edu.oakland.test.display02 {
    class DisplayComm2WayInterfaceImplementationTests {

    }
}




package edu.oakland.test.display02 {
    class DisplayCommManagerStub {
        __
        .. Use Case 1 ..
        + TrackData evaluateRfidRequest(int rfidNum)
    }
}


DisplayCommManagerStub .up.|> DisplayCommManager



DisplayComm2WayInterfaceImplementationTests ..> DisplayCommManagerStub

DisplayComm2WayInterfaceImplementationTests ..> DisplayComm2WayInterfaceImplementation





package edu.oakland.test.display02 {
    class DisplayCommManagerImplementationTests {

    }
}




package edu.oakland.test.display02 {
    class MiddlewareCommInterfaceStub {
        __
        .. Use Case 1 ..
        + TrackData requestRfid(int rfid)
    }
}






package edu.oakland.production.middleware02 {
    interface MiddlewareCommInterface {
        __
        .. Use Case 1 ..
        {abstract} + TrackData requestRfid(int rfid)
        .. Use Case 2 ..

    }
}






MiddlewareCommInterfaceStub .up.|> MiddlewareCommInterface

DisplayCommManagerImplementationTests ..> MiddlewareCommInterfaceStub

DisplayCommManagerImplementationTests ..> DisplayCommManagerImplementation





package edu.oakland.test.display02 {
    class TrackDataPlotterTests {

    }
}




package edu.oakland.helper.display02 {
    class TrackDataPlotter {
        
    }
}






TrackDataPlotterTests ..> TrackDataPlotter





package edu.oakland.helper.display02 {
    
}



@enduml

PlantUML version 1.2020.02(Sun Mar 01 10:22:07 GMT 2020)
(GPL source distribution)
Java Runtime: OpenJDK Runtime Environment
JVM: OpenJDK 64-Bit Server VM
Java Version: 11.0.9+11-Ubuntu-0ubuntu1
Operating System: Linux
Default Encoding: ANSI_X3.4-1968
Language: en
Country: US
--></g></svg>