<?xml version="1.0" encoding="UTF-8" standalone="no"?><svg xmlns="http://www.w3.org/2000/svg" xmlns:xlink="http://www.w3.org/1999/xlink" contentScriptType="application/ecmascript" contentStyleType="text/css" height="645px" preserveAspectRatio="none" style="width:2867px;height:645px;" version="1.1" viewBox="0 0 2867 645" width="2867px" zoomAndPan="magnify"><defs><filter height="300%" id="f1er8qd6wtjsgd" width="300%" x="-1" y="-1"><feGaussianBlur result="blurOut" stdDeviation="2.0"/><feColorMatrix in="blurOut" result="blurOut2" type="matrix" values="0 0 0 0 0 0 0 0 0 0 0 0 0 0 0 0 0 0 .4 0"/><feOffset dx="4.0" dy="4.0" in="blurOut2" result="blurOut3"/><feBlend in="SourceGraphic" in2="blurOut3" mode="normal"/></filter></defs><g><!--MD5=[fe59aae6f7bfe371a9c197ec1f7f843a]
cluster edu.oakland.production.display02--><polygon fill="#FFFFFF" filter="url(#f1er8qd6wtjsgd)" points="22,94,295,94,302,116.2969,1425,116.2969,1425,495,22,495,22,94" style="stroke: #000000; stroke-width: 1.5;"/><line style="stroke: #000000; stroke-width: 1.5;" x1="22" x2="302" y1="116.2969" y2="116.2969"/><text fill="#000000" font-family="sans-serif" font-size="14" font-weight="bold" lengthAdjust="spacingAndGlyphs" textLength="267" x="26" y="108.9951">edu.oakland.production.display02</text><!--MD5=[9258003ec405d300d3379b4a3d8dd6ad]
cluster edu.oakland.test.display02--><polygon fill="#FFFFFF" filter="url(#f1er8qd6wtjsgd)" points="1449,90,1667,90,1674,112.2969,2487,112.2969,2487,633,1449,633,1449,90" style="stroke: #000000; stroke-width: 1.5;"/><line style="stroke: #000000; stroke-width: 1.5;" x1="1449" x2="1674" y1="112.2969" y2="112.2969"/><text fill="#000000" font-family="sans-serif" font-size="14" font-weight="bold" lengthAdjust="spacingAndGlyphs" textLength="212" x="1453" y="104.9951">edu.oakland.test.display02</text><!--MD5=[a502031b5a5384de0a21e6ee820fd3b2]
cluster edu.oakland.helper.display02--><polygon fill="#FFFFFF" filter="url(#f1er8qd6wtjsgd)" points="2511,24,2749,24,2756,46.2969,2845,46.2969,2845,293,2511,293,2511,24" style="stroke: #000000; stroke-width: 1.5;"/><line style="stroke: #000000; stroke-width: 1.5;" x1="2511" x2="2756" y1="46.2969" y2="46.2969"/><text fill="#000000" font-family="sans-serif" font-size="14" font-weight="bold" lengthAdjust="spacingAndGlyphs" textLength="232" x="2515" y="38.9951">edu.oakland.helper.display02</text><!--MD5=[c8d1e3134fecb0c949fd2a76cc0bb992]
class DisplayCommInterface--><rect fill="#FEFECE" filter="url(#f1er8qd6wtjsgd)" height="77.6094" id="DisplayCommInterface" style="stroke: #A80036; stroke-width: 1.5;" width="268" x="89" y="129"/><ellipse cx="149.25" cy="145" fill="#B4A7E5" rx="11" ry="11" style="stroke: #A80036; stroke-width: 1.0;"/><path d="M145.1719,140.7656 L145.1719,138.6094 L152.5625,138.6094 L152.5625,140.7656 L150.0938,140.7656 L150.0938,148.8438 L152.5625,148.8438 L152.5625,151 L145.1719,151 L145.1719,148.8438 L147.6406,148.8438 L147.6406,140.7656 L145.1719,140.7656 Z "/><text fill="#000000" font-family="sans-serif" font-size="12" font-style="italic" lengthAdjust="spacingAndGlyphs" textLength="139" x="169.75" y="149.1543">DisplayCommInterface</text><line style="stroke: #A80036; stroke-width: 1.5;" x1="90" x2="356" y1="161" y2="161"/><line style="stroke: #A80036; stroke-width: 1.5;" x1="90" x2="356" y1="169" y2="169"/><ellipse cx="100" cy="196.8047" fill="#84BE84" rx="3" ry="3" style="stroke: #038048; stroke-width: 1.0;"/><text fill="#000000" font-family="sans-serif" font-size="11" font-style="italic" lengthAdjust="spacingAndGlyphs" textLength="242" x="109" y="200.0151">TrackData receiveRfidRequest(int rfidNum)</text><line style="stroke: #A80036; stroke-width: 1.0; stroke-dasharray: 1.0,2.0;" x1="90" x2="190" y1="183.4023" y2="183.4023"/><text fill="#000000" font-family="sans-serif" font-size="11" lengthAdjust="spacingAndGlyphs" textLength="66" x="190" y="186.7104">Use Case 1</text><line style="stroke: #A80036; stroke-width: 1.0; stroke-dasharray: 1.0,2.0;" x1="256" x2="356" y1="183.4023" y2="183.4023"/><!--MD5=[f6b51b5f862da5ce226c62e411e84628]
class DisplayComm2WayInterface--><rect fill="#FEFECE" filter="url(#f1er8qd6wtjsgd)" height="77.6094" id="DisplayComm2WayInterface" style="stroke: #A80036; stroke-width: 1.5;" width="252" x="392" y="129"/><ellipse cx="427.7" cy="145" fill="#B4A7E5" rx="11" ry="11" style="stroke: #A80036; stroke-width: 1.0;"/><path d="M423.6219,140.7656 L423.6219,138.6094 L431.0125,138.6094 L431.0125,140.7656 L428.5438,140.7656 L428.5438,148.8438 L431.0125,148.8438 L431.0125,151 L423.6219,151 L423.6219,148.8438 L426.0906,148.8438 L426.0906,140.7656 L423.6219,140.7656 Z "/><text fill="#000000" font-family="sans-serif" font-size="12" font-style="italic" lengthAdjust="spacingAndGlyphs" textLength="174" x="446.3" y="149.1543">DisplayComm2WayInterface</text><line style="stroke: #A80036; stroke-width: 1.5;" x1="393" x2="643" y1="161" y2="161"/><line style="stroke: #A80036; stroke-width: 1.5;" x1="393" x2="643" y1="169" y2="169"/><ellipse cx="403" cy="196.8047" fill="#84BE84" rx="3" ry="3" style="stroke: #038048; stroke-width: 1.0;"/><text fill="#000000" font-family="sans-serif" font-size="11" font-style="italic" lengthAdjust="spacingAndGlyphs" textLength="226" x="412" y="200.0151">TrackData passRfidRequest(int rfidNum)</text><line style="stroke: #A80036; stroke-width: 1.0; stroke-dasharray: 1.0,2.0;" x1="393" x2="485" y1="183.4023" y2="183.4023"/><text fill="#000000" font-family="sans-serif" font-size="11" lengthAdjust="spacingAndGlyphs" textLength="66" x="485" y="186.7104">Use Case 1</text><line style="stroke: #A80036; stroke-width: 1.0; stroke-dasharray: 1.0,2.0;" x1="551" x2="643" y1="183.4023" y2="183.4023"/><!--MD5=[6aeb72f2773d7cabb45309482beeff0a]
class DisplayCommManager--><rect fill="#FEFECE" filter="url(#f1er8qd6wtjsgd)" height="77.6094" id="DisplayCommManager" style="stroke: #A80036; stroke-width: 1.5;" width="249" x="679.5" y="129"/><ellipse cx="731.25" cy="145" fill="#B4A7E5" rx="11" ry="11" style="stroke: #A80036; stroke-width: 1.0;"/><path d="M727.1719,140.7656 L727.1719,138.6094 L734.5625,138.6094 L734.5625,140.7656 L732.0938,140.7656 L732.0938,148.8438 L734.5625,148.8438 L734.5625,151 L727.1719,151 L727.1719,148.8438 L729.6406,148.8438 L729.6406,140.7656 L727.1719,140.7656 Z "/><text fill="#000000" font-family="sans-serif" font-size="12" font-style="italic" lengthAdjust="spacingAndGlyphs" textLength="137" x="751.75" y="149.1543">DisplayCommManager</text><line style="stroke: #A80036; stroke-width: 1.5;" x1="680.5" x2="927.5" y1="161" y2="161"/><line style="stroke: #A80036; stroke-width: 1.5;" x1="680.5" x2="927.5" y1="169" y2="169"/><ellipse cx="690.5" cy="196.8047" fill="#84BE84" rx="3" ry="3" style="stroke: #038048; stroke-width: 1.0;"/><text fill="#000000" font-family="sans-serif" font-size="11" font-style="italic" lengthAdjust="spacingAndGlyphs" textLength="223" x="699.5" y="200.0151">TrackData evaluateRfidRequest(int rfid)</text><line style="stroke: #A80036; stroke-width: 1.0; stroke-dasharray: 1.0,2.0;" x1="680.5" x2="771" y1="183.4023" y2="183.4023"/><text fill="#000000" font-family="sans-serif" font-size="11" lengthAdjust="spacingAndGlyphs" textLength="66" x="771" y="186.7104">Use Case 1</text><line style="stroke: #A80036; stroke-width: 1.0; stroke-dasharray: 1.0,2.0;" x1="837" x2="927.5" y1="183.4023" y2="183.4023"/><!--MD5=[a35092e604da7274febf4e2cf9a25087]
class DisplayCommInterfaceImplementation--><rect fill="#FEFECE" filter="url(#f1er8qd6wtjsgd)" height="141.6328" id="DisplayCommInterfaceImplementation" style="stroke: #A80036; stroke-width: 1.5;" width="369" x="38.5" y="337"/><ellipse cx="101.25" cy="353" fill="#ADD1B2" rx="11" ry="11" style="stroke: #A80036; stroke-width: 1.0;"/><path d="M104.2188,358.6406 Q103.6406,358.9375 103,359.0781 Q102.3594,359.2344 101.6563,359.2344 Q99.1563,359.2344 97.8281,357.5938 Q96.5156,355.9375 96.5156,352.8125 Q96.5156,349.6875 97.8281,348.0313 Q99.1563,346.375 101.6563,346.375 Q102.3594,346.375 103,346.5313 Q103.6563,346.6875 104.2188,346.9844 L104.2188,349.7031 Q103.5938,349.125 103,348.8594 Q102.4063,348.5781 101.7813,348.5781 Q100.4375,348.5781 99.75,349.6563 Q99.0625,350.7188 99.0625,352.8125 Q99.0625,354.9063 99.75,355.9844 Q100.4375,357.0469 101.7813,357.0469 Q102.4063,357.0469 103,356.7813 Q103.5938,356.5 104.2188,355.9219 L104.2188,358.6406 Z "/><text fill="#000000" font-family="sans-serif" font-size="12" lengthAdjust="spacingAndGlyphs" textLength="235" x="121.75" y="357.1543">DisplayCommInterfaceImplementation</text><line style="stroke: #A80036; stroke-width: 1.5;" x1="39.5" x2="406.5" y1="369" y2="369"/><rect fill="none" height="6" style="stroke: #C82930; stroke-width: 1.0;" width="6" x="46.5" y="377"/><text fill="#000000" font-family="sans-serif" font-size="11" lengthAdjust="spacingAndGlyphs" textLength="207" x="58.5" y="383.2104">DisplayComm2WayInterface receiver</text><rect fill="none" height="6" style="stroke: #C82930; stroke-width: 1.0;" width="6" x="46.5" y="389.8047"/><text fill="#000000" font-family="sans-serif" font-size="11" lengthAdjust="spacingAndGlyphs" textLength="86" x="58.5" y="396.0151">TrackData data</text><rect fill="none" height="6" style="stroke: #C82930; stroke-width: 1.0;" width="6" x="46.5" y="402.6094"/><text fill="#000000" font-family="sans-serif" font-size="11" lengthAdjust="spacingAndGlyphs" textLength="135" x="58.5" y="408.8198">TrackDataPlotter plotter</text><line style="stroke: #A80036; stroke-width: 1.5;" x1="39.5" x2="406.5" y1="415.4141" y2="415.4141"/><ellipse cx="49.5" cy="426.4141" fill="#84BE84" rx="3" ry="3" style="stroke: #038048; stroke-width: 1.0;"/><text fill="#000000" font-family="sans-serif" font-size="11" lengthAdjust="spacingAndGlyphs" textLength="343" x="58.5" y="429.6245">DisplayCommInterface(DisplayComm2WayInterface receiver)</text><ellipse cx="49.5" cy="456.0234" fill="#84BE84" rx="3" ry="3" style="stroke: #038048; stroke-width: 1.0;"/><text fill="#000000" font-family="sans-serif" font-size="11" lengthAdjust="spacingAndGlyphs" textLength="240" x="58.5" y="459.2339">TrackData receiveRfidRequest(int rfidNum)</text><text fill="#000000" font-family="sans-serif" font-size="11" lengthAdjust="spacingAndGlyphs" textLength="0" x="62.5" y="472.0386"/><line style="stroke: #A80036; stroke-width: 1.0; stroke-dasharray: 1.0,2.0;" x1="39.5" x2="190" y1="442.6211" y2="442.6211"/><text fill="#000000" font-family="sans-serif" font-size="11" lengthAdjust="spacingAndGlyphs" textLength="66" x="190" y="445.9292">Use Case 1</text><line style="stroke: #A80036; stroke-width: 1.0; stroke-dasharray: 1.0,2.0;" x1="256" x2="406.5" y1="442.6211" y2="442.6211"/><!--MD5=[46657c2900260d4d40350fe3f8c544df]
class DisplayComm2WayInterfaceImplementation--><rect fill="#FEFECE" filter="url(#f1er8qd6wtjsgd)" height="103.2188" id="DisplayComm2WayInterfaceImplementation" style="stroke: #A80036; stroke-width: 1.5;" width="461" x="442.5" y="356.5"/><ellipse cx="534.75" cy="372.5" fill="#ADD1B2" rx="11" ry="11" style="stroke: #A80036; stroke-width: 1.0;"/><path d="M537.7188,378.1406 Q537.1406,378.4375 536.5,378.5781 Q535.8594,378.7344 535.1563,378.7344 Q532.6563,378.7344 531.3281,377.0938 Q530.0156,375.4375 530.0156,372.3125 Q530.0156,369.1875 531.3281,367.5313 Q532.6563,365.875 535.1563,365.875 Q535.8594,365.875 536.5,366.0313 Q537.1563,366.1875 537.7188,366.4844 L537.7188,369.2031 Q537.0938,368.625 536.5,368.3594 Q535.9063,368.0781 535.2813,368.0781 Q533.9375,368.0781 533.25,369.1563 Q532.5625,370.2188 532.5625,372.3125 Q532.5625,374.4063 533.25,375.4844 Q533.9375,376.5469 535.2813,376.5469 Q535.9063,376.5469 536.5,376.2813 Q537.0938,376 537.7188,375.4219 L537.7188,378.1406 Z "/><text fill="#000000" font-family="sans-serif" font-size="12" lengthAdjust="spacingAndGlyphs" textLength="268" x="555.25" y="376.6543">DisplayComm2WayInterfaceImplementation</text><line style="stroke: #A80036; stroke-width: 1.5;" x1="443.5" x2="902.5" y1="388.5" y2="388.5"/><rect fill="none" height="6" style="stroke: #C82930; stroke-width: 1.0;" width="6" x="450.5" y="396.5"/><text fill="#000000" font-family="sans-serif" font-size="11" lengthAdjust="spacingAndGlyphs" textLength="182" x="462.5" y="402.7104">DisplayCommManager manager</text><line style="stroke: #A80036; stroke-width: 1.5;" x1="443.5" x2="902.5" y1="409.3047" y2="409.3047"/><ellipse cx="453.5" cy="420.3047" fill="#84BE84" rx="3" ry="3" style="stroke: #038048; stroke-width: 1.0;"/><text fill="#000000" font-family="sans-serif" font-size="11" lengthAdjust="spacingAndGlyphs" textLength="435" x="462.5" y="423.5151">DisplayComm2WayInterfaceImplementation(DisplayCommManager manager)</text><ellipse cx="453.5" cy="449.9141" fill="#84BE84" rx="3" ry="3" style="stroke: #038048; stroke-width: 1.0;"/><text fill="#000000" font-family="sans-serif" font-size="11" lengthAdjust="spacingAndGlyphs" textLength="227" x="462.5" y="453.1245">TrackData passRfidRequest(int rfidNum)</text><line style="stroke: #A80036; stroke-width: 1.0; stroke-dasharray: 1.0,2.0;" x1="443.5" x2="640" y1="436.5117" y2="436.5117"/><text fill="#000000" font-family="sans-serif" font-size="11" lengthAdjust="spacingAndGlyphs" textLength="66" x="640" y="439.8198">Use Case 1</text><line style="stroke: #A80036; stroke-width: 1.0; stroke-dasharray: 1.0,2.0;" x1="706" x2="902.5" y1="436.5117" y2="436.5117"/><!--MD5=[3a27b63ddb357afc5dde5581215f51f9]
class DisplayCommManagerImplementation--><rect fill="#FEFECE" filter="url(#f1er8qd6wtjsgd)" height="103.2188" id="DisplayCommManagerImplementation" style="stroke: #A80036; stroke-width: 1.5;" width="470" x="939" y="356.5"/><ellipse cx="1052.75" cy="372.5" fill="#ADD1B2" rx="11" ry="11" style="stroke: #A80036; stroke-width: 1.0;"/><path d="M1055.7188,378.1406 Q1055.1406,378.4375 1054.5,378.5781 Q1053.8594,378.7344 1053.1563,378.7344 Q1050.6563,378.7344 1049.3281,377.0938 Q1048.0156,375.4375 1048.0156,372.3125 Q1048.0156,369.1875 1049.3281,367.5313 Q1050.6563,365.875 1053.1563,365.875 Q1053.8594,365.875 1054.5,366.0313 Q1055.1563,366.1875 1055.7188,366.4844 L1055.7188,369.2031 Q1055.0938,368.625 1054.5,368.3594 Q1053.9063,368.0781 1053.2813,368.0781 Q1051.9375,368.0781 1051.25,369.1563 Q1050.5625,370.2188 1050.5625,372.3125 Q1050.5625,374.4063 1051.25,375.4844 Q1051.9375,376.5469 1053.2813,376.5469 Q1053.9063,376.5469 1054.5,376.2813 Q1055.0938,376 1055.7188,375.4219 L1055.7188,378.1406 Z "/><text fill="#000000" font-family="sans-serif" font-size="12" lengthAdjust="spacingAndGlyphs" textLength="234" x="1073.25" y="376.6543">DisplayCommManagerImplementation</text><line style="stroke: #A80036; stroke-width: 1.5;" x1="940" x2="1408" y1="388.5" y2="388.5"/><rect fill="none" height="6" style="stroke: #C82930; stroke-width: 1.0;" width="6" x="947" y="396.5"/><text fill="#000000" font-family="sans-serif" font-size="11" lengthAdjust="spacingAndGlyphs" textLength="221" x="959" y="402.7104">MiddlewareCommInterface middleware</text><line style="stroke: #A80036; stroke-width: 1.5;" x1="940" x2="1408" y1="409.3047" y2="409.3047"/><ellipse cx="950" cy="420.3047" fill="#84BE84" rx="3" ry="3" style="stroke: #038048; stroke-width: 1.0;"/><text fill="#000000" font-family="sans-serif" font-size="11" lengthAdjust="spacingAndGlyphs" textLength="444" x="959" y="423.5151">DisplayCommManagerImplementation(MiddlewareCommInterface middleware)</text><ellipse cx="950" cy="449.9141" fill="#84BE84" rx="3" ry="3" style="stroke: #038048; stroke-width: 1.0;"/><text fill="#000000" font-family="sans-serif" font-size="11" lengthAdjust="spacingAndGlyphs" textLength="221" x="959" y="453.1245">TrackData evaluateRfidRequest(int rfid)</text><line style="stroke: #A80036; stroke-width: 1.0; stroke-dasharray: 1.0,2.0;" x1="940" x2="1141" y1="436.5117" y2="436.5117"/><text fill="#000000" font-family="sans-serif" font-size="11" lengthAdjust="spacingAndGlyphs" textLength="66" x="1141" y="439.8198">Use Case 1</text><line style="stroke: #A80036; stroke-width: 1.0; stroke-dasharray: 1.0,2.0;" x1="1207" x2="1408" y1="436.5117" y2="436.5117"/><!--MD5=[d454b7777f115113290d89683d7a426c]
class DisplayCommInterfaceImplementationTests--><rect fill="#FEFECE" filter="url(#f1er8qd6wtjsgd)" height="73.6094" id="DisplayCommInterfaceImplementationTests" style="stroke: #A80036; stroke-width: 1.5;" width="301" x="1465.5" y="131"/><ellipse cx="1480.5" cy="147" fill="#ADD1B2" rx="11" ry="11" style="stroke: #A80036; stroke-width: 1.0;"/><path d="M1483.4688,152.6406 Q1482.8906,152.9375 1482.25,153.0781 Q1481.6094,153.2344 1480.9063,153.2344 Q1478.4063,153.2344 1477.0781,151.5938 Q1475.7656,149.9375 1475.7656,146.8125 Q1475.7656,143.6875 1477.0781,142.0313 Q1478.4063,140.375 1480.9063,140.375 Q1481.6094,140.375 1482.25,140.5313 Q1482.9063,140.6875 1483.4688,140.9844 L1483.4688,143.7031 Q1482.8438,143.125 1482.25,142.8594 Q1481.6563,142.5781 1481.0313,142.5781 Q1479.6875,142.5781 1479,143.6563 Q1478.3125,144.7188 1478.3125,146.8125 Q1478.3125,148.9063 1479,149.9844 Q1479.6875,151.0469 1481.0313,151.0469 Q1481.6563,151.0469 1482.25,150.7813 Q1482.8438,150.5 1483.4688,149.9219 L1483.4688,152.6406 Z "/><text fill="#000000" font-family="sans-serif" font-size="12" lengthAdjust="spacingAndGlyphs" textLength="269" x="1494.5" y="151.1543">DisplayCommInterfaceImplementationTests</text><line style="stroke: #A80036; stroke-width: 1.5;" x1="1466.5" x2="1765.5" y1="163" y2="163"/><line style="stroke: #A80036; stroke-width: 1.5;" x1="1466.5" x2="1765.5" y1="171" y2="171"/><ellipse cx="1476.5" cy="182" fill="#84BE84" rx="3" ry="3" style="stroke: #038048; stroke-width: 1.0;"/><text fill="#000000" font-family="sans-serif" font-size="11" lengthAdjust="spacingAndGlyphs" textLength="191" x="1485.5" y="185.2104">void displayComm2WayIsNotNull()</text><ellipse cx="1476.5" cy="194.8047" fill="#84BE84" rx="3" ry="3" style="stroke: #038048; stroke-width: 1.0;"/><text fill="#000000" font-family="sans-serif" font-size="11" lengthAdjust="spacingAndGlyphs" textLength="115" x="1485.5" y="198.0151">void rfidInIsRfidOut()</text><!--MD5=[178181f4c7684560c711246055fc01d3]
class DisplayComm2WayInterfaceImplementationTests--><rect fill="#FEFECE" filter="url(#f1er8qd6wtjsgd)" height="73.6094" id="DisplayComm2WayInterfaceImplementationTests" style="stroke: #A80036; stroke-width: 1.5;" width="334" x="1802" y="131"/><ellipse cx="1817" cy="147" fill="#ADD1B2" rx="11" ry="11" style="stroke: #A80036; stroke-width: 1.0;"/><path d="M1819.9688,152.6406 Q1819.3906,152.9375 1818.75,153.0781 Q1818.1094,153.2344 1817.4063,153.2344 Q1814.9063,153.2344 1813.5781,151.5938 Q1812.2656,149.9375 1812.2656,146.8125 Q1812.2656,143.6875 1813.5781,142.0313 Q1814.9063,140.375 1817.4063,140.375 Q1818.1094,140.375 1818.75,140.5313 Q1819.4063,140.6875 1819.9688,140.9844 L1819.9688,143.7031 Q1819.3438,143.125 1818.75,142.8594 Q1818.1563,142.5781 1817.5313,142.5781 Q1816.1875,142.5781 1815.5,143.6563 Q1814.8125,144.7188 1814.8125,146.8125 Q1814.8125,148.9063 1815.5,149.9844 Q1816.1875,151.0469 1817.5313,151.0469 Q1818.1563,151.0469 1818.75,150.7813 Q1819.3438,150.5 1819.9688,149.9219 L1819.9688,152.6406 Z "/><text fill="#000000" font-family="sans-serif" font-size="12" lengthAdjust="spacingAndGlyphs" textLength="302" x="1831" y="151.1543">DisplayComm2WayInterfaceImplementationTests</text><line style="stroke: #A80036; stroke-width: 1.5;" x1="1803" x2="2135" y1="163" y2="163"/><line style="stroke: #A80036; stroke-width: 1.5;" x1="1803" x2="2135" y1="171" y2="171"/><ellipse cx="1813" cy="182" fill="#84BE84" rx="3" ry="3" style="stroke: #038048; stroke-width: 1.0;"/><text fill="#000000" font-family="sans-serif" font-size="11" lengthAdjust="spacingAndGlyphs" textLength="115" x="1822" y="185.2104">void rfidInIsRfidOut()</text><ellipse cx="1813" cy="194.8047" fill="#84BE84" rx="3" ry="3" style="stroke: #038048; stroke-width: 1.0;"/><text fill="#000000" font-family="sans-serif" font-size="11" lengthAdjust="spacingAndGlyphs" textLength="211" x="1822" y="198.0151">void displayCommManagerIsNotNull()</text><!--MD5=[937d6d8ff87a99d0d5dcd66ee05a1fa4]
class DisplayCommManagerImplementationTests--><rect fill="#FEFECE" filter="url(#f1er8qd6wtjsgd)" height="86.4141" id="DisplayCommManagerImplementationTests" style="stroke: #A80036; stroke-width: 1.5;" width="300" x="2171" y="125"/><ellipse cx="2186" cy="141" fill="#ADD1B2" rx="11" ry="11" style="stroke: #A80036; stroke-width: 1.0;"/><path d="M2188.9688,146.6406 Q2188.3906,146.9375 2187.75,147.0781 Q2187.1094,147.2344 2186.4063,147.2344 Q2183.9063,147.2344 2182.5781,145.5938 Q2181.2656,143.9375 2181.2656,140.8125 Q2181.2656,137.6875 2182.5781,136.0313 Q2183.9063,134.375 2186.4063,134.375 Q2187.1094,134.375 2187.75,134.5313 Q2188.4063,134.6875 2188.9688,134.9844 L2188.9688,137.7031 Q2188.3438,137.125 2187.75,136.8594 Q2187.1563,136.5781 2186.5313,136.5781 Q2185.1875,136.5781 2184.5,137.6563 Q2183.8125,138.7188 2183.8125,140.8125 Q2183.8125,142.9063 2184.5,143.9844 Q2185.1875,145.0469 2186.5313,145.0469 Q2187.1563,145.0469 2187.75,144.7813 Q2188.3438,144.5 2188.9688,143.9219 L2188.9688,146.6406 Z "/><text fill="#000000" font-family="sans-serif" font-size="12" lengthAdjust="spacingAndGlyphs" textLength="268" x="2200" y="145.1543">DisplayCommManagerImplementationTests</text><line style="stroke: #A80036; stroke-width: 1.5;" x1="2172" x2="2470" y1="157" y2="157"/><line style="stroke: #A80036; stroke-width: 1.5;" x1="2172" x2="2470" y1="165" y2="165"/><ellipse cx="2182" cy="176" fill="#84BE84" rx="3" ry="3" style="stroke: #038048; stroke-width: 1.0;"/><text fill="#000000" font-family="sans-serif" font-size="11" lengthAdjust="spacingAndGlyphs" textLength="115" x="2191" y="179.2104">void rfidInIsRfidOut()</text><ellipse cx="2182" cy="188.8047" fill="#84BE84" rx="3" ry="3" style="stroke: #038048; stroke-width: 1.0;"/><text fill="#000000" font-family="sans-serif" font-size="11" lengthAdjust="spacingAndGlyphs" textLength="151" x="2191" y="192.0151">void middlewareIsNotNull()</text><rect fill="#F24D5C" height="6" style="stroke: #C82930; stroke-width: 1.0;" width="6" x="2179" y="198.6094"/><text fill="#000000" font-family="sans-serif" font-size="11" lengthAdjust="spacingAndGlyphs" textLength="144" x="2191" y="204.8198">int generateRandomRfid()</text><!--MD5=[930c8140e7c1cb8e71aa7cd49967748e]
class TrackDataPlotterTests--><rect fill="#FEFECE" filter="url(#f1er8qd6wtjsgd)" height="86.4141" id="TrackDataPlotterTests" style="stroke: #A80036; stroke-width: 1.5;" width="216" x="1508" y="365"/><ellipse cx="1542.8" cy="381" fill="#ADD1B2" rx="11" ry="11" style="stroke: #A80036; stroke-width: 1.0;"/><path d="M1545.7688,386.6406 Q1545.1906,386.9375 1544.55,387.0781 Q1543.9094,387.2344 1543.2063,387.2344 Q1540.7063,387.2344 1539.3781,385.5938 Q1538.0656,383.9375 1538.0656,380.8125 Q1538.0656,377.6875 1539.3781,376.0313 Q1540.7063,374.375 1543.2063,374.375 Q1543.9094,374.375 1544.55,374.5313 Q1545.2063,374.6875 1545.7688,374.9844 L1545.7688,377.7031 Q1545.1438,377.125 1544.55,376.8594 Q1543.9563,376.5781 1543.3313,376.5781 Q1541.9875,376.5781 1541.3,377.6563 Q1540.6125,378.7188 1540.6125,380.8125 Q1540.6125,382.9063 1541.3,383.9844 Q1541.9875,385.0469 1543.3313,385.0469 Q1543.9563,385.0469 1544.55,384.7813 Q1545.1438,384.5 1545.7688,383.9219 L1545.7688,386.6406 Z "/><text fill="#000000" font-family="sans-serif" font-size="12" lengthAdjust="spacingAndGlyphs" textLength="140" x="1561.2" y="385.1543">TrackDataPlotterTests</text><line style="stroke: #A80036; stroke-width: 1.5;" x1="1509" x2="1723" y1="397" y2="397"/><line style="stroke: #A80036; stroke-width: 1.5;" x1="1509" x2="1723" y1="405" y2="405"/><ellipse cx="1519" cy="416" fill="#84BE84" rx="3" ry="3" style="stroke: #038048; stroke-width: 1.0;"/><text fill="#000000" font-family="sans-serif" font-size="11" lengthAdjust="spacingAndGlyphs" textLength="121" x="1528" y="419.2104">void plotIsDisplayed()</text><ellipse cx="1519" cy="428.8047" fill="#84BE84" rx="3" ry="3" style="stroke: #038048; stroke-width: 1.0;"/><text fill="#000000" font-family="sans-serif" font-size="11" lengthAdjust="spacingAndGlyphs" textLength="174" x="1528" y="432.0151">void nullTrackDataNotAllowed()</text><ellipse cx="1519" cy="441.6094" fill="#84BE84" rx="3" ry="3" style="stroke: #038048; stroke-width: 1.0;"/><text fill="#000000" font-family="sans-serif" font-size="11" lengthAdjust="spacingAndGlyphs" textLength="190" x="1528" y="444.8198">void invalidTrackDataNotAllowed()</text><!--MD5=[a333ac13e0fdf2a5898aafabd38d3c1b]
class DisplayComm2WayInterfaceStub--><rect fill="#FEFECE" filter="url(#f1er8qd6wtjsgd)" height="77.6094" id="DisplayComm2WayInterfaceStub" style="stroke: #A80036; stroke-width: 1.5;" width="252" x="1759" y="369"/><ellipse cx="1783" cy="385" fill="#ADD1B2" rx="11" ry="11" style="stroke: #A80036; stroke-width: 1.0;"/><path d="M1785.9688,390.6406 Q1785.3906,390.9375 1784.75,391.0781 Q1784.1094,391.2344 1783.4063,391.2344 Q1780.9063,391.2344 1779.5781,389.5938 Q1778.2656,387.9375 1778.2656,384.8125 Q1778.2656,381.6875 1779.5781,380.0313 Q1780.9063,378.375 1783.4063,378.375 Q1784.1094,378.375 1784.75,378.5313 Q1785.4063,378.6875 1785.9688,378.9844 L1785.9688,381.7031 Q1785.3438,381.125 1784.75,380.8594 Q1784.1563,380.5781 1783.5313,380.5781 Q1782.1875,380.5781 1781.5,381.6563 Q1780.8125,382.7188 1780.8125,384.8125 Q1780.8125,386.9063 1781.5,387.9844 Q1782.1875,389.0469 1783.5313,389.0469 Q1784.1563,389.0469 1784.75,388.7813 Q1785.3438,388.5 1785.9688,387.9219 L1785.9688,390.6406 Z "/><text fill="#000000" font-family="sans-serif" font-size="12" lengthAdjust="spacingAndGlyphs" textLength="200" x="1799" y="389.1543">DisplayComm2WayInterfaceStub</text><line style="stroke: #A80036; stroke-width: 1.5;" x1="1760" x2="2010" y1="401" y2="401"/><line style="stroke: #A80036; stroke-width: 1.5;" x1="1760" x2="2010" y1="409" y2="409"/><ellipse cx="1770" cy="436.8047" fill="#84BE84" rx="3" ry="3" style="stroke: #038048; stroke-width: 1.0;"/><text fill="#000000" font-family="sans-serif" font-size="11" font-style="italic" lengthAdjust="spacingAndGlyphs" textLength="226" x="1779" y="440.0151">TrackData passRfidRequest(int rfidNum)</text><line style="stroke: #A80036; stroke-width: 1.0; stroke-dasharray: 1.0,2.0;" x1="1760" x2="1852" y1="423.4023" y2="423.4023"/><text fill="#000000" font-family="sans-serif" font-size="11" lengthAdjust="spacingAndGlyphs" textLength="66" x="1852" y="426.7104">Use Case 1</text><line style="stroke: #A80036; stroke-width: 1.0; stroke-dasharray: 1.0,2.0;" x1="1918" x2="2010" y1="423.4023" y2="423.4023"/><!--MD5=[2970358178d6cf57fc5a801b39eb8d0b]
class DisplayCommManagerStub--><rect fill="#FEFECE" filter="url(#f1er8qd6wtjsgd)" height="77.6094" id="DisplayCommManagerStub" style="stroke: #A80036; stroke-width: 1.5;" width="273" x="2046.5" y="369"/><ellipse cx="2095.75" cy="385" fill="#ADD1B2" rx="11" ry="11" style="stroke: #A80036; stroke-width: 1.0;"/><path d="M2098.7188,390.6406 Q2098.1406,390.9375 2097.5,391.0781 Q2096.8594,391.2344 2096.1563,391.2344 Q2093.6563,391.2344 2092.3281,389.5938 Q2091.0156,387.9375 2091.0156,384.8125 Q2091.0156,381.6875 2092.3281,380.0313 Q2093.6563,378.375 2096.1563,378.375 Q2096.8594,378.375 2097.5,378.5313 Q2098.1563,378.6875 2098.7188,378.9844 L2098.7188,381.7031 Q2098.0938,381.125 2097.5,380.8594 Q2096.9063,380.5781 2096.2813,380.5781 Q2094.9375,380.5781 2094.25,381.6563 Q2093.5625,382.7188 2093.5625,384.8125 Q2093.5625,386.9063 2094.25,387.9844 Q2094.9375,389.0469 2096.2813,389.0469 Q2096.9063,389.0469 2097.5,388.7813 Q2098.0938,388.5 2098.7188,387.9219 L2098.7188,390.6406 Z "/><text fill="#000000" font-family="sans-serif" font-size="12" lengthAdjust="spacingAndGlyphs" textLength="166" x="2116.25" y="389.1543">DisplayCommManagerStub</text><line style="stroke: #A80036; stroke-width: 1.5;" x1="2047.5" x2="2318.5" y1="401" y2="401"/><line style="stroke: #A80036; stroke-width: 1.5;" x1="2047.5" x2="2318.5" y1="409" y2="409"/><ellipse cx="2057.5" cy="436.8047" fill="#84BE84" rx="3" ry="3" style="stroke: #038048; stroke-width: 1.0;"/><text fill="#000000" font-family="sans-serif" font-size="11" lengthAdjust="spacingAndGlyphs" textLength="247" x="2066.5" y="440.0151">TrackData evaluateRfidRequest(int rfidNum)</text><line style="stroke: #A80036; stroke-width: 1.0; stroke-dasharray: 1.0,2.0;" x1="2047.5" x2="2150" y1="423.4023" y2="423.4023"/><text fill="#000000" font-family="sans-serif" font-size="11" lengthAdjust="spacingAndGlyphs" textLength="66" x="2150" y="426.7104">Use Case 1</text><line style="stroke: #A80036; stroke-width: 1.0; stroke-dasharray: 1.0,2.0;" x1="2216" x2="2318.5" y1="423.4023" y2="423.4023"/><!--MD5=[cf56a65163663c6c6c7b84cd7c204b97]
class MiddlewareCommInterfaceStub--><rect fill="#FEFECE" filter="url(#f1er8qd6wtjsgd)" height="77.6094" id="MiddlewareCommInterfaceStub" style="stroke: #A80036; stroke-width: 1.5;" width="225" x="1503.5" y="539"/><ellipse cx="1518.5" cy="555" fill="#ADD1B2" rx="11" ry="11" style="stroke: #A80036; stroke-width: 1.0;"/><path d="M1521.4688,560.6406 Q1520.8906,560.9375 1520.25,561.0781 Q1519.6094,561.2344 1518.9063,561.2344 Q1516.4063,561.2344 1515.0781,559.5938 Q1513.7656,557.9375 1513.7656,554.8125 Q1513.7656,551.6875 1515.0781,550.0313 Q1516.4063,548.375 1518.9063,548.375 Q1519.6094,548.375 1520.25,548.5313 Q1520.9063,548.6875 1521.4688,548.9844 L1521.4688,551.7031 Q1520.8438,551.125 1520.25,550.8594 Q1519.6563,550.5781 1519.0313,550.5781 Q1517.6875,550.5781 1517,551.6563 Q1516.3125,552.7188 1516.3125,554.8125 Q1516.3125,556.9063 1517,557.9844 Q1517.6875,559.0469 1519.0313,559.0469 Q1519.6563,559.0469 1520.25,558.7813 Q1520.8438,558.5 1521.4688,557.9219 L1521.4688,560.6406 Z "/><text fill="#000000" font-family="sans-serif" font-size="12" lengthAdjust="spacingAndGlyphs" textLength="193" x="1532.5" y="559.1543">MiddlewareCommInterfaceStub</text><line style="stroke: #A80036; stroke-width: 1.5;" x1="1504.5" x2="1727.5" y1="571" y2="571"/><line style="stroke: #A80036; stroke-width: 1.5;" x1="1504.5" x2="1727.5" y1="579" y2="579"/><ellipse cx="1514.5" cy="606.8047" fill="#84BE84" rx="3" ry="3" style="stroke: #038048; stroke-width: 1.0;"/><text fill="#000000" font-family="sans-serif" font-size="11" lengthAdjust="spacingAndGlyphs" textLength="171" x="1523.5" y="610.0151">TrackData requestRfid(int rfid)</text><line style="stroke: #A80036; stroke-width: 1.0; stroke-dasharray: 1.0,2.0;" x1="1504.5" x2="1583" y1="593.4023" y2="593.4023"/><text fill="#000000" font-family="sans-serif" font-size="11" lengthAdjust="spacingAndGlyphs" textLength="66" x="1583" y="596.7104">Use Case 1</text><line style="stroke: #A80036; stroke-width: 1.0; stroke-dasharray: 1.0,2.0;" x1="1649" x2="1727.5" y1="593.4023" y2="593.4023"/><!--MD5=[c986427b061286eff33e87a088ad4bf9]
class TrackDataPlotter--><rect fill="#FEFECE" filter="url(#f1er8qd6wtjsgd)" height="218.4609" id="TrackDataPlotter" style="stroke: #A80036; stroke-width: 1.5;" width="302" x="2527" y="59"/><ellipse cx="2620.75" cy="75" fill="#ADD1B2" rx="11" ry="11" style="stroke: #A80036; stroke-width: 1.0;"/><path d="M2623.7188,80.6406 Q2623.1406,80.9375 2622.5,81.0781 Q2621.8594,81.2344 2621.1563,81.2344 Q2618.6563,81.2344 2617.3281,79.5938 Q2616.0156,77.9375 2616.0156,74.8125 Q2616.0156,71.6875 2617.3281,70.0313 Q2618.6563,68.375 2621.1563,68.375 Q2621.8594,68.375 2622.5,68.5313 Q2623.1563,68.6875 2623.7188,68.9844 L2623.7188,71.7031 Q2623.0938,71.125 2622.5,70.8594 Q2621.9063,70.5781 2621.2813,70.5781 Q2619.9375,70.5781 2619.25,71.6563 Q2618.5625,72.7188 2618.5625,74.8125 Q2618.5625,76.9063 2619.25,77.9844 Q2619.9375,79.0469 2621.2813,79.0469 Q2621.9063,79.0469 2622.5,78.7813 Q2623.0938,78.5 2623.7188,77.9219 L2623.7188,80.6406 Z "/><text fill="#000000" font-family="sans-serif" font-size="12" lengthAdjust="spacingAndGlyphs" textLength="106" x="2641.25" y="79.1543">TrackDataPlotter</text><line style="stroke: #A80036; stroke-width: 1.5;" x1="2528" x2="2828" y1="91" y2="91"/><rect fill="none" height="6" style="stroke: #C82930; stroke-width: 1.0;" width="6" x="2535" y="99"/><text fill="#000000" font-family="sans-serif" font-size="11" lengthAdjust="spacingAndGlyphs" textLength="86" x="2547" y="105.2104">TrackData data</text><rect fill="none" height="6" style="stroke: #C82930; stroke-width: 1.0;" width="6" x="2535" y="111.8047"/><text fill="#000000" font-family="sans-serif" font-size="11" lengthAdjust="spacingAndGlyphs" textLength="90" x="2547" y="118.0151">XYSeries points</text><rect fill="none" height="6" style="stroke: #C82930; stroke-width: 1.0;" width="6" x="2535" y="124.6094"/><text fill="#000000" font-family="sans-serif" font-size="11" lengthAdjust="spacingAndGlyphs" textLength="89" x="2547" y="130.8198">XYSeries fitLine</text><rect fill="none" height="6" style="stroke: #C82930; stroke-width: 1.0;" width="6" x="2535" y="137.4141"/><text fill="#000000" font-family="sans-serif" font-size="11" lengthAdjust="spacingAndGlyphs" textLength="92" x="2547" y="143.6245">JFreeChart chart</text><line style="stroke: #A80036; stroke-width: 1.5;" x1="2528" x2="2828" y1="150.2188" y2="150.2188"/><ellipse cx="2538" cy="161.2188" fill="#84BE84" rx="3" ry="3" style="stroke: #038048; stroke-width: 1.0;"/><text fill="#000000" font-family="sans-serif" font-size="11" lengthAdjust="spacingAndGlyphs" textLength="188" x="2547" y="164.4292">TrackDataPlotter(TrackData data)</text><ellipse cx="2538" cy="190.8281" fill="#84BE84" rx="3" ry="3" style="stroke: #038048; stroke-width: 1.0;"/><text fill="#000000" font-family="sans-serif" font-size="11" lengthAdjust="spacingAndGlyphs" textLength="106" x="2547" y="194.0386">void displayChart()</text><ellipse cx="2538" cy="203.6328" fill="#84BE84" rx="3" ry="3" style="stroke: #038048; stroke-width: 1.0;"/><text fill="#000000" font-family="sans-serif" font-size="11" lengthAdjust="spacingAndGlyphs" textLength="154" x="2547" y="206.8433">boolean getDisplayeChart()</text><rect fill="#F24D5C" height="6" style="stroke: #C82930; stroke-width: 1.0;" width="6" x="2535" y="213.4375"/><text fill="#000000" font-family="sans-serif" font-size="11" lengthAdjust="spacingAndGlyphs" textLength="138" x="2547" y="219.6479">XYSeries getTrackData()</text><rect fill="#F24D5C" height="6" style="stroke: #C82930; stroke-width: 1.0;" width="6" x="2535" y="226.2422"/><text fill="#000000" font-family="sans-serif" font-size="11" lengthAdjust="spacingAndGlyphs" textLength="208" x="2547" y="232.4526">XYSeries calculateLine(int[] x, int[] y)</text><rect fill="#F24D5C" height="6" style="stroke: #C82930; stroke-width: 1.0;" width="6" x="2535" y="239.0469"/><text fill="#000000" font-family="sans-serif" font-size="11" lengthAdjust="spacingAndGlyphs" textLength="273" x="2547" y="245.2573">float[] extractLatFromTrackData(TrackData data)</text><rect fill="#F24D5C" height="6" style="stroke: #C82930; stroke-width: 1.0;" width="6" x="2535" y="251.8516"/><text fill="#000000" font-family="sans-serif" font-size="11" lengthAdjust="spacingAndGlyphs" textLength="276" x="2547" y="258.062">float[] extractLngFromTrackData(TrackData data)</text><rect fill="#F24D5C" height="6" style="stroke: #C82930; stroke-width: 1.0;" width="6" x="2535" y="264.6563"/><text fill="#000000" font-family="sans-serif" font-size="11" lengthAdjust="spacingAndGlyphs" textLength="138" x="2547" y="270.8667">JFreeChart createChart()</text><line style="stroke: #A80036; stroke-width: 1.0; stroke-dasharray: 1.0,2.0;" x1="2528" x2="2645" y1="177.4258" y2="177.4258"/><text fill="#000000" font-family="sans-serif" font-size="11" lengthAdjust="spacingAndGlyphs" textLength="66" x="2645" y="180.7339">Use Case 1</text><line style="stroke: #A80036; stroke-width: 1.0; stroke-dasharray: 1.0,2.0;" x1="2711" x2="2828" y1="177.4258" y2="177.4258"/><!--MD5=[c9341cce37a1a8bee80ad1365349afef]
link DisplayCommInterface to DisplayComm2WayInterface--><!--MD5=[7835b7bc4a765bae53638d0402d5d5e6]
link DisplayComm2WayInterface to DisplayCommManager--><!--MD5=[7d92106ecb9088e13e6754b44ec571b0]
link DisplayCommInterface to DisplayCommInterfaceImplementation--><!--MD5=[51e28edbb9f88779af066724948e7048]
link DisplayCommInterfaceImplementation to DisplayComm2WayInterfaceImplementation--><!--MD5=[ea4cd417ea9ea2c0dbdbdf4e4e3d21de]
link DisplayComm2WayInterfaceImplementation to DisplayCommManagerImplementation--><!--MD5=[64e942b00478e9eef28430a914bbb142]
link DisplayCommInterfaceImplementationTests to DisplayComm2WayInterfaceImplementationTests--><!--MD5=[8dbe1f493aaf019419238fc4702b450a]
link DisplayComm2WayInterfaceImplementationTests to DisplayCommManagerImplementationTests--><!--MD5=[e81de192ca7bc9df286fd4cb58be8b46]
link DisplayCommInterfaceImplementationTests to TrackDataPlotterTests--><!--MD5=[8b898a72046de76ad345afd61090e7dd]
link TrackDataPlotterTests to DisplayComm2WayInterfaceStub--><!--MD5=[c9c9241041dbc47aa626fe1afc095e03]
link DisplayComm2WayInterfaceStub to DisplayCommManagerStub--><!--MD5=[61d9c608a539b4614526ad59aeb385a2]
link TrackDataPlotterTests to MiddlewareCommInterfaceStub--><!--MD5=[9f881c5277d7b17075596e613b3bf35c]
@startuml Display02Packages


package edu.oakland.production.display02 {

}


package edu.oakland.production.display02 {
    interface DisplayCommInterface {
        __
        .. Use Case 1 ..
        {abstract} + TrackData receiveRfidRequest(int rfidNum)
    }
}


package edu.oakland.production.display02 {
    interface DisplayComm2WayInterface {
        __
        .. Use Case 1 ..
        {abstract} + TrackData passRfidRequest(int rfidNum)
    }
}


package edu.oakland.production.display02 {
    interface DisplayCommManager {
        __
        .. Use Case 1 ..
        {abstract} + TrackData evaluateRfidRequest(int rfid)
    }
}


package edu.oakland.production.display02 {
    class DisplayCommInterfaceImplementation {
        - DisplayComm2WayInterface receiver
        - TrackData data
        - TrackDataPlotter plotter
        __
        + DisplayCommInterface(DisplayComm2WayInterface receiver)
        .. Use Case 1 ..
        + TrackData receiveRfidRequest(int rfidNum)
        
    }
}


package edu.oakland.production.display02 {
    class DisplayComm2WayInterfaceImplementation {
        - DisplayCommManager manager
        __
        + DisplayComm2WayInterfaceImplementation(DisplayCommManager manager)
        .. Use Case 1 ..
        + TrackData passRfidRequest(int rfidNum)
    }
}


package edu.oakland.production.display02 {
    class DisplayCommManagerImplementation {
        - MiddlewareCommInterface middleware
        __
        + DisplayCommManagerImplementation(MiddlewareCommInterface middleware)
        .. Use Case 1 ..
        + TrackData evaluateRfidRequest(int rfid)        
    }
}



package edu.oakland.test.display02 {
    
}


package edu.oakland.test.display02 {
    class DisplayCommInterfaceImplementationTests {
        + void displayComm2WayIsNotNull()
        + void rfidInIsRfidOut()

    }
}


package edu.oakland.test.display02 {
    class DisplayComm2WayInterfaceImplementationTests {
        + void rfidInIsRfidOut()
        + void displayCommManagerIsNotNull()
    }
}


package edu.oakland.test.display02 {
    class DisplayCommManagerImplementationTests {
        + void rfidInIsRfidOut()
        + void middlewareIsNotNull()
        - int generateRandomRfid()
    }
}


package edu.oakland.test.display02 {
    class TrackDataPlotterTests {
        + void plotIsDisplayed()
        + void nullTrackDataNotAllowed()
        + void invalidTrackDataNotAllowed()
    }
}


package edu.oakland.test.display02 {
    class DisplayComm2WayInterfaceStub {
        __
        .. Use Case 1 ..
        {abstract} + TrackData passRfidRequest(int rfidNum)
    }
}


package edu.oakland.test.display02 {
    class DisplayCommManagerStub {
        __
        .. Use Case 1 ..
        + TrackData evaluateRfidRequest(int rfidNum)
    }
}


package edu.oakland.test.display02 {
    class MiddlewareCommInterfaceStub {
        __
        .. Use Case 1 ..
        + TrackData requestRfid(int rfid)
    }
}



package edu.oakland.helper.display02 {

}


package edu.oakland.helper.display02 {
    class TrackDataPlotter {
        - TrackData data
        - XYSeries points
        - XYSeries fitLine
        - JFreeChart chart
        __
        + TrackDataPlotter(TrackData data)
        .. Use Case 1 ..
        + void displayChart()
        + boolean getDisplayeChart()
        - XYSeries getTrackData()
        - XYSeries calculateLine(int[] x, int[] y)
        - float[] extractLatFromTrackData(TrackData data)
        - float[] extractLngFromTrackData(TrackData data)
        - JFreeChart createChart()
    }
}



@enduml

PlantUML version 1.2020.02(Sun Mar 01 10:22:07 GMT 2020)
(GPL source distribution)
Java Runtime: OpenJDK Runtime Environment
JVM: OpenJDK 64-Bit Server VM
Java Version: 11.0.9+11-Ubuntu-0ubuntu1
Operating System: Linux
Default Encoding: ANSI_X3.4-1968
Language: en
Country: US
--></g></svg>