<?xml version="1.0" encoding="UTF-8" standalone="no"?><svg xmlns="http://www.w3.org/2000/svg" xmlns:xlink="http://www.w3.org/1999/xlink" contentScriptType="application/ecmascript" contentStyleType="text/css" height="658px" preserveAspectRatio="none" style="width:2855px;height:658px;" version="1.1" viewBox="0 0 2855 658" width="2855px" zoomAndPan="magnify"><defs><filter height="300%" id="fc0af2mey7ck5" width="300%" x="-1" y="-1"><feGaussianBlur result="blurOut" stdDeviation="2.0"/><feColorMatrix in="blurOut" result="blurOut2" type="matrix" values="0 0 0 0 0 0 0 0 0 0 0 0 0 0 0 0 0 0 .4 0"/><feOffset dx="4.0" dy="4.0" in="blurOut2" result="blurOut3"/><feBlend in="SourceGraphic" in2="blurOut3" mode="normal"/></filter></defs><g><!--MD5=[fe59aae6f7bfe371a9c197ec1f7f843a]
cluster edu.oakland.production.display02--><polygon fill="#FFFFFF" filter="url(#fc0af2mey7ck5)" points="22,107,295,107,302,129.2969,1425,129.2969,1425,508,22,508,22,107" style="stroke: #000000; stroke-width: 1.5;"/><line style="stroke: #000000; stroke-width: 1.5;" x1="22" x2="302" y1="129.2969" y2="129.2969"/><text fill="#000000" font-family="sans-serif" font-size="14" font-weight="bold" lengthAdjust="spacingAndGlyphs" textLength="267" x="26" y="121.9951">edu.oakland.production.display02</text><!--MD5=[9258003ec405d300d3379b4a3d8dd6ad]
cluster edu.oakland.test.display02--><polygon fill="#FFFFFF" filter="url(#fc0af2mey7ck5)" points="1449,103,1667,103,1674,125.2969,2487,125.2969,2487,646,1449,646,1449,103" style="stroke: #000000; stroke-width: 1.5;"/><line style="stroke: #000000; stroke-width: 1.5;" x1="1449" x2="1674" y1="125.2969" y2="125.2969"/><text fill="#000000" font-family="sans-serif" font-size="14" font-weight="bold" lengthAdjust="spacingAndGlyphs" textLength="212" x="1453" y="117.9951">edu.oakland.test.display02</text><!--MD5=[a502031b5a5384de0a21e6ee820fd3b2]
cluster edu.oakland.helper.display02--><polygon fill="#FFFFFF" filter="url(#fc0af2mey7ck5)" points="2511,24,2749,24,2756,46.2969,2833,46.2969,2833,319,2511,319,2511,24" style="stroke: #000000; stroke-width: 1.5;"/><line style="stroke: #000000; stroke-width: 1.5;" x1="2511" x2="2756" y1="46.2969" y2="46.2969"/><text fill="#000000" font-family="sans-serif" font-size="14" font-weight="bold" lengthAdjust="spacingAndGlyphs" textLength="232" x="2515" y="38.9951">edu.oakland.helper.display02</text><!--MD5=[c8d1e3134fecb0c949fd2a76cc0bb992]
class DisplayCommInterface--><rect fill="#FEFECE" filter="url(#fc0af2mey7ck5)" height="77.6094" id="DisplayCommInterface" style="stroke: #A80036; stroke-width: 1.5;" width="268" x="89" y="142"/><ellipse cx="149.25" cy="158" fill="#B4A7E5" rx="11" ry="11" style="stroke: #A80036; stroke-width: 1.0;"/><path d="M145.1719,153.7656 L145.1719,151.6094 L152.5625,151.6094 L152.5625,153.7656 L150.0938,153.7656 L150.0938,161.8438 L152.5625,161.8438 L152.5625,164 L145.1719,164 L145.1719,161.8438 L147.6406,161.8438 L147.6406,153.7656 L145.1719,153.7656 Z "/><text fill="#000000" font-family="sans-serif" font-size="12" font-style="italic" lengthAdjust="spacingAndGlyphs" textLength="139" x="169.75" y="162.1543">DisplayCommInterface</text><line style="stroke: #A80036; stroke-width: 1.5;" x1="90" x2="356" y1="174" y2="174"/><line style="stroke: #A80036; stroke-width: 1.5;" x1="90" x2="356" y1="182" y2="182"/><ellipse cx="100" cy="209.8047" fill="#84BE84" rx="3" ry="3" style="stroke: #038048; stroke-width: 1.0;"/><text fill="#000000" font-family="sans-serif" font-size="11" font-style="italic" lengthAdjust="spacingAndGlyphs" textLength="242" x="109" y="213.0151">TrackData receiveRfidRequest(int rfidNum)</text><line style="stroke: #A80036; stroke-width: 1.0; stroke-dasharray: 1.0,2.0;" x1="90" x2="190" y1="196.4023" y2="196.4023"/><text fill="#000000" font-family="sans-serif" font-size="11" lengthAdjust="spacingAndGlyphs" textLength="66" x="190" y="199.7104">Use Case 1</text><line style="stroke: #A80036; stroke-width: 1.0; stroke-dasharray: 1.0,2.0;" x1="256" x2="356" y1="196.4023" y2="196.4023"/><!--MD5=[f6b51b5f862da5ce226c62e411e84628]
class DisplayComm2WayInterface--><rect fill="#FEFECE" filter="url(#fc0af2mey7ck5)" height="77.6094" id="DisplayComm2WayInterface" style="stroke: #A80036; stroke-width: 1.5;" width="252" x="392" y="142"/><ellipse cx="427.7" cy="158" fill="#B4A7E5" rx="11" ry="11" style="stroke: #A80036; stroke-width: 1.0;"/><path d="M423.6219,153.7656 L423.6219,151.6094 L431.0125,151.6094 L431.0125,153.7656 L428.5438,153.7656 L428.5438,161.8438 L431.0125,161.8438 L431.0125,164 L423.6219,164 L423.6219,161.8438 L426.0906,161.8438 L426.0906,153.7656 L423.6219,153.7656 Z "/><text fill="#000000" font-family="sans-serif" font-size="12" font-style="italic" lengthAdjust="spacingAndGlyphs" textLength="174" x="446.3" y="162.1543">DisplayComm2WayInterface</text><line style="stroke: #A80036; stroke-width: 1.5;" x1="393" x2="643" y1="174" y2="174"/><line style="stroke: #A80036; stroke-width: 1.5;" x1="393" x2="643" y1="182" y2="182"/><ellipse cx="403" cy="209.8047" fill="#84BE84" rx="3" ry="3" style="stroke: #038048; stroke-width: 1.0;"/><text fill="#000000" font-family="sans-serif" font-size="11" font-style="italic" lengthAdjust="spacingAndGlyphs" textLength="226" x="412" y="213.0151">TrackData passRfidRequest(int rfidNum)</text><line style="stroke: #A80036; stroke-width: 1.0; stroke-dasharray: 1.0,2.0;" x1="393" x2="485" y1="196.4023" y2="196.4023"/><text fill="#000000" font-family="sans-serif" font-size="11" lengthAdjust="spacingAndGlyphs" textLength="66" x="485" y="199.7104">Use Case 1</text><line style="stroke: #A80036; stroke-width: 1.0; stroke-dasharray: 1.0,2.0;" x1="551" x2="643" y1="196.4023" y2="196.4023"/><!--MD5=[6aeb72f2773d7cabb45309482beeff0a]
class DisplayCommManager--><rect fill="#FEFECE" filter="url(#fc0af2mey7ck5)" height="77.6094" id="DisplayCommManager" style="stroke: #A80036; stroke-width: 1.5;" width="249" x="679.5" y="142"/><ellipse cx="731.25" cy="158" fill="#B4A7E5" rx="11" ry="11" style="stroke: #A80036; stroke-width: 1.0;"/><path d="M727.1719,153.7656 L727.1719,151.6094 L734.5625,151.6094 L734.5625,153.7656 L732.0938,153.7656 L732.0938,161.8438 L734.5625,161.8438 L734.5625,164 L727.1719,164 L727.1719,161.8438 L729.6406,161.8438 L729.6406,153.7656 L727.1719,153.7656 Z "/><text fill="#000000" font-family="sans-serif" font-size="12" font-style="italic" lengthAdjust="spacingAndGlyphs" textLength="137" x="751.75" y="162.1543">DisplayCommManager</text><line style="stroke: #A80036; stroke-width: 1.5;" x1="680.5" x2="927.5" y1="174" y2="174"/><line style="stroke: #A80036; stroke-width: 1.5;" x1="680.5" x2="927.5" y1="182" y2="182"/><ellipse cx="690.5" cy="209.8047" fill="#84BE84" rx="3" ry="3" style="stroke: #038048; stroke-width: 1.0;"/><text fill="#000000" font-family="sans-serif" font-size="11" font-style="italic" lengthAdjust="spacingAndGlyphs" textLength="223" x="699.5" y="213.0151">TrackData evaluateRfidRequest(int rfid)</text><line style="stroke: #A80036; stroke-width: 1.0; stroke-dasharray: 1.0,2.0;" x1="680.5" x2="771" y1="196.4023" y2="196.4023"/><text fill="#000000" font-family="sans-serif" font-size="11" lengthAdjust="spacingAndGlyphs" textLength="66" x="771" y="199.7104">Use Case 1</text><line style="stroke: #A80036; stroke-width: 1.0; stroke-dasharray: 1.0,2.0;" x1="837" x2="927.5" y1="196.4023" y2="196.4023"/><!--MD5=[a35092e604da7274febf4e2cf9a25087]
class DisplayCommInterfaceImplementation--><rect fill="#FEFECE" filter="url(#fc0af2mey7ck5)" height="116.0234" id="DisplayCommInterfaceImplementation" style="stroke: #A80036; stroke-width: 1.5;" width="369" x="38.5" y="369.5"/><ellipse cx="101.25" cy="385.5" fill="#ADD1B2" rx="11" ry="11" style="stroke: #A80036; stroke-width: 1.0;"/><path d="M104.2188,391.1406 Q103.6406,391.4375 103,391.5781 Q102.3594,391.7344 101.6563,391.7344 Q99.1563,391.7344 97.8281,390.0938 Q96.5156,388.4375 96.5156,385.3125 Q96.5156,382.1875 97.8281,380.5313 Q99.1563,378.875 101.6563,378.875 Q102.3594,378.875 103,379.0313 Q103.6563,379.1875 104.2188,379.4844 L104.2188,382.2031 Q103.5938,381.625 103,381.3594 Q102.4063,381.0781 101.7813,381.0781 Q100.4375,381.0781 99.75,382.1563 Q99.0625,383.2188 99.0625,385.3125 Q99.0625,387.4063 99.75,388.4844 Q100.4375,389.5469 101.7813,389.5469 Q102.4063,389.5469 103,389.2813 Q103.5938,389 104.2188,388.4219 L104.2188,391.1406 Z "/><text fill="#000000" font-family="sans-serif" font-size="12" lengthAdjust="spacingAndGlyphs" textLength="235" x="121.75" y="389.6543">DisplayCommInterfaceImplementation</text><line style="stroke: #A80036; stroke-width: 1.5;" x1="39.5" x2="406.5" y1="401.5" y2="401.5"/><rect fill="none" height="6" style="stroke: #C82930; stroke-width: 1.0;" width="6" x="46.5" y="409.5"/><text fill="#000000" font-family="sans-serif" font-size="11" lengthAdjust="spacingAndGlyphs" textLength="207" x="58.5" y="415.7104">DisplayComm2WayInterface receiver</text><line style="stroke: #A80036; stroke-width: 1.5;" x1="39.5" x2="406.5" y1="422.3047" y2="422.3047"/><ellipse cx="49.5" cy="433.3047" fill="#84BE84" rx="3" ry="3" style="stroke: #038048; stroke-width: 1.0;"/><text fill="#000000" font-family="sans-serif" font-size="11" lengthAdjust="spacingAndGlyphs" textLength="343" x="58.5" y="436.5151">DisplayCommInterface(DisplayComm2WayInterface receiver)</text><ellipse cx="49.5" cy="462.9141" fill="#84BE84" rx="3" ry="3" style="stroke: #038048; stroke-width: 1.0;"/><text fill="#000000" font-family="sans-serif" font-size="11" lengthAdjust="spacingAndGlyphs" textLength="240" x="58.5" y="466.1245">TrackData receiveRfidRequest(int rfidNum)</text><text fill="#000000" font-family="sans-serif" font-size="11" lengthAdjust="spacingAndGlyphs" textLength="0" x="62.5" y="478.9292"/><line style="stroke: #A80036; stroke-width: 1.0; stroke-dasharray: 1.0,2.0;" x1="39.5" x2="190" y1="449.5117" y2="449.5117"/><text fill="#000000" font-family="sans-serif" font-size="11" lengthAdjust="spacingAndGlyphs" textLength="66" x="190" y="452.8198">Use Case 1</text><line style="stroke: #A80036; stroke-width: 1.0; stroke-dasharray: 1.0,2.0;" x1="256" x2="406.5" y1="449.5117" y2="449.5117"/><!--MD5=[46657c2900260d4d40350fe3f8c544df]
class DisplayComm2WayInterfaceImplementation--><rect fill="#FEFECE" filter="url(#fc0af2mey7ck5)" height="128.8281" id="DisplayComm2WayInterfaceImplementation" style="stroke: #A80036; stroke-width: 1.5;" width="461" x="442.5" y="363"/><ellipse cx="534.75" cy="379" fill="#ADD1B2" rx="11" ry="11" style="stroke: #A80036; stroke-width: 1.0;"/><path d="M537.7188,384.6406 Q537.1406,384.9375 536.5,385.0781 Q535.8594,385.2344 535.1563,385.2344 Q532.6563,385.2344 531.3281,383.5938 Q530.0156,381.9375 530.0156,378.8125 Q530.0156,375.6875 531.3281,374.0313 Q532.6563,372.375 535.1563,372.375 Q535.8594,372.375 536.5,372.5313 Q537.1563,372.6875 537.7188,372.9844 L537.7188,375.7031 Q537.0938,375.125 536.5,374.8594 Q535.9063,374.5781 535.2813,374.5781 Q533.9375,374.5781 533.25,375.6563 Q532.5625,376.7188 532.5625,378.8125 Q532.5625,380.9063 533.25,381.9844 Q533.9375,383.0469 535.2813,383.0469 Q535.9063,383.0469 536.5,382.7813 Q537.0938,382.5 537.7188,381.9219 L537.7188,384.6406 Z "/><text fill="#000000" font-family="sans-serif" font-size="12" lengthAdjust="spacingAndGlyphs" textLength="268" x="555.25" y="383.1543">DisplayComm2WayInterfaceImplementation</text><line style="stroke: #A80036; stroke-width: 1.5;" x1="443.5" x2="902.5" y1="395" y2="395"/><rect fill="none" height="6" style="stroke: #C82930; stroke-width: 1.0;" width="6" x="450.5" y="403"/><text fill="#000000" font-family="sans-serif" font-size="11" lengthAdjust="spacingAndGlyphs" textLength="182" x="462.5" y="409.2104">DisplayCommManager manager</text><line style="stroke: #A80036; stroke-width: 1.5;" x1="443.5" x2="902.5" y1="415.8047" y2="415.8047"/><ellipse cx="453.5" cy="426.8047" fill="#84BE84" rx="3" ry="3" style="stroke: #038048; stroke-width: 1.0;"/><text fill="#000000" font-family="sans-serif" font-size="11" lengthAdjust="spacingAndGlyphs" textLength="435" x="462.5" y="430.0151">DisplayComm2WayInterfaceImplementation(DisplayCommManager manager)</text><ellipse cx="453.5" cy="456.4141" fill="#84BE84" rx="3" ry="3" style="stroke: #038048; stroke-width: 1.0;"/><text fill="#000000" font-family="sans-serif" font-size="11" lengthAdjust="spacingAndGlyphs" textLength="227" x="462.5" y="459.6245">TrackData passRfidRequest(int rfidNum)</text><rect fill="#F24D5C" height="6" style="stroke: #C82930; stroke-width: 1.0;" width="6" x="450.5" y="466.2188"/><text fill="#000000" font-family="sans-serif" font-size="11" lengthAdjust="spacingAndGlyphs" textLength="269" x="462.5" y="472.4292">void determineUserRequestFormat(int rfidNum)</text><rect fill="#F24D5C" height="6" style="stroke: #C82930; stroke-width: 1.0;" width="6" x="450.5" y="479.0234"/><text fill="#000000" font-family="sans-serif" font-size="11" lengthAdjust="spacingAndGlyphs" textLength="342" x="462.5" y="485.2339">void receiveRequestFromDisplayCommInterface(int rfidNum)</text><line style="stroke: #A80036; stroke-width: 1.0; stroke-dasharray: 1.0,2.0;" x1="443.5" x2="640" y1="443.0117" y2="443.0117"/><text fill="#000000" font-family="sans-serif" font-size="11" lengthAdjust="spacingAndGlyphs" textLength="66" x="640" y="446.3198">Use Case 1</text><line style="stroke: #A80036; stroke-width: 1.0; stroke-dasharray: 1.0,2.0;" x1="706" x2="902.5" y1="443.0117" y2="443.0117"/><!--MD5=[3a27b63ddb357afc5dde5581215f51f9]
class DisplayCommManagerImplementation--><rect fill="#FEFECE" filter="url(#fc0af2mey7ck5)" height="103.2188" id="DisplayCommManagerImplementation" style="stroke: #A80036; stroke-width: 1.5;" width="470" x="939" y="376"/><ellipse cx="1052.75" cy="392" fill="#ADD1B2" rx="11" ry="11" style="stroke: #A80036; stroke-width: 1.0;"/><path d="M1055.7188,397.6406 Q1055.1406,397.9375 1054.5,398.0781 Q1053.8594,398.2344 1053.1563,398.2344 Q1050.6563,398.2344 1049.3281,396.5938 Q1048.0156,394.9375 1048.0156,391.8125 Q1048.0156,388.6875 1049.3281,387.0313 Q1050.6563,385.375 1053.1563,385.375 Q1053.8594,385.375 1054.5,385.5313 Q1055.1563,385.6875 1055.7188,385.9844 L1055.7188,388.7031 Q1055.0938,388.125 1054.5,387.8594 Q1053.9063,387.5781 1053.2813,387.5781 Q1051.9375,387.5781 1051.25,388.6563 Q1050.5625,389.7188 1050.5625,391.8125 Q1050.5625,393.9063 1051.25,394.9844 Q1051.9375,396.0469 1053.2813,396.0469 Q1053.9063,396.0469 1054.5,395.7813 Q1055.0938,395.5 1055.7188,394.9219 L1055.7188,397.6406 Z "/><text fill="#000000" font-family="sans-serif" font-size="12" lengthAdjust="spacingAndGlyphs" textLength="234" x="1073.25" y="396.1543">DisplayCommManagerImplementation</text><line style="stroke: #A80036; stroke-width: 1.5;" x1="940" x2="1408" y1="408" y2="408"/><rect fill="none" height="6" style="stroke: #C82930; stroke-width: 1.0;" width="6" x="947" y="416"/><text fill="#000000" font-family="sans-serif" font-size="11" lengthAdjust="spacingAndGlyphs" textLength="221" x="959" y="422.2104">MiddlewareCommInterface middleware</text><line style="stroke: #A80036; stroke-width: 1.5;" x1="940" x2="1408" y1="428.8047" y2="428.8047"/><ellipse cx="950" cy="439.8047" fill="#84BE84" rx="3" ry="3" style="stroke: #038048; stroke-width: 1.0;"/><text fill="#000000" font-family="sans-serif" font-size="11" lengthAdjust="spacingAndGlyphs" textLength="444" x="959" y="443.0151">DisplayCommManagerImplementation(MiddlewareCommInterface middleware)</text><ellipse cx="950" cy="469.4141" fill="#84BE84" rx="3" ry="3" style="stroke: #038048; stroke-width: 1.0;"/><text fill="#000000" font-family="sans-serif" font-size="11" lengthAdjust="spacingAndGlyphs" textLength="221" x="959" y="472.6245">TrackData evaluateRfidRequest(int rfid)</text><line style="stroke: #A80036; stroke-width: 1.0; stroke-dasharray: 1.0,2.0;" x1="940" x2="1141" y1="456.0117" y2="456.0117"/><text fill="#000000" font-family="sans-serif" font-size="11" lengthAdjust="spacingAndGlyphs" textLength="66" x="1141" y="459.3198">Use Case 1</text><line style="stroke: #A80036; stroke-width: 1.0; stroke-dasharray: 1.0,2.0;" x1="1207" x2="1408" y1="456.0117" y2="456.0117"/><!--MD5=[d454b7777f115113290d89683d7a426c]
class DisplayCommInterfaceImplementationTests--><rect fill="#FEFECE" filter="url(#fc0af2mey7ck5)" height="73.6094" id="DisplayCommInterfaceImplementationTests" style="stroke: #A80036; stroke-width: 1.5;" width="301" x="1465.5" y="144"/><ellipse cx="1480.5" cy="160" fill="#ADD1B2" rx="11" ry="11" style="stroke: #A80036; stroke-width: 1.0;"/><path d="M1483.4688,165.6406 Q1482.8906,165.9375 1482.25,166.0781 Q1481.6094,166.2344 1480.9063,166.2344 Q1478.4063,166.2344 1477.0781,164.5938 Q1475.7656,162.9375 1475.7656,159.8125 Q1475.7656,156.6875 1477.0781,155.0313 Q1478.4063,153.375 1480.9063,153.375 Q1481.6094,153.375 1482.25,153.5313 Q1482.9063,153.6875 1483.4688,153.9844 L1483.4688,156.7031 Q1482.8438,156.125 1482.25,155.8594 Q1481.6563,155.5781 1481.0313,155.5781 Q1479.6875,155.5781 1479,156.6563 Q1478.3125,157.7188 1478.3125,159.8125 Q1478.3125,161.9063 1479,162.9844 Q1479.6875,164.0469 1481.0313,164.0469 Q1481.6563,164.0469 1482.25,163.7813 Q1482.8438,163.5 1483.4688,162.9219 L1483.4688,165.6406 Z "/><text fill="#000000" font-family="sans-serif" font-size="12" lengthAdjust="spacingAndGlyphs" textLength="269" x="1494.5" y="164.1543">DisplayCommInterfaceImplementationTests</text><line style="stroke: #A80036; stroke-width: 1.5;" x1="1466.5" x2="1765.5" y1="176" y2="176"/><line style="stroke: #A80036; stroke-width: 1.5;" x1="1466.5" x2="1765.5" y1="184" y2="184"/><ellipse cx="1476.5" cy="195" fill="#84BE84" rx="3" ry="3" style="stroke: #038048; stroke-width: 1.0;"/><text fill="#000000" font-family="sans-serif" font-size="11" lengthAdjust="spacingAndGlyphs" textLength="191" x="1485.5" y="198.2104">void displayComm2WayIsNotNull()</text><ellipse cx="1476.5" cy="207.8047" fill="#84BE84" rx="3" ry="3" style="stroke: #038048; stroke-width: 1.0;"/><text fill="#000000" font-family="sans-serif" font-size="11" lengthAdjust="spacingAndGlyphs" textLength="115" x="1485.5" y="211.0151">void rfidInIsRfidOut()</text><!--MD5=[178181f4c7684560c711246055fc01d3]
class DisplayComm2WayInterfaceImplementationTests--><rect fill="#FEFECE" filter="url(#fc0af2mey7ck5)" height="73.6094" id="DisplayComm2WayInterfaceImplementationTests" style="stroke: #A80036; stroke-width: 1.5;" width="334" x="1802" y="144"/><ellipse cx="1817" cy="160" fill="#ADD1B2" rx="11" ry="11" style="stroke: #A80036; stroke-width: 1.0;"/><path d="M1819.9688,165.6406 Q1819.3906,165.9375 1818.75,166.0781 Q1818.1094,166.2344 1817.4063,166.2344 Q1814.9063,166.2344 1813.5781,164.5938 Q1812.2656,162.9375 1812.2656,159.8125 Q1812.2656,156.6875 1813.5781,155.0313 Q1814.9063,153.375 1817.4063,153.375 Q1818.1094,153.375 1818.75,153.5313 Q1819.4063,153.6875 1819.9688,153.9844 L1819.9688,156.7031 Q1819.3438,156.125 1818.75,155.8594 Q1818.1563,155.5781 1817.5313,155.5781 Q1816.1875,155.5781 1815.5,156.6563 Q1814.8125,157.7188 1814.8125,159.8125 Q1814.8125,161.9063 1815.5,162.9844 Q1816.1875,164.0469 1817.5313,164.0469 Q1818.1563,164.0469 1818.75,163.7813 Q1819.3438,163.5 1819.9688,162.9219 L1819.9688,165.6406 Z "/><text fill="#000000" font-family="sans-serif" font-size="12" lengthAdjust="spacingAndGlyphs" textLength="302" x="1831" y="164.1543">DisplayComm2WayInterfaceImplementationTests</text><line style="stroke: #A80036; stroke-width: 1.5;" x1="1803" x2="2135" y1="176" y2="176"/><line style="stroke: #A80036; stroke-width: 1.5;" x1="1803" x2="2135" y1="184" y2="184"/><ellipse cx="1813" cy="195" fill="#84BE84" rx="3" ry="3" style="stroke: #038048; stroke-width: 1.0;"/><text fill="#000000" font-family="sans-serif" font-size="11" lengthAdjust="spacingAndGlyphs" textLength="115" x="1822" y="198.2104">void rfidInIsRfidOut()</text><ellipse cx="1813" cy="207.8047" fill="#84BE84" rx="3" ry="3" style="stroke: #038048; stroke-width: 1.0;"/><text fill="#000000" font-family="sans-serif" font-size="11" lengthAdjust="spacingAndGlyphs" textLength="211" x="1822" y="211.0151">void displayCommManagerIsNotNull()</text><!--MD5=[937d6d8ff87a99d0d5dcd66ee05a1fa4]
class DisplayCommManagerImplementationTests--><rect fill="#FEFECE" filter="url(#fc0af2mey7ck5)" height="86.4141" id="DisplayCommManagerImplementationTests" style="stroke: #A80036; stroke-width: 1.5;" width="300" x="2171" y="138"/><ellipse cx="2186" cy="154" fill="#ADD1B2" rx="11" ry="11" style="stroke: #A80036; stroke-width: 1.0;"/><path d="M2188.9688,159.6406 Q2188.3906,159.9375 2187.75,160.0781 Q2187.1094,160.2344 2186.4063,160.2344 Q2183.9063,160.2344 2182.5781,158.5938 Q2181.2656,156.9375 2181.2656,153.8125 Q2181.2656,150.6875 2182.5781,149.0313 Q2183.9063,147.375 2186.4063,147.375 Q2187.1094,147.375 2187.75,147.5313 Q2188.4063,147.6875 2188.9688,147.9844 L2188.9688,150.7031 Q2188.3438,150.125 2187.75,149.8594 Q2187.1563,149.5781 2186.5313,149.5781 Q2185.1875,149.5781 2184.5,150.6563 Q2183.8125,151.7188 2183.8125,153.8125 Q2183.8125,155.9063 2184.5,156.9844 Q2185.1875,158.0469 2186.5313,158.0469 Q2187.1563,158.0469 2187.75,157.7813 Q2188.3438,157.5 2188.9688,156.9219 L2188.9688,159.6406 Z "/><text fill="#000000" font-family="sans-serif" font-size="12" lengthAdjust="spacingAndGlyphs" textLength="268" x="2200" y="158.1543">DisplayCommManagerImplementationTests</text><line style="stroke: #A80036; stroke-width: 1.5;" x1="2172" x2="2470" y1="170" y2="170"/><line style="stroke: #A80036; stroke-width: 1.5;" x1="2172" x2="2470" y1="178" y2="178"/><ellipse cx="2182" cy="189" fill="#84BE84" rx="3" ry="3" style="stroke: #038048; stroke-width: 1.0;"/><text fill="#000000" font-family="sans-serif" font-size="11" lengthAdjust="spacingAndGlyphs" textLength="115" x="2191" y="192.2104">void rfidInIsRfidOut()</text><ellipse cx="2182" cy="201.8047" fill="#84BE84" rx="3" ry="3" style="stroke: #038048; stroke-width: 1.0;"/><text fill="#000000" font-family="sans-serif" font-size="11" lengthAdjust="spacingAndGlyphs" textLength="151" x="2191" y="205.0151">void middlewareIsNotNull()</text><rect fill="#F24D5C" height="6" style="stroke: #C82930; stroke-width: 1.0;" width="6" x="2179" y="211.6094"/><text fill="#000000" font-family="sans-serif" font-size="11" lengthAdjust="spacingAndGlyphs" textLength="144" x="2191" y="217.8198">int generateRandomRfid()</text><!--MD5=[930c8140e7c1cb8e71aa7cd49967748e]
class TrackDataPlotterTests--><rect fill="#FEFECE" filter="url(#fc0af2mey7ck5)" height="86.4141" id="TrackDataPlotterTests" style="stroke: #A80036; stroke-width: 1.5;" width="216" x="1508" y="384.5"/><ellipse cx="1542.8" cy="400.5" fill="#ADD1B2" rx="11" ry="11" style="stroke: #A80036; stroke-width: 1.0;"/><path d="M1545.7688,406.1406 Q1545.1906,406.4375 1544.55,406.5781 Q1543.9094,406.7344 1543.2063,406.7344 Q1540.7063,406.7344 1539.3781,405.0938 Q1538.0656,403.4375 1538.0656,400.3125 Q1538.0656,397.1875 1539.3781,395.5313 Q1540.7063,393.875 1543.2063,393.875 Q1543.9094,393.875 1544.55,394.0313 Q1545.2063,394.1875 1545.7688,394.4844 L1545.7688,397.2031 Q1545.1438,396.625 1544.55,396.3594 Q1543.9563,396.0781 1543.3313,396.0781 Q1541.9875,396.0781 1541.3,397.1563 Q1540.6125,398.2188 1540.6125,400.3125 Q1540.6125,402.4063 1541.3,403.4844 Q1541.9875,404.5469 1543.3313,404.5469 Q1543.9563,404.5469 1544.55,404.2813 Q1545.1438,404 1545.7688,403.4219 L1545.7688,406.1406 Z "/><text fill="#000000" font-family="sans-serif" font-size="12" lengthAdjust="spacingAndGlyphs" textLength="140" x="1561.2" y="404.6543">TrackDataPlotterTests</text><line style="stroke: #A80036; stroke-width: 1.5;" x1="1509" x2="1723" y1="416.5" y2="416.5"/><line style="stroke: #A80036; stroke-width: 1.5;" x1="1509" x2="1723" y1="424.5" y2="424.5"/><ellipse cx="1519" cy="435.5" fill="#84BE84" rx="3" ry="3" style="stroke: #038048; stroke-width: 1.0;"/><text fill="#000000" font-family="sans-serif" font-size="11" lengthAdjust="spacingAndGlyphs" textLength="121" x="1528" y="438.7104">void plotIsDisplayed()</text><ellipse cx="1519" cy="448.3047" fill="#84BE84" rx="3" ry="3" style="stroke: #038048; stroke-width: 1.0;"/><text fill="#000000" font-family="sans-serif" font-size="11" lengthAdjust="spacingAndGlyphs" textLength="174" x="1528" y="451.5151">void nullTrackDataNotAllowed()</text><ellipse cx="1519" cy="461.1094" fill="#84BE84" rx="3" ry="3" style="stroke: #038048; stroke-width: 1.0;"/><text fill="#000000" font-family="sans-serif" font-size="11" lengthAdjust="spacingAndGlyphs" textLength="190" x="1528" y="464.3198">void invalidTrackDataNotAllowed()</text><!--MD5=[a333ac13e0fdf2a5898aafabd38d3c1b]
class DisplayComm2WayInterfaceStub--><rect fill="#FEFECE" filter="url(#fc0af2mey7ck5)" height="77.6094" id="DisplayComm2WayInterfaceStub" style="stroke: #A80036; stroke-width: 1.5;" width="252" x="1759" y="388.5"/><ellipse cx="1783" cy="404.5" fill="#ADD1B2" rx="11" ry="11" style="stroke: #A80036; stroke-width: 1.0;"/><path d="M1785.9688,410.1406 Q1785.3906,410.4375 1784.75,410.5781 Q1784.1094,410.7344 1783.4063,410.7344 Q1780.9063,410.7344 1779.5781,409.0938 Q1778.2656,407.4375 1778.2656,404.3125 Q1778.2656,401.1875 1779.5781,399.5313 Q1780.9063,397.875 1783.4063,397.875 Q1784.1094,397.875 1784.75,398.0313 Q1785.4063,398.1875 1785.9688,398.4844 L1785.9688,401.2031 Q1785.3438,400.625 1784.75,400.3594 Q1784.1563,400.0781 1783.5313,400.0781 Q1782.1875,400.0781 1781.5,401.1563 Q1780.8125,402.2188 1780.8125,404.3125 Q1780.8125,406.4063 1781.5,407.4844 Q1782.1875,408.5469 1783.5313,408.5469 Q1784.1563,408.5469 1784.75,408.2813 Q1785.3438,408 1785.9688,407.4219 L1785.9688,410.1406 Z "/><text fill="#000000" font-family="sans-serif" font-size="12" lengthAdjust="spacingAndGlyphs" textLength="200" x="1799" y="408.6543">DisplayComm2WayInterfaceStub</text><line style="stroke: #A80036; stroke-width: 1.5;" x1="1760" x2="2010" y1="420.5" y2="420.5"/><line style="stroke: #A80036; stroke-width: 1.5;" x1="1760" x2="2010" y1="428.5" y2="428.5"/><ellipse cx="1770" cy="456.3047" fill="#84BE84" rx="3" ry="3" style="stroke: #038048; stroke-width: 1.0;"/><text fill="#000000" font-family="sans-serif" font-size="11" font-style="italic" lengthAdjust="spacingAndGlyphs" textLength="226" x="1779" y="459.5151">TrackData passRfidRequest(int rfidNum)</text><line style="stroke: #A80036; stroke-width: 1.0; stroke-dasharray: 1.0,2.0;" x1="1760" x2="1852" y1="442.9023" y2="442.9023"/><text fill="#000000" font-family="sans-serif" font-size="11" lengthAdjust="spacingAndGlyphs" textLength="66" x="1852" y="446.2104">Use Case 1</text><line style="stroke: #A80036; stroke-width: 1.0; stroke-dasharray: 1.0,2.0;" x1="1918" x2="2010" y1="442.9023" y2="442.9023"/><!--MD5=[2970358178d6cf57fc5a801b39eb8d0b]
class DisplayCommManagerStub--><rect fill="#FEFECE" filter="url(#fc0af2mey7ck5)" height="77.6094" id="DisplayCommManagerStub" style="stroke: #A80036; stroke-width: 1.5;" width="273" x="2046.5" y="388.5"/><ellipse cx="2095.75" cy="404.5" fill="#ADD1B2" rx="11" ry="11" style="stroke: #A80036; stroke-width: 1.0;"/><path d="M2098.7188,410.1406 Q2098.1406,410.4375 2097.5,410.5781 Q2096.8594,410.7344 2096.1563,410.7344 Q2093.6563,410.7344 2092.3281,409.0938 Q2091.0156,407.4375 2091.0156,404.3125 Q2091.0156,401.1875 2092.3281,399.5313 Q2093.6563,397.875 2096.1563,397.875 Q2096.8594,397.875 2097.5,398.0313 Q2098.1563,398.1875 2098.7188,398.4844 L2098.7188,401.2031 Q2098.0938,400.625 2097.5,400.3594 Q2096.9063,400.0781 2096.2813,400.0781 Q2094.9375,400.0781 2094.25,401.1563 Q2093.5625,402.2188 2093.5625,404.3125 Q2093.5625,406.4063 2094.25,407.4844 Q2094.9375,408.5469 2096.2813,408.5469 Q2096.9063,408.5469 2097.5,408.2813 Q2098.0938,408 2098.7188,407.4219 L2098.7188,410.1406 Z "/><text fill="#000000" font-family="sans-serif" font-size="12" lengthAdjust="spacingAndGlyphs" textLength="166" x="2116.25" y="408.6543">DisplayCommManagerStub</text><line style="stroke: #A80036; stroke-width: 1.5;" x1="2047.5" x2="2318.5" y1="420.5" y2="420.5"/><line style="stroke: #A80036; stroke-width: 1.5;" x1="2047.5" x2="2318.5" y1="428.5" y2="428.5"/><ellipse cx="2057.5" cy="456.3047" fill="#84BE84" rx="3" ry="3" style="stroke: #038048; stroke-width: 1.0;"/><text fill="#000000" font-family="sans-serif" font-size="11" lengthAdjust="spacingAndGlyphs" textLength="247" x="2066.5" y="459.5151">TrackData evaluateRfidRequest(int rfidNum)</text><line style="stroke: #A80036; stroke-width: 1.0; stroke-dasharray: 1.0,2.0;" x1="2047.5" x2="2150" y1="442.9023" y2="442.9023"/><text fill="#000000" font-family="sans-serif" font-size="11" lengthAdjust="spacingAndGlyphs" textLength="66" x="2150" y="446.2104">Use Case 1</text><line style="stroke: #A80036; stroke-width: 1.0; stroke-dasharray: 1.0,2.0;" x1="2216" x2="2318.5" y1="442.9023" y2="442.9023"/><!--MD5=[cf56a65163663c6c6c7b84cd7c204b97]
class MiddlewareCommInterfaceStub--><rect fill="#FEFECE" filter="url(#fc0af2mey7ck5)" height="77.6094" id="MiddlewareCommInterfaceStub" style="stroke: #A80036; stroke-width: 1.5;" width="225" x="1503.5" y="552"/><ellipse cx="1518.5" cy="568" fill="#ADD1B2" rx="11" ry="11" style="stroke: #A80036; stroke-width: 1.0;"/><path d="M1521.4688,573.6406 Q1520.8906,573.9375 1520.25,574.0781 Q1519.6094,574.2344 1518.9063,574.2344 Q1516.4063,574.2344 1515.0781,572.5938 Q1513.7656,570.9375 1513.7656,567.8125 Q1513.7656,564.6875 1515.0781,563.0313 Q1516.4063,561.375 1518.9063,561.375 Q1519.6094,561.375 1520.25,561.5313 Q1520.9063,561.6875 1521.4688,561.9844 L1521.4688,564.7031 Q1520.8438,564.125 1520.25,563.8594 Q1519.6563,563.5781 1519.0313,563.5781 Q1517.6875,563.5781 1517,564.6563 Q1516.3125,565.7188 1516.3125,567.8125 Q1516.3125,569.9063 1517,570.9844 Q1517.6875,572.0469 1519.0313,572.0469 Q1519.6563,572.0469 1520.25,571.7813 Q1520.8438,571.5 1521.4688,570.9219 L1521.4688,573.6406 Z "/><text fill="#000000" font-family="sans-serif" font-size="12" lengthAdjust="spacingAndGlyphs" textLength="193" x="1532.5" y="572.1543">MiddlewareCommInterfaceStub</text><line style="stroke: #A80036; stroke-width: 1.5;" x1="1504.5" x2="1727.5" y1="584" y2="584"/><line style="stroke: #A80036; stroke-width: 1.5;" x1="1504.5" x2="1727.5" y1="592" y2="592"/><ellipse cx="1514.5" cy="619.8047" fill="#84BE84" rx="3" ry="3" style="stroke: #038048; stroke-width: 1.0;"/><text fill="#000000" font-family="sans-serif" font-size="11" lengthAdjust="spacingAndGlyphs" textLength="171" x="1523.5" y="623.0151">TrackData requestRfid(int rfid)</text><line style="stroke: #A80036; stroke-width: 1.0; stroke-dasharray: 1.0,2.0;" x1="1504.5" x2="1583" y1="606.4023" y2="606.4023"/><text fill="#000000" font-family="sans-serif" font-size="11" lengthAdjust="spacingAndGlyphs" textLength="66" x="1583" y="609.7104">Use Case 1</text><line style="stroke: #A80036; stroke-width: 1.0; stroke-dasharray: 1.0,2.0;" x1="1649" x2="1727.5" y1="606.4023" y2="606.4023"/><!--MD5=[c986427b061286eff33e87a088ad4bf9]
class TrackDataPlotter--><rect fill="#FEFECE" filter="url(#fc0af2mey7ck5)" height="244.0703" id="TrackDataPlotter" style="stroke: #A80036; stroke-width: 1.5;" width="291" x="2526.5" y="59"/><ellipse cx="2614.75" cy="75" fill="#ADD1B2" rx="11" ry="11" style="stroke: #A80036; stroke-width: 1.0;"/><path d="M2617.7188,80.6406 Q2617.1406,80.9375 2616.5,81.0781 Q2615.8594,81.2344 2615.1563,81.2344 Q2612.6563,81.2344 2611.3281,79.5938 Q2610.0156,77.9375 2610.0156,74.8125 Q2610.0156,71.6875 2611.3281,70.0313 Q2612.6563,68.375 2615.1563,68.375 Q2615.8594,68.375 2616.5,68.5313 Q2617.1563,68.6875 2617.7188,68.9844 L2617.7188,71.7031 Q2617.0938,71.125 2616.5,70.8594 Q2615.9063,70.5781 2615.2813,70.5781 Q2613.9375,70.5781 2613.25,71.6563 Q2612.5625,72.7188 2612.5625,74.8125 Q2612.5625,76.9063 2613.25,77.9844 Q2613.9375,79.0469 2615.2813,79.0469 Q2615.9063,79.0469 2616.5,78.7813 Q2617.0938,78.5 2617.7188,77.9219 L2617.7188,80.6406 Z "/><text fill="#000000" font-family="sans-serif" font-size="12" lengthAdjust="spacingAndGlyphs" textLength="106" x="2635.25" y="79.1543">TrackDataPlotter</text><line style="stroke: #A80036; stroke-width: 1.5;" x1="2527.5" x2="2816.5" y1="91" y2="91"/><rect fill="none" height="6" style="stroke: #C82930; stroke-width: 1.0;" width="6" x="2534.5" y="99"/><text fill="#000000" font-family="sans-serif" font-size="11" lengthAdjust="spacingAndGlyphs" textLength="86" x="2546.5" y="105.2104">TrackData data</text><rect fill="none" height="6" style="stroke: #C82930; stroke-width: 1.0;" width="6" x="2534.5" y="111.8047"/><text fill="#000000" font-family="sans-serif" font-size="11" lengthAdjust="spacingAndGlyphs" textLength="97" x="2546.5" y="118.0151">XYDataset points</text><rect fill="none" height="6" style="stroke: #C82930; stroke-width: 1.0;" width="6" x="2534.5" y="124.6094"/><text fill="#000000" font-family="sans-serif" font-size="11" lengthAdjust="spacingAndGlyphs" textLength="82" x="2546.5" y="130.8198">XYDataset line</text><rect fill="none" height="6" style="stroke: #C82930; stroke-width: 1.0;" width="6" x="2534.5" y="137.4141"/><text fill="#000000" font-family="sans-serif" font-size="11" lengthAdjust="spacingAndGlyphs" textLength="99" x="2546.5" y="143.6245">JFreeChart chart1</text><rect fill="none" height="6" style="stroke: #C82930; stroke-width: 1.0;" width="6" x="2534.5" y="150.2188"/><text fill="#000000" font-family="sans-serif" font-size="11" lengthAdjust="spacingAndGlyphs" textLength="99" x="2546.5" y="156.4292">JFreeChart chart2</text><rect fill="none" height="6" style="stroke: #C82930; stroke-width: 1.0;" width="6" x="2534.5" y="163.0234"/><text fill="#000000" font-family="sans-serif" font-size="11" lengthAdjust="spacingAndGlyphs" textLength="60" x="2546.5" y="169.2339">XYPlot plot</text><rect fill="none" height="6" style="stroke: #C82930; stroke-width: 1.0;" width="6" x="2534.5" y="175.8281"/><text fill="#000000" font-family="sans-serif" font-size="11" lengthAdjust="spacingAndGlyphs" textLength="133" x="2546.5" y="182.0386">ChartPanel chartPanel1</text><rect fill="none" height="6" style="stroke: #C82930; stroke-width: 1.0;" width="6" x="2534.5" y="188.6328"/><text fill="#000000" font-family="sans-serif" font-size="11" lengthAdjust="spacingAndGlyphs" textLength="133" x="2546.5" y="194.8433">ChartPanel chartPanel2</text><line style="stroke: #A80036; stroke-width: 1.5;" x1="2527.5" x2="2816.5" y1="201.4375" y2="201.4375"/><ellipse cx="2537.5" cy="212.4375" fill="#84BE84" rx="3" ry="3" style="stroke: #038048; stroke-width: 1.0;"/><text fill="#000000" font-family="sans-serif" font-size="11" lengthAdjust="spacingAndGlyphs" textLength="188" x="2546.5" y="215.6479">TrackDataPlotter(TrackData data)</text><ellipse cx="2537.5" cy="242.0469" fill="#84BE84" rx="3" ry="3" style="stroke: #038048; stroke-width: 1.0;"/><text fill="#000000" font-family="sans-serif" font-size="11" lengthAdjust="spacingAndGlyphs" textLength="112" x="2546.5" y="245.2573">void displayPlotter()</text><rect fill="#F24D5C" height="6" style="stroke: #C82930; stroke-width: 1.0;" width="6" x="2534.5" y="251.8516"/><text fill="#000000" font-family="sans-serif" font-size="11" lengthAdjust="spacingAndGlyphs" textLength="138" x="2546.5" y="258.062">XYSeries getTrackData()</text><rect fill="#F24D5C" height="6" style="stroke: #C82930; stroke-width: 1.0;" width="6" x="2534.5" y="264.6563"/><text fill="#000000" font-family="sans-serif" font-size="11" lengthAdjust="spacingAndGlyphs" textLength="208" x="2546.5" y="270.8667">XYSeries calculateLine(int[] x, int[] y)</text><rect fill="#F24D5C" height="6" style="stroke: #C82930; stroke-width: 1.0;" width="6" x="2534.5" y="277.4609"/><text fill="#000000" font-family="sans-serif" font-size="11" lengthAdjust="spacingAndGlyphs" textLength="262" x="2546.5" y="283.6714">int[] extractLatFromTrackData(TrackData data)</text><rect fill="#F24D5C" height="6" style="stroke: #C82930; stroke-width: 1.0;" width="6" x="2534.5" y="290.2656"/><text fill="#000000" font-family="sans-serif" font-size="11" lengthAdjust="spacingAndGlyphs" textLength="265" x="2546.5" y="296.4761">int[] extractLngFromTrackData(TrackData data)</text><line style="stroke: #A80036; stroke-width: 1.0; stroke-dasharray: 1.0,2.0;" x1="2527.5" x2="2639" y1="228.6445" y2="228.6445"/><text fill="#000000" font-family="sans-serif" font-size="11" lengthAdjust="spacingAndGlyphs" textLength="66" x="2639" y="231.9526">Use Case 1</text><line style="stroke: #A80036; stroke-width: 1.0; stroke-dasharray: 1.0,2.0;" x1="2705" x2="2816.5" y1="228.6445" y2="228.6445"/><!--MD5=[c9341cce37a1a8bee80ad1365349afef]
link DisplayCommInterface to DisplayComm2WayInterface--><!--MD5=[7835b7bc4a765bae53638d0402d5d5e6]
link DisplayComm2WayInterface to DisplayCommManager--><!--MD5=[7d92106ecb9088e13e6754b44ec571b0]
link DisplayCommInterface to DisplayCommInterfaceImplementation--><!--MD5=[51e28edbb9f88779af066724948e7048]
link DisplayCommInterfaceImplementation to DisplayComm2WayInterfaceImplementation--><!--MD5=[ea4cd417ea9ea2c0dbdbdf4e4e3d21de]
link DisplayComm2WayInterfaceImplementation to DisplayCommManagerImplementation--><!--MD5=[64e942b00478e9eef28430a914bbb142]
link DisplayCommInterfaceImplementationTests to DisplayComm2WayInterfaceImplementationTests--><!--MD5=[8dbe1f493aaf019419238fc4702b450a]
link DisplayComm2WayInterfaceImplementationTests to DisplayCommManagerImplementationTests--><!--MD5=[e81de192ca7bc9df286fd4cb58be8b46]
link DisplayCommInterfaceImplementationTests to TrackDataPlotterTests--><!--MD5=[8b898a72046de76ad345afd61090e7dd]
link TrackDataPlotterTests to DisplayComm2WayInterfaceStub--><!--MD5=[c9c9241041dbc47aa626fe1afc095e03]
link DisplayComm2WayInterfaceStub to DisplayCommManagerStub--><!--MD5=[61d9c608a539b4614526ad59aeb385a2]
link TrackDataPlotterTests to MiddlewareCommInterfaceStub--><!--MD5=[5bf841d537461bee41b165ae7d60cb23]
@startuml Display02Packages


package edu.oakland.production.display02 {

}


package edu.oakland.production.display02 {
    interface DisplayCommInterface {
        __
        .. Use Case 1 ..
        {abstract} + TrackData receiveRfidRequest(int rfidNum)
    }
}


package edu.oakland.production.display02 {
    interface DisplayComm2WayInterface {
        __
        .. Use Case 1 ..
        {abstract} + TrackData passRfidRequest(int rfidNum)
    }
}


package edu.oakland.production.display02 {
    interface DisplayCommManager {
        __
        .. Use Case 1 ..
        {abstract} + TrackData evaluateRfidRequest(int rfid)
    }
}


package edu.oakland.production.display02 {
    class DisplayCommInterfaceImplementation {
        - DisplayComm2WayInterface receiver
        __
        + DisplayCommInterface(DisplayComm2WayInterface receiver)
        .. Use Case 1 ..
        + TrackData receiveRfidRequest(int rfidNum)
        
    }
}


package edu.oakland.production.display02 {
    class DisplayComm2WayInterfaceImplementation {
        - DisplayCommManager manager
        __
        + DisplayComm2WayInterfaceImplementation(DisplayCommManager manager)
        .. Use Case 1 ..
        + TrackData passRfidRequest(int rfidNum)
        - void determineUserRequestFormat(int rfidNum)
        - void receiveRequestFromDisplayCommInterface(int rfidNum)
    }
}


package edu.oakland.production.display02 {
    class DisplayCommManagerImplementation {
        - MiddlewareCommInterface middleware
        __
        + DisplayCommManagerImplementation(MiddlewareCommInterface middleware)
        .. Use Case 1 ..
        + TrackData evaluateRfidRequest(int rfid)        
    }
}



package edu.oakland.test.display02 {
    
}


package edu.oakland.test.display02 {
    class DisplayCommInterfaceImplementationTests {
        + void displayComm2WayIsNotNull()
        + void rfidInIsRfidOut()

    }
}


package edu.oakland.test.display02 {
    class DisplayComm2WayInterfaceImplementationTests {
        + void rfidInIsRfidOut()
        + void displayCommManagerIsNotNull()
    }
}


package edu.oakland.test.display02 {
    class DisplayCommManagerImplementationTests {
        + void rfidInIsRfidOut()
        + void middlewareIsNotNull()
        - int generateRandomRfid()
    }
}


package edu.oakland.test.display02 {
    class TrackDataPlotterTests {
        + void plotIsDisplayed()
        + void nullTrackDataNotAllowed()
        + void invalidTrackDataNotAllowed()
    }
}


package edu.oakland.test.display02 {
    class DisplayComm2WayInterfaceStub {
        __
        .. Use Case 1 ..
        {abstract} + TrackData passRfidRequest(int rfidNum)
    }
}


package edu.oakland.test.display02 {
    class DisplayCommManagerStub {
        __
        .. Use Case 1 ..
        + TrackData evaluateRfidRequest(int rfidNum)
    }
}


package edu.oakland.test.display02 {
    class MiddlewareCommInterfaceStub {
        __
        .. Use Case 1 ..
        + TrackData requestRfid(int rfid)
    }
}



package edu.oakland.helper.display02 {

}


package edu.oakland.helper.display02 {
    class TrackDataPlotter {
        - TrackData data
        - XYDataset points
        - XYDataset line
        - JFreeChart chart1
        - JFreeChart chart2
        - XYPlot plot
        - ChartPanel chartPanel1
        - ChartPanel chartPanel2
        __
        + TrackDataPlotter(TrackData data)
        .. Use Case 1 ..
        + void displayPlotter()
        - XYSeries getTrackData()
        - XYSeries calculateLine(int[] x, int[] y)
        - int[] extractLatFromTrackData(TrackData data)
        - int[] extractLngFromTrackData(TrackData data)
    }
}



@enduml

PlantUML version 1.2020.02(Sun Mar 01 10:22:07 GMT 2020)
(GPL source distribution)
Java Runtime: OpenJDK Runtime Environment
JVM: OpenJDK 64-Bit Server VM
Java Version: 11.0.9+11-Ubuntu-0ubuntu1
Operating System: Linux
Default Encoding: ANSI_X3.4-1968
Language: en
Country: US
--></g></svg>