<?xml version="1.0" encoding="UTF-8" standalone="no"?><svg xmlns="http://www.w3.org/2000/svg" xmlns:xlink="http://www.w3.org/1999/xlink" contentScriptType="application/ecmascript" contentStyleType="text/css" height="400px" preserveAspectRatio="none" style="width:2899px;height:400px;" version="1.1" viewBox="0 0 2899 400" width="2899px" zoomAndPan="magnify"><defs><filter height="300%" id="f1kvgqkocbq407" width="300%" x="-1" y="-1"><feGaussianBlur result="blurOut" stdDeviation="2.0"/><feColorMatrix in="blurOut" result="blurOut2" type="matrix" values="0 0 0 0 0 0 0 0 0 0 0 0 0 0 0 0 0 0 .4 0"/><feOffset dx="4.0" dy="4.0" in="blurOut2" result="blurOut3"/><feBlend in="SourceGraphic" in2="blurOut3" mode="normal"/></filter></defs><g><!--MD5=[fe59aae6f7bfe371a9c197ec1f7f843a]
cluster edu.oakland.production.display02--><polygon fill="#FFFFFF" filter="url(#f1kvgqkocbq407)" points="22,38.5,295,38.5,302,60.7969,1264,60.7969,1264,388,22,388,22,38.5" style="stroke: #000000; stroke-width: 1.5;"/><line style="stroke: #000000; stroke-width: 1.5;" x1="22" x2="302" y1="60.7969" y2="60.7969"/><text fill="#000000" font-family="sans-serif" font-size="14" font-weight="bold" lengthAdjust="spacingAndGlyphs" textLength="267" x="26" y="53.4951">edu.oakland.production.display02</text><!--MD5=[9258003ec405d300d3379b4a3d8dd6ad]
cluster edu.oakland.test.display02--><polygon fill="#FFFFFF" filter="url(#f1kvgqkocbq407)" points="1288,53.5,1506,53.5,1513,75.7969,2533,75.7969,2533,354,1288,354,1288,53.5" style="stroke: #000000; stroke-width: 1.5;"/><line style="stroke: #000000; stroke-width: 1.5;" x1="1288" x2="1513" y1="75.7969" y2="75.7969"/><text fill="#000000" font-family="sans-serif" font-size="14" font-weight="bold" lengthAdjust="spacingAndGlyphs" textLength="212" x="1292" y="68.4951">edu.oakland.test.display02</text><!--MD5=[33504725b8a69ba2207f0a836957a91c]
cluster edu.oakland.production.middleware02--><polygon fill="#FFFFFF" filter="url(#f1kvgqkocbq407)" points="2557,24,2867,24,2874,46.2969,2877,46.2969,2877,182,2557,182,2557,24" style="stroke: #000000; stroke-width: 1.5;"/><line style="stroke: #000000; stroke-width: 1.5;" x1="2557" x2="2874" y1="46.2969" y2="46.2969"/><text fill="#000000" font-family="sans-serif" font-size="14" font-weight="bold" lengthAdjust="spacingAndGlyphs" textLength="304" x="2561" y="38.9951">edu.oakland.production.middleware02</text><!--MD5=[a502031b5a5384de0a21e6ee820fd3b2]
cluster edu.oakland.helper.display02--><polygon fill="#FFFFFF" filter="url(#f1kvgqkocbq407)" points="2557,240,2795,240,2802,262.2969,2805,262.2969,2805,339,2557,339,2557,240" style="stroke: #000000; stroke-width: 1.5;"/><line style="stroke: #000000; stroke-width: 1.5;" x1="2557" x2="2802" y1="262.2969" y2="262.2969"/><text fill="#000000" font-family="sans-serif" font-size="14" font-weight="bold" lengthAdjust="spacingAndGlyphs" textLength="232" x="2561" y="254.9951">edu.oakland.helper.display02</text><!--MD5=[c8d1e3134fecb0c949fd2a76cc0bb992]
class DisplayCommInterface--><rect fill="#FEFECE" filter="url(#f1kvgqkocbq407)" height="77.6094" id="DisplayCommInterface" style="stroke: #A80036; stroke-width: 1.5;" width="268" x="91" y="73.5"/><ellipse cx="151.25" cy="89.5" fill="#B4A7E5" rx="11" ry="11" style="stroke: #A80036; stroke-width: 1.0;"/><path d="M147.1719,85.2656 L147.1719,83.1094 L154.5625,83.1094 L154.5625,85.2656 L152.0938,85.2656 L152.0938,93.3438 L154.5625,93.3438 L154.5625,95.5 L147.1719,95.5 L147.1719,93.3438 L149.6406,93.3438 L149.6406,85.2656 L147.1719,85.2656 Z "/><text fill="#000000" font-family="sans-serif" font-size="12" font-style="italic" lengthAdjust="spacingAndGlyphs" textLength="139" x="171.75" y="93.6543">DisplayCommInterface</text><line style="stroke: #A80036; stroke-width: 1.5;" x1="92" x2="358" y1="105.5" y2="105.5"/><line style="stroke: #A80036; stroke-width: 1.5;" x1="92" x2="358" y1="113.5" y2="113.5"/><ellipse cx="102" cy="141.3047" fill="#84BE84" rx="3" ry="3" style="stroke: #038048; stroke-width: 1.0;"/><text fill="#000000" font-family="sans-serif" font-size="11" font-style="italic" lengthAdjust="spacingAndGlyphs" textLength="242" x="111" y="144.5151">TrackData receiveRfidRequest(int rfidNum)</text><line style="stroke: #A80036; stroke-width: 1.0; stroke-dasharray: 1.0,2.0;" x1="92" x2="192" y1="127.9023" y2="127.9023"/><text fill="#000000" font-family="sans-serif" font-size="11" lengthAdjust="spacingAndGlyphs" textLength="66" x="192" y="131.2104">Use Case 1</text><line style="stroke: #A80036; stroke-width: 1.0; stroke-dasharray: 1.0,2.0;" x1="258" x2="358" y1="127.9023" y2="127.9023"/><!--MD5=[f6b51b5f862da5ce226c62e411e84628]
class DisplayComm2WayInterface--><rect fill="#FEFECE" filter="url(#f1kvgqkocbq407)" height="77.6094" id="DisplayComm2WayInterface" style="stroke: #A80036; stroke-width: 1.5;" width="252" x="580" y="73.5"/><ellipse cx="615.7" cy="89.5" fill="#B4A7E5" rx="11" ry="11" style="stroke: #A80036; stroke-width: 1.0;"/><path d="M611.6219,85.2656 L611.6219,83.1094 L619.0125,83.1094 L619.0125,85.2656 L616.5438,85.2656 L616.5438,93.3438 L619.0125,93.3438 L619.0125,95.5 L611.6219,95.5 L611.6219,93.3438 L614.0906,93.3438 L614.0906,85.2656 L611.6219,85.2656 Z "/><text fill="#000000" font-family="sans-serif" font-size="12" font-style="italic" lengthAdjust="spacingAndGlyphs" textLength="174" x="634.3" y="93.6543">DisplayComm2WayInterface</text><line style="stroke: #A80036; stroke-width: 1.5;" x1="581" x2="831" y1="105.5" y2="105.5"/><line style="stroke: #A80036; stroke-width: 1.5;" x1="581" x2="831" y1="113.5" y2="113.5"/><ellipse cx="591" cy="141.3047" fill="#84BE84" rx="3" ry="3" style="stroke: #038048; stroke-width: 1.0;"/><text fill="#000000" font-family="sans-serif" font-size="11" font-style="italic" lengthAdjust="spacingAndGlyphs" textLength="226" x="600" y="144.5151">TrackData passRfidRequest(int rfidNum)</text><line style="stroke: #A80036; stroke-width: 1.0; stroke-dasharray: 1.0,2.0;" x1="581" x2="673" y1="127.9023" y2="127.9023"/><text fill="#000000" font-family="sans-serif" font-size="11" lengthAdjust="spacingAndGlyphs" textLength="66" x="673" y="131.2104">Use Case 1</text><line style="stroke: #A80036; stroke-width: 1.0; stroke-dasharray: 1.0,2.0;" x1="739" x2="831" y1="127.9023" y2="127.9023"/><!--MD5=[6aeb72f2773d7cabb45309482beeff0a]
class DisplayCommManager--><rect fill="#FEFECE" filter="url(#f1kvgqkocbq407)" height="77.6094" id="DisplayCommManager" style="stroke: #A80036; stroke-width: 1.5;" width="275" x="942.5" y="73.5"/><ellipse cx="1007.25" cy="89.5" fill="#B4A7E5" rx="11" ry="11" style="stroke: #A80036; stroke-width: 1.0;"/><path d="M1003.1719,85.2656 L1003.1719,83.1094 L1010.5625,83.1094 L1010.5625,85.2656 L1008.0938,85.2656 L1008.0938,93.3438 L1010.5625,93.3438 L1010.5625,95.5 L1003.1719,95.5 L1003.1719,93.3438 L1005.6406,93.3438 L1005.6406,85.2656 L1003.1719,85.2656 Z "/><text fill="#000000" font-family="sans-serif" font-size="12" font-style="italic" lengthAdjust="spacingAndGlyphs" textLength="137" x="1027.75" y="93.6543">DisplayCommManager</text><line style="stroke: #A80036; stroke-width: 1.5;" x1="943.5" x2="1216.5" y1="105.5" y2="105.5"/><line style="stroke: #A80036; stroke-width: 1.5;" x1="943.5" x2="1216.5" y1="113.5" y2="113.5"/><ellipse cx="953.5" cy="141.3047" fill="#84BE84" rx="3" ry="3" style="stroke: #038048; stroke-width: 1.0;"/><text fill="#000000" font-family="sans-serif" font-size="11" font-style="italic" lengthAdjust="spacingAndGlyphs" textLength="249" x="962.5" y="144.5151">TrackData evaluateRfidRequest(int rfidNum)</text><line style="stroke: #A80036; stroke-width: 1.0; stroke-dasharray: 1.0,2.0;" x1="943.5" x2="1047" y1="127.9023" y2="127.9023"/><text fill="#000000" font-family="sans-serif" font-size="11" lengthAdjust="spacingAndGlyphs" textLength="66" x="1047" y="131.2104">Use Case 1</text><line style="stroke: #A80036; stroke-width: 1.0; stroke-dasharray: 1.0,2.0;" x1="1113" x2="1216.5" y1="127.9023" y2="127.9023"/><!--MD5=[a35092e604da7274febf4e2cf9a25087]
class DisplayCommInterfaceImplementation--><rect fill="#FEFECE" filter="url(#f1kvgqkocbq407)" height="128.8281" id="DisplayCommInterfaceImplementation" style="stroke: #A80036; stroke-width: 1.5;" width="373" x="38.5" y="234.5"/><ellipse cx="103.25" cy="250.5" fill="#ADD1B2" rx="11" ry="11" style="stroke: #A80036; stroke-width: 1.0;"/><path d="M106.2188,256.1406 Q105.6406,256.4375 105,256.5781 Q104.3594,256.7344 103.6563,256.7344 Q101.1563,256.7344 99.8281,255.0938 Q98.5156,253.4375 98.5156,250.3125 Q98.5156,247.1875 99.8281,245.5313 Q101.1563,243.875 103.6563,243.875 Q104.3594,243.875 105,244.0313 Q105.6563,244.1875 106.2188,244.4844 L106.2188,247.2031 Q105.5938,246.625 105,246.3594 Q104.4063,246.0781 103.7813,246.0781 Q102.4375,246.0781 101.75,247.1563 Q101.0625,248.2188 101.0625,250.3125 Q101.0625,252.4063 101.75,253.4844 Q102.4375,254.5469 103.7813,254.5469 Q104.4063,254.5469 105,254.2813 Q105.5938,254 106.2188,253.4219 L106.2188,256.1406 Z "/><text fill="#000000" font-family="sans-serif" font-size="12" lengthAdjust="spacingAndGlyphs" textLength="235" x="123.75" y="254.6543">DisplayCommInterfaceImplementation</text><line style="stroke: #A80036; stroke-width: 1.5;" x1="39.5" x2="410.5" y1="266.5" y2="266.5"/><text fill="#000000" font-family="sans-serif" font-size="11" lengthAdjust="spacingAndGlyphs" textLength="207" x="44.5" y="280.7104">DisplayComm2WayInterface receiver</text><line style="stroke: #A80036; stroke-width: 1.5;" x1="39.5" x2="410.5" y1="287.3047" y2="287.3047"/><ellipse cx="49.5" cy="298.3047" fill="#84BE84" rx="3" ry="3" style="stroke: #038048; stroke-width: 1.0;"/><text fill="#000000" font-family="sans-serif" font-size="11" font-style="italic" lengthAdjust="spacingAndGlyphs" textLength="347" x="58.5" y="301.5151">DisplayCommInterface(DisplayComm2WayInterface receiver)</text><ellipse cx="49.5" cy="327.9141" fill="#84BE84" rx="3" ry="3" style="stroke: #038048; stroke-width: 1.0;"/><text fill="#000000" font-family="sans-serif" font-size="11" font-style="italic" lengthAdjust="spacingAndGlyphs" textLength="242" x="58.5" y="331.1245">TrackData receiveRfidRequest(int rfidNum)</text><ellipse cx="49.5" cy="340.7188" fill="#84BE84" rx="3" ry="3" style="stroke: #038048; stroke-width: 1.0;"/><text fill="#000000" font-family="sans-serif" font-size="11" font-style="italic" lengthAdjust="spacingAndGlyphs" textLength="291" x="58.5" y="343.9292">TrackData passToComm2WayInterface(int rfidNum)</text><text fill="#000000" font-family="sans-serif" font-size="11" lengthAdjust="spacingAndGlyphs" textLength="0" x="62.5" y="356.7339"/><line style="stroke: #A80036; stroke-width: 1.0; stroke-dasharray: 1.0,2.0;" x1="39.5" x2="192" y1="314.5117" y2="314.5117"/><text fill="#000000" font-family="sans-serif" font-size="11" lengthAdjust="spacingAndGlyphs" textLength="66" x="192" y="317.8198">Use Case 1</text><line style="stroke: #A80036; stroke-width: 1.0; stroke-dasharray: 1.0,2.0;" x1="258" x2="410.5" y1="314.5117" y2="314.5117"/><!--MD5=[46657c2900260d4d40350fe3f8c544df]
class DisplayComm2WayInterfaceImplementation--><rect fill="#FEFECE" filter="url(#f1kvgqkocbq407)" height="103.2188" id="DisplayComm2WayInterfaceImplementation" style="stroke: #A80036; stroke-width: 1.5;" width="370" x="447" y="247.5"/><ellipse cx="493.75" cy="263.5" fill="#ADD1B2" rx="11" ry="11" style="stroke: #A80036; stroke-width: 1.0;"/><path d="M496.7188,269.1406 Q496.1406,269.4375 495.5,269.5781 Q494.8594,269.7344 494.1563,269.7344 Q491.6563,269.7344 490.3281,268.0938 Q489.0156,266.4375 489.0156,263.3125 Q489.0156,260.1875 490.3281,258.5313 Q491.6563,256.875 494.1563,256.875 Q494.8594,256.875 495.5,257.0313 Q496.1563,257.1875 496.7188,257.4844 L496.7188,260.2031 Q496.0938,259.625 495.5,259.3594 Q494.9063,259.0781 494.2813,259.0781 Q492.9375,259.0781 492.25,260.1563 Q491.5625,261.2188 491.5625,263.3125 Q491.5625,265.4063 492.25,266.4844 Q492.9375,267.5469 494.2813,267.5469 Q494.9063,267.5469 495.5,267.2813 Q496.0938,267 496.7188,266.4219 L496.7188,269.1406 Z "/><text fill="#000000" font-family="sans-serif" font-size="12" lengthAdjust="spacingAndGlyphs" textLength="268" x="514.25" y="267.6543">DisplayComm2WayInterfaceImplementation</text><line style="stroke: #A80036; stroke-width: 1.5;" x1="448" x2="816" y1="279.5" y2="279.5"/><line style="stroke: #A80036; stroke-width: 1.5;" x1="448" x2="816" y1="287.5" y2="287.5"/><ellipse cx="458" cy="315.3047" fill="#84BE84" rx="3" ry="3" style="stroke: #038048; stroke-width: 1.0;"/><text fill="#000000" font-family="sans-serif" font-size="11" font-style="italic" lengthAdjust="spacingAndGlyphs" textLength="226" x="467" y="318.5151">TrackData passRfidRequest(int rfidNum)</text><ellipse cx="458" cy="328.1094" fill="#84BE84" rx="3" ry="3" style="stroke: #038048; stroke-width: 1.0;"/><text fill="#000000" font-family="sans-serif" font-size="11" font-style="italic" lengthAdjust="spacingAndGlyphs" textLength="269" x="467" y="331.3198">void determineUserRequestFormat(int rfidNum)</text><ellipse cx="458" cy="340.9141" fill="#84BE84" rx="3" ry="3" style="stroke: #038048; stroke-width: 1.0;"/><text fill="#000000" font-family="sans-serif" font-size="11" font-style="italic" lengthAdjust="spacingAndGlyphs" textLength="344" x="467" y="344.1245">void receiveRequestFromDisplayCommInterface(int rfidNum)</text><line style="stroke: #A80036; stroke-width: 1.0; stroke-dasharray: 1.0,2.0;" x1="448" x2="599" y1="301.9023" y2="301.9023"/><text fill="#000000" font-family="sans-serif" font-size="11" lengthAdjust="spacingAndGlyphs" textLength="66" x="599" y="305.2104">Use Case 1</text><line style="stroke: #A80036; stroke-width: 1.0; stroke-dasharray: 1.0,2.0;" x1="665" x2="816" y1="301.9023" y2="301.9023"/><!--MD5=[3a27b63ddb357afc5dde5581215f51f9]
class DisplayCommManagerImplementation--><rect fill="#FEFECE" filter="url(#f1kvgqkocbq407)" height="145.6328" id="DisplayCommManagerImplementation" style="stroke: #A80036; stroke-width: 1.5;" width="395" x="852.5" y="226"/><ellipse cx="928.75" cy="242" fill="#ADD1B2" rx="11" ry="11" style="stroke: #A80036; stroke-width: 1.0;"/><path d="M931.7188,247.6406 Q931.1406,247.9375 930.5,248.0781 Q929.8594,248.2344 929.1563,248.2344 Q926.6563,248.2344 925.3281,246.5938 Q924.0156,244.9375 924.0156,241.8125 Q924.0156,238.6875 925.3281,237.0313 Q926.6563,235.375 929.1563,235.375 Q929.8594,235.375 930.5,235.5313 Q931.1563,235.6875 931.7188,235.9844 L931.7188,238.7031 Q931.0938,238.125 930.5,237.8594 Q929.9063,237.5781 929.2813,237.5781 Q927.9375,237.5781 927.25,238.6563 Q926.5625,239.7188 926.5625,241.8125 Q926.5625,243.9063 927.25,244.9844 Q927.9375,246.0469 929.2813,246.0469 Q929.9063,246.0469 930.5,245.7813 Q931.0938,245.5 931.7188,244.9219 L931.7188,247.6406 Z "/><text fill="#000000" font-family="sans-serif" font-size="12" lengthAdjust="spacingAndGlyphs" textLength="234" x="949.25" y="246.1543">DisplayCommManagerImplementation</text><line style="stroke: #A80036; stroke-width: 1.5;" x1="853.5" x2="1246.5" y1="258" y2="258"/><line style="stroke: #A80036; stroke-width: 1.5;" x1="853.5" x2="1246.5" y1="266" y2="266"/><ellipse cx="863.5" cy="293.8047" fill="#84BE84" rx="3" ry="3" style="stroke: #038048; stroke-width: 1.0;"/><text fill="#000000" font-family="sans-serif" font-size="11" font-style="italic" lengthAdjust="spacingAndGlyphs" textLength="249" x="872.5" y="297.0151">TrackData evaluateRfidRequest(int rfidNum)</text><ellipse cx="863.5" cy="306.6094" fill="#84BE84" rx="3" ry="3" style="stroke: #038048; stroke-width: 1.0;"/><text fill="#000000" font-family="sans-serif" font-size="11" font-style="italic" lengthAdjust="spacingAndGlyphs" textLength="369" x="872.5" y="309.8198">TrackData passRequestToMiddlewareCommInterface(int rfidNum)</text><ellipse cx="863.5" cy="319.4141" fill="#84BE84" rx="3" ry="3" style="stroke: #038048; stroke-width: 1.0;"/><text fill="#000000" font-family="sans-serif" font-size="11" font-style="italic" lengthAdjust="spacingAndGlyphs" textLength="339" x="872.5" y="322.6245">void receiveRequestFromDisplay2WayInterface(int rfidNum)</text><text fill="#000000" font-family="sans-serif" font-size="11" lengthAdjust="spacingAndGlyphs" textLength="0" x="876.5" y="335.4292"/><line style="stroke: #A80036; stroke-width: 1.0; stroke-dasharray: 1.0,2.0;" x1="853.5" x2="1017" y1="280.4023" y2="280.4023"/><text fill="#000000" font-family="sans-serif" font-size="11" lengthAdjust="spacingAndGlyphs" textLength="66" x="1017" y="283.7104">Use Case 1</text><line style="stroke: #A80036; stroke-width: 1.0; stroke-dasharray: 1.0,2.0;" x1="1083" x2="1246.5" y1="280.4023" y2="280.4023"/><text fill="#000000" font-family="sans-serif" font-size="11" lengthAdjust="spacingAndGlyphs" textLength="0" x="862.5" y="365.0386"/><line style="stroke: #A80036; stroke-width: 1.0; stroke-dasharray: 1.0,2.0;" x1="853.5" x2="1017" y1="348.4258" y2="348.4258"/><text fill="#000000" font-family="sans-serif" font-size="11" lengthAdjust="spacingAndGlyphs" textLength="66" x="1017" y="351.7339">Use Case 2</text><line style="stroke: #A80036; stroke-width: 1.0; stroke-dasharray: 1.0,2.0;" x1="1083" x2="1246.5" y1="348.4258" y2="348.4258"/><!--MD5=[d454b7777f115113290d89683d7a426c]
class DisplayCommInterfaceImplementationTests--><rect fill="#FEFECE" filter="url(#f1kvgqkocbq407)" height="48" id="DisplayCommInterfaceImplementationTests" style="stroke: #A80036; stroke-width: 1.5;" width="301" x="1304.5" y="88.5"/><ellipse cx="1319.5" cy="104.5" fill="#ADD1B2" rx="11" ry="11" style="stroke: #A80036; stroke-width: 1.0;"/><path d="M1322.4688,110.1406 Q1321.8906,110.4375 1321.25,110.5781 Q1320.6094,110.7344 1319.9063,110.7344 Q1317.4063,110.7344 1316.0781,109.0938 Q1314.7656,107.4375 1314.7656,104.3125 Q1314.7656,101.1875 1316.0781,99.5313 Q1317.4063,97.875 1319.9063,97.875 Q1320.6094,97.875 1321.25,98.0313 Q1321.9063,98.1875 1322.4688,98.4844 L1322.4688,101.2031 Q1321.8438,100.625 1321.25,100.3594 Q1320.6563,100.0781 1320.0313,100.0781 Q1318.6875,100.0781 1318,101.1563 Q1317.3125,102.2188 1317.3125,104.3125 Q1317.3125,106.4063 1318,107.4844 Q1318.6875,108.5469 1320.0313,108.5469 Q1320.6563,108.5469 1321.25,108.2813 Q1321.8438,108 1322.4688,107.4219 L1322.4688,110.1406 Z "/><text fill="#000000" font-family="sans-serif" font-size="12" lengthAdjust="spacingAndGlyphs" textLength="269" x="1333.5" y="108.6543">DisplayCommInterfaceImplementationTests</text><line style="stroke: #A80036; stroke-width: 1.5;" x1="1305.5" x2="1604.5" y1="120.5" y2="120.5"/><line style="stroke: #A80036; stroke-width: 1.5;" x1="1305.5" x2="1604.5" y1="128.5" y2="128.5"/><!--MD5=[a333ac13e0fdf2a5898aafabd38d3c1b]
class DisplayComm2WayInterfaceStub--><rect fill="#FEFECE" filter="url(#f1kvgqkocbq407)" height="77.6094" id="DisplayComm2WayInterfaceStub" style="stroke: #A80036; stroke-width: 1.5;" width="252" x="1317" y="260"/><ellipse cx="1341" cy="276" fill="#ADD1B2" rx="11" ry="11" style="stroke: #A80036; stroke-width: 1.0;"/><path d="M1343.9688,281.6406 Q1343.3906,281.9375 1342.75,282.0781 Q1342.1094,282.2344 1341.4063,282.2344 Q1338.9063,282.2344 1337.5781,280.5938 Q1336.2656,278.9375 1336.2656,275.8125 Q1336.2656,272.6875 1337.5781,271.0313 Q1338.9063,269.375 1341.4063,269.375 Q1342.1094,269.375 1342.75,269.5313 Q1343.4063,269.6875 1343.9688,269.9844 L1343.9688,272.7031 Q1343.3438,272.125 1342.75,271.8594 Q1342.1563,271.5781 1341.5313,271.5781 Q1340.1875,271.5781 1339.5,272.6563 Q1338.8125,273.7188 1338.8125,275.8125 Q1338.8125,277.9063 1339.5,278.9844 Q1340.1875,280.0469 1341.5313,280.0469 Q1342.1563,280.0469 1342.75,279.7813 Q1343.3438,279.5 1343.9688,278.9219 L1343.9688,281.6406 Z "/><text fill="#000000" font-family="sans-serif" font-size="12" lengthAdjust="spacingAndGlyphs" textLength="200" x="1357" y="280.1543">DisplayComm2WayInterfaceStub</text><line style="stroke: #A80036; stroke-width: 1.5;" x1="1318" x2="1568" y1="292" y2="292"/><line style="stroke: #A80036; stroke-width: 1.5;" x1="1318" x2="1568" y1="300" y2="300"/><ellipse cx="1328" cy="327.8047" fill="#84BE84" rx="3" ry="3" style="stroke: #038048; stroke-width: 1.0;"/><text fill="#000000" font-family="sans-serif" font-size="11" font-style="italic" lengthAdjust="spacingAndGlyphs" textLength="226" x="1337" y="331.0151">TrackData passRfidRequest(int rfidNum)</text><line style="stroke: #A80036; stroke-width: 1.0; stroke-dasharray: 1.0,2.0;" x1="1318" x2="1410" y1="314.4023" y2="314.4023"/><text fill="#000000" font-family="sans-serif" font-size="11" lengthAdjust="spacingAndGlyphs" textLength="66" x="1410" y="317.7104">Use Case 1</text><line style="stroke: #A80036; stroke-width: 1.0; stroke-dasharray: 1.0,2.0;" x1="1476" x2="1568" y1="314.4023" y2="314.4023"/><!--MD5=[178181f4c7684560c711246055fc01d3]
class DisplayComm2WayInterfaceImplementationTests--><rect fill="#FEFECE" filter="url(#f1kvgqkocbq407)" height="48" id="DisplayComm2WayInterfaceImplementationTests" style="stroke: #A80036; stroke-width: 1.5;" width="334" x="1641" y="88.5"/><ellipse cx="1656" cy="104.5" fill="#ADD1B2" rx="11" ry="11" style="stroke: #A80036; stroke-width: 1.0;"/><path d="M1658.9688,110.1406 Q1658.3906,110.4375 1657.75,110.5781 Q1657.1094,110.7344 1656.4063,110.7344 Q1653.9063,110.7344 1652.5781,109.0938 Q1651.2656,107.4375 1651.2656,104.3125 Q1651.2656,101.1875 1652.5781,99.5313 Q1653.9063,97.875 1656.4063,97.875 Q1657.1094,97.875 1657.75,98.0313 Q1658.4063,98.1875 1658.9688,98.4844 L1658.9688,101.2031 Q1658.3438,100.625 1657.75,100.3594 Q1657.1563,100.0781 1656.5313,100.0781 Q1655.1875,100.0781 1654.5,101.1563 Q1653.8125,102.2188 1653.8125,104.3125 Q1653.8125,106.4063 1654.5,107.4844 Q1655.1875,108.5469 1656.5313,108.5469 Q1657.1563,108.5469 1657.75,108.2813 Q1658.3438,108 1658.9688,107.4219 L1658.9688,110.1406 Z "/><text fill="#000000" font-family="sans-serif" font-size="12" lengthAdjust="spacingAndGlyphs" textLength="302" x="1670" y="108.6543">DisplayComm2WayInterfaceImplementationTests</text><line style="stroke: #A80036; stroke-width: 1.5;" x1="1642" x2="1974" y1="120.5" y2="120.5"/><line style="stroke: #A80036; stroke-width: 1.5;" x1="1642" x2="1974" y1="128.5" y2="128.5"/><!--MD5=[2970358178d6cf57fc5a801b39eb8d0b]
class DisplayCommManagerStub--><rect fill="#FEFECE" filter="url(#f1kvgqkocbq407)" height="77.6094" id="DisplayCommManagerStub" style="stroke: #A80036; stroke-width: 1.5;" width="273" x="1638.5" y="260"/><ellipse cx="1687.75" cy="276" fill="#ADD1B2" rx="11" ry="11" style="stroke: #A80036; stroke-width: 1.0;"/><path d="M1690.7188,281.6406 Q1690.1406,281.9375 1689.5,282.0781 Q1688.8594,282.2344 1688.1563,282.2344 Q1685.6563,282.2344 1684.3281,280.5938 Q1683.0156,278.9375 1683.0156,275.8125 Q1683.0156,272.6875 1684.3281,271.0313 Q1685.6563,269.375 1688.1563,269.375 Q1688.8594,269.375 1689.5,269.5313 Q1690.1563,269.6875 1690.7188,269.9844 L1690.7188,272.7031 Q1690.0938,272.125 1689.5,271.8594 Q1688.9063,271.5781 1688.2813,271.5781 Q1686.9375,271.5781 1686.25,272.6563 Q1685.5625,273.7188 1685.5625,275.8125 Q1685.5625,277.9063 1686.25,278.9844 Q1686.9375,280.0469 1688.2813,280.0469 Q1688.9063,280.0469 1689.5,279.7813 Q1690.0938,279.5 1690.7188,278.9219 L1690.7188,281.6406 Z "/><text fill="#000000" font-family="sans-serif" font-size="12" lengthAdjust="spacingAndGlyphs" textLength="166" x="1708.25" y="280.1543">DisplayCommManagerStub</text><line style="stroke: #A80036; stroke-width: 1.5;" x1="1639.5" x2="1910.5" y1="292" y2="292"/><line style="stroke: #A80036; stroke-width: 1.5;" x1="1639.5" x2="1910.5" y1="300" y2="300"/><ellipse cx="1649.5" cy="327.8047" fill="#84BE84" rx="3" ry="3" style="stroke: #038048; stroke-width: 1.0;"/><text fill="#000000" font-family="sans-serif" font-size="11" lengthAdjust="spacingAndGlyphs" textLength="247" x="1658.5" y="331.0151">TrackData evaluateRfidRequest(int rfidNum)</text><line style="stroke: #A80036; stroke-width: 1.0; stroke-dasharray: 1.0,2.0;" x1="1639.5" x2="1742" y1="314.4023" y2="314.4023"/><text fill="#000000" font-family="sans-serif" font-size="11" lengthAdjust="spacingAndGlyphs" textLength="66" x="1742" y="317.7104">Use Case 1</text><line style="stroke: #A80036; stroke-width: 1.0; stroke-dasharray: 1.0,2.0;" x1="1808" x2="1910.5" y1="314.4023" y2="314.4023"/><!--MD5=[937d6d8ff87a99d0d5dcd66ee05a1fa4]
class DisplayCommManagerImplementationTests--><rect fill="#FEFECE" filter="url(#f1kvgqkocbq407)" height="48" id="DisplayCommManagerImplementationTests" style="stroke: #A80036; stroke-width: 1.5;" width="300" x="2010" y="88.5"/><ellipse cx="2025" cy="104.5" fill="#ADD1B2" rx="11" ry="11" style="stroke: #A80036; stroke-width: 1.0;"/><path d="M2027.9688,110.1406 Q2027.3906,110.4375 2026.75,110.5781 Q2026.1094,110.7344 2025.4063,110.7344 Q2022.9063,110.7344 2021.5781,109.0938 Q2020.2656,107.4375 2020.2656,104.3125 Q2020.2656,101.1875 2021.5781,99.5313 Q2022.9063,97.875 2025.4063,97.875 Q2026.1094,97.875 2026.75,98.0313 Q2027.4063,98.1875 2027.9688,98.4844 L2027.9688,101.2031 Q2027.3438,100.625 2026.75,100.3594 Q2026.1563,100.0781 2025.5313,100.0781 Q2024.1875,100.0781 2023.5,101.1563 Q2022.8125,102.2188 2022.8125,104.3125 Q2022.8125,106.4063 2023.5,107.4844 Q2024.1875,108.5469 2025.5313,108.5469 Q2026.1563,108.5469 2026.75,108.2813 Q2027.3438,108 2027.9688,107.4219 L2027.9688,110.1406 Z "/><text fill="#000000" font-family="sans-serif" font-size="12" lengthAdjust="spacingAndGlyphs" textLength="268" x="2039" y="108.6543">DisplayCommManagerImplementationTests</text><line style="stroke: #A80036; stroke-width: 1.5;" x1="2011" x2="2309" y1="120.5" y2="120.5"/><line style="stroke: #A80036; stroke-width: 1.5;" x1="2011" x2="2309" y1="128.5" y2="128.5"/><!--MD5=[cf56a65163663c6c6c7b84cd7c204b97]
class MiddlewareCommInterfaceStub--><rect fill="#FEFECE" filter="url(#f1kvgqkocbq407)" height="77.6094" id="MiddlewareCommInterfaceStub" style="stroke: #A80036; stroke-width: 1.5;" width="225" x="2169.5" y="260"/><ellipse cx="2184.5" cy="276" fill="#ADD1B2" rx="11" ry="11" style="stroke: #A80036; stroke-width: 1.0;"/><path d="M2187.4688,281.6406 Q2186.8906,281.9375 2186.25,282.0781 Q2185.6094,282.2344 2184.9063,282.2344 Q2182.4063,282.2344 2181.0781,280.5938 Q2179.7656,278.9375 2179.7656,275.8125 Q2179.7656,272.6875 2181.0781,271.0313 Q2182.4063,269.375 2184.9063,269.375 Q2185.6094,269.375 2186.25,269.5313 Q2186.9063,269.6875 2187.4688,269.9844 L2187.4688,272.7031 Q2186.8438,272.125 2186.25,271.8594 Q2185.6563,271.5781 2185.0313,271.5781 Q2183.6875,271.5781 2183,272.6563 Q2182.3125,273.7188 2182.3125,275.8125 Q2182.3125,277.9063 2183,278.9844 Q2183.6875,280.0469 2185.0313,280.0469 Q2185.6563,280.0469 2186.25,279.7813 Q2186.8438,279.5 2187.4688,278.9219 L2187.4688,281.6406 Z "/><text fill="#000000" font-family="sans-serif" font-size="12" lengthAdjust="spacingAndGlyphs" textLength="193" x="2198.5" y="280.1543">MiddlewareCommInterfaceStub</text><line style="stroke: #A80036; stroke-width: 1.5;" x1="2170.5" x2="2393.5" y1="292" y2="292"/><line style="stroke: #A80036; stroke-width: 1.5;" x1="2170.5" x2="2393.5" y1="300" y2="300"/><ellipse cx="2180.5" cy="327.8047" fill="#84BE84" rx="3" ry="3" style="stroke: #038048; stroke-width: 1.0;"/><text fill="#000000" font-family="sans-serif" font-size="11" lengthAdjust="spacingAndGlyphs" textLength="171" x="2189.5" y="331.0151">TrackData requestRfid(int rfid)</text><line style="stroke: #A80036; stroke-width: 1.0; stroke-dasharray: 1.0,2.0;" x1="2170.5" x2="2249" y1="314.4023" y2="314.4023"/><text fill="#000000" font-family="sans-serif" font-size="11" lengthAdjust="spacingAndGlyphs" textLength="66" x="2249" y="317.7104">Use Case 1</text><line style="stroke: #A80036; stroke-width: 1.0; stroke-dasharray: 1.0,2.0;" x1="2315" x2="2393.5" y1="314.4023" y2="314.4023"/><!--MD5=[930c8140e7c1cb8e71aa7cd49967748e]
class TrackDataPlotterTests--><rect fill="#FEFECE" filter="url(#f1kvgqkocbq407)" height="48" id="TrackDataPlotterTests" style="stroke: #A80036; stroke-width: 1.5;" width="172" x="2345" y="88.5"/><ellipse cx="2360" cy="104.5" fill="#ADD1B2" rx="11" ry="11" style="stroke: #A80036; stroke-width: 1.0;"/><path d="M2362.9688,110.1406 Q2362.3906,110.4375 2361.75,110.5781 Q2361.1094,110.7344 2360.4063,110.7344 Q2357.9063,110.7344 2356.5781,109.0938 Q2355.2656,107.4375 2355.2656,104.3125 Q2355.2656,101.1875 2356.5781,99.5313 Q2357.9063,97.875 2360.4063,97.875 Q2361.1094,97.875 2361.75,98.0313 Q2362.4063,98.1875 2362.9688,98.4844 L2362.9688,101.2031 Q2362.3438,100.625 2361.75,100.3594 Q2361.1563,100.0781 2360.5313,100.0781 Q2359.1875,100.0781 2358.5,101.1563 Q2357.8125,102.2188 2357.8125,104.3125 Q2357.8125,106.4063 2358.5,107.4844 Q2359.1875,108.5469 2360.5313,108.5469 Q2361.1563,108.5469 2361.75,108.2813 Q2362.3438,108 2362.9688,107.4219 L2362.9688,110.1406 Z "/><text fill="#000000" font-family="sans-serif" font-size="12" lengthAdjust="spacingAndGlyphs" textLength="140" x="2374" y="108.6543">TrackDataPlotterTests</text><line style="stroke: #A80036; stroke-width: 1.5;" x1="2346" x2="2516" y1="120.5" y2="120.5"/><line style="stroke: #A80036; stroke-width: 1.5;" x1="2346" x2="2516" y1="128.5" y2="128.5"/><!--MD5=[d3cb230b9040bd9072bb1f490e167601]
class MiddlewareCommInterface--><rect fill="#FEFECE" filter="url(#f1kvgqkocbq407)" height="107.2188" id="MiddlewareCommInterface" style="stroke: #A80036; stroke-width: 1.5;" width="198" x="2573" y="59"/><ellipse cx="2588" cy="75" fill="#B4A7E5" rx="11" ry="11" style="stroke: #A80036; stroke-width: 1.0;"/><path d="M2583.9219,70.7656 L2583.9219,68.6094 L2591.3125,68.6094 L2591.3125,70.7656 L2588.8438,70.7656 L2588.8438,78.8438 L2591.3125,78.8438 L2591.3125,81 L2583.9219,81 L2583.9219,78.8438 L2586.3906,78.8438 L2586.3906,70.7656 L2583.9219,70.7656 Z "/><text fill="#000000" font-family="sans-serif" font-size="12" font-style="italic" lengthAdjust="spacingAndGlyphs" textLength="166" x="2602" y="79.1543">MiddlewareCommInterface</text><line style="stroke: #A80036; stroke-width: 1.5;" x1="2574" x2="2770" y1="91" y2="91"/><line style="stroke: #A80036; stroke-width: 1.5;" x1="2574" x2="2770" y1="99" y2="99"/><ellipse cx="2584" cy="126.8047" fill="#84BE84" rx="3" ry="3" style="stroke: #038048; stroke-width: 1.0;"/><text fill="#000000" font-family="sans-serif" font-size="11" font-style="italic" lengthAdjust="spacingAndGlyphs" textLength="171" x="2593" y="130.0151">TrackData requestRfid(int rfid)</text><line style="stroke: #A80036; stroke-width: 1.0; stroke-dasharray: 1.0,2.0;" x1="2574" x2="2639" y1="113.4023" y2="113.4023"/><text fill="#000000" font-family="sans-serif" font-size="11" lengthAdjust="spacingAndGlyphs" textLength="66" x="2639" y="116.7104">Use Case 1</text><line style="stroke: #A80036; stroke-width: 1.0; stroke-dasharray: 1.0,2.0;" x1="2705" x2="2770" y1="113.4023" y2="113.4023"/><text fill="#000000" font-family="sans-serif" font-size="11" lengthAdjust="spacingAndGlyphs" textLength="0" x="2583" y="159.6245"/><line style="stroke: #A80036; stroke-width: 1.0; stroke-dasharray: 1.0,2.0;" x1="2574" x2="2639" y1="143.0117" y2="143.0117"/><text fill="#000000" font-family="sans-serif" font-size="11" lengthAdjust="spacingAndGlyphs" textLength="66" x="2639" y="146.3198">Use Case 2</text><line style="stroke: #A80036; stroke-width: 1.0; stroke-dasharray: 1.0,2.0;" x1="2705" x2="2770" y1="143.0117" y2="143.0117"/><!--MD5=[c986427b061286eff33e87a088ad4bf9]
class TrackDataPlotter--><rect fill="#FEFECE" filter="url(#f1kvgqkocbq407)" height="48" id="TrackDataPlotter" style="stroke: #A80036; stroke-width: 1.5;" width="138" x="2573" y="275"/><ellipse cx="2588" cy="291" fill="#ADD1B2" rx="11" ry="11" style="stroke: #A80036; stroke-width: 1.0;"/><path d="M2590.9688,296.6406 Q2590.3906,296.9375 2589.75,297.0781 Q2589.1094,297.2344 2588.4063,297.2344 Q2585.9063,297.2344 2584.5781,295.5938 Q2583.2656,293.9375 2583.2656,290.8125 Q2583.2656,287.6875 2584.5781,286.0313 Q2585.9063,284.375 2588.4063,284.375 Q2589.1094,284.375 2589.75,284.5313 Q2590.4063,284.6875 2590.9688,284.9844 L2590.9688,287.7031 Q2590.3438,287.125 2589.75,286.8594 Q2589.1563,286.5781 2588.5313,286.5781 Q2587.1875,286.5781 2586.5,287.6563 Q2585.8125,288.7188 2585.8125,290.8125 Q2585.8125,292.9063 2586.5,293.9844 Q2587.1875,295.0469 2588.5313,295.0469 Q2589.1563,295.0469 2589.75,294.7813 Q2590.3438,294.5 2590.9688,293.9219 L2590.9688,296.6406 Z "/><text fill="#000000" font-family="sans-serif" font-size="12" lengthAdjust="spacingAndGlyphs" textLength="106" x="2602" y="295.1543">TrackDataPlotter</text><line style="stroke: #A80036; stroke-width: 1.5;" x1="2574" x2="2710" y1="307" y2="307"/><line style="stroke: #A80036; stroke-width: 1.5;" x1="2574" x2="2710" y1="315" y2="315"/><!--MD5=[77bc37423dd8876786830fad4054e33b]
reverse link DisplayCommInterface to DisplayCommInterfaceImplementation--><path d="M225,171.79 C225,191.7 225,214.08 225,234.4 " fill="none" id="DisplayCommInterface&lt;-DisplayCommInterfaceImplementation" style="stroke: #A80036; stroke-width: 1.0; stroke-dasharray: 7.0,7.0;"/><polygon fill="none" points="218,171.73,225,151.73,232,171.73,218,171.73" style="stroke: #A80036; stroke-width: 1.0;"/><!--MD5=[4e991cf787e933c55089f97eae394828]
reverse link DisplayComm2WayInterface to DisplayComm2WayInterfaceImplementation--><path d="M683.18,170.4 C673.34,194.94 661.92,223.4 652.37,247.21 " fill="none" id="DisplayComm2WayInterface&lt;-DisplayComm2WayInterfaceImplementation" style="stroke: #A80036; stroke-width: 1.0; stroke-dasharray: 7.0,7.0;"/><polygon fill="none" points="676.73,167.69,690.67,151.73,689.72,172.9,676.73,167.69" style="stroke: #A80036; stroke-width: 1.0;"/><!--MD5=[5beed6c3c7e4a84a4bfaa95bdf8cce79]
reverse link DisplayCommManager to DisplayCommManagerImplementation--><path d="M1070.55,171.62 C1067.75,188.84 1064.65,207.9 1061.73,225.89 " fill="none" id="DisplayCommManager&lt;-DisplayCommManagerImplementation" style="stroke: #A80036; stroke-width: 1.0; stroke-dasharray: 7.0,7.0;"/><polygon fill="none" points="1063.66,170.35,1073.78,151.73,1077.48,172.59,1063.66,170.35" style="stroke: #A80036; stroke-width: 1.0;"/><!--MD5=[6aaeadb42451b39b4e2cdcf83e2bb4cd]
reverse link DisplayComm2WayInterface to DisplayComm2WayInterfaceStub--><path d="M818.61,158.4 C852.36,170.33 889.77,182.09 925,190 C1072.83,223.2 1116.98,189.38 1264,226 C1296.99,234.22 1331.96,247.24 1362.15,259.96 " fill="none" id="DisplayComm2WayInterface&lt;-DisplayComm2WayInterfaceStub" style="stroke: #A80036; stroke-width: 1.0; stroke-dasharray: 7.0,7.0;"/><polygon fill="none" points="816.17,164.96,799.74,151.58,820.93,151.8,816.17,164.96" style="stroke: #A80036; stroke-width: 1.0;"/><!--MD5=[9a02b467888c5123255f55ebe5217d7a]
link DisplayCommInterfaceImplementationTests to DisplayComm2WayInterfaceStub--><path d="M1453.48,136.87 C1451.56,166.35 1448.23,217.64 1445.83,254.44 " fill="none" id="DisplayCommInterfaceImplementationTests-&gt;DisplayComm2WayInterfaceStub" style="stroke: #A80036; stroke-width: 1.0; stroke-dasharray: 7.0,7.0;"/><polygon fill="#A80036" points="1445.49,259.76,1450.0483,251.0295,1445.8046,254.7699,1442.0641,250.5262,1445.49,259.76" style="stroke: #A80036; stroke-width: 1.0;"/><!--MD5=[0cd290e6298e838268680010d5032c0d]
link DisplayCommInterfaceImplementationTests to DisplayCommInterfaceImplementation--><path d="M1410.06,136.55 C1372.2,154.72 1316.03,178.8 1264,190 C901.3,268.08 794.3,155.77 430,226 C419.56,228.01 408.94,230.45 398.29,233.21 " fill="none" id="DisplayCommInterfaceImplementationTests-&gt;DisplayCommInterfaceImplementation" style="stroke: #A80036; stroke-width: 1.0; stroke-dasharray: 7.0,7.0;"/><polygon fill="#A80036" points="393.4,234.49,403.1219,236.0664,398.2352,233.2168,401.0848,228.3301,393.4,234.49" style="stroke: #A80036; stroke-width: 1.0;"/><!--MD5=[e6e0d8b3e0f7bf14f11c0899b3ad37ae]
reverse link DisplayCommManager to DisplayCommManagerStub--><path d="M1188.2,158.7 C1219.9,170.46 1254.93,182.04 1288,190 C1418.13,221.31 1457.08,193.82 1587,226 C1621.1,234.44 1657.39,247.36 1688.91,259.92 " fill="none" id="DisplayCommManager&lt;-DisplayCommManagerStub" style="stroke: #A80036; stroke-width: 1.0; stroke-dasharray: 7.0,7.0;"/><polygon fill="none" points="1185.67,165.23,1169.45,151.59,1190.63,152.14,1185.67,165.23" style="stroke: #A80036; stroke-width: 1.0;"/><!--MD5=[69695ace36e753468876c8d4fe5d2708]
link DisplayComm2WayInterfaceImplementationTests to DisplayCommManagerStub--><path d="M1803.82,136.87 C1798.55,166.35 1789.37,217.64 1782.79,254.44 " fill="none" id="DisplayComm2WayInterfaceImplementationTests-&gt;DisplayCommManagerStub" style="stroke: #A80036; stroke-width: 1.0; stroke-dasharray: 7.0,7.0;"/><polygon fill="#A80036" points="1781.84,259.76,1787.3729,251.6122,1782.7269,254.8393,1779.4998,250.1932,1781.84,259.76" style="stroke: #A80036; stroke-width: 1.0;"/><!--MD5=[ce67f838794c14794f693dd46a642b9a]
link DisplayComm2WayInterfaceImplementationTests to DisplayComm2WayInterfaceImplementation--><path d="M1764.55,136.53 C1727.93,154.69 1673.55,178.76 1623,190 C1280.78,266.12 1179.06,158.67 835,226 C810.66,230.76 785.3,237.89 761.09,245.84 " fill="none" id="DisplayComm2WayInterfaceImplementationTests-&gt;DisplayComm2WayInterfaceImplementation" style="stroke: #A80036; stroke-width: 1.0; stroke-dasharray: 7.0,7.0;"/><polygon fill="#A80036" points="756.27,247.44,766.0713,248.4064,761.0163,245.8674,763.5552,240.8124,756.27,247.44" style="stroke: #A80036; stroke-width: 1.0;"/><!--MD5=[72cb9e2c0df516d67fcc7a3605b88acd]
reverse link MiddlewareCommInterface to MiddlewareCommInterfaceStub--><path d="M2561.47,175.58 C2551.9,180.58 2542.32,185.45 2533,190 C2481.96,214.95 2423.75,240.19 2376.25,259.99 " fill="none" id="MiddlewareCommInterface&lt;-MiddlewareCommInterfaceStub" style="stroke: #A80036; stroke-width: 1.0; stroke-dasharray: 7.0,7.0;"/><polygon fill="none" points="2558.24,169.37,2579.19,166.19,2564.79,181.74,2558.24,169.37" style="stroke: #A80036; stroke-width: 1.0;"/><!--MD5=[a3caa78d97a9caf08bd2afaaae1510f4]
link DisplayCommManagerImplementationTests to MiddlewareCommInterfaceStub--><path d="M2175.45,136.87 C2195.11,166.59 2229.42,218.48 2253.79,255.34 " fill="none" id="DisplayCommManagerImplementationTests-&gt;MiddlewareCommInterfaceStub" style="stroke: #A80036; stroke-width: 1.0; stroke-dasharray: 7.0,7.0;"/><polygon fill="#A80036" points="2256.71,259.76,2255.0844,250.0462,2253.953,255.5888,2248.4104,254.4574,2256.71,259.76" style="stroke: #A80036; stroke-width: 1.0;"/><!--MD5=[6f3abcadcd809ea193290ea1cf8b820a]
link DisplayCommManagerImplementationTests to DisplayCommManagerImplementation--><path d="M2120.72,136.68 C2087.82,154.79 2039,178.73 1993,190 C1688.27,264.66 1597.09,172.18 1288,226 C1276.46,228.01 1264.7,230.4 1252.89,233.07 " fill="none" id="DisplayCommManagerImplementationTests-&gt;DisplayCommManagerImplementation" style="stroke: #A80036; stroke-width: 1.0; stroke-dasharray: 7.0,7.0;"/><polygon fill="#A80036" points="1247.82,234.23,1257.4906,236.0955,1252.691,233.1015,1255.685,228.302,1247.82,234.23" style="stroke: #A80036; stroke-width: 1.0;"/><!--MD5=[f24e7409bf4fec90fef0ed7e05f90b9b]
link TrackDataPlotterTests to TrackDataPlotter--><path d="M2457.72,136.87 C2497.04,171.25 2570.28,235.28 2611.6,271.42 " fill="none" id="TrackDataPlotterTests-&gt;TrackDataPlotter" style="stroke: #A80036; stroke-width: 1.0; stroke-dasharray: 7.0,7.0;"/><polygon fill="#A80036" points="2615.49,274.82,2611.3316,265.8921,2611.72,271.5356,2606.0765,271.924,2615.49,274.82" style="stroke: #A80036; stroke-width: 1.0;"/><!--MD5=[0c5da2fe980ef4dcf68c0c7cb7093d65]
@startuml Display02Packages_Closure


package edu.oakland.production.display02 {
    
}



package edu.oakland.production.display02 {
    interface DisplayCommInterface {
        __
        .. Use Case 1 ..
        {abstract} + TrackData receiveRfidRequest(int rfidNum)
    }
}








package edu.oakland.production.display02 {
    interface DisplayComm2WayInterface {
        __
        .. Use Case 1 ..
        {abstract} + TrackData passRfidRequest(int rfidNum)
    }
}








package edu.oakland.production.display02 {
    interface DisplayCommManager {
        __
        .. Use Case 1 ..
        {abstract} + TrackData evaluateRfidRequest(int rfidNum)
    }
}








package edu.oakland.production.display02 {
    class DisplayCommInterfaceImplementation {
        DisplayComm2WayInterface receiver
        __
        {abstract} + DisplayCommInterface(DisplayComm2WayInterface receiver)
        .. Use Case 1 ..
        {abstract} + TrackData receiveRfidRequest(int rfidNum)
        {abstract} + TrackData passToComm2WayInterface(int rfidNum)

    }
}


DisplayCommInterfaceImplementation .up.|> DisplayCommInterface







package edu.oakland.production.display02 {
    class DisplayComm2WayInterfaceImplementation {
        __
        .. Use Case 1 ..
        {abstract} + TrackData passRfidRequest(int rfidNum)
        {abstract} + void determineUserRequestFormat(int rfidNum)
        {abstract} + void receiveRequestFromDisplayCommInterface(int rfidNum)
    }
}


DisplayComm2WayInterfaceImplementation .up.|> DisplayComm2WayInterface







package edu.oakland.production.display02 {
    class DisplayCommManagerImplementation {
        __
        .. Use Case 1 ..
        {abstract} + TrackData evaluateRfidRequest(int rfidNum)
        {abstract} + TrackData passRequestToMiddlewareCommInterface(int rfidNum)
        {abstract} + void receiveRequestFromDisplay2WayInterface(int rfidNum)

        .. Use Case 2 ..

    }
}


DisplayCommManagerImplementation .up.|> DisplayCommManager







package edu.oakland.test.display02 {
    
}



package edu.oakland.test.display02 {
    class DisplayCommInterfaceImplementationTests {

    }
}




package edu.oakland.test.display02 {
    class DisplayComm2WayInterfaceStub {
        __
        .. Use Case 1 ..
        {abstract} + TrackData passRfidRequest(int rfidNum)
    }
}


DisplayComm2WayInterfaceStub .up.|> DisplayComm2WayInterface



DisplayCommInterfaceImplementationTests ..> DisplayComm2WayInterfaceStub

DisplayCommInterfaceImplementationTests ..> DisplayCommInterfaceImplementation





package edu.oakland.test.display02 {
    class DisplayComm2WayInterfaceImplementationTests {

    }
}




package edu.oakland.test.display02 {
    class DisplayCommManagerStub {
        __
        .. Use Case 1 ..
        + TrackData evaluateRfidRequest(int rfidNum)
    }
}


DisplayCommManagerStub .up.|> DisplayCommManager



DisplayComm2WayInterfaceImplementationTests ..> DisplayCommManagerStub

DisplayComm2WayInterfaceImplementationTests ..> DisplayComm2WayInterfaceImplementation





package edu.oakland.test.display02 {
    class DisplayCommManagerImplementationTests {

    }
}




package edu.oakland.test.display02 {
    class MiddlewareCommInterfaceStub {
        __
        .. Use Case 1 ..
        + TrackData requestRfid(int rfid)
    }
}






package edu.oakland.production.middleware02 {
    interface MiddlewareCommInterface {
        __
        .. Use Case 1 ..
        {abstract} + TrackData requestRfid(int rfid)
        .. Use Case 2 ..

    }
}






MiddlewareCommInterfaceStub .up.|> MiddlewareCommInterface

DisplayCommManagerImplementationTests ..> MiddlewareCommInterfaceStub

DisplayCommManagerImplementationTests ..> DisplayCommManagerImplementation





package edu.oakland.test.display02 {
    class TrackDataPlotterTests {

    }
}




package edu.oakland.helper.display02 {
    class TrackDataPlotter {
        
    }
}






TrackDataPlotterTests ..> TrackDataPlotter





package edu.oakland.helper.display02 {
    
}



@enduml

PlantUML version 1.2020.02(Sun Mar 01 10:22:07 GMT 2020)
(GPL source distribution)
Java Runtime: OpenJDK Runtime Environment
JVM: OpenJDK 64-Bit Server VM
Java Version: 11.0.9+11-Ubuntu-0ubuntu1
Operating System: Linux
Default Encoding: ANSI_X3.4-1968
Language: en
Country: US
--></g></svg>