<?xml version="1.0" encoding="UTF-8" standalone="no"?><svg xmlns="http://www.w3.org/2000/svg" xmlns:xlink="http://www.w3.org/1999/xlink" contentScriptType="application/ecmascript" contentStyleType="text/css" height="220px" preserveAspectRatio="none" style="width:646px;height:220px;" version="1.1" viewBox="0 0 646 220" width="646px" zoomAndPan="magnify"><defs><filter height="300%" id="fsl86tivmixeb" width="300%" x="-1" y="-1"><feGaussianBlur result="blurOut" stdDeviation="2.0"/><feColorMatrix in="blurOut" result="blurOut2" type="matrix" values="0 0 0 0 0 0 0 0 0 0 0 0 0 0 0 0 0 0 .4 0"/><feOffset dx="4.0" dy="4.0" in="blurOut2" result="blurOut3"/><feBlend in="SourceGraphic" in2="blurOut3" mode="normal"/></filter></defs><g><!--MD5=[33504725b8a69ba2207f0a836957a91c]
cluster edu.oakland.production.middleware02--><polygon fill="#FFFFFF" filter="url(#fsl86tivmixeb)" points="22,24,332,24,339,46.2969,624,46.2969,624,208,22,208,22,24" style="stroke: #000000; stroke-width: 1.5;"/><line style="stroke: #000000; stroke-width: 1.5;" x1="22" x2="339" y1="46.2969" y2="46.2969"/><text fill="#000000" font-family="sans-serif" font-size="14" font-weight="bold" lengthAdjust="spacingAndGlyphs" textLength="304" x="26" y="38.9951">edu.oakland.production.middleware02</text><!--MD5=[1c4f9654f103878faf4a10c0361188b9]
class MiddlewareCommDatabaseInterfaceImplementation--><rect fill="#FEFECE" filter="url(#fsl86tivmixeb)" height="132.8281" id="MiddlewareCommDatabaseInterfaceImplementation" style="stroke: #A80036; stroke-width: 1.5;" width="569" x="38.5" y="59"/><ellipse cx="157.75" cy="75" fill="#ADD1B2" rx="11" ry="11" style="stroke: #A80036; stroke-width: 1.0;"/><path d="M160.7188,80.6406 Q160.1406,80.9375 159.5,81.0781 Q158.8594,81.2344 158.1563,81.2344 Q155.6563,81.2344 154.3281,79.5938 Q153.0156,77.9375 153.0156,74.8125 Q153.0156,71.6875 154.3281,70.0313 Q155.6563,68.375 158.1563,68.375 Q158.8594,68.375 159.5,68.5313 Q160.1563,68.6875 160.7188,68.9844 L160.7188,71.7031 Q160.0938,71.125 159.5,70.8594 Q158.9063,70.5781 158.2813,70.5781 Q156.9375,70.5781 156.25,71.6563 Q155.5625,72.7188 155.5625,74.8125 Q155.5625,76.9063 156.25,77.9844 Q156.9375,79.0469 158.2813,79.0469 Q158.9063,79.0469 159.5,78.7813 Q160.0938,78.5 160.7188,77.9219 L160.7188,80.6406 Z "/><text fill="#000000" font-family="sans-serif" font-size="12" lengthAdjust="spacingAndGlyphs" textLength="322" x="178.25" y="79.1543">MiddlewareCommDatabaseInterfaceImplementation</text><line style="stroke: #A80036; stroke-width: 1.5;" x1="39.5" x2="606.5" y1="91" y2="91"/><ellipse cx="49.5" cy="102" fill="none" rx="3" ry="3" style="stroke: #038048; stroke-width: 1.0;"/><text fill="#000000" font-family="sans-serif" font-size="11" lengthAdjust="spacingAndGlyphs" textLength="242" x="58.5" y="105.2104">MiddlewareDatabase middlewareDatabase</text><line style="stroke: #A80036; stroke-width: 1.5;" x1="39.5" x2="606.5" y1="111.8047" y2="111.8047"/><ellipse cx="49.5" cy="122.8047" fill="#84BE84" rx="3" ry="3" style="stroke: #038048; stroke-width: 1.0;"/><text fill="#000000" font-family="sans-serif" font-size="11" lengthAdjust="spacingAndGlyphs" textLength="543" x="58.5" y="126.0151">MiddlewareCommDatabaseInterfaceImplementation(MiddlewareDatabase middlewareDatabase)</text><ellipse cx="49.5" cy="152.4141" fill="#84BE84" rx="3" ry="3" style="stroke: #038048; stroke-width: 1.0;"/><text fill="#000000" font-family="sans-serif" font-size="11" lengthAdjust="spacingAndGlyphs" textLength="122" x="58.5" y="155.6245">int checkCurrentRfid()</text><line style="stroke: #A80036; stroke-width: 1.0; stroke-dasharray: 1.0,2.0;" x1="39.5" x2="290" y1="139.0117" y2="139.0117"/><text fill="#000000" font-family="sans-serif" font-size="11" lengthAdjust="spacingAndGlyphs" textLength="66" x="290" y="142.3198">Use Case 1</text><line style="stroke: #A80036; stroke-width: 1.0; stroke-dasharray: 1.0,2.0;" x1="356" x2="606.5" y1="139.0117" y2="139.0117"/><text fill="#000000" font-family="sans-serif" font-size="11" lengthAdjust="spacingAndGlyphs" textLength="0" x="48.5" y="185.2339"/><line style="stroke: #A80036; stroke-width: 1.0; stroke-dasharray: 1.0,2.0;" x1="39.5" x2="290" y1="168.6211" y2="168.6211"/><text fill="#000000" font-family="sans-serif" font-size="11" lengthAdjust="spacingAndGlyphs" textLength="66" x="290" y="171.9292">Use Case 2</text><line style="stroke: #A80036; stroke-width: 1.0; stroke-dasharray: 1.0,2.0;" x1="356" x2="606.5" y1="168.6211" y2="168.6211"/><!--MD5=[926df773624471c52f75930684caf248]
@startuml MiddlewareCommDatabaseInterfaceImplementation

package edu.oakland.production.middleware02 {
    class MiddlewareCommDatabaseInterfaceImplementation {
        + MiddlewareDatabase middlewareDatabase
        __
        + MiddlewareCommDatabaseInterfaceImplementation(MiddlewareDatabase middlewareDatabase)
        .. Use Case 1 ..
        + int checkCurrentRfid()
        .. Use Case 2 ..

    }
}

@enduml

PlantUML version 1.2020.02(Sun Mar 01 10:22:07 GMT 2020)
(GPL source distribution)
Java Runtime: OpenJDK Runtime Environment
JVM: OpenJDK 64-Bit Server VM
Java Version: 11.0.9+11-Ubuntu-0ubuntu1
Operating System: Linux
Default Encoding: ANSI_X3.4-1968
Language: en
Country: US
--></g></svg>