<?xml version="1.0" encoding="UTF-8" standalone="no"?><svg xmlns="http://www.w3.org/2000/svg" xmlns:xlink="http://www.w3.org/1999/xlink" contentScriptType="application/ecmascript" contentStyleType="text/css" height="387px" preserveAspectRatio="none" style="width:688px;height:387px;" version="1.1" viewBox="0 0 688 387" width="688px" zoomAndPan="magnify"><defs><filter height="300%" id="f7xdcj0byb3ld" width="300%" x="-1" y="-1"><feGaussianBlur result="blurOut" stdDeviation="2.0"/><feColorMatrix in="blurOut" result="blurOut2" type="matrix" values="0 0 0 0 0 0 0 0 0 0 0 0 0 0 0 0 0 0 .4 0"/><feOffset dx="4.0" dy="4.0" in="blurOut2" result="blurOut3"/><feBlend in="SourceGraphic" in2="blurOut3" mode="normal"/></filter></defs><g><!--MD5=[33504725b8a69ba2207f0a836957a91c]
cluster edu.oakland.production.middleware02--><polygon fill="#FFFFFF" filter="url(#f7xdcj0byb3ld)" points="22,24,332,24,339,46.2969,666,46.2969,666,375,22,375,22,24" style="stroke: #000000; stroke-width: 1.5;"/><line style="stroke: #000000; stroke-width: 1.5;" x1="22" x2="339" y1="46.2969" y2="46.2969"/><text fill="#000000" font-family="sans-serif" font-size="14" font-weight="bold" lengthAdjust="spacingAndGlyphs" textLength="304" x="26" y="38.9951">edu.oakland.production.middleware02</text><!--MD5=[1c4f9654f103878faf4a10c0361188b9]
class MiddlewareCommDatabaseInterfaceImplementation--><rect fill="#FEFECE" filter="url(#f7xdcj0byb3ld)" height="132.8281" id="MiddlewareCommDatabaseInterfaceImplementation" style="stroke: #A80036; stroke-width: 1.5;" width="612" x="38" y="226"/><ellipse cx="178.75" cy="242" fill="#ADD1B2" rx="11" ry="11" style="stroke: #A80036; stroke-width: 1.0;"/><path d="M181.7188,247.6406 Q181.1406,247.9375 180.5,248.0781 Q179.8594,248.2344 179.1563,248.2344 Q176.6563,248.2344 175.3281,246.5938 Q174.0156,244.9375 174.0156,241.8125 Q174.0156,238.6875 175.3281,237.0313 Q176.6563,235.375 179.1563,235.375 Q179.8594,235.375 180.5,235.5313 Q181.1563,235.6875 181.7188,235.9844 L181.7188,238.7031 Q181.0938,238.125 180.5,237.8594 Q179.9063,237.5781 179.2813,237.5781 Q177.9375,237.5781 177.25,238.6563 Q176.5625,239.7188 176.5625,241.8125 Q176.5625,243.9063 177.25,244.9844 Q177.9375,246.0469 179.2813,246.0469 Q179.9063,246.0469 180.5,245.7813 Q181.0938,245.5 181.7188,244.9219 L181.7188,247.6406 Z "/><text fill="#000000" font-family="sans-serif" font-size="12" lengthAdjust="spacingAndGlyphs" textLength="322" x="199.25" y="246.1543">MiddlewareCommDatabaseInterfaceImplementation</text><line style="stroke: #A80036; stroke-width: 1.5;" x1="39" x2="649" y1="258" y2="258"/><ellipse cx="49" cy="269" fill="none" rx="3" ry="3" style="stroke: #038048; stroke-width: 1.0;"/><text fill="#000000" font-family="sans-serif" font-size="11" lengthAdjust="spacingAndGlyphs" textLength="285" x="58" y="272.2104">DatabaseCommInterface databaseCommInterface</text><line style="stroke: #A80036; stroke-width: 1.5;" x1="39" x2="649" y1="278.8047" y2="278.8047"/><ellipse cx="49" cy="289.8047" fill="#84BE84" rx="3" ry="3" style="stroke: #038048; stroke-width: 1.0;"/><text fill="#000000" font-family="sans-serif" font-size="11" lengthAdjust="spacingAndGlyphs" textLength="586" x="58" y="293.0151">MiddlewareCommDatabaseInterfaceImplementation(DatabaseCommInterface databaseCommInterface)</text><ellipse cx="49" cy="319.4141" fill="#84BE84" rx="3" ry="3" style="stroke: #038048; stroke-width: 1.0;"/><text fill="#000000" font-family="sans-serif" font-size="11" lengthAdjust="spacingAndGlyphs" textLength="122" x="58" y="322.6245">int checkCurrentRfid()</text><line style="stroke: #A80036; stroke-width: 1.0; stroke-dasharray: 1.0,2.0;" x1="39" x2="311" y1="306.0117" y2="306.0117"/><text fill="#000000" font-family="sans-serif" font-size="11" lengthAdjust="spacingAndGlyphs" textLength="66" x="311" y="309.3198">Use Case 1</text><line style="stroke: #A80036; stroke-width: 1.0; stroke-dasharray: 1.0,2.0;" x1="377" x2="649" y1="306.0117" y2="306.0117"/><text fill="#000000" font-family="sans-serif" font-size="11" lengthAdjust="spacingAndGlyphs" textLength="0" x="48" y="352.2339"/><line style="stroke: #A80036; stroke-width: 1.0; stroke-dasharray: 1.0,2.0;" x1="39" x2="311" y1="335.6211" y2="335.6211"/><text fill="#000000" font-family="sans-serif" font-size="11" lengthAdjust="spacingAndGlyphs" textLength="66" x="311" y="338.9292">Use Case 2</text><line style="stroke: #A80036; stroke-width: 1.0; stroke-dasharray: 1.0,2.0;" x1="377" x2="649" y1="335.6211" y2="335.6211"/><!--MD5=[4915649770e9045e9ea9156a01fd67e8]
class MiddlewareCommDatabaseInterface--><rect fill="#FEFECE" filter="url(#f7xdcj0byb3ld)" height="107.2188" id="MiddlewareCommDatabaseInterface" style="stroke: #A80036; stroke-width: 1.5;" width="258" x="215" y="59"/><ellipse cx="230" cy="75" fill="#B4A7E5" rx="11" ry="11" style="stroke: #A80036; stroke-width: 1.0;"/><path d="M225.9219,70.7656 L225.9219,68.6094 L233.3125,68.6094 L233.3125,70.7656 L230.8438,70.7656 L230.8438,78.8438 L233.3125,78.8438 L233.3125,81 L225.9219,81 L225.9219,78.8438 L228.3906,78.8438 L228.3906,70.7656 L225.9219,70.7656 Z "/><text fill="#000000" font-family="sans-serif" font-size="12" font-style="italic" lengthAdjust="spacingAndGlyphs" textLength="226" x="244" y="79.1543">MiddlewareCommDatabaseInterface</text><line style="stroke: #A80036; stroke-width: 1.5;" x1="216" x2="472" y1="91" y2="91"/><line style="stroke: #A80036; stroke-width: 1.5;" x1="216" x2="472" y1="99" y2="99"/><ellipse cx="226" cy="126.8047" fill="#84BE84" rx="3" ry="3" style="stroke: #038048; stroke-width: 1.0;"/><text fill="#000000" font-family="sans-serif" font-size="11" font-style="italic" lengthAdjust="spacingAndGlyphs" textLength="123" x="235" y="130.0151">int checkCurrentRfid()</text><line style="stroke: #A80036; stroke-width: 1.0; stroke-dasharray: 1.0,2.0;" x1="216" x2="311" y1="113.4023" y2="113.4023"/><text fill="#000000" font-family="sans-serif" font-size="11" lengthAdjust="spacingAndGlyphs" textLength="66" x="311" y="116.7104">Use Case 1</text><line style="stroke: #A80036; stroke-width: 1.0; stroke-dasharray: 1.0,2.0;" x1="377" x2="472" y1="113.4023" y2="113.4023"/><text fill="#000000" font-family="sans-serif" font-size="11" lengthAdjust="spacingAndGlyphs" textLength="0" x="225" y="159.6245"/><line style="stroke: #A80036; stroke-width: 1.0; stroke-dasharray: 1.0,2.0;" x1="216" x2="311" y1="143.0117" y2="143.0117"/><text fill="#000000" font-family="sans-serif" font-size="11" lengthAdjust="spacingAndGlyphs" textLength="66" x="311" y="146.3198">Use Case 2</text><line style="stroke: #A80036; stroke-width: 1.0; stroke-dasharray: 1.0,2.0;" x1="377" x2="472" y1="143.0117" y2="143.0117"/><!--MD5=[8e69def7a54ed81078168d5d1d8487c9]
reverse link MiddlewareCommDatabaseInterface to MiddlewareCommDatabaseInterfaceImplementation--><path d="M344,186.86 C344,199.78 344,213.15 344,225.85 " fill="none" id="MiddlewareCommDatabaseInterface&lt;-MiddlewareCommDatabaseInterfaceImplementation" style="stroke: #A80036; stroke-width: 1.0; stroke-dasharray: 7.0,7.0;"/><polygon fill="none" points="337,186.42,344,166.42,351,186.42,337,186.42" style="stroke: #A80036; stroke-width: 1.0;"/><!--MD5=[3337d3d4df41f78040b2de52df5f85d4]
@startuml MiddlewareCommDatabaseInterfaceImplementation_Closure


package edu.oakland.production.middleware02 {
    class MiddlewareCommDatabaseInterfaceImplementation {
        + DatabaseCommInterface databaseCommInterface
        __
        + MiddlewareCommDatabaseInterfaceImplementation(DatabaseCommInterface databaseCommInterface)
        .. Use Case 1 ..
        + int checkCurrentRfid()
        .. Use Case 2 ..

    }
}




package edu.oakland.production.middleware02 {
    interface MiddlewareCommDatabaseInterface {
        __
        .. Use Case 1 ..
        {abstract} + int checkCurrentRfid()
        .. Use Case 2 ..

    }
}






MiddlewareCommDatabaseInterfaceImplementation .up.|> MiddlewareCommDatabaseInterface





@enduml

PlantUML version 1.2020.02(Sun Mar 01 10:22:07 GMT 2020)
(GPL source distribution)
Java Runtime: OpenJDK Runtime Environment
JVM: OpenJDK 64-Bit Server VM
Java Version: 11.0.9+11-Ubuntu-0ubuntu1
Operating System: Linux
Default Encoding: ANSI_X3.4-1968
Language: en
Country: US
--></g></svg>