<?xml version="1.0" encoding="UTF-8" standalone="no"?><svg xmlns="http://www.w3.org/2000/svg" xmlns:xlink="http://www.w3.org/1999/xlink" contentScriptType="application/ecmascript" contentStyleType="text/css" height="583px" preserveAspectRatio="none" style="width:765px;height:583px;" version="1.1" viewBox="0 0 765 583" width="765px" zoomAndPan="magnify"><defs><filter height="300%" id="f1timkse8tvi3r" width="300%" x="-1" y="-1"><feGaussianBlur result="blurOut" stdDeviation="2.0"/><feColorMatrix in="blurOut" result="blurOut2" type="matrix" values="0 0 0 0 0 0 0 0 0 0 0 0 0 0 0 0 0 0 .4 0"/><feOffset dx="4.0" dy="4.0" in="blurOut2" result="blurOut3"/><feBlend in="SourceGraphic" in2="blurOut3" mode="normal"/></filter></defs><g><!--MD5=[8bd6d9786dfa802b1eecfb7372bf244a]
cluster edu.oakland.production.admin--><polygon fill="#FFFFFF" filter="url(#f1timkse8tvi3r)" points="22,24,267,24,274,46.2969,743,46.2969,743,571,22,571,22,24" style="stroke: #000000; stroke-width: 1.5;"/><line style="stroke: #000000; stroke-width: 1.5;" x1="22" x2="274" y1="46.2969" y2="46.2969"/><text fill="#000000" font-family="sans-serif" font-size="14" font-weight="bold" lengthAdjust="spacingAndGlyphs" textLength="239" x="26" y="38.9951">edu.oakland.production.admin</text><!--MD5=[3c84d2688363deb820fa9437de7249ec]
class Demo--><rect fill="#FEFECE" filter="url(#f1timkse8tvi3r)" height="222.4609" id="Demo" style="stroke: #A80036; stroke-width: 1.5;" width="334" x="38" y="59"/><ellipse cx="182.75" cy="75" fill="#ADD1B2" rx="11" ry="11" style="stroke: #A80036; stroke-width: 1.0;"/><path d="M185.7188,80.6406 Q185.1406,80.9375 184.5,81.0781 Q183.8594,81.2344 183.1563,81.2344 Q180.6563,81.2344 179.3281,79.5938 Q178.0156,77.9375 178.0156,74.8125 Q178.0156,71.6875 179.3281,70.0313 Q180.6563,68.375 183.1563,68.375 Q183.8594,68.375 184.5,68.5313 Q185.1563,68.6875 185.7188,68.9844 L185.7188,71.7031 Q185.0938,71.125 184.5,70.8594 Q183.9063,70.5781 183.2813,70.5781 Q181.9375,70.5781 181.25,71.6563 Q180.5625,72.7188 180.5625,74.8125 Q180.5625,76.9063 181.25,77.9844 Q181.9375,79.0469 183.2813,79.0469 Q183.9063,79.0469 184.5,78.7813 Q185.0938,78.5 185.7188,77.9219 L185.7188,80.6406 Z "/><text fill="#000000" font-family="sans-serif" font-size="12" lengthAdjust="spacingAndGlyphs" textLength="36" x="203.25" y="79.1543">Demo</text><line style="stroke: #A80036; stroke-width: 1.5;" x1="39" x2="371" y1="91" y2="91"/><rect fill="none" height="6" style="stroke: #C82930; stroke-width: 1.0;" width="6" x="46" y="115.8047"/><text fill="#000000" font-family="sans-serif" font-size="11" lengthAdjust="spacingAndGlyphs" textLength="231" x="58" y="122.0151">DisplayGpsInterface displayGpsInterface</text><rect fill="none" height="6" style="stroke: #C82930; stroke-width: 1.0;" width="6" x="46" y="128.6094"/><text fill="#000000" font-family="sans-serif" font-size="11" lengthAdjust="spacingAndGlyphs" textLength="259" x="58" y="134.8198">DisplayCommInterface displayCommInterface</text><line style="stroke: #A80036; stroke-width: 1.0; stroke-dasharray: 1.0,2.0;" x1="39" x2="135" y1="105.4023" y2="105.4023"/><text fill="#000000" font-family="sans-serif" font-size="11" lengthAdjust="spacingAndGlyphs" textLength="140" x="135" y="108.7104">Main Production Classes</text><line style="stroke: #A80036; stroke-width: 1.0; stroke-dasharray: 1.0,2.0;" x1="275" x2="371" y1="105.4023" y2="105.4023"/><rect fill="none" height="6" style="stroke: #C82930; stroke-width: 1.0;" width="6" x="46" y="158.2188"/><text fill="#000000" font-family="sans-serif" font-size="11" lengthAdjust="spacingAndGlyphs" textLength="134" x="58" y="164.4292">GpsSystem gpsSystem</text><rect fill="none" height="6" style="stroke: #C82930; stroke-width: 1.0;" width="6" x="46" y="171.0234"/><text fill="#000000" font-family="sans-serif" font-size="11" lengthAdjust="spacingAndGlyphs" textLength="57" x="58" y="177.2339">User user</text><rect fill="none" height="6" style="stroke: #C82930; stroke-width: 1.0;" width="6" x="46" y="183.8281"/><text fill="#000000" font-family="sans-serif" font-size="11" lengthAdjust="spacingAndGlyphs" textLength="308" x="58" y="190.0386">PersistentStorageManager persistentStorageManager</text><line style="stroke: #A80036; stroke-width: 1.0; stroke-dasharray: 1.0,2.0;" x1="39" x2="152" y1="147.8164" y2="147.8164"/><text fill="#000000" font-family="sans-serif" font-size="11" lengthAdjust="spacingAndGlyphs" textLength="106" x="152" y="151.1245">Use Case Runners</text><line style="stroke: #A80036; stroke-width: 1.0; stroke-dasharray: 1.0,2.0;" x1="258" x2="371" y1="147.8164" y2="147.8164"/><line style="stroke: #A80036; stroke-width: 1.5;" x1="39" x2="371" y1="196.6328" y2="196.6328"/><ellipse cx="49" cy="207.6328" fill="#84BE84" rx="3" ry="3" style="stroke: #038048; stroke-width: 1.0;"/><text fill="#000000" font-family="sans-serif" font-size="11" lengthAdjust="spacingAndGlyphs" text-decoration="underline" textLength="130" x="58" y="210.8433">void main(Sting args[])</text><ellipse cx="49" cy="220.4375" fill="#84BE84" rx="3" ry="3" style="stroke: #038048; stroke-width: 1.0;"/><text fill="#000000" font-family="sans-serif" font-size="11" lengthAdjust="spacingAndGlyphs" textLength="272" x="58" y="223.6479">void initSecureLockTrackSystem(int systemRfid,</text><text fill="#000000" font-family="sans-serif" font-size="11" lengthAdjust="spacingAndGlyphs" textLength="220" x="90" y="236.4526">String persistentStorageInputLocation,</text><text fill="#000000" font-family="sans-serif" font-size="11" lengthAdjust="spacingAndGlyphs" textLength="230" x="90" y="249.2573">String persistentStorageOutputLocation)</text><ellipse cx="49" cy="258.8516" fill="#84BE84" rx="3" ry="3" style="stroke: #038048; stroke-width: 1.0;"/><text fill="#000000" font-family="sans-serif" font-size="11" lengthAdjust="spacingAndGlyphs" textLength="191" x="58" y="262.062">void runUseCases(Scanner input)</text><ellipse cx="49" cy="271.6563" fill="#84BE84" rx="3" ry="3" style="stroke: #038048; stroke-width: 1.0;"/><text fill="#000000" font-family="sans-serif" font-size="11" lengthAdjust="spacingAndGlyphs" text-decoration="underline" textLength="135" x="58" y="274.8667">void main(String[] args)</text><!--MD5=[3fd616f346a44cd59a91eb10b19e157c]
class User--><rect fill="#FEFECE" filter="url(#f1timkse8tvi3r)" height="86.4141" id="User" style="stroke: #A80036; stroke-width: 1.5;" width="320" x="407" y="127"/><ellipse cx="548.25" cy="143" fill="#ADD1B2" rx="11" ry="11" style="stroke: #A80036; stroke-width: 1.0;"/><path d="M551.2188,148.6406 Q550.6406,148.9375 550,149.0781 Q549.3594,149.2344 548.6563,149.2344 Q546.1563,149.2344 544.8281,147.5938 Q543.5156,145.9375 543.5156,142.8125 Q543.5156,139.6875 544.8281,138.0313 Q546.1563,136.375 548.6563,136.375 Q549.3594,136.375 550,136.5313 Q550.6563,136.6875 551.2188,136.9844 L551.2188,139.7031 Q550.5938,139.125 550,138.8594 Q549.4063,138.5781 548.7813,138.5781 Q547.4375,138.5781 546.75,139.6563 Q546.0625,140.7188 546.0625,142.8125 Q546.0625,144.9063 546.75,145.9844 Q547.4375,147.0469 548.7813,147.0469 Q549.4063,147.0469 550,146.7813 Q550.5938,146.5 551.2188,145.9219 L551.2188,148.6406 Z "/><text fill="#000000" font-family="sans-serif" font-size="12" lengthAdjust="spacingAndGlyphs" textLength="29" x="568.75" y="147.1543">User</text><line style="stroke: #A80036; stroke-width: 1.5;" x1="408" x2="726" y1="159" y2="159"/><rect fill="none" height="6" style="stroke: #C82930; stroke-width: 1.0;" width="6" x="415" y="167"/><text fill="#000000" font-family="sans-serif" font-size="11" lengthAdjust="spacingAndGlyphs" textLength="259" x="427" y="173.2104">DisplayCommInterface displayCommInterface</text><line style="stroke: #A80036; stroke-width: 1.5;" x1="408" x2="726" y1="179.8047" y2="179.8047"/><ellipse cx="418" cy="190.8047" fill="#84BE84" rx="3" ry="3" style="stroke: #038048; stroke-width: 1.0;"/><text fill="#000000" font-family="sans-serif" font-size="11" lengthAdjust="spacingAndGlyphs" textLength="294" x="427" y="194.0151">User(DisplayCommInterface displayCommInterface)</text><ellipse cx="418" cy="203.6094" fill="#84BE84" rx="3" ry="3" style="stroke: #038048; stroke-width: 1.0;"/><text fill="#000000" font-family="sans-serif" font-size="11" lengthAdjust="spacingAndGlyphs" textLength="225" x="427" y="206.8198">TrackData runUseCase1(Scanner input)</text><!--MD5=[d25225d68d5e3bf6aa5fb275933b1e63]
class GpsSystem--><rect fill="#FEFECE" filter="url(#f1timkse8tvi3r)" height="214.4609" id="GpsSystem" style="stroke: #A80036; stroke-width: 1.5;" width="365" x="37.5" y="341"/><ellipse cx="181.25" cy="357" fill="#ADD1B2" rx="11" ry="11" style="stroke: #A80036; stroke-width: 1.0;"/><path d="M184.2188,362.6406 Q183.6406,362.9375 183,363.0781 Q182.3594,363.2344 181.6563,363.2344 Q179.1563,363.2344 177.8281,361.5938 Q176.5156,359.9375 176.5156,356.8125 Q176.5156,353.6875 177.8281,352.0313 Q179.1563,350.375 181.6563,350.375 Q182.3594,350.375 183,350.5313 Q183.6563,350.6875 184.2188,350.9844 L184.2188,353.7031 Q183.5938,353.125 183,352.8594 Q182.4063,352.5781 181.7813,352.5781 Q180.4375,352.5781 179.75,353.6563 Q179.0625,354.7188 179.0625,356.8125 Q179.0625,358.9063 179.75,359.9844 Q180.4375,361.0469 181.7813,361.0469 Q182.4063,361.0469 183,360.7813 Q183.5938,360.5 184.2188,359.9219 L184.2188,362.6406 Z "/><text fill="#000000" font-family="sans-serif" font-size="12" lengthAdjust="spacingAndGlyphs" textLength="69" x="201.75" y="361.1543">GpsSystem</text><line style="stroke: #A80036; stroke-width: 1.5;" x1="38.5" x2="401.5" y1="373" y2="373"/><rect fill="none" height="6" style="stroke: #C82930; stroke-width: 1.0;" width="6" x="45.5" y="381"/><text fill="#000000" font-family="sans-serif" font-size="11" lengthAdjust="spacingAndGlyphs" textLength="231" x="57.5" y="387.2104">DisplayGpsInterface displayGpsInterface</text><rect fill="none" height="6" style="stroke: #C82930; stroke-width: 1.0;" width="6" x="45.5" y="393.8047"/><text fill="#000000" font-family="sans-serif" font-size="11" lengthAdjust="spacingAndGlyphs" textLength="110" x="57.5" y="400.0151">Satellite[] satellites</text><rect fill="none" height="6" style="stroke: #C82930; stroke-width: 1.0;" width="6" x="45.5" y="406.6094"/><text fill="#000000" font-family="sans-serif" font-size="11" lengthAdjust="spacingAndGlyphs" textLength="95" x="57.5" y="412.8198">int satelliteInUse</text><line style="stroke: #A80036; stroke-width: 1.5;" x1="38.5" x2="401.5" y1="419.4141" y2="419.4141"/><ellipse cx="48.5" cy="430.4141" fill="#84BE84" rx="3" ry="3" style="stroke: #038048; stroke-width: 1.0;"/><text fill="#000000" font-family="sans-serif" font-size="11" lengthAdjust="spacingAndGlyphs" textLength="312" x="57.5" y="433.6245">GpsSystems(DisplayGpsInterface displayGpsInterface,</text><text fill="#000000" font-family="sans-serif" font-size="11" lengthAdjust="spacingAndGlyphs" textLength="135" x="89.5" y="446.4292">String[] satelliteNames)</text><ellipse cx="48.5" cy="456.0234" fill="#84BE84" rx="3" ry="3" style="stroke: #038048; stroke-width: 1.0;"/><text fill="#000000" font-family="sans-serif" font-size="11" lengthAdjust="spacingAndGlyphs" textLength="191" x="57.5" y="459.2339">void runUseCase1(Scanner input)</text><ellipse cx="48.5" cy="468.8281" fill="#84BE84" rx="3" ry="3" style="stroke: #038048; stroke-width: 1.0;"/><text fill="#000000" font-family="sans-serif" font-size="11" lengthAdjust="spacingAndGlyphs" textLength="191" x="57.5" y="472.0386">void runUseCase2(Scanner input)</text><rect fill="#F24D5C" height="6" style="stroke: #C82930; stroke-width: 1.0;" width="6" x="45.5" y="478.6328"/><text fill="#000000" font-family="sans-serif" font-size="11" lengthAdjust="spacingAndGlyphs" textLength="247" x="57.5" y="484.8433">void runUseCase2NoPrompt(Scanner input)</text><ellipse cx="48.5" cy="494.4375" fill="#84BE84" rx="3" ry="3" style="stroke: #038048; stroke-width: 1.0;"/><text fill="#000000" font-family="sans-serif" font-size="11" lengthAdjust="spacingAndGlyphs" textLength="268" x="57.5" y="497.6479">void configureSatellites(String[] satelliteNames</text><text fill="#000000" font-family="sans-serif" font-size="11" lengthAdjust="spacingAndGlyphs" textLength="307" x="89.5" y="510.4526">float incrementLatAmount, float incrementLngAmount,</text><text fill="#000000" font-family="sans-serif" font-size="11" lengthAdjust="spacingAndGlyphs" textLength="227" x="89.5" y="523.2573">LocationDataPoint initLocationDataPoint)</text><rect fill="#F24D5C" height="6" style="stroke: #C82930; stroke-width: 1.0;" width="6" x="45.5" y="529.8516"/><text fill="#000000" font-family="sans-serif" font-size="11" lengthAdjust="spacingAndGlyphs" textLength="272" x="57.5" y="536.062">void configureSatellites(String[] satelliteNames)</text><rect fill="#F24D5C" height="6" style="stroke: #C82930; stroke-width: 1.0;" width="6" x="45.5" y="542.6563"/><text fill="#000000" font-family="sans-serif" font-size="11" lengthAdjust="spacingAndGlyphs" textLength="232" x="57.5" y="548.8667">boolean isEmptyStringInArray(String[] in)</text><!--MD5=[aaa328c6dd499efd34e9a6e207358862]
link Demo to User--><!--MD5=[b23464e9e5dae3eb9bc898500cff742e]
link Demo to GpsSystem--><!--MD5=[3025709cefa073f87df3fb8decd373b7]
@startuml AdminProductionPackage

package edu.oakland.production.admin {

}


package edu.oakland.production.admin {
    class Demo {
        .. Main Production Classes ..
        - DisplayGpsInterface displayGpsInterface
        - DisplayCommInterface displayCommInterface
        .. Use Case Runners ..
        - GpsSystem gpsSystem
        - User user
        - PersistentStorageManager persistentStorageManager
        __
        {static} + void main(Sting args[])
        + void initSecureLockTrackSystem(int systemRfid,
        \tString persistentStorageInputLocation,
        \tString persistentStorageOutputLocation)
        + void runUseCases(Scanner input)
    }
}


package edu.oakland.production.admin {
    class User {
        - DisplayCommInterface displayCommInterface
        + User(DisplayCommInterface displayCommInterface)
        + TrackData runUseCase1(Scanner input)
    }
}


package edu.oakland.production.admin {
    class GpsSystem {
        - DisplayGpsInterface displayGpsInterface
        - Satellite[] satellites
        - int satelliteInUse
        __
        + GpsSystems(DisplayGpsInterface displayGpsInterface,
        \tString[] satelliteNames)
        + void runUseCase1(Scanner input)
        + void runUseCase2(Scanner input)
        - void runUseCase2NoPrompt(Scanner input)
        + void configureSatellites(String[] satelliteNames
        \tfloat incrementLatAmount, float incrementLngAmount,
        \tLocationDataPoint initLocationDataPoint)
        - void configureSatellites(String[] satelliteNames)
        - boolean isEmptyStringInArray(String[] in)
    }
}


package edu.oakland.production.admin {
    class Demo {
        {static} + void main(String[] args)
    }
}


@enduml

PlantUML version 1.2020.02(Sun Mar 01 10:22:07 GMT 2020)
(GPL source distribution)
Java Runtime: OpenJDK Runtime Environment
JVM: OpenJDK 64-Bit Server VM
Java Version: 11.0.9+11-Ubuntu-0ubuntu1
Operating System: Linux
Default Encoding: ANSI_X3.4-1968
Language: en
Country: US
--></g></svg>