<?xml version="1.0" encoding="UTF-8" standalone="no"?><svg xmlns="http://www.w3.org/2000/svg" xmlns:xlink="http://www.w3.org/1999/xlink" contentScriptType="application/ecmascript" contentStyleType="text/css" height="387px" preserveAspectRatio="none" style="width:622px;height:387px;" version="1.1" viewBox="0 0 622 387" width="622px" zoomAndPan="magnify"><defs><filter height="300%" id="f1i5r97n41qjzq" width="300%" x="-1" y="-1"><feGaussianBlur result="blurOut" stdDeviation="2.0"/><feColorMatrix in="blurOut" result="blurOut2" type="matrix" values="0 0 0 0 0 0 0 0 0 0 0 0 0 0 0 0 0 0 .4 0"/><feOffset dx="4.0" dy="4.0" in="blurOut2" result="blurOut3"/><feBlend in="SourceGraphic" in2="blurOut3" mode="normal"/></filter></defs><g><!--MD5=[33504725b8a69ba2207f0a836957a91c]
cluster edu.oakland.production.middleware02--><polygon fill="#FFFFFF" filter="url(#f1i5r97n41qjzq)" points="22,24,332,24,339,46.2969,600,46.2969,600,375,22,375,22,24" style="stroke: #000000; stroke-width: 1.5;"/><line style="stroke: #000000; stroke-width: 1.5;" x1="22" x2="339" y1="46.2969" y2="46.2969"/><text fill="#000000" font-family="sans-serif" font-size="14" font-weight="bold" lengthAdjust="spacingAndGlyphs" textLength="304" x="26" y="38.9951">edu.oakland.production.middleware02</text><!--MD5=[0a03c366ade61429da89cc477d567a32]
class MiddlewareCommInterfaceImplementation--><rect fill="#FEFECE" filter="url(#f1i5r97n41qjzq)" height="132.8281" id="MiddlewareCommInterfaceImplementation" style="stroke: #A80036; stroke-width: 1.5;" width="546" x="38" y="226"/><ellipse cx="176.25" cy="242" fill="#ADD1B2" rx="11" ry="11" style="stroke: #A80036; stroke-width: 1.0;"/><path d="M179.2188,247.6406 Q178.6406,247.9375 178,248.0781 Q177.3594,248.2344 176.6563,248.2344 Q174.1563,248.2344 172.8281,246.5938 Q171.5156,244.9375 171.5156,241.8125 Q171.5156,238.6875 172.8281,237.0313 Q174.1563,235.375 176.6563,235.375 Q177.3594,235.375 178,235.5313 Q178.6563,235.6875 179.2188,235.9844 L179.2188,238.7031 Q178.5938,238.125 178,237.8594 Q177.4063,237.5781 176.7813,237.5781 Q175.4375,237.5781 174.75,238.6563 Q174.0625,239.7188 174.0625,241.8125 Q174.0625,243.9063 174.75,244.9844 Q175.4375,246.0469 176.7813,246.0469 Q177.4063,246.0469 178,245.7813 Q178.5938,245.5 179.2188,244.9219 L179.2188,247.6406 Z "/><text fill="#000000" font-family="sans-serif" font-size="12" lengthAdjust="spacingAndGlyphs" textLength="261" x="196.75" y="246.1543">MiddlewareCommInterfaceImplementation</text><line style="stroke: #A80036; stroke-width: 1.5;" x1="39" x2="583" y1="258" y2="258"/><rect fill="none" height="6" style="stroke: #C82930; stroke-width: 1.0;" width="6" x="46" y="266"/><text fill="#000000" font-family="sans-serif" font-size="11" lengthAdjust="spacingAndGlyphs" textLength="269" x="58" y="272.2104">MiddlewareCommManager middlewareManager</text><line style="stroke: #A80036; stroke-width: 1.5;" x1="39" x2="583" y1="278.8047" y2="278.8047"/><ellipse cx="49" cy="289.8047" fill="#84BE84" rx="3" ry="3" style="stroke: #038048; stroke-width: 1.0;"/><text fill="#000000" font-family="sans-serif" font-size="11" lengthAdjust="spacingAndGlyphs" textLength="520" x="58" y="293.0151">MiddlewareCommInterfaceImplementation (MiddlewareCommManager middlewareManager)</text><ellipse cx="49" cy="319.4141" fill="#84BE84" rx="3" ry="3" style="stroke: #038048; stroke-width: 1.0;"/><text fill="#000000" font-family="sans-serif" font-size="11" lengthAdjust="spacingAndGlyphs" textLength="171" x="58" y="322.6245">TrackData requestRfid(int rfid)</text><line style="stroke: #A80036; stroke-width: 1.0; stroke-dasharray: 1.0,2.0;" x1="39" x2="278" y1="306.0117" y2="306.0117"/><text fill="#000000" font-family="sans-serif" font-size="11" lengthAdjust="spacingAndGlyphs" textLength="66" x="278" y="309.3198">Use Case 1</text><line style="stroke: #A80036; stroke-width: 1.0; stroke-dasharray: 1.0,2.0;" x1="344" x2="583" y1="306.0117" y2="306.0117"/><text fill="#000000" font-family="sans-serif" font-size="11" lengthAdjust="spacingAndGlyphs" textLength="0" x="48" y="352.2339"/><line style="stroke: #A80036; stroke-width: 1.0; stroke-dasharray: 1.0,2.0;" x1="39" x2="278" y1="335.6211" y2="335.6211"/><text fill="#000000" font-family="sans-serif" font-size="11" lengthAdjust="spacingAndGlyphs" textLength="66" x="278" y="338.9292">Use Case 2</text><line style="stroke: #A80036; stroke-width: 1.0; stroke-dasharray: 1.0,2.0;" x1="344" x2="583" y1="335.6211" y2="335.6211"/><!--MD5=[d3cb230b9040bd9072bb1f490e167601]
class MiddlewareCommInterface--><rect fill="#FEFECE" filter="url(#f1i5r97n41qjzq)" height="107.2188" id="MiddlewareCommInterface" style="stroke: #A80036; stroke-width: 1.5;" width="198" x="212" y="59"/><ellipse cx="227" cy="75" fill="#B4A7E5" rx="11" ry="11" style="stroke: #A80036; stroke-width: 1.0;"/><path d="M222.9219,70.7656 L222.9219,68.6094 L230.3125,68.6094 L230.3125,70.7656 L227.8438,70.7656 L227.8438,78.8438 L230.3125,78.8438 L230.3125,81 L222.9219,81 L222.9219,78.8438 L225.3906,78.8438 L225.3906,70.7656 L222.9219,70.7656 Z "/><text fill="#000000" font-family="sans-serif" font-size="12" font-style="italic" lengthAdjust="spacingAndGlyphs" textLength="166" x="241" y="79.1543">MiddlewareCommInterface</text><line style="stroke: #A80036; stroke-width: 1.5;" x1="213" x2="409" y1="91" y2="91"/><line style="stroke: #A80036; stroke-width: 1.5;" x1="213" x2="409" y1="99" y2="99"/><ellipse cx="223" cy="126.8047" fill="#84BE84" rx="3" ry="3" style="stroke: #038048; stroke-width: 1.0;"/><text fill="#000000" font-family="sans-serif" font-size="11" font-style="italic" lengthAdjust="spacingAndGlyphs" textLength="171" x="232" y="130.0151">TrackData requestRfid(int rfid)</text><line style="stroke: #A80036; stroke-width: 1.0; stroke-dasharray: 1.0,2.0;" x1="213" x2="278" y1="113.4023" y2="113.4023"/><text fill="#000000" font-family="sans-serif" font-size="11" lengthAdjust="spacingAndGlyphs" textLength="66" x="278" y="116.7104">Use Case 1</text><line style="stroke: #A80036; stroke-width: 1.0; stroke-dasharray: 1.0,2.0;" x1="344" x2="409" y1="113.4023" y2="113.4023"/><text fill="#000000" font-family="sans-serif" font-size="11" lengthAdjust="spacingAndGlyphs" textLength="0" x="222" y="159.6245"/><line style="stroke: #A80036; stroke-width: 1.0; stroke-dasharray: 1.0,2.0;" x1="213" x2="278" y1="143.0117" y2="143.0117"/><text fill="#000000" font-family="sans-serif" font-size="11" lengthAdjust="spacingAndGlyphs" textLength="66" x="278" y="146.3198">Use Case 2</text><line style="stroke: #A80036; stroke-width: 1.0; stroke-dasharray: 1.0,2.0;" x1="344" x2="409" y1="143.0117" y2="143.0117"/><!--MD5=[a6f6d6498f8ad0fd1149c5a16bc55d36]
reverse link MiddlewareCommInterface to MiddlewareCommInterfaceImplementation--><path d="M311,186.86 C311,199.78 311,213.15 311,225.85 " fill="none" id="MiddlewareCommInterface&lt;-MiddlewareCommInterfaceImplementation" style="stroke: #A80036; stroke-width: 1.0; stroke-dasharray: 7.0,7.0;"/><polygon fill="none" points="304,186.42,311,166.42,318,186.42,304,186.42" style="stroke: #A80036; stroke-width: 1.0;"/><!--MD5=[c0443e5943fafce1ddafafbb7202c7e5]
@startuml MiddlewareCommInterfaceImplementation_DirectDependencies


package edu.oakland.production.middleware02 {
    class MiddlewareCommInterfaceImplementation {
        - MiddlewareCommManager middlewareManager
        __
        + MiddlewareCommInterfaceImplementation (MiddlewareCommManager middlewareManager)
        .. Use Case 1 ..
        + TrackData requestRfid(int rfid)
        .. Use Case 2 ..

    }
}



package edu.oakland.production.middleware02 {
    interface MiddlewareCommInterface {
        __
        .. Use Case 1 ..
        {abstract} + TrackData requestRfid(int rfid)
        .. Use Case 2 ..

    }
}

MiddlewareCommInterfaceImplementation .up.|> MiddlewareCommInterface





@enduml

PlantUML version 1.2020.02(Sun Mar 01 10:22:07 GMT 2020)
(GPL source distribution)
Java Runtime: OpenJDK Runtime Environment
JVM: OpenJDK 64-Bit Server VM
Java Version: 11.0.9+11-Ubuntu-0ubuntu1
Operating System: Linux
Default Encoding: ANSI_X3.4-1968
Language: en
Country: US
--></g></svg>