<?xml version="1.0" encoding="UTF-8" standalone="no"?><svg xmlns="http://www.w3.org/2000/svg" xmlns:xlink="http://www.w3.org/1999/xlink" contentScriptType="application/ecmascript" contentStyleType="text/css" height="994px" preserveAspectRatio="none" style="width:2243px;height:994px;" version="1.1" viewBox="0 0 2243 994" width="2243px" zoomAndPan="magnify"><defs><filter height="300%" id="fh4p5oatqwgjs" width="300%" x="-1" y="-1"><feGaussianBlur result="blurOut" stdDeviation="2.0"/><feColorMatrix in="blurOut" result="blurOut2" type="matrix" values="0 0 0 0 0 0 0 0 0 0 0 0 0 0 0 0 0 0 .4 0"/><feOffset dx="4.0" dy="4.0" in="blurOut2" result="blurOut3"/><feBlend in="SourceGraphic" in2="blurOut3" mode="normal"/></filter></defs><g><!--MD5=[c2e276049abfe145c9906edb061abd32]
cluster edu.oakland.production.database--><polygon fill="#FFFFFF" filter="url(#fh4p5oatqwgjs)" points="22,24,292,24,299,46.2969,1690,46.2969,1690,982,22,982,22,24" style="stroke: #000000; stroke-width: 1.5;"/><line style="stroke: #000000; stroke-width: 1.5;" x1="22" x2="299" y1="46.2969" y2="46.2969"/><text fill="#000000" font-family="sans-serif" font-size="14" font-weight="bold" lengthAdjust="spacingAndGlyphs" textLength="264" x="26" y="38.9951">edu.oakland.production.database</text><!--MD5=[6d34700a22f737f940b471daa4ac1202]
class DatabaseCommInterface--><rect fill="#FEFECE" filter="url(#fh4p5oatqwgjs)" height="240.0703" id="DatabaseCommInterface" style="stroke: #A80036; stroke-width: 1.5;" width="398" x="38" y="59"/><ellipse cx="155.25" cy="75" fill="#B4A7E5" rx="11" ry="11" style="stroke: #A80036; stroke-width: 1.0;"/><path d="M151.1719,70.7656 L151.1719,68.6094 L158.5625,68.6094 L158.5625,70.7656 L156.0938,70.7656 L156.0938,78.8438 L158.5625,78.8438 L158.5625,81 L151.1719,81 L151.1719,78.8438 L153.6406,78.8438 L153.6406,70.7656 L151.1719,70.7656 Z "/><text fill="#000000" font-family="sans-serif" font-size="12" font-style="italic" lengthAdjust="spacingAndGlyphs" textLength="155" x="175.75" y="79.1543">DatabaseCommInterface</text><line style="stroke: #A80036; stroke-width: 1.5;" x1="39" x2="435" y1="91" y2="91"/><rect fill="none" height="6" style="stroke: #C82930; stroke-width: 1.0;" width="6" x="46" y="99"/><text fill="#000000" font-family="sans-serif" font-size="11" lengthAdjust="spacingAndGlyphs" textLength="283" x="58" y="105.2104">DatabaseCommManager databaseCommManager</text><rect fill="none" height="6" style="stroke: #C82930; stroke-width: 1.0;" width="6" x="46" y="111.8047"/><text fill="#000000" font-family="sans-serif" font-size="11" lengthAdjust="spacingAndGlyphs" textLength="63" x="58" y="118.0151">int rfidData</text><rect fill="none" height="6" style="stroke: #C82930; stroke-width: 1.0;" width="6" x="46" y="124.6094"/><text fill="#000000" font-family="sans-serif" font-size="11" lengthAdjust="spacingAndGlyphs" textLength="175" x="58" y="130.8198">LocationDataPoint locDataPoint</text><rect fill="none" height="6" style="stroke: #C82930; stroke-width: 1.0;" width="6" x="46" y="137.4141"/><text fill="#000000" font-family="sans-serif" font-size="11" lengthAdjust="spacingAndGlyphs" textLength="115" x="58" y="143.6245">TrackData trackData</text><rect fill="none" height="6" style="stroke: #C82930; stroke-width: 1.0;" width="6" x="46" y="150.2188"/><text fill="#000000" font-family="sans-serif" font-size="11" lengthAdjust="spacingAndGlyphs" textLength="70" x="58" y="156.4292">String mode</text><text fill="#000000" font-family="sans-serif" font-size="11" lengthAdjust="spacingAndGlyphs" textLength="12" x="58" y="169.2339">__</text><text fill="#000000" font-family="sans-serif" font-size="11" lengthAdjust="spacingAndGlyphs" textLength="179" x="90" y="182.0386">LocationDataPoint locDataPoint,</text><line style="stroke: #A80036; stroke-width: 1.0; stroke-dasharray: 1.0,2.0;" x1="58" x2="58" y1="191.0352" y2="191.0352"/><text fill="#000000" font-family="sans-serif" font-size="11" lengthAdjust="spacingAndGlyphs" textLength="66" x="62" y="194.3433">Use Case 1</text><line style="stroke: #A80036; stroke-width: 1.0; stroke-dasharray: 1.0,2.0;" x1="132" x2="132" y1="191.0352" y2="191.0352"/><line style="stroke: #A80036; stroke-width: 1.5;" x1="39" x2="435" y1="201.4375" y2="201.4375"/><text fill="#000000" font-family="sans-serif" font-size="11" lengthAdjust="spacingAndGlyphs" textLength="212" x="58" y="215.6479">DatabaseCommInterface(int rfidData,</text><text fill="#000000" font-family="sans-serif" font-size="11" lengthAdjust="spacingAndGlyphs" textLength="119" x="90" y="228.4526">TrackData trackData)</text><ellipse cx="49" cy="238.0469" fill="#84BE84" rx="3" ry="3" style="stroke: #038048; stroke-width: 1.0;"/><text fill="#000000" font-family="sans-serif" font-size="11" lengthAdjust="spacingAndGlyphs" textLength="154" x="58" y="241.2573">int receiveGetRfidRequest()</text><ellipse cx="49" cy="250.8516" fill="#84BE84" rx="3" ry="3" style="stroke: #038048; stroke-width: 1.0;"/><text fill="#000000" font-family="sans-serif" font-size="11" lengthAdjust="spacingAndGlyphs" textLength="372" x="58" y="254.062">LocationDataPoint receiveGetLocationDataPointRequest(int offset)</text><ellipse cx="49" cy="263.6563" fill="#84BE84" rx="3" ry="3" style="stroke: #038048; stroke-width: 1.0;"/><text fill="#000000" font-family="sans-serif" font-size="11" lengthAdjust="spacingAndGlyphs" textLength="284" x="58" y="266.8667">TrackData receiveGetTrackDataRequest(int offset)</text><ellipse cx="49" cy="276.4609" fill="#84BE84" rx="3" ry="3" style="stroke: #038048; stroke-width: 1.0;"/><text fill="#000000" font-family="sans-serif" font-size="11" lengthAdjust="spacingAndGlyphs" textLength="283" x="58" y="279.6714">void storeTrackDataRequest(TrackData trackData)</text><ellipse cx="49" cy="289.2656" fill="#84BE84" rx="3" ry="3" style="stroke: #038048; stroke-width: 1.0;"/><text fill="#000000" font-family="sans-serif" font-size="11" lengthAdjust="spacingAndGlyphs" textLength="183" x="58" y="292.4761">String receiveGetModeRequest()</text><!--MD5=[3cbc5f43b2184d452c2937ae0a744eb6]
class DatabaseCommManager--><rect fill="#FEFECE" filter="url(#fh4p5oatqwgjs)" height="128.8281" id="DatabaseCommManager" style="stroke: #A80036; stroke-width: 1.5;" width="382" x="471" y="114.5"/><ellipse cx="581.25" cy="130.5" fill="#B4A7E5" rx="11" ry="11" style="stroke: #A80036; stroke-width: 1.0;"/><path d="M577.1719,126.2656 L577.1719,124.1094 L584.5625,124.1094 L584.5625,126.2656 L582.0938,126.2656 L582.0938,134.3438 L584.5625,134.3438 L584.5625,136.5 L577.1719,136.5 L577.1719,134.3438 L579.6406,134.3438 L579.6406,126.2656 L577.1719,126.2656 Z "/><text fill="#000000" font-family="sans-serif" font-size="12" font-style="italic" lengthAdjust="spacingAndGlyphs" textLength="153" x="601.75" y="134.6543">DatabaseCommManager</text><line style="stroke: #A80036; stroke-width: 1.5;" x1="472" x2="852" y1="146.5" y2="146.5"/><line style="stroke: #A80036; stroke-width: 1.5;" x1="472" x2="852" y1="154.5" y2="154.5"/><ellipse cx="482" cy="182.3047" fill="#84BE84" rx="3" ry="3" style="stroke: #038048; stroke-width: 1.0;"/><text fill="#000000" font-family="sans-serif" font-size="11" font-style="italic" lengthAdjust="spacingAndGlyphs" textLength="140" x="491" y="185.5151">int passGetRfidRequest()</text><ellipse cx="482" cy="195.1094" fill="#84BE84" rx="3" ry="3" style="stroke: #038048; stroke-width: 1.0;"/><text fill="#000000" font-family="sans-serif" font-size="11" font-style="italic" lengthAdjust="spacingAndGlyphs" textLength="356" x="491" y="198.3198">LocationDataPoint passGetLocationDataPointRequest(int offset)</text><ellipse cx="482" cy="207.9141" fill="#84BE84" rx="3" ry="3" style="stroke: #038048; stroke-width: 1.0;"/><text fill="#000000" font-family="sans-serif" font-size="11" font-style="italic" lengthAdjust="spacingAndGlyphs" textLength="268" x="491" y="211.1245">TrackData passGetTrackDataRequest(int offset)</text><ellipse cx="482" cy="220.7188" fill="#84BE84" rx="3" ry="3" style="stroke: #038048; stroke-width: 1.0;"/><text fill="#000000" font-family="sans-serif" font-size="11" font-style="italic" lengthAdjust="spacingAndGlyphs" textLength="310" x="491" y="223.9292">void passStoreTrackDataRequest(TrackData trackData)</text><ellipse cx="482" cy="233.5234" fill="#84BE84" rx="3" ry="3" style="stroke: #038048; stroke-width: 1.0;"/><text fill="#000000" font-family="sans-serif" font-size="11" font-style="italic" lengthAdjust="spacingAndGlyphs" textLength="167" x="491" y="236.7339">String passGetModeRequest()</text><line style="stroke: #A80036; stroke-width: 1.0; stroke-dasharray: 1.0,2.0;" x1="472" x2="629" y1="168.9023" y2="168.9023"/><text fill="#000000" font-family="sans-serif" font-size="11" lengthAdjust="spacingAndGlyphs" textLength="66" x="629" y="172.2104">Use Case 1</text><line style="stroke: #A80036; stroke-width: 1.0; stroke-dasharray: 1.0,2.0;" x1="695" x2="852" y1="168.9023" y2="168.9023"/><!--MD5=[3bff7e01a405ec7c4802abd699e27172]
class DatabaseGisInterface--><rect fill="#FEFECE" filter="url(#fh4p5oatqwgjs)" height="120.0234" id="DatabaseGisInterface" style="stroke: #A80036; stroke-width: 1.5;" width="383" x="888.5" y="119"/><ellipse cx="1008.25" cy="135" fill="#B4A7E5" rx="11" ry="11" style="stroke: #A80036; stroke-width: 1.0;"/><path d="M1004.1719,130.7656 L1004.1719,128.6094 L1011.5625,128.6094 L1011.5625,130.7656 L1009.0938,130.7656 L1009.0938,138.8438 L1011.5625,138.8438 L1011.5625,141 L1004.1719,141 L1004.1719,138.8438 L1006.6406,138.8438 L1006.6406,130.7656 L1004.1719,130.7656 Z "/><text fill="#000000" font-family="sans-serif" font-size="12" font-style="italic" lengthAdjust="spacingAndGlyphs" textLength="135" x="1028.75" y="139.1543">DatabaseGisInterface</text><line style="stroke: #A80036; stroke-width: 1.5;" x1="889.5" x2="1270.5" y1="151" y2="151"/><line style="stroke: #A80036; stroke-width: 1.5;" x1="889.5" x2="1270.5" y1="159" y2="159"/><ellipse cx="899.5" cy="186.8047" fill="#84BE84" rx="3" ry="3" style="stroke: #038048; stroke-width: 1.0;"/><text fill="#000000" font-family="sans-serif" font-size="11" font-style="italic" lengthAdjust="spacingAndGlyphs" textLength="357" x="908.5" y="190.0151">void recieveStoreRequest(LocationDataPoint locationDataPoint)</text><line style="stroke: #A80036; stroke-width: 1.0; stroke-dasharray: 1.0,2.0;" x1="889.5" x2="1047" y1="173.4023" y2="173.4023"/><text fill="#000000" font-family="sans-serif" font-size="11" lengthAdjust="spacingAndGlyphs" textLength="66" x="1047" y="176.7104">Use Case 1</text><line style="stroke: #A80036; stroke-width: 1.0; stroke-dasharray: 1.0,2.0;" x1="1113" x2="1270.5" y1="173.4023" y2="173.4023"/><ellipse cx="899.5" cy="216.4141" fill="#84BE84" rx="3" ry="3" style="stroke: #038048; stroke-width: 1.0;"/><text fill="#000000" font-family="sans-serif" font-size="11" font-style="italic" lengthAdjust="spacingAndGlyphs" textLength="232" x="908.5" y="219.6245">String recieveModeRequest(String mode)</text><ellipse cx="899.5" cy="229.2188" fill="#84BE84" rx="3" ry="3" style="stroke: #038048; stroke-width: 1.0;"/><text fill="#000000" font-family="sans-serif" font-size="11" font-style="italic" lengthAdjust="spacingAndGlyphs" textLength="273" x="908.5" y="232.4292">String recieveNextSatRequest(String currentSat)</text><line style="stroke: #A80036; stroke-width: 1.0; stroke-dasharray: 1.0,2.0;" x1="889.5" x2="1047" y1="203.0117" y2="203.0117"/><text fill="#000000" font-family="sans-serif" font-size="11" lengthAdjust="spacingAndGlyphs" textLength="66" x="1047" y="206.3198">Use Case 2</text><line style="stroke: #A80036; stroke-width: 1.0; stroke-dasharray: 1.0,2.0;" x1="1113" x2="1270.5" y1="203.0117" y2="203.0117"/><!--MD5=[a9fcaa89db220a1b0201406d1ae34ee7]
class DatabaseGisManager--><rect fill="#FEFECE" filter="url(#fh4p5oatqwgjs)" height="120.0234" id="DatabaseGisManager" style="stroke: #A80036; stroke-width: 1.5;" width="367" x="1306.5" y="119"/><ellipse cx="1419.25" cy="135" fill="#B4A7E5" rx="11" ry="11" style="stroke: #A80036; stroke-width: 1.0;"/><path d="M1415.1719,130.7656 L1415.1719,128.6094 L1422.5625,128.6094 L1422.5625,130.7656 L1420.0938,130.7656 L1420.0938,138.8438 L1422.5625,138.8438 L1422.5625,141 L1415.1719,141 L1415.1719,138.8438 L1417.6406,138.8438 L1417.6406,130.7656 L1415.1719,130.7656 Z "/><text fill="#000000" font-family="sans-serif" font-size="12" font-style="italic" lengthAdjust="spacingAndGlyphs" textLength="133" x="1439.75" y="139.1543">DatabaseGisManager</text><line style="stroke: #A80036; stroke-width: 1.5;" x1="1307.5" x2="1672.5" y1="151" y2="151"/><line style="stroke: #A80036; stroke-width: 1.5;" x1="1307.5" x2="1672.5" y1="159" y2="159"/><ellipse cx="1317.5" cy="186.8047" fill="#84BE84" rx="3" ry="3" style="stroke: #038048; stroke-width: 1.0;"/><text fill="#000000" font-family="sans-serif" font-size="11" font-style="italic" lengthAdjust="spacingAndGlyphs" textLength="341" x="1326.5" y="190.0151">void passStoreRequest(LocationDataPoint locationDataPoint)</text><line style="stroke: #A80036; stroke-width: 1.0; stroke-dasharray: 1.0,2.0;" x1="1307.5" x2="1457" y1="173.4023" y2="173.4023"/><text fill="#000000" font-family="sans-serif" font-size="11" lengthAdjust="spacingAndGlyphs" textLength="66" x="1457" y="176.7104">Use Case 1</text><line style="stroke: #A80036; stroke-width: 1.0; stroke-dasharray: 1.0,2.0;" x1="1523" x2="1672.5" y1="173.4023" y2="173.4023"/><ellipse cx="1317.5" cy="216.4141" fill="#84BE84" rx="3" ry="3" style="stroke: #038048; stroke-width: 1.0;"/><text fill="#000000" font-family="sans-serif" font-size="11" font-style="italic" lengthAdjust="spacingAndGlyphs" textLength="207" x="1326.5" y="219.6245">void passModeRequest(String mode)</text><ellipse cx="1317.5" cy="229.2188" fill="#84BE84" rx="3" ry="3" style="stroke: #038048; stroke-width: 1.0;"/><text fill="#000000" font-family="sans-serif" font-size="11" font-style="italic" lengthAdjust="spacingAndGlyphs" textLength="257" x="1326.5" y="232.4292">String passNextSatRequest(String currentSat)</text><line style="stroke: #A80036; stroke-width: 1.0; stroke-dasharray: 1.0,2.0;" x1="1307.5" x2="1457" y1="203.0117" y2="203.0117"/><text fill="#000000" font-family="sans-serif" font-size="11" lengthAdjust="spacingAndGlyphs" textLength="66" x="1457" y="206.3198">Use Case 2</text><line style="stroke: #A80036; stroke-width: 1.0; stroke-dasharray: 1.0,2.0;" x1="1523" x2="1672.5" y1="203.0117" y2="203.0117"/><!--MD5=[d8df6b105e82f698e3603261466f245f]
class DatabasePersistentStorage--><rect fill="#FEFECE" filter="url(#fh4p5oatqwgjs)" height="184.0469" id="DatabasePersistentStorage" style="stroke: #A80036; stroke-width: 1.5;" width="395" x="39.5" y="391"/><ellipse cx="147.25" cy="407" fill="#B4A7E5" rx="11" ry="11" style="stroke: #A80036; stroke-width: 1.0;"/><path d="M143.1719,402.7656 L143.1719,400.6094 L150.5625,400.6094 L150.5625,402.7656 L148.0938,402.7656 L148.0938,410.8438 L150.5625,410.8438 L150.5625,413 L143.1719,413 L143.1719,410.8438 L145.6406,410.8438 L145.6406,402.7656 L143.1719,402.7656 Z "/><text fill="#000000" font-family="sans-serif" font-size="12" font-style="italic" lengthAdjust="spacingAndGlyphs" textLength="171" x="167.75" y="411.1543">DatabasePersistentStorage</text><line style="stroke: #A80036; stroke-width: 1.5;" x1="40.5" x2="433.5" y1="423" y2="423"/><line style="stroke: #A80036; stroke-width: 1.5;" x1="40.5" x2="433.5" y1="431" y2="431"/><ellipse cx="50.5" cy="458.8047" fill="#84BE84" rx="3" ry="3" style="stroke: #038048; stroke-width: 1.0;"/><text fill="#000000" font-family="sans-serif" font-size="11" font-style="italic" lengthAdjust="spacingAndGlyphs" textLength="108" x="59.5" y="462.0151">int locateRfidData()</text><ellipse cx="50.5" cy="471.6094" fill="#84BE84" rx="3" ry="3" style="stroke: #038048; stroke-width: 1.0;"/><text fill="#000000" font-family="sans-serif" font-size="11" font-style="italic" lengthAdjust="spacingAndGlyphs" textLength="282" x="59.5" y="474.8198">LocationDataPoint getLocationDataPoint(int offset)</text><ellipse cx="50.5" cy="484.4141" fill="#84BE84" rx="3" ry="3" style="stroke: #038048; stroke-width: 1.0;"/><text fill="#000000" font-family="sans-serif" font-size="11" font-style="italic" lengthAdjust="spacingAndGlyphs" textLength="369" x="59.5" y="487.6245">void storeLocationDataPoint(LocationDataPoint locationDataPoint)</text><ellipse cx="50.5" cy="497.2188" fill="#84BE84" rx="3" ry="3" style="stroke: #038048; stroke-width: 1.0;"/><text fill="#000000" font-family="sans-serif" font-size="11" font-style="italic" lengthAdjust="spacingAndGlyphs" textLength="194" x="59.5" y="500.4292">TrackData getTrackData(int offset)</text><ellipse cx="50.5" cy="510.0234" fill="#84BE84" rx="3" ry="3" style="stroke: #038048; stroke-width: 1.0;"/><text fill="#000000" font-family="sans-serif" font-size="11" font-style="italic" lengthAdjust="spacingAndGlyphs" textLength="237" x="59.5" y="513.2339">void storeTrackData(TrackData trackData)</text><ellipse cx="50.5" cy="522.8281" fill="#84BE84" rx="3" ry="3" style="stroke: #038048; stroke-width: 1.0;"/><text fill="#000000" font-family="sans-serif" font-size="11" font-style="italic" lengthAdjust="spacingAndGlyphs" textLength="93" x="59.5" y="526.0386">String getMode()</text><line style="stroke: #A80036; stroke-width: 1.0; stroke-dasharray: 1.0,2.0;" x1="40.5" x2="204" y1="445.4023" y2="445.4023"/><text fill="#000000" font-family="sans-serif" font-size="11" lengthAdjust="spacingAndGlyphs" textLength="66" x="204" y="448.7104">Use Case 1</text><line style="stroke: #A80036; stroke-width: 1.0; stroke-dasharray: 1.0,2.0;" x1="270" x2="433.5" y1="445.4023" y2="445.4023"/><ellipse cx="50.5" cy="552.4375" fill="#84BE84" rx="3" ry="3" style="stroke: #038048; stroke-width: 1.0;"/><text fill="#000000" font-family="sans-serif" font-size="11" font-style="italic" lengthAdjust="spacingAndGlyphs" textLength="164" x="59.5" y="555.6479">void storeMode(String mode)</text><ellipse cx="50.5" cy="565.2422" fill="#84BE84" rx="3" ry="3" style="stroke: #038048; stroke-width: 1.0;"/><text fill="#000000" font-family="sans-serif" font-size="11" font-style="italic" lengthAdjust="spacingAndGlyphs" textLength="203" x="59.5" y="568.4526">String getNextSat(String currentSat)</text><line style="stroke: #A80036; stroke-width: 1.0; stroke-dasharray: 1.0,2.0;" x1="40.5" x2="204" y1="539.0352" y2="539.0352"/><text fill="#000000" font-family="sans-serif" font-size="11" lengthAdjust="spacingAndGlyphs" textLength="66" x="204" y="542.3433">Use Case 2</text><line style="stroke: #A80036; stroke-width: 1.0; stroke-dasharray: 1.0,2.0;" x1="270" x2="433.5" y1="539.0352" y2="539.0352"/><!--MD5=[9f85d6b15dbd6dc4f6cf7395c0833d14]
class DatabaseCommInterfaceImplementation--><rect fill="#FEFECE" filter="url(#fh4p5oatqwgjs)" height="107.2188" id="DatabaseCommInterfaceImplementation" style="stroke: #A80036; stroke-width: 1.5;" width="284" x="470" y="429.5"/><ellipse cx="485" cy="445.5" fill="#ADD1B2" rx="11" ry="11" style="stroke: #A80036; stroke-width: 1.0;"/><path d="M487.9688,451.1406 Q487.3906,451.4375 486.75,451.5781 Q486.1094,451.7344 485.4063,451.7344 Q482.9063,451.7344 481.5781,450.0938 Q480.2656,448.4375 480.2656,445.3125 Q480.2656,442.1875 481.5781,440.5313 Q482.9063,438.875 485.4063,438.875 Q486.1094,438.875 486.75,439.0313 Q487.4063,439.1875 487.9688,439.4844 L487.9688,442.2031 Q487.3438,441.625 486.75,441.3594 Q486.1563,441.0781 485.5313,441.0781 Q484.1875,441.0781 483.5,442.1563 Q482.8125,443.2188 482.8125,445.3125 Q482.8125,447.4063 483.5,448.4844 Q484.1875,449.5469 485.5313,449.5469 Q486.1563,449.5469 486.75,449.2813 Q487.3438,449 487.9688,448.4219 L487.9688,451.1406 Z "/><text fill="#000000" font-family="sans-serif" font-size="12" lengthAdjust="spacingAndGlyphs" textLength="252" x="499" y="449.6543">DatabaseCommInterfaceImplementation</text><line style="stroke: #A80036; stroke-width: 1.5;" x1="471" x2="753" y1="461.5" y2="461.5"/><line style="stroke: #A80036; stroke-width: 1.5;" x1="471" x2="753" y1="469.5" y2="469.5"/><text fill="#000000" font-family="sans-serif" font-size="11" lengthAdjust="spacingAndGlyphs" textLength="0" x="480" y="500.5151"/><line style="stroke: #A80036; stroke-width: 1.0; stroke-dasharray: 1.0,2.0;" x1="471" x2="579" y1="483.9023" y2="483.9023"/><text fill="#000000" font-family="sans-serif" font-size="11" lengthAdjust="spacingAndGlyphs" textLength="66" x="579" y="487.2104">Use Case 1</text><line style="stroke: #A80036; stroke-width: 1.0; stroke-dasharray: 1.0,2.0;" x1="645" x2="753" y1="483.9023" y2="483.9023"/><text fill="#000000" font-family="sans-serif" font-size="11" lengthAdjust="spacingAndGlyphs" textLength="0" x="480" y="530.1245"/><line style="stroke: #A80036; stroke-width: 1.0; stroke-dasharray: 1.0,2.0;" x1="471" x2="579" y1="513.5117" y2="513.5117"/><text fill="#000000" font-family="sans-serif" font-size="11" lengthAdjust="spacingAndGlyphs" textLength="66" x="579" y="516.8198">Use Case 2</text><line style="stroke: #A80036; stroke-width: 1.0; stroke-dasharray: 1.0,2.0;" x1="645" x2="753" y1="513.5117" y2="513.5117"/><!--MD5=[e62c039a107b929dc588966558a86fd5]
class DatabaseCommManagerImplementation--><rect fill="#FEFECE" filter="url(#fh4p5oatqwgjs)" height="248.0703" id="DatabaseCommManagerImplementation" style="stroke: #A80036; stroke-width: 1.5;" width="385" x="789.5" y="359"/><ellipse cx="852.25" cy="375" fill="#ADD1B2" rx="11" ry="11" style="stroke: #A80036; stroke-width: 1.0;"/><path d="M855.2188,380.6406 Q854.6406,380.9375 854,381.0781 Q853.3594,381.2344 852.6563,381.2344 Q850.1563,381.2344 848.8281,379.5938 Q847.5156,377.9375 847.5156,374.8125 Q847.5156,371.6875 848.8281,370.0313 Q850.1563,368.375 852.6563,368.375 Q853.3594,368.375 854,368.5313 Q854.6563,368.6875 855.2188,368.9844 L855.2188,371.7031 Q854.5938,371.125 854,370.8594 Q853.4063,370.5781 852.7813,370.5781 Q851.4375,370.5781 850.75,371.6563 Q850.0625,372.7188 850.0625,374.8125 Q850.0625,376.9063 850.75,377.9844 Q851.4375,379.0469 852.7813,379.0469 Q853.4063,379.0469 854,378.7813 Q854.5938,378.5 855.2188,377.9219 L855.2188,380.6406 Z "/><text fill="#000000" font-family="sans-serif" font-size="12" lengthAdjust="spacingAndGlyphs" textLength="251" x="872.75" y="379.1543">DatabaseCommManagerImplementation</text><line style="stroke: #A80036; stroke-width: 1.5;" x1="790.5" x2="1173.5" y1="391" y2="391"/><rect fill="none" height="6" style="stroke: #C82930; stroke-width: 1.0;" width="6" x="797.5" y="399"/><text fill="#000000" font-family="sans-serif" font-size="11" lengthAdjust="spacingAndGlyphs" textLength="317" x="809.5" y="405.2104">DatabasePersistentStorage databasePersistentStorage</text><rect fill="none" height="6" style="stroke: #C82930; stroke-width: 1.0;" width="6" x="797.5" y="411.8047"/><text fill="#000000" font-family="sans-serif" font-size="11" lengthAdjust="spacingAndGlyphs" textLength="63" x="809.5" y="418.0151">int rfidData</text><rect fill="none" height="6" style="stroke: #C82930; stroke-width: 1.0;" width="6" x="797.5" y="424.6094"/><text fill="#000000" font-family="sans-serif" font-size="11" lengthAdjust="spacingAndGlyphs" textLength="175" x="809.5" y="430.8198">LocationDataPoint locDataPoint</text><rect fill="none" height="6" style="stroke: #C82930; stroke-width: 1.0;" width="6" x="797.5" y="437.4141"/><text fill="#000000" font-family="sans-serif" font-size="11" lengthAdjust="spacingAndGlyphs" textLength="114" x="809.5" y="443.6245">Trackdata trackData</text><line style="stroke: #A80036; stroke-width: 1.5;" x1="790.5" x2="1173.5" y1="450.2188" y2="450.2188"/><text fill="#000000" font-family="sans-serif" font-size="11" lengthAdjust="spacingAndGlyphs" textLength="299" x="795.5" y="464.4292">DatabaseCommManagerImplementation(int rfidData,</text><text fill="#000000" font-family="sans-serif" font-size="11" lengthAdjust="spacingAndGlyphs" textLength="179" x="827.5" y="477.2339">LocationDataPoint locDataPoint,</text><text fill="#000000" font-family="sans-serif" font-size="11" lengthAdjust="spacingAndGlyphs" textLength="118" x="827.5" y="490.0386">Trackdata trackData)</text><ellipse cx="800.5" cy="516.4375" fill="#84BE84" rx="3" ry="3" style="stroke: #038048; stroke-width: 1.0;"/><text fill="#000000" font-family="sans-serif" font-size="11" lengthAdjust="spacingAndGlyphs" textLength="141" x="809.5" y="519.6479">int passGetRfidRequest()</text><ellipse cx="800.5" cy="529.2422" fill="#84BE84" rx="3" ry="3" style="stroke: #038048; stroke-width: 1.0;"/><text fill="#000000" font-family="sans-serif" font-size="11" lengthAdjust="spacingAndGlyphs" textLength="359" x="809.5" y="532.4526">LocationDataPoint passGetLocationDataPointRequest(int offset)</text><ellipse cx="800.5" cy="542.0469" fill="#84BE84" rx="3" ry="3" style="stroke: #038048; stroke-width: 1.0;"/><text fill="#000000" font-family="sans-serif" font-size="11" lengthAdjust="spacingAndGlyphs" textLength="271" x="809.5" y="545.2573">TrackData passGetTrackDataRequest(int offset)</text><ellipse cx="800.5" cy="554.8516" fill="#84BE84" rx="3" ry="3" style="stroke: #038048; stroke-width: 1.0;"/><text fill="#000000" font-family="sans-serif" font-size="11" lengthAdjust="spacingAndGlyphs" textLength="312" x="809.5" y="558.062">void passStoreTrackDataRequest(TrackData trackData)</text><text fill="#000000" font-family="sans-serif" font-size="11" lengthAdjust="spacingAndGlyphs" textLength="0" x="813.5" y="570.8667"/><line style="stroke: #A80036; stroke-width: 1.0; stroke-dasharray: 1.0,2.0;" x1="790.5" x2="949" y1="503.0352" y2="503.0352"/><text fill="#000000" font-family="sans-serif" font-size="11" lengthAdjust="spacingAndGlyphs" textLength="66" x="949" y="506.3433">Use Case 1</text><line style="stroke: #A80036; stroke-width: 1.0; stroke-dasharray: 1.0,2.0;" x1="1015" x2="1173.5" y1="503.0352" y2="503.0352"/><text fill="#000000" font-family="sans-serif" font-size="11" lengthAdjust="spacingAndGlyphs" textLength="0" x="799.5" y="600.4761"/><line style="stroke: #A80036; stroke-width: 1.0; stroke-dasharray: 1.0,2.0;" x1="790.5" x2="949" y1="583.8633" y2="583.8633"/><text fill="#000000" font-family="sans-serif" font-size="11" lengthAdjust="spacingAndGlyphs" textLength="66" x="949" y="587.1714">Use Case 2</text><line style="stroke: #A80036; stroke-width: 1.0; stroke-dasharray: 1.0,2.0;" x1="1015" x2="1173.5" y1="583.8633" y2="583.8633"/><!--MD5=[08068c224d75f5ca94e2833221bd6445]
class DatabaseGisInterfaceImplementation--><rect fill="#FEFECE" filter="url(#fh4p5oatqwgjs)" height="235.2656" id="DatabaseGisInterfaceImplementation" style="stroke: #A80036; stroke-width: 1.5;" width="382" x="1210" y="365.5"/><ellipse cx="1280.25" cy="381.5" fill="#ADD1B2" rx="11" ry="11" style="stroke: #A80036; stroke-width: 1.0;"/><path d="M1283.2188,387.1406 Q1282.6406,387.4375 1282,387.5781 Q1281.3594,387.7344 1280.6563,387.7344 Q1278.1563,387.7344 1276.8281,386.0938 Q1275.5156,384.4375 1275.5156,381.3125 Q1275.5156,378.1875 1276.8281,376.5313 Q1278.1563,374.875 1280.6563,374.875 Q1281.3594,374.875 1282,375.0313 Q1282.6563,375.1875 1283.2188,375.4844 L1283.2188,378.2031 Q1282.5938,377.625 1282,377.3594 Q1281.4063,377.0781 1280.7813,377.0781 Q1279.4375,377.0781 1278.75,378.1563 Q1278.0625,379.2188 1278.0625,381.3125 Q1278.0625,383.4063 1278.75,384.4844 Q1279.4375,385.5469 1280.7813,385.5469 Q1281.4063,385.5469 1282,385.2813 Q1282.5938,385 1283.2188,384.4219 L1283.2188,387.1406 Z "/><text fill="#000000" font-family="sans-serif" font-size="12" lengthAdjust="spacingAndGlyphs" textLength="233" x="1300.75" y="385.6543">DatabaseGisInterfaceImplementation</text><line style="stroke: #A80036; stroke-width: 1.5;" x1="1211" x2="1591" y1="397.5" y2="397.5"/><rect fill="none" height="6" style="stroke: #C82930; stroke-width: 1.0;" width="6" x="1218" y="405.5"/><text fill="#000000" font-family="sans-serif" font-size="11" lengthAdjust="spacingAndGlyphs" textLength="177" x="1230" y="411.7104">DatabaseGisManager manager</text><rect fill="none" height="6" style="stroke: #C82930; stroke-width: 1.0;" width="6" x="1218" y="418.3047"/><text fill="#000000" font-family="sans-serif" font-size="11" lengthAdjust="spacingAndGlyphs" textLength="175" x="1230" y="424.5151">LocationDataPoint locDataPoint</text><rect fill="none" height="6" style="stroke: #C82930; stroke-width: 1.0;" width="6" x="1218" y="431.1094"/><text fill="#000000" font-family="sans-serif" font-size="11" lengthAdjust="spacingAndGlyphs" textLength="125" x="1230" y="437.3198">String currentSatellite</text><rect fill="none" height="6" style="stroke: #C82930; stroke-width: 1.0;" width="6" x="1218" y="443.9141"/><text fill="#000000" font-family="sans-serif" font-size="11" lengthAdjust="spacingAndGlyphs" textLength="70" x="1230" y="450.1245">String mode</text><line style="stroke: #A80036; stroke-width: 1.5;" x1="1211" x2="1591" y1="456.7188" y2="456.7188"/><ellipse cx="1221" cy="467.7188" fill="#84BE84" rx="3" ry="3" style="stroke: #038048; stroke-width: 1.0;"/><text fill="#000000" font-family="sans-serif" font-size="11" lengthAdjust="spacingAndGlyphs" textLength="127" x="1230" y="470.9292">DatabaseGisInterface(</text><text fill="#000000" font-family="sans-serif" font-size="11" lengthAdjust="spacingAndGlyphs" textLength="179" x="1262" y="483.7339">LocationDataPoint locDataPoint,</text><text fill="#000000" font-family="sans-serif" font-size="11" lengthAdjust="spacingAndGlyphs" textLength="129" x="1262" y="496.5386">String currentSatellite,</text><text fill="#000000" font-family="sans-serif" font-size="11" lengthAdjust="spacingAndGlyphs" textLength="70" x="1262" y="509.3433">String mode</text><text fill="#000000" font-family="sans-serif" font-size="11" lengthAdjust="spacingAndGlyphs" textLength="4" x="1230" y="522.1479">)</text><ellipse cx="1221" cy="548.5469" fill="#84BE84" rx="3" ry="3" style="stroke: #038048; stroke-width: 1.0;"/><text fill="#000000" font-family="sans-serif" font-size="11" lengthAdjust="spacingAndGlyphs" textLength="356" x="1230" y="551.7573">void recieveStoreRequest(LocationDataPoint locationDataPoint)</text><line style="stroke: #A80036; stroke-width: 1.0; stroke-dasharray: 1.0,2.0;" x1="1211" x2="1368" y1="535.1445" y2="535.1445"/><text fill="#000000" font-family="sans-serif" font-size="11" lengthAdjust="spacingAndGlyphs" textLength="66" x="1368" y="538.4526">Use Case 1</text><line style="stroke: #A80036; stroke-width: 1.0; stroke-dasharray: 1.0,2.0;" x1="1434" x2="1591" y1="535.1445" y2="535.1445"/><ellipse cx="1221" cy="578.1563" fill="#84BE84" rx="3" ry="3" style="stroke: #038048; stroke-width: 1.0;"/><text fill="#000000" font-family="sans-serif" font-size="11" lengthAdjust="spacingAndGlyphs" textLength="222" x="1230" y="581.3667">void recieveModeRequest(String mode)</text><ellipse cx="1221" cy="590.9609" fill="#84BE84" rx="3" ry="3" style="stroke: #038048; stroke-width: 1.0;"/><text fill="#000000" font-family="sans-serif" font-size="11" lengthAdjust="spacingAndGlyphs" textLength="275" x="1230" y="594.1714">String recieveNextSatRequest(String currentSat)</text><line style="stroke: #A80036; stroke-width: 1.0; stroke-dasharray: 1.0,2.0;" x1="1211" x2="1368" y1="564.7539" y2="564.7539"/><text fill="#000000" font-family="sans-serif" font-size="11" lengthAdjust="spacingAndGlyphs" textLength="66" x="1368" y="568.062">Use Case 2</text><line style="stroke: #A80036; stroke-width: 1.0; stroke-dasharray: 1.0,2.0;" x1="1434" x2="1591" y1="564.7539" y2="564.7539"/><!--MD5=[cb27e8f56b23a96be3f83add8518c141]
class DatabaseGisManagerImplementation--><rect fill="#FEFECE" filter="url(#fh4p5oatqwgjs)" height="120.0234" id="DatabaseGisManagerImplementation" style="stroke: #A80036; stroke-width: 1.5;" width="369" x="52.5" y="756.5"/><ellipse cx="116.75" cy="772.5" fill="#ADD1B2" rx="11" ry="11" style="stroke: #A80036; stroke-width: 1.0;"/><path d="M119.7188,778.1406 Q119.1406,778.4375 118.5,778.5781 Q117.8594,778.7344 117.1563,778.7344 Q114.6563,778.7344 113.3281,777.0938 Q112.0156,775.4375 112.0156,772.3125 Q112.0156,769.1875 113.3281,767.5313 Q114.6563,765.875 117.1563,765.875 Q117.8594,765.875 118.5,766.0313 Q119.1563,766.1875 119.7188,766.4844 L119.7188,769.2031 Q119.0938,768.625 118.5,768.3594 Q117.9063,768.0781 117.2813,768.0781 Q115.9375,768.0781 115.25,769.1563 Q114.5625,770.2188 114.5625,772.3125 Q114.5625,774.4063 115.25,775.4844 Q115.9375,776.5469 117.2813,776.5469 Q117.9063,776.5469 118.5,776.2813 Q119.0938,776 119.7188,775.4219 L119.7188,778.1406 Z "/><text fill="#000000" font-family="sans-serif" font-size="12" lengthAdjust="spacingAndGlyphs" textLength="232" x="137.25" y="776.6543">DatabaseGisManagerImplementation</text><line style="stroke: #A80036; stroke-width: 1.5;" x1="53.5" x2="420.5" y1="788.5" y2="788.5"/><line style="stroke: #A80036; stroke-width: 1.5;" x1="53.5" x2="420.5" y1="796.5" y2="796.5"/><ellipse cx="63.5" cy="824.3047" fill="#84BE84" rx="3" ry="3" style="stroke: #038048; stroke-width: 1.0;"/><text fill="#000000" font-family="sans-serif" font-size="11" lengthAdjust="spacingAndGlyphs" textLength="343" x="72.5" y="827.5151">void passStoreRequest(LocationDataPoint locationDataPoint)</text><line style="stroke: #A80036; stroke-width: 1.0; stroke-dasharray: 1.0,2.0;" x1="53.5" x2="204" y1="810.9023" y2="810.9023"/><text fill="#000000" font-family="sans-serif" font-size="11" lengthAdjust="spacingAndGlyphs" textLength="66" x="204" y="814.2104">Use Case 1</text><line style="stroke: #A80036; stroke-width: 1.0; stroke-dasharray: 1.0,2.0;" x1="270" x2="420.5" y1="810.9023" y2="810.9023"/><ellipse cx="63.5" cy="853.9141" fill="#84BE84" rx="3" ry="3" style="stroke: #038048; stroke-width: 1.0;"/><text fill="#000000" font-family="sans-serif" font-size="11" lengthAdjust="spacingAndGlyphs" textLength="209" x="72.5" y="857.1245">void passModeRequest(String mode)</text><ellipse cx="63.5" cy="866.7188" fill="#84BE84" rx="3" ry="3" style="stroke: #038048; stroke-width: 1.0;"/><text fill="#000000" font-family="sans-serif" font-size="11" lengthAdjust="spacingAndGlyphs" textLength="262" x="72.5" y="869.9292">String passNextSatRequest(String currentSat)</text><line style="stroke: #A80036; stroke-width: 1.0; stroke-dasharray: 1.0,2.0;" x1="53.5" x2="204" y1="840.5117" y2="840.5117"/><text fill="#000000" font-family="sans-serif" font-size="11" lengthAdjust="spacingAndGlyphs" textLength="66" x="204" y="843.8198">Use Case 2</text><line style="stroke: #A80036; stroke-width: 1.0; stroke-dasharray: 1.0,2.0;" x1="270" x2="420.5" y1="840.5117" y2="840.5117"/><!--MD5=[6c3ae89235db7efba3a5d8ea9fd47e2d]
class DatabasePersistentStorageImplementation--><rect fill="#FEFECE" filter="url(#fh4p5oatqwgjs)" height="299.2891" id="DatabasePersistentStorageImplementation" style="stroke: #A80036; stroke-width: 1.5;" width="395" x="456.5" y="667"/><ellipse cx="513.75" cy="683" fill="#ADD1B2" rx="11" ry="11" style="stroke: #A80036; stroke-width: 1.0;"/><path d="M516.7188,688.6406 Q516.1406,688.9375 515.5,689.0781 Q514.8594,689.2344 514.1563,689.2344 Q511.6563,689.2344 510.3281,687.5938 Q509.0156,685.9375 509.0156,682.8125 Q509.0156,679.6875 510.3281,678.0313 Q511.6563,676.375 514.1563,676.375 Q514.8594,676.375 515.5,676.5313 Q516.1563,676.6875 516.7188,676.9844 L516.7188,679.7031 Q516.0938,679.125 515.5,678.8594 Q514.9063,678.5781 514.2813,678.5781 Q512.9375,678.5781 512.25,679.6563 Q511.5625,680.7188 511.5625,682.8125 Q511.5625,684.9063 512.25,685.9844 Q512.9375,687.0469 514.2813,687.0469 Q514.9063,687.0469 515.5,686.7813 Q516.0938,686.5 516.7188,685.9219 L516.7188,688.6406 Z "/><text fill="#000000" font-family="sans-serif" font-size="12" lengthAdjust="spacingAndGlyphs" textLength="272" x="534.25" y="687.1543">DatabasePersistentStorageImplementation</text><line style="stroke: #A80036; stroke-width: 1.5;" x1="457.5" x2="850.5" y1="699" y2="699"/><rect fill="none" height="6" style="stroke: #C82930; stroke-width: 1.0;" width="6" x="464.5" y="707"/><text fill="#000000" font-family="sans-serif" font-size="11" lengthAdjust="spacingAndGlyphs" textLength="63" x="476.5" y="713.2104">int rfidData</text><rect fill="none" height="6" style="stroke: #C82930; stroke-width: 1.0;" width="6" x="464.5" y="719.8047"/><text fill="#000000" font-family="sans-serif" font-size="11" lengthAdjust="spacingAndGlyphs" textLength="243" x="476.5" y="726.0151">ArrayList&lt;LocationDataPoint&gt; locDataPoint</text><rect fill="none" height="6" style="stroke: #C82930; stroke-width: 1.0;" width="6" x="464.5" y="732.6094"/><text fill="#000000" font-family="sans-serif" font-size="11" lengthAdjust="spacingAndGlyphs" textLength="183" x="476.5" y="738.8198">ArrayList&lt;TrackData&gt; trackData</text><rect fill="none" height="6" style="stroke: #C82930; stroke-width: 1.0;" width="6" x="464.5" y="745.4141"/><text fill="#000000" font-family="sans-serif" font-size="11" lengthAdjust="spacingAndGlyphs" textLength="123" x="476.5" y="751.6245">String[] nextSatellites</text><rect fill="none" height="6" style="stroke: #C82930; stroke-width: 1.0;" width="6" x="464.5" y="758.2188"/><text fill="#000000" font-family="sans-serif" font-size="11" lengthAdjust="spacingAndGlyphs" textLength="70" x="476.5" y="764.4292">String mode</text><line style="stroke: #A80036; stroke-width: 1.5;" x1="457.5" x2="850.5" y1="771.0234" y2="771.0234"/><ellipse cx="467.5" cy="782.0234" fill="#84BE84" rx="3" ry="3" style="stroke: #038048; stroke-width: 1.0;"/><text fill="#000000" font-family="sans-serif" font-size="11" lengthAdjust="spacingAndGlyphs" textLength="228" x="476.5" y="785.2339">DatabasePersistentStorage(int rfidData,</text><text fill="#000000" font-family="sans-serif" font-size="11" lengthAdjust="spacingAndGlyphs" textLength="247" x="508.5" y="798.0386">ArrayList&lt;LocationDataPoint&gt; locDataPoint,</text><text fill="#000000" font-family="sans-serif" font-size="11" lengthAdjust="spacingAndGlyphs" textLength="187" x="508.5" y="810.8433">ArrayList&lt;TrackData&gt; trackData,</text><text fill="#000000" font-family="sans-serif" font-size="11" lengthAdjust="spacingAndGlyphs" textLength="127" x="508.5" y="823.6479">String[] nextSatellites)</text><ellipse cx="467.5" cy="850.0469" fill="#84BE84" rx="3" ry="3" style="stroke: #038048; stroke-width: 1.0;"/><text fill="#000000" font-family="sans-serif" font-size="11" lengthAdjust="spacingAndGlyphs" textLength="107" x="476.5" y="853.2573">int locateRfidData()</text><ellipse cx="467.5" cy="862.8516" fill="#84BE84" rx="3" ry="3" style="stroke: #038048; stroke-width: 1.0;"/><text fill="#000000" font-family="sans-serif" font-size="11" lengthAdjust="spacingAndGlyphs" textLength="283" x="476.5" y="866.062">LocationDataPoint getLocationDataPoint(int offset)</text><ellipse cx="467.5" cy="875.6563" fill="#84BE84" rx="3" ry="3" style="stroke: #038048; stroke-width: 1.0;"/><text fill="#000000" font-family="sans-serif" font-size="11" lengthAdjust="spacingAndGlyphs" textLength="369" x="476.5" y="878.8667">void storeLocationDataPoint(LocationDataPoint locationDataPoint)</text><ellipse cx="467.5" cy="888.4609" fill="#84BE84" rx="3" ry="3" style="stroke: #038048; stroke-width: 1.0;"/><text fill="#000000" font-family="sans-serif" font-size="11" lengthAdjust="spacingAndGlyphs" textLength="195" x="476.5" y="891.6714">TrackData getTrackData(int offset)</text><ellipse cx="467.5" cy="901.2656" fill="#84BE84" rx="3" ry="3" style="stroke: #038048; stroke-width: 1.0;"/><text fill="#000000" font-family="sans-serif" font-size="11" lengthAdjust="spacingAndGlyphs" textLength="237" x="476.5" y="904.4761">void storeTrackData(TrackData trackData)</text><ellipse cx="467.5" cy="914.0703" fill="#84BE84" rx="3" ry="3" style="stroke: #038048; stroke-width: 1.0;"/><text fill="#000000" font-family="sans-serif" font-size="11" lengthAdjust="spacingAndGlyphs" textLength="94" x="476.5" y="917.2808">String getMode()</text><line style="stroke: #A80036; stroke-width: 1.0; stroke-dasharray: 1.0,2.0;" x1="457.5" x2="621" y1="836.6445" y2="836.6445"/><text fill="#000000" font-family="sans-serif" font-size="11" lengthAdjust="spacingAndGlyphs" textLength="66" x="621" y="839.9526">Use Case 1</text><line style="stroke: #A80036; stroke-width: 1.0; stroke-dasharray: 1.0,2.0;" x1="687" x2="850.5" y1="836.6445" y2="836.6445"/><ellipse cx="467.5" cy="943.6797" fill="#84BE84" rx="3" ry="3" style="stroke: #038048; stroke-width: 1.0;"/><text fill="#000000" font-family="sans-serif" font-size="11" lengthAdjust="spacingAndGlyphs" textLength="165" x="476.5" y="946.8901">void storeMode(String mode)</text><ellipse cx="467.5" cy="956.4844" fill="#84BE84" rx="3" ry="3" style="stroke: #038048; stroke-width: 1.0;"/><text fill="#000000" font-family="sans-serif" font-size="11" lengthAdjust="spacingAndGlyphs" textLength="206" x="476.5" y="959.6948">String getNextSat(String currentSat)</text><line style="stroke: #A80036; stroke-width: 1.0; stroke-dasharray: 1.0,2.0;" x1="457.5" x2="621" y1="930.2773" y2="930.2773"/><text fill="#000000" font-family="sans-serif" font-size="11" lengthAdjust="spacingAndGlyphs" textLength="66" x="621" y="933.5854">Use Case 2</text><line style="stroke: #A80036; stroke-width: 1.0; stroke-dasharray: 1.0,2.0;" x1="687" x2="850.5" y1="930.2773" y2="930.2773"/><polygon fill="#FFFFFF" filter="url(#fh4p5oatqwgjs)" points="1708.5,152.5,1923.5,152.5,1930.5,174.7969,1937.5,174.7969,1937.5,205.0938,1708.5,205.0938,1708.5,152.5" style="stroke: #000000; stroke-width: 1.5;"/><line style="stroke: #000000; stroke-width: 1.5;" x1="1708.5" x2="1930.5" y1="174.7969" y2="174.7969"/><text fill="#000000" font-family="sans-serif" font-size="14" font-weight="bold" lengthAdjust="spacingAndGlyphs" textLength="209" x="1712.5" y="167.4951">edu.oakland.test.database</text><polygon fill="#FFFFFF" filter="url(#fh4p5oatqwgjs)" points="1972.5,152.5,2207.5,152.5,2214.5,174.7969,2221.5,174.7969,2221.5,205.0938,1972.5,205.0938,1972.5,152.5" style="stroke: #000000; stroke-width: 1.5;"/><line style="stroke: #000000; stroke-width: 1.5;" x1="1972.5" x2="2214.5" y1="174.7969" y2="174.7969"/><text fill="#000000" font-family="sans-serif" font-size="14" font-weight="bold" lengthAdjust="spacingAndGlyphs" textLength="229" x="1976.5" y="167.4951">edu.oakland.helper.database</text><!--MD5=[f1f42aa3e5ee92d91a95f483cb27fd1b]
link DatabaseCommInterface to DatabaseCommManager--><!--MD5=[2ab5f857a335fe71cca2f65391443969]
link DatabaseCommManager to DatabaseGisInterface--><!--MD5=[57d2095737951b693a3c5eb0c4dcc61f]
link DatabaseGisInterface to DatabaseGisManager--><!--MD5=[8a3ac12fc3568691a4d369b4583e3e8c]
link DatabaseCommInterface to DatabasePersistentStorage--><!--MD5=[f2b6f62c1ac53fc9c635ffbb0a59d528]
link DatabasePersistentStorage to DatabaseCommInterfaceImplementation--><!--MD5=[3760425120cae1e7aba6568029ff5c72]
link DatabaseCommInterfaceImplementation to DatabaseCommManagerImplementation--><!--MD5=[f3ea6f9257e20c64f5c945a18b1b07f5]
link DatabaseCommManagerImplementation to DatabaseGisInterfaceImplementation--><!--MD5=[3eb7051df619a832f92e7e374c3d68dc]
link DatabasePersistentStorage to DatabaseGisManagerImplementation--><!--MD5=[052d4f5c8e3e20f54aa5395be353d385]
link DatabaseGisManagerImplementation to DatabasePersistentStorageImplementation--><!--MD5=[1a1e4c7af650ac17406a12f5e9c3177c]
@startuml DatabasePackages


package edu.oakland.production.database {

}


package edu.oakland.production.database {
    interface DatabaseCommInterface {
    	- DatabaseCommManager databaseCommManager
    	- int rfidData
    	- LocationDataPoint locDataPoint
    	- TrackData trackData
    	- String mode
        __
        DatabaseCommInterface(int rfidData, 
        \tLocationDataPoint locDataPoint,
        \tTrackData trackData)
        .. Use Case 1 ..
        + int receiveGetRfidRequest()
        + LocationDataPoint receiveGetLocationDataPointRequest(int offset)
        + TrackData receiveGetTrackDataRequest(int offset)
        + void storeTrackDataRequest(TrackData trackData)
        + String receiveGetModeRequest()
        
    }
}


package edu.oakland.production.database {
    interface DatabaseCommManager {
        __
        .. Use Case 1 ..
        {abstract} + int passGetRfidRequest()
        {abstract} + LocationDataPoint passGetLocationDataPointRequest(int offset)
        {abstract} + TrackData passGetTrackDataRequest(int offset)
        {abstract} + void passStoreTrackDataRequest(TrackData trackData)
        {abstract} + String passGetModeRequest()
    }
}


package edu.oakland.production.database {
    interface DatabaseGisInterface {
        __
        .. Use Case 1 ..
        {abstract} + void recieveStoreRequest(LocationDataPoint locationDataPoint)
        .. Use Case 2 ..
        {abstract} + String recieveModeRequest(String mode)
        {abstract} + String recieveNextSatRequest(String currentSat)
    }
}


package edu.oakland.production.database {
    interface DatabaseGisManager {
        __
        .. Use Case 1 ..
        {abstract} + void passStoreRequest(LocationDataPoint locationDataPoint)
        .. Use Case 2 ..
        {abstract} + void passModeRequest(String mode)
        {abstract} + String passNextSatRequest(String currentSat)
    }
}


package edu.oakland.production.database {
    interface DatabasePersistentStorage {
        __
        .. Use Case 1 ..
        {abstract} + int locateRfidData()
        {abstract} + LocationDataPoint getLocationDataPoint(int offset)
        {abstract} + void storeLocationDataPoint(LocationDataPoint locationDataPoint)
        {abstract} + TrackData getTrackData(int offset)
        {abstract} + void storeTrackData(TrackData trackData)
        {abstract} + String getMode()
        .. Use Case 2 ..
        {abstract} + void storeMode(String mode)
        {abstract} + String getNextSat(String currentSat)
    }
}


package edu.oakland.production.database {
    class DatabaseCommInterfaceImplementation {
        __
        .. Use Case 1 ..

        .. Use Case 2 ..

    }
}


package edu.oakland.production.database {
    class DatabaseCommManagerImplementation {
        - DatabasePersistentStorage databasePersistentStorage
        - int rfidData
        - LocationDataPoint locDataPoint
        - Trackdata trackData
        __
        DatabaseCommManagerImplementation(int rfidData,
         \tLocationDataPoint locDataPoint,
         \tTrackdata trackData)
        .. Use Case 1 ..
        + int passGetRfidRequest()
        + LocationDataPoint passGetLocationDataPointRequest(int offset)
        + TrackData passGetTrackDataRequest(int offset)
        + void passStoreTrackDataRequest(TrackData trackData)

        .. Use Case 2 ..

    }
}


package edu.oakland.production.database {
    class DatabaseGisInterfaceImplementation {
        - DatabaseGisManager manager
        - LocationDataPoint locDataPoint
        - String currentSatellite
        - String mode
        __
        + DatabaseGisInterface( 
        \tLocationDataPoint locDataPoint,  
        \tString currentSatellite,
        \tString mode
        )
        .. Use Case 1 ..
        + void recieveStoreRequest(LocationDataPoint locationDataPoint)
        .. Use Case 2 ..
        + void recieveModeRequest(String mode)
        + String recieveNextSatRequest(String currentSat)
    }
}


package edu.oakland.production.database {
    class DatabaseGisManagerImplementation {
        __
        .. Use Case 1 ..
        + void passStoreRequest(LocationDataPoint locationDataPoint)
        .. Use Case 2 ..
        + void passModeRequest(String mode)
        + String passNextSatRequest(String currentSat)
    }
}


package edu.oakland.production.database {
    class DatabasePersistentStorageImplementation {
        - int rfidData
        - ArrayList<LocationDataPoint> locDataPoint
        - ArrayList<TrackData> trackData
        - String[] nextSatellites
        - String mode
        __
        + DatabasePersistentStorage(int rfidData, 
        \tArrayList<LocationDataPoint> locDataPoint, 
        \tArrayList<TrackData> trackData, 
        \tString[] nextSatellites)
        .. Use Case 1 ..
        + int locateRfidData()
        + LocationDataPoint getLocationDataPoint(int offset)
        + void storeLocationDataPoint(LocationDataPoint locationDataPoint)
        + TrackData getTrackData(int offset)
        + void storeTrackData(TrackData trackData)
        + String getMode()
        .. Use Case 2 ..
        + void storeMode(String mode)
        + String getNextSat(String currentSat)
    }
}



package edu.oakland.test.database {
    
}


package edu.oakland.helper.database {
    
}


@enduml

PlantUML version 1.2020.02(Sun Mar 01 10:22:07 GMT 2020)
(GPL source distribution)
Java Runtime: OpenJDK Runtime Environment
JVM: OpenJDK 64-Bit Server VM
Java Version: 11.0.9+11-Ubuntu-0ubuntu1
Operating System: Linux
Default Encoding: ANSI_X3.4-1968
Language: en
Country: US
--></g></svg>