<?xml version="1.0" encoding="UTF-8" standalone="no"?><svg xmlns="http://www.w3.org/2000/svg" xmlns:xlink="http://www.w3.org/1999/xlink" contentScriptType="application/ecmascript" contentStyleType="text/css" height="630px" preserveAspectRatio="none" style="width:2939px;height:630px;" version="1.1" viewBox="0 0 2939 630" width="2939px" zoomAndPan="magnify"><defs><filter height="300%" id="f1d1q0t7yfs0gj" width="300%" x="-1" y="-1"><feGaussianBlur result="blurOut" stdDeviation="2.0"/><feColorMatrix in="blurOut" result="blurOut2" type="matrix" values="0 0 0 0 0 0 0 0 0 0 0 0 0 0 0 0 0 0 .4 0"/><feOffset dx="4.0" dy="4.0" in="blurOut2" result="blurOut3"/><feBlend in="SourceGraphic" in2="blurOut3" mode="normal"/></filter></defs><g><!--MD5=[c2e276049abfe145c9906edb061abd32]
cluster edu.oakland.production.database--><polygon fill="#FFFFFF" filter="url(#f1d1q0t7yfs0gj)" points="538.5,24,808.5,24,815.5,46.2969,2917.5,46.2969,2917.5,618,538.5,618,538.5,24" style="stroke: #000000; stroke-width: 1.5;"/><line style="stroke: #000000; stroke-width: 1.5;" x1="538.5" x2="815.5" y1="46.2969" y2="46.2969"/><text fill="#000000" font-family="sans-serif" font-size="14" font-weight="bold" lengthAdjust="spacingAndGlyphs" textLength="264" x="542.5" y="38.9951">edu.oakland.production.database</text><!--MD5=[6d34700a22f737f940b471daa4ac1202]
class DatabaseCommInterface--><rect fill="#FEFECE" filter="url(#f1d1q0t7yfs0gj)" height="128.8281" id="DatabaseCommInterface" style="stroke: #A80036; stroke-width: 1.5;" width="398" x="554.5" y="86.5"/><ellipse cx="671.75" cy="102.5" fill="#B4A7E5" rx="11" ry="11" style="stroke: #A80036; stroke-width: 1.0;"/><path d="M667.6719,98.2656 L667.6719,96.1094 L675.0625,96.1094 L675.0625,98.2656 L672.5938,98.2656 L672.5938,106.3438 L675.0625,106.3438 L675.0625,108.5 L667.6719,108.5 L667.6719,106.3438 L670.1406,106.3438 L670.1406,98.2656 L667.6719,98.2656 Z "/><text fill="#000000" font-family="sans-serif" font-size="12" font-style="italic" lengthAdjust="spacingAndGlyphs" textLength="155" x="692.25" y="106.6543">DatabaseCommInterface</text><line style="stroke: #A80036; stroke-width: 1.5;" x1="555.5" x2="951.5" y1="118.5" y2="118.5"/><line style="stroke: #A80036; stroke-width: 1.5;" x1="555.5" x2="951.5" y1="126.5" y2="126.5"/><ellipse cx="565.5" cy="154.3047" fill="#84BE84" rx="3" ry="3" style="stroke: #038048; stroke-width: 1.0;"/><text fill="#000000" font-family="sans-serif" font-size="11" font-style="italic" lengthAdjust="spacingAndGlyphs" textLength="156" x="574.5" y="157.5151">int receiveGetRfidRequest()</text><ellipse cx="565.5" cy="167.1094" fill="#84BE84" rx="3" ry="3" style="stroke: #038048; stroke-width: 1.0;"/><text fill="#000000" font-family="sans-serif" font-size="11" font-style="italic" lengthAdjust="spacingAndGlyphs" textLength="372" x="574.5" y="170.3198">LocationDataPoint receiveGetLocationDataPointRequest(int offset)</text><ellipse cx="565.5" cy="179.9141" fill="#84BE84" rx="3" ry="3" style="stroke: #038048; stroke-width: 1.0;"/><text fill="#000000" font-family="sans-serif" font-size="11" font-style="italic" lengthAdjust="spacingAndGlyphs" textLength="284" x="574.5" y="183.1245">TrackData receiveGetTrackDataRequest(int offset)</text><ellipse cx="565.5" cy="192.7188" fill="#84BE84" rx="3" ry="3" style="stroke: #038048; stroke-width: 1.0;"/><text fill="#000000" font-family="sans-serif" font-size="11" font-style="italic" lengthAdjust="spacingAndGlyphs" textLength="283" x="574.5" y="195.9292">void storeTrackDataRequest(TrackData trackData)</text><ellipse cx="565.5" cy="205.5234" fill="#84BE84" rx="3" ry="3" style="stroke: #038048; stroke-width: 1.0;"/><text fill="#000000" font-family="sans-serif" font-size="11" font-style="italic" lengthAdjust="spacingAndGlyphs" textLength="183" x="574.5" y="208.7339">String receiveGetModeRequest()</text><line style="stroke: #A80036; stroke-width: 1.0; stroke-dasharray: 1.0,2.0;" x1="555.5" x2="720.5" y1="140.9023" y2="140.9023"/><text fill="#000000" font-family="sans-serif" font-size="11" lengthAdjust="spacingAndGlyphs" textLength="66" x="720.5" y="144.2104">Use Case 1</text><line style="stroke: #A80036; stroke-width: 1.0; stroke-dasharray: 1.0,2.0;" x1="786.5" x2="951.5" y1="140.9023" y2="140.9023"/><!--MD5=[3cbc5f43b2184d452c2937ae0a744eb6]
class DatabaseCommManager--><rect fill="#FEFECE" filter="url(#f1d1q0t7yfs0gj)" height="128.8281" id="DatabaseCommManager" style="stroke: #A80036; stroke-width: 1.5;" width="382" x="1086.5" y="86.5"/><ellipse cx="1196.75" cy="102.5" fill="#B4A7E5" rx="11" ry="11" style="stroke: #A80036; stroke-width: 1.0;"/><path d="M1192.6719,98.2656 L1192.6719,96.1094 L1200.0625,96.1094 L1200.0625,98.2656 L1197.5938,98.2656 L1197.5938,106.3438 L1200.0625,106.3438 L1200.0625,108.5 L1192.6719,108.5 L1192.6719,106.3438 L1195.1406,106.3438 L1195.1406,98.2656 L1192.6719,98.2656 Z "/><text fill="#000000" font-family="sans-serif" font-size="12" font-style="italic" lengthAdjust="spacingAndGlyphs" textLength="153" x="1217.25" y="106.6543">DatabaseCommManager</text><line style="stroke: #A80036; stroke-width: 1.5;" x1="1087.5" x2="1467.5" y1="118.5" y2="118.5"/><line style="stroke: #A80036; stroke-width: 1.5;" x1="1087.5" x2="1467.5" y1="126.5" y2="126.5"/><ellipse cx="1097.5" cy="154.3047" fill="#84BE84" rx="3" ry="3" style="stroke: #038048; stroke-width: 1.0;"/><text fill="#000000" font-family="sans-serif" font-size="11" font-style="italic" lengthAdjust="spacingAndGlyphs" textLength="140" x="1106.5" y="157.5151">int passGetRfidRequest()</text><ellipse cx="1097.5" cy="167.1094" fill="#84BE84" rx="3" ry="3" style="stroke: #038048; stroke-width: 1.0;"/><text fill="#000000" font-family="sans-serif" font-size="11" font-style="italic" lengthAdjust="spacingAndGlyphs" textLength="356" x="1106.5" y="170.3198">LocationDataPoint passGetLocationDataPointRequest(int offset)</text><ellipse cx="1097.5" cy="179.9141" fill="#84BE84" rx="3" ry="3" style="stroke: #038048; stroke-width: 1.0;"/><text fill="#000000" font-family="sans-serif" font-size="11" font-style="italic" lengthAdjust="spacingAndGlyphs" textLength="268" x="1106.5" y="183.1245">TrackData passGetTrackDataRequest(int offset)</text><ellipse cx="1097.5" cy="192.7188" fill="#84BE84" rx="3" ry="3" style="stroke: #038048; stroke-width: 1.0;"/><text fill="#000000" font-family="sans-serif" font-size="11" font-style="italic" lengthAdjust="spacingAndGlyphs" textLength="310" x="1106.5" y="195.9292">void passStoreTrackDataRequest(TrackData trackData)</text><ellipse cx="1097.5" cy="205.5234" fill="#84BE84" rx="3" ry="3" style="stroke: #038048; stroke-width: 1.0;"/><text fill="#000000" font-family="sans-serif" font-size="11" font-style="italic" lengthAdjust="spacingAndGlyphs" textLength="167" x="1106.5" y="208.7339">String passGetModeRequest()</text><line style="stroke: #A80036; stroke-width: 1.0; stroke-dasharray: 1.0,2.0;" x1="1087.5" x2="1244.5" y1="140.9023" y2="140.9023"/><text fill="#000000" font-family="sans-serif" font-size="11" lengthAdjust="spacingAndGlyphs" textLength="66" x="1244.5" y="144.2104">Use Case 1</text><line style="stroke: #A80036; stroke-width: 1.0; stroke-dasharray: 1.0,2.0;" x1="1310.5" x2="1467.5" y1="140.9023" y2="140.9023"/><!--MD5=[3bff7e01a405ec7c4802abd699e27172]
class DatabaseGisInterface--><rect fill="#FEFECE" filter="url(#f1d1q0t7yfs0gj)" height="120.0234" id="DatabaseGisInterface" style="stroke: #A80036; stroke-width: 1.5;" width="383" x="1602" y="91"/><ellipse cx="1721.75" cy="107" fill="#B4A7E5" rx="11" ry="11" style="stroke: #A80036; stroke-width: 1.0;"/><path d="M1717.6719,102.7656 L1717.6719,100.6094 L1725.0625,100.6094 L1725.0625,102.7656 L1722.5938,102.7656 L1722.5938,110.8438 L1725.0625,110.8438 L1725.0625,113 L1717.6719,113 L1717.6719,110.8438 L1720.1406,110.8438 L1720.1406,102.7656 L1717.6719,102.7656 Z "/><text fill="#000000" font-family="sans-serif" font-size="12" font-style="italic" lengthAdjust="spacingAndGlyphs" textLength="135" x="1742.25" y="111.1543">DatabaseGisInterface</text><line style="stroke: #A80036; stroke-width: 1.5;" x1="1603" x2="1984" y1="123" y2="123"/><line style="stroke: #A80036; stroke-width: 1.5;" x1="1603" x2="1984" y1="131" y2="131"/><ellipse cx="1613" cy="158.8047" fill="#84BE84" rx="3" ry="3" style="stroke: #038048; stroke-width: 1.0;"/><text fill="#000000" font-family="sans-serif" font-size="11" font-style="italic" lengthAdjust="spacingAndGlyphs" textLength="357" x="1622" y="162.0151">void recieveStoreRequest(LocationDataPoint locationDataPoint)</text><line style="stroke: #A80036; stroke-width: 1.0; stroke-dasharray: 1.0,2.0;" x1="1603" x2="1760.5" y1="145.4023" y2="145.4023"/><text fill="#000000" font-family="sans-serif" font-size="11" lengthAdjust="spacingAndGlyphs" textLength="66" x="1760.5" y="148.7104">Use Case 1</text><line style="stroke: #A80036; stroke-width: 1.0; stroke-dasharray: 1.0,2.0;" x1="1826.5" x2="1984" y1="145.4023" y2="145.4023"/><ellipse cx="1613" cy="188.4141" fill="#84BE84" rx="3" ry="3" style="stroke: #038048; stroke-width: 1.0;"/><text fill="#000000" font-family="sans-serif" font-size="11" font-style="italic" lengthAdjust="spacingAndGlyphs" textLength="232" x="1622" y="191.6245">String recieveModeRequest(String mode)</text><ellipse cx="1613" cy="201.2188" fill="#84BE84" rx="3" ry="3" style="stroke: #038048; stroke-width: 1.0;"/><text fill="#000000" font-family="sans-serif" font-size="11" font-style="italic" lengthAdjust="spacingAndGlyphs" textLength="273" x="1622" y="204.4292">String recieveNextSatRequest(String currentSat)</text><line style="stroke: #A80036; stroke-width: 1.0; stroke-dasharray: 1.0,2.0;" x1="1603" x2="1760.5" y1="175.0117" y2="175.0117"/><text fill="#000000" font-family="sans-serif" font-size="11" lengthAdjust="spacingAndGlyphs" textLength="66" x="1760.5" y="178.3198">Use Case 2</text><line style="stroke: #A80036; stroke-width: 1.0; stroke-dasharray: 1.0,2.0;" x1="1826.5" x2="1984" y1="175.0117" y2="175.0117"/><!--MD5=[a9fcaa89db220a1b0201406d1ae34ee7]
class DatabaseGisManager--><rect fill="#FEFECE" filter="url(#f1d1q0t7yfs0gj)" height="120.0234" id="DatabaseGisManager" style="stroke: #A80036; stroke-width: 1.5;" width="367" x="2062" y="91"/><ellipse cx="2174.75" cy="107" fill="#B4A7E5" rx="11" ry="11" style="stroke: #A80036; stroke-width: 1.0;"/><path d="M2170.6719,102.7656 L2170.6719,100.6094 L2178.0625,100.6094 L2178.0625,102.7656 L2175.5938,102.7656 L2175.5938,110.8438 L2178.0625,110.8438 L2178.0625,113 L2170.6719,113 L2170.6719,110.8438 L2173.1406,110.8438 L2173.1406,102.7656 L2170.6719,102.7656 Z "/><text fill="#000000" font-family="sans-serif" font-size="12" font-style="italic" lengthAdjust="spacingAndGlyphs" textLength="133" x="2195.25" y="111.1543">DatabaseGisManager</text><line style="stroke: #A80036; stroke-width: 1.5;" x1="2063" x2="2428" y1="123" y2="123"/><line style="stroke: #A80036; stroke-width: 1.5;" x1="2063" x2="2428" y1="131" y2="131"/><ellipse cx="2073" cy="158.8047" fill="#84BE84" rx="3" ry="3" style="stroke: #038048; stroke-width: 1.0;"/><text fill="#000000" font-family="sans-serif" font-size="11" font-style="italic" lengthAdjust="spacingAndGlyphs" textLength="341" x="2082" y="162.0151">void passStoreRequest(LocationDataPoint locationDataPoint)</text><line style="stroke: #A80036; stroke-width: 1.0; stroke-dasharray: 1.0,2.0;" x1="2063" x2="2212.5" y1="145.4023" y2="145.4023"/><text fill="#000000" font-family="sans-serif" font-size="11" lengthAdjust="spacingAndGlyphs" textLength="66" x="2212.5" y="148.7104">Use Case 1</text><line style="stroke: #A80036; stroke-width: 1.0; stroke-dasharray: 1.0,2.0;" x1="2278.5" x2="2428" y1="145.4023" y2="145.4023"/><ellipse cx="2073" cy="188.4141" fill="#84BE84" rx="3" ry="3" style="stroke: #038048; stroke-width: 1.0;"/><text fill="#000000" font-family="sans-serif" font-size="11" font-style="italic" lengthAdjust="spacingAndGlyphs" textLength="207" x="2082" y="191.6245">void passModeRequest(String mode)</text><ellipse cx="2073" cy="201.2188" fill="#84BE84" rx="3" ry="3" style="stroke: #038048; stroke-width: 1.0;"/><text fill="#000000" font-family="sans-serif" font-size="11" font-style="italic" lengthAdjust="spacingAndGlyphs" textLength="257" x="2082" y="204.4292">String passNextSatRequest(String currentSat)</text><line style="stroke: #A80036; stroke-width: 1.0; stroke-dasharray: 1.0,2.0;" x1="2063" x2="2212.5" y1="175.0117" y2="175.0117"/><text fill="#000000" font-family="sans-serif" font-size="11" lengthAdjust="spacingAndGlyphs" textLength="66" x="2212.5" y="178.3198">Use Case 2</text><line style="stroke: #A80036; stroke-width: 1.0; stroke-dasharray: 1.0,2.0;" x1="2278.5" x2="2428" y1="175.0117" y2="175.0117"/><!--MD5=[d8df6b105e82f698e3603261466f245f]
class DatabasePersistentStorage--><rect fill="#FEFECE" filter="url(#f1d1q0t7yfs0gj)" height="184.0469" id="DatabasePersistentStorage" style="stroke: #A80036; stroke-width: 1.5;" width="395" x="2506" y="59"/><ellipse cx="2613.75" cy="75" fill="#B4A7E5" rx="11" ry="11" style="stroke: #A80036; stroke-width: 1.0;"/><path d="M2609.6719,70.7656 L2609.6719,68.6094 L2617.0625,68.6094 L2617.0625,70.7656 L2614.5938,70.7656 L2614.5938,78.8438 L2617.0625,78.8438 L2617.0625,81 L2609.6719,81 L2609.6719,78.8438 L2612.1406,78.8438 L2612.1406,70.7656 L2609.6719,70.7656 Z "/><text fill="#000000" font-family="sans-serif" font-size="12" font-style="italic" lengthAdjust="spacingAndGlyphs" textLength="171" x="2634.25" y="79.1543">DatabasePersistentStorage</text><line style="stroke: #A80036; stroke-width: 1.5;" x1="2507" x2="2900" y1="91" y2="91"/><line style="stroke: #A80036; stroke-width: 1.5;" x1="2507" x2="2900" y1="99" y2="99"/><ellipse cx="2517" cy="126.8047" fill="#84BE84" rx="3" ry="3" style="stroke: #038048; stroke-width: 1.0;"/><text fill="#000000" font-family="sans-serif" font-size="11" font-style="italic" lengthAdjust="spacingAndGlyphs" textLength="108" x="2526" y="130.0151">int locateRfidData()</text><ellipse cx="2517" cy="139.6094" fill="#84BE84" rx="3" ry="3" style="stroke: #038048; stroke-width: 1.0;"/><text fill="#000000" font-family="sans-serif" font-size="11" font-style="italic" lengthAdjust="spacingAndGlyphs" textLength="282" x="2526" y="142.8198">LocationDataPoint getLocationDataPoint(int offset)</text><ellipse cx="2517" cy="152.4141" fill="#84BE84" rx="3" ry="3" style="stroke: #038048; stroke-width: 1.0;"/><text fill="#000000" font-family="sans-serif" font-size="11" font-style="italic" lengthAdjust="spacingAndGlyphs" textLength="369" x="2526" y="155.6245">void storeLocationDataPoint(LocationDataPoint locationDataPoint)</text><ellipse cx="2517" cy="165.2188" fill="#84BE84" rx="3" ry="3" style="stroke: #038048; stroke-width: 1.0;"/><text fill="#000000" font-family="sans-serif" font-size="11" font-style="italic" lengthAdjust="spacingAndGlyphs" textLength="194" x="2526" y="168.4292">TrackData getTrackData(int offset)</text><ellipse cx="2517" cy="178.0234" fill="#84BE84" rx="3" ry="3" style="stroke: #038048; stroke-width: 1.0;"/><text fill="#000000" font-family="sans-serif" font-size="11" font-style="italic" lengthAdjust="spacingAndGlyphs" textLength="237" x="2526" y="181.2339">void storeTrackData(TrackData trackData)</text><ellipse cx="2517" cy="190.8281" fill="#84BE84" rx="3" ry="3" style="stroke: #038048; stroke-width: 1.0;"/><text fill="#000000" font-family="sans-serif" font-size="11" font-style="italic" lengthAdjust="spacingAndGlyphs" textLength="93" x="2526" y="194.0386">String getMode()</text><line style="stroke: #A80036; stroke-width: 1.0; stroke-dasharray: 1.0,2.0;" x1="2507" x2="2670.5" y1="113.4023" y2="113.4023"/><text fill="#000000" font-family="sans-serif" font-size="11" lengthAdjust="spacingAndGlyphs" textLength="66" x="2670.5" y="116.7104">Use Case 1</text><line style="stroke: #A80036; stroke-width: 1.0; stroke-dasharray: 1.0,2.0;" x1="2736.5" x2="2900" y1="113.4023" y2="113.4023"/><ellipse cx="2517" cy="220.4375" fill="#84BE84" rx="3" ry="3" style="stroke: #038048; stroke-width: 1.0;"/><text fill="#000000" font-family="sans-serif" font-size="11" font-style="italic" lengthAdjust="spacingAndGlyphs" textLength="164" x="2526" y="223.6479">void storeMode(String mode)</text><ellipse cx="2517" cy="233.2422" fill="#84BE84" rx="3" ry="3" style="stroke: #038048; stroke-width: 1.0;"/><text fill="#000000" font-family="sans-serif" font-size="11" font-style="italic" lengthAdjust="spacingAndGlyphs" textLength="203" x="2526" y="236.4526">String getNextSat(String currentSat)</text><line style="stroke: #A80036; stroke-width: 1.0; stroke-dasharray: 1.0,2.0;" x1="2507" x2="2670.5" y1="207.0352" y2="207.0352"/><text fill="#000000" font-family="sans-serif" font-size="11" lengthAdjust="spacingAndGlyphs" textLength="66" x="2670.5" y="210.3433">Use Case 2</text><line style="stroke: #A80036; stroke-width: 1.0; stroke-dasharray: 1.0,2.0;" x1="2736.5" x2="2900" y1="207.0352" y2="207.0352"/><!--MD5=[9f85d6b15dbd6dc4f6cf7395c0833d14]
class DatabaseCommInterfaceImplementation--><rect fill="#FEFECE" filter="url(#f1d1q0t7yfs0gj)" height="180.0469" id="DatabaseCommInterfaceImplementation" style="stroke: #A80036; stroke-width: 1.5;" width="398" x="554.5" y="362.5"/><ellipse cx="623.25" cy="378.5" fill="#ADD1B2" rx="11" ry="11" style="stroke: #A80036; stroke-width: 1.0;"/><path d="M626.2188,384.1406 Q625.6406,384.4375 625,384.5781 Q624.3594,384.7344 623.6563,384.7344 Q621.1563,384.7344 619.8281,383.0938 Q618.5156,381.4375 618.5156,378.3125 Q618.5156,375.1875 619.8281,373.5313 Q621.1563,371.875 623.6563,371.875 Q624.3594,371.875 625,372.0313 Q625.6563,372.1875 626.2188,372.4844 L626.2188,375.2031 Q625.5938,374.625 625,374.3594 Q624.4063,374.0781 623.7813,374.0781 Q622.4375,374.0781 621.75,375.1563 Q621.0625,376.2188 621.0625,378.3125 Q621.0625,380.4063 621.75,381.4844 Q622.4375,382.5469 623.7813,382.5469 Q624.4063,382.5469 625,382.2813 Q625.5938,382 626.2188,381.4219 L626.2188,384.1406 Z "/><text fill="#000000" font-family="sans-serif" font-size="12" lengthAdjust="spacingAndGlyphs" textLength="252" x="643.75" y="382.6543">DatabaseCommInterfaceImplementation</text><line style="stroke: #A80036; stroke-width: 1.5;" x1="555.5" x2="951.5" y1="394.5" y2="394.5"/><rect fill="none" height="6" style="stroke: #C82930; stroke-width: 1.0;" width="6" x="562.5" y="402.5"/><text fill="#000000" font-family="sans-serif" font-size="11" lengthAdjust="spacingAndGlyphs" textLength="283" x="574.5" y="408.7104">DatabaseCommManager databaseCommManager</text><line style="stroke: #A80036; stroke-width: 1.5;" x1="555.5" x2="951.5" y1="415.3047" y2="415.3047"/><text fill="#000000" font-family="sans-serif" font-size="11" lengthAdjust="spacingAndGlyphs" textLength="212" x="560.5" y="429.5151">DatabaseCommInterface(int rfidData,</text><text fill="#000000" font-family="sans-serif" font-size="11" lengthAdjust="spacingAndGlyphs" textLength="179" x="592.5" y="442.3198">LocationDataPoint locDataPoint,</text><text fill="#000000" font-family="sans-serif" font-size="11" lengthAdjust="spacingAndGlyphs" textLength="119" x="592.5" y="455.1245">TrackData trackData)</text><ellipse cx="565.5" cy="481.5234" fill="#84BE84" rx="3" ry="3" style="stroke: #038048; stroke-width: 1.0;"/><text fill="#000000" font-family="sans-serif" font-size="11" lengthAdjust="spacingAndGlyphs" textLength="154" x="574.5" y="484.7339">int receiveGetRfidRequest()</text><ellipse cx="565.5" cy="494.3281" fill="#84BE84" rx="3" ry="3" style="stroke: #038048; stroke-width: 1.0;"/><text fill="#000000" font-family="sans-serif" font-size="11" lengthAdjust="spacingAndGlyphs" textLength="372" x="574.5" y="497.5386">LocationDataPoint receiveGetLocationDataPointRequest(int offset)</text><ellipse cx="565.5" cy="507.1328" fill="#84BE84" rx="3" ry="3" style="stroke: #038048; stroke-width: 1.0;"/><text fill="#000000" font-family="sans-serif" font-size="11" lengthAdjust="spacingAndGlyphs" textLength="284" x="574.5" y="510.3433">TrackData receiveGetTrackDataRequest(int offset)</text><ellipse cx="565.5" cy="519.9375" fill="#84BE84" rx="3" ry="3" style="stroke: #038048; stroke-width: 1.0;"/><text fill="#000000" font-family="sans-serif" font-size="11" lengthAdjust="spacingAndGlyphs" textLength="283" x="574.5" y="523.1479">void storeTrackDataRequest(TrackData trackData)</text><ellipse cx="565.5" cy="532.7422" fill="#84BE84" rx="3" ry="3" style="stroke: #038048; stroke-width: 1.0;"/><text fill="#000000" font-family="sans-serif" font-size="11" lengthAdjust="spacingAndGlyphs" textLength="183" x="574.5" y="535.9526">String receiveGetModeRequest()</text><line style="stroke: #A80036; stroke-width: 1.0; stroke-dasharray: 1.0,2.0;" x1="555.5" x2="720.5" y1="468.1211" y2="468.1211"/><text fill="#000000" font-family="sans-serif" font-size="11" lengthAdjust="spacingAndGlyphs" textLength="66" x="720.5" y="471.4292">Use Case 1</text><line style="stroke: #A80036; stroke-width: 1.0; stroke-dasharray: 1.0,2.0;" x1="786.5" x2="951.5" y1="468.1211" y2="468.1211"/><!--MD5=[e62c039a107b929dc588966558a86fd5]
class DatabaseCommManagerImplementation--><rect fill="#FEFECE" filter="url(#f1d1q0t7yfs0gj)" height="141.6328" id="DatabaseCommManagerImplementation" style="stroke: #A80036; stroke-width: 1.5;" width="579" x="988" y="381.5"/><ellipse cx="1147.75" cy="397.5" fill="#ADD1B2" rx="11" ry="11" style="stroke: #A80036; stroke-width: 1.0;"/><path d="M1150.7188,403.1406 Q1150.1406,403.4375 1149.5,403.5781 Q1148.8594,403.7344 1148.1563,403.7344 Q1145.6563,403.7344 1144.3281,402.0938 Q1143.0156,400.4375 1143.0156,397.3125 Q1143.0156,394.1875 1144.3281,392.5313 Q1145.6563,390.875 1148.1563,390.875 Q1148.8594,390.875 1149.5,391.0313 Q1150.1563,391.1875 1150.7188,391.4844 L1150.7188,394.2031 Q1150.0938,393.625 1149.5,393.3594 Q1148.9063,393.0781 1148.2813,393.0781 Q1146.9375,393.0781 1146.25,394.1563 Q1145.5625,395.2188 1145.5625,397.3125 Q1145.5625,399.4063 1146.25,400.4844 Q1146.9375,401.5469 1148.2813,401.5469 Q1148.9063,401.5469 1149.5,401.2813 Q1150.0938,401 1150.7188,400.4219 L1150.7188,403.1406 Z "/><text fill="#000000" font-family="sans-serif" font-size="12" lengthAdjust="spacingAndGlyphs" textLength="251" x="1168.25" y="401.6543">DatabaseCommManagerImplementation</text><line style="stroke: #A80036; stroke-width: 1.5;" x1="989" x2="1566" y1="413.5" y2="413.5"/><rect fill="none" height="6" style="stroke: #C82930; stroke-width: 1.0;" width="6" x="996" y="421.5"/><text fill="#000000" font-family="sans-serif" font-size="11" lengthAdjust="spacingAndGlyphs" textLength="317" x="1008" y="427.7104">DatabasePersistentStorage databasePersistentStorage</text><line style="stroke: #A80036; stroke-width: 1.5;" x1="989" x2="1566" y1="434.3047" y2="434.3047"/><ellipse cx="999" cy="445.3047" fill="#84BE84" rx="3" ry="3" style="stroke: #038048; stroke-width: 1.0;"/><text fill="#000000" font-family="sans-serif" font-size="11" lengthAdjust="spacingAndGlyphs" textLength="553" x="1008" y="448.5151">DatabaseCommManagerImplementation(DatabasePersistentStorage databasePersistentStorage)</text><ellipse cx="999" cy="474.9141" fill="#84BE84" rx="3" ry="3" style="stroke: #038048; stroke-width: 1.0;"/><text fill="#000000" font-family="sans-serif" font-size="11" lengthAdjust="spacingAndGlyphs" textLength="141" x="1008" y="478.1245">int passGetRfidRequest()</text><ellipse cx="999" cy="487.7188" fill="#84BE84" rx="3" ry="3" style="stroke: #038048; stroke-width: 1.0;"/><text fill="#000000" font-family="sans-serif" font-size="11" lengthAdjust="spacingAndGlyphs" textLength="359" x="1008" y="490.9292">LocationDataPoint passGetLocationDataPointRequest(int offset)</text><ellipse cx="999" cy="500.5234" fill="#84BE84" rx="3" ry="3" style="stroke: #038048; stroke-width: 1.0;"/><text fill="#000000" font-family="sans-serif" font-size="11" lengthAdjust="spacingAndGlyphs" textLength="271" x="1008" y="503.7339">TrackData passGetTrackDataRequest(int offset)</text><ellipse cx="999" cy="513.3281" fill="#84BE84" rx="3" ry="3" style="stroke: #038048; stroke-width: 1.0;"/><text fill="#000000" font-family="sans-serif" font-size="11" lengthAdjust="spacingAndGlyphs" textLength="312" x="1008" y="516.5386">void passStoreTrackDataRequest(TrackData trackData)</text><line style="stroke: #A80036; stroke-width: 1.0; stroke-dasharray: 1.0,2.0;" x1="989" x2="1244.5" y1="461.5117" y2="461.5117"/><text fill="#000000" font-family="sans-serif" font-size="11" lengthAdjust="spacingAndGlyphs" textLength="66" x="1244.5" y="464.8198">Use Case 1</text><line style="stroke: #A80036; stroke-width: 1.0; stroke-dasharray: 1.0,2.0;" x1="1310.5" x2="1566" y1="461.5117" y2="461.5117"/><!--MD5=[08068c224d75f5ca94e2833221bd6445]
class DatabaseGisInterfaceImplementation--><rect fill="#FEFECE" filter="url(#f1d1q0t7yfs0gj)" height="145.6328" id="DatabaseGisInterfaceImplementation" style="stroke: #A80036; stroke-width: 1.5;" width="382" x="1602.5" y="379.5"/><ellipse cx="1672.75" cy="395.5" fill="#ADD1B2" rx="11" ry="11" style="stroke: #A80036; stroke-width: 1.0;"/><path d="M1675.7188,401.1406 Q1675.1406,401.4375 1674.5,401.5781 Q1673.8594,401.7344 1673.1563,401.7344 Q1670.6563,401.7344 1669.3281,400.0938 Q1668.0156,398.4375 1668.0156,395.3125 Q1668.0156,392.1875 1669.3281,390.5313 Q1670.6563,388.875 1673.1563,388.875 Q1673.8594,388.875 1674.5,389.0313 Q1675.1563,389.1875 1675.7188,389.4844 L1675.7188,392.2031 Q1675.0938,391.625 1674.5,391.3594 Q1673.9063,391.0781 1673.2813,391.0781 Q1671.9375,391.0781 1671.25,392.1563 Q1670.5625,393.2188 1670.5625,395.3125 Q1670.5625,397.4063 1671.25,398.4844 Q1671.9375,399.5469 1673.2813,399.5469 Q1673.9063,399.5469 1674.5,399.2813 Q1675.0938,399 1675.7188,398.4219 L1675.7188,401.1406 Z "/><text fill="#000000" font-family="sans-serif" font-size="12" lengthAdjust="spacingAndGlyphs" textLength="233" x="1693.25" y="399.6543">DatabaseGisInterfaceImplementation</text><line style="stroke: #A80036; stroke-width: 1.5;" x1="1603.5" x2="1983.5" y1="411.5" y2="411.5"/><rect fill="none" height="6" style="stroke: #C82930; stroke-width: 1.0;" width="6" x="1610.5" y="419.5"/><text fill="#000000" font-family="sans-serif" font-size="11" lengthAdjust="spacingAndGlyphs" textLength="177" x="1622.5" y="425.7104">DatabaseGisManager manager</text><line style="stroke: #A80036; stroke-width: 1.5;" x1="1603.5" x2="1983.5" y1="432.3047" y2="432.3047"/><ellipse cx="1613.5" cy="443.3047" fill="#84BE84" rx="3" ry="3" style="stroke: #038048; stroke-width: 1.0;"/><text fill="#000000" font-family="sans-serif" font-size="11" lengthAdjust="spacingAndGlyphs" textLength="308" x="1622.5" y="446.5151">DatabaseGisInterface(DatabaseGisManager manager)</text><ellipse cx="1613.5" cy="472.9141" fill="#84BE84" rx="3" ry="3" style="stroke: #038048; stroke-width: 1.0;"/><text fill="#000000" font-family="sans-serif" font-size="11" lengthAdjust="spacingAndGlyphs" textLength="356" x="1622.5" y="476.1245">void recieveStoreRequest(LocationDataPoint locationDataPoint)</text><line style="stroke: #A80036; stroke-width: 1.0; stroke-dasharray: 1.0,2.0;" x1="1603.5" x2="1760.5" y1="459.5117" y2="459.5117"/><text fill="#000000" font-family="sans-serif" font-size="11" lengthAdjust="spacingAndGlyphs" textLength="66" x="1760.5" y="462.8198">Use Case 1</text><line style="stroke: #A80036; stroke-width: 1.0; stroke-dasharray: 1.0,2.0;" x1="1826.5" x2="1983.5" y1="459.5117" y2="459.5117"/><ellipse cx="1613.5" cy="502.5234" fill="#84BE84" rx="3" ry="3" style="stroke: #038048; stroke-width: 1.0;"/><text fill="#000000" font-family="sans-serif" font-size="11" lengthAdjust="spacingAndGlyphs" textLength="222" x="1622.5" y="505.7339">void recieveModeRequest(String mode)</text><ellipse cx="1613.5" cy="515.3281" fill="#84BE84" rx="3" ry="3" style="stroke: #038048; stroke-width: 1.0;"/><text fill="#000000" font-family="sans-serif" font-size="11" lengthAdjust="spacingAndGlyphs" textLength="275" x="1622.5" y="518.5386">String recieveNextSatRequest(String currentSat)</text><line style="stroke: #A80036; stroke-width: 1.0; stroke-dasharray: 1.0,2.0;" x1="1603.5" x2="1760.5" y1="489.1211" y2="489.1211"/><text fill="#000000" font-family="sans-serif" font-size="11" lengthAdjust="spacingAndGlyphs" textLength="66" x="1760.5" y="492.4292">Use Case 2</text><line style="stroke: #A80036; stroke-width: 1.0; stroke-dasharray: 1.0,2.0;" x1="1826.5" x2="1983.5" y1="489.1211" y2="489.1211"/><!--MD5=[cb27e8f56b23a96be3f83add8518c141]
class DatabaseGisManagerImplementation--><rect fill="#FEFECE" filter="url(#f1d1q0t7yfs0gj)" height="214.4609" id="DatabaseGisManagerImplementation" style="stroke: #A80036; stroke-width: 1.5;" width="451" x="2020" y="345.5"/><ellipse cx="2125.25" cy="361.5" fill="#ADD1B2" rx="11" ry="11" style="stroke: #A80036; stroke-width: 1.0;"/><path d="M2128.2188,367.1406 Q2127.6406,367.4375 2127,367.5781 Q2126.3594,367.7344 2125.6563,367.7344 Q2123.1563,367.7344 2121.8281,366.0938 Q2120.5156,364.4375 2120.5156,361.3125 Q2120.5156,358.1875 2121.8281,356.5313 Q2123.1563,354.875 2125.6563,354.875 Q2126.3594,354.875 2127,355.0313 Q2127.6563,355.1875 2128.2188,355.4844 L2128.2188,358.2031 Q2127.5938,357.625 2127,357.3594 Q2126.4063,357.0781 2125.7813,357.0781 Q2124.4375,357.0781 2123.75,358.1563 Q2123.0625,359.2188 2123.0625,361.3125 Q2123.0625,363.4063 2123.75,364.4844 Q2124.4375,365.5469 2125.7813,365.5469 Q2126.4063,365.5469 2127,365.2813 Q2127.5938,365 2128.2188,364.4219 L2128.2188,367.1406 Z "/><text fill="#000000" font-family="sans-serif" font-size="12" lengthAdjust="spacingAndGlyphs" textLength="232" x="2145.75" y="365.6543">DatabaseGisManagerImplementation</text><line style="stroke: #A80036; stroke-width: 1.5;" x1="2021" x2="2470" y1="377.5" y2="377.5"/><rect fill="none" height="6" style="stroke: #C82930; stroke-width: 1.0;" width="6" x="2028" y="385.5"/><text fill="#000000" font-family="sans-serif" font-size="11" lengthAdjust="spacingAndGlyphs" textLength="175" x="2040" y="391.7104">LocationDataPoint locDataPoint</text><rect fill="none" height="6" style="stroke: #C82930; stroke-width: 1.0;" width="6" x="2028" y="398.3047"/><text fill="#000000" font-family="sans-serif" font-size="11" lengthAdjust="spacingAndGlyphs" textLength="70" x="2040" y="404.5151">String mode</text><rect fill="none" height="6" style="stroke: #C82930; stroke-width: 1.0;" width="6" x="2028" y="411.1094"/><text fill="#000000" font-family="sans-serif" font-size="11" lengthAdjust="spacingAndGlyphs" textLength="98" x="2040" y="417.3198">String currentSat</text><text fill="#000000" font-family="sans-serif" font-size="11" lengthAdjust="spacingAndGlyphs" textLength="12" x="2040" y="430.1245">__</text><text fill="#000000" font-family="sans-serif" font-size="11" lengthAdjust="spacingAndGlyphs" textLength="74" x="2072" y="442.9292">String mode,</text><text fill="#000000" font-family="sans-serif" font-size="11" lengthAdjust="spacingAndGlyphs" textLength="0" x="2044" y="455.7339"/><line style="stroke: #A80036; stroke-width: 1.0; stroke-dasharray: 1.0,2.0;" x1="2040" x2="2040" y1="464.7305" y2="464.7305"/><text fill="#000000" font-family="sans-serif" font-size="11" lengthAdjust="spacingAndGlyphs" textLength="66" x="2044" y="468.0386">Use Case 1</text><line style="stroke: #A80036; stroke-width: 1.0; stroke-dasharray: 1.0,2.0;" x1="2114" x2="2114" y1="464.7305" y2="464.7305"/><line style="stroke: #A80036; stroke-width: 1.0; stroke-dasharray: 1.0,2.0;" x1="2040" x2="2040" y1="477.5352" y2="477.5352"/><text fill="#000000" font-family="sans-serif" font-size="11" lengthAdjust="spacingAndGlyphs" textLength="66" x="2044" y="480.8433">Use Case 2</text><line style="stroke: #A80036; stroke-width: 1.0; stroke-dasharray: 1.0,2.0;" x1="2114" x2="2114" y1="477.5352" y2="477.5352"/><line style="stroke: #A80036; stroke-width: 1.5;" x1="2021" x2="2470" y1="487.9375" y2="487.9375"/><ellipse cx="2031" cy="498.9375" fill="#84BE84" rx="3" ry="3" style="stroke: #038048; stroke-width: 1.0;"/><text fill="#000000" font-family="sans-serif" font-size="11" lengthAdjust="spacingAndGlyphs" textLength="425" x="2040" y="502.1479">DatabaseGisManagerImplementation (LocationDataPoint locationDataPoint,</text><text fill="#000000" font-family="sans-serif" font-size="11" lengthAdjust="spacingAndGlyphs" textLength="102" x="2072" y="514.9526">String currentSat)</text><ellipse cx="2031" cy="524.5469" fill="#84BE84" rx="3" ry="3" style="stroke: #038048; stroke-width: 1.0;"/><text fill="#000000" font-family="sans-serif" font-size="11" lengthAdjust="spacingAndGlyphs" textLength="343" x="2040" y="527.7573">void passStoreRequest(LocationDataPoint locationDataPoint)</text><ellipse cx="2031" cy="537.3516" fill="#84BE84" rx="3" ry="3" style="stroke: #038048; stroke-width: 1.0;"/><text fill="#000000" font-family="sans-serif" font-size="11" lengthAdjust="spacingAndGlyphs" textLength="209" x="2040" y="540.562">void passModeRequest(String mode)</text><ellipse cx="2031" cy="550.1563" fill="#84BE84" rx="3" ry="3" style="stroke: #038048; stroke-width: 1.0;"/><text fill="#000000" font-family="sans-serif" font-size="11" lengthAdjust="spacingAndGlyphs" textLength="262" x="2040" y="553.3667">String passNextSatRequest(String currentSat)</text><!--MD5=[6c3ae89235db7efba3a5d8ea9fd47e2d]
class DatabasePersistentStorageImplementation--><rect fill="#FEFECE" filter="url(#f1d1q0t7yfs0gj)" height="299.2891" id="DatabasePersistentStorageImplementation" style="stroke: #A80036; stroke-width: 1.5;" width="395" x="2506" y="303"/><ellipse cx="2563.25" cy="319" fill="#ADD1B2" rx="11" ry="11" style="stroke: #A80036; stroke-width: 1.0;"/><path d="M2566.2188,324.6406 Q2565.6406,324.9375 2565,325.0781 Q2564.3594,325.2344 2563.6563,325.2344 Q2561.1563,325.2344 2559.8281,323.5938 Q2558.5156,321.9375 2558.5156,318.8125 Q2558.5156,315.6875 2559.8281,314.0313 Q2561.1563,312.375 2563.6563,312.375 Q2564.3594,312.375 2565,312.5313 Q2565.6563,312.6875 2566.2188,312.9844 L2566.2188,315.7031 Q2565.5938,315.125 2565,314.8594 Q2564.4063,314.5781 2563.7813,314.5781 Q2562.4375,314.5781 2561.75,315.6563 Q2561.0625,316.7188 2561.0625,318.8125 Q2561.0625,320.9063 2561.75,321.9844 Q2562.4375,323.0469 2563.7813,323.0469 Q2564.4063,323.0469 2565,322.7813 Q2565.5938,322.5 2566.2188,321.9219 L2566.2188,324.6406 Z "/><text fill="#000000" font-family="sans-serif" font-size="12" lengthAdjust="spacingAndGlyphs" textLength="272" x="2583.75" y="323.1543">DatabasePersistentStorageImplementation</text><line style="stroke: #A80036; stroke-width: 1.5;" x1="2507" x2="2900" y1="335" y2="335"/><rect fill="none" height="6" style="stroke: #C82930; stroke-width: 1.0;" width="6" x="2514" y="343"/><text fill="#000000" font-family="sans-serif" font-size="11" lengthAdjust="spacingAndGlyphs" textLength="63" x="2526" y="349.2104">int rfidData</text><rect fill="none" height="6" style="stroke: #C82930; stroke-width: 1.0;" width="6" x="2514" y="355.8047"/><text fill="#000000" font-family="sans-serif" font-size="11" lengthAdjust="spacingAndGlyphs" textLength="243" x="2526" y="362.0151">ArrayList&lt;LocationDataPoint&gt; locDataPoint</text><rect fill="none" height="6" style="stroke: #C82930; stroke-width: 1.0;" width="6" x="2514" y="368.6094"/><text fill="#000000" font-family="sans-serif" font-size="11" lengthAdjust="spacingAndGlyphs" textLength="183" x="2526" y="374.8198">ArrayList&lt;TrackData&gt; trackData</text><rect fill="none" height="6" style="stroke: #C82930; stroke-width: 1.0;" width="6" x="2514" y="381.4141"/><text fill="#000000" font-family="sans-serif" font-size="11" lengthAdjust="spacingAndGlyphs" textLength="123" x="2526" y="387.6245">String[] nextSatellites</text><rect fill="none" height="6" style="stroke: #C82930; stroke-width: 1.0;" width="6" x="2514" y="394.2188"/><text fill="#000000" font-family="sans-serif" font-size="11" lengthAdjust="spacingAndGlyphs" textLength="70" x="2526" y="400.4292">String mode</text><line style="stroke: #A80036; stroke-width: 1.5;" x1="2507" x2="2900" y1="407.0234" y2="407.0234"/><ellipse cx="2517" cy="418.0234" fill="#84BE84" rx="3" ry="3" style="stroke: #038048; stroke-width: 1.0;"/><text fill="#000000" font-family="sans-serif" font-size="11" lengthAdjust="spacingAndGlyphs" textLength="228" x="2526" y="421.2339">DatabasePersistentStorage(int rfidData,</text><text fill="#000000" font-family="sans-serif" font-size="11" lengthAdjust="spacingAndGlyphs" textLength="247" x="2558" y="434.0386">ArrayList&lt;LocationDataPoint&gt; locDataPoint,</text><text fill="#000000" font-family="sans-serif" font-size="11" lengthAdjust="spacingAndGlyphs" textLength="187" x="2558" y="446.8433">ArrayList&lt;TrackData&gt; trackData,</text><text fill="#000000" font-family="sans-serif" font-size="11" lengthAdjust="spacingAndGlyphs" textLength="127" x="2558" y="459.6479">String[] nextSatellites)</text><ellipse cx="2517" cy="486.0469" fill="#84BE84" rx="3" ry="3" style="stroke: #038048; stroke-width: 1.0;"/><text fill="#000000" font-family="sans-serif" font-size="11" lengthAdjust="spacingAndGlyphs" textLength="107" x="2526" y="489.2573">int locateRfidData()</text><ellipse cx="2517" cy="498.8516" fill="#84BE84" rx="3" ry="3" style="stroke: #038048; stroke-width: 1.0;"/><text fill="#000000" font-family="sans-serif" font-size="11" lengthAdjust="spacingAndGlyphs" textLength="283" x="2526" y="502.062">LocationDataPoint getLocationDataPoint(int offset)</text><ellipse cx="2517" cy="511.6563" fill="#84BE84" rx="3" ry="3" style="stroke: #038048; stroke-width: 1.0;"/><text fill="#000000" font-family="sans-serif" font-size="11" lengthAdjust="spacingAndGlyphs" textLength="369" x="2526" y="514.8667">void storeLocationDataPoint(LocationDataPoint locationDataPoint)</text><ellipse cx="2517" cy="524.4609" fill="#84BE84" rx="3" ry="3" style="stroke: #038048; stroke-width: 1.0;"/><text fill="#000000" font-family="sans-serif" font-size="11" lengthAdjust="spacingAndGlyphs" textLength="195" x="2526" y="527.6714">TrackData getTrackData(int offset)</text><ellipse cx="2517" cy="537.2656" fill="#84BE84" rx="3" ry="3" style="stroke: #038048; stroke-width: 1.0;"/><text fill="#000000" font-family="sans-serif" font-size="11" lengthAdjust="spacingAndGlyphs" textLength="237" x="2526" y="540.4761">void storeTrackData(TrackData trackData)</text><ellipse cx="2517" cy="550.0703" fill="#84BE84" rx="3" ry="3" style="stroke: #038048; stroke-width: 1.0;"/><text fill="#000000" font-family="sans-serif" font-size="11" lengthAdjust="spacingAndGlyphs" textLength="94" x="2526" y="553.2808">String getMode()</text><line style="stroke: #A80036; stroke-width: 1.0; stroke-dasharray: 1.0,2.0;" x1="2507" x2="2670.5" y1="472.6445" y2="472.6445"/><text fill="#000000" font-family="sans-serif" font-size="11" lengthAdjust="spacingAndGlyphs" textLength="66" x="2670.5" y="475.9526">Use Case 1</text><line style="stroke: #A80036; stroke-width: 1.0; stroke-dasharray: 1.0,2.0;" x1="2736.5" x2="2900" y1="472.6445" y2="472.6445"/><ellipse cx="2517" cy="579.6797" fill="#84BE84" rx="3" ry="3" style="stroke: #038048; stroke-width: 1.0;"/><text fill="#000000" font-family="sans-serif" font-size="11" lengthAdjust="spacingAndGlyphs" textLength="165" x="2526" y="582.8901">void storeMode(String mode)</text><ellipse cx="2517" cy="592.4844" fill="#84BE84" rx="3" ry="3" style="stroke: #038048; stroke-width: 1.0;"/><text fill="#000000" font-family="sans-serif" font-size="11" lengthAdjust="spacingAndGlyphs" textLength="206" x="2526" y="595.6948">String getNextSat(String currentSat)</text><line style="stroke: #A80036; stroke-width: 1.0; stroke-dasharray: 1.0,2.0;" x1="2507" x2="2670.5" y1="566.2773" y2="566.2773"/><text fill="#000000" font-family="sans-serif" font-size="11" lengthAdjust="spacingAndGlyphs" textLength="66" x="2670.5" y="569.5854">Use Case 2</text><line style="stroke: #A80036; stroke-width: 1.0; stroke-dasharray: 1.0,2.0;" x1="2736.5" x2="2900" y1="566.2773" y2="566.2773"/><polygon fill="#FFFFFF" filter="url(#f1d1q0t7yfs0gj)" points="6,124.5,221,124.5,228,146.7969,235,146.7969,235,177.0938,6,177.0938,6,124.5" style="stroke: #000000; stroke-width: 1.5;"/><line style="stroke: #000000; stroke-width: 1.5;" x1="6" x2="228" y1="146.7969" y2="146.7969"/><text fill="#000000" font-family="sans-serif" font-size="14" font-weight="bold" lengthAdjust="spacingAndGlyphs" textLength="209" x="10" y="139.4951">edu.oakland.test.database</text><polygon fill="#FFFFFF" filter="url(#f1d1q0t7yfs0gj)" points="270,124.5,505,124.5,512,146.7969,519,146.7969,519,177.0938,270,177.0938,270,124.5" style="stroke: #000000; stroke-width: 1.5;"/><line style="stroke: #000000; stroke-width: 1.5;" x1="270" x2="512" y1="146.7969" y2="146.7969"/><text fill="#000000" font-family="sans-serif" font-size="14" font-weight="bold" lengthAdjust="spacingAndGlyphs" textLength="229" x="274" y="139.4951">edu.oakland.helper.database</text><!--MD5=[b29619f0f1793d2973c3ae8f2ae417a7]
reverse link DatabaseCommInterface to DatabaseCommInterfaceImplementation--><path d="M753.5,235.65 C753.5,275.06 753.5,322.13 753.5,362.23 " fill="none" id="DatabaseCommInterface&lt;-DatabaseCommInterfaceImplementation" style="stroke: #A80036; stroke-width: 1.0; stroke-dasharray: 7.0,7.0;"/><polygon fill="none" points="746.5,235.52,753.5,215.52,760.5,235.52,746.5,235.52" style="stroke: #A80036; stroke-width: 1.0;"/><!--MD5=[a58b2e4b707a50c1d2b096e4059ce319]
reverse link DatabaseCommManager to DatabaseCommManagerImplementation--><path d="M1277.5,235.77 C1277.5,281.6 1277.5,337.75 1277.5,381.27 " fill="none" id="DatabaseCommManager&lt;-DatabaseCommManagerImplementation" style="stroke: #A80036; stroke-width: 1.0; stroke-dasharray: 7.0,7.0;"/><polygon fill="none" points="1270.5,235.52,1277.5,215.52,1284.5,235.52,1270.5,235.52" style="stroke: #A80036; stroke-width: 1.0;"/><!--MD5=[8fafe5e46f3a559c7888846384f84dbe]
reverse link DatabaseGisInterface to DatabaseGisInterfaceImplementation--><path d="M1793.5,231.37 C1793.5,277.27 1793.5,334.59 1793.5,379.23 " fill="none" id="DatabaseGisInterface&lt;-DatabaseGisInterfaceImplementation" style="stroke: #A80036; stroke-width: 1.0; stroke-dasharray: 7.0,7.0;"/><polygon fill="none" points="1786.5,231.17,1793.5,211.17,1800.5,231.17,1786.5,231.17" style="stroke: #A80036; stroke-width: 1.0;"/><!--MD5=[4b9ab9aeff5ade3c5ddb67bcb023b127]
reverse link DatabaseGisManager to DatabaseGisManagerImplementation--><path d="M2245.5,231.44 C2245.5,266.38 2245.5,307.94 2245.5,345.47 " fill="none" id="DatabaseGisManager&lt;-DatabaseGisManagerImplementation" style="stroke: #A80036; stroke-width: 1.0; stroke-dasharray: 7.0,7.0;"/><polygon fill="none" points="2238.5,231.17,2245.5,211.17,2252.5,231.17,2238.5,231.17" style="stroke: #A80036; stroke-width: 1.0;"/><!--MD5=[eb0961a570d8086d40299e5221360d47]
reverse link DatabasePersistentStorage to DatabasePersistentStorageImplementation--><path d="M2703.5,263.53 C2703.5,276.36 2703.5,289.6 2703.5,302.82 " fill="none" id="DatabasePersistentStorage&lt;-DatabasePersistentStorageImplementation" style="stroke: #A80036; stroke-width: 1.0; stroke-dasharray: 7.0,7.0;"/><polygon fill="none" points="2696.5,263.08,2703.5,243.08,2710.5,263.08,2696.5,263.08" style="stroke: #A80036; stroke-width: 1.0;"/><!--MD5=[1bdaeee185e59aed3c0051e3a9fde0d7]
@startuml DatabasePackages_DirectDependencies


package edu.oakland.production.database {
    
}


package edu.oakland.production.database {
    
}


package edu.oakland.production.database {
    interface DatabaseCommInterface {
        __
        .. Use Case 1 ..
        {abstract} + int receiveGetRfidRequest()
        {abstract} + LocationDataPoint receiveGetLocationDataPointRequest(int offset)
        {abstract} + TrackData receiveGetTrackDataRequest(int offset)
        {abstract} + void storeTrackDataRequest(TrackData trackData)
        {abstract} + String receiveGetModeRequest()
    }
}


package edu.oakland.production.database {
    interface DatabaseCommManager {
        __
        .. Use Case 1 ..
        {abstract} + int passGetRfidRequest()
        {abstract} + LocationDataPoint passGetLocationDataPointRequest(int offset)
        {abstract} + TrackData passGetTrackDataRequest(int offset)
        {abstract} + void passStoreTrackDataRequest(TrackData trackData)
        {abstract} + String passGetModeRequest()
    }
}


package edu.oakland.production.database {
    interface DatabaseGisInterface {
        __
        .. Use Case 1 ..
        {abstract} + void recieveStoreRequest(LocationDataPoint locationDataPoint)
        .. Use Case 2 ..
        {abstract} + String recieveModeRequest(String mode)
        {abstract} + String recieveNextSatRequest(String currentSat)
    }
}


package edu.oakland.production.database {
    interface DatabaseGisManager {
        __
        .. Use Case 1 ..
        {abstract} + void passStoreRequest(LocationDataPoint locationDataPoint)
        .. Use Case 2 ..
        {abstract} + void passModeRequest(String mode)
        {abstract} + String passNextSatRequest(String currentSat)
    }
}


package edu.oakland.production.database {
    interface DatabasePersistentStorage {
        __
        .. Use Case 1 ..
        {abstract} + int locateRfidData()
        {abstract} + LocationDataPoint getLocationDataPoint(int offset)
        {abstract} + void storeLocationDataPoint(LocationDataPoint locationDataPoint)
        {abstract} + TrackData getTrackData(int offset)
        {abstract} + void storeTrackData(TrackData trackData)
        {abstract} + String getMode()
        .. Use Case 2 ..
        {abstract} + void storeMode(String mode)
        {abstract} + String getNextSat(String currentSat)
    }
}


package edu.oakland.production.database {
    class DatabaseCommInterfaceImplementation {
        - DatabaseCommManager databaseCommManager
        __
        DatabaseCommInterface(int rfidData, 
        \tLocationDataPoint locDataPoint,
        \tTrackData trackData)
        .. Use Case 1 ..
        + int receiveGetRfidRequest()
        + LocationDataPoint receiveGetLocationDataPointRequest(int offset)
        + TrackData receiveGetTrackDataRequest(int offset)
        + void storeTrackDataRequest(TrackData trackData)
        + String receiveGetModeRequest()
    }
}


DatabaseCommInterfaceImplementation .up.|> DatabaseCommInterface

package edu.oakland.production.database {
    class DatabaseCommManagerImplementation {
        - DatabasePersistentStorage databasePersistentStorage
        __
        + DatabaseCommManagerImplementation(DatabasePersistentStorage databasePersistentStorage)
        .. Use Case 1 ..
        + int passGetRfidRequest()
        + LocationDataPoint passGetLocationDataPointRequest(int offset)
        + TrackData passGetTrackDataRequest(int offset)
        + void passStoreTrackDataRequest(TrackData trackData)
    }
}


DatabaseCommManagerImplementation .up.|> DatabaseCommManager

package edu.oakland.production.database {
    class DatabaseGisInterfaceImplementation {
        - DatabaseGisManager manager
        __
        + DatabaseGisInterface(DatabaseGisManager manager)
        .. Use Case 1 ..
        + void recieveStoreRequest(LocationDataPoint locationDataPoint)
        .. Use Case 2 ..
        + void recieveModeRequest(String mode)
        + String recieveNextSatRequest(String currentSat)
    }
}


DatabaseGisInterfaceImplementation .up.|> DatabaseGisInterface

package edu.oakland.production.database {
    class DatabaseGisManagerImplementation {
    	- LocationDataPoint locDataPoint
    	- String mode
    	- String currentSat
          __
        + DatabaseGisManagerImplementation (LocationDataPoint locationDataPoint, 
        \tString mode, 
        \tString currentSat)
        
        .. Use Case 1 ..
        + void passStoreRequest(LocationDataPoint locationDataPoint)
        .. Use Case 2 ..
        + void passModeRequest(String mode)
        + String passNextSatRequest(String currentSat)
    }
}


DatabaseGisManagerImplementation .up.|> DatabaseGisManager

package edu.oakland.production.database {
    class DatabasePersistentStorageImplementation {
        - int rfidData
        - ArrayList<LocationDataPoint> locDataPoint
        - ArrayList<TrackData> trackData
        - String[] nextSatellites
        - String mode
        __
        + DatabasePersistentStorage(int rfidData, 
        \tArrayList<LocationDataPoint> locDataPoint, 
        \tArrayList<TrackData> trackData, 
        \tString[] nextSatellites)
        .. Use Case 1 ..
        + int locateRfidData()
        + LocationDataPoint getLocationDataPoint(int offset)
        + void storeLocationDataPoint(LocationDataPoint locationDataPoint)
        + TrackData getTrackData(int offset)
        + void storeTrackData(TrackData trackData)
        + String getMode()
        .. Use Case 2 ..
        + void storeMode(String mode)
        + String getNextSat(String currentSat)
    }
}


DatabasePersistentStorageImplementation .up.|> DatabasePersistentStorage
























package edu.oakland.test.database {
    
}


package edu.oakland.test.database {
    
}



package edu.oakland.helper.database {
    
}


@enduml

PlantUML version 1.2020.02(Sun Mar 01 10:22:07 GMT 2020)
(GPL source distribution)
Java Runtime: OpenJDK Runtime Environment
JVM: OpenJDK 64-Bit Server VM
Java Version: 11.0.9+11-Ubuntu-0ubuntu1
Operating System: Linux
Default Encoding: ANSI_X3.4-1968
Language: en
Country: US
--></g></svg>