<?xml version="1.0" encoding="UTF-8" standalone="no"?><svg xmlns="http://www.w3.org/2000/svg" xmlns:xlink="http://www.w3.org/1999/xlink" contentScriptType="application/ecmascript" contentStyleType="text/css" height="354px" preserveAspectRatio="none" style="width:1360px;height:354px;" version="1.1" viewBox="0 0 1360 354" width="1360px" zoomAndPan="magnify"><defs><filter height="300%" id="f55ddcz3iueff" width="300%" x="-1" y="-1"><feGaussianBlur result="blurOut" stdDeviation="2.0"/><feColorMatrix in="blurOut" result="blurOut2" type="matrix" values="0 0 0 0 0 0 0 0 0 0 0 0 0 0 0 0 0 0 .4 0"/><feOffset dx="4.0" dy="4.0" in="blurOut2" result="blurOut3"/><feBlend in="SourceGraphic" in2="blurOut3" mode="normal"/></filter></defs><g><!--MD5=[fe59aae6f7bfe371a9c197ec1f7f843a]
cluster edu.oakland.production.display02--><polygon fill="#FFFFFF" filter="url(#f55ddcz3iueff)" points="22,24,295,24,302,46.2969,1338,46.2969,1338,342,22,342,22,24" style="stroke: #000000; stroke-width: 1.5;"/><line style="stroke: #000000; stroke-width: 1.5;" x1="22" x2="302" y1="46.2969" y2="46.2969"/><text fill="#000000" font-family="sans-serif" font-size="14" font-weight="bold" lengthAdjust="spacingAndGlyphs" textLength="267" x="26" y="38.9951">edu.oakland.production.display02</text><!--MD5=[c8d1e3134fecb0c949fd2a76cc0bb992]
class DisplayCommInterface--><rect fill="#FEFECE" filter="url(#f55ddcz3iueff)" height="77.6094" id="DisplayCommInterface" style="stroke: #A80036; stroke-width: 1.5;" width="268" x="91" y="59"/><ellipse cx="151.25" cy="75" fill="#B4A7E5" rx="11" ry="11" style="stroke: #A80036; stroke-width: 1.0;"/><path d="M147.1719,70.7656 L147.1719,68.6094 L154.5625,68.6094 L154.5625,70.7656 L152.0938,70.7656 L152.0938,78.8438 L154.5625,78.8438 L154.5625,81 L147.1719,81 L147.1719,78.8438 L149.6406,78.8438 L149.6406,70.7656 L147.1719,70.7656 Z "/><text fill="#000000" font-family="sans-serif" font-size="12" font-style="italic" lengthAdjust="spacingAndGlyphs" textLength="139" x="171.75" y="79.1543">DisplayCommInterface</text><line style="stroke: #A80036; stroke-width: 1.5;" x1="92" x2="358" y1="91" y2="91"/><line style="stroke: #A80036; stroke-width: 1.5;" x1="92" x2="358" y1="99" y2="99"/><ellipse cx="102" cy="126.8047" fill="#84BE84" rx="3" ry="3" style="stroke: #038048; stroke-width: 1.0;"/><text fill="#000000" font-family="sans-serif" font-size="11" font-style="italic" lengthAdjust="spacingAndGlyphs" textLength="242" x="111" y="130.0151">TrackData receiveRfidRequest(int rfidNum)</text><line style="stroke: #A80036; stroke-width: 1.0; stroke-dasharray: 1.0,2.0;" x1="92" x2="192" y1="113.4023" y2="113.4023"/><text fill="#000000" font-family="sans-serif" font-size="11" lengthAdjust="spacingAndGlyphs" textLength="66" x="192" y="116.7104">Use Case 1</text><line style="stroke: #A80036; stroke-width: 1.0; stroke-dasharray: 1.0,2.0;" x1="258" x2="358" y1="113.4023" y2="113.4023"/><!--MD5=[f6b51b5f862da5ce226c62e411e84628]
class DisplayComm2WayInterface--><rect fill="#FEFECE" filter="url(#f55ddcz3iueff)" height="77.6094" id="DisplayComm2WayInterface" style="stroke: #A80036; stroke-width: 1.5;" width="252" x="506" y="59"/><ellipse cx="541.7" cy="75" fill="#B4A7E5" rx="11" ry="11" style="stroke: #A80036; stroke-width: 1.0;"/><path d="M537.6219,70.7656 L537.6219,68.6094 L545.0125,68.6094 L545.0125,70.7656 L542.5438,70.7656 L542.5438,78.8438 L545.0125,78.8438 L545.0125,81 L537.6219,81 L537.6219,78.8438 L540.0906,78.8438 L540.0906,70.7656 L537.6219,70.7656 Z "/><text fill="#000000" font-family="sans-serif" font-size="12" font-style="italic" lengthAdjust="spacingAndGlyphs" textLength="174" x="560.3" y="79.1543">DisplayComm2WayInterface</text><line style="stroke: #A80036; stroke-width: 1.5;" x1="507" x2="757" y1="91" y2="91"/><line style="stroke: #A80036; stroke-width: 1.5;" x1="507" x2="757" y1="99" y2="99"/><ellipse cx="517" cy="126.8047" fill="#84BE84" rx="3" ry="3" style="stroke: #038048; stroke-width: 1.0;"/><text fill="#000000" font-family="sans-serif" font-size="11" font-style="italic" lengthAdjust="spacingAndGlyphs" textLength="226" x="526" y="130.0151">TrackData passRfidRequest(int rfidNum)</text><line style="stroke: #A80036; stroke-width: 1.0; stroke-dasharray: 1.0,2.0;" x1="507" x2="599" y1="113.4023" y2="113.4023"/><text fill="#000000" font-family="sans-serif" font-size="11" lengthAdjust="spacingAndGlyphs" textLength="66" x="599" y="116.7104">Use Case 1</text><line style="stroke: #A80036; stroke-width: 1.0; stroke-dasharray: 1.0,2.0;" x1="665" x2="757" y1="113.4023" y2="113.4023"/><!--MD5=[6aeb72f2773d7cabb45309482beeff0a]
class DisplayCommManager--><rect fill="#FEFECE" filter="url(#f55ddcz3iueff)" height="77.6094" id="DisplayCommManager" style="stroke: #A80036; stroke-width: 1.5;" width="275" x="949.5" y="59"/><ellipse cx="1014.25" cy="75" fill="#B4A7E5" rx="11" ry="11" style="stroke: #A80036; stroke-width: 1.0;"/><path d="M1010.1719,70.7656 L1010.1719,68.6094 L1017.5625,68.6094 L1017.5625,70.7656 L1015.0938,70.7656 L1015.0938,78.8438 L1017.5625,78.8438 L1017.5625,81 L1010.1719,81 L1010.1719,78.8438 L1012.6406,78.8438 L1012.6406,70.7656 L1010.1719,70.7656 Z "/><text fill="#000000" font-family="sans-serif" font-size="12" font-style="italic" lengthAdjust="spacingAndGlyphs" textLength="137" x="1034.75" y="79.1543">DisplayCommManager</text><line style="stroke: #A80036; stroke-width: 1.5;" x1="950.5" x2="1223.5" y1="91" y2="91"/><line style="stroke: #A80036; stroke-width: 1.5;" x1="950.5" x2="1223.5" y1="99" y2="99"/><ellipse cx="960.5" cy="126.8047" fill="#84BE84" rx="3" ry="3" style="stroke: #038048; stroke-width: 1.0;"/><text fill="#000000" font-family="sans-serif" font-size="11" font-style="italic" lengthAdjust="spacingAndGlyphs" textLength="249" x="969.5" y="130.0151">TrackData evaluateRfidRequest(int rfidNum)</text><line style="stroke: #A80036; stroke-width: 1.0; stroke-dasharray: 1.0,2.0;" x1="950.5" x2="1054" y1="113.4023" y2="113.4023"/><text fill="#000000" font-family="sans-serif" font-size="11" lengthAdjust="spacingAndGlyphs" textLength="66" x="1054" y="116.7104">Use Case 1</text><line style="stroke: #A80036; stroke-width: 1.0; stroke-dasharray: 1.0,2.0;" x1="1120" x2="1223.5" y1="113.4023" y2="113.4023"/><!--MD5=[a35092e604da7274febf4e2cf9a25087]
class DisplayCommInterfaceImplementation--><rect fill="#FEFECE" filter="url(#f55ddcz3iueff)" height="128.8281" id="DisplayCommInterfaceImplementation" style="stroke: #A80036; stroke-width: 1.5;" width="373" x="38.5" y="197"/><ellipse cx="103.25" cy="213" fill="#ADD1B2" rx="11" ry="11" style="stroke: #A80036; stroke-width: 1.0;"/><path d="M106.2188,218.6406 Q105.6406,218.9375 105,219.0781 Q104.3594,219.2344 103.6563,219.2344 Q101.1563,219.2344 99.8281,217.5938 Q98.5156,215.9375 98.5156,212.8125 Q98.5156,209.6875 99.8281,208.0313 Q101.1563,206.375 103.6563,206.375 Q104.3594,206.375 105,206.5313 Q105.6563,206.6875 106.2188,206.9844 L106.2188,209.7031 Q105.5938,209.125 105,208.8594 Q104.4063,208.5781 103.7813,208.5781 Q102.4375,208.5781 101.75,209.6563 Q101.0625,210.7188 101.0625,212.8125 Q101.0625,214.9063 101.75,215.9844 Q102.4375,217.0469 103.7813,217.0469 Q104.4063,217.0469 105,216.7813 Q105.5938,216.5 106.2188,215.9219 L106.2188,218.6406 Z "/><text fill="#000000" font-family="sans-serif" font-size="12" lengthAdjust="spacingAndGlyphs" textLength="235" x="123.75" y="217.1543">DisplayCommInterfaceImplementation</text><line style="stroke: #A80036; stroke-width: 1.5;" x1="39.5" x2="410.5" y1="229" y2="229"/><text fill="#000000" font-family="sans-serif" font-size="11" lengthAdjust="spacingAndGlyphs" textLength="207" x="44.5" y="243.2104">DisplayComm2WayInterface receiver</text><line style="stroke: #A80036; stroke-width: 1.5;" x1="39.5" x2="410.5" y1="249.8047" y2="249.8047"/><ellipse cx="49.5" cy="260.8047" fill="#84BE84" rx="3" ry="3" style="stroke: #038048; stroke-width: 1.0;"/><text fill="#000000" font-family="sans-serif" font-size="11" font-style="italic" lengthAdjust="spacingAndGlyphs" textLength="347" x="58.5" y="264.0151">DisplayCommInterface(DisplayComm2WayInterface receiver)</text><ellipse cx="49.5" cy="290.4141" fill="#84BE84" rx="3" ry="3" style="stroke: #038048; stroke-width: 1.0;"/><text fill="#000000" font-family="sans-serif" font-size="11" font-style="italic" lengthAdjust="spacingAndGlyphs" textLength="242" x="58.5" y="293.6245">TrackData receiveRfidRequest(int rfidNum)</text><ellipse cx="49.5" cy="303.2188" fill="#84BE84" rx="3" ry="3" style="stroke: #038048; stroke-width: 1.0;"/><text fill="#000000" font-family="sans-serif" font-size="11" font-style="italic" lengthAdjust="spacingAndGlyphs" textLength="291" x="58.5" y="306.4292">TrackData passToComm2WayInterface(int rfidNum)</text><text fill="#000000" font-family="sans-serif" font-size="11" lengthAdjust="spacingAndGlyphs" textLength="0" x="62.5" y="319.2339"/><line style="stroke: #A80036; stroke-width: 1.0; stroke-dasharray: 1.0,2.0;" x1="39.5" x2="192" y1="277.0117" y2="277.0117"/><text fill="#000000" font-family="sans-serif" font-size="11" lengthAdjust="spacingAndGlyphs" textLength="66" x="192" y="280.3198">Use Case 1</text><line style="stroke: #A80036; stroke-width: 1.0; stroke-dasharray: 1.0,2.0;" x1="258" x2="410.5" y1="277.0117" y2="277.0117"/><!--MD5=[46657c2900260d4d40350fe3f8c544df]
class DisplayComm2WayInterfaceImplementation--><rect fill="#FEFECE" filter="url(#f55ddcz3iueff)" height="103.2188" id="DisplayComm2WayInterfaceImplementation" style="stroke: #A80036; stroke-width: 1.5;" width="370" x="447" y="210"/><ellipse cx="493.75" cy="226" fill="#ADD1B2" rx="11" ry="11" style="stroke: #A80036; stroke-width: 1.0;"/><path d="M496.7188,231.6406 Q496.1406,231.9375 495.5,232.0781 Q494.8594,232.2344 494.1563,232.2344 Q491.6563,232.2344 490.3281,230.5938 Q489.0156,228.9375 489.0156,225.8125 Q489.0156,222.6875 490.3281,221.0313 Q491.6563,219.375 494.1563,219.375 Q494.8594,219.375 495.5,219.5313 Q496.1563,219.6875 496.7188,219.9844 L496.7188,222.7031 Q496.0938,222.125 495.5,221.8594 Q494.9063,221.5781 494.2813,221.5781 Q492.9375,221.5781 492.25,222.6563 Q491.5625,223.7188 491.5625,225.8125 Q491.5625,227.9063 492.25,228.9844 Q492.9375,230.0469 494.2813,230.0469 Q494.9063,230.0469 495.5,229.7813 Q496.0938,229.5 496.7188,228.9219 L496.7188,231.6406 Z "/><text fill="#000000" font-family="sans-serif" font-size="12" lengthAdjust="spacingAndGlyphs" textLength="268" x="514.25" y="230.1543">DisplayComm2WayInterfaceImplementation</text><line style="stroke: #A80036; stroke-width: 1.5;" x1="448" x2="816" y1="242" y2="242"/><line style="stroke: #A80036; stroke-width: 1.5;" x1="448" x2="816" y1="250" y2="250"/><ellipse cx="458" cy="277.8047" fill="#84BE84" rx="3" ry="3" style="stroke: #038048; stroke-width: 1.0;"/><text fill="#000000" font-family="sans-serif" font-size="11" font-style="italic" lengthAdjust="spacingAndGlyphs" textLength="226" x="467" y="281.0151">TrackData passRfidRequest(int rfidNum)</text><ellipse cx="458" cy="290.6094" fill="#84BE84" rx="3" ry="3" style="stroke: #038048; stroke-width: 1.0;"/><text fill="#000000" font-family="sans-serif" font-size="11" font-style="italic" lengthAdjust="spacingAndGlyphs" textLength="269" x="467" y="293.8198">void determineUserRequestFormat(int rfidNum)</text><ellipse cx="458" cy="303.4141" fill="#84BE84" rx="3" ry="3" style="stroke: #038048; stroke-width: 1.0;"/><text fill="#000000" font-family="sans-serif" font-size="11" font-style="italic" lengthAdjust="spacingAndGlyphs" textLength="344" x="467" y="306.6245">void receiveRequestFromDisplayCommInterface(int rfidNum)</text><line style="stroke: #A80036; stroke-width: 1.0; stroke-dasharray: 1.0,2.0;" x1="448" x2="599" y1="264.4023" y2="264.4023"/><text fill="#000000" font-family="sans-serif" font-size="11" lengthAdjust="spacingAndGlyphs" textLength="66" x="599" y="267.7104">Use Case 1</text><line style="stroke: #A80036; stroke-width: 1.0; stroke-dasharray: 1.0,2.0;" x1="665" x2="816" y1="264.4023" y2="264.4023"/><!--MD5=[3a27b63ddb357afc5dde5581215f51f9]
class DisplayCommManagerImplementation--><rect fill="#FEFECE" filter="url(#f55ddcz3iueff)" height="124.8281" id="DisplayCommManagerImplementation" style="stroke: #A80036; stroke-width: 1.5;" width="470" x="852" y="199"/><ellipse cx="965.75" cy="215" fill="#ADD1B2" rx="11" ry="11" style="stroke: #A80036; stroke-width: 1.0;"/><path d="M968.7188,220.6406 Q968.1406,220.9375 967.5,221.0781 Q966.8594,221.2344 966.1563,221.2344 Q963.6563,221.2344 962.3281,219.5938 Q961.0156,217.9375 961.0156,214.8125 Q961.0156,211.6875 962.3281,210.0313 Q963.6563,208.375 966.1563,208.375 Q966.8594,208.375 967.5,208.5313 Q968.1563,208.6875 968.7188,208.9844 L968.7188,211.7031 Q968.0938,211.125 967.5,210.8594 Q966.9063,210.5781 966.2813,210.5781 Q964.9375,210.5781 964.25,211.6563 Q963.5625,212.7188 963.5625,214.8125 Q963.5625,216.9063 964.25,217.9844 Q964.9375,219.0469 966.2813,219.0469 Q966.9063,219.0469 967.5,218.7813 Q968.0938,218.5 968.7188,217.9219 L968.7188,220.6406 Z "/><text fill="#000000" font-family="sans-serif" font-size="12" lengthAdjust="spacingAndGlyphs" textLength="234" x="986.25" y="219.1543">DisplayCommManagerImplementation</text><line style="stroke: #A80036; stroke-width: 1.5;" x1="853" x2="1321" y1="231" y2="231"/><text fill="#000000" font-family="sans-serif" font-size="11" lengthAdjust="spacingAndGlyphs" textLength="221" x="858" y="245.2104">MiddlewareCommInterface middleware</text><line style="stroke: #A80036; stroke-width: 1.5;" x1="853" x2="1321" y1="251.8047" y2="251.8047"/><ellipse cx="863" cy="262.8047" fill="#84BE84" rx="3" ry="3" style="stroke: #038048; stroke-width: 1.0;"/><text fill="#000000" font-family="sans-serif" font-size="11" font-style="italic" lengthAdjust="spacingAndGlyphs" textLength="444" x="872" y="266.0151">DisplayCommManagerImplementation(MiddlewareCommInterface middleware)</text><ellipse cx="863" cy="275.6094" fill="#84BE84" rx="3" ry="3" style="stroke: #038048; stroke-width: 1.0;"/><text fill="#000000" font-family="sans-serif" font-size="11" font-style="italic" lengthAdjust="spacingAndGlyphs" textLength="249" x="872" y="278.8198">TrackData evaluateRfidRequest(int rfidNum)</text><ellipse cx="863" cy="288.4141" fill="#84BE84" rx="3" ry="3" style="stroke: #038048; stroke-width: 1.0;"/><text fill="#000000" font-family="sans-serif" font-size="11" font-style="italic" lengthAdjust="spacingAndGlyphs" textLength="369" x="872" y="291.6245">TrackData passRequestToMiddlewareCommInterface(int rfidNum)</text><ellipse cx="863" cy="301.2188" fill="#84BE84" rx="3" ry="3" style="stroke: #038048; stroke-width: 1.0;"/><text fill="#000000" font-family="sans-serif" font-size="11" font-style="italic" lengthAdjust="spacingAndGlyphs" textLength="339" x="872" y="304.4292">void receiveRequestFromDisplay2WayInterface(int rfidNum)</text><text fill="#000000" font-family="sans-serif" font-size="11" lengthAdjust="spacingAndGlyphs" textLength="0" x="876" y="317.2339"/><!--MD5=[77bc37423dd8876786830fad4054e33b]
reverse link DisplayCommInterface to DisplayCommInterfaceImplementation--><path d="M225,157.73 C225,170.47 225,184.01 225,196.93 " fill="none" id="DisplayCommInterface&lt;-DisplayCommInterfaceImplementation" style="stroke: #A80036; stroke-width: 1.0; stroke-dasharray: 7.0,7.0;"/><polygon fill="none" points="218,157.27,225,137.27,232,157.27,218,157.27" style="stroke: #A80036; stroke-width: 1.0;"/><!--MD5=[4e991cf787e933c55089f97eae394828]
reverse link DisplayComm2WayInterface to DisplayComm2WayInterfaceImplementation--><path d="M632,157.32 C632,174.56 632,193.27 632,209.97 " fill="none" id="DisplayComm2WayInterface&lt;-DisplayComm2WayInterfaceImplementation" style="stroke: #A80036; stroke-width: 1.0; stroke-dasharray: 7.0,7.0;"/><polygon fill="none" points="625,157.27,632,137.27,639,157.27,625,157.27" style="stroke: #A80036; stroke-width: 1.0;"/><!--MD5=[5beed6c3c7e4a84a4bfaa95bdf8cce79]
reverse link DisplayCommManager to DisplayCommManagerImplementation--><path d="M1087,157.44 C1087,170.89 1087,185.24 1087,198.83 " fill="none" id="DisplayCommManager&lt;-DisplayCommManagerImplementation" style="stroke: #A80036; stroke-width: 1.0; stroke-dasharray: 7.0,7.0;"/><polygon fill="none" points="1080,157.27,1087,137.27,1094,157.27,1080,157.27" style="stroke: #A80036; stroke-width: 1.0;"/><!--MD5=[66e9a710dde28e8c02f2e70bb66a3911]
@startuml Display02ProductionPackage_Closure

package edu.oakland.production.display02 {
    
}



package edu.oakland.production.display02 {
    interface DisplayCommInterface {
        __
        .. Use Case 1 ..
        {abstract} + TrackData receiveRfidRequest(int rfidNum)
    }
}








package edu.oakland.production.display02 {
    interface DisplayComm2WayInterface {
        __
        .. Use Case 1 ..
        {abstract} + TrackData passRfidRequest(int rfidNum)
    }
}








package edu.oakland.production.display02 {
    interface DisplayCommManager {
        __
        .. Use Case 1 ..
        {abstract} + TrackData evaluateRfidRequest(int rfidNum)
    }
}








package edu.oakland.production.display02 {
    class DisplayCommInterfaceImplementation {
        DisplayComm2WayInterface receiver
        __
        {abstract} + DisplayCommInterface(DisplayComm2WayInterface receiver)
        .. Use Case 1 ..
        {abstract} + TrackData receiveRfidRequest(int rfidNum)
        {abstract} + TrackData passToComm2WayInterface(int rfidNum)

    }
}


DisplayCommInterfaceImplementation .up.|> DisplayCommInterface







package edu.oakland.production.display02 {
    class DisplayComm2WayInterfaceImplementation {
        __
        .. Use Case 1 ..
        {abstract} + TrackData passRfidRequest(int rfidNum)
        {abstract} + void determineUserRequestFormat(int rfidNum)
        {abstract} + void receiveRequestFromDisplayCommInterface(int rfidNum)
    }
}


DisplayComm2WayInterfaceImplementation .up.|> DisplayComm2WayInterface







package edu.oakland.production.display02 {
    class DisplayCommManagerImplementation {
        MiddlewareCommInterface middleware
        __
        {abstract} + DisplayCommManagerImplementation(MiddlewareCommInterface middleware)
        {abstract} + TrackData evaluateRfidRequest(int rfidNum)
        {abstract} + TrackData passRequestToMiddlewareCommInterface(int rfidNum)
        {abstract} + void receiveRequestFromDisplay2WayInterface(int rfidNum)

    }
}


DisplayCommManagerImplementation .up.|> DisplayCommManager






@enduml

PlantUML version 1.2020.02(Sun Mar 01 10:22:07 GMT 2020)
(GPL source distribution)
Java Runtime: OpenJDK Runtime Environment
JVM: OpenJDK 64-Bit Server VM
Java Version: 11.0.9+11-Ubuntu-0ubuntu1
Operating System: Linux
Default Encoding: ANSI_X3.4-1968
Language: en
Country: US
--></g></svg>