<?xml version="1.0" encoding="UTF-8" standalone="no"?><svg xmlns="http://www.w3.org/2000/svg" xmlns:xlink="http://www.w3.org/1999/xlink" contentScriptType="application/ecmascript" contentStyleType="text/css" height="367px" preserveAspectRatio="none" style="width:1447px;height:367px;" version="1.1" viewBox="0 0 1447 367" width="1447px" zoomAndPan="magnify"><defs><filter height="300%" id="f1owo1srgz169i" width="300%" x="-1" y="-1"><feGaussianBlur result="blurOut" stdDeviation="2.0"/><feColorMatrix in="blurOut" result="blurOut2" type="matrix" values="0 0 0 0 0 0 0 0 0 0 0 0 0 0 0 0 0 0 .4 0"/><feOffset dx="4.0" dy="4.0" in="blurOut2" result="blurOut3"/><feBlend in="SourceGraphic" in2="blurOut3" mode="normal"/></filter></defs><g><!--MD5=[fe59aae6f7bfe371a9c197ec1f7f843a]
cluster edu.oakland.production.display02--><polygon fill="#FFFFFF" filter="url(#f1owo1srgz169i)" points="22,24,295,24,302,46.2969,1425,46.2969,1425,355,22,355,22,24" style="stroke: #000000; stroke-width: 1.5;"/><line style="stroke: #000000; stroke-width: 1.5;" x1="22" x2="302" y1="46.2969" y2="46.2969"/><text fill="#000000" font-family="sans-serif" font-size="14" font-weight="bold" lengthAdjust="spacingAndGlyphs" textLength="267" x="26" y="38.9951">edu.oakland.production.display02</text><!--MD5=[c8d1e3134fecb0c949fd2a76cc0bb992]
class DisplayCommInterface--><rect fill="#FEFECE" filter="url(#f1owo1srgz169i)" height="77.6094" id="DisplayCommInterface" style="stroke: #A80036; stroke-width: 1.5;" width="268" x="89" y="59"/><ellipse cx="149.25" cy="75" fill="#B4A7E5" rx="11" ry="11" style="stroke: #A80036; stroke-width: 1.0;"/><path d="M145.1719,70.7656 L145.1719,68.6094 L152.5625,68.6094 L152.5625,70.7656 L150.0938,70.7656 L150.0938,78.8438 L152.5625,78.8438 L152.5625,81 L145.1719,81 L145.1719,78.8438 L147.6406,78.8438 L147.6406,70.7656 L145.1719,70.7656 Z "/><text fill="#000000" font-family="sans-serif" font-size="12" font-style="italic" lengthAdjust="spacingAndGlyphs" textLength="139" x="169.75" y="79.1543">DisplayCommInterface</text><line style="stroke: #A80036; stroke-width: 1.5;" x1="90" x2="356" y1="91" y2="91"/><line style="stroke: #A80036; stroke-width: 1.5;" x1="90" x2="356" y1="99" y2="99"/><ellipse cx="100" cy="126.8047" fill="#84BE84" rx="3" ry="3" style="stroke: #038048; stroke-width: 1.0;"/><text fill="#000000" font-family="sans-serif" font-size="11" font-style="italic" lengthAdjust="spacingAndGlyphs" textLength="242" x="109" y="130.0151">TrackData receiveRfidRequest(int rfidNum)</text><line style="stroke: #A80036; stroke-width: 1.0; stroke-dasharray: 1.0,2.0;" x1="90" x2="190" y1="113.4023" y2="113.4023"/><text fill="#000000" font-family="sans-serif" font-size="11" lengthAdjust="spacingAndGlyphs" textLength="66" x="190" y="116.7104">Use Case 1</text><line style="stroke: #A80036; stroke-width: 1.0; stroke-dasharray: 1.0,2.0;" x1="256" x2="356" y1="113.4023" y2="113.4023"/><!--MD5=[f6b51b5f862da5ce226c62e411e84628]
class DisplayComm2WayInterface--><rect fill="#FEFECE" filter="url(#f1owo1srgz169i)" height="77.6094" id="DisplayComm2WayInterface" style="stroke: #A80036; stroke-width: 1.5;" width="252" x="547" y="59"/><ellipse cx="582.7" cy="75" fill="#B4A7E5" rx="11" ry="11" style="stroke: #A80036; stroke-width: 1.0;"/><path d="M578.6219,70.7656 L578.6219,68.6094 L586.0125,68.6094 L586.0125,70.7656 L583.5438,70.7656 L583.5438,78.8438 L586.0125,78.8438 L586.0125,81 L578.6219,81 L578.6219,78.8438 L581.0906,78.8438 L581.0906,70.7656 L578.6219,70.7656 Z "/><text fill="#000000" font-family="sans-serif" font-size="12" font-style="italic" lengthAdjust="spacingAndGlyphs" textLength="174" x="601.3" y="79.1543">DisplayComm2WayInterface</text><line style="stroke: #A80036; stroke-width: 1.5;" x1="548" x2="798" y1="91" y2="91"/><line style="stroke: #A80036; stroke-width: 1.5;" x1="548" x2="798" y1="99" y2="99"/><ellipse cx="558" cy="126.8047" fill="#84BE84" rx="3" ry="3" style="stroke: #038048; stroke-width: 1.0;"/><text fill="#000000" font-family="sans-serif" font-size="11" font-style="italic" lengthAdjust="spacingAndGlyphs" textLength="226" x="567" y="130.0151">TrackData passRfidRequest(int rfidNum)</text><line style="stroke: #A80036; stroke-width: 1.0; stroke-dasharray: 1.0,2.0;" x1="548" x2="640" y1="113.4023" y2="113.4023"/><text fill="#000000" font-family="sans-serif" font-size="11" lengthAdjust="spacingAndGlyphs" textLength="66" x="640" y="116.7104">Use Case 1</text><line style="stroke: #A80036; stroke-width: 1.0; stroke-dasharray: 1.0,2.0;" x1="706" x2="798" y1="113.4023" y2="113.4023"/><!--MD5=[6aeb72f2773d7cabb45309482beeff0a]
class DisplayCommManager--><rect fill="#FEFECE" filter="url(#f1owo1srgz169i)" height="77.6094" id="DisplayCommManager" style="stroke: #A80036; stroke-width: 1.5;" width="249" x="1049.5" y="59"/><ellipse cx="1101.25" cy="75" fill="#B4A7E5" rx="11" ry="11" style="stroke: #A80036; stroke-width: 1.0;"/><path d="M1097.1719,70.7656 L1097.1719,68.6094 L1104.5625,68.6094 L1104.5625,70.7656 L1102.0938,70.7656 L1102.0938,78.8438 L1104.5625,78.8438 L1104.5625,81 L1097.1719,81 L1097.1719,78.8438 L1099.6406,78.8438 L1099.6406,70.7656 L1097.1719,70.7656 Z "/><text fill="#000000" font-family="sans-serif" font-size="12" font-style="italic" lengthAdjust="spacingAndGlyphs" textLength="137" x="1121.75" y="79.1543">DisplayCommManager</text><line style="stroke: #A80036; stroke-width: 1.5;" x1="1050.5" x2="1297.5" y1="91" y2="91"/><line style="stroke: #A80036; stroke-width: 1.5;" x1="1050.5" x2="1297.5" y1="99" y2="99"/><ellipse cx="1060.5" cy="126.8047" fill="#84BE84" rx="3" ry="3" style="stroke: #038048; stroke-width: 1.0;"/><text fill="#000000" font-family="sans-serif" font-size="11" font-style="italic" lengthAdjust="spacingAndGlyphs" textLength="223" x="1069.5" y="130.0151">TrackData evaluateRfidRequest(int rfid)</text><line style="stroke: #A80036; stroke-width: 1.0; stroke-dasharray: 1.0,2.0;" x1="1050.5" x2="1141" y1="113.4023" y2="113.4023"/><text fill="#000000" font-family="sans-serif" font-size="11" lengthAdjust="spacingAndGlyphs" textLength="66" x="1141" y="116.7104">Use Case 1</text><line style="stroke: #A80036; stroke-width: 1.0; stroke-dasharray: 1.0,2.0;" x1="1207" x2="1297.5" y1="113.4023" y2="113.4023"/><!--MD5=[a35092e604da7274febf4e2cf9a25087]
class DisplayCommInterfaceImplementation--><rect fill="#FEFECE" filter="url(#f1owo1srgz169i)" height="141.6328" id="DisplayCommInterfaceImplementation" style="stroke: #A80036; stroke-width: 1.5;" width="369" x="38.5" y="197"/><ellipse cx="101.25" cy="213" fill="#ADD1B2" rx="11" ry="11" style="stroke: #A80036; stroke-width: 1.0;"/><path d="M104.2188,218.6406 Q103.6406,218.9375 103,219.0781 Q102.3594,219.2344 101.6563,219.2344 Q99.1563,219.2344 97.8281,217.5938 Q96.5156,215.9375 96.5156,212.8125 Q96.5156,209.6875 97.8281,208.0313 Q99.1563,206.375 101.6563,206.375 Q102.3594,206.375 103,206.5313 Q103.6563,206.6875 104.2188,206.9844 L104.2188,209.7031 Q103.5938,209.125 103,208.8594 Q102.4063,208.5781 101.7813,208.5781 Q100.4375,208.5781 99.75,209.6563 Q99.0625,210.7188 99.0625,212.8125 Q99.0625,214.9063 99.75,215.9844 Q100.4375,217.0469 101.7813,217.0469 Q102.4063,217.0469 103,216.7813 Q103.5938,216.5 104.2188,215.9219 L104.2188,218.6406 Z "/><text fill="#000000" font-family="sans-serif" font-size="12" lengthAdjust="spacingAndGlyphs" textLength="235" x="121.75" y="217.1543">DisplayCommInterfaceImplementation</text><line style="stroke: #A80036; stroke-width: 1.5;" x1="39.5" x2="406.5" y1="229" y2="229"/><rect fill="none" height="6" style="stroke: #C82930; stroke-width: 1.0;" width="6" x="46.5" y="237"/><text fill="#000000" font-family="sans-serif" font-size="11" lengthAdjust="spacingAndGlyphs" textLength="207" x="58.5" y="243.2104">DisplayComm2WayInterface receiver</text><rect fill="none" height="6" style="stroke: #C82930; stroke-width: 1.0;" width="6" x="46.5" y="249.8047"/><text fill="#000000" font-family="sans-serif" font-size="11" lengthAdjust="spacingAndGlyphs" textLength="86" x="58.5" y="256.0151">TrackData data</text><rect fill="none" height="6" style="stroke: #C82930; stroke-width: 1.0;" width="6" x="46.5" y="262.6094"/><text fill="#000000" font-family="sans-serif" font-size="11" lengthAdjust="spacingAndGlyphs" textLength="135" x="58.5" y="268.8198">TrackDataPlotter plotter</text><line style="stroke: #A80036; stroke-width: 1.5;" x1="39.5" x2="406.5" y1="275.4141" y2="275.4141"/><ellipse cx="49.5" cy="286.4141" fill="#84BE84" rx="3" ry="3" style="stroke: #038048; stroke-width: 1.0;"/><text fill="#000000" font-family="sans-serif" font-size="11" lengthAdjust="spacingAndGlyphs" textLength="343" x="58.5" y="289.6245">DisplayCommInterface(DisplayComm2WayInterface receiver)</text><ellipse cx="49.5" cy="316.0234" fill="#84BE84" rx="3" ry="3" style="stroke: #038048; stroke-width: 1.0;"/><text fill="#000000" font-family="sans-serif" font-size="11" lengthAdjust="spacingAndGlyphs" textLength="240" x="58.5" y="319.2339">TrackData receiveRfidRequest(int rfidNum)</text><text fill="#000000" font-family="sans-serif" font-size="11" lengthAdjust="spacingAndGlyphs" textLength="0" x="62.5" y="332.0386"/><line style="stroke: #A80036; stroke-width: 1.0; stroke-dasharray: 1.0,2.0;" x1="39.5" x2="190" y1="302.6211" y2="302.6211"/><text fill="#000000" font-family="sans-serif" font-size="11" lengthAdjust="spacingAndGlyphs" textLength="66" x="190" y="305.9292">Use Case 1</text><line style="stroke: #A80036; stroke-width: 1.0; stroke-dasharray: 1.0,2.0;" x1="256" x2="406.5" y1="302.6211" y2="302.6211"/><!--MD5=[46657c2900260d4d40350fe3f8c544df]
class DisplayComm2WayInterfaceImplementation--><rect fill="#FEFECE" filter="url(#f1owo1srgz169i)" height="103.2188" id="DisplayComm2WayInterfaceImplementation" style="stroke: #A80036; stroke-width: 1.5;" width="461" x="442.5" y="216.5"/><ellipse cx="534.75" cy="232.5" fill="#ADD1B2" rx="11" ry="11" style="stroke: #A80036; stroke-width: 1.0;"/><path d="M537.7188,238.1406 Q537.1406,238.4375 536.5,238.5781 Q535.8594,238.7344 535.1563,238.7344 Q532.6563,238.7344 531.3281,237.0938 Q530.0156,235.4375 530.0156,232.3125 Q530.0156,229.1875 531.3281,227.5313 Q532.6563,225.875 535.1563,225.875 Q535.8594,225.875 536.5,226.0313 Q537.1563,226.1875 537.7188,226.4844 L537.7188,229.2031 Q537.0938,228.625 536.5,228.3594 Q535.9063,228.0781 535.2813,228.0781 Q533.9375,228.0781 533.25,229.1563 Q532.5625,230.2188 532.5625,232.3125 Q532.5625,234.4063 533.25,235.4844 Q533.9375,236.5469 535.2813,236.5469 Q535.9063,236.5469 536.5,236.2813 Q537.0938,236 537.7188,235.4219 L537.7188,238.1406 Z "/><text fill="#000000" font-family="sans-serif" font-size="12" lengthAdjust="spacingAndGlyphs" textLength="268" x="555.25" y="236.6543">DisplayComm2WayInterfaceImplementation</text><line style="stroke: #A80036; stroke-width: 1.5;" x1="443.5" x2="902.5" y1="248.5" y2="248.5"/><rect fill="none" height="6" style="stroke: #C82930; stroke-width: 1.0;" width="6" x="450.5" y="256.5"/><text fill="#000000" font-family="sans-serif" font-size="11" lengthAdjust="spacingAndGlyphs" textLength="182" x="462.5" y="262.7104">DisplayCommManager manager</text><line style="stroke: #A80036; stroke-width: 1.5;" x1="443.5" x2="902.5" y1="269.3047" y2="269.3047"/><ellipse cx="453.5" cy="280.3047" fill="#84BE84" rx="3" ry="3" style="stroke: #038048; stroke-width: 1.0;"/><text fill="#000000" font-family="sans-serif" font-size="11" lengthAdjust="spacingAndGlyphs" textLength="435" x="462.5" y="283.5151">DisplayComm2WayInterfaceImplementation(DisplayCommManager manager)</text><ellipse cx="453.5" cy="309.9141" fill="#84BE84" rx="3" ry="3" style="stroke: #038048; stroke-width: 1.0;"/><text fill="#000000" font-family="sans-serif" font-size="11" lengthAdjust="spacingAndGlyphs" textLength="227" x="462.5" y="313.1245">TrackData passRfidRequest(int rfidNum)</text><line style="stroke: #A80036; stroke-width: 1.0; stroke-dasharray: 1.0,2.0;" x1="443.5" x2="640" y1="296.5117" y2="296.5117"/><text fill="#000000" font-family="sans-serif" font-size="11" lengthAdjust="spacingAndGlyphs" textLength="66" x="640" y="299.8198">Use Case 1</text><line style="stroke: #A80036; stroke-width: 1.0; stroke-dasharray: 1.0,2.0;" x1="706" x2="902.5" y1="296.5117" y2="296.5117"/><!--MD5=[3a27b63ddb357afc5dde5581215f51f9]
class DisplayCommManagerImplementation--><rect fill="#FEFECE" filter="url(#f1owo1srgz169i)" height="103.2188" id="DisplayCommManagerImplementation" style="stroke: #A80036; stroke-width: 1.5;" width="470" x="939" y="216.5"/><ellipse cx="1052.75" cy="232.5" fill="#ADD1B2" rx="11" ry="11" style="stroke: #A80036; stroke-width: 1.0;"/><path d="M1055.7188,238.1406 Q1055.1406,238.4375 1054.5,238.5781 Q1053.8594,238.7344 1053.1563,238.7344 Q1050.6563,238.7344 1049.3281,237.0938 Q1048.0156,235.4375 1048.0156,232.3125 Q1048.0156,229.1875 1049.3281,227.5313 Q1050.6563,225.875 1053.1563,225.875 Q1053.8594,225.875 1054.5,226.0313 Q1055.1563,226.1875 1055.7188,226.4844 L1055.7188,229.2031 Q1055.0938,228.625 1054.5,228.3594 Q1053.9063,228.0781 1053.2813,228.0781 Q1051.9375,228.0781 1051.25,229.1563 Q1050.5625,230.2188 1050.5625,232.3125 Q1050.5625,234.4063 1051.25,235.4844 Q1051.9375,236.5469 1053.2813,236.5469 Q1053.9063,236.5469 1054.5,236.2813 Q1055.0938,236 1055.7188,235.4219 L1055.7188,238.1406 Z "/><text fill="#000000" font-family="sans-serif" font-size="12" lengthAdjust="spacingAndGlyphs" textLength="234" x="1073.25" y="236.6543">DisplayCommManagerImplementation</text><line style="stroke: #A80036; stroke-width: 1.5;" x1="940" x2="1408" y1="248.5" y2="248.5"/><rect fill="none" height="6" style="stroke: #C82930; stroke-width: 1.0;" width="6" x="947" y="256.5"/><text fill="#000000" font-family="sans-serif" font-size="11" lengthAdjust="spacingAndGlyphs" textLength="221" x="959" y="262.7104">MiddlewareCommInterface middleware</text><line style="stroke: #A80036; stroke-width: 1.5;" x1="940" x2="1408" y1="269.3047" y2="269.3047"/><ellipse cx="950" cy="280.3047" fill="#84BE84" rx="3" ry="3" style="stroke: #038048; stroke-width: 1.0;"/><text fill="#000000" font-family="sans-serif" font-size="11" lengthAdjust="spacingAndGlyphs" textLength="444" x="959" y="283.5151">DisplayCommManagerImplementation(MiddlewareCommInterface middleware)</text><ellipse cx="950" cy="309.9141" fill="#84BE84" rx="3" ry="3" style="stroke: #038048; stroke-width: 1.0;"/><text fill="#000000" font-family="sans-serif" font-size="11" lengthAdjust="spacingAndGlyphs" textLength="221" x="959" y="313.1245">TrackData evaluateRfidRequest(int rfid)</text><line style="stroke: #A80036; stroke-width: 1.0; stroke-dasharray: 1.0,2.0;" x1="940" x2="1141" y1="296.5117" y2="296.5117"/><text fill="#000000" font-family="sans-serif" font-size="11" lengthAdjust="spacingAndGlyphs" textLength="66" x="1141" y="299.8198">Use Case 1</text><line style="stroke: #A80036; stroke-width: 1.0; stroke-dasharray: 1.0,2.0;" x1="1207" x2="1408" y1="296.5117" y2="296.5117"/><!--MD5=[77bc37423dd8876786830fad4054e33b]
reverse link DisplayCommInterface to DisplayCommInterfaceImplementation--><path d="M223,157.51 C223,170.25 223,183.85 223,196.98 " fill="none" id="DisplayCommInterface&lt;-DisplayCommInterfaceImplementation" style="stroke: #A80036; stroke-width: 1.0; stroke-dasharray: 7.0,7.0;"/><polygon fill="none" points="216,157.12,223,137.12,230,157.12,216,157.12" style="stroke: #A80036; stroke-width: 1.0;"/><!--MD5=[4e991cf787e933c55089f97eae394828]
reverse link DisplayComm2WayInterface to DisplayComm2WayInterfaceImplementation--><path d="M673,157.33 C673,176.53 673,197.7 673,216.28 " fill="none" id="DisplayComm2WayInterface&lt;-DisplayComm2WayInterfaceImplementation" style="stroke: #A80036; stroke-width: 1.0; stroke-dasharray: 7.0,7.0;"/><polygon fill="none" points="666,157.12,673,137.12,680,157.12,666,157.12" style="stroke: #A80036; stroke-width: 1.0;"/><!--MD5=[5beed6c3c7e4a84a4bfaa95bdf8cce79]
reverse link DisplayCommManager to DisplayCommManagerImplementation--><path d="M1174,157.33 C1174,176.53 1174,197.7 1174,216.28 " fill="none" id="DisplayCommManager&lt;-DisplayCommManagerImplementation" style="stroke: #A80036; stroke-width: 1.0; stroke-dasharray: 7.0,7.0;"/><polygon fill="none" points="1167,157.12,1174,137.12,1181,157.12,1167,157.12" style="stroke: #A80036; stroke-width: 1.0;"/><!--MD5=[debfbfa407576de35efe21b95c927571]
@startuml Display02ProductionPackage_Closure

package edu.oakland.production.display02 {
    
}



package edu.oakland.production.display02 {
    interface DisplayCommInterface {
        __
        .. Use Case 1 ..
        {abstract} + TrackData receiveRfidRequest(int rfidNum)
    }
}








package edu.oakland.production.display02 {
    interface DisplayComm2WayInterface {
        __
        .. Use Case 1 ..
        {abstract} + TrackData passRfidRequest(int rfidNum)
    }
}








package edu.oakland.production.display02 {
    interface DisplayCommManager {
        __
        .. Use Case 1 ..
        {abstract} + TrackData evaluateRfidRequest(int rfid)
    }
}








package edu.oakland.production.display02 {
    class DisplayCommInterfaceImplementation {
        - DisplayComm2WayInterface receiver
        - TrackData data
        - TrackDataPlotter plotter
        __
        + DisplayCommInterface(DisplayComm2WayInterface receiver)
        .. Use Case 1 ..
        + TrackData receiveRfidRequest(int rfidNum)
        
    }
}


DisplayCommInterfaceImplementation .up.|> DisplayCommInterface







package edu.oakland.production.display02 {
    class DisplayComm2WayInterfaceImplementation {
        - DisplayCommManager manager
        __
        + DisplayComm2WayInterfaceImplementation(DisplayCommManager manager)
        .. Use Case 1 ..
        + TrackData passRfidRequest(int rfidNum)
    }
}


DisplayComm2WayInterfaceImplementation .up.|> DisplayComm2WayInterface







package edu.oakland.production.display02 {
    class DisplayCommManagerImplementation {
        - MiddlewareCommInterface middleware
        __
        + DisplayCommManagerImplementation(MiddlewareCommInterface middleware)
        .. Use Case 1 ..
        + TrackData evaluateRfidRequest(int rfid)        
    }
}


DisplayCommManagerImplementation .up.|> DisplayCommManager






@enduml

PlantUML version 1.2020.02(Sun Mar 01 10:22:07 GMT 2020)
(GPL source distribution)
Java Runtime: OpenJDK Runtime Environment
JVM: OpenJDK 64-Bit Server VM
Java Version: 11.0.9+11-Ubuntu-0ubuntu1
Operating System: Linux
Default Encoding: ANSI_X3.4-1968
Language: en
Country: US
--></g></svg>