<?xml version="1.0" encoding="UTF-8" standalone="no"?><svg xmlns="http://www.w3.org/2000/svg" xmlns:xlink="http://www.w3.org/1999/xlink" contentScriptType="application/ecmascript" contentStyleType="text/css" height="332px" preserveAspectRatio="none" style="width:1050px;height:332px;" version="1.1" viewBox="0 0 1050 332" width="1050px" zoomAndPan="magnify"><defs><filter height="300%" id="fmit7azwcgney" width="300%" x="-1" y="-1"><feGaussianBlur result="blurOut" stdDeviation="2.0"/><feColorMatrix in="blurOut" result="blurOut2" type="matrix" values="0 0 0 0 0 0 0 0 0 0 0 0 0 0 0 0 0 0 .4 0"/><feOffset dx="4.0" dy="4.0" in="blurOut2" result="blurOut3"/><feBlend in="SourceGraphic" in2="blurOut3" mode="normal"/></filter></defs><g><!--MD5=[fe59aae6f7bfe371a9c197ec1f7f843a]
cluster edu.oakland.production.display02--><polygon fill="#FFFFFF" filter="url(#fmit7azwcgney)" points="22,24,295,24,302,46.2969,1028,46.2969,1028,320,22,320,22,24" style="stroke: #000000; stroke-width: 1.5;"/><line style="stroke: #000000; stroke-width: 1.5;" x1="22" x2="302" y1="46.2969" y2="46.2969"/><text fill="#000000" font-family="sans-serif" font-size="14" font-weight="bold" lengthAdjust="spacingAndGlyphs" textLength="267" x="26" y="38.9951">edu.oakland.production.display02</text><!--MD5=[c8d1e3134fecb0c949fd2a76cc0bb992]
class DisplayCommInterface--><rect fill="#FEFECE" filter="url(#fmit7azwcgney)" height="77.6094" id="DisplayCommInterface" style="stroke: #A80036; stroke-width: 1.5;" width="268" x="38" y="59"/><ellipse cx="98.25" cy="75" fill="#B4A7E5" rx="11" ry="11" style="stroke: #A80036; stroke-width: 1.0;"/><path d="M94.1719,70.7656 L94.1719,68.6094 L101.5625,68.6094 L101.5625,70.7656 L99.0938,70.7656 L99.0938,78.8438 L101.5625,78.8438 L101.5625,81 L94.1719,81 L94.1719,78.8438 L96.6406,78.8438 L96.6406,70.7656 L94.1719,70.7656 Z "/><text fill="#000000" font-family="sans-serif" font-size="12" font-style="italic" lengthAdjust="spacingAndGlyphs" textLength="139" x="118.75" y="79.1543">DisplayCommInterface</text><line style="stroke: #A80036; stroke-width: 1.5;" x1="39" x2="305" y1="91" y2="91"/><line style="stroke: #A80036; stroke-width: 1.5;" x1="39" x2="305" y1="99" y2="99"/><ellipse cx="49" cy="126.8047" fill="#84BE84" rx="3" ry="3" style="stroke: #038048; stroke-width: 1.0;"/><text fill="#000000" font-family="sans-serif" font-size="11" font-style="italic" lengthAdjust="spacingAndGlyphs" textLength="242" x="58" y="130.0151">TrackData receiveRfidRequest(int rfidNum)</text><line style="stroke: #A80036; stroke-width: 1.0; stroke-dasharray: 1.0,2.0;" x1="39" x2="139" y1="113.4023" y2="113.4023"/><text fill="#000000" font-family="sans-serif" font-size="11" lengthAdjust="spacingAndGlyphs" textLength="66" x="139" y="116.7104">Use Case 1</text><line style="stroke: #A80036; stroke-width: 1.0; stroke-dasharray: 1.0,2.0;" x1="205" x2="305" y1="113.4023" y2="113.4023"/><!--MD5=[f6b51b5f862da5ce226c62e411e84628]
class DisplayComm2WayInterface--><rect fill="#FEFECE" filter="url(#fmit7azwcgney)" height="77.6094" id="DisplayComm2WayInterface" style="stroke: #A80036; stroke-width: 1.5;" width="252" x="400" y="59"/><ellipse cx="435.7" cy="75" fill="#B4A7E5" rx="11" ry="11" style="stroke: #A80036; stroke-width: 1.0;"/><path d="M431.6219,70.7656 L431.6219,68.6094 L439.0125,68.6094 L439.0125,70.7656 L436.5438,70.7656 L436.5438,78.8438 L439.0125,78.8438 L439.0125,81 L431.6219,81 L431.6219,78.8438 L434.0906,78.8438 L434.0906,70.7656 L431.6219,70.7656 Z "/><text fill="#000000" font-family="sans-serif" font-size="12" font-style="italic" lengthAdjust="spacingAndGlyphs" textLength="174" x="454.3" y="79.1543">DisplayComm2WayInterface</text><line style="stroke: #A80036; stroke-width: 1.5;" x1="401" x2="651" y1="91" y2="91"/><line style="stroke: #A80036; stroke-width: 1.5;" x1="401" x2="651" y1="99" y2="99"/><ellipse cx="411" cy="126.8047" fill="#84BE84" rx="3" ry="3" style="stroke: #038048; stroke-width: 1.0;"/><text fill="#000000" font-family="sans-serif" font-size="11" font-style="italic" lengthAdjust="spacingAndGlyphs" textLength="226" x="420" y="130.0151">TrackData passRfidRequest(int rfidNum)</text><line style="stroke: #A80036; stroke-width: 1.0; stroke-dasharray: 1.0,2.0;" x1="401" x2="493" y1="113.4023" y2="113.4023"/><text fill="#000000" font-family="sans-serif" font-size="11" lengthAdjust="spacingAndGlyphs" textLength="66" x="493" y="116.7104">Use Case 1</text><line style="stroke: #A80036; stroke-width: 1.0; stroke-dasharray: 1.0,2.0;" x1="559" x2="651" y1="113.4023" y2="113.4023"/><!--MD5=[6aeb72f2773d7cabb45309482beeff0a]
class DisplayCommManager--><rect fill="#FEFECE" filter="url(#fmit7azwcgney)" height="77.6094" id="DisplayCommManager" style="stroke: #A80036; stroke-width: 1.5;" width="275" x="736.5" y="59"/><ellipse cx="801.25" cy="75" fill="#B4A7E5" rx="11" ry="11" style="stroke: #A80036; stroke-width: 1.0;"/><path d="M797.1719,70.7656 L797.1719,68.6094 L804.5625,68.6094 L804.5625,70.7656 L802.0938,70.7656 L802.0938,78.8438 L804.5625,78.8438 L804.5625,81 L797.1719,81 L797.1719,78.8438 L799.6406,78.8438 L799.6406,70.7656 L797.1719,70.7656 Z "/><text fill="#000000" font-family="sans-serif" font-size="12" font-style="italic" lengthAdjust="spacingAndGlyphs" textLength="137" x="821.75" y="79.1543">DisplayCommManager</text><line style="stroke: #A80036; stroke-width: 1.5;" x1="737.5" x2="1010.5" y1="91" y2="91"/><line style="stroke: #A80036; stroke-width: 1.5;" x1="737.5" x2="1010.5" y1="99" y2="99"/><ellipse cx="747.5" cy="126.8047" fill="#84BE84" rx="3" ry="3" style="stroke: #038048; stroke-width: 1.0;"/><text fill="#000000" font-family="sans-serif" font-size="11" font-style="italic" lengthAdjust="spacingAndGlyphs" textLength="249" x="756.5" y="130.0151">TrackData evaluateRfidRequest(int rfidNum)</text><line style="stroke: #A80036; stroke-width: 1.0; stroke-dasharray: 1.0,2.0;" x1="737.5" x2="841" y1="113.4023" y2="113.4023"/><text fill="#000000" font-family="sans-serif" font-size="11" lengthAdjust="spacingAndGlyphs" textLength="66" x="841" y="116.7104">Use Case 1</text><line style="stroke: #A80036; stroke-width: 1.0; stroke-dasharray: 1.0,2.0;" x1="907" x2="1010.5" y1="113.4023" y2="113.4023"/><!--MD5=[a35092e604da7274febf4e2cf9a25087]
class DisplayCommInterfaceImplementation--><rect fill="#FEFECE" filter="url(#fmit7azwcgney)" height="107.2188" id="DisplayCommInterfaceImplementation" style="stroke: #A80036; stroke-width: 1.5;" width="268" x="38" y="197"/><ellipse cx="53.45" cy="213" fill="#ADD1B2" rx="11" ry="11" style="stroke: #A80036; stroke-width: 1.0;"/><path d="M56.4188,218.6406 Q55.8406,218.9375 55.2,219.0781 Q54.5594,219.2344 53.8563,219.2344 Q51.3563,219.2344 50.0281,217.5938 Q48.7156,215.9375 48.7156,212.8125 Q48.7156,209.6875 50.0281,208.0313 Q51.3563,206.375 53.8563,206.375 Q54.5594,206.375 55.2,206.5313 Q55.8563,206.6875 56.4188,206.9844 L56.4188,209.7031 Q55.7938,209.125 55.2,208.8594 Q54.6063,208.5781 53.9813,208.5781 Q52.6375,208.5781 51.95,209.6563 Q51.2625,210.7188 51.2625,212.8125 Q51.2625,214.9063 51.95,215.9844 Q52.6375,217.0469 53.9813,217.0469 Q54.6063,217.0469 55.2,216.7813 Q55.7938,216.5 56.4188,215.9219 L56.4188,218.6406 Z "/><text fill="#000000" font-family="sans-serif" font-size="12" lengthAdjust="spacingAndGlyphs" textLength="235" x="67.55" y="217.1543">DisplayCommInterfaceImplementation</text><line style="stroke: #A80036; stroke-width: 1.5;" x1="39" x2="305" y1="229" y2="229"/><line style="stroke: #A80036; stroke-width: 1.5;" x1="39" x2="305" y1="237" y2="237"/><ellipse cx="49" cy="264.8047" fill="#84BE84" rx="3" ry="3" style="stroke: #038048; stroke-width: 1.0;"/><text fill="#000000" font-family="sans-serif" font-size="11" font-style="italic" lengthAdjust="spacingAndGlyphs" textLength="242" x="58" y="268.0151">TrackData receiveRfidRequest(int rfidNum)</text><line style="stroke: #A80036; stroke-width: 1.0; stroke-dasharray: 1.0,2.0;" x1="39" x2="139" y1="251.4023" y2="251.4023"/><text fill="#000000" font-family="sans-serif" font-size="11" lengthAdjust="spacingAndGlyphs" textLength="66" x="139" y="254.7104">Use Case 1</text><line style="stroke: #A80036; stroke-width: 1.0; stroke-dasharray: 1.0,2.0;" x1="205" x2="305" y1="251.4023" y2="251.4023"/><text fill="#000000" font-family="sans-serif" font-size="11" lengthAdjust="spacingAndGlyphs" textLength="0" x="48" y="297.6245"/><line style="stroke: #A80036; stroke-width: 1.0; stroke-dasharray: 1.0,2.0;" x1="39" x2="139" y1="281.0117" y2="281.0117"/><text fill="#000000" font-family="sans-serif" font-size="11" lengthAdjust="spacingAndGlyphs" textLength="66" x="139" y="284.3198">Use Case 2</text><line style="stroke: #A80036; stroke-width: 1.0; stroke-dasharray: 1.0,2.0;" x1="205" x2="305" y1="281.0117" y2="281.0117"/><!--MD5=[46657c2900260d4d40350fe3f8c544df]
class DisplayComm2WayInterfaceImplementation--><rect fill="#FEFECE" filter="url(#fmit7azwcgney)" height="103.2188" id="DisplayComm2WayInterfaceImplementation" style="stroke: #A80036; stroke-width: 1.5;" width="370" x="341" y="199"/><ellipse cx="387.75" cy="215" fill="#ADD1B2" rx="11" ry="11" style="stroke: #A80036; stroke-width: 1.0;"/><path d="M390.7188,220.6406 Q390.1406,220.9375 389.5,221.0781 Q388.8594,221.2344 388.1563,221.2344 Q385.6563,221.2344 384.3281,219.5938 Q383.0156,217.9375 383.0156,214.8125 Q383.0156,211.6875 384.3281,210.0313 Q385.6563,208.375 388.1563,208.375 Q388.8594,208.375 389.5,208.5313 Q390.1563,208.6875 390.7188,208.9844 L390.7188,211.7031 Q390.0938,211.125 389.5,210.8594 Q388.9063,210.5781 388.2813,210.5781 Q386.9375,210.5781 386.25,211.6563 Q385.5625,212.7188 385.5625,214.8125 Q385.5625,216.9063 386.25,217.9844 Q386.9375,219.0469 388.2813,219.0469 Q388.9063,219.0469 389.5,218.7813 Q390.0938,218.5 390.7188,217.9219 L390.7188,220.6406 Z "/><text fill="#000000" font-family="sans-serif" font-size="12" lengthAdjust="spacingAndGlyphs" textLength="268" x="408.25" y="219.1543">DisplayComm2WayInterfaceImplementation</text><line style="stroke: #A80036; stroke-width: 1.5;" x1="342" x2="710" y1="231" y2="231"/><line style="stroke: #A80036; stroke-width: 1.5;" x1="342" x2="710" y1="239" y2="239"/><ellipse cx="352" cy="266.8047" fill="#84BE84" rx="3" ry="3" style="stroke: #038048; stroke-width: 1.0;"/><text fill="#000000" font-family="sans-serif" font-size="11" font-style="italic" lengthAdjust="spacingAndGlyphs" textLength="226" x="361" y="270.0151">TrackData passRfidRequest(int rfidNum)</text><ellipse cx="352" cy="279.6094" fill="#84BE84" rx="3" ry="3" style="stroke: #038048; stroke-width: 1.0;"/><text fill="#000000" font-family="sans-serif" font-size="11" font-style="italic" lengthAdjust="spacingAndGlyphs" textLength="269" x="361" y="282.8198">void determineUserRequestFormat(int rfidNum)</text><ellipse cx="352" cy="292.4141" fill="#84BE84" rx="3" ry="3" style="stroke: #038048; stroke-width: 1.0;"/><text fill="#000000" font-family="sans-serif" font-size="11" font-style="italic" lengthAdjust="spacingAndGlyphs" textLength="344" x="361" y="295.6245">void receiveRequestFromDisplayCommInterface(int rfidNum)</text><line style="stroke: #A80036; stroke-width: 1.0; stroke-dasharray: 1.0,2.0;" x1="342" x2="493" y1="253.4023" y2="253.4023"/><text fill="#000000" font-family="sans-serif" font-size="11" lengthAdjust="spacingAndGlyphs" textLength="66" x="493" y="256.7104">Use Case 1</text><line style="stroke: #A80036; stroke-width: 1.0; stroke-dasharray: 1.0,2.0;" x1="559" x2="710" y1="253.4023" y2="253.4023"/><!--MD5=[3a27b63ddb357afc5dde5581215f51f9]
class DisplayCommManagerImplementation--><rect fill="#FEFECE" filter="url(#fmit7azwcgney)" height="107.2188" id="DisplayCommManagerImplementation" style="stroke: #A80036; stroke-width: 1.5;" width="266" x="746" y="197"/><ellipse cx="761" cy="213" fill="#ADD1B2" rx="11" ry="11" style="stroke: #A80036; stroke-width: 1.0;"/><path d="M763.9688,218.6406 Q763.3906,218.9375 762.75,219.0781 Q762.1094,219.2344 761.4063,219.2344 Q758.9063,219.2344 757.5781,217.5938 Q756.2656,215.9375 756.2656,212.8125 Q756.2656,209.6875 757.5781,208.0313 Q758.9063,206.375 761.4063,206.375 Q762.1094,206.375 762.75,206.5313 Q763.4063,206.6875 763.9688,206.9844 L763.9688,209.7031 Q763.3438,209.125 762.75,208.8594 Q762.1563,208.5781 761.5313,208.5781 Q760.1875,208.5781 759.5,209.6563 Q758.8125,210.7188 758.8125,212.8125 Q758.8125,214.9063 759.5,215.9844 Q760.1875,217.0469 761.5313,217.0469 Q762.1563,217.0469 762.75,216.7813 Q763.3438,216.5 763.9688,215.9219 L763.9688,218.6406 Z "/><text fill="#000000" font-family="sans-serif" font-size="12" lengthAdjust="spacingAndGlyphs" textLength="234" x="775" y="217.1543">DisplayCommManagerImplementation</text><line style="stroke: #A80036; stroke-width: 1.5;" x1="747" x2="1011" y1="229" y2="229"/><line style="stroke: #A80036; stroke-width: 1.5;" x1="747" x2="1011" y1="237" y2="237"/><text fill="#000000" font-family="sans-serif" font-size="11" lengthAdjust="spacingAndGlyphs" textLength="0" x="756" y="268.0151"/><line style="stroke: #A80036; stroke-width: 1.0; stroke-dasharray: 1.0,2.0;" x1="747" x2="846" y1="251.4023" y2="251.4023"/><text fill="#000000" font-family="sans-serif" font-size="11" lengthAdjust="spacingAndGlyphs" textLength="66" x="846" y="254.7104">Use Case 1</text><line style="stroke: #A80036; stroke-width: 1.0; stroke-dasharray: 1.0,2.0;" x1="912" x2="1011" y1="251.4023" y2="251.4023"/><text fill="#000000" font-family="sans-serif" font-size="11" lengthAdjust="spacingAndGlyphs" textLength="0" x="756" y="297.6245"/><line style="stroke: #A80036; stroke-width: 1.0; stroke-dasharray: 1.0,2.0;" x1="747" x2="846" y1="281.0117" y2="281.0117"/><text fill="#000000" font-family="sans-serif" font-size="11" lengthAdjust="spacingAndGlyphs" textLength="66" x="846" y="284.3198">Use Case 2</text><line style="stroke: #A80036; stroke-width: 1.0; stroke-dasharray: 1.0,2.0;" x1="912" x2="1011" y1="281.0117" y2="281.0117"/><!--MD5=[77bc37423dd8876786830fad4054e33b]
reverse link DisplayCommInterface to DisplayCommInterfaceImplementation--><path d="M172,157.51 C172,170.43 172,184.05 172,196.72 " fill="none" id="DisplayCommInterface&lt;-DisplayCommInterfaceImplementation" style="stroke: #A80036; stroke-width: 1.0; stroke-dasharray: 7.0,7.0;"/><polygon fill="none" points="165,157.37,172,137.37,179,157.37,165,157.37" style="stroke: #A80036; stroke-width: 1.0;"/><!--MD5=[4e991cf787e933c55089f97eae394828]
reverse link DisplayComm2WayInterface to DisplayComm2WayInterfaceImplementation--><path d="M526,157.84 C526,171.43 526,185.78 526,198.98 " fill="none" id="DisplayComm2WayInterface&lt;-DisplayComm2WayInterfaceImplementation" style="stroke: #A80036; stroke-width: 1.0; stroke-dasharray: 7.0,7.0;"/><polygon fill="none" points="519,157.37,526,137.37,533,157.37,519,157.37" style="stroke: #A80036; stroke-width: 1.0;"/><!--MD5=[5beed6c3c7e4a84a4bfaa95bdf8cce79]
reverse link DisplayCommManager to DisplayCommManagerImplementation--><path d="M875.94,157.51 C876.37,170.43 876.83,184.05 877.25,196.72 " fill="none" id="DisplayCommManager&lt;-DisplayCommManagerImplementation" style="stroke: #A80036; stroke-width: 1.0; stroke-dasharray: 7.0,7.0;"/><polygon fill="none" points="868.94,157.59,875.27,137.37,882.93,157.12,868.94,157.59" style="stroke: #A80036; stroke-width: 1.0;"/><!--MD5=[3464ba2fa9f366e6db71b2dbc3ad17b4]
@startuml Display02ProductionPackage_InternalDependencies

package edu.oakland.production.display02 {
    
}


package edu.oakland.production.display02 {
    interface DisplayCommInterface {
        __
        .. Use Case 1 ..
        {abstract} + TrackData receiveRfidRequest(int rfidNum)
    }
}


package edu.oakland.production.display02 {
    interface DisplayComm2WayInterface {
        __
        .. Use Case 1 ..
        {abstract} + TrackData passRfidRequest(int rfidNum)
    }
}


package edu.oakland.production.display02 {
    interface DisplayCommManager {
        __
        .. Use Case 1 ..
        {abstract} + TrackData evaluateRfidRequest(int rfidNum)
    }
}


package edu.oakland.production.display02 {
    class DisplayCommInterfaceImplementation {
        __
        .. Use Case 1 ..
        {abstract} + TrackData receiveRfidRequest(int rfidNum)
        .. Use Case 2 ..

    }
}


DisplayCommInterfaceImplementation .up.|> DisplayCommInterface

package edu.oakland.production.display02 {
    class DisplayComm2WayInterfaceImplementation {
        __
        .. Use Case 1 ..
        {abstract} + TrackData passRfidRequest(int rfidNum)
        {abstract} + void determineUserRequestFormat(int rfidNum)
        {abstract} + void receiveRequestFromDisplayCommInterface(int rfidNum)
    }
}


DisplayComm2WayInterfaceImplementation .up.|> DisplayComm2WayInterface

package edu.oakland.production.display02 {
    class DisplayCommManagerImplementation {
        __
        .. Use Case 1 ..

        .. Use Case 2 ..

    }
}


DisplayCommManagerImplementation .up.|> DisplayCommManager

@enduml

PlantUML version 1.2020.02(Sun Mar 01 10:22:07 GMT 2020)
(GPL source distribution)
Java Runtime: OpenJDK Runtime Environment
JVM: OpenJDK 64-Bit Server VM
Java Version: 11.0.9+11-Ubuntu-0ubuntu1
Operating System: Linux
Default Encoding: ANSI_X3.4-1968
Language: en
Country: US
--></g></svg>