<?xml version="1.0" encoding="UTF-8" standalone="no"?><svg xmlns="http://www.w3.org/2000/svg" xmlns:xlink="http://www.w3.org/1999/xlink" contentScriptType="application/ecmascript" contentStyleType="text/css" height="371px" preserveAspectRatio="none" style="width:1230px;height:371px;" version="1.1" viewBox="0 0 1230 371" width="1230px" zoomAndPan="magnify"><defs><filter height="300%" id="f1sozcikxzsl1y" width="300%" x="-1" y="-1"><feGaussianBlur result="blurOut" stdDeviation="2.0"/><feColorMatrix in="blurOut" result="blurOut2" type="matrix" values="0 0 0 0 0 0 0 0 0 0 0 0 0 0 0 0 0 0 .4 0"/><feOffset dx="4.0" dy="4.0" in="blurOut2" result="blurOut3"/><feBlend in="SourceGraphic" in2="blurOut3" mode="normal"/></filter></defs><g><!--MD5=[fe59aae6f7bfe371a9c197ec1f7f843a]
cluster edu.oakland.production.display02--><polygon fill="#FFFFFF" filter="url(#f1sozcikxzsl1y)" points="22,24,295,24,302,46.2969,1208,46.2969,1208,359,22,359,22,24" style="stroke: #000000; stroke-width: 1.5;"/><line style="stroke: #000000; stroke-width: 1.5;" x1="22" x2="302" y1="46.2969" y2="46.2969"/><text fill="#000000" font-family="sans-serif" font-size="14" font-weight="bold" lengthAdjust="spacingAndGlyphs" textLength="267" x="26" y="38.9951">edu.oakland.production.display02</text><!--MD5=[c8d1e3134fecb0c949fd2a76cc0bb992]
class DisplayCommInterface--><rect fill="#FEFECE" filter="url(#f1sozcikxzsl1y)" height="77.6094" id="DisplayCommInterface" style="stroke: #A80036; stroke-width: 1.5;" width="268" x="63" y="59"/><ellipse cx="123.25" cy="75" fill="#B4A7E5" rx="11" ry="11" style="stroke: #A80036; stroke-width: 1.0;"/><path d="M119.1719,70.7656 L119.1719,68.6094 L126.5625,68.6094 L126.5625,70.7656 L124.0938,70.7656 L124.0938,78.8438 L126.5625,78.8438 L126.5625,81 L119.1719,81 L119.1719,78.8438 L121.6406,78.8438 L121.6406,70.7656 L119.1719,70.7656 Z "/><text fill="#000000" font-family="sans-serif" font-size="12" font-style="italic" lengthAdjust="spacingAndGlyphs" textLength="139" x="143.75" y="79.1543">DisplayCommInterface</text><line style="stroke: #A80036; stroke-width: 1.5;" x1="64" x2="330" y1="91" y2="91"/><line style="stroke: #A80036; stroke-width: 1.5;" x1="64" x2="330" y1="99" y2="99"/><ellipse cx="74" cy="126.8047" fill="#84BE84" rx="3" ry="3" style="stroke: #038048; stroke-width: 1.0;"/><text fill="#000000" font-family="sans-serif" font-size="11" font-style="italic" lengthAdjust="spacingAndGlyphs" textLength="242" x="83" y="130.0151">TrackData receiveRfidRequest(int rfidNum)</text><line style="stroke: #A80036; stroke-width: 1.0; stroke-dasharray: 1.0,2.0;" x1="64" x2="164" y1="113.4023" y2="113.4023"/><text fill="#000000" font-family="sans-serif" font-size="11" lengthAdjust="spacingAndGlyphs" textLength="66" x="164" y="116.7104">Use Case 1</text><line style="stroke: #A80036; stroke-width: 1.0; stroke-dasharray: 1.0,2.0;" x1="230" x2="330" y1="113.4023" y2="113.4023"/><!--MD5=[f6b51b5f862da5ce226c62e411e84628]
class DisplayComm2WayInterface--><rect fill="#FEFECE" filter="url(#f1sozcikxzsl1y)" height="77.6094" id="DisplayComm2WayInterface" style="stroke: #A80036; stroke-width: 1.5;" width="252" x="450" y="59"/><ellipse cx="485.7" cy="75" fill="#B4A7E5" rx="11" ry="11" style="stroke: #A80036; stroke-width: 1.0;"/><path d="M481.6219,70.7656 L481.6219,68.6094 L489.0125,68.6094 L489.0125,70.7656 L486.5438,70.7656 L486.5438,78.8438 L489.0125,78.8438 L489.0125,81 L481.6219,81 L481.6219,78.8438 L484.0906,78.8438 L484.0906,70.7656 L481.6219,70.7656 Z "/><text fill="#000000" font-family="sans-serif" font-size="12" font-style="italic" lengthAdjust="spacingAndGlyphs" textLength="174" x="504.3" y="79.1543">DisplayComm2WayInterface</text><line style="stroke: #A80036; stroke-width: 1.5;" x1="451" x2="701" y1="91" y2="91"/><line style="stroke: #A80036; stroke-width: 1.5;" x1="451" x2="701" y1="99" y2="99"/><ellipse cx="461" cy="126.8047" fill="#84BE84" rx="3" ry="3" style="stroke: #038048; stroke-width: 1.0;"/><text fill="#000000" font-family="sans-serif" font-size="11" font-style="italic" lengthAdjust="spacingAndGlyphs" textLength="226" x="470" y="130.0151">TrackData passRfidRequest(int rfidNum)</text><line style="stroke: #A80036; stroke-width: 1.0; stroke-dasharray: 1.0,2.0;" x1="451" x2="543" y1="113.4023" y2="113.4023"/><text fill="#000000" font-family="sans-serif" font-size="11" lengthAdjust="spacingAndGlyphs" textLength="66" x="543" y="116.7104">Use Case 1</text><line style="stroke: #A80036; stroke-width: 1.0; stroke-dasharray: 1.0,2.0;" x1="609" x2="701" y1="113.4023" y2="113.4023"/><!--MD5=[6aeb72f2773d7cabb45309482beeff0a]
class DisplayCommManager--><rect fill="#FEFECE" filter="url(#f1sozcikxzsl1y)" height="77.6094" id="DisplayCommManager" style="stroke: #A80036; stroke-width: 1.5;" width="275" x="856.5" y="59"/><ellipse cx="921.25" cy="75" fill="#B4A7E5" rx="11" ry="11" style="stroke: #A80036; stroke-width: 1.0;"/><path d="M917.1719,70.7656 L917.1719,68.6094 L924.5625,68.6094 L924.5625,70.7656 L922.0938,70.7656 L922.0938,78.8438 L924.5625,78.8438 L924.5625,81 L917.1719,81 L917.1719,78.8438 L919.6406,78.8438 L919.6406,70.7656 L917.1719,70.7656 Z "/><text fill="#000000" font-family="sans-serif" font-size="12" font-style="italic" lengthAdjust="spacingAndGlyphs" textLength="137" x="941.75" y="79.1543">DisplayCommManager</text><line style="stroke: #A80036; stroke-width: 1.5;" x1="857.5" x2="1130.5" y1="91" y2="91"/><line style="stroke: #A80036; stroke-width: 1.5;" x1="857.5" x2="1130.5" y1="99" y2="99"/><ellipse cx="867.5" cy="126.8047" fill="#84BE84" rx="3" ry="3" style="stroke: #038048; stroke-width: 1.0;"/><text fill="#000000" font-family="sans-serif" font-size="11" font-style="italic" lengthAdjust="spacingAndGlyphs" textLength="249" x="876.5" y="130.0151">TrackData evaluateRfidRequest(int rfidNum)</text><line style="stroke: #A80036; stroke-width: 1.0; stroke-dasharray: 1.0,2.0;" x1="857.5" x2="961" y1="113.4023" y2="113.4023"/><text fill="#000000" font-family="sans-serif" font-size="11" lengthAdjust="spacingAndGlyphs" textLength="66" x="961" y="116.7104">Use Case 1</text><line style="stroke: #A80036; stroke-width: 1.0; stroke-dasharray: 1.0,2.0;" x1="1027" x2="1130.5" y1="113.4023" y2="113.4023"/><!--MD5=[a35092e604da7274febf4e2cf9a25087]
class DisplayCommInterfaceImplementation--><rect fill="#FEFECE" filter="url(#f1sozcikxzsl1y)" height="120.0234" id="DisplayCommInterfaceImplementation" style="stroke: #A80036; stroke-width: 1.5;" width="317" x="38.5" y="210"/><ellipse cx="76" cy="226" fill="#ADD1B2" rx="11" ry="11" style="stroke: #A80036; stroke-width: 1.0;"/><path d="M78.9688,231.6406 Q78.3906,231.9375 77.75,232.0781 Q77.1094,232.2344 76.4063,232.2344 Q73.9063,232.2344 72.5781,230.5938 Q71.2656,228.9375 71.2656,225.8125 Q71.2656,222.6875 72.5781,221.0313 Q73.9063,219.375 76.4063,219.375 Q77.1094,219.375 77.75,219.5313 Q78.4063,219.6875 78.9688,219.9844 L78.9688,222.7031 Q78.3438,222.125 77.75,221.8594 Q77.1563,221.5781 76.5313,221.5781 Q75.1875,221.5781 74.5,222.6563 Q73.8125,223.7188 73.8125,225.8125 Q73.8125,227.9063 74.5,228.9844 Q75.1875,230.0469 76.5313,230.0469 Q77.1563,230.0469 77.75,229.7813 Q78.3438,229.5 78.9688,228.9219 L78.9688,231.6406 Z "/><text fill="#000000" font-family="sans-serif" font-size="12" lengthAdjust="spacingAndGlyphs" textLength="235" x="95" y="230.1543">DisplayCommInterfaceImplementation</text><line style="stroke: #A80036; stroke-width: 1.5;" x1="39.5" x2="354.5" y1="242" y2="242"/><line style="stroke: #A80036; stroke-width: 1.5;" x1="39.5" x2="354.5" y1="250" y2="250"/><ellipse cx="49.5" cy="277.8047" fill="#84BE84" rx="3" ry="3" style="stroke: #038048; stroke-width: 1.0;"/><text fill="#000000" font-family="sans-serif" font-size="11" font-style="italic" lengthAdjust="spacingAndGlyphs" textLength="242" x="58.5" y="281.0151">TrackData receiveRfidRequest(int rfidNum)</text><ellipse cx="49.5" cy="290.6094" fill="#84BE84" rx="3" ry="3" style="stroke: #038048; stroke-width: 1.0;"/><text fill="#000000" font-family="sans-serif" font-size="11" font-style="italic" lengthAdjust="spacingAndGlyphs" textLength="291" x="58.5" y="293.8198">TrackData passToComm2WayInterface(int rfidNum)</text><line style="stroke: #A80036; stroke-width: 1.0; stroke-dasharray: 1.0,2.0;" x1="39.5" x2="164" y1="264.4023" y2="264.4023"/><text fill="#000000" font-family="sans-serif" font-size="11" lengthAdjust="spacingAndGlyphs" textLength="66" x="164" y="267.7104">Use Case 1</text><line style="stroke: #A80036; stroke-width: 1.0; stroke-dasharray: 1.0,2.0;" x1="230" x2="354.5" y1="264.4023" y2="264.4023"/><text fill="#000000" font-family="sans-serif" font-size="11" lengthAdjust="spacingAndGlyphs" textLength="0" x="48.5" y="323.4292"/><line style="stroke: #A80036; stroke-width: 1.0; stroke-dasharray: 1.0,2.0;" x1="39.5" x2="164" y1="306.8164" y2="306.8164"/><text fill="#000000" font-family="sans-serif" font-size="11" lengthAdjust="spacingAndGlyphs" textLength="66" x="164" y="310.1245">Use Case 2</text><line style="stroke: #A80036; stroke-width: 1.0; stroke-dasharray: 1.0,2.0;" x1="230" x2="354.5" y1="306.8164" y2="306.8164"/><!--MD5=[46657c2900260d4d40350fe3f8c544df]
class DisplayComm2WayInterfaceImplementation--><rect fill="#FEFECE" filter="url(#f1sozcikxzsl1y)" height="103.2188" id="DisplayComm2WayInterfaceImplementation" style="stroke: #A80036; stroke-width: 1.5;" width="370" x="391" y="218.5"/><ellipse cx="437.75" cy="234.5" fill="#ADD1B2" rx="11" ry="11" style="stroke: #A80036; stroke-width: 1.0;"/><path d="M440.7188,240.1406 Q440.1406,240.4375 439.5,240.5781 Q438.8594,240.7344 438.1563,240.7344 Q435.6563,240.7344 434.3281,239.0938 Q433.0156,237.4375 433.0156,234.3125 Q433.0156,231.1875 434.3281,229.5313 Q435.6563,227.875 438.1563,227.875 Q438.8594,227.875 439.5,228.0313 Q440.1563,228.1875 440.7188,228.4844 L440.7188,231.2031 Q440.0938,230.625 439.5,230.3594 Q438.9063,230.0781 438.2813,230.0781 Q436.9375,230.0781 436.25,231.1563 Q435.5625,232.2188 435.5625,234.3125 Q435.5625,236.4063 436.25,237.4844 Q436.9375,238.5469 438.2813,238.5469 Q438.9063,238.5469 439.5,238.2813 Q440.0938,238 440.7188,237.4219 L440.7188,240.1406 Z "/><text fill="#000000" font-family="sans-serif" font-size="12" lengthAdjust="spacingAndGlyphs" textLength="268" x="458.25" y="238.6543">DisplayComm2WayInterfaceImplementation</text><line style="stroke: #A80036; stroke-width: 1.5;" x1="392" x2="760" y1="250.5" y2="250.5"/><line style="stroke: #A80036; stroke-width: 1.5;" x1="392" x2="760" y1="258.5" y2="258.5"/><ellipse cx="402" cy="286.3047" fill="#84BE84" rx="3" ry="3" style="stroke: #038048; stroke-width: 1.0;"/><text fill="#000000" font-family="sans-serif" font-size="11" font-style="italic" lengthAdjust="spacingAndGlyphs" textLength="226" x="411" y="289.5151">TrackData passRfidRequest(int rfidNum)</text><ellipse cx="402" cy="299.1094" fill="#84BE84" rx="3" ry="3" style="stroke: #038048; stroke-width: 1.0;"/><text fill="#000000" font-family="sans-serif" font-size="11" font-style="italic" lengthAdjust="spacingAndGlyphs" textLength="269" x="411" y="302.3198">void determineUserRequestFormat(int rfidNum)</text><ellipse cx="402" cy="311.9141" fill="#84BE84" rx="3" ry="3" style="stroke: #038048; stroke-width: 1.0;"/><text fill="#000000" font-family="sans-serif" font-size="11" font-style="italic" lengthAdjust="spacingAndGlyphs" textLength="344" x="411" y="315.1245">void receiveRequestFromDisplayCommInterface(int rfidNum)</text><line style="stroke: #A80036; stroke-width: 1.0; stroke-dasharray: 1.0,2.0;" x1="392" x2="543" y1="272.9023" y2="272.9023"/><text fill="#000000" font-family="sans-serif" font-size="11" lengthAdjust="spacingAndGlyphs" textLength="66" x="543" y="276.2104">Use Case 1</text><line style="stroke: #A80036; stroke-width: 1.0; stroke-dasharray: 1.0,2.0;" x1="609" x2="760" y1="272.9023" y2="272.9023"/><!--MD5=[3a27b63ddb357afc5dde5581215f51f9]
class DisplayCommManagerImplementation--><rect fill="#FEFECE" filter="url(#f1sozcikxzsl1y)" height="145.6328" id="DisplayCommManagerImplementation" style="stroke: #A80036; stroke-width: 1.5;" width="395" x="796.5" y="197"/><ellipse cx="872.75" cy="213" fill="#ADD1B2" rx="11" ry="11" style="stroke: #A80036; stroke-width: 1.0;"/><path d="M875.7188,218.6406 Q875.1406,218.9375 874.5,219.0781 Q873.8594,219.2344 873.1563,219.2344 Q870.6563,219.2344 869.3281,217.5938 Q868.0156,215.9375 868.0156,212.8125 Q868.0156,209.6875 869.3281,208.0313 Q870.6563,206.375 873.1563,206.375 Q873.8594,206.375 874.5,206.5313 Q875.1563,206.6875 875.7188,206.9844 L875.7188,209.7031 Q875.0938,209.125 874.5,208.8594 Q873.9063,208.5781 873.2813,208.5781 Q871.9375,208.5781 871.25,209.6563 Q870.5625,210.7188 870.5625,212.8125 Q870.5625,214.9063 871.25,215.9844 Q871.9375,217.0469 873.2813,217.0469 Q873.9063,217.0469 874.5,216.7813 Q875.0938,216.5 875.7188,215.9219 L875.7188,218.6406 Z "/><text fill="#000000" font-family="sans-serif" font-size="12" lengthAdjust="spacingAndGlyphs" textLength="234" x="893.25" y="217.1543">DisplayCommManagerImplementation</text><line style="stroke: #A80036; stroke-width: 1.5;" x1="797.5" x2="1190.5" y1="229" y2="229"/><line style="stroke: #A80036; stroke-width: 1.5;" x1="797.5" x2="1190.5" y1="237" y2="237"/><ellipse cx="807.5" cy="264.8047" fill="#84BE84" rx="3" ry="3" style="stroke: #038048; stroke-width: 1.0;"/><text fill="#000000" font-family="sans-serif" font-size="11" font-style="italic" lengthAdjust="spacingAndGlyphs" textLength="249" x="816.5" y="268.0151">TrackData evaluateRfidRequest(int rfidNum)</text><ellipse cx="807.5" cy="277.6094" fill="#84BE84" rx="3" ry="3" style="stroke: #038048; stroke-width: 1.0;"/><text fill="#000000" font-family="sans-serif" font-size="11" font-style="italic" lengthAdjust="spacingAndGlyphs" textLength="369" x="816.5" y="280.8198">TrackData passRequestToMiddlewareCommInterface(int rfidNum)</text><ellipse cx="807.5" cy="290.4141" fill="#84BE84" rx="3" ry="3" style="stroke: #038048; stroke-width: 1.0;"/><text fill="#000000" font-family="sans-serif" font-size="11" font-style="italic" lengthAdjust="spacingAndGlyphs" textLength="339" x="816.5" y="293.6245">void receiveRequestFromDisplay2WayInterface(int rfidNum)</text><text fill="#000000" font-family="sans-serif" font-size="11" lengthAdjust="spacingAndGlyphs" textLength="0" x="820.5" y="306.4292"/><line style="stroke: #A80036; stroke-width: 1.0; stroke-dasharray: 1.0,2.0;" x1="797.5" x2="961" y1="251.4023" y2="251.4023"/><text fill="#000000" font-family="sans-serif" font-size="11" lengthAdjust="spacingAndGlyphs" textLength="66" x="961" y="254.7104">Use Case 1</text><line style="stroke: #A80036; stroke-width: 1.0; stroke-dasharray: 1.0,2.0;" x1="1027" x2="1190.5" y1="251.4023" y2="251.4023"/><text fill="#000000" font-family="sans-serif" font-size="11" lengthAdjust="spacingAndGlyphs" textLength="0" x="806.5" y="336.0386"/><line style="stroke: #A80036; stroke-width: 1.0; stroke-dasharray: 1.0,2.0;" x1="797.5" x2="961" y1="319.4258" y2="319.4258"/><text fill="#000000" font-family="sans-serif" font-size="11" lengthAdjust="spacingAndGlyphs" textLength="66" x="961" y="322.7339">Use Case 2</text><line style="stroke: #A80036; stroke-width: 1.0; stroke-dasharray: 1.0,2.0;" x1="1027" x2="1190.5" y1="319.4258" y2="319.4258"/><!--MD5=[77bc37423dd8876786830fad4054e33b]
reverse link DisplayCommInterface to DisplayCommInterfaceImplementation--><path d="M197,157.26 C197,174.28 197,192.88 197,209.95 " fill="none" id="DisplayCommInterface&lt;-DisplayCommInterfaceImplementation" style="stroke: #A80036; stroke-width: 1.0; stroke-dasharray: 7.0,7.0;"/><polygon fill="none" points="190,157.15,197,137.15,204,157.15,190,157.15" style="stroke: #A80036; stroke-width: 1.0;"/><!--MD5=[4e991cf787e933c55089f97eae394828]
reverse link DisplayComm2WayInterface to DisplayComm2WayInterfaceImplementation--><path d="M576,157.25 C576,177.12 576,199.17 576,218.4 " fill="none" id="DisplayComm2WayInterface&lt;-DisplayComm2WayInterfaceImplementation" style="stroke: #A80036; stroke-width: 1.0; stroke-dasharray: 7.0,7.0;"/><polygon fill="none" points="569,157.15,576,137.15,583,157.15,569,157.15" style="stroke: #A80036; stroke-width: 1.0;"/><!--MD5=[5beed6c3c7e4a84a4bfaa95bdf8cce79]
reverse link DisplayCommManager to DisplayCommManagerImplementation--><path d="M994,157.43 C994,170.11 994,183.67 994,196.81 " fill="none" id="DisplayCommManager&lt;-DisplayCommManagerImplementation" style="stroke: #A80036; stroke-width: 1.0; stroke-dasharray: 7.0,7.0;"/><polygon fill="none" points="987,157.15,994,137.15,1001,157.15,987,157.15" style="stroke: #A80036; stroke-width: 1.0;"/><!--MD5=[d4ac120e0c43e9e7a90f9946b8c64709]
@startuml Display02ProductionPackage_DirectDependencies

package edu.oakland.production.display02 {
    
}


package edu.oakland.production.display02 {
    
}


package edu.oakland.production.display02 {
    interface DisplayCommInterface {
        __
        .. Use Case 1 ..
        {abstract} + TrackData receiveRfidRequest(int rfidNum)
    }
}


package edu.oakland.production.display02 {
    interface DisplayComm2WayInterface {
        __
        .. Use Case 1 ..
        {abstract} + TrackData passRfidRequest(int rfidNum)
    }
}


package edu.oakland.production.display02 {
    interface DisplayCommManager {
        __
        .. Use Case 1 ..
        {abstract} + TrackData evaluateRfidRequest(int rfidNum)
    }
}


package edu.oakland.production.display02 {
    class DisplayCommInterfaceImplementation {
        __
        .. Use Case 1 ..
        {abstract} + TrackData receiveRfidRequest(int rfidNum)
        {abstract} + TrackData passToComm2WayInterface(int rfidNum)
        .. Use Case 2 ..

    }
}


DisplayCommInterfaceImplementation .up.|> DisplayCommInterface

package edu.oakland.production.display02 {
    class DisplayComm2WayInterfaceImplementation {
        __
        .. Use Case 1 ..
        {abstract} + TrackData passRfidRequest(int rfidNum)
        {abstract} + void determineUserRequestFormat(int rfidNum)
        {abstract} + void receiveRequestFromDisplayCommInterface(int rfidNum)
    }
}


DisplayComm2WayInterfaceImplementation .up.|> DisplayComm2WayInterface

package edu.oakland.production.display02 {
    class DisplayCommManagerImplementation {
        __
        .. Use Case 1 ..
        {abstract} + TrackData evaluateRfidRequest(int rfidNum)
        {abstract} + TrackData passRequestToMiddlewareCommInterface(int rfidNum)
        {abstract} + void receiveRequestFromDisplay2WayInterface(int rfidNum)

        .. Use Case 2 ..

    }
}


DisplayCommManagerImplementation .up.|> DisplayCommManager















@enduml

PlantUML version 1.2020.02(Sun Mar 01 10:22:07 GMT 2020)
(GPL source distribution)
Java Runtime: OpenJDK Runtime Environment
JVM: OpenJDK 64-Bit Server VM
Java Version: 11.0.9+11-Ubuntu-0ubuntu1
Operating System: Linux
Default Encoding: ANSI_X3.4-1968
Language: en
Country: US
--></g></svg>