<?xml version="1.0" encoding="UTF-8" standalone="no"?><svg xmlns="http://www.w3.org/2000/svg" xmlns:xlink="http://www.w3.org/1999/xlink" contentScriptType="application/ecmascript" contentStyleType="text/css" height="135px" preserveAspectRatio="none" style="width:292px;height:135px;" version="1.1" viewBox="0 0 292 135" width="292px" zoomAndPan="magnify"><defs><filter height="300%" id="fs740er7bg0m7" width="300%" x="-1" y="-1"><feGaussianBlur result="blurOut" stdDeviation="2.0"/><feColorMatrix in="blurOut" result="blurOut2" type="matrix" values="0 0 0 0 0 0 0 0 0 0 0 0 0 0 0 0 0 0 .4 0"/><feOffset dx="4.0" dy="4.0" in="blurOut2" result="blurOut3"/><feBlend in="SourceGraphic" in2="blurOut3" mode="normal"/></filter></defs><g><!--MD5=[a502031b5a5384de0a21e6ee820fd3b2]
cluster edu.oakland.helper.display02--><polygon fill="#FFFFFF" filter="url(#fs740er7bg0m7)" points="22,24,260,24,267,46.2969,270,46.2969,270,123,22,123,22,24" style="stroke: #000000; stroke-width: 1.5;"/><line style="stroke: #000000; stroke-width: 1.5;" x1="22" x2="267" y1="46.2969" y2="46.2969"/><text fill="#000000" font-family="sans-serif" font-size="14" font-weight="bold" lengthAdjust="spacingAndGlyphs" textLength="232" x="26" y="38.9951">edu.oakland.helper.display02</text><!--MD5=[c986427b061286eff33e87a088ad4bf9]
class TrackDataPlotter--><rect fill="#FEFECE" filter="url(#fs740er7bg0m7)" height="48" id="TrackDataPlotter" style="stroke: #A80036; stroke-width: 1.5;" width="138" x="77" y="59"/><ellipse cx="92" cy="75" fill="#ADD1B2" rx="11" ry="11" style="stroke: #A80036; stroke-width: 1.0;"/><path d="M94.9688,80.6406 Q94.3906,80.9375 93.75,81.0781 Q93.1094,81.2344 92.4063,81.2344 Q89.9063,81.2344 88.5781,79.5938 Q87.2656,77.9375 87.2656,74.8125 Q87.2656,71.6875 88.5781,70.0313 Q89.9063,68.375 92.4063,68.375 Q93.1094,68.375 93.75,68.5313 Q94.4063,68.6875 94.9688,68.9844 L94.9688,71.7031 Q94.3438,71.125 93.75,70.8594 Q93.1563,70.5781 92.5313,70.5781 Q91.1875,70.5781 90.5,71.6563 Q89.8125,72.7188 89.8125,74.8125 Q89.8125,76.9063 90.5,77.9844 Q91.1875,79.0469 92.5313,79.0469 Q93.1563,79.0469 93.75,78.7813 Q94.3438,78.5 94.9688,77.9219 L94.9688,80.6406 Z "/><text fill="#000000" font-family="sans-serif" font-size="12" lengthAdjust="spacingAndGlyphs" textLength="106" x="106" y="79.1543">TrackDataPlotter</text><line style="stroke: #A80036; stroke-width: 1.5;" x1="78" x2="214" y1="91" y2="91"/><line style="stroke: #A80036; stroke-width: 1.5;" x1="78" x2="214" y1="99" y2="99"/><!--MD5=[aca0675aef8c0ccc173d6fb64ac23145]
@startuml TrackDataPlotter

package edu.oakland.helper.display02 {
    class TrackDataPlotter {
        
    }
}

@enduml

PlantUML version 1.2020.02(Sun Mar 01 10:22:07 GMT 2020)
(GPL source distribution)
Java Runtime: OpenJDK Runtime Environment
JVM: OpenJDK 64-Bit Server VM
Java Version: 11.0.9+11-Ubuntu-0ubuntu1
Operating System: Linux
Default Encoding: ANSI_X3.4-1968
Language: en
Country: US
--></g></svg>