<?xml version="1.0" encoding="UTF-8" standalone="no"?><svg xmlns="http://www.w3.org/2000/svg" xmlns:xlink="http://www.w3.org/1999/xlink" contentScriptType="application/ecmascript" contentStyleType="text/css" height="331px" preserveAspectRatio="none" style="width:378px;height:331px;" version="1.1" viewBox="0 0 378 331" width="378px" zoomAndPan="magnify"><defs><filter height="300%" id="f1dqz1a25qtpoj" width="300%" x="-1" y="-1"><feGaussianBlur result="blurOut" stdDeviation="2.0"/><feColorMatrix in="blurOut" result="blurOut2" type="matrix" values="0 0 0 0 0 0 0 0 0 0 0 0 0 0 0 0 0 0 .4 0"/><feOffset dx="4.0" dy="4.0" in="blurOut2" result="blurOut3"/><feBlend in="SourceGraphic" in2="blurOut3" mode="normal"/></filter></defs><g><!--MD5=[a502031b5a5384de0a21e6ee820fd3b2]
cluster edu.oakland.helper.display02--><polygon fill="#FFFFFF" filter="url(#f1dqz1a25qtpoj)" points="22,24,260,24,267,46.2969,356,46.2969,356,319,22,319,22,24" style="stroke: #000000; stroke-width: 1.5;"/><line style="stroke: #000000; stroke-width: 1.5;" x1="22" x2="267" y1="46.2969" y2="46.2969"/><text fill="#000000" font-family="sans-serif" font-size="14" font-weight="bold" lengthAdjust="spacingAndGlyphs" textLength="232" x="26" y="38.9951">edu.oakland.helper.display02</text><!--MD5=[c986427b061286eff33e87a088ad4bf9]
class TrackDataPlotter--><rect fill="#FEFECE" filter="url(#f1dqz1a25qtpoj)" height="244.0703" id="TrackDataPlotter" style="stroke: #A80036; stroke-width: 1.5;" width="302" x="38" y="59"/><ellipse cx="131.75" cy="75" fill="#ADD1B2" rx="11" ry="11" style="stroke: #A80036; stroke-width: 1.0;"/><path d="M134.7188,80.6406 Q134.1406,80.9375 133.5,81.0781 Q132.8594,81.2344 132.1563,81.2344 Q129.6563,81.2344 128.3281,79.5938 Q127.0156,77.9375 127.0156,74.8125 Q127.0156,71.6875 128.3281,70.0313 Q129.6563,68.375 132.1563,68.375 Q132.8594,68.375 133.5,68.5313 Q134.1563,68.6875 134.7188,68.9844 L134.7188,71.7031 Q134.0938,71.125 133.5,70.8594 Q132.9063,70.5781 132.2813,70.5781 Q130.9375,70.5781 130.25,71.6563 Q129.5625,72.7188 129.5625,74.8125 Q129.5625,76.9063 130.25,77.9844 Q130.9375,79.0469 132.2813,79.0469 Q132.9063,79.0469 133.5,78.7813 Q134.0938,78.5 134.7188,77.9219 L134.7188,80.6406 Z "/><text fill="#000000" font-family="sans-serif" font-size="12" lengthAdjust="spacingAndGlyphs" textLength="106" x="152.25" y="79.1543">TrackDataPlotter</text><line style="stroke: #A80036; stroke-width: 1.5;" x1="39" x2="339" y1="91" y2="91"/><rect fill="none" height="6" style="stroke: #C82930; stroke-width: 1.0;" width="6" x="46" y="99"/><text fill="#000000" font-family="sans-serif" font-size="11" lengthAdjust="spacingAndGlyphs" textLength="51" x="58" y="105.2104">float[] lat</text><rect fill="none" height="6" style="stroke: #C82930; stroke-width: 1.0;" width="6" x="46" y="111.8047"/><text fill="#000000" font-family="sans-serif" font-size="11" lengthAdjust="spacingAndGlyphs" textLength="54" x="58" y="118.0151">float[] lng</text><rect fill="none" height="6" style="stroke: #C82930; stroke-width: 1.0;" width="6" x="46" y="124.6094"/><text fill="#000000" font-family="sans-serif" font-size="11" lengthAdjust="spacingAndGlyphs" textLength="115" x="58" y="130.8198">XYSeries dataPoints</text><rect fill="none" height="6" style="stroke: #C82930; stroke-width: 1.0;" width="6" x="46" y="137.4141"/><text fill="#000000" font-family="sans-serif" font-size="11" lengthAdjust="spacingAndGlyphs" textLength="89" x="58" y="143.6245">XYSeries fitLine</text><rect fill="none" height="6" style="stroke: #C82930; stroke-width: 1.0;" width="6" x="46" y="150.2188"/><text fill="#000000" font-family="sans-serif" font-size="11" lengthAdjust="spacingAndGlyphs" textLength="92" x="58" y="156.4292">JFreeChart chart</text><rect fill="none" height="6" style="stroke: #C82930; stroke-width: 1.0;" width="6" x="46" y="163.0234"/><text fill="#000000" font-family="sans-serif" font-size="11" lengthAdjust="spacingAndGlyphs" textLength="134" x="58" y="169.2339">boolean displayedChart</text><line style="stroke: #A80036; stroke-width: 1.5;" x1="39" x2="339" y1="175.8281" y2="175.8281"/><ellipse cx="49" cy="186.8281" fill="#84BE84" rx="3" ry="3" style="stroke: #038048; stroke-width: 1.0;"/><text fill="#000000" font-family="sans-serif" font-size="11" lengthAdjust="spacingAndGlyphs" textLength="188" x="58" y="190.0386">TrackDataPlotter(TrackData data)</text><ellipse cx="49" cy="216.4375" fill="#84BE84" rx="3" ry="3" style="stroke: #038048; stroke-width: 1.0;"/><text fill="#000000" font-family="sans-serif" font-size="11" lengthAdjust="spacingAndGlyphs" textLength="106" x="58" y="219.6479">void displayChart()</text><ellipse cx="49" cy="229.2422" fill="#84BE84" rx="3" ry="3" style="stroke: #038048; stroke-width: 1.0;"/><text fill="#000000" font-family="sans-serif" font-size="11" lengthAdjust="spacingAndGlyphs" textLength="154" x="58" y="232.4526">boolean getDisplayeChart()</text><ellipse cx="49" cy="242.0469" fill="#84BE84" rx="3" ry="3" style="stroke: #038048; stroke-width: 1.0;"/><text fill="#000000" font-family="sans-serif" font-size="11" lengthAdjust="spacingAndGlyphs" textLength="232" x="58" y="245.2573">XYSeries getTrackData(float[] x, float[] y)</text><rect fill="#F24D5C" height="6" style="stroke: #C82930; stroke-width: 1.0;" width="6" x="46" y="251.8516"/><text fill="#000000" font-family="sans-serif" font-size="11" lengthAdjust="spacingAndGlyphs" textLength="230" x="58" y="258.062">XYSeries calculateLine(float[] x, float[] y)</text><rect fill="#F24D5C" height="6" style="stroke: #C82930; stroke-width: 1.0;" width="6" x="46" y="264.6563"/><text fill="#000000" font-family="sans-serif" font-size="11" lengthAdjust="spacingAndGlyphs" textLength="273" x="58" y="270.8667">float[] extractLatFromTrackData(TrackData data)</text><rect fill="#F24D5C" height="6" style="stroke: #C82930; stroke-width: 1.0;" width="6" x="46" y="277.4609"/><text fill="#000000" font-family="sans-serif" font-size="11" lengthAdjust="spacingAndGlyphs" textLength="276" x="58" y="283.6714">float[] extractLngFromTrackData(TrackData data)</text><rect fill="#F24D5C" height="6" style="stroke: #C82930; stroke-width: 1.0;" width="6" x="46" y="290.2656"/><text fill="#000000" font-family="sans-serif" font-size="11" lengthAdjust="spacingAndGlyphs" textLength="138" x="58" y="296.4761">JFreeChart createChart()</text><line style="stroke: #A80036; stroke-width: 1.0; stroke-dasharray: 1.0,2.0;" x1="39" x2="156" y1="203.0352" y2="203.0352"/><text fill="#000000" font-family="sans-serif" font-size="11" lengthAdjust="spacingAndGlyphs" textLength="66" x="156" y="206.3433">Use Case 1</text><line style="stroke: #A80036; stroke-width: 1.0; stroke-dasharray: 1.0,2.0;" x1="222" x2="339" y1="203.0352" y2="203.0352"/><!--MD5=[36685e646e3bbb994b6a4f2a3931cf8f]
@startuml TrackDataPlotter

package edu.oakland.helper.display02 {
    class TrackDataPlotter {
        - float[] lat
        - float[] lng
        - XYSeries dataPoints
        - XYSeries fitLine
        - JFreeChart chart
        - boolean displayedChart
        __
        + TrackDataPlotter(TrackData data)
        .. Use Case 1 ..
        + void displayChart()
        + boolean getDisplayeChart()
        + XYSeries getTrackData(float[] x, float[] y)
        - XYSeries calculateLine(float[] x, float[] y)
        - float[] extractLatFromTrackData(TrackData data)
        - float[] extractLngFromTrackData(TrackData data)
        - JFreeChart createChart()
    }
}

@enduml

PlantUML version 1.2020.02(Sun Mar 01 10:22:07 GMT 2020)
(GPL source distribution)
Java Runtime: OpenJDK Runtime Environment
JVM: OpenJDK 64-Bit Server VM
Java Version: 11.0.9+11-Ubuntu-0ubuntu1
Operating System: Linux
Default Encoding: ANSI_X3.4-1968
Language: en
Country: US
--></g></svg>