<?xml version="1.0" encoding="UTF-8" standalone="no"?><svg xmlns="http://www.w3.org/2000/svg" xmlns:xlink="http://www.w3.org/1999/xlink" contentScriptType="application/ecmascript" contentStyleType="text/css" height="285px" preserveAspectRatio="none" style="width:312px;height:285px;" version="1.1" viewBox="0 0 312 285" width="312px" zoomAndPan="magnify"><defs><filter height="300%" id="f1kgbfly23d03o" width="300%" x="-1" y="-1"><feGaussianBlur result="blurOut" stdDeviation="2.0"/><feColorMatrix in="blurOut" result="blurOut2" type="matrix" values="0 0 0 0 0 0 0 0 0 0 0 0 0 0 0 0 0 0 .4 0"/><feOffset dx="4.0" dy="4.0" in="blurOut2" result="blurOut3"/><feBlend in="SourceGraphic" in2="blurOut3" mode="normal"/></filter></defs><g><!--MD5=[a502031b5a5384de0a21e6ee820fd3b2]
cluster edu.oakland.helper.display02--><polygon fill="#FFFFFF" filter="url(#f1kgbfly23d03o)" points="22,24,260,24,267,46.2969,290,46.2969,290,273,22,273,22,24" style="stroke: #000000; stroke-width: 1.5;"/><line style="stroke: #000000; stroke-width: 1.5;" x1="22" x2="267" y1="46.2969" y2="46.2969"/><text fill="#000000" font-family="sans-serif" font-size="14" font-weight="bold" lengthAdjust="spacingAndGlyphs" textLength="232" x="26" y="38.9951">edu.oakland.helper.display02</text><!--MD5=[c986427b061286eff33e87a088ad4bf9]
class TrackDataPlotter--><rect fill="#FEFECE" filter="url(#f1kgbfly23d03o)" height="197.6563" id="TrackDataPlotter" style="stroke: #A80036; stroke-width: 1.5;" width="235" x="38.5" y="59"/><ellipse cx="98.75" cy="75" fill="#ADD1B2" rx="11" ry="11" style="stroke: #A80036; stroke-width: 1.0;"/><path d="M101.7188,80.6406 Q101.1406,80.9375 100.5,81.0781 Q99.8594,81.2344 99.1563,81.2344 Q96.6563,81.2344 95.3281,79.5938 Q94.0156,77.9375 94.0156,74.8125 Q94.0156,71.6875 95.3281,70.0313 Q96.6563,68.375 99.1563,68.375 Q99.8594,68.375 100.5,68.5313 Q101.1563,68.6875 101.7188,68.9844 L101.7188,71.7031 Q101.0938,71.125 100.5,70.8594 Q99.9063,70.5781 99.2813,70.5781 Q97.9375,70.5781 97.25,71.6563 Q96.5625,72.7188 96.5625,74.8125 Q96.5625,76.9063 97.25,77.9844 Q97.9375,79.0469 99.2813,79.0469 Q99.9063,79.0469 100.5,78.7813 Q101.0938,78.5 101.7188,77.9219 L101.7188,80.6406 Z "/><text fill="#000000" font-family="sans-serif" font-size="12" lengthAdjust="spacingAndGlyphs" textLength="106" x="119.25" y="79.1543">TrackDataPlotter</text><line style="stroke: #A80036; stroke-width: 1.5;" x1="39.5" x2="272.5" y1="91" y2="91"/><text fill="#000000" font-family="sans-serif" font-size="11" lengthAdjust="spacingAndGlyphs" textLength="97" x="58.5" y="105.2104">XYDataset points</text><text fill="#000000" font-family="sans-serif" font-size="11" lengthAdjust="spacingAndGlyphs" textLength="82" x="58.5" y="118.0151">XYDataset line</text><text fill="#000000" font-family="sans-serif" font-size="11" lengthAdjust="spacingAndGlyphs" textLength="99" x="58.5" y="130.8198">JFreeChart chart1</text><text fill="#000000" font-family="sans-serif" font-size="11" lengthAdjust="spacingAndGlyphs" textLength="99" x="58.5" y="143.6245">JFreeChart chart2</text><text fill="#000000" font-family="sans-serif" font-size="11" lengthAdjust="spacingAndGlyphs" textLength="60" x="58.5" y="156.4292">XYPlot plot</text><text fill="#000000" font-family="sans-serif" font-size="11" lengthAdjust="spacingAndGlyphs" textLength="133" x="58.5" y="169.2339">ChartPanel chartPanel1</text><text fill="#000000" font-family="sans-serif" font-size="11" lengthAdjust="spacingAndGlyphs" textLength="133" x="58.5" y="182.0386">ChartPanel chartPanel2</text><text fill="#000000" font-family="sans-serif" font-size="11" lengthAdjust="spacingAndGlyphs" textLength="6" x="58.5" y="194.8433">_</text><ellipse cx="49.5" cy="204.4375" fill="#84BE84" rx="3" ry="3" style="stroke: #038048; stroke-width: 1.0;"/><text fill="#000000" font-family="sans-serif" font-size="11" font-style="italic" lengthAdjust="spacingAndGlyphs" textLength="188" x="58.5" y="207.6479">TrackDataPlotter(TrackData data)</text><rect fill="#F24D5C" height="6" style="stroke: #C82930; stroke-width: 1.0;" width="6" x="46.5" y="231.0469"/><text fill="#000000" font-family="sans-serif" font-size="11" font-style="italic" lengthAdjust="spacingAndGlyphs" textLength="137" x="58.5" y="237.2573">XYSeries getTrackData()</text><rect fill="#F24D5C" height="6" style="stroke: #C82930; stroke-width: 1.0;" width="6" x="46.5" y="243.8516"/><text fill="#000000" font-family="sans-serif" font-size="11" font-style="italic" lengthAdjust="spacingAndGlyphs" textLength="209" x="58.5" y="250.062">XYSeries calculateLine(int x[], int y[])</text><line style="stroke: #A80036; stroke-width: 1.0; stroke-dasharray: 1.0,2.0;" x1="39.5" x2="123" y1="220.6445" y2="220.6445"/><text fill="#000000" font-family="sans-serif" font-size="11" lengthAdjust="spacingAndGlyphs" textLength="66" x="123" y="223.9526">Use Case 1</text><line style="stroke: #A80036; stroke-width: 1.0; stroke-dasharray: 1.0,2.0;" x1="189" x2="272.5" y1="220.6445" y2="220.6445"/><!--MD5=[5cdcba467a2cd79449da894ecda8f98e]
@startuml TrackDataPlotter_DirectDependencies


package edu.oakland.helper.display02 {
    class TrackDataPlotter {
    XYDataset points
    XYDataset line
    JFreeChart chart1
    JFreeChart chart2
    XYPlot plot
    ChartPanel chartPanel1
    ChartPanel chartPanel2
    _
    {abstract} + TrackDataPlotter(TrackData data)
    .. Use Case 1 ..
    {abstract} - XYSeries getTrackData()
    {abstract} - XYSeries calculateLine(int x[], int y[])
    }
}






@enduml

PlantUML version 1.2020.02(Sun Mar 01 10:22:07 GMT 2020)
(GPL source distribution)
Java Runtime: OpenJDK Runtime Environment
JVM: OpenJDK 64-Bit Server VM
Java Version: 11.0.9+11-Ubuntu-0ubuntu1
Operating System: Linux
Default Encoding: ANSI_X3.4-1968
Language: en
Country: US
--></g></svg>