<?xml version="1.0" encoding="UTF-8" standalone="no"?><svg xmlns="http://www.w3.org/2000/svg" xmlns:xlink="http://www.w3.org/1999/xlink" contentScriptType="application/ecmascript" contentStyleType="text/css" height="241px" preserveAspectRatio="none" style="width:468px;height:241px;" version="1.1" viewBox="0 0 468 241" width="468px" zoomAndPan="magnify"><defs><filter height="300%" id="fxtmeqrvt4bf0" width="300%" x="-1" y="-1"><feGaussianBlur result="blurOut" stdDeviation="2.0"/><feColorMatrix in="blurOut" result="blurOut2" type="matrix" values="0 0 0 0 0 0 0 0 0 0 0 0 0 0 0 0 0 0 .4 0"/><feOffset dx="4.0" dy="4.0" in="blurOut2" result="blurOut3"/><feBlend in="SourceGraphic" in2="blurOut3" mode="normal"/></filter></defs><g><!--MD5=[33504725b8a69ba2207f0a836957a91c]
cluster edu.oakland.production.middleware02--><polygon fill="#FFFFFF" filter="url(#fxtmeqrvt4bf0)" points="22,24,332,24,339,46.2969,446,46.2969,446,229,22,229,22,24" style="stroke: #000000; stroke-width: 1.5;"/><line style="stroke: #000000; stroke-width: 1.5;" x1="22" x2="339" y1="46.2969" y2="46.2969"/><text fill="#000000" font-family="sans-serif" font-size="14" font-weight="bold" lengthAdjust="spacingAndGlyphs" textLength="304" x="26" y="38.9951">edu.oakland.production.middleware02</text><!--MD5=[d9ed64ee38938b46697008700ce69fba]
class MiddlewareCommLinkManagerImplementation--><rect fill="#FEFECE" filter="url(#fxtmeqrvt4bf0)" height="154.4375" id="MiddlewareCommLinkManagerImplementation" style="stroke: #A80036; stroke-width: 1.5;" width="392" x="38" y="59"/><ellipse cx="87.75" cy="75" fill="#ADD1B2" rx="11" ry="11" style="stroke: #A80036; stroke-width: 1.0;"/><path d="M90.7188,80.6406 Q90.1406,80.9375 89.5,81.0781 Q88.8594,81.2344 88.1563,81.2344 Q85.6563,81.2344 84.3281,79.5938 Q83.0156,77.9375 83.0156,74.8125 Q83.0156,71.6875 84.3281,70.0313 Q85.6563,68.375 88.1563,68.375 Q88.8594,68.375 89.5,68.5313 Q90.1563,68.6875 90.7188,68.9844 L90.7188,71.7031 Q90.0938,71.125 89.5,70.8594 Q88.9063,70.5781 88.2813,70.5781 Q86.9375,70.5781 86.25,71.6563 Q85.5625,72.7188 85.5625,74.8125 Q85.5625,76.9063 86.25,77.9844 Q86.9375,79.0469 88.2813,79.0469 Q88.9063,79.0469 89.5,78.7813 Q90.0938,78.5 90.7188,77.9219 L90.7188,80.6406 Z "/><text fill="#000000" font-family="sans-serif" font-size="12" lengthAdjust="spacingAndGlyphs" textLength="284" x="108.25" y="79.1543">MiddlewareCommLinkManagerImplementation</text><line style="stroke: #A80036; stroke-width: 1.5;" x1="39" x2="429" y1="91" y2="91"/><rect fill="none" height="6" style="stroke: #C82930; stroke-width: 1.0;" width="6" x="46" y="99"/><text fill="#000000" font-family="sans-serif" font-size="11" lengthAdjust="spacingAndGlyphs" textLength="334" x="58" y="105.2104">MiddlewareCommDatabaseInterface midDatabaseInterface</text><rect fill="none" height="6" style="stroke: #C82930; stroke-width: 1.0;" width="6" x="46" y="111.8047"/><text fill="#000000" font-family="sans-serif" font-size="11" lengthAdjust="spacingAndGlyphs" textLength="202" x="58" y="118.0151">MiddlewareGisManager gisManager</text><line style="stroke: #A80036; stroke-width: 1.5;" x1="39" x2="429" y1="124.6094" y2="124.6094"/><ellipse cx="49" cy="135.6094" fill="#84BE84" rx="3" ry="3" style="stroke: #038048; stroke-width: 1.0;"/><text fill="#000000" font-family="sans-serif" font-size="11" lengthAdjust="spacingAndGlyphs" textLength="264" x="58" y="138.8198">MiddlewareCommLinkManagerImplementation(</text><text fill="#000000" font-family="sans-serif" font-size="11" lengthAdjust="spacingAndGlyphs" textLength="334" x="90" y="151.6245">MiddlewareCommDatabaseInterface midDatabaseInterface</text><text fill="#000000" font-family="sans-serif" font-size="11" lengthAdjust="spacingAndGlyphs" textLength="206" x="90" y="164.4292">MiddlewareGisManager gisManager)</text><ellipse cx="49" cy="190.8281" fill="#84BE84" rx="3" ry="3" style="stroke: #038048; stroke-width: 1.0;"/><text fill="#000000" font-family="sans-serif" font-size="11" lengthAdjust="spacingAndGlyphs" textLength="160" x="58" y="194.0386">TrackData parseRfid(int rfid)</text><rect fill="#F24D5C" height="6" style="stroke: #C82930; stroke-width: 1.0;" width="6" x="46" y="200.6328"/><text fill="#000000" font-family="sans-serif" font-size="11" lengthAdjust="spacingAndGlyphs" textLength="192" x="58" y="206.8433">TrackData calculateLocationData()</text><line style="stroke: #A80036; stroke-width: 1.0; stroke-dasharray: 1.0,2.0;" x1="39" x2="201" y1="177.4258" y2="177.4258"/><text fill="#000000" font-family="sans-serif" font-size="11" lengthAdjust="spacingAndGlyphs" textLength="66" x="201" y="180.7339">Use Case 1</text><line style="stroke: #A80036; stroke-width: 1.0; stroke-dasharray: 1.0,2.0;" x1="267" x2="429" y1="177.4258" y2="177.4258"/><!--MD5=[8e286a77021f4387319448d2c040eb2e]
@startuml MiddlewareCommLinkManagerImplementation

package edu.oakland.production.middleware02 {
    class MiddlewareCommLinkManagerImplementation {
        - MiddlewareCommDatabaseInterface midDatabaseInterface
        - MiddlewareGisManager gisManager
        __
        + MiddlewareCommLinkManagerImplementation(
        \tMiddlewareCommDatabaseInterface midDatabaseInterface
        \tMiddlewareGisManager gisManager)
        .. Use Case 1 ..
        + TrackData parseRfid(int rfid)
        - TrackData calculateLocationData()
    }
}

@enduml

PlantUML version 1.2020.02(Sun Mar 01 10:22:07 GMT 2020)
(GPL source distribution)
Java Runtime: OpenJDK Runtime Environment
JVM: OpenJDK 64-Bit Server VM
Java Version: 11.0.9+11-Ubuntu-0ubuntu1
Operating System: Linux
Default Encoding: ANSI_X3.4-1968
Language: en
Country: US
--></g></svg>