<?xml version="1.0" encoding="UTF-8" standalone="no"?><svg xmlns="http://www.w3.org/2000/svg" xmlns:xlink="http://www.w3.org/1999/xlink" contentScriptType="application/ecmascript" contentStyleType="text/css" height="528px" preserveAspectRatio="none" style="width:594px;height:528px;" version="1.1" viewBox="0 0 594 528" width="594px" zoomAndPan="magnify"><defs><filter height="300%" id="f1s1po0byun8yc" width="300%" x="-1" y="-1"><feGaussianBlur result="blurOut" stdDeviation="2.0"/><feColorMatrix in="blurOut" result="blurOut2" type="matrix" values="0 0 0 0 0 0 0 0 0 0 0 0 0 0 0 0 0 0 .4 0"/><feOffset dx="4.0" dy="4.0" in="blurOut2" result="blurOut3"/><feBlend in="SourceGraphic" in2="blurOut3" mode="normal"/></filter></defs><g><!--MD5=[33504725b8a69ba2207f0a836957a91c]
cluster edu.oakland.production.middleware02--><polygon fill="#FFFFFF" filter="url(#f1s1po0byun8yc)" points="42,24,352,24,359,46.2969,552,46.2969,552,355,42,355,42,24" style="stroke: #000000; stroke-width: 1.5;"/><line style="stroke: #000000; stroke-width: 1.5;" x1="42" x2="359" y1="46.2969" y2="46.2969"/><text fill="#000000" font-family="sans-serif" font-size="14" font-weight="bold" lengthAdjust="spacingAndGlyphs" textLength="304" x="46" y="38.9951">edu.oakland.production.middleware02</text><!--MD5=[73d4e355f259fb8d2c716d693a5be920]
cluster edu.oakland.helper.middleware02--><polygon fill="#FFFFFF" filter="url(#f1s1po0byun8yc)" points="22,379,297,379,304,401.2969,572,401.2969,572,516,22,516,22,379" style="stroke: #000000; stroke-width: 1.5;"/><line style="stroke: #000000; stroke-width: 1.5;" x1="22" x2="304" y1="401.2969" y2="401.2969"/><text fill="#000000" font-family="sans-serif" font-size="14" font-weight="bold" lengthAdjust="spacingAndGlyphs" textLength="269" x="26" y="393.9951">edu.oakland.helper.middleware02</text><!--MD5=[d9ed64ee38938b46697008700ce69fba]
class MiddlewareCommLinkManagerImplementation--><rect fill="#FEFECE" filter="url(#f1s1po0byun8yc)" height="141.6328" id="MiddlewareCommLinkManagerImplementation" style="stroke: #A80036; stroke-width: 1.5;" width="478" x="58" y="197"/><ellipse cx="150.75" cy="213" fill="#ADD1B2" rx="11" ry="11" style="stroke: #A80036; stroke-width: 1.0;"/><path d="M153.7188,218.6406 Q153.1406,218.9375 152.5,219.0781 Q151.8594,219.2344 151.1563,219.2344 Q148.6563,219.2344 147.3281,217.5938 Q146.0156,215.9375 146.0156,212.8125 Q146.0156,209.6875 147.3281,208.0313 Q148.6563,206.375 151.1563,206.375 Q151.8594,206.375 152.5,206.5313 Q153.1563,206.6875 153.7188,206.9844 L153.7188,209.7031 Q153.0938,209.125 152.5,208.8594 Q151.9063,208.5781 151.2813,208.5781 Q149.9375,208.5781 149.25,209.6563 Q148.5625,210.7188 148.5625,212.8125 Q148.5625,214.9063 149.25,215.9844 Q149.9375,217.0469 151.2813,217.0469 Q151.9063,217.0469 152.5,216.7813 Q153.0938,216.5 153.7188,215.9219 L153.7188,218.6406 Z "/><text fill="#000000" font-family="sans-serif" font-size="12" lengthAdjust="spacingAndGlyphs" textLength="284" x="171.25" y="217.1543">MiddlewareCommLinkManagerImplementation</text><line style="stroke: #A80036; stroke-width: 1.5;" x1="59" x2="535" y1="229" y2="229"/><rect fill="none" height="6" style="stroke: #C82930; stroke-width: 1.0;" width="6" x="66" y="237"/><text fill="#000000" font-family="sans-serif" font-size="11" lengthAdjust="spacingAndGlyphs" textLength="416" x="78" y="243.2104">MiddlewareCommDatabaseInterface middlewareCommDatabaseInterface</text><line style="stroke: #A80036; stroke-width: 1.5;" x1="59" x2="535" y1="249.8047" y2="249.8047"/><ellipse cx="69" cy="260.8047" fill="#84BE84" rx="3" ry="3" style="stroke: #038048; stroke-width: 1.0;"/><text fill="#000000" font-family="sans-serif" font-size="11" lengthAdjust="spacingAndGlyphs" textLength="264" x="78" y="264.0151">MiddlewareCommLinkManagerImplementation(</text><text fill="#000000" font-family="sans-serif" font-size="11" lengthAdjust="spacingAndGlyphs" textLength="420" x="110" y="276.8198">MiddlewareCommDatabaseInterface middlewareCommDatabaseInterface)</text><ellipse cx="69" cy="303.2188" fill="#84BE84" rx="3" ry="3" style="stroke: #038048; stroke-width: 1.0;"/><text fill="#000000" font-family="sans-serif" font-size="11" lengthAdjust="spacingAndGlyphs" textLength="160" x="78" y="306.4292">TrackData parseRfid(int rfid)</text><rect fill="#F24D5C" height="6" style="stroke: #C82930; stroke-width: 1.0;" width="6" x="66" y="313.0234"/><text fill="#000000" font-family="sans-serif" font-size="11" lengthAdjust="spacingAndGlyphs" textLength="188" x="78" y="319.2339">float calculateLocationDataPoint()</text><rect fill="#F24D5C" height="6" style="stroke: #C82930; stroke-width: 1.0;" width="6" x="66" y="325.8281"/><text fill="#000000" font-family="sans-serif" font-size="11" lengthAdjust="spacingAndGlyphs" textLength="144" x="78" y="332.0386">float calculateTrackData()</text><line style="stroke: #A80036; stroke-width: 1.0; stroke-dasharray: 1.0,2.0;" x1="59" x2="264" y1="289.8164" y2="289.8164"/><text fill="#000000" font-family="sans-serif" font-size="11" lengthAdjust="spacingAndGlyphs" textLength="66" x="264" y="293.1245">Use Case 1</text><line style="stroke: #A80036; stroke-width: 1.0; stroke-dasharray: 1.0,2.0;" x1="330" x2="535" y1="289.8164" y2="289.8164"/><!--MD5=[d01e667c21cf622da77e8a7601ca5c91]
class MiddlewareCommLinkManager--><rect fill="#FEFECE" filter="url(#f1s1po0byun8yc)" height="77.6094" id="MiddlewareCommLinkManager" style="stroke: #A80036; stroke-width: 1.5;" width="221" x="186.5" y="59"/><ellipse cx="201.5" cy="75" fill="#B4A7E5" rx="11" ry="11" style="stroke: #A80036; stroke-width: 1.0;"/><path d="M197.4219,70.7656 L197.4219,68.6094 L204.8125,68.6094 L204.8125,70.7656 L202.3438,70.7656 L202.3438,78.8438 L204.8125,78.8438 L204.8125,81 L197.4219,81 L197.4219,78.8438 L199.8906,78.8438 L199.8906,70.7656 L197.4219,70.7656 Z "/><text fill="#000000" font-family="sans-serif" font-size="12" font-style="italic" lengthAdjust="spacingAndGlyphs" textLength="189" x="215.5" y="79.1543">MiddlewareCommLinkManager</text><line style="stroke: #A80036; stroke-width: 1.5;" x1="187.5" x2="406.5" y1="91" y2="91"/><line style="stroke: #A80036; stroke-width: 1.5;" x1="187.5" x2="406.5" y1="99" y2="99"/><ellipse cx="197.5" cy="126.8047" fill="#84BE84" rx="3" ry="3" style="stroke: #038048; stroke-width: 1.0;"/><text fill="#000000" font-family="sans-serif" font-size="11" font-style="italic" lengthAdjust="spacingAndGlyphs" textLength="160" x="206.5" y="130.0151">TrackData parseRfid(int rfid)</text><line style="stroke: #A80036; stroke-width: 1.0; stroke-dasharray: 1.0,2.0;" x1="187.5" x2="264" y1="113.4023" y2="113.4023"/><text fill="#000000" font-family="sans-serif" font-size="11" lengthAdjust="spacingAndGlyphs" textLength="66" x="264" y="116.7104">Use Case 1</text><line style="stroke: #A80036; stroke-width: 1.0; stroke-dasharray: 1.0,2.0;" x1="330" x2="406.5" y1="113.4023" y2="113.4023"/><!--MD5=[8d86b1aa2030a05d452f78e2e1fb37ed]
class TrackDataCalculator--><rect fill="#FEFECE" filter="url(#f1s1po0byun8yc)" height="86.4141" id="TrackDataCalculator" style="stroke: #A80036; stroke-width: 1.5;" width="518" x="38" y="414"/><ellipse cx="229.25" cy="430" fill="#ADD1B2" rx="11" ry="11" style="stroke: #A80036; stroke-width: 1.0;"/><path d="M232.2188,435.6406 Q231.6406,435.9375 231,436.0781 Q230.3594,436.2344 229.6563,436.2344 Q227.1563,436.2344 225.8281,434.5938 Q224.5156,432.9375 224.5156,429.8125 Q224.5156,426.6875 225.8281,425.0313 Q227.1563,423.375 229.6563,423.375 Q230.3594,423.375 231,423.5313 Q231.6563,423.6875 232.2188,423.9844 L232.2188,426.7031 Q231.5938,426.125 231,425.8594 Q230.4063,425.5781 229.7813,425.5781 Q228.4375,425.5781 227.75,426.6563 Q227.0625,427.7188 227.0625,429.8125 Q227.0625,431.9063 227.75,432.9844 Q228.4375,434.0469 229.7813,434.0469 Q230.4063,434.0469 231,433.7813 Q231.5938,433.5 232.2188,432.9219 L232.2188,435.6406 Z "/><text fill="#000000" font-family="sans-serif" font-size="12" lengthAdjust="spacingAndGlyphs" textLength="127" x="249.75" y="434.1543">TrackDataCalculator</text><line style="stroke: #A80036; stroke-width: 1.5;" x1="39" x2="555" y1="446" y2="446"/><line style="stroke: #A80036; stroke-width: 1.5;" x1="39" x2="555" y1="454" y2="454"/><ellipse cx="49" cy="465" fill="#84BE84" rx="3" ry="3" style="stroke: #038048; stroke-width: 1.0;"/><text fill="#000000" font-family="sans-serif" font-size="11" lengthAdjust="spacingAndGlyphs" text-decoration="underline" textLength="341" x="58" y="468.2104">float calculateSpeed(LocationDataPoint[] locationDataPoints)</text><ellipse cx="49" cy="477.8047" fill="#84BE84" rx="3" ry="3" style="stroke: #038048; stroke-width: 1.0;"/><text fill="#000000" font-family="sans-serif" font-size="11" lengthAdjust="spacingAndGlyphs" text-decoration="underline" textLength="355" x="58" y="481.0151">float calculateDirection(LocationDataPoint[] locationDataPoints)</text><rect fill="#F24D5C" height="6" style="stroke: #C82930; stroke-width: 1.0;" width="6" x="46" y="487.6094"/><text fill="#000000" font-family="sans-serif" font-size="11" lengthAdjust="spacingAndGlyphs" text-decoration="underline" textLength="492" x="58" y="493.8198">LocationDataPoint[] calculateRootMeanSquared(LocationDataPoint[] locationDataPoints)</text><!--MD5=[497c69cbff9542047faf5ca77780c8cb]
reverse link MiddlewareCommLinkManager to MiddlewareCommLinkManagerImplementation--><path d="M297,157.51 C297,170.25 297,183.85 297,196.98 " fill="none" id="MiddlewareCommLinkManager&lt;-MiddlewareCommLinkManagerImplementation" style="stroke: #A80036; stroke-width: 1.0; stroke-dasharray: 7.0,7.0;"/><polygon fill="none" points="290,157.12,297,137.12,304,157.12,290,157.12" style="stroke: #A80036; stroke-width: 1.0;"/><!--MD5=[07eefeefbddab6e40f3001aaadb4b811]
link MiddlewareCommLinkManagerImplementation to TrackDataCalculator--><path d="M297,339.16 C297,362.38 297,387.65 297,408.73 " fill="none" id="MiddlewareCommLinkManagerImplementation-&gt;TrackDataCalculator" style="stroke: #A80036; stroke-width: 1.0; stroke-dasharray: 7.0,7.0;"/><polygon fill="#A80036" points="297,413.99,301,404.99,297,408.99,293,404.99,297,413.99" style="stroke: #A80036; stroke-width: 1.0;"/><!--MD5=[ac22a3a4c21bf3921e53e745f7fa93ec]
@startuml MiddlewareCommLinkManagerImplementation_Closure


package edu.oakland.production.middleware02 {
    class MiddlewareCommLinkManagerImplementation {
        - MiddlewareCommDatabaseInterface middlewareCommDatabaseInterface
        __
        + MiddlewareCommLinkManagerImplementation(
        \tMiddlewareCommDatabaseInterface middlewareCommDatabaseInterface)
        .. Use Case 1 ..
        + TrackData parseRfid(int rfid)
        - float calculateLocationDataPoint()
        - float calculateTrackData()
    }
}




package edu.oakland.production.middleware02 {
    interface MiddlewareCommLinkManager {
        __
        .. Use Case 1 ..
        {abstract} + TrackData parseRfid(int rfid)
    }
}






MiddlewareCommLinkManagerImplementation .up.|> MiddlewareCommLinkManager



package edu.oakland.helper.middleware02 {
    class TrackDataCalculator {
        {static} + float calculateSpeed(LocationDataPoint[] locationDataPoints)
        {static} + float calculateDirection(LocationDataPoint[] locationDataPoints)
        {static} - LocationDataPoint[] calculateRootMeanSquared(LocationDataPoint[] locationDataPoints)
    }
}






MiddlewareCommLinkManagerImplementation ..> TrackDataCalculator



@enduml

PlantUML version 1.2020.02(Sun Mar 01 10:22:07 GMT 2020)
(GPL source distribution)
Java Runtime: OpenJDK Runtime Environment
JVM: OpenJDK 64-Bit Server VM
Java Version: 11.0.9+11-Ubuntu-0ubuntu1
Operating System: Linux
Default Encoding: ANSI_X3.4-1968
Language: en
Country: US
--></g></svg>