<?xml version="1.0" encoding="UTF-8" standalone="no"?><svg xmlns="http://www.w3.org/2000/svg" xmlns:xlink="http://www.w3.org/1999/xlink" contentScriptType="application/ecmascript" contentStyleType="text/css" height="528px" preserveAspectRatio="none" style="width:468px;height:528px;" version="1.1" viewBox="0 0 468 528" width="468px" zoomAndPan="magnify"><defs><filter height="300%" id="f3c7iqneqewjp" width="300%" x="-1" y="-1"><feGaussianBlur result="blurOut" stdDeviation="2.0"/><feColorMatrix in="blurOut" result="blurOut2" type="matrix" values="0 0 0 0 0 0 0 0 0 0 0 0 0 0 0 0 0 0 .4 0"/><feOffset dx="4.0" dy="4.0" in="blurOut2" result="blurOut3"/><feBlend in="SourceGraphic" in2="blurOut3" mode="normal"/></filter></defs><g><!--MD5=[33504725b8a69ba2207f0a836957a91c]
cluster edu.oakland.production.middleware02--><polygon fill="#FFFFFF" filter="url(#f3c7iqneqewjp)" points="22,24,332,24,339,46.2969,446,46.2969,446,367,22,367,22,24" style="stroke: #000000; stroke-width: 1.5;"/><line style="stroke: #000000; stroke-width: 1.5;" x1="22" x2="339" y1="46.2969" y2="46.2969"/><text fill="#000000" font-family="sans-serif" font-size="14" font-weight="bold" lengthAdjust="spacingAndGlyphs" textLength="304" x="26" y="38.9951">edu.oakland.production.middleware02</text><!--MD5=[73d4e355f259fb8d2c716d693a5be920]
cluster edu.oakland.helper.middleware02--><polygon fill="#FFFFFF" filter="url(#f3c7iqneqewjp)" points="28,391,303,391,310,413.2969,440,413.2969,440,516,28,516,28,391" style="stroke: #000000; stroke-width: 1.5;"/><line style="stroke: #000000; stroke-width: 1.5;" x1="28" x2="310" y1="413.2969" y2="413.2969"/><text fill="#000000" font-family="sans-serif" font-size="14" font-weight="bold" lengthAdjust="spacingAndGlyphs" textLength="269" x="32" y="405.9951">edu.oakland.helper.middleware02</text><!--MD5=[d9ed64ee38938b46697008700ce69fba]
class MiddlewareCommLinkManagerImplementation--><rect fill="#FEFECE" filter="url(#f3c7iqneqewjp)" height="154.4375" id="MiddlewareCommLinkManagerImplementation" style="stroke: #A80036; stroke-width: 1.5;" width="392" x="38" y="197"/><ellipse cx="87.75" cy="213" fill="#ADD1B2" rx="11" ry="11" style="stroke: #A80036; stroke-width: 1.0;"/><path d="M90.7188,218.6406 Q90.1406,218.9375 89.5,219.0781 Q88.8594,219.2344 88.1563,219.2344 Q85.6563,219.2344 84.3281,217.5938 Q83.0156,215.9375 83.0156,212.8125 Q83.0156,209.6875 84.3281,208.0313 Q85.6563,206.375 88.1563,206.375 Q88.8594,206.375 89.5,206.5313 Q90.1563,206.6875 90.7188,206.9844 L90.7188,209.7031 Q90.0938,209.125 89.5,208.8594 Q88.9063,208.5781 88.2813,208.5781 Q86.9375,208.5781 86.25,209.6563 Q85.5625,210.7188 85.5625,212.8125 Q85.5625,214.9063 86.25,215.9844 Q86.9375,217.0469 88.2813,217.0469 Q88.9063,217.0469 89.5,216.7813 Q90.0938,216.5 90.7188,215.9219 L90.7188,218.6406 Z "/><text fill="#000000" font-family="sans-serif" font-size="12" lengthAdjust="spacingAndGlyphs" textLength="284" x="108.25" y="217.1543">MiddlewareCommLinkManagerImplementation</text><line style="stroke: #A80036; stroke-width: 1.5;" x1="39" x2="429" y1="229" y2="229"/><rect fill="none" height="6" style="stroke: #C82930; stroke-width: 1.0;" width="6" x="46" y="237"/><text fill="#000000" font-family="sans-serif" font-size="11" lengthAdjust="spacingAndGlyphs" textLength="334" x="58" y="243.2104">MiddlewareCommDatabaseInterface midDatabaseInterface</text><rect fill="none" height="6" style="stroke: #C82930; stroke-width: 1.0;" width="6" x="46" y="249.8047"/><text fill="#000000" font-family="sans-serif" font-size="11" lengthAdjust="spacingAndGlyphs" textLength="202" x="58" y="256.0151">MiddlewareGisManager gisManager</text><line style="stroke: #A80036; stroke-width: 1.5;" x1="39" x2="429" y1="262.6094" y2="262.6094"/><ellipse cx="49" cy="273.6094" fill="#84BE84" rx="3" ry="3" style="stroke: #038048; stroke-width: 1.0;"/><text fill="#000000" font-family="sans-serif" font-size="11" lengthAdjust="spacingAndGlyphs" textLength="264" x="58" y="276.8198">MiddlewareCommLinkManagerImplementation(</text><text fill="#000000" font-family="sans-serif" font-size="11" lengthAdjust="spacingAndGlyphs" textLength="334" x="90" y="289.6245">MiddlewareCommDatabaseInterface midDatabaseInterface</text><text fill="#000000" font-family="sans-serif" font-size="11" lengthAdjust="spacingAndGlyphs" textLength="206" x="90" y="302.4292">MiddlewareGisManager gisManager)</text><ellipse cx="49" cy="328.8281" fill="#84BE84" rx="3" ry="3" style="stroke: #038048; stroke-width: 1.0;"/><text fill="#000000" font-family="sans-serif" font-size="11" lengthAdjust="spacingAndGlyphs" textLength="160" x="58" y="332.0386">TrackData parseRfid(int rfid)</text><rect fill="#F24D5C" height="6" style="stroke: #C82930; stroke-width: 1.0;" width="6" x="46" y="338.6328"/><text fill="#000000" font-family="sans-serif" font-size="11" lengthAdjust="spacingAndGlyphs" textLength="192" x="58" y="344.8433">TrackData calculateLocationData()</text><line style="stroke: #A80036; stroke-width: 1.0; stroke-dasharray: 1.0,2.0;" x1="39" x2="201" y1="315.4258" y2="315.4258"/><text fill="#000000" font-family="sans-serif" font-size="11" lengthAdjust="spacingAndGlyphs" textLength="66" x="201" y="318.7339">Use Case 1</text><line style="stroke: #A80036; stroke-width: 1.0; stroke-dasharray: 1.0,2.0;" x1="267" x2="429" y1="315.4258" y2="315.4258"/><!--MD5=[d01e667c21cf622da77e8a7601ca5c91]
class MiddlewareCommLinkManager--><rect fill="#FEFECE" filter="url(#f3c7iqneqewjp)" height="77.6094" id="MiddlewareCommLinkManager" style="stroke: #A80036; stroke-width: 1.5;" width="221" x="123.5" y="59"/><ellipse cx="138.5" cy="75" fill="#B4A7E5" rx="11" ry="11" style="stroke: #A80036; stroke-width: 1.0;"/><path d="M134.4219,70.7656 L134.4219,68.6094 L141.8125,68.6094 L141.8125,70.7656 L139.3438,70.7656 L139.3438,78.8438 L141.8125,78.8438 L141.8125,81 L134.4219,81 L134.4219,78.8438 L136.8906,78.8438 L136.8906,70.7656 L134.4219,70.7656 Z "/><text fill="#000000" font-family="sans-serif" font-size="12" font-style="italic" lengthAdjust="spacingAndGlyphs" textLength="189" x="152.5" y="79.1543">MiddlewareCommLinkManager</text><line style="stroke: #A80036; stroke-width: 1.5;" x1="124.5" x2="343.5" y1="91" y2="91"/><line style="stroke: #A80036; stroke-width: 1.5;" x1="124.5" x2="343.5" y1="99" y2="99"/><ellipse cx="134.5" cy="126.8047" fill="#84BE84" rx="3" ry="3" style="stroke: #038048; stroke-width: 1.0;"/><text fill="#000000" font-family="sans-serif" font-size="11" font-style="italic" lengthAdjust="spacingAndGlyphs" textLength="160" x="143.5" y="130.0151">TrackData parseRfid(int rfid)</text><line style="stroke: #A80036; stroke-width: 1.0; stroke-dasharray: 1.0,2.0;" x1="124.5" x2="201" y1="113.4023" y2="113.4023"/><text fill="#000000" font-family="sans-serif" font-size="11" lengthAdjust="spacingAndGlyphs" textLength="66" x="201" y="116.7104">Use Case 1</text><line style="stroke: #A80036; stroke-width: 1.0; stroke-dasharray: 1.0,2.0;" x1="267" x2="343.5" y1="113.4023" y2="113.4023"/><!--MD5=[8d86b1aa2030a05d452f78e2e1fb37ed]
class TrackDataCalculator--><rect fill="#FEFECE" filter="url(#f3c7iqneqewjp)" height="73.6094" id="TrackDataCalculator" style="stroke: #A80036; stroke-width: 1.5;" width="381" x="43.5" y="426"/><ellipse cx="166.25" cy="442" fill="#ADD1B2" rx="11" ry="11" style="stroke: #A80036; stroke-width: 1.0;"/><path d="M169.2188,447.6406 Q168.6406,447.9375 168,448.0781 Q167.3594,448.2344 166.6563,448.2344 Q164.1563,448.2344 162.8281,446.5938 Q161.5156,444.9375 161.5156,441.8125 Q161.5156,438.6875 162.8281,437.0313 Q164.1563,435.375 166.6563,435.375 Q167.3594,435.375 168,435.5313 Q168.6563,435.6875 169.2188,435.9844 L169.2188,438.7031 Q168.5938,438.125 168,437.8594 Q167.4063,437.5781 166.7813,437.5781 Q165.4375,437.5781 164.75,438.6563 Q164.0625,439.7188 164.0625,441.8125 Q164.0625,443.9063 164.75,444.9844 Q165.4375,446.0469 166.7813,446.0469 Q167.4063,446.0469 168,445.7813 Q168.5938,445.5 169.2188,444.9219 L169.2188,447.6406 Z "/><text fill="#000000" font-family="sans-serif" font-size="12" lengthAdjust="spacingAndGlyphs" textLength="127" x="186.75" y="446.1543">TrackDataCalculator</text><line style="stroke: #A80036; stroke-width: 1.5;" x1="44.5" x2="423.5" y1="458" y2="458"/><line style="stroke: #A80036; stroke-width: 1.5;" x1="44.5" x2="423.5" y1="466" y2="466"/><ellipse cx="54.5" cy="477" fill="#84BE84" rx="3" ry="3" style="stroke: #038048; stroke-width: 1.0;"/><text fill="#000000" font-family="sans-serif" font-size="11" lengthAdjust="spacingAndGlyphs" text-decoration="underline" textLength="341" x="63.5" y="480.2104">float calculateSpeed(LocationDataPoint[] locationDataPoints)</text><ellipse cx="54.5" cy="489.8047" fill="#84BE84" rx="3" ry="3" style="stroke: #038048; stroke-width: 1.0;"/><text fill="#000000" font-family="sans-serif" font-size="11" lengthAdjust="spacingAndGlyphs" text-decoration="underline" textLength="355" x="63.5" y="493.0151">float calculateDirection(LocationDataPoint[] locationDataPoints)</text><!--MD5=[497c69cbff9542047faf5ca77780c8cb]
reverse link MiddlewareCommLinkManager to MiddlewareCommLinkManagerImplementation--><path d="M234,157.35 C234,169.97 234,183.5 234,196.69 " fill="none" id="MiddlewareCommLinkManager&lt;-MiddlewareCommLinkManagerImplementation" style="stroke: #A80036; stroke-width: 1.0; stroke-dasharray: 7.0,7.0;"/><polygon fill="none" points="227,157.19,234,137.19,241,157.19,227,157.19" style="stroke: #A80036; stroke-width: 1.0;"/><!--MD5=[07eefeefbddab6e40f3001aaadb4b811]
link MiddlewareCommLinkManagerImplementation to TrackDataCalculator--><path d="M234,351.06 C234,374.92 234,400.36 234,420.85 " fill="none" id="MiddlewareCommLinkManagerImplementation-&gt;TrackDataCalculator" style="stroke: #A80036; stroke-width: 1.0; stroke-dasharray: 7.0,7.0;"/><polygon fill="#A80036" points="234,425.94,238,416.94,234,420.94,230,416.94,234,425.94" style="stroke: #A80036; stroke-width: 1.0;"/><!--MD5=[705f77806cb7526719b137e102ed43a3]
@startuml MiddlewareCommLinkManagerImplementation_Closure


package edu.oakland.production.middleware02 {
    class MiddlewareCommLinkManagerImplementation {
        - MiddlewareCommDatabaseInterface midDatabaseInterface
        - MiddlewareGisManager gisManager
        __
        + MiddlewareCommLinkManagerImplementation(
        \tMiddlewareCommDatabaseInterface midDatabaseInterface
        \tMiddlewareGisManager gisManager)
        .. Use Case 1 ..
        + TrackData parseRfid(int rfid)
        - TrackData calculateLocationData()
    }
}




package edu.oakland.production.middleware02 {
    interface MiddlewareCommLinkManager {
        __
        .. Use Case 1 ..
        {abstract} + TrackData parseRfid(int rfid)
    }
}






MiddlewareCommLinkManagerImplementation .up.|> MiddlewareCommLinkManager



package edu.oakland.helper.middleware02 {
    class TrackDataCalculator {
        {static} + float calculateSpeed(LocationDataPoint[] locationDataPoints)
        {static} + float calculateDirection(LocationDataPoint[] locationDataPoints)
    }
}






MiddlewareCommLinkManagerImplementation ..> TrackDataCalculator



@enduml

PlantUML version 1.2020.02(Sun Mar 01 10:22:07 GMT 2020)
(GPL source distribution)
Java Runtime: OpenJDK Runtime Environment
JVM: OpenJDK 64-Bit Server VM
Java Version: 11.0.9+11-Ubuntu-0ubuntu1
Operating System: Linux
Default Encoding: ANSI_X3.4-1968
Language: en
Country: US
--></g></svg>