<?xml version="1.0" encoding="UTF-8" standalone="no"?><svg xmlns="http://www.w3.org/2000/svg" xmlns:xlink="http://www.w3.org/1999/xlink" contentScriptType="application/ecmascript" contentStyleType="text/css" height="548px" preserveAspectRatio="none" style="width:594px;height:548px;" version="1.1" viewBox="0 0 594 548" width="594px" zoomAndPan="magnify"><defs><filter height="300%" id="f9is0lrmmaylh" width="300%" x="-1" y="-1"><feGaussianBlur result="blurOut" stdDeviation="2.0"/><feColorMatrix in="blurOut" result="blurOut2" type="matrix" values="0 0 0 0 0 0 0 0 0 0 0 0 0 0 0 0 0 0 .4 0"/><feOffset dx="4.0" dy="4.0" in="blurOut2" result="blurOut3"/><feBlend in="SourceGraphic" in2="blurOut3" mode="normal"/></filter></defs><g><!--MD5=[33504725b8a69ba2207f0a836957a91c]
cluster edu.oakland.production.middleware02--><polygon fill="#FFFFFF" filter="url(#f9is0lrmmaylh)" points="123,24,433,24,440,46.2969,471,46.2969,471,375,123,375,123,24" style="stroke: #000000; stroke-width: 1.5;"/><line style="stroke: #000000; stroke-width: 1.5;" x1="123" x2="440" y1="46.2969" y2="46.2969"/><text fill="#000000" font-family="sans-serif" font-size="14" font-weight="bold" lengthAdjust="spacingAndGlyphs" textLength="304" x="127" y="38.9951">edu.oakland.production.middleware02</text><!--MD5=[73d4e355f259fb8d2c716d693a5be920]
cluster edu.oakland.helper.middleware02--><polygon fill="#FFFFFF" filter="url(#f9is0lrmmaylh)" points="22,399,297,399,304,421.2969,572,421.2969,572,536,22,536,22,399" style="stroke: #000000; stroke-width: 1.5;"/><line style="stroke: #000000; stroke-width: 1.5;" x1="22" x2="304" y1="421.2969" y2="421.2969"/><text fill="#000000" font-family="sans-serif" font-size="14" font-weight="bold" lengthAdjust="spacingAndGlyphs" textLength="269" x="26" y="413.9951">edu.oakland.helper.middleware02</text><!--MD5=[d9ed64ee38938b46697008700ce69fba]
class MiddlewareCommLinkManagerImplementation--><rect fill="#FEFECE" filter="url(#f9is0lrmmaylh)" height="132.8281" id="MiddlewareCommLinkManagerImplementation" style="stroke: #A80036; stroke-width: 1.5;" width="316" x="139" y="226"/><ellipse cx="154" cy="242" fill="#ADD1B2" rx="11" ry="11" style="stroke: #A80036; stroke-width: 1.0;"/><path d="M156.9688,247.6406 Q156.3906,247.9375 155.75,248.0781 Q155.1094,248.2344 154.4063,248.2344 Q151.9063,248.2344 150.5781,246.5938 Q149.2656,244.9375 149.2656,241.8125 Q149.2656,238.6875 150.5781,237.0313 Q151.9063,235.375 154.4063,235.375 Q155.1094,235.375 155.75,235.5313 Q156.4063,235.6875 156.9688,235.9844 L156.9688,238.7031 Q156.3438,238.125 155.75,237.8594 Q155.1563,237.5781 154.5313,237.5781 Q153.1875,237.5781 152.5,238.6563 Q151.8125,239.7188 151.8125,241.8125 Q151.8125,243.9063 152.5,244.9844 Q153.1875,246.0469 154.5313,246.0469 Q155.1563,246.0469 155.75,245.7813 Q156.3438,245.5 156.9688,244.9219 L156.9688,247.6406 Z "/><text fill="#000000" font-family="sans-serif" font-size="12" lengthAdjust="spacingAndGlyphs" textLength="284" x="168" y="246.1543">MiddlewareCommLinkManagerImplementation</text><line style="stroke: #A80036; stroke-width: 1.5;" x1="140" x2="454" y1="258" y2="258"/><line style="stroke: #A80036; stroke-width: 1.5;" x1="140" x2="454" y1="266" y2="266"/><ellipse cx="150" cy="293.8047" fill="#84BE84" rx="3" ry="3" style="stroke: #038048; stroke-width: 1.0;"/><text fill="#000000" font-family="sans-serif" font-size="11" lengthAdjust="spacingAndGlyphs" textLength="160" x="159" y="297.0151">TrackData parseRfid(int rfid)</text><rect fill="#F24D5C" height="6" style="stroke: #C82930; stroke-width: 1.0;" width="6" x="147" y="303.6094"/><text fill="#000000" font-family="sans-serif" font-size="11" lengthAdjust="spacingAndGlyphs" textLength="188" x="159" y="309.8198">float calculateLocationDataPoint()</text><rect fill="#F24D5C" height="6" style="stroke: #C82930; stroke-width: 1.0;" width="6" x="147" y="316.4141"/><text fill="#000000" font-family="sans-serif" font-size="11" lengthAdjust="spacingAndGlyphs" textLength="144" x="159" y="322.6245">float calculateTrackData()</text><line style="stroke: #A80036; stroke-width: 1.0; stroke-dasharray: 1.0,2.0;" x1="140" x2="264" y1="280.4023" y2="280.4023"/><text fill="#000000" font-family="sans-serif" font-size="11" lengthAdjust="spacingAndGlyphs" textLength="66" x="264" y="283.7104">Use Case 1</text><line style="stroke: #A80036; stroke-width: 1.0; stroke-dasharray: 1.0,2.0;" x1="330" x2="454" y1="280.4023" y2="280.4023"/><text fill="#000000" font-family="sans-serif" font-size="11" lengthAdjust="spacingAndGlyphs" textLength="0" x="149" y="352.2339"/><line style="stroke: #A80036; stroke-width: 1.0; stroke-dasharray: 1.0,2.0;" x1="140" x2="264" y1="335.6211" y2="335.6211"/><text fill="#000000" font-family="sans-serif" font-size="11" lengthAdjust="spacingAndGlyphs" textLength="66" x="264" y="338.9292">Use Case 2</text><line style="stroke: #A80036; stroke-width: 1.0; stroke-dasharray: 1.0,2.0;" x1="330" x2="454" y1="335.6211" y2="335.6211"/><!--MD5=[d01e667c21cf622da77e8a7601ca5c91]
class MiddlewareCommLinkManager--><rect fill="#FEFECE" filter="url(#f9is0lrmmaylh)" height="107.2188" id="MiddlewareCommLinkManager" style="stroke: #A80036; stroke-width: 1.5;" width="221" x="186.5" y="59"/><ellipse cx="201.5" cy="75" fill="#B4A7E5" rx="11" ry="11" style="stroke: #A80036; stroke-width: 1.0;"/><path d="M197.4219,70.7656 L197.4219,68.6094 L204.8125,68.6094 L204.8125,70.7656 L202.3438,70.7656 L202.3438,78.8438 L204.8125,78.8438 L204.8125,81 L197.4219,81 L197.4219,78.8438 L199.8906,78.8438 L199.8906,70.7656 L197.4219,70.7656 Z "/><text fill="#000000" font-family="sans-serif" font-size="12" font-style="italic" lengthAdjust="spacingAndGlyphs" textLength="189" x="215.5" y="79.1543">MiddlewareCommLinkManager</text><line style="stroke: #A80036; stroke-width: 1.5;" x1="187.5" x2="406.5" y1="91" y2="91"/><line style="stroke: #A80036; stroke-width: 1.5;" x1="187.5" x2="406.5" y1="99" y2="99"/><ellipse cx="197.5" cy="126.8047" fill="#84BE84" rx="3" ry="3" style="stroke: #038048; stroke-width: 1.0;"/><text fill="#000000" font-family="sans-serif" font-size="11" font-style="italic" lengthAdjust="spacingAndGlyphs" textLength="160" x="206.5" y="130.0151">TrackData parseRfid(int rfid)</text><line style="stroke: #A80036; stroke-width: 1.0; stroke-dasharray: 1.0,2.0;" x1="187.5" x2="264" y1="113.4023" y2="113.4023"/><text fill="#000000" font-family="sans-serif" font-size="11" lengthAdjust="spacingAndGlyphs" textLength="66" x="264" y="116.7104">Use Case 1</text><line style="stroke: #A80036; stroke-width: 1.0; stroke-dasharray: 1.0,2.0;" x1="330" x2="406.5" y1="113.4023" y2="113.4023"/><text fill="#000000" font-family="sans-serif" font-size="11" lengthAdjust="spacingAndGlyphs" textLength="0" x="196.5" y="159.6245"/><line style="stroke: #A80036; stroke-width: 1.0; stroke-dasharray: 1.0,2.0;" x1="187.5" x2="264" y1="143.0117" y2="143.0117"/><text fill="#000000" font-family="sans-serif" font-size="11" lengthAdjust="spacingAndGlyphs" textLength="66" x="264" y="146.3198">Use Case 2</text><line style="stroke: #A80036; stroke-width: 1.0; stroke-dasharray: 1.0,2.0;" x1="330" x2="406.5" y1="143.0117" y2="143.0117"/><!--MD5=[8d86b1aa2030a05d452f78e2e1fb37ed]
class TrackDataCalculator--><rect fill="#FEFECE" filter="url(#f9is0lrmmaylh)" height="86.4141" id="TrackDataCalculator" style="stroke: #A80036; stroke-width: 1.5;" width="518" x="38" y="434"/><ellipse cx="229.25" cy="450" fill="#ADD1B2" rx="11" ry="11" style="stroke: #A80036; stroke-width: 1.0;"/><path d="M232.2188,455.6406 Q231.6406,455.9375 231,456.0781 Q230.3594,456.2344 229.6563,456.2344 Q227.1563,456.2344 225.8281,454.5938 Q224.5156,452.9375 224.5156,449.8125 Q224.5156,446.6875 225.8281,445.0313 Q227.1563,443.375 229.6563,443.375 Q230.3594,443.375 231,443.5313 Q231.6563,443.6875 232.2188,443.9844 L232.2188,446.7031 Q231.5938,446.125 231,445.8594 Q230.4063,445.5781 229.7813,445.5781 Q228.4375,445.5781 227.75,446.6563 Q227.0625,447.7188 227.0625,449.8125 Q227.0625,451.9063 227.75,452.9844 Q228.4375,454.0469 229.7813,454.0469 Q230.4063,454.0469 231,453.7813 Q231.5938,453.5 232.2188,452.9219 L232.2188,455.6406 Z "/><text fill="#000000" font-family="sans-serif" font-size="12" lengthAdjust="spacingAndGlyphs" textLength="127" x="249.75" y="454.1543">TrackDataCalculator</text><line style="stroke: #A80036; stroke-width: 1.5;" x1="39" x2="555" y1="466" y2="466"/><line style="stroke: #A80036; stroke-width: 1.5;" x1="39" x2="555" y1="474" y2="474"/><ellipse cx="49" cy="485" fill="#84BE84" rx="3" ry="3" style="stroke: #038048; stroke-width: 1.0;"/><text fill="#000000" font-family="sans-serif" font-size="11" lengthAdjust="spacingAndGlyphs" text-decoration="underline" textLength="341" x="58" y="488.2104">float calculateSpeed(LocationDataPoint[] locationDataPoints)</text><ellipse cx="49" cy="497.8047" fill="#84BE84" rx="3" ry="3" style="stroke: #038048; stroke-width: 1.0;"/><text fill="#000000" font-family="sans-serif" font-size="11" lengthAdjust="spacingAndGlyphs" text-decoration="underline" textLength="355" x="58" y="501.0151">float calculateDirection(LocationDataPoint[] locationDataPoints)</text><rect fill="#F24D5C" height="6" style="stroke: #C82930; stroke-width: 1.0;" width="6" x="46" y="507.6094"/><text fill="#000000" font-family="sans-serif" font-size="11" lengthAdjust="spacingAndGlyphs" text-decoration="underline" textLength="492" x="58" y="513.8198">LocationDataPoint[] calculateRootMeanSquared(LocationDataPoint[] locationDataPoints)</text><!--MD5=[497c69cbff9542047faf5ca77780c8cb]
reverse link MiddlewareCommLinkManager to MiddlewareCommLinkManagerImplementation--><path d="M297,186.86 C297,199.78 297,213.15 297,225.85 " fill="none" id="MiddlewareCommLinkManager&lt;-MiddlewareCommLinkManagerImplementation" style="stroke: #A80036; stroke-width: 1.0; stroke-dasharray: 7.0,7.0;"/><polygon fill="none" points="290,186.42,297,166.42,304,186.42,290,186.42" style="stroke: #A80036; stroke-width: 1.0;"/><!--MD5=[07eefeefbddab6e40f3001aaadb4b811]
link MiddlewareCommLinkManagerImplementation to TrackDataCalculator--><path d="M297,359.13 C297,382.21 297,407.68 297,428.93 " fill="none" id="MiddlewareCommLinkManagerImplementation-&gt;TrackDataCalculator" style="stroke: #A80036; stroke-width: 1.0; stroke-dasharray: 7.0,7.0;"/><polygon fill="#A80036" points="297,433.95,301,424.95,297,428.95,293,424.95,297,433.95" style="stroke: #A80036; stroke-width: 1.0;"/><!--MD5=[17b38fe555e4fe22ea8e6f7ec9fa4ead]
@startuml MiddlewareCommLinkManagerImplementation_Closure


package edu.oakland.production.middleware02 {
    class MiddlewareCommLinkManagerImplementation {
        __
        .. Use Case 1 ..
        + TrackData parseRfid(int rfid)
        - float calculateLocationDataPoint()
        - float calculateTrackData()
        .. Use Case 2 ..

    }
}




package edu.oakland.production.middleware02 {
    interface MiddlewareCommLinkManager {
        __
        .. Use Case 1 ..
        {abstract} + TrackData parseRfid(int rfid)
        .. Use Case 2 ..

    }
}






MiddlewareCommLinkManagerImplementation .up.|> MiddlewareCommLinkManager



package edu.oakland.helper.middleware02 {
    class TrackDataCalculator {
        {static} + float calculateSpeed(LocationDataPoint[] locationDataPoints)
        {static} + float calculateDirection(LocationDataPoint[] locationDataPoints)
        {static} - LocationDataPoint[] calculateRootMeanSquared(LocationDataPoint[] locationDataPoints)
    }
}






MiddlewareCommLinkManagerImplementation ..> TrackDataCalculator



@enduml

PlantUML version 1.2020.02(Sun Mar 01 10:22:07 GMT 2020)
(GPL source distribution)
Java Runtime: OpenJDK Runtime Environment
JVM: OpenJDK 64-Bit Server VM
Java Version: 11.0.9+11-Ubuntu-0ubuntu1
Operating System: Linux
Default Encoding: ANSI_X3.4-1968
Language: en
Country: US
--></g></svg>