<?xml version="1.0" encoding="UTF-8" standalone="no"?><svg xmlns="http://www.w3.org/2000/svg" xmlns:xlink="http://www.w3.org/1999/xlink" contentScriptType="application/ecmascript" contentStyleType="text/css" height="412px" preserveAspectRatio="none" style="width:1578px;height:412px;" version="1.1" viewBox="0 0 1578 412" width="1578px" zoomAndPan="magnify"><defs><filter height="300%" id="fmbqv6xqwkpsd" width="300%" x="-1" y="-1"><feGaussianBlur result="blurOut" stdDeviation="2.0"/><feColorMatrix in="blurOut" result="blurOut2" type="matrix" values="0 0 0 0 0 0 0 0 0 0 0 0 0 0 0 0 0 0 .4 0"/><feOffset dx="4.0" dy="4.0" in="blurOut2" result="blurOut3"/><feBlend in="SourceGraphic" in2="blurOut3" mode="normal"/></filter></defs><g><!--MD5=[33504725b8a69ba2207f0a836957a91c]
cluster edu.oakland.production.middleware02--><polygon fill="#FFFFFF" filter="url(#fmbqv6xqwkpsd)" points="22,24,332,24,339,46.2969,1556,46.2969,1556,400,22,400,22,24" style="stroke: #000000; stroke-width: 1.5;"/><line style="stroke: #000000; stroke-width: 1.5;" x1="22" x2="339" y1="46.2969" y2="46.2969"/><text fill="#000000" font-family="sans-serif" font-size="14" font-weight="bold" lengthAdjust="spacingAndGlyphs" textLength="304" x="26" y="38.9951">edu.oakland.production.middleware02</text><!--MD5=[d3cb230b9040bd9072bb1f490e167601]
class MiddlewareCommInterface--><rect fill="#FEFECE" filter="url(#fmbqv6xqwkpsd)" height="107.2188" id="MiddlewareCommInterface" style="stroke: #A80036; stroke-width: 1.5;" width="198" x="212" y="59"/><ellipse cx="227" cy="75" fill="#B4A7E5" rx="11" ry="11" style="stroke: #A80036; stroke-width: 1.0;"/><path d="M222.9219,70.7656 L222.9219,68.6094 L230.3125,68.6094 L230.3125,70.7656 L227.8438,70.7656 L227.8438,78.8438 L230.3125,78.8438 L230.3125,81 L222.9219,81 L222.9219,78.8438 L225.3906,78.8438 L225.3906,70.7656 L222.9219,70.7656 Z "/><text fill="#000000" font-family="sans-serif" font-size="12" font-style="italic" lengthAdjust="spacingAndGlyphs" textLength="166" x="241" y="79.1543">MiddlewareCommInterface</text><line style="stroke: #A80036; stroke-width: 1.5;" x1="213" x2="409" y1="91" y2="91"/><line style="stroke: #A80036; stroke-width: 1.5;" x1="213" x2="409" y1="99" y2="99"/><ellipse cx="223" cy="126.8047" fill="#84BE84" rx="3" ry="3" style="stroke: #038048; stroke-width: 1.0;"/><text fill="#000000" font-family="sans-serif" font-size="11" font-style="italic" lengthAdjust="spacingAndGlyphs" textLength="171" x="232" y="130.0151">TrackData requestRfid(int rfid)</text><line style="stroke: #A80036; stroke-width: 1.0; stroke-dasharray: 1.0,2.0;" x1="213" x2="278" y1="113.4023" y2="113.4023"/><text fill="#000000" font-family="sans-serif" font-size="11" lengthAdjust="spacingAndGlyphs" textLength="66" x="278" y="116.7104">Use Case 1</text><line style="stroke: #A80036; stroke-width: 1.0; stroke-dasharray: 1.0,2.0;" x1="344" x2="409" y1="113.4023" y2="113.4023"/><text fill="#000000" font-family="sans-serif" font-size="11" lengthAdjust="spacingAndGlyphs" textLength="0" x="222" y="159.6245"/><line style="stroke: #A80036; stroke-width: 1.0; stroke-dasharray: 1.0,2.0;" x1="213" x2="278" y1="143.0117" y2="143.0117"/><text fill="#000000" font-family="sans-serif" font-size="11" lengthAdjust="spacingAndGlyphs" textLength="66" x="278" y="146.3198">Use Case 2</text><line style="stroke: #A80036; stroke-width: 1.0; stroke-dasharray: 1.0,2.0;" x1="344" x2="409" y1="143.0117" y2="143.0117"/><!--MD5=[d01e667c21cf622da77e8a7601ca5c91]
class MiddlewareCommLinkManager--><rect fill="#FEFECE" filter="url(#fmbqv6xqwkpsd)" height="107.2188" id="MiddlewareCommLinkManager" style="stroke: #A80036; stroke-width: 1.5;" width="221" x="666.5" y="59"/><ellipse cx="681.5" cy="75" fill="#B4A7E5" rx="11" ry="11" style="stroke: #A80036; stroke-width: 1.0;"/><path d="M677.4219,70.7656 L677.4219,68.6094 L684.8125,68.6094 L684.8125,70.7656 L682.3438,70.7656 L682.3438,78.8438 L684.8125,78.8438 L684.8125,81 L677.4219,81 L677.4219,78.8438 L679.8906,78.8438 L679.8906,70.7656 L677.4219,70.7656 Z "/><text fill="#000000" font-family="sans-serif" font-size="12" font-style="italic" lengthAdjust="spacingAndGlyphs" textLength="189" x="695.5" y="79.1543">MiddlewareCommLinkManager</text><line style="stroke: #A80036; stroke-width: 1.5;" x1="667.5" x2="886.5" y1="91" y2="91"/><line style="stroke: #A80036; stroke-width: 1.5;" x1="667.5" x2="886.5" y1="99" y2="99"/><ellipse cx="677.5" cy="126.8047" fill="#84BE84" rx="3" ry="3" style="stroke: #038048; stroke-width: 1.0;"/><text fill="#000000" font-family="sans-serif" font-size="11" font-style="italic" lengthAdjust="spacingAndGlyphs" textLength="160" x="686.5" y="130.0151">TrackData parseRfid(int rfid)</text><line style="stroke: #A80036; stroke-width: 1.0; stroke-dasharray: 1.0,2.0;" x1="667.5" x2="744" y1="113.4023" y2="113.4023"/><text fill="#000000" font-family="sans-serif" font-size="11" lengthAdjust="spacingAndGlyphs" textLength="66" x="744" y="116.7104">Use Case 1</text><line style="stroke: #A80036; stroke-width: 1.0; stroke-dasharray: 1.0,2.0;" x1="810" x2="886.5" y1="113.4023" y2="113.4023"/><text fill="#000000" font-family="sans-serif" font-size="11" lengthAdjust="spacingAndGlyphs" textLength="0" x="676.5" y="159.6245"/><line style="stroke: #A80036; stroke-width: 1.0; stroke-dasharray: 1.0,2.0;" x1="667.5" x2="744" y1="143.0117" y2="143.0117"/><text fill="#000000" font-family="sans-serif" font-size="11" lengthAdjust="spacingAndGlyphs" textLength="66" x="744" y="146.3198">Use Case 2</text><line style="stroke: #A80036; stroke-width: 1.0; stroke-dasharray: 1.0,2.0;" x1="810" x2="886.5" y1="143.0117" y2="143.0117"/><!--MD5=[4915649770e9045e9ea9156a01fd67e8]
class MiddlewareCommDatabaseInterface--><rect fill="#FEFECE" filter="url(#fmbqv6xqwkpsd)" height="107.2188" id="MiddlewareCommDatabaseInterface" style="stroke: #A80036; stroke-width: 1.5;" width="258" x="1126" y="59"/><ellipse cx="1141" cy="75" fill="#B4A7E5" rx="11" ry="11" style="stroke: #A80036; stroke-width: 1.0;"/><path d="M1136.9219,70.7656 L1136.9219,68.6094 L1144.3125,68.6094 L1144.3125,70.7656 L1141.8438,70.7656 L1141.8438,78.8438 L1144.3125,78.8438 L1144.3125,81 L1136.9219,81 L1136.9219,78.8438 L1139.3906,78.8438 L1139.3906,70.7656 L1136.9219,70.7656 Z "/><text fill="#000000" font-family="sans-serif" font-size="12" font-style="italic" lengthAdjust="spacingAndGlyphs" textLength="226" x="1155" y="79.1543">MiddlewareCommDatabaseInterface</text><line style="stroke: #A80036; stroke-width: 1.5;" x1="1127" x2="1383" y1="91" y2="91"/><line style="stroke: #A80036; stroke-width: 1.5;" x1="1127" x2="1383" y1="99" y2="99"/><ellipse cx="1137" cy="126.8047" fill="#84BE84" rx="3" ry="3" style="stroke: #038048; stroke-width: 1.0;"/><text fill="#000000" font-family="sans-serif" font-size="11" font-style="italic" lengthAdjust="spacingAndGlyphs" textLength="123" x="1146" y="130.0151">int checkCurrentRfid()</text><line style="stroke: #A80036; stroke-width: 1.0; stroke-dasharray: 1.0,2.0;" x1="1127" x2="1222" y1="113.4023" y2="113.4023"/><text fill="#000000" font-family="sans-serif" font-size="11" lengthAdjust="spacingAndGlyphs" textLength="66" x="1222" y="116.7104">Use Case 1</text><line style="stroke: #A80036; stroke-width: 1.0; stroke-dasharray: 1.0,2.0;" x1="1288" x2="1383" y1="113.4023" y2="113.4023"/><text fill="#000000" font-family="sans-serif" font-size="11" lengthAdjust="spacingAndGlyphs" textLength="0" x="1136" y="159.6245"/><line style="stroke: #A80036; stroke-width: 1.0; stroke-dasharray: 1.0,2.0;" x1="1127" x2="1222" y1="143.0117" y2="143.0117"/><text fill="#000000" font-family="sans-serif" font-size="11" lengthAdjust="spacingAndGlyphs" textLength="66" x="1222" y="146.3198">Use Case 2</text><line style="stroke: #A80036; stroke-width: 1.0; stroke-dasharray: 1.0,2.0;" x1="1288" x2="1383" y1="143.0117" y2="143.0117"/><!--MD5=[0a03c366ade61429da89cc477d567a32]
class MiddlewareCommInterfaceImplementation--><rect fill="#FEFECE" filter="url(#fmbqv6xqwkpsd)" height="132.8281" id="MiddlewareCommInterfaceImplementation" style="stroke: #A80036; stroke-width: 1.5;" width="546" x="38" y="238.5"/><ellipse cx="176.25" cy="254.5" fill="#ADD1B2" rx="11" ry="11" style="stroke: #A80036; stroke-width: 1.0;"/><path d="M179.2188,260.1406 Q178.6406,260.4375 178,260.5781 Q177.3594,260.7344 176.6563,260.7344 Q174.1563,260.7344 172.8281,259.0938 Q171.5156,257.4375 171.5156,254.3125 Q171.5156,251.1875 172.8281,249.5313 Q174.1563,247.875 176.6563,247.875 Q177.3594,247.875 178,248.0313 Q178.6563,248.1875 179.2188,248.4844 L179.2188,251.2031 Q178.5938,250.625 178,250.3594 Q177.4063,250.0781 176.7813,250.0781 Q175.4375,250.0781 174.75,251.1563 Q174.0625,252.2188 174.0625,254.3125 Q174.0625,256.4063 174.75,257.4844 Q175.4375,258.5469 176.7813,258.5469 Q177.4063,258.5469 178,258.2813 Q178.5938,258 179.2188,257.4219 L179.2188,260.1406 Z "/><text fill="#000000" font-family="sans-serif" font-size="12" lengthAdjust="spacingAndGlyphs" textLength="261" x="196.75" y="258.6543">MiddlewareCommInterfaceImplementation</text><line style="stroke: #A80036; stroke-width: 1.5;" x1="39" x2="583" y1="270.5" y2="270.5"/><rect fill="none" height="6" style="stroke: #C82930; stroke-width: 1.0;" width="6" x="46" y="278.5"/><text fill="#000000" font-family="sans-serif" font-size="11" lengthAdjust="spacingAndGlyphs" textLength="269" x="58" y="284.7104">MiddlewareCommManager middlewareManager</text><line style="stroke: #A80036; stroke-width: 1.5;" x1="39" x2="583" y1="291.3047" y2="291.3047"/><ellipse cx="49" cy="302.3047" fill="#84BE84" rx="3" ry="3" style="stroke: #038048; stroke-width: 1.0;"/><text fill="#000000" font-family="sans-serif" font-size="11" lengthAdjust="spacingAndGlyphs" textLength="520" x="58" y="305.5151">MiddlewareCommInterfaceImplementation (MiddlewareCommManager middlewareManager)</text><ellipse cx="49" cy="331.9141" fill="#84BE84" rx="3" ry="3" style="stroke: #038048; stroke-width: 1.0;"/><text fill="#000000" font-family="sans-serif" font-size="11" lengthAdjust="spacingAndGlyphs" textLength="171" x="58" y="335.1245">TrackData requestRfid(int rfid)</text><line style="stroke: #A80036; stroke-width: 1.0; stroke-dasharray: 1.0,2.0;" x1="39" x2="278" y1="318.5117" y2="318.5117"/><text fill="#000000" font-family="sans-serif" font-size="11" lengthAdjust="spacingAndGlyphs" textLength="66" x="278" y="321.8198">Use Case 1</text><line style="stroke: #A80036; stroke-width: 1.0; stroke-dasharray: 1.0,2.0;" x1="344" x2="583" y1="318.5117" y2="318.5117"/><text fill="#000000" font-family="sans-serif" font-size="11" lengthAdjust="spacingAndGlyphs" textLength="0" x="48" y="364.7339"/><line style="stroke: #A80036; stroke-width: 1.0; stroke-dasharray: 1.0,2.0;" x1="39" x2="278" y1="348.1211" y2="348.1211"/><text fill="#000000" font-family="sans-serif" font-size="11" lengthAdjust="spacingAndGlyphs" textLength="66" x="278" y="351.4292">Use Case 2</text><line style="stroke: #A80036; stroke-width: 1.0; stroke-dasharray: 1.0,2.0;" x1="344" x2="583" y1="348.1211" y2="348.1211"/><!--MD5=[d9ed64ee38938b46697008700ce69fba]
class MiddlewareCommLinkManagerImplementation--><rect fill="#FEFECE" filter="url(#fmbqv6xqwkpsd)" height="158.4375" id="MiddlewareCommLinkManagerImplementation" style="stroke: #A80036; stroke-width: 1.5;" width="316" x="619" y="226"/><ellipse cx="634" cy="242" fill="#ADD1B2" rx="11" ry="11" style="stroke: #A80036; stroke-width: 1.0;"/><path d="M636.9688,247.6406 Q636.3906,247.9375 635.75,248.0781 Q635.1094,248.2344 634.4063,248.2344 Q631.9063,248.2344 630.5781,246.5938 Q629.2656,244.9375 629.2656,241.8125 Q629.2656,238.6875 630.5781,237.0313 Q631.9063,235.375 634.4063,235.375 Q635.1094,235.375 635.75,235.5313 Q636.4063,235.6875 636.9688,235.9844 L636.9688,238.7031 Q636.3438,238.125 635.75,237.8594 Q635.1563,237.5781 634.5313,237.5781 Q633.1875,237.5781 632.5,238.6563 Q631.8125,239.7188 631.8125,241.8125 Q631.8125,243.9063 632.5,244.9844 Q633.1875,246.0469 634.5313,246.0469 Q635.1563,246.0469 635.75,245.7813 Q636.3438,245.5 636.9688,244.9219 L636.9688,247.6406 Z "/><text fill="#000000" font-family="sans-serif" font-size="12" lengthAdjust="spacingAndGlyphs" textLength="284" x="648" y="246.1543">MiddlewareCommLinkManagerImplementation</text><line style="stroke: #A80036; stroke-width: 1.5;" x1="620" x2="934" y1="258" y2="258"/><line style="stroke: #A80036; stroke-width: 1.5;" x1="620" x2="934" y1="266" y2="266"/><ellipse cx="630" cy="293.8047" fill="#84BE84" rx="3" ry="3" style="stroke: #038048; stroke-width: 1.0;"/><text fill="#000000" font-family="sans-serif" font-size="11" lengthAdjust="spacingAndGlyphs" textLength="160" x="639" y="297.0151">TrackData parseRfid(int rfid)</text><text fill="#000000" font-family="sans-serif" font-size="11" lengthAdjust="spacingAndGlyphs" textLength="123" x="639" y="309.8198">float calculateSpeed()</text><text fill="#000000" font-family="sans-serif" font-size="11" lengthAdjust="spacingAndGlyphs" textLength="137" x="639" y="322.6245">float calculateDirection()</text><text fill="#000000" font-family="sans-serif" font-size="11" lengthAdjust="spacingAndGlyphs" textLength="188" x="639" y="335.4292">float calculateLocationDataPoint()</text><text fill="#000000" font-family="sans-serif" font-size="11" lengthAdjust="spacingAndGlyphs" textLength="144" x="639" y="348.2339">float calculateTrackData()</text><line style="stroke: #A80036; stroke-width: 1.0; stroke-dasharray: 1.0,2.0;" x1="620" x2="744" y1="280.4023" y2="280.4023"/><text fill="#000000" font-family="sans-serif" font-size="11" lengthAdjust="spacingAndGlyphs" textLength="66" x="744" y="283.7104">Use Case 1</text><line style="stroke: #A80036; stroke-width: 1.0; stroke-dasharray: 1.0,2.0;" x1="810" x2="934" y1="280.4023" y2="280.4023"/><text fill="#000000" font-family="sans-serif" font-size="11" lengthAdjust="spacingAndGlyphs" textLength="0" x="629" y="377.8433"/><line style="stroke: #A80036; stroke-width: 1.0; stroke-dasharray: 1.0,2.0;" x1="620" x2="744" y1="361.2305" y2="361.2305"/><text fill="#000000" font-family="sans-serif" font-size="11" lengthAdjust="spacingAndGlyphs" textLength="66" x="744" y="364.5386">Use Case 2</text><line style="stroke: #A80036; stroke-width: 1.0; stroke-dasharray: 1.0,2.0;" x1="810" x2="934" y1="361.2305" y2="361.2305"/><!--MD5=[1c4f9654f103878faf4a10c0361188b9]
class MiddlewareCommDatabaseInterfaceImplementation--><rect fill="#FEFECE" filter="url(#fmbqv6xqwkpsd)" height="132.8281" id="MiddlewareCommDatabaseInterfaceImplementation" style="stroke: #A80036; stroke-width: 1.5;" width="569" x="970.5" y="238.5"/><ellipse cx="1089.75" cy="254.5" fill="#ADD1B2" rx="11" ry="11" style="stroke: #A80036; stroke-width: 1.0;"/><path d="M1092.7188,260.1406 Q1092.1406,260.4375 1091.5,260.5781 Q1090.8594,260.7344 1090.1563,260.7344 Q1087.6563,260.7344 1086.3281,259.0938 Q1085.0156,257.4375 1085.0156,254.3125 Q1085.0156,251.1875 1086.3281,249.5313 Q1087.6563,247.875 1090.1563,247.875 Q1090.8594,247.875 1091.5,248.0313 Q1092.1563,248.1875 1092.7188,248.4844 L1092.7188,251.2031 Q1092.0938,250.625 1091.5,250.3594 Q1090.9063,250.0781 1090.2813,250.0781 Q1088.9375,250.0781 1088.25,251.1563 Q1087.5625,252.2188 1087.5625,254.3125 Q1087.5625,256.4063 1088.25,257.4844 Q1088.9375,258.5469 1090.2813,258.5469 Q1090.9063,258.5469 1091.5,258.2813 Q1092.0938,258 1092.7188,257.4219 L1092.7188,260.1406 Z "/><text fill="#000000" font-family="sans-serif" font-size="12" lengthAdjust="spacingAndGlyphs" textLength="322" x="1110.25" y="258.6543">MiddlewareCommDatabaseInterfaceImplementation</text><line style="stroke: #A80036; stroke-width: 1.5;" x1="971.5" x2="1538.5" y1="270.5" y2="270.5"/><ellipse cx="981.5" cy="281.5" fill="none" rx="3" ry="3" style="stroke: #038048; stroke-width: 1.0;"/><text fill="#000000" font-family="sans-serif" font-size="11" lengthAdjust="spacingAndGlyphs" textLength="242" x="990.5" y="284.7104">MiddlewareDatabase middlewareDatabase</text><line style="stroke: #A80036; stroke-width: 1.5;" x1="971.5" x2="1538.5" y1="291.3047" y2="291.3047"/><ellipse cx="981.5" cy="302.3047" fill="#84BE84" rx="3" ry="3" style="stroke: #038048; stroke-width: 1.0;"/><text fill="#000000" font-family="sans-serif" font-size="11" lengthAdjust="spacingAndGlyphs" textLength="543" x="990.5" y="305.5151">MiddlewareCommDatabaseInterfaceImplementation(MiddlewareDatabase middlewareDatabase)</text><ellipse cx="981.5" cy="331.9141" fill="#84BE84" rx="3" ry="3" style="stroke: #038048; stroke-width: 1.0;"/><text fill="#000000" font-family="sans-serif" font-size="11" lengthAdjust="spacingAndGlyphs" textLength="122" x="990.5" y="335.1245">int checkCurrentRfid()</text><line style="stroke: #A80036; stroke-width: 1.0; stroke-dasharray: 1.0,2.0;" x1="971.5" x2="1222" y1="318.5117" y2="318.5117"/><text fill="#000000" font-family="sans-serif" font-size="11" lengthAdjust="spacingAndGlyphs" textLength="66" x="1222" y="321.8198">Use Case 1</text><line style="stroke: #A80036; stroke-width: 1.0; stroke-dasharray: 1.0,2.0;" x1="1288" x2="1538.5" y1="318.5117" y2="318.5117"/><text fill="#000000" font-family="sans-serif" font-size="11" lengthAdjust="spacingAndGlyphs" textLength="0" x="980.5" y="364.7339"/><line style="stroke: #A80036; stroke-width: 1.0; stroke-dasharray: 1.0,2.0;" x1="971.5" x2="1222" y1="348.1211" y2="348.1211"/><text fill="#000000" font-family="sans-serif" font-size="11" lengthAdjust="spacingAndGlyphs" textLength="66" x="1222" y="351.4292">Use Case 2</text><line style="stroke: #A80036; stroke-width: 1.0; stroke-dasharray: 1.0,2.0;" x1="1288" x2="1538.5" y1="348.1211" y2="348.1211"/><!--MD5=[a6f6d6498f8ad0fd1149c5a16bc55d36]
reverse link MiddlewareCommInterface to MiddlewareCommInterfaceImplementation--><path d="M311,186.28 C311,203.4 311,221.56 311,238.35 " fill="none" id="MiddlewareCommInterface&lt;-MiddlewareCommInterfaceImplementation" style="stroke: #A80036; stroke-width: 1.0; stroke-dasharray: 7.0,7.0;"/><polygon fill="none" points="304,186.06,311,166.06,318,186.06,304,186.06" style="stroke: #A80036; stroke-width: 1.0;"/><!--MD5=[497c69cbff9542047faf5ca77780c8cb]
reverse link MiddlewareCommLinkManager to MiddlewareCommLinkManagerImplementation--><path d="M777,186.41 C777,199.34 777,212.86 777,225.92 " fill="none" id="MiddlewareCommLinkManager&lt;-MiddlewareCommLinkManagerImplementation" style="stroke: #A80036; stroke-width: 1.0; stroke-dasharray: 7.0,7.0;"/><polygon fill="none" points="770,186.06,777,166.06,784,186.06,770,186.06" style="stroke: #A80036; stroke-width: 1.0;"/><!--MD5=[8e69def7a54ed81078168d5d1d8487c9]
reverse link MiddlewareCommDatabaseInterface to MiddlewareCommDatabaseInterfaceImplementation--><path d="M1255,186.28 C1255,203.4 1255,221.56 1255,238.35 " fill="none" id="MiddlewareCommDatabaseInterface&lt;-MiddlewareCommDatabaseInterfaceImplementation" style="stroke: #A80036; stroke-width: 1.0; stroke-dasharray: 7.0,7.0;"/><polygon fill="none" points="1248,186.06,1255,166.06,1262,186.06,1248,186.06" style="stroke: #A80036; stroke-width: 1.0;"/><!--MD5=[027c6ae5b185d671e88c0f730002a2ba]
@startuml Middleware02ProductionPackage_Closure

package edu.oakland.production.middleware02 {
    
}



package edu.oakland.production.middleware02 {
    interface MiddlewareCommInterface {
        __
        .. Use Case 1 ..
        {abstract} + TrackData requestRfid(int rfid)
        .. Use Case 2 ..

    }
}








package edu.oakland.production.middleware02 {
    interface MiddlewareCommLinkManager {
        __
        .. Use Case 1 ..
        {abstract} + TrackData parseRfid(int rfid)
        .. Use Case 2 ..

    }
}








package edu.oakland.production.middleware02 {
    interface MiddlewareCommDatabaseInterface {
        __
        .. Use Case 1 ..
        {abstract} + int checkCurrentRfid()
        .. Use Case 2 ..

    }
}








package edu.oakland.production.middleware02 {
    class MiddlewareCommInterfaceImplementation {
        - MiddlewareCommManager middlewareManager
        __
        + MiddlewareCommInterfaceImplementation (MiddlewareCommManager middlewareManager)
        .. Use Case 1 ..
        + TrackData requestRfid(int rfid)
        .. Use Case 2 ..

    }
}


MiddlewareCommInterfaceImplementation .up.|> MiddlewareCommInterface







package edu.oakland.production.middleware02 {
    class MiddlewareCommLinkManagerImplementation {
        __
        .. Use Case 1 ..
        + TrackData parseRfid(int rfid)
        float calculateSpeed()
        float calculateDirection()
        float calculateLocationDataPoint()
        float calculateTrackData()
        .. Use Case 2 ..

    }
}


MiddlewareCommLinkManagerImplementation .up.|> MiddlewareCommLinkManager







package edu.oakland.production.middleware02 {
    class MiddlewareCommDatabaseInterfaceImplementation {
        + MiddlewareDatabase middlewareDatabase
        __
        + MiddlewareCommDatabaseInterfaceImplementation(MiddlewareDatabase middlewareDatabase)
        .. Use Case 1 ..
        + int checkCurrentRfid()
        .. Use Case 2 ..

    }
}


MiddlewareCommDatabaseInterfaceImplementation .up.|> MiddlewareCommDatabaseInterface






@enduml

PlantUML version 1.2020.02(Sun Mar 01 10:22:07 GMT 2020)
(GPL source distribution)
Java Runtime: OpenJDK Runtime Environment
JVM: OpenJDK 64-Bit Server VM
Java Version: 11.0.9+11-Ubuntu-0ubuntu1
Operating System: Linux
Default Encoding: ANSI_X3.4-1968
Language: en
Country: US
--></g></svg>