<?xml version="1.0" encoding="UTF-8" standalone="no"?><svg xmlns="http://www.w3.org/2000/svg" xmlns:xlink="http://www.w3.org/1999/xlink" contentScriptType="application/ecmascript" contentStyleType="text/css" height="443px" preserveAspectRatio="none" style="width:1246px;height:443px;" version="1.1" viewBox="0 0 1246 443" width="1246px" zoomAndPan="magnify"><defs><filter height="300%" id="f1bwq1vgk88yyh" width="300%" x="-1" y="-1"><feGaussianBlur result="blurOut" stdDeviation="2.0"/><feColorMatrix in="blurOut" result="blurOut2" type="matrix" values="0 0 0 0 0 0 0 0 0 0 0 0 0 0 0 0 0 0 .4 0"/><feOffset dx="4.0" dy="4.0" in="blurOut2" result="blurOut3"/><feBlend in="SourceGraphic" in2="blurOut3" mode="normal"/></filter></defs><g><!--MD5=[33504725b8a69ba2207f0a836957a91c]
cluster edu.oakland.production.middleware02--><polygon fill="#FFFFFF" filter="url(#f1bwq1vgk88yyh)" points="22,24,332,24,339,46.2969,1224,46.2969,1224,431,22,431,22,24" style="stroke: #000000; stroke-width: 1.5;"/><line style="stroke: #000000; stroke-width: 1.5;" x1="22" x2="339" y1="46.2969" y2="46.2969"/><text fill="#000000" font-family="sans-serif" font-size="14" font-weight="bold" lengthAdjust="spacingAndGlyphs" textLength="304" x="26" y="38.9951">edu.oakland.production.middleware02</text><!--MD5=[d3cb230b9040bd9072bb1f490e167601]
class MiddlewareCommInterface--><rect fill="#FEFECE" filter="url(#f1bwq1vgk88yyh)" height="77.6094" id="MiddlewareCommInterface" style="stroke: #A80036; stroke-width: 1.5;" width="198" x="116" y="84.5"/><ellipse cx="131" cy="100.5" fill="#B4A7E5" rx="11" ry="11" style="stroke: #A80036; stroke-width: 1.0;"/><path d="M126.9219,96.2656 L126.9219,94.1094 L134.3125,94.1094 L134.3125,96.2656 L131.8438,96.2656 L131.8438,104.3438 L134.3125,104.3438 L134.3125,106.5 L126.9219,106.5 L126.9219,104.3438 L129.3906,104.3438 L129.3906,96.2656 L126.9219,96.2656 Z "/><text fill="#000000" font-family="sans-serif" font-size="12" font-style="italic" lengthAdjust="spacingAndGlyphs" textLength="166" x="145" y="104.6543">MiddlewareCommInterface</text><line style="stroke: #A80036; stroke-width: 1.5;" x1="117" x2="313" y1="116.5" y2="116.5"/><line style="stroke: #A80036; stroke-width: 1.5;" x1="117" x2="313" y1="124.5" y2="124.5"/><ellipse cx="127" cy="152.3047" fill="#84BE84" rx="3" ry="3" style="stroke: #038048; stroke-width: 1.0;"/><text fill="#000000" font-family="sans-serif" font-size="11" font-style="italic" lengthAdjust="spacingAndGlyphs" textLength="171" x="136" y="155.5151">TrackData requestRfid(int rfid)</text><line style="stroke: #A80036; stroke-width: 1.0; stroke-dasharray: 1.0,2.0;" x1="117" x2="182" y1="138.9023" y2="138.9023"/><text fill="#000000" font-family="sans-serif" font-size="11" lengthAdjust="spacingAndGlyphs" textLength="66" x="182" y="142.2104">Use Case 1</text><line style="stroke: #A80036; stroke-width: 1.0; stroke-dasharray: 1.0,2.0;" x1="248" x2="313" y1="138.9023" y2="138.9023"/><!--MD5=[d01e667c21cf622da77e8a7601ca5c91]
class MiddlewareCommLinkManager--><rect fill="#FEFECE" filter="url(#f1bwq1vgk88yyh)" height="77.6094" id="MiddlewareCommLinkManager" style="stroke: #A80036; stroke-width: 1.5;" width="221" x="349.5" y="84.5"/><ellipse cx="364.5" cy="100.5" fill="#B4A7E5" rx="11" ry="11" style="stroke: #A80036; stroke-width: 1.0;"/><path d="M360.4219,96.2656 L360.4219,94.1094 L367.8125,94.1094 L367.8125,96.2656 L365.3438,96.2656 L365.3438,104.3438 L367.8125,104.3438 L367.8125,106.5 L360.4219,106.5 L360.4219,104.3438 L362.8906,104.3438 L362.8906,96.2656 L360.4219,96.2656 Z "/><text fill="#000000" font-family="sans-serif" font-size="12" font-style="italic" lengthAdjust="spacingAndGlyphs" textLength="189" x="378.5" y="104.6543">MiddlewareCommLinkManager</text><line style="stroke: #A80036; stroke-width: 1.5;" x1="350.5" x2="569.5" y1="116.5" y2="116.5"/><line style="stroke: #A80036; stroke-width: 1.5;" x1="350.5" x2="569.5" y1="124.5" y2="124.5"/><ellipse cx="360.5" cy="152.3047" fill="#84BE84" rx="3" ry="3" style="stroke: #038048; stroke-width: 1.0;"/><text fill="#000000" font-family="sans-serif" font-size="11" font-style="italic" lengthAdjust="spacingAndGlyphs" textLength="160" x="369.5" y="155.5151">TrackData parseRfid(int rfid)</text><line style="stroke: #A80036; stroke-width: 1.0; stroke-dasharray: 1.0,2.0;" x1="350.5" x2="427" y1="138.9023" y2="138.9023"/><text fill="#000000" font-family="sans-serif" font-size="11" lengthAdjust="spacingAndGlyphs" textLength="66" x="427" y="142.2104">Use Case 1</text><line style="stroke: #A80036; stroke-width: 1.0; stroke-dasharray: 1.0,2.0;" x1="493" x2="569.5" y1="138.9023" y2="138.9023"/><!--MD5=[4915649770e9045e9ea9156a01fd67e8]
class MiddlewareCommDatabaseInterface--><rect fill="#FEFECE" filter="url(#f1bwq1vgk88yyh)" height="128.8281" id="MiddlewareCommDatabaseInterface" style="stroke: #A80036; stroke-width: 1.5;" width="308" x="606" y="59"/><ellipse cx="643.5" cy="75" fill="#B4A7E5" rx="11" ry="11" style="stroke: #A80036; stroke-width: 1.0;"/><path d="M639.4219,70.7656 L639.4219,68.6094 L646.8125,68.6094 L646.8125,70.7656 L644.3438,70.7656 L644.3438,78.8438 L646.8125,78.8438 L646.8125,81 L639.4219,81 L639.4219,78.8438 L641.8906,78.8438 L641.8906,70.7656 L639.4219,70.7656 Z "/><text fill="#000000" font-family="sans-serif" font-size="12" font-style="italic" lengthAdjust="spacingAndGlyphs" textLength="226" x="662.5" y="79.1543">MiddlewareCommDatabaseInterface</text><line style="stroke: #A80036; stroke-width: 1.5;" x1="607" x2="913" y1="91" y2="91"/><line style="stroke: #A80036; stroke-width: 1.5;" x1="607" x2="913" y1="99" y2="99"/><ellipse cx="617" cy="126.8047" fill="#84BE84" rx="3" ry="3" style="stroke: #038048; stroke-width: 1.0;"/><text fill="#000000" font-family="sans-serif" font-size="11" font-style="italic" lengthAdjust="spacingAndGlyphs" textLength="123" x="626" y="130.0151">int checkCurrentRfid()</text><ellipse cx="617" cy="139.6094" fill="#84BE84" rx="3" ry="3" style="stroke: #038048; stroke-width: 1.0;"/><text fill="#000000" font-family="sans-serif" font-size="11" font-style="italic" lengthAdjust="spacingAndGlyphs" textLength="118" x="626" y="142.8198">String requestMode()</text><ellipse cx="617" cy="152.4141" fill="#84BE84" rx="3" ry="3" style="stroke: #038048; stroke-width: 1.0;"/><text fill="#000000" font-family="sans-serif" font-size="11" font-style="italic" lengthAdjust="spacingAndGlyphs" textLength="144" x="626" y="155.6245">TrackData getTrackData()</text><ellipse cx="617" cy="165.2188" fill="#84BE84" rx="3" ry="3" style="stroke: #038048; stroke-width: 1.0;"/><text fill="#000000" font-family="sans-serif" font-size="11" font-style="italic" lengthAdjust="spacingAndGlyphs" textLength="237" x="626" y="168.4292">void storeTrackData(TrackData trackData)</text><ellipse cx="617" cy="178.0234" fill="#84BE84" rx="3" ry="3" style="stroke: #038048; stroke-width: 1.0;"/><text fill="#000000" font-family="sans-serif" font-size="11" font-style="italic" lengthAdjust="spacingAndGlyphs" textLength="282" x="626" y="181.2339">LocationDataPoint getLocationDataPoint(int offset)</text><line style="stroke: #A80036; stroke-width: 1.0; stroke-dasharray: 1.0,2.0;" x1="607" x2="727" y1="113.4023" y2="113.4023"/><text fill="#000000" font-family="sans-serif" font-size="11" lengthAdjust="spacingAndGlyphs" textLength="66" x="727" y="116.7104">Use Case 1</text><line style="stroke: #A80036; stroke-width: 1.0; stroke-dasharray: 1.0,2.0;" x1="793" x2="913" y1="113.4023" y2="113.4023"/><!--MD5=[0a03c366ade61429da89cc477d567a32]
class MiddlewareCommInterfaceImplementation--><rect fill="#FEFECE" filter="url(#f1bwq1vgk88yyh)" height="128.8281" id="MiddlewareCommInterfaceImplementation" style="stroke: #A80036; stroke-width: 1.5;" width="353" x="38.5" y="267"/><ellipse cx="80.5" cy="283" fill="#ADD1B2" rx="11" ry="11" style="stroke: #A80036; stroke-width: 1.0;"/><path d="M83.4688,288.6406 Q82.8906,288.9375 82.25,289.0781 Q81.6094,289.2344 80.9063,289.2344 Q78.4063,289.2344 77.0781,287.5938 Q75.7656,285.9375 75.7656,282.8125 Q75.7656,279.6875 77.0781,278.0313 Q78.4063,276.375 80.9063,276.375 Q81.6094,276.375 82.25,276.5313 Q82.9063,276.6875 83.4688,276.9844 L83.4688,279.7031 Q82.8438,279.125 82.25,278.8594 Q81.6563,278.5781 81.0313,278.5781 Q79.6875,278.5781 79,279.6563 Q78.3125,280.7188 78.3125,282.8125 Q78.3125,284.9063 79,285.9844 Q79.6875,287.0469 81.0313,287.0469 Q81.6563,287.0469 82.25,286.7813 Q82.8438,286.5 83.4688,285.9219 L83.4688,288.6406 Z "/><text fill="#000000" font-family="sans-serif" font-size="12" lengthAdjust="spacingAndGlyphs" textLength="261" x="100.5" y="287.1543">MiddlewareCommInterfaceImplementation</text><line style="stroke: #A80036; stroke-width: 1.5;" x1="39.5" x2="390.5" y1="299" y2="299"/><rect fill="none" height="6" style="stroke: #C82930; stroke-width: 1.0;" width="6" x="46.5" y="307"/><text fill="#000000" font-family="sans-serif" font-size="11" lengthAdjust="spacingAndGlyphs" textLength="37" x="58.5" y="313.2104">int rfid</text><rect fill="none" height="6" style="stroke: #C82930; stroke-width: 1.0;" width="6" x="46.5" y="319.8047"/><text fill="#000000" font-family="sans-serif" font-size="11" lengthAdjust="spacingAndGlyphs" textLength="291" x="58.5" y="326.0151">MiddlewareCommLinkManager middlewareManager</text><line style="stroke: #A80036; stroke-width: 1.5;" x1="39.5" x2="390.5" y1="332.6094" y2="332.6094"/><ellipse cx="49.5" cy="343.6094" fill="#84BE84" rx="3" ry="3" style="stroke: #038048; stroke-width: 1.0;"/><text fill="#000000" font-family="sans-serif" font-size="11" lengthAdjust="spacingAndGlyphs" textLength="243" x="58.5" y="346.8198">MiddlewareCommInterfaceImplementation(</text><text fill="#000000" font-family="sans-serif" font-size="11" lengthAdjust="spacingAndGlyphs" textLength="295" x="90.5" y="359.6245">MiddlewareCommLinkManager middlewareManager)</text><ellipse cx="49.5" cy="386.0234" fill="#84BE84" rx="3" ry="3" style="stroke: #038048; stroke-width: 1.0;"/><text fill="#000000" font-family="sans-serif" font-size="11" lengthAdjust="spacingAndGlyphs" textLength="171" x="58.5" y="389.2339">TrackData requestRfid(int rfid)</text><line style="stroke: #A80036; stroke-width: 1.0; stroke-dasharray: 1.0,2.0;" x1="39.5" x2="182" y1="372.6211" y2="372.6211"/><text fill="#000000" font-family="sans-serif" font-size="11" lengthAdjust="spacingAndGlyphs" textLength="66" x="182" y="375.9292">Use Case 1</text><line style="stroke: #A80036; stroke-width: 1.0; stroke-dasharray: 1.0,2.0;" x1="248" x2="390.5" y1="372.6211" y2="372.6211"/><!--MD5=[d9ed64ee38938b46697008700ce69fba]
class MiddlewareCommLinkManagerImplementation--><rect fill="#FEFECE" filter="url(#f1bwq1vgk88yyh)" height="154.4375" id="MiddlewareCommLinkManagerImplementation" style="stroke: #A80036; stroke-width: 1.5;" width="392" x="427" y="254.5"/><ellipse cx="476.75" cy="270.5" fill="#ADD1B2" rx="11" ry="11" style="stroke: #A80036; stroke-width: 1.0;"/><path d="M479.7188,276.1406 Q479.1406,276.4375 478.5,276.5781 Q477.8594,276.7344 477.1563,276.7344 Q474.6563,276.7344 473.3281,275.0938 Q472.0156,273.4375 472.0156,270.3125 Q472.0156,267.1875 473.3281,265.5313 Q474.6563,263.875 477.1563,263.875 Q477.8594,263.875 478.5,264.0313 Q479.1563,264.1875 479.7188,264.4844 L479.7188,267.2031 Q479.0938,266.625 478.5,266.3594 Q477.9063,266.0781 477.2813,266.0781 Q475.9375,266.0781 475.25,267.1563 Q474.5625,268.2188 474.5625,270.3125 Q474.5625,272.4063 475.25,273.4844 Q475.9375,274.5469 477.2813,274.5469 Q477.9063,274.5469 478.5,274.2813 Q479.0938,274 479.7188,273.4219 L479.7188,276.1406 Z "/><text fill="#000000" font-family="sans-serif" font-size="12" lengthAdjust="spacingAndGlyphs" textLength="284" x="497.25" y="274.6543">MiddlewareCommLinkManagerImplementation</text><line style="stroke: #A80036; stroke-width: 1.5;" x1="428" x2="818" y1="286.5" y2="286.5"/><rect fill="none" height="6" style="stroke: #C82930; stroke-width: 1.0;" width="6" x="435" y="294.5"/><text fill="#000000" font-family="sans-serif" font-size="11" lengthAdjust="spacingAndGlyphs" textLength="334" x="447" y="300.7104">MiddlewareCommDatabaseInterface midDatabaseInterface</text><rect fill="none" height="6" style="stroke: #C82930; stroke-width: 1.0;" width="6" x="435" y="307.3047"/><text fill="#000000" font-family="sans-serif" font-size="11" lengthAdjust="spacingAndGlyphs" textLength="202" x="447" y="313.5151">MiddlewareGisManager gisManager</text><line style="stroke: #A80036; stroke-width: 1.5;" x1="428" x2="818" y1="320.1094" y2="320.1094"/><ellipse cx="438" cy="331.1094" fill="#84BE84" rx="3" ry="3" style="stroke: #038048; stroke-width: 1.0;"/><text fill="#000000" font-family="sans-serif" font-size="11" lengthAdjust="spacingAndGlyphs" textLength="264" x="447" y="334.3198">MiddlewareCommLinkManagerImplementation(</text><text fill="#000000" font-family="sans-serif" font-size="11" lengthAdjust="spacingAndGlyphs" textLength="334" x="479" y="347.1245">MiddlewareCommDatabaseInterface midDatabaseInterface</text><text fill="#000000" font-family="sans-serif" font-size="11" lengthAdjust="spacingAndGlyphs" textLength="206" x="479" y="359.9292">MiddlewareGisManager gisManager)</text><ellipse cx="438" cy="386.3281" fill="#84BE84" rx="3" ry="3" style="stroke: #038048; stroke-width: 1.0;"/><text fill="#000000" font-family="sans-serif" font-size="11" lengthAdjust="spacingAndGlyphs" textLength="160" x="447" y="389.5386">TrackData parseRfid(int rfid)</text><rect fill="#F24D5C" height="6" style="stroke: #C82930; stroke-width: 1.0;" width="6" x="435" y="396.1328"/><text fill="#000000" font-family="sans-serif" font-size="11" lengthAdjust="spacingAndGlyphs" textLength="192" x="447" y="402.3433">TrackData calculateLocationData()</text><line style="stroke: #A80036; stroke-width: 1.0; stroke-dasharray: 1.0,2.0;" x1="428" x2="590" y1="372.9258" y2="372.9258"/><text fill="#000000" font-family="sans-serif" font-size="11" lengthAdjust="spacingAndGlyphs" textLength="66" x="590" y="376.2339">Use Case 1</text><line style="stroke: #A80036; stroke-width: 1.0; stroke-dasharray: 1.0,2.0;" x1="656" x2="818" y1="372.9258" y2="372.9258"/><!--MD5=[1c4f9654f103878faf4a10c0361188b9]
class MiddlewareCommDatabaseInterfaceImplementation--><rect fill="#FEFECE" filter="url(#f1bwq1vgk88yyh)" height="167.2422" id="MiddlewareCommDatabaseInterfaceImplementation" style="stroke: #A80036; stroke-width: 1.5;" width="354" x="854" y="248"/><ellipse cx="869" cy="264" fill="#ADD1B2" rx="11" ry="11" style="stroke: #A80036; stroke-width: 1.0;"/><path d="M871.9688,269.6406 Q871.3906,269.9375 870.75,270.0781 Q870.1094,270.2344 869.4063,270.2344 Q866.9063,270.2344 865.5781,268.5938 Q864.2656,266.9375 864.2656,263.8125 Q864.2656,260.6875 865.5781,259.0313 Q866.9063,257.375 869.4063,257.375 Q870.1094,257.375 870.75,257.5313 Q871.4063,257.6875 871.9688,257.9844 L871.9688,260.7031 Q871.3438,260.125 870.75,259.8594 Q870.1563,259.5781 869.5313,259.5781 Q868.1875,259.5781 867.5,260.6563 Q866.8125,261.7188 866.8125,263.8125 Q866.8125,265.9063 867.5,266.9844 Q868.1875,268.0469 869.5313,268.0469 Q870.1563,268.0469 870.75,267.7813 Q871.3438,267.5 871.9688,266.9219 L871.9688,269.6406 Z "/><text fill="#000000" font-family="sans-serif" font-size="12" lengthAdjust="spacingAndGlyphs" textLength="322" x="883" y="268.1543">MiddlewareCommDatabaseInterfaceImplementation</text><line style="stroke: #A80036; stroke-width: 1.5;" x1="855" x2="1207" y1="280" y2="280"/><ellipse cx="865" cy="291" fill="none" rx="3" ry="3" style="stroke: #038048; stroke-width: 1.0;"/><text fill="#000000" font-family="sans-serif" font-size="11" lengthAdjust="spacingAndGlyphs" textLength="285" x="874" y="294.2104">DatabaseCommInterface databaseCommInterface</text><line style="stroke: #A80036; stroke-width: 1.5;" x1="855" x2="1207" y1="300.8047" y2="300.8047"/><ellipse cx="865" cy="311.8047" fill="#84BE84" rx="3" ry="3" style="stroke: #038048; stroke-width: 1.0;"/><text fill="#000000" font-family="sans-serif" font-size="11" lengthAdjust="spacingAndGlyphs" textLength="297" x="874" y="315.0151">MiddlewareCommDatabaseInterfaceImplementation(</text><text fill="#000000" font-family="sans-serif" font-size="11" lengthAdjust="spacingAndGlyphs" textLength="289" x="906" y="327.8198">DatabaseCommInterface databaseCommInterface)</text><ellipse cx="865" cy="354.2188" fill="#84BE84" rx="3" ry="3" style="stroke: #038048; stroke-width: 1.0;"/><text fill="#000000" font-family="sans-serif" font-size="11" lengthAdjust="spacingAndGlyphs" textLength="122" x="874" y="357.4292">int checkCurrentRfid()</text><ellipse cx="865" cy="367.0234" fill="#84BE84" rx="3" ry="3" style="stroke: #038048; stroke-width: 1.0;"/><text fill="#000000" font-family="sans-serif" font-size="11" lengthAdjust="spacingAndGlyphs" textLength="120" x="874" y="370.2339">String requestMode()</text><ellipse cx="865" cy="379.8281" fill="#84BE84" rx="3" ry="3" style="stroke: #038048; stroke-width: 1.0;"/><text fill="#000000" font-family="sans-serif" font-size="11" lengthAdjust="spacingAndGlyphs" textLength="144" x="874" y="383.0386">TrackData getTrackData()</text><ellipse cx="865" cy="392.6328" fill="#84BE84" rx="3" ry="3" style="stroke: #038048; stroke-width: 1.0;"/><text fill="#000000" font-family="sans-serif" font-size="11" lengthAdjust="spacingAndGlyphs" textLength="237" x="874" y="395.8433">void storeTrackData(TrackData trackData)</text><ellipse cx="865" cy="405.4375" fill="#84BE84" rx="3" ry="3" style="stroke: #038048; stroke-width: 1.0;"/><text fill="#000000" font-family="sans-serif" font-size="11" lengthAdjust="spacingAndGlyphs" textLength="283" x="874" y="408.6479">LocationDataPoint getLocationDataPoint(int offset)</text><line style="stroke: #A80036; stroke-width: 1.0; stroke-dasharray: 1.0,2.0;" x1="855" x2="998" y1="340.8164" y2="340.8164"/><text fill="#000000" font-family="sans-serif" font-size="11" lengthAdjust="spacingAndGlyphs" textLength="66" x="998" y="344.1245">Use Case 1</text><line style="stroke: #A80036; stroke-width: 1.0; stroke-dasharray: 1.0,2.0;" x1="1064" x2="1207" y1="340.8164" y2="340.8164"/><!--MD5=[79aecf45dbeed97c47edbe657f491fed]
link MiddlewareCommInterface to MiddlewareCommLinkManager--><!--MD5=[3e31a8e5d6790d9de494b190b5cea52e]
link MiddlewareCommLinkManager to MiddlewareCommDatabaseInterface--><!--MD5=[1ada782ccdd2db703c66336b5f162fc3]
link MiddlewareCommInterface to MiddlewareCommInterfaceImplementation--><!--MD5=[6da0790ce05b99ca6092638cec9e90cf]
link MiddlewareCommInterfaceImplementation to MiddlewareCommLinkManagerImplementation--><!--MD5=[36e461af31e28567fecbe5ff60035690]
link MiddlewareCommLinkManagerImplementation to MiddlewareCommDatabaseInterfaceImplementation--><!--MD5=[043fb0de88914556851b1456ea17a6bc]
@startuml Middleware02ProductionPackage

package edu.oakland.production.middleware02 {

}


package edu.oakland.production.middleware02 {
    interface MiddlewareCommInterface {
        __
        .. Use Case 1 ..
        {abstract} + TrackData requestRfid(int rfid)
    }
}


package edu.oakland.production.middleware02 {
    interface MiddlewareCommLinkManager {
        __
        .. Use Case 1 ..
        {abstract} + TrackData parseRfid(int rfid)
    }
}


package edu.oakland.production.middleware02 {
    interface MiddlewareCommDatabaseInterface {
        __
        .. Use Case 1 ..
        {abstract} + int checkCurrentRfid()
        {abstract} + String requestMode()
        {abstract} + TrackData getTrackData()
        {abstract} + void storeTrackData(TrackData trackData)
        {abstract} + LocationDataPoint getLocationDataPoint(int offset)
    }
}


package edu.oakland.production.middleware02 {
    class MiddlewareCommInterfaceImplementation {
        - int rfid
        - MiddlewareCommLinkManager middlewareManager
        __
        + MiddlewareCommInterfaceImplementation(
        \tMiddlewareCommLinkManager middlewareManager)
        .. Use Case 1 ..
        + TrackData requestRfid(int rfid)
}


package edu.oakland.production.middleware02 {
    class MiddlewareCommLinkManagerImplementation {
        - MiddlewareCommDatabaseInterface midDatabaseInterface
        - MiddlewareGisManager gisManager
        __
        + MiddlewareCommLinkManagerImplementation(
        \tMiddlewareCommDatabaseInterface midDatabaseInterface
        \tMiddlewareGisManager gisManager)
        .. Use Case 1 ..
        + TrackData parseRfid(int rfid)
        - TrackData calculateLocationData()
    }
}


package edu.oakland.production.middleware02 {
    class MiddlewareCommDatabaseInterfaceImplementation {
        + DatabaseCommInterface databaseCommInterface
        __
        + MiddlewareCommDatabaseInterfaceImplementation(
        \tDatabaseCommInterface databaseCommInterface)
        .. Use Case 1 ..
        + int checkCurrentRfid()
        + String requestMode()
        + TrackData getTrackData()
        + void storeTrackData(TrackData trackData)
        + LocationDataPoint getLocationDataPoint(int offset)
    }
}


@enduml

PlantUML version 1.2020.02(Sun Mar 01 10:22:07 GMT 2020)
(GPL source distribution)
Java Runtime: OpenJDK Runtime Environment
JVM: OpenJDK 64-Bit Server VM
Java Version: 11.0.9+11-Ubuntu-0ubuntu1
Operating System: Linux
Default Encoding: ANSI_X3.4-1968
Language: en
Country: US
--></g></svg>