<?xml version="1.0" encoding="UTF-8" standalone="no"?><svg xmlns="http://www.w3.org/2000/svg" xmlns:xlink="http://www.w3.org/1999/xlink" contentScriptType="application/ecmascript" contentStyleType="text/css" height="528px" preserveAspectRatio="none" style="width:1332px;height:528px;" version="1.1" viewBox="0 0 1332 528" width="1332px" zoomAndPan="magnify"><defs><filter height="300%" id="ftfxmc3uz63c3" width="300%" x="-1" y="-1"><feGaussianBlur result="blurOut" stdDeviation="2.0"/><feColorMatrix in="blurOut" result="blurOut2" type="matrix" values="0 0 0 0 0 0 0 0 0 0 0 0 0 0 0 0 0 0 .4 0"/><feOffset dx="4.0" dy="4.0" in="blurOut2" result="blurOut3"/><feBlend in="SourceGraphic" in2="blurOut3" mode="normal"/></filter></defs><g><!--MD5=[33504725b8a69ba2207f0a836957a91c]
cluster edu.oakland.production.middleware02--><polygon fill="#FFFFFF" filter="url(#ftfxmc3uz63c3)" points="22,24,332,24,339,46.2969,1310,46.2969,1310,355,22,355,22,24" style="stroke: #000000; stroke-width: 1.5;"/><line style="stroke: #000000; stroke-width: 1.5;" x1="22" x2="339" y1="46.2969" y2="46.2969"/><text fill="#000000" font-family="sans-serif" font-size="14" font-weight="bold" lengthAdjust="spacingAndGlyphs" textLength="304" x="26" y="38.9951">edu.oakland.production.middleware02</text><!--MD5=[73d4e355f259fb8d2c716d693a5be920]
cluster edu.oakland.helper.middleware02--><polygon fill="#FFFFFF" filter="url(#ftfxmc3uz63c3)" points="391,379,666,379,673,401.2969,941,401.2969,941,516,391,516,391,379" style="stroke: #000000; stroke-width: 1.5;"/><line style="stroke: #000000; stroke-width: 1.5;" x1="391" x2="673" y1="401.2969" y2="401.2969"/><text fill="#000000" font-family="sans-serif" font-size="14" font-weight="bold" lengthAdjust="spacingAndGlyphs" textLength="269" x="395" y="393.9951">edu.oakland.helper.middleware02</text><!--MD5=[d3cb230b9040bd9072bb1f490e167601]
class MiddlewareCommInterface--><rect fill="#FEFECE" filter="url(#ftfxmc3uz63c3)" height="77.6094" id="MiddlewareCommInterface" style="stroke: #A80036; stroke-width: 1.5;" width="198" x="116" y="59"/><ellipse cx="131" cy="75" fill="#B4A7E5" rx="11" ry="11" style="stroke: #A80036; stroke-width: 1.0;"/><path d="M126.9219,70.7656 L126.9219,68.6094 L134.3125,68.6094 L134.3125,70.7656 L131.8438,70.7656 L131.8438,78.8438 L134.3125,78.8438 L134.3125,81 L126.9219,81 L126.9219,78.8438 L129.3906,78.8438 L129.3906,70.7656 L126.9219,70.7656 Z "/><text fill="#000000" font-family="sans-serif" font-size="12" font-style="italic" lengthAdjust="spacingAndGlyphs" textLength="166" x="145" y="79.1543">MiddlewareCommInterface</text><line style="stroke: #A80036; stroke-width: 1.5;" x1="117" x2="313" y1="91" y2="91"/><line style="stroke: #A80036; stroke-width: 1.5;" x1="117" x2="313" y1="99" y2="99"/><ellipse cx="127" cy="126.8047" fill="#84BE84" rx="3" ry="3" style="stroke: #038048; stroke-width: 1.0;"/><text fill="#000000" font-family="sans-serif" font-size="11" font-style="italic" lengthAdjust="spacingAndGlyphs" textLength="171" x="136" y="130.0151">TrackData requestRfid(int rfid)</text><line style="stroke: #A80036; stroke-width: 1.0; stroke-dasharray: 1.0,2.0;" x1="117" x2="182" y1="113.4023" y2="113.4023"/><text fill="#000000" font-family="sans-serif" font-size="11" lengthAdjust="spacingAndGlyphs" textLength="66" x="182" y="116.7104">Use Case 1</text><line style="stroke: #A80036; stroke-width: 1.0; stroke-dasharray: 1.0,2.0;" x1="248" x2="313" y1="113.4023" y2="113.4023"/><!--MD5=[d01e667c21cf622da77e8a7601ca5c91]
class MiddlewareCommLinkManager--><rect fill="#FEFECE" filter="url(#ftfxmc3uz63c3)" height="77.6094" id="MiddlewareCommLinkManager" style="stroke: #A80036; stroke-width: 1.5;" width="221" x="555.5" y="59"/><ellipse cx="570.5" cy="75" fill="#B4A7E5" rx="11" ry="11" style="stroke: #A80036; stroke-width: 1.0;"/><path d="M566.4219,70.7656 L566.4219,68.6094 L573.8125,68.6094 L573.8125,70.7656 L571.3438,70.7656 L571.3438,78.8438 L573.8125,78.8438 L573.8125,81 L566.4219,81 L566.4219,78.8438 L568.8906,78.8438 L568.8906,70.7656 L566.4219,70.7656 Z "/><text fill="#000000" font-family="sans-serif" font-size="12" font-style="italic" lengthAdjust="spacingAndGlyphs" textLength="189" x="584.5" y="79.1543">MiddlewareCommLinkManager</text><line style="stroke: #A80036; stroke-width: 1.5;" x1="556.5" x2="775.5" y1="91" y2="91"/><line style="stroke: #A80036; stroke-width: 1.5;" x1="556.5" x2="775.5" y1="99" y2="99"/><ellipse cx="566.5" cy="126.8047" fill="#84BE84" rx="3" ry="3" style="stroke: #038048; stroke-width: 1.0;"/><text fill="#000000" font-family="sans-serif" font-size="11" font-style="italic" lengthAdjust="spacingAndGlyphs" textLength="160" x="575.5" y="130.0151">TrackData parseRfid(int rfid)</text><line style="stroke: #A80036; stroke-width: 1.0; stroke-dasharray: 1.0,2.0;" x1="556.5" x2="633" y1="113.4023" y2="113.4023"/><text fill="#000000" font-family="sans-serif" font-size="11" lengthAdjust="spacingAndGlyphs" textLength="66" x="633" y="116.7104">Use Case 1</text><line style="stroke: #A80036; stroke-width: 1.0; stroke-dasharray: 1.0,2.0;" x1="699" x2="775.5" y1="113.4023" y2="113.4023"/><!--MD5=[4915649770e9045e9ea9156a01fd67e8]
class MiddlewareCommDatabaseInterface--><rect fill="#FEFECE" filter="url(#ftfxmc3uz63c3)" height="77.6094" id="MiddlewareCommDatabaseInterface" style="stroke: #A80036; stroke-width: 1.5;" width="258" x="988" y="59"/><ellipse cx="1003" cy="75" fill="#B4A7E5" rx="11" ry="11" style="stroke: #A80036; stroke-width: 1.0;"/><path d="M998.9219,70.7656 L998.9219,68.6094 L1006.3125,68.6094 L1006.3125,70.7656 L1003.8438,70.7656 L1003.8438,78.8438 L1006.3125,78.8438 L1006.3125,81 L998.9219,81 L998.9219,78.8438 L1001.3906,78.8438 L1001.3906,70.7656 L998.9219,70.7656 Z "/><text fill="#000000" font-family="sans-serif" font-size="12" font-style="italic" lengthAdjust="spacingAndGlyphs" textLength="226" x="1017" y="79.1543">MiddlewareCommDatabaseInterface</text><line style="stroke: #A80036; stroke-width: 1.5;" x1="989" x2="1245" y1="91" y2="91"/><line style="stroke: #A80036; stroke-width: 1.5;" x1="989" x2="1245" y1="99" y2="99"/><ellipse cx="999" cy="126.8047" fill="#84BE84" rx="3" ry="3" style="stroke: #038048; stroke-width: 1.0;"/><text fill="#000000" font-family="sans-serif" font-size="11" font-style="italic" lengthAdjust="spacingAndGlyphs" textLength="123" x="1008" y="130.0151">int checkCurrentRfid()</text><line style="stroke: #A80036; stroke-width: 1.0; stroke-dasharray: 1.0,2.0;" x1="989" x2="1084" y1="113.4023" y2="113.4023"/><text fill="#000000" font-family="sans-serif" font-size="11" lengthAdjust="spacingAndGlyphs" textLength="66" x="1084" y="116.7104">Use Case 1</text><line style="stroke: #A80036; stroke-width: 1.0; stroke-dasharray: 1.0,2.0;" x1="1150" x2="1245" y1="113.4023" y2="113.4023"/><!--MD5=[0a03c366ade61429da89cc477d567a32]
class MiddlewareCommInterfaceImplementation--><rect fill="#FEFECE" filter="url(#ftfxmc3uz63c3)" height="116.0234" id="MiddlewareCommInterfaceImplementation" style="stroke: #A80036; stroke-width: 1.5;" width="353" x="38.5" y="210"/><ellipse cx="80.5" cy="226" fill="#ADD1B2" rx="11" ry="11" style="stroke: #A80036; stroke-width: 1.0;"/><path d="M83.4688,231.6406 Q82.8906,231.9375 82.25,232.0781 Q81.6094,232.2344 80.9063,232.2344 Q78.4063,232.2344 77.0781,230.5938 Q75.7656,228.9375 75.7656,225.8125 Q75.7656,222.6875 77.0781,221.0313 Q78.4063,219.375 80.9063,219.375 Q81.6094,219.375 82.25,219.5313 Q82.9063,219.6875 83.4688,219.9844 L83.4688,222.7031 Q82.8438,222.125 82.25,221.8594 Q81.6563,221.5781 81.0313,221.5781 Q79.6875,221.5781 79,222.6563 Q78.3125,223.7188 78.3125,225.8125 Q78.3125,227.9063 79,228.9844 Q79.6875,230.0469 81.0313,230.0469 Q81.6563,230.0469 82.25,229.7813 Q82.8438,229.5 83.4688,228.9219 L83.4688,231.6406 Z "/><text fill="#000000" font-family="sans-serif" font-size="12" lengthAdjust="spacingAndGlyphs" textLength="261" x="100.5" y="230.1543">MiddlewareCommInterfaceImplementation</text><line style="stroke: #A80036; stroke-width: 1.5;" x1="39.5" x2="390.5" y1="242" y2="242"/><rect fill="none" height="6" style="stroke: #C82930; stroke-width: 1.0;" width="6" x="46.5" y="250"/><text fill="#000000" font-family="sans-serif" font-size="11" lengthAdjust="spacingAndGlyphs" textLength="291" x="58.5" y="256.2104">MiddlewareCommLinkManager middlewareManager</text><line style="stroke: #A80036; stroke-width: 1.5;" x1="39.5" x2="390.5" y1="262.8047" y2="262.8047"/><ellipse cx="49.5" cy="273.8047" fill="#84BE84" rx="3" ry="3" style="stroke: #038048; stroke-width: 1.0;"/><text fill="#000000" font-family="sans-serif" font-size="11" lengthAdjust="spacingAndGlyphs" textLength="243" x="58.5" y="277.0151">MiddlewareCommInterfaceImplementation(</text><text fill="#000000" font-family="sans-serif" font-size="11" lengthAdjust="spacingAndGlyphs" textLength="295" x="90.5" y="289.8198">MiddlewareCommLinkManager middlewareManager)</text><ellipse cx="49.5" cy="316.2188" fill="#84BE84" rx="3" ry="3" style="stroke: #038048; stroke-width: 1.0;"/><text fill="#000000" font-family="sans-serif" font-size="11" lengthAdjust="spacingAndGlyphs" textLength="171" x="58.5" y="319.4292">TrackData requestRfid(int rfid)</text><line style="stroke: #A80036; stroke-width: 1.0; stroke-dasharray: 1.0,2.0;" x1="39.5" x2="182" y1="302.8164" y2="302.8164"/><text fill="#000000" font-family="sans-serif" font-size="11" lengthAdjust="spacingAndGlyphs" textLength="66" x="182" y="306.1245">Use Case 1</text><line style="stroke: #A80036; stroke-width: 1.0; stroke-dasharray: 1.0,2.0;" x1="248" x2="390.5" y1="302.8164" y2="302.8164"/><!--MD5=[d9ed64ee38938b46697008700ce69fba]
class MiddlewareCommLinkManagerImplementation--><rect fill="#FEFECE" filter="url(#ftfxmc3uz63c3)" height="141.6328" id="MiddlewareCommLinkManagerImplementation" style="stroke: #A80036; stroke-width: 1.5;" width="478" x="427" y="197"/><ellipse cx="519.75" cy="213" fill="#ADD1B2" rx="11" ry="11" style="stroke: #A80036; stroke-width: 1.0;"/><path d="M522.7188,218.6406 Q522.1406,218.9375 521.5,219.0781 Q520.8594,219.2344 520.1563,219.2344 Q517.6563,219.2344 516.3281,217.5938 Q515.0156,215.9375 515.0156,212.8125 Q515.0156,209.6875 516.3281,208.0313 Q517.6563,206.375 520.1563,206.375 Q520.8594,206.375 521.5,206.5313 Q522.1563,206.6875 522.7188,206.9844 L522.7188,209.7031 Q522.0938,209.125 521.5,208.8594 Q520.9063,208.5781 520.2813,208.5781 Q518.9375,208.5781 518.25,209.6563 Q517.5625,210.7188 517.5625,212.8125 Q517.5625,214.9063 518.25,215.9844 Q518.9375,217.0469 520.2813,217.0469 Q520.9063,217.0469 521.5,216.7813 Q522.0938,216.5 522.7188,215.9219 L522.7188,218.6406 Z "/><text fill="#000000" font-family="sans-serif" font-size="12" lengthAdjust="spacingAndGlyphs" textLength="284" x="540.25" y="217.1543">MiddlewareCommLinkManagerImplementation</text><line style="stroke: #A80036; stroke-width: 1.5;" x1="428" x2="904" y1="229" y2="229"/><rect fill="none" height="6" style="stroke: #C82930; stroke-width: 1.0;" width="6" x="435" y="237"/><text fill="#000000" font-family="sans-serif" font-size="11" lengthAdjust="spacingAndGlyphs" textLength="416" x="447" y="243.2104">MiddlewareCommDatabaseInterface middlewareCommDatabaseInterface</text><line style="stroke: #A80036; stroke-width: 1.5;" x1="428" x2="904" y1="249.8047" y2="249.8047"/><ellipse cx="438" cy="260.8047" fill="#84BE84" rx="3" ry="3" style="stroke: #038048; stroke-width: 1.0;"/><text fill="#000000" font-family="sans-serif" font-size="11" lengthAdjust="spacingAndGlyphs" textLength="264" x="447" y="264.0151">MiddlewareCommLinkManagerImplementation(</text><text fill="#000000" font-family="sans-serif" font-size="11" lengthAdjust="spacingAndGlyphs" textLength="420" x="479" y="276.8198">MiddlewareCommDatabaseInterface middlewareCommDatabaseInterface)</text><ellipse cx="438" cy="303.2188" fill="#84BE84" rx="3" ry="3" style="stroke: #038048; stroke-width: 1.0;"/><text fill="#000000" font-family="sans-serif" font-size="11" lengthAdjust="spacingAndGlyphs" textLength="160" x="447" y="306.4292">TrackData parseRfid(int rfid)</text><rect fill="#F24D5C" height="6" style="stroke: #C82930; stroke-width: 1.0;" width="6" x="435" y="313.0234"/><text fill="#000000" font-family="sans-serif" font-size="11" lengthAdjust="spacingAndGlyphs" textLength="188" x="447" y="319.2339">float calculateLocationDataPoint()</text><rect fill="#F24D5C" height="6" style="stroke: #C82930; stroke-width: 1.0;" width="6" x="435" y="325.8281"/><text fill="#000000" font-family="sans-serif" font-size="11" lengthAdjust="spacingAndGlyphs" textLength="144" x="447" y="332.0386">float calculateTrackData()</text><line style="stroke: #A80036; stroke-width: 1.0; stroke-dasharray: 1.0,2.0;" x1="428" x2="633" y1="289.8164" y2="289.8164"/><text fill="#000000" font-family="sans-serif" font-size="11" lengthAdjust="spacingAndGlyphs" textLength="66" x="633" y="293.1245">Use Case 1</text><line style="stroke: #A80036; stroke-width: 1.0; stroke-dasharray: 1.0,2.0;" x1="699" x2="904" y1="289.8164" y2="289.8164"/><!--MD5=[1c4f9654f103878faf4a10c0361188b9]
class MiddlewareCommDatabaseInterfaceImplementation--><rect fill="#FEFECE" filter="url(#ftfxmc3uz63c3)" height="116.0234" id="MiddlewareCommDatabaseInterfaceImplementation" style="stroke: #A80036; stroke-width: 1.5;" width="354" x="940" y="210"/><ellipse cx="955" cy="226" fill="#ADD1B2" rx="11" ry="11" style="stroke: #A80036; stroke-width: 1.0;"/><path d="M957.9688,231.6406 Q957.3906,231.9375 956.75,232.0781 Q956.1094,232.2344 955.4063,232.2344 Q952.9063,232.2344 951.5781,230.5938 Q950.2656,228.9375 950.2656,225.8125 Q950.2656,222.6875 951.5781,221.0313 Q952.9063,219.375 955.4063,219.375 Q956.1094,219.375 956.75,219.5313 Q957.4063,219.6875 957.9688,219.9844 L957.9688,222.7031 Q957.3438,222.125 956.75,221.8594 Q956.1563,221.5781 955.5313,221.5781 Q954.1875,221.5781 953.5,222.6563 Q952.8125,223.7188 952.8125,225.8125 Q952.8125,227.9063 953.5,228.9844 Q954.1875,230.0469 955.5313,230.0469 Q956.1563,230.0469 956.75,229.7813 Q957.3438,229.5 957.9688,228.9219 L957.9688,231.6406 Z "/><text fill="#000000" font-family="sans-serif" font-size="12" lengthAdjust="spacingAndGlyphs" textLength="322" x="969" y="230.1543">MiddlewareCommDatabaseInterfaceImplementation</text><line style="stroke: #A80036; stroke-width: 1.5;" x1="941" x2="1293" y1="242" y2="242"/><ellipse cx="951" cy="253" fill="none" rx="3" ry="3" style="stroke: #038048; stroke-width: 1.0;"/><text fill="#000000" font-family="sans-serif" font-size="11" lengthAdjust="spacingAndGlyphs" textLength="285" x="960" y="256.2104">DatabaseCommInterface databaseCommInterface</text><line style="stroke: #A80036; stroke-width: 1.5;" x1="941" x2="1293" y1="262.8047" y2="262.8047"/><ellipse cx="951" cy="273.8047" fill="#84BE84" rx="3" ry="3" style="stroke: #038048; stroke-width: 1.0;"/><text fill="#000000" font-family="sans-serif" font-size="11" lengthAdjust="spacingAndGlyphs" textLength="297" x="960" y="277.0151">MiddlewareCommDatabaseInterfaceImplementation(</text><text fill="#000000" font-family="sans-serif" font-size="11" lengthAdjust="spacingAndGlyphs" textLength="289" x="992" y="289.8198">DatabaseCommInterface databaseCommInterface)</text><ellipse cx="951" cy="316.2188" fill="#84BE84" rx="3" ry="3" style="stroke: #038048; stroke-width: 1.0;"/><text fill="#000000" font-family="sans-serif" font-size="11" lengthAdjust="spacingAndGlyphs" textLength="122" x="960" y="319.4292">int checkCurrentRfid()</text><line style="stroke: #A80036; stroke-width: 1.0; stroke-dasharray: 1.0,2.0;" x1="941" x2="1084" y1="302.8164" y2="302.8164"/><text fill="#000000" font-family="sans-serif" font-size="11" lengthAdjust="spacingAndGlyphs" textLength="66" x="1084" y="306.1245">Use Case 1</text><line style="stroke: #A80036; stroke-width: 1.0; stroke-dasharray: 1.0,2.0;" x1="1150" x2="1293" y1="302.8164" y2="302.8164"/><!--MD5=[8d86b1aa2030a05d452f78e2e1fb37ed]
class TrackDataCalculator--><rect fill="#FEFECE" filter="url(#ftfxmc3uz63c3)" height="86.4141" id="TrackDataCalculator" style="stroke: #A80036; stroke-width: 1.5;" width="518" x="407" y="414"/><ellipse cx="598.25" cy="430" fill="#ADD1B2" rx="11" ry="11" style="stroke: #A80036; stroke-width: 1.0;"/><path d="M601.2188,435.6406 Q600.6406,435.9375 600,436.0781 Q599.3594,436.2344 598.6563,436.2344 Q596.1563,436.2344 594.8281,434.5938 Q593.5156,432.9375 593.5156,429.8125 Q593.5156,426.6875 594.8281,425.0313 Q596.1563,423.375 598.6563,423.375 Q599.3594,423.375 600,423.5313 Q600.6563,423.6875 601.2188,423.9844 L601.2188,426.7031 Q600.5938,426.125 600,425.8594 Q599.4063,425.5781 598.7813,425.5781 Q597.4375,425.5781 596.75,426.6563 Q596.0625,427.7188 596.0625,429.8125 Q596.0625,431.9063 596.75,432.9844 Q597.4375,434.0469 598.7813,434.0469 Q599.4063,434.0469 600,433.7813 Q600.5938,433.5 601.2188,432.9219 L601.2188,435.6406 Z "/><text fill="#000000" font-family="sans-serif" font-size="12" lengthAdjust="spacingAndGlyphs" textLength="127" x="618.75" y="434.1543">TrackDataCalculator</text><line style="stroke: #A80036; stroke-width: 1.5;" x1="408" x2="924" y1="446" y2="446"/><line style="stroke: #A80036; stroke-width: 1.5;" x1="408" x2="924" y1="454" y2="454"/><ellipse cx="418" cy="465" fill="#84BE84" rx="3" ry="3" style="stroke: #038048; stroke-width: 1.0;"/><text fill="#000000" font-family="sans-serif" font-size="11" lengthAdjust="spacingAndGlyphs" text-decoration="underline" textLength="341" x="427" y="468.2104">float calculateSpeed(LocationDataPoint[] locationDataPoints)</text><ellipse cx="418" cy="477.8047" fill="#84BE84" rx="3" ry="3" style="stroke: #038048; stroke-width: 1.0;"/><text fill="#000000" font-family="sans-serif" font-size="11" lengthAdjust="spacingAndGlyphs" text-decoration="underline" textLength="355" x="427" y="481.0151">float calculateDirection(LocationDataPoint[] locationDataPoints)</text><rect fill="#F24D5C" height="6" style="stroke: #C82930; stroke-width: 1.0;" width="6" x="415" y="487.6094"/><text fill="#000000" font-family="sans-serif" font-size="11" lengthAdjust="spacingAndGlyphs" text-decoration="underline" textLength="492" x="427" y="493.8198">LocationDataPoint[] calculateRootMeanSquared(LocationDataPoint[] locationDataPoints)</text><!--MD5=[a6f6d6498f8ad0fd1149c5a16bc55d36]
reverse link MiddlewareCommInterface to MiddlewareCommInterfaceImplementation--><path d="M215,157.27 C215,174.31 215,192.92 215,209.88 " fill="none" id="MiddlewareCommInterface&lt;-MiddlewareCommInterfaceImplementation" style="stroke: #A80036; stroke-width: 1.0; stroke-dasharray: 7.0,7.0;"/><polygon fill="none" points="208,157.12,215,137.12,222,157.12,208,157.12" style="stroke: #A80036; stroke-width: 1.0;"/><!--MD5=[497c69cbff9542047faf5ca77780c8cb]
reverse link MiddlewareCommLinkManager to MiddlewareCommLinkManagerImplementation--><path d="M666,157.51 C666,170.25 666,183.85 666,196.98 " fill="none" id="MiddlewareCommLinkManager&lt;-MiddlewareCommLinkManagerImplementation" style="stroke: #A80036; stroke-width: 1.0; stroke-dasharray: 7.0,7.0;"/><polygon fill="none" points="659,157.12,666,137.12,673,157.12,659,157.12" style="stroke: #A80036; stroke-width: 1.0;"/><!--MD5=[8e69def7a54ed81078168d5d1d8487c9]
reverse link MiddlewareCommDatabaseInterface to MiddlewareCommDatabaseInterfaceImplementation--><path d="M1117,157.27 C1117,174.31 1117,192.92 1117,209.88 " fill="none" id="MiddlewareCommDatabaseInterface&lt;-MiddlewareCommDatabaseInterfaceImplementation" style="stroke: #A80036; stroke-width: 1.0; stroke-dasharray: 7.0,7.0;"/><polygon fill="none" points="1110,157.12,1117,137.12,1124,157.12,1110,157.12" style="stroke: #A80036; stroke-width: 1.0;"/><!--MD5=[07eefeefbddab6e40f3001aaadb4b811]
link MiddlewareCommLinkManagerImplementation to TrackDataCalculator--><path d="M666,339.16 C666,362.38 666,387.65 666,408.73 " fill="none" id="MiddlewareCommLinkManagerImplementation-&gt;TrackDataCalculator" style="stroke: #A80036; stroke-width: 1.0; stroke-dasharray: 7.0,7.0;"/><polygon fill="#A80036" points="666,413.99,670,404.99,666,408.99,662,404.99,666,413.99" style="stroke: #A80036; stroke-width: 1.0;"/><!--MD5=[7a30f901d52c347bf01f67045aef374b]
@startuml Middleware02ProductionPackage_DirectDependencies

package edu.oakland.production.middleware02 {
    
}


package edu.oakland.production.middleware02 {
    
}


package edu.oakland.production.middleware02 {
    interface MiddlewareCommInterface {
        __
        .. Use Case 1 ..
        {abstract} + TrackData requestRfid(int rfid)
    }
}


package edu.oakland.production.middleware02 {
    interface MiddlewareCommLinkManager {
        __
        .. Use Case 1 ..
        {abstract} + TrackData parseRfid(int rfid)
    }
}


package edu.oakland.production.middleware02 {
    interface MiddlewareCommDatabaseInterface {
        __
        .. Use Case 1 ..
        {abstract} + int checkCurrentRfid()
    }
}


package edu.oakland.production.middleware02 {
    class MiddlewareCommInterfaceImplementation {
        - MiddlewareCommLinkManager middlewareManager
        __
        + MiddlewareCommInterfaceImplementation(
        \tMiddlewareCommLinkManager middlewareManager)
        .. Use Case 1 ..
        + TrackData requestRfid(int rfid)
}


MiddlewareCommInterfaceImplementation .up.|> MiddlewareCommInterface

package edu.oakland.production.middleware02 {
    class MiddlewareCommLinkManagerImplementation {
        - MiddlewareCommDatabaseInterface middlewareCommDatabaseInterface
        __
        + MiddlewareCommLinkManagerImplementation(
        \tMiddlewareCommDatabaseInterface middlewareCommDatabaseInterface)
        .. Use Case 1 ..
        + TrackData parseRfid(int rfid)
        - float calculateLocationDataPoint()
        - float calculateTrackData()
    }
}


MiddlewareCommLinkManagerImplementation .up.|> MiddlewareCommLinkManager

package edu.oakland.production.middleware02 {
    class MiddlewareCommDatabaseInterfaceImplementation {
        + DatabaseCommInterface databaseCommInterface
        __
        + MiddlewareCommDatabaseInterfaceImplementation(
        \tDatabaseCommInterface databaseCommInterface)
        .. Use Case 1 ..
        + int checkCurrentRfid()
    }
}


MiddlewareCommDatabaseInterfaceImplementation .up.|> MiddlewareCommDatabaseInterface






package edu.oakland.helper.middleware02 {
    class TrackDataCalculator {
        {static} + float calculateSpeed(LocationDataPoint[] locationDataPoints)
        {static} + float calculateDirection(LocationDataPoint[] locationDataPoints)
        {static} - LocationDataPoint[] calculateRootMeanSquared(LocationDataPoint[] locationDataPoints)
    }
}

MiddlewareCommLinkManagerImplementation ..> TrackDataCalculator









@enduml

PlantUML version 1.2020.02(Sun Mar 01 10:22:07 GMT 2020)
(GPL source distribution)
Java Runtime: OpenJDK Runtime Environment
JVM: OpenJDK 64-Bit Server VM
Java Version: 11.0.9+11-Ubuntu-0ubuntu1
Operating System: Linux
Default Encoding: ANSI_X3.4-1968
Language: en
Country: US
--></g></svg>