<?xml version="1.0" encoding="UTF-8" standalone="no"?><svg xmlns="http://www.w3.org/2000/svg" xmlns:xlink="http://www.w3.org/1999/xlink" contentScriptType="application/ecmascript" contentStyleType="text/css" height="686px" preserveAspectRatio="none" style="width:2142px;height:686px;" version="1.1" viewBox="0 0 2142 686" width="2142px" zoomAndPan="magnify"><defs><filter height="300%" id="f1w2fc2e4x0ysb" width="300%" x="-1" y="-1"><feGaussianBlur result="blurOut" stdDeviation="2.0"/><feColorMatrix in="blurOut" result="blurOut2" type="matrix" values="0 0 0 0 0 0 0 0 0 0 0 0 0 0 0 0 0 0 .4 0"/><feOffset dx="4.0" dy="4.0" in="blurOut2" result="blurOut3"/><feBlend in="SourceGraphic" in2="blurOut3" mode="normal"/></filter></defs><g><!--MD5=[c2e276049abfe145c9906edb061abd32]
cluster edu.oakland.production.database--><polygon fill="#FFFFFF" filter="url(#f1w2fc2e4x0ysb)" points="22,24,292,24,299,46.2969,2120,46.2969,2120,674,22,674,22,24" style="stroke: #000000; stroke-width: 1.5;"/><line style="stroke: #000000; stroke-width: 1.5;" x1="22" x2="299" y1="46.2969" y2="46.2969"/><text fill="#000000" font-family="sans-serif" font-size="14" font-weight="bold" lengthAdjust="spacingAndGlyphs" textLength="264" x="26" y="38.9951">edu.oakland.production.database</text><!--MD5=[6d34700a22f737f940b471daa4ac1202]
class DatabaseCommInterface--><rect fill="#FEFECE" filter="url(#f1w2fc2e4x0ysb)" height="240.0703" id="DatabaseCommInterface" style="stroke: #A80036; stroke-width: 1.5;" width="398" x="38" y="59"/><ellipse cx="155.25" cy="75" fill="#B4A7E5" rx="11" ry="11" style="stroke: #A80036; stroke-width: 1.0;"/><path d="M151.1719,70.7656 L151.1719,68.6094 L158.5625,68.6094 L158.5625,70.7656 L156.0938,70.7656 L156.0938,78.8438 L158.5625,78.8438 L158.5625,81 L151.1719,81 L151.1719,78.8438 L153.6406,78.8438 L153.6406,70.7656 L151.1719,70.7656 Z "/><text fill="#000000" font-family="sans-serif" font-size="12" font-style="italic" lengthAdjust="spacingAndGlyphs" textLength="155" x="175.75" y="79.1543">DatabaseCommInterface</text><line style="stroke: #A80036; stroke-width: 1.5;" x1="39" x2="435" y1="91" y2="91"/><rect fill="none" height="6" style="stroke: #C82930; stroke-width: 1.0;" width="6" x="46" y="99"/><text fill="#000000" font-family="sans-serif" font-size="11" lengthAdjust="spacingAndGlyphs" textLength="283" x="58" y="105.2104">DatabaseCommManager databaseCommManager</text><rect fill="none" height="6" style="stroke: #C82930; stroke-width: 1.0;" width="6" x="46" y="111.8047"/><text fill="#000000" font-family="sans-serif" font-size="11" lengthAdjust="spacingAndGlyphs" textLength="63" x="58" y="118.0151">int rfidData</text><rect fill="none" height="6" style="stroke: #C82930; stroke-width: 1.0;" width="6" x="46" y="124.6094"/><text fill="#000000" font-family="sans-serif" font-size="11" lengthAdjust="spacingAndGlyphs" textLength="175" x="58" y="130.8198">LocationDataPoint locDataPoint</text><rect fill="none" height="6" style="stroke: #C82930; stroke-width: 1.0;" width="6" x="46" y="137.4141"/><text fill="#000000" font-family="sans-serif" font-size="11" lengthAdjust="spacingAndGlyphs" textLength="115" x="58" y="143.6245">TrackData trackData</text><rect fill="none" height="6" style="stroke: #C82930; stroke-width: 1.0;" width="6" x="46" y="150.2188"/><text fill="#000000" font-family="sans-serif" font-size="11" lengthAdjust="spacingAndGlyphs" textLength="70" x="58" y="156.4292">String mode</text><text fill="#000000" font-family="sans-serif" font-size="11" lengthAdjust="spacingAndGlyphs" textLength="12" x="58" y="169.2339">__</text><text fill="#000000" font-family="sans-serif" font-size="11" lengthAdjust="spacingAndGlyphs" textLength="179" x="90" y="182.0386">LocationDataPoint locDataPoint,</text><line style="stroke: #A80036; stroke-width: 1.0; stroke-dasharray: 1.0,2.0;" x1="58" x2="58" y1="191.0352" y2="191.0352"/><text fill="#000000" font-family="sans-serif" font-size="11" lengthAdjust="spacingAndGlyphs" textLength="66" x="62" y="194.3433">Use Case 1</text><line style="stroke: #A80036; stroke-width: 1.0; stroke-dasharray: 1.0,2.0;" x1="132" x2="132" y1="191.0352" y2="191.0352"/><line style="stroke: #A80036; stroke-width: 1.5;" x1="39" x2="435" y1="201.4375" y2="201.4375"/><text fill="#000000" font-family="sans-serif" font-size="11" lengthAdjust="spacingAndGlyphs" textLength="212" x="58" y="215.6479">DatabaseCommInterface(int rfidData,</text><text fill="#000000" font-family="sans-serif" font-size="11" lengthAdjust="spacingAndGlyphs" textLength="119" x="90" y="228.4526">TrackData trackData)</text><ellipse cx="49" cy="238.0469" fill="#84BE84" rx="3" ry="3" style="stroke: #038048; stroke-width: 1.0;"/><text fill="#000000" font-family="sans-serif" font-size="11" lengthAdjust="spacingAndGlyphs" textLength="154" x="58" y="241.2573">int receiveGetRfidRequest()</text><ellipse cx="49" cy="250.8516" fill="#84BE84" rx="3" ry="3" style="stroke: #038048; stroke-width: 1.0;"/><text fill="#000000" font-family="sans-serif" font-size="11" lengthAdjust="spacingAndGlyphs" textLength="372" x="58" y="254.062">LocationDataPoint receiveGetLocationDataPointRequest(int offset)</text><ellipse cx="49" cy="263.6563" fill="#84BE84" rx="3" ry="3" style="stroke: #038048; stroke-width: 1.0;"/><text fill="#000000" font-family="sans-serif" font-size="11" lengthAdjust="spacingAndGlyphs" textLength="284" x="58" y="266.8667">TrackData receiveGetTrackDataRequest(int offset)</text><ellipse cx="49" cy="276.4609" fill="#84BE84" rx="3" ry="3" style="stroke: #038048; stroke-width: 1.0;"/><text fill="#000000" font-family="sans-serif" font-size="11" lengthAdjust="spacingAndGlyphs" textLength="283" x="58" y="279.6714">void storeTrackDataRequest(TrackData trackData)</text><ellipse cx="49" cy="289.2656" fill="#84BE84" rx="3" ry="3" style="stroke: #038048; stroke-width: 1.0;"/><text fill="#000000" font-family="sans-serif" font-size="11" lengthAdjust="spacingAndGlyphs" textLength="183" x="58" y="292.4761">String receiveGetModeRequest()</text><!--MD5=[3cbc5f43b2184d452c2937ae0a744eb6]
class DatabaseCommManager--><rect fill="#FEFECE" filter="url(#f1w2fc2e4x0ysb)" height="128.8281" id="DatabaseCommManager" style="stroke: #A80036; stroke-width: 1.5;" width="382" x="471" y="114.5"/><ellipse cx="581.25" cy="130.5" fill="#B4A7E5" rx="11" ry="11" style="stroke: #A80036; stroke-width: 1.0;"/><path d="M577.1719,126.2656 L577.1719,124.1094 L584.5625,124.1094 L584.5625,126.2656 L582.0938,126.2656 L582.0938,134.3438 L584.5625,134.3438 L584.5625,136.5 L577.1719,136.5 L577.1719,134.3438 L579.6406,134.3438 L579.6406,126.2656 L577.1719,126.2656 Z "/><text fill="#000000" font-family="sans-serif" font-size="12" font-style="italic" lengthAdjust="spacingAndGlyphs" textLength="153" x="601.75" y="134.6543">DatabaseCommManager</text><line style="stroke: #A80036; stroke-width: 1.5;" x1="472" x2="852" y1="146.5" y2="146.5"/><line style="stroke: #A80036; stroke-width: 1.5;" x1="472" x2="852" y1="154.5" y2="154.5"/><ellipse cx="482" cy="182.3047" fill="#84BE84" rx="3" ry="3" style="stroke: #038048; stroke-width: 1.0;"/><text fill="#000000" font-family="sans-serif" font-size="11" font-style="italic" lengthAdjust="spacingAndGlyphs" textLength="140" x="491" y="185.5151">int passGetRfidRequest()</text><ellipse cx="482" cy="195.1094" fill="#84BE84" rx="3" ry="3" style="stroke: #038048; stroke-width: 1.0;"/><text fill="#000000" font-family="sans-serif" font-size="11" font-style="italic" lengthAdjust="spacingAndGlyphs" textLength="356" x="491" y="198.3198">LocationDataPoint passGetLocationDataPointRequest(int offset)</text><ellipse cx="482" cy="207.9141" fill="#84BE84" rx="3" ry="3" style="stroke: #038048; stroke-width: 1.0;"/><text fill="#000000" font-family="sans-serif" font-size="11" font-style="italic" lengthAdjust="spacingAndGlyphs" textLength="268" x="491" y="211.1245">TrackData passGetTrackDataRequest(int offset)</text><ellipse cx="482" cy="220.7188" fill="#84BE84" rx="3" ry="3" style="stroke: #038048; stroke-width: 1.0;"/><text fill="#000000" font-family="sans-serif" font-size="11" font-style="italic" lengthAdjust="spacingAndGlyphs" textLength="310" x="491" y="223.9292">void passStoreTrackDataRequest(TrackData trackData)</text><ellipse cx="482" cy="233.5234" fill="#84BE84" rx="3" ry="3" style="stroke: #038048; stroke-width: 1.0;"/><text fill="#000000" font-family="sans-serif" font-size="11" font-style="italic" lengthAdjust="spacingAndGlyphs" textLength="167" x="491" y="236.7339">String passGetModeRequest()</text><line style="stroke: #A80036; stroke-width: 1.0; stroke-dasharray: 1.0,2.0;" x1="472" x2="629" y1="168.9023" y2="168.9023"/><text fill="#000000" font-family="sans-serif" font-size="11" lengthAdjust="spacingAndGlyphs" textLength="66" x="629" y="172.2104">Use Case 1</text><line style="stroke: #A80036; stroke-width: 1.0; stroke-dasharray: 1.0,2.0;" x1="695" x2="852" y1="168.9023" y2="168.9023"/><!--MD5=[3bff7e01a405ec7c4802abd699e27172]
class DatabaseGisInterface--><rect fill="#FEFECE" filter="url(#f1w2fc2e4x0ysb)" height="120.0234" id="DatabaseGisInterface" style="stroke: #A80036; stroke-width: 1.5;" width="383" x="888.5" y="119"/><ellipse cx="1008.25" cy="135" fill="#B4A7E5" rx="11" ry="11" style="stroke: #A80036; stroke-width: 1.0;"/><path d="M1004.1719,130.7656 L1004.1719,128.6094 L1011.5625,128.6094 L1011.5625,130.7656 L1009.0938,130.7656 L1009.0938,138.8438 L1011.5625,138.8438 L1011.5625,141 L1004.1719,141 L1004.1719,138.8438 L1006.6406,138.8438 L1006.6406,130.7656 L1004.1719,130.7656 Z "/><text fill="#000000" font-family="sans-serif" font-size="12" font-style="italic" lengthAdjust="spacingAndGlyphs" textLength="135" x="1028.75" y="139.1543">DatabaseGisInterface</text><line style="stroke: #A80036; stroke-width: 1.5;" x1="889.5" x2="1270.5" y1="151" y2="151"/><line style="stroke: #A80036; stroke-width: 1.5;" x1="889.5" x2="1270.5" y1="159" y2="159"/><ellipse cx="899.5" cy="186.8047" fill="#84BE84" rx="3" ry="3" style="stroke: #038048; stroke-width: 1.0;"/><text fill="#000000" font-family="sans-serif" font-size="11" font-style="italic" lengthAdjust="spacingAndGlyphs" textLength="357" x="908.5" y="190.0151">void recieveStoreRequest(LocationDataPoint locationDataPoint)</text><line style="stroke: #A80036; stroke-width: 1.0; stroke-dasharray: 1.0,2.0;" x1="889.5" x2="1047" y1="173.4023" y2="173.4023"/><text fill="#000000" font-family="sans-serif" font-size="11" lengthAdjust="spacingAndGlyphs" textLength="66" x="1047" y="176.7104">Use Case 1</text><line style="stroke: #A80036; stroke-width: 1.0; stroke-dasharray: 1.0,2.0;" x1="1113" x2="1270.5" y1="173.4023" y2="173.4023"/><ellipse cx="899.5" cy="216.4141" fill="#84BE84" rx="3" ry="3" style="stroke: #038048; stroke-width: 1.0;"/><text fill="#000000" font-family="sans-serif" font-size="11" font-style="italic" lengthAdjust="spacingAndGlyphs" textLength="232" x="908.5" y="219.6245">String recieveModeRequest(String mode)</text><ellipse cx="899.5" cy="229.2188" fill="#84BE84" rx="3" ry="3" style="stroke: #038048; stroke-width: 1.0;"/><text fill="#000000" font-family="sans-serif" font-size="11" font-style="italic" lengthAdjust="spacingAndGlyphs" textLength="273" x="908.5" y="232.4292">String recieveNextSatRequest(String currentSat)</text><line style="stroke: #A80036; stroke-width: 1.0; stroke-dasharray: 1.0,2.0;" x1="889.5" x2="1047" y1="203.0117" y2="203.0117"/><text fill="#000000" font-family="sans-serif" font-size="11" lengthAdjust="spacingAndGlyphs" textLength="66" x="1047" y="206.3198">Use Case 2</text><line style="stroke: #A80036; stroke-width: 1.0; stroke-dasharray: 1.0,2.0;" x1="1113" x2="1270.5" y1="203.0117" y2="203.0117"/><!--MD5=[a9fcaa89db220a1b0201406d1ae34ee7]
class DatabaseGisManager--><rect fill="#FEFECE" filter="url(#f1w2fc2e4x0ysb)" height="120.0234" id="DatabaseGisManager" style="stroke: #A80036; stroke-width: 1.5;" width="367" x="1306.5" y="119"/><ellipse cx="1419.25" cy="135" fill="#B4A7E5" rx="11" ry="11" style="stroke: #A80036; stroke-width: 1.0;"/><path d="M1415.1719,130.7656 L1415.1719,128.6094 L1422.5625,128.6094 L1422.5625,130.7656 L1420.0938,130.7656 L1420.0938,138.8438 L1422.5625,138.8438 L1422.5625,141 L1415.1719,141 L1415.1719,138.8438 L1417.6406,138.8438 L1417.6406,130.7656 L1415.1719,130.7656 Z "/><text fill="#000000" font-family="sans-serif" font-size="12" font-style="italic" lengthAdjust="spacingAndGlyphs" textLength="133" x="1439.75" y="139.1543">DatabaseGisManager</text><line style="stroke: #A80036; stroke-width: 1.5;" x1="1307.5" x2="1672.5" y1="151" y2="151"/><line style="stroke: #A80036; stroke-width: 1.5;" x1="1307.5" x2="1672.5" y1="159" y2="159"/><ellipse cx="1317.5" cy="186.8047" fill="#84BE84" rx="3" ry="3" style="stroke: #038048; stroke-width: 1.0;"/><text fill="#000000" font-family="sans-serif" font-size="11" font-style="italic" lengthAdjust="spacingAndGlyphs" textLength="341" x="1326.5" y="190.0151">void passStoreRequest(LocationDataPoint locationDataPoint)</text><line style="stroke: #A80036; stroke-width: 1.0; stroke-dasharray: 1.0,2.0;" x1="1307.5" x2="1457" y1="173.4023" y2="173.4023"/><text fill="#000000" font-family="sans-serif" font-size="11" lengthAdjust="spacingAndGlyphs" textLength="66" x="1457" y="176.7104">Use Case 1</text><line style="stroke: #A80036; stroke-width: 1.0; stroke-dasharray: 1.0,2.0;" x1="1523" x2="1672.5" y1="173.4023" y2="173.4023"/><ellipse cx="1317.5" cy="216.4141" fill="#84BE84" rx="3" ry="3" style="stroke: #038048; stroke-width: 1.0;"/><text fill="#000000" font-family="sans-serif" font-size="11" font-style="italic" lengthAdjust="spacingAndGlyphs" textLength="207" x="1326.5" y="219.6245">void passModeRequest(String mode)</text><ellipse cx="1317.5" cy="229.2188" fill="#84BE84" rx="3" ry="3" style="stroke: #038048; stroke-width: 1.0;"/><text fill="#000000" font-family="sans-serif" font-size="11" font-style="italic" lengthAdjust="spacingAndGlyphs" textLength="257" x="1326.5" y="232.4292">String passNextSatRequest(String currentSat)</text><line style="stroke: #A80036; stroke-width: 1.0; stroke-dasharray: 1.0,2.0;" x1="1307.5" x2="1457" y1="203.0117" y2="203.0117"/><text fill="#000000" font-family="sans-serif" font-size="11" lengthAdjust="spacingAndGlyphs" textLength="66" x="1457" y="206.3198">Use Case 2</text><line style="stroke: #A80036; stroke-width: 1.0; stroke-dasharray: 1.0,2.0;" x1="1523" x2="1672.5" y1="203.0117" y2="203.0117"/><!--MD5=[d8df6b105e82f698e3603261466f245f]
class DatabasePersistentStorage--><rect fill="#FEFECE" filter="url(#f1w2fc2e4x0ysb)" height="184.0469" id="DatabasePersistentStorage" style="stroke: #A80036; stroke-width: 1.5;" width="395" x="1708.5" y="87"/><ellipse cx="1816.25" cy="103" fill="#B4A7E5" rx="11" ry="11" style="stroke: #A80036; stroke-width: 1.0;"/><path d="M1812.1719,98.7656 L1812.1719,96.6094 L1819.5625,96.6094 L1819.5625,98.7656 L1817.0938,98.7656 L1817.0938,106.8438 L1819.5625,106.8438 L1819.5625,109 L1812.1719,109 L1812.1719,106.8438 L1814.6406,106.8438 L1814.6406,98.7656 L1812.1719,98.7656 Z "/><text fill="#000000" font-family="sans-serif" font-size="12" font-style="italic" lengthAdjust="spacingAndGlyphs" textLength="171" x="1836.75" y="107.1543">DatabasePersistentStorage</text><line style="stroke: #A80036; stroke-width: 1.5;" x1="1709.5" x2="2102.5" y1="119" y2="119"/><line style="stroke: #A80036; stroke-width: 1.5;" x1="1709.5" x2="2102.5" y1="127" y2="127"/><ellipse cx="1719.5" cy="154.8047" fill="#84BE84" rx="3" ry="3" style="stroke: #038048; stroke-width: 1.0;"/><text fill="#000000" font-family="sans-serif" font-size="11" font-style="italic" lengthAdjust="spacingAndGlyphs" textLength="108" x="1728.5" y="158.0151">int locateRfidData()</text><ellipse cx="1719.5" cy="167.6094" fill="#84BE84" rx="3" ry="3" style="stroke: #038048; stroke-width: 1.0;"/><text fill="#000000" font-family="sans-serif" font-size="11" font-style="italic" lengthAdjust="spacingAndGlyphs" textLength="282" x="1728.5" y="170.8198">LocationDataPoint getLocationDataPoint(int offset)</text><ellipse cx="1719.5" cy="180.4141" fill="#84BE84" rx="3" ry="3" style="stroke: #038048; stroke-width: 1.0;"/><text fill="#000000" font-family="sans-serif" font-size="11" font-style="italic" lengthAdjust="spacingAndGlyphs" textLength="369" x="1728.5" y="183.6245">void storeLocationDataPoint(LocationDataPoint locationDataPoint)</text><ellipse cx="1719.5" cy="193.2188" fill="#84BE84" rx="3" ry="3" style="stroke: #038048; stroke-width: 1.0;"/><text fill="#000000" font-family="sans-serif" font-size="11" font-style="italic" lengthAdjust="spacingAndGlyphs" textLength="194" x="1728.5" y="196.4292">TrackData getTrackData(int offset)</text><ellipse cx="1719.5" cy="206.0234" fill="#84BE84" rx="3" ry="3" style="stroke: #038048; stroke-width: 1.0;"/><text fill="#000000" font-family="sans-serif" font-size="11" font-style="italic" lengthAdjust="spacingAndGlyphs" textLength="237" x="1728.5" y="209.2339">void storeTrackData(TrackData trackData)</text><ellipse cx="1719.5" cy="218.8281" fill="#84BE84" rx="3" ry="3" style="stroke: #038048; stroke-width: 1.0;"/><text fill="#000000" font-family="sans-serif" font-size="11" font-style="italic" lengthAdjust="spacingAndGlyphs" textLength="93" x="1728.5" y="222.0386">String getMode()</text><line style="stroke: #A80036; stroke-width: 1.0; stroke-dasharray: 1.0,2.0;" x1="1709.5" x2="1873" y1="141.4023" y2="141.4023"/><text fill="#000000" font-family="sans-serif" font-size="11" lengthAdjust="spacingAndGlyphs" textLength="66" x="1873" y="144.7104">Use Case 1</text><line style="stroke: #A80036; stroke-width: 1.0; stroke-dasharray: 1.0,2.0;" x1="1939" x2="2102.5" y1="141.4023" y2="141.4023"/><ellipse cx="1719.5" cy="248.4375" fill="#84BE84" rx="3" ry="3" style="stroke: #038048; stroke-width: 1.0;"/><text fill="#000000" font-family="sans-serif" font-size="11" font-style="italic" lengthAdjust="spacingAndGlyphs" textLength="164" x="1728.5" y="251.6479">void storeMode(String mode)</text><ellipse cx="1719.5" cy="261.2422" fill="#84BE84" rx="3" ry="3" style="stroke: #038048; stroke-width: 1.0;"/><text fill="#000000" font-family="sans-serif" font-size="11" font-style="italic" lengthAdjust="spacingAndGlyphs" textLength="203" x="1728.5" y="264.4526">String getNextSat(String currentSat)</text><line style="stroke: #A80036; stroke-width: 1.0; stroke-dasharray: 1.0,2.0;" x1="1709.5" x2="1873" y1="235.0352" y2="235.0352"/><text fill="#000000" font-family="sans-serif" font-size="11" lengthAdjust="spacingAndGlyphs" textLength="66" x="1873" y="238.3433">Use Case 2</text><line style="stroke: #A80036; stroke-width: 1.0; stroke-dasharray: 1.0,2.0;" x1="1939" x2="2102.5" y1="235.0352" y2="235.0352"/><!--MD5=[9f85d6b15dbd6dc4f6cf7395c0833d14]
class DatabaseCommInterfaceImplementation--><rect fill="#FEFECE" filter="url(#f1w2fc2e4x0ysb)" height="107.2188" id="DatabaseCommInterfaceImplementation" style="stroke: #A80036; stroke-width: 1.5;" width="284" x="95" y="455"/><ellipse cx="110" cy="471" fill="#ADD1B2" rx="11" ry="11" style="stroke: #A80036; stroke-width: 1.0;"/><path d="M112.9688,476.6406 Q112.3906,476.9375 111.75,477.0781 Q111.1094,477.2344 110.4063,477.2344 Q107.9063,477.2344 106.5781,475.5938 Q105.2656,473.9375 105.2656,470.8125 Q105.2656,467.6875 106.5781,466.0313 Q107.9063,464.375 110.4063,464.375 Q111.1094,464.375 111.75,464.5313 Q112.4063,464.6875 112.9688,464.9844 L112.9688,467.7031 Q112.3438,467.125 111.75,466.8594 Q111.1563,466.5781 110.5313,466.5781 Q109.1875,466.5781 108.5,467.6563 Q107.8125,468.7188 107.8125,470.8125 Q107.8125,472.9063 108.5,473.9844 Q109.1875,475.0469 110.5313,475.0469 Q111.1563,475.0469 111.75,474.7813 Q112.3438,474.5 112.9688,473.9219 L112.9688,476.6406 Z "/><text fill="#000000" font-family="sans-serif" font-size="12" lengthAdjust="spacingAndGlyphs" textLength="252" x="124" y="475.1543">DatabaseCommInterfaceImplementation</text><line style="stroke: #A80036; stroke-width: 1.5;" x1="96" x2="378" y1="487" y2="487"/><line style="stroke: #A80036; stroke-width: 1.5;" x1="96" x2="378" y1="495" y2="495"/><text fill="#000000" font-family="sans-serif" font-size="11" lengthAdjust="spacingAndGlyphs" textLength="0" x="105" y="526.0151"/><line style="stroke: #A80036; stroke-width: 1.0; stroke-dasharray: 1.0,2.0;" x1="96" x2="204" y1="509.4023" y2="509.4023"/><text fill="#000000" font-family="sans-serif" font-size="11" lengthAdjust="spacingAndGlyphs" textLength="66" x="204" y="512.7104">Use Case 1</text><line style="stroke: #A80036; stroke-width: 1.0; stroke-dasharray: 1.0,2.0;" x1="270" x2="378" y1="509.4023" y2="509.4023"/><text fill="#000000" font-family="sans-serif" font-size="11" lengthAdjust="spacingAndGlyphs" textLength="0" x="105" y="555.6245"/><line style="stroke: #A80036; stroke-width: 1.0; stroke-dasharray: 1.0,2.0;" x1="96" x2="204" y1="539.0117" y2="539.0117"/><text fill="#000000" font-family="sans-serif" font-size="11" lengthAdjust="spacingAndGlyphs" textLength="66" x="204" y="542.3198">Use Case 2</text><line style="stroke: #A80036; stroke-width: 1.0; stroke-dasharray: 1.0,2.0;" x1="270" x2="378" y1="539.0117" y2="539.0117"/><!--MD5=[e62c039a107b929dc588966558a86fd5]
class DatabaseCommManagerImplementation--><rect fill="#FEFECE" filter="url(#f1w2fc2e4x0ysb)" height="248.0703" id="DatabaseCommManagerImplementation" style="stroke: #A80036; stroke-width: 1.5;" width="385" x="466.5" y="384.5"/><ellipse cx="529.25" cy="400.5" fill="#ADD1B2" rx="11" ry="11" style="stroke: #A80036; stroke-width: 1.0;"/><path d="M532.2188,406.1406 Q531.6406,406.4375 531,406.5781 Q530.3594,406.7344 529.6563,406.7344 Q527.1563,406.7344 525.8281,405.0938 Q524.5156,403.4375 524.5156,400.3125 Q524.5156,397.1875 525.8281,395.5313 Q527.1563,393.875 529.6563,393.875 Q530.3594,393.875 531,394.0313 Q531.6563,394.1875 532.2188,394.4844 L532.2188,397.2031 Q531.5938,396.625 531,396.3594 Q530.4063,396.0781 529.7813,396.0781 Q528.4375,396.0781 527.75,397.1563 Q527.0625,398.2188 527.0625,400.3125 Q527.0625,402.4063 527.75,403.4844 Q528.4375,404.5469 529.7813,404.5469 Q530.4063,404.5469 531,404.2813 Q531.5938,404 532.2188,403.4219 L532.2188,406.1406 Z "/><text fill="#000000" font-family="sans-serif" font-size="12" lengthAdjust="spacingAndGlyphs" textLength="251" x="549.75" y="404.6543">DatabaseCommManagerImplementation</text><line style="stroke: #A80036; stroke-width: 1.5;" x1="467.5" x2="850.5" y1="416.5" y2="416.5"/><rect fill="none" height="6" style="stroke: #C82930; stroke-width: 1.0;" width="6" x="474.5" y="424.5"/><text fill="#000000" font-family="sans-serif" font-size="11" lengthAdjust="spacingAndGlyphs" textLength="317" x="486.5" y="430.7104">DatabasePersistentStorage databasePersistentStorage</text><rect fill="none" height="6" style="stroke: #C82930; stroke-width: 1.0;" width="6" x="474.5" y="437.3047"/><text fill="#000000" font-family="sans-serif" font-size="11" lengthAdjust="spacingAndGlyphs" textLength="63" x="486.5" y="443.5151">int rfidData</text><rect fill="none" height="6" style="stroke: #C82930; stroke-width: 1.0;" width="6" x="474.5" y="450.1094"/><text fill="#000000" font-family="sans-serif" font-size="11" lengthAdjust="spacingAndGlyphs" textLength="175" x="486.5" y="456.3198">LocationDataPoint locDataPoint</text><rect fill="none" height="6" style="stroke: #C82930; stroke-width: 1.0;" width="6" x="474.5" y="462.9141"/><text fill="#000000" font-family="sans-serif" font-size="11" lengthAdjust="spacingAndGlyphs" textLength="114" x="486.5" y="469.1245">Trackdata trackData</text><line style="stroke: #A80036; stroke-width: 1.5;" x1="467.5" x2="850.5" y1="475.7188" y2="475.7188"/><text fill="#000000" font-family="sans-serif" font-size="11" lengthAdjust="spacingAndGlyphs" textLength="299" x="472.5" y="489.9292">DatabaseCommManagerImplementation(int rfidData,</text><text fill="#000000" font-family="sans-serif" font-size="11" lengthAdjust="spacingAndGlyphs" textLength="179" x="504.5" y="502.7339">LocationDataPoint locDataPoint,</text><text fill="#000000" font-family="sans-serif" font-size="11" lengthAdjust="spacingAndGlyphs" textLength="118" x="504.5" y="515.5386">Trackdata trackData)</text><ellipse cx="477.5" cy="541.9375" fill="#84BE84" rx="3" ry="3" style="stroke: #038048; stroke-width: 1.0;"/><text fill="#000000" font-family="sans-serif" font-size="11" lengthAdjust="spacingAndGlyphs" textLength="141" x="486.5" y="545.1479">int passGetRfidRequest()</text><ellipse cx="477.5" cy="554.7422" fill="#84BE84" rx="3" ry="3" style="stroke: #038048; stroke-width: 1.0;"/><text fill="#000000" font-family="sans-serif" font-size="11" lengthAdjust="spacingAndGlyphs" textLength="359" x="486.5" y="557.9526">LocationDataPoint passGetLocationDataPointRequest(int offset)</text><ellipse cx="477.5" cy="567.5469" fill="#84BE84" rx="3" ry="3" style="stroke: #038048; stroke-width: 1.0;"/><text fill="#000000" font-family="sans-serif" font-size="11" lengthAdjust="spacingAndGlyphs" textLength="271" x="486.5" y="570.7573">TrackData passGetTrackDataRequest(int offset)</text><ellipse cx="477.5" cy="580.3516" fill="#84BE84" rx="3" ry="3" style="stroke: #038048; stroke-width: 1.0;"/><text fill="#000000" font-family="sans-serif" font-size="11" lengthAdjust="spacingAndGlyphs" textLength="312" x="486.5" y="583.562">void passStoreTrackDataRequest(TrackData trackData)</text><text fill="#000000" font-family="sans-serif" font-size="11" lengthAdjust="spacingAndGlyphs" textLength="0" x="490.5" y="596.3667"/><line style="stroke: #A80036; stroke-width: 1.0; stroke-dasharray: 1.0,2.0;" x1="467.5" x2="626" y1="528.5352" y2="528.5352"/><text fill="#000000" font-family="sans-serif" font-size="11" lengthAdjust="spacingAndGlyphs" textLength="66" x="626" y="531.8433">Use Case 1</text><line style="stroke: #A80036; stroke-width: 1.0; stroke-dasharray: 1.0,2.0;" x1="692" x2="850.5" y1="528.5352" y2="528.5352"/><text fill="#000000" font-family="sans-serif" font-size="11" lengthAdjust="spacingAndGlyphs" textLength="0" x="476.5" y="625.9761"/><line style="stroke: #A80036; stroke-width: 1.0; stroke-dasharray: 1.0,2.0;" x1="467.5" x2="626" y1="609.3633" y2="609.3633"/><text fill="#000000" font-family="sans-serif" font-size="11" lengthAdjust="spacingAndGlyphs" textLength="66" x="626" y="612.6714">Use Case 2</text><line style="stroke: #A80036; stroke-width: 1.0; stroke-dasharray: 1.0,2.0;" x1="692" x2="850.5" y1="609.3633" y2="609.3633"/><!--MD5=[08068c224d75f5ca94e2833221bd6445]
class DatabaseGisInterfaceImplementation--><rect fill="#FEFECE" filter="url(#f1w2fc2e4x0ysb)" height="235.2656" id="DatabaseGisInterfaceImplementation" style="stroke: #A80036; stroke-width: 1.5;" width="382" x="887" y="391"/><ellipse cx="957.25" cy="407" fill="#ADD1B2" rx="11" ry="11" style="stroke: #A80036; stroke-width: 1.0;"/><path d="M960.2188,412.6406 Q959.6406,412.9375 959,413.0781 Q958.3594,413.2344 957.6563,413.2344 Q955.1563,413.2344 953.8281,411.5938 Q952.5156,409.9375 952.5156,406.8125 Q952.5156,403.6875 953.8281,402.0313 Q955.1563,400.375 957.6563,400.375 Q958.3594,400.375 959,400.5313 Q959.6563,400.6875 960.2188,400.9844 L960.2188,403.7031 Q959.5938,403.125 959,402.8594 Q958.4063,402.5781 957.7813,402.5781 Q956.4375,402.5781 955.75,403.6563 Q955.0625,404.7188 955.0625,406.8125 Q955.0625,408.9063 955.75,409.9844 Q956.4375,411.0469 957.7813,411.0469 Q958.4063,411.0469 959,410.7813 Q959.5938,410.5 960.2188,409.9219 L960.2188,412.6406 Z "/><text fill="#000000" font-family="sans-serif" font-size="12" lengthAdjust="spacingAndGlyphs" textLength="233" x="977.75" y="411.1543">DatabaseGisInterfaceImplementation</text><line style="stroke: #A80036; stroke-width: 1.5;" x1="888" x2="1268" y1="423" y2="423"/><rect fill="none" height="6" style="stroke: #C82930; stroke-width: 1.0;" width="6" x="895" y="431"/><text fill="#000000" font-family="sans-serif" font-size="11" lengthAdjust="spacingAndGlyphs" textLength="177" x="907" y="437.2104">DatabaseGisManager manager</text><rect fill="none" height="6" style="stroke: #C82930; stroke-width: 1.0;" width="6" x="895" y="443.8047"/><text fill="#000000" font-family="sans-serif" font-size="11" lengthAdjust="spacingAndGlyphs" textLength="175" x="907" y="450.0151">LocationDataPoint locDataPoint</text><rect fill="none" height="6" style="stroke: #C82930; stroke-width: 1.0;" width="6" x="895" y="456.6094"/><text fill="#000000" font-family="sans-serif" font-size="11" lengthAdjust="spacingAndGlyphs" textLength="125" x="907" y="462.8198">String currentSatellite</text><rect fill="none" height="6" style="stroke: #C82930; stroke-width: 1.0;" width="6" x="895" y="469.4141"/><text fill="#000000" font-family="sans-serif" font-size="11" lengthAdjust="spacingAndGlyphs" textLength="70" x="907" y="475.6245">String mode</text><line style="stroke: #A80036; stroke-width: 1.5;" x1="888" x2="1268" y1="482.2188" y2="482.2188"/><ellipse cx="898" cy="493.2188" fill="#84BE84" rx="3" ry="3" style="stroke: #038048; stroke-width: 1.0;"/><text fill="#000000" font-family="sans-serif" font-size="11" lengthAdjust="spacingAndGlyphs" textLength="127" x="907" y="496.4292">DatabaseGisInterface(</text><text fill="#000000" font-family="sans-serif" font-size="11" lengthAdjust="spacingAndGlyphs" textLength="179" x="939" y="509.2339">LocationDataPoint locDataPoint,</text><text fill="#000000" font-family="sans-serif" font-size="11" lengthAdjust="spacingAndGlyphs" textLength="129" x="939" y="522.0386">String currentSatellite,</text><text fill="#000000" font-family="sans-serif" font-size="11" lengthAdjust="spacingAndGlyphs" textLength="70" x="939" y="534.8433">String mode</text><text fill="#000000" font-family="sans-serif" font-size="11" lengthAdjust="spacingAndGlyphs" textLength="4" x="907" y="547.6479">)</text><ellipse cx="898" cy="574.0469" fill="#84BE84" rx="3" ry="3" style="stroke: #038048; stroke-width: 1.0;"/><text fill="#000000" font-family="sans-serif" font-size="11" lengthAdjust="spacingAndGlyphs" textLength="356" x="907" y="577.2573">void recieveStoreRequest(LocationDataPoint locationDataPoint)</text><line style="stroke: #A80036; stroke-width: 1.0; stroke-dasharray: 1.0,2.0;" x1="888" x2="1045" y1="560.6445" y2="560.6445"/><text fill="#000000" font-family="sans-serif" font-size="11" lengthAdjust="spacingAndGlyphs" textLength="66" x="1045" y="563.9526">Use Case 1</text><line style="stroke: #A80036; stroke-width: 1.0; stroke-dasharray: 1.0,2.0;" x1="1111" x2="1268" y1="560.6445" y2="560.6445"/><ellipse cx="898" cy="603.6563" fill="#84BE84" rx="3" ry="3" style="stroke: #038048; stroke-width: 1.0;"/><text fill="#000000" font-family="sans-serif" font-size="11" lengthAdjust="spacingAndGlyphs" textLength="222" x="907" y="606.8667">void recieveModeRequest(String mode)</text><ellipse cx="898" cy="616.4609" fill="#84BE84" rx="3" ry="3" style="stroke: #038048; stroke-width: 1.0;"/><text fill="#000000" font-family="sans-serif" font-size="11" lengthAdjust="spacingAndGlyphs" textLength="275" x="907" y="619.6714">String recieveNextSatRequest(String currentSat)</text><line style="stroke: #A80036; stroke-width: 1.0; stroke-dasharray: 1.0,2.0;" x1="888" x2="1045" y1="590.2539" y2="590.2539"/><text fill="#000000" font-family="sans-serif" font-size="11" lengthAdjust="spacingAndGlyphs" textLength="66" x="1045" y="593.562">Use Case 2</text><line style="stroke: #A80036; stroke-width: 1.0; stroke-dasharray: 1.0,2.0;" x1="1111" x2="1268" y1="590.2539" y2="590.2539"/><!--MD5=[cb27e8f56b23a96be3f83add8518c141]
class DatabaseGisManagerImplementation--><rect fill="#FEFECE" filter="url(#f1w2fc2e4x0ysb)" height="120.0234" id="DatabaseGisManagerImplementation" style="stroke: #A80036; stroke-width: 1.5;" width="369" x="1304.5" y="448.5"/><ellipse cx="1368.75" cy="464.5" fill="#ADD1B2" rx="11" ry="11" style="stroke: #A80036; stroke-width: 1.0;"/><path d="M1371.7188,470.1406 Q1371.1406,470.4375 1370.5,470.5781 Q1369.8594,470.7344 1369.1563,470.7344 Q1366.6563,470.7344 1365.3281,469.0938 Q1364.0156,467.4375 1364.0156,464.3125 Q1364.0156,461.1875 1365.3281,459.5313 Q1366.6563,457.875 1369.1563,457.875 Q1369.8594,457.875 1370.5,458.0313 Q1371.1563,458.1875 1371.7188,458.4844 L1371.7188,461.2031 Q1371.0938,460.625 1370.5,460.3594 Q1369.9063,460.0781 1369.2813,460.0781 Q1367.9375,460.0781 1367.25,461.1563 Q1366.5625,462.2188 1366.5625,464.3125 Q1366.5625,466.4063 1367.25,467.4844 Q1367.9375,468.5469 1369.2813,468.5469 Q1369.9063,468.5469 1370.5,468.2813 Q1371.0938,468 1371.7188,467.4219 L1371.7188,470.1406 Z "/><text fill="#000000" font-family="sans-serif" font-size="12" lengthAdjust="spacingAndGlyphs" textLength="232" x="1389.25" y="468.6543">DatabaseGisManagerImplementation</text><line style="stroke: #A80036; stroke-width: 1.5;" x1="1305.5" x2="1672.5" y1="480.5" y2="480.5"/><line style="stroke: #A80036; stroke-width: 1.5;" x1="1305.5" x2="1672.5" y1="488.5" y2="488.5"/><ellipse cx="1315.5" cy="516.3047" fill="#84BE84" rx="3" ry="3" style="stroke: #038048; stroke-width: 1.0;"/><text fill="#000000" font-family="sans-serif" font-size="11" lengthAdjust="spacingAndGlyphs" textLength="343" x="1324.5" y="519.5151">void passStoreRequest(LocationDataPoint locationDataPoint)</text><line style="stroke: #A80036; stroke-width: 1.0; stroke-dasharray: 1.0,2.0;" x1="1305.5" x2="1456" y1="502.9023" y2="502.9023"/><text fill="#000000" font-family="sans-serif" font-size="11" lengthAdjust="spacingAndGlyphs" textLength="66" x="1456" y="506.2104">Use Case 1</text><line style="stroke: #A80036; stroke-width: 1.0; stroke-dasharray: 1.0,2.0;" x1="1522" x2="1672.5" y1="502.9023" y2="502.9023"/><ellipse cx="1315.5" cy="545.9141" fill="#84BE84" rx="3" ry="3" style="stroke: #038048; stroke-width: 1.0;"/><text fill="#000000" font-family="sans-serif" font-size="11" lengthAdjust="spacingAndGlyphs" textLength="209" x="1324.5" y="549.1245">void passModeRequest(String mode)</text><ellipse cx="1315.5" cy="558.7188" fill="#84BE84" rx="3" ry="3" style="stroke: #038048; stroke-width: 1.0;"/><text fill="#000000" font-family="sans-serif" font-size="11" lengthAdjust="spacingAndGlyphs" textLength="262" x="1324.5" y="561.9292">String passNextSatRequest(String currentSat)</text><line style="stroke: #A80036; stroke-width: 1.0; stroke-dasharray: 1.0,2.0;" x1="1305.5" x2="1456" y1="532.5117" y2="532.5117"/><text fill="#000000" font-family="sans-serif" font-size="11" lengthAdjust="spacingAndGlyphs" textLength="66" x="1456" y="535.8198">Use Case 2</text><line style="stroke: #A80036; stroke-width: 1.0; stroke-dasharray: 1.0,2.0;" x1="1522" x2="1672.5" y1="532.5117" y2="532.5117"/><!--MD5=[6c3ae89235db7efba3a5d8ea9fd47e2d]
class DatabasePersistentStorageImplementation--><rect fill="#FEFECE" filter="url(#f1w2fc2e4x0ysb)" height="299.2891" id="DatabasePersistentStorageImplementation" style="stroke: #A80036; stroke-width: 1.5;" width="395" x="1708.5" y="359"/><ellipse cx="1765.75" cy="375" fill="#ADD1B2" rx="11" ry="11" style="stroke: #A80036; stroke-width: 1.0;"/><path d="M1768.7188,380.6406 Q1768.1406,380.9375 1767.5,381.0781 Q1766.8594,381.2344 1766.1563,381.2344 Q1763.6563,381.2344 1762.3281,379.5938 Q1761.0156,377.9375 1761.0156,374.8125 Q1761.0156,371.6875 1762.3281,370.0313 Q1763.6563,368.375 1766.1563,368.375 Q1766.8594,368.375 1767.5,368.5313 Q1768.1563,368.6875 1768.7188,368.9844 L1768.7188,371.7031 Q1768.0938,371.125 1767.5,370.8594 Q1766.9063,370.5781 1766.2813,370.5781 Q1764.9375,370.5781 1764.25,371.6563 Q1763.5625,372.7188 1763.5625,374.8125 Q1763.5625,376.9063 1764.25,377.9844 Q1764.9375,379.0469 1766.2813,379.0469 Q1766.9063,379.0469 1767.5,378.7813 Q1768.0938,378.5 1768.7188,377.9219 L1768.7188,380.6406 Z "/><text fill="#000000" font-family="sans-serif" font-size="12" lengthAdjust="spacingAndGlyphs" textLength="272" x="1786.25" y="379.1543">DatabasePersistentStorageImplementation</text><line style="stroke: #A80036; stroke-width: 1.5;" x1="1709.5" x2="2102.5" y1="391" y2="391"/><rect fill="none" height="6" style="stroke: #C82930; stroke-width: 1.0;" width="6" x="1716.5" y="399"/><text fill="#000000" font-family="sans-serif" font-size="11" lengthAdjust="spacingAndGlyphs" textLength="63" x="1728.5" y="405.2104">int rfidData</text><rect fill="none" height="6" style="stroke: #C82930; stroke-width: 1.0;" width="6" x="1716.5" y="411.8047"/><text fill="#000000" font-family="sans-serif" font-size="11" lengthAdjust="spacingAndGlyphs" textLength="243" x="1728.5" y="418.0151">ArrayList&lt;LocationDataPoint&gt; locDataPoint</text><rect fill="none" height="6" style="stroke: #C82930; stroke-width: 1.0;" width="6" x="1716.5" y="424.6094"/><text fill="#000000" font-family="sans-serif" font-size="11" lengthAdjust="spacingAndGlyphs" textLength="183" x="1728.5" y="430.8198">ArrayList&lt;TrackData&gt; trackData</text><rect fill="none" height="6" style="stroke: #C82930; stroke-width: 1.0;" width="6" x="1716.5" y="437.4141"/><text fill="#000000" font-family="sans-serif" font-size="11" lengthAdjust="spacingAndGlyphs" textLength="123" x="1728.5" y="443.6245">String[] nextSatellites</text><rect fill="none" height="6" style="stroke: #C82930; stroke-width: 1.0;" width="6" x="1716.5" y="450.2188"/><text fill="#000000" font-family="sans-serif" font-size="11" lengthAdjust="spacingAndGlyphs" textLength="70" x="1728.5" y="456.4292">String mode</text><line style="stroke: #A80036; stroke-width: 1.5;" x1="1709.5" x2="2102.5" y1="463.0234" y2="463.0234"/><ellipse cx="1719.5" cy="474.0234" fill="#84BE84" rx="3" ry="3" style="stroke: #038048; stroke-width: 1.0;"/><text fill="#000000" font-family="sans-serif" font-size="11" lengthAdjust="spacingAndGlyphs" textLength="228" x="1728.5" y="477.2339">DatabasePersistentStorage(int rfidData,</text><text fill="#000000" font-family="sans-serif" font-size="11" lengthAdjust="spacingAndGlyphs" textLength="247" x="1760.5" y="490.0386">ArrayList&lt;LocationDataPoint&gt; locDataPoint,</text><text fill="#000000" font-family="sans-serif" font-size="11" lengthAdjust="spacingAndGlyphs" textLength="187" x="1760.5" y="502.8433">ArrayList&lt;TrackData&gt; trackData,</text><text fill="#000000" font-family="sans-serif" font-size="11" lengthAdjust="spacingAndGlyphs" textLength="127" x="1760.5" y="515.6479">String[] nextSatellites)</text><ellipse cx="1719.5" cy="542.0469" fill="#84BE84" rx="3" ry="3" style="stroke: #038048; stroke-width: 1.0;"/><text fill="#000000" font-family="sans-serif" font-size="11" lengthAdjust="spacingAndGlyphs" textLength="107" x="1728.5" y="545.2573">int locateRfidData()</text><ellipse cx="1719.5" cy="554.8516" fill="#84BE84" rx="3" ry="3" style="stroke: #038048; stroke-width: 1.0;"/><text fill="#000000" font-family="sans-serif" font-size="11" lengthAdjust="spacingAndGlyphs" textLength="283" x="1728.5" y="558.062">LocationDataPoint getLocationDataPoint(int offset)</text><ellipse cx="1719.5" cy="567.6563" fill="#84BE84" rx="3" ry="3" style="stroke: #038048; stroke-width: 1.0;"/><text fill="#000000" font-family="sans-serif" font-size="11" lengthAdjust="spacingAndGlyphs" textLength="369" x="1728.5" y="570.8667">void storeLocationDataPoint(LocationDataPoint locationDataPoint)</text><ellipse cx="1719.5" cy="580.4609" fill="#84BE84" rx="3" ry="3" style="stroke: #038048; stroke-width: 1.0;"/><text fill="#000000" font-family="sans-serif" font-size="11" lengthAdjust="spacingAndGlyphs" textLength="195" x="1728.5" y="583.6714">TrackData getTrackData(int offset)</text><ellipse cx="1719.5" cy="593.2656" fill="#84BE84" rx="3" ry="3" style="stroke: #038048; stroke-width: 1.0;"/><text fill="#000000" font-family="sans-serif" font-size="11" lengthAdjust="spacingAndGlyphs" textLength="237" x="1728.5" y="596.4761">void storeTrackData(TrackData trackData)</text><ellipse cx="1719.5" cy="606.0703" fill="#84BE84" rx="3" ry="3" style="stroke: #038048; stroke-width: 1.0;"/><text fill="#000000" font-family="sans-serif" font-size="11" lengthAdjust="spacingAndGlyphs" textLength="94" x="1728.5" y="609.2808">String getMode()</text><line style="stroke: #A80036; stroke-width: 1.0; stroke-dasharray: 1.0,2.0;" x1="1709.5" x2="1873" y1="528.6445" y2="528.6445"/><text fill="#000000" font-family="sans-serif" font-size="11" lengthAdjust="spacingAndGlyphs" textLength="66" x="1873" y="531.9526">Use Case 1</text><line style="stroke: #A80036; stroke-width: 1.0; stroke-dasharray: 1.0,2.0;" x1="1939" x2="2102.5" y1="528.6445" y2="528.6445"/><ellipse cx="1719.5" cy="635.6797" fill="#84BE84" rx="3" ry="3" style="stroke: #038048; stroke-width: 1.0;"/><text fill="#000000" font-family="sans-serif" font-size="11" lengthAdjust="spacingAndGlyphs" textLength="165" x="1728.5" y="638.8901">void storeMode(String mode)</text><ellipse cx="1719.5" cy="648.4844" fill="#84BE84" rx="3" ry="3" style="stroke: #038048; stroke-width: 1.0;"/><text fill="#000000" font-family="sans-serif" font-size="11" lengthAdjust="spacingAndGlyphs" textLength="206" x="1728.5" y="651.6948">String getNextSat(String currentSat)</text><line style="stroke: #A80036; stroke-width: 1.0; stroke-dasharray: 1.0,2.0;" x1="1709.5" x2="1873" y1="622.2773" y2="622.2773"/><text fill="#000000" font-family="sans-serif" font-size="11" lengthAdjust="spacingAndGlyphs" textLength="66" x="1873" y="625.5854">Use Case 2</text><line style="stroke: #A80036; stroke-width: 1.0; stroke-dasharray: 1.0,2.0;" x1="1939" x2="2102.5" y1="622.2773" y2="622.2773"/><!--MD5=[b29619f0f1793d2973c3ae8f2ae417a7]
reverse link DatabaseCommInterface to DatabaseCommInterfaceImplementation--><path d="M237,319.46 C237,367.34 237,418.06 237,454.74 " fill="none" id="DatabaseCommInterface&lt;-DatabaseCommInterfaceImplementation" style="stroke: #A80036; stroke-width: 1.0; stroke-dasharray: 7.0,7.0;"/><polygon fill="none" points="230,319.16,237,299.16,244,319.16,230,319.16" style="stroke: #A80036; stroke-width: 1.0;"/><!--MD5=[a58b2e4b707a50c1d2b096e4059ce319]
reverse link DatabaseCommManager to DatabaseCommManagerImplementation--><path d="M661.23,263.67 C660.9,300.36 660.5,344.16 660.13,384.45 " fill="none" id="DatabaseCommManager&lt;-DatabaseCommManagerImplementation" style="stroke: #A80036; stroke-width: 1.0; stroke-dasharray: 7.0,7.0;"/><polygon fill="none" points="654.24,263.47,661.42,243.53,668.23,263.6,654.24,263.47" style="stroke: #A80036; stroke-width: 1.0;"/><!--MD5=[8fafe5e46f3a559c7888846384f84dbe]
reverse link DatabaseGisInterface to DatabaseGisInterfaceImplementation--><path d="M1079.52,259.35 C1079.27,298.84 1078.98,347.34 1078.71,390.96 " fill="none" id="DatabaseGisInterface&lt;-DatabaseGisInterfaceImplementation" style="stroke: #A80036; stroke-width: 1.0; stroke-dasharray: 7.0,7.0;"/><polygon fill="none" points="1072.52,259.26,1079.64,239.31,1086.52,259.35,1072.52,259.26" style="stroke: #A80036; stroke-width: 1.0;"/><!--MD5=[4b9ab9aeff5ade3c5ddb67bcb023b127]
reverse link DatabaseGisManager to DatabaseGisManagerImplementation--><path d="M1489.76,259.41 C1489.58,317.67 1489.34,395.51 1489.18,448.36 " fill="none" id="DatabaseGisManager&lt;-DatabaseGisManagerImplementation" style="stroke: #A80036; stroke-width: 1.0; stroke-dasharray: 7.0,7.0;"/><polygon fill="none" points="1482.76,259.29,1489.82,239.31,1496.76,259.33,1482.76,259.29" style="stroke: #A80036; stroke-width: 1.0;"/><!--MD5=[eb0961a570d8086d40299e5221360d47]
reverse link DatabasePersistentStorage to DatabasePersistentStorageImplementation--><path d="M1906,291.49 C1906,313.12 1906,336.11 1906,358.71 " fill="none" id="DatabasePersistentStorage&lt;-DatabasePersistentStorageImplementation" style="stroke: #A80036; stroke-width: 1.0; stroke-dasharray: 7.0,7.0;"/><polygon fill="none" points="1899,291.23,1906,271.23,1913,291.23,1899,291.23" style="stroke: #A80036; stroke-width: 1.0;"/><!--MD5=[4d3820f13fffa0b56fd231412ff6d44e]
@startuml DatabaseProductionPackage_DirectDependencies

package edu.oakland.production.database {
    
}


package edu.oakland.production.database {
    
}


package edu.oakland.production.database {
    interface DatabaseCommInterface {
    	- DatabaseCommManager databaseCommManager
    	- int rfidData
    	- LocationDataPoint locDataPoint
    	- TrackData trackData
    	- String mode
        __
        DatabaseCommInterface(int rfidData, 
        \tLocationDataPoint locDataPoint,
        \tTrackData trackData)
        .. Use Case 1 ..
        + int receiveGetRfidRequest()
        + LocationDataPoint receiveGetLocationDataPointRequest(int offset)
        + TrackData receiveGetTrackDataRequest(int offset)
        + void storeTrackDataRequest(TrackData trackData)
        + String receiveGetModeRequest()
        
    }
}


package edu.oakland.production.database {
    interface DatabaseCommManager {
        __
        .. Use Case 1 ..
        {abstract} + int passGetRfidRequest()
        {abstract} + LocationDataPoint passGetLocationDataPointRequest(int offset)
        {abstract} + TrackData passGetTrackDataRequest(int offset)
        {abstract} + void passStoreTrackDataRequest(TrackData trackData)
        {abstract} + String passGetModeRequest()
    }
}


package edu.oakland.production.database {
    interface DatabaseGisInterface {
        __
        .. Use Case 1 ..
        {abstract} + void recieveStoreRequest(LocationDataPoint locationDataPoint)
        .. Use Case 2 ..
        {abstract} + String recieveModeRequest(String mode)
        {abstract} + String recieveNextSatRequest(String currentSat)
    }
}


package edu.oakland.production.database {
    interface DatabaseGisManager {
        __
        .. Use Case 1 ..
        {abstract} + void passStoreRequest(LocationDataPoint locationDataPoint)
        .. Use Case 2 ..
        {abstract} + void passModeRequest(String mode)
        {abstract} + String passNextSatRequest(String currentSat)
    }
}


package edu.oakland.production.database {
    interface DatabasePersistentStorage {
        __
        .. Use Case 1 ..
        {abstract} + int locateRfidData()
        {abstract} + LocationDataPoint getLocationDataPoint(int offset)
        {abstract} + void storeLocationDataPoint(LocationDataPoint locationDataPoint)
        {abstract} + TrackData getTrackData(int offset)
        {abstract} + void storeTrackData(TrackData trackData)
        {abstract} + String getMode()
        .. Use Case 2 ..
        {abstract} + void storeMode(String mode)
        {abstract} + String getNextSat(String currentSat)
    }
}


package edu.oakland.production.database {
    class DatabaseCommInterfaceImplementation {
        __
        .. Use Case 1 ..

        .. Use Case 2 ..

    }
}


DatabaseCommInterfaceImplementation .up.|> DatabaseCommInterface

package edu.oakland.production.database {
    class DatabaseCommManagerImplementation {
        - DatabasePersistentStorage databasePersistentStorage
        - int rfidData
        - LocationDataPoint locDataPoint
        - Trackdata trackData
        __
        DatabaseCommManagerImplementation(int rfidData,
         \tLocationDataPoint locDataPoint,
         \tTrackdata trackData)
        .. Use Case 1 ..
        + int passGetRfidRequest()
        + LocationDataPoint passGetLocationDataPointRequest(int offset)
        + TrackData passGetTrackDataRequest(int offset)
        + void passStoreTrackDataRequest(TrackData trackData)

        .. Use Case 2 ..

    }
}


DatabaseCommManagerImplementation .up.|> DatabaseCommManager

package edu.oakland.production.database {
    class DatabaseGisInterfaceImplementation {
        - DatabaseGisManager manager
        - LocationDataPoint locDataPoint
        - String currentSatellite
        - String mode
        __
        + DatabaseGisInterface( 
        \tLocationDataPoint locDataPoint,  
        \tString currentSatellite,
        \tString mode
        )
        .. Use Case 1 ..
        + void recieveStoreRequest(LocationDataPoint locationDataPoint)
        .. Use Case 2 ..
        + void recieveModeRequest(String mode)
        + String recieveNextSatRequest(String currentSat)
    }
}


DatabaseGisInterfaceImplementation .up.|> DatabaseGisInterface

package edu.oakland.production.database {
    class DatabaseGisManagerImplementation {
        __
        .. Use Case 1 ..
        + void passStoreRequest(LocationDataPoint locationDataPoint)
        .. Use Case 2 ..
        + void passModeRequest(String mode)
        + String passNextSatRequest(String currentSat)
    }
}


DatabaseGisManagerImplementation .up.|> DatabaseGisManager

package edu.oakland.production.database {
    class DatabasePersistentStorageImplementation {
        - int rfidData
        - ArrayList<LocationDataPoint> locDataPoint
        - ArrayList<TrackData> trackData
        - String[] nextSatellites
        - String mode
        __
        + DatabasePersistentStorage(int rfidData, 
        \tArrayList<LocationDataPoint> locDataPoint, 
        \tArrayList<TrackData> trackData, 
        \tString[] nextSatellites)
        .. Use Case 1 ..
        + int locateRfidData()
        + LocationDataPoint getLocationDataPoint(int offset)
        + void storeLocationDataPoint(LocationDataPoint locationDataPoint)
        + TrackData getTrackData(int offset)
        + void storeTrackData(TrackData trackData)
        + String getMode()
        .. Use Case 2 ..
        + void storeMode(String mode)
        + String getNextSat(String currentSat)
    }
}


DatabasePersistentStorageImplementation .up.|> DatabasePersistentStorage























@enduml

PlantUML version 1.2020.02(Sun Mar 01 10:22:07 GMT 2020)
(GPL source distribution)
Java Runtime: OpenJDK Runtime Environment
JVM: OpenJDK 64-Bit Server VM
Java Version: 11.0.9+11-Ubuntu-0ubuntu1
Operating System: Linux
Default Encoding: ANSI_X3.4-1968
Language: en
Country: US
--></g></svg>