<?xml version="1.0" encoding="UTF-8" standalone="no"?><svg xmlns="http://www.w3.org/2000/svg" xmlns:xlink="http://www.w3.org/1999/xlink" contentScriptType="application/ecmascript" contentStyleType="text/css" height="883px" preserveAspectRatio="none" style="width:1712px;height:883px;" version="1.1" viewBox="0 0 1712 883" width="1712px" zoomAndPan="magnify"><defs><filter height="300%" id="f18qeb6qucfjvo" width="300%" x="-1" y="-1"><feGaussianBlur result="blurOut" stdDeviation="2.0"/><feColorMatrix in="blurOut" result="blurOut2" type="matrix" values="0 0 0 0 0 0 0 0 0 0 0 0 0 0 0 0 0 0 .4 0"/><feOffset dx="4.0" dy="4.0" in="blurOut2" result="blurOut3"/><feBlend in="SourceGraphic" in2="blurOut3" mode="normal"/></filter></defs><g><!--MD5=[c2e276049abfe145c9906edb061abd32]
cluster edu.oakland.production.database--><polygon fill="#FFFFFF" filter="url(#f18qeb6qucfjvo)" points="22,24,292,24,299,46.2969,1690,46.2969,1690,871,22,871,22,24" style="stroke: #000000; stroke-width: 1.5;"/><line style="stroke: #000000; stroke-width: 1.5;" x1="22" x2="299" y1="46.2969" y2="46.2969"/><text fill="#000000" font-family="sans-serif" font-size="14" font-weight="bold" lengthAdjust="spacingAndGlyphs" textLength="264" x="26" y="38.9951">edu.oakland.production.database</text><!--MD5=[6d34700a22f737f940b471daa4ac1202]
class DatabaseCommInterface--><rect fill="#FEFECE" filter="url(#f18qeb6qucfjvo)" height="128.8281" id="DatabaseCommInterface" style="stroke: #A80036; stroke-width: 1.5;" width="398" x="38" y="59"/><ellipse cx="155.25" cy="75" fill="#B4A7E5" rx="11" ry="11" style="stroke: #A80036; stroke-width: 1.0;"/><path d="M151.1719,70.7656 L151.1719,68.6094 L158.5625,68.6094 L158.5625,70.7656 L156.0938,70.7656 L156.0938,78.8438 L158.5625,78.8438 L158.5625,81 L151.1719,81 L151.1719,78.8438 L153.6406,78.8438 L153.6406,70.7656 L151.1719,70.7656 Z "/><text fill="#000000" font-family="sans-serif" font-size="12" font-style="italic" lengthAdjust="spacingAndGlyphs" textLength="155" x="175.75" y="79.1543">DatabaseCommInterface</text><line style="stroke: #A80036; stroke-width: 1.5;" x1="39" x2="435" y1="91" y2="91"/><line style="stroke: #A80036; stroke-width: 1.5;" x1="39" x2="435" y1="99" y2="99"/><ellipse cx="49" cy="126.8047" fill="#84BE84" rx="3" ry="3" style="stroke: #038048; stroke-width: 1.0;"/><text fill="#000000" font-family="sans-serif" font-size="11" font-style="italic" lengthAdjust="spacingAndGlyphs" textLength="156" x="58" y="130.0151">int receiveGetRfidRequest()</text><ellipse cx="49" cy="139.6094" fill="#84BE84" rx="3" ry="3" style="stroke: #038048; stroke-width: 1.0;"/><text fill="#000000" font-family="sans-serif" font-size="11" font-style="italic" lengthAdjust="spacingAndGlyphs" textLength="372" x="58" y="142.8198">LocationDataPoint receiveGetLocationDataPointRequest(int offset)</text><ellipse cx="49" cy="152.4141" fill="#84BE84" rx="3" ry="3" style="stroke: #038048; stroke-width: 1.0;"/><text fill="#000000" font-family="sans-serif" font-size="11" font-style="italic" lengthAdjust="spacingAndGlyphs" textLength="284" x="58" y="155.6245">TrackData receiveGetTrackDataRequest(int offset)</text><ellipse cx="49" cy="165.2188" fill="#84BE84" rx="3" ry="3" style="stroke: #038048; stroke-width: 1.0;"/><text fill="#000000" font-family="sans-serif" font-size="11" font-style="italic" lengthAdjust="spacingAndGlyphs" textLength="283" x="58" y="168.4292">void storeTrackDataRequest(TrackData trackData)</text><ellipse cx="49" cy="178.0234" fill="#84BE84" rx="3" ry="3" style="stroke: #038048; stroke-width: 1.0;"/><text fill="#000000" font-family="sans-serif" font-size="11" font-style="italic" lengthAdjust="spacingAndGlyphs" textLength="183" x="58" y="181.2339">String receiveGetModeRequest()</text><line style="stroke: #A80036; stroke-width: 1.0; stroke-dasharray: 1.0,2.0;" x1="39" x2="204" y1="113.4023" y2="113.4023"/><text fill="#000000" font-family="sans-serif" font-size="11" lengthAdjust="spacingAndGlyphs" textLength="66" x="204" y="116.7104">Use Case 1</text><line style="stroke: #A80036; stroke-width: 1.0; stroke-dasharray: 1.0,2.0;" x1="270" x2="435" y1="113.4023" y2="113.4023"/><!--MD5=[3cbc5f43b2184d452c2937ae0a744eb6]
class DatabaseCommManager--><rect fill="#FEFECE" filter="url(#f18qeb6qucfjvo)" height="128.8281" id="DatabaseCommManager" style="stroke: #A80036; stroke-width: 1.5;" width="382" x="471" y="59"/><ellipse cx="581.25" cy="75" fill="#B4A7E5" rx="11" ry="11" style="stroke: #A80036; stroke-width: 1.0;"/><path d="M577.1719,70.7656 L577.1719,68.6094 L584.5625,68.6094 L584.5625,70.7656 L582.0938,70.7656 L582.0938,78.8438 L584.5625,78.8438 L584.5625,81 L577.1719,81 L577.1719,78.8438 L579.6406,78.8438 L579.6406,70.7656 L577.1719,70.7656 Z "/><text fill="#000000" font-family="sans-serif" font-size="12" font-style="italic" lengthAdjust="spacingAndGlyphs" textLength="153" x="601.75" y="79.1543">DatabaseCommManager</text><line style="stroke: #A80036; stroke-width: 1.5;" x1="472" x2="852" y1="91" y2="91"/><line style="stroke: #A80036; stroke-width: 1.5;" x1="472" x2="852" y1="99" y2="99"/><ellipse cx="482" cy="126.8047" fill="#84BE84" rx="3" ry="3" style="stroke: #038048; stroke-width: 1.0;"/><text fill="#000000" font-family="sans-serif" font-size="11" font-style="italic" lengthAdjust="spacingAndGlyphs" textLength="140" x="491" y="130.0151">int passGetRfidRequest()</text><ellipse cx="482" cy="139.6094" fill="#84BE84" rx="3" ry="3" style="stroke: #038048; stroke-width: 1.0;"/><text fill="#000000" font-family="sans-serif" font-size="11" font-style="italic" lengthAdjust="spacingAndGlyphs" textLength="356" x="491" y="142.8198">LocationDataPoint passGetLocationDataPointRequest(int offset)</text><ellipse cx="482" cy="152.4141" fill="#84BE84" rx="3" ry="3" style="stroke: #038048; stroke-width: 1.0;"/><text fill="#000000" font-family="sans-serif" font-size="11" font-style="italic" lengthAdjust="spacingAndGlyphs" textLength="268" x="491" y="155.6245">TrackData passGetTrackDataRequest(int offset)</text><ellipse cx="482" cy="165.2188" fill="#84BE84" rx="3" ry="3" style="stroke: #038048; stroke-width: 1.0;"/><text fill="#000000" font-family="sans-serif" font-size="11" font-style="italic" lengthAdjust="spacingAndGlyphs" textLength="310" x="491" y="168.4292">void passStoreTrackDataRequest(TrackData trackData)</text><ellipse cx="482" cy="178.0234" fill="#84BE84" rx="3" ry="3" style="stroke: #038048; stroke-width: 1.0;"/><text fill="#000000" font-family="sans-serif" font-size="11" font-style="italic" lengthAdjust="spacingAndGlyphs" textLength="167" x="491" y="181.2339">String passGetModeRequest()</text><line style="stroke: #A80036; stroke-width: 1.0; stroke-dasharray: 1.0,2.0;" x1="472" x2="629" y1="113.4023" y2="113.4023"/><text fill="#000000" font-family="sans-serif" font-size="11" lengthAdjust="spacingAndGlyphs" textLength="66" x="629" y="116.7104">Use Case 1</text><line style="stroke: #A80036; stroke-width: 1.0; stroke-dasharray: 1.0,2.0;" x1="695" x2="852" y1="113.4023" y2="113.4023"/><!--MD5=[3bff7e01a405ec7c4802abd699e27172]
class DatabaseGisInterface--><rect fill="#FEFECE" filter="url(#f18qeb6qucfjvo)" height="120.0234" id="DatabaseGisInterface" style="stroke: #A80036; stroke-width: 1.5;" width="383" x="888.5" y="63.5"/><ellipse cx="1008.25" cy="79.5" fill="#B4A7E5" rx="11" ry="11" style="stroke: #A80036; stroke-width: 1.0;"/><path d="M1004.1719,75.2656 L1004.1719,73.1094 L1011.5625,73.1094 L1011.5625,75.2656 L1009.0938,75.2656 L1009.0938,83.3438 L1011.5625,83.3438 L1011.5625,85.5 L1004.1719,85.5 L1004.1719,83.3438 L1006.6406,83.3438 L1006.6406,75.2656 L1004.1719,75.2656 Z "/><text fill="#000000" font-family="sans-serif" font-size="12" font-style="italic" lengthAdjust="spacingAndGlyphs" textLength="135" x="1028.75" y="83.6543">DatabaseGisInterface</text><line style="stroke: #A80036; stroke-width: 1.5;" x1="889.5" x2="1270.5" y1="95.5" y2="95.5"/><line style="stroke: #A80036; stroke-width: 1.5;" x1="889.5" x2="1270.5" y1="103.5" y2="103.5"/><ellipse cx="899.5" cy="131.3047" fill="#84BE84" rx="3" ry="3" style="stroke: #038048; stroke-width: 1.0;"/><text fill="#000000" font-family="sans-serif" font-size="11" font-style="italic" lengthAdjust="spacingAndGlyphs" textLength="357" x="908.5" y="134.5151">void recieveStoreRequest(LocationDataPoint locationDataPoint)</text><line style="stroke: #A80036; stroke-width: 1.0; stroke-dasharray: 1.0,2.0;" x1="889.5" x2="1047" y1="117.9023" y2="117.9023"/><text fill="#000000" font-family="sans-serif" font-size="11" lengthAdjust="spacingAndGlyphs" textLength="66" x="1047" y="121.2104">Use Case 1</text><line style="stroke: #A80036; stroke-width: 1.0; stroke-dasharray: 1.0,2.0;" x1="1113" x2="1270.5" y1="117.9023" y2="117.9023"/><ellipse cx="899.5" cy="160.9141" fill="#84BE84" rx="3" ry="3" style="stroke: #038048; stroke-width: 1.0;"/><text fill="#000000" font-family="sans-serif" font-size="11" font-style="italic" lengthAdjust="spacingAndGlyphs" textLength="232" x="908.5" y="164.1245">String recieveModeRequest(String mode)</text><ellipse cx="899.5" cy="173.7188" fill="#84BE84" rx="3" ry="3" style="stroke: #038048; stroke-width: 1.0;"/><text fill="#000000" font-family="sans-serif" font-size="11" font-style="italic" lengthAdjust="spacingAndGlyphs" textLength="273" x="908.5" y="176.9292">String recieveNextSatRequest(String currentSat)</text><line style="stroke: #A80036; stroke-width: 1.0; stroke-dasharray: 1.0,2.0;" x1="889.5" x2="1047" y1="147.5117" y2="147.5117"/><text fill="#000000" font-family="sans-serif" font-size="11" lengthAdjust="spacingAndGlyphs" textLength="66" x="1047" y="150.8198">Use Case 2</text><line style="stroke: #A80036; stroke-width: 1.0; stroke-dasharray: 1.0,2.0;" x1="1113" x2="1270.5" y1="147.5117" y2="147.5117"/><!--MD5=[a9fcaa89db220a1b0201406d1ae34ee7]
class DatabaseGisManager--><rect fill="#FEFECE" filter="url(#f18qeb6qucfjvo)" height="120.0234" id="DatabaseGisManager" style="stroke: #A80036; stroke-width: 1.5;" width="367" x="1306.5" y="63.5"/><ellipse cx="1419.25" cy="79.5" fill="#B4A7E5" rx="11" ry="11" style="stroke: #A80036; stroke-width: 1.0;"/><path d="M1415.1719,75.2656 L1415.1719,73.1094 L1422.5625,73.1094 L1422.5625,75.2656 L1420.0938,75.2656 L1420.0938,83.3438 L1422.5625,83.3438 L1422.5625,85.5 L1415.1719,85.5 L1415.1719,83.3438 L1417.6406,83.3438 L1417.6406,75.2656 L1415.1719,75.2656 Z "/><text fill="#000000" font-family="sans-serif" font-size="12" font-style="italic" lengthAdjust="spacingAndGlyphs" textLength="133" x="1439.75" y="83.6543">DatabaseGisManager</text><line style="stroke: #A80036; stroke-width: 1.5;" x1="1307.5" x2="1672.5" y1="95.5" y2="95.5"/><line style="stroke: #A80036; stroke-width: 1.5;" x1="1307.5" x2="1672.5" y1="103.5" y2="103.5"/><ellipse cx="1317.5" cy="131.3047" fill="#84BE84" rx="3" ry="3" style="stroke: #038048; stroke-width: 1.0;"/><text fill="#000000" font-family="sans-serif" font-size="11" font-style="italic" lengthAdjust="spacingAndGlyphs" textLength="341" x="1326.5" y="134.5151">void passStoreRequest(LocationDataPoint locationDataPoint)</text><line style="stroke: #A80036; stroke-width: 1.0; stroke-dasharray: 1.0,2.0;" x1="1307.5" x2="1457" y1="117.9023" y2="117.9023"/><text fill="#000000" font-family="sans-serif" font-size="11" lengthAdjust="spacingAndGlyphs" textLength="66" x="1457" y="121.2104">Use Case 1</text><line style="stroke: #A80036; stroke-width: 1.0; stroke-dasharray: 1.0,2.0;" x1="1523" x2="1672.5" y1="117.9023" y2="117.9023"/><ellipse cx="1317.5" cy="160.9141" fill="#84BE84" rx="3" ry="3" style="stroke: #038048; stroke-width: 1.0;"/><text fill="#000000" font-family="sans-serif" font-size="11" font-style="italic" lengthAdjust="spacingAndGlyphs" textLength="207" x="1326.5" y="164.1245">void passModeRequest(String mode)</text><ellipse cx="1317.5" cy="173.7188" fill="#84BE84" rx="3" ry="3" style="stroke: #038048; stroke-width: 1.0;"/><text fill="#000000" font-family="sans-serif" font-size="11" font-style="italic" lengthAdjust="spacingAndGlyphs" textLength="257" x="1326.5" y="176.9292">String passNextSatRequest(String currentSat)</text><line style="stroke: #A80036; stroke-width: 1.0; stroke-dasharray: 1.0,2.0;" x1="1307.5" x2="1457" y1="147.5117" y2="147.5117"/><text fill="#000000" font-family="sans-serif" font-size="11" lengthAdjust="spacingAndGlyphs" textLength="66" x="1457" y="150.8198">Use Case 2</text><line style="stroke: #A80036; stroke-width: 1.0; stroke-dasharray: 1.0,2.0;" x1="1523" x2="1672.5" y1="147.5117" y2="147.5117"/><!--MD5=[d8df6b105e82f698e3603261466f245f]
class DatabasePersistentStorage--><rect fill="#FEFECE" filter="url(#f18qeb6qucfjvo)" height="184.0469" id="DatabasePersistentStorage" style="stroke: #A80036; stroke-width: 1.5;" width="395" x="39.5" y="280"/><ellipse cx="147.25" cy="296" fill="#B4A7E5" rx="11" ry="11" style="stroke: #A80036; stroke-width: 1.0;"/><path d="M143.1719,291.7656 L143.1719,289.6094 L150.5625,289.6094 L150.5625,291.7656 L148.0938,291.7656 L148.0938,299.8438 L150.5625,299.8438 L150.5625,302 L143.1719,302 L143.1719,299.8438 L145.6406,299.8438 L145.6406,291.7656 L143.1719,291.7656 Z "/><text fill="#000000" font-family="sans-serif" font-size="12" font-style="italic" lengthAdjust="spacingAndGlyphs" textLength="171" x="167.75" y="300.1543">DatabasePersistentStorage</text><line style="stroke: #A80036; stroke-width: 1.5;" x1="40.5" x2="433.5" y1="312" y2="312"/><line style="stroke: #A80036; stroke-width: 1.5;" x1="40.5" x2="433.5" y1="320" y2="320"/><ellipse cx="50.5" cy="347.8047" fill="#84BE84" rx="3" ry="3" style="stroke: #038048; stroke-width: 1.0;"/><text fill="#000000" font-family="sans-serif" font-size="11" font-style="italic" lengthAdjust="spacingAndGlyphs" textLength="108" x="59.5" y="351.0151">int locateRfidData()</text><ellipse cx="50.5" cy="360.6094" fill="#84BE84" rx="3" ry="3" style="stroke: #038048; stroke-width: 1.0;"/><text fill="#000000" font-family="sans-serif" font-size="11" font-style="italic" lengthAdjust="spacingAndGlyphs" textLength="282" x="59.5" y="363.8198">LocationDataPoint getLocationDataPoint(int offset)</text><ellipse cx="50.5" cy="373.4141" fill="#84BE84" rx="3" ry="3" style="stroke: #038048; stroke-width: 1.0;"/><text fill="#000000" font-family="sans-serif" font-size="11" font-style="italic" lengthAdjust="spacingAndGlyphs" textLength="369" x="59.5" y="376.6245">void storeLocationDataPoint(LocationDataPoint locationDataPoint)</text><ellipse cx="50.5" cy="386.2188" fill="#84BE84" rx="3" ry="3" style="stroke: #038048; stroke-width: 1.0;"/><text fill="#000000" font-family="sans-serif" font-size="11" font-style="italic" lengthAdjust="spacingAndGlyphs" textLength="194" x="59.5" y="389.4292">TrackData getTrackData(int offset)</text><ellipse cx="50.5" cy="399.0234" fill="#84BE84" rx="3" ry="3" style="stroke: #038048; stroke-width: 1.0;"/><text fill="#000000" font-family="sans-serif" font-size="11" font-style="italic" lengthAdjust="spacingAndGlyphs" textLength="237" x="59.5" y="402.2339">void storeTrackData(TrackData trackData)</text><ellipse cx="50.5" cy="411.8281" fill="#84BE84" rx="3" ry="3" style="stroke: #038048; stroke-width: 1.0;"/><text fill="#000000" font-family="sans-serif" font-size="11" font-style="italic" lengthAdjust="spacingAndGlyphs" textLength="93" x="59.5" y="415.0386">String getMode()</text><line style="stroke: #A80036; stroke-width: 1.0; stroke-dasharray: 1.0,2.0;" x1="40.5" x2="204" y1="334.4023" y2="334.4023"/><text fill="#000000" font-family="sans-serif" font-size="11" lengthAdjust="spacingAndGlyphs" textLength="66" x="204" y="337.7104">Use Case 1</text><line style="stroke: #A80036; stroke-width: 1.0; stroke-dasharray: 1.0,2.0;" x1="270" x2="433.5" y1="334.4023" y2="334.4023"/><ellipse cx="50.5" cy="441.4375" fill="#84BE84" rx="3" ry="3" style="stroke: #038048; stroke-width: 1.0;"/><text fill="#000000" font-family="sans-serif" font-size="11" font-style="italic" lengthAdjust="spacingAndGlyphs" textLength="164" x="59.5" y="444.6479">void storeMode(String mode)</text><ellipse cx="50.5" cy="454.2422" fill="#84BE84" rx="3" ry="3" style="stroke: #038048; stroke-width: 1.0;"/><text fill="#000000" font-family="sans-serif" font-size="11" font-style="italic" lengthAdjust="spacingAndGlyphs" textLength="203" x="59.5" y="457.4526">String getNextSat(String currentSat)</text><line style="stroke: #A80036; stroke-width: 1.0; stroke-dasharray: 1.0,2.0;" x1="40.5" x2="204" y1="428.0352" y2="428.0352"/><text fill="#000000" font-family="sans-serif" font-size="11" lengthAdjust="spacingAndGlyphs" textLength="66" x="204" y="431.3433">Use Case 2</text><line style="stroke: #A80036; stroke-width: 1.0; stroke-dasharray: 1.0,2.0;" x1="270" x2="433.5" y1="428.0352" y2="428.0352"/><!--MD5=[9f85d6b15dbd6dc4f6cf7395c0833d14]
class DatabaseCommInterfaceImplementation--><rect fill="#FEFECE" filter="url(#f18qeb6qucfjvo)" height="107.2188" id="DatabaseCommInterfaceImplementation" style="stroke: #A80036; stroke-width: 1.5;" width="284" x="470" y="318.5"/><ellipse cx="485" cy="334.5" fill="#ADD1B2" rx="11" ry="11" style="stroke: #A80036; stroke-width: 1.0;"/><path d="M487.9688,340.1406 Q487.3906,340.4375 486.75,340.5781 Q486.1094,340.7344 485.4063,340.7344 Q482.9063,340.7344 481.5781,339.0938 Q480.2656,337.4375 480.2656,334.3125 Q480.2656,331.1875 481.5781,329.5313 Q482.9063,327.875 485.4063,327.875 Q486.1094,327.875 486.75,328.0313 Q487.4063,328.1875 487.9688,328.4844 L487.9688,331.2031 Q487.3438,330.625 486.75,330.3594 Q486.1563,330.0781 485.5313,330.0781 Q484.1875,330.0781 483.5,331.1563 Q482.8125,332.2188 482.8125,334.3125 Q482.8125,336.4063 483.5,337.4844 Q484.1875,338.5469 485.5313,338.5469 Q486.1563,338.5469 486.75,338.2813 Q487.3438,338 487.9688,337.4219 L487.9688,340.1406 Z "/><text fill="#000000" font-family="sans-serif" font-size="12" lengthAdjust="spacingAndGlyphs" textLength="252" x="499" y="338.6543">DatabaseCommInterfaceImplementation</text><line style="stroke: #A80036; stroke-width: 1.5;" x1="471" x2="753" y1="350.5" y2="350.5"/><line style="stroke: #A80036; stroke-width: 1.5;" x1="471" x2="753" y1="358.5" y2="358.5"/><text fill="#000000" font-family="sans-serif" font-size="11" lengthAdjust="spacingAndGlyphs" textLength="0" x="480" y="389.5151"/><line style="stroke: #A80036; stroke-width: 1.0; stroke-dasharray: 1.0,2.0;" x1="471" x2="579" y1="372.9023" y2="372.9023"/><text fill="#000000" font-family="sans-serif" font-size="11" lengthAdjust="spacingAndGlyphs" textLength="66" x="579" y="376.2104">Use Case 1</text><line style="stroke: #A80036; stroke-width: 1.0; stroke-dasharray: 1.0,2.0;" x1="645" x2="753" y1="372.9023" y2="372.9023"/><text fill="#000000" font-family="sans-serif" font-size="11" lengthAdjust="spacingAndGlyphs" textLength="0" x="480" y="419.1245"/><line style="stroke: #A80036; stroke-width: 1.0; stroke-dasharray: 1.0,2.0;" x1="471" x2="579" y1="402.5117" y2="402.5117"/><text fill="#000000" font-family="sans-serif" font-size="11" lengthAdjust="spacingAndGlyphs" textLength="66" x="579" y="405.8198">Use Case 2</text><line style="stroke: #A80036; stroke-width: 1.0; stroke-dasharray: 1.0,2.0;" x1="645" x2="753" y1="402.5117" y2="402.5117"/><!--MD5=[e62c039a107b929dc588966558a86fd5]
class DatabaseCommManagerImplementation--><rect fill="#FEFECE" filter="url(#f18qeb6qucfjvo)" height="248.0703" id="DatabaseCommManagerImplementation" style="stroke: #A80036; stroke-width: 1.5;" width="385" x="789.5" y="248"/><ellipse cx="852.25" cy="264" fill="#ADD1B2" rx="11" ry="11" style="stroke: #A80036; stroke-width: 1.0;"/><path d="M855.2188,269.6406 Q854.6406,269.9375 854,270.0781 Q853.3594,270.2344 852.6563,270.2344 Q850.1563,270.2344 848.8281,268.5938 Q847.5156,266.9375 847.5156,263.8125 Q847.5156,260.6875 848.8281,259.0313 Q850.1563,257.375 852.6563,257.375 Q853.3594,257.375 854,257.5313 Q854.6563,257.6875 855.2188,257.9844 L855.2188,260.7031 Q854.5938,260.125 854,259.8594 Q853.4063,259.5781 852.7813,259.5781 Q851.4375,259.5781 850.75,260.6563 Q850.0625,261.7188 850.0625,263.8125 Q850.0625,265.9063 850.75,266.9844 Q851.4375,268.0469 852.7813,268.0469 Q853.4063,268.0469 854,267.7813 Q854.5938,267.5 855.2188,266.9219 L855.2188,269.6406 Z "/><text fill="#000000" font-family="sans-serif" font-size="12" lengthAdjust="spacingAndGlyphs" textLength="251" x="872.75" y="268.1543">DatabaseCommManagerImplementation</text><line style="stroke: #A80036; stroke-width: 1.5;" x1="790.5" x2="1173.5" y1="280" y2="280"/><rect fill="none" height="6" style="stroke: #C82930; stroke-width: 1.0;" width="6" x="797.5" y="288"/><text fill="#000000" font-family="sans-serif" font-size="11" lengthAdjust="spacingAndGlyphs" textLength="317" x="809.5" y="294.2104">DatabasePersistentStorage databasePersistentStorage</text><rect fill="none" height="6" style="stroke: #C82930; stroke-width: 1.0;" width="6" x="797.5" y="300.8047"/><text fill="#000000" font-family="sans-serif" font-size="11" lengthAdjust="spacingAndGlyphs" textLength="63" x="809.5" y="307.0151">int rfidData</text><rect fill="none" height="6" style="stroke: #C82930; stroke-width: 1.0;" width="6" x="797.5" y="313.6094"/><text fill="#000000" font-family="sans-serif" font-size="11" lengthAdjust="spacingAndGlyphs" textLength="175" x="809.5" y="319.8198">LocationDataPoint locDataPoint</text><rect fill="none" height="6" style="stroke: #C82930; stroke-width: 1.0;" width="6" x="797.5" y="326.4141"/><text fill="#000000" font-family="sans-serif" font-size="11" lengthAdjust="spacingAndGlyphs" textLength="114" x="809.5" y="332.6245">Trackdata trackData</text><line style="stroke: #A80036; stroke-width: 1.5;" x1="790.5" x2="1173.5" y1="339.2188" y2="339.2188"/><text fill="#000000" font-family="sans-serif" font-size="11" lengthAdjust="spacingAndGlyphs" textLength="299" x="795.5" y="353.4292">DatabaseCommManagerImplementation(int rfidData,</text><text fill="#000000" font-family="sans-serif" font-size="11" lengthAdjust="spacingAndGlyphs" textLength="179" x="827.5" y="366.2339">LocationDataPoint locDataPoint,</text><text fill="#000000" font-family="sans-serif" font-size="11" lengthAdjust="spacingAndGlyphs" textLength="118" x="827.5" y="379.0386">Trackdata trackData)</text><ellipse cx="800.5" cy="405.4375" fill="#84BE84" rx="3" ry="3" style="stroke: #038048; stroke-width: 1.0;"/><text fill="#000000" font-family="sans-serif" font-size="11" lengthAdjust="spacingAndGlyphs" textLength="141" x="809.5" y="408.6479">int passGetRfidRequest()</text><ellipse cx="800.5" cy="418.2422" fill="#84BE84" rx="3" ry="3" style="stroke: #038048; stroke-width: 1.0;"/><text fill="#000000" font-family="sans-serif" font-size="11" lengthAdjust="spacingAndGlyphs" textLength="359" x="809.5" y="421.4526">LocationDataPoint passGetLocationDataPointRequest(int offset)</text><ellipse cx="800.5" cy="431.0469" fill="#84BE84" rx="3" ry="3" style="stroke: #038048; stroke-width: 1.0;"/><text fill="#000000" font-family="sans-serif" font-size="11" lengthAdjust="spacingAndGlyphs" textLength="271" x="809.5" y="434.2573">TrackData passGetTrackDataRequest(int offset)</text><ellipse cx="800.5" cy="443.8516" fill="#84BE84" rx="3" ry="3" style="stroke: #038048; stroke-width: 1.0;"/><text fill="#000000" font-family="sans-serif" font-size="11" lengthAdjust="spacingAndGlyphs" textLength="312" x="809.5" y="447.062">void passStoreTrackDataRequest(TrackData trackData)</text><text fill="#000000" font-family="sans-serif" font-size="11" lengthAdjust="spacingAndGlyphs" textLength="0" x="813.5" y="459.8667"/><line style="stroke: #A80036; stroke-width: 1.0; stroke-dasharray: 1.0,2.0;" x1="790.5" x2="949" y1="392.0352" y2="392.0352"/><text fill="#000000" font-family="sans-serif" font-size="11" lengthAdjust="spacingAndGlyphs" textLength="66" x="949" y="395.3433">Use Case 1</text><line style="stroke: #A80036; stroke-width: 1.0; stroke-dasharray: 1.0,2.0;" x1="1015" x2="1173.5" y1="392.0352" y2="392.0352"/><text fill="#000000" font-family="sans-serif" font-size="11" lengthAdjust="spacingAndGlyphs" textLength="0" x="799.5" y="489.4761"/><line style="stroke: #A80036; stroke-width: 1.0; stroke-dasharray: 1.0,2.0;" x1="790.5" x2="949" y1="472.8633" y2="472.8633"/><text fill="#000000" font-family="sans-serif" font-size="11" lengthAdjust="spacingAndGlyphs" textLength="66" x="949" y="476.1714">Use Case 2</text><line style="stroke: #A80036; stroke-width: 1.0; stroke-dasharray: 1.0,2.0;" x1="1015" x2="1173.5" y1="472.8633" y2="472.8633"/><!--MD5=[08068c224d75f5ca94e2833221bd6445]
class DatabaseGisInterfaceImplementation--><rect fill="#FEFECE" filter="url(#f18qeb6qucfjvo)" height="120.0234" id="DatabaseGisInterfaceImplementation" style="stroke: #A80036; stroke-width: 1.5;" width="382" x="1210" y="312"/><ellipse cx="1280.25" cy="328" fill="#ADD1B2" rx="11" ry="11" style="stroke: #A80036; stroke-width: 1.0;"/><path d="M1283.2188,333.6406 Q1282.6406,333.9375 1282,334.0781 Q1281.3594,334.2344 1280.6563,334.2344 Q1278.1563,334.2344 1276.8281,332.5938 Q1275.5156,330.9375 1275.5156,327.8125 Q1275.5156,324.6875 1276.8281,323.0313 Q1278.1563,321.375 1280.6563,321.375 Q1281.3594,321.375 1282,321.5313 Q1282.6563,321.6875 1283.2188,321.9844 L1283.2188,324.7031 Q1282.5938,324.125 1282,323.8594 Q1281.4063,323.5781 1280.7813,323.5781 Q1279.4375,323.5781 1278.75,324.6563 Q1278.0625,325.7188 1278.0625,327.8125 Q1278.0625,329.9063 1278.75,330.9844 Q1279.4375,332.0469 1280.7813,332.0469 Q1281.4063,332.0469 1282,331.7813 Q1282.5938,331.5 1283.2188,330.9219 L1283.2188,333.6406 Z "/><text fill="#000000" font-family="sans-serif" font-size="12" lengthAdjust="spacingAndGlyphs" textLength="233" x="1300.75" y="332.1543">DatabaseGisInterfaceImplementation</text><line style="stroke: #A80036; stroke-width: 1.5;" x1="1211" x2="1591" y1="344" y2="344"/><line style="stroke: #A80036; stroke-width: 1.5;" x1="1211" x2="1591" y1="352" y2="352"/><ellipse cx="1221" cy="379.8047" fill="#84BE84" rx="3" ry="3" style="stroke: #038048; stroke-width: 1.0;"/><text fill="#000000" font-family="sans-serif" font-size="11" lengthAdjust="spacingAndGlyphs" textLength="356" x="1230" y="383.0151">void recieveStoreRequest(LocationDataPoint locationDataPoint)</text><line style="stroke: #A80036; stroke-width: 1.0; stroke-dasharray: 1.0,2.0;" x1="1211" x2="1368" y1="366.4023" y2="366.4023"/><text fill="#000000" font-family="sans-serif" font-size="11" lengthAdjust="spacingAndGlyphs" textLength="66" x="1368" y="369.7104">Use Case 1</text><line style="stroke: #A80036; stroke-width: 1.0; stroke-dasharray: 1.0,2.0;" x1="1434" x2="1591" y1="366.4023" y2="366.4023"/><ellipse cx="1221" cy="409.4141" fill="#84BE84" rx="3" ry="3" style="stroke: #038048; stroke-width: 1.0;"/><text fill="#000000" font-family="sans-serif" font-size="11" lengthAdjust="spacingAndGlyphs" textLength="222" x="1230" y="412.6245">void recieveModeRequest(String mode)</text><ellipse cx="1221" cy="422.2188" fill="#84BE84" rx="3" ry="3" style="stroke: #038048; stroke-width: 1.0;"/><text fill="#000000" font-family="sans-serif" font-size="11" lengthAdjust="spacingAndGlyphs" textLength="275" x="1230" y="425.4292">String recieveNextSatRequest(String currentSat)</text><line style="stroke: #A80036; stroke-width: 1.0; stroke-dasharray: 1.0,2.0;" x1="1211" x2="1368" y1="396.0117" y2="396.0117"/><text fill="#000000" font-family="sans-serif" font-size="11" lengthAdjust="spacingAndGlyphs" textLength="66" x="1368" y="399.3198">Use Case 2</text><line style="stroke: #A80036; stroke-width: 1.0; stroke-dasharray: 1.0,2.0;" x1="1434" x2="1591" y1="396.0117" y2="396.0117"/><!--MD5=[cb27e8f56b23a96be3f83add8518c141]
class DatabaseGisManagerImplementation--><rect fill="#FEFECE" filter="url(#f18qeb6qucfjvo)" height="120.0234" id="DatabaseGisManagerImplementation" style="stroke: #A80036; stroke-width: 1.5;" width="369" x="52.5" y="645.5"/><ellipse cx="116.75" cy="661.5" fill="#ADD1B2" rx="11" ry="11" style="stroke: #A80036; stroke-width: 1.0;"/><path d="M119.7188,667.1406 Q119.1406,667.4375 118.5,667.5781 Q117.8594,667.7344 117.1563,667.7344 Q114.6563,667.7344 113.3281,666.0938 Q112.0156,664.4375 112.0156,661.3125 Q112.0156,658.1875 113.3281,656.5313 Q114.6563,654.875 117.1563,654.875 Q117.8594,654.875 118.5,655.0313 Q119.1563,655.1875 119.7188,655.4844 L119.7188,658.2031 Q119.0938,657.625 118.5,657.3594 Q117.9063,657.0781 117.2813,657.0781 Q115.9375,657.0781 115.25,658.1563 Q114.5625,659.2188 114.5625,661.3125 Q114.5625,663.4063 115.25,664.4844 Q115.9375,665.5469 117.2813,665.5469 Q117.9063,665.5469 118.5,665.2813 Q119.0938,665 119.7188,664.4219 L119.7188,667.1406 Z "/><text fill="#000000" font-family="sans-serif" font-size="12" lengthAdjust="spacingAndGlyphs" textLength="232" x="137.25" y="665.6543">DatabaseGisManagerImplementation</text><line style="stroke: #A80036; stroke-width: 1.5;" x1="53.5" x2="420.5" y1="677.5" y2="677.5"/><line style="stroke: #A80036; stroke-width: 1.5;" x1="53.5" x2="420.5" y1="685.5" y2="685.5"/><ellipse cx="63.5" cy="713.3047" fill="#84BE84" rx="3" ry="3" style="stroke: #038048; stroke-width: 1.0;"/><text fill="#000000" font-family="sans-serif" font-size="11" lengthAdjust="spacingAndGlyphs" textLength="343" x="72.5" y="716.5151">void passStoreRequest(LocationDataPoint locationDataPoint)</text><line style="stroke: #A80036; stroke-width: 1.0; stroke-dasharray: 1.0,2.0;" x1="53.5" x2="204" y1="699.9023" y2="699.9023"/><text fill="#000000" font-family="sans-serif" font-size="11" lengthAdjust="spacingAndGlyphs" textLength="66" x="204" y="703.2104">Use Case 1</text><line style="stroke: #A80036; stroke-width: 1.0; stroke-dasharray: 1.0,2.0;" x1="270" x2="420.5" y1="699.9023" y2="699.9023"/><ellipse cx="63.5" cy="742.9141" fill="#84BE84" rx="3" ry="3" style="stroke: #038048; stroke-width: 1.0;"/><text fill="#000000" font-family="sans-serif" font-size="11" lengthAdjust="spacingAndGlyphs" textLength="209" x="72.5" y="746.1245">void passModeRequest(String mode)</text><ellipse cx="63.5" cy="755.7188" fill="#84BE84" rx="3" ry="3" style="stroke: #038048; stroke-width: 1.0;"/><text fill="#000000" font-family="sans-serif" font-size="11" lengthAdjust="spacingAndGlyphs" textLength="262" x="72.5" y="758.9292">String passNextSatRequest(String currentSat)</text><line style="stroke: #A80036; stroke-width: 1.0; stroke-dasharray: 1.0,2.0;" x1="53.5" x2="204" y1="729.5117" y2="729.5117"/><text fill="#000000" font-family="sans-serif" font-size="11" lengthAdjust="spacingAndGlyphs" textLength="66" x="204" y="732.8198">Use Case 2</text><line style="stroke: #A80036; stroke-width: 1.0; stroke-dasharray: 1.0,2.0;" x1="270" x2="420.5" y1="729.5117" y2="729.5117"/><!--MD5=[6c3ae89235db7efba3a5d8ea9fd47e2d]
class DatabasePersistentStorageImplementation--><rect fill="#FEFECE" filter="url(#f18qeb6qucfjvo)" height="299.2891" id="DatabasePersistentStorageImplementation" style="stroke: #A80036; stroke-width: 1.5;" width="395" x="456.5" y="556"/><ellipse cx="513.75" cy="572" fill="#ADD1B2" rx="11" ry="11" style="stroke: #A80036; stroke-width: 1.0;"/><path d="M516.7188,577.6406 Q516.1406,577.9375 515.5,578.0781 Q514.8594,578.2344 514.1563,578.2344 Q511.6563,578.2344 510.3281,576.5938 Q509.0156,574.9375 509.0156,571.8125 Q509.0156,568.6875 510.3281,567.0313 Q511.6563,565.375 514.1563,565.375 Q514.8594,565.375 515.5,565.5313 Q516.1563,565.6875 516.7188,565.9844 L516.7188,568.7031 Q516.0938,568.125 515.5,567.8594 Q514.9063,567.5781 514.2813,567.5781 Q512.9375,567.5781 512.25,568.6563 Q511.5625,569.7188 511.5625,571.8125 Q511.5625,573.9063 512.25,574.9844 Q512.9375,576.0469 514.2813,576.0469 Q514.9063,576.0469 515.5,575.7813 Q516.0938,575.5 516.7188,574.9219 L516.7188,577.6406 Z "/><text fill="#000000" font-family="sans-serif" font-size="12" lengthAdjust="spacingAndGlyphs" textLength="272" x="534.25" y="576.1543">DatabasePersistentStorageImplementation</text><line style="stroke: #A80036; stroke-width: 1.5;" x1="457.5" x2="850.5" y1="588" y2="588"/><rect fill="none" height="6" style="stroke: #C82930; stroke-width: 1.0;" width="6" x="464.5" y="596"/><text fill="#000000" font-family="sans-serif" font-size="11" lengthAdjust="spacingAndGlyphs" textLength="63" x="476.5" y="602.2104">int rfidData</text><rect fill="none" height="6" style="stroke: #C82930; stroke-width: 1.0;" width="6" x="464.5" y="608.8047"/><text fill="#000000" font-family="sans-serif" font-size="11" lengthAdjust="spacingAndGlyphs" textLength="243" x="476.5" y="615.0151">ArrayList&lt;LocationDataPoint&gt; locDataPoint</text><rect fill="none" height="6" style="stroke: #C82930; stroke-width: 1.0;" width="6" x="464.5" y="621.6094"/><text fill="#000000" font-family="sans-serif" font-size="11" lengthAdjust="spacingAndGlyphs" textLength="183" x="476.5" y="627.8198">ArrayList&lt;TrackData&gt; trackData</text><rect fill="none" height="6" style="stroke: #C82930; stroke-width: 1.0;" width="6" x="464.5" y="634.4141"/><text fill="#000000" font-family="sans-serif" font-size="11" lengthAdjust="spacingAndGlyphs" textLength="123" x="476.5" y="640.6245">String[] nextSatellites</text><rect fill="none" height="6" style="stroke: #C82930; stroke-width: 1.0;" width="6" x="464.5" y="647.2188"/><text fill="#000000" font-family="sans-serif" font-size="11" lengthAdjust="spacingAndGlyphs" textLength="70" x="476.5" y="653.4292">String mode</text><line style="stroke: #A80036; stroke-width: 1.5;" x1="457.5" x2="850.5" y1="660.0234" y2="660.0234"/><ellipse cx="467.5" cy="671.0234" fill="#84BE84" rx="3" ry="3" style="stroke: #038048; stroke-width: 1.0;"/><text fill="#000000" font-family="sans-serif" font-size="11" lengthAdjust="spacingAndGlyphs" textLength="228" x="476.5" y="674.2339">DatabasePersistentStorage(int rfidData,</text><text fill="#000000" font-family="sans-serif" font-size="11" lengthAdjust="spacingAndGlyphs" textLength="247" x="508.5" y="687.0386">ArrayList&lt;LocationDataPoint&gt; locDataPoint,</text><text fill="#000000" font-family="sans-serif" font-size="11" lengthAdjust="spacingAndGlyphs" textLength="187" x="508.5" y="699.8433">ArrayList&lt;TrackData&gt; trackData,</text><text fill="#000000" font-family="sans-serif" font-size="11" lengthAdjust="spacingAndGlyphs" textLength="127" x="508.5" y="712.6479">String[] nextSatellites)</text><ellipse cx="467.5" cy="739.0469" fill="#84BE84" rx="3" ry="3" style="stroke: #038048; stroke-width: 1.0;"/><text fill="#000000" font-family="sans-serif" font-size="11" lengthAdjust="spacingAndGlyphs" textLength="107" x="476.5" y="742.2573">int locateRfidData()</text><ellipse cx="467.5" cy="751.8516" fill="#84BE84" rx="3" ry="3" style="stroke: #038048; stroke-width: 1.0;"/><text fill="#000000" font-family="sans-serif" font-size="11" lengthAdjust="spacingAndGlyphs" textLength="283" x="476.5" y="755.062">LocationDataPoint getLocationDataPoint(int offset)</text><ellipse cx="467.5" cy="764.6563" fill="#84BE84" rx="3" ry="3" style="stroke: #038048; stroke-width: 1.0;"/><text fill="#000000" font-family="sans-serif" font-size="11" lengthAdjust="spacingAndGlyphs" textLength="369" x="476.5" y="767.8667">void storeLocationDataPoint(LocationDataPoint locationDataPoint)</text><ellipse cx="467.5" cy="777.4609" fill="#84BE84" rx="3" ry="3" style="stroke: #038048; stroke-width: 1.0;"/><text fill="#000000" font-family="sans-serif" font-size="11" lengthAdjust="spacingAndGlyphs" textLength="195" x="476.5" y="780.6714">TrackData getTrackData(int offset)</text><ellipse cx="467.5" cy="790.2656" fill="#84BE84" rx="3" ry="3" style="stroke: #038048; stroke-width: 1.0;"/><text fill="#000000" font-family="sans-serif" font-size="11" lengthAdjust="spacingAndGlyphs" textLength="237" x="476.5" y="793.4761">void storeTrackData(TrackData trackData)</text><ellipse cx="467.5" cy="803.0703" fill="#84BE84" rx="3" ry="3" style="stroke: #038048; stroke-width: 1.0;"/><text fill="#000000" font-family="sans-serif" font-size="11" lengthAdjust="spacingAndGlyphs" textLength="94" x="476.5" y="806.2808">String getMode()</text><line style="stroke: #A80036; stroke-width: 1.0; stroke-dasharray: 1.0,2.0;" x1="457.5" x2="621" y1="725.6445" y2="725.6445"/><text fill="#000000" font-family="sans-serif" font-size="11" lengthAdjust="spacingAndGlyphs" textLength="66" x="621" y="728.9526">Use Case 1</text><line style="stroke: #A80036; stroke-width: 1.0; stroke-dasharray: 1.0,2.0;" x1="687" x2="850.5" y1="725.6445" y2="725.6445"/><ellipse cx="467.5" cy="832.6797" fill="#84BE84" rx="3" ry="3" style="stroke: #038048; stroke-width: 1.0;"/><text fill="#000000" font-family="sans-serif" font-size="11" lengthAdjust="spacingAndGlyphs" textLength="165" x="476.5" y="835.8901">void storeMode(String mode)</text><ellipse cx="467.5" cy="845.4844" fill="#84BE84" rx="3" ry="3" style="stroke: #038048; stroke-width: 1.0;"/><text fill="#000000" font-family="sans-serif" font-size="11" lengthAdjust="spacingAndGlyphs" textLength="206" x="476.5" y="848.6948">String getNextSat(String currentSat)</text><line style="stroke: #A80036; stroke-width: 1.0; stroke-dasharray: 1.0,2.0;" x1="457.5" x2="621" y1="819.2773" y2="819.2773"/><text fill="#000000" font-family="sans-serif" font-size="11" lengthAdjust="spacingAndGlyphs" textLength="66" x="621" y="822.5854">Use Case 2</text><line style="stroke: #A80036; stroke-width: 1.0; stroke-dasharray: 1.0,2.0;" x1="687" x2="850.5" y1="819.2773" y2="819.2773"/><!--MD5=[f1f42aa3e5ee92d91a95f483cb27fd1b]
link DatabaseCommInterface to DatabaseCommManager--><!--MD5=[2ab5f857a335fe71cca2f65391443969]
link DatabaseCommManager to DatabaseGisInterface--><!--MD5=[57d2095737951b693a3c5eb0c4dcc61f]
link DatabaseGisInterface to DatabaseGisManager--><!--MD5=[8a3ac12fc3568691a4d369b4583e3e8c]
link DatabaseCommInterface to DatabasePersistentStorage--><!--MD5=[f2b6f62c1ac53fc9c635ffbb0a59d528]
link DatabasePersistentStorage to DatabaseCommInterfaceImplementation--><!--MD5=[3760425120cae1e7aba6568029ff5c72]
link DatabaseCommInterfaceImplementation to DatabaseCommManagerImplementation--><!--MD5=[f3ea6f9257e20c64f5c945a18b1b07f5]
link DatabaseCommManagerImplementation to DatabaseGisInterfaceImplementation--><!--MD5=[3eb7051df619a832f92e7e374c3d68dc]
link DatabasePersistentStorage to DatabaseGisManagerImplementation--><!--MD5=[052d4f5c8e3e20f54aa5395be353d385]
link DatabaseGisManagerImplementation to DatabasePersistentStorageImplementation--><!--MD5=[cf481b408afb900036e95e53d434571a]
@startuml DatabaseProductionPackage

package edu.oakland.production.database {

}


package edu.oakland.production.database {
    interface DatabaseCommInterface {
        __
        .. Use Case 1 ..
        {abstract} + int receiveGetRfidRequest()
        {abstract} + LocationDataPoint receiveGetLocationDataPointRequest(int offset)
        {abstract} + TrackData receiveGetTrackDataRequest(int offset)
        {abstract} + void storeTrackDataRequest(TrackData trackData)
        {abstract} + String receiveGetModeRequest()
    }
}


package edu.oakland.production.database {
    interface DatabaseCommManager {
        __
        .. Use Case 1 ..
        {abstract} + int passGetRfidRequest()
        {abstract} + LocationDataPoint passGetLocationDataPointRequest(int offset)
        {abstract} + TrackData passGetTrackDataRequest(int offset)
        {abstract} + void passStoreTrackDataRequest(TrackData trackData)
        {abstract} + String passGetModeRequest()
    }
}


package edu.oakland.production.database {
    interface DatabaseGisInterface {
        __
        .. Use Case 1 ..
        {abstract} + void recieveStoreRequest(LocationDataPoint locationDataPoint)
        .. Use Case 2 ..
        {abstract} + String recieveModeRequest(String mode)
        {abstract} + String recieveNextSatRequest(String currentSat)
    }
}


package edu.oakland.production.database {
    interface DatabaseGisManager {
        __
        .. Use Case 1 ..
        {abstract} + void passStoreRequest(LocationDataPoint locationDataPoint)
        .. Use Case 2 ..
        {abstract} + void passModeRequest(String mode)
        {abstract} + String passNextSatRequest(String currentSat)
    }
}


package edu.oakland.production.database {
    interface DatabasePersistentStorage {
        __
        .. Use Case 1 ..
        {abstract} + int locateRfidData()
        {abstract} + LocationDataPoint getLocationDataPoint(int offset)
        {abstract} + void storeLocationDataPoint(LocationDataPoint locationDataPoint)
        {abstract} + TrackData getTrackData(int offset)
        {abstract} + void storeTrackData(TrackData trackData)
        {abstract} + String getMode()
        .. Use Case 2 ..
        {abstract} + void storeMode(String mode)
        {abstract} + String getNextSat(String currentSat)
    }
}


package edu.oakland.production.database {
    class DatabaseCommInterfaceImplementation {
        __
        .. Use Case 1 ..

        .. Use Case 2 ..

    }
}


package edu.oakland.production.database {
    class DatabaseCommManagerImplementation {
        - DatabasePersistentStorage databasePersistentStorage
        - int rfidData
        - LocationDataPoint locDataPoint
        - Trackdata trackData
        __
        DatabaseCommManagerImplementation(int rfidData,
         \tLocationDataPoint locDataPoint,
         \tTrackdata trackData)
        .. Use Case 1 ..
        + int passGetRfidRequest()
        + LocationDataPoint passGetLocationDataPointRequest(int offset)
        + TrackData passGetTrackDataRequest(int offset)
        + void passStoreTrackDataRequest(TrackData trackData)

        .. Use Case 2 ..

    }
}


package edu.oakland.production.database {
    class DatabaseGisInterfaceImplementation {
        __
        .. Use Case 1 ..
        + void recieveStoreRequest(LocationDataPoint locationDataPoint)
        .. Use Case 2 ..
        + void recieveModeRequest(String mode)
        + String recieveNextSatRequest(String currentSat)
    }
}


package edu.oakland.production.database {
    class DatabaseGisManagerImplementation {
        __
        .. Use Case 1 ..
        + void passStoreRequest(LocationDataPoint locationDataPoint)
        .. Use Case 2 ..
        + void passModeRequest(String mode)
        + String passNextSatRequest(String currentSat)
    }
}


package edu.oakland.production.database {
    class DatabasePersistentStorageImplementation {
        - int rfidData
        - ArrayList<LocationDataPoint> locDataPoint
        - ArrayList<TrackData> trackData
        - String[] nextSatellites
        - String mode
        __
        + DatabasePersistentStorage(int rfidData, 
        \tArrayList<LocationDataPoint> locDataPoint, 
        \tArrayList<TrackData> trackData, 
        \tString[] nextSatellites)
        .. Use Case 1 ..
        + int locateRfidData()
        + LocationDataPoint getLocationDataPoint(int offset)
        + void storeLocationDataPoint(LocationDataPoint locationDataPoint)
        + TrackData getTrackData(int offset)
        + void storeTrackData(TrackData trackData)
        + String getMode()
        .. Use Case 2 ..
        + void storeMode(String mode)
        + String getNextSat(String currentSat)
    }
}


@enduml

PlantUML version 1.2020.02(Sun Mar 01 10:22:07 GMT 2020)
(GPL source distribution)
Java Runtime: OpenJDK Runtime Environment
JVM: OpenJDK 64-Bit Server VM
Java Version: 11.0.9+11-Ubuntu-0ubuntu1
Operating System: Linux
Default Encoding: ANSI_X3.4-1968
Language: en
Country: US
--></g></svg>