<?xml version="1.0" encoding="UTF-8" standalone="no"?><svg xmlns="http://www.w3.org/2000/svg" xmlns:xlink="http://www.w3.org/1999/xlink" contentScriptType="application/ecmascript" contentStyleType="text/css" height="451px" preserveAspectRatio="none" style="width:1280px;height:451px;" version="1.1" viewBox="0 0 1280 451" width="1280px" zoomAndPan="magnify"><defs><filter height="300%" id="f1e3r108631scm" width="300%" x="-1" y="-1"><feGaussianBlur result="blurOut" stdDeviation="2.0"/><feColorMatrix in="blurOut" result="blurOut2" type="matrix" values="0 0 0 0 0 0 0 0 0 0 0 0 0 0 0 0 0 0 .4 0"/><feOffset dx="4.0" dy="4.0" in="blurOut2" result="blurOut3"/><feBlend in="SourceGraphic" in2="blurOut3" mode="normal"/></filter></defs><g><!--MD5=[3e281e6f49e0b185d62a106a5d994a08]
cluster edu.oakland.production.display01--><polygon fill="#FFFFFF" filter="url(#f1e3r108631scm)" points="22,24,295,24,302,46.2969,1258,46.2969,1258,439,22,439,22,24" style="stroke: #000000; stroke-width: 1.5;"/><line style="stroke: #000000; stroke-width: 1.5;" x1="22" x2="302" y1="46.2969" y2="46.2969"/><text fill="#000000" font-family="sans-serif" font-size="14" font-weight="bold" lengthAdjust="spacingAndGlyphs" textLength="267" x="26" y="38.9951">edu.oakland.production.display01</text><!--MD5=[fa6248c05b5a852ecd50b5411f159754]
class DisplayGpsInterface--><rect fill="#FEFECE" filter="url(#f1e3r108631scm)" height="132.8281" id="DisplayGpsInterface" style="stroke: #A80036; stroke-width: 1.5;" width="297" x="38.5" y="59"/><ellipse cx="120.75" cy="75" fill="#B4A7E5" rx="11" ry="11" style="stroke: #A80036; stroke-width: 1.0;"/><path d="M116.6719,70.7656 L116.6719,68.6094 L124.0625,68.6094 L124.0625,70.7656 L121.5938,70.7656 L121.5938,78.8438 L124.0625,78.8438 L124.0625,81 L116.6719,81 L116.6719,78.8438 L119.1406,78.8438 L119.1406,70.7656 L116.6719,70.7656 Z "/><text fill="#000000" font-family="sans-serif" font-size="12" font-style="italic" lengthAdjust="spacingAndGlyphs" textLength="124" x="141.25" y="79.1543">DisplayGpsInterface</text><line style="stroke: #A80036; stroke-width: 1.5;" x1="39.5" x2="334.5" y1="91" y2="91"/><line style="stroke: #A80036; stroke-width: 1.5;" x1="39.5" x2="334.5" y1="99" y2="99"/><ellipse cx="49.5" cy="126.8047" fill="#84BE84" rx="3" ry="3" style="stroke: #038048; stroke-width: 1.0;"/><text fill="#000000" font-family="sans-serif" font-size="11" font-style="italic" lengthAdjust="spacingAndGlyphs" textLength="261" x="58.5" y="130.0151">void receiveGpsSignal(Satellite satelliteSignal)</text><line style="stroke: #A80036; stroke-width: 1.0; stroke-dasharray: 1.0,2.0;" x1="39.5" x2="154" y1="113.4023" y2="113.4023"/><text fill="#000000" font-family="sans-serif" font-size="11" lengthAdjust="spacingAndGlyphs" textLength="66" x="154" y="116.7104">Use Case 1</text><line style="stroke: #A80036; stroke-width: 1.0; stroke-dasharray: 1.0,2.0;" x1="220" x2="334.5" y1="113.4023" y2="113.4023"/><ellipse cx="49.5" cy="156.4141" fill="#84BE84" rx="3" ry="3" style="stroke: #038048; stroke-width: 1.0;"/><text fill="#000000" font-family="sans-serif" font-size="11" font-style="italic" lengthAdjust="spacingAndGlyphs" textLength="266" x="58.5" y="159.6245">void reportGpsSignalLoss(String satelliteName)</text><ellipse cx="49.5" cy="169.2188" fill="#84BE84" rx="3" ry="3" style="stroke: #038048; stroke-width: 1.0;"/><text fill="#000000" font-family="sans-serif" font-size="11" font-style="italic" lengthAdjust="spacingAndGlyphs" textLength="271" x="58.5" y="172.4292">void recheckSignalStength(String satelliteName)</text><ellipse cx="49.5" cy="182.0234" fill="#84BE84" rx="3" ry="3" style="stroke: #038048; stroke-width: 1.0;"/><text fill="#000000" font-family="sans-serif" font-size="11" font-style="italic" lengthAdjust="spacingAndGlyphs" textLength="259" x="58.5" y="185.2339">void checkSignalStength(String satelliteName)</text><line style="stroke: #A80036; stroke-width: 1.0; stroke-dasharray: 1.0,2.0;" x1="39.5" x2="154" y1="143.0117" y2="143.0117"/><text fill="#000000" font-family="sans-serif" font-size="11" lengthAdjust="spacingAndGlyphs" textLength="66" x="154" y="146.3198">Use Case 2</text><line style="stroke: #A80036; stroke-width: 1.0; stroke-dasharray: 1.0,2.0;" x1="220" x2="334.5" y1="143.0117" y2="143.0117"/><!--MD5=[31cbac78761b59e73153a97a452ed09a]
class DisplayGpsManager--><rect fill="#FEFECE" filter="url(#f1e3r108631scm)" height="107.2188" id="DisplayGpsManager" style="stroke: #A80036; stroke-width: 1.5;" width="441" x="370.5" y="72"/><ellipse cx="525.75" cy="88" fill="#B4A7E5" rx="11" ry="11" style="stroke: #A80036; stroke-width: 1.0;"/><path d="M521.6719,83.7656 L521.6719,81.6094 L529.0625,81.6094 L529.0625,83.7656 L526.5938,83.7656 L526.5938,91.8438 L529.0625,91.8438 L529.0625,94 L521.6719,94 L521.6719,91.8438 L524.1406,91.8438 L524.1406,83.7656 L521.6719,83.7656 Z "/><text fill="#000000" font-family="sans-serif" font-size="12" font-style="italic" lengthAdjust="spacingAndGlyphs" textLength="122" x="546.25" y="92.1543">DisplayGpsManager</text><line style="stroke: #A80036; stroke-width: 1.5;" x1="371.5" x2="810.5" y1="104" y2="104"/><line style="stroke: #A80036; stroke-width: 1.5;" x1="371.5" x2="810.5" y1="112" y2="112"/><ellipse cx="381.5" cy="139.8047" fill="#84BE84" rx="3" ry="3" style="stroke: #038048; stroke-width: 1.0;"/><text fill="#000000" font-family="sans-serif" font-size="11" font-style="italic" lengthAdjust="spacingAndGlyphs" textLength="318" x="390.5" y="143.0151">String receiveGpsSignalStrength(Satellite satelliteSignal)</text><line style="stroke: #A80036; stroke-width: 1.0; stroke-dasharray: 1.0,2.0;" x1="371.5" x2="558" y1="126.4023" y2="126.4023"/><text fill="#000000" font-family="sans-serif" font-size="11" lengthAdjust="spacingAndGlyphs" textLength="66" x="558" y="129.7104">Use Case 1</text><line style="stroke: #A80036; stroke-width: 1.0; stroke-dasharray: 1.0,2.0;" x1="624" x2="810.5" y1="126.4023" y2="126.4023"/><ellipse cx="381.5" cy="169.4141" fill="#84BE84" rx="3" ry="3" style="stroke: #038048; stroke-width: 1.0;"/><text fill="#000000" font-family="sans-serif" font-size="11" font-style="italic" lengthAdjust="spacingAndGlyphs" textLength="415" x="390.5" y="172.6245">SatelliteSignalCheckRequest passGpsSignalStrength(String satelliteName)</text><line style="stroke: #A80036; stroke-width: 1.0; stroke-dasharray: 1.0,2.0;" x1="371.5" x2="558" y1="156.0117" y2="156.0117"/><text fill="#000000" font-family="sans-serif" font-size="11" lengthAdjust="spacingAndGlyphs" textLength="66" x="558" y="159.3198">Use Case 2</text><line style="stroke: #A80036; stroke-width: 1.0; stroke-dasharray: 1.0,2.0;" x1="624" x2="810.5" y1="156.0117" y2="156.0117"/><!--MD5=[319273309e4c56bac150542a32321bb2]
class DisplayGpsReceiver--><rect fill="#FEFECE" filter="url(#f1e3r108631scm)" height="107.2188" id="DisplayGpsReceiver" style="stroke: #A80036; stroke-width: 1.5;" width="395" x="846.5" y="72"/><ellipse cx="979.75" cy="88" fill="#B4A7E5" rx="11" ry="11" style="stroke: #A80036; stroke-width: 1.0;"/><path d="M975.6719,83.7656 L975.6719,81.6094 L983.0625,81.6094 L983.0625,83.7656 L980.5938,83.7656 L980.5938,91.8438 L983.0625,91.8438 L983.0625,94 L975.6719,94 L975.6719,91.8438 L978.1406,91.8438 L978.1406,83.7656 L975.6719,83.7656 Z "/><text fill="#000000" font-family="sans-serif" font-size="12" font-style="italic" lengthAdjust="spacingAndGlyphs" textLength="120" x="1000.25" y="92.1543">DisplayGpsReceiver</text><line style="stroke: #A80036; stroke-width: 1.5;" x1="847.5" x2="1240.5" y1="104" y2="104"/><line style="stroke: #A80036; stroke-width: 1.5;" x1="847.5" x2="1240.5" y1="112" y2="112"/><ellipse cx="857.5" cy="139.8047" fill="#84BE84" rx="3" ry="3" style="stroke: #038048; stroke-width: 1.0;"/><text fill="#000000" font-family="sans-serif" font-size="11" font-style="italic" lengthAdjust="spacingAndGlyphs" textLength="326" x="866.5" y="143.0151">String measureGpsSignalStrength(Satellite satelliteSignal)</text><line style="stroke: #A80036; stroke-width: 1.0; stroke-dasharray: 1.0,2.0;" x1="847.5" x2="1011" y1="126.4023" y2="126.4023"/><text fill="#000000" font-family="sans-serif" font-size="11" lengthAdjust="spacingAndGlyphs" textLength="66" x="1011" y="129.7104">Use Case 1</text><line style="stroke: #A80036; stroke-width: 1.0; stroke-dasharray: 1.0,2.0;" x1="1077" x2="1240.5" y1="126.4023" y2="126.4023"/><ellipse cx="857.5" cy="169.4141" fill="#84BE84" rx="3" ry="3" style="stroke: #038048; stroke-width: 1.0;"/><text fill="#000000" font-family="sans-serif" font-size="11" font-style="italic" lengthAdjust="spacingAndGlyphs" textLength="369" x="866.5" y="172.6245">SatelliteSignalCheckRequest measureSignal(String satelliteName)</text><line style="stroke: #A80036; stroke-width: 1.0; stroke-dasharray: 1.0,2.0;" x1="847.5" x2="1011" y1="156.0117" y2="156.0117"/><text fill="#000000" font-family="sans-serif" font-size="11" lengthAdjust="spacingAndGlyphs" textLength="66" x="1011" y="159.3198">Use Case 2</text><line style="stroke: #A80036; stroke-width: 1.0; stroke-dasharray: 1.0,2.0;" x1="1077" x2="1240.5" y1="156.0117" y2="156.0117"/><!--MD5=[6376794c08ca75f6fa530286e1e32b13]
class DisplayGpsInterfaceImplementation--><rect fill="#FEFECE" filter="url(#f1e3r108631scm)" height="171.2422" id="DisplayGpsInterfaceImplementation" style="stroke: #A80036; stroke-width: 1.5;" width="398" x="38" y="252"/><ellipse cx="122.25" cy="268" fill="#ADD1B2" rx="11" ry="11" style="stroke: #A80036; stroke-width: 1.0;"/><path d="M125.2188,273.6406 Q124.6406,273.9375 124,274.0781 Q123.3594,274.2344 122.6563,274.2344 Q120.1563,274.2344 118.8281,272.5938 Q117.5156,270.9375 117.5156,267.8125 Q117.5156,264.6875 118.8281,263.0313 Q120.1563,261.375 122.6563,261.375 Q123.3594,261.375 124,261.5313 Q124.6563,261.6875 125.2188,261.9844 L125.2188,264.7031 Q124.5938,264.125 124,263.8594 Q123.4063,263.5781 122.7813,263.5781 Q121.4375,263.5781 120.75,264.6563 Q120.0625,265.7188 120.0625,267.8125 Q120.0625,269.9063 120.75,270.9844 Q121.4375,272.0469 122.7813,272.0469 Q123.4063,272.0469 124,271.7813 Q124.5938,271.5 125.2188,270.9219 L125.2188,273.6406 Z "/><text fill="#000000" font-family="sans-serif" font-size="12" lengthAdjust="spacingAndGlyphs" textLength="221" x="142.75" y="272.1543">DisplayGpsInterfaceImplementation</text><line style="stroke: #A80036; stroke-width: 1.5;" x1="39" x2="435" y1="284" y2="284"/><rect fill="none" height="6" style="stroke: #C82930; stroke-width: 1.0;" width="6" x="46" y="292"/><text fill="#000000" font-family="sans-serif" font-size="11" lengthAdjust="spacingAndGlyphs" textLength="162" x="58" y="298.2104">DisplayGpsReciever reciever</text><line style="stroke: #A80036; stroke-width: 1.5;" x1="39" x2="435" y1="304.8047" y2="304.8047"/><ellipse cx="49" cy="315.8047" fill="#84BE84" rx="3" ry="3" style="stroke: #038048; stroke-width: 1.0;"/><text fill="#000000" font-family="sans-serif" font-size="11" lengthAdjust="spacingAndGlyphs" textLength="372" x="58" y="319.0151">DisplayGpsInterfaceImplementation(DisplayGpsReciever reciever)</text><ellipse cx="49" cy="345.4141" fill="#84BE84" rx="3" ry="3" style="stroke: #038048; stroke-width: 1.0;"/><text fill="#000000" font-family="sans-serif" font-size="11" lengthAdjust="spacingAndGlyphs" textLength="264" x="58" y="348.6245">void receiveGpsSignal(Satellite satelliteSignal)</text><line style="stroke: #A80036; stroke-width: 1.0; stroke-dasharray: 1.0,2.0;" x1="39" x2="204" y1="332.0117" y2="332.0117"/><text fill="#000000" font-family="sans-serif" font-size="11" lengthAdjust="spacingAndGlyphs" textLength="66" x="204" y="335.3198">Use Case 1</text><line style="stroke: #A80036; stroke-width: 1.0; stroke-dasharray: 1.0,2.0;" x1="270" x2="435" y1="332.0117" y2="332.0117"/><ellipse cx="49" cy="375.0234" fill="#84BE84" rx="3" ry="3" style="stroke: #038048; stroke-width: 1.0;"/><text fill="#000000" font-family="sans-serif" font-size="11" lengthAdjust="spacingAndGlyphs" textLength="271" x="58" y="378.2339">void reportGpsSignalLoss(String satelliteName)</text><ellipse cx="49" cy="387.8281" fill="#84BE84" rx="3" ry="3" style="stroke: #038048; stroke-width: 1.0;"/><text fill="#000000" font-family="sans-serif" font-size="11" lengthAdjust="spacingAndGlyphs" textLength="274" x="58" y="391.0386">void recheckSignalStength(String satelliteName)</text><ellipse cx="49" cy="400.6328" fill="#84BE84" rx="3" ry="3" style="stroke: #038048; stroke-width: 1.0;"/><text fill="#000000" font-family="sans-serif" font-size="11" lengthAdjust="spacingAndGlyphs" textLength="262" x="58" y="403.8433">void checkSignalStength(String satelliteName)</text><rect fill="#F24D5C" height="6" style="stroke: #C82930; stroke-width: 1.0;" width="6" x="46" y="410.4375"/><text fill="#000000" font-family="sans-serif" font-size="11" lengthAdjust="spacingAndGlyphs" textLength="261" x="58" y="416.6479">int reportSignalStrength(String satelliteName)</text><line style="stroke: #A80036; stroke-width: 1.0; stroke-dasharray: 1.0,2.0;" x1="39" x2="204" y1="361.6211" y2="361.6211"/><text fill="#000000" font-family="sans-serif" font-size="11" lengthAdjust="spacingAndGlyphs" textLength="66" x="204" y="364.9292">Use Case 2</text><line style="stroke: #A80036; stroke-width: 1.0; stroke-dasharray: 1.0,2.0;" x1="270" x2="435" y1="361.6211" y2="361.6211"/><!--MD5=[85db0a5b69c4b55d7b0101612d8a7890]
class DisplayGpsManagerImplementation--><rect fill="#FEFECE" filter="url(#f1e3r108631scm)" height="107.2188" id="DisplayGpsManagerImplementation" style="stroke: #A80036; stroke-width: 1.5;" width="252" x="471" y="284"/><ellipse cx="486" cy="300" fill="#ADD1B2" rx="11" ry="11" style="stroke: #A80036; stroke-width: 1.0;"/><path d="M488.9688,305.6406 Q488.3906,305.9375 487.75,306.0781 Q487.1094,306.2344 486.4063,306.2344 Q483.9063,306.2344 482.5781,304.5938 Q481.2656,302.9375 481.2656,299.8125 Q481.2656,296.6875 482.5781,295.0313 Q483.9063,293.375 486.4063,293.375 Q487.1094,293.375 487.75,293.5313 Q488.4063,293.6875 488.9688,293.9844 L488.9688,296.7031 Q488.3438,296.125 487.75,295.8594 Q487.1563,295.5781 486.5313,295.5781 Q485.1875,295.5781 484.5,296.6563 Q483.8125,297.7188 483.8125,299.8125 Q483.8125,301.9063 484.5,302.9844 Q485.1875,304.0469 486.5313,304.0469 Q487.1563,304.0469 487.75,303.7813 Q488.3438,303.5 488.9688,302.9219 L488.9688,305.6406 Z "/><text fill="#000000" font-family="sans-serif" font-size="12" lengthAdjust="spacingAndGlyphs" textLength="220" x="500" y="304.1543">DisplayGpsManagerImplementation</text><line style="stroke: #A80036; stroke-width: 1.5;" x1="472" x2="722" y1="316" y2="316"/><line style="stroke: #A80036; stroke-width: 1.5;" x1="472" x2="722" y1="324" y2="324"/><text fill="#000000" font-family="sans-serif" font-size="11" lengthAdjust="spacingAndGlyphs" textLength="0" x="481" y="355.0151"/><line style="stroke: #A80036; stroke-width: 1.0; stroke-dasharray: 1.0,2.0;" x1="472" x2="564" y1="338.4023" y2="338.4023"/><text fill="#000000" font-family="sans-serif" font-size="11" lengthAdjust="spacingAndGlyphs" textLength="66" x="564" y="341.7104">Use Case 1</text><line style="stroke: #A80036; stroke-width: 1.0; stroke-dasharray: 1.0,2.0;" x1="630" x2="722" y1="338.4023" y2="338.4023"/><text fill="#000000" font-family="sans-serif" font-size="11" lengthAdjust="spacingAndGlyphs" textLength="0" x="481" y="384.6245"/><line style="stroke: #A80036; stroke-width: 1.0; stroke-dasharray: 1.0,2.0;" x1="472" x2="564" y1="368.0117" y2="368.0117"/><text fill="#000000" font-family="sans-serif" font-size="11" lengthAdjust="spacingAndGlyphs" textLength="66" x="564" y="371.3198">Use Case 2</text><line style="stroke: #A80036; stroke-width: 1.0; stroke-dasharray: 1.0,2.0;" x1="630" x2="722" y1="368.0117" y2="368.0117"/><!--MD5=[02b25ee3f711f666678619f4b81f3681]
class DisplayGpsReceiverImplementation--><rect fill="#FEFECE" filter="url(#f1e3r108631scm)" height="132.8281" id="DisplayGpsReceiverImplementation" style="stroke: #A80036; stroke-width: 1.5;" width="401" x="841.5" y="271"/><ellipse cx="928.75" cy="287" fill="#ADD1B2" rx="11" ry="11" style="stroke: #A80036; stroke-width: 1.0;"/><path d="M931.7188,292.6406 Q931.1406,292.9375 930.5,293.0781 Q929.8594,293.2344 929.1563,293.2344 Q926.6563,293.2344 925.3281,291.5938 Q924.0156,289.9375 924.0156,286.8125 Q924.0156,283.6875 925.3281,282.0313 Q926.6563,280.375 929.1563,280.375 Q929.8594,280.375 930.5,280.5313 Q931.1563,280.6875 931.7188,280.9844 L931.7188,283.7031 Q931.0938,283.125 930.5,282.8594 Q929.9063,282.5781 929.2813,282.5781 Q927.9375,282.5781 927.25,283.6563 Q926.5625,284.7188 926.5625,286.8125 Q926.5625,288.9063 927.25,289.9844 Q927.9375,291.0469 929.2813,291.0469 Q929.9063,291.0469 930.5,290.7813 Q931.0938,290.5 931.7188,289.9219 L931.7188,292.6406 Z "/><text fill="#000000" font-family="sans-serif" font-size="12" lengthAdjust="spacingAndGlyphs" textLength="218" x="949.25" y="291.1543">DisplayGpsReceiverImplementation</text><line style="stroke: #A80036; stroke-width: 1.5;" x1="842.5" x2="1241.5" y1="303" y2="303"/><line style="stroke: #A80036; stroke-width: 1.5;" x1="842.5" x2="1241.5" y1="311" y2="311"/><ellipse cx="852.5" cy="338.8047" fill="#84BE84" rx="3" ry="3" style="stroke: #038048; stroke-width: 1.0;"/><text fill="#000000" font-family="sans-serif" font-size="11" lengthAdjust="spacingAndGlyphs" textLength="334" x="861.5" y="342.0151">String measureGpsSignalStrength(Satellite satelliteSignal)</text><rect fill="#F24D5C" height="6" style="stroke: #C82930; stroke-width: 1.0;" width="6" x="849.5" y="348.6094"/><text fill="#000000" font-family="sans-serif" font-size="11" lengthAdjust="spacingAndGlyphs" textLength="248" x="861.5" y="354.8198">void passSignalStrength(int signalStrength)</text><line style="stroke: #A80036; stroke-width: 1.0; stroke-dasharray: 1.0,2.0;" x1="842.5" x2="1009" y1="325.4023" y2="325.4023"/><text fill="#000000" font-family="sans-serif" font-size="11" lengthAdjust="spacingAndGlyphs" textLength="66" x="1009" y="328.7104">Use Case 1</text><line style="stroke: #A80036; stroke-width: 1.0; stroke-dasharray: 1.0,2.0;" x1="1075" x2="1241.5" y1="325.4023" y2="325.4023"/><ellipse cx="852.5" cy="381.2188" fill="#84BE84" rx="3" ry="3" style="stroke: #038048; stroke-width: 1.0;"/><text fill="#000000" font-family="sans-serif" font-size="11" lengthAdjust="spacingAndGlyphs" textLength="334" x="861.5" y="384.4292">String measureGpsSignalStrength(Satellite satelliteSignal)</text><ellipse cx="852.5" cy="394.0234" fill="#84BE84" rx="3" ry="3" style="stroke: #038048; stroke-width: 1.0;"/><text fill="#000000" font-family="sans-serif" font-size="11" lengthAdjust="spacingAndGlyphs" textLength="375" x="861.5" y="397.2339">SatelliteSignalCheckRequest measureSignal(String satelliteName)</text><line style="stroke: #A80036; stroke-width: 1.0; stroke-dasharray: 1.0,2.0;" x1="842.5" x2="1009" y1="367.8164" y2="367.8164"/><text fill="#000000" font-family="sans-serif" font-size="11" lengthAdjust="spacingAndGlyphs" textLength="66" x="1009" y="371.1245">Use Case 2</text><line style="stroke: #A80036; stroke-width: 1.0; stroke-dasharray: 1.0,2.0;" x1="1075" x2="1241.5" y1="367.8164" y2="367.8164"/><!--MD5=[5e11d977f08105e989255e48b5831e9e]
reverse link DisplayGpsInterface to DisplayGpsInterfaceImplementation--><path d="M207.28,211.68 C210.43,224.89 213.68,238.54 216.82,251.74 " fill="none" id="DisplayGpsInterface&lt;-DisplayGpsInterfaceImplementation" style="stroke: #A80036; stroke-width: 1.0; stroke-dasharray: 7.0,7.0;"/><polygon fill="none" points="200.44,213.16,202.61,192.08,214.06,209.92,200.44,213.16" style="stroke: #A80036; stroke-width: 1.0;"/><!--MD5=[6be1e14f889006c5f08853113ab490e0]
reverse link DisplayGpsManager to DisplayGpsManagerImplementation--><path d="M593.08,199.21 C593.87,227.02 594.76,258.17 595.49,283.76 " fill="none" id="DisplayGpsManager&lt;-DisplayGpsManagerImplementation" style="stroke: #A80036; stroke-width: 1.0; stroke-dasharray: 7.0,7.0;"/><polygon fill="none" points="586.08,199.41,592.51,179.22,600.07,199.01,586.08,199.41" style="stroke: #A80036; stroke-width: 1.0;"/><!--MD5=[8f7561e34aa0d27a53c807a3ed854e00]
reverse link DisplayGpsReceiver to DisplayGpsReceiverImplementation--><path d="M1043.31,199.37 C1043.08,222.64 1042.84,248.25 1042.62,270.97 " fill="none" id="DisplayGpsReceiver&lt;-DisplayGpsReceiverImplementation" style="stroke: #A80036; stroke-width: 1.0; stroke-dasharray: 7.0,7.0;"/><polygon fill="none" points="1036.31,199.15,1043.5,179.22,1050.31,199.29,1036.31,199.15" style="stroke: #A80036; stroke-width: 1.0;"/><!--MD5=[8bb9043b3ea26be74d05fc693c06d13c]
@startuml Display01ProductionPackage_InternalDependencies

package edu.oakland.production.display01 {
    
}


package edu.oakland.production.display01 {
    interface DisplayGpsInterface {
        __
        .. Use Case 1 ..
        {abstract} + void receiveGpsSignal(Satellite satelliteSignal)
        .. Use Case 2 ..
        {abstract} + void reportGpsSignalLoss(String satelliteName)
        {abstract} + void recheckSignalStength(String satelliteName)
        {abstract} + void checkSignalStength(String satelliteName)
    }
}


package edu.oakland.production.display01 {
    interface DisplayGpsManager {
        __
        .. Use Case 1 ..
        {abstract} + String receiveGpsSignalStrength(Satellite satelliteSignal)
        .. Use Case 2 ..
        {abstract} + SatelliteSignalCheckRequest passGpsSignalStrength(String satelliteName)
    }
}


package edu.oakland.production.display01 {
    interface DisplayGpsReceiver {
        __
        .. Use Case 1 ..
        {abstract} + String measureGpsSignalStrength(Satellite satelliteSignal)
        .. Use Case 2 ..
        {abstract} + SatelliteSignalCheckRequest measureSignal(String satelliteName)
    }
}



package edu.oakland.production.display01 {
    class DisplayGpsInterfaceImplementation {
        - DisplayGpsReciever reciever
        __
        + DisplayGpsInterfaceImplementation(DisplayGpsReciever reciever)
        .. Use Case 1 ..
        + void receiveGpsSignal(Satellite satelliteSignal)
        .. Use Case 2 ..
        + void reportGpsSignalLoss(String satelliteName)
        + void recheckSignalStength(String satelliteName)
        + void checkSignalStength(String satelliteName)
        - int reportSignalStrength(String satelliteName)
    }
}


DisplayGpsInterfaceImplementation .up.|> DisplayGpsInterface

package edu.oakland.production.display01 {
    class DisplayGpsManagerImplementation {
        __
        .. Use Case 1 ..

        .. Use Case 2 ..

    }
}


DisplayGpsManagerImplementation .up.|> DisplayGpsManager

package edu.oakland.production.display01 {
    class DisplayGpsReceiverImplementation {
        __
        .. Use Case 1 ..
        + String measureGpsSignalStrength(Satellite satelliteSignal)
        - void passSignalStrength(int signalStrength)
        .. Use Case 2 ..
        + String measureGpsSignalStrength(Satellite satelliteSignal)
        + SatelliteSignalCheckRequest measureSignal(String satelliteName)
    }
}


DisplayGpsReceiverImplementation .up.|> DisplayGpsReceiver

@enduml

PlantUML version 1.2020.02(Sun Mar 01 10:22:07 GMT 2020)
(GPL source distribution)
Java Runtime: OpenJDK Runtime Environment
JVM: OpenJDK 64-Bit Server VM
Java Version: 11.0.9+11-Ubuntu-0ubuntu1
Operating System: Linux
Default Encoding: ANSI_X3.4-1968
Language: en
Country: US
--></g></svg>