<?xml version="1.0" encoding="UTF-8" standalone="no"?><svg xmlns="http://www.w3.org/2000/svg" xmlns:xlink="http://www.w3.org/1999/xlink" contentScriptType="application/ecmascript" contentStyleType="text/css" height="451px" preserveAspectRatio="none" style="width:1526px;height:451px;" version="1.1" viewBox="0 0 1526 451" width="1526px" zoomAndPan="magnify"><defs><filter height="300%" id="f166eojeqtbug1" width="300%" x="-1" y="-1"><feGaussianBlur result="blurOut" stdDeviation="2.0"/><feColorMatrix in="blurOut" result="blurOut2" type="matrix" values="0 0 0 0 0 0 0 0 0 0 0 0 0 0 0 0 0 0 .4 0"/><feOffset dx="4.0" dy="4.0" in="blurOut2" result="blurOut3"/><feBlend in="SourceGraphic" in2="blurOut3" mode="normal"/></filter></defs><g><!--MD5=[3e281e6f49e0b185d62a106a5d994a08]
cluster edu.oakland.production.display01--><polygon fill="#FFFFFF" filter="url(#f166eojeqtbug1)" points="22,24,295,24,302,46.2969,1504,46.2969,1504,439,22,439,22,24" style="stroke: #000000; stroke-width: 1.5;"/><line style="stroke: #000000; stroke-width: 1.5;" x1="22" x2="302" y1="46.2969" y2="46.2969"/><text fill="#000000" font-family="sans-serif" font-size="14" font-weight="bold" lengthAdjust="spacingAndGlyphs" textLength="267" x="26" y="38.9951">edu.oakland.production.display01</text><!--MD5=[fa6248c05b5a852ecd50b5411f159754]
class DisplayGpsInterface--><rect fill="#FEFECE" filter="url(#f166eojeqtbug1)" height="132.8281" id="DisplayGpsInterface" style="stroke: #A80036; stroke-width: 1.5;" width="445" x="41.5" y="59"/><ellipse cx="197.75" cy="75" fill="#B4A7E5" rx="11" ry="11" style="stroke: #A80036; stroke-width: 1.0;"/><path d="M193.6719,70.7656 L193.6719,68.6094 L201.0625,68.6094 L201.0625,70.7656 L198.5938,70.7656 L198.5938,78.8438 L201.0625,78.8438 L201.0625,81 L193.6719,81 L193.6719,78.8438 L196.1406,78.8438 L196.1406,70.7656 L193.6719,70.7656 Z "/><text fill="#000000" font-family="sans-serif" font-size="12" font-style="italic" lengthAdjust="spacingAndGlyphs" textLength="124" x="218.25" y="79.1543">DisplayGpsInterface</text><line style="stroke: #A80036; stroke-width: 1.5;" x1="42.5" x2="485.5" y1="91" y2="91"/><line style="stroke: #A80036; stroke-width: 1.5;" x1="42.5" x2="485.5" y1="99" y2="99"/><ellipse cx="52.5" cy="126.8047" fill="#84BE84" rx="3" ry="3" style="stroke: #038048; stroke-width: 1.0;"/><text fill="#000000" font-family="sans-serif" font-size="11" font-style="italic" lengthAdjust="spacingAndGlyphs" textLength="270" x="61.5" y="130.0151">String receiveGpsSignal(Satellite satelliteSignal)</text><line style="stroke: #A80036; stroke-width: 1.0; stroke-dasharray: 1.0,2.0;" x1="42.5" x2="231" y1="113.4023" y2="113.4023"/><text fill="#000000" font-family="sans-serif" font-size="11" lengthAdjust="spacingAndGlyphs" textLength="66" x="231" y="116.7104">Use Case 1</text><line style="stroke: #A80036; stroke-width: 1.0; stroke-dasharray: 1.0,2.0;" x1="297" x2="485.5" y1="113.4023" y2="113.4023"/><ellipse cx="52.5" cy="156.4141" fill="#84BE84" rx="3" ry="3" style="stroke: #038048; stroke-width: 1.0;"/><text fill="#000000" font-family="sans-serif" font-size="11" font-style="italic" lengthAdjust="spacingAndGlyphs" textLength="414" x="61.5" y="159.6245">SatelliteSignalCheckRequest reportGpsSignalLoss(Satellite satelliteSignal)</text><ellipse cx="52.5" cy="169.2188" fill="#84BE84" rx="3" ry="3" style="stroke: #038048; stroke-width: 1.0;"/><text fill="#000000" font-family="sans-serif" font-size="11" font-style="italic" lengthAdjust="spacingAndGlyphs" textLength="419" x="61.5" y="172.4292">SatelliteSignalCheckRequest recheckSignalStength(Satellite satelliteSignal)</text><ellipse cx="52.5" cy="182.0234" fill="#84BE84" rx="3" ry="3" style="stroke: #038048; stroke-width: 1.0;"/><text fill="#000000" font-family="sans-serif" font-size="11" font-style="italic" lengthAdjust="spacingAndGlyphs" textLength="407" x="61.5" y="185.2339">SatelliteSignalCheckRequest checkSignalStength(Satellite satelliteSignal)</text><line style="stroke: #A80036; stroke-width: 1.0; stroke-dasharray: 1.0,2.0;" x1="42.5" x2="231" y1="143.0117" y2="143.0117"/><text fill="#000000" font-family="sans-serif" font-size="11" lengthAdjust="spacingAndGlyphs" textLength="66" x="231" y="146.3198">Use Case 2</text><line style="stroke: #A80036; stroke-width: 1.0; stroke-dasharray: 1.0,2.0;" x1="297" x2="485.5" y1="143.0117" y2="143.0117"/><!--MD5=[319273309e4c56bac150542a32321bb2]
class DisplayGpsReceiver--><rect fill="#FEFECE" filter="url(#f166eojeqtbug1)" height="107.2188" id="DisplayGpsReceiver" style="stroke: #A80036; stroke-width: 1.5;" width="408" x="522" y="72"/><ellipse cx="661.75" cy="88" fill="#B4A7E5" rx="11" ry="11" style="stroke: #A80036; stroke-width: 1.0;"/><path d="M657.6719,83.7656 L657.6719,81.6094 L665.0625,81.6094 L665.0625,83.7656 L662.5938,83.7656 L662.5938,91.8438 L665.0625,91.8438 L665.0625,94 L657.6719,94 L657.6719,91.8438 L660.1406,91.8438 L660.1406,83.7656 L657.6719,83.7656 Z "/><text fill="#000000" font-family="sans-serif" font-size="12" font-style="italic" lengthAdjust="spacingAndGlyphs" textLength="120" x="682.25" y="92.1543">DisplayGpsReceiver</text><line style="stroke: #A80036; stroke-width: 1.5;" x1="523" x2="929" y1="104" y2="104"/><line style="stroke: #A80036; stroke-width: 1.5;" x1="523" x2="929" y1="112" y2="112"/><ellipse cx="533" cy="139.8047" fill="#84BE84" rx="3" ry="3" style="stroke: #038048; stroke-width: 1.0;"/><text fill="#000000" font-family="sans-serif" font-size="11" font-style="italic" lengthAdjust="spacingAndGlyphs" textLength="326" x="542" y="143.0151">String measureGpsSignalStrength(Satellite satelliteSignal)</text><line style="stroke: #A80036; stroke-width: 1.0; stroke-dasharray: 1.0,2.0;" x1="523" x2="693" y1="126.4023" y2="126.4023"/><text fill="#000000" font-family="sans-serif" font-size="11" lengthAdjust="spacingAndGlyphs" textLength="66" x="693" y="129.7104">Use Case 1</text><line style="stroke: #A80036; stroke-width: 1.0; stroke-dasharray: 1.0,2.0;" x1="759" x2="929" y1="126.4023" y2="126.4023"/><ellipse cx="533" cy="169.4141" fill="#84BE84" rx="3" ry="3" style="stroke: #038048; stroke-width: 1.0;"/><text fill="#000000" font-family="sans-serif" font-size="11" font-style="italic" lengthAdjust="spacingAndGlyphs" textLength="382" x="542" y="172.6245">SatelliteSignalCheckRequest measureSignal(Satellite satelliteSignal)</text><line style="stroke: #A80036; stroke-width: 1.0; stroke-dasharray: 1.0,2.0;" x1="523" x2="693" y1="156.0117" y2="156.0117"/><text fill="#000000" font-family="sans-serif" font-size="11" lengthAdjust="spacingAndGlyphs" textLength="66" x="693" y="159.3198">Use Case 2</text><line style="stroke: #A80036; stroke-width: 1.0; stroke-dasharray: 1.0,2.0;" x1="759" x2="929" y1="156.0117" y2="156.0117"/><!--MD5=[31cbac78761b59e73153a97a452ed09a]
class DisplayGpsManager--><rect fill="#FEFECE" filter="url(#f166eojeqtbug1)" height="107.2188" id="DisplayGpsManager" style="stroke: #A80036; stroke-width: 1.5;" width="454" x="965" y="72"/><ellipse cx="1126.75" cy="88" fill="#B4A7E5" rx="11" ry="11" style="stroke: #A80036; stroke-width: 1.0;"/><path d="M1122.6719,83.7656 L1122.6719,81.6094 L1130.0625,81.6094 L1130.0625,83.7656 L1127.5938,83.7656 L1127.5938,91.8438 L1130.0625,91.8438 L1130.0625,94 L1122.6719,94 L1122.6719,91.8438 L1125.1406,91.8438 L1125.1406,83.7656 L1122.6719,83.7656 Z "/><text fill="#000000" font-family="sans-serif" font-size="12" font-style="italic" lengthAdjust="spacingAndGlyphs" textLength="122" x="1147.25" y="92.1543">DisplayGpsManager</text><line style="stroke: #A80036; stroke-width: 1.5;" x1="966" x2="1418" y1="104" y2="104"/><line style="stroke: #A80036; stroke-width: 1.5;" x1="966" x2="1418" y1="112" y2="112"/><ellipse cx="976" cy="139.8047" fill="#84BE84" rx="3" ry="3" style="stroke: #038048; stroke-width: 1.0;"/><text fill="#000000" font-family="sans-serif" font-size="11" font-style="italic" lengthAdjust="spacingAndGlyphs" textLength="318" x="985" y="143.0151">String receiveGpsSignalStrength(Satellite satelliteSignal)</text><line style="stroke: #A80036; stroke-width: 1.0; stroke-dasharray: 1.0,2.0;" x1="966" x2="1159" y1="126.4023" y2="126.4023"/><text fill="#000000" font-family="sans-serif" font-size="11" lengthAdjust="spacingAndGlyphs" textLength="66" x="1159" y="129.7104">Use Case 1</text><line style="stroke: #A80036; stroke-width: 1.0; stroke-dasharray: 1.0,2.0;" x1="1225" x2="1418" y1="126.4023" y2="126.4023"/><ellipse cx="976" cy="169.4141" fill="#84BE84" rx="3" ry="3" style="stroke: #038048; stroke-width: 1.0;"/><text fill="#000000" font-family="sans-serif" font-size="11" font-style="italic" lengthAdjust="spacingAndGlyphs" textLength="428" x="985" y="172.6245">SatelliteSignalCheckRequest passGpsSignalStrength(Satellite satelliteSignal)</text><line style="stroke: #A80036; stroke-width: 1.0; stroke-dasharray: 1.0,2.0;" x1="966" x2="1159" y1="156.0117" y2="156.0117"/><text fill="#000000" font-family="sans-serif" font-size="11" lengthAdjust="spacingAndGlyphs" textLength="66" x="1159" y="159.3198">Use Case 2</text><line style="stroke: #A80036; stroke-width: 1.0; stroke-dasharray: 1.0,2.0;" x1="1225" x2="1418" y1="156.0117" y2="156.0117"/><!--MD5=[6376794c08ca75f6fa530286e1e32b13]
class DisplayGpsInterfaceImplementation--><rect fill="#FEFECE" filter="url(#f166eojeqtbug1)" height="171.2422" id="DisplayGpsInterfaceImplementation" style="stroke: #A80036; stroke-width: 1.5;" width="452" x="38" y="252"/><ellipse cx="149.25" cy="268" fill="#ADD1B2" rx="11" ry="11" style="stroke: #A80036; stroke-width: 1.0;"/><path d="M152.2188,273.6406 Q151.6406,273.9375 151,274.0781 Q150.3594,274.2344 149.6563,274.2344 Q147.1563,274.2344 145.8281,272.5938 Q144.5156,270.9375 144.5156,267.8125 Q144.5156,264.6875 145.8281,263.0313 Q147.1563,261.375 149.6563,261.375 Q150.3594,261.375 151,261.5313 Q151.6563,261.6875 152.2188,261.9844 L152.2188,264.7031 Q151.5938,264.125 151,263.8594 Q150.4063,263.5781 149.7813,263.5781 Q148.4375,263.5781 147.75,264.6563 Q147.0625,265.7188 147.0625,267.8125 Q147.0625,269.9063 147.75,270.9844 Q148.4375,272.0469 149.7813,272.0469 Q150.4063,272.0469 151,271.7813 Q151.5938,271.5 152.2188,270.9219 L152.2188,273.6406 Z "/><text fill="#000000" font-family="sans-serif" font-size="12" lengthAdjust="spacingAndGlyphs" textLength="221" x="169.75" y="272.1543">DisplayGpsInterfaceImplementation</text><line style="stroke: #A80036; stroke-width: 1.5;" x1="39" x2="489" y1="284" y2="284"/><rect fill="none" height="6" style="stroke: #C82930; stroke-width: 1.0;" width="6" x="46" y="292"/><text fill="#000000" font-family="sans-serif" font-size="11" lengthAdjust="spacingAndGlyphs" textLength="162" x="58" y="298.2104">DisplayGpsReciever reciever</text><line style="stroke: #A80036; stroke-width: 1.5;" x1="39" x2="489" y1="304.8047" y2="304.8047"/><ellipse cx="49" cy="315.8047" fill="#84BE84" rx="3" ry="3" style="stroke: #038048; stroke-width: 1.0;"/><text fill="#000000" font-family="sans-serif" font-size="11" lengthAdjust="spacingAndGlyphs" textLength="372" x="58" y="319.0151">DisplayGpsInterfaceImplementation(DisplayGpsReciever reciever)</text><ellipse cx="49" cy="345.4141" fill="#84BE84" rx="3" ry="3" style="stroke: #038048; stroke-width: 1.0;"/><text fill="#000000" font-family="sans-serif" font-size="11" lengthAdjust="spacingAndGlyphs" textLength="275" x="58" y="348.6245">String receiveGpsSignal(Satellite satelliteSignal)</text><line style="stroke: #A80036; stroke-width: 1.0; stroke-dasharray: 1.0,2.0;" x1="39" x2="231" y1="332.0117" y2="332.0117"/><text fill="#000000" font-family="sans-serif" font-size="11" lengthAdjust="spacingAndGlyphs" textLength="66" x="231" y="335.3198">Use Case 1</text><line style="stroke: #A80036; stroke-width: 1.0; stroke-dasharray: 1.0,2.0;" x1="297" x2="489" y1="332.0117" y2="332.0117"/><ellipse cx="49" cy="375.0234" fill="#84BE84" rx="3" ry="3" style="stroke: #038048; stroke-width: 1.0;"/><text fill="#000000" font-family="sans-serif" font-size="11" lengthAdjust="spacingAndGlyphs" textLength="423" x="58" y="378.2339">SatelliteSignalCheckRequest reportGpsSignalLoss(Satellite satelliteSignal)</text><ellipse cx="49" cy="387.8281" fill="#84BE84" rx="3" ry="3" style="stroke: #038048; stroke-width: 1.0;"/><text fill="#000000" font-family="sans-serif" font-size="11" lengthAdjust="spacingAndGlyphs" textLength="426" x="58" y="391.0386">SatelliteSignalCheckRequest recheckSignalStength(Satellite satelliteSignal)</text><ellipse cx="49" cy="400.6328" fill="#84BE84" rx="3" ry="3" style="stroke: #038048; stroke-width: 1.0;"/><text fill="#000000" font-family="sans-serif" font-size="11" lengthAdjust="spacingAndGlyphs" textLength="414" x="58" y="403.8433">SatelliteSignalCheckRequest checkSignalStength(Satellite satelliteSignal)</text><text fill="#000000" font-family="sans-serif" font-size="11" lengthAdjust="spacingAndGlyphs" textLength="0" x="62" y="416.6479"/><line style="stroke: #A80036; stroke-width: 1.0; stroke-dasharray: 1.0,2.0;" x1="39" x2="231" y1="361.6211" y2="361.6211"/><text fill="#000000" font-family="sans-serif" font-size="11" lengthAdjust="spacingAndGlyphs" textLength="66" x="231" y="364.9292">Use Case 2</text><line style="stroke: #A80036; stroke-width: 1.0; stroke-dasharray: 1.0,2.0;" x1="297" x2="489" y1="361.6211" y2="361.6211"/><!--MD5=[02b25ee3f711f666678619f4b81f3681]
class DisplayGpsReceiverImplementation--><rect fill="#FEFECE" filter="url(#f166eojeqtbug1)" height="132.8281" id="DisplayGpsReceiverImplementation" style="stroke: #A80036; stroke-width: 1.5;" width="464" x="525" y="271"/><ellipse cx="643.75" cy="287" fill="#ADD1B2" rx="11" ry="11" style="stroke: #A80036; stroke-width: 1.0;"/><path d="M646.7188,292.6406 Q646.1406,292.9375 645.5,293.0781 Q644.8594,293.2344 644.1563,293.2344 Q641.6563,293.2344 640.3281,291.5938 Q639.0156,289.9375 639.0156,286.8125 Q639.0156,283.6875 640.3281,282.0313 Q641.6563,280.375 644.1563,280.375 Q644.8594,280.375 645.5,280.5313 Q646.1563,280.6875 646.7188,280.9844 L646.7188,283.7031 Q646.0938,283.125 645.5,282.8594 Q644.9063,282.5781 644.2813,282.5781 Q642.9375,282.5781 642.25,283.6563 Q641.5625,284.7188 641.5625,286.8125 Q641.5625,288.9063 642.25,289.9844 Q642.9375,291.0469 644.2813,291.0469 Q644.9063,291.0469 645.5,290.7813 Q646.0938,290.5 646.7188,289.9219 L646.7188,292.6406 Z "/><text fill="#000000" font-family="sans-serif" font-size="12" lengthAdjust="spacingAndGlyphs" textLength="218" x="664.25" y="291.1543">DisplayGpsReceiverImplementation</text><line style="stroke: #A80036; stroke-width: 1.5;" x1="526" x2="988" y1="303" y2="303"/><rect fill="none" height="6" style="stroke: #C82930; stroke-width: 1.0;" width="6" x="533" y="311"/><text fill="#000000" font-family="sans-serif" font-size="11" lengthAdjust="spacingAndGlyphs" textLength="230" x="545" y="317.2104">DisplayGpsManager displayGPSManager</text><line style="stroke: #A80036; stroke-width: 1.5;" x1="526" x2="988" y1="323.8047" y2="323.8047"/><ellipse cx="536" cy="334.8047" fill="#84BE84" rx="3" ry="3" style="stroke: #038048; stroke-width: 1.0;"/><text fill="#000000" font-family="sans-serif" font-size="11" lengthAdjust="spacingAndGlyphs" textLength="438" x="545" y="338.0151">DisplayGpsReceiverImplementation(DisplayGpsManager displayGPSManager)</text><ellipse cx="536" cy="364.4141" fill="#84BE84" rx="3" ry="3" style="stroke: #038048; stroke-width: 1.0;"/><text fill="#000000" font-family="sans-serif" font-size="11" lengthAdjust="spacingAndGlyphs" textLength="334" x="545" y="367.6245">String measureGpsSignalStrength(Satellite satelliteSignal)</text><line style="stroke: #A80036; stroke-width: 1.0; stroke-dasharray: 1.0,2.0;" x1="526" x2="724" y1="351.0117" y2="351.0117"/><text fill="#000000" font-family="sans-serif" font-size="11" lengthAdjust="spacingAndGlyphs" textLength="66" x="724" y="354.3198">Use Case 1</text><line style="stroke: #A80036; stroke-width: 1.0; stroke-dasharray: 1.0,2.0;" x1="790" x2="988" y1="351.0117" y2="351.0117"/><ellipse cx="536" cy="394.0234" fill="#84BE84" rx="3" ry="3" style="stroke: #038048; stroke-width: 1.0;"/><text fill="#000000" font-family="sans-serif" font-size="11" lengthAdjust="spacingAndGlyphs" textLength="389" x="545" y="397.2339">SatelliteSignalCheckRequest measureSignal(Satellite satelliteSignal)</text><line style="stroke: #A80036; stroke-width: 1.0; stroke-dasharray: 1.0,2.0;" x1="526" x2="724" y1="380.6211" y2="380.6211"/><text fill="#000000" font-family="sans-serif" font-size="11" lengthAdjust="spacingAndGlyphs" textLength="66" x="724" y="383.9292">Use Case 2</text><line style="stroke: #A80036; stroke-width: 1.0; stroke-dasharray: 1.0,2.0;" x1="790" x2="988" y1="380.6211" y2="380.6211"/><!--MD5=[85db0a5b69c4b55d7b0101612d8a7890]
class DisplayGpsManagerImplementation--><rect fill="#FEFECE" filter="url(#f166eojeqtbug1)" height="132.8281" id="DisplayGpsManagerImplementation" style="stroke: #A80036; stroke-width: 1.5;" width="464" x="1024" y="271"/><ellipse cx="1141.75" cy="287" fill="#ADD1B2" rx="11" ry="11" style="stroke: #A80036; stroke-width: 1.0;"/><path d="M1144.7188,292.6406 Q1144.1406,292.9375 1143.5,293.0781 Q1142.8594,293.2344 1142.1563,293.2344 Q1139.6563,293.2344 1138.3281,291.5938 Q1137.0156,289.9375 1137.0156,286.8125 Q1137.0156,283.6875 1138.3281,282.0313 Q1139.6563,280.375 1142.1563,280.375 Q1142.8594,280.375 1143.5,280.5313 Q1144.1563,280.6875 1144.7188,280.9844 L1144.7188,283.7031 Q1144.0938,283.125 1143.5,282.8594 Q1142.9063,282.5781 1142.2813,282.5781 Q1140.9375,282.5781 1140.25,283.6563 Q1139.5625,284.7188 1139.5625,286.8125 Q1139.5625,288.9063 1140.25,289.9844 Q1140.9375,291.0469 1142.2813,291.0469 Q1142.9063,291.0469 1143.5,290.7813 Q1144.0938,290.5 1144.7188,289.9219 L1144.7188,292.6406 Z "/><text fill="#000000" font-family="sans-serif" font-size="12" lengthAdjust="spacingAndGlyphs" textLength="220" x="1162.25" y="291.1543">DisplayGpsManagerImplementation</text><line style="stroke: #A80036; stroke-width: 1.5;" x1="1025" x2="1487" y1="303" y2="303"/><rect fill="none" height="6" style="stroke: #C82930; stroke-width: 1.0;" width="6" x="1032" y="311"/><text fill="#000000" font-family="sans-serif" font-size="11" lengthAdjust="spacingAndGlyphs" textLength="204" x="1044" y="317.2104">MiddlewareGisInterface gisInterface</text><line style="stroke: #A80036; stroke-width: 1.5;" x1="1025" x2="1487" y1="323.8047" y2="323.8047"/><ellipse cx="1035" cy="334.8047" fill="#84BE84" rx="3" ry="3" style="stroke: #038048; stroke-width: 1.0;"/><text fill="#000000" font-family="sans-serif" font-size="11" lengthAdjust="spacingAndGlyphs" textLength="413" x="1044" y="338.0151">DisplayGpsManagerImplementation(MiddlewareGisInterface gisInterface)</text><ellipse cx="1035" cy="364.4141" fill="#84BE84" rx="3" ry="3" style="stroke: #038048; stroke-width: 1.0;"/><text fill="#000000" font-family="sans-serif" font-size="11" lengthAdjust="spacingAndGlyphs" textLength="324" x="1044" y="367.6245">String receiveGpsSignalStrength(Satellite satelliteSignal)</text><line style="stroke: #A80036; stroke-width: 1.0; stroke-dasharray: 1.0,2.0;" x1="1025" x2="1223" y1="351.0117" y2="351.0117"/><text fill="#000000" font-family="sans-serif" font-size="11" lengthAdjust="spacingAndGlyphs" textLength="66" x="1223" y="354.3198">Use Case 1</text><line style="stroke: #A80036; stroke-width: 1.0; stroke-dasharray: 1.0,2.0;" x1="1289" x2="1487" y1="351.0117" y2="351.0117"/><ellipse cx="1035" cy="394.0234" fill="#84BE84" rx="3" ry="3" style="stroke: #038048; stroke-width: 1.0;"/><text fill="#000000" font-family="sans-serif" font-size="11" lengthAdjust="spacingAndGlyphs" textLength="438" x="1044" y="397.2339">SatelliteSignalCheckRequest passGpsSignalStrength(Satellite satelliteSignal)</text><line style="stroke: #A80036; stroke-width: 1.0; stroke-dasharray: 1.0,2.0;" x1="1025" x2="1223" y1="380.6211" y2="380.6211"/><text fill="#000000" font-family="sans-serif" font-size="11" lengthAdjust="spacingAndGlyphs" textLength="66" x="1223" y="383.9292">Use Case 2</text><line style="stroke: #A80036; stroke-width: 1.0; stroke-dasharray: 1.0,2.0;" x1="1289" x2="1487" y1="380.6211" y2="380.6211"/><!--MD5=[f1009660389b69d8f1dd83b0564feed6]
link DisplayGpsInterface to DisplayGpsReceiver--><!--MD5=[8fefac4f596013478990c66256fd14b0]
link DisplayGpsReceiver to DisplayGpsManager--><!--MD5=[ee24dc14e505e67481c4b4ac6c5a51a1]
link DisplayGpsInterface to DisplayGpsInterfaceImplementation--><!--MD5=[7c0fe609e5df7a41ca62865333c5d149]
link DisplayGpsInterfaceImplementation to DisplayGpsReceiverImplementation--><!--MD5=[ef9a99f365d30152cb0c651116fa1b3a]
link DisplayGpsReceiverImplementation to DisplayGpsManagerImplementation--><!--MD5=[acd8b099302367e726e9a6aa0323a025]
@startuml Display01ProductionPackage

package edu.oakland.production.display01 {

}


package edu.oakland.production.display01 {
    interface DisplayGpsInterface {
        __
        .. Use Case 1 ..
        {abstract} + String receiveGpsSignal(Satellite satelliteSignal)
        .. Use Case 2 ..
        {abstract} + SatelliteSignalCheckRequest reportGpsSignalLoss(Satellite satelliteSignal)
        {abstract} + SatelliteSignalCheckRequest recheckSignalStength(Satellite satelliteSignal)
        {abstract} + SatelliteSignalCheckRequest checkSignalStength(Satellite satelliteSignal)
    }
}


package edu.oakland.production.display01 {
    interface DisplayGpsReceiver {
        __
        .. Use Case 1 ..
        {abstract} + String measureGpsSignalStrength(Satellite satelliteSignal)
        .. Use Case 2 ..
        {abstract} + SatelliteSignalCheckRequest measureSignal(Satellite satelliteSignal)
    }
}


package edu.oakland.production.display01 {
    interface DisplayGpsManager {
        __
        .. Use Case 1 ..
        {abstract} + String receiveGpsSignalStrength(Satellite satelliteSignal)
        .. Use Case 2 ..
        {abstract} + SatelliteSignalCheckRequest passGpsSignalStrength(Satellite satelliteSignal)
    }
}



package edu.oakland.production.display01 {
    class DisplayGpsInterfaceImplementation {
        - DisplayGpsReciever reciever
        __
        + DisplayGpsInterfaceImplementation(DisplayGpsReciever reciever)
        .. Use Case 1 ..
        + String receiveGpsSignal(Satellite satelliteSignal)
        .. Use Case 2 ..
        + SatelliteSignalCheckRequest reportGpsSignalLoss(Satellite satelliteSignal)
        + SatelliteSignalCheckRequest recheckSignalStength(Satellite satelliteSignal)
        + SatelliteSignalCheckRequest checkSignalStength(Satellite satelliteSignal)
        
    }
}


package edu.oakland.production.display01 {
    class DisplayGpsReceiverImplementation {
        - DisplayGpsManager displayGPSManager
        __
        + DisplayGpsReceiverImplementation(DisplayGpsManager displayGPSManager)
        .. Use Case 1 ..
        + String measureGpsSignalStrength(Satellite satelliteSignal)
        .. Use Case 2 ..
        + SatelliteSignalCheckRequest measureSignal(Satellite satelliteSignal)
    }
}


package edu.oakland.production.display01 {
  class DisplayGpsManagerImplementation {
    - MiddlewareGisInterface gisInterface
   __
    + DisplayGpsManagerImplementation(MiddlewareGisInterface gisInterface)
    .. Use Case 1 ..
    + String receiveGpsSignalStrength(Satellite satelliteSignal)
    .. Use Case 2 ..
    + SatelliteSignalCheckRequest passGpsSignalStrength(Satellite satelliteSignal)
    }
}


@enduml

PlantUML version 1.2020.02(Sun Mar 01 10:22:07 GMT 2020)
(GPL source distribution)
Java Runtime: OpenJDK Runtime Environment
JVM: OpenJDK 64-Bit Server VM
Java Version: 11.0.9+11-Ubuntu-0ubuntu1
Operating System: Linux
Default Encoding: ANSI_X3.4-1968
Language: en
Country: US
--></g></svg>