<?xml version="1.0" encoding="UTF-8" standalone="no"?><svg xmlns="http://www.w3.org/2000/svg" xmlns:xlink="http://www.w3.org/1999/xlink" contentScriptType="application/ecmascript" contentStyleType="text/css" height="707px" preserveAspectRatio="none" style="width:1395px;height:707px;" version="1.1" viewBox="0 0 1395 707" width="1395px" zoomAndPan="magnify"><defs><filter height="300%" id="f8iw2or2op0zx" width="300%" x="-1" y="-1"><feGaussianBlur result="blurOut" stdDeviation="2.0"/><feColorMatrix in="blurOut" result="blurOut2" type="matrix" values="0 0 0 0 0 0 0 0 0 0 0 0 0 0 0 0 0 0 .4 0"/><feOffset dx="4.0" dy="4.0" in="blurOut2" result="blurOut3"/><feBlend in="SourceGraphic" in2="blurOut3" mode="normal"/></filter></defs><g><!--MD5=[3e281e6f49e0b185d62a106a5d994a08]
cluster edu.oakland.production.display01--><polygon fill="#FFFFFF" filter="url(#f8iw2or2op0zx)" points="22,24,295,24,302,46.2969,1373,46.2969,1373,508,22,508,22,24" style="stroke: #000000; stroke-width: 1.5;"/><line style="stroke: #000000; stroke-width: 1.5;" x1="22" x2="302" y1="46.2969" y2="46.2969"/><text fill="#000000" font-family="sans-serif" font-size="14" font-weight="bold" lengthAdjust="spacingAndGlyphs" textLength="267" x="26" y="38.9951">edu.oakland.production.display01</text><!--MD5=[d02020cdc9562d037d87b751d110dd8b]
cluster edu.oakland.helper.display01--><polygon fill="#FFFFFF" filter="url(#f8iw2or2op0zx)" points="472,532,710,532,717,554.2969,920,554.2969,920,695,472,695,472,532" style="stroke: #000000; stroke-width: 1.5;"/><line style="stroke: #000000; stroke-width: 1.5;" x1="472" x2="717" y1="554.2969" y2="554.2969"/><text fill="#000000" font-family="sans-serif" font-size="14" font-weight="bold" lengthAdjust="spacingAndGlyphs" textLength="232" x="476" y="546.9951">edu.oakland.helper.display01</text><!--MD5=[fa6248c05b5a852ecd50b5411f159754]
class DisplayGpsInterface--><rect fill="#FEFECE" filter="url(#f8iw2or2op0zx)" height="132.8281" id="DisplayGpsInterface" style="stroke: #A80036; stroke-width: 1.5;" width="297" x="88.5" y="59"/><ellipse cx="170.75" cy="75" fill="#B4A7E5" rx="11" ry="11" style="stroke: #A80036; stroke-width: 1.0;"/><path d="M166.6719,70.7656 L166.6719,68.6094 L174.0625,68.6094 L174.0625,70.7656 L171.5938,70.7656 L171.5938,78.8438 L174.0625,78.8438 L174.0625,81 L166.6719,81 L166.6719,78.8438 L169.1406,78.8438 L169.1406,70.7656 L166.6719,70.7656 Z "/><text fill="#000000" font-family="sans-serif" font-size="12" font-style="italic" lengthAdjust="spacingAndGlyphs" textLength="124" x="191.25" y="79.1543">DisplayGpsInterface</text><line style="stroke: #A80036; stroke-width: 1.5;" x1="89.5" x2="384.5" y1="91" y2="91"/><line style="stroke: #A80036; stroke-width: 1.5;" x1="89.5" x2="384.5" y1="99" y2="99"/><ellipse cx="99.5" cy="126.8047" fill="#84BE84" rx="3" ry="3" style="stroke: #038048; stroke-width: 1.0;"/><text fill="#000000" font-family="sans-serif" font-size="11" font-style="italic" lengthAdjust="spacingAndGlyphs" textLength="261" x="108.5" y="130.0151">void receiveGpsSignal(Satellite satelliteSignal)</text><line style="stroke: #A80036; stroke-width: 1.0; stroke-dasharray: 1.0,2.0;" x1="89.5" x2="204" y1="113.4023" y2="113.4023"/><text fill="#000000" font-family="sans-serif" font-size="11" lengthAdjust="spacingAndGlyphs" textLength="66" x="204" y="116.7104">Use Case 1</text><line style="stroke: #A80036; stroke-width: 1.0; stroke-dasharray: 1.0,2.0;" x1="270" x2="384.5" y1="113.4023" y2="113.4023"/><ellipse cx="99.5" cy="156.4141" fill="#84BE84" rx="3" ry="3" style="stroke: #038048; stroke-width: 1.0;"/><text fill="#000000" font-family="sans-serif" font-size="11" font-style="italic" lengthAdjust="spacingAndGlyphs" textLength="266" x="108.5" y="159.6245">void reportGpsSignalLoss(String satelliteName)</text><ellipse cx="99.5" cy="169.2188" fill="#84BE84" rx="3" ry="3" style="stroke: #038048; stroke-width: 1.0;"/><text fill="#000000" font-family="sans-serif" font-size="11" font-style="italic" lengthAdjust="spacingAndGlyphs" textLength="271" x="108.5" y="172.4292">void recheckSignalStength(String satelliteName)</text><ellipse cx="99.5" cy="182.0234" fill="#84BE84" rx="3" ry="3" style="stroke: #038048; stroke-width: 1.0;"/><text fill="#000000" font-family="sans-serif" font-size="11" font-style="italic" lengthAdjust="spacingAndGlyphs" textLength="259" x="108.5" y="185.2339">void checkSignalStength(String satelliteName)</text><line style="stroke: #A80036; stroke-width: 1.0; stroke-dasharray: 1.0,2.0;" x1="89.5" x2="204" y1="143.0117" y2="143.0117"/><text fill="#000000" font-family="sans-serif" font-size="11" lengthAdjust="spacingAndGlyphs" textLength="66" x="204" y="146.3198">Use Case 2</text><line style="stroke: #A80036; stroke-width: 1.0; stroke-dasharray: 1.0,2.0;" x1="270" x2="384.5" y1="143.0117" y2="143.0117"/><!--MD5=[31cbac78761b59e73153a97a452ed09a]
class DisplayGpsManager--><rect fill="#FEFECE" filter="url(#f8iw2or2op0zx)" height="107.2188" id="DisplayGpsManager" style="stroke: #A80036; stroke-width: 1.5;" width="441" x="475.5" y="72"/><ellipse cx="630.75" cy="88" fill="#B4A7E5" rx="11" ry="11" style="stroke: #A80036; stroke-width: 1.0;"/><path d="M626.6719,83.7656 L626.6719,81.6094 L634.0625,81.6094 L634.0625,83.7656 L631.5938,83.7656 L631.5938,91.8438 L634.0625,91.8438 L634.0625,94 L626.6719,94 L626.6719,91.8438 L629.1406,91.8438 L629.1406,83.7656 L626.6719,83.7656 Z "/><text fill="#000000" font-family="sans-serif" font-size="12" font-style="italic" lengthAdjust="spacingAndGlyphs" textLength="122" x="651.25" y="92.1543">DisplayGpsManager</text><line style="stroke: #A80036; stroke-width: 1.5;" x1="476.5" x2="915.5" y1="104" y2="104"/><line style="stroke: #A80036; stroke-width: 1.5;" x1="476.5" x2="915.5" y1="112" y2="112"/><ellipse cx="486.5" cy="139.8047" fill="#84BE84" rx="3" ry="3" style="stroke: #038048; stroke-width: 1.0;"/><text fill="#000000" font-family="sans-serif" font-size="11" font-style="italic" lengthAdjust="spacingAndGlyphs" textLength="318" x="495.5" y="143.0151">String receiveGpsSignalStrength(Satellite satelliteSignal)</text><line style="stroke: #A80036; stroke-width: 1.0; stroke-dasharray: 1.0,2.0;" x1="476.5" x2="663" y1="126.4023" y2="126.4023"/><text fill="#000000" font-family="sans-serif" font-size="11" lengthAdjust="spacingAndGlyphs" textLength="66" x="663" y="129.7104">Use Case 1</text><line style="stroke: #A80036; stroke-width: 1.0; stroke-dasharray: 1.0,2.0;" x1="729" x2="915.5" y1="126.4023" y2="126.4023"/><ellipse cx="486.5" cy="169.4141" fill="#84BE84" rx="3" ry="3" style="stroke: #038048; stroke-width: 1.0;"/><text fill="#000000" font-family="sans-serif" font-size="11" font-style="italic" lengthAdjust="spacingAndGlyphs" textLength="415" x="495.5" y="172.6245">SatelliteSignalCheckRequest passGpsSignalStrength(String satelliteName)</text><line style="stroke: #A80036; stroke-width: 1.0; stroke-dasharray: 1.0,2.0;" x1="476.5" x2="663" y1="156.0117" y2="156.0117"/><text fill="#000000" font-family="sans-serif" font-size="11" lengthAdjust="spacingAndGlyphs" textLength="66" x="663" y="159.3198">Use Case 2</text><line style="stroke: #A80036; stroke-width: 1.0; stroke-dasharray: 1.0,2.0;" x1="729" x2="915.5" y1="156.0117" y2="156.0117"/><!--MD5=[319273309e4c56bac150542a32321bb2]
class DisplayGpsReceiver--><rect fill="#FEFECE" filter="url(#f8iw2or2op0zx)" height="107.2188" id="DisplayGpsReceiver" style="stroke: #A80036; stroke-width: 1.5;" width="395" x="959.5" y="72"/><ellipse cx="1092.75" cy="88" fill="#B4A7E5" rx="11" ry="11" style="stroke: #A80036; stroke-width: 1.0;"/><path d="M1088.6719,83.7656 L1088.6719,81.6094 L1096.0625,81.6094 L1096.0625,83.7656 L1093.5938,83.7656 L1093.5938,91.8438 L1096.0625,91.8438 L1096.0625,94 L1088.6719,94 L1088.6719,91.8438 L1091.1406,91.8438 L1091.1406,83.7656 L1088.6719,83.7656 Z "/><text fill="#000000" font-family="sans-serif" font-size="12" font-style="italic" lengthAdjust="spacingAndGlyphs" textLength="120" x="1113.25" y="92.1543">DisplayGpsReceiver</text><line style="stroke: #A80036; stroke-width: 1.5;" x1="960.5" x2="1353.5" y1="104" y2="104"/><line style="stroke: #A80036; stroke-width: 1.5;" x1="960.5" x2="1353.5" y1="112" y2="112"/><ellipse cx="970.5" cy="139.8047" fill="#84BE84" rx="3" ry="3" style="stroke: #038048; stroke-width: 1.0;"/><text fill="#000000" font-family="sans-serif" font-size="11" font-style="italic" lengthAdjust="spacingAndGlyphs" textLength="326" x="979.5" y="143.0151">String measureGpsSignalStrength(Satellite satelliteSignal)</text><line style="stroke: #A80036; stroke-width: 1.0; stroke-dasharray: 1.0,2.0;" x1="960.5" x2="1124" y1="126.4023" y2="126.4023"/><text fill="#000000" font-family="sans-serif" font-size="11" lengthAdjust="spacingAndGlyphs" textLength="66" x="1124" y="129.7104">Use Case 1</text><line style="stroke: #A80036; stroke-width: 1.0; stroke-dasharray: 1.0,2.0;" x1="1190" x2="1353.5" y1="126.4023" y2="126.4023"/><ellipse cx="970.5" cy="169.4141" fill="#84BE84" rx="3" ry="3" style="stroke: #038048; stroke-width: 1.0;"/><text fill="#000000" font-family="sans-serif" font-size="11" font-style="italic" lengthAdjust="spacingAndGlyphs" textLength="369" x="979.5" y="172.6245">SatelliteSignalCheckRequest measureSignal(String satelliteName)</text><line style="stroke: #A80036; stroke-width: 1.0; stroke-dasharray: 1.0,2.0;" x1="960.5" x2="1124" y1="156.0117" y2="156.0117"/><text fill="#000000" font-family="sans-serif" font-size="11" lengthAdjust="spacingAndGlyphs" textLength="66" x="1124" y="159.3198">Use Case 2</text><line style="stroke: #A80036; stroke-width: 1.0; stroke-dasharray: 1.0,2.0;" x1="1190" x2="1353.5" y1="156.0117" y2="156.0117"/><!--MD5=[6376794c08ca75f6fa530286e1e32b13]
class DisplayGpsInterfaceImplementation--><rect fill="#FEFECE" filter="url(#f8iw2or2op0zx)" height="171.2422" id="DisplayGpsInterfaceImplementation" style="stroke: #A80036; stroke-width: 1.5;" width="398" x="38" y="286.5"/><ellipse cx="122.25" cy="302.5" fill="#ADD1B2" rx="11" ry="11" style="stroke: #A80036; stroke-width: 1.0;"/><path d="M125.2188,308.1406 Q124.6406,308.4375 124,308.5781 Q123.3594,308.7344 122.6563,308.7344 Q120.1563,308.7344 118.8281,307.0938 Q117.5156,305.4375 117.5156,302.3125 Q117.5156,299.1875 118.8281,297.5313 Q120.1563,295.875 122.6563,295.875 Q123.3594,295.875 124,296.0313 Q124.6563,296.1875 125.2188,296.4844 L125.2188,299.2031 Q124.5938,298.625 124,298.3594 Q123.4063,298.0781 122.7813,298.0781 Q121.4375,298.0781 120.75,299.1563 Q120.0625,300.2188 120.0625,302.3125 Q120.0625,304.4063 120.75,305.4844 Q121.4375,306.5469 122.7813,306.5469 Q123.4063,306.5469 124,306.2813 Q124.5938,306 125.2188,305.4219 L125.2188,308.1406 Z "/><text fill="#000000" font-family="sans-serif" font-size="12" lengthAdjust="spacingAndGlyphs" textLength="221" x="142.75" y="306.6543">DisplayGpsInterfaceImplementation</text><line style="stroke: #A80036; stroke-width: 1.5;" x1="39" x2="435" y1="318.5" y2="318.5"/><rect fill="none" height="6" style="stroke: #C82930; stroke-width: 1.0;" width="6" x="46" y="326.5"/><text fill="#000000" font-family="sans-serif" font-size="11" lengthAdjust="spacingAndGlyphs" textLength="162" x="58" y="332.7104">DisplayGpsReciever reciever</text><line style="stroke: #A80036; stroke-width: 1.5;" x1="39" x2="435" y1="339.3047" y2="339.3047"/><ellipse cx="49" cy="350.3047" fill="#84BE84" rx="3" ry="3" style="stroke: #038048; stroke-width: 1.0;"/><text fill="#000000" font-family="sans-serif" font-size="11" lengthAdjust="spacingAndGlyphs" textLength="372" x="58" y="353.5151">DisplayGpsInterfaceImplementation(DisplayGpsReciever reciever)</text><ellipse cx="49" cy="379.9141" fill="#84BE84" rx="3" ry="3" style="stroke: #038048; stroke-width: 1.0;"/><text fill="#000000" font-family="sans-serif" font-size="11" lengthAdjust="spacingAndGlyphs" textLength="264" x="58" y="383.1245">void receiveGpsSignal(Satellite satelliteSignal)</text><line style="stroke: #A80036; stroke-width: 1.0; stroke-dasharray: 1.0,2.0;" x1="39" x2="204" y1="366.5117" y2="366.5117"/><text fill="#000000" font-family="sans-serif" font-size="11" lengthAdjust="spacingAndGlyphs" textLength="66" x="204" y="369.8198">Use Case 1</text><line style="stroke: #A80036; stroke-width: 1.0; stroke-dasharray: 1.0,2.0;" x1="270" x2="435" y1="366.5117" y2="366.5117"/><ellipse cx="49" cy="409.5234" fill="#84BE84" rx="3" ry="3" style="stroke: #038048; stroke-width: 1.0;"/><text fill="#000000" font-family="sans-serif" font-size="11" lengthAdjust="spacingAndGlyphs" textLength="271" x="58" y="412.7339">void reportGpsSignalLoss(String satelliteName)</text><ellipse cx="49" cy="422.3281" fill="#84BE84" rx="3" ry="3" style="stroke: #038048; stroke-width: 1.0;"/><text fill="#000000" font-family="sans-serif" font-size="11" lengthAdjust="spacingAndGlyphs" textLength="274" x="58" y="425.5386">void recheckSignalStength(String satelliteName)</text><ellipse cx="49" cy="435.1328" fill="#84BE84" rx="3" ry="3" style="stroke: #038048; stroke-width: 1.0;"/><text fill="#000000" font-family="sans-serif" font-size="11" lengthAdjust="spacingAndGlyphs" textLength="262" x="58" y="438.3433">void checkSignalStength(String satelliteName)</text><rect fill="#F24D5C" height="6" style="stroke: #C82930; stroke-width: 1.0;" width="6" x="46" y="444.9375"/><text fill="#000000" font-family="sans-serif" font-size="11" lengthAdjust="spacingAndGlyphs" textLength="261" x="58" y="451.1479">int reportSignalStrength(String satelliteName)</text><line style="stroke: #A80036; stroke-width: 1.0; stroke-dasharray: 1.0,2.0;" x1="39" x2="204" y1="396.1211" y2="396.1211"/><text fill="#000000" font-family="sans-serif" font-size="11" lengthAdjust="spacingAndGlyphs" textLength="66" x="204" y="399.4292">Use Case 2</text><line style="stroke: #A80036; stroke-width: 1.0; stroke-dasharray: 1.0,2.0;" x1="270" x2="435" y1="396.1211" y2="396.1211"/><!--MD5=[85db0a5b69c4b55d7b0101612d8a7890]
class DisplayGpsManagerImplementation--><rect fill="#FEFECE" filter="url(#f8iw2or2op0zx)" height="171.2422" id="DisplayGpsManagerImplementation" style="stroke: #A80036; stroke-width: 1.5;" width="450" x="471" y="286.5"/><ellipse cx="581.75" cy="302.5" fill="#ADD1B2" rx="11" ry="11" style="stroke: #A80036; stroke-width: 1.0;"/><path d="M584.7188,308.1406 Q584.1406,308.4375 583.5,308.5781 Q582.8594,308.7344 582.1563,308.7344 Q579.6563,308.7344 578.3281,307.0938 Q577.0156,305.4375 577.0156,302.3125 Q577.0156,299.1875 578.3281,297.5313 Q579.6563,295.875 582.1563,295.875 Q582.8594,295.875 583.5,296.0313 Q584.1563,296.1875 584.7188,296.4844 L584.7188,299.2031 Q584.0938,298.625 583.5,298.3594 Q582.9063,298.0781 582.2813,298.0781 Q580.9375,298.0781 580.25,299.1563 Q579.5625,300.2188 579.5625,302.3125 Q579.5625,304.4063 580.25,305.4844 Q580.9375,306.5469 582.2813,306.5469 Q582.9063,306.5469 583.5,306.2813 Q584.0938,306 584.7188,305.4219 L584.7188,308.1406 Z "/><text fill="#000000" font-family="sans-serif" font-size="12" lengthAdjust="spacingAndGlyphs" textLength="220" x="602.25" y="306.6543">DisplayGpsManagerImplementation</text><line style="stroke: #A80036; stroke-width: 1.5;" x1="472" x2="920" y1="318.5" y2="318.5"/><rect fill="none" height="6" style="stroke: #C82930; stroke-width: 1.0;" width="6" x="479" y="326.5"/><text fill="#000000" font-family="sans-serif" font-size="11" lengthAdjust="spacingAndGlyphs" textLength="222" x="491" y="332.7104">MiddlewareGisInterface middlewareGis</text><line style="stroke: #A80036; stroke-width: 1.5;" x1="472" x2="920" y1="339.3047" y2="339.3047"/><ellipse cx="482" cy="350.3047" fill="#84BE84" rx="3" ry="3" style="stroke: #038048; stroke-width: 1.0;"/><text fill="#000000" font-family="sans-serif" font-size="11" lengthAdjust="spacingAndGlyphs" textLength="377" x="491" y="353.5151">DisplayGpsManagerImplementation(DisplayGpsManager manager)</text><ellipse cx="482" cy="379.9141" fill="#84BE84" rx="3" ry="3" style="stroke: #038048; stroke-width: 1.0;"/><text fill="#000000" font-family="sans-serif" font-size="11" lengthAdjust="spacingAndGlyphs" textLength="324" x="491" y="383.1245">String receiveGpsSignalStrength(Satellite satelliteSignal)</text><ellipse cx="482" cy="392.7188" fill="#84BE84" rx="3" ry="3" style="stroke: #038048; stroke-width: 1.0;"/><text fill="#000000" font-family="sans-serif" font-size="11" lengthAdjust="spacingAndGlyphs" textLength="316" x="491" y="395.9292">boolean EvaluateGpsSignalStrengths(int signalStrengh)</text><ellipse cx="482" cy="405.5234" fill="#84BE84" rx="3" ry="3" style="stroke: #038048; stroke-width: 1.0;"/><text fill="#000000" font-family="sans-serif" font-size="11" lengthAdjust="spacingAndGlyphs" textLength="271" x="491" y="408.7339">void passGpsSignalStrength(int signalStrength)</text><line style="stroke: #A80036; stroke-width: 1.0; stroke-dasharray: 1.0,2.0;" x1="472" x2="663" y1="366.5117" y2="366.5117"/><text fill="#000000" font-family="sans-serif" font-size="11" lengthAdjust="spacingAndGlyphs" textLength="66" x="663" y="369.8198">Use Case 1</text><line style="stroke: #A80036; stroke-width: 1.0; stroke-dasharray: 1.0,2.0;" x1="729" x2="920" y1="366.5117" y2="366.5117"/><ellipse cx="482" cy="435.1328" fill="#84BE84" rx="3" ry="3" style="stroke: #038048; stroke-width: 1.0;"/><text fill="#000000" font-family="sans-serif" font-size="11" lengthAdjust="spacingAndGlyphs" textLength="278" x="491" y="438.3433">String receiveGpsSignalStrength(Satellite signal)</text><ellipse cx="482" cy="447.9375" fill="#84BE84" rx="3" ry="3" style="stroke: #038048; stroke-width: 1.0;"/><text fill="#000000" font-family="sans-serif" font-size="11" lengthAdjust="spacingAndGlyphs" textLength="424" x="491" y="451.1479">SatelliteSignalCheckRequest passGpsSignalStrength(String satelliteName)</text><line style="stroke: #A80036; stroke-width: 1.0; stroke-dasharray: 1.0,2.0;" x1="472" x2="663" y1="421.7305" y2="421.7305"/><text fill="#000000" font-family="sans-serif" font-size="11" lengthAdjust="spacingAndGlyphs" textLength="66" x="663" y="425.0386">Use Case 2</text><line style="stroke: #A80036; stroke-width: 1.0; stroke-dasharray: 1.0,2.0;" x1="729" x2="920" y1="421.7305" y2="421.7305"/><!--MD5=[02b25ee3f711f666678619f4b81f3681]
class DisplayGpsReceiverImplementation--><rect fill="#FEFECE" filter="url(#f8iw2or2op0zx)" height="240.0703" id="DisplayGpsReceiverImplementation" style="stroke: #A80036; stroke-width: 1.5;" width="401" x="956.5" y="252"/><ellipse cx="1043.75" cy="268" fill="#ADD1B2" rx="11" ry="11" style="stroke: #A80036; stroke-width: 1.0;"/><path d="M1046.7188,273.6406 Q1046.1406,273.9375 1045.5,274.0781 Q1044.8594,274.2344 1044.1563,274.2344 Q1041.6563,274.2344 1040.3281,272.5938 Q1039.0156,270.9375 1039.0156,267.8125 Q1039.0156,264.6875 1040.3281,263.0313 Q1041.6563,261.375 1044.1563,261.375 Q1044.8594,261.375 1045.5,261.5313 Q1046.1563,261.6875 1046.7188,261.9844 L1046.7188,264.7031 Q1046.0938,264.125 1045.5,263.8594 Q1044.9063,263.5781 1044.2813,263.5781 Q1042.9375,263.5781 1042.25,264.6563 Q1041.5625,265.7188 1041.5625,267.8125 Q1041.5625,269.9063 1042.25,270.9844 Q1042.9375,272.0469 1044.2813,272.0469 Q1044.9063,272.0469 1045.5,271.7813 Q1046.0938,271.5 1046.7188,270.9219 L1046.7188,273.6406 Z "/><text fill="#000000" font-family="sans-serif" font-size="12" lengthAdjust="spacingAndGlyphs" textLength="218" x="1064.25" y="272.1543">DisplayGpsReceiverImplementation</text><line style="stroke: #A80036; stroke-width: 1.5;" x1="957.5" x2="1356.5" y1="284" y2="284"/><text fill="#000000" font-family="sans-serif" font-size="11" lengthAdjust="spacingAndGlyphs" textLength="0" x="966.5" y="298.2104"/><text fill="#000000" font-family="sans-serif" font-size="11" lengthAdjust="spacingAndGlyphs" textLength="168" x="962.5" y="311.0151">DisplayGpsManager manager</text><text fill="#000000" font-family="sans-serif" font-size="11" lengthAdjust="spacingAndGlyphs" textLength="0" x="966.5" y="323.8198"/><text fill="#000000" font-family="sans-serif" font-size="11" lengthAdjust="spacingAndGlyphs" textLength="0" x="980.5" y="353.4292"/><ellipse cx="967.5" cy="363.0234" fill="#84BE84" rx="3" ry="3" style="stroke: #038048; stroke-width: 1.0;"/><text fill="#000000" font-family="sans-serif" font-size="11" lengthAdjust="spacingAndGlyphs" textLength="334" x="976.5" y="366.2339">String measureGpsSignalStrength(Satellite satelliteSignal)</text><text fill="#000000" font-family="sans-serif" font-size="11" lengthAdjust="spacingAndGlyphs" textLength="0" x="980.5" y="379.0386"/><rect fill="#F24D5C" height="6" style="stroke: #C82930; stroke-width: 1.0;" width="6" x="964.5" y="385.6328"/><text fill="#000000" font-family="sans-serif" font-size="11" lengthAdjust="spacingAndGlyphs" textLength="248" x="976.5" y="391.8433">void passSignalStrength(int signalStrength)</text><text fill="#000000" font-family="sans-serif" font-size="11" lengthAdjust="spacingAndGlyphs" textLength="0" x="980.5" y="404.6479"/><line style="stroke: #A80036; stroke-width: 1.0; stroke-dasharray: 1.0,2.0;" x1="957.5" x2="1124" y1="336.8164" y2="336.8164"/><text fill="#000000" font-family="sans-serif" font-size="11" lengthAdjust="spacingAndGlyphs" textLength="66" x="1124" y="340.1245">Use Case 1</text><line style="stroke: #A80036; stroke-width: 1.0; stroke-dasharray: 1.0,2.0;" x1="1190" x2="1356.5" y1="336.8164" y2="336.8164"/><text fill="#000000" font-family="sans-serif" font-size="11" lengthAdjust="spacingAndGlyphs" textLength="0" x="980.5" y="434.2573"/><ellipse cx="967.5" cy="443.8516" fill="#84BE84" rx="3" ry="3" style="stroke: #038048; stroke-width: 1.0;"/><text fill="#000000" font-family="sans-serif" font-size="11" lengthAdjust="spacingAndGlyphs" textLength="334" x="976.5" y="447.062">String measureGpsSignalStrength(Satellite satelliteSignal)</text><text fill="#000000" font-family="sans-serif" font-size="11" lengthAdjust="spacingAndGlyphs" textLength="0" x="980.5" y="459.8667"/><ellipse cx="967.5" cy="469.4609" fill="#84BE84" rx="3" ry="3" style="stroke: #038048; stroke-width: 1.0;"/><text fill="#000000" font-family="sans-serif" font-size="11" lengthAdjust="spacingAndGlyphs" textLength="375" x="976.5" y="472.6714">SatelliteSignalCheckRequest measureSignal(String satelliteName)</text><text fill="#000000" font-family="sans-serif" font-size="11" lengthAdjust="spacingAndGlyphs" textLength="0" x="980.5" y="485.4761"/><line style="stroke: #A80036; stroke-width: 1.0; stroke-dasharray: 1.0,2.0;" x1="957.5" x2="1124" y1="417.6445" y2="417.6445"/><text fill="#000000" font-family="sans-serif" font-size="11" lengthAdjust="spacingAndGlyphs" textLength="66" x="1124" y="420.9526">Use Case 2</text><line style="stroke: #A80036; stroke-width: 1.0; stroke-dasharray: 1.0,2.0;" x1="1190" x2="1356.5" y1="417.6445" y2="417.6445"/><!--MD5=[b7db7f9e4ca1b2f55d32a1a48f9dd068]
class SatelliteSignalCheckRequest--><rect fill="#FEFECE" filter="url(#f8iw2or2op0zx)" height="112.0234" id="SatelliteSignalCheckRequest" style="stroke: #A80036; stroke-width: 1.5;" width="416" x="488" y="567"/><ellipse cx="602.25" cy="583" fill="#ADD1B2" rx="11" ry="11" style="stroke: #A80036; stroke-width: 1.0;"/><path d="M605.2188,588.6406 Q604.6406,588.9375 604,589.0781 Q603.3594,589.2344 602.6563,589.2344 Q600.1563,589.2344 598.8281,587.5938 Q597.5156,585.9375 597.5156,582.8125 Q597.5156,579.6875 598.8281,578.0313 Q600.1563,576.375 602.6563,576.375 Q603.3594,576.375 604,576.5313 Q604.6563,576.6875 605.2188,576.9844 L605.2188,579.7031 Q604.5938,579.125 604,578.8594 Q603.4063,578.5781 602.7813,578.5781 Q601.4375,578.5781 600.75,579.6563 Q600.0625,580.7188 600.0625,582.8125 Q600.0625,584.9063 600.75,585.9844 Q601.4375,587.0469 602.7813,587.0469 Q603.4063,587.0469 604,586.7813 Q604.5938,586.5 605.2188,585.9219 L605.2188,588.6406 Z "/><text fill="#000000" font-family="sans-serif" font-size="12" lengthAdjust="spacingAndGlyphs" textLength="179" x="622.75" y="587.1543">SatelliteSignalCheckRequest</text><line style="stroke: #A80036; stroke-width: 1.5;" x1="489" x2="903" y1="599" y2="599"/><rect fill="none" height="6" style="stroke: #C82930; stroke-width: 1.0;" width="6" x="496" y="607"/><text fill="#000000" font-family="sans-serif" font-size="11" lengthAdjust="spacingAndGlyphs" textLength="116" x="508" y="613.2104">String satelliteName</text><rect fill="none" height="6" style="stroke: #C82930; stroke-width: 1.0;" width="6" x="496" y="619.8047"/><text fill="#000000" font-family="sans-serif" font-size="11" lengthAdjust="spacingAndGlyphs" textLength="97" x="508" y="626.0151">String checkType</text><line style="stroke: #A80036; stroke-width: 1.5;" x1="489" x2="903" y1="632.6094" y2="632.6094"/><ellipse cx="499" cy="643.6094" fill="#84BE84" rx="3" ry="3" style="stroke: #038048; stroke-width: 1.0;"/><text fill="#000000" font-family="sans-serif" font-size="11" lengthAdjust="spacingAndGlyphs" textLength="390" x="508" y="646.8198">SatelliteSignalCheckRequest(String satelliteName, String checkType)</text><ellipse cx="499" cy="656.4141" fill="#84BE84" rx="3" ry="3" style="stroke: #038048; stroke-width: 1.0;"/><text fill="#000000" font-family="sans-serif" font-size="11" lengthAdjust="spacingAndGlyphs" textLength="143" x="508" y="659.6245">String getSatelliteName()</text><ellipse cx="499" cy="669.2188" fill="#84BE84" rx="3" ry="3" style="stroke: #038048; stroke-width: 1.0;"/><text fill="#000000" font-family="sans-serif" font-size="11" lengthAdjust="spacingAndGlyphs" textLength="125" x="508" y="672.4292">String getCheckType()</text><!--MD5=[5e11d977f08105e989255e48b5831e9e]
reverse link DisplayGpsInterface to DisplayGpsInterfaceImplementation--><path d="M237,212.11 C237,236.19 237,262.37 237,286.4 " fill="none" id="DisplayGpsInterface&lt;-DisplayGpsInterfaceImplementation" style="stroke: #A80036; stroke-width: 1.0; stroke-dasharray: 7.0,7.0;"/><polygon fill="none" points="230,212.02,237,192.02,244,212.02,230,212.02" style="stroke: #A80036; stroke-width: 1.0;"/><!--MD5=[15c92c2a2adf203ad041f33ed955827c]
link DisplayGpsInterfaceImplementation to SatelliteSignalCheckRequest--><path d="M357.56,457.65 C388.37,477.83 421.89,498.55 454,516 C485.79,533.27 520.96,549.96 554.41,564.79 " fill="none" id="DisplayGpsInterfaceImplementation-&gt;SatelliteSignalCheckRequest" style="stroke: #A80036; stroke-width: 1.0; stroke-dasharray: 7.0,7.0;"/><polygon fill="#A80036" points="559.33,566.97,552.7176,559.671,554.7574,564.9472,549.4812,566.9871,559.33,566.97" style="stroke: #A80036; stroke-width: 1.0;"/><!--MD5=[6be1e14f889006c5f08853113ab490e0]
reverse link DisplayGpsManager to DisplayGpsManagerImplementation--><path d="M696,199.65 C696,226.86 696,257.96 696,286.13 " fill="none" id="DisplayGpsManager&lt;-DisplayGpsManagerImplementation" style="stroke: #A80036; stroke-width: 1.0; stroke-dasharray: 7.0,7.0;"/><polygon fill="none" points="689,199.25,696,179.25,703,199.25,689,199.25" style="stroke: #A80036; stroke-width: 1.0;"/><!--MD5=[7c1409244f780a6c86a58e8dd70df14d]
link DisplayGpsManagerImplementation to SatelliteSignalCheckRequest--><path d="M696,457.65 C696,491.77 696,530.35 696,561.55 " fill="none" id="DisplayGpsManagerImplementation-&gt;SatelliteSignalCheckRequest" style="stroke: #A80036; stroke-width: 1.0; stroke-dasharray: 7.0,7.0;"/><polygon fill="#A80036" points="696,566.89,700,557.89,696,561.89,692,557.89,696,566.89" style="stroke: #A80036; stroke-width: 1.0;"/><!--MD5=[8f7561e34aa0d27a53c807a3ed854e00]
reverse link DisplayGpsReceiver to DisplayGpsReceiverImplementation--><path d="M1157,199.33 C1157,215.88 1157,233.89 1157,251.82 " fill="none" id="DisplayGpsReceiver&lt;-DisplayGpsReceiverImplementation" style="stroke: #A80036; stroke-width: 1.0; stroke-dasharray: 7.0,7.0;"/><polygon fill="none" points="1150,199.25,1157,179.25,1164,199.25,1150,199.25" style="stroke: #A80036; stroke-width: 1.0;"/><!--MD5=[7d553db02f4a507b6c7c602542b017ef]
link DisplayGpsReceiverImplementation to SatelliteSignalCheckRequest--><path d="M980.96,492.04 C966.93,500.43 952.83,508.52 939,516 C907.07,533.27 871.75,549.97 838.16,564.79 " fill="none" id="DisplayGpsReceiverImplementation-&gt;SatelliteSignalCheckRequest" style="stroke: #A80036; stroke-width: 1.0; stroke-dasharray: 7.0,7.0;"/><polygon fill="#A80036" points="833.22,566.97,843.0688,567.0128,837.7978,564.9592,839.8514,559.6882,833.22,566.97" style="stroke: #A80036; stroke-width: 1.0;"/><!--MD5=[ce3501cca65acefaf9efc87aa9743ea8]
@startuml Display01ProductionPackage_Closure

package edu.oakland.production.display01 {
    
}



package edu.oakland.production.display01 {
    interface DisplayGpsInterface {
        __
        .. Use Case 1 ..
        {abstract} + void receiveGpsSignal(Satellite satelliteSignal)
        .. Use Case 2 ..
        {abstract} + void reportGpsSignalLoss(String satelliteName)
        {abstract} + void recheckSignalStength(String satelliteName)
        {abstract} + void checkSignalStength(String satelliteName)
    }
}








package edu.oakland.production.display01 {
    interface DisplayGpsManager {
        __
        .. Use Case 1 ..
        {abstract} + String receiveGpsSignalStrength(Satellite satelliteSignal)
        .. Use Case 2 ..
        {abstract} + SatelliteSignalCheckRequest passGpsSignalStrength(String satelliteName)
    }
}








package edu.oakland.production.display01 {
    interface DisplayGpsReceiver {
        __
        .. Use Case 1 ..
        {abstract} + String measureGpsSignalStrength(Satellite satelliteSignal)
        .. Use Case 2 ..
        {abstract} + SatelliteSignalCheckRequest measureSignal(String satelliteName)
    }
}









package edu.oakland.production.display01 {
    class DisplayGpsInterfaceImplementation {
        - DisplayGpsReciever reciever
        __
        + DisplayGpsInterfaceImplementation(DisplayGpsReciever reciever)
        .. Use Case 1 ..
        + void receiveGpsSignal(Satellite satelliteSignal)
        .. Use Case 2 ..
        + void reportGpsSignalLoss(String satelliteName)
        + void recheckSignalStength(String satelliteName)
        + void checkSignalStength(String satelliteName)
        - int reportSignalStrength(String satelliteName)
    }
}


DisplayGpsInterfaceImplementation .up.|> DisplayGpsInterface



package edu.oakland.helper.display01 {
    class SatelliteSignalCheckRequest {
        - String satelliteName
        - String checkType
        + SatelliteSignalCheckRequest(String satelliteName, String checkType)
        + String getSatelliteName()
        + String getCheckType()
    }
}






DisplayGpsInterfaceImplementation ..> SatelliteSignalCheckRequest





package edu.oakland.production.display01 {
  class DisplayGpsManagerImplementation {
    - MiddlewareGisInterface middlewareGis
   __
    + DisplayGpsManagerImplementation(DisplayGpsManager manager)
    .. Use Case 1 ..
    + String receiveGpsSignalStrength(Satellite satelliteSignal)
    + boolean EvaluateGpsSignalStrengths(int signalStrengh)
    + void passGpsSignalStrength(int signalStrength)
    .. Use Case 2 ..
    + String receiveGpsSignalStrength(Satellite signal)
    + SatelliteSignalCheckRequest passGpsSignalStrength(String satelliteName)
    }
}


DisplayGpsManagerImplementation .up.|> DisplayGpsManager

DisplayGpsManagerImplementation ..> SatelliteSignalCheckRequest





package edu.oakland.production.display01 {
    class DisplayGpsReceiverImplementation {
        
        DisplayGpsManager manager

        .. Use Case 1 ..
        
        + String measureGpsSignalStrength(Satellite satelliteSignal)
        
        - void passSignalStrength(int signalStrength)

        .. Use Case 2 ..
        
        + String measureGpsSignalStrength(Satellite satelliteSignal)
        
        + SatelliteSignalCheckRequest measureSignal(String satelliteName)

    }
}


DisplayGpsReceiverImplementation .up.|> DisplayGpsReceiver

DisplayGpsReceiverImplementation ..> SatelliteSignalCheckRequest




@enduml

PlantUML version 1.2020.02(Sun Mar 01 10:22:07 GMT 2020)
(GPL source distribution)
Java Runtime: OpenJDK Runtime Environment
JVM: OpenJDK 64-Bit Server VM
Java Version: 11.0.9+11-Ubuntu-0ubuntu1
Operating System: Linux
Default Encoding: ANSI_X3.4-1968
Language: en
Country: US
--></g></svg>