<?xml version="1.0" encoding="UTF-8" standalone="no"?><svg xmlns="http://www.w3.org/2000/svg" xmlns:xlink="http://www.w3.org/1999/xlink" contentScriptType="application/ecmascript" contentStyleType="text/css" height="245px" preserveAspectRatio="none" style="width:618px;height:245px;" version="1.1" viewBox="0 0 618 245" width="618px" zoomAndPan="magnify"><defs><filter height="300%" id="f1gkjp8s8vkttl" width="300%" x="-1" y="-1"><feGaussianBlur result="blurOut" stdDeviation="2.0"/><feColorMatrix in="blurOut" result="blurOut2" type="matrix" values="0 0 0 0 0 0 0 0 0 0 0 0 0 0 0 0 0 0 .4 0"/><feOffset dx="4.0" dy="4.0" in="blurOut2" result="blurOut3"/><feBlend in="SourceGraphic" in2="blurOut3" mode="normal"/></filter></defs><g><!--MD5=[3f116dbe56326f0321b4f8703f3bd2bd]
cluster edu.oakland.production.middleware01--><polygon fill="#FFFFFF" filter="url(#f1gkjp8s8vkttl)" points="22,24,332,24,339,46.2969,596,46.2969,596,233,22,233,22,24" style="stroke: #000000; stroke-width: 1.5;"/><line style="stroke: #000000; stroke-width: 1.5;" x1="22" x2="339" y1="46.2969" y2="46.2969"/><text fill="#000000" font-family="sans-serif" font-size="14" font-weight="bold" lengthAdjust="spacingAndGlyphs" textLength="304" x="26" y="38.9951">edu.oakland.production.middleware01</text><!--MD5=[95fb96a46a83d39a2e18236f313a92fb]
class MiddlewareGisManagerImplementation--><rect fill="#FEFECE" filter="url(#f1gkjp8s8vkttl)" height="158.4375" id="MiddlewareGisManagerImplementation" style="stroke: #A80036; stroke-width: 1.5;" width="542" x="38" y="59"/><ellipse cx="184.25" cy="75" fill="#ADD1B2" rx="11" ry="11" style="stroke: #A80036; stroke-width: 1.0;"/><path d="M187.2188,80.6406 Q186.6406,80.9375 186,81.0781 Q185.3594,81.2344 184.6563,81.2344 Q182.1563,81.2344 180.8281,79.5938 Q179.5156,77.9375 179.5156,74.8125 Q179.5156,71.6875 180.8281,70.0313 Q182.1563,68.375 184.6563,68.375 Q185.3594,68.375 186,68.5313 Q186.6563,68.6875 187.2188,68.9844 L187.2188,71.7031 Q186.5938,71.125 186,70.8594 Q185.4063,70.5781 184.7813,70.5781 Q183.4375,70.5781 182.75,71.6563 Q182.0625,72.7188 182.0625,74.8125 Q182.0625,76.9063 182.75,77.9844 Q183.4375,79.0469 184.7813,79.0469 Q185.4063,79.0469 186,78.7813 Q186.5938,78.5 187.2188,77.9219 L187.2188,80.6406 Z "/><text fill="#000000" font-family="sans-serif" font-size="12" lengthAdjust="spacingAndGlyphs" textLength="241" x="204.75" y="79.1543">MiddlewareGisManagerImplementation</text><line style="stroke: #A80036; stroke-width: 1.5;" x1="39" x2="579" y1="91" y2="91"/><rect fill="none" height="6" style="stroke: #C82930; stroke-width: 1.0;" width="6" x="46" y="99"/><text fill="#000000" font-family="sans-serif" font-size="11" lengthAdjust="spacingAndGlyphs" textLength="288" x="58" y="105.2104">MiddlewareGisProcessor middlewareGisProcessor</text><line style="stroke: #A80036; stroke-width: 1.5;" x1="39" x2="579" y1="111.8047" y2="111.8047"/><ellipse cx="49" cy="122.8047" fill="#84BE84" rx="3" ry="3" style="stroke: #038048; stroke-width: 1.0;"/><text fill="#000000" font-family="sans-serif" font-size="11" lengthAdjust="spacingAndGlyphs" textLength="516" x="58" y="126.0151">MiddlewareGisManagerImplementation(MiddlewareGisProcessor middlewareGisProcessor)</text><ellipse cx="49" cy="152.4141" fill="#84BE84" rx="3" ry="3" style="stroke: #038048; stroke-width: 1.0;"/><text fill="#000000" font-family="sans-serif" font-size="11" lengthAdjust="spacingAndGlyphs" textLength="331" x="58" y="155.6245">String receieveGpsSignalStrength(Satellite satelliteSignal)</text><ellipse cx="49" cy="165.2188" fill="#84BE84" rx="3" ry="3" style="stroke: #038048; stroke-width: 1.0;"/><text fill="#000000" font-family="sans-serif" font-size="11" lengthAdjust="spacingAndGlyphs" textLength="166" x="58" y="168.4292">void storeLocationDataPoint()</text><line style="stroke: #A80036; stroke-width: 1.0; stroke-dasharray: 1.0,2.0;" x1="39" x2="276" y1="139.0117" y2="139.0117"/><text fill="#000000" font-family="sans-serif" font-size="11" lengthAdjust="spacingAndGlyphs" textLength="66" x="276" y="142.3198">Use Case 1</text><line style="stroke: #A80036; stroke-width: 1.0; stroke-dasharray: 1.0,2.0;" x1="342" x2="579" y1="139.0117" y2="139.0117"/><ellipse cx="49" cy="194.8281" fill="#84BE84" rx="3" ry="3" style="stroke: #038048; stroke-width: 1.0;"/><text fill="#000000" font-family="sans-serif" font-size="11" lengthAdjust="spacingAndGlyphs" textLength="306" x="58" y="198.0386">String attemptToRegainGpsLock(String satelliteName)</text><ellipse cx="49" cy="207.6328" fill="#84BE84" rx="3" ry="3" style="stroke: #038048; stroke-width: 1.0;"/><text fill="#000000" font-family="sans-serif" font-size="11" lengthAdjust="spacingAndGlyphs" textLength="311" x="58" y="210.8433">String evaluateGpsSignalStrength(boolean signalValid)</text><line style="stroke: #A80036; stroke-width: 1.0; stroke-dasharray: 1.0,2.0;" x1="39" x2="276" y1="181.4258" y2="181.4258"/><text fill="#000000" font-family="sans-serif" font-size="11" lengthAdjust="spacingAndGlyphs" textLength="66" x="276" y="184.7339">Use Case 2</text><line style="stroke: #A80036; stroke-width: 1.0; stroke-dasharray: 1.0,2.0;" x1="342" x2="579" y1="181.4258" y2="181.4258"/><!--MD5=[dd26dfc78edd409c22e2afb8e9a4cc1c]
@startuml MiddlewareGisManagerImplementation

package edu.oakland.production.middleware01 {
    class MiddlewareGisManagerImplementation {
        - MiddlewareGisProcessor middlewareGisProcessor
        __
        + MiddlewareGisManagerImplementation(MiddlewareGisProcessor middlewareGisProcessor)
        .. Use Case 1 ..
        + String receieveGpsSignalStrength(Satellite satelliteSignal)
        + void storeLocationDataPoint()
        .. Use Case 2 ..
        + String attemptToRegainGpsLock(String satelliteName)
        + String evaluateGpsSignalStrength(boolean signalValid)
    }
}

@enduml

PlantUML version 1.2020.02(Sun Mar 01 10:22:07 GMT 2020)
(GPL source distribution)
Java Runtime: OpenJDK Runtime Environment
JVM: OpenJDK 64-Bit Server VM
Java Version: 11.0.9+11-Ubuntu-0ubuntu1
Operating System: Linux
Default Encoding: ANSI_X3.4-1968
Language: en
Country: US
--></g></svg>