<?xml version="1.0" encoding="UTF-8" standalone="no"?><svg xmlns="http://www.w3.org/2000/svg" xmlns:xlink="http://www.w3.org/1999/xlink" contentScriptType="application/ecmascript" contentStyleType="text/css" height="618px" preserveAspectRatio="none" style="width:3125px;height:618px;" version="1.1" viewBox="0 0 3125 618" width="3125px" zoomAndPan="magnify"><defs><filter height="300%" id="fkfb6lmxi4hc9" width="300%" x="-1" y="-1"><feGaussianBlur result="blurOut" stdDeviation="2.0"/><feColorMatrix in="blurOut" result="blurOut2" type="matrix" values="0 0 0 0 0 0 0 0 0 0 0 0 0 0 0 0 0 0 .4 0"/><feOffset dx="4.0" dy="4.0" in="blurOut2" result="blurOut3"/><feBlend in="SourceGraphic" in2="blurOut3" mode="normal"/></filter></defs><g><!--MD5=[3e281e6f49e0b185d62a106a5d994a08]
cluster edu.oakland.production.display01--><polygon fill="#FFFFFF" filter="url(#fkfb6lmxi4hc9)" points="22,24,295,24,302,46.2969,1394,46.2969,1394,439,22,439,22,24" style="stroke: #000000; stroke-width: 1.5;"/><line style="stroke: #000000; stroke-width: 1.5;" x1="22" x2="302" y1="46.2969" y2="46.2969"/><text fill="#000000" font-family="sans-serif" font-size="14" font-weight="bold" lengthAdjust="spacingAndGlyphs" textLength="267" x="26" y="38.9951">edu.oakland.production.display01</text><!--MD5=[9181924624f655b87cae45fec5f93c8d]
cluster edu.oakland.test.display01--><polygon fill="#FFFFFF" filter="url(#fkfb6lmxi4hc9)" points="1418,47.5,1636,47.5,1643,69.7969,2631,69.7969,2631,606,1418,606,1418,47.5" style="stroke: #000000; stroke-width: 1.5;"/><line style="stroke: #000000; stroke-width: 1.5;" x1="1418" x2="1643" y1="69.7969" y2="69.7969"/><text fill="#000000" font-family="sans-serif" font-size="14" font-weight="bold" lengthAdjust="spacingAndGlyphs" textLength="212" x="1422" y="62.4951">edu.oakland.test.display01</text><!--MD5=[d02020cdc9562d037d87b751d110dd8b]
cluster edu.oakland.helper.display01--><polygon fill="#FFFFFF" filter="url(#fkfb6lmxi4hc9)" points="2655,34.5,2893,34.5,2900,56.7969,3103,56.7969,3103,197.5,2655,197.5,2655,34.5" style="stroke: #000000; stroke-width: 1.5;"/><line style="stroke: #000000; stroke-width: 1.5;" x1="2655" x2="2900" y1="56.7969" y2="56.7969"/><text fill="#000000" font-family="sans-serif" font-size="14" font-weight="bold" lengthAdjust="spacingAndGlyphs" textLength="232" x="2659" y="49.4951">edu.oakland.helper.display01</text><!--MD5=[fa6248c05b5a852ecd50b5411f159754]
class DisplayGpsInterface--><rect fill="#FEFECE" filter="url(#fkfb6lmxi4hc9)" height="132.8281" id="DisplayGpsInterface" style="stroke: #A80036; stroke-width: 1.5;" width="297" x="88.5" y="59"/><ellipse cx="170.75" cy="75" fill="#B4A7E5" rx="11" ry="11" style="stroke: #A80036; stroke-width: 1.0;"/><path d="M166.6719,70.7656 L166.6719,68.6094 L174.0625,68.6094 L174.0625,70.7656 L171.5938,70.7656 L171.5938,78.8438 L174.0625,78.8438 L174.0625,81 L166.6719,81 L166.6719,78.8438 L169.1406,78.8438 L169.1406,70.7656 L166.6719,70.7656 Z "/><text fill="#000000" font-family="sans-serif" font-size="12" font-style="italic" lengthAdjust="spacingAndGlyphs" textLength="124" x="191.25" y="79.1543">DisplayGpsInterface</text><line style="stroke: #A80036; stroke-width: 1.5;" x1="89.5" x2="384.5" y1="91" y2="91"/><line style="stroke: #A80036; stroke-width: 1.5;" x1="89.5" x2="384.5" y1="99" y2="99"/><ellipse cx="99.5" cy="126.8047" fill="#84BE84" rx="3" ry="3" style="stroke: #038048; stroke-width: 1.0;"/><text fill="#000000" font-family="sans-serif" font-size="11" font-style="italic" lengthAdjust="spacingAndGlyphs" textLength="261" x="108.5" y="130.0151">void receiveGpsSignal(Satellite satelliteSignal)</text><line style="stroke: #A80036; stroke-width: 1.0; stroke-dasharray: 1.0,2.0;" x1="89.5" x2="204" y1="113.4023" y2="113.4023"/><text fill="#000000" font-family="sans-serif" font-size="11" lengthAdjust="spacingAndGlyphs" textLength="66" x="204" y="116.7104">Use Case 1</text><line style="stroke: #A80036; stroke-width: 1.0; stroke-dasharray: 1.0,2.0;" x1="270" x2="384.5" y1="113.4023" y2="113.4023"/><ellipse cx="99.5" cy="156.4141" fill="#84BE84" rx="3" ry="3" style="stroke: #038048; stroke-width: 1.0;"/><text fill="#000000" font-family="sans-serif" font-size="11" font-style="italic" lengthAdjust="spacingAndGlyphs" textLength="266" x="108.5" y="159.6245">void reportGpsSignalLoss(String satelliteName)</text><ellipse cx="99.5" cy="169.2188" fill="#84BE84" rx="3" ry="3" style="stroke: #038048; stroke-width: 1.0;"/><text fill="#000000" font-family="sans-serif" font-size="11" font-style="italic" lengthAdjust="spacingAndGlyphs" textLength="271" x="108.5" y="172.4292">void recheckSignalStength(String satelliteName)</text><ellipse cx="99.5" cy="182.0234" fill="#84BE84" rx="3" ry="3" style="stroke: #038048; stroke-width: 1.0;"/><text fill="#000000" font-family="sans-serif" font-size="11" font-style="italic" lengthAdjust="spacingAndGlyphs" textLength="259" x="108.5" y="185.2339">void checkSignalStength(String satelliteName)</text><line style="stroke: #A80036; stroke-width: 1.0; stroke-dasharray: 1.0,2.0;" x1="89.5" x2="204" y1="143.0117" y2="143.0117"/><text fill="#000000" font-family="sans-serif" font-size="11" lengthAdjust="spacingAndGlyphs" textLength="66" x="204" y="146.3198">Use Case 2</text><line style="stroke: #A80036; stroke-width: 1.0; stroke-dasharray: 1.0,2.0;" x1="270" x2="384.5" y1="143.0117" y2="143.0117"/><!--MD5=[319273309e4c56bac150542a32321bb2]
class DisplayGpsReceiver--><rect fill="#FEFECE" filter="url(#fkfb6lmxi4hc9)" height="107.2188" id="DisplayGpsReceiver" style="stroke: #A80036; stroke-width: 1.5;" width="408" x="421" y="72"/><ellipse cx="560.75" cy="88" fill="#B4A7E5" rx="11" ry="11" style="stroke: #A80036; stroke-width: 1.0;"/><path d="M556.6719,83.7656 L556.6719,81.6094 L564.0625,81.6094 L564.0625,83.7656 L561.5938,83.7656 L561.5938,91.8438 L564.0625,91.8438 L564.0625,94 L556.6719,94 L556.6719,91.8438 L559.1406,91.8438 L559.1406,83.7656 L556.6719,83.7656 Z "/><text fill="#000000" font-family="sans-serif" font-size="12" font-style="italic" lengthAdjust="spacingAndGlyphs" textLength="120" x="581.25" y="92.1543">DisplayGpsReceiver</text><line style="stroke: #A80036; stroke-width: 1.5;" x1="422" x2="828" y1="104" y2="104"/><line style="stroke: #A80036; stroke-width: 1.5;" x1="422" x2="828" y1="112" y2="112"/><ellipse cx="432" cy="139.8047" fill="#84BE84" rx="3" ry="3" style="stroke: #038048; stroke-width: 1.0;"/><text fill="#000000" font-family="sans-serif" font-size="11" font-style="italic" lengthAdjust="spacingAndGlyphs" textLength="326" x="441" y="143.0151">String measureGpsSignalStrength(Satellite satelliteSignal)</text><line style="stroke: #A80036; stroke-width: 1.0; stroke-dasharray: 1.0,2.0;" x1="422" x2="592" y1="126.4023" y2="126.4023"/><text fill="#000000" font-family="sans-serif" font-size="11" lengthAdjust="spacingAndGlyphs" textLength="66" x="592" y="129.7104">Use Case 1</text><line style="stroke: #A80036; stroke-width: 1.0; stroke-dasharray: 1.0,2.0;" x1="658" x2="828" y1="126.4023" y2="126.4023"/><ellipse cx="432" cy="169.4141" fill="#84BE84" rx="3" ry="3" style="stroke: #038048; stroke-width: 1.0;"/><text fill="#000000" font-family="sans-serif" font-size="11" font-style="italic" lengthAdjust="spacingAndGlyphs" textLength="382" x="441" y="172.6245">SatelliteSignalCheckRequest measureSignal(Satellite satelliteSignal)</text><line style="stroke: #A80036; stroke-width: 1.0; stroke-dasharray: 1.0,2.0;" x1="422" x2="592" y1="156.0117" y2="156.0117"/><text fill="#000000" font-family="sans-serif" font-size="11" lengthAdjust="spacingAndGlyphs" textLength="66" x="592" y="159.3198">Use Case 2</text><line style="stroke: #A80036; stroke-width: 1.0; stroke-dasharray: 1.0,2.0;" x1="658" x2="828" y1="156.0117" y2="156.0117"/><!--MD5=[31cbac78761b59e73153a97a452ed09a]
class DisplayGpsManager--><rect fill="#FEFECE" filter="url(#fkfb6lmxi4hc9)" height="107.2188" id="DisplayGpsManager" style="stroke: #A80036; stroke-width: 1.5;" width="441" x="864.5" y="72"/><ellipse cx="1019.75" cy="88" fill="#B4A7E5" rx="11" ry="11" style="stroke: #A80036; stroke-width: 1.0;"/><path d="M1015.6719,83.7656 L1015.6719,81.6094 L1023.0625,81.6094 L1023.0625,83.7656 L1020.5938,83.7656 L1020.5938,91.8438 L1023.0625,91.8438 L1023.0625,94 L1015.6719,94 L1015.6719,91.8438 L1018.1406,91.8438 L1018.1406,83.7656 L1015.6719,83.7656 Z "/><text fill="#000000" font-family="sans-serif" font-size="12" font-style="italic" lengthAdjust="spacingAndGlyphs" textLength="122" x="1040.25" y="92.1543">DisplayGpsManager</text><line style="stroke: #A80036; stroke-width: 1.5;" x1="865.5" x2="1304.5" y1="104" y2="104"/><line style="stroke: #A80036; stroke-width: 1.5;" x1="865.5" x2="1304.5" y1="112" y2="112"/><ellipse cx="875.5" cy="139.8047" fill="#84BE84" rx="3" ry="3" style="stroke: #038048; stroke-width: 1.0;"/><text fill="#000000" font-family="sans-serif" font-size="11" font-style="italic" lengthAdjust="spacingAndGlyphs" textLength="318" x="884.5" y="143.0151">String receiveGpsSignalStrength(Satellite satelliteSignal)</text><line style="stroke: #A80036; stroke-width: 1.0; stroke-dasharray: 1.0,2.0;" x1="865.5" x2="1052" y1="126.4023" y2="126.4023"/><text fill="#000000" font-family="sans-serif" font-size="11" lengthAdjust="spacingAndGlyphs" textLength="66" x="1052" y="129.7104">Use Case 1</text><line style="stroke: #A80036; stroke-width: 1.0; stroke-dasharray: 1.0,2.0;" x1="1118" x2="1304.5" y1="126.4023" y2="126.4023"/><ellipse cx="875.5" cy="169.4141" fill="#84BE84" rx="3" ry="3" style="stroke: #038048; stroke-width: 1.0;"/><text fill="#000000" font-family="sans-serif" font-size="11" font-style="italic" lengthAdjust="spacingAndGlyphs" textLength="415" x="884.5" y="172.6245">SatelliteSignalCheckRequest passGpsSignalStrength(String satelliteName)</text><line style="stroke: #A80036; stroke-width: 1.0; stroke-dasharray: 1.0,2.0;" x1="865.5" x2="1052" y1="156.0117" y2="156.0117"/><text fill="#000000" font-family="sans-serif" font-size="11" lengthAdjust="spacingAndGlyphs" textLength="66" x="1052" y="159.3198">Use Case 2</text><line style="stroke: #A80036; stroke-width: 1.0; stroke-dasharray: 1.0,2.0;" x1="1118" x2="1304.5" y1="156.0117" y2="156.0117"/><!--MD5=[6376794c08ca75f6fa530286e1e32b13]
class DisplayGpsInterfaceImplementation--><rect fill="#FEFECE" filter="url(#fkfb6lmxi4hc9)" height="171.2422" id="DisplayGpsInterfaceImplementation" style="stroke: #A80036; stroke-width: 1.5;" width="398" x="38" y="252"/><ellipse cx="122.25" cy="268" fill="#ADD1B2" rx="11" ry="11" style="stroke: #A80036; stroke-width: 1.0;"/><path d="M125.2188,273.6406 Q124.6406,273.9375 124,274.0781 Q123.3594,274.2344 122.6563,274.2344 Q120.1563,274.2344 118.8281,272.5938 Q117.5156,270.9375 117.5156,267.8125 Q117.5156,264.6875 118.8281,263.0313 Q120.1563,261.375 122.6563,261.375 Q123.3594,261.375 124,261.5313 Q124.6563,261.6875 125.2188,261.9844 L125.2188,264.7031 Q124.5938,264.125 124,263.8594 Q123.4063,263.5781 122.7813,263.5781 Q121.4375,263.5781 120.75,264.6563 Q120.0625,265.7188 120.0625,267.8125 Q120.0625,269.9063 120.75,270.9844 Q121.4375,272.0469 122.7813,272.0469 Q123.4063,272.0469 124,271.7813 Q124.5938,271.5 125.2188,270.9219 L125.2188,273.6406 Z "/><text fill="#000000" font-family="sans-serif" font-size="12" lengthAdjust="spacingAndGlyphs" textLength="221" x="142.75" y="272.1543">DisplayGpsInterfaceImplementation</text><line style="stroke: #A80036; stroke-width: 1.5;" x1="39" x2="435" y1="284" y2="284"/><rect fill="none" height="6" style="stroke: #C82930; stroke-width: 1.0;" width="6" x="46" y="292"/><text fill="#000000" font-family="sans-serif" font-size="11" lengthAdjust="spacingAndGlyphs" textLength="162" x="58" y="298.2104">DisplayGpsReciever reciever</text><line style="stroke: #A80036; stroke-width: 1.5;" x1="39" x2="435" y1="304.8047" y2="304.8047"/><ellipse cx="49" cy="315.8047" fill="#84BE84" rx="3" ry="3" style="stroke: #038048; stroke-width: 1.0;"/><text fill="#000000" font-family="sans-serif" font-size="11" lengthAdjust="spacingAndGlyphs" textLength="372" x="58" y="319.0151">DisplayGpsInterfaceImplementation(DisplayGpsReciever reciever)</text><ellipse cx="49" cy="345.4141" fill="#84BE84" rx="3" ry="3" style="stroke: #038048; stroke-width: 1.0;"/><text fill="#000000" font-family="sans-serif" font-size="11" lengthAdjust="spacingAndGlyphs" textLength="264" x="58" y="348.6245">void receiveGpsSignal(Satellite satelliteSignal)</text><line style="stroke: #A80036; stroke-width: 1.0; stroke-dasharray: 1.0,2.0;" x1="39" x2="204" y1="332.0117" y2="332.0117"/><text fill="#000000" font-family="sans-serif" font-size="11" lengthAdjust="spacingAndGlyphs" textLength="66" x="204" y="335.3198">Use Case 1</text><line style="stroke: #A80036; stroke-width: 1.0; stroke-dasharray: 1.0,2.0;" x1="270" x2="435" y1="332.0117" y2="332.0117"/><ellipse cx="49" cy="375.0234" fill="#84BE84" rx="3" ry="3" style="stroke: #038048; stroke-width: 1.0;"/><text fill="#000000" font-family="sans-serif" font-size="11" lengthAdjust="spacingAndGlyphs" textLength="271" x="58" y="378.2339">void reportGpsSignalLoss(String satelliteName)</text><ellipse cx="49" cy="387.8281" fill="#84BE84" rx="3" ry="3" style="stroke: #038048; stroke-width: 1.0;"/><text fill="#000000" font-family="sans-serif" font-size="11" lengthAdjust="spacingAndGlyphs" textLength="274" x="58" y="391.0386">void recheckSignalStength(String satelliteName)</text><ellipse cx="49" cy="400.6328" fill="#84BE84" rx="3" ry="3" style="stroke: #038048; stroke-width: 1.0;"/><text fill="#000000" font-family="sans-serif" font-size="11" lengthAdjust="spacingAndGlyphs" textLength="262" x="58" y="403.8433">void checkSignalStength(String satelliteName)</text><rect fill="#F24D5C" height="6" style="stroke: #C82930; stroke-width: 1.0;" width="6" x="46" y="410.4375"/><text fill="#000000" font-family="sans-serif" font-size="11" lengthAdjust="spacingAndGlyphs" textLength="261" x="58" y="416.6479">int reportSignalStrength(String satelliteName)</text><line style="stroke: #A80036; stroke-width: 1.0; stroke-dasharray: 1.0,2.0;" x1="39" x2="204" y1="361.6211" y2="361.6211"/><text fill="#000000" font-family="sans-serif" font-size="11" lengthAdjust="spacingAndGlyphs" textLength="66" x="204" y="364.9292">Use Case 2</text><line style="stroke: #A80036; stroke-width: 1.0; stroke-dasharray: 1.0,2.0;" x1="270" x2="435" y1="361.6211" y2="361.6211"/><!--MD5=[02b25ee3f711f666678619f4b81f3681]
class DisplayGpsReceiverImplementation--><rect fill="#FEFECE" filter="url(#fkfb6lmxi4hc9)" height="158.4375" id="DisplayGpsReceiverImplementation" style="stroke: #A80036; stroke-width: 1.5;" width="415" x="471.5" y="258.5"/><ellipse cx="565.75" cy="274.5" fill="#ADD1B2" rx="11" ry="11" style="stroke: #A80036; stroke-width: 1.0;"/><path d="M568.7188,280.1406 Q568.1406,280.4375 567.5,280.5781 Q566.8594,280.7344 566.1563,280.7344 Q563.6563,280.7344 562.3281,279.0938 Q561.0156,277.4375 561.0156,274.3125 Q561.0156,271.1875 562.3281,269.5313 Q563.6563,267.875 566.1563,267.875 Q566.8594,267.875 567.5,268.0313 Q568.1563,268.1875 568.7188,268.4844 L568.7188,271.2031 Q568.0938,270.625 567.5,270.3594 Q566.9063,270.0781 566.2813,270.0781 Q564.9375,270.0781 564.25,271.1563 Q563.5625,272.2188 563.5625,274.3125 Q563.5625,276.4063 564.25,277.4844 Q564.9375,278.5469 566.2813,278.5469 Q566.9063,278.5469 567.5,278.2813 Q568.0938,278 568.7188,277.4219 L568.7188,280.1406 Z "/><text fill="#000000" font-family="sans-serif" font-size="12" lengthAdjust="spacingAndGlyphs" textLength="218" x="586.25" y="278.6543">DisplayGpsReceiverImplementation</text><line style="stroke: #A80036; stroke-width: 1.5;" x1="472.5" x2="885.5" y1="290.5" y2="290.5"/><rect fill="none" height="6" style="stroke: #C82930; stroke-width: 1.0;" width="6" x="479.5" y="298.5"/><text fill="#000000" font-family="sans-serif" font-size="11" lengthAdjust="spacingAndGlyphs" textLength="168" x="491.5" y="304.7104">DisplayGpsManager manager</text><line style="stroke: #A80036; stroke-width: 1.5;" x1="472.5" x2="885.5" y1="311.3047" y2="311.3047"/><ellipse cx="482.5" cy="322.3047" fill="#84BE84" rx="3" ry="3" style="stroke: #038048; stroke-width: 1.0;"/><text fill="#000000" font-family="sans-serif" font-size="11" lengthAdjust="spacingAndGlyphs" textLength="376" x="491.5" y="325.5151">DisplayGpsReceiverImplementation(DisplayGpsManager manager)</text><ellipse cx="482.5" cy="351.9141" fill="#84BE84" rx="3" ry="3" style="stroke: #038048; stroke-width: 1.0;"/><text fill="#000000" font-family="sans-serif" font-size="11" lengthAdjust="spacingAndGlyphs" textLength="334" x="491.5" y="355.1245">String measureGpsSignalStrength(Satellite satelliteSignal)</text><rect fill="#F24D5C" height="6" style="stroke: #C82930; stroke-width: 1.0;" width="6" x="479.5" y="361.7188"/><text fill="#000000" font-family="sans-serif" font-size="11" lengthAdjust="spacingAndGlyphs" textLength="248" x="491.5" y="367.9292">void passSignalStrength(int signalStrength)</text><line style="stroke: #A80036; stroke-width: 1.0; stroke-dasharray: 1.0,2.0;" x1="472.5" x2="646" y1="338.5117" y2="338.5117"/><text fill="#000000" font-family="sans-serif" font-size="11" lengthAdjust="spacingAndGlyphs" textLength="66" x="646" y="341.8198">Use Case 1</text><line style="stroke: #A80036; stroke-width: 1.0; stroke-dasharray: 1.0,2.0;" x1="712" x2="885.5" y1="338.5117" y2="338.5117"/><ellipse cx="482.5" cy="394.3281" fill="#84BE84" rx="3" ry="3" style="stroke: #038048; stroke-width: 1.0;"/><text fill="#000000" font-family="sans-serif" font-size="11" lengthAdjust="spacingAndGlyphs" textLength="334" x="491.5" y="397.5386">String measureGpsSignalStrength(Satellite satelliteSignal)</text><ellipse cx="482.5" cy="407.1328" fill="#84BE84" rx="3" ry="3" style="stroke: #038048; stroke-width: 1.0;"/><text fill="#000000" font-family="sans-serif" font-size="11" lengthAdjust="spacingAndGlyphs" textLength="389" x="491.5" y="410.3433">SatelliteSignalCheckRequest measureSignal(Satellite satelliteSignal)</text><line style="stroke: #A80036; stroke-width: 1.0; stroke-dasharray: 1.0,2.0;" x1="472.5" x2="646" y1="380.9258" y2="380.9258"/><text fill="#000000" font-family="sans-serif" font-size="11" lengthAdjust="spacingAndGlyphs" textLength="66" x="646" y="384.2339">Use Case 2</text><line style="stroke: #A80036; stroke-width: 1.0; stroke-dasharray: 1.0,2.0;" x1="712" x2="885.5" y1="380.9258" y2="380.9258"/><!--MD5=[85db0a5b69c4b55d7b0101612d8a7890]
class DisplayGpsManagerImplementation--><rect fill="#FEFECE" filter="url(#fkfb6lmxi4hc9)" height="171.2422" id="DisplayGpsManagerImplementation" style="stroke: #A80036; stroke-width: 1.5;" width="457" x="921.5" y="252"/><ellipse cx="1035.75" cy="268" fill="#ADD1B2" rx="11" ry="11" style="stroke: #A80036; stroke-width: 1.0;"/><path d="M1038.7188,273.6406 Q1038.1406,273.9375 1037.5,274.0781 Q1036.8594,274.2344 1036.1563,274.2344 Q1033.6563,274.2344 1032.3281,272.5938 Q1031.0156,270.9375 1031.0156,267.8125 Q1031.0156,264.6875 1032.3281,263.0313 Q1033.6563,261.375 1036.1563,261.375 Q1036.8594,261.375 1037.5,261.5313 Q1038.1563,261.6875 1038.7188,261.9844 L1038.7188,264.7031 Q1038.0938,264.125 1037.5,263.8594 Q1036.9063,263.5781 1036.2813,263.5781 Q1034.9375,263.5781 1034.25,264.6563 Q1033.5625,265.7188 1033.5625,267.8125 Q1033.5625,269.9063 1034.25,270.9844 Q1034.9375,272.0469 1036.2813,272.0469 Q1036.9063,272.0469 1037.5,271.7813 Q1038.0938,271.5 1038.7188,270.9219 L1038.7188,273.6406 Z "/><text fill="#000000" font-family="sans-serif" font-size="12" lengthAdjust="spacingAndGlyphs" textLength="220" x="1056.25" y="272.1543">DisplayGpsManagerImplementation</text><line style="stroke: #A80036; stroke-width: 1.5;" x1="922.5" x2="1377.5" y1="284" y2="284"/><rect fill="none" height="6" style="stroke: #C82930; stroke-width: 1.0;" width="6" x="929.5" y="292"/><text fill="#000000" font-family="sans-serif" font-size="11" lengthAdjust="spacingAndGlyphs" textLength="222" x="941.5" y="298.2104">MiddlewareGisInterface middlewareGis</text><line style="stroke: #A80036; stroke-width: 1.5;" x1="922.5" x2="1377.5" y1="304.8047" y2="304.8047"/><ellipse cx="932.5" cy="315.8047" fill="#84BE84" rx="3" ry="3" style="stroke: #038048; stroke-width: 1.0;"/><text fill="#000000" font-family="sans-serif" font-size="11" lengthAdjust="spacingAndGlyphs" textLength="431" x="941.5" y="319.0151">DisplayGpsManagerImplementation(MiddlewareGisInterface middlewareGis)</text><ellipse cx="932.5" cy="345.4141" fill="#84BE84" rx="3" ry="3" style="stroke: #038048; stroke-width: 1.0;"/><text fill="#000000" font-family="sans-serif" font-size="11" lengthAdjust="spacingAndGlyphs" textLength="324" x="941.5" y="348.6245">String receiveGpsSignalStrength(Satellite satelliteSignal)</text><ellipse cx="932.5" cy="358.2188" fill="#84BE84" rx="3" ry="3" style="stroke: #038048; stroke-width: 1.0;"/><text fill="#000000" font-family="sans-serif" font-size="11" lengthAdjust="spacingAndGlyphs" textLength="316" x="941.5" y="361.4292">boolean EvaluateGpsSignalStrengths(int signalStrengh)</text><ellipse cx="932.5" cy="371.0234" fill="#84BE84" rx="3" ry="3" style="stroke: #038048; stroke-width: 1.0;"/><text fill="#000000" font-family="sans-serif" font-size="11" lengthAdjust="spacingAndGlyphs" textLength="271" x="941.5" y="374.2339">void passGpsSignalStrength(int signalStrength)</text><line style="stroke: #A80036; stroke-width: 1.0; stroke-dasharray: 1.0,2.0;" x1="922.5" x2="1117" y1="332.0117" y2="332.0117"/><text fill="#000000" font-family="sans-serif" font-size="11" lengthAdjust="spacingAndGlyphs" textLength="66" x="1117" y="335.3198">Use Case 1</text><line style="stroke: #A80036; stroke-width: 1.0; stroke-dasharray: 1.0,2.0;" x1="1183" x2="1377.5" y1="332.0117" y2="332.0117"/><ellipse cx="932.5" cy="400.6328" fill="#84BE84" rx="3" ry="3" style="stroke: #038048; stroke-width: 1.0;"/><text fill="#000000" font-family="sans-serif" font-size="11" lengthAdjust="spacingAndGlyphs" textLength="278" x="941.5" y="403.8433">String receiveGpsSignalStrength(Satellite signal)</text><ellipse cx="932.5" cy="413.4375" fill="#84BE84" rx="3" ry="3" style="stroke: #038048; stroke-width: 1.0;"/><text fill="#000000" font-family="sans-serif" font-size="11" lengthAdjust="spacingAndGlyphs" textLength="424" x="941.5" y="416.6479">SatelliteSignalCheckRequest passGpsSignalStrength(String satelliteName)</text><line style="stroke: #A80036; stroke-width: 1.0; stroke-dasharray: 1.0,2.0;" x1="922.5" x2="1117" y1="387.2305" y2="387.2305"/><text fill="#000000" font-family="sans-serif" font-size="11" lengthAdjust="spacingAndGlyphs" textLength="66" x="1117" y="390.5386">Use Case 2</text><line style="stroke: #A80036; stroke-width: 1.0; stroke-dasharray: 1.0,2.0;" x1="1183" x2="1377.5" y1="387.2305" y2="387.2305"/><!--MD5=[31ac70925a3cf930ecc7428c11a6bdde]
class DisplayGpsInterfaceImplementationTests--><rect fill="#FEFECE" filter="url(#fkfb6lmxi4hc9)" height="48" id="DisplayGpsInterfaceImplementationTests" style="stroke: #A80036; stroke-width: 1.5;" width="287" x="1434.5" y="101.5"/><ellipse cx="1449.5" cy="117.5" fill="#ADD1B2" rx="11" ry="11" style="stroke: #A80036; stroke-width: 1.0;"/><path d="M1452.4688,123.1406 Q1451.8906,123.4375 1451.25,123.5781 Q1450.6094,123.7344 1449.9063,123.7344 Q1447.4063,123.7344 1446.0781,122.0938 Q1444.7656,120.4375 1444.7656,117.3125 Q1444.7656,114.1875 1446.0781,112.5313 Q1447.4063,110.875 1449.9063,110.875 Q1450.6094,110.875 1451.25,111.0313 Q1451.9063,111.1875 1452.4688,111.4844 L1452.4688,114.2031 Q1451.8438,113.625 1451.25,113.3594 Q1450.6563,113.0781 1450.0313,113.0781 Q1448.6875,113.0781 1448,114.1563 Q1447.3125,115.2188 1447.3125,117.3125 Q1447.3125,119.4063 1448,120.4844 Q1448.6875,121.5469 1450.0313,121.5469 Q1450.6563,121.5469 1451.25,121.2813 Q1451.8438,121 1452.4688,120.4219 L1452.4688,123.1406 Z "/><text fill="#000000" font-family="sans-serif" font-size="12" lengthAdjust="spacingAndGlyphs" textLength="255" x="1463.5" y="121.6543">DisplayGpsInterfaceImplementationTests</text><line style="stroke: #A80036; stroke-width: 1.5;" x1="1435.5" x2="1720.5" y1="133.5" y2="133.5"/><line style="stroke: #A80036; stroke-width: 1.5;" x1="1435.5" x2="1720.5" y1="141.5" y2="141.5"/><!--MD5=[933cdd11260ca9cf411a4933e66b6f57]
class DisplayGpsReceiverImplementationTests--><rect fill="#FEFECE" filter="url(#fkfb6lmxi4hc9)" height="86.4141" id="DisplayGpsReceiverImplementationTests" style="stroke: #A80036; stroke-width: 1.5;" width="284" x="1757" y="82.5"/><ellipse cx="1772" cy="98.5" fill="#ADD1B2" rx="11" ry="11" style="stroke: #A80036; stroke-width: 1.0;"/><path d="M1774.9688,104.1406 Q1774.3906,104.4375 1773.75,104.5781 Q1773.1094,104.7344 1772.4063,104.7344 Q1769.9063,104.7344 1768.5781,103.0938 Q1767.2656,101.4375 1767.2656,98.3125 Q1767.2656,95.1875 1768.5781,93.5313 Q1769.9063,91.875 1772.4063,91.875 Q1773.1094,91.875 1773.75,92.0313 Q1774.4063,92.1875 1774.9688,92.4844 L1774.9688,95.2031 Q1774.3438,94.625 1773.75,94.3594 Q1773.1563,94.0781 1772.5313,94.0781 Q1771.1875,94.0781 1770.5,95.1563 Q1769.8125,96.2188 1769.8125,98.3125 Q1769.8125,100.4063 1770.5,101.4844 Q1771.1875,102.5469 1772.5313,102.5469 Q1773.1563,102.5469 1773.75,102.2813 Q1774.3438,102 1774.9688,101.4219 L1774.9688,104.1406 Z "/><text fill="#000000" font-family="sans-serif" font-size="12" lengthAdjust="spacingAndGlyphs" textLength="252" x="1786" y="102.6543">DisplayGpsReceiverImplementationTests</text><line style="stroke: #A80036; stroke-width: 1.5;" x1="1758" x2="2040" y1="114.5" y2="114.5"/><line style="stroke: #A80036; stroke-width: 1.5;" x1="1758" x2="2040" y1="122.5" y2="122.5"/><ellipse cx="1768" cy="133.5" fill="#84BE84" rx="3" ry="3" style="stroke: #038048; stroke-width: 1.0;"/><text fill="#000000" font-family="sans-serif" font-size="11" lengthAdjust="spacingAndGlyphs" textLength="193" x="1777" y="136.7104">void measureGpsSignalStrength()</text><ellipse cx="1768" cy="146.3047" fill="#84BE84" rx="3" ry="3" style="stroke: #038048; stroke-width: 1.0;"/><text fill="#000000" font-family="sans-serif" font-size="11" lengthAdjust="spacingAndGlyphs" textLength="240" x="1777" y="149.5151">void ifSignalStrengthGoodMeasureSignal()</text><ellipse cx="1768" cy="159.1094" fill="#84BE84" rx="3" ry="3" style="stroke: #038048; stroke-width: 1.0;"/><text fill="#000000" font-family="sans-serif" font-size="11" lengthAdjust="spacingAndGlyphs" textLength="234" x="1777" y="162.3198">void elseSignalStrengthBadRejectSignal()</text><!--MD5=[b5e9506f01c5d0dda59c0c34003c249d]
class DisplayGpsManagerImplementationTests--><rect fill="#FEFECE" filter="url(#fkfb6lmxi4hc9)" height="48" id="DisplayGpsManagerImplementationTests" style="stroke: #A80036; stroke-width: 1.5;" width="286" x="2076" y="101.5"/><ellipse cx="2091" cy="117.5" fill="#ADD1B2" rx="11" ry="11" style="stroke: #A80036; stroke-width: 1.0;"/><path d="M2093.9688,123.1406 Q2093.3906,123.4375 2092.75,123.5781 Q2092.1094,123.7344 2091.4063,123.7344 Q2088.9063,123.7344 2087.5781,122.0938 Q2086.2656,120.4375 2086.2656,117.3125 Q2086.2656,114.1875 2087.5781,112.5313 Q2088.9063,110.875 2091.4063,110.875 Q2092.1094,110.875 2092.75,111.0313 Q2093.4063,111.1875 2093.9688,111.4844 L2093.9688,114.2031 Q2093.3438,113.625 2092.75,113.3594 Q2092.1563,113.0781 2091.5313,113.0781 Q2090.1875,113.0781 2089.5,114.1563 Q2088.8125,115.2188 2088.8125,117.3125 Q2088.8125,119.4063 2089.5,120.4844 Q2090.1875,121.5469 2091.5313,121.5469 Q2092.1563,121.5469 2092.75,121.2813 Q2093.3438,121 2093.9688,120.4219 L2093.9688,123.1406 Z "/><text fill="#000000" font-family="sans-serif" font-size="12" lengthAdjust="spacingAndGlyphs" textLength="254" x="2105" y="121.6543">DisplayGpsManagerImplementationTests</text><line style="stroke: #A80036; stroke-width: 1.5;" x1="2077" x2="2361" y1="133.5" y2="133.5"/><line style="stroke: #A80036; stroke-width: 1.5;" x1="2077" x2="2361" y1="141.5" y2="141.5"/><!--MD5=[9d578318e58e71edcf98403314a477bf]
class SatelliteSignalCheckRequestTests--><rect fill="#FEFECE" filter="url(#fkfb6lmxi4hc9)" height="48" id="SatelliteSignalCheckRequestTests" style="stroke: #A80036; stroke-width: 1.5;" width="245" x="1434.5" y="313.5"/><ellipse cx="1449.5" cy="329.5" fill="#ADD1B2" rx="11" ry="11" style="stroke: #A80036; stroke-width: 1.0;"/><path d="M1452.4688,335.1406 Q1451.8906,335.4375 1451.25,335.5781 Q1450.6094,335.7344 1449.9063,335.7344 Q1447.4063,335.7344 1446.0781,334.0938 Q1444.7656,332.4375 1444.7656,329.3125 Q1444.7656,326.1875 1446.0781,324.5313 Q1447.4063,322.875 1449.9063,322.875 Q1450.6094,322.875 1451.25,323.0313 Q1451.9063,323.1875 1452.4688,323.4844 L1452.4688,326.2031 Q1451.8438,325.625 1451.25,325.3594 Q1450.6563,325.0781 1450.0313,325.0781 Q1448.6875,325.0781 1448,326.1563 Q1447.3125,327.2188 1447.3125,329.3125 Q1447.3125,331.4063 1448,332.4844 Q1448.6875,333.5469 1450.0313,333.5469 Q1450.6563,333.5469 1451.25,333.2813 Q1451.8438,333 1452.4688,332.4219 L1452.4688,335.1406 Z "/><text fill="#000000" font-family="sans-serif" font-size="12" lengthAdjust="spacingAndGlyphs" textLength="213" x="1463.5" y="333.6543">SatelliteSignalCheckRequestTests</text><line style="stroke: #A80036; stroke-width: 1.5;" x1="1435.5" x2="1678.5" y1="345.5" y2="345.5"/><line style="stroke: #A80036; stroke-width: 1.5;" x1="1435.5" x2="1678.5" y1="353.5" y2="353.5"/><!--MD5=[0af74227177caadb6af436c979172233]
class DisplayGpsReceiverStub--><rect fill="#FEFECE" filter="url(#fkfb6lmxi4hc9)" height="107.2188" id="DisplayGpsReceiverStub" style="stroke: #A80036; stroke-width: 1.5;" width="415" x="1714.5" y="284"/><ellipse cx="1842.75" cy="300" fill="#ADD1B2" rx="11" ry="11" style="stroke: #A80036; stroke-width: 1.0;"/><path d="M1845.7188,305.6406 Q1845.1406,305.9375 1844.5,306.0781 Q1843.8594,306.2344 1843.1563,306.2344 Q1840.6563,306.2344 1839.3281,304.5938 Q1838.0156,302.9375 1838.0156,299.8125 Q1838.0156,296.6875 1839.3281,295.0313 Q1840.6563,293.375 1843.1563,293.375 Q1843.8594,293.375 1844.5,293.5313 Q1845.1563,293.6875 1845.7188,293.9844 L1845.7188,296.7031 Q1845.0938,296.125 1844.5,295.8594 Q1843.9063,295.5781 1843.2813,295.5781 Q1841.9375,295.5781 1841.25,296.6563 Q1840.5625,297.7188 1840.5625,299.8125 Q1840.5625,301.9063 1841.25,302.9844 Q1841.9375,304.0469 1843.2813,304.0469 Q1843.9063,304.0469 1844.5,303.7813 Q1845.0938,303.5 1845.7188,302.9219 L1845.7188,305.6406 Z "/><text fill="#000000" font-family="sans-serif" font-size="12" lengthAdjust="spacingAndGlyphs" textLength="150" x="1863.25" y="304.1543">DisplayGpsReceiverStub</text><line style="stroke: #A80036; stroke-width: 1.5;" x1="1715.5" x2="2128.5" y1="316" y2="316"/><line style="stroke: #A80036; stroke-width: 1.5;" x1="1715.5" x2="2128.5" y1="324" y2="324"/><ellipse cx="1725.5" cy="351.8047" fill="#84BE84" rx="3" ry="3" style="stroke: #038048; stroke-width: 1.0;"/><text fill="#000000" font-family="sans-serif" font-size="11" lengthAdjust="spacingAndGlyphs" textLength="334" x="1734.5" y="355.0151">String measureGpsSignalStrength(Satellite satelliteSignal)</text><line style="stroke: #A80036; stroke-width: 1.0; stroke-dasharray: 1.0,2.0;" x1="1715.5" x2="1889" y1="338.4023" y2="338.4023"/><text fill="#000000" font-family="sans-serif" font-size="11" lengthAdjust="spacingAndGlyphs" textLength="66" x="1889" y="341.7104">Use Case 1</text><line style="stroke: #A80036; stroke-width: 1.0; stroke-dasharray: 1.0,2.0;" x1="1955" x2="2128.5" y1="338.4023" y2="338.4023"/><ellipse cx="1725.5" cy="381.4141" fill="#84BE84" rx="3" ry="3" style="stroke: #038048; stroke-width: 1.0;"/><text fill="#000000" font-family="sans-serif" font-size="11" lengthAdjust="spacingAndGlyphs" textLength="389" x="1734.5" y="384.6245">SatelliteSignalCheckRequest measureSignal(Satellite satelliteSignal)</text><line style="stroke: #A80036; stroke-width: 1.0; stroke-dasharray: 1.0,2.0;" x1="1715.5" x2="1889" y1="368.0117" y2="368.0117"/><text fill="#000000" font-family="sans-serif" font-size="11" lengthAdjust="spacingAndGlyphs" textLength="66" x="1889" y="371.3198">Use Case 2</text><line style="stroke: #A80036; stroke-width: 1.0; stroke-dasharray: 1.0,2.0;" x1="1955" x2="2128.5" y1="368.0117" y2="368.0117"/><!--MD5=[6057d86884460ab216cb89f03a202a5c]
class DisplayGpsManagerStub--><rect fill="#FEFECE" filter="url(#fkfb6lmxi4hc9)" height="107.2188" id="DisplayGpsManagerStub" style="stroke: #A80036; stroke-width: 1.5;" width="450" x="2165" y="284"/><ellipse cx="2309.75" cy="300" fill="#ADD1B2" rx="11" ry="11" style="stroke: #A80036; stroke-width: 1.0;"/><path d="M2312.7188,305.6406 Q2312.1406,305.9375 2311.5,306.0781 Q2310.8594,306.2344 2310.1563,306.2344 Q2307.6563,306.2344 2306.3281,304.5938 Q2305.0156,302.9375 2305.0156,299.8125 Q2305.0156,296.6875 2306.3281,295.0313 Q2307.6563,293.375 2310.1563,293.375 Q2310.8594,293.375 2311.5,293.5313 Q2312.1563,293.6875 2312.7188,293.9844 L2312.7188,296.7031 Q2312.0938,296.125 2311.5,295.8594 Q2310.9063,295.5781 2310.2813,295.5781 Q2308.9375,295.5781 2308.25,296.6563 Q2307.5625,297.7188 2307.5625,299.8125 Q2307.5625,301.9063 2308.25,302.9844 Q2308.9375,304.0469 2310.2813,304.0469 Q2310.9063,304.0469 2311.5,303.7813 Q2312.0938,303.5 2312.7188,302.9219 L2312.7188,305.6406 Z "/><text fill="#000000" font-family="sans-serif" font-size="12" lengthAdjust="spacingAndGlyphs" textLength="152" x="2330.25" y="304.1543">DisplayGpsManagerStub</text><line style="stroke: #A80036; stroke-width: 1.5;" x1="2166" x2="2614" y1="316" y2="316"/><line style="stroke: #A80036; stroke-width: 1.5;" x1="2166" x2="2614" y1="324" y2="324"/><ellipse cx="2176" cy="351.8047" fill="#84BE84" rx="3" ry="3" style="stroke: #038048; stroke-width: 1.0;"/><text fill="#000000" font-family="sans-serif" font-size="11" lengthAdjust="spacingAndGlyphs" textLength="331" x="2185" y="355.0151">String receiveGpsSignalStrengths(Satellite satelliteSignal)</text><line style="stroke: #A80036; stroke-width: 1.0; stroke-dasharray: 1.0,2.0;" x1="2166" x2="2357" y1="338.4023" y2="338.4023"/><text fill="#000000" font-family="sans-serif" font-size="11" lengthAdjust="spacingAndGlyphs" textLength="66" x="2357" y="341.7104">Use Case 1</text><line style="stroke: #A80036; stroke-width: 1.0; stroke-dasharray: 1.0,2.0;" x1="2423" x2="2614" y1="338.4023" y2="338.4023"/><ellipse cx="2176" cy="381.4141" fill="#84BE84" rx="3" ry="3" style="stroke: #038048; stroke-width: 1.0;"/><text fill="#000000" font-family="sans-serif" font-size="11" lengthAdjust="spacingAndGlyphs" textLength="424" x="2185" y="384.6245">SatelliteSignalCheckRequest passGpsSignalStrength(String satelliteName)</text><line style="stroke: #A80036; stroke-width: 1.0; stroke-dasharray: 1.0,2.0;" x1="2166" x2="2357" y1="368.0117" y2="368.0117"/><text fill="#000000" font-family="sans-serif" font-size="11" lengthAdjust="spacingAndGlyphs" textLength="66" x="2357" y="371.3198">Use Case 2</text><line style="stroke: #A80036; stroke-width: 1.0; stroke-dasharray: 1.0,2.0;" x1="2423" x2="2614" y1="368.0117" y2="368.0117"/><!--MD5=[80c749bdd7ec7c789b994dbe93702fd9]
class MiddlewareGisInterfaceStub--><rect fill="#FEFECE" filter="url(#fkfb6lmxi4hc9)" height="107.2188" id="MiddlewareGisInterfaceStub" style="stroke: #A80036; stroke-width: 1.5;" width="350" x="1434" y="483"/><ellipse cx="1517.75" cy="499" fill="#ADD1B2" rx="11" ry="11" style="stroke: #A80036; stroke-width: 1.0;"/><path d="M1520.7188,504.6406 Q1520.1406,504.9375 1519.5,505.0781 Q1518.8594,505.2344 1518.1563,505.2344 Q1515.6563,505.2344 1514.3281,503.5938 Q1513.0156,501.9375 1513.0156,498.8125 Q1513.0156,495.6875 1514.3281,494.0313 Q1515.6563,492.375 1518.1563,492.375 Q1518.8594,492.375 1519.5,492.5313 Q1520.1563,492.6875 1520.7188,492.9844 L1520.7188,495.7031 Q1520.0938,495.125 1519.5,494.8594 Q1518.9063,494.5781 1518.2813,494.5781 Q1516.9375,494.5781 1516.25,495.6563 Q1515.5625,496.7188 1515.5625,498.8125 Q1515.5625,500.9063 1516.25,501.9844 Q1516.9375,503.0469 1518.2813,503.0469 Q1518.9063,503.0469 1519.5,502.7813 Q1520.0938,502.5 1520.7188,501.9219 L1520.7188,504.6406 Z "/><text fill="#000000" font-family="sans-serif" font-size="12" lengthAdjust="spacingAndGlyphs" textLength="174" x="1538.25" y="503.1543">MiddlewareGisInterfaceStub</text><line style="stroke: #A80036; stroke-width: 1.5;" x1="1435" x2="1783" y1="515" y2="515"/><line style="stroke: #A80036; stroke-width: 1.5;" x1="1435" x2="1783" y1="523" y2="523"/><ellipse cx="1445" cy="550.8047" fill="#84BE84" rx="3" ry="3" style="stroke: #038048; stroke-width: 1.0;"/><text fill="#000000" font-family="sans-serif" font-size="11" lengthAdjust="spacingAndGlyphs" textLength="324" x="1454" y="554.0151">String receiveGpsSignalStrength(Satellite satelliteSignal)</text><line style="stroke: #A80036; stroke-width: 1.0; stroke-dasharray: 1.0,2.0;" x1="1435" x2="1576" y1="537.4023" y2="537.4023"/><text fill="#000000" font-family="sans-serif" font-size="11" lengthAdjust="spacingAndGlyphs" textLength="66" x="1576" y="540.7104">Use Case 1</text><line style="stroke: #A80036; stroke-width: 1.0; stroke-dasharray: 1.0,2.0;" x1="1642" x2="1783" y1="537.4023" y2="537.4023"/><ellipse cx="1445" cy="580.4141" fill="#84BE84" rx="3" ry="3" style="stroke: #038048; stroke-width: 1.0;"/><text fill="#000000" font-family="sans-serif" font-size="11" lengthAdjust="spacingAndGlyphs" textLength="324" x="1454" y="583.6245">String receiveGpsSignalStrength(Satellite satelliteSignal)</text><line style="stroke: #A80036; stroke-width: 1.0; stroke-dasharray: 1.0,2.0;" x1="1435" x2="1576" y1="567.0117" y2="567.0117"/><text fill="#000000" font-family="sans-serif" font-size="11" lengthAdjust="spacingAndGlyphs" textLength="66" x="1576" y="570.3198">Use Case 2</text><line style="stroke: #A80036; stroke-width: 1.0; stroke-dasharray: 1.0,2.0;" x1="1642" x2="1783" y1="567.0117" y2="567.0117"/><!--MD5=[b7db7f9e4ca1b2f55d32a1a48f9dd068]
class SatelliteSignalCheckRequest--><rect fill="#FEFECE" filter="url(#fkfb6lmxi4hc9)" height="112.0234" id="SatelliteSignalCheckRequest" style="stroke: #A80036; stroke-width: 1.5;" width="416" x="2671" y="69.5"/><ellipse cx="2785.25" cy="85.5" fill="#ADD1B2" rx="11" ry="11" style="stroke: #A80036; stroke-width: 1.0;"/><path d="M2788.2188,91.1406 Q2787.6406,91.4375 2787,91.5781 Q2786.3594,91.7344 2785.6563,91.7344 Q2783.1563,91.7344 2781.8281,90.0938 Q2780.5156,88.4375 2780.5156,85.3125 Q2780.5156,82.1875 2781.8281,80.5313 Q2783.1563,78.875 2785.6563,78.875 Q2786.3594,78.875 2787,79.0313 Q2787.6563,79.1875 2788.2188,79.4844 L2788.2188,82.2031 Q2787.5938,81.625 2787,81.3594 Q2786.4063,81.0781 2785.7813,81.0781 Q2784.4375,81.0781 2783.75,82.1563 Q2783.0625,83.2188 2783.0625,85.3125 Q2783.0625,87.4063 2783.75,88.4844 Q2784.4375,89.5469 2785.7813,89.5469 Q2786.4063,89.5469 2787,89.2813 Q2787.5938,89 2788.2188,88.4219 L2788.2188,91.1406 Z "/><text fill="#000000" font-family="sans-serif" font-size="12" lengthAdjust="spacingAndGlyphs" textLength="179" x="2805.75" y="89.6543">SatelliteSignalCheckRequest</text><line style="stroke: #A80036; stroke-width: 1.5;" x1="2672" x2="3086" y1="101.5" y2="101.5"/><rect fill="none" height="6" style="stroke: #C82930; stroke-width: 1.0;" width="6" x="2679" y="109.5"/><text fill="#000000" font-family="sans-serif" font-size="11" lengthAdjust="spacingAndGlyphs" textLength="116" x="2691" y="115.7104">String satelliteName</text><rect fill="none" height="6" style="stroke: #C82930; stroke-width: 1.0;" width="6" x="2679" y="122.3047"/><text fill="#000000" font-family="sans-serif" font-size="11" lengthAdjust="spacingAndGlyphs" textLength="97" x="2691" y="128.5151">String checkType</text><line style="stroke: #A80036; stroke-width: 1.5;" x1="2672" x2="3086" y1="135.1094" y2="135.1094"/><ellipse cx="2682" cy="146.1094" fill="#84BE84" rx="3" ry="3" style="stroke: #038048; stroke-width: 1.0;"/><text fill="#000000" font-family="sans-serif" font-size="11" lengthAdjust="spacingAndGlyphs" textLength="390" x="2691" y="149.3198">SatelliteSignalCheckRequest(String satelliteName, String checkType)</text><ellipse cx="2682" cy="158.9141" fill="#84BE84" rx="3" ry="3" style="stroke: #038048; stroke-width: 1.0;"/><text fill="#000000" font-family="sans-serif" font-size="11" lengthAdjust="spacingAndGlyphs" textLength="143" x="2691" y="162.1245">String getSatelliteName()</text><ellipse cx="2682" cy="171.7188" fill="#84BE84" rx="3" ry="3" style="stroke: #038048; stroke-width: 1.0;"/><text fill="#000000" font-family="sans-serif" font-size="11" lengthAdjust="spacingAndGlyphs" textLength="125" x="2691" y="174.9292">String getCheckType()</text><!--MD5=[f1009660389b69d8f1dd83b0564feed6]
link DisplayGpsInterface to DisplayGpsReceiver--><!--MD5=[8fefac4f596013478990c66256fd14b0]
link DisplayGpsReceiver to DisplayGpsManager--><!--MD5=[ee24dc14e505e67481c4b4ac6c5a51a1]
link DisplayGpsInterface to DisplayGpsInterfaceImplementation--><!--MD5=[7c0fe609e5df7a41ca62865333c5d149]
link DisplayGpsInterfaceImplementation to DisplayGpsReceiverImplementation--><!--MD5=[ef9a99f365d30152cb0c651116fa1b3a]
link DisplayGpsReceiverImplementation to DisplayGpsManagerImplementation--><!--MD5=[ef1b82cdde67d11aefeebda09292a376]
link DisplayGpsInterfaceImplementationTests to DisplayGpsReceiverImplementationTests--><!--MD5=[0b1b9253b0052d31a00eb0bbd17ad135]
link DisplayGpsReceiverImplementationTests to DisplayGpsManagerImplementationTests--><!--MD5=[1661215ed7a09e94ee929bf09054fc06]
link DisplayGpsInterfaceImplementationTests to SatelliteSignalCheckRequestTests--><!--MD5=[1242d19af24b0d802134ab0bf3f44a4c]
link SatelliteSignalCheckRequestTests to DisplayGpsReceiverStub--><!--MD5=[60e33ee7c14b6e814bc472e308eadeed]
link DisplayGpsReceiverStub to DisplayGpsManagerStub--><!--MD5=[a73adf47978338e79a046da162e8e269]
link SatelliteSignalCheckRequestTests to MiddlewareGisInterfaceStub--><!--MD5=[c045ef87872a09e87a65dd481343b60f]
@startuml Display01Packages


package edu.oakland.production.display01 {

}


package edu.oakland.production.display01 {
    interface DisplayGpsInterface {
        __
        .. Use Case 1 ..
        {abstract} + void receiveGpsSignal(Satellite satelliteSignal)
        .. Use Case 2 ..
        {abstract} + void reportGpsSignalLoss(String satelliteName)
        {abstract} + void recheckSignalStength(String satelliteName)
        {abstract} + void checkSignalStength(String satelliteName)
    }
}


package edu.oakland.production.display01 {
    interface DisplayGpsReceiver {
        __
        .. Use Case 1 ..
        {abstract} + String measureGpsSignalStrength(Satellite satelliteSignal)
        .. Use Case 2 ..
        {abstract} + SatelliteSignalCheckRequest measureSignal(Satellite satelliteSignal)
    }
}


package edu.oakland.production.display01 {
    interface DisplayGpsManager {
        __
        .. Use Case 1 ..
        {abstract} + String receiveGpsSignalStrength(Satellite satelliteSignal)
        .. Use Case 2 ..
        {abstract} + SatelliteSignalCheckRequest passGpsSignalStrength(String satelliteName)
    }
}



package edu.oakland.production.display01 {
    class DisplayGpsInterfaceImplementation {
        - DisplayGpsReciever reciever
        __
        + DisplayGpsInterfaceImplementation(DisplayGpsReciever reciever)
        .. Use Case 1 ..
        + void receiveGpsSignal(Satellite satelliteSignal)
        .. Use Case 2 ..
        + void reportGpsSignalLoss(String satelliteName)
        + void recheckSignalStength(String satelliteName)
        + void checkSignalStength(String satelliteName)
        - int reportSignalStrength(String satelliteName)
    }
}


package edu.oakland.production.display01 {
    class DisplayGpsReceiverImplementation {
        - DisplayGpsManager manager
        __
        + DisplayGpsReceiverImplementation(DisplayGpsManager manager)
        .. Use Case 1 ..
        + String measureGpsSignalStrength(Satellite satelliteSignal)
        - void passSignalStrength(int signalStrength)
        .. Use Case 2 ..
        + String measureGpsSignalStrength(Satellite satelliteSignal)
        + SatelliteSignalCheckRequest measureSignal(Satellite satelliteSignal)
    }
}


package edu.oakland.production.display01 {
  class DisplayGpsManagerImplementation {
    - MiddlewareGisInterface middlewareGis
   __
    + DisplayGpsManagerImplementation(MiddlewareGisInterface middlewareGis)
    .. Use Case 1 ..
    + String receiveGpsSignalStrength(Satellite satelliteSignal)
    + boolean EvaluateGpsSignalStrengths(int signalStrengh)
    + void passGpsSignalStrength(int signalStrength)
    .. Use Case 2 ..
    + String receiveGpsSignalStrength(Satellite signal)
    + SatelliteSignalCheckRequest passGpsSignalStrength(String satelliteName)
    }
}



package edu.oakland.test.display01 {
    
}


package edu.oakland.test.display01 {
    class DisplayGpsInterfaceImplementationTests {

    }
}


package edu.oakland.test.display01 {
    class DisplayGpsReceiverImplementationTests {
        + void measureGpsSignalStrength()
        + void ifSignalStrengthGoodMeasureSignal()
        + void elseSignalStrengthBadRejectSignal()
    }
}


package edu.oakland.test.display01 {
    class DisplayGpsManagerImplementationTests {

    }
}


package edu.oakland.test.display01 {
    class SatelliteSignalCheckRequestTests {

    }
}


package edu.oakland.test.display01 {
    class DisplayGpsReceiverStub {
        __
        .. Use Case 1 ..
        + String measureGpsSignalStrength(Satellite satelliteSignal)
        .. Use Case 2 ..
        + SatelliteSignalCheckRequest measureSignal(Satellite satelliteSignal)
    }
}


package edu.oakland.test.display01 {
    class DisplayGpsManagerStub {
        __
        .. Use Case 1 ..
        + String receiveGpsSignalStrengths(Satellite satelliteSignal)
        .. Use Case 2 ..
        + SatelliteSignalCheckRequest passGpsSignalStrength(String satelliteName)
    }
}


package edu.oakland.test.display01 {
    class MiddlewareGisInterfaceStub {
        __
        .. Use Case 1 ..
        + String receiveGpsSignalStrength(Satellite satelliteSignal)
        .. Use Case 2 ..
        + String receiveGpsSignalStrength(Satellite satelliteSignal)
    }
}



package edu.oakland.helper.display01 {

}


package edu.oakland.helper.display01 {
    class SatelliteSignalCheckRequest {
        - String satelliteName
        - String checkType
        + SatelliteSignalCheckRequest(String satelliteName, String checkType)
        + String getSatelliteName()
        + String getCheckType()
    }
}



@enduml

PlantUML version 1.2020.02(Sun Mar 01 10:22:07 GMT 2020)
(GPL source distribution)
Java Runtime: OpenJDK Runtime Environment
JVM: OpenJDK 64-Bit Server VM
Java Version: 11.0.9+11-Ubuntu-0ubuntu1
Operating System: Linux
Default Encoding: ANSI_X3.4-1968
Language: en
Country: US
--></g></svg>