<?xml version="1.0" encoding="UTF-8" standalone="no"?><svg xmlns="http://www.w3.org/2000/svg" xmlns:xlink="http://www.w3.org/1999/xlink" contentScriptType="application/ecmascript" contentStyleType="text/css" height="490px" preserveAspectRatio="none" style="width:1787px;height:490px;" version="1.1" viewBox="0 0 1787 490" width="1787px" zoomAndPan="magnify"><defs><filter height="300%" id="f1vpc271nzxnox" width="300%" x="-1" y="-1"><feGaussianBlur result="blurOut" stdDeviation="2.0"/><feColorMatrix in="blurOut" result="blurOut2" type="matrix" values="0 0 0 0 0 0 0 0 0 0 0 0 0 0 0 0 0 0 .4 0"/><feOffset dx="4.0" dy="4.0" in="blurOut2" result="blurOut3"/><feBlend in="SourceGraphic" in2="blurOut3" mode="normal"/></filter></defs><g><!--MD5=[3e281e6f49e0b185d62a106a5d994a08]
cluster edu.oakland.production.display01--><polygon fill="#FFFFFF" filter="url(#f1vpc271nzxnox)" points="257,24,530,24,537,46.2969,1493,46.2969,1493,478,257,478,257,24" style="stroke: #000000; stroke-width: 1.5;"/><line style="stroke: #000000; stroke-width: 1.5;" x1="257" x2="537" y1="46.2969" y2="46.2969"/><text fill="#000000" font-family="sans-serif" font-size="14" font-weight="bold" lengthAdjust="spacingAndGlyphs" textLength="267" x="261" y="38.9951">edu.oakland.production.display01</text><!--MD5=[d02020cdc9562d037d87b751d110dd8b]
cluster edu.oakland.helper.display01--><polygon fill="#FFFFFF" filter="url(#f1vpc271nzxnox)" points="1517,53.5,1755,53.5,1762,75.7969,1765,75.7969,1765,178.5,1517,178.5,1517,53.5" style="stroke: #000000; stroke-width: 1.5;"/><line style="stroke: #000000; stroke-width: 1.5;" x1="1517" x2="1762" y1="75.7969" y2="75.7969"/><text fill="#000000" font-family="sans-serif" font-size="14" font-weight="bold" lengthAdjust="spacingAndGlyphs" textLength="232" x="1521" y="68.4951">edu.oakland.helper.display01</text><!--MD5=[fa6248c05b5a852ecd50b5411f159754]
class DisplayGpsInterface--><rect fill="#FEFECE" filter="url(#f1vpc271nzxnox)" height="132.8281" id="DisplayGpsInterface" style="stroke: #A80036; stroke-width: 1.5;" width="297" x="273.5" y="59"/><ellipse cx="355.75" cy="75" fill="#B4A7E5" rx="11" ry="11" style="stroke: #A80036; stroke-width: 1.0;"/><path d="M351.6719,70.7656 L351.6719,68.6094 L359.0625,68.6094 L359.0625,70.7656 L356.5938,70.7656 L356.5938,78.8438 L359.0625,78.8438 L359.0625,81 L351.6719,81 L351.6719,78.8438 L354.1406,78.8438 L354.1406,70.7656 L351.6719,70.7656 Z "/><text fill="#000000" font-family="sans-serif" font-size="12" font-style="italic" lengthAdjust="spacingAndGlyphs" textLength="124" x="376.25" y="79.1543">DisplayGpsInterface</text><line style="stroke: #A80036; stroke-width: 1.5;" x1="274.5" x2="569.5" y1="91" y2="91"/><line style="stroke: #A80036; stroke-width: 1.5;" x1="274.5" x2="569.5" y1="99" y2="99"/><ellipse cx="284.5" cy="126.8047" fill="#84BE84" rx="3" ry="3" style="stroke: #038048; stroke-width: 1.0;"/><text fill="#000000" font-family="sans-serif" font-size="11" font-style="italic" lengthAdjust="spacingAndGlyphs" textLength="269" x="293.5" y="130.0151">void revieveGPSSignals(Satellite satelliteSignal)</text><line style="stroke: #A80036; stroke-width: 1.0; stroke-dasharray: 1.0,2.0;" x1="274.5" x2="389" y1="113.4023" y2="113.4023"/><text fill="#000000" font-family="sans-serif" font-size="11" lengthAdjust="spacingAndGlyphs" textLength="66" x="389" y="116.7104">Use Case 1</text><line style="stroke: #A80036; stroke-width: 1.0; stroke-dasharray: 1.0,2.0;" x1="455" x2="569.5" y1="113.4023" y2="113.4023"/><ellipse cx="284.5" cy="156.4141" fill="#84BE84" rx="3" ry="3" style="stroke: #038048; stroke-width: 1.0;"/><text fill="#000000" font-family="sans-serif" font-size="11" font-style="italic" lengthAdjust="spacingAndGlyphs" textLength="266" x="293.5" y="159.6245">void reportGpsSignalLoss(String satelliteName)</text><ellipse cx="284.5" cy="169.2188" fill="#84BE84" rx="3" ry="3" style="stroke: #038048; stroke-width: 1.0;"/><text fill="#000000" font-family="sans-serif" font-size="11" font-style="italic" lengthAdjust="spacingAndGlyphs" textLength="271" x="293.5" y="172.4292">void recheckSignalStength(String satelliteName)</text><ellipse cx="284.5" cy="182.0234" fill="#84BE84" rx="3" ry="3" style="stroke: #038048; stroke-width: 1.0;"/><text fill="#000000" font-family="sans-serif" font-size="11" font-style="italic" lengthAdjust="spacingAndGlyphs" textLength="259" x="293.5" y="185.2339">void checkSignalStength(String satelliteName)</text><line style="stroke: #A80036; stroke-width: 1.0; stroke-dasharray: 1.0,2.0;" x1="274.5" x2="389" y1="143.0117" y2="143.0117"/><text fill="#000000" font-family="sans-serif" font-size="11" lengthAdjust="spacingAndGlyphs" textLength="66" x="389" y="146.3198">Use Case 2</text><line style="stroke: #A80036; stroke-width: 1.0; stroke-dasharray: 1.0,2.0;" x1="455" x2="569.5" y1="143.0117" y2="143.0117"/><!--MD5=[31cbac78761b59e73153a97a452ed09a]
class DisplayGpsManager--><rect fill="#FEFECE" filter="url(#f1vpc271nzxnox)" height="107.2188" id="DisplayGpsManager" style="stroke: #A80036; stroke-width: 1.5;" width="441" x="605.5" y="72"/><ellipse cx="760.75" cy="88" fill="#B4A7E5" rx="11" ry="11" style="stroke: #A80036; stroke-width: 1.0;"/><path d="M756.6719,83.7656 L756.6719,81.6094 L764.0625,81.6094 L764.0625,83.7656 L761.5938,83.7656 L761.5938,91.8438 L764.0625,91.8438 L764.0625,94 L756.6719,94 L756.6719,91.8438 L759.1406,91.8438 L759.1406,83.7656 L756.6719,83.7656 Z "/><text fill="#000000" font-family="sans-serif" font-size="12" font-style="italic" lengthAdjust="spacingAndGlyphs" textLength="122" x="781.25" y="92.1543">DisplayGpsManager</text><line style="stroke: #A80036; stroke-width: 1.5;" x1="606.5" x2="1045.5" y1="104" y2="104"/><line style="stroke: #A80036; stroke-width: 1.5;" x1="606.5" x2="1045.5" y1="112" y2="112"/><ellipse cx="616.5" cy="139.8047" fill="#84BE84" rx="3" ry="3" style="stroke: #038048; stroke-width: 1.0;"/><text fill="#000000" font-family="sans-serif" font-size="11" font-style="italic" lengthAdjust="spacingAndGlyphs" textLength="324" x="625.5" y="143.0151">String receiveGpsSignalStrengths(Satellite satelliteSignal)</text><line style="stroke: #A80036; stroke-width: 1.0; stroke-dasharray: 1.0,2.0;" x1="606.5" x2="793" y1="126.4023" y2="126.4023"/><text fill="#000000" font-family="sans-serif" font-size="11" lengthAdjust="spacingAndGlyphs" textLength="66" x="793" y="129.7104">Use Case 1</text><line style="stroke: #A80036; stroke-width: 1.0; stroke-dasharray: 1.0,2.0;" x1="859" x2="1045.5" y1="126.4023" y2="126.4023"/><ellipse cx="616.5" cy="169.4141" fill="#84BE84" rx="3" ry="3" style="stroke: #038048; stroke-width: 1.0;"/><text fill="#000000" font-family="sans-serif" font-size="11" font-style="italic" lengthAdjust="spacingAndGlyphs" textLength="415" x="625.5" y="172.6245">SatelliteSignalCheckRequest passGpsSignalStrength(String satelliteName)</text><line style="stroke: #A80036; stroke-width: 1.0; stroke-dasharray: 1.0,2.0;" x1="606.5" x2="793" y1="156.0117" y2="156.0117"/><text fill="#000000" font-family="sans-serif" font-size="11" lengthAdjust="spacingAndGlyphs" textLength="66" x="793" y="159.3198">Use Case 2</text><line style="stroke: #A80036; stroke-width: 1.0; stroke-dasharray: 1.0,2.0;" x1="859" x2="1045.5" y1="156.0117" y2="156.0117"/><!--MD5=[319273309e4c56bac150542a32321bb2]
class DisplayGpsReceiver--><rect fill="#FEFECE" filter="url(#f1vpc271nzxnox)" height="107.2188" id="DisplayGpsReceiver" style="stroke: #A80036; stroke-width: 1.5;" width="395" x="1081.5" y="72"/><ellipse cx="1214.75" cy="88" fill="#B4A7E5" rx="11" ry="11" style="stroke: #A80036; stroke-width: 1.0;"/><path d="M1210.6719,83.7656 L1210.6719,81.6094 L1218.0625,81.6094 L1218.0625,83.7656 L1215.5938,83.7656 L1215.5938,91.8438 L1218.0625,91.8438 L1218.0625,94 L1210.6719,94 L1210.6719,91.8438 L1213.1406,91.8438 L1213.1406,83.7656 L1210.6719,83.7656 Z "/><text fill="#000000" font-family="sans-serif" font-size="12" font-style="italic" lengthAdjust="spacingAndGlyphs" textLength="120" x="1235.25" y="92.1543">DisplayGpsReceiver</text><line style="stroke: #A80036; stroke-width: 1.5;" x1="1082.5" x2="1475.5" y1="104" y2="104"/><line style="stroke: #A80036; stroke-width: 1.5;" x1="1082.5" x2="1475.5" y1="112" y2="112"/><ellipse cx="1092.5" cy="139.8047" fill="#84BE84" rx="3" ry="3" style="stroke: #038048; stroke-width: 1.0;"/><text fill="#000000" font-family="sans-serif" font-size="11" font-style="italic" lengthAdjust="spacingAndGlyphs" textLength="326" x="1101.5" y="143.0151">String measureGpsSignalStrength(Satellite satelliteSignal)</text><line style="stroke: #A80036; stroke-width: 1.0; stroke-dasharray: 1.0,2.0;" x1="1082.5" x2="1246" y1="126.4023" y2="126.4023"/><text fill="#000000" font-family="sans-serif" font-size="11" lengthAdjust="spacingAndGlyphs" textLength="66" x="1246" y="129.7104">Use Case 1</text><line style="stroke: #A80036; stroke-width: 1.0; stroke-dasharray: 1.0,2.0;" x1="1312" x2="1475.5" y1="126.4023" y2="126.4023"/><ellipse cx="1092.5" cy="169.4141" fill="#84BE84" rx="3" ry="3" style="stroke: #038048; stroke-width: 1.0;"/><text fill="#000000" font-family="sans-serif" font-size="11" font-style="italic" lengthAdjust="spacingAndGlyphs" textLength="369" x="1101.5" y="172.6245">SatelliteSignalCheckRequest measureSignal(String satelliteName)</text><line style="stroke: #A80036; stroke-width: 1.0; stroke-dasharray: 1.0,2.0;" x1="1082.5" x2="1246" y1="156.0117" y2="156.0117"/><text fill="#000000" font-family="sans-serif" font-size="11" lengthAdjust="spacingAndGlyphs" textLength="66" x="1246" y="159.3198">Use Case 2</text><line style="stroke: #A80036; stroke-width: 1.0; stroke-dasharray: 1.0,2.0;" x1="1312" x2="1475.5" y1="156.0117" y2="156.0117"/><!--MD5=[6376794c08ca75f6fa530286e1e32b13]
class DisplayGpsInterfaceImplementation--><rect fill="#FEFECE" filter="url(#f1vpc271nzxnox)" height="107.2188" id="DisplayGpsInterfaceImplementation" style="stroke: #A80036; stroke-width: 1.5;" width="253" x="295.5" y="303.5"/><ellipse cx="310.5" cy="319.5" fill="#ADD1B2" rx="11" ry="11" style="stroke: #A80036; stroke-width: 1.0;"/><path d="M313.4688,325.1406 Q312.8906,325.4375 312.25,325.5781 Q311.6094,325.7344 310.9063,325.7344 Q308.4063,325.7344 307.0781,324.0938 Q305.7656,322.4375 305.7656,319.3125 Q305.7656,316.1875 307.0781,314.5313 Q308.4063,312.875 310.9063,312.875 Q311.6094,312.875 312.25,313.0313 Q312.9063,313.1875 313.4688,313.4844 L313.4688,316.2031 Q312.8438,315.625 312.25,315.3594 Q311.6563,315.0781 311.0313,315.0781 Q309.6875,315.0781 309,316.1563 Q308.3125,317.2188 308.3125,319.3125 Q308.3125,321.4063 309,322.4844 Q309.6875,323.5469 311.0313,323.5469 Q311.6563,323.5469 312.25,323.2813 Q312.8438,323 313.4688,322.4219 L313.4688,325.1406 Z "/><text fill="#000000" font-family="sans-serif" font-size="12" lengthAdjust="spacingAndGlyphs" textLength="221" x="324.5" y="323.6543">DisplayGpsInterfaceImplementation</text><line style="stroke: #A80036; stroke-width: 1.5;" x1="296.5" x2="547.5" y1="335.5" y2="335.5"/><line style="stroke: #A80036; stroke-width: 1.5;" x1="296.5" x2="547.5" y1="343.5" y2="343.5"/><text fill="#000000" font-family="sans-serif" font-size="11" lengthAdjust="spacingAndGlyphs" textLength="0" x="305.5" y="374.5151"/><line style="stroke: #A80036; stroke-width: 1.0; stroke-dasharray: 1.0,2.0;" x1="296.5" x2="389" y1="357.9023" y2="357.9023"/><text fill="#000000" font-family="sans-serif" font-size="11" lengthAdjust="spacingAndGlyphs" textLength="66" x="389" y="361.2104">Use Case 1</text><line style="stroke: #A80036; stroke-width: 1.0; stroke-dasharray: 1.0,2.0;" x1="455" x2="547.5" y1="357.9023" y2="357.9023"/><text fill="#000000" font-family="sans-serif" font-size="11" lengthAdjust="spacingAndGlyphs" textLength="0" x="305.5" y="404.1245"/><line style="stroke: #A80036; stroke-width: 1.0; stroke-dasharray: 1.0,2.0;" x1="296.5" x2="389" y1="387.5117" y2="387.5117"/><text fill="#000000" font-family="sans-serif" font-size="11" lengthAdjust="spacingAndGlyphs" textLength="66" x="389" y="390.8198">Use Case 2</text><line style="stroke: #A80036; stroke-width: 1.0; stroke-dasharray: 1.0,2.0;" x1="455" x2="547.5" y1="387.5117" y2="387.5117"/><!--MD5=[85db0a5b69c4b55d7b0101612d8a7890]
class DisplayGpsManagerImplementation--><rect fill="#FEFECE" filter="url(#f1vpc271nzxnox)" height="107.2188" id="DisplayGpsManagerImplementation" style="stroke: #A80036; stroke-width: 1.5;" width="252" x="700" y="303.5"/><ellipse cx="715" cy="319.5" fill="#ADD1B2" rx="11" ry="11" style="stroke: #A80036; stroke-width: 1.0;"/><path d="M717.9688,325.1406 Q717.3906,325.4375 716.75,325.5781 Q716.1094,325.7344 715.4063,325.7344 Q712.9063,325.7344 711.5781,324.0938 Q710.2656,322.4375 710.2656,319.3125 Q710.2656,316.1875 711.5781,314.5313 Q712.9063,312.875 715.4063,312.875 Q716.1094,312.875 716.75,313.0313 Q717.4063,313.1875 717.9688,313.4844 L717.9688,316.2031 Q717.3438,315.625 716.75,315.3594 Q716.1563,315.0781 715.5313,315.0781 Q714.1875,315.0781 713.5,316.1563 Q712.8125,317.2188 712.8125,319.3125 Q712.8125,321.4063 713.5,322.4844 Q714.1875,323.5469 715.5313,323.5469 Q716.1563,323.5469 716.75,323.2813 Q717.3438,323 717.9688,322.4219 L717.9688,325.1406 Z "/><text fill="#000000" font-family="sans-serif" font-size="12" lengthAdjust="spacingAndGlyphs" textLength="220" x="729" y="323.6543">DisplayGpsManagerImplementation</text><line style="stroke: #A80036; stroke-width: 1.5;" x1="701" x2="951" y1="335.5" y2="335.5"/><line style="stroke: #A80036; stroke-width: 1.5;" x1="701" x2="951" y1="343.5" y2="343.5"/><text fill="#000000" font-family="sans-serif" font-size="11" lengthAdjust="spacingAndGlyphs" textLength="0" x="710" y="374.5151"/><line style="stroke: #A80036; stroke-width: 1.0; stroke-dasharray: 1.0,2.0;" x1="701" x2="793" y1="357.9023" y2="357.9023"/><text fill="#000000" font-family="sans-serif" font-size="11" lengthAdjust="spacingAndGlyphs" textLength="66" x="793" y="361.2104">Use Case 1</text><line style="stroke: #A80036; stroke-width: 1.0; stroke-dasharray: 1.0,2.0;" x1="859" x2="951" y1="357.9023" y2="357.9023"/><text fill="#000000" font-family="sans-serif" font-size="11" lengthAdjust="spacingAndGlyphs" textLength="0" x="710" y="404.1245"/><line style="stroke: #A80036; stroke-width: 1.0; stroke-dasharray: 1.0,2.0;" x1="701" x2="793" y1="387.5117" y2="387.5117"/><text fill="#000000" font-family="sans-serif" font-size="11" lengthAdjust="spacingAndGlyphs" textLength="66" x="793" y="390.8198">Use Case 2</text><line style="stroke: #A80036; stroke-width: 1.0; stroke-dasharray: 1.0,2.0;" x1="859" x2="951" y1="387.5117" y2="387.5117"/><!--MD5=[02b25ee3f711f666678619f4b81f3681]
class DisplayGpsReceiverImplementation--><rect fill="#FEFECE" filter="url(#f1vpc271nzxnox)" height="209.6563" id="DisplayGpsReceiverImplementation" style="stroke: #A80036; stroke-width: 1.5;" width="401" x="1076.5" y="252"/><ellipse cx="1163.75" cy="268" fill="#ADD1B2" rx="11" ry="11" style="stroke: #A80036; stroke-width: 1.0;"/><path d="M1166.7188,273.6406 Q1166.1406,273.9375 1165.5,274.0781 Q1164.8594,274.2344 1164.1563,274.2344 Q1161.6563,274.2344 1160.3281,272.5938 Q1159.0156,270.9375 1159.0156,267.8125 Q1159.0156,264.6875 1160.3281,263.0313 Q1161.6563,261.375 1164.1563,261.375 Q1164.8594,261.375 1165.5,261.5313 Q1166.1563,261.6875 1166.7188,261.9844 L1166.7188,264.7031 Q1166.0938,264.125 1165.5,263.8594 Q1164.9063,263.5781 1164.2813,263.5781 Q1162.9375,263.5781 1162.25,264.6563 Q1161.5625,265.7188 1161.5625,267.8125 Q1161.5625,269.9063 1162.25,270.9844 Q1162.9375,272.0469 1164.2813,272.0469 Q1164.9063,272.0469 1165.5,271.7813 Q1166.0938,271.5 1166.7188,270.9219 L1166.7188,273.6406 Z "/><text fill="#000000" font-family="sans-serif" font-size="12" lengthAdjust="spacingAndGlyphs" textLength="218" x="1184.25" y="272.1543">DisplayGpsReceiverImplementation</text><line style="stroke: #A80036; stroke-width: 1.5;" x1="1077.5" x2="1476.5" y1="284" y2="284"/><line style="stroke: #A80036; stroke-width: 1.5;" x1="1077.5" x2="1476.5" y1="292" y2="292"/><text fill="#000000" font-family="sans-serif" font-size="11" lengthAdjust="spacingAndGlyphs" textLength="0" x="1100.5" y="323.0151"/><ellipse cx="1087.5" cy="332.6094" fill="#84BE84" rx="3" ry="3" style="stroke: #038048; stroke-width: 1.0;"/><text fill="#000000" font-family="sans-serif" font-size="11" lengthAdjust="spacingAndGlyphs" textLength="334" x="1096.5" y="335.8198">String measureGpsSignalStrength(Satellite satelliteSignal)</text><text fill="#000000" font-family="sans-serif" font-size="11" lengthAdjust="spacingAndGlyphs" textLength="0" x="1100.5" y="348.6245"/><rect fill="#F24D5C" height="6" style="stroke: #C82930; stroke-width: 1.0;" width="6" x="1084.5" y="355.2188"/><text fill="#000000" font-family="sans-serif" font-size="11" lengthAdjust="spacingAndGlyphs" textLength="248" x="1096.5" y="361.4292">void passSignalStrength(int signalStrength)</text><text fill="#000000" font-family="sans-serif" font-size="11" lengthAdjust="spacingAndGlyphs" textLength="0" x="1100.5" y="374.2339"/><line style="stroke: #A80036; stroke-width: 1.0; stroke-dasharray: 1.0,2.0;" x1="1077.5" x2="1244" y1="306.4023" y2="306.4023"/><text fill="#000000" font-family="sans-serif" font-size="11" lengthAdjust="spacingAndGlyphs" textLength="66" x="1244" y="309.7104">Use Case 1</text><line style="stroke: #A80036; stroke-width: 1.0; stroke-dasharray: 1.0,2.0;" x1="1310" x2="1476.5" y1="306.4023" y2="306.4023"/><text fill="#000000" font-family="sans-serif" font-size="11" lengthAdjust="spacingAndGlyphs" textLength="0" x="1100.5" y="403.8433"/><ellipse cx="1087.5" cy="413.4375" fill="#84BE84" rx="3" ry="3" style="stroke: #038048; stroke-width: 1.0;"/><text fill="#000000" font-family="sans-serif" font-size="11" lengthAdjust="spacingAndGlyphs" textLength="334" x="1096.5" y="416.6479">String measureGpsSignalStrength(Satellite satelliteSignal)</text><text fill="#000000" font-family="sans-serif" font-size="11" lengthAdjust="spacingAndGlyphs" textLength="0" x="1100.5" y="429.4526"/><ellipse cx="1087.5" cy="439.0469" fill="#84BE84" rx="3" ry="3" style="stroke: #038048; stroke-width: 1.0;"/><text fill="#000000" font-family="sans-serif" font-size="11" lengthAdjust="spacingAndGlyphs" textLength="375" x="1096.5" y="442.2573">SatelliteSignalCheckRequest measureSignal(String satelliteName)</text><text fill="#000000" font-family="sans-serif" font-size="11" lengthAdjust="spacingAndGlyphs" textLength="0" x="1100.5" y="455.062"/><line style="stroke: #A80036; stroke-width: 1.0; stroke-dasharray: 1.0,2.0;" x1="1077.5" x2="1244" y1="387.2305" y2="387.2305"/><text fill="#000000" font-family="sans-serif" font-size="11" lengthAdjust="spacingAndGlyphs" textLength="66" x="1244" y="390.5386">Use Case 2</text><line style="stroke: #A80036; stroke-width: 1.0; stroke-dasharray: 1.0,2.0;" x1="1310" x2="1476.5" y1="387.2305" y2="387.2305"/><polygon fill="#FFFFFF" filter="url(#f1vpc271nzxnox)" points="6,99,224,99,231,121.2969,238,121.2969,238,151.5938,6,151.5938,6,99" style="stroke: #000000; stroke-width: 1.5;"/><line style="stroke: #000000; stroke-width: 1.5;" x1="6" x2="231" y1="121.2969" y2="121.2969"/><text fill="#000000" font-family="sans-serif" font-size="14" font-weight="bold" lengthAdjust="spacingAndGlyphs" textLength="212" x="10" y="113.9951">edu.oakland.test.display01</text><!--MD5=[b7db7f9e4ca1b2f55d32a1a48f9dd068]
class SatelliteSignalCheckRequest--><rect fill="#FEFECE" filter="url(#f1vpc271nzxnox)" height="73.6094" id="SatelliteSignalCheckRequest" style="stroke: #A80036; stroke-width: 1.5;" width="211" x="1535.5" y="88.5"/><ellipse cx="1550.5" cy="104.5" fill="#ADD1B2" rx="11" ry="11" style="stroke: #A80036; stroke-width: 1.0;"/><path d="M1553.4688,110.1406 Q1552.8906,110.4375 1552.25,110.5781 Q1551.6094,110.7344 1550.9063,110.7344 Q1548.4063,110.7344 1547.0781,109.0938 Q1545.7656,107.4375 1545.7656,104.3125 Q1545.7656,101.1875 1547.0781,99.5313 Q1548.4063,97.875 1550.9063,97.875 Q1551.6094,97.875 1552.25,98.0313 Q1552.9063,98.1875 1553.4688,98.4844 L1553.4688,101.2031 Q1552.8438,100.625 1552.25,100.3594 Q1551.6563,100.0781 1551.0313,100.0781 Q1549.6875,100.0781 1549,101.1563 Q1548.3125,102.2188 1548.3125,104.3125 Q1548.3125,106.4063 1549,107.4844 Q1549.6875,108.5469 1551.0313,108.5469 Q1551.6563,108.5469 1552.25,108.2813 Q1552.8438,108 1553.4688,107.4219 L1553.4688,110.1406 Z "/><text fill="#000000" font-family="sans-serif" font-size="12" lengthAdjust="spacingAndGlyphs" textLength="179" x="1564.5" y="108.6543">SatelliteSignalCheckRequest</text><line style="stroke: #A80036; stroke-width: 1.5;" x1="1536.5" x2="1745.5" y1="120.5" y2="120.5"/><line style="stroke: #A80036; stroke-width: 1.5;" x1="1536.5" x2="1745.5" y1="128.5" y2="128.5"/><ellipse cx="1546.5" cy="139.5" fill="#84BE84" rx="3" ry="3" style="stroke: #038048; stroke-width: 1.0;"/><text fill="#000000" font-family="sans-serif" font-size="11" lengthAdjust="spacingAndGlyphs" textLength="143" x="1555.5" y="142.7104">String getSatelliteName()</text><ellipse cx="1546.5" cy="152.3047" fill="#84BE84" rx="3" ry="3" style="stroke: #038048; stroke-width: 1.0;"/><text fill="#000000" font-family="sans-serif" font-size="11" lengthAdjust="spacingAndGlyphs" textLength="125" x="1555.5" y="155.5151">String getCheckType()</text><!--MD5=[5e11d977f08105e989255e48b5831e9e]
reverse link DisplayGpsInterface to DisplayGpsInterfaceImplementation--><path d="M422,212.33 C422,242.89 422,276.38 422,303.33 " fill="none" id="DisplayGpsInterface&lt;-DisplayGpsInterfaceImplementation" style="stroke: #A80036; stroke-width: 1.0; stroke-dasharray: 7.0,7.0;"/><polygon fill="none" points="415,212.27,422,192.27,429,212.27,415,212.27" style="stroke: #A80036; stroke-width: 1.0;"/><!--MD5=[6be1e14f889006c5f08853113ab490e0]
reverse link DisplayGpsManager to DisplayGpsManagerImplementation--><path d="M826,199.3 C826,233.03 826,272.37 826,303.2 " fill="none" id="DisplayGpsManager&lt;-DisplayGpsManagerImplementation" style="stroke: #A80036; stroke-width: 1.0; stroke-dasharray: 7.0,7.0;"/><polygon fill="none" points="819,199.15,826,179.15,833,199.15,819,199.15" style="stroke: #A80036; stroke-width: 1.0;"/><!--MD5=[8f7561e34aa0d27a53c807a3ed854e00]
reverse link DisplayGpsReceiver to DisplayGpsReceiverImplementation--><path d="M1278.37,199.34 C1278.22,215.96 1278.06,233.93 1277.91,251.58 " fill="none" id="DisplayGpsReceiver&lt;-DisplayGpsReceiverImplementation" style="stroke: #A80036; stroke-width: 1.0; stroke-dasharray: 7.0,7.0;"/><polygon fill="none" points="1271.37,199.09,1278.54,179.15,1285.37,199.21,1271.37,199.09" style="stroke: #A80036; stroke-width: 1.0;"/><!--MD5=[268f1e473168846d70e4bd8fc13dcb87]
@startuml Display01Packages_InternalDependencies


package edu.oakland.production.display01 {
    
}


package edu.oakland.production.display01 {
    interface DisplayGpsInterface {
        __
        .. Use Case 1 ..
        {abstract} + void revieveGPSSignals(Satellite satelliteSignal)
        .. Use Case 2 ..
        {abstract} + void reportGpsSignalLoss(String satelliteName)
        {abstract} + void recheckSignalStength(String satelliteName)
        {abstract} + void checkSignalStength(String satelliteName)
    }
}


package edu.oakland.production.display01 {
    interface DisplayGpsManager {
        __
        .. Use Case 1 ..
        {abstract} + String receiveGpsSignalStrengths(Satellite satelliteSignal)
        .. Use Case 2 ..
        {abstract} + SatelliteSignalCheckRequest passGpsSignalStrength(String satelliteName)
    }
}


package edu.oakland.production.display01 {
    interface DisplayGpsReceiver {
        __
        .. Use Case 1 ..
        {abstract} + String measureGpsSignalStrength(Satellite satelliteSignal)
        .. Use Case 2 ..
        {abstract} + SatelliteSignalCheckRequest measureSignal(String satelliteName)
    }
}


package edu.oakland.production.display01 {
    class DisplayGpsInterfaceImplementation {
        __
        .. Use Case 1 ..

        .. Use Case 2 ..

    }
}


DisplayGpsInterfaceImplementation .up.|> DisplayGpsInterface

package edu.oakland.production.display01 {
    class DisplayGpsManagerImplementation {
        __
        .. Use Case 1 ..

        .. Use Case 2 ..

    }
}


DisplayGpsManagerImplementation .up.|> DisplayGpsManager

package edu.oakland.production.display01 {
    class DisplayGpsReceiverImplementation {
        __
        .. Use Case 1 ..
        
        + String measureGpsSignalStrength(Satellite satelliteSignal)
        
        - void passSignalStrength(int signalStrength)

        .. Use Case 2 ..
        
        + String measureGpsSignalStrength(Satellite satelliteSignal)
        
        + SatelliteSignalCheckRequest measureSignal(String satelliteName)

    }
}


DisplayGpsReceiverImplementation .up.|> DisplayGpsReceiver








package edu.oakland.test.display01 {
    
}


package edu.oakland.helper.display01 {
    
}


package edu.oakland.helper.display01 {
    class SatelliteSignalCheckRequest {
        + String getSatelliteName()
        + String getCheckType()
    }
}




@enduml

PlantUML version 1.2020.02(Sun Mar 01 10:22:07 GMT 2020)
(GPL source distribution)
Java Runtime: OpenJDK Runtime Environment
JVM: OpenJDK 64-Bit Server VM
Java Version: 11.0.9+11-Ubuntu-0ubuntu1
Operating System: Linux
Default Encoding: ANSI_X3.4-1968
Language: en
Country: US
--></g></svg>