<?xml version="1.0" encoding="UTF-8" standalone="no"?><svg xmlns="http://www.w3.org/2000/svg" xmlns:xlink="http://www.w3.org/1999/xlink" contentScriptType="application/ecmascript" contentStyleType="text/css" height="687px" preserveAspectRatio="none" style="width:2975px;height:687px;" version="1.1" viewBox="0 0 2975 687" width="2975px" zoomAndPan="magnify"><defs><filter height="300%" id="fggo0522demy" width="300%" x="-1" y="-1"><feGaussianBlur result="blurOut" stdDeviation="2.0"/><feColorMatrix in="blurOut" result="blurOut2" type="matrix" values="0 0 0 0 0 0 0 0 0 0 0 0 0 0 0 0 0 0 .4 0"/><feOffset dx="4.0" dy="4.0" in="blurOut2" result="blurOut3"/><feBlend in="SourceGraphic" in2="blurOut3" mode="normal"/></filter></defs><g><!--MD5=[3e281e6f49e0b185d62a106a5d994a08]
cluster edu.oakland.production.display01--><polygon fill="#FFFFFF" filter="url(#fggo0522demy)" points="22,24,295,24,302,46.2969,1258,46.2969,1258,508,22,508,22,24" style="stroke: #000000; stroke-width: 1.5;"/><line style="stroke: #000000; stroke-width: 1.5;" x1="22" x2="302" y1="46.2969" y2="46.2969"/><text fill="#000000" font-family="sans-serif" font-size="14" font-weight="bold" lengthAdjust="spacingAndGlyphs" textLength="267" x="26" y="38.9951">edu.oakland.production.display01</text><!--MD5=[9181924624f655b87cae45fec5f93c8d]
cluster edu.oakland.test.display01--><polygon fill="#FFFFFF" filter="url(#fggo0522demy)" points="1282,66.5,1500,66.5,1507,88.7969,2481,88.7969,2481,675,1282,675,1282,66.5" style="stroke: #000000; stroke-width: 1.5;"/><line style="stroke: #000000; stroke-width: 1.5;" x1="1282" x2="1507" y1="88.7969" y2="88.7969"/><text fill="#000000" font-family="sans-serif" font-size="14" font-weight="bold" lengthAdjust="spacingAndGlyphs" textLength="212" x="1286" y="81.4951">edu.oakland.test.display01</text><!--MD5=[d02020cdc9562d037d87b751d110dd8b]
cluster edu.oakland.helper.display01--><polygon fill="#FFFFFF" filter="url(#fggo0522demy)" points="2505,34.5,2743,34.5,2750,56.7969,2953,56.7969,2953,197.5,2505,197.5,2505,34.5" style="stroke: #000000; stroke-width: 1.5;"/><line style="stroke: #000000; stroke-width: 1.5;" x1="2505" x2="2750" y1="56.7969" y2="56.7969"/><text fill="#000000" font-family="sans-serif" font-size="14" font-weight="bold" lengthAdjust="spacingAndGlyphs" textLength="232" x="2509" y="49.4951">edu.oakland.helper.display01</text><!--MD5=[fa6248c05b5a852ecd50b5411f159754]
class DisplayGpsInterface--><rect fill="#FEFECE" filter="url(#fggo0522demy)" height="132.8281" id="DisplayGpsInterface" style="stroke: #A80036; stroke-width: 1.5;" width="297" x="38.5" y="59"/><ellipse cx="120.75" cy="75" fill="#B4A7E5" rx="11" ry="11" style="stroke: #A80036; stroke-width: 1.0;"/><path d="M116.6719,70.7656 L116.6719,68.6094 L124.0625,68.6094 L124.0625,70.7656 L121.5938,70.7656 L121.5938,78.8438 L124.0625,78.8438 L124.0625,81 L116.6719,81 L116.6719,78.8438 L119.1406,78.8438 L119.1406,70.7656 L116.6719,70.7656 Z "/><text fill="#000000" font-family="sans-serif" font-size="12" font-style="italic" lengthAdjust="spacingAndGlyphs" textLength="124" x="141.25" y="79.1543">DisplayGpsInterface</text><line style="stroke: #A80036; stroke-width: 1.5;" x1="39.5" x2="334.5" y1="91" y2="91"/><line style="stroke: #A80036; stroke-width: 1.5;" x1="39.5" x2="334.5" y1="99" y2="99"/><ellipse cx="49.5" cy="126.8047" fill="#84BE84" rx="3" ry="3" style="stroke: #038048; stroke-width: 1.0;"/><text fill="#000000" font-family="sans-serif" font-size="11" font-style="italic" lengthAdjust="spacingAndGlyphs" textLength="261" x="58.5" y="130.0151">void receiveGpsSignal(Satellite satelliteSignal)</text><line style="stroke: #A80036; stroke-width: 1.0; stroke-dasharray: 1.0,2.0;" x1="39.5" x2="154" y1="113.4023" y2="113.4023"/><text fill="#000000" font-family="sans-serif" font-size="11" lengthAdjust="spacingAndGlyphs" textLength="66" x="154" y="116.7104">Use Case 1</text><line style="stroke: #A80036; stroke-width: 1.0; stroke-dasharray: 1.0,2.0;" x1="220" x2="334.5" y1="113.4023" y2="113.4023"/><ellipse cx="49.5" cy="156.4141" fill="#84BE84" rx="3" ry="3" style="stroke: #038048; stroke-width: 1.0;"/><text fill="#000000" font-family="sans-serif" font-size="11" font-style="italic" lengthAdjust="spacingAndGlyphs" textLength="266" x="58.5" y="159.6245">void reportGpsSignalLoss(String satelliteName)</text><ellipse cx="49.5" cy="169.2188" fill="#84BE84" rx="3" ry="3" style="stroke: #038048; stroke-width: 1.0;"/><text fill="#000000" font-family="sans-serif" font-size="11" font-style="italic" lengthAdjust="spacingAndGlyphs" textLength="271" x="58.5" y="172.4292">void recheckSignalStength(String satelliteName)</text><ellipse cx="49.5" cy="182.0234" fill="#84BE84" rx="3" ry="3" style="stroke: #038048; stroke-width: 1.0;"/><text fill="#000000" font-family="sans-serif" font-size="11" font-style="italic" lengthAdjust="spacingAndGlyphs" textLength="259" x="58.5" y="185.2339">void checkSignalStength(String satelliteName)</text><line style="stroke: #A80036; stroke-width: 1.0; stroke-dasharray: 1.0,2.0;" x1="39.5" x2="154" y1="143.0117" y2="143.0117"/><text fill="#000000" font-family="sans-serif" font-size="11" lengthAdjust="spacingAndGlyphs" textLength="66" x="154" y="146.3198">Use Case 2</text><line style="stroke: #A80036; stroke-width: 1.0; stroke-dasharray: 1.0,2.0;" x1="220" x2="334.5" y1="143.0117" y2="143.0117"/><!--MD5=[31cbac78761b59e73153a97a452ed09a]
class DisplayGpsManager--><rect fill="#FEFECE" filter="url(#fggo0522demy)" height="107.2188" id="DisplayGpsManager" style="stroke: #A80036; stroke-width: 1.5;" width="441" x="370.5" y="72"/><ellipse cx="525.75" cy="88" fill="#B4A7E5" rx="11" ry="11" style="stroke: #A80036; stroke-width: 1.0;"/><path d="M521.6719,83.7656 L521.6719,81.6094 L529.0625,81.6094 L529.0625,83.7656 L526.5938,83.7656 L526.5938,91.8438 L529.0625,91.8438 L529.0625,94 L521.6719,94 L521.6719,91.8438 L524.1406,91.8438 L524.1406,83.7656 L521.6719,83.7656 Z "/><text fill="#000000" font-family="sans-serif" font-size="12" font-style="italic" lengthAdjust="spacingAndGlyphs" textLength="122" x="546.25" y="92.1543">DisplayGpsManager</text><line style="stroke: #A80036; stroke-width: 1.5;" x1="371.5" x2="810.5" y1="104" y2="104"/><line style="stroke: #A80036; stroke-width: 1.5;" x1="371.5" x2="810.5" y1="112" y2="112"/><ellipse cx="381.5" cy="139.8047" fill="#84BE84" rx="3" ry="3" style="stroke: #038048; stroke-width: 1.0;"/><text fill="#000000" font-family="sans-serif" font-size="11" font-style="italic" lengthAdjust="spacingAndGlyphs" textLength="318" x="390.5" y="143.0151">String receiveGpsSignalStrength(Satellite satelliteSignal)</text><line style="stroke: #A80036; stroke-width: 1.0; stroke-dasharray: 1.0,2.0;" x1="371.5" x2="558" y1="126.4023" y2="126.4023"/><text fill="#000000" font-family="sans-serif" font-size="11" lengthAdjust="spacingAndGlyphs" textLength="66" x="558" y="129.7104">Use Case 1</text><line style="stroke: #A80036; stroke-width: 1.0; stroke-dasharray: 1.0,2.0;" x1="624" x2="810.5" y1="126.4023" y2="126.4023"/><ellipse cx="381.5" cy="169.4141" fill="#84BE84" rx="3" ry="3" style="stroke: #038048; stroke-width: 1.0;"/><text fill="#000000" font-family="sans-serif" font-size="11" font-style="italic" lengthAdjust="spacingAndGlyphs" textLength="415" x="390.5" y="172.6245">SatelliteSignalCheckRequest passGpsSignalStrength(String satelliteName)</text><line style="stroke: #A80036; stroke-width: 1.0; stroke-dasharray: 1.0,2.0;" x1="371.5" x2="558" y1="156.0117" y2="156.0117"/><text fill="#000000" font-family="sans-serif" font-size="11" lengthAdjust="spacingAndGlyphs" textLength="66" x="558" y="159.3198">Use Case 2</text><line style="stroke: #A80036; stroke-width: 1.0; stroke-dasharray: 1.0,2.0;" x1="624" x2="810.5" y1="156.0117" y2="156.0117"/><!--MD5=[319273309e4c56bac150542a32321bb2]
class DisplayGpsReceiver--><rect fill="#FEFECE" filter="url(#fggo0522demy)" height="107.2188" id="DisplayGpsReceiver" style="stroke: #A80036; stroke-width: 1.5;" width="395" x="846.5" y="72"/><ellipse cx="979.75" cy="88" fill="#B4A7E5" rx="11" ry="11" style="stroke: #A80036; stroke-width: 1.0;"/><path d="M975.6719,83.7656 L975.6719,81.6094 L983.0625,81.6094 L983.0625,83.7656 L980.5938,83.7656 L980.5938,91.8438 L983.0625,91.8438 L983.0625,94 L975.6719,94 L975.6719,91.8438 L978.1406,91.8438 L978.1406,83.7656 L975.6719,83.7656 Z "/><text fill="#000000" font-family="sans-serif" font-size="12" font-style="italic" lengthAdjust="spacingAndGlyphs" textLength="120" x="1000.25" y="92.1543">DisplayGpsReceiver</text><line style="stroke: #A80036; stroke-width: 1.5;" x1="847.5" x2="1240.5" y1="104" y2="104"/><line style="stroke: #A80036; stroke-width: 1.5;" x1="847.5" x2="1240.5" y1="112" y2="112"/><ellipse cx="857.5" cy="139.8047" fill="#84BE84" rx="3" ry="3" style="stroke: #038048; stroke-width: 1.0;"/><text fill="#000000" font-family="sans-serif" font-size="11" font-style="italic" lengthAdjust="spacingAndGlyphs" textLength="326" x="866.5" y="143.0151">String measureGpsSignalStrength(Satellite satelliteSignal)</text><line style="stroke: #A80036; stroke-width: 1.0; stroke-dasharray: 1.0,2.0;" x1="847.5" x2="1011" y1="126.4023" y2="126.4023"/><text fill="#000000" font-family="sans-serif" font-size="11" lengthAdjust="spacingAndGlyphs" textLength="66" x="1011" y="129.7104">Use Case 1</text><line style="stroke: #A80036; stroke-width: 1.0; stroke-dasharray: 1.0,2.0;" x1="1077" x2="1240.5" y1="126.4023" y2="126.4023"/><ellipse cx="857.5" cy="169.4141" fill="#84BE84" rx="3" ry="3" style="stroke: #038048; stroke-width: 1.0;"/><text fill="#000000" font-family="sans-serif" font-size="11" font-style="italic" lengthAdjust="spacingAndGlyphs" textLength="369" x="866.5" y="172.6245">SatelliteSignalCheckRequest measureSignal(String satelliteName)</text><line style="stroke: #A80036; stroke-width: 1.0; stroke-dasharray: 1.0,2.0;" x1="847.5" x2="1011" y1="156.0117" y2="156.0117"/><text fill="#000000" font-family="sans-serif" font-size="11" lengthAdjust="spacingAndGlyphs" textLength="66" x="1011" y="159.3198">Use Case 2</text><line style="stroke: #A80036; stroke-width: 1.0; stroke-dasharray: 1.0,2.0;" x1="1077" x2="1240.5" y1="156.0117" y2="156.0117"/><!--MD5=[6376794c08ca75f6fa530286e1e32b13]
class DisplayGpsInterfaceImplementation--><rect fill="#FEFECE" filter="url(#fggo0522demy)" height="171.2422" id="DisplayGpsInterfaceImplementation" style="stroke: #A80036; stroke-width: 1.5;" width="398" x="38" y="286.5"/><ellipse cx="122.25" cy="302.5" fill="#ADD1B2" rx="11" ry="11" style="stroke: #A80036; stroke-width: 1.0;"/><path d="M125.2188,308.1406 Q124.6406,308.4375 124,308.5781 Q123.3594,308.7344 122.6563,308.7344 Q120.1563,308.7344 118.8281,307.0938 Q117.5156,305.4375 117.5156,302.3125 Q117.5156,299.1875 118.8281,297.5313 Q120.1563,295.875 122.6563,295.875 Q123.3594,295.875 124,296.0313 Q124.6563,296.1875 125.2188,296.4844 L125.2188,299.2031 Q124.5938,298.625 124,298.3594 Q123.4063,298.0781 122.7813,298.0781 Q121.4375,298.0781 120.75,299.1563 Q120.0625,300.2188 120.0625,302.3125 Q120.0625,304.4063 120.75,305.4844 Q121.4375,306.5469 122.7813,306.5469 Q123.4063,306.5469 124,306.2813 Q124.5938,306 125.2188,305.4219 L125.2188,308.1406 Z "/><text fill="#000000" font-family="sans-serif" font-size="12" lengthAdjust="spacingAndGlyphs" textLength="221" x="142.75" y="306.6543">DisplayGpsInterfaceImplementation</text><line style="stroke: #A80036; stroke-width: 1.5;" x1="39" x2="435" y1="318.5" y2="318.5"/><rect fill="none" height="6" style="stroke: #C82930; stroke-width: 1.0;" width="6" x="46" y="326.5"/><text fill="#000000" font-family="sans-serif" font-size="11" lengthAdjust="spacingAndGlyphs" textLength="162" x="58" y="332.7104">DisplayGpsReciever reciever</text><line style="stroke: #A80036; stroke-width: 1.5;" x1="39" x2="435" y1="339.3047" y2="339.3047"/><ellipse cx="49" cy="350.3047" fill="#84BE84" rx="3" ry="3" style="stroke: #038048; stroke-width: 1.0;"/><text fill="#000000" font-family="sans-serif" font-size="11" lengthAdjust="spacingAndGlyphs" textLength="372" x="58" y="353.5151">DisplayGpsInterfaceImplementation(DisplayGpsReciever reciever)</text><ellipse cx="49" cy="379.9141" fill="#84BE84" rx="3" ry="3" style="stroke: #038048; stroke-width: 1.0;"/><text fill="#000000" font-family="sans-serif" font-size="11" lengthAdjust="spacingAndGlyphs" textLength="264" x="58" y="383.1245">void receiveGpsSignal(Satellite satelliteSignal)</text><line style="stroke: #A80036; stroke-width: 1.0; stroke-dasharray: 1.0,2.0;" x1="39" x2="204" y1="366.5117" y2="366.5117"/><text fill="#000000" font-family="sans-serif" font-size="11" lengthAdjust="spacingAndGlyphs" textLength="66" x="204" y="369.8198">Use Case 1</text><line style="stroke: #A80036; stroke-width: 1.0; stroke-dasharray: 1.0,2.0;" x1="270" x2="435" y1="366.5117" y2="366.5117"/><ellipse cx="49" cy="409.5234" fill="#84BE84" rx="3" ry="3" style="stroke: #038048; stroke-width: 1.0;"/><text fill="#000000" font-family="sans-serif" font-size="11" lengthAdjust="spacingAndGlyphs" textLength="271" x="58" y="412.7339">void reportGpsSignalLoss(String satelliteName)</text><ellipse cx="49" cy="422.3281" fill="#84BE84" rx="3" ry="3" style="stroke: #038048; stroke-width: 1.0;"/><text fill="#000000" font-family="sans-serif" font-size="11" lengthAdjust="spacingAndGlyphs" textLength="274" x="58" y="425.5386">void recheckSignalStength(String satelliteName)</text><ellipse cx="49" cy="435.1328" fill="#84BE84" rx="3" ry="3" style="stroke: #038048; stroke-width: 1.0;"/><text fill="#000000" font-family="sans-serif" font-size="11" lengthAdjust="spacingAndGlyphs" textLength="262" x="58" y="438.3433">void checkSignalStength(String satelliteName)</text><rect fill="#F24D5C" height="6" style="stroke: #C82930; stroke-width: 1.0;" width="6" x="46" y="444.9375"/><text fill="#000000" font-family="sans-serif" font-size="11" lengthAdjust="spacingAndGlyphs" textLength="261" x="58" y="451.1479">int reportSignalStrength(String satelliteName)</text><line style="stroke: #A80036; stroke-width: 1.0; stroke-dasharray: 1.0,2.0;" x1="39" x2="204" y1="396.1211" y2="396.1211"/><text fill="#000000" font-family="sans-serif" font-size="11" lengthAdjust="spacingAndGlyphs" textLength="66" x="204" y="399.4292">Use Case 2</text><line style="stroke: #A80036; stroke-width: 1.0; stroke-dasharray: 1.0,2.0;" x1="270" x2="435" y1="396.1211" y2="396.1211"/><!--MD5=[85db0a5b69c4b55d7b0101612d8a7890]
class DisplayGpsManagerImplementation--><rect fill="#FEFECE" filter="url(#fggo0522demy)" height="107.2188" id="DisplayGpsManagerImplementation" style="stroke: #A80036; stroke-width: 1.5;" width="252" x="471" y="318.5"/><ellipse cx="486" cy="334.5" fill="#ADD1B2" rx="11" ry="11" style="stroke: #A80036; stroke-width: 1.0;"/><path d="M488.9688,340.1406 Q488.3906,340.4375 487.75,340.5781 Q487.1094,340.7344 486.4063,340.7344 Q483.9063,340.7344 482.5781,339.0938 Q481.2656,337.4375 481.2656,334.3125 Q481.2656,331.1875 482.5781,329.5313 Q483.9063,327.875 486.4063,327.875 Q487.1094,327.875 487.75,328.0313 Q488.4063,328.1875 488.9688,328.4844 L488.9688,331.2031 Q488.3438,330.625 487.75,330.3594 Q487.1563,330.0781 486.5313,330.0781 Q485.1875,330.0781 484.5,331.1563 Q483.8125,332.2188 483.8125,334.3125 Q483.8125,336.4063 484.5,337.4844 Q485.1875,338.5469 486.5313,338.5469 Q487.1563,338.5469 487.75,338.2813 Q488.3438,338 488.9688,337.4219 L488.9688,340.1406 Z "/><text fill="#000000" font-family="sans-serif" font-size="12" lengthAdjust="spacingAndGlyphs" textLength="220" x="500" y="338.6543">DisplayGpsManagerImplementation</text><line style="stroke: #A80036; stroke-width: 1.5;" x1="472" x2="722" y1="350.5" y2="350.5"/><line style="stroke: #A80036; stroke-width: 1.5;" x1="472" x2="722" y1="358.5" y2="358.5"/><text fill="#000000" font-family="sans-serif" font-size="11" lengthAdjust="spacingAndGlyphs" textLength="0" x="481" y="389.5151"/><line style="stroke: #A80036; stroke-width: 1.0; stroke-dasharray: 1.0,2.0;" x1="472" x2="564" y1="372.9023" y2="372.9023"/><text fill="#000000" font-family="sans-serif" font-size="11" lengthAdjust="spacingAndGlyphs" textLength="66" x="564" y="376.2104">Use Case 1</text><line style="stroke: #A80036; stroke-width: 1.0; stroke-dasharray: 1.0,2.0;" x1="630" x2="722" y1="372.9023" y2="372.9023"/><text fill="#000000" font-family="sans-serif" font-size="11" lengthAdjust="spacingAndGlyphs" textLength="0" x="481" y="419.1245"/><line style="stroke: #A80036; stroke-width: 1.0; stroke-dasharray: 1.0,2.0;" x1="472" x2="564" y1="402.5117" y2="402.5117"/><text fill="#000000" font-family="sans-serif" font-size="11" lengthAdjust="spacingAndGlyphs" textLength="66" x="564" y="405.8198">Use Case 2</text><line style="stroke: #A80036; stroke-width: 1.0; stroke-dasharray: 1.0,2.0;" x1="630" x2="722" y1="402.5117" y2="402.5117"/><!--MD5=[02b25ee3f711f666678619f4b81f3681]
class DisplayGpsReceiverImplementation--><rect fill="#FEFECE" filter="url(#fggo0522demy)" height="240.0703" id="DisplayGpsReceiverImplementation" style="stroke: #A80036; stroke-width: 1.5;" width="401" x="758.5" y="252"/><ellipse cx="845.75" cy="268" fill="#ADD1B2" rx="11" ry="11" style="stroke: #A80036; stroke-width: 1.0;"/><path d="M848.7188,273.6406 Q848.1406,273.9375 847.5,274.0781 Q846.8594,274.2344 846.1563,274.2344 Q843.6563,274.2344 842.3281,272.5938 Q841.0156,270.9375 841.0156,267.8125 Q841.0156,264.6875 842.3281,263.0313 Q843.6563,261.375 846.1563,261.375 Q846.8594,261.375 847.5,261.5313 Q848.1563,261.6875 848.7188,261.9844 L848.7188,264.7031 Q848.0938,264.125 847.5,263.8594 Q846.9063,263.5781 846.2813,263.5781 Q844.9375,263.5781 844.25,264.6563 Q843.5625,265.7188 843.5625,267.8125 Q843.5625,269.9063 844.25,270.9844 Q844.9375,272.0469 846.2813,272.0469 Q846.9063,272.0469 847.5,271.7813 Q848.0938,271.5 848.7188,270.9219 L848.7188,273.6406 Z "/><text fill="#000000" font-family="sans-serif" font-size="12" lengthAdjust="spacingAndGlyphs" textLength="218" x="866.25" y="272.1543">DisplayGpsReceiverImplementation</text><line style="stroke: #A80036; stroke-width: 1.5;" x1="759.5" x2="1158.5" y1="284" y2="284"/><text fill="#000000" font-family="sans-serif" font-size="11" lengthAdjust="spacingAndGlyphs" textLength="0" x="768.5" y="298.2104"/><text fill="#000000" font-family="sans-serif" font-size="11" lengthAdjust="spacingAndGlyphs" textLength="168" x="764.5" y="311.0151">DisplayGpsManager manager</text><text fill="#000000" font-family="sans-serif" font-size="11" lengthAdjust="spacingAndGlyphs" textLength="0" x="768.5" y="323.8198"/><text fill="#000000" font-family="sans-serif" font-size="11" lengthAdjust="spacingAndGlyphs" textLength="0" x="782.5" y="353.4292"/><ellipse cx="769.5" cy="363.0234" fill="#84BE84" rx="3" ry="3" style="stroke: #038048; stroke-width: 1.0;"/><text fill="#000000" font-family="sans-serif" font-size="11" lengthAdjust="spacingAndGlyphs" textLength="334" x="778.5" y="366.2339">String measureGpsSignalStrength(Satellite satelliteSignal)</text><text fill="#000000" font-family="sans-serif" font-size="11" lengthAdjust="spacingAndGlyphs" textLength="0" x="782.5" y="379.0386"/><rect fill="#F24D5C" height="6" style="stroke: #C82930; stroke-width: 1.0;" width="6" x="766.5" y="385.6328"/><text fill="#000000" font-family="sans-serif" font-size="11" lengthAdjust="spacingAndGlyphs" textLength="248" x="778.5" y="391.8433">void passSignalStrength(int signalStrength)</text><text fill="#000000" font-family="sans-serif" font-size="11" lengthAdjust="spacingAndGlyphs" textLength="0" x="782.5" y="404.6479"/><line style="stroke: #A80036; stroke-width: 1.0; stroke-dasharray: 1.0,2.0;" x1="759.5" x2="926" y1="336.8164" y2="336.8164"/><text fill="#000000" font-family="sans-serif" font-size="11" lengthAdjust="spacingAndGlyphs" textLength="66" x="926" y="340.1245">Use Case 1</text><line style="stroke: #A80036; stroke-width: 1.0; stroke-dasharray: 1.0,2.0;" x1="992" x2="1158.5" y1="336.8164" y2="336.8164"/><text fill="#000000" font-family="sans-serif" font-size="11" lengthAdjust="spacingAndGlyphs" textLength="0" x="782.5" y="434.2573"/><ellipse cx="769.5" cy="443.8516" fill="#84BE84" rx="3" ry="3" style="stroke: #038048; stroke-width: 1.0;"/><text fill="#000000" font-family="sans-serif" font-size="11" lengthAdjust="spacingAndGlyphs" textLength="334" x="778.5" y="447.062">String measureGpsSignalStrength(Satellite satelliteSignal)</text><text fill="#000000" font-family="sans-serif" font-size="11" lengthAdjust="spacingAndGlyphs" textLength="0" x="782.5" y="459.8667"/><ellipse cx="769.5" cy="469.4609" fill="#84BE84" rx="3" ry="3" style="stroke: #038048; stroke-width: 1.0;"/><text fill="#000000" font-family="sans-serif" font-size="11" lengthAdjust="spacingAndGlyphs" textLength="375" x="778.5" y="472.6714">SatelliteSignalCheckRequest measureSignal(String satelliteName)</text><text fill="#000000" font-family="sans-serif" font-size="11" lengthAdjust="spacingAndGlyphs" textLength="0" x="782.5" y="485.4761"/><line style="stroke: #A80036; stroke-width: 1.0; stroke-dasharray: 1.0,2.0;" x1="759.5" x2="926" y1="417.6445" y2="417.6445"/><text fill="#000000" font-family="sans-serif" font-size="11" lengthAdjust="spacingAndGlyphs" textLength="66" x="926" y="420.9526">Use Case 2</text><line style="stroke: #A80036; stroke-width: 1.0; stroke-dasharray: 1.0,2.0;" x1="992" x2="1158.5" y1="417.6445" y2="417.6445"/><!--MD5=[31ac70925a3cf930ecc7428c11a6bdde]
class DisplayGpsInterfaceImplementationTests--><rect fill="#FEFECE" filter="url(#fggo0522demy)" height="48" id="DisplayGpsInterfaceImplementationTests" style="stroke: #A80036; stroke-width: 1.5;" width="287" x="1298.5" y="101.5"/><ellipse cx="1313.5" cy="117.5" fill="#ADD1B2" rx="11" ry="11" style="stroke: #A80036; stroke-width: 1.0;"/><path d="M1316.4688,123.1406 Q1315.8906,123.4375 1315.25,123.5781 Q1314.6094,123.7344 1313.9063,123.7344 Q1311.4063,123.7344 1310.0781,122.0938 Q1308.7656,120.4375 1308.7656,117.3125 Q1308.7656,114.1875 1310.0781,112.5313 Q1311.4063,110.875 1313.9063,110.875 Q1314.6094,110.875 1315.25,111.0313 Q1315.9063,111.1875 1316.4688,111.4844 L1316.4688,114.2031 Q1315.8438,113.625 1315.25,113.3594 Q1314.6563,113.0781 1314.0313,113.0781 Q1312.6875,113.0781 1312,114.1563 Q1311.3125,115.2188 1311.3125,117.3125 Q1311.3125,119.4063 1312,120.4844 Q1312.6875,121.5469 1314.0313,121.5469 Q1314.6563,121.5469 1315.25,121.2813 Q1315.8438,121 1316.4688,120.4219 L1316.4688,123.1406 Z "/><text fill="#000000" font-family="sans-serif" font-size="12" lengthAdjust="spacingAndGlyphs" textLength="255" x="1327.5" y="121.6543">DisplayGpsInterfaceImplementationTests</text><line style="stroke: #A80036; stroke-width: 1.5;" x1="1299.5" x2="1584.5" y1="133.5" y2="133.5"/><line style="stroke: #A80036; stroke-width: 1.5;" x1="1299.5" x2="1584.5" y1="141.5" y2="141.5"/><!--MD5=[b5e9506f01c5d0dda59c0c34003c249d]
class DisplayGpsManagerImplementationTests--><rect fill="#FEFECE" filter="url(#fggo0522demy)" height="48" id="DisplayGpsManagerImplementationTests" style="stroke: #A80036; stroke-width: 1.5;" width="286" x="1621" y="101.5"/><ellipse cx="1636" cy="117.5" fill="#ADD1B2" rx="11" ry="11" style="stroke: #A80036; stroke-width: 1.0;"/><path d="M1638.9688,123.1406 Q1638.3906,123.4375 1637.75,123.5781 Q1637.1094,123.7344 1636.4063,123.7344 Q1633.9063,123.7344 1632.5781,122.0938 Q1631.2656,120.4375 1631.2656,117.3125 Q1631.2656,114.1875 1632.5781,112.5313 Q1633.9063,110.875 1636.4063,110.875 Q1637.1094,110.875 1637.75,111.0313 Q1638.4063,111.1875 1638.9688,111.4844 L1638.9688,114.2031 Q1638.3438,113.625 1637.75,113.3594 Q1637.1563,113.0781 1636.5313,113.0781 Q1635.1875,113.0781 1634.5,114.1563 Q1633.8125,115.2188 1633.8125,117.3125 Q1633.8125,119.4063 1634.5,120.4844 Q1635.1875,121.5469 1636.5313,121.5469 Q1637.1563,121.5469 1637.75,121.2813 Q1638.3438,121 1638.9688,120.4219 L1638.9688,123.1406 Z "/><text fill="#000000" font-family="sans-serif" font-size="12" lengthAdjust="spacingAndGlyphs" textLength="254" x="1650" y="121.6543">DisplayGpsManagerImplementationTests</text><line style="stroke: #A80036; stroke-width: 1.5;" x1="1622" x2="1906" y1="133.5" y2="133.5"/><line style="stroke: #A80036; stroke-width: 1.5;" x1="1622" x2="1906" y1="141.5" y2="141.5"/><!--MD5=[933cdd11260ca9cf411a4933e66b6f57]
class DisplayGpsReceiverImplementationTests--><rect fill="#FEFECE" filter="url(#fggo0522demy)" height="48" id="DisplayGpsReceiverImplementationTests" style="stroke: #A80036; stroke-width: 1.5;" width="284" x="1942" y="101.5"/><ellipse cx="1957" cy="117.5" fill="#ADD1B2" rx="11" ry="11" style="stroke: #A80036; stroke-width: 1.0;"/><path d="M1959.9688,123.1406 Q1959.3906,123.4375 1958.75,123.5781 Q1958.1094,123.7344 1957.4063,123.7344 Q1954.9063,123.7344 1953.5781,122.0938 Q1952.2656,120.4375 1952.2656,117.3125 Q1952.2656,114.1875 1953.5781,112.5313 Q1954.9063,110.875 1957.4063,110.875 Q1958.1094,110.875 1958.75,111.0313 Q1959.4063,111.1875 1959.9688,111.4844 L1959.9688,114.2031 Q1959.3438,113.625 1958.75,113.3594 Q1958.1563,113.0781 1957.5313,113.0781 Q1956.1875,113.0781 1955.5,114.1563 Q1954.8125,115.2188 1954.8125,117.3125 Q1954.8125,119.4063 1955.5,120.4844 Q1956.1875,121.5469 1957.5313,121.5469 Q1958.1563,121.5469 1958.75,121.2813 Q1959.3438,121 1959.9688,120.4219 L1959.9688,123.1406 Z "/><text fill="#000000" font-family="sans-serif" font-size="12" lengthAdjust="spacingAndGlyphs" textLength="252" x="1971" y="121.6543">DisplayGpsReceiverImplementationTests</text><line style="stroke: #A80036; stroke-width: 1.5;" x1="1943" x2="2225" y1="133.5" y2="133.5"/><line style="stroke: #A80036; stroke-width: 1.5;" x1="1943" x2="2225" y1="141.5" y2="141.5"/><!--MD5=[9d578318e58e71edcf98403314a477bf]
class SatelliteSignalCheckRequestTests--><rect fill="#FEFECE" filter="url(#fggo0522demy)" height="48" id="SatelliteSignalCheckRequestTests" style="stroke: #A80036; stroke-width: 1.5;" width="245" x="1298.5" y="348"/><ellipse cx="1313.5" cy="364" fill="#ADD1B2" rx="11" ry="11" style="stroke: #A80036; stroke-width: 1.0;"/><path d="M1316.4688,369.6406 Q1315.8906,369.9375 1315.25,370.0781 Q1314.6094,370.2344 1313.9063,370.2344 Q1311.4063,370.2344 1310.0781,368.5938 Q1308.7656,366.9375 1308.7656,363.8125 Q1308.7656,360.6875 1310.0781,359.0313 Q1311.4063,357.375 1313.9063,357.375 Q1314.6094,357.375 1315.25,357.5313 Q1315.9063,357.6875 1316.4688,357.9844 L1316.4688,360.7031 Q1315.8438,360.125 1315.25,359.8594 Q1314.6563,359.5781 1314.0313,359.5781 Q1312.6875,359.5781 1312,360.6563 Q1311.3125,361.7188 1311.3125,363.8125 Q1311.3125,365.9063 1312,366.9844 Q1312.6875,368.0469 1314.0313,368.0469 Q1314.6563,368.0469 1315.25,367.7813 Q1315.8438,367.5 1316.4688,366.9219 L1316.4688,369.6406 Z "/><text fill="#000000" font-family="sans-serif" font-size="12" lengthAdjust="spacingAndGlyphs" textLength="213" x="1327.5" y="368.1543">SatelliteSignalCheckRequestTests</text><line style="stroke: #A80036; stroke-width: 1.5;" x1="1299.5" x2="1542.5" y1="380" y2="380"/><line style="stroke: #A80036; stroke-width: 1.5;" x1="1299.5" x2="1542.5" y1="388" y2="388"/><!--MD5=[6057d86884460ab216cb89f03a202a5c]
class DisplayGpsManagerStub--><rect fill="#FEFECE" filter="url(#fggo0522demy)" height="107.2188" id="DisplayGpsManagerStub" style="stroke: #A80036; stroke-width: 1.5;" width="450" x="1579" y="318.5"/><ellipse cx="1723.75" cy="334.5" fill="#ADD1B2" rx="11" ry="11" style="stroke: #A80036; stroke-width: 1.0;"/><path d="M1726.7188,340.1406 Q1726.1406,340.4375 1725.5,340.5781 Q1724.8594,340.7344 1724.1563,340.7344 Q1721.6563,340.7344 1720.3281,339.0938 Q1719.0156,337.4375 1719.0156,334.3125 Q1719.0156,331.1875 1720.3281,329.5313 Q1721.6563,327.875 1724.1563,327.875 Q1724.8594,327.875 1725.5,328.0313 Q1726.1563,328.1875 1726.7188,328.4844 L1726.7188,331.2031 Q1726.0938,330.625 1725.5,330.3594 Q1724.9063,330.0781 1724.2813,330.0781 Q1722.9375,330.0781 1722.25,331.1563 Q1721.5625,332.2188 1721.5625,334.3125 Q1721.5625,336.4063 1722.25,337.4844 Q1722.9375,338.5469 1724.2813,338.5469 Q1724.9063,338.5469 1725.5,338.2813 Q1726.0938,338 1726.7188,337.4219 L1726.7188,340.1406 Z "/><text fill="#000000" font-family="sans-serif" font-size="12" lengthAdjust="spacingAndGlyphs" textLength="152" x="1744.25" y="338.6543">DisplayGpsManagerStub</text><line style="stroke: #A80036; stroke-width: 1.5;" x1="1580" x2="2028" y1="350.5" y2="350.5"/><line style="stroke: #A80036; stroke-width: 1.5;" x1="1580" x2="2028" y1="358.5" y2="358.5"/><ellipse cx="1590" cy="386.3047" fill="#84BE84" rx="3" ry="3" style="stroke: #038048; stroke-width: 1.0;"/><text fill="#000000" font-family="sans-serif" font-size="11" lengthAdjust="spacingAndGlyphs" textLength="331" x="1599" y="389.5151">String receiveGpsSignalStrengths(Satellite satelliteSignal)</text><line style="stroke: #A80036; stroke-width: 1.0; stroke-dasharray: 1.0,2.0;" x1="1580" x2="1771" y1="372.9023" y2="372.9023"/><text fill="#000000" font-family="sans-serif" font-size="11" lengthAdjust="spacingAndGlyphs" textLength="66" x="1771" y="376.2104">Use Case 1</text><line style="stroke: #A80036; stroke-width: 1.0; stroke-dasharray: 1.0,2.0;" x1="1837" x2="2028" y1="372.9023" y2="372.9023"/><ellipse cx="1590" cy="415.9141" fill="#84BE84" rx="3" ry="3" style="stroke: #038048; stroke-width: 1.0;"/><text fill="#000000" font-family="sans-serif" font-size="11" lengthAdjust="spacingAndGlyphs" textLength="424" x="1599" y="419.1245">SatelliteSignalCheckRequest passGpsSignalStrength(String satelliteName)</text><line style="stroke: #A80036; stroke-width: 1.0; stroke-dasharray: 1.0,2.0;" x1="1580" x2="1771" y1="402.5117" y2="402.5117"/><text fill="#000000" font-family="sans-serif" font-size="11" lengthAdjust="spacingAndGlyphs" textLength="66" x="1771" y="405.8198">Use Case 2</text><line style="stroke: #A80036; stroke-width: 1.0; stroke-dasharray: 1.0,2.0;" x1="1837" x2="2028" y1="402.5117" y2="402.5117"/><!--MD5=[0af74227177caadb6af436c979172233]
class DisplayGpsReceiverStub--><rect fill="#FEFECE" filter="url(#fggo0522demy)" height="107.2188" id="DisplayGpsReceiverStub" style="stroke: #A80036; stroke-width: 1.5;" width="401" x="2064.5" y="318.5"/><ellipse cx="2185.75" cy="334.5" fill="#ADD1B2" rx="11" ry="11" style="stroke: #A80036; stroke-width: 1.0;"/><path d="M2188.7188,340.1406 Q2188.1406,340.4375 2187.5,340.5781 Q2186.8594,340.7344 2186.1563,340.7344 Q2183.6563,340.7344 2182.3281,339.0938 Q2181.0156,337.4375 2181.0156,334.3125 Q2181.0156,331.1875 2182.3281,329.5313 Q2183.6563,327.875 2186.1563,327.875 Q2186.8594,327.875 2187.5,328.0313 Q2188.1563,328.1875 2188.7188,328.4844 L2188.7188,331.2031 Q2188.0938,330.625 2187.5,330.3594 Q2186.9063,330.0781 2186.2813,330.0781 Q2184.9375,330.0781 2184.25,331.1563 Q2183.5625,332.2188 2183.5625,334.3125 Q2183.5625,336.4063 2184.25,337.4844 Q2184.9375,338.5469 2186.2813,338.5469 Q2186.9063,338.5469 2187.5,338.2813 Q2188.0938,338 2188.7188,337.4219 L2188.7188,340.1406 Z "/><text fill="#000000" font-family="sans-serif" font-size="12" lengthAdjust="spacingAndGlyphs" textLength="150" x="2206.25" y="338.6543">DisplayGpsReceiverStub</text><line style="stroke: #A80036; stroke-width: 1.5;" x1="2065.5" x2="2464.5" y1="350.5" y2="350.5"/><line style="stroke: #A80036; stroke-width: 1.5;" x1="2065.5" x2="2464.5" y1="358.5" y2="358.5"/><ellipse cx="2075.5" cy="386.3047" fill="#84BE84" rx="3" ry="3" style="stroke: #038048; stroke-width: 1.0;"/><text fill="#000000" font-family="sans-serif" font-size="11" lengthAdjust="spacingAndGlyphs" textLength="334" x="2084.5" y="389.5151">String measureGpsSignalStrength(Satellite satelliteSignal)</text><line style="stroke: #A80036; stroke-width: 1.0; stroke-dasharray: 1.0,2.0;" x1="2065.5" x2="2232" y1="372.9023" y2="372.9023"/><text fill="#000000" font-family="sans-serif" font-size="11" lengthAdjust="spacingAndGlyphs" textLength="66" x="2232" y="376.2104">Use Case 1</text><line style="stroke: #A80036; stroke-width: 1.0; stroke-dasharray: 1.0,2.0;" x1="2298" x2="2464.5" y1="372.9023" y2="372.9023"/><ellipse cx="2075.5" cy="415.9141" fill="#84BE84" rx="3" ry="3" style="stroke: #038048; stroke-width: 1.0;"/><text fill="#000000" font-family="sans-serif" font-size="11" lengthAdjust="spacingAndGlyphs" textLength="375" x="2084.5" y="419.1245">SatelliteSignalCheckRequest measureSignal(String satelliteName)</text><line style="stroke: #A80036; stroke-width: 1.0; stroke-dasharray: 1.0,2.0;" x1="2065.5" x2="2232" y1="402.5117" y2="402.5117"/><text fill="#000000" font-family="sans-serif" font-size="11" lengthAdjust="spacingAndGlyphs" textLength="66" x="2232" y="405.8198">Use Case 2</text><line style="stroke: #A80036; stroke-width: 1.0; stroke-dasharray: 1.0,2.0;" x1="2298" x2="2464.5" y1="402.5117" y2="402.5117"/><!--MD5=[80c749bdd7ec7c789b994dbe93702fd9]
class MiddlewareGisInterfaceStub--><rect fill="#FEFECE" filter="url(#fggo0522demy)" height="107.2188" id="MiddlewareGisInterfaceStub" style="stroke: #A80036; stroke-width: 1.5;" width="350" x="1298" y="552"/><ellipse cx="1381.75" cy="568" fill="#ADD1B2" rx="11" ry="11" style="stroke: #A80036; stroke-width: 1.0;"/><path d="M1384.7188,573.6406 Q1384.1406,573.9375 1383.5,574.0781 Q1382.8594,574.2344 1382.1563,574.2344 Q1379.6563,574.2344 1378.3281,572.5938 Q1377.0156,570.9375 1377.0156,567.8125 Q1377.0156,564.6875 1378.3281,563.0313 Q1379.6563,561.375 1382.1563,561.375 Q1382.8594,561.375 1383.5,561.5313 Q1384.1563,561.6875 1384.7188,561.9844 L1384.7188,564.7031 Q1384.0938,564.125 1383.5,563.8594 Q1382.9063,563.5781 1382.2813,563.5781 Q1380.9375,563.5781 1380.25,564.6563 Q1379.5625,565.7188 1379.5625,567.8125 Q1379.5625,569.9063 1380.25,570.9844 Q1380.9375,572.0469 1382.2813,572.0469 Q1382.9063,572.0469 1383.5,571.7813 Q1384.0938,571.5 1384.7188,570.9219 L1384.7188,573.6406 Z "/><text fill="#000000" font-family="sans-serif" font-size="12" lengthAdjust="spacingAndGlyphs" textLength="174" x="1402.25" y="572.1543">MiddlewareGisInterfaceStub</text><line style="stroke: #A80036; stroke-width: 1.5;" x1="1299" x2="1647" y1="584" y2="584"/><line style="stroke: #A80036; stroke-width: 1.5;" x1="1299" x2="1647" y1="592" y2="592"/><ellipse cx="1309" cy="619.8047" fill="#84BE84" rx="3" ry="3" style="stroke: #038048; stroke-width: 1.0;"/><text fill="#000000" font-family="sans-serif" font-size="11" lengthAdjust="spacingAndGlyphs" textLength="324" x="1318" y="623.0151">String revieveGpsSignalStrength(Satellite satelliteSignal)</text><line style="stroke: #A80036; stroke-width: 1.0; stroke-dasharray: 1.0,2.0;" x1="1299" x2="1440" y1="606.4023" y2="606.4023"/><text fill="#000000" font-family="sans-serif" font-size="11" lengthAdjust="spacingAndGlyphs" textLength="66" x="1440" y="609.7104">Use Case 1</text><line style="stroke: #A80036; stroke-width: 1.0; stroke-dasharray: 1.0,2.0;" x1="1506" x2="1647" y1="606.4023" y2="606.4023"/><ellipse cx="1309" cy="649.4141" fill="#84BE84" rx="3" ry="3" style="stroke: #038048; stroke-width: 1.0;"/><text fill="#000000" font-family="sans-serif" font-size="11" lengthAdjust="spacingAndGlyphs" textLength="324" x="1318" y="652.6245">String revieveGpsSignalStrength(Satellite satelliteSignal)</text><line style="stroke: #A80036; stroke-width: 1.0; stroke-dasharray: 1.0,2.0;" x1="1299" x2="1440" y1="636.0117" y2="636.0117"/><text fill="#000000" font-family="sans-serif" font-size="11" lengthAdjust="spacingAndGlyphs" textLength="66" x="1440" y="639.3198">Use Case 2</text><line style="stroke: #A80036; stroke-width: 1.0; stroke-dasharray: 1.0,2.0;" x1="1506" x2="1647" y1="636.0117" y2="636.0117"/><!--MD5=[b7db7f9e4ca1b2f55d32a1a48f9dd068]
class SatelliteSignalCheckRequest--><rect fill="#FEFECE" filter="url(#fggo0522demy)" height="112.0234" id="SatelliteSignalCheckRequest" style="stroke: #A80036; stroke-width: 1.5;" width="416" x="2521" y="69.5"/><ellipse cx="2635.25" cy="85.5" fill="#ADD1B2" rx="11" ry="11" style="stroke: #A80036; stroke-width: 1.0;"/><path d="M2638.2188,91.1406 Q2637.6406,91.4375 2637,91.5781 Q2636.3594,91.7344 2635.6563,91.7344 Q2633.1563,91.7344 2631.8281,90.0938 Q2630.5156,88.4375 2630.5156,85.3125 Q2630.5156,82.1875 2631.8281,80.5313 Q2633.1563,78.875 2635.6563,78.875 Q2636.3594,78.875 2637,79.0313 Q2637.6563,79.1875 2638.2188,79.4844 L2638.2188,82.2031 Q2637.5938,81.625 2637,81.3594 Q2636.4063,81.0781 2635.7813,81.0781 Q2634.4375,81.0781 2633.75,82.1563 Q2633.0625,83.2188 2633.0625,85.3125 Q2633.0625,87.4063 2633.75,88.4844 Q2634.4375,89.5469 2635.7813,89.5469 Q2636.4063,89.5469 2637,89.2813 Q2637.5938,89 2638.2188,88.4219 L2638.2188,91.1406 Z "/><text fill="#000000" font-family="sans-serif" font-size="12" lengthAdjust="spacingAndGlyphs" textLength="179" x="2655.75" y="89.6543">SatelliteSignalCheckRequest</text><line style="stroke: #A80036; stroke-width: 1.5;" x1="2522" x2="2936" y1="101.5" y2="101.5"/><rect fill="none" height="6" style="stroke: #C82930; stroke-width: 1.0;" width="6" x="2529" y="109.5"/><text fill="#000000" font-family="sans-serif" font-size="11" lengthAdjust="spacingAndGlyphs" textLength="116" x="2541" y="115.7104">String satelliteName</text><rect fill="none" height="6" style="stroke: #C82930; stroke-width: 1.0;" width="6" x="2529" y="122.3047"/><text fill="#000000" font-family="sans-serif" font-size="11" lengthAdjust="spacingAndGlyphs" textLength="97" x="2541" y="128.5151">String checkType</text><line style="stroke: #A80036; stroke-width: 1.5;" x1="2522" x2="2936" y1="135.1094" y2="135.1094"/><ellipse cx="2532" cy="146.1094" fill="#84BE84" rx="3" ry="3" style="stroke: #038048; stroke-width: 1.0;"/><text fill="#000000" font-family="sans-serif" font-size="11" lengthAdjust="spacingAndGlyphs" textLength="390" x="2541" y="149.3198">SatelliteSignalCheckRequest(String satelliteName, String checkType)</text><ellipse cx="2532" cy="158.9141" fill="#84BE84" rx="3" ry="3" style="stroke: #038048; stroke-width: 1.0;"/><text fill="#000000" font-family="sans-serif" font-size="11" lengthAdjust="spacingAndGlyphs" textLength="143" x="2541" y="162.1245">String getSatelliteName()</text><ellipse cx="2532" cy="171.7188" fill="#84BE84" rx="3" ry="3" style="stroke: #038048; stroke-width: 1.0;"/><text fill="#000000" font-family="sans-serif" font-size="11" lengthAdjust="spacingAndGlyphs" textLength="125" x="2541" y="174.9292">String getCheckType()</text><!--MD5=[c36cfeadd3e464cb5707874760573e6d]
link DisplayGpsInterface to DisplayGpsManager--><!--MD5=[fd2ae20b250b369636844c4ce00411e4]
link DisplayGpsManager to DisplayGpsReceiver--><!--MD5=[ee24dc14e505e67481c4b4ac6c5a51a1]
link DisplayGpsInterface to DisplayGpsInterfaceImplementation--><!--MD5=[372d6310f17a2da38c0ebff9fd74b4bc]
link DisplayGpsInterfaceImplementation to DisplayGpsManagerImplementation--><!--MD5=[378a89ff9f9b25e480b9ae0c95037427]
link DisplayGpsManagerImplementation to DisplayGpsReceiverImplementation--><!--MD5=[39fcbd4a66f13293fd9a6d842fcfff77]
link DisplayGpsInterfaceImplementationTests to DisplayGpsManagerImplementationTests--><!--MD5=[5fb4b03d849a7de191313594d0a51556]
link DisplayGpsManagerImplementationTests to DisplayGpsReceiverImplementationTests--><!--MD5=[1661215ed7a09e94ee929bf09054fc06]
link DisplayGpsInterfaceImplementationTests to SatelliteSignalCheckRequestTests--><!--MD5=[b9e343a47e22a15e62e1c479291b36a9]
link SatelliteSignalCheckRequestTests to DisplayGpsManagerStub--><!--MD5=[b80cb536f90e17deb765d82ac92309cf]
link DisplayGpsManagerStub to DisplayGpsReceiverStub--><!--MD5=[a73adf47978338e79a046da162e8e269]
link SatelliteSignalCheckRequestTests to MiddlewareGisInterfaceStub--><!--MD5=[4b1218aeb39ac6b5cc530e24f4d43352]
@startuml Display01Packages


package edu.oakland.production.display01 {

}


package edu.oakland.production.display01 {
    interface DisplayGpsInterface {
        __
        .. Use Case 1 ..
        {abstract} + void receiveGpsSignal(Satellite satelliteSignal)
        .. Use Case 2 ..
        {abstract} + void reportGpsSignalLoss(String satelliteName)
        {abstract} + void recheckSignalStength(String satelliteName)
        {abstract} + void checkSignalStength(String satelliteName)
    }
}


package edu.oakland.production.display01 {
    interface DisplayGpsManager {
        __
        .. Use Case 1 ..
        {abstract} + String receiveGpsSignalStrength(Satellite satelliteSignal)
        .. Use Case 2 ..
        {abstract} + SatelliteSignalCheckRequest passGpsSignalStrength(String satelliteName)
    }
}


package edu.oakland.production.display01 {
    interface DisplayGpsReceiver {
        __
        .. Use Case 1 ..
        {abstract} + String measureGpsSignalStrength(Satellite satelliteSignal)
        .. Use Case 2 ..
        {abstract} + SatelliteSignalCheckRequest measureSignal(String satelliteName)
    }
}



package edu.oakland.production.display01 {
    class DisplayGpsInterfaceImplementation {
        - DisplayGpsReciever reciever
        __
        + DisplayGpsInterfaceImplementation(DisplayGpsReciever reciever)
        .. Use Case 1 ..
        + void receiveGpsSignal(Satellite satelliteSignal)
        .. Use Case 2 ..
        + void reportGpsSignalLoss(String satelliteName)
        + void recheckSignalStength(String satelliteName)
        + void checkSignalStength(String satelliteName)
        - int reportSignalStrength(String satelliteName)
    }
}


package edu.oakland.production.display01 {
    class DisplayGpsManagerImplementation {
        __
        .. Use Case 1 ..

        .. Use Case 2 ..

    }
}


package edu.oakland.production.display01 {
    class DisplayGpsReceiverImplementation {
        
        DisplayGpsManager manager

        .. Use Case 1 ..
        
        + String measureGpsSignalStrength(Satellite satelliteSignal)
        
        - void passSignalStrength(int signalStrength)

        .. Use Case 2 ..
        
        + String measureGpsSignalStrength(Satellite satelliteSignal)
        
        + SatelliteSignalCheckRequest measureSignal(String satelliteName)

    }
}



package edu.oakland.test.display01 {
    
}


package edu.oakland.test.display01 {
    class DisplayGpsInterfaceImplementationTests {

    }
}


package edu.oakland.test.display01 {
    class DisplayGpsManagerImplementationTests {

    }
}


package edu.oakland.test.display01 {
    class DisplayGpsReceiverImplementationTests {

    }
}


package edu.oakland.test.display01 {
    class SatelliteSignalCheckRequestTests {

    }
}


package edu.oakland.test.display01 {
    class DisplayGpsManagerStub {
        __
        .. Use Case 1 ..
        + String receiveGpsSignalStrengths(Satellite satelliteSignal)
        .. Use Case 2 ..
        + SatelliteSignalCheckRequest passGpsSignalStrength(String satelliteName)
    }
}


package edu.oakland.test.display01 {
    class DisplayGpsReceiverStub {
        __
        .. Use Case 1 ..
        + String measureGpsSignalStrength(Satellite satelliteSignal)
        .. Use Case 2 ..
        + SatelliteSignalCheckRequest measureSignal(String satelliteName)
    }
}


package edu.oakland.test.display01 {
    class MiddlewareGisInterfaceStub {
        __
        .. Use Case 1 ..
        + String revieveGpsSignalStrength(Satellite satelliteSignal)
        .. Use Case 2 ..
        + String revieveGpsSignalStrength(Satellite satelliteSignal)
    }
}



package edu.oakland.helper.display01 {

}


package edu.oakland.helper.display01 {
    class SatelliteSignalCheckRequest {
        - String satelliteName
        - String checkType
        + SatelliteSignalCheckRequest(String satelliteName, String checkType)
        + String getSatelliteName()
        + String getCheckType()
    }
}



@enduml

PlantUML version 1.2020.02(Sun Mar 01 10:22:07 GMT 2020)
(GPL source distribution)
Java Runtime: OpenJDK Runtime Environment
JVM: OpenJDK 64-Bit Server VM
Java Version: 11.0.9+11-Ubuntu-0ubuntu1
Operating System: Linux
Default Encoding: ANSI_X3.4-1968
Language: en
Country: US
--></g></svg>