<?xml version="1.0" encoding="UTF-8" standalone="no"?><svg xmlns="http://www.w3.org/2000/svg" xmlns:xlink="http://www.w3.org/1999/xlink" contentScriptType="application/ecmascript" contentStyleType="text/css" height="490px" preserveAspectRatio="none" style="width:1797px;height:490px;" version="1.1" viewBox="0 0 1797 490" width="1797px" zoomAndPan="magnify"><defs><filter height="300%" id="f9nvwt57q84tk" width="300%" x="-1" y="-1"><feGaussianBlur result="blurOut" stdDeviation="2.0"/><feColorMatrix in="blurOut" result="blurOut2" type="matrix" values="0 0 0 0 0 0 0 0 0 0 0 0 0 0 0 0 0 0 .4 0"/><feOffset dx="4.0" dy="4.0" in="blurOut2" result="blurOut3"/><feBlend in="SourceGraphic" in2="blurOut3" mode="normal"/></filter></defs><g><!--MD5=[3e281e6f49e0b185d62a106a5d994a08]
cluster edu.oakland.production.display01--><polygon fill="#FFFFFF" filter="url(#f9nvwt57q84tk)" points="22,24,295,24,302,46.2969,1258,46.2969,1258,478,22,478,22,24" style="stroke: #000000; stroke-width: 1.5;"/><line style="stroke: #000000; stroke-width: 1.5;" x1="22" x2="302" y1="46.2969" y2="46.2969"/><text fill="#000000" font-family="sans-serif" font-size="14" font-weight="bold" lengthAdjust="spacingAndGlyphs" textLength="267" x="26" y="38.9951">edu.oakland.production.display01</text><!--MD5=[d02020cdc9562d037d87b751d110dd8b]
cluster edu.oakland.helper.display01--><polygon fill="#FFFFFF" filter="url(#f9nvwt57q84tk)" points="1527,53.5,1765,53.5,1772,75.7969,1775,75.7969,1775,178.5,1527,178.5,1527,53.5" style="stroke: #000000; stroke-width: 1.5;"/><line style="stroke: #000000; stroke-width: 1.5;" x1="1527" x2="1772" y1="75.7969" y2="75.7969"/><text fill="#000000" font-family="sans-serif" font-size="14" font-weight="bold" lengthAdjust="spacingAndGlyphs" textLength="232" x="1531" y="68.4951">edu.oakland.helper.display01</text><!--MD5=[fa6248c05b5a852ecd50b5411f159754]
class DisplayGpsInterface--><rect fill="#FEFECE" filter="url(#f9nvwt57q84tk)" height="132.8281" id="DisplayGpsInterface" style="stroke: #A80036; stroke-width: 1.5;" width="297" x="38.5" y="59"/><ellipse cx="120.75" cy="75" fill="#B4A7E5" rx="11" ry="11" style="stroke: #A80036; stroke-width: 1.0;"/><path d="M116.6719,70.7656 L116.6719,68.6094 L124.0625,68.6094 L124.0625,70.7656 L121.5938,70.7656 L121.5938,78.8438 L124.0625,78.8438 L124.0625,81 L116.6719,81 L116.6719,78.8438 L119.1406,78.8438 L119.1406,70.7656 L116.6719,70.7656 Z "/><text fill="#000000" font-family="sans-serif" font-size="12" font-style="italic" lengthAdjust="spacingAndGlyphs" textLength="124" x="141.25" y="79.1543">DisplayGpsInterface</text><line style="stroke: #A80036; stroke-width: 1.5;" x1="39.5" x2="334.5" y1="91" y2="91"/><line style="stroke: #A80036; stroke-width: 1.5;" x1="39.5" x2="334.5" y1="99" y2="99"/><ellipse cx="49.5" cy="126.8047" fill="#84BE84" rx="3" ry="3" style="stroke: #038048; stroke-width: 1.0;"/><text fill="#000000" font-family="sans-serif" font-size="11" font-style="italic" lengthAdjust="spacingAndGlyphs" textLength="269" x="58.5" y="130.0151">void revieveGPSSignals(Satellite satelliteSignal)</text><line style="stroke: #A80036; stroke-width: 1.0; stroke-dasharray: 1.0,2.0;" x1="39.5" x2="154" y1="113.4023" y2="113.4023"/><text fill="#000000" font-family="sans-serif" font-size="11" lengthAdjust="spacingAndGlyphs" textLength="66" x="154" y="116.7104">Use Case 1</text><line style="stroke: #A80036; stroke-width: 1.0; stroke-dasharray: 1.0,2.0;" x1="220" x2="334.5" y1="113.4023" y2="113.4023"/><ellipse cx="49.5" cy="156.4141" fill="#84BE84" rx="3" ry="3" style="stroke: #038048; stroke-width: 1.0;"/><text fill="#000000" font-family="sans-serif" font-size="11" font-style="italic" lengthAdjust="spacingAndGlyphs" textLength="266" x="58.5" y="159.6245">void reportGpsSignalLoss(String satelliteName)</text><ellipse cx="49.5" cy="169.2188" fill="#84BE84" rx="3" ry="3" style="stroke: #038048; stroke-width: 1.0;"/><text fill="#000000" font-family="sans-serif" font-size="11" font-style="italic" lengthAdjust="spacingAndGlyphs" textLength="271" x="58.5" y="172.4292">void recheckSignalStength(String satelliteName)</text><ellipse cx="49.5" cy="182.0234" fill="#84BE84" rx="3" ry="3" style="stroke: #038048; stroke-width: 1.0;"/><text fill="#000000" font-family="sans-serif" font-size="11" font-style="italic" lengthAdjust="spacingAndGlyphs" textLength="259" x="58.5" y="185.2339">void checkSignalStength(String satelliteName)</text><line style="stroke: #A80036; stroke-width: 1.0; stroke-dasharray: 1.0,2.0;" x1="39.5" x2="154" y1="143.0117" y2="143.0117"/><text fill="#000000" font-family="sans-serif" font-size="11" lengthAdjust="spacingAndGlyphs" textLength="66" x="154" y="146.3198">Use Case 2</text><line style="stroke: #A80036; stroke-width: 1.0; stroke-dasharray: 1.0,2.0;" x1="220" x2="334.5" y1="143.0117" y2="143.0117"/><!--MD5=[31cbac78761b59e73153a97a452ed09a]
class DisplayGpsManager--><rect fill="#FEFECE" filter="url(#f9nvwt57q84tk)" height="107.2188" id="DisplayGpsManager" style="stroke: #A80036; stroke-width: 1.5;" width="441" x="370.5" y="72"/><ellipse cx="525.75" cy="88" fill="#B4A7E5" rx="11" ry="11" style="stroke: #A80036; stroke-width: 1.0;"/><path d="M521.6719,83.7656 L521.6719,81.6094 L529.0625,81.6094 L529.0625,83.7656 L526.5938,83.7656 L526.5938,91.8438 L529.0625,91.8438 L529.0625,94 L521.6719,94 L521.6719,91.8438 L524.1406,91.8438 L524.1406,83.7656 L521.6719,83.7656 Z "/><text fill="#000000" font-family="sans-serif" font-size="12" font-style="italic" lengthAdjust="spacingAndGlyphs" textLength="122" x="546.25" y="92.1543">DisplayGpsManager</text><line style="stroke: #A80036; stroke-width: 1.5;" x1="371.5" x2="810.5" y1="104" y2="104"/><line style="stroke: #A80036; stroke-width: 1.5;" x1="371.5" x2="810.5" y1="112" y2="112"/><ellipse cx="381.5" cy="139.8047" fill="#84BE84" rx="3" ry="3" style="stroke: #038048; stroke-width: 1.0;"/><text fill="#000000" font-family="sans-serif" font-size="11" font-style="italic" lengthAdjust="spacingAndGlyphs" textLength="324" x="390.5" y="143.0151">String receiveGpsSignalStrengths(Satellite satelliteSignal)</text><line style="stroke: #A80036; stroke-width: 1.0; stroke-dasharray: 1.0,2.0;" x1="371.5" x2="558" y1="126.4023" y2="126.4023"/><text fill="#000000" font-family="sans-serif" font-size="11" lengthAdjust="spacingAndGlyphs" textLength="66" x="558" y="129.7104">Use Case 1</text><line style="stroke: #A80036; stroke-width: 1.0; stroke-dasharray: 1.0,2.0;" x1="624" x2="810.5" y1="126.4023" y2="126.4023"/><ellipse cx="381.5" cy="169.4141" fill="#84BE84" rx="3" ry="3" style="stroke: #038048; stroke-width: 1.0;"/><text fill="#000000" font-family="sans-serif" font-size="11" font-style="italic" lengthAdjust="spacingAndGlyphs" textLength="415" x="390.5" y="172.6245">SatelliteSignalCheckRequest passGpsSignalStrength(String satelliteName)</text><line style="stroke: #A80036; stroke-width: 1.0; stroke-dasharray: 1.0,2.0;" x1="371.5" x2="558" y1="156.0117" y2="156.0117"/><text fill="#000000" font-family="sans-serif" font-size="11" lengthAdjust="spacingAndGlyphs" textLength="66" x="558" y="159.3198">Use Case 2</text><line style="stroke: #A80036; stroke-width: 1.0; stroke-dasharray: 1.0,2.0;" x1="624" x2="810.5" y1="156.0117" y2="156.0117"/><!--MD5=[319273309e4c56bac150542a32321bb2]
class DisplayGpsReceiver--><rect fill="#FEFECE" filter="url(#f9nvwt57q84tk)" height="107.2188" id="DisplayGpsReceiver" style="stroke: #A80036; stroke-width: 1.5;" width="395" x="846.5" y="72"/><ellipse cx="979.75" cy="88" fill="#B4A7E5" rx="11" ry="11" style="stroke: #A80036; stroke-width: 1.0;"/><path d="M975.6719,83.7656 L975.6719,81.6094 L983.0625,81.6094 L983.0625,83.7656 L980.5938,83.7656 L980.5938,91.8438 L983.0625,91.8438 L983.0625,94 L975.6719,94 L975.6719,91.8438 L978.1406,91.8438 L978.1406,83.7656 L975.6719,83.7656 Z "/><text fill="#000000" font-family="sans-serif" font-size="12" font-style="italic" lengthAdjust="spacingAndGlyphs" textLength="120" x="1000.25" y="92.1543">DisplayGpsReceiver</text><line style="stroke: #A80036; stroke-width: 1.5;" x1="847.5" x2="1240.5" y1="104" y2="104"/><line style="stroke: #A80036; stroke-width: 1.5;" x1="847.5" x2="1240.5" y1="112" y2="112"/><ellipse cx="857.5" cy="139.8047" fill="#84BE84" rx="3" ry="3" style="stroke: #038048; stroke-width: 1.0;"/><text fill="#000000" font-family="sans-serif" font-size="11" font-style="italic" lengthAdjust="spacingAndGlyphs" textLength="326" x="866.5" y="143.0151">String measureGpsSignalStrength(Satellite satelliteSignal)</text><line style="stroke: #A80036; stroke-width: 1.0; stroke-dasharray: 1.0,2.0;" x1="847.5" x2="1011" y1="126.4023" y2="126.4023"/><text fill="#000000" font-family="sans-serif" font-size="11" lengthAdjust="spacingAndGlyphs" textLength="66" x="1011" y="129.7104">Use Case 1</text><line style="stroke: #A80036; stroke-width: 1.0; stroke-dasharray: 1.0,2.0;" x1="1077" x2="1240.5" y1="126.4023" y2="126.4023"/><ellipse cx="857.5" cy="169.4141" fill="#84BE84" rx="3" ry="3" style="stroke: #038048; stroke-width: 1.0;"/><text fill="#000000" font-family="sans-serif" font-size="11" font-style="italic" lengthAdjust="spacingAndGlyphs" textLength="369" x="866.5" y="172.6245">SatelliteSignalCheckRequest measureSignal(String satelliteName)</text><line style="stroke: #A80036; stroke-width: 1.0; stroke-dasharray: 1.0,2.0;" x1="847.5" x2="1011" y1="156.0117" y2="156.0117"/><text fill="#000000" font-family="sans-serif" font-size="11" lengthAdjust="spacingAndGlyphs" textLength="66" x="1011" y="159.3198">Use Case 2</text><line style="stroke: #A80036; stroke-width: 1.0; stroke-dasharray: 1.0,2.0;" x1="1077" x2="1240.5" y1="156.0117" y2="156.0117"/><!--MD5=[6376794c08ca75f6fa530286e1e32b13]
class DisplayGpsInterfaceImplementation--><rect fill="#FEFECE" filter="url(#f9nvwt57q84tk)" height="107.2188" id="DisplayGpsInterfaceImplementation" style="stroke: #A80036; stroke-width: 1.5;" width="253" x="60.5" y="303.5"/><ellipse cx="75.5" cy="319.5" fill="#ADD1B2" rx="11" ry="11" style="stroke: #A80036; stroke-width: 1.0;"/><path d="M78.4688,325.1406 Q77.8906,325.4375 77.25,325.5781 Q76.6094,325.7344 75.9063,325.7344 Q73.4063,325.7344 72.0781,324.0938 Q70.7656,322.4375 70.7656,319.3125 Q70.7656,316.1875 72.0781,314.5313 Q73.4063,312.875 75.9063,312.875 Q76.6094,312.875 77.25,313.0313 Q77.9063,313.1875 78.4688,313.4844 L78.4688,316.2031 Q77.8438,315.625 77.25,315.3594 Q76.6563,315.0781 76.0313,315.0781 Q74.6875,315.0781 74,316.1563 Q73.3125,317.2188 73.3125,319.3125 Q73.3125,321.4063 74,322.4844 Q74.6875,323.5469 76.0313,323.5469 Q76.6563,323.5469 77.25,323.2813 Q77.8438,323 78.4688,322.4219 L78.4688,325.1406 Z "/><text fill="#000000" font-family="sans-serif" font-size="12" lengthAdjust="spacingAndGlyphs" textLength="221" x="89.5" y="323.6543">DisplayGpsInterfaceImplementation</text><line style="stroke: #A80036; stroke-width: 1.5;" x1="61.5" x2="312.5" y1="335.5" y2="335.5"/><line style="stroke: #A80036; stroke-width: 1.5;" x1="61.5" x2="312.5" y1="343.5" y2="343.5"/><text fill="#000000" font-family="sans-serif" font-size="11" lengthAdjust="spacingAndGlyphs" textLength="0" x="70.5" y="374.5151"/><line style="stroke: #A80036; stroke-width: 1.0; stroke-dasharray: 1.0,2.0;" x1="61.5" x2="154" y1="357.9023" y2="357.9023"/><text fill="#000000" font-family="sans-serif" font-size="11" lengthAdjust="spacingAndGlyphs" textLength="66" x="154" y="361.2104">Use Case 1</text><line style="stroke: #A80036; stroke-width: 1.0; stroke-dasharray: 1.0,2.0;" x1="220" x2="312.5" y1="357.9023" y2="357.9023"/><text fill="#000000" font-family="sans-serif" font-size="11" lengthAdjust="spacingAndGlyphs" textLength="0" x="70.5" y="404.1245"/><line style="stroke: #A80036; stroke-width: 1.0; stroke-dasharray: 1.0,2.0;" x1="61.5" x2="154" y1="387.5117" y2="387.5117"/><text fill="#000000" font-family="sans-serif" font-size="11" lengthAdjust="spacingAndGlyphs" textLength="66" x="154" y="390.8198">Use Case 2</text><line style="stroke: #A80036; stroke-width: 1.0; stroke-dasharray: 1.0,2.0;" x1="220" x2="312.5" y1="387.5117" y2="387.5117"/><!--MD5=[85db0a5b69c4b55d7b0101612d8a7890]
class DisplayGpsManagerImplementation--><rect fill="#FEFECE" filter="url(#f9nvwt57q84tk)" height="107.2188" id="DisplayGpsManagerImplementation" style="stroke: #A80036; stroke-width: 1.5;" width="252" x="349" y="303.5"/><ellipse cx="364" cy="319.5" fill="#ADD1B2" rx="11" ry="11" style="stroke: #A80036; stroke-width: 1.0;"/><path d="M366.9688,325.1406 Q366.3906,325.4375 365.75,325.5781 Q365.1094,325.7344 364.4063,325.7344 Q361.9063,325.7344 360.5781,324.0938 Q359.2656,322.4375 359.2656,319.3125 Q359.2656,316.1875 360.5781,314.5313 Q361.9063,312.875 364.4063,312.875 Q365.1094,312.875 365.75,313.0313 Q366.4063,313.1875 366.9688,313.4844 L366.9688,316.2031 Q366.3438,315.625 365.75,315.3594 Q365.1563,315.0781 364.5313,315.0781 Q363.1875,315.0781 362.5,316.1563 Q361.8125,317.2188 361.8125,319.3125 Q361.8125,321.4063 362.5,322.4844 Q363.1875,323.5469 364.5313,323.5469 Q365.1563,323.5469 365.75,323.2813 Q366.3438,323 366.9688,322.4219 L366.9688,325.1406 Z "/><text fill="#000000" font-family="sans-serif" font-size="12" lengthAdjust="spacingAndGlyphs" textLength="220" x="378" y="323.6543">DisplayGpsManagerImplementation</text><line style="stroke: #A80036; stroke-width: 1.5;" x1="350" x2="600" y1="335.5" y2="335.5"/><line style="stroke: #A80036; stroke-width: 1.5;" x1="350" x2="600" y1="343.5" y2="343.5"/><text fill="#000000" font-family="sans-serif" font-size="11" lengthAdjust="spacingAndGlyphs" textLength="0" x="359" y="374.5151"/><line style="stroke: #A80036; stroke-width: 1.0; stroke-dasharray: 1.0,2.0;" x1="350" x2="442" y1="357.9023" y2="357.9023"/><text fill="#000000" font-family="sans-serif" font-size="11" lengthAdjust="spacingAndGlyphs" textLength="66" x="442" y="361.2104">Use Case 1</text><line style="stroke: #A80036; stroke-width: 1.0; stroke-dasharray: 1.0,2.0;" x1="508" x2="600" y1="357.9023" y2="357.9023"/><text fill="#000000" font-family="sans-serif" font-size="11" lengthAdjust="spacingAndGlyphs" textLength="0" x="359" y="404.1245"/><line style="stroke: #A80036; stroke-width: 1.0; stroke-dasharray: 1.0,2.0;" x1="350" x2="442" y1="387.5117" y2="387.5117"/><text fill="#000000" font-family="sans-serif" font-size="11" lengthAdjust="spacingAndGlyphs" textLength="66" x="442" y="390.8198">Use Case 2</text><line style="stroke: #A80036; stroke-width: 1.0; stroke-dasharray: 1.0,2.0;" x1="508" x2="600" y1="387.5117" y2="387.5117"/><!--MD5=[02b25ee3f711f666678619f4b81f3681]
class DisplayGpsReceiverImplementation--><rect fill="#FEFECE" filter="url(#f9nvwt57q84tk)" height="209.6563" id="DisplayGpsReceiverImplementation" style="stroke: #A80036; stroke-width: 1.5;" width="401" x="636.5" y="252"/><ellipse cx="723.75" cy="268" fill="#ADD1B2" rx="11" ry="11" style="stroke: #A80036; stroke-width: 1.0;"/><path d="M726.7188,273.6406 Q726.1406,273.9375 725.5,274.0781 Q724.8594,274.2344 724.1563,274.2344 Q721.6563,274.2344 720.3281,272.5938 Q719.0156,270.9375 719.0156,267.8125 Q719.0156,264.6875 720.3281,263.0313 Q721.6563,261.375 724.1563,261.375 Q724.8594,261.375 725.5,261.5313 Q726.1563,261.6875 726.7188,261.9844 L726.7188,264.7031 Q726.0938,264.125 725.5,263.8594 Q724.9063,263.5781 724.2813,263.5781 Q722.9375,263.5781 722.25,264.6563 Q721.5625,265.7188 721.5625,267.8125 Q721.5625,269.9063 722.25,270.9844 Q722.9375,272.0469 724.2813,272.0469 Q724.9063,272.0469 725.5,271.7813 Q726.0938,271.5 726.7188,270.9219 L726.7188,273.6406 Z "/><text fill="#000000" font-family="sans-serif" font-size="12" lengthAdjust="spacingAndGlyphs" textLength="218" x="744.25" y="272.1543">DisplayGpsReceiverImplementation</text><line style="stroke: #A80036; stroke-width: 1.5;" x1="637.5" x2="1036.5" y1="284" y2="284"/><line style="stroke: #A80036; stroke-width: 1.5;" x1="637.5" x2="1036.5" y1="292" y2="292"/><text fill="#000000" font-family="sans-serif" font-size="11" lengthAdjust="spacingAndGlyphs" textLength="0" x="660.5" y="323.0151"/><ellipse cx="647.5" cy="332.6094" fill="#84BE84" rx="3" ry="3" style="stroke: #038048; stroke-width: 1.0;"/><text fill="#000000" font-family="sans-serif" font-size="11" lengthAdjust="spacingAndGlyphs" textLength="334" x="656.5" y="335.8198">String measureGpsSignalStrength(Satellite satelliteSignal)</text><text fill="#000000" font-family="sans-serif" font-size="11" lengthAdjust="spacingAndGlyphs" textLength="0" x="660.5" y="348.6245"/><rect fill="#F24D5C" height="6" style="stroke: #C82930; stroke-width: 1.0;" width="6" x="644.5" y="355.2188"/><text fill="#000000" font-family="sans-serif" font-size="11" lengthAdjust="spacingAndGlyphs" textLength="248" x="656.5" y="361.4292">void passSignalStrength(int signalStrength)</text><text fill="#000000" font-family="sans-serif" font-size="11" lengthAdjust="spacingAndGlyphs" textLength="0" x="660.5" y="374.2339"/><line style="stroke: #A80036; stroke-width: 1.0; stroke-dasharray: 1.0,2.0;" x1="637.5" x2="804" y1="306.4023" y2="306.4023"/><text fill="#000000" font-family="sans-serif" font-size="11" lengthAdjust="spacingAndGlyphs" textLength="66" x="804" y="309.7104">Use Case 1</text><line style="stroke: #A80036; stroke-width: 1.0; stroke-dasharray: 1.0,2.0;" x1="870" x2="1036.5" y1="306.4023" y2="306.4023"/><text fill="#000000" font-family="sans-serif" font-size="11" lengthAdjust="spacingAndGlyphs" textLength="0" x="660.5" y="403.8433"/><ellipse cx="647.5" cy="413.4375" fill="#84BE84" rx="3" ry="3" style="stroke: #038048; stroke-width: 1.0;"/><text fill="#000000" font-family="sans-serif" font-size="11" lengthAdjust="spacingAndGlyphs" textLength="334" x="656.5" y="416.6479">String measureGpsSignalStrength(Satellite satelliteSignal)</text><text fill="#000000" font-family="sans-serif" font-size="11" lengthAdjust="spacingAndGlyphs" textLength="0" x="660.5" y="429.4526"/><ellipse cx="647.5" cy="439.0469" fill="#84BE84" rx="3" ry="3" style="stroke: #038048; stroke-width: 1.0;"/><text fill="#000000" font-family="sans-serif" font-size="11" lengthAdjust="spacingAndGlyphs" textLength="375" x="656.5" y="442.2573">SatelliteSignalCheckRequest measureSignal(String satelliteName)</text><text fill="#000000" font-family="sans-serif" font-size="11" lengthAdjust="spacingAndGlyphs" textLength="0" x="660.5" y="455.062"/><line style="stroke: #A80036; stroke-width: 1.0; stroke-dasharray: 1.0,2.0;" x1="637.5" x2="804" y1="387.2305" y2="387.2305"/><text fill="#000000" font-family="sans-serif" font-size="11" lengthAdjust="spacingAndGlyphs" textLength="66" x="804" y="390.5386">Use Case 2</text><line style="stroke: #A80036; stroke-width: 1.0; stroke-dasharray: 1.0,2.0;" x1="870" x2="1036.5" y1="387.2305" y2="387.2305"/><polygon fill="#FFFFFF" filter="url(#f9nvwt57q84tk)" points="1277,99,1495,99,1502,121.2969,1509,121.2969,1509,151.5938,1277,151.5938,1277,99" style="stroke: #000000; stroke-width: 1.5;"/><line style="stroke: #000000; stroke-width: 1.5;" x1="1277" x2="1502" y1="121.2969" y2="121.2969"/><text fill="#000000" font-family="sans-serif" font-size="14" font-weight="bold" lengthAdjust="spacingAndGlyphs" textLength="212" x="1281" y="113.9951">edu.oakland.test.display01</text><!--MD5=[b7db7f9e4ca1b2f55d32a1a48f9dd068]
class SatelliteSignalCheckRequest--><rect fill="#FEFECE" filter="url(#f9nvwt57q84tk)" height="73.6094" id="SatelliteSignalCheckRequest" style="stroke: #A80036; stroke-width: 1.5;" width="211" x="1544.5" y="88.5"/><ellipse cx="1559.5" cy="104.5" fill="#ADD1B2" rx="11" ry="11" style="stroke: #A80036; stroke-width: 1.0;"/><path d="M1562.4688,110.1406 Q1561.8906,110.4375 1561.25,110.5781 Q1560.6094,110.7344 1559.9063,110.7344 Q1557.4063,110.7344 1556.0781,109.0938 Q1554.7656,107.4375 1554.7656,104.3125 Q1554.7656,101.1875 1556.0781,99.5313 Q1557.4063,97.875 1559.9063,97.875 Q1560.6094,97.875 1561.25,98.0313 Q1561.9063,98.1875 1562.4688,98.4844 L1562.4688,101.2031 Q1561.8438,100.625 1561.25,100.3594 Q1560.6563,100.0781 1560.0313,100.0781 Q1558.6875,100.0781 1558,101.1563 Q1557.3125,102.2188 1557.3125,104.3125 Q1557.3125,106.4063 1558,107.4844 Q1558.6875,108.5469 1560.0313,108.5469 Q1560.6563,108.5469 1561.25,108.2813 Q1561.8438,108 1562.4688,107.4219 L1562.4688,110.1406 Z "/><text fill="#000000" font-family="sans-serif" font-size="12" lengthAdjust="spacingAndGlyphs" textLength="179" x="1573.5" y="108.6543">SatelliteSignalCheckRequest</text><line style="stroke: #A80036; stroke-width: 1.5;" x1="1545.5" x2="1754.5" y1="120.5" y2="120.5"/><line style="stroke: #A80036; stroke-width: 1.5;" x1="1545.5" x2="1754.5" y1="128.5" y2="128.5"/><ellipse cx="1555.5" cy="139.5" fill="#84BE84" rx="3" ry="3" style="stroke: #038048; stroke-width: 1.0;"/><text fill="#000000" font-family="sans-serif" font-size="11" lengthAdjust="spacingAndGlyphs" textLength="143" x="1564.5" y="142.7104">String getSatelliteName()</text><ellipse cx="1555.5" cy="152.3047" fill="#84BE84" rx="3" ry="3" style="stroke: #038048; stroke-width: 1.0;"/><text fill="#000000" font-family="sans-serif" font-size="11" lengthAdjust="spacingAndGlyphs" textLength="125" x="1564.5" y="155.5151">String getCheckType()</text><!--MD5=[c36cfeadd3e464cb5707874760573e6d]
link DisplayGpsInterface to DisplayGpsManager--><!--MD5=[fd2ae20b250b369636844c4ce00411e4]
link DisplayGpsManager to DisplayGpsReceiver--><!--MD5=[ee24dc14e505e67481c4b4ac6c5a51a1]
link DisplayGpsInterface to DisplayGpsInterfaceImplementation--><!--MD5=[372d6310f17a2da38c0ebff9fd74b4bc]
link DisplayGpsInterfaceImplementation to DisplayGpsManagerImplementation--><!--MD5=[378a89ff9f9b25e480b9ae0c95037427]
link DisplayGpsManagerImplementation to DisplayGpsReceiverImplementation--><!--MD5=[108ca06980847980a8f449d58fb4d126]
@startuml Display01Packages


package edu.oakland.production.display01 {

}


package edu.oakland.production.display01 {
    interface DisplayGpsInterface {
        __
        .. Use Case 1 ..
        {abstract} + void revieveGPSSignals(Satellite satelliteSignal)
        .. Use Case 2 ..
        {abstract} + void reportGpsSignalLoss(String satelliteName)
        {abstract} + void recheckSignalStength(String satelliteName)
        {abstract} + void checkSignalStength(String satelliteName)
    }
}


package edu.oakland.production.display01 {
    interface DisplayGpsManager {
        __
        .. Use Case 1 ..
        {abstract} + String receiveGpsSignalStrengths(Satellite satelliteSignal)
        .. Use Case 2 ..
        {abstract} + SatelliteSignalCheckRequest passGpsSignalStrength(String satelliteName)
    }
}


package edu.oakland.production.display01 {
    interface DisplayGpsReceiver {
        __
        .. Use Case 1 ..
        {abstract} + String measureGpsSignalStrength(Satellite satelliteSignal)
        .. Use Case 2 ..
        {abstract} + SatelliteSignalCheckRequest measureSignal(String satelliteName)
    }
}


package edu.oakland.production.display01 {
    class DisplayGpsInterfaceImplementation {
        __
        .. Use Case 1 ..

        .. Use Case 2 ..

    }
}


package edu.oakland.production.display01 {
    class DisplayGpsManagerImplementation {
        __
        .. Use Case 1 ..

        .. Use Case 2 ..

    }
}


package edu.oakland.production.display01 {
    class DisplayGpsReceiverImplementation {
        __
        .. Use Case 1 ..
        
        + String measureGpsSignalStrength(Satellite satelliteSignal)
        
        - void passSignalStrength(int signalStrength)

        .. Use Case 2 ..
        
        + String measureGpsSignalStrength(Satellite satelliteSignal)
        
        + SatelliteSignalCheckRequest measureSignal(String satelliteName)

    }
}



package edu.oakland.test.display01 {
    
}


package edu.oakland.helper.display01 {

}


package edu.oakland.helper.display01 {
    class SatelliteSignalCheckRequest {
        + String getSatelliteName()
        + String getCheckType()
    }
}



@enduml

PlantUML version 1.2020.02(Sun Mar 01 10:22:07 GMT 2020)
(GPL source distribution)
Java Runtime: OpenJDK Runtime Environment
JVM: OpenJDK 64-Bit Server VM
Java Version: 11.0.9+11-Ubuntu-0ubuntu1
Operating System: Linux
Default Encoding: ANSI_X3.4-1968
Language: en
Country: US
--></g></svg>