<?xml version="1.0" encoding="UTF-8" standalone="no"?><svg xmlns="http://www.w3.org/2000/svg" xmlns:xlink="http://www.w3.org/1999/xlink" contentScriptType="application/ecmascript" contentStyleType="text/css" height="600px" preserveAspectRatio="none" style="width:2622px;height:600px;" version="1.1" viewBox="0 0 2622 600" width="2622px" zoomAndPan="magnify"><defs><filter height="300%" id="fu2y8k1im8jdo" width="300%" x="-1" y="-1"><feGaussianBlur result="blurOut" stdDeviation="2.0"/><feColorMatrix in="blurOut" result="blurOut2" type="matrix" values="0 0 0 0 0 0 0 0 0 0 0 0 0 0 0 0 0 0 .4 0"/><feOffset dx="4.0" dy="4.0" in="blurOut2" result="blurOut3"/><feBlend in="SourceGraphic" in2="blurOut3" mode="normal"/></filter></defs><g><!--MD5=[3e281e6f49e0b185d62a106a5d994a08]
cluster edu.oakland.production.display01--><polygon fill="#FFFFFF" filter="url(#fu2y8k1im8jdo)" points="1364.21,24,1637.21,24,1644.21,46.2969,2600.21,46.2969,2600.21,401,1364.21,401,1364.21,24" style="stroke: #000000; stroke-width: 1.5;"/><line style="stroke: #000000; stroke-width: 1.5;" x1="1364.21" x2="1644.21" y1="46.2969" y2="46.2969"/><text fill="#000000" font-family="sans-serif" font-size="14" font-weight="bold" lengthAdjust="spacingAndGlyphs" textLength="267" x="1368.21" y="38.9951">edu.oakland.production.display01</text><!--MD5=[d02020cdc9562d037d87b751d110dd8b]
cluster edu.oakland.helper.display01--><polygon fill="#FFFFFF" filter="url(#fu2y8k1im8jdo)" points="1537.21,425,1775.21,425,1782.21,447.2969,1985.21,447.2969,1985.21,588,1537.21,588,1537.21,425" style="stroke: #000000; stroke-width: 1.5;"/><line style="stroke: #000000; stroke-width: 1.5;" x1="1537.21" x2="1782.21" y1="447.2969" y2="447.2969"/><text fill="#000000" font-family="sans-serif" font-size="14" font-weight="bold" lengthAdjust="spacingAndGlyphs" textLength="232" x="1541.21" y="439.9951">edu.oakland.helper.display01</text><!--MD5=[9181924624f655b87cae45fec5f93c8d]
cluster edu.oakland.test.display01--><polygon fill="#FFFFFF" filter="url(#fu2y8k1im8jdo)" points="36.21,66.5,254.21,66.5,261.21,88.7969,1340.21,88.7969,1340.21,388,36.21,388,36.21,66.5" style="stroke: #000000; stroke-width: 1.5;"/><line style="stroke: #000000; stroke-width: 1.5;" x1="36.21" x2="261.21" y1="88.7969" y2="88.7969"/><text fill="#000000" font-family="sans-serif" font-size="14" font-weight="bold" lengthAdjust="spacingAndGlyphs" textLength="212" x="40.21" y="81.4951">edu.oakland.test.display01</text><!--MD5=[fa6248c05b5a852ecd50b5411f159754]
class DisplayGpsInterface--><rect fill="#FEFECE" filter="url(#fu2y8k1im8jdo)" height="132.8281" id="DisplayGpsInterface" style="stroke: #A80036; stroke-width: 1.5;" width="297" x="2286.71" y="59"/><ellipse cx="2368.96" cy="75" fill="#B4A7E5" rx="11" ry="11" style="stroke: #A80036; stroke-width: 1.0;"/><path d="M2364.8819,70.7656 L2364.8819,68.6094 L2372.2725,68.6094 L2372.2725,70.7656 L2369.8038,70.7656 L2369.8038,78.8438 L2372.2725,78.8438 L2372.2725,81 L2364.8819,81 L2364.8819,78.8438 L2367.3506,78.8438 L2367.3506,70.7656 L2364.8819,70.7656 Z "/><text fill="#000000" font-family="sans-serif" font-size="12" font-style="italic" lengthAdjust="spacingAndGlyphs" textLength="124" x="2389.46" y="79.1543">DisplayGpsInterface</text><line style="stroke: #A80036; stroke-width: 1.5;" x1="2287.71" x2="2582.71" y1="91" y2="91"/><line style="stroke: #A80036; stroke-width: 1.5;" x1="2287.71" x2="2582.71" y1="99" y2="99"/><ellipse cx="2297.71" cy="126.8047" fill="#84BE84" rx="3" ry="3" style="stroke: #038048; stroke-width: 1.0;"/><text fill="#000000" font-family="sans-serif" font-size="11" font-style="italic" lengthAdjust="spacingAndGlyphs" textLength="261" x="2306.71" y="130.0151">void receiveGpsSignal(Satellite satelliteSignal)</text><line style="stroke: #A80036; stroke-width: 1.0; stroke-dasharray: 1.0,2.0;" x1="2287.71" x2="2402.21" y1="113.4023" y2="113.4023"/><text fill="#000000" font-family="sans-serif" font-size="11" lengthAdjust="spacingAndGlyphs" textLength="66" x="2402.21" y="116.7104">Use Case 1</text><line style="stroke: #A80036; stroke-width: 1.0; stroke-dasharray: 1.0,2.0;" x1="2468.21" x2="2582.71" y1="113.4023" y2="113.4023"/><ellipse cx="2297.71" cy="156.4141" fill="#84BE84" rx="3" ry="3" style="stroke: #038048; stroke-width: 1.0;"/><text fill="#000000" font-family="sans-serif" font-size="11" font-style="italic" lengthAdjust="spacingAndGlyphs" textLength="266" x="2306.71" y="159.6245">void reportGpsSignalLoss(String satelliteName)</text><ellipse cx="2297.71" cy="169.2188" fill="#84BE84" rx="3" ry="3" style="stroke: #038048; stroke-width: 1.0;"/><text fill="#000000" font-family="sans-serif" font-size="11" font-style="italic" lengthAdjust="spacingAndGlyphs" textLength="271" x="2306.71" y="172.4292">void recheckSignalStength(String satelliteName)</text><ellipse cx="2297.71" cy="182.0234" fill="#84BE84" rx="3" ry="3" style="stroke: #038048; stroke-width: 1.0;"/><text fill="#000000" font-family="sans-serif" font-size="11" font-style="italic" lengthAdjust="spacingAndGlyphs" textLength="259" x="2306.71" y="185.2339">void checkSignalStength(String satelliteName)</text><line style="stroke: #A80036; stroke-width: 1.0; stroke-dasharray: 1.0,2.0;" x1="2287.71" x2="2402.21" y1="143.0117" y2="143.0117"/><text fill="#000000" font-family="sans-serif" font-size="11" lengthAdjust="spacingAndGlyphs" textLength="66" x="2402.21" y="146.3198">Use Case 2</text><line style="stroke: #A80036; stroke-width: 1.0; stroke-dasharray: 1.0,2.0;" x1="2468.21" x2="2582.71" y1="143.0117" y2="143.0117"/><!--MD5=[31cbac78761b59e73153a97a452ed09a]
class DisplayGpsManager--><rect fill="#FEFECE" filter="url(#fu2y8k1im8jdo)" height="107.2188" id="DisplayGpsManager" style="stroke: #A80036; stroke-width: 1.5;" width="441" x="1810.71" y="72"/><ellipse cx="1965.96" cy="88" fill="#B4A7E5" rx="11" ry="11" style="stroke: #A80036; stroke-width: 1.0;"/><path d="M1961.8819,83.7656 L1961.8819,81.6094 L1969.2725,81.6094 L1969.2725,83.7656 L1966.8038,83.7656 L1966.8038,91.8438 L1969.2725,91.8438 L1969.2725,94 L1961.8819,94 L1961.8819,91.8438 L1964.3506,91.8438 L1964.3506,83.7656 L1961.8819,83.7656 Z "/><text fill="#000000" font-family="sans-serif" font-size="12" font-style="italic" lengthAdjust="spacingAndGlyphs" textLength="122" x="1986.46" y="92.1543">DisplayGpsManager</text><line style="stroke: #A80036; stroke-width: 1.5;" x1="1811.71" x2="2250.71" y1="104" y2="104"/><line style="stroke: #A80036; stroke-width: 1.5;" x1="1811.71" x2="2250.71" y1="112" y2="112"/><ellipse cx="1821.71" cy="139.8047" fill="#84BE84" rx="3" ry="3" style="stroke: #038048; stroke-width: 1.0;"/><text fill="#000000" font-family="sans-serif" font-size="11" font-style="italic" lengthAdjust="spacingAndGlyphs" textLength="318" x="1830.71" y="143.0151">String receiveGpsSignalStrength(Satellite satelliteSignal)</text><line style="stroke: #A80036; stroke-width: 1.0; stroke-dasharray: 1.0,2.0;" x1="1811.71" x2="1998.21" y1="126.4023" y2="126.4023"/><text fill="#000000" font-family="sans-serif" font-size="11" lengthAdjust="spacingAndGlyphs" textLength="66" x="1998.21" y="129.7104">Use Case 1</text><line style="stroke: #A80036; stroke-width: 1.0; stroke-dasharray: 1.0,2.0;" x1="2064.21" x2="2250.71" y1="126.4023" y2="126.4023"/><ellipse cx="1821.71" cy="169.4141" fill="#84BE84" rx="3" ry="3" style="stroke: #038048; stroke-width: 1.0;"/><text fill="#000000" font-family="sans-serif" font-size="11" font-style="italic" lengthAdjust="spacingAndGlyphs" textLength="415" x="1830.71" y="172.6245">SatelliteSignalCheckRequest passGpsSignalStrength(String satelliteName)</text><line style="stroke: #A80036; stroke-width: 1.0; stroke-dasharray: 1.0,2.0;" x1="1811.71" x2="1998.21" y1="156.0117" y2="156.0117"/><text fill="#000000" font-family="sans-serif" font-size="11" lengthAdjust="spacingAndGlyphs" textLength="66" x="1998.21" y="159.3198">Use Case 2</text><line style="stroke: #A80036; stroke-width: 1.0; stroke-dasharray: 1.0,2.0;" x1="2064.21" x2="2250.71" y1="156.0117" y2="156.0117"/><!--MD5=[319273309e4c56bac150542a32321bb2]
class DisplayGpsReceiver--><rect fill="#FEFECE" filter="url(#fu2y8k1im8jdo)" height="107.2188" id="DisplayGpsReceiver" style="stroke: #A80036; stroke-width: 1.5;" width="395" x="1380.71" y="72"/><ellipse cx="1513.96" cy="88" fill="#B4A7E5" rx="11" ry="11" style="stroke: #A80036; stroke-width: 1.0;"/><path d="M1509.8819,83.7656 L1509.8819,81.6094 L1517.2725,81.6094 L1517.2725,83.7656 L1514.8038,83.7656 L1514.8038,91.8438 L1517.2725,91.8438 L1517.2725,94 L1509.8819,94 L1509.8819,91.8438 L1512.3506,91.8438 L1512.3506,83.7656 L1509.8819,83.7656 Z "/><text fill="#000000" font-family="sans-serif" font-size="12" font-style="italic" lengthAdjust="spacingAndGlyphs" textLength="120" x="1534.46" y="92.1543">DisplayGpsReceiver</text><line style="stroke: #A80036; stroke-width: 1.5;" x1="1381.71" x2="1774.71" y1="104" y2="104"/><line style="stroke: #A80036; stroke-width: 1.5;" x1="1381.71" x2="1774.71" y1="112" y2="112"/><ellipse cx="1391.71" cy="139.8047" fill="#84BE84" rx="3" ry="3" style="stroke: #038048; stroke-width: 1.0;"/><text fill="#000000" font-family="sans-serif" font-size="11" font-style="italic" lengthAdjust="spacingAndGlyphs" textLength="326" x="1400.71" y="143.0151">String measureGpsSignalStrength(Satellite satelliteSignal)</text><line style="stroke: #A80036; stroke-width: 1.0; stroke-dasharray: 1.0,2.0;" x1="1381.71" x2="1545.21" y1="126.4023" y2="126.4023"/><text fill="#000000" font-family="sans-serif" font-size="11" lengthAdjust="spacingAndGlyphs" textLength="66" x="1545.21" y="129.7104">Use Case 1</text><line style="stroke: #A80036; stroke-width: 1.0; stroke-dasharray: 1.0,2.0;" x1="1611.21" x2="1774.71" y1="126.4023" y2="126.4023"/><ellipse cx="1391.71" cy="169.4141" fill="#84BE84" rx="3" ry="3" style="stroke: #038048; stroke-width: 1.0;"/><text fill="#000000" font-family="sans-serif" font-size="11" font-style="italic" lengthAdjust="spacingAndGlyphs" textLength="369" x="1400.71" y="172.6245">SatelliteSignalCheckRequest measureSignal(String satelliteName)</text><line style="stroke: #A80036; stroke-width: 1.0; stroke-dasharray: 1.0,2.0;" x1="1381.71" x2="1545.21" y1="156.0117" y2="156.0117"/><text fill="#000000" font-family="sans-serif" font-size="11" lengthAdjust="spacingAndGlyphs" textLength="66" x="1545.21" y="159.3198">Use Case 2</text><line style="stroke: #A80036; stroke-width: 1.0; stroke-dasharray: 1.0,2.0;" x1="1611.21" x2="1774.71" y1="156.0117" y2="156.0117"/><!--MD5=[6376794c08ca75f6fa530286e1e32b13]
class DisplayGpsInterfaceImplementation--><rect fill="#FEFECE" filter="url(#fu2y8k1im8jdo)" height="107.2188" id="DisplayGpsInterfaceImplementation" style="stroke: #A80036; stroke-width: 1.5;" width="253" x="2103.71" y="265"/><ellipse cx="2118.71" cy="281" fill="#ADD1B2" rx="11" ry="11" style="stroke: #A80036; stroke-width: 1.0;"/><path d="M2121.6788,286.6406 Q2121.1006,286.9375 2120.46,287.0781 Q2119.8194,287.2344 2119.1163,287.2344 Q2116.6163,287.2344 2115.2881,285.5938 Q2113.9756,283.9375 2113.9756,280.8125 Q2113.9756,277.6875 2115.2881,276.0313 Q2116.6163,274.375 2119.1163,274.375 Q2119.8194,274.375 2120.46,274.5313 Q2121.1163,274.6875 2121.6788,274.9844 L2121.6788,277.7031 Q2121.0538,277.125 2120.46,276.8594 Q2119.8663,276.5781 2119.2413,276.5781 Q2117.8975,276.5781 2117.21,277.6563 Q2116.5225,278.7188 2116.5225,280.8125 Q2116.5225,282.9063 2117.21,283.9844 Q2117.8975,285.0469 2119.2413,285.0469 Q2119.8663,285.0469 2120.46,284.7813 Q2121.0538,284.5 2121.6788,283.9219 L2121.6788,286.6406 Z "/><text fill="#000000" font-family="sans-serif" font-size="12" lengthAdjust="spacingAndGlyphs" textLength="221" x="2132.71" y="285.1543">DisplayGpsInterfaceImplementation</text><line style="stroke: #A80036; stroke-width: 1.5;" x1="2104.71" x2="2355.71" y1="297" y2="297"/><line style="stroke: #A80036; stroke-width: 1.5;" x1="2104.71" x2="2355.71" y1="305" y2="305"/><text fill="#000000" font-family="sans-serif" font-size="11" lengthAdjust="spacingAndGlyphs" textLength="0" x="2113.71" y="336.0151"/><line style="stroke: #A80036; stroke-width: 1.0; stroke-dasharray: 1.0,2.0;" x1="2104.71" x2="2197.21" y1="319.4023" y2="319.4023"/><text fill="#000000" font-family="sans-serif" font-size="11" lengthAdjust="spacingAndGlyphs" textLength="66" x="2197.21" y="322.7104">Use Case 1</text><line style="stroke: #A80036; stroke-width: 1.0; stroke-dasharray: 1.0,2.0;" x1="2263.21" x2="2355.71" y1="319.4023" y2="319.4023"/><text fill="#000000" font-family="sans-serif" font-size="11" lengthAdjust="spacingAndGlyphs" textLength="0" x="2113.71" y="365.6245"/><line style="stroke: #A80036; stroke-width: 1.0; stroke-dasharray: 1.0,2.0;" x1="2104.71" x2="2197.21" y1="349.0117" y2="349.0117"/><text fill="#000000" font-family="sans-serif" font-size="11" lengthAdjust="spacingAndGlyphs" textLength="66" x="2197.21" y="352.3198">Use Case 2</text><line style="stroke: #A80036; stroke-width: 1.0; stroke-dasharray: 1.0,2.0;" x1="2263.21" x2="2355.71" y1="349.0117" y2="349.0117"/><!--MD5=[85db0a5b69c4b55d7b0101612d8a7890]
class DisplayGpsManagerImplementation--><rect fill="#FEFECE" filter="url(#fu2y8k1im8jdo)" height="107.2188" id="DisplayGpsManagerImplementation" style="stroke: #A80036; stroke-width: 1.5;" width="252" x="1816.21" y="265"/><ellipse cx="1831.21" cy="281" fill="#ADD1B2" rx="11" ry="11" style="stroke: #A80036; stroke-width: 1.0;"/><path d="M1834.1788,286.6406 Q1833.6006,286.9375 1832.96,287.0781 Q1832.3194,287.2344 1831.6163,287.2344 Q1829.1163,287.2344 1827.7881,285.5938 Q1826.4756,283.9375 1826.4756,280.8125 Q1826.4756,277.6875 1827.7881,276.0313 Q1829.1163,274.375 1831.6163,274.375 Q1832.3194,274.375 1832.96,274.5313 Q1833.6163,274.6875 1834.1788,274.9844 L1834.1788,277.7031 Q1833.5538,277.125 1832.96,276.8594 Q1832.3663,276.5781 1831.7413,276.5781 Q1830.3975,276.5781 1829.71,277.6563 Q1829.0225,278.7188 1829.0225,280.8125 Q1829.0225,282.9063 1829.71,283.9844 Q1830.3975,285.0469 1831.7413,285.0469 Q1832.3663,285.0469 1832.96,284.7813 Q1833.5538,284.5 1834.1788,283.9219 L1834.1788,286.6406 Z "/><text fill="#000000" font-family="sans-serif" font-size="12" lengthAdjust="spacingAndGlyphs" textLength="220" x="1845.21" y="285.1543">DisplayGpsManagerImplementation</text><line style="stroke: #A80036; stroke-width: 1.5;" x1="1817.21" x2="2067.21" y1="297" y2="297"/><line style="stroke: #A80036; stroke-width: 1.5;" x1="1817.21" x2="2067.21" y1="305" y2="305"/><text fill="#000000" font-family="sans-serif" font-size="11" lengthAdjust="spacingAndGlyphs" textLength="0" x="1826.21" y="336.0151"/><line style="stroke: #A80036; stroke-width: 1.0; stroke-dasharray: 1.0,2.0;" x1="1817.21" x2="1909.21" y1="319.4023" y2="319.4023"/><text fill="#000000" font-family="sans-serif" font-size="11" lengthAdjust="spacingAndGlyphs" textLength="66" x="1909.21" y="322.7104">Use Case 1</text><line style="stroke: #A80036; stroke-width: 1.0; stroke-dasharray: 1.0,2.0;" x1="1975.21" x2="2067.21" y1="319.4023" y2="319.4023"/><text fill="#000000" font-family="sans-serif" font-size="11" lengthAdjust="spacingAndGlyphs" textLength="0" x="1826.21" y="365.6245"/><line style="stroke: #A80036; stroke-width: 1.0; stroke-dasharray: 1.0,2.0;" x1="1817.21" x2="1909.21" y1="349.0117" y2="349.0117"/><text fill="#000000" font-family="sans-serif" font-size="11" lengthAdjust="spacingAndGlyphs" textLength="66" x="1909.21" y="352.3198">Use Case 2</text><line style="stroke: #A80036; stroke-width: 1.0; stroke-dasharray: 1.0,2.0;" x1="1975.21" x2="2067.21" y1="349.0117" y2="349.0117"/><!--MD5=[02b25ee3f711f666678619f4b81f3681]
class DisplayGpsReceiverImplementation--><rect fill="#FEFECE" filter="url(#fu2y8k1im8jdo)" height="132.8281" id="DisplayGpsReceiverImplementation" style="stroke: #A80036; stroke-width: 1.5;" width="401" x="1379.71" y="252"/><ellipse cx="1466.96" cy="268" fill="#ADD1B2" rx="11" ry="11" style="stroke: #A80036; stroke-width: 1.0;"/><path d="M1469.9288,273.6406 Q1469.3506,273.9375 1468.71,274.0781 Q1468.0694,274.2344 1467.3663,274.2344 Q1464.8663,274.2344 1463.5381,272.5938 Q1462.2256,270.9375 1462.2256,267.8125 Q1462.2256,264.6875 1463.5381,263.0313 Q1464.8663,261.375 1467.3663,261.375 Q1468.0694,261.375 1468.71,261.5313 Q1469.3663,261.6875 1469.9288,261.9844 L1469.9288,264.7031 Q1469.3038,264.125 1468.71,263.8594 Q1468.1163,263.5781 1467.4913,263.5781 Q1466.1475,263.5781 1465.46,264.6563 Q1464.7725,265.7188 1464.7725,267.8125 Q1464.7725,269.9063 1465.46,270.9844 Q1466.1475,272.0469 1467.4913,272.0469 Q1468.1163,272.0469 1468.71,271.7813 Q1469.3038,271.5 1469.9288,270.9219 L1469.9288,273.6406 Z "/><text fill="#000000" font-family="sans-serif" font-size="12" lengthAdjust="spacingAndGlyphs" textLength="218" x="1487.46" y="272.1543">DisplayGpsReceiverImplementation</text><line style="stroke: #A80036; stroke-width: 1.5;" x1="1380.71" x2="1779.71" y1="284" y2="284"/><line style="stroke: #A80036; stroke-width: 1.5;" x1="1380.71" x2="1779.71" y1="292" y2="292"/><ellipse cx="1390.71" cy="319.8047" fill="#84BE84" rx="3" ry="3" style="stroke: #038048; stroke-width: 1.0;"/><text fill="#000000" font-family="sans-serif" font-size="11" lengthAdjust="spacingAndGlyphs" textLength="334" x="1399.71" y="323.0151">String measureGpsSignalStrength(Satellite satelliteSignal)</text><rect fill="#F24D5C" height="6" style="stroke: #C82930; stroke-width: 1.0;" width="6" x="1387.71" y="329.6094"/><text fill="#000000" font-family="sans-serif" font-size="11" lengthAdjust="spacingAndGlyphs" textLength="248" x="1399.71" y="335.8198">void passSignalStrength(int signalStrength)</text><line style="stroke: #A80036; stroke-width: 1.0; stroke-dasharray: 1.0,2.0;" x1="1380.71" x2="1547.21" y1="306.4023" y2="306.4023"/><text fill="#000000" font-family="sans-serif" font-size="11" lengthAdjust="spacingAndGlyphs" textLength="66" x="1547.21" y="309.7104">Use Case 1</text><line style="stroke: #A80036; stroke-width: 1.0; stroke-dasharray: 1.0,2.0;" x1="1613.21" x2="1779.71" y1="306.4023" y2="306.4023"/><ellipse cx="1390.71" cy="362.2188" fill="#84BE84" rx="3" ry="3" style="stroke: #038048; stroke-width: 1.0;"/><text fill="#000000" font-family="sans-serif" font-size="11" lengthAdjust="spacingAndGlyphs" textLength="334" x="1399.71" y="365.4292">String measureGpsSignalStrength(Satellite satelliteSignal)</text><ellipse cx="1390.71" cy="375.0234" fill="#84BE84" rx="3" ry="3" style="stroke: #038048; stroke-width: 1.0;"/><text fill="#000000" font-family="sans-serif" font-size="11" lengthAdjust="spacingAndGlyphs" textLength="375" x="1399.71" y="378.2339">SatelliteSignalCheckRequest measureSignal(String satelliteName)</text><line style="stroke: #A80036; stroke-width: 1.0; stroke-dasharray: 1.0,2.0;" x1="1380.71" x2="1547.21" y1="348.8164" y2="348.8164"/><text fill="#000000" font-family="sans-serif" font-size="11" lengthAdjust="spacingAndGlyphs" textLength="66" x="1547.21" y="352.1245">Use Case 2</text><line style="stroke: #A80036; stroke-width: 1.0; stroke-dasharray: 1.0,2.0;" x1="1613.21" x2="1779.71" y1="348.8164" y2="348.8164"/><!--MD5=[b7db7f9e4ca1b2f55d32a1a48f9dd068]
class SatelliteSignalCheckRequest--><rect fill="#FEFECE" filter="url(#fu2y8k1im8jdo)" height="112.0234" id="SatelliteSignalCheckRequest" style="stroke: #A80036; stroke-width: 1.5;" width="416" x="1553.21" y="460"/><ellipse cx="1667.46" cy="476" fill="#ADD1B2" rx="11" ry="11" style="stroke: #A80036; stroke-width: 1.0;"/><path d="M1670.4288,481.6406 Q1669.8506,481.9375 1669.21,482.0781 Q1668.5694,482.2344 1667.8663,482.2344 Q1665.3663,482.2344 1664.0381,480.5938 Q1662.7256,478.9375 1662.7256,475.8125 Q1662.7256,472.6875 1664.0381,471.0313 Q1665.3663,469.375 1667.8663,469.375 Q1668.5694,469.375 1669.21,469.5313 Q1669.8663,469.6875 1670.4288,469.9844 L1670.4288,472.7031 Q1669.8038,472.125 1669.21,471.8594 Q1668.6163,471.5781 1667.9913,471.5781 Q1666.6475,471.5781 1665.96,472.6563 Q1665.2725,473.7188 1665.2725,475.8125 Q1665.2725,477.9063 1665.96,478.9844 Q1666.6475,480.0469 1667.9913,480.0469 Q1668.6163,480.0469 1669.21,479.7813 Q1669.8038,479.5 1670.4288,478.9219 L1670.4288,481.6406 Z "/><text fill="#000000" font-family="sans-serif" font-size="12" lengthAdjust="spacingAndGlyphs" textLength="179" x="1687.96" y="480.1543">SatelliteSignalCheckRequest</text><line style="stroke: #A80036; stroke-width: 1.5;" x1="1554.21" x2="1968.21" y1="492" y2="492"/><rect fill="none" height="6" style="stroke: #C82930; stroke-width: 1.0;" width="6" x="1561.21" y="500"/><text fill="#000000" font-family="sans-serif" font-size="11" lengthAdjust="spacingAndGlyphs" textLength="116" x="1573.21" y="506.2104">String satelliteName</text><rect fill="none" height="6" style="stroke: #C82930; stroke-width: 1.0;" width="6" x="1561.21" y="512.8047"/><text fill="#000000" font-family="sans-serif" font-size="11" lengthAdjust="spacingAndGlyphs" textLength="97" x="1573.21" y="519.0151">String checkType</text><line style="stroke: #A80036; stroke-width: 1.5;" x1="1554.21" x2="1968.21" y1="525.6094" y2="525.6094"/><ellipse cx="1564.21" cy="536.6094" fill="#84BE84" rx="3" ry="3" style="stroke: #038048; stroke-width: 1.0;"/><text fill="#000000" font-family="sans-serif" font-size="11" lengthAdjust="spacingAndGlyphs" textLength="390" x="1573.21" y="539.8198">SatelliteSignalCheckRequest(String satelliteName, String checkType)</text><ellipse cx="1564.21" cy="549.4141" fill="#84BE84" rx="3" ry="3" style="stroke: #038048; stroke-width: 1.0;"/><text fill="#000000" font-family="sans-serif" font-size="11" lengthAdjust="spacingAndGlyphs" textLength="143" x="1573.21" y="552.6245">String getSatelliteName()</text><ellipse cx="1564.21" cy="562.2188" fill="#84BE84" rx="3" ry="3" style="stroke: #038048; stroke-width: 1.0;"/><text fill="#000000" font-family="sans-serif" font-size="11" lengthAdjust="spacingAndGlyphs" textLength="125" x="1573.21" y="565.4292">String getCheckType()</text><!--MD5=[31ac70925a3cf930ecc7428c11a6bdde]
class DisplayGpsInterfaceImplementationTests--><rect fill="#FEFECE" filter="url(#fu2y8k1im8jdo)" height="48" id="DisplayGpsInterfaceImplementationTests" style="stroke: #A80036; stroke-width: 1.5;" width="287" x="1028.71" y="101.5"/><ellipse cx="1043.71" cy="117.5" fill="#ADD1B2" rx="11" ry="11" style="stroke: #A80036; stroke-width: 1.0;"/><path d="M1046.6788,123.1406 Q1046.1006,123.4375 1045.46,123.5781 Q1044.8194,123.7344 1044.1163,123.7344 Q1041.6163,123.7344 1040.2881,122.0938 Q1038.9756,120.4375 1038.9756,117.3125 Q1038.9756,114.1875 1040.2881,112.5313 Q1041.6163,110.875 1044.1163,110.875 Q1044.8194,110.875 1045.46,111.0313 Q1046.1163,111.1875 1046.6788,111.4844 L1046.6788,114.2031 Q1046.0538,113.625 1045.46,113.3594 Q1044.8663,113.0781 1044.2413,113.0781 Q1042.8975,113.0781 1042.21,114.1563 Q1041.5225,115.2188 1041.5225,117.3125 Q1041.5225,119.4063 1042.21,120.4844 Q1042.8975,121.5469 1044.2413,121.5469 Q1044.8663,121.5469 1045.46,121.2813 Q1046.0538,121 1046.6788,120.4219 L1046.6788,123.1406 Z "/><text fill="#000000" font-family="sans-serif" font-size="12" lengthAdjust="spacingAndGlyphs" textLength="255" x="1057.71" y="121.6543">DisplayGpsInterfaceImplementationTests</text><line style="stroke: #A80036; stroke-width: 1.5;" x1="1029.71" x2="1314.71" y1="133.5" y2="133.5"/><line style="stroke: #A80036; stroke-width: 1.5;" x1="1029.71" x2="1314.71" y1="141.5" y2="141.5"/><!--MD5=[6057d86884460ab216cb89f03a202a5c]
class DisplayGpsManagerStub--><rect fill="#FEFECE" filter="url(#fu2y8k1im8jdo)" height="107.2188" id="DisplayGpsManagerStub" style="stroke: #A80036; stroke-width: 1.5;" width="450" x="874.21" y="265"/><ellipse cx="1018.96" cy="281" fill="#ADD1B2" rx="11" ry="11" style="stroke: #A80036; stroke-width: 1.0;"/><path d="M1021.9288,286.6406 Q1021.3506,286.9375 1020.71,287.0781 Q1020.0694,287.2344 1019.3663,287.2344 Q1016.8663,287.2344 1015.5381,285.5938 Q1014.2256,283.9375 1014.2256,280.8125 Q1014.2256,277.6875 1015.5381,276.0313 Q1016.8663,274.375 1019.3663,274.375 Q1020.0694,274.375 1020.71,274.5313 Q1021.3663,274.6875 1021.9288,274.9844 L1021.9288,277.7031 Q1021.3038,277.125 1020.71,276.8594 Q1020.1163,276.5781 1019.4913,276.5781 Q1018.1475,276.5781 1017.46,277.6563 Q1016.7725,278.7188 1016.7725,280.8125 Q1016.7725,282.9063 1017.46,283.9844 Q1018.1475,285.0469 1019.4913,285.0469 Q1020.1163,285.0469 1020.71,284.7813 Q1021.3038,284.5 1021.9288,283.9219 L1021.9288,286.6406 Z "/><text fill="#000000" font-family="sans-serif" font-size="12" lengthAdjust="spacingAndGlyphs" textLength="152" x="1039.46" y="285.1543">DisplayGpsManagerStub</text><line style="stroke: #A80036; stroke-width: 1.5;" x1="875.21" x2="1323.21" y1="297" y2="297"/><line style="stroke: #A80036; stroke-width: 1.5;" x1="875.21" x2="1323.21" y1="305" y2="305"/><ellipse cx="885.21" cy="332.8047" fill="#84BE84" rx="3" ry="3" style="stroke: #038048; stroke-width: 1.0;"/><text fill="#000000" font-family="sans-serif" font-size="11" lengthAdjust="spacingAndGlyphs" textLength="331" x="894.21" y="336.0151">String receiveGpsSignalStrengths(Satellite satelliteSignal)</text><line style="stroke: #A80036; stroke-width: 1.0; stroke-dasharray: 1.0,2.0;" x1="875.21" x2="1066.21" y1="319.4023" y2="319.4023"/><text fill="#000000" font-family="sans-serif" font-size="11" lengthAdjust="spacingAndGlyphs" textLength="66" x="1066.21" y="322.7104">Use Case 1</text><line style="stroke: #A80036; stroke-width: 1.0; stroke-dasharray: 1.0,2.0;" x1="1132.21" x2="1323.21" y1="319.4023" y2="319.4023"/><ellipse cx="885.21" cy="362.4141" fill="#84BE84" rx="3" ry="3" style="stroke: #038048; stroke-width: 1.0;"/><text fill="#000000" font-family="sans-serif" font-size="11" lengthAdjust="spacingAndGlyphs" textLength="424" x="894.21" y="365.6245">SatelliteSignalCheckRequest passGpsSignalStrength(String satelliteName)</text><line style="stroke: #A80036; stroke-width: 1.0; stroke-dasharray: 1.0,2.0;" x1="875.21" x2="1066.21" y1="349.0117" y2="349.0117"/><text fill="#000000" font-family="sans-serif" font-size="11" lengthAdjust="spacingAndGlyphs" textLength="66" x="1066.21" y="352.3198">Use Case 2</text><line style="stroke: #A80036; stroke-width: 1.0; stroke-dasharray: 1.0,2.0;" x1="1132.21" x2="1323.21" y1="349.0117" y2="349.0117"/><!--MD5=[b5e9506f01c5d0dda59c0c34003c249d]
class DisplayGpsManagerImplementationTests--><rect fill="#FEFECE" filter="url(#fu2y8k1im8jdo)" height="48" id="DisplayGpsManagerImplementationTests" style="stroke: #A80036; stroke-width: 1.5;" width="286" x="699.21" y="101.5"/><ellipse cx="714.21" cy="117.5" fill="#ADD1B2" rx="11" ry="11" style="stroke: #A80036; stroke-width: 1.0;"/><path d="M717.1788,123.1406 Q716.6006,123.4375 715.96,123.5781 Q715.3194,123.7344 714.6163,123.7344 Q712.1163,123.7344 710.7881,122.0938 Q709.4756,120.4375 709.4756,117.3125 Q709.4756,114.1875 710.7881,112.5313 Q712.1163,110.875 714.6163,110.875 Q715.3194,110.875 715.96,111.0313 Q716.6163,111.1875 717.1788,111.4844 L717.1788,114.2031 Q716.5538,113.625 715.96,113.3594 Q715.3663,113.0781 714.7413,113.0781 Q713.3975,113.0781 712.71,114.1563 Q712.0225,115.2188 712.0225,117.3125 Q712.0225,119.4063 712.71,120.4844 Q713.3975,121.5469 714.7413,121.5469 Q715.3663,121.5469 715.96,121.2813 Q716.5538,121 717.1788,120.4219 L717.1788,123.1406 Z "/><text fill="#000000" font-family="sans-serif" font-size="12" lengthAdjust="spacingAndGlyphs" textLength="254" x="728.21" y="121.6543">DisplayGpsManagerImplementationTests</text><line style="stroke: #A80036; stroke-width: 1.5;" x1="700.21" x2="984.21" y1="133.5" y2="133.5"/><line style="stroke: #A80036; stroke-width: 1.5;" x1="700.21" x2="984.21" y1="141.5" y2="141.5"/><!--MD5=[0af74227177caadb6af436c979172233]
class DisplayGpsReceiverStub--><rect fill="#FEFECE" filter="url(#fu2y8k1im8jdo)" height="107.2188" id="DisplayGpsReceiverStub" style="stroke: #A80036; stroke-width: 1.5;" width="401" x="437.71" y="265"/><ellipse cx="558.96" cy="281" fill="#ADD1B2" rx="11" ry="11" style="stroke: #A80036; stroke-width: 1.0;"/><path d="M561.9288,286.6406 Q561.3506,286.9375 560.71,287.0781 Q560.0694,287.2344 559.3663,287.2344 Q556.8663,287.2344 555.5381,285.5938 Q554.2256,283.9375 554.2256,280.8125 Q554.2256,277.6875 555.5381,276.0313 Q556.8663,274.375 559.3663,274.375 Q560.0694,274.375 560.71,274.5313 Q561.3663,274.6875 561.9288,274.9844 L561.9288,277.7031 Q561.3038,277.125 560.71,276.8594 Q560.1163,276.5781 559.4913,276.5781 Q558.1475,276.5781 557.46,277.6563 Q556.7725,278.7188 556.7725,280.8125 Q556.7725,282.9063 557.46,283.9844 Q558.1475,285.0469 559.4913,285.0469 Q560.1163,285.0469 560.71,284.7813 Q561.3038,284.5 561.9288,283.9219 L561.9288,286.6406 Z "/><text fill="#000000" font-family="sans-serif" font-size="12" lengthAdjust="spacingAndGlyphs" textLength="150" x="579.46" y="285.1543">DisplayGpsReceiverStub</text><line style="stroke: #A80036; stroke-width: 1.5;" x1="438.71" x2="837.71" y1="297" y2="297"/><line style="stroke: #A80036; stroke-width: 1.5;" x1="438.71" x2="837.71" y1="305" y2="305"/><ellipse cx="448.71" cy="332.8047" fill="#84BE84" rx="3" ry="3" style="stroke: #038048; stroke-width: 1.0;"/><text fill="#000000" font-family="sans-serif" font-size="11" lengthAdjust="spacingAndGlyphs" textLength="334" x="457.71" y="336.0151">String measureGpsSignalStrength(Satellite satelliteSignal)</text><line style="stroke: #A80036; stroke-width: 1.0; stroke-dasharray: 1.0,2.0;" x1="438.71" x2="605.21" y1="319.4023" y2="319.4023"/><text fill="#000000" font-family="sans-serif" font-size="11" lengthAdjust="spacingAndGlyphs" textLength="66" x="605.21" y="322.7104">Use Case 1</text><line style="stroke: #A80036; stroke-width: 1.0; stroke-dasharray: 1.0,2.0;" x1="671.21" x2="837.71" y1="319.4023" y2="319.4023"/><ellipse cx="448.71" cy="362.4141" fill="#84BE84" rx="3" ry="3" style="stroke: #038048; stroke-width: 1.0;"/><text fill="#000000" font-family="sans-serif" font-size="11" lengthAdjust="spacingAndGlyphs" textLength="375" x="457.71" y="365.6245">SatelliteSignalCheckRequest measureSignal(String satelliteName)</text><line style="stroke: #A80036; stroke-width: 1.0; stroke-dasharray: 1.0,2.0;" x1="438.71" x2="605.21" y1="349.0117" y2="349.0117"/><text fill="#000000" font-family="sans-serif" font-size="11" lengthAdjust="spacingAndGlyphs" textLength="66" x="605.21" y="352.3198">Use Case 2</text><line style="stroke: #A80036; stroke-width: 1.0; stroke-dasharray: 1.0,2.0;" x1="671.21" x2="837.71" y1="349.0117" y2="349.0117"/><!--MD5=[933cdd11260ca9cf411a4933e66b6f57]
class DisplayGpsReceiverImplementationTests--><rect fill="#FEFECE" filter="url(#fu2y8k1im8jdo)" height="48" id="DisplayGpsReceiverImplementationTests" style="stroke: #A80036; stroke-width: 1.5;" width="284" x="364.21" y="101.5"/><ellipse cx="379.21" cy="117.5" fill="#ADD1B2" rx="11" ry="11" style="stroke: #A80036; stroke-width: 1.0;"/><path d="M382.1788,123.1406 Q381.6006,123.4375 380.96,123.5781 Q380.3194,123.7344 379.6163,123.7344 Q377.1163,123.7344 375.7881,122.0938 Q374.4756,120.4375 374.4756,117.3125 Q374.4756,114.1875 375.7881,112.5313 Q377.1163,110.875 379.6163,110.875 Q380.3194,110.875 380.96,111.0313 Q381.6163,111.1875 382.1788,111.4844 L382.1788,114.2031 Q381.5538,113.625 380.96,113.3594 Q380.3663,113.0781 379.7413,113.0781 Q378.3975,113.0781 377.71,114.1563 Q377.0225,115.2188 377.0225,117.3125 Q377.0225,119.4063 377.71,120.4844 Q378.3975,121.5469 379.7413,121.5469 Q380.3663,121.5469 380.96,121.2813 Q381.5538,121 382.1788,120.4219 L382.1788,123.1406 Z "/><text fill="#000000" font-family="sans-serif" font-size="12" lengthAdjust="spacingAndGlyphs" textLength="252" x="393.21" y="121.6543">DisplayGpsReceiverImplementationTests</text><line style="stroke: #A80036; stroke-width: 1.5;" x1="365.21" x2="647.21" y1="133.5" y2="133.5"/><line style="stroke: #A80036; stroke-width: 1.5;" x1="365.21" x2="647.21" y1="141.5" y2="141.5"/><!--MD5=[80c749bdd7ec7c789b994dbe93702fd9]
class MiddlewareGisInterfaceStub--><rect fill="#FEFECE" filter="url(#fu2y8k1im8jdo)" height="107.2188" id="MiddlewareGisInterfaceStub" style="stroke: #A80036; stroke-width: 1.5;" width="350" x="52.21" y="265"/><ellipse cx="135.96" cy="281" fill="#ADD1B2" rx="11" ry="11" style="stroke: #A80036; stroke-width: 1.0;"/><path d="M138.9288,286.6406 Q138.3506,286.9375 137.71,287.0781 Q137.0694,287.2344 136.3663,287.2344 Q133.8663,287.2344 132.5381,285.5938 Q131.2256,283.9375 131.2256,280.8125 Q131.2256,277.6875 132.5381,276.0313 Q133.8663,274.375 136.3663,274.375 Q137.0694,274.375 137.71,274.5313 Q138.3663,274.6875 138.9288,274.9844 L138.9288,277.7031 Q138.3038,277.125 137.71,276.8594 Q137.1163,276.5781 136.4913,276.5781 Q135.1475,276.5781 134.46,277.6563 Q133.7725,278.7188 133.7725,280.8125 Q133.7725,282.9063 134.46,283.9844 Q135.1475,285.0469 136.4913,285.0469 Q137.1163,285.0469 137.71,284.7813 Q138.3038,284.5 138.9288,283.9219 L138.9288,286.6406 Z "/><text fill="#000000" font-family="sans-serif" font-size="12" lengthAdjust="spacingAndGlyphs" textLength="174" x="156.46" y="285.1543">MiddlewareGisInterfaceStub</text><line style="stroke: #A80036; stroke-width: 1.5;" x1="53.21" x2="401.21" y1="297" y2="297"/><line style="stroke: #A80036; stroke-width: 1.5;" x1="53.21" x2="401.21" y1="305" y2="305"/><ellipse cx="63.21" cy="332.8047" fill="#84BE84" rx="3" ry="3" style="stroke: #038048; stroke-width: 1.0;"/><text fill="#000000" font-family="sans-serif" font-size="11" lengthAdjust="spacingAndGlyphs" textLength="324" x="72.21" y="336.0151">String revieveGpsSignalStrength(Satellite satelliteSignal)</text><line style="stroke: #A80036; stroke-width: 1.0; stroke-dasharray: 1.0,2.0;" x1="53.21" x2="194.21" y1="319.4023" y2="319.4023"/><text fill="#000000" font-family="sans-serif" font-size="11" lengthAdjust="spacingAndGlyphs" textLength="66" x="194.21" y="322.7104">Use Case 1</text><line style="stroke: #A80036; stroke-width: 1.0; stroke-dasharray: 1.0,2.0;" x1="260.21" x2="401.21" y1="319.4023" y2="319.4023"/><ellipse cx="63.21" cy="362.4141" fill="#84BE84" rx="3" ry="3" style="stroke: #038048; stroke-width: 1.0;"/><text fill="#000000" font-family="sans-serif" font-size="11" lengthAdjust="spacingAndGlyphs" textLength="324" x="72.21" y="365.6245">String revieveGpsSignalStrength(Satellite satelliteSignal)</text><line style="stroke: #A80036; stroke-width: 1.0; stroke-dasharray: 1.0,2.0;" x1="53.21" x2="194.21" y1="349.0117" y2="349.0117"/><text fill="#000000" font-family="sans-serif" font-size="11" lengthAdjust="spacingAndGlyphs" textLength="66" x="194.21" y="352.3198">Use Case 2</text><line style="stroke: #A80036; stroke-width: 1.0; stroke-dasharray: 1.0,2.0;" x1="260.21" x2="401.21" y1="349.0117" y2="349.0117"/><!--MD5=[9d578318e58e71edcf98403314a477bf]
class SatelliteSignalCheckRequestTests--><rect fill="#FEFECE" filter="url(#fu2y8k1im8jdo)" height="48" id="SatelliteSignalCheckRequestTests" style="stroke: #A80036; stroke-width: 1.5;" width="245" x="52.71" y="101.5"/><ellipse cx="67.71" cy="117.5" fill="#ADD1B2" rx="11" ry="11" style="stroke: #A80036; stroke-width: 1.0;"/><path d="M70.6788,123.1406 Q70.1006,123.4375 69.46,123.5781 Q68.8194,123.7344 68.1163,123.7344 Q65.6163,123.7344 64.2881,122.0938 Q62.9756,120.4375 62.9756,117.3125 Q62.9756,114.1875 64.2881,112.5313 Q65.6163,110.875 68.1163,110.875 Q68.8194,110.875 69.46,111.0313 Q70.1163,111.1875 70.6788,111.4844 L70.6788,114.2031 Q70.0538,113.625 69.46,113.3594 Q68.8663,113.0781 68.2413,113.0781 Q66.8975,113.0781 66.21,114.1563 Q65.5225,115.2188 65.5225,117.3125 Q65.5225,119.4063 66.21,120.4844 Q66.8975,121.5469 68.2413,121.5469 Q68.8663,121.5469 69.46,121.2813 Q70.0538,121 70.6788,120.4219 L70.6788,123.1406 Z "/><text fill="#000000" font-family="sans-serif" font-size="12" lengthAdjust="spacingAndGlyphs" textLength="213" x="81.71" y="121.6543">SatelliteSignalCheckRequestTests</text><line style="stroke: #A80036; stroke-width: 1.5;" x1="53.71" x2="296.71" y1="133.5" y2="133.5"/><line style="stroke: #A80036; stroke-width: 1.5;" x1="53.71" x2="296.71" y1="141.5" y2="141.5"/><!--MD5=[5e11d977f08105e989255e48b5831e9e]
reverse link DisplayGpsInterface to DisplayGpsInterfaceImplementation--><path d="M2349.76,206.12 C2328.46,225.96 2306.16,246.74 2286.66,264.91 " fill="none" id="DisplayGpsInterface&lt;-DisplayGpsInterfaceImplementation" style="stroke: #A80036; stroke-width: 1.0; stroke-dasharray: 7.0,7.0;"/><polygon fill="none" points="2345.26,200.74,2364.66,192.23,2354.8,210.99,2345.26,200.74" style="stroke: #A80036; stroke-width: 1.0;"/><!--MD5=[6be1e14f889006c5f08853113ab490e0]
reverse link DisplayGpsManager to DisplayGpsManagerImplementation--><path d="M1998.16,197.42 C1987.73,219.8 1976.4,244.12 1966.68,264.97 " fill="none" id="DisplayGpsManager&lt;-DisplayGpsManagerImplementation" style="stroke: #A80036; stroke-width: 1.0; stroke-dasharray: 7.0,7.0;"/><polygon fill="none" points="1991.86,194.37,2006.65,179.2,2004.55,200.28,1991.86,194.37" style="stroke: #A80036; stroke-width: 1.0;"/><!--MD5=[8f7561e34aa0d27a53c807a3ed854e00]
reverse link DisplayGpsReceiver to DisplayGpsReceiverImplementation--><path d="M1578.97,199.47 C1579.15,216.64 1579.34,234.84 1579.52,251.67 " fill="none" id="DisplayGpsReceiver&lt;-DisplayGpsReceiverImplementation" style="stroke: #A80036; stroke-width: 1.0; stroke-dasharray: 7.0,7.0;"/><polygon fill="none" points="1571.97,199.27,1578.76,179.2,1585.97,199.12,1571.97,199.27" style="stroke: #A80036; stroke-width: 1.0;"/><!--MD5=[15c92c2a2adf203ad041f33ed955827c]
link DisplayGpsInterfaceImplementation to SatelliteSignalCheckRequest--><path d="M2153.28,372.05 C2132.11,385.18 2108.76,398.5 2086.21,409 C2046.71,427.39 2003.13,443.95 1961.07,458.22 " fill="none" id="DisplayGpsInterfaceImplementation-&gt;SatelliteSignalCheckRequest" style="stroke: #A80036; stroke-width: 1.0; stroke-dasharray: 7.0,7.0;"/><polygon fill="#A80036" points="1956.21,459.86,1966.0164,460.7733,1960.9477,458.2617,1963.4592,453.193,1956.21,459.86" style="stroke: #A80036; stroke-width: 1.0;"/><!--MD5=[7c1409244f780a6c86a58e8dd70df14d]
link DisplayGpsManagerImplementation to SatelliteSignalCheckRequest--><path d="M1893.47,372.15 C1869.52,398.02 1840.57,429.29 1815.87,455.97 " fill="none" id="DisplayGpsManagerImplementation-&gt;SatelliteSignalCheckRequest" style="stroke: #A80036; stroke-width: 1.0; stroke-dasharray: 7.0,7.0;"/><polygon fill="#A80036" points="1812.25,459.87,1821.3076,456.0021,1815.6544,456.2081,1815.4485,450.555,1812.25,459.87" style="stroke: #A80036; stroke-width: 1.0;"/><!--MD5=[7d553db02f4a507b6c7c602542b017ef]
link DisplayGpsReceiverImplementation to SatelliteSignalCheckRequest--><path d="M1640.98,385.14 C1662.24,408.11 1685.97,433.73 1706.69,456.11 " fill="none" id="DisplayGpsReceiverImplementation-&gt;SatelliteSignalCheckRequest" style="stroke: #A80036; stroke-width: 1.0; stroke-dasharray: 7.0,7.0;"/><polygon fill="#A80036" points="1710.25,459.96,1707.0696,450.6388,1706.8527,456.2915,1701.2,456.0745,1710.25,459.96" style="stroke: #A80036; stroke-width: 1.0;"/><!--MD5=[a39ee678f382d13a5ef855227ba9587a]
link DisplayGpsInterfaceImplementationTests to DisplayGpsManagerStub--><path d="M1163.4,149.54 C1153.02,176.7 1135.4,222.82 1121.24,259.87 " fill="none" id="DisplayGpsInterfaceImplementationTests-&gt;DisplayGpsManagerStub" style="stroke: #A80036; stroke-width: 1.0; stroke-dasharray: 7.0,7.0;"/><polygon fill="#A80036" points="1119.35,264.8,1126.2999,257.8215,1121.1353,260.1296,1118.8273,254.965,1119.35,264.8" style="stroke: #A80036; stroke-width: 1.0;"/><!--MD5=[3c39eec91ba14e3e98ba714fd609f505]
link DisplayGpsManagerImplementationTests to DisplayGpsReceiverStub--><path d="M817.6,149.54 C788.24,177.03 738.13,223.95 698.32,261.22 " fill="none" id="DisplayGpsManagerImplementationTests-&gt;DisplayGpsReceiverStub" style="stroke: #A80036; stroke-width: 1.0; stroke-dasharray: 7.0,7.0;"/><polygon fill="#A80036" points="694.5,264.8,703.802,261.5639,698.1481,261.3808,698.3313,255.7269,694.5,264.8" style="stroke: #A80036; stroke-width: 1.0;"/><!--MD5=[a138ef40e62bc338c09801e419a94a18]
link DisplayGpsReceiverImplementationTests to MiddlewareGisInterfaceStub--><path d="M472.56,149.54 C432.09,177.24 362.79,224.69 308.14,262.1 " fill="none" id="DisplayGpsReceiverImplementationTests-&gt;MiddlewareGisInterfaceStub" style="stroke: #A80036; stroke-width: 1.0; stroke-dasharray: 7.0,7.0;"/><polygon fill="#A80036" points="303.9,265,313.5896,263.2359,308.0314,262.1838,309.0836,256.6256,303.9,265" style="stroke: #A80036; stroke-width: 1.0;"/><!--MD5=[559dc6840a3fa5f6339eba398daf84da]
link DisplayGpsInterfaceImplementationTests to DisplayGpsInterfaceImplementation--><path d="M1227.9,149.57 C1265.69,164.2 1317.15,182.17 1364.21,192 C1679.41,257.81 1774.62,170.81 2086.21,252 C2097.6,254.97 2109.22,258.78 2120.67,263.07 " fill="none" id="DisplayGpsInterfaceImplementationTests-&gt;DisplayGpsInterfaceImplementation" style="stroke: #A80036; stroke-width: 1.0; stroke-dasharray: 7.0,7.0;"/><polygon fill="#A80036" points="2125.56,264.94,2118.563,258.0088,2120.8848,263.1672,2115.7265,265.489,2125.56,264.94" style="stroke: #A80036; stroke-width: 1.0;"/><!--MD5=[2e3cd722b28d266d1d740a168ee1e34f]
link DisplayGpsManagerImplementationTests to DisplayGpsManagerImplementation--><path d="M890.56,149.62 C923.72,164.38 969.17,182.47 1011.21,192 C1353.32,269.55 1458.45,164.71 1798.21,252 C1809.61,254.93 1821.24,258.72 1832.69,262.99 " fill="none" id="DisplayGpsManagerImplementationTests-&gt;DisplayGpsManagerImplementation" style="stroke: #A80036; stroke-width: 1.0; stroke-dasharray: 7.0,7.0;"/><polygon fill="#A80036" points="1837.58,264.85,1830.583,257.9188,1832.9048,263.0772,1827.7465,265.399,1837.58,264.85" style="stroke: #A80036; stroke-width: 1.0;"/><!--MD5=[d57f8b26a197451ecfa28454143abdf4]
link DisplayGpsReceiverImplementationTests to DisplayGpsReceiverImplementation--><path d="M557.09,149.54 C591.66,164.16 638.81,182.13 682.21,192 C968.56,257.12 1051.23,199.81 1340.21,252 C1351.46,254.03 1362.95,256.34 1374.51,258.86 " fill="none" id="DisplayGpsReceiverImplementationTests-&gt;DisplayGpsReceiverImplementation" style="stroke: #A80036; stroke-width: 1.0; stroke-dasharray: 7.0,7.0;"/><polygon fill="#A80036" points="1379.47,259.94,1371.5357,254.105,1374.5861,258.869,1369.8221,261.9193,1379.47,259.94" style="stroke: #A80036; stroke-width: 1.0;"/><!--MD5=[5c125b14ebe38b28a0533ebe685b3880]
link SatelliteSignalCheckRequestTests to SatelliteSignalCheckRequest--><path d="M134.35,149.59 C100.7,171.18 55.37,206.85 35.21,252 C6.76,315.71 -12.59,358.17 35.21,409 C86.28,463.31 1097.47,497.16 1547.9,509.6 " fill="none" id="SatelliteSignalCheckRequestTests-&gt;SatelliteSignalCheckRequest" style="stroke: #A80036; stroke-width: 1.0; stroke-dasharray: 7.0,7.0;"/><polygon fill="#A80036" points="1553.17,509.75,1544.2758,505.52,1548.1717,509.6215,1544.0702,513.5173,1553.17,509.75" style="stroke: #A80036; stroke-width: 1.0;"/><!--MD5=[0e433f8d240f5e0e605f20f00bb3cb16]
reverse link DisplayGpsManager to DisplayGpsManagerStub--><path d="M1830.23,183.78 C1817.74,186.72 1805.33,189.5 1793.21,192 C1604.67,230.96 1553.24,215.52 1364.21,252 C1344.2,255.86 1323.44,260.27 1302.74,264.94 " fill="none" id="DisplayGpsManager&lt;-DisplayGpsManagerStub" style="stroke: #A80036; stroke-width: 1.0; stroke-dasharray: 7.0,7.0;"/><polygon fill="none" points="1828.79,176.92,1849.88,179.01,1832.09,190.53,1828.79,176.92" style="stroke: #A80036; stroke-width: 1.0;"/><!--MD5=[22f8fcb80e0f6e4867fab5911220ab53]
reverse link DisplayGpsReceiver to DisplayGpsReceiverStub--><path d="M1378.36,183.74 C1365.5,186.73 1352.7,189.52 1340.21,192 C1128.04,234.14 1068.9,207.52 857.21,252 C839.64,255.69 821.43,260.13 803.37,264.92 " fill="none" id="DisplayGpsReceiver&lt;-DisplayGpsReceiverStub" style="stroke: #A80036; stroke-width: 1.0; stroke-dasharray: 7.0,7.0;"/><polygon fill="none" points="1376.83,176.91,1397.91,179.06,1380.09,190.53,1376.83,176.91" style="stroke: #A80036; stroke-width: 1.0;"/><!--MD5=[8bb71534ff0bdc66d8f2c51b96a2ea02]
@startuml Display01Packages_InternalDependencies


package edu.oakland.production.display01 {
    
}


package edu.oakland.production.display01 {
    interface DisplayGpsInterface {
        __
        .. Use Case 1 ..
        {abstract} + void receiveGpsSignal(Satellite satelliteSignal)
        .. Use Case 2 ..
        {abstract} + void reportGpsSignalLoss(String satelliteName)
        {abstract} + void recheckSignalStength(String satelliteName)
        {abstract} + void checkSignalStength(String satelliteName)
    }
}


package edu.oakland.production.display01 {
    interface DisplayGpsManager {
        __
        .. Use Case 1 ..
        {abstract} + String receiveGpsSignalStrength(Satellite satelliteSignal)
        .. Use Case 2 ..
        {abstract} + SatelliteSignalCheckRequest passGpsSignalStrength(String satelliteName)
    }
}


package edu.oakland.production.display01 {
    interface DisplayGpsReceiver {
        __
        .. Use Case 1 ..
        {abstract} + String measureGpsSignalStrength(Satellite satelliteSignal)
        .. Use Case 2 ..
        {abstract} + SatelliteSignalCheckRequest measureSignal(String satelliteName)
    }
}


package edu.oakland.production.display01 {
    class DisplayGpsInterfaceImplementation {
        __
        .. Use Case 1 ..

        .. Use Case 2 ..

    }
}


DisplayGpsInterfaceImplementation .up.|> DisplayGpsInterface

package edu.oakland.production.display01 {
    class DisplayGpsManagerImplementation {
        __
        .. Use Case 1 ..

        .. Use Case 2 ..

    }
}


DisplayGpsManagerImplementation .up.|> DisplayGpsManager

package edu.oakland.production.display01 {
    class DisplayGpsReceiverImplementation {
        __
        .. Use Case 1 ..
        + String measureGpsSignalStrength(Satellite satelliteSignal)
        - void passSignalStrength(int signalStrength)
        .. Use Case 2 ..
        + String measureGpsSignalStrength(Satellite satelliteSignal)
        + SatelliteSignalCheckRequest measureSignal(String satelliteName)
    }
}


DisplayGpsReceiverImplementation .up.|> DisplayGpsReceiver





package edu.oakland.helper.display01 {
    class SatelliteSignalCheckRequest {
        - String satelliteName
        - String checkType
        + SatelliteSignalCheckRequest(String satelliteName, String checkType)
        + String getSatelliteName()
        + String getCheckType()
    }
}

DisplayGpsInterfaceImplementation ..> SatelliteSignalCheckRequest
DisplayGpsManagerImplementation ..> SatelliteSignalCheckRequest
DisplayGpsReceiverImplementation ..> SatelliteSignalCheckRequest

package edu.oakland.test.display01 {
    
}


package edu.oakland.test.display01 {
    class DisplayGpsInterfaceImplementationTests {

    }
}



package edu.oakland.test.display01 {
    class DisplayGpsManagerStub {
        __
        .. Use Case 1 ..
        + String receiveGpsSignalStrengths(Satellite satelliteSignal)
        .. Use Case 2 ..
        + SatelliteSignalCheckRequest passGpsSignalStrength(String satelliteName)
    }
}

DisplayGpsInterfaceImplementationTests ..> DisplayGpsManagerStub

package edu.oakland.test.display01 {
    class DisplayGpsManagerImplementationTests {

    }
}



package edu.oakland.test.display01 {
    class DisplayGpsReceiverStub {
        __
        .. Use Case 1 ..
        + String measureGpsSignalStrength(Satellite satelliteSignal)
        .. Use Case 2 ..
        + SatelliteSignalCheckRequest measureSignal(String satelliteName)
    }
}

DisplayGpsManagerImplementationTests ..> DisplayGpsReceiverStub

package edu.oakland.test.display01 {
    class DisplayGpsReceiverImplementationTests {

    }
}



package edu.oakland.test.display01 {
    class MiddlewareGisInterfaceStub {
        __
        .. Use Case 1 ..
        + String revieveGpsSignalStrength(Satellite satelliteSignal)
        .. Use Case 2 ..
        + String revieveGpsSignalStrength(Satellite satelliteSignal)
    }
}

DisplayGpsReceiverImplementationTests ..> MiddlewareGisInterfaceStub

package edu.oakland.test.display01 {
    class SatelliteSignalCheckRequestTests {

    }
}


DisplayGpsInterfaceImplementationTests ..> DisplayGpsInterfaceImplementation
DisplayGpsManagerImplementationTests ..> DisplayGpsManagerImplementation
DisplayGpsReceiverImplementationTests ..> DisplayGpsReceiverImplementation
SatelliteSignalCheckRequestTests ..> SatelliteSignalCheckRequest
DisplayGpsManagerStub .up.|> DisplayGpsManager
DisplayGpsReceiverStub .up.|> DisplayGpsReceiver


package edu.oakland.helper.display01 {
    
}




@enduml

PlantUML version 1.2020.02(Sun Mar 01 10:22:07 GMT 2020)
(GPL source distribution)
Java Runtime: OpenJDK Runtime Environment
JVM: OpenJDK 64-Bit Server VM
Java Version: 11.0.9+11-Ubuntu-0ubuntu1
Operating System: Linux
Default Encoding: ANSI_X3.4-1968
Language: en
Country: US
--></g></svg>