<?xml version="1.0" encoding="UTF-8" standalone="no"?><svg xmlns="http://www.w3.org/2000/svg" xmlns:xlink="http://www.w3.org/1999/xlink" contentScriptType="application/ecmascript" contentStyleType="text/css" height="451px" preserveAspectRatio="none" style="width:1802px;height:451px;" version="1.1" viewBox="0 0 1802 451" width="1802px" zoomAndPan="magnify"><defs><filter height="300%" id="fz6uvvnikph8j" width="300%" x="-1" y="-1"><feGaussianBlur result="blurOut" stdDeviation="2.0"/><feColorMatrix in="blurOut" result="blurOut2" type="matrix" values="0 0 0 0 0 0 0 0 0 0 0 0 0 0 0 0 0 0 .4 0"/><feOffset dx="4.0" dy="4.0" in="blurOut2" result="blurOut3"/><feBlend in="SourceGraphic" in2="blurOut3" mode="normal"/></filter></defs><g><!--MD5=[3e281e6f49e0b185d62a106a5d994a08]
cluster edu.oakland.production.display01--><polygon fill="#FFFFFF" filter="url(#fz6uvvnikph8j)" points="544,24,817,24,824,46.2969,1780,46.2969,1780,439,544,439,544,24" style="stroke: #000000; stroke-width: 1.5;"/><line style="stroke: #000000; stroke-width: 1.5;" x1="544" x2="824" y1="46.2969" y2="46.2969"/><text fill="#000000" font-family="sans-serif" font-size="14" font-weight="bold" lengthAdjust="spacingAndGlyphs" textLength="267" x="548" y="38.9951">edu.oakland.production.display01</text><!--MD5=[fa6248c05b5a852ecd50b5411f159754]
class DisplayGpsInterface--><rect fill="#FEFECE" filter="url(#fz6uvvnikph8j)" height="132.8281" id="DisplayGpsInterface" style="stroke: #A80036; stroke-width: 1.5;" width="297" x="560.5" y="59"/><ellipse cx="642.75" cy="75" fill="#B4A7E5" rx="11" ry="11" style="stroke: #A80036; stroke-width: 1.0;"/><path d="M638.6719,70.7656 L638.6719,68.6094 L646.0625,68.6094 L646.0625,70.7656 L643.5938,70.7656 L643.5938,78.8438 L646.0625,78.8438 L646.0625,81 L638.6719,81 L638.6719,78.8438 L641.1406,78.8438 L641.1406,70.7656 L638.6719,70.7656 Z "/><text fill="#000000" font-family="sans-serif" font-size="12" font-style="italic" lengthAdjust="spacingAndGlyphs" textLength="124" x="663.25" y="79.1543">DisplayGpsInterface</text><line style="stroke: #A80036; stroke-width: 1.5;" x1="561.5" x2="856.5" y1="91" y2="91"/><line style="stroke: #A80036; stroke-width: 1.5;" x1="561.5" x2="856.5" y1="99" y2="99"/><ellipse cx="571.5" cy="126.8047" fill="#84BE84" rx="3" ry="3" style="stroke: #038048; stroke-width: 1.0;"/><text fill="#000000" font-family="sans-serif" font-size="11" font-style="italic" lengthAdjust="spacingAndGlyphs" textLength="261" x="580.5" y="130.0151">void receiveGpsSignal(Satellite satelliteSignal)</text><line style="stroke: #A80036; stroke-width: 1.0; stroke-dasharray: 1.0,2.0;" x1="561.5" x2="676" y1="113.4023" y2="113.4023"/><text fill="#000000" font-family="sans-serif" font-size="11" lengthAdjust="spacingAndGlyphs" textLength="66" x="676" y="116.7104">Use Case 1</text><line style="stroke: #A80036; stroke-width: 1.0; stroke-dasharray: 1.0,2.0;" x1="742" x2="856.5" y1="113.4023" y2="113.4023"/><ellipse cx="571.5" cy="156.4141" fill="#84BE84" rx="3" ry="3" style="stroke: #038048; stroke-width: 1.0;"/><text fill="#000000" font-family="sans-serif" font-size="11" font-style="italic" lengthAdjust="spacingAndGlyphs" textLength="266" x="580.5" y="159.6245">void reportGpsSignalLoss(String satelliteName)</text><ellipse cx="571.5" cy="169.2188" fill="#84BE84" rx="3" ry="3" style="stroke: #038048; stroke-width: 1.0;"/><text fill="#000000" font-family="sans-serif" font-size="11" font-style="italic" lengthAdjust="spacingAndGlyphs" textLength="271" x="580.5" y="172.4292">void recheckSignalStength(String satelliteName)</text><ellipse cx="571.5" cy="182.0234" fill="#84BE84" rx="3" ry="3" style="stroke: #038048; stroke-width: 1.0;"/><text fill="#000000" font-family="sans-serif" font-size="11" font-style="italic" lengthAdjust="spacingAndGlyphs" textLength="259" x="580.5" y="185.2339">void checkSignalStength(String satelliteName)</text><line style="stroke: #A80036; stroke-width: 1.0; stroke-dasharray: 1.0,2.0;" x1="561.5" x2="676" y1="143.0117" y2="143.0117"/><text fill="#000000" font-family="sans-serif" font-size="11" lengthAdjust="spacingAndGlyphs" textLength="66" x="676" y="146.3198">Use Case 2</text><line style="stroke: #A80036; stroke-width: 1.0; stroke-dasharray: 1.0,2.0;" x1="742" x2="856.5" y1="143.0117" y2="143.0117"/><!--MD5=[31cbac78761b59e73153a97a452ed09a]
class DisplayGpsManager--><rect fill="#FEFECE" filter="url(#fz6uvvnikph8j)" height="107.2188" id="DisplayGpsManager" style="stroke: #A80036; stroke-width: 1.5;" width="441" x="892.5" y="72"/><ellipse cx="1047.75" cy="88" fill="#B4A7E5" rx="11" ry="11" style="stroke: #A80036; stroke-width: 1.0;"/><path d="M1043.6719,83.7656 L1043.6719,81.6094 L1051.0625,81.6094 L1051.0625,83.7656 L1048.5938,83.7656 L1048.5938,91.8438 L1051.0625,91.8438 L1051.0625,94 L1043.6719,94 L1043.6719,91.8438 L1046.1406,91.8438 L1046.1406,83.7656 L1043.6719,83.7656 Z "/><text fill="#000000" font-family="sans-serif" font-size="12" font-style="italic" lengthAdjust="spacingAndGlyphs" textLength="122" x="1068.25" y="92.1543">DisplayGpsManager</text><line style="stroke: #A80036; stroke-width: 1.5;" x1="893.5" x2="1332.5" y1="104" y2="104"/><line style="stroke: #A80036; stroke-width: 1.5;" x1="893.5" x2="1332.5" y1="112" y2="112"/><ellipse cx="903.5" cy="139.8047" fill="#84BE84" rx="3" ry="3" style="stroke: #038048; stroke-width: 1.0;"/><text fill="#000000" font-family="sans-serif" font-size="11" font-style="italic" lengthAdjust="spacingAndGlyphs" textLength="318" x="912.5" y="143.0151">String receiveGpsSignalStrength(Satellite satelliteSignal)</text><line style="stroke: #A80036; stroke-width: 1.0; stroke-dasharray: 1.0,2.0;" x1="893.5" x2="1080" y1="126.4023" y2="126.4023"/><text fill="#000000" font-family="sans-serif" font-size="11" lengthAdjust="spacingAndGlyphs" textLength="66" x="1080" y="129.7104">Use Case 1</text><line style="stroke: #A80036; stroke-width: 1.0; stroke-dasharray: 1.0,2.0;" x1="1146" x2="1332.5" y1="126.4023" y2="126.4023"/><ellipse cx="903.5" cy="169.4141" fill="#84BE84" rx="3" ry="3" style="stroke: #038048; stroke-width: 1.0;"/><text fill="#000000" font-family="sans-serif" font-size="11" font-style="italic" lengthAdjust="spacingAndGlyphs" textLength="415" x="912.5" y="172.6245">SatelliteSignalCheckRequest passGpsSignalStrength(String satelliteName)</text><line style="stroke: #A80036; stroke-width: 1.0; stroke-dasharray: 1.0,2.0;" x1="893.5" x2="1080" y1="156.0117" y2="156.0117"/><text fill="#000000" font-family="sans-serif" font-size="11" lengthAdjust="spacingAndGlyphs" textLength="66" x="1080" y="159.3198">Use Case 2</text><line style="stroke: #A80036; stroke-width: 1.0; stroke-dasharray: 1.0,2.0;" x1="1146" x2="1332.5" y1="156.0117" y2="156.0117"/><!--MD5=[319273309e4c56bac150542a32321bb2]
class DisplayGpsReceiver--><rect fill="#FEFECE" filter="url(#fz6uvvnikph8j)" height="107.2188" id="DisplayGpsReceiver" style="stroke: #A80036; stroke-width: 1.5;" width="395" x="1368.5" y="72"/><ellipse cx="1501.75" cy="88" fill="#B4A7E5" rx="11" ry="11" style="stroke: #A80036; stroke-width: 1.0;"/><path d="M1497.6719,83.7656 L1497.6719,81.6094 L1505.0625,81.6094 L1505.0625,83.7656 L1502.5938,83.7656 L1502.5938,91.8438 L1505.0625,91.8438 L1505.0625,94 L1497.6719,94 L1497.6719,91.8438 L1500.1406,91.8438 L1500.1406,83.7656 L1497.6719,83.7656 Z "/><text fill="#000000" font-family="sans-serif" font-size="12" font-style="italic" lengthAdjust="spacingAndGlyphs" textLength="120" x="1522.25" y="92.1543">DisplayGpsReceiver</text><line style="stroke: #A80036; stroke-width: 1.5;" x1="1369.5" x2="1762.5" y1="104" y2="104"/><line style="stroke: #A80036; stroke-width: 1.5;" x1="1369.5" x2="1762.5" y1="112" y2="112"/><ellipse cx="1379.5" cy="139.8047" fill="#84BE84" rx="3" ry="3" style="stroke: #038048; stroke-width: 1.0;"/><text fill="#000000" font-family="sans-serif" font-size="11" font-style="italic" lengthAdjust="spacingAndGlyphs" textLength="326" x="1388.5" y="143.0151">String measureGpsSignalStrength(Satellite satelliteSignal)</text><line style="stroke: #A80036; stroke-width: 1.0; stroke-dasharray: 1.0,2.0;" x1="1369.5" x2="1533" y1="126.4023" y2="126.4023"/><text fill="#000000" font-family="sans-serif" font-size="11" lengthAdjust="spacingAndGlyphs" textLength="66" x="1533" y="129.7104">Use Case 1</text><line style="stroke: #A80036; stroke-width: 1.0; stroke-dasharray: 1.0,2.0;" x1="1599" x2="1762.5" y1="126.4023" y2="126.4023"/><ellipse cx="1379.5" cy="169.4141" fill="#84BE84" rx="3" ry="3" style="stroke: #038048; stroke-width: 1.0;"/><text fill="#000000" font-family="sans-serif" font-size="11" font-style="italic" lengthAdjust="spacingAndGlyphs" textLength="369" x="1388.5" y="172.6245">SatelliteSignalCheckRequest measureSignal(String satelliteName)</text><line style="stroke: #A80036; stroke-width: 1.0; stroke-dasharray: 1.0,2.0;" x1="1369.5" x2="1533" y1="156.0117" y2="156.0117"/><text fill="#000000" font-family="sans-serif" font-size="11" lengthAdjust="spacingAndGlyphs" textLength="66" x="1533" y="159.3198">Use Case 2</text><line style="stroke: #A80036; stroke-width: 1.0; stroke-dasharray: 1.0,2.0;" x1="1599" x2="1762.5" y1="156.0117" y2="156.0117"/><!--MD5=[6376794c08ca75f6fa530286e1e32b13]
class DisplayGpsInterfaceImplementation--><rect fill="#FEFECE" filter="url(#fz6uvvnikph8j)" height="171.2422" id="DisplayGpsInterfaceImplementation" style="stroke: #A80036; stroke-width: 1.5;" width="398" x="560" y="252"/><ellipse cx="644.25" cy="268" fill="#ADD1B2" rx="11" ry="11" style="stroke: #A80036; stroke-width: 1.0;"/><path d="M647.2188,273.6406 Q646.6406,273.9375 646,274.0781 Q645.3594,274.2344 644.6563,274.2344 Q642.1563,274.2344 640.8281,272.5938 Q639.5156,270.9375 639.5156,267.8125 Q639.5156,264.6875 640.8281,263.0313 Q642.1563,261.375 644.6563,261.375 Q645.3594,261.375 646,261.5313 Q646.6563,261.6875 647.2188,261.9844 L647.2188,264.7031 Q646.5938,264.125 646,263.8594 Q645.4063,263.5781 644.7813,263.5781 Q643.4375,263.5781 642.75,264.6563 Q642.0625,265.7188 642.0625,267.8125 Q642.0625,269.9063 642.75,270.9844 Q643.4375,272.0469 644.7813,272.0469 Q645.4063,272.0469 646,271.7813 Q646.5938,271.5 647.2188,270.9219 L647.2188,273.6406 Z "/><text fill="#000000" font-family="sans-serif" font-size="12" lengthAdjust="spacingAndGlyphs" textLength="221" x="664.75" y="272.1543">DisplayGpsInterfaceImplementation</text><line style="stroke: #A80036; stroke-width: 1.5;" x1="561" x2="957" y1="284" y2="284"/><rect fill="none" height="6" style="stroke: #C82930; stroke-width: 1.0;" width="6" x="568" y="292"/><text fill="#000000" font-family="sans-serif" font-size="11" lengthAdjust="spacingAndGlyphs" textLength="162" x="580" y="298.2104">DisplayGpsReciever reciever</text><line style="stroke: #A80036; stroke-width: 1.5;" x1="561" x2="957" y1="304.8047" y2="304.8047"/><ellipse cx="571" cy="315.8047" fill="#84BE84" rx="3" ry="3" style="stroke: #038048; stroke-width: 1.0;"/><text fill="#000000" font-family="sans-serif" font-size="11" lengthAdjust="spacingAndGlyphs" textLength="372" x="580" y="319.0151">DisplayGpsInterfaceImplementation(DisplayGpsReciever reciever)</text><ellipse cx="571" cy="345.4141" fill="#84BE84" rx="3" ry="3" style="stroke: #038048; stroke-width: 1.0;"/><text fill="#000000" font-family="sans-serif" font-size="11" lengthAdjust="spacingAndGlyphs" textLength="264" x="580" y="348.6245">void receiveGpsSignal(Satellite satelliteSignal)</text><line style="stroke: #A80036; stroke-width: 1.0; stroke-dasharray: 1.0,2.0;" x1="561" x2="726" y1="332.0117" y2="332.0117"/><text fill="#000000" font-family="sans-serif" font-size="11" lengthAdjust="spacingAndGlyphs" textLength="66" x="726" y="335.3198">Use Case 1</text><line style="stroke: #A80036; stroke-width: 1.0; stroke-dasharray: 1.0,2.0;" x1="792" x2="957" y1="332.0117" y2="332.0117"/><ellipse cx="571" cy="375.0234" fill="#84BE84" rx="3" ry="3" style="stroke: #038048; stroke-width: 1.0;"/><text fill="#000000" font-family="sans-serif" font-size="11" lengthAdjust="spacingAndGlyphs" textLength="271" x="580" y="378.2339">void reportGpsSignalLoss(String satelliteName)</text><ellipse cx="571" cy="387.8281" fill="#84BE84" rx="3" ry="3" style="stroke: #038048; stroke-width: 1.0;"/><text fill="#000000" font-family="sans-serif" font-size="11" lengthAdjust="spacingAndGlyphs" textLength="274" x="580" y="391.0386">void recheckSignalStength(String satelliteName)</text><ellipse cx="571" cy="400.6328" fill="#84BE84" rx="3" ry="3" style="stroke: #038048; stroke-width: 1.0;"/><text fill="#000000" font-family="sans-serif" font-size="11" lengthAdjust="spacingAndGlyphs" textLength="262" x="580" y="403.8433">void checkSignalStength(String satelliteName)</text><rect fill="#F24D5C" height="6" style="stroke: #C82930; stroke-width: 1.0;" width="6" x="568" y="410.4375"/><text fill="#000000" font-family="sans-serif" font-size="11" lengthAdjust="spacingAndGlyphs" textLength="261" x="580" y="416.6479">int reportSignalStrength(String satelliteName)</text><line style="stroke: #A80036; stroke-width: 1.0; stroke-dasharray: 1.0,2.0;" x1="561" x2="726" y1="361.6211" y2="361.6211"/><text fill="#000000" font-family="sans-serif" font-size="11" lengthAdjust="spacingAndGlyphs" textLength="66" x="726" y="364.9292">Use Case 2</text><line style="stroke: #A80036; stroke-width: 1.0; stroke-dasharray: 1.0,2.0;" x1="792" x2="957" y1="361.6211" y2="361.6211"/><!--MD5=[85db0a5b69c4b55d7b0101612d8a7890]
class DisplayGpsManagerImplementation--><rect fill="#FEFECE" filter="url(#fz6uvvnikph8j)" height="107.2188" id="DisplayGpsManagerImplementation" style="stroke: #A80036; stroke-width: 1.5;" width="252" x="993" y="284"/><ellipse cx="1008" cy="300" fill="#ADD1B2" rx="11" ry="11" style="stroke: #A80036; stroke-width: 1.0;"/><path d="M1010.9688,305.6406 Q1010.3906,305.9375 1009.75,306.0781 Q1009.1094,306.2344 1008.4063,306.2344 Q1005.9063,306.2344 1004.5781,304.5938 Q1003.2656,302.9375 1003.2656,299.8125 Q1003.2656,296.6875 1004.5781,295.0313 Q1005.9063,293.375 1008.4063,293.375 Q1009.1094,293.375 1009.75,293.5313 Q1010.4063,293.6875 1010.9688,293.9844 L1010.9688,296.7031 Q1010.3438,296.125 1009.75,295.8594 Q1009.1563,295.5781 1008.5313,295.5781 Q1007.1875,295.5781 1006.5,296.6563 Q1005.8125,297.7188 1005.8125,299.8125 Q1005.8125,301.9063 1006.5,302.9844 Q1007.1875,304.0469 1008.5313,304.0469 Q1009.1563,304.0469 1009.75,303.7813 Q1010.3438,303.5 1010.9688,302.9219 L1010.9688,305.6406 Z "/><text fill="#000000" font-family="sans-serif" font-size="12" lengthAdjust="spacingAndGlyphs" textLength="220" x="1022" y="304.1543">DisplayGpsManagerImplementation</text><line style="stroke: #A80036; stroke-width: 1.5;" x1="994" x2="1244" y1="316" y2="316"/><line style="stroke: #A80036; stroke-width: 1.5;" x1="994" x2="1244" y1="324" y2="324"/><text fill="#000000" font-family="sans-serif" font-size="11" lengthAdjust="spacingAndGlyphs" textLength="0" x="1003" y="355.0151"/><line style="stroke: #A80036; stroke-width: 1.0; stroke-dasharray: 1.0,2.0;" x1="994" x2="1086" y1="338.4023" y2="338.4023"/><text fill="#000000" font-family="sans-serif" font-size="11" lengthAdjust="spacingAndGlyphs" textLength="66" x="1086" y="341.7104">Use Case 1</text><line style="stroke: #A80036; stroke-width: 1.0; stroke-dasharray: 1.0,2.0;" x1="1152" x2="1244" y1="338.4023" y2="338.4023"/><text fill="#000000" font-family="sans-serif" font-size="11" lengthAdjust="spacingAndGlyphs" textLength="0" x="1003" y="384.6245"/><line style="stroke: #A80036; stroke-width: 1.0; stroke-dasharray: 1.0,2.0;" x1="994" x2="1086" y1="368.0117" y2="368.0117"/><text fill="#000000" font-family="sans-serif" font-size="11" lengthAdjust="spacingAndGlyphs" textLength="66" x="1086" y="371.3198">Use Case 2</text><line style="stroke: #A80036; stroke-width: 1.0; stroke-dasharray: 1.0,2.0;" x1="1152" x2="1244" y1="368.0117" y2="368.0117"/><!--MD5=[02b25ee3f711f666678619f4b81f3681]
class DisplayGpsReceiverImplementation--><rect fill="#FEFECE" filter="url(#fz6uvvnikph8j)" height="107.2188" id="DisplayGpsReceiverImplementation" style="stroke: #A80036; stroke-width: 1.5;" width="250" x="1441" y="284"/><ellipse cx="1456" cy="300" fill="#ADD1B2" rx="11" ry="11" style="stroke: #A80036; stroke-width: 1.0;"/><path d="M1458.9688,305.6406 Q1458.3906,305.9375 1457.75,306.0781 Q1457.1094,306.2344 1456.4063,306.2344 Q1453.9063,306.2344 1452.5781,304.5938 Q1451.2656,302.9375 1451.2656,299.8125 Q1451.2656,296.6875 1452.5781,295.0313 Q1453.9063,293.375 1456.4063,293.375 Q1457.1094,293.375 1457.75,293.5313 Q1458.4063,293.6875 1458.9688,293.9844 L1458.9688,296.7031 Q1458.3438,296.125 1457.75,295.8594 Q1457.1563,295.5781 1456.5313,295.5781 Q1455.1875,295.5781 1454.5,296.6563 Q1453.8125,297.7188 1453.8125,299.8125 Q1453.8125,301.9063 1454.5,302.9844 Q1455.1875,304.0469 1456.5313,304.0469 Q1457.1563,304.0469 1457.75,303.7813 Q1458.3438,303.5 1458.9688,302.9219 L1458.9688,305.6406 Z "/><text fill="#000000" font-family="sans-serif" font-size="12" lengthAdjust="spacingAndGlyphs" textLength="218" x="1470" y="304.1543">DisplayGpsReceiverImplementation</text><line style="stroke: #A80036; stroke-width: 1.5;" x1="1442" x2="1690" y1="316" y2="316"/><line style="stroke: #A80036; stroke-width: 1.5;" x1="1442" x2="1690" y1="324" y2="324"/><text fill="#000000" font-family="sans-serif" font-size="11" lengthAdjust="spacingAndGlyphs" textLength="0" x="1451" y="355.0151"/><line style="stroke: #A80036; stroke-width: 1.0; stroke-dasharray: 1.0,2.0;" x1="1442" x2="1533" y1="338.4023" y2="338.4023"/><text fill="#000000" font-family="sans-serif" font-size="11" lengthAdjust="spacingAndGlyphs" textLength="66" x="1533" y="341.7104">Use Case 1</text><line style="stroke: #A80036; stroke-width: 1.0; stroke-dasharray: 1.0,2.0;" x1="1599" x2="1690" y1="338.4023" y2="338.4023"/><text fill="#000000" font-family="sans-serif" font-size="11" lengthAdjust="spacingAndGlyphs" textLength="0" x="1451" y="384.6245"/><line style="stroke: #A80036; stroke-width: 1.0; stroke-dasharray: 1.0,2.0;" x1="1442" x2="1533" y1="368.0117" y2="368.0117"/><text fill="#000000" font-family="sans-serif" font-size="11" lengthAdjust="spacingAndGlyphs" textLength="66" x="1533" y="371.3198">Use Case 2</text><line style="stroke: #A80036; stroke-width: 1.0; stroke-dasharray: 1.0,2.0;" x1="1599" x2="1690" y1="368.0117" y2="368.0117"/><polygon fill="#FFFFFF" filter="url(#fz6uvvnikph8j)" points="6,99,224,99,231,121.2969,238,121.2969,238,151.5938,6,151.5938,6,99" style="stroke: #000000; stroke-width: 1.5;"/><line style="stroke: #000000; stroke-width: 1.5;" x1="6" x2="231" y1="121.2969" y2="121.2969"/><text fill="#000000" font-family="sans-serif" font-size="14" font-weight="bold" lengthAdjust="spacingAndGlyphs" textLength="212" x="10" y="113.9951">edu.oakland.test.display01</text><polygon fill="#FFFFFF" filter="url(#fz6uvvnikph8j)" points="273,99,511,99,518,121.2969,525,121.2969,525,151.5938,273,151.5938,273,99" style="stroke: #000000; stroke-width: 1.5;"/><line style="stroke: #000000; stroke-width: 1.5;" x1="273" x2="518" y1="121.2969" y2="121.2969"/><text fill="#000000" font-family="sans-serif" font-size="14" font-weight="bold" lengthAdjust="spacingAndGlyphs" textLength="232" x="277" y="113.9951">edu.oakland.helper.display01</text><!--MD5=[5e11d977f08105e989255e48b5831e9e]
reverse link DisplayGpsInterface to DisplayGpsInterfaceImplementation--><path d="M729.28,211.68 C732.43,224.89 735.68,238.54 738.82,251.74 " fill="none" id="DisplayGpsInterface&lt;-DisplayGpsInterfaceImplementation" style="stroke: #A80036; stroke-width: 1.0; stroke-dasharray: 7.0,7.0;"/><polygon fill="none" points="722.44,213.16,724.61,192.08,736.06,209.92,722.44,213.16" style="stroke: #A80036; stroke-width: 1.0;"/><!--MD5=[6be1e14f889006c5f08853113ab490e0]
reverse link DisplayGpsManager to DisplayGpsManagerImplementation--><path d="M1115.08,199.21 C1115.87,227.02 1116.76,258.17 1117.49,283.76 " fill="none" id="DisplayGpsManager&lt;-DisplayGpsManagerImplementation" style="stroke: #A80036; stroke-width: 1.0; stroke-dasharray: 7.0,7.0;"/><polygon fill="none" points="1108.08,199.41,1114.51,179.22,1122.07,199.01,1108.08,199.41" style="stroke: #A80036; stroke-width: 1.0;"/><!--MD5=[8f7561e34aa0d27a53c807a3ed854e00]
reverse link DisplayGpsReceiver to DisplayGpsReceiverImplementation--><path d="M1566,199.62 C1566,227.32 1566,258.29 1566,283.76 " fill="none" id="DisplayGpsReceiver&lt;-DisplayGpsReceiverImplementation" style="stroke: #A80036; stroke-width: 1.0; stroke-dasharray: 7.0,7.0;"/><polygon fill="none" points="1559,199.22,1566,179.22,1573,199.22,1559,199.22" style="stroke: #A80036; stroke-width: 1.0;"/><!--MD5=[d7b7f0070edfb04e8c203cb46b7c4525]
@startuml Display01Packages_DirectDependencies


package edu.oakland.production.display01 {
    
}


package edu.oakland.production.display01 {
    
}


package edu.oakland.production.display01 {
    interface DisplayGpsInterface {
        __
        .. Use Case 1 ..
        {abstract} + void receiveGpsSignal(Satellite satelliteSignal)
        .. Use Case 2 ..
        {abstract} + void reportGpsSignalLoss(String satelliteName)
        {abstract} + void recheckSignalStength(String satelliteName)
        {abstract} + void checkSignalStength(String satelliteName)
    }
}


package edu.oakland.production.display01 {
    interface DisplayGpsManager {
        __
        .. Use Case 1 ..
        {abstract} + String receiveGpsSignalStrength(Satellite satelliteSignal)
        .. Use Case 2 ..
        {abstract} + SatelliteSignalCheckRequest passGpsSignalStrength(String satelliteName)
    }
}


package edu.oakland.production.display01 {
    interface DisplayGpsReceiver {
        __
        .. Use Case 1 ..
        {abstract} + String measureGpsSignalStrength(Satellite satelliteSignal)
        .. Use Case 2 ..
        {abstract} + SatelliteSignalCheckRequest measureSignal(String satelliteName)
    }
}



package edu.oakland.production.display01 {
    class DisplayGpsInterfaceImplementation {
        - DisplayGpsReciever reciever
        __
        + DisplayGpsInterfaceImplementation(DisplayGpsReciever reciever)
        .. Use Case 1 ..
        + void receiveGpsSignal(Satellite satelliteSignal)
        .. Use Case 2 ..
        + void reportGpsSignalLoss(String satelliteName)
        + void recheckSignalStength(String satelliteName)
        + void checkSignalStength(String satelliteName)
        - int reportSignalStrength(String satelliteName)
    }
}


DisplayGpsInterfaceImplementation .up.|> DisplayGpsInterface

package edu.oakland.production.display01 {
    class DisplayGpsManagerImplementation {
        __
        .. Use Case 1 ..

        .. Use Case 2 ..

    }
}


DisplayGpsManagerImplementation .up.|> DisplayGpsManager

package edu.oakland.production.display01 {
    class DisplayGpsReceiverImplementation {
        __
        .. Use Case 1 ..

        .. Use Case 2 ..

    }
}


DisplayGpsReceiverImplementation .up.|> DisplayGpsReceiver
















package edu.oakland.test.display01 {
    
}


package edu.oakland.test.display01 {
    
}



package edu.oakland.helper.display01 {
    
}


@enduml

PlantUML version 1.2020.02(Sun Mar 01 10:22:07 GMT 2020)
(GPL source distribution)
Java Runtime: OpenJDK Runtime Environment
JVM: OpenJDK 64-Bit Server VM
Java Version: 11.0.9+11-Ubuntu-0ubuntu1
Operating System: Linux
Default Encoding: ANSI_X3.4-1968
Language: en
Country: US
--></g></svg>