<?xml version="1.0" encoding="UTF-8" standalone="no"?><svg xmlns="http://www.w3.org/2000/svg" xmlns:xlink="http://www.w3.org/1999/xlink" contentScriptType="application/ecmascript" contentStyleType="text/css" height="687px" preserveAspectRatio="none" style="width:3090px;height:687px;" version="1.1" viewBox="0 0 3090 687" width="3090px" zoomAndPan="magnify"><defs><filter height="300%" id="fzfm2dedy74tf" width="300%" x="-1" y="-1"><feGaussianBlur result="blurOut" stdDeviation="2.0"/><feColorMatrix in="blurOut" result="blurOut2" type="matrix" values="0 0 0 0 0 0 0 0 0 0 0 0 0 0 0 0 0 0 .4 0"/><feOffset dx="4.0" dy="4.0" in="blurOut2" result="blurOut3"/><feBlend in="SourceGraphic" in2="blurOut3" mode="normal"/></filter></defs><g><!--MD5=[3e281e6f49e0b185d62a106a5d994a08]
cluster edu.oakland.production.display01--><polygon fill="#FFFFFF" filter="url(#fzfm2dedy74tf)" points="22,24,295,24,302,46.2969,1373,46.2969,1373,508,22,508,22,24" style="stroke: #000000; stroke-width: 1.5;"/><line style="stroke: #000000; stroke-width: 1.5;" x1="22" x2="302" y1="46.2969" y2="46.2969"/><text fill="#000000" font-family="sans-serif" font-size="14" font-weight="bold" lengthAdjust="spacingAndGlyphs" textLength="267" x="26" y="38.9951">edu.oakland.production.display01</text><!--MD5=[9181924624f655b87cae45fec5f93c8d]
cluster edu.oakland.test.display01--><polygon fill="#FFFFFF" filter="url(#fzfm2dedy74tf)" points="1397,66.5,1615,66.5,1622,88.7969,2596,88.7969,2596,675,1397,675,1397,66.5" style="stroke: #000000; stroke-width: 1.5;"/><line style="stroke: #000000; stroke-width: 1.5;" x1="1397" x2="1622" y1="88.7969" y2="88.7969"/><text fill="#000000" font-family="sans-serif" font-size="14" font-weight="bold" lengthAdjust="spacingAndGlyphs" textLength="212" x="1401" y="81.4951">edu.oakland.test.display01</text><!--MD5=[d02020cdc9562d037d87b751d110dd8b]
cluster edu.oakland.helper.display01--><polygon fill="#FFFFFF" filter="url(#fzfm2dedy74tf)" points="2620,34.5,2858,34.5,2865,56.7969,3068,56.7969,3068,197.5,2620,197.5,2620,34.5" style="stroke: #000000; stroke-width: 1.5;"/><line style="stroke: #000000; stroke-width: 1.5;" x1="2620" x2="2865" y1="56.7969" y2="56.7969"/><text fill="#000000" font-family="sans-serif" font-size="14" font-weight="bold" lengthAdjust="spacingAndGlyphs" textLength="232" x="2624" y="49.4951">edu.oakland.helper.display01</text><!--MD5=[fa6248c05b5a852ecd50b5411f159754]
class DisplayGpsInterface--><rect fill="#FEFECE" filter="url(#fzfm2dedy74tf)" height="132.8281" id="DisplayGpsInterface" style="stroke: #A80036; stroke-width: 1.5;" width="297" x="88.5" y="59"/><ellipse cx="170.75" cy="75" fill="#B4A7E5" rx="11" ry="11" style="stroke: #A80036; stroke-width: 1.0;"/><path d="M166.6719,70.7656 L166.6719,68.6094 L174.0625,68.6094 L174.0625,70.7656 L171.5938,70.7656 L171.5938,78.8438 L174.0625,78.8438 L174.0625,81 L166.6719,81 L166.6719,78.8438 L169.1406,78.8438 L169.1406,70.7656 L166.6719,70.7656 Z "/><text fill="#000000" font-family="sans-serif" font-size="12" font-style="italic" lengthAdjust="spacingAndGlyphs" textLength="124" x="191.25" y="79.1543">DisplayGpsInterface</text><line style="stroke: #A80036; stroke-width: 1.5;" x1="89.5" x2="384.5" y1="91" y2="91"/><line style="stroke: #A80036; stroke-width: 1.5;" x1="89.5" x2="384.5" y1="99" y2="99"/><ellipse cx="99.5" cy="126.8047" fill="#84BE84" rx="3" ry="3" style="stroke: #038048; stroke-width: 1.0;"/><text fill="#000000" font-family="sans-serif" font-size="11" font-style="italic" lengthAdjust="spacingAndGlyphs" textLength="261" x="108.5" y="130.0151">void receiveGpsSignal(Satellite satelliteSignal)</text><line style="stroke: #A80036; stroke-width: 1.0; stroke-dasharray: 1.0,2.0;" x1="89.5" x2="204" y1="113.4023" y2="113.4023"/><text fill="#000000" font-family="sans-serif" font-size="11" lengthAdjust="spacingAndGlyphs" textLength="66" x="204" y="116.7104">Use Case 1</text><line style="stroke: #A80036; stroke-width: 1.0; stroke-dasharray: 1.0,2.0;" x1="270" x2="384.5" y1="113.4023" y2="113.4023"/><ellipse cx="99.5" cy="156.4141" fill="#84BE84" rx="3" ry="3" style="stroke: #038048; stroke-width: 1.0;"/><text fill="#000000" font-family="sans-serif" font-size="11" font-style="italic" lengthAdjust="spacingAndGlyphs" textLength="266" x="108.5" y="159.6245">void reportGpsSignalLoss(String satelliteName)</text><ellipse cx="99.5" cy="169.2188" fill="#84BE84" rx="3" ry="3" style="stroke: #038048; stroke-width: 1.0;"/><text fill="#000000" font-family="sans-serif" font-size="11" font-style="italic" lengthAdjust="spacingAndGlyphs" textLength="271" x="108.5" y="172.4292">void recheckSignalStength(String satelliteName)</text><ellipse cx="99.5" cy="182.0234" fill="#84BE84" rx="3" ry="3" style="stroke: #038048; stroke-width: 1.0;"/><text fill="#000000" font-family="sans-serif" font-size="11" font-style="italic" lengthAdjust="spacingAndGlyphs" textLength="259" x="108.5" y="185.2339">void checkSignalStength(String satelliteName)</text><line style="stroke: #A80036; stroke-width: 1.0; stroke-dasharray: 1.0,2.0;" x1="89.5" x2="204" y1="143.0117" y2="143.0117"/><text fill="#000000" font-family="sans-serif" font-size="11" lengthAdjust="spacingAndGlyphs" textLength="66" x="204" y="146.3198">Use Case 2</text><line style="stroke: #A80036; stroke-width: 1.0; stroke-dasharray: 1.0,2.0;" x1="270" x2="384.5" y1="143.0117" y2="143.0117"/><!--MD5=[31cbac78761b59e73153a97a452ed09a]
class DisplayGpsManager--><rect fill="#FEFECE" filter="url(#fzfm2dedy74tf)" height="107.2188" id="DisplayGpsManager" style="stroke: #A80036; stroke-width: 1.5;" width="441" x="420.5" y="72"/><ellipse cx="575.75" cy="88" fill="#B4A7E5" rx="11" ry="11" style="stroke: #A80036; stroke-width: 1.0;"/><path d="M571.6719,83.7656 L571.6719,81.6094 L579.0625,81.6094 L579.0625,83.7656 L576.5938,83.7656 L576.5938,91.8438 L579.0625,91.8438 L579.0625,94 L571.6719,94 L571.6719,91.8438 L574.1406,91.8438 L574.1406,83.7656 L571.6719,83.7656 Z "/><text fill="#000000" font-family="sans-serif" font-size="12" font-style="italic" lengthAdjust="spacingAndGlyphs" textLength="122" x="596.25" y="92.1543">DisplayGpsManager</text><line style="stroke: #A80036; stroke-width: 1.5;" x1="421.5" x2="860.5" y1="104" y2="104"/><line style="stroke: #A80036; stroke-width: 1.5;" x1="421.5" x2="860.5" y1="112" y2="112"/><ellipse cx="431.5" cy="139.8047" fill="#84BE84" rx="3" ry="3" style="stroke: #038048; stroke-width: 1.0;"/><text fill="#000000" font-family="sans-serif" font-size="11" font-style="italic" lengthAdjust="spacingAndGlyphs" textLength="318" x="440.5" y="143.0151">String receiveGpsSignalStrength(Satellite satelliteSignal)</text><line style="stroke: #A80036; stroke-width: 1.0; stroke-dasharray: 1.0,2.0;" x1="421.5" x2="608" y1="126.4023" y2="126.4023"/><text fill="#000000" font-family="sans-serif" font-size="11" lengthAdjust="spacingAndGlyphs" textLength="66" x="608" y="129.7104">Use Case 1</text><line style="stroke: #A80036; stroke-width: 1.0; stroke-dasharray: 1.0,2.0;" x1="674" x2="860.5" y1="126.4023" y2="126.4023"/><ellipse cx="431.5" cy="169.4141" fill="#84BE84" rx="3" ry="3" style="stroke: #038048; stroke-width: 1.0;"/><text fill="#000000" font-family="sans-serif" font-size="11" font-style="italic" lengthAdjust="spacingAndGlyphs" textLength="415" x="440.5" y="172.6245">SatelliteSignalCheckRequest passGpsSignalStrength(String satelliteName)</text><line style="stroke: #A80036; stroke-width: 1.0; stroke-dasharray: 1.0,2.0;" x1="421.5" x2="608" y1="156.0117" y2="156.0117"/><text fill="#000000" font-family="sans-serif" font-size="11" lengthAdjust="spacingAndGlyphs" textLength="66" x="608" y="159.3198">Use Case 2</text><line style="stroke: #A80036; stroke-width: 1.0; stroke-dasharray: 1.0,2.0;" x1="674" x2="860.5" y1="156.0117" y2="156.0117"/><!--MD5=[319273309e4c56bac150542a32321bb2]
class DisplayGpsReceiver--><rect fill="#FEFECE" filter="url(#fzfm2dedy74tf)" height="107.2188" id="DisplayGpsReceiver" style="stroke: #A80036; stroke-width: 1.5;" width="395" x="896.5" y="72"/><ellipse cx="1029.75" cy="88" fill="#B4A7E5" rx="11" ry="11" style="stroke: #A80036; stroke-width: 1.0;"/><path d="M1025.6719,83.7656 L1025.6719,81.6094 L1033.0625,81.6094 L1033.0625,83.7656 L1030.5938,83.7656 L1030.5938,91.8438 L1033.0625,91.8438 L1033.0625,94 L1025.6719,94 L1025.6719,91.8438 L1028.1406,91.8438 L1028.1406,83.7656 L1025.6719,83.7656 Z "/><text fill="#000000" font-family="sans-serif" font-size="12" font-style="italic" lengthAdjust="spacingAndGlyphs" textLength="120" x="1050.25" y="92.1543">DisplayGpsReceiver</text><line style="stroke: #A80036; stroke-width: 1.5;" x1="897.5" x2="1290.5" y1="104" y2="104"/><line style="stroke: #A80036; stroke-width: 1.5;" x1="897.5" x2="1290.5" y1="112" y2="112"/><ellipse cx="907.5" cy="139.8047" fill="#84BE84" rx="3" ry="3" style="stroke: #038048; stroke-width: 1.0;"/><text fill="#000000" font-family="sans-serif" font-size="11" font-style="italic" lengthAdjust="spacingAndGlyphs" textLength="326" x="916.5" y="143.0151">String measureGpsSignalStrength(Satellite satelliteSignal)</text><line style="stroke: #A80036; stroke-width: 1.0; stroke-dasharray: 1.0,2.0;" x1="897.5" x2="1061" y1="126.4023" y2="126.4023"/><text fill="#000000" font-family="sans-serif" font-size="11" lengthAdjust="spacingAndGlyphs" textLength="66" x="1061" y="129.7104">Use Case 1</text><line style="stroke: #A80036; stroke-width: 1.0; stroke-dasharray: 1.0,2.0;" x1="1127" x2="1290.5" y1="126.4023" y2="126.4023"/><ellipse cx="907.5" cy="169.4141" fill="#84BE84" rx="3" ry="3" style="stroke: #038048; stroke-width: 1.0;"/><text fill="#000000" font-family="sans-serif" font-size="11" font-style="italic" lengthAdjust="spacingAndGlyphs" textLength="369" x="916.5" y="172.6245">SatelliteSignalCheckRequest measureSignal(String satelliteName)</text><line style="stroke: #A80036; stroke-width: 1.0; stroke-dasharray: 1.0,2.0;" x1="897.5" x2="1061" y1="156.0117" y2="156.0117"/><text fill="#000000" font-family="sans-serif" font-size="11" lengthAdjust="spacingAndGlyphs" textLength="66" x="1061" y="159.3198">Use Case 2</text><line style="stroke: #A80036; stroke-width: 1.0; stroke-dasharray: 1.0,2.0;" x1="1127" x2="1290.5" y1="156.0117" y2="156.0117"/><!--MD5=[6376794c08ca75f6fa530286e1e32b13]
class DisplayGpsInterfaceImplementation--><rect fill="#FEFECE" filter="url(#fzfm2dedy74tf)" height="171.2422" id="DisplayGpsInterfaceImplementation" style="stroke: #A80036; stroke-width: 1.5;" width="398" x="38" y="286.5"/><ellipse cx="122.25" cy="302.5" fill="#ADD1B2" rx="11" ry="11" style="stroke: #A80036; stroke-width: 1.0;"/><path d="M125.2188,308.1406 Q124.6406,308.4375 124,308.5781 Q123.3594,308.7344 122.6563,308.7344 Q120.1563,308.7344 118.8281,307.0938 Q117.5156,305.4375 117.5156,302.3125 Q117.5156,299.1875 118.8281,297.5313 Q120.1563,295.875 122.6563,295.875 Q123.3594,295.875 124,296.0313 Q124.6563,296.1875 125.2188,296.4844 L125.2188,299.2031 Q124.5938,298.625 124,298.3594 Q123.4063,298.0781 122.7813,298.0781 Q121.4375,298.0781 120.75,299.1563 Q120.0625,300.2188 120.0625,302.3125 Q120.0625,304.4063 120.75,305.4844 Q121.4375,306.5469 122.7813,306.5469 Q123.4063,306.5469 124,306.2813 Q124.5938,306 125.2188,305.4219 L125.2188,308.1406 Z "/><text fill="#000000" font-family="sans-serif" font-size="12" lengthAdjust="spacingAndGlyphs" textLength="221" x="142.75" y="306.6543">DisplayGpsInterfaceImplementation</text><line style="stroke: #A80036; stroke-width: 1.5;" x1="39" x2="435" y1="318.5" y2="318.5"/><rect fill="none" height="6" style="stroke: #C82930; stroke-width: 1.0;" width="6" x="46" y="326.5"/><text fill="#000000" font-family="sans-serif" font-size="11" lengthAdjust="spacingAndGlyphs" textLength="162" x="58" y="332.7104">DisplayGpsReciever reciever</text><line style="stroke: #A80036; stroke-width: 1.5;" x1="39" x2="435" y1="339.3047" y2="339.3047"/><ellipse cx="49" cy="350.3047" fill="#84BE84" rx="3" ry="3" style="stroke: #038048; stroke-width: 1.0;"/><text fill="#000000" font-family="sans-serif" font-size="11" lengthAdjust="spacingAndGlyphs" textLength="372" x="58" y="353.5151">DisplayGpsInterfaceImplementation(DisplayGpsReciever reciever)</text><ellipse cx="49" cy="379.9141" fill="#84BE84" rx="3" ry="3" style="stroke: #038048; stroke-width: 1.0;"/><text fill="#000000" font-family="sans-serif" font-size="11" lengthAdjust="spacingAndGlyphs" textLength="264" x="58" y="383.1245">void receiveGpsSignal(Satellite satelliteSignal)</text><line style="stroke: #A80036; stroke-width: 1.0; stroke-dasharray: 1.0,2.0;" x1="39" x2="204" y1="366.5117" y2="366.5117"/><text fill="#000000" font-family="sans-serif" font-size="11" lengthAdjust="spacingAndGlyphs" textLength="66" x="204" y="369.8198">Use Case 1</text><line style="stroke: #A80036; stroke-width: 1.0; stroke-dasharray: 1.0,2.0;" x1="270" x2="435" y1="366.5117" y2="366.5117"/><ellipse cx="49" cy="409.5234" fill="#84BE84" rx="3" ry="3" style="stroke: #038048; stroke-width: 1.0;"/><text fill="#000000" font-family="sans-serif" font-size="11" lengthAdjust="spacingAndGlyphs" textLength="271" x="58" y="412.7339">void reportGpsSignalLoss(String satelliteName)</text><ellipse cx="49" cy="422.3281" fill="#84BE84" rx="3" ry="3" style="stroke: #038048; stroke-width: 1.0;"/><text fill="#000000" font-family="sans-serif" font-size="11" lengthAdjust="spacingAndGlyphs" textLength="274" x="58" y="425.5386">void recheckSignalStength(String satelliteName)</text><ellipse cx="49" cy="435.1328" fill="#84BE84" rx="3" ry="3" style="stroke: #038048; stroke-width: 1.0;"/><text fill="#000000" font-family="sans-serif" font-size="11" lengthAdjust="spacingAndGlyphs" textLength="262" x="58" y="438.3433">void checkSignalStength(String satelliteName)</text><rect fill="#F24D5C" height="6" style="stroke: #C82930; stroke-width: 1.0;" width="6" x="46" y="444.9375"/><text fill="#000000" font-family="sans-serif" font-size="11" lengthAdjust="spacingAndGlyphs" textLength="261" x="58" y="451.1479">int reportSignalStrength(String satelliteName)</text><line style="stroke: #A80036; stroke-width: 1.0; stroke-dasharray: 1.0,2.0;" x1="39" x2="204" y1="396.1211" y2="396.1211"/><text fill="#000000" font-family="sans-serif" font-size="11" lengthAdjust="spacingAndGlyphs" textLength="66" x="204" y="399.4292">Use Case 2</text><line style="stroke: #A80036; stroke-width: 1.0; stroke-dasharray: 1.0,2.0;" x1="270" x2="435" y1="396.1211" y2="396.1211"/><!--MD5=[85db0a5b69c4b55d7b0101612d8a7890]
class DisplayGpsManagerImplementation--><rect fill="#FEFECE" filter="url(#fzfm2dedy74tf)" height="171.2422" id="DisplayGpsManagerImplementation" style="stroke: #A80036; stroke-width: 1.5;" width="450" x="471" y="286.5"/><ellipse cx="581.75" cy="302.5" fill="#ADD1B2" rx="11" ry="11" style="stroke: #A80036; stroke-width: 1.0;"/><path d="M584.7188,308.1406 Q584.1406,308.4375 583.5,308.5781 Q582.8594,308.7344 582.1563,308.7344 Q579.6563,308.7344 578.3281,307.0938 Q577.0156,305.4375 577.0156,302.3125 Q577.0156,299.1875 578.3281,297.5313 Q579.6563,295.875 582.1563,295.875 Q582.8594,295.875 583.5,296.0313 Q584.1563,296.1875 584.7188,296.4844 L584.7188,299.2031 Q584.0938,298.625 583.5,298.3594 Q582.9063,298.0781 582.2813,298.0781 Q580.9375,298.0781 580.25,299.1563 Q579.5625,300.2188 579.5625,302.3125 Q579.5625,304.4063 580.25,305.4844 Q580.9375,306.5469 582.2813,306.5469 Q582.9063,306.5469 583.5,306.2813 Q584.0938,306 584.7188,305.4219 L584.7188,308.1406 Z "/><text fill="#000000" font-family="sans-serif" font-size="12" lengthAdjust="spacingAndGlyphs" textLength="220" x="602.25" y="306.6543">DisplayGpsManagerImplementation</text><line style="stroke: #A80036; stroke-width: 1.5;" x1="472" x2="920" y1="318.5" y2="318.5"/><rect fill="none" height="6" style="stroke: #C82930; stroke-width: 1.0;" width="6" x="479" y="326.5"/><text fill="#000000" font-family="sans-serif" font-size="11" lengthAdjust="spacingAndGlyphs" textLength="222" x="491" y="332.7104">MiddlewareGisInterface middlewareGis</text><line style="stroke: #A80036; stroke-width: 1.5;" x1="472" x2="920" y1="339.3047" y2="339.3047"/><ellipse cx="482" cy="350.3047" fill="#84BE84" rx="3" ry="3" style="stroke: #038048; stroke-width: 1.0;"/><text fill="#000000" font-family="sans-serif" font-size="11" lengthAdjust="spacingAndGlyphs" textLength="377" x="491" y="353.5151">DisplayGpsManagerImplementation(DisplayGpsManager manager)</text><ellipse cx="482" cy="379.9141" fill="#84BE84" rx="3" ry="3" style="stroke: #038048; stroke-width: 1.0;"/><text fill="#000000" font-family="sans-serif" font-size="11" lengthAdjust="spacingAndGlyphs" textLength="324" x="491" y="383.1245">String receiveGpsSignalStrength(Satellite satelliteSignal)</text><ellipse cx="482" cy="392.7188" fill="#84BE84" rx="3" ry="3" style="stroke: #038048; stroke-width: 1.0;"/><text fill="#000000" font-family="sans-serif" font-size="11" lengthAdjust="spacingAndGlyphs" textLength="316" x="491" y="395.9292">boolean EvaluateGpsSignalStrengths(int signalStrengh)</text><ellipse cx="482" cy="405.5234" fill="#84BE84" rx="3" ry="3" style="stroke: #038048; stroke-width: 1.0;"/><text fill="#000000" font-family="sans-serif" font-size="11" lengthAdjust="spacingAndGlyphs" textLength="271" x="491" y="408.7339">void passGpsSignalStrength(int signalStrength)</text><line style="stroke: #A80036; stroke-width: 1.0; stroke-dasharray: 1.0,2.0;" x1="472" x2="663" y1="366.5117" y2="366.5117"/><text fill="#000000" font-family="sans-serif" font-size="11" lengthAdjust="spacingAndGlyphs" textLength="66" x="663" y="369.8198">Use Case 1</text><line style="stroke: #A80036; stroke-width: 1.0; stroke-dasharray: 1.0,2.0;" x1="729" x2="920" y1="366.5117" y2="366.5117"/><ellipse cx="482" cy="435.1328" fill="#84BE84" rx="3" ry="3" style="stroke: #038048; stroke-width: 1.0;"/><text fill="#000000" font-family="sans-serif" font-size="11" lengthAdjust="spacingAndGlyphs" textLength="278" x="491" y="438.3433">String receiveGpsSignalStrength(Satellite signal)</text><ellipse cx="482" cy="447.9375" fill="#84BE84" rx="3" ry="3" style="stroke: #038048; stroke-width: 1.0;"/><text fill="#000000" font-family="sans-serif" font-size="11" lengthAdjust="spacingAndGlyphs" textLength="424" x="491" y="451.1479">SatelliteSignalCheckRequest passGpsSignalStrength(String satelliteName)</text><line style="stroke: #A80036; stroke-width: 1.0; stroke-dasharray: 1.0,2.0;" x1="472" x2="663" y1="421.7305" y2="421.7305"/><text fill="#000000" font-family="sans-serif" font-size="11" lengthAdjust="spacingAndGlyphs" textLength="66" x="663" y="425.0386">Use Case 2</text><line style="stroke: #A80036; stroke-width: 1.0; stroke-dasharray: 1.0,2.0;" x1="729" x2="920" y1="421.7305" y2="421.7305"/><!--MD5=[02b25ee3f711f666678619f4b81f3681]
class DisplayGpsReceiverImplementation--><rect fill="#FEFECE" filter="url(#fzfm2dedy74tf)" height="240.0703" id="DisplayGpsReceiverImplementation" style="stroke: #A80036; stroke-width: 1.5;" width="401" x="956.5" y="252"/><ellipse cx="1043.75" cy="268" fill="#ADD1B2" rx="11" ry="11" style="stroke: #A80036; stroke-width: 1.0;"/><path d="M1046.7188,273.6406 Q1046.1406,273.9375 1045.5,274.0781 Q1044.8594,274.2344 1044.1563,274.2344 Q1041.6563,274.2344 1040.3281,272.5938 Q1039.0156,270.9375 1039.0156,267.8125 Q1039.0156,264.6875 1040.3281,263.0313 Q1041.6563,261.375 1044.1563,261.375 Q1044.8594,261.375 1045.5,261.5313 Q1046.1563,261.6875 1046.7188,261.9844 L1046.7188,264.7031 Q1046.0938,264.125 1045.5,263.8594 Q1044.9063,263.5781 1044.2813,263.5781 Q1042.9375,263.5781 1042.25,264.6563 Q1041.5625,265.7188 1041.5625,267.8125 Q1041.5625,269.9063 1042.25,270.9844 Q1042.9375,272.0469 1044.2813,272.0469 Q1044.9063,272.0469 1045.5,271.7813 Q1046.0938,271.5 1046.7188,270.9219 L1046.7188,273.6406 Z "/><text fill="#000000" font-family="sans-serif" font-size="12" lengthAdjust="spacingAndGlyphs" textLength="218" x="1064.25" y="272.1543">DisplayGpsReceiverImplementation</text><line style="stroke: #A80036; stroke-width: 1.5;" x1="957.5" x2="1356.5" y1="284" y2="284"/><text fill="#000000" font-family="sans-serif" font-size="11" lengthAdjust="spacingAndGlyphs" textLength="0" x="966.5" y="298.2104"/><text fill="#000000" font-family="sans-serif" font-size="11" lengthAdjust="spacingAndGlyphs" textLength="168" x="962.5" y="311.0151">DisplayGpsManager manager</text><text fill="#000000" font-family="sans-serif" font-size="11" lengthAdjust="spacingAndGlyphs" textLength="0" x="966.5" y="323.8198"/><text fill="#000000" font-family="sans-serif" font-size="11" lengthAdjust="spacingAndGlyphs" textLength="0" x="980.5" y="353.4292"/><ellipse cx="967.5" cy="363.0234" fill="#84BE84" rx="3" ry="3" style="stroke: #038048; stroke-width: 1.0;"/><text fill="#000000" font-family="sans-serif" font-size="11" lengthAdjust="spacingAndGlyphs" textLength="334" x="976.5" y="366.2339">String measureGpsSignalStrength(Satellite satelliteSignal)</text><text fill="#000000" font-family="sans-serif" font-size="11" lengthAdjust="spacingAndGlyphs" textLength="0" x="980.5" y="379.0386"/><rect fill="#F24D5C" height="6" style="stroke: #C82930; stroke-width: 1.0;" width="6" x="964.5" y="385.6328"/><text fill="#000000" font-family="sans-serif" font-size="11" lengthAdjust="spacingAndGlyphs" textLength="248" x="976.5" y="391.8433">void passSignalStrength(int signalStrength)</text><text fill="#000000" font-family="sans-serif" font-size="11" lengthAdjust="spacingAndGlyphs" textLength="0" x="980.5" y="404.6479"/><line style="stroke: #A80036; stroke-width: 1.0; stroke-dasharray: 1.0,2.0;" x1="957.5" x2="1124" y1="336.8164" y2="336.8164"/><text fill="#000000" font-family="sans-serif" font-size="11" lengthAdjust="spacingAndGlyphs" textLength="66" x="1124" y="340.1245">Use Case 1</text><line style="stroke: #A80036; stroke-width: 1.0; stroke-dasharray: 1.0,2.0;" x1="1190" x2="1356.5" y1="336.8164" y2="336.8164"/><text fill="#000000" font-family="sans-serif" font-size="11" lengthAdjust="spacingAndGlyphs" textLength="0" x="980.5" y="434.2573"/><ellipse cx="967.5" cy="443.8516" fill="#84BE84" rx="3" ry="3" style="stroke: #038048; stroke-width: 1.0;"/><text fill="#000000" font-family="sans-serif" font-size="11" lengthAdjust="spacingAndGlyphs" textLength="334" x="976.5" y="447.062">String measureGpsSignalStrength(Satellite satelliteSignal)</text><text fill="#000000" font-family="sans-serif" font-size="11" lengthAdjust="spacingAndGlyphs" textLength="0" x="980.5" y="459.8667"/><ellipse cx="967.5" cy="469.4609" fill="#84BE84" rx="3" ry="3" style="stroke: #038048; stroke-width: 1.0;"/><text fill="#000000" font-family="sans-serif" font-size="11" lengthAdjust="spacingAndGlyphs" textLength="375" x="976.5" y="472.6714">SatelliteSignalCheckRequest measureSignal(String satelliteName)</text><text fill="#000000" font-family="sans-serif" font-size="11" lengthAdjust="spacingAndGlyphs" textLength="0" x="980.5" y="485.4761"/><line style="stroke: #A80036; stroke-width: 1.0; stroke-dasharray: 1.0,2.0;" x1="957.5" x2="1124" y1="417.6445" y2="417.6445"/><text fill="#000000" font-family="sans-serif" font-size="11" lengthAdjust="spacingAndGlyphs" textLength="66" x="1124" y="420.9526">Use Case 2</text><line style="stroke: #A80036; stroke-width: 1.0; stroke-dasharray: 1.0,2.0;" x1="1190" x2="1356.5" y1="417.6445" y2="417.6445"/><!--MD5=[31ac70925a3cf930ecc7428c11a6bdde]
class DisplayGpsInterfaceImplementationTests--><rect fill="#FEFECE" filter="url(#fzfm2dedy74tf)" height="48" id="DisplayGpsInterfaceImplementationTests" style="stroke: #A80036; stroke-width: 1.5;" width="287" x="1413.5" y="101.5"/><ellipse cx="1428.5" cy="117.5" fill="#ADD1B2" rx="11" ry="11" style="stroke: #A80036; stroke-width: 1.0;"/><path d="M1431.4688,123.1406 Q1430.8906,123.4375 1430.25,123.5781 Q1429.6094,123.7344 1428.9063,123.7344 Q1426.4063,123.7344 1425.0781,122.0938 Q1423.7656,120.4375 1423.7656,117.3125 Q1423.7656,114.1875 1425.0781,112.5313 Q1426.4063,110.875 1428.9063,110.875 Q1429.6094,110.875 1430.25,111.0313 Q1430.9063,111.1875 1431.4688,111.4844 L1431.4688,114.2031 Q1430.8438,113.625 1430.25,113.3594 Q1429.6563,113.0781 1429.0313,113.0781 Q1427.6875,113.0781 1427,114.1563 Q1426.3125,115.2188 1426.3125,117.3125 Q1426.3125,119.4063 1427,120.4844 Q1427.6875,121.5469 1429.0313,121.5469 Q1429.6563,121.5469 1430.25,121.2813 Q1430.8438,121 1431.4688,120.4219 L1431.4688,123.1406 Z "/><text fill="#000000" font-family="sans-serif" font-size="12" lengthAdjust="spacingAndGlyphs" textLength="255" x="1442.5" y="121.6543">DisplayGpsInterfaceImplementationTests</text><line style="stroke: #A80036; stroke-width: 1.5;" x1="1414.5" x2="1699.5" y1="133.5" y2="133.5"/><line style="stroke: #A80036; stroke-width: 1.5;" x1="1414.5" x2="1699.5" y1="141.5" y2="141.5"/><!--MD5=[b5e9506f01c5d0dda59c0c34003c249d]
class DisplayGpsManagerImplementationTests--><rect fill="#FEFECE" filter="url(#fzfm2dedy74tf)" height="48" id="DisplayGpsManagerImplementationTests" style="stroke: #A80036; stroke-width: 1.5;" width="286" x="1736" y="101.5"/><ellipse cx="1751" cy="117.5" fill="#ADD1B2" rx="11" ry="11" style="stroke: #A80036; stroke-width: 1.0;"/><path d="M1753.9688,123.1406 Q1753.3906,123.4375 1752.75,123.5781 Q1752.1094,123.7344 1751.4063,123.7344 Q1748.9063,123.7344 1747.5781,122.0938 Q1746.2656,120.4375 1746.2656,117.3125 Q1746.2656,114.1875 1747.5781,112.5313 Q1748.9063,110.875 1751.4063,110.875 Q1752.1094,110.875 1752.75,111.0313 Q1753.4063,111.1875 1753.9688,111.4844 L1753.9688,114.2031 Q1753.3438,113.625 1752.75,113.3594 Q1752.1563,113.0781 1751.5313,113.0781 Q1750.1875,113.0781 1749.5,114.1563 Q1748.8125,115.2188 1748.8125,117.3125 Q1748.8125,119.4063 1749.5,120.4844 Q1750.1875,121.5469 1751.5313,121.5469 Q1752.1563,121.5469 1752.75,121.2813 Q1753.3438,121 1753.9688,120.4219 L1753.9688,123.1406 Z "/><text fill="#000000" font-family="sans-serif" font-size="12" lengthAdjust="spacingAndGlyphs" textLength="254" x="1765" y="121.6543">DisplayGpsManagerImplementationTests</text><line style="stroke: #A80036; stroke-width: 1.5;" x1="1737" x2="2021" y1="133.5" y2="133.5"/><line style="stroke: #A80036; stroke-width: 1.5;" x1="1737" x2="2021" y1="141.5" y2="141.5"/><!--MD5=[933cdd11260ca9cf411a4933e66b6f57]
class DisplayGpsReceiverImplementationTests--><rect fill="#FEFECE" filter="url(#fzfm2dedy74tf)" height="48" id="DisplayGpsReceiverImplementationTests" style="stroke: #A80036; stroke-width: 1.5;" width="284" x="2057" y="101.5"/><ellipse cx="2072" cy="117.5" fill="#ADD1B2" rx="11" ry="11" style="stroke: #A80036; stroke-width: 1.0;"/><path d="M2074.9688,123.1406 Q2074.3906,123.4375 2073.75,123.5781 Q2073.1094,123.7344 2072.4063,123.7344 Q2069.9063,123.7344 2068.5781,122.0938 Q2067.2656,120.4375 2067.2656,117.3125 Q2067.2656,114.1875 2068.5781,112.5313 Q2069.9063,110.875 2072.4063,110.875 Q2073.1094,110.875 2073.75,111.0313 Q2074.4063,111.1875 2074.9688,111.4844 L2074.9688,114.2031 Q2074.3438,113.625 2073.75,113.3594 Q2073.1563,113.0781 2072.5313,113.0781 Q2071.1875,113.0781 2070.5,114.1563 Q2069.8125,115.2188 2069.8125,117.3125 Q2069.8125,119.4063 2070.5,120.4844 Q2071.1875,121.5469 2072.5313,121.5469 Q2073.1563,121.5469 2073.75,121.2813 Q2074.3438,121 2074.9688,120.4219 L2074.9688,123.1406 Z "/><text fill="#000000" font-family="sans-serif" font-size="12" lengthAdjust="spacingAndGlyphs" textLength="252" x="2086" y="121.6543">DisplayGpsReceiverImplementationTests</text><line style="stroke: #A80036; stroke-width: 1.5;" x1="2058" x2="2340" y1="133.5" y2="133.5"/><line style="stroke: #A80036; stroke-width: 1.5;" x1="2058" x2="2340" y1="141.5" y2="141.5"/><!--MD5=[9d578318e58e71edcf98403314a477bf]
class SatelliteSignalCheckRequestTests--><rect fill="#FEFECE" filter="url(#fzfm2dedy74tf)" height="48" id="SatelliteSignalCheckRequestTests" style="stroke: #A80036; stroke-width: 1.5;" width="245" x="1413.5" y="348"/><ellipse cx="1428.5" cy="364" fill="#ADD1B2" rx="11" ry="11" style="stroke: #A80036; stroke-width: 1.0;"/><path d="M1431.4688,369.6406 Q1430.8906,369.9375 1430.25,370.0781 Q1429.6094,370.2344 1428.9063,370.2344 Q1426.4063,370.2344 1425.0781,368.5938 Q1423.7656,366.9375 1423.7656,363.8125 Q1423.7656,360.6875 1425.0781,359.0313 Q1426.4063,357.375 1428.9063,357.375 Q1429.6094,357.375 1430.25,357.5313 Q1430.9063,357.6875 1431.4688,357.9844 L1431.4688,360.7031 Q1430.8438,360.125 1430.25,359.8594 Q1429.6563,359.5781 1429.0313,359.5781 Q1427.6875,359.5781 1427,360.6563 Q1426.3125,361.7188 1426.3125,363.8125 Q1426.3125,365.9063 1427,366.9844 Q1427.6875,368.0469 1429.0313,368.0469 Q1429.6563,368.0469 1430.25,367.7813 Q1430.8438,367.5 1431.4688,366.9219 L1431.4688,369.6406 Z "/><text fill="#000000" font-family="sans-serif" font-size="12" lengthAdjust="spacingAndGlyphs" textLength="213" x="1442.5" y="368.1543">SatelliteSignalCheckRequestTests</text><line style="stroke: #A80036; stroke-width: 1.5;" x1="1414.5" x2="1657.5" y1="380" y2="380"/><line style="stroke: #A80036; stroke-width: 1.5;" x1="1414.5" x2="1657.5" y1="388" y2="388"/><!--MD5=[6057d86884460ab216cb89f03a202a5c]
class DisplayGpsManagerStub--><rect fill="#FEFECE" filter="url(#fzfm2dedy74tf)" height="107.2188" id="DisplayGpsManagerStub" style="stroke: #A80036; stroke-width: 1.5;" width="450" x="1694" y="318.5"/><ellipse cx="1838.75" cy="334.5" fill="#ADD1B2" rx="11" ry="11" style="stroke: #A80036; stroke-width: 1.0;"/><path d="M1841.7188,340.1406 Q1841.1406,340.4375 1840.5,340.5781 Q1839.8594,340.7344 1839.1563,340.7344 Q1836.6563,340.7344 1835.3281,339.0938 Q1834.0156,337.4375 1834.0156,334.3125 Q1834.0156,331.1875 1835.3281,329.5313 Q1836.6563,327.875 1839.1563,327.875 Q1839.8594,327.875 1840.5,328.0313 Q1841.1563,328.1875 1841.7188,328.4844 L1841.7188,331.2031 Q1841.0938,330.625 1840.5,330.3594 Q1839.9063,330.0781 1839.2813,330.0781 Q1837.9375,330.0781 1837.25,331.1563 Q1836.5625,332.2188 1836.5625,334.3125 Q1836.5625,336.4063 1837.25,337.4844 Q1837.9375,338.5469 1839.2813,338.5469 Q1839.9063,338.5469 1840.5,338.2813 Q1841.0938,338 1841.7188,337.4219 L1841.7188,340.1406 Z "/><text fill="#000000" font-family="sans-serif" font-size="12" lengthAdjust="spacingAndGlyphs" textLength="152" x="1859.25" y="338.6543">DisplayGpsManagerStub</text><line style="stroke: #A80036; stroke-width: 1.5;" x1="1695" x2="2143" y1="350.5" y2="350.5"/><line style="stroke: #A80036; stroke-width: 1.5;" x1="1695" x2="2143" y1="358.5" y2="358.5"/><ellipse cx="1705" cy="386.3047" fill="#84BE84" rx="3" ry="3" style="stroke: #038048; stroke-width: 1.0;"/><text fill="#000000" font-family="sans-serif" font-size="11" lengthAdjust="spacingAndGlyphs" textLength="331" x="1714" y="389.5151">String receiveGpsSignalStrengths(Satellite satelliteSignal)</text><line style="stroke: #A80036; stroke-width: 1.0; stroke-dasharray: 1.0,2.0;" x1="1695" x2="1886" y1="372.9023" y2="372.9023"/><text fill="#000000" font-family="sans-serif" font-size="11" lengthAdjust="spacingAndGlyphs" textLength="66" x="1886" y="376.2104">Use Case 1</text><line style="stroke: #A80036; stroke-width: 1.0; stroke-dasharray: 1.0,2.0;" x1="1952" x2="2143" y1="372.9023" y2="372.9023"/><ellipse cx="1705" cy="415.9141" fill="#84BE84" rx="3" ry="3" style="stroke: #038048; stroke-width: 1.0;"/><text fill="#000000" font-family="sans-serif" font-size="11" lengthAdjust="spacingAndGlyphs" textLength="424" x="1714" y="419.1245">SatelliteSignalCheckRequest passGpsSignalStrength(String satelliteName)</text><line style="stroke: #A80036; stroke-width: 1.0; stroke-dasharray: 1.0,2.0;" x1="1695" x2="1886" y1="402.5117" y2="402.5117"/><text fill="#000000" font-family="sans-serif" font-size="11" lengthAdjust="spacingAndGlyphs" textLength="66" x="1886" y="405.8198">Use Case 2</text><line style="stroke: #A80036; stroke-width: 1.0; stroke-dasharray: 1.0,2.0;" x1="1952" x2="2143" y1="402.5117" y2="402.5117"/><!--MD5=[0af74227177caadb6af436c979172233]
class DisplayGpsReceiverStub--><rect fill="#FEFECE" filter="url(#fzfm2dedy74tf)" height="107.2188" id="DisplayGpsReceiverStub" style="stroke: #A80036; stroke-width: 1.5;" width="401" x="2179.5" y="318.5"/><ellipse cx="2300.75" cy="334.5" fill="#ADD1B2" rx="11" ry="11" style="stroke: #A80036; stroke-width: 1.0;"/><path d="M2303.7188,340.1406 Q2303.1406,340.4375 2302.5,340.5781 Q2301.8594,340.7344 2301.1563,340.7344 Q2298.6563,340.7344 2297.3281,339.0938 Q2296.0156,337.4375 2296.0156,334.3125 Q2296.0156,331.1875 2297.3281,329.5313 Q2298.6563,327.875 2301.1563,327.875 Q2301.8594,327.875 2302.5,328.0313 Q2303.1563,328.1875 2303.7188,328.4844 L2303.7188,331.2031 Q2303.0938,330.625 2302.5,330.3594 Q2301.9063,330.0781 2301.2813,330.0781 Q2299.9375,330.0781 2299.25,331.1563 Q2298.5625,332.2188 2298.5625,334.3125 Q2298.5625,336.4063 2299.25,337.4844 Q2299.9375,338.5469 2301.2813,338.5469 Q2301.9063,338.5469 2302.5,338.2813 Q2303.0938,338 2303.7188,337.4219 L2303.7188,340.1406 Z "/><text fill="#000000" font-family="sans-serif" font-size="12" lengthAdjust="spacingAndGlyphs" textLength="150" x="2321.25" y="338.6543">DisplayGpsReceiverStub</text><line style="stroke: #A80036; stroke-width: 1.5;" x1="2180.5" x2="2579.5" y1="350.5" y2="350.5"/><line style="stroke: #A80036; stroke-width: 1.5;" x1="2180.5" x2="2579.5" y1="358.5" y2="358.5"/><ellipse cx="2190.5" cy="386.3047" fill="#84BE84" rx="3" ry="3" style="stroke: #038048; stroke-width: 1.0;"/><text fill="#000000" font-family="sans-serif" font-size="11" lengthAdjust="spacingAndGlyphs" textLength="334" x="2199.5" y="389.5151">String measureGpsSignalStrength(Satellite satelliteSignal)</text><line style="stroke: #A80036; stroke-width: 1.0; stroke-dasharray: 1.0,2.0;" x1="2180.5" x2="2347" y1="372.9023" y2="372.9023"/><text fill="#000000" font-family="sans-serif" font-size="11" lengthAdjust="spacingAndGlyphs" textLength="66" x="2347" y="376.2104">Use Case 1</text><line style="stroke: #A80036; stroke-width: 1.0; stroke-dasharray: 1.0,2.0;" x1="2413" x2="2579.5" y1="372.9023" y2="372.9023"/><ellipse cx="2190.5" cy="415.9141" fill="#84BE84" rx="3" ry="3" style="stroke: #038048; stroke-width: 1.0;"/><text fill="#000000" font-family="sans-serif" font-size="11" lengthAdjust="spacingAndGlyphs" textLength="375" x="2199.5" y="419.1245">SatelliteSignalCheckRequest measureSignal(String satelliteName)</text><line style="stroke: #A80036; stroke-width: 1.0; stroke-dasharray: 1.0,2.0;" x1="2180.5" x2="2347" y1="402.5117" y2="402.5117"/><text fill="#000000" font-family="sans-serif" font-size="11" lengthAdjust="spacingAndGlyphs" textLength="66" x="2347" y="405.8198">Use Case 2</text><line style="stroke: #A80036; stroke-width: 1.0; stroke-dasharray: 1.0,2.0;" x1="2413" x2="2579.5" y1="402.5117" y2="402.5117"/><!--MD5=[80c749bdd7ec7c789b994dbe93702fd9]
class MiddlewareGisInterfaceStub--><rect fill="#FEFECE" filter="url(#fzfm2dedy74tf)" height="107.2188" id="MiddlewareGisInterfaceStub" style="stroke: #A80036; stroke-width: 1.5;" width="350" x="1413" y="552"/><ellipse cx="1496.75" cy="568" fill="#ADD1B2" rx="11" ry="11" style="stroke: #A80036; stroke-width: 1.0;"/><path d="M1499.7188,573.6406 Q1499.1406,573.9375 1498.5,574.0781 Q1497.8594,574.2344 1497.1563,574.2344 Q1494.6563,574.2344 1493.3281,572.5938 Q1492.0156,570.9375 1492.0156,567.8125 Q1492.0156,564.6875 1493.3281,563.0313 Q1494.6563,561.375 1497.1563,561.375 Q1497.8594,561.375 1498.5,561.5313 Q1499.1563,561.6875 1499.7188,561.9844 L1499.7188,564.7031 Q1499.0938,564.125 1498.5,563.8594 Q1497.9063,563.5781 1497.2813,563.5781 Q1495.9375,563.5781 1495.25,564.6563 Q1494.5625,565.7188 1494.5625,567.8125 Q1494.5625,569.9063 1495.25,570.9844 Q1495.9375,572.0469 1497.2813,572.0469 Q1497.9063,572.0469 1498.5,571.7813 Q1499.0938,571.5 1499.7188,570.9219 L1499.7188,573.6406 Z "/><text fill="#000000" font-family="sans-serif" font-size="12" lengthAdjust="spacingAndGlyphs" textLength="174" x="1517.25" y="572.1543">MiddlewareGisInterfaceStub</text><line style="stroke: #A80036; stroke-width: 1.5;" x1="1414" x2="1762" y1="584" y2="584"/><line style="stroke: #A80036; stroke-width: 1.5;" x1="1414" x2="1762" y1="592" y2="592"/><ellipse cx="1424" cy="619.8047" fill="#84BE84" rx="3" ry="3" style="stroke: #038048; stroke-width: 1.0;"/><text fill="#000000" font-family="sans-serif" font-size="11" lengthAdjust="spacingAndGlyphs" textLength="324" x="1433" y="623.0151">String receiveGpsSignalStrength(Satellite satelliteSignal)</text><line style="stroke: #A80036; stroke-width: 1.0; stroke-dasharray: 1.0,2.0;" x1="1414" x2="1555" y1="606.4023" y2="606.4023"/><text fill="#000000" font-family="sans-serif" font-size="11" lengthAdjust="spacingAndGlyphs" textLength="66" x="1555" y="609.7104">Use Case 1</text><line style="stroke: #A80036; stroke-width: 1.0; stroke-dasharray: 1.0,2.0;" x1="1621" x2="1762" y1="606.4023" y2="606.4023"/><ellipse cx="1424" cy="649.4141" fill="#84BE84" rx="3" ry="3" style="stroke: #038048; stroke-width: 1.0;"/><text fill="#000000" font-family="sans-serif" font-size="11" lengthAdjust="spacingAndGlyphs" textLength="324" x="1433" y="652.6245">String receiveGpsSignalStrength(Satellite satelliteSignal)</text><line style="stroke: #A80036; stroke-width: 1.0; stroke-dasharray: 1.0,2.0;" x1="1414" x2="1555" y1="636.0117" y2="636.0117"/><text fill="#000000" font-family="sans-serif" font-size="11" lengthAdjust="spacingAndGlyphs" textLength="66" x="1555" y="639.3198">Use Case 2</text><line style="stroke: #A80036; stroke-width: 1.0; stroke-dasharray: 1.0,2.0;" x1="1621" x2="1762" y1="636.0117" y2="636.0117"/><!--MD5=[b7db7f9e4ca1b2f55d32a1a48f9dd068]
class SatelliteSignalCheckRequest--><rect fill="#FEFECE" filter="url(#fzfm2dedy74tf)" height="112.0234" id="SatelliteSignalCheckRequest" style="stroke: #A80036; stroke-width: 1.5;" width="416" x="2636" y="69.5"/><ellipse cx="2750.25" cy="85.5" fill="#ADD1B2" rx="11" ry="11" style="stroke: #A80036; stroke-width: 1.0;"/><path d="M2753.2188,91.1406 Q2752.6406,91.4375 2752,91.5781 Q2751.3594,91.7344 2750.6563,91.7344 Q2748.1563,91.7344 2746.8281,90.0938 Q2745.5156,88.4375 2745.5156,85.3125 Q2745.5156,82.1875 2746.8281,80.5313 Q2748.1563,78.875 2750.6563,78.875 Q2751.3594,78.875 2752,79.0313 Q2752.6563,79.1875 2753.2188,79.4844 L2753.2188,82.2031 Q2752.5938,81.625 2752,81.3594 Q2751.4063,81.0781 2750.7813,81.0781 Q2749.4375,81.0781 2748.75,82.1563 Q2748.0625,83.2188 2748.0625,85.3125 Q2748.0625,87.4063 2748.75,88.4844 Q2749.4375,89.5469 2750.7813,89.5469 Q2751.4063,89.5469 2752,89.2813 Q2752.5938,89 2753.2188,88.4219 L2753.2188,91.1406 Z "/><text fill="#000000" font-family="sans-serif" font-size="12" lengthAdjust="spacingAndGlyphs" textLength="179" x="2770.75" y="89.6543">SatelliteSignalCheckRequest</text><line style="stroke: #A80036; stroke-width: 1.5;" x1="2637" x2="3051" y1="101.5" y2="101.5"/><rect fill="none" height="6" style="stroke: #C82930; stroke-width: 1.0;" width="6" x="2644" y="109.5"/><text fill="#000000" font-family="sans-serif" font-size="11" lengthAdjust="spacingAndGlyphs" textLength="116" x="2656" y="115.7104">String satelliteName</text><rect fill="none" height="6" style="stroke: #C82930; stroke-width: 1.0;" width="6" x="2644" y="122.3047"/><text fill="#000000" font-family="sans-serif" font-size="11" lengthAdjust="spacingAndGlyphs" textLength="97" x="2656" y="128.5151">String checkType</text><line style="stroke: #A80036; stroke-width: 1.5;" x1="2637" x2="3051" y1="135.1094" y2="135.1094"/><ellipse cx="2647" cy="146.1094" fill="#84BE84" rx="3" ry="3" style="stroke: #038048; stroke-width: 1.0;"/><text fill="#000000" font-family="sans-serif" font-size="11" lengthAdjust="spacingAndGlyphs" textLength="390" x="2656" y="149.3198">SatelliteSignalCheckRequest(String satelliteName, String checkType)</text><ellipse cx="2647" cy="158.9141" fill="#84BE84" rx="3" ry="3" style="stroke: #038048; stroke-width: 1.0;"/><text fill="#000000" font-family="sans-serif" font-size="11" lengthAdjust="spacingAndGlyphs" textLength="143" x="2656" y="162.1245">String getSatelliteName()</text><ellipse cx="2647" cy="171.7188" fill="#84BE84" rx="3" ry="3" style="stroke: #038048; stroke-width: 1.0;"/><text fill="#000000" font-family="sans-serif" font-size="11" lengthAdjust="spacingAndGlyphs" textLength="125" x="2656" y="174.9292">String getCheckType()</text><!--MD5=[c36cfeadd3e464cb5707874760573e6d]
link DisplayGpsInterface to DisplayGpsManager--><!--MD5=[fd2ae20b250b369636844c4ce00411e4]
link DisplayGpsManager to DisplayGpsReceiver--><!--MD5=[ee24dc14e505e67481c4b4ac6c5a51a1]
link DisplayGpsInterface to DisplayGpsInterfaceImplementation--><!--MD5=[372d6310f17a2da38c0ebff9fd74b4bc]
link DisplayGpsInterfaceImplementation to DisplayGpsManagerImplementation--><!--MD5=[378a89ff9f9b25e480b9ae0c95037427]
link DisplayGpsManagerImplementation to DisplayGpsReceiverImplementation--><!--MD5=[39fcbd4a66f13293fd9a6d842fcfff77]
link DisplayGpsInterfaceImplementationTests to DisplayGpsManagerImplementationTests--><!--MD5=[5fb4b03d849a7de191313594d0a51556]
link DisplayGpsManagerImplementationTests to DisplayGpsReceiverImplementationTests--><!--MD5=[1661215ed7a09e94ee929bf09054fc06]
link DisplayGpsInterfaceImplementationTests to SatelliteSignalCheckRequestTests--><!--MD5=[b9e343a47e22a15e62e1c479291b36a9]
link SatelliteSignalCheckRequestTests to DisplayGpsManagerStub--><!--MD5=[b80cb536f90e17deb765d82ac92309cf]
link DisplayGpsManagerStub to DisplayGpsReceiverStub--><!--MD5=[a73adf47978338e79a046da162e8e269]
link SatelliteSignalCheckRequestTests to MiddlewareGisInterfaceStub--><!--MD5=[f039443e0e95e3c6b37e9c1dcb86e824]
@startuml Display01Packages


package edu.oakland.production.display01 {

}


package edu.oakland.production.display01 {
    interface DisplayGpsInterface {
        __
        .. Use Case 1 ..
        {abstract} + void receiveGpsSignal(Satellite satelliteSignal)
        .. Use Case 2 ..
        {abstract} + void reportGpsSignalLoss(String satelliteName)
        {abstract} + void recheckSignalStength(String satelliteName)
        {abstract} + void checkSignalStength(String satelliteName)
    }
}


package edu.oakland.production.display01 {
    interface DisplayGpsManager {
        __
        .. Use Case 1 ..
        {abstract} + String receiveGpsSignalStrength(Satellite satelliteSignal)
        .. Use Case 2 ..
        {abstract} + SatelliteSignalCheckRequest passGpsSignalStrength(String satelliteName)
    }
}


package edu.oakland.production.display01 {
    interface DisplayGpsReceiver {
        __
        .. Use Case 1 ..
        {abstract} + String measureGpsSignalStrength(Satellite satelliteSignal)
        .. Use Case 2 ..
        {abstract} + SatelliteSignalCheckRequest measureSignal(String satelliteName)
    }
}



package edu.oakland.production.display01 {
    class DisplayGpsInterfaceImplementation {
        - DisplayGpsReciever reciever
        __
        + DisplayGpsInterfaceImplementation(DisplayGpsReciever reciever)
        .. Use Case 1 ..
        + void receiveGpsSignal(Satellite satelliteSignal)
        .. Use Case 2 ..
        + void reportGpsSignalLoss(String satelliteName)
        + void recheckSignalStength(String satelliteName)
        + void checkSignalStength(String satelliteName)
        - int reportSignalStrength(String satelliteName)
    }
}


package edu.oakland.production.display01 {
  class DisplayGpsManagerImplementation {
    - MiddlewareGisInterface middlewareGis
   __
    + DisplayGpsManagerImplementation(DisplayGpsManager manager)
    .. Use Case 1 ..
    + String receiveGpsSignalStrength(Satellite satelliteSignal)
    + boolean EvaluateGpsSignalStrengths(int signalStrengh)
    + void passGpsSignalStrength(int signalStrength)
    .. Use Case 2 ..
    + String receiveGpsSignalStrength(Satellite signal)
    + SatelliteSignalCheckRequest passGpsSignalStrength(String satelliteName)
    }
}


package edu.oakland.production.display01 {
    class DisplayGpsReceiverImplementation {
        
        DisplayGpsManager manager

        .. Use Case 1 ..
        
        + String measureGpsSignalStrength(Satellite satelliteSignal)
        
        - void passSignalStrength(int signalStrength)

        .. Use Case 2 ..
        
        + String measureGpsSignalStrength(Satellite satelliteSignal)
        
        + SatelliteSignalCheckRequest measureSignal(String satelliteName)

    }
}



package edu.oakland.test.display01 {
    
}


package edu.oakland.test.display01 {
    class DisplayGpsInterfaceImplementationTests {

    }
}


package edu.oakland.test.display01 {
    class DisplayGpsManagerImplementationTests {

    }
}


package edu.oakland.test.display01 {
    class DisplayGpsReceiverImplementationTests {

    }
}


package edu.oakland.test.display01 {
    class SatelliteSignalCheckRequestTests {

    }
}


package edu.oakland.test.display01 {
    class DisplayGpsManagerStub {
        __
        .. Use Case 1 ..
        + String receiveGpsSignalStrengths(Satellite satelliteSignal)
        .. Use Case 2 ..
        + SatelliteSignalCheckRequest passGpsSignalStrength(String satelliteName)
    }
}


package edu.oakland.test.display01 {
    class DisplayGpsReceiverStub {
        __
        .. Use Case 1 ..
        + String measureGpsSignalStrength(Satellite satelliteSignal)
        .. Use Case 2 ..
        + SatelliteSignalCheckRequest measureSignal(String satelliteName)
    }
}


package edu.oakland.test.display01 {
    class MiddlewareGisInterfaceStub {
        __
        .. Use Case 1 ..
        + String receiveGpsSignalStrength(Satellite satelliteSignal)
        .. Use Case 2 ..
        + String receiveGpsSignalStrength(Satellite satelliteSignal)
    }
}



package edu.oakland.helper.display01 {

}


package edu.oakland.helper.display01 {
    class SatelliteSignalCheckRequest {
        - String satelliteName
        - String checkType
        + SatelliteSignalCheckRequest(String satelliteName, String checkType)
        + String getSatelliteName()
        + String getCheckType()
    }
}



@enduml

PlantUML version 1.2020.02(Sun Mar 01 10:22:07 GMT 2020)
(GPL source distribution)
Java Runtime: OpenJDK Runtime Environment
JVM: OpenJDK 64-Bit Server VM
Java Version: 11.0.9+11-Ubuntu-0ubuntu1
Operating System: Linux
Default Encoding: ANSI_X3.4-1968
Language: en
Country: US
--></g></svg>