<?xml version="1.0" encoding="UTF-8" standalone="no"?><svg xmlns="http://www.w3.org/2000/svg" xmlns:xlink="http://www.w3.org/1999/xlink" contentScriptType="application/ecmascript" contentStyleType="text/css" height="580px" preserveAspectRatio="none" style="width:2975px;height:580px;" version="1.1" viewBox="0 0 2975 580" width="2975px" zoomAndPan="magnify"><defs><filter height="300%" id="f17gk9d7ll1i39" width="300%" x="-1" y="-1"><feGaussianBlur result="blurOut" stdDeviation="2.0"/><feColorMatrix in="blurOut" result="blurOut2" type="matrix" values="0 0 0 0 0 0 0 0 0 0 0 0 0 0 0 0 0 0 .4 0"/><feOffset dx="4.0" dy="4.0" in="blurOut2" result="blurOut3"/><feBlend in="SourceGraphic" in2="blurOut3" mode="normal"/></filter></defs><g><!--MD5=[3e281e6f49e0b185d62a106a5d994a08]
cluster edu.oakland.production.display01--><polygon fill="#FFFFFF" filter="url(#f17gk9d7ll1i39)" points="22,24,295,24,302,46.2969,1258,46.2969,1258,401,22,401,22,24" style="stroke: #000000; stroke-width: 1.5;"/><line style="stroke: #000000; stroke-width: 1.5;" x1="22" x2="302" y1="46.2969" y2="46.2969"/><text fill="#000000" font-family="sans-serif" font-size="14" font-weight="bold" lengthAdjust="spacingAndGlyphs" textLength="267" x="26" y="38.9951">edu.oakland.production.display01</text><!--MD5=[9181924624f655b87cae45fec5f93c8d]
cluster edu.oakland.test.display01--><polygon fill="#FFFFFF" filter="url(#f17gk9d7ll1i39)" points="1282,66.5,1500,66.5,1507,88.7969,2481,88.7969,2481,568,1282,568,1282,66.5" style="stroke: #000000; stroke-width: 1.5;"/><line style="stroke: #000000; stroke-width: 1.5;" x1="1282" x2="1507" y1="88.7969" y2="88.7969"/><text fill="#000000" font-family="sans-serif" font-size="14" font-weight="bold" lengthAdjust="spacingAndGlyphs" textLength="212" x="1286" y="81.4951">edu.oakland.test.display01</text><!--MD5=[d02020cdc9562d037d87b751d110dd8b]
cluster edu.oakland.helper.display01--><polygon fill="#FFFFFF" filter="url(#f17gk9d7ll1i39)" points="2505,34.5,2743,34.5,2750,56.7969,2953,56.7969,2953,197.5,2505,197.5,2505,34.5" style="stroke: #000000; stroke-width: 1.5;"/><line style="stroke: #000000; stroke-width: 1.5;" x1="2505" x2="2750" y1="56.7969" y2="56.7969"/><text fill="#000000" font-family="sans-serif" font-size="14" font-weight="bold" lengthAdjust="spacingAndGlyphs" textLength="232" x="2509" y="49.4951">edu.oakland.helper.display01</text><!--MD5=[fa6248c05b5a852ecd50b5411f159754]
class DisplayGpsInterface--><rect fill="#FEFECE" filter="url(#f17gk9d7ll1i39)" height="132.8281" id="DisplayGpsInterface" style="stroke: #A80036; stroke-width: 1.5;" width="297" x="38.5" y="59"/><ellipse cx="120.75" cy="75" fill="#B4A7E5" rx="11" ry="11" style="stroke: #A80036; stroke-width: 1.0;"/><path d="M116.6719,70.7656 L116.6719,68.6094 L124.0625,68.6094 L124.0625,70.7656 L121.5938,70.7656 L121.5938,78.8438 L124.0625,78.8438 L124.0625,81 L116.6719,81 L116.6719,78.8438 L119.1406,78.8438 L119.1406,70.7656 L116.6719,70.7656 Z "/><text fill="#000000" font-family="sans-serif" font-size="12" font-style="italic" lengthAdjust="spacingAndGlyphs" textLength="124" x="141.25" y="79.1543">DisplayGpsInterface</text><line style="stroke: #A80036; stroke-width: 1.5;" x1="39.5" x2="334.5" y1="91" y2="91"/><line style="stroke: #A80036; stroke-width: 1.5;" x1="39.5" x2="334.5" y1="99" y2="99"/><ellipse cx="49.5" cy="126.8047" fill="#84BE84" rx="3" ry="3" style="stroke: #038048; stroke-width: 1.0;"/><text fill="#000000" font-family="sans-serif" font-size="11" font-style="italic" lengthAdjust="spacingAndGlyphs" textLength="261" x="58.5" y="130.0151">void receiveGpsSignal(Satellite satelliteSignal)</text><line style="stroke: #A80036; stroke-width: 1.0; stroke-dasharray: 1.0,2.0;" x1="39.5" x2="154" y1="113.4023" y2="113.4023"/><text fill="#000000" font-family="sans-serif" font-size="11" lengthAdjust="spacingAndGlyphs" textLength="66" x="154" y="116.7104">Use Case 1</text><line style="stroke: #A80036; stroke-width: 1.0; stroke-dasharray: 1.0,2.0;" x1="220" x2="334.5" y1="113.4023" y2="113.4023"/><ellipse cx="49.5" cy="156.4141" fill="#84BE84" rx="3" ry="3" style="stroke: #038048; stroke-width: 1.0;"/><text fill="#000000" font-family="sans-serif" font-size="11" font-style="italic" lengthAdjust="spacingAndGlyphs" textLength="266" x="58.5" y="159.6245">void reportGpsSignalLoss(String satelliteName)</text><ellipse cx="49.5" cy="169.2188" fill="#84BE84" rx="3" ry="3" style="stroke: #038048; stroke-width: 1.0;"/><text fill="#000000" font-family="sans-serif" font-size="11" font-style="italic" lengthAdjust="spacingAndGlyphs" textLength="271" x="58.5" y="172.4292">void recheckSignalStength(String satelliteName)</text><ellipse cx="49.5" cy="182.0234" fill="#84BE84" rx="3" ry="3" style="stroke: #038048; stroke-width: 1.0;"/><text fill="#000000" font-family="sans-serif" font-size="11" font-style="italic" lengthAdjust="spacingAndGlyphs" textLength="259" x="58.5" y="185.2339">void checkSignalStength(String satelliteName)</text><line style="stroke: #A80036; stroke-width: 1.0; stroke-dasharray: 1.0,2.0;" x1="39.5" x2="154" y1="143.0117" y2="143.0117"/><text fill="#000000" font-family="sans-serif" font-size="11" lengthAdjust="spacingAndGlyphs" textLength="66" x="154" y="146.3198">Use Case 2</text><line style="stroke: #A80036; stroke-width: 1.0; stroke-dasharray: 1.0,2.0;" x1="220" x2="334.5" y1="143.0117" y2="143.0117"/><!--MD5=[31cbac78761b59e73153a97a452ed09a]
class DisplayGpsManager--><rect fill="#FEFECE" filter="url(#f17gk9d7ll1i39)" height="107.2188" id="DisplayGpsManager" style="stroke: #A80036; stroke-width: 1.5;" width="441" x="370.5" y="72"/><ellipse cx="525.75" cy="88" fill="#B4A7E5" rx="11" ry="11" style="stroke: #A80036; stroke-width: 1.0;"/><path d="M521.6719,83.7656 L521.6719,81.6094 L529.0625,81.6094 L529.0625,83.7656 L526.5938,83.7656 L526.5938,91.8438 L529.0625,91.8438 L529.0625,94 L521.6719,94 L521.6719,91.8438 L524.1406,91.8438 L524.1406,83.7656 L521.6719,83.7656 Z "/><text fill="#000000" font-family="sans-serif" font-size="12" font-style="italic" lengthAdjust="spacingAndGlyphs" textLength="122" x="546.25" y="92.1543">DisplayGpsManager</text><line style="stroke: #A80036; stroke-width: 1.5;" x1="371.5" x2="810.5" y1="104" y2="104"/><line style="stroke: #A80036; stroke-width: 1.5;" x1="371.5" x2="810.5" y1="112" y2="112"/><ellipse cx="381.5" cy="139.8047" fill="#84BE84" rx="3" ry="3" style="stroke: #038048; stroke-width: 1.0;"/><text fill="#000000" font-family="sans-serif" font-size="11" font-style="italic" lengthAdjust="spacingAndGlyphs" textLength="318" x="390.5" y="143.0151">String receiveGpsSignalStrength(Satellite satelliteSignal)</text><line style="stroke: #A80036; stroke-width: 1.0; stroke-dasharray: 1.0,2.0;" x1="371.5" x2="558" y1="126.4023" y2="126.4023"/><text fill="#000000" font-family="sans-serif" font-size="11" lengthAdjust="spacingAndGlyphs" textLength="66" x="558" y="129.7104">Use Case 1</text><line style="stroke: #A80036; stroke-width: 1.0; stroke-dasharray: 1.0,2.0;" x1="624" x2="810.5" y1="126.4023" y2="126.4023"/><ellipse cx="381.5" cy="169.4141" fill="#84BE84" rx="3" ry="3" style="stroke: #038048; stroke-width: 1.0;"/><text fill="#000000" font-family="sans-serif" font-size="11" font-style="italic" lengthAdjust="spacingAndGlyphs" textLength="415" x="390.5" y="172.6245">SatelliteSignalCheckRequest passGpsSignalStrength(String satelliteName)</text><line style="stroke: #A80036; stroke-width: 1.0; stroke-dasharray: 1.0,2.0;" x1="371.5" x2="558" y1="156.0117" y2="156.0117"/><text fill="#000000" font-family="sans-serif" font-size="11" lengthAdjust="spacingAndGlyphs" textLength="66" x="558" y="159.3198">Use Case 2</text><line style="stroke: #A80036; stroke-width: 1.0; stroke-dasharray: 1.0,2.0;" x1="624" x2="810.5" y1="156.0117" y2="156.0117"/><!--MD5=[319273309e4c56bac150542a32321bb2]
class DisplayGpsReceiver--><rect fill="#FEFECE" filter="url(#f17gk9d7ll1i39)" height="107.2188" id="DisplayGpsReceiver" style="stroke: #A80036; stroke-width: 1.5;" width="395" x="846.5" y="72"/><ellipse cx="979.75" cy="88" fill="#B4A7E5" rx="11" ry="11" style="stroke: #A80036; stroke-width: 1.0;"/><path d="M975.6719,83.7656 L975.6719,81.6094 L983.0625,81.6094 L983.0625,83.7656 L980.5938,83.7656 L980.5938,91.8438 L983.0625,91.8438 L983.0625,94 L975.6719,94 L975.6719,91.8438 L978.1406,91.8438 L978.1406,83.7656 L975.6719,83.7656 Z "/><text fill="#000000" font-family="sans-serif" font-size="12" font-style="italic" lengthAdjust="spacingAndGlyphs" textLength="120" x="1000.25" y="92.1543">DisplayGpsReceiver</text><line style="stroke: #A80036; stroke-width: 1.5;" x1="847.5" x2="1240.5" y1="104" y2="104"/><line style="stroke: #A80036; stroke-width: 1.5;" x1="847.5" x2="1240.5" y1="112" y2="112"/><ellipse cx="857.5" cy="139.8047" fill="#84BE84" rx="3" ry="3" style="stroke: #038048; stroke-width: 1.0;"/><text fill="#000000" font-family="sans-serif" font-size="11" font-style="italic" lengthAdjust="spacingAndGlyphs" textLength="326" x="866.5" y="143.0151">String measureGpsSignalStrength(Satellite satelliteSignal)</text><line style="stroke: #A80036; stroke-width: 1.0; stroke-dasharray: 1.0,2.0;" x1="847.5" x2="1011" y1="126.4023" y2="126.4023"/><text fill="#000000" font-family="sans-serif" font-size="11" lengthAdjust="spacingAndGlyphs" textLength="66" x="1011" y="129.7104">Use Case 1</text><line style="stroke: #A80036; stroke-width: 1.0; stroke-dasharray: 1.0,2.0;" x1="1077" x2="1240.5" y1="126.4023" y2="126.4023"/><ellipse cx="857.5" cy="169.4141" fill="#84BE84" rx="3" ry="3" style="stroke: #038048; stroke-width: 1.0;"/><text fill="#000000" font-family="sans-serif" font-size="11" font-style="italic" lengthAdjust="spacingAndGlyphs" textLength="369" x="866.5" y="172.6245">SatelliteSignalCheckRequest measureSignal(String satelliteName)</text><line style="stroke: #A80036; stroke-width: 1.0; stroke-dasharray: 1.0,2.0;" x1="847.5" x2="1011" y1="156.0117" y2="156.0117"/><text fill="#000000" font-family="sans-serif" font-size="11" lengthAdjust="spacingAndGlyphs" textLength="66" x="1011" y="159.3198">Use Case 2</text><line style="stroke: #A80036; stroke-width: 1.0; stroke-dasharray: 1.0,2.0;" x1="1077" x2="1240.5" y1="156.0117" y2="156.0117"/><!--MD5=[6376794c08ca75f6fa530286e1e32b13]
class DisplayGpsInterfaceImplementation--><rect fill="#FEFECE" filter="url(#f17gk9d7ll1i39)" height="107.2188" id="DisplayGpsInterfaceImplementation" style="stroke: #A80036; stroke-width: 1.5;" width="253" x="60.5" y="265"/><ellipse cx="75.5" cy="281" fill="#ADD1B2" rx="11" ry="11" style="stroke: #A80036; stroke-width: 1.0;"/><path d="M78.4688,286.6406 Q77.8906,286.9375 77.25,287.0781 Q76.6094,287.2344 75.9063,287.2344 Q73.4063,287.2344 72.0781,285.5938 Q70.7656,283.9375 70.7656,280.8125 Q70.7656,277.6875 72.0781,276.0313 Q73.4063,274.375 75.9063,274.375 Q76.6094,274.375 77.25,274.5313 Q77.9063,274.6875 78.4688,274.9844 L78.4688,277.7031 Q77.8438,277.125 77.25,276.8594 Q76.6563,276.5781 76.0313,276.5781 Q74.6875,276.5781 74,277.6563 Q73.3125,278.7188 73.3125,280.8125 Q73.3125,282.9063 74,283.9844 Q74.6875,285.0469 76.0313,285.0469 Q76.6563,285.0469 77.25,284.7813 Q77.8438,284.5 78.4688,283.9219 L78.4688,286.6406 Z "/><text fill="#000000" font-family="sans-serif" font-size="12" lengthAdjust="spacingAndGlyphs" textLength="221" x="89.5" y="285.1543">DisplayGpsInterfaceImplementation</text><line style="stroke: #A80036; stroke-width: 1.5;" x1="61.5" x2="312.5" y1="297" y2="297"/><line style="stroke: #A80036; stroke-width: 1.5;" x1="61.5" x2="312.5" y1="305" y2="305"/><text fill="#000000" font-family="sans-serif" font-size="11" lengthAdjust="spacingAndGlyphs" textLength="0" x="70.5" y="336.0151"/><line style="stroke: #A80036; stroke-width: 1.0; stroke-dasharray: 1.0,2.0;" x1="61.5" x2="154" y1="319.4023" y2="319.4023"/><text fill="#000000" font-family="sans-serif" font-size="11" lengthAdjust="spacingAndGlyphs" textLength="66" x="154" y="322.7104">Use Case 1</text><line style="stroke: #A80036; stroke-width: 1.0; stroke-dasharray: 1.0,2.0;" x1="220" x2="312.5" y1="319.4023" y2="319.4023"/><text fill="#000000" font-family="sans-serif" font-size="11" lengthAdjust="spacingAndGlyphs" textLength="0" x="70.5" y="365.6245"/><line style="stroke: #A80036; stroke-width: 1.0; stroke-dasharray: 1.0,2.0;" x1="61.5" x2="154" y1="349.0117" y2="349.0117"/><text fill="#000000" font-family="sans-serif" font-size="11" lengthAdjust="spacingAndGlyphs" textLength="66" x="154" y="352.3198">Use Case 2</text><line style="stroke: #A80036; stroke-width: 1.0; stroke-dasharray: 1.0,2.0;" x1="220" x2="312.5" y1="349.0117" y2="349.0117"/><!--MD5=[85db0a5b69c4b55d7b0101612d8a7890]
class DisplayGpsManagerImplementation--><rect fill="#FEFECE" filter="url(#f17gk9d7ll1i39)" height="107.2188" id="DisplayGpsManagerImplementation" style="stroke: #A80036; stroke-width: 1.5;" width="252" x="349" y="265"/><ellipse cx="364" cy="281" fill="#ADD1B2" rx="11" ry="11" style="stroke: #A80036; stroke-width: 1.0;"/><path d="M366.9688,286.6406 Q366.3906,286.9375 365.75,287.0781 Q365.1094,287.2344 364.4063,287.2344 Q361.9063,287.2344 360.5781,285.5938 Q359.2656,283.9375 359.2656,280.8125 Q359.2656,277.6875 360.5781,276.0313 Q361.9063,274.375 364.4063,274.375 Q365.1094,274.375 365.75,274.5313 Q366.4063,274.6875 366.9688,274.9844 L366.9688,277.7031 Q366.3438,277.125 365.75,276.8594 Q365.1563,276.5781 364.5313,276.5781 Q363.1875,276.5781 362.5,277.6563 Q361.8125,278.7188 361.8125,280.8125 Q361.8125,282.9063 362.5,283.9844 Q363.1875,285.0469 364.5313,285.0469 Q365.1563,285.0469 365.75,284.7813 Q366.3438,284.5 366.9688,283.9219 L366.9688,286.6406 Z "/><text fill="#000000" font-family="sans-serif" font-size="12" lengthAdjust="spacingAndGlyphs" textLength="220" x="378" y="285.1543">DisplayGpsManagerImplementation</text><line style="stroke: #A80036; stroke-width: 1.5;" x1="350" x2="600" y1="297" y2="297"/><line style="stroke: #A80036; stroke-width: 1.5;" x1="350" x2="600" y1="305" y2="305"/><text fill="#000000" font-family="sans-serif" font-size="11" lengthAdjust="spacingAndGlyphs" textLength="0" x="359" y="336.0151"/><line style="stroke: #A80036; stroke-width: 1.0; stroke-dasharray: 1.0,2.0;" x1="350" x2="442" y1="319.4023" y2="319.4023"/><text fill="#000000" font-family="sans-serif" font-size="11" lengthAdjust="spacingAndGlyphs" textLength="66" x="442" y="322.7104">Use Case 1</text><line style="stroke: #A80036; stroke-width: 1.0; stroke-dasharray: 1.0,2.0;" x1="508" x2="600" y1="319.4023" y2="319.4023"/><text fill="#000000" font-family="sans-serif" font-size="11" lengthAdjust="spacingAndGlyphs" textLength="0" x="359" y="365.6245"/><line style="stroke: #A80036; stroke-width: 1.0; stroke-dasharray: 1.0,2.0;" x1="350" x2="442" y1="349.0117" y2="349.0117"/><text fill="#000000" font-family="sans-serif" font-size="11" lengthAdjust="spacingAndGlyphs" textLength="66" x="442" y="352.3198">Use Case 2</text><line style="stroke: #A80036; stroke-width: 1.0; stroke-dasharray: 1.0,2.0;" x1="508" x2="600" y1="349.0117" y2="349.0117"/><!--MD5=[02b25ee3f711f666678619f4b81f3681]
class DisplayGpsReceiverImplementation--><rect fill="#FEFECE" filter="url(#f17gk9d7ll1i39)" height="132.8281" id="DisplayGpsReceiverImplementation" style="stroke: #A80036; stroke-width: 1.5;" width="401" x="636.5" y="252"/><ellipse cx="723.75" cy="268" fill="#ADD1B2" rx="11" ry="11" style="stroke: #A80036; stroke-width: 1.0;"/><path d="M726.7188,273.6406 Q726.1406,273.9375 725.5,274.0781 Q724.8594,274.2344 724.1563,274.2344 Q721.6563,274.2344 720.3281,272.5938 Q719.0156,270.9375 719.0156,267.8125 Q719.0156,264.6875 720.3281,263.0313 Q721.6563,261.375 724.1563,261.375 Q724.8594,261.375 725.5,261.5313 Q726.1563,261.6875 726.7188,261.9844 L726.7188,264.7031 Q726.0938,264.125 725.5,263.8594 Q724.9063,263.5781 724.2813,263.5781 Q722.9375,263.5781 722.25,264.6563 Q721.5625,265.7188 721.5625,267.8125 Q721.5625,269.9063 722.25,270.9844 Q722.9375,272.0469 724.2813,272.0469 Q724.9063,272.0469 725.5,271.7813 Q726.0938,271.5 726.7188,270.9219 L726.7188,273.6406 Z "/><text fill="#000000" font-family="sans-serif" font-size="12" lengthAdjust="spacingAndGlyphs" textLength="218" x="744.25" y="272.1543">DisplayGpsReceiverImplementation</text><line style="stroke: #A80036; stroke-width: 1.5;" x1="637.5" x2="1036.5" y1="284" y2="284"/><line style="stroke: #A80036; stroke-width: 1.5;" x1="637.5" x2="1036.5" y1="292" y2="292"/><ellipse cx="647.5" cy="319.8047" fill="#84BE84" rx="3" ry="3" style="stroke: #038048; stroke-width: 1.0;"/><text fill="#000000" font-family="sans-serif" font-size="11" lengthAdjust="spacingAndGlyphs" textLength="334" x="656.5" y="323.0151">String measureGpsSignalStrength(Satellite satelliteSignal)</text><rect fill="#F24D5C" height="6" style="stroke: #C82930; stroke-width: 1.0;" width="6" x="644.5" y="329.6094"/><text fill="#000000" font-family="sans-serif" font-size="11" lengthAdjust="spacingAndGlyphs" textLength="248" x="656.5" y="335.8198">void passSignalStrength(int signalStrength)</text><line style="stroke: #A80036; stroke-width: 1.0; stroke-dasharray: 1.0,2.0;" x1="637.5" x2="804" y1="306.4023" y2="306.4023"/><text fill="#000000" font-family="sans-serif" font-size="11" lengthAdjust="spacingAndGlyphs" textLength="66" x="804" y="309.7104">Use Case 1</text><line style="stroke: #A80036; stroke-width: 1.0; stroke-dasharray: 1.0,2.0;" x1="870" x2="1036.5" y1="306.4023" y2="306.4023"/><ellipse cx="647.5" cy="362.2188" fill="#84BE84" rx="3" ry="3" style="stroke: #038048; stroke-width: 1.0;"/><text fill="#000000" font-family="sans-serif" font-size="11" lengthAdjust="spacingAndGlyphs" textLength="334" x="656.5" y="365.4292">String measureGpsSignalStrength(Satellite satelliteSignal)</text><ellipse cx="647.5" cy="375.0234" fill="#84BE84" rx="3" ry="3" style="stroke: #038048; stroke-width: 1.0;"/><text fill="#000000" font-family="sans-serif" font-size="11" lengthAdjust="spacingAndGlyphs" textLength="375" x="656.5" y="378.2339">SatelliteSignalCheckRequest measureSignal(String satelliteName)</text><line style="stroke: #A80036; stroke-width: 1.0; stroke-dasharray: 1.0,2.0;" x1="637.5" x2="804" y1="348.8164" y2="348.8164"/><text fill="#000000" font-family="sans-serif" font-size="11" lengthAdjust="spacingAndGlyphs" textLength="66" x="804" y="352.1245">Use Case 2</text><line style="stroke: #A80036; stroke-width: 1.0; stroke-dasharray: 1.0,2.0;" x1="870" x2="1036.5" y1="348.8164" y2="348.8164"/><!--MD5=[31ac70925a3cf930ecc7428c11a6bdde]
class DisplayGpsInterfaceImplementationTests--><rect fill="#FEFECE" filter="url(#f17gk9d7ll1i39)" height="48" id="DisplayGpsInterfaceImplementationTests" style="stroke: #A80036; stroke-width: 1.5;" width="287" x="1298.5" y="101.5"/><ellipse cx="1313.5" cy="117.5" fill="#ADD1B2" rx="11" ry="11" style="stroke: #A80036; stroke-width: 1.0;"/><path d="M1316.4688,123.1406 Q1315.8906,123.4375 1315.25,123.5781 Q1314.6094,123.7344 1313.9063,123.7344 Q1311.4063,123.7344 1310.0781,122.0938 Q1308.7656,120.4375 1308.7656,117.3125 Q1308.7656,114.1875 1310.0781,112.5313 Q1311.4063,110.875 1313.9063,110.875 Q1314.6094,110.875 1315.25,111.0313 Q1315.9063,111.1875 1316.4688,111.4844 L1316.4688,114.2031 Q1315.8438,113.625 1315.25,113.3594 Q1314.6563,113.0781 1314.0313,113.0781 Q1312.6875,113.0781 1312,114.1563 Q1311.3125,115.2188 1311.3125,117.3125 Q1311.3125,119.4063 1312,120.4844 Q1312.6875,121.5469 1314.0313,121.5469 Q1314.6563,121.5469 1315.25,121.2813 Q1315.8438,121 1316.4688,120.4219 L1316.4688,123.1406 Z "/><text fill="#000000" font-family="sans-serif" font-size="12" lengthAdjust="spacingAndGlyphs" textLength="255" x="1327.5" y="121.6543">DisplayGpsInterfaceImplementationTests</text><line style="stroke: #A80036; stroke-width: 1.5;" x1="1299.5" x2="1584.5" y1="133.5" y2="133.5"/><line style="stroke: #A80036; stroke-width: 1.5;" x1="1299.5" x2="1584.5" y1="141.5" y2="141.5"/><!--MD5=[b5e9506f01c5d0dda59c0c34003c249d]
class DisplayGpsManagerImplementationTests--><rect fill="#FEFECE" filter="url(#f17gk9d7ll1i39)" height="48" id="DisplayGpsManagerImplementationTests" style="stroke: #A80036; stroke-width: 1.5;" width="286" x="1621" y="101.5"/><ellipse cx="1636" cy="117.5" fill="#ADD1B2" rx="11" ry="11" style="stroke: #A80036; stroke-width: 1.0;"/><path d="M1638.9688,123.1406 Q1638.3906,123.4375 1637.75,123.5781 Q1637.1094,123.7344 1636.4063,123.7344 Q1633.9063,123.7344 1632.5781,122.0938 Q1631.2656,120.4375 1631.2656,117.3125 Q1631.2656,114.1875 1632.5781,112.5313 Q1633.9063,110.875 1636.4063,110.875 Q1637.1094,110.875 1637.75,111.0313 Q1638.4063,111.1875 1638.9688,111.4844 L1638.9688,114.2031 Q1638.3438,113.625 1637.75,113.3594 Q1637.1563,113.0781 1636.5313,113.0781 Q1635.1875,113.0781 1634.5,114.1563 Q1633.8125,115.2188 1633.8125,117.3125 Q1633.8125,119.4063 1634.5,120.4844 Q1635.1875,121.5469 1636.5313,121.5469 Q1637.1563,121.5469 1637.75,121.2813 Q1638.3438,121 1638.9688,120.4219 L1638.9688,123.1406 Z "/><text fill="#000000" font-family="sans-serif" font-size="12" lengthAdjust="spacingAndGlyphs" textLength="254" x="1650" y="121.6543">DisplayGpsManagerImplementationTests</text><line style="stroke: #A80036; stroke-width: 1.5;" x1="1622" x2="1906" y1="133.5" y2="133.5"/><line style="stroke: #A80036; stroke-width: 1.5;" x1="1622" x2="1906" y1="141.5" y2="141.5"/><!--MD5=[933cdd11260ca9cf411a4933e66b6f57]
class DisplayGpsReceiverImplementationTests--><rect fill="#FEFECE" filter="url(#f17gk9d7ll1i39)" height="48" id="DisplayGpsReceiverImplementationTests" style="stroke: #A80036; stroke-width: 1.5;" width="284" x="1942" y="101.5"/><ellipse cx="1957" cy="117.5" fill="#ADD1B2" rx="11" ry="11" style="stroke: #A80036; stroke-width: 1.0;"/><path d="M1959.9688,123.1406 Q1959.3906,123.4375 1958.75,123.5781 Q1958.1094,123.7344 1957.4063,123.7344 Q1954.9063,123.7344 1953.5781,122.0938 Q1952.2656,120.4375 1952.2656,117.3125 Q1952.2656,114.1875 1953.5781,112.5313 Q1954.9063,110.875 1957.4063,110.875 Q1958.1094,110.875 1958.75,111.0313 Q1959.4063,111.1875 1959.9688,111.4844 L1959.9688,114.2031 Q1959.3438,113.625 1958.75,113.3594 Q1958.1563,113.0781 1957.5313,113.0781 Q1956.1875,113.0781 1955.5,114.1563 Q1954.8125,115.2188 1954.8125,117.3125 Q1954.8125,119.4063 1955.5,120.4844 Q1956.1875,121.5469 1957.5313,121.5469 Q1958.1563,121.5469 1958.75,121.2813 Q1959.3438,121 1959.9688,120.4219 L1959.9688,123.1406 Z "/><text fill="#000000" font-family="sans-serif" font-size="12" lengthAdjust="spacingAndGlyphs" textLength="252" x="1971" y="121.6543">DisplayGpsReceiverImplementationTests</text><line style="stroke: #A80036; stroke-width: 1.5;" x1="1943" x2="2225" y1="133.5" y2="133.5"/><line style="stroke: #A80036; stroke-width: 1.5;" x1="1943" x2="2225" y1="141.5" y2="141.5"/><!--MD5=[9d578318e58e71edcf98403314a477bf]
class SatelliteSignalCheckRequestTests--><rect fill="#FEFECE" filter="url(#f17gk9d7ll1i39)" height="48" id="SatelliteSignalCheckRequestTests" style="stroke: #A80036; stroke-width: 1.5;" width="245" x="1298.5" y="294.5"/><ellipse cx="1313.5" cy="310.5" fill="#ADD1B2" rx="11" ry="11" style="stroke: #A80036; stroke-width: 1.0;"/><path d="M1316.4688,316.1406 Q1315.8906,316.4375 1315.25,316.5781 Q1314.6094,316.7344 1313.9063,316.7344 Q1311.4063,316.7344 1310.0781,315.0938 Q1308.7656,313.4375 1308.7656,310.3125 Q1308.7656,307.1875 1310.0781,305.5313 Q1311.4063,303.875 1313.9063,303.875 Q1314.6094,303.875 1315.25,304.0313 Q1315.9063,304.1875 1316.4688,304.4844 L1316.4688,307.2031 Q1315.8438,306.625 1315.25,306.3594 Q1314.6563,306.0781 1314.0313,306.0781 Q1312.6875,306.0781 1312,307.1563 Q1311.3125,308.2188 1311.3125,310.3125 Q1311.3125,312.4063 1312,313.4844 Q1312.6875,314.5469 1314.0313,314.5469 Q1314.6563,314.5469 1315.25,314.2813 Q1315.8438,314 1316.4688,313.4219 L1316.4688,316.1406 Z "/><text fill="#000000" font-family="sans-serif" font-size="12" lengthAdjust="spacingAndGlyphs" textLength="213" x="1327.5" y="314.6543">SatelliteSignalCheckRequestTests</text><line style="stroke: #A80036; stroke-width: 1.5;" x1="1299.5" x2="1542.5" y1="326.5" y2="326.5"/><line style="stroke: #A80036; stroke-width: 1.5;" x1="1299.5" x2="1542.5" y1="334.5" y2="334.5"/><!--MD5=[6057d86884460ab216cb89f03a202a5c]
class DisplayGpsManagerStub--><rect fill="#FEFECE" filter="url(#f17gk9d7ll1i39)" height="107.2188" id="DisplayGpsManagerStub" style="stroke: #A80036; stroke-width: 1.5;" width="450" x="1579" y="265"/><ellipse cx="1723.75" cy="281" fill="#ADD1B2" rx="11" ry="11" style="stroke: #A80036; stroke-width: 1.0;"/><path d="M1726.7188,286.6406 Q1726.1406,286.9375 1725.5,287.0781 Q1724.8594,287.2344 1724.1563,287.2344 Q1721.6563,287.2344 1720.3281,285.5938 Q1719.0156,283.9375 1719.0156,280.8125 Q1719.0156,277.6875 1720.3281,276.0313 Q1721.6563,274.375 1724.1563,274.375 Q1724.8594,274.375 1725.5,274.5313 Q1726.1563,274.6875 1726.7188,274.9844 L1726.7188,277.7031 Q1726.0938,277.125 1725.5,276.8594 Q1724.9063,276.5781 1724.2813,276.5781 Q1722.9375,276.5781 1722.25,277.6563 Q1721.5625,278.7188 1721.5625,280.8125 Q1721.5625,282.9063 1722.25,283.9844 Q1722.9375,285.0469 1724.2813,285.0469 Q1724.9063,285.0469 1725.5,284.7813 Q1726.0938,284.5 1726.7188,283.9219 L1726.7188,286.6406 Z "/><text fill="#000000" font-family="sans-serif" font-size="12" lengthAdjust="spacingAndGlyphs" textLength="152" x="1744.25" y="285.1543">DisplayGpsManagerStub</text><line style="stroke: #A80036; stroke-width: 1.5;" x1="1580" x2="2028" y1="297" y2="297"/><line style="stroke: #A80036; stroke-width: 1.5;" x1="1580" x2="2028" y1="305" y2="305"/><ellipse cx="1590" cy="332.8047" fill="#84BE84" rx="3" ry="3" style="stroke: #038048; stroke-width: 1.0;"/><text fill="#000000" font-family="sans-serif" font-size="11" lengthAdjust="spacingAndGlyphs" textLength="331" x="1599" y="336.0151">String receiveGpsSignalStrengths(Satellite satelliteSignal)</text><line style="stroke: #A80036; stroke-width: 1.0; stroke-dasharray: 1.0,2.0;" x1="1580" x2="1771" y1="319.4023" y2="319.4023"/><text fill="#000000" font-family="sans-serif" font-size="11" lengthAdjust="spacingAndGlyphs" textLength="66" x="1771" y="322.7104">Use Case 1</text><line style="stroke: #A80036; stroke-width: 1.0; stroke-dasharray: 1.0,2.0;" x1="1837" x2="2028" y1="319.4023" y2="319.4023"/><ellipse cx="1590" cy="362.4141" fill="#84BE84" rx="3" ry="3" style="stroke: #038048; stroke-width: 1.0;"/><text fill="#000000" font-family="sans-serif" font-size="11" lengthAdjust="spacingAndGlyphs" textLength="424" x="1599" y="365.6245">SatelliteSignalCheckRequest passGpsSignalStrength(String satelliteName)</text><line style="stroke: #A80036; stroke-width: 1.0; stroke-dasharray: 1.0,2.0;" x1="1580" x2="1771" y1="349.0117" y2="349.0117"/><text fill="#000000" font-family="sans-serif" font-size="11" lengthAdjust="spacingAndGlyphs" textLength="66" x="1771" y="352.3198">Use Case 2</text><line style="stroke: #A80036; stroke-width: 1.0; stroke-dasharray: 1.0,2.0;" x1="1837" x2="2028" y1="349.0117" y2="349.0117"/><!--MD5=[0af74227177caadb6af436c979172233]
class DisplayGpsReceiverStub--><rect fill="#FEFECE" filter="url(#f17gk9d7ll1i39)" height="107.2188" id="DisplayGpsReceiverStub" style="stroke: #A80036; stroke-width: 1.5;" width="401" x="2064.5" y="265"/><ellipse cx="2185.75" cy="281" fill="#ADD1B2" rx="11" ry="11" style="stroke: #A80036; stroke-width: 1.0;"/><path d="M2188.7188,286.6406 Q2188.1406,286.9375 2187.5,287.0781 Q2186.8594,287.2344 2186.1563,287.2344 Q2183.6563,287.2344 2182.3281,285.5938 Q2181.0156,283.9375 2181.0156,280.8125 Q2181.0156,277.6875 2182.3281,276.0313 Q2183.6563,274.375 2186.1563,274.375 Q2186.8594,274.375 2187.5,274.5313 Q2188.1563,274.6875 2188.7188,274.9844 L2188.7188,277.7031 Q2188.0938,277.125 2187.5,276.8594 Q2186.9063,276.5781 2186.2813,276.5781 Q2184.9375,276.5781 2184.25,277.6563 Q2183.5625,278.7188 2183.5625,280.8125 Q2183.5625,282.9063 2184.25,283.9844 Q2184.9375,285.0469 2186.2813,285.0469 Q2186.9063,285.0469 2187.5,284.7813 Q2188.0938,284.5 2188.7188,283.9219 L2188.7188,286.6406 Z "/><text fill="#000000" font-family="sans-serif" font-size="12" lengthAdjust="spacingAndGlyphs" textLength="150" x="2206.25" y="285.1543">DisplayGpsReceiverStub</text><line style="stroke: #A80036; stroke-width: 1.5;" x1="2065.5" x2="2464.5" y1="297" y2="297"/><line style="stroke: #A80036; stroke-width: 1.5;" x1="2065.5" x2="2464.5" y1="305" y2="305"/><ellipse cx="2075.5" cy="332.8047" fill="#84BE84" rx="3" ry="3" style="stroke: #038048; stroke-width: 1.0;"/><text fill="#000000" font-family="sans-serif" font-size="11" lengthAdjust="spacingAndGlyphs" textLength="334" x="2084.5" y="336.0151">String measureGpsSignalStrength(Satellite satelliteSignal)</text><line style="stroke: #A80036; stroke-width: 1.0; stroke-dasharray: 1.0,2.0;" x1="2065.5" x2="2232" y1="319.4023" y2="319.4023"/><text fill="#000000" font-family="sans-serif" font-size="11" lengthAdjust="spacingAndGlyphs" textLength="66" x="2232" y="322.7104">Use Case 1</text><line style="stroke: #A80036; stroke-width: 1.0; stroke-dasharray: 1.0,2.0;" x1="2298" x2="2464.5" y1="319.4023" y2="319.4023"/><ellipse cx="2075.5" cy="362.4141" fill="#84BE84" rx="3" ry="3" style="stroke: #038048; stroke-width: 1.0;"/><text fill="#000000" font-family="sans-serif" font-size="11" lengthAdjust="spacingAndGlyphs" textLength="375" x="2084.5" y="365.6245">SatelliteSignalCheckRequest measureSignal(String satelliteName)</text><line style="stroke: #A80036; stroke-width: 1.0; stroke-dasharray: 1.0,2.0;" x1="2065.5" x2="2232" y1="349.0117" y2="349.0117"/><text fill="#000000" font-family="sans-serif" font-size="11" lengthAdjust="spacingAndGlyphs" textLength="66" x="2232" y="352.3198">Use Case 2</text><line style="stroke: #A80036; stroke-width: 1.0; stroke-dasharray: 1.0,2.0;" x1="2298" x2="2464.5" y1="349.0117" y2="349.0117"/><!--MD5=[80c749bdd7ec7c789b994dbe93702fd9]
class MiddlewareGisInterfaceStub--><rect fill="#FEFECE" filter="url(#f17gk9d7ll1i39)" height="107.2188" id="MiddlewareGisInterfaceStub" style="stroke: #A80036; stroke-width: 1.5;" width="350" x="1298" y="445"/><ellipse cx="1381.75" cy="461" fill="#ADD1B2" rx="11" ry="11" style="stroke: #A80036; stroke-width: 1.0;"/><path d="M1384.7188,466.6406 Q1384.1406,466.9375 1383.5,467.0781 Q1382.8594,467.2344 1382.1563,467.2344 Q1379.6563,467.2344 1378.3281,465.5938 Q1377.0156,463.9375 1377.0156,460.8125 Q1377.0156,457.6875 1378.3281,456.0313 Q1379.6563,454.375 1382.1563,454.375 Q1382.8594,454.375 1383.5,454.5313 Q1384.1563,454.6875 1384.7188,454.9844 L1384.7188,457.7031 Q1384.0938,457.125 1383.5,456.8594 Q1382.9063,456.5781 1382.2813,456.5781 Q1380.9375,456.5781 1380.25,457.6563 Q1379.5625,458.7188 1379.5625,460.8125 Q1379.5625,462.9063 1380.25,463.9844 Q1380.9375,465.0469 1382.2813,465.0469 Q1382.9063,465.0469 1383.5,464.7813 Q1384.0938,464.5 1384.7188,463.9219 L1384.7188,466.6406 Z "/><text fill="#000000" font-family="sans-serif" font-size="12" lengthAdjust="spacingAndGlyphs" textLength="174" x="1402.25" y="465.1543">MiddlewareGisInterfaceStub</text><line style="stroke: #A80036; stroke-width: 1.5;" x1="1299" x2="1647" y1="477" y2="477"/><line style="stroke: #A80036; stroke-width: 1.5;" x1="1299" x2="1647" y1="485" y2="485"/><ellipse cx="1309" cy="512.8047" fill="#84BE84" rx="3" ry="3" style="stroke: #038048; stroke-width: 1.0;"/><text fill="#000000" font-family="sans-serif" font-size="11" lengthAdjust="spacingAndGlyphs" textLength="324" x="1318" y="516.0151">String revieveGpsSignalStrength(Satellite satelliteSignal)</text><line style="stroke: #A80036; stroke-width: 1.0; stroke-dasharray: 1.0,2.0;" x1="1299" x2="1440" y1="499.4023" y2="499.4023"/><text fill="#000000" font-family="sans-serif" font-size="11" lengthAdjust="spacingAndGlyphs" textLength="66" x="1440" y="502.7104">Use Case 1</text><line style="stroke: #A80036; stroke-width: 1.0; stroke-dasharray: 1.0,2.0;" x1="1506" x2="1647" y1="499.4023" y2="499.4023"/><ellipse cx="1309" cy="542.4141" fill="#84BE84" rx="3" ry="3" style="stroke: #038048; stroke-width: 1.0;"/><text fill="#000000" font-family="sans-serif" font-size="11" lengthAdjust="spacingAndGlyphs" textLength="324" x="1318" y="545.6245">String revieveGpsSignalStrength(Satellite satelliteSignal)</text><line style="stroke: #A80036; stroke-width: 1.0; stroke-dasharray: 1.0,2.0;" x1="1299" x2="1440" y1="529.0117" y2="529.0117"/><text fill="#000000" font-family="sans-serif" font-size="11" lengthAdjust="spacingAndGlyphs" textLength="66" x="1440" y="532.3198">Use Case 2</text><line style="stroke: #A80036; stroke-width: 1.0; stroke-dasharray: 1.0,2.0;" x1="1506" x2="1647" y1="529.0117" y2="529.0117"/><!--MD5=[b7db7f9e4ca1b2f55d32a1a48f9dd068]
class SatelliteSignalCheckRequest--><rect fill="#FEFECE" filter="url(#f17gk9d7ll1i39)" height="112.0234" id="SatelliteSignalCheckRequest" style="stroke: #A80036; stroke-width: 1.5;" width="416" x="2521" y="69.5"/><ellipse cx="2635.25" cy="85.5" fill="#ADD1B2" rx="11" ry="11" style="stroke: #A80036; stroke-width: 1.0;"/><path d="M2638.2188,91.1406 Q2637.6406,91.4375 2637,91.5781 Q2636.3594,91.7344 2635.6563,91.7344 Q2633.1563,91.7344 2631.8281,90.0938 Q2630.5156,88.4375 2630.5156,85.3125 Q2630.5156,82.1875 2631.8281,80.5313 Q2633.1563,78.875 2635.6563,78.875 Q2636.3594,78.875 2637,79.0313 Q2637.6563,79.1875 2638.2188,79.4844 L2638.2188,82.2031 Q2637.5938,81.625 2637,81.3594 Q2636.4063,81.0781 2635.7813,81.0781 Q2634.4375,81.0781 2633.75,82.1563 Q2633.0625,83.2188 2633.0625,85.3125 Q2633.0625,87.4063 2633.75,88.4844 Q2634.4375,89.5469 2635.7813,89.5469 Q2636.4063,89.5469 2637,89.2813 Q2637.5938,89 2638.2188,88.4219 L2638.2188,91.1406 Z "/><text fill="#000000" font-family="sans-serif" font-size="12" lengthAdjust="spacingAndGlyphs" textLength="179" x="2655.75" y="89.6543">SatelliteSignalCheckRequest</text><line style="stroke: #A80036; stroke-width: 1.5;" x1="2522" x2="2936" y1="101.5" y2="101.5"/><rect fill="none" height="6" style="stroke: #C82930; stroke-width: 1.0;" width="6" x="2529" y="109.5"/><text fill="#000000" font-family="sans-serif" font-size="11" lengthAdjust="spacingAndGlyphs" textLength="116" x="2541" y="115.7104">String satelliteName</text><rect fill="none" height="6" style="stroke: #C82930; stroke-width: 1.0;" width="6" x="2529" y="122.3047"/><text fill="#000000" font-family="sans-serif" font-size="11" lengthAdjust="spacingAndGlyphs" textLength="97" x="2541" y="128.5151">String checkType</text><line style="stroke: #A80036; stroke-width: 1.5;" x1="2522" x2="2936" y1="135.1094" y2="135.1094"/><ellipse cx="2532" cy="146.1094" fill="#84BE84" rx="3" ry="3" style="stroke: #038048; stroke-width: 1.0;"/><text fill="#000000" font-family="sans-serif" font-size="11" lengthAdjust="spacingAndGlyphs" textLength="390" x="2541" y="149.3198">SatelliteSignalCheckRequest(String satelliteName, String checkType)</text><ellipse cx="2532" cy="158.9141" fill="#84BE84" rx="3" ry="3" style="stroke: #038048; stroke-width: 1.0;"/><text fill="#000000" font-family="sans-serif" font-size="11" lengthAdjust="spacingAndGlyphs" textLength="143" x="2541" y="162.1245">String getSatelliteName()</text><ellipse cx="2532" cy="171.7188" fill="#84BE84" rx="3" ry="3" style="stroke: #038048; stroke-width: 1.0;"/><text fill="#000000" font-family="sans-serif" font-size="11" lengthAdjust="spacingAndGlyphs" textLength="125" x="2541" y="174.9292">String getCheckType()</text><!--MD5=[c36cfeadd3e464cb5707874760573e6d]
link DisplayGpsInterface to DisplayGpsManager--><!--MD5=[fd2ae20b250b369636844c4ce00411e4]
link DisplayGpsManager to DisplayGpsReceiver--><!--MD5=[ee24dc14e505e67481c4b4ac6c5a51a1]
link DisplayGpsInterface to DisplayGpsInterfaceImplementation--><!--MD5=[372d6310f17a2da38c0ebff9fd74b4bc]
link DisplayGpsInterfaceImplementation to DisplayGpsManagerImplementation--><!--MD5=[378a89ff9f9b25e480b9ae0c95037427]
link DisplayGpsManagerImplementation to DisplayGpsReceiverImplementation--><!--MD5=[39fcbd4a66f13293fd9a6d842fcfff77]
link DisplayGpsInterfaceImplementationTests to DisplayGpsManagerImplementationTests--><!--MD5=[5fb4b03d849a7de191313594d0a51556]
link DisplayGpsManagerImplementationTests to DisplayGpsReceiverImplementationTests--><!--MD5=[1661215ed7a09e94ee929bf09054fc06]
link DisplayGpsInterfaceImplementationTests to SatelliteSignalCheckRequestTests--><!--MD5=[b9e343a47e22a15e62e1c479291b36a9]
link SatelliteSignalCheckRequestTests to DisplayGpsManagerStub--><!--MD5=[b80cb536f90e17deb765d82ac92309cf]
link DisplayGpsManagerStub to DisplayGpsReceiverStub--><!--MD5=[a73adf47978338e79a046da162e8e269]
link SatelliteSignalCheckRequestTests to MiddlewareGisInterfaceStub--><!--MD5=[d35fae30c72f64ea0a4d9f54702593f4]
@startuml Display01Packages


package edu.oakland.production.display01 {

}


package edu.oakland.production.display01 {
    interface DisplayGpsInterface {
        __
        .. Use Case 1 ..
        {abstract} + void receiveGpsSignal(Satellite satelliteSignal)
        .. Use Case 2 ..
        {abstract} + void reportGpsSignalLoss(String satelliteName)
        {abstract} + void recheckSignalStength(String satelliteName)
        {abstract} + void checkSignalStength(String satelliteName)
    }
}


package edu.oakland.production.display01 {
    interface DisplayGpsManager {
        __
        .. Use Case 1 ..
        {abstract} + String receiveGpsSignalStrength(Satellite satelliteSignal)
        .. Use Case 2 ..
        {abstract} + SatelliteSignalCheckRequest passGpsSignalStrength(String satelliteName)
    }
}


package edu.oakland.production.display01 {
    interface DisplayGpsReceiver {
        __
        .. Use Case 1 ..
        {abstract} + String measureGpsSignalStrength(Satellite satelliteSignal)
        .. Use Case 2 ..
        {abstract} + SatelliteSignalCheckRequest measureSignal(String satelliteName)
    }
}


package edu.oakland.production.display01 {
    class DisplayGpsInterfaceImplementation {
        __
        .. Use Case 1 ..

        .. Use Case 2 ..

    }
}


package edu.oakland.production.display01 {
    class DisplayGpsManagerImplementation {
        __
        .. Use Case 1 ..

        .. Use Case 2 ..

    }
}


package edu.oakland.production.display01 {
    class DisplayGpsReceiverImplementation {
        __
        .. Use Case 1 ..
        + String measureGpsSignalStrength(Satellite satelliteSignal)
        - void passSignalStrength(int signalStrength)
        .. Use Case 2 ..
        + String measureGpsSignalStrength(Satellite satelliteSignal)
        + SatelliteSignalCheckRequest measureSignal(String satelliteName)
    }
}



package edu.oakland.test.display01 {
    
}


package edu.oakland.test.display01 {
    class DisplayGpsInterfaceImplementationTests {

    }
}


package edu.oakland.test.display01 {
    class DisplayGpsManagerImplementationTests {

    }
}


package edu.oakland.test.display01 {
    class DisplayGpsReceiverImplementationTests {

    }
}


package edu.oakland.test.display01 {
    class SatelliteSignalCheckRequestTests {

    }
}


package edu.oakland.test.display01 {
    class DisplayGpsManagerStub {
        __
        .. Use Case 1 ..
        + String receiveGpsSignalStrengths(Satellite satelliteSignal)
        .. Use Case 2 ..
        + SatelliteSignalCheckRequest passGpsSignalStrength(String satelliteName)
    }
}


package edu.oakland.test.display01 {
    class DisplayGpsReceiverStub {
        __
        .. Use Case 1 ..
        + String measureGpsSignalStrength(Satellite satelliteSignal)
        .. Use Case 2 ..
        + SatelliteSignalCheckRequest measureSignal(String satelliteName)
    }
}


package edu.oakland.test.display01 {
    class MiddlewareGisInterfaceStub {
        __
        .. Use Case 1 ..
        + String revieveGpsSignalStrength(Satellite satelliteSignal)
        .. Use Case 2 ..
        + String revieveGpsSignalStrength(Satellite satelliteSignal)
    }
}



package edu.oakland.helper.display01 {

}


package edu.oakland.helper.display01 {
    class SatelliteSignalCheckRequest {
        - String satelliteName
        - String checkType
        + SatelliteSignalCheckRequest(String satelliteName, String checkType)
        + String getSatelliteName()
        + String getCheckType()
    }
}



@enduml

PlantUML version 1.2020.02(Sun Mar 01 10:22:07 GMT 2020)
(GPL source distribution)
Java Runtime: OpenJDK Runtime Environment
JVM: OpenJDK 64-Bit Server VM
Java Version: 11.0.9+11-Ubuntu-0ubuntu1
Operating System: Linux
Default Encoding: ANSI_X3.4-1968
Language: en
Country: US
--></g></svg>