<?xml version="1.0" encoding="UTF-8" standalone="no"?><svg xmlns="http://www.w3.org/2000/svg" xmlns:xlink="http://www.w3.org/1999/xlink" contentScriptType="application/ecmascript" contentStyleType="text/css" height="220px" preserveAspectRatio="none" style="width:540px;height:220px;" version="1.1" viewBox="0 0 540 220" width="540px" zoomAndPan="magnify"><defs><filter height="300%" id="f1f4eqlf6d5baj" width="300%" x="-1" y="-1"><feGaussianBlur result="blurOut" stdDeviation="2.0"/><feColorMatrix in="blurOut" result="blurOut2" type="matrix" values="0 0 0 0 0 0 0 0 0 0 0 0 0 0 0 0 0 0 .4 0"/><feOffset dx="4.0" dy="4.0" in="blurOut2" result="blurOut3"/><feBlend in="SourceGraphic" in2="blurOut3" mode="normal"/></filter></defs><g><!--MD5=[3e281e6f49e0b185d62a106a5d994a08]
cluster edu.oakland.production.display01--><polygon fill="#FFFFFF" filter="url(#f1f4eqlf6d5baj)" points="22,24,295,24,302,46.2969,518,46.2969,518,208,22,208,22,24" style="stroke: #000000; stroke-width: 1.5;"/><line style="stroke: #000000; stroke-width: 1.5;" x1="22" x2="302" y1="46.2969" y2="46.2969"/><text fill="#000000" font-family="sans-serif" font-size="14" font-weight="bold" lengthAdjust="spacingAndGlyphs" textLength="267" x="26" y="38.9951">edu.oakland.production.display01</text><!--MD5=[85db0a5b69c4b55d7b0101612d8a7890]
class DisplayGpsManagerImplementation--><rect fill="#FEFECE" filter="url(#f1f4eqlf6d5baj)" height="132.8281" id="DisplayGpsManagerImplementation" style="stroke: #A80036; stroke-width: 1.5;" width="464" x="38" y="59"/><ellipse cx="155.75" cy="75" fill="#ADD1B2" rx="11" ry="11" style="stroke: #A80036; stroke-width: 1.0;"/><path d="M158.7188,80.6406 Q158.1406,80.9375 157.5,81.0781 Q156.8594,81.2344 156.1563,81.2344 Q153.6563,81.2344 152.3281,79.5938 Q151.0156,77.9375 151.0156,74.8125 Q151.0156,71.6875 152.3281,70.0313 Q153.6563,68.375 156.1563,68.375 Q156.8594,68.375 157.5,68.5313 Q158.1563,68.6875 158.7188,68.9844 L158.7188,71.7031 Q158.0938,71.125 157.5,70.8594 Q156.9063,70.5781 156.2813,70.5781 Q154.9375,70.5781 154.25,71.6563 Q153.5625,72.7188 153.5625,74.8125 Q153.5625,76.9063 154.25,77.9844 Q154.9375,79.0469 156.2813,79.0469 Q156.9063,79.0469 157.5,78.7813 Q158.0938,78.5 158.7188,77.9219 L158.7188,80.6406 Z "/><text fill="#000000" font-family="sans-serif" font-size="12" lengthAdjust="spacingAndGlyphs" textLength="220" x="176.25" y="79.1543">DisplayGpsManagerImplementation</text><line style="stroke: #A80036; stroke-width: 1.5;" x1="39" x2="501" y1="91" y2="91"/><rect fill="none" height="6" style="stroke: #C82930; stroke-width: 1.0;" width="6" x="46" y="99"/><text fill="#000000" font-family="sans-serif" font-size="11" lengthAdjust="spacingAndGlyphs" textLength="204" x="58" y="105.2104">MiddlewareGisInterface gisInterface</text><line style="stroke: #A80036; stroke-width: 1.5;" x1="39" x2="501" y1="111.8047" y2="111.8047"/><ellipse cx="49" cy="122.8047" fill="#84BE84" rx="3" ry="3" style="stroke: #038048; stroke-width: 1.0;"/><text fill="#000000" font-family="sans-serif" font-size="11" lengthAdjust="spacingAndGlyphs" textLength="413" x="58" y="126.0151">DisplayGpsManagerImplementation(MiddlewareGisInterface gisInterface)</text><ellipse cx="49" cy="152.4141" fill="#84BE84" rx="3" ry="3" style="stroke: #038048; stroke-width: 1.0;"/><text fill="#000000" font-family="sans-serif" font-size="11" lengthAdjust="spacingAndGlyphs" textLength="324" x="58" y="155.6245">String receiveGpsSignalStrength(Satellite satelliteSignal)</text><line style="stroke: #A80036; stroke-width: 1.0; stroke-dasharray: 1.0,2.0;" x1="39" x2="237" y1="139.0117" y2="139.0117"/><text fill="#000000" font-family="sans-serif" font-size="11" lengthAdjust="spacingAndGlyphs" textLength="66" x="237" y="142.3198">Use Case 1</text><line style="stroke: #A80036; stroke-width: 1.0; stroke-dasharray: 1.0,2.0;" x1="303" x2="501" y1="139.0117" y2="139.0117"/><ellipse cx="49" cy="182.0234" fill="#84BE84" rx="3" ry="3" style="stroke: #038048; stroke-width: 1.0;"/><text fill="#000000" font-family="sans-serif" font-size="11" lengthAdjust="spacingAndGlyphs" textLength="438" x="58" y="185.2339">SatelliteSignalCheckRequest passGpsSignalStrength(Satellite satelliteSignal)</text><line style="stroke: #A80036; stroke-width: 1.0; stroke-dasharray: 1.0,2.0;" x1="39" x2="237" y1="168.6211" y2="168.6211"/><text fill="#000000" font-family="sans-serif" font-size="11" lengthAdjust="spacingAndGlyphs" textLength="66" x="237" y="171.9292">Use Case 2</text><line style="stroke: #A80036; stroke-width: 1.0; stroke-dasharray: 1.0,2.0;" x1="303" x2="501" y1="168.6211" y2="168.6211"/><!--MD5=[e01c49f6a23014ac80ff2eac641fb643]
@startuml DisplayGpsManagerImplementation

package edu.oakland.production.display01 {
  class DisplayGpsManagerImplementation {
    - MiddlewareGisInterface gisInterface
   __
    + DisplayGpsManagerImplementation(MiddlewareGisInterface gisInterface)
    .. Use Case 1 ..
    + String receiveGpsSignalStrength(Satellite satelliteSignal)
    .. Use Case 2 ..
    + SatelliteSignalCheckRequest passGpsSignalStrength(Satellite satelliteSignal)
    }
}

@enduml

PlantUML version 1.2020.02(Sun Mar 01 10:22:07 GMT 2020)
(GPL source distribution)
Java Runtime: OpenJDK Runtime Environment
JVM: OpenJDK 64-Bit Server VM
Java Version: 11.0.9+11-Ubuntu-0ubuntu1
Operating System: Linux
Default Encoding: ANSI_X3.4-1968
Language: en
Country: US
--></g></svg>