<?xml version="1.0" encoding="UTF-8" standalone="no"?><svg xmlns="http://www.w3.org/2000/svg" xmlns:xlink="http://www.w3.org/1999/xlink" contentScriptType="application/ecmascript" contentStyleType="text/css" height="574px" preserveAspectRatio="none" style="width:540px;height:574px;" version="1.1" viewBox="0 0 540 574" width="540px" zoomAndPan="magnify"><defs><filter height="300%" id="f31s1j12ellpk" width="300%" x="-1" y="-1"><feGaussianBlur result="blurOut" stdDeviation="2.0"/><feColorMatrix in="blurOut" result="blurOut2" type="matrix" values="0 0 0 0 0 0 0 0 0 0 0 0 0 0 0 0 0 0 .4 0"/><feOffset dx="4.0" dy="4.0" in="blurOut2" result="blurOut3"/><feBlend in="SourceGraphic" in2="blurOut3" mode="normal"/></filter></defs><g><!--MD5=[3e281e6f49e0b185d62a106a5d994a08]
cluster edu.oakland.production.display01--><polygon fill="#FFFFFF" filter="url(#f31s1j12ellpk)" points="22,24,295,24,302,46.2969,518,46.2969,518,375,22,375,22,24" style="stroke: #000000; stroke-width: 1.5;"/><line style="stroke: #000000; stroke-width: 1.5;" x1="22" x2="302" y1="46.2969" y2="46.2969"/><text fill="#000000" font-family="sans-serif" font-size="14" font-weight="bold" lengthAdjust="spacingAndGlyphs" textLength="267" x="26" y="38.9951">edu.oakland.production.display01</text><!--MD5=[d02020cdc9562d037d87b751d110dd8b]
cluster edu.oakland.helper.display01--><polygon fill="#FFFFFF" filter="url(#f31s1j12ellpk)" points="46,399,284,399,291,421.2969,494,421.2969,494,562,46,562,46,399" style="stroke: #000000; stroke-width: 1.5;"/><line style="stroke: #000000; stroke-width: 1.5;" x1="46" x2="291" y1="421.2969" y2="421.2969"/><text fill="#000000" font-family="sans-serif" font-size="14" font-weight="bold" lengthAdjust="spacingAndGlyphs" textLength="232" x="50" y="413.9951">edu.oakland.helper.display01</text><!--MD5=[85db0a5b69c4b55d7b0101612d8a7890]
class DisplayGpsManagerImplementation--><rect fill="#FEFECE" filter="url(#f31s1j12ellpk)" height="132.8281" id="DisplayGpsManagerImplementation" style="stroke: #A80036; stroke-width: 1.5;" width="464" x="38" y="226"/><ellipse cx="155.75" cy="242" fill="#ADD1B2" rx="11" ry="11" style="stroke: #A80036; stroke-width: 1.0;"/><path d="M158.7188,247.6406 Q158.1406,247.9375 157.5,248.0781 Q156.8594,248.2344 156.1563,248.2344 Q153.6563,248.2344 152.3281,246.5938 Q151.0156,244.9375 151.0156,241.8125 Q151.0156,238.6875 152.3281,237.0313 Q153.6563,235.375 156.1563,235.375 Q156.8594,235.375 157.5,235.5313 Q158.1563,235.6875 158.7188,235.9844 L158.7188,238.7031 Q158.0938,238.125 157.5,237.8594 Q156.9063,237.5781 156.2813,237.5781 Q154.9375,237.5781 154.25,238.6563 Q153.5625,239.7188 153.5625,241.8125 Q153.5625,243.9063 154.25,244.9844 Q154.9375,246.0469 156.2813,246.0469 Q156.9063,246.0469 157.5,245.7813 Q158.0938,245.5 158.7188,244.9219 L158.7188,247.6406 Z "/><text fill="#000000" font-family="sans-serif" font-size="12" lengthAdjust="spacingAndGlyphs" textLength="220" x="176.25" y="246.1543">DisplayGpsManagerImplementation</text><line style="stroke: #A80036; stroke-width: 1.5;" x1="39" x2="501" y1="258" y2="258"/><rect fill="none" height="6" style="stroke: #C82930; stroke-width: 1.0;" width="6" x="46" y="266"/><text fill="#000000" font-family="sans-serif" font-size="11" lengthAdjust="spacingAndGlyphs" textLength="204" x="58" y="272.2104">MiddlewareGisInterface gisInterface</text><line style="stroke: #A80036; stroke-width: 1.5;" x1="39" x2="501" y1="278.8047" y2="278.8047"/><ellipse cx="49" cy="289.8047" fill="#84BE84" rx="3" ry="3" style="stroke: #038048; stroke-width: 1.0;"/><text fill="#000000" font-family="sans-serif" font-size="11" lengthAdjust="spacingAndGlyphs" textLength="413" x="58" y="293.0151">DisplayGpsManagerImplementation(MiddlewareGisInterface gisInterface)</text><ellipse cx="49" cy="319.4141" fill="#84BE84" rx="3" ry="3" style="stroke: #038048; stroke-width: 1.0;"/><text fill="#000000" font-family="sans-serif" font-size="11" lengthAdjust="spacingAndGlyphs" textLength="324" x="58" y="322.6245">String receiveGpsSignalStrength(Satellite satelliteSignal)</text><line style="stroke: #A80036; stroke-width: 1.0; stroke-dasharray: 1.0,2.0;" x1="39" x2="237" y1="306.0117" y2="306.0117"/><text fill="#000000" font-family="sans-serif" font-size="11" lengthAdjust="spacingAndGlyphs" textLength="66" x="237" y="309.3198">Use Case 1</text><line style="stroke: #A80036; stroke-width: 1.0; stroke-dasharray: 1.0,2.0;" x1="303" x2="501" y1="306.0117" y2="306.0117"/><ellipse cx="49" cy="349.0234" fill="#84BE84" rx="3" ry="3" style="stroke: #038048; stroke-width: 1.0;"/><text fill="#000000" font-family="sans-serif" font-size="11" lengthAdjust="spacingAndGlyphs" textLength="438" x="58" y="352.2339">SatelliteSignalCheckRequest passGpsSignalStrength(Satellite satelliteSignal)</text><line style="stroke: #A80036; stroke-width: 1.0; stroke-dasharray: 1.0,2.0;" x1="39" x2="237" y1="335.6211" y2="335.6211"/><text fill="#000000" font-family="sans-serif" font-size="11" lengthAdjust="spacingAndGlyphs" textLength="66" x="237" y="338.9292">Use Case 2</text><line style="stroke: #A80036; stroke-width: 1.0; stroke-dasharray: 1.0,2.0;" x1="303" x2="501" y1="335.6211" y2="335.6211"/><!--MD5=[31cbac78761b59e73153a97a452ed09a]
class DisplayGpsManager--><rect fill="#FEFECE" filter="url(#f31s1j12ellpk)" height="107.2188" id="DisplayGpsManager" style="stroke: #A80036; stroke-width: 1.5;" width="454" x="43" y="59"/><ellipse cx="204.75" cy="75" fill="#B4A7E5" rx="11" ry="11" style="stroke: #A80036; stroke-width: 1.0;"/><path d="M200.6719,70.7656 L200.6719,68.6094 L208.0625,68.6094 L208.0625,70.7656 L205.5938,70.7656 L205.5938,78.8438 L208.0625,78.8438 L208.0625,81 L200.6719,81 L200.6719,78.8438 L203.1406,78.8438 L203.1406,70.7656 L200.6719,70.7656 Z "/><text fill="#000000" font-family="sans-serif" font-size="12" font-style="italic" lengthAdjust="spacingAndGlyphs" textLength="122" x="225.25" y="79.1543">DisplayGpsManager</text><line style="stroke: #A80036; stroke-width: 1.5;" x1="44" x2="496" y1="91" y2="91"/><line style="stroke: #A80036; stroke-width: 1.5;" x1="44" x2="496" y1="99" y2="99"/><ellipse cx="54" cy="126.8047" fill="#84BE84" rx="3" ry="3" style="stroke: #038048; stroke-width: 1.0;"/><text fill="#000000" font-family="sans-serif" font-size="11" font-style="italic" lengthAdjust="spacingAndGlyphs" textLength="318" x="63" y="130.0151">String receiveGpsSignalStrength(Satellite satelliteSignal)</text><line style="stroke: #A80036; stroke-width: 1.0; stroke-dasharray: 1.0,2.0;" x1="44" x2="237" y1="113.4023" y2="113.4023"/><text fill="#000000" font-family="sans-serif" font-size="11" lengthAdjust="spacingAndGlyphs" textLength="66" x="237" y="116.7104">Use Case 1</text><line style="stroke: #A80036; stroke-width: 1.0; stroke-dasharray: 1.0,2.0;" x1="303" x2="496" y1="113.4023" y2="113.4023"/><ellipse cx="54" cy="156.4141" fill="#84BE84" rx="3" ry="3" style="stroke: #038048; stroke-width: 1.0;"/><text fill="#000000" font-family="sans-serif" font-size="11" font-style="italic" lengthAdjust="spacingAndGlyphs" textLength="428" x="63" y="159.6245">SatelliteSignalCheckRequest passGpsSignalStrength(Satellite satelliteSignal)</text><line style="stroke: #A80036; stroke-width: 1.0; stroke-dasharray: 1.0,2.0;" x1="44" x2="237" y1="143.0117" y2="143.0117"/><text fill="#000000" font-family="sans-serif" font-size="11" lengthAdjust="spacingAndGlyphs" textLength="66" x="237" y="146.3198">Use Case 2</text><line style="stroke: #A80036; stroke-width: 1.0; stroke-dasharray: 1.0,2.0;" x1="303" x2="496" y1="143.0117" y2="143.0117"/><!--MD5=[b7db7f9e4ca1b2f55d32a1a48f9dd068]
class SatelliteSignalCheckRequest--><rect fill="#FEFECE" filter="url(#f31s1j12ellpk)" height="112.0234" id="SatelliteSignalCheckRequest" style="stroke: #A80036; stroke-width: 1.5;" width="416" x="62" y="434"/><ellipse cx="176.25" cy="450" fill="#ADD1B2" rx="11" ry="11" style="stroke: #A80036; stroke-width: 1.0;"/><path d="M179.2188,455.6406 Q178.6406,455.9375 178,456.0781 Q177.3594,456.2344 176.6563,456.2344 Q174.1563,456.2344 172.8281,454.5938 Q171.5156,452.9375 171.5156,449.8125 Q171.5156,446.6875 172.8281,445.0313 Q174.1563,443.375 176.6563,443.375 Q177.3594,443.375 178,443.5313 Q178.6563,443.6875 179.2188,443.9844 L179.2188,446.7031 Q178.5938,446.125 178,445.8594 Q177.4063,445.5781 176.7813,445.5781 Q175.4375,445.5781 174.75,446.6563 Q174.0625,447.7188 174.0625,449.8125 Q174.0625,451.9063 174.75,452.9844 Q175.4375,454.0469 176.7813,454.0469 Q177.4063,454.0469 178,453.7813 Q178.5938,453.5 179.2188,452.9219 L179.2188,455.6406 Z "/><text fill="#000000" font-family="sans-serif" font-size="12" lengthAdjust="spacingAndGlyphs" textLength="179" x="196.75" y="454.1543">SatelliteSignalCheckRequest</text><line style="stroke: #A80036; stroke-width: 1.5;" x1="63" x2="477" y1="466" y2="466"/><rect fill="none" height="6" style="stroke: #C82930; stroke-width: 1.0;" width="6" x="70" y="474"/><text fill="#000000" font-family="sans-serif" font-size="11" lengthAdjust="spacingAndGlyphs" textLength="116" x="82" y="480.2104">String satelliteName</text><rect fill="none" height="6" style="stroke: #C82930; stroke-width: 1.0;" width="6" x="70" y="486.8047"/><text fill="#000000" font-family="sans-serif" font-size="11" lengthAdjust="spacingAndGlyphs" textLength="97" x="82" y="493.0151">String checkType</text><line style="stroke: #A80036; stroke-width: 1.5;" x1="63" x2="477" y1="499.6094" y2="499.6094"/><ellipse cx="73" cy="510.6094" fill="#84BE84" rx="3" ry="3" style="stroke: #038048; stroke-width: 1.0;"/><text fill="#000000" font-family="sans-serif" font-size="11" lengthAdjust="spacingAndGlyphs" textLength="390" x="82" y="513.8198">SatelliteSignalCheckRequest(String satelliteName, String checkType)</text><ellipse cx="73" cy="523.4141" fill="#84BE84" rx="3" ry="3" style="stroke: #038048; stroke-width: 1.0;"/><text fill="#000000" font-family="sans-serif" font-size="11" lengthAdjust="spacingAndGlyphs" textLength="143" x="82" y="526.6245">String getSatelliteName()</text><ellipse cx="73" cy="536.2188" fill="#84BE84" rx="3" ry="3" style="stroke: #038048; stroke-width: 1.0;"/><text fill="#000000" font-family="sans-serif" font-size="11" lengthAdjust="spacingAndGlyphs" textLength="125" x="82" y="539.4292">String getCheckType()</text><!--MD5=[6be1e14f889006c5f08853113ab490e0]
reverse link DisplayGpsManager to DisplayGpsManagerImplementation--><path d="M270,186.86 C270,199.78 270,213.15 270,225.85 " fill="none" id="DisplayGpsManager&lt;-DisplayGpsManagerImplementation" style="stroke: #A80036; stroke-width: 1.0; stroke-dasharray: 7.0,7.0;"/><polygon fill="none" points="263,186.42,270,166.42,277,186.42,263,186.42" style="stroke: #A80036; stroke-width: 1.0;"/><!--MD5=[7c1409244f780a6c86a58e8dd70df14d]
link DisplayGpsManagerImplementation to SatelliteSignalCheckRequest--><path d="M270,359.14 C270,381.63 270,406.67 270,428.72 " fill="none" id="DisplayGpsManagerImplementation-&gt;SatelliteSignalCheckRequest" style="stroke: #A80036; stroke-width: 1.0; stroke-dasharray: 7.0,7.0;"/><polygon fill="#A80036" points="270,433.96,274,424.96,270,428.96,266,424.96,270,433.96" style="stroke: #A80036; stroke-width: 1.0;"/><!--MD5=[34e87e899c078cb6b49ea392e7253c16]
@startuml DisplayGpsManagerImplementation_Closure


package edu.oakland.production.display01 {
  class DisplayGpsManagerImplementation {
    - MiddlewareGisInterface gisInterface
   __
    + DisplayGpsManagerImplementation(MiddlewareGisInterface gisInterface)
    .. Use Case 1 ..
    + String receiveGpsSignalStrength(Satellite satelliteSignal)
    .. Use Case 2 ..
    + SatelliteSignalCheckRequest passGpsSignalStrength(Satellite satelliteSignal)
    }
}




package edu.oakland.production.display01 {
    interface DisplayGpsManager {
        __
        .. Use Case 1 ..
        {abstract} + String receiveGpsSignalStrength(Satellite satelliteSignal)
        .. Use Case 2 ..
        {abstract} + SatelliteSignalCheckRequest passGpsSignalStrength(Satellite satelliteSignal)
    }
}






DisplayGpsManagerImplementation .up.|> DisplayGpsManager



package edu.oakland.helper.display01 {
    class SatelliteSignalCheckRequest {
        - String satelliteName
        - String checkType
        + SatelliteSignalCheckRequest(String satelliteName, String checkType)
        + String getSatelliteName()
        + String getCheckType()
    }
}






DisplayGpsManagerImplementation ..> SatelliteSignalCheckRequest



@enduml

PlantUML version 1.2020.02(Sun Mar 01 10:22:07 GMT 2020)
(GPL source distribution)
Java Runtime: OpenJDK Runtime Environment
JVM: OpenJDK 64-Bit Server VM
Java Version: 11.0.9+11-Ubuntu-0ubuntu1
Operating System: Linux
Default Encoding: ANSI_X3.4-1968
Language: en
Country: US
--></g></svg>