<?xml version="1.0" encoding="UTF-8" standalone="no"?><svg xmlns="http://www.w3.org/2000/svg" xmlns:xlink="http://www.w3.org/1999/xlink" contentScriptType="application/ecmascript" contentStyleType="text/css" height="361px" preserveAspectRatio="none" style="width:328px;height:361px;" version="1.1" viewBox="0 0 328 361" width="328px" zoomAndPan="magnify"><defs><filter height="300%" id="f15o1m7udw0tc6" width="300%" x="-1" y="-1"><feGaussianBlur result="blurOut" stdDeviation="2.0"/><feColorMatrix in="blurOut" result="blurOut2" type="matrix" values="0 0 0 0 0 0 0 0 0 0 0 0 0 0 0 0 0 0 .4 0"/><feOffset dx="4.0" dy="4.0" in="blurOut2" result="blurOut3"/><feBlend in="SourceGraphic" in2="blurOut3" mode="normal"/></filter></defs><g><!--MD5=[3e281e6f49e0b185d62a106a5d994a08]
cluster edu.oakland.production.display01--><polygon fill="#FFFFFF" filter="url(#f15o1m7udw0tc6)" points="22,24,295,24,302,46.2969,306,46.2969,306,349,22,349,22,24" style="stroke: #000000; stroke-width: 1.5;"/><line style="stroke: #000000; stroke-width: 1.5;" x1="22" x2="302" y1="46.2969" y2="46.2969"/><text fill="#000000" font-family="sans-serif" font-size="14" font-weight="bold" lengthAdjust="spacingAndGlyphs" textLength="267" x="26" y="38.9951">edu.oakland.production.display01</text><!--MD5=[85db0a5b69c4b55d7b0101612d8a7890]
class DisplayGpsManagerImplementation--><rect fill="#FEFECE" filter="url(#f15o1m7udw0tc6)" height="107.2188" id="DisplayGpsManagerImplementation" style="stroke: #A80036; stroke-width: 1.5;" width="252" x="38" y="226"/><ellipse cx="53" cy="242" fill="#ADD1B2" rx="11" ry="11" style="stroke: #A80036; stroke-width: 1.0;"/><path d="M55.9688,247.6406 Q55.3906,247.9375 54.75,248.0781 Q54.1094,248.2344 53.4063,248.2344 Q50.9063,248.2344 49.5781,246.5938 Q48.2656,244.9375 48.2656,241.8125 Q48.2656,238.6875 49.5781,237.0313 Q50.9063,235.375 53.4063,235.375 Q54.1094,235.375 54.75,235.5313 Q55.4063,235.6875 55.9688,235.9844 L55.9688,238.7031 Q55.3438,238.125 54.75,237.8594 Q54.1563,237.5781 53.5313,237.5781 Q52.1875,237.5781 51.5,238.6563 Q50.8125,239.7188 50.8125,241.8125 Q50.8125,243.9063 51.5,244.9844 Q52.1875,246.0469 53.5313,246.0469 Q54.1563,246.0469 54.75,245.7813 Q55.3438,245.5 55.9688,244.9219 L55.9688,247.6406 Z "/><text fill="#000000" font-family="sans-serif" font-size="12" lengthAdjust="spacingAndGlyphs" textLength="220" x="67" y="246.1543">DisplayGpsManagerImplementation</text><line style="stroke: #A80036; stroke-width: 1.5;" x1="39" x2="289" y1="258" y2="258"/><line style="stroke: #A80036; stroke-width: 1.5;" x1="39" x2="289" y1="266" y2="266"/><text fill="#000000" font-family="sans-serif" font-size="11" lengthAdjust="spacingAndGlyphs" textLength="0" x="48" y="297.0151"/><line style="stroke: #A80036; stroke-width: 1.0; stroke-dasharray: 1.0,2.0;" x1="39" x2="131" y1="280.4023" y2="280.4023"/><text fill="#000000" font-family="sans-serif" font-size="11" lengthAdjust="spacingAndGlyphs" textLength="66" x="131" y="283.7104">Use Case 1</text><line style="stroke: #A80036; stroke-width: 1.0; stroke-dasharray: 1.0,2.0;" x1="197" x2="289" y1="280.4023" y2="280.4023"/><text fill="#000000" font-family="sans-serif" font-size="11" lengthAdjust="spacingAndGlyphs" textLength="0" x="48" y="326.6245"/><line style="stroke: #A80036; stroke-width: 1.0; stroke-dasharray: 1.0,2.0;" x1="39" x2="131" y1="310.0117" y2="310.0117"/><text fill="#000000" font-family="sans-serif" font-size="11" lengthAdjust="spacingAndGlyphs" textLength="66" x="131" y="313.3198">Use Case 2</text><line style="stroke: #A80036; stroke-width: 1.0; stroke-dasharray: 1.0,2.0;" x1="197" x2="289" y1="310.0117" y2="310.0117"/><!--MD5=[31cbac78761b59e73153a97a452ed09a]
class DisplayGpsManager--><rect fill="#FEFECE" filter="url(#f15o1m7udw0tc6)" height="107.2188" id="DisplayGpsManager" style="stroke: #A80036; stroke-width: 1.5;" width="154" x="87" y="59"/><ellipse cx="102" cy="75" fill="#B4A7E5" rx="11" ry="11" style="stroke: #A80036; stroke-width: 1.0;"/><path d="M97.9219,70.7656 L97.9219,68.6094 L105.3125,68.6094 L105.3125,70.7656 L102.8438,70.7656 L102.8438,78.8438 L105.3125,78.8438 L105.3125,81 L97.9219,81 L97.9219,78.8438 L100.3906,78.8438 L100.3906,70.7656 L97.9219,70.7656 Z "/><text fill="#000000" font-family="sans-serif" font-size="12" font-style="italic" lengthAdjust="spacingAndGlyphs" textLength="122" x="116" y="79.1543">DisplayGpsManager</text><line style="stroke: #A80036; stroke-width: 1.5;" x1="88" x2="240" y1="91" y2="91"/><line style="stroke: #A80036; stroke-width: 1.5;" x1="88" x2="240" y1="99" y2="99"/><text fill="#000000" font-family="sans-serif" font-size="11" lengthAdjust="spacingAndGlyphs" textLength="0" x="97" y="130.0151"/><line style="stroke: #A80036; stroke-width: 1.0; stroke-dasharray: 1.0,2.0;" x1="88" x2="131" y1="113.4023" y2="113.4023"/><text fill="#000000" font-family="sans-serif" font-size="11" lengthAdjust="spacingAndGlyphs" textLength="66" x="131" y="116.7104">Use Case 1</text><line style="stroke: #A80036; stroke-width: 1.0; stroke-dasharray: 1.0,2.0;" x1="197" x2="240" y1="113.4023" y2="113.4023"/><text fill="#000000" font-family="sans-serif" font-size="11" lengthAdjust="spacingAndGlyphs" textLength="0" x="97" y="159.6245"/><line style="stroke: #A80036; stroke-width: 1.0; stroke-dasharray: 1.0,2.0;" x1="88" x2="131" y1="143.0117" y2="143.0117"/><text fill="#000000" font-family="sans-serif" font-size="11" lengthAdjust="spacingAndGlyphs" textLength="66" x="131" y="146.3198">Use Case 2</text><line style="stroke: #A80036; stroke-width: 1.0; stroke-dasharray: 1.0,2.0;" x1="197" x2="240" y1="143.0117" y2="143.0117"/><!--MD5=[6be1e14f889006c5f08853113ab490e0]
reverse link DisplayGpsManager to DisplayGpsManagerImplementation--><path d="M164,186.48 C164,199.71 164,213.27 164,225.77 " fill="none" id="DisplayGpsManager&lt;-DisplayGpsManagerImplementation" style="stroke: #A80036; stroke-width: 1.0; stroke-dasharray: 7.0,7.0;"/><polygon fill="none" points="157,186.16,164,166.16,171,186.16,157,186.16" style="stroke: #A80036; stroke-width: 1.0;"/><!--MD5=[39d6070844d5a31c7b191c21fad40664]
@startuml DisplayGpsManagerImplementation_DirectDependencies


package edu.oakland.production.display01 {
    class DisplayGpsManagerImplementation {
        __
        .. Use Case 1 ..

        .. Use Case 2 ..

    }
}



package edu.oakland.production.display01 {
    interface DisplayGpsManager {
        __
        .. Use Case 1 ..

        .. Use Case 2 ..

    }
}

DisplayGpsManagerImplementation .up.|> DisplayGpsManager





@enduml

PlantUML version 1.2020.02(Sun Mar 01 10:22:07 GMT 2020)
(GPL source distribution)
Java Runtime: OpenJDK Runtime Environment
JVM: OpenJDK 64-Bit Server VM
Java Version: 11.0.9+11-Ubuntu-0ubuntu1
Operating System: Linux
Default Encoding: ANSI_X3.4-1968
Language: en
Country: US
--></g></svg>