<?xml version="1.0" encoding="UTF-8" standalone="no"?><svg xmlns="http://www.w3.org/2000/svg" xmlns:xlink="http://www.w3.org/1999/xlink" contentScriptType="application/ecmascript" contentStyleType="text/css" height="520px" preserveAspectRatio="none" style="width:3300px;height:520px;" version="1.1" viewBox="0 0 3300 520" width="3300px" zoomAndPan="magnify"><defs><filter height="300%" id="f129qolpn40m2o" width="300%" x="-1" y="-1"><feGaussianBlur result="blurOut" stdDeviation="2.0"/><feColorMatrix in="blurOut" result="blurOut2" type="matrix" values="0 0 0 0 0 0 0 0 0 0 0 0 0 0 0 0 0 0 .4 0"/><feOffset dx="4.0" dy="4.0" in="blurOut2" result="blurOut3"/><feBlend in="SourceGraphic" in2="blurOut3" mode="normal"/></filter></defs><g><!--MD5=[3f116dbe56326f0321b4f8703f3bd2bd]
cluster edu.oakland.production.middleware01--><polygon fill="#FFFFFF" filter="url(#f129qolpn40m2o)" points="22,52,332,52,339,74.2969,1704,74.2969,1704,501.5,22,501.5,22,52" style="stroke: #000000; stroke-width: 1.5;"/><line style="stroke: #000000; stroke-width: 1.5;" x1="22" x2="339" y1="74.2969" y2="74.2969"/><text fill="#000000" font-family="sans-serif" font-size="14" font-weight="bold" lengthAdjust="spacingAndGlyphs" textLength="304" x="26" y="66.9951">edu.oakland.production.middleware01</text><!--MD5=[91c45ac7eb5545a65ecec592fddfa5fd]
cluster edu.oakland.test.middleware01--><polygon fill="#FFFFFF" filter="url(#f129qolpn40m2o)" points="1728,24,1983,24,1990,46.2969,2974,46.2969,2974,508,1728,508,1728,24" style="stroke: #000000; stroke-width: 1.5;"/><line style="stroke: #000000; stroke-width: 1.5;" x1="1728" x2="1990" y1="46.2969" y2="46.2969"/><text fill="#000000" font-family="sans-serif" font-size="14" font-weight="bold" lengthAdjust="spacingAndGlyphs" textLength="249" x="1732" y="38.9951">edu.oakland.test.middleware01</text><!--MD5=[291cbaddec1abeb2a8a54e5a343c76e9]
class MiddlewareGisInterface--><rect fill="#FEFECE" filter="url(#f129qolpn40m2o)" height="107.2188" id="MiddlewareGisInterface" style="stroke: #A80036; stroke-width: 1.5;" width="365" x="127.5" y="93.5"/><ellipse cx="232.75" cy="109.5" fill="#B4A7E5" rx="11" ry="11" style="stroke: #A80036; stroke-width: 1.0;"/><path d="M228.6719,105.2656 L228.6719,103.1094 L236.0625,103.1094 L236.0625,105.2656 L233.5938,105.2656 L233.5938,113.3438 L236.0625,113.3438 L236.0625,115.5 L228.6719,115.5 L228.6719,113.3438 L231.1406,113.3438 L231.1406,105.2656 L228.6719,105.2656 Z "/><text fill="#000000" font-family="sans-serif" font-size="12" font-style="italic" lengthAdjust="spacingAndGlyphs" textLength="146" x="253.25" y="113.6543">MiddlewareGisInterface</text><line style="stroke: #A80036; stroke-width: 1.5;" x1="128.5" x2="491.5" y1="125.5" y2="125.5"/><line style="stroke: #A80036; stroke-width: 1.5;" x1="128.5" x2="491.5" y1="133.5" y2="133.5"/><ellipse cx="138.5" cy="161.3047" fill="#84BE84" rx="3" ry="3" style="stroke: #038048; stroke-width: 1.0;"/><text fill="#000000" font-family="sans-serif" font-size="11" font-style="italic" lengthAdjust="spacingAndGlyphs" textLength="339" x="147.5" y="164.5151">String receiveGpsSignalStrengthUc1(Satellite satelliteSignal)</text><line style="stroke: #A80036; stroke-width: 1.0; stroke-dasharray: 1.0,2.0;" x1="128.5" x2="277" y1="147.9023" y2="147.9023"/><text fill="#000000" font-family="sans-serif" font-size="11" lengthAdjust="spacingAndGlyphs" textLength="66" x="277" y="151.2104">Use Case 1</text><line style="stroke: #A80036; stroke-width: 1.0; stroke-dasharray: 1.0,2.0;" x1="343" x2="491.5" y1="147.9023" y2="147.9023"/><ellipse cx="138.5" cy="190.9141" fill="#84BE84" rx="3" ry="3" style="stroke: #038048; stroke-width: 1.0;"/><text fill="#000000" font-family="sans-serif" font-size="11" font-style="italic" lengthAdjust="spacingAndGlyphs" textLength="339" x="147.5" y="194.1245">String receiveGpsSignalStrengthUc2(Satellite satelliteSignal)</text><line style="stroke: #A80036; stroke-width: 1.0; stroke-dasharray: 1.0,2.0;" x1="128.5" x2="277" y1="177.5117" y2="177.5117"/><text fill="#000000" font-family="sans-serif" font-size="11" lengthAdjust="spacingAndGlyphs" textLength="66" x="277" y="180.8198">Use Case 2</text><line style="stroke: #A80036; stroke-width: 1.0; stroke-dasharray: 1.0,2.0;" x1="343" x2="491.5" y1="177.5117" y2="177.5117"/><!--MD5=[8ee200b6efa8fed886485614c0f8779a]
class MiddlewareGisProcessor--><rect fill="#FEFECE" filter="url(#f129qolpn40m2o)" height="107.2188" id="MiddlewareGisProcessor" style="stroke: #A80036; stroke-width: 1.5;" width="352" x="527" y="93.5"/><ellipse cx="624.25" cy="109.5" fill="#B4A7E5" rx="11" ry="11" style="stroke: #A80036; stroke-width: 1.0;"/><path d="M620.1719,105.2656 L620.1719,103.1094 L627.5625,103.1094 L627.5625,105.2656 L625.0938,105.2656 L625.0938,113.3438 L627.5625,113.3438 L627.5625,115.5 L620.1719,115.5 L620.1719,113.3438 L622.6406,113.3438 L622.6406,105.2656 L620.1719,105.2656 Z "/><text fill="#000000" font-family="sans-serif" font-size="12" font-style="italic" lengthAdjust="spacingAndGlyphs" textLength="149" x="644.75" y="113.6543">MiddlewareGisProcessor</text><line style="stroke: #A80036; stroke-width: 1.5;" x1="528" x2="878" y1="125.5" y2="125.5"/><line style="stroke: #A80036; stroke-width: 1.5;" x1="528" x2="878" y1="133.5" y2="133.5"/><ellipse cx="538" cy="161.3047" fill="#84BE84" rx="3" ry="3" style="stroke: #038048; stroke-width: 1.0;"/><text fill="#000000" font-family="sans-serif" font-size="11" font-style="italic" lengthAdjust="spacingAndGlyphs" textLength="325" x="547" y="164.5151">String evaluateGpsSignalStrength(Satellite satelliteSignal)</text><line style="stroke: #A80036; stroke-width: 1.0; stroke-dasharray: 1.0,2.0;" x1="528" x2="670" y1="147.9023" y2="147.9023"/><text fill="#000000" font-family="sans-serif" font-size="11" lengthAdjust="spacingAndGlyphs" textLength="66" x="670" y="151.2104">Use Case 1</text><line style="stroke: #A80036; stroke-width: 1.0; stroke-dasharray: 1.0,2.0;" x1="736" x2="878" y1="147.9023" y2="147.9023"/><ellipse cx="538" cy="190.9141" fill="#84BE84" rx="3" ry="3" style="stroke: #038048; stroke-width: 1.0;"/><text fill="#000000" font-family="sans-serif" font-size="11" font-style="italic" lengthAdjust="spacingAndGlyphs" textLength="326" x="547" y="194.1245">String measureGpsSignalStrength(Satellite satelliteSignal)</text><line style="stroke: #A80036; stroke-width: 1.0; stroke-dasharray: 1.0,2.0;" x1="528" x2="670" y1="177.5117" y2="177.5117"/><text fill="#000000" font-family="sans-serif" font-size="11" lengthAdjust="spacingAndGlyphs" textLength="66" x="670" y="180.8198">Use Case 2</text><line style="stroke: #A80036; stroke-width: 1.0; stroke-dasharray: 1.0,2.0;" x1="736" x2="878" y1="177.5117" y2="177.5117"/><!--MD5=[6b8f2796bf9a05cb61532ec918b7c92e]
class MiddlewareGisManager--><rect fill="#FEFECE" filter="url(#f129qolpn40m2o)" height="120.0234" id="MiddlewareGisManager" style="stroke: #A80036; stroke-width: 1.5;" width="351" x="914.5" y="87"/><ellipse cx="1013.75" cy="103" fill="#B4A7E5" rx="11" ry="11" style="stroke: #A80036; stroke-width: 1.0;"/><path d="M1009.6719,98.7656 L1009.6719,96.6094 L1017.0625,96.6094 L1017.0625,98.7656 L1014.5938,98.7656 L1014.5938,106.8438 L1017.0625,106.8438 L1017.0625,109 L1009.6719,109 L1009.6719,106.8438 L1012.1406,106.8438 L1012.1406,98.7656 L1009.6719,98.7656 Z "/><text fill="#000000" font-family="sans-serif" font-size="12" font-style="italic" lengthAdjust="spacingAndGlyphs" textLength="144" x="1034.25" y="107.1543">MiddlewareGisManager</text><line style="stroke: #A80036; stroke-width: 1.5;" x1="915.5" x2="1264.5" y1="119" y2="119"/><line style="stroke: #A80036; stroke-width: 1.5;" x1="915.5" x2="1264.5" y1="127" y2="127"/><ellipse cx="925.5" cy="154.8047" fill="#84BE84" rx="3" ry="3" style="stroke: #038048; stroke-width: 1.0;"/><text fill="#000000" font-family="sans-serif" font-size="11" font-style="italic" lengthAdjust="spacingAndGlyphs" textLength="325" x="934.5" y="158.0151">String receieveGpsSignalStrength(Satellite satelliteSignal)</text><ellipse cx="925.5" cy="167.6094" fill="#84BE84" rx="3" ry="3" style="stroke: #038048; stroke-width: 1.0;"/><text fill="#000000" font-family="sans-serif" font-size="11" font-style="italic" lengthAdjust="spacingAndGlyphs" textLength="166" x="934.5" y="170.8198">void storeLocationDataPoint()</text><line style="stroke: #A80036; stroke-width: 1.0; stroke-dasharray: 1.0,2.0;" x1="915.5" x2="1057" y1="141.4023" y2="141.4023"/><text fill="#000000" font-family="sans-serif" font-size="11" lengthAdjust="spacingAndGlyphs" textLength="66" x="1057" y="144.7104">Use Case 1</text><line style="stroke: #A80036; stroke-width: 1.0; stroke-dasharray: 1.0,2.0;" x1="1123" x2="1264.5" y1="141.4023" y2="141.4023"/><ellipse cx="925.5" cy="197.2188" fill="#84BE84" rx="3" ry="3" style="stroke: #038048; stroke-width: 1.0;"/><text fill="#000000" font-family="sans-serif" font-size="11" font-style="italic" lengthAdjust="spacingAndGlyphs" textLength="291" x="934.5" y="200.4292">String evaluateGpsSignalStrength(Satellite satellite)</text><line style="stroke: #A80036; stroke-width: 1.0; stroke-dasharray: 1.0,2.0;" x1="915.5" x2="1057" y1="183.8164" y2="183.8164"/><text fill="#000000" font-family="sans-serif" font-size="11" lengthAdjust="spacingAndGlyphs" textLength="66" x="1057" y="187.1245">Use Case 2</text><line style="stroke: #A80036; stroke-width: 1.0; stroke-dasharray: 1.0,2.0;" x1="1123" x2="1264.5" y1="183.8164" y2="183.8164"/><!--MD5=[00cae90dad3d6433dbf28d238006c643]
class MiddlewareGisInterfaceImplementation--><rect fill="#FEFECE" filter="url(#f129qolpn40m2o)" height="132.8281" id="MiddlewareGisInterfaceImplementation" style="stroke: #A80036; stroke-width: 1.5;" width="543" x="38.5" y="327"/><ellipse cx="184.75" cy="343" fill="#ADD1B2" rx="11" ry="11" style="stroke: #A80036; stroke-width: 1.0;"/><path d="M187.7188,348.6406 Q187.1406,348.9375 186.5,349.0781 Q185.8594,349.2344 185.1563,349.2344 Q182.6563,349.2344 181.3281,347.5938 Q180.0156,345.9375 180.0156,342.8125 Q180.0156,339.6875 181.3281,338.0313 Q182.6563,336.375 185.1563,336.375 Q185.8594,336.375 186.5,336.5313 Q187.1563,336.6875 187.7188,336.9844 L187.7188,339.7031 Q187.0938,339.125 186.5,338.8594 Q185.9063,338.5781 185.2813,338.5781 Q183.9375,338.5781 183.25,339.6563 Q182.5625,340.7188 182.5625,342.8125 Q182.5625,344.9063 183.25,345.9844 Q183.9375,347.0469 185.2813,347.0469 Q185.9063,347.0469 186.5,346.7813 Q187.0938,346.5 187.7188,345.9219 L187.7188,348.6406 Z "/><text fill="#000000" font-family="sans-serif" font-size="12" lengthAdjust="spacingAndGlyphs" textLength="242" x="205.25" y="347.1543">MiddlewareGisInterfaceImplementation</text><line style="stroke: #A80036; stroke-width: 1.5;" x1="39.5" x2="580.5" y1="359" y2="359"/><rect fill="none" height="6" style="stroke: #C82930; stroke-width: 1.0;" width="6" x="46.5" y="367"/><text fill="#000000" font-family="sans-serif" font-size="11" lengthAdjust="spacingAndGlyphs" textLength="288" x="58.5" y="373.2104">MiddlewareGisProcessor middlewareGisProcessor</text><line style="stroke: #A80036; stroke-width: 1.5;" x1="39.5" x2="580.5" y1="379.8047" y2="379.8047"/><ellipse cx="49.5" cy="390.8047" fill="#84BE84" rx="3" ry="3" style="stroke: #038048; stroke-width: 1.0;"/><text fill="#000000" font-family="sans-serif" font-size="11" lengthAdjust="spacingAndGlyphs" textLength="517" x="58.5" y="394.0151">MiddlewareGisInterfaceImplementation(MiddlewareGisProcessor middlewareGisProcessor)</text><ellipse cx="49.5" cy="420.4141" fill="#84BE84" rx="3" ry="3" style="stroke: #038048; stroke-width: 1.0;"/><text fill="#000000" font-family="sans-serif" font-size="11" lengthAdjust="spacingAndGlyphs" textLength="345" x="58.5" y="423.6245">String receiveGpsSignalStrengthUc1(Satellite satelliteSignal)</text><line style="stroke: #A80036; stroke-width: 1.0; stroke-dasharray: 1.0,2.0;" x1="39.5" x2="277" y1="407.0117" y2="407.0117"/><text fill="#000000" font-family="sans-serif" font-size="11" lengthAdjust="spacingAndGlyphs" textLength="66" x="277" y="410.3198">Use Case 1</text><line style="stroke: #A80036; stroke-width: 1.0; stroke-dasharray: 1.0,2.0;" x1="343" x2="580.5" y1="407.0117" y2="407.0117"/><ellipse cx="49.5" cy="450.0234" fill="#84BE84" rx="3" ry="3" style="stroke: #038048; stroke-width: 1.0;"/><text fill="#000000" font-family="sans-serif" font-size="11" lengthAdjust="spacingAndGlyphs" textLength="345" x="58.5" y="453.2339">String receiveGpsSignalStrengthUc2(Satellite satelliteSignal)</text><line style="stroke: #A80036; stroke-width: 1.0; stroke-dasharray: 1.0,2.0;" x1="39.5" x2="277" y1="436.6211" y2="436.6211"/><text fill="#000000" font-family="sans-serif" font-size="11" lengthAdjust="spacingAndGlyphs" textLength="66" x="277" y="439.9292">Use Case 2</text><line style="stroke: #A80036; stroke-width: 1.0; stroke-dasharray: 1.0,2.0;" x1="343" x2="580.5" y1="436.6211" y2="436.6211"/><!--MD5=[5617cf6c0203deaad7dbff4f5099a816]
class MiddlewareGisProcessorImplementation--><rect fill="#FEFECE" filter="url(#f129qolpn40m2o)" height="132.8281" id="MiddlewareGisProcessorImplementation" style="stroke: #A80036; stroke-width: 1.5;" width="533" x="616.5" y="327"/><ellipse cx="754.25" cy="343" fill="#ADD1B2" rx="11" ry="11" style="stroke: #A80036; stroke-width: 1.0;"/><path d="M757.2188,348.6406 Q756.6406,348.9375 756,349.0781 Q755.3594,349.2344 754.6563,349.2344 Q752.1563,349.2344 750.8281,347.5938 Q749.5156,345.9375 749.5156,342.8125 Q749.5156,339.6875 750.8281,338.0313 Q752.1563,336.375 754.6563,336.375 Q755.3594,336.375 756,336.5313 Q756.6563,336.6875 757.2188,336.9844 L757.2188,339.7031 Q756.5938,339.125 756,338.8594 Q755.4063,338.5781 754.7813,338.5781 Q753.4375,338.5781 752.75,339.6563 Q752.0625,340.7188 752.0625,342.8125 Q752.0625,344.9063 752.75,345.9844 Q753.4375,347.0469 754.7813,347.0469 Q755.4063,347.0469 756,346.7813 Q756.5938,346.5 757.2188,345.9219 L757.2188,348.6406 Z "/><text fill="#000000" font-family="sans-serif" font-size="12" lengthAdjust="spacingAndGlyphs" textLength="249" x="774.75" y="347.1543">MiddlewareGisProcessorImplementation</text><line style="stroke: #A80036; stroke-width: 1.5;" x1="617.5" x2="1148.5" y1="359" y2="359"/><rect fill="none" height="6" style="stroke: #C82930; stroke-width: 1.0;" width="6" x="624.5" y="367"/><text fill="#000000" font-family="sans-serif" font-size="11" lengthAdjust="spacingAndGlyphs" textLength="270" x="636.5" y="373.2104">MiddlewareGisManager middlewareGisManager</text><line style="stroke: #A80036; stroke-width: 1.5;" x1="617.5" x2="1148.5" y1="379.8047" y2="379.8047"/><ellipse cx="627.5" cy="390.8047" fill="#84BE84" rx="3" ry="3" style="stroke: #038048; stroke-width: 1.0;"/><text fill="#000000" font-family="sans-serif" font-size="11" lengthAdjust="spacingAndGlyphs" textLength="507" x="636.5" y="394.0151">MiddlewareGisProcessorImplementation(MiddlewareGisManager middlewareGisManager)</text><ellipse cx="627.5" cy="420.4141" fill="#84BE84" rx="3" ry="3" style="stroke: #038048; stroke-width: 1.0;"/><text fill="#000000" font-family="sans-serif" font-size="11" lengthAdjust="spacingAndGlyphs" textLength="331" x="636.5" y="423.6245">String evaluateGpsSignalStrength(Satellite satelliteSignal)</text><line style="stroke: #A80036; stroke-width: 1.0; stroke-dasharray: 1.0,2.0;" x1="617.5" x2="850" y1="407.0117" y2="407.0117"/><text fill="#000000" font-family="sans-serif" font-size="11" lengthAdjust="spacingAndGlyphs" textLength="66" x="850" y="410.3198">Use Case 1</text><line style="stroke: #A80036; stroke-width: 1.0; stroke-dasharray: 1.0,2.0;" x1="916" x2="1148.5" y1="407.0117" y2="407.0117"/><ellipse cx="627.5" cy="450.0234" fill="#84BE84" rx="3" ry="3" style="stroke: #038048; stroke-width: 1.0;"/><text fill="#000000" font-family="sans-serif" font-size="11" lengthAdjust="spacingAndGlyphs" textLength="334" x="636.5" y="453.2339">String measureGpsSignalStrength(Satellite satelliteSignal)</text><line style="stroke: #A80036; stroke-width: 1.0; stroke-dasharray: 1.0,2.0;" x1="617.5" x2="850" y1="436.6211" y2="436.6211"/><text fill="#000000" font-family="sans-serif" font-size="11" lengthAdjust="spacingAndGlyphs" textLength="66" x="850" y="439.9292">Use Case 2</text><line style="stroke: #A80036; stroke-width: 1.0; stroke-dasharray: 1.0,2.0;" x1="916" x2="1148.5" y1="436.6211" y2="436.6211"/><!--MD5=[95fb96a46a83d39a2e18236f313a92fb]
class MiddlewareGisManagerImplementation--><rect fill="#FEFECE" filter="url(#f129qolpn40m2o)" height="184.0469" id="MiddlewareGisManagerImplementation" style="stroke: #A80036; stroke-width: 1.5;" width="503" x="1184.5" y="301.5"/><ellipse cx="1311.25" cy="317.5" fill="#ADD1B2" rx="11" ry="11" style="stroke: #A80036; stroke-width: 1.0;"/><path d="M1314.2188,323.1406 Q1313.6406,323.4375 1313,323.5781 Q1312.3594,323.7344 1311.6563,323.7344 Q1309.1563,323.7344 1307.8281,322.0938 Q1306.5156,320.4375 1306.5156,317.3125 Q1306.5156,314.1875 1307.8281,312.5313 Q1309.1563,310.875 1311.6563,310.875 Q1312.3594,310.875 1313,311.0313 Q1313.6563,311.1875 1314.2188,311.4844 L1314.2188,314.2031 Q1313.5938,313.625 1313,313.3594 Q1312.4063,313.0781 1311.7813,313.0781 Q1310.4375,313.0781 1309.75,314.1563 Q1309.0625,315.2188 1309.0625,317.3125 Q1309.0625,319.4063 1309.75,320.4844 Q1310.4375,321.5469 1311.7813,321.5469 Q1312.4063,321.5469 1313,321.2813 Q1313.5938,321 1314.2188,320.4219 L1314.2188,323.1406 Z "/><text fill="#000000" font-family="sans-serif" font-size="12" lengthAdjust="spacingAndGlyphs" textLength="241" x="1331.75" y="321.6543">MiddlewareGisManagerImplementation</text><line style="stroke: #A80036; stroke-width: 1.5;" x1="1185.5" x2="1686.5" y1="333.5" y2="333.5"/><rect fill="none" height="6" style="stroke: #C82930; stroke-width: 1.0;" width="6" x="1192.5" y="341.5"/><text fill="#000000" font-family="sans-serif" font-size="11" lengthAdjust="spacingAndGlyphs" textLength="249" x="1204.5" y="347.7104">DatabaseGisInterface databaseGisInterface</text><rect fill="none" height="6" style="stroke: #C82930; stroke-width: 1.0;" width="6" x="1192.5" y="354.3047"/><text fill="#000000" font-family="sans-serif" font-size="11" lengthAdjust="spacingAndGlyphs" textLength="203" x="1204.5" y="360.5151">LocationDataPoint locationDataPoint</text><rect fill="none" height="6" style="stroke: #C82930; stroke-width: 1.0;" width="6" x="1192.5" y="367.1094"/><text fill="#000000" font-family="sans-serif" font-size="11" lengthAdjust="spacingAndGlyphs" textLength="130" x="1204.5" y="373.3198">Satellite satelliteSignal</text><line style="stroke: #A80036; stroke-width: 1.5;" x1="1185.5" x2="1686.5" y1="379.9141" y2="379.9141"/><ellipse cx="1195.5" cy="390.9141" fill="#84BE84" rx="3" ry="3" style="stroke: #038048; stroke-width: 1.0;"/><text fill="#000000" font-family="sans-serif" font-size="11" lengthAdjust="spacingAndGlyphs" textLength="477" x="1204.5" y="394.1245">MiddlewareGisManagerImplementation(DatabaseGisInterface databaseGisInterface)</text><ellipse cx="1195.5" cy="420.5234" fill="#84BE84" rx="3" ry="3" style="stroke: #038048; stroke-width: 1.0;"/><text fill="#000000" font-family="sans-serif" font-size="11" lengthAdjust="spacingAndGlyphs" textLength="331" x="1204.5" y="423.7339">String receieveGpsSignalStrength(Satellite satelliteSignal)</text><ellipse cx="1195.5" cy="433.3281" fill="#84BE84" rx="3" ry="3" style="stroke: #038048; stroke-width: 1.0;"/><text fill="#000000" font-family="sans-serif" font-size="11" lengthAdjust="spacingAndGlyphs" textLength="166" x="1204.5" y="436.5386">void storeLocationDataPoint()</text><line style="stroke: #A80036; stroke-width: 1.0; stroke-dasharray: 1.0,2.0;" x1="1185.5" x2="1403" y1="407.1211" y2="407.1211"/><text fill="#000000" font-family="sans-serif" font-size="11" lengthAdjust="spacingAndGlyphs" textLength="66" x="1403" y="410.4292">Use Case 1</text><line style="stroke: #A80036; stroke-width: 1.0; stroke-dasharray: 1.0,2.0;" x1="1469" x2="1686.5" y1="407.1211" y2="407.1211"/><ellipse cx="1195.5" cy="462.9375" fill="#84BE84" rx="3" ry="3" style="stroke: #038048; stroke-width: 1.0;"/><text fill="#000000" font-family="sans-serif" font-size="11" lengthAdjust="spacingAndGlyphs" textLength="296" x="1204.5" y="466.1479">String evaluateGpsSignalStrength(Satellite satellite)</text><rect fill="#F24D5C" height="6" style="stroke: #C82930; stroke-width: 1.0;" width="6" x="1192.5" y="472.7422"/><text fill="#000000" font-family="sans-serif" font-size="11" lengthAdjust="spacingAndGlyphs" textLength="213" x="1204.5" y="478.9526">boolean isStrongEnough(int strength)</text><line style="stroke: #A80036; stroke-width: 1.0; stroke-dasharray: 1.0,2.0;" x1="1185.5" x2="1403" y1="449.5352" y2="449.5352"/><text fill="#000000" font-family="sans-serif" font-size="11" lengthAdjust="spacingAndGlyphs" textLength="66" x="1403" y="452.8433">Use Case 2</text><line style="stroke: #A80036; stroke-width: 1.0; stroke-dasharray: 1.0,2.0;" x1="1469" x2="1686.5" y1="449.5352" y2="449.5352"/><!--MD5=[1d62022545d33e2b298eed7e640a6861]
class MiddlewareGisInterfaceImplementationTests--><rect fill="#FEFECE" filter="url(#f129qolpn40m2o)" height="86.4141" id="MiddlewareGisInterfaceImplementationTests" style="stroke: #A80036; stroke-width: 1.5;" width="308" x="1770" y="104"/><ellipse cx="1785" cy="120" fill="#ADD1B2" rx="11" ry="11" style="stroke: #A80036; stroke-width: 1.0;"/><path d="M1787.9688,125.6406 Q1787.3906,125.9375 1786.75,126.0781 Q1786.1094,126.2344 1785.4063,126.2344 Q1782.9063,126.2344 1781.5781,124.5938 Q1780.2656,122.9375 1780.2656,119.8125 Q1780.2656,116.6875 1781.5781,115.0313 Q1782.9063,113.375 1785.4063,113.375 Q1786.1094,113.375 1786.75,113.5313 Q1787.4063,113.6875 1787.9688,113.9844 L1787.9688,116.7031 Q1787.3438,116.125 1786.75,115.8594 Q1786.1563,115.5781 1785.5313,115.5781 Q1784.1875,115.5781 1783.5,116.6563 Q1782.8125,117.7188 1782.8125,119.8125 Q1782.8125,121.9063 1783.5,122.9844 Q1784.1875,124.0469 1785.5313,124.0469 Q1786.1563,124.0469 1786.75,123.7813 Q1787.3438,123.5 1787.9688,122.9219 L1787.9688,125.6406 Z "/><text fill="#000000" font-family="sans-serif" font-size="12" lengthAdjust="spacingAndGlyphs" textLength="276" x="1799" y="124.1543">MiddlewareGisInterfaceImplementationTests</text><line style="stroke: #A80036; stroke-width: 1.5;" x1="1771" x2="2077" y1="136" y2="136"/><line style="stroke: #A80036; stroke-width: 1.5;" x1="1771" x2="2077" y1="144" y2="144"/><ellipse cx="1781" cy="155" fill="#84BE84" rx="3" ry="3" style="stroke: #038048; stroke-width: 1.0;"/><text fill="#000000" font-family="sans-serif" font-size="11" lengthAdjust="spacingAndGlyphs" textLength="182" x="1790" y="158.2104">void passedSignalStrengthUc1()</text><ellipse cx="1781" cy="167.8047" fill="#84BE84" rx="3" ry="3" style="stroke: #038048; stroke-width: 1.0;"/><text fill="#000000" font-family="sans-serif" font-size="11" lengthAdjust="spacingAndGlyphs" textLength="182" x="1790" y="171.0151">void passedSignalStrengthUc2()</text><ellipse cx="1781" cy="180.6094" fill="#84BE84" rx="3" ry="3" style="stroke: #038048; stroke-width: 1.0;"/><text fill="#000000" font-family="sans-serif" font-size="11" lengthAdjust="spacingAndGlyphs" textLength="143" x="1790" y="183.8198">void processorIsNotNull()</text><!--MD5=[9d979fd86c0627804733ee7219a6151e]
class MiddlewareGisProcessorImplementationTests--><rect fill="#FEFECE" filter="url(#f129qolpn40m2o)" height="86.4141" id="MiddlewareGisProcessorImplementationTests" style="stroke: #A80036; stroke-width: 1.5;" width="315" x="2113.5" y="104"/><ellipse cx="2128.5" cy="120" fill="#ADD1B2" rx="11" ry="11" style="stroke: #A80036; stroke-width: 1.0;"/><path d="M2131.4688,125.6406 Q2130.8906,125.9375 2130.25,126.0781 Q2129.6094,126.2344 2128.9063,126.2344 Q2126.4063,126.2344 2125.0781,124.5938 Q2123.7656,122.9375 2123.7656,119.8125 Q2123.7656,116.6875 2125.0781,115.0313 Q2126.4063,113.375 2128.9063,113.375 Q2129.6094,113.375 2130.25,113.5313 Q2130.9063,113.6875 2131.4688,113.9844 L2131.4688,116.7031 Q2130.8438,116.125 2130.25,115.8594 Q2129.6563,115.5781 2129.0313,115.5781 Q2127.6875,115.5781 2127,116.6563 Q2126.3125,117.7188 2126.3125,119.8125 Q2126.3125,121.9063 2127,122.9844 Q2127.6875,124.0469 2129.0313,124.0469 Q2129.6563,124.0469 2130.25,123.7813 Q2130.8438,123.5 2131.4688,122.9219 L2131.4688,125.6406 Z "/><text fill="#000000" font-family="sans-serif" font-size="12" lengthAdjust="spacingAndGlyphs" textLength="283" x="2142.5" y="124.1543">MiddlewareGisProcessorImplementationTests</text><line style="stroke: #A80036; stroke-width: 1.5;" x1="2114.5" x2="2427.5" y1="136" y2="136"/><line style="stroke: #A80036; stroke-width: 1.5;" x1="2114.5" x2="2427.5" y1="144" y2="144"/><ellipse cx="2124.5" cy="155" fill="#84BE84" rx="3" ry="3" style="stroke: #038048; stroke-width: 1.0;"/><text fill="#000000" font-family="sans-serif" font-size="11" lengthAdjust="spacingAndGlyphs" textLength="173" x="2133.5" y="158.2104">void isGpsSignalStrengthNull()</text><ellipse cx="2124.5" cy="167.8047" fill="#84BE84" rx="3" ry="3" style="stroke: #038048; stroke-width: 1.0;"/><text fill="#000000" font-family="sans-serif" font-size="11" lengthAdjust="spacingAndGlyphs" textLength="205" x="2133.5" y="171.0151">void checkValueGpsSignalStrength()</text><ellipse cx="2124.5" cy="180.6094" fill="#84BE84" rx="3" ry="3" style="stroke: #038048; stroke-width: 1.0;"/><text fill="#000000" font-family="sans-serif" font-size="11" lengthAdjust="spacingAndGlyphs" textLength="136" x="2133.5" y="183.8198">void managerIsNotNull()</text><!--MD5=[d234de36885e20e607a6cce78b3173aa]
class MiddlewareGisManagerImplementationTests--><rect fill="#FEFECE" filter="url(#f129qolpn40m2o)" height="176.0469" id="MiddlewareGisManagerImplementationTests" style="stroke: #A80036; stroke-width: 1.5;" width="307" x="2463.5" y="59"/><ellipse cx="2478.5" cy="75" fill="#ADD1B2" rx="11" ry="11" style="stroke: #A80036; stroke-width: 1.0;"/><path d="M2481.4688,80.6406 Q2480.8906,80.9375 2480.25,81.0781 Q2479.6094,81.2344 2478.9063,81.2344 Q2476.4063,81.2344 2475.0781,79.5938 Q2473.7656,77.9375 2473.7656,74.8125 Q2473.7656,71.6875 2475.0781,70.0313 Q2476.4063,68.375 2478.9063,68.375 Q2479.6094,68.375 2480.25,68.5313 Q2480.9063,68.6875 2481.4688,68.9844 L2481.4688,71.7031 Q2480.8438,71.125 2480.25,70.8594 Q2479.6563,70.5781 2479.0313,70.5781 Q2477.6875,70.5781 2477,71.6563 Q2476.3125,72.7188 2476.3125,74.8125 Q2476.3125,76.9063 2477,77.9844 Q2477.6875,79.0469 2479.0313,79.0469 Q2479.6563,79.0469 2480.25,78.7813 Q2480.8438,78.5 2481.4688,77.9219 L2481.4688,80.6406 Z "/><text fill="#000000" font-family="sans-serif" font-size="12" lengthAdjust="spacingAndGlyphs" textLength="275" x="2492.5" y="79.1543">MiddlewareGisManagerImplementationTests</text><line style="stroke: #A80036; stroke-width: 1.5;" x1="2464.5" x2="2769.5" y1="91" y2="91"/><line style="stroke: #A80036; stroke-width: 1.5;" x1="2464.5" x2="2769.5" y1="99" y2="99"/><ellipse cx="2474.5" cy="110" fill="#84BE84" rx="3" ry="3" style="stroke: #038048; stroke-width: 1.0;"/><text fill="#000000" font-family="sans-serif" font-size="11" lengthAdjust="spacingAndGlyphs" textLength="213" x="2483.5" y="113.2104">void nullLocationDataPointNotStored()</text><ellipse cx="2474.5" cy="122.8047" fill="#84BE84" rx="3" ry="3" style="stroke: #038048; stroke-width: 1.0;"/><text fill="#000000" font-family="sans-serif" font-size="11" lengthAdjust="spacingAndGlyphs" textLength="226" x="2483.5" y="126.0151">void isGpsSignalStrengthEvaluateTrue()</text><ellipse cx="2474.5" cy="135.6094" fill="#84BE84" rx="3" ry="3" style="stroke: #038048; stroke-width: 1.0;"/><text fill="#000000" font-family="sans-serif" font-size="11" lengthAdjust="spacingAndGlyphs" textLength="230" x="2483.5" y="138.8198">void isGpsSignalStrengthEvaluateFalse()</text><ellipse cx="2474.5" cy="148.4141" fill="#84BE84" rx="3" ry="3" style="stroke: #038048; stroke-width: 1.0;"/><text fill="#000000" font-family="sans-serif" font-size="11" lengthAdjust="spacingAndGlyphs" textLength="112" x="2483.5" y="151.6245">void ldpInIsLdpOut()</text><ellipse cx="2474.5" cy="161.2188" fill="#84BE84" rx="3" ry="3" style="stroke: #038048; stroke-width: 1.0;"/><text fill="#000000" font-family="sans-serif" font-size="11" lengthAdjust="spacingAndGlyphs" textLength="190" x="2483.5" y="164.4292">void enterDegradedFromNormal()</text><ellipse cx="2474.5" cy="174.0234" fill="#84BE84" rx="3" ry="3" style="stroke: #038048; stroke-width: 1.0;"/><text fill="#000000" font-family="sans-serif" font-size="11" lengthAdjust="spacingAndGlyphs" textLength="190" x="2483.5" y="177.2339">void enterNormalFromDegraded()</text><ellipse cx="2474.5" cy="186.8281" fill="#84BE84" rx="3" ry="3" style="stroke: #038048; stroke-width: 1.0;"/><text fill="#000000" font-family="sans-serif" font-size="11" lengthAdjust="spacingAndGlyphs" textLength="181" x="2483.5" y="190.0386">void enterStandbyFromNormal()</text><ellipse cx="2474.5" cy="199.6328" fill="#84BE84" rx="3" ry="3" style="stroke: #038048; stroke-width: 1.0;"/><text fill="#000000" font-family="sans-serif" font-size="11" lengthAdjust="spacingAndGlyphs" textLength="195" x="2483.5" y="202.8433">void enterDegradedFromStandby()</text><ellipse cx="2474.5" cy="212.4375" fill="#84BE84" rx="3" ry="3" style="stroke: #038048; stroke-width: 1.0;"/><text fill="#000000" font-family="sans-serif" font-size="11" lengthAdjust="spacingAndGlyphs" textLength="186" x="2483.5" y="215.6479">void enterStandbyFromStandby()</text><ellipse cx="2474.5" cy="225.2422" fill="#84BE84" rx="3" ry="3" style="stroke: #038048; stroke-width: 1.0;"/><text fill="#000000" font-family="sans-serif" font-size="11" lengthAdjust="spacingAndGlyphs" textLength="188" x="2483.5" y="228.4526">void databaseInterfaceIsNotNull()</text><!--MD5=[51651d19c556f37aaa3859a830b9d09e]
class MiddlewareGisProcessorStub--><rect fill="#FEFECE" filter="url(#f129qolpn40m2o)" height="107.2188" id="MiddlewareGisProcessorStub" style="stroke: #A80036; stroke-width: 1.5;" width="360" x="1744" y="340"/><ellipse cx="1829.25" cy="356" fill="#ADD1B2" rx="11" ry="11" style="stroke: #A80036; stroke-width: 1.0;"/><path d="M1832.2188,361.6406 Q1831.6406,361.9375 1831,362.0781 Q1830.3594,362.2344 1829.6563,362.2344 Q1827.1563,362.2344 1825.8281,360.5938 Q1824.5156,358.9375 1824.5156,355.8125 Q1824.5156,352.6875 1825.8281,351.0313 Q1827.1563,349.375 1829.6563,349.375 Q1830.3594,349.375 1831,349.5313 Q1831.6563,349.6875 1832.2188,349.9844 L1832.2188,352.7031 Q1831.5938,352.125 1831,351.8594 Q1830.4063,351.5781 1829.7813,351.5781 Q1828.4375,351.5781 1827.75,352.6563 Q1827.0625,353.7188 1827.0625,355.8125 Q1827.0625,357.9063 1827.75,358.9844 Q1828.4375,360.0469 1829.7813,360.0469 Q1830.4063,360.0469 1831,359.7813 Q1831.5938,359.5 1832.2188,358.9219 L1832.2188,361.6406 Z "/><text fill="#000000" font-family="sans-serif" font-size="12" lengthAdjust="spacingAndGlyphs" textLength="181" x="1849.75" y="360.1543">MiddlewareGisProcessorStub</text><line style="stroke: #A80036; stroke-width: 1.5;" x1="1745" x2="2103" y1="372" y2="372"/><line style="stroke: #A80036; stroke-width: 1.5;" x1="1745" x2="2103" y1="380" y2="380"/><ellipse cx="1755" cy="407.8047" fill="#84BE84" rx="3" ry="3" style="stroke: #038048; stroke-width: 1.0;"/><text fill="#000000" font-family="sans-serif" font-size="11" lengthAdjust="spacingAndGlyphs" textLength="331" x="1764" y="411.0151">String evaluateGpsSignalStrength(Satellite satelliteSignal)</text><line style="stroke: #A80036; stroke-width: 1.0; stroke-dasharray: 1.0,2.0;" x1="1745" x2="1891" y1="394.4023" y2="394.4023"/><text fill="#000000" font-family="sans-serif" font-size="11" lengthAdjust="spacingAndGlyphs" textLength="66" x="1891" y="397.7104">Use Case 1</text><line style="stroke: #A80036; stroke-width: 1.0; stroke-dasharray: 1.0,2.0;" x1="1957" x2="2103" y1="394.4023" y2="394.4023"/><ellipse cx="1755" cy="437.4141" fill="#84BE84" rx="3" ry="3" style="stroke: #038048; stroke-width: 1.0;"/><text fill="#000000" font-family="sans-serif" font-size="11" lengthAdjust="spacingAndGlyphs" textLength="334" x="1764" y="440.6245">String measureGpsSignalStrength(Satellite satelliteSignal)</text><line style="stroke: #A80036; stroke-width: 1.0; stroke-dasharray: 1.0,2.0;" x1="1745" x2="1891" y1="424.0117" y2="424.0117"/><text fill="#000000" font-family="sans-serif" font-size="11" lengthAdjust="spacingAndGlyphs" textLength="66" x="1891" y="427.3198">Use Case 2</text><line style="stroke: #A80036; stroke-width: 1.0; stroke-dasharray: 1.0,2.0;" x1="1957" x2="2103" y1="424.0117" y2="424.0117"/><!--MD5=[74a4f2264e7a0b184f8bb8bbbacbeff6]
class MiddlewareGisManagerStub--><rect fill="#FEFECE" filter="url(#f129qolpn40m2o)" height="196.8516" id="MiddlewareGisManagerStub" style="stroke: #A80036; stroke-width: 1.5;" width="402" x="2139" y="295"/><ellipse cx="2249.25" cy="311" fill="#ADD1B2" rx="11" ry="11" style="stroke: #A80036; stroke-width: 1.0;"/><path d="M2252.2188,316.6406 Q2251.6406,316.9375 2251,317.0781 Q2250.3594,317.2344 2249.6563,317.2344 Q2247.1563,317.2344 2245.8281,315.5938 Q2244.5156,313.9375 2244.5156,310.8125 Q2244.5156,307.6875 2245.8281,306.0313 Q2247.1563,304.375 2249.6563,304.375 Q2250.3594,304.375 2251,304.5313 Q2251.6563,304.6875 2252.2188,304.9844 L2252.2188,307.7031 Q2251.5938,307.125 2251,306.8594 Q2250.4063,306.5781 2249.7813,306.5781 Q2248.4375,306.5781 2247.75,307.6563 Q2247.0625,308.7188 2247.0625,310.8125 Q2247.0625,312.9063 2247.75,313.9844 Q2248.4375,315.0469 2249.7813,315.0469 Q2250.4063,315.0469 2251,314.7813 Q2251.5938,314.5 2252.2188,313.9219 L2252.2188,316.6406 Z "/><text fill="#000000" font-family="sans-serif" font-size="12" lengthAdjust="spacingAndGlyphs" textLength="173" x="2269.75" y="315.1543">MiddlewareGisManagerStub</text><line style="stroke: #A80036; stroke-width: 1.5;" x1="2140" x2="2540" y1="327" y2="327"/><ellipse cx="2150" cy="338" fill="none" rx="3" ry="3" style="stroke: #038048; stroke-width: 1.0;"/><text fill="#000000" font-family="sans-serif" font-size="11" lengthAdjust="spacingAndGlyphs" textLength="210" x="2159" y="341.2104">LocationDataPoint locationDataPoint1</text><ellipse cx="2150" cy="350.8047" fill="none" rx="3" ry="3" style="stroke: #038048; stroke-width: 1.0;"/><text fill="#000000" font-family="sans-serif" font-size="11" lengthAdjust="spacingAndGlyphs" textLength="210" x="2159" y="354.0151">LocationDataPoint locationDataPoint2</text><line style="stroke: #A80036; stroke-width: 1.5;" x1="2140" x2="2540" y1="360.6094" y2="360.6094"/><ellipse cx="2150" cy="371.6094" fill="#84BE84" rx="3" ry="3" style="stroke: #038048; stroke-width: 1.0;"/><text fill="#000000" font-family="sans-serif" font-size="11" lengthAdjust="spacingAndGlyphs" textLength="166" x="2159" y="374.8198">MiddlewareGisManagerStub()</text><ellipse cx="2150" cy="384.4141" fill="#84BE84" rx="3" ry="3" style="stroke: #038048; stroke-width: 1.0;"/><text fill="#000000" font-family="sans-serif" font-size="11" lengthAdjust="spacingAndGlyphs" textLength="376" x="2159" y="387.6245">MiddlewareGisManagerStub(LocationDataPoint locationDataPoint1)</text><ellipse cx="2150" cy="414.0234" fill="#84BE84" rx="3" ry="3" style="stroke: #038048; stroke-width: 1.0;"/><text fill="#000000" font-family="sans-serif" font-size="11" lengthAdjust="spacingAndGlyphs" textLength="331" x="2159" y="417.2339">String receieveGpsSignalStrength(Satellite satelliteSignal)</text><ellipse cx="2150" cy="426.8281" fill="#84BE84" rx="3" ry="3" style="stroke: #038048; stroke-width: 1.0;"/><text fill="#000000" font-family="sans-serif" font-size="11" lengthAdjust="spacingAndGlyphs" textLength="166" x="2159" y="430.0386">void storeLocationDataPoint()</text><ellipse cx="2150" cy="439.6328" fill="#84BE84" rx="3" ry="3" style="stroke: #038048; stroke-width: 1.0;"/><text fill="#000000" font-family="sans-serif" font-size="11" lengthAdjust="spacingAndGlyphs" textLength="185" x="2159" y="442.8433">LocationDataPoint getLocation2()</text><line style="stroke: #A80036; stroke-width: 1.0; stroke-dasharray: 1.0,2.0;" x1="2140" x2="2307" y1="400.6211" y2="400.6211"/><text fill="#000000" font-family="sans-serif" font-size="11" lengthAdjust="spacingAndGlyphs" textLength="66" x="2307" y="403.9292">Use Case 1</text><line style="stroke: #A80036; stroke-width: 1.0; stroke-dasharray: 1.0,2.0;" x1="2373" x2="2540" y1="400.6211" y2="400.6211"/><ellipse cx="2150" cy="469.2422" fill="#84BE84" rx="3" ry="3" style="stroke: #038048; stroke-width: 1.0;"/><text fill="#000000" font-family="sans-serif" font-size="11" lengthAdjust="spacingAndGlyphs" textLength="306" x="2159" y="472.4526">String attemptToRegainGpsLock(String satelliteName)</text><ellipse cx="2150" cy="482.0469" fill="#84BE84" rx="3" ry="3" style="stroke: #038048; stroke-width: 1.0;"/><text fill="#000000" font-family="sans-serif" font-size="11" lengthAdjust="spacingAndGlyphs" textLength="296" x="2159" y="485.2573">String evaluateGpsSignalStrength(Satellite satellite)</text><line style="stroke: #A80036; stroke-width: 1.0; stroke-dasharray: 1.0,2.0;" x1="2140" x2="2307" y1="455.8398" y2="455.8398"/><text fill="#000000" font-family="sans-serif" font-size="11" lengthAdjust="spacingAndGlyphs" textLength="66" x="2307" y="459.1479">Use Case 2</text><line style="stroke: #A80036; stroke-width: 1.0; stroke-dasharray: 1.0,2.0;" x1="2373" x2="2540" y1="455.8398" y2="455.8398"/><!--MD5=[ab27779a11d5209c16fcbeb03aa21929]
class DatabaseGisInterfaceStub--><rect fill="#FEFECE" filter="url(#f129qolpn40m2o)" height="171.2422" id="DatabaseGisInterfaceStub" style="stroke: #A80036; stroke-width: 1.5;" width="382" x="2576" y="308"/><ellipse cx="2680.25" cy="324" fill="#ADD1B2" rx="11" ry="11" style="stroke: #A80036; stroke-width: 1.0;"/><path d="M2683.2188,329.6406 Q2682.6406,329.9375 2682,330.0781 Q2681.3594,330.2344 2680.6563,330.2344 Q2678.1563,330.2344 2676.8281,328.5938 Q2675.5156,326.9375 2675.5156,323.8125 Q2675.5156,320.6875 2676.8281,319.0313 Q2678.1563,317.375 2680.6563,317.375 Q2681.3594,317.375 2682,317.5313 Q2682.6563,317.6875 2683.2188,317.9844 L2683.2188,320.7031 Q2682.5938,320.125 2682,319.8594 Q2681.4063,319.5781 2680.7813,319.5781 Q2679.4375,319.5781 2678.75,320.6563 Q2678.0625,321.7188 2678.0625,323.8125 Q2678.0625,325.9063 2678.75,326.9844 Q2679.4375,328.0469 2680.7813,328.0469 Q2681.4063,328.0469 2682,327.7813 Q2682.5938,327.5 2683.2188,326.9219 L2683.2188,329.6406 Z "/><text fill="#000000" font-family="sans-serif" font-size="12" lengthAdjust="spacingAndGlyphs" textLength="165" x="2700.75" y="328.1543">DatabaseGisInterfaceStub</text><line style="stroke: #A80036; stroke-width: 1.5;" x1="2577" x2="2957" y1="340" y2="340"/><rect fill="none" height="6" style="stroke: #C82930; stroke-width: 1.0;" width="6" x="2584" y="348"/><text fill="#000000" font-family="sans-serif" font-size="11" lengthAdjust="spacingAndGlyphs" textLength="203" x="2596" y="354.2104">LocationDataPoint locationDataPoint</text><rect fill="none" height="6" style="stroke: #C82930; stroke-width: 1.0;" width="6" x="2584" y="360.8047"/><text fill="#000000" font-family="sans-serif" font-size="11" lengthAdjust="spacingAndGlyphs" textLength="70" x="2596" y="367.0151">String mode</text><line style="stroke: #A80036; stroke-width: 1.5;" x1="2577" x2="2957" y1="373.6094" y2="373.6094"/><ellipse cx="2587" cy="401.4141" fill="#84BE84" rx="3" ry="3" style="stroke: #038048; stroke-width: 1.0;"/><text fill="#000000" font-family="sans-serif" font-size="11" lengthAdjust="spacingAndGlyphs" textLength="356" x="2596" y="404.6245">void receiveStoreRequest(LocationDataPoint locationDataPoint)</text><ellipse cx="2587" cy="414.2188" fill="#84BE84" rx="3" ry="3" style="stroke: #038048; stroke-width: 1.0;"/><text fill="#000000" font-family="sans-serif" font-size="11" lengthAdjust="spacingAndGlyphs" textLength="178" x="2596" y="417.4292">LocationDataPoint getLocation()</text><line style="stroke: #A80036; stroke-width: 1.0; stroke-dasharray: 1.0,2.0;" x1="2577" x2="2734" y1="388.0117" y2="388.0117"/><text fill="#000000" font-family="sans-serif" font-size="11" lengthAdjust="spacingAndGlyphs" textLength="66" x="2734" y="391.3198">Use Case 1</text><line style="stroke: #A80036; stroke-width: 1.0; stroke-dasharray: 1.0,2.0;" x1="2800" x2="2957" y1="388.0117" y2="388.0117"/><ellipse cx="2587" cy="443.8281" fill="#84BE84" rx="3" ry="3" style="stroke: #038048; stroke-width: 1.0;"/><text fill="#000000" font-family="sans-serif" font-size="11" lengthAdjust="spacingAndGlyphs" textLength="222" x="2596" y="447.0386">void receiveModeRequest(String mode)</text><ellipse cx="2587" cy="456.6328" fill="#84BE84" rx="3" ry="3" style="stroke: #038048; stroke-width: 1.0;"/><text fill="#000000" font-family="sans-serif" font-size="11" lengthAdjust="spacingAndGlyphs" textLength="94" x="2596" y="459.8433">String getMode()</text><ellipse cx="2587" cy="469.4375" fill="#84BE84" rx="3" ry="3" style="stroke: #038048; stroke-width: 1.0;"/><text fill="#000000" font-family="sans-serif" font-size="11" lengthAdjust="spacingAndGlyphs" textLength="275" x="2596" y="472.6479">String receiveNextSatRequest(String currentSat)</text><line style="stroke: #A80036; stroke-width: 1.0; stroke-dasharray: 1.0,2.0;" x1="2577" x2="2734" y1="430.4258" y2="430.4258"/><text fill="#000000" font-family="sans-serif" font-size="11" lengthAdjust="spacingAndGlyphs" textLength="66" x="2734" y="433.7339">Use Case 2</text><line style="stroke: #A80036; stroke-width: 1.0; stroke-dasharray: 1.0,2.0;" x1="2800" x2="2957" y1="430.4258" y2="430.4258"/><polygon fill="#FFFFFF" filter="url(#f129qolpn40m2o)" points="2989.5,120.5,3264.5,120.5,3271.5,142.7969,3278.5,142.7969,3278.5,173.0938,2989.5,173.0938,2989.5,120.5" style="stroke: #000000; stroke-width: 1.5;"/><line style="stroke: #000000; stroke-width: 1.5;" x1="2989.5" x2="3271.5" y1="142.7969" y2="142.7969"/><text fill="#000000" font-family="sans-serif" font-size="14" font-weight="bold" lengthAdjust="spacingAndGlyphs" textLength="269" x="2993.5" y="135.4951">edu.oakland.helper.middleware01</text><!--MD5=[b7f9f61643177129a34bef2d42772173]
link MiddlewareGisInterface to MiddlewareGisProcessor--><!--MD5=[03ed72b80ae2e539149d41f6733cb2b6]
link MiddlewareGisProcessor to MiddlewareGisManager--><!--MD5=[65e8ae3be48d8b317df68a5ff25b225a]
link MiddlewareGisInterface to MiddlewareGisInterfaceImplementation--><!--MD5=[bfd30003311d14dcb404997a195ab642]
link MiddlewareGisInterfaceImplementation to MiddlewareGisProcessorImplementation--><!--MD5=[e58f60c707b124812ecd922950d23b3a]
link MiddlewareGisProcessorImplementation to MiddlewareGisManagerImplementation--><!--MD5=[66a075d8653edad79e5184ccbc7710ba]
link MiddlewareGisInterfaceImplementationTests to MiddlewareGisProcessorImplementationTests--><!--MD5=[caf97344b76f1f237682011bbbe3fff7]
link MiddlewareGisProcessorImplementationTests to MiddlewareGisManagerImplementationTests--><!--MD5=[973ed9568ae6a7304b1bd90c0eb4e200]
link MiddlewareGisInterfaceImplementationTests to MiddlewareGisProcessorStub--><!--MD5=[c90f2bbba516d9904fe974e55994d75f]
link MiddlewareGisProcessorStub to MiddlewareGisManagerStub--><!--MD5=[f67c056fc6717e6747b4e825179381c0]
link MiddlewareGisManagerStub to DatabaseGisInterfaceStub--><!--MD5=[046b44eb07f82b81850228dda3ab02df]
@startuml Middleware01Packages


package edu.oakland.production.middleware01 {

}


package edu.oakland.production.middleware01 {
    interface MiddlewareGisInterface {
        __
        .. Use Case 1 ..
        {abstract} + String receiveGpsSignalStrengthUc1(Satellite satelliteSignal)
        .. Use Case 2 ..
        {abstract} + String receiveGpsSignalStrengthUc2(Satellite satelliteSignal)
    }
}


package edu.oakland.production.middleware01 {
    interface MiddlewareGisProcessor {
        __
        .. Use Case 1 ..
        {abstract} + String evaluateGpsSignalStrength(Satellite satelliteSignal)
        .. Use Case 2 ..
        {abstract} + String measureGpsSignalStrength(Satellite satelliteSignal)
    }
}


package edu.oakland.production.middleware01 {
    interface MiddlewareGisManager {
        __
        .. Use Case 1 ..
        {abstract} + String receieveGpsSignalStrength(Satellite satelliteSignal)
        {abstract} + void storeLocationDataPoint()
        .. Use Case 2 ..
        {abstract} + String evaluateGpsSignalStrength(Satellite satellite)
    }
}


package edu.oakland.production.middleware01 {
    class MiddlewareGisInterfaceImplementation {
        - MiddlewareGisProcessor middlewareGisProcessor
        __
        + MiddlewareGisInterfaceImplementation(MiddlewareGisProcessor middlewareGisProcessor)
        .. Use Case 1 ..
        + String receiveGpsSignalStrengthUc1(Satellite satelliteSignal)
        .. Use Case 2 ..
        + String receiveGpsSignalStrengthUc2(Satellite satelliteSignal)
    }
}


package edu.oakland.production.middleware01 {
    class MiddlewareGisProcessorImplementation {
        - MiddlewareGisManager middlewareGisManager
        __
        + MiddlewareGisProcessorImplementation(MiddlewareGisManager middlewareGisManager)
        .. Use Case 1 ..
        + String evaluateGpsSignalStrength(Satellite satelliteSignal)
        .. Use Case 2 ..
        + String measureGpsSignalStrength(Satellite satelliteSignal)
    }
}


package edu.oakland.production.middleware01 {
    class MiddlewareGisManagerImplementation {
        - DatabaseGisInterface databaseGisInterface
        - LocationDataPoint locationDataPoint
        - Satellite satelliteSignal
        __
        + MiddlewareGisManagerImplementation(DatabaseGisInterface databaseGisInterface)
        .. Use Case 1 ..
        + String receieveGpsSignalStrength(Satellite satelliteSignal)
        + void storeLocationDataPoint()
        .. Use Case 2 ..
        + String evaluateGpsSignalStrength(Satellite satellite)
        - boolean isStrongEnough(int strength)
    }
}



package edu.oakland.test.middleware01 {
    
}


package edu.oakland.test.middleware01 {
  class MiddlewareGisInterfaceImplementationTests {
    + void passedSignalStrengthUc1()
    + void passedSignalStrengthUc2()
    + void processorIsNotNull()
  }
}


package edu.oakland.test.middleware01 {
  class MiddlewareGisProcessorImplementationTests {
    + void isGpsSignalStrengthNull()
    + void checkValueGpsSignalStrength()
    + void managerIsNotNull()
  }
}


package edu.oakland.test.middleware01 {
  class MiddlewareGisManagerImplementationTests {
    + void nullLocationDataPointNotStored()
    + void isGpsSignalStrengthEvaluateTrue()
    + void isGpsSignalStrengthEvaluateFalse()
    + void ldpInIsLdpOut()
    + void enterDegradedFromNormal()
    + void enterNormalFromDegraded()
    + void enterStandbyFromNormal()
    + void enterDegradedFromStandby()
    + void enterStandbyFromStandby()
    + void databaseInterfaceIsNotNull()
  }
}


package edu.oakland.test.middleware01 {
    class MiddlewareGisProcessorStub {
        __
        .. Use Case 1 ..
        + String evaluateGpsSignalStrength(Satellite satelliteSignal)
        .. Use Case 2 ..
        + String measureGpsSignalStrength(Satellite satelliteSignal)
    }
}


package edu.oakland.test.middleware01 {
    class MiddlewareGisManagerStub {
        + LocationDataPoint locationDataPoint1
        + LocationDataPoint locationDataPoint2
        __
        + MiddlewareGisManagerStub()
        + MiddlewareGisManagerStub(LocationDataPoint locationDataPoint1)
        .. Use Case 1 ..
        + String receieveGpsSignalStrength(Satellite satelliteSignal)
        + void storeLocationDataPoint()
        + LocationDataPoint getLocation2()
        .. Use Case 2 ..
        + String attemptToRegainGpsLock(String satelliteName)
        + String evaluateGpsSignalStrength(Satellite satellite)
    }
}


package edu.oakland.test.middleware01 {
    class DatabaseGisInterfaceStub {
        - LocationDataPoint locationDataPoint
        - String mode
        __
        .. Use Case 1 ..
        + void receiveStoreRequest(LocationDataPoint locationDataPoint)
        + LocationDataPoint getLocation()
        .. Use Case 2 ..
        + void receiveModeRequest(String mode)
        + String getMode()
        + String receiveNextSatRequest(String currentSat)
    }
}



package edu.oakland.helper.middleware01 {
    
}


@enduml

PlantUML version 1.2020.02(Sun Mar 01 10:22:07 GMT 2020)
(GPL source distribution)
Java Runtime: OpenJDK Runtime Environment
JVM: OpenJDK 64-Bit Server VM
Java Version: 11.0.9+11-Ubuntu-0ubuntu1
Operating System: Linux
Default Encoding: ANSI_X3.4-1968
Language: en
Country: US
--></g></svg>