<?xml version="1.0" encoding="UTF-8" standalone="no"?><svg xmlns="http://www.w3.org/2000/svg" xmlns:xlink="http://www.w3.org/1999/xlink" contentScriptType="application/ecmascript" contentStyleType="text/css" height="507px" preserveAspectRatio="none" style="width:3300px;height:507px;" version="1.1" viewBox="0 0 3300 507" width="3300px" zoomAndPan="magnify"><defs><filter height="300%" id="fixxbkp3eq0ol" width="300%" x="-1" y="-1"><feGaussianBlur result="blurOut" stdDeviation="2.0"/><feColorMatrix in="blurOut" result="blurOut2" type="matrix" values="0 0 0 0 0 0 0 0 0 0 0 0 0 0 0 0 0 0 .4 0"/><feOffset dx="4.0" dy="4.0" in="blurOut2" result="blurOut3"/><feBlend in="SourceGraphic" in2="blurOut3" mode="normal"/></filter></defs><g><!--MD5=[3f116dbe56326f0321b4f8703f3bd2bd]
cluster edu.oakland.production.middleware01--><polygon fill="#FFFFFF" filter="url(#fixxbkp3eq0ol)" points="22,45.5,332,45.5,339,67.7969,1704,67.7969,1704,488.5,22,488.5,22,45.5" style="stroke: #000000; stroke-width: 1.5;"/><line style="stroke: #000000; stroke-width: 1.5;" x1="22" x2="339" y1="67.7969" y2="67.7969"/><text fill="#000000" font-family="sans-serif" font-size="14" font-weight="bold" lengthAdjust="spacingAndGlyphs" textLength="304" x="26" y="60.4951">edu.oakland.production.middleware01</text><!--MD5=[91c45ac7eb5545a65ecec592fddfa5fd]
cluster edu.oakland.test.middleware01--><polygon fill="#FFFFFF" filter="url(#fixxbkp3eq0ol)" points="1728,24,1983,24,1990,46.2969,2974,46.2969,2974,495,1728,495,1728,24" style="stroke: #000000; stroke-width: 1.5;"/><line style="stroke: #000000; stroke-width: 1.5;" x1="1728" x2="1990" y1="46.2969" y2="46.2969"/><text fill="#000000" font-family="sans-serif" font-size="14" font-weight="bold" lengthAdjust="spacingAndGlyphs" textLength="249" x="1732" y="38.9951">edu.oakland.test.middleware01</text><!--MD5=[291cbaddec1abeb2a8a54e5a343c76e9]
class MiddlewareGisInterface--><rect fill="#FEFECE" filter="url(#fixxbkp3eq0ol)" height="107.2188" id="MiddlewareGisInterface" style="stroke: #A80036; stroke-width: 1.5;" width="365" x="127.5" y="87"/><ellipse cx="232.75" cy="103" fill="#B4A7E5" rx="11" ry="11" style="stroke: #A80036; stroke-width: 1.0;"/><path d="M228.6719,98.7656 L228.6719,96.6094 L236.0625,96.6094 L236.0625,98.7656 L233.5938,98.7656 L233.5938,106.8438 L236.0625,106.8438 L236.0625,109 L228.6719,109 L228.6719,106.8438 L231.1406,106.8438 L231.1406,98.7656 L228.6719,98.7656 Z "/><text fill="#000000" font-family="sans-serif" font-size="12" font-style="italic" lengthAdjust="spacingAndGlyphs" textLength="146" x="253.25" y="107.1543">MiddlewareGisInterface</text><line style="stroke: #A80036; stroke-width: 1.5;" x1="128.5" x2="491.5" y1="119" y2="119"/><line style="stroke: #A80036; stroke-width: 1.5;" x1="128.5" x2="491.5" y1="127" y2="127"/><ellipse cx="138.5" cy="154.8047" fill="#84BE84" rx="3" ry="3" style="stroke: #038048; stroke-width: 1.0;"/><text fill="#000000" font-family="sans-serif" font-size="11" font-style="italic" lengthAdjust="spacingAndGlyphs" textLength="339" x="147.5" y="158.0151">String receiveGpsSignalStrengthUc1(Satellite satelliteSignal)</text><line style="stroke: #A80036; stroke-width: 1.0; stroke-dasharray: 1.0,2.0;" x1="128.5" x2="277" y1="141.4023" y2="141.4023"/><text fill="#000000" font-family="sans-serif" font-size="11" lengthAdjust="spacingAndGlyphs" textLength="66" x="277" y="144.7104">Use Case 1</text><line style="stroke: #A80036; stroke-width: 1.0; stroke-dasharray: 1.0,2.0;" x1="343" x2="491.5" y1="141.4023" y2="141.4023"/><ellipse cx="138.5" cy="184.4141" fill="#84BE84" rx="3" ry="3" style="stroke: #038048; stroke-width: 1.0;"/><text fill="#000000" font-family="sans-serif" font-size="11" font-style="italic" lengthAdjust="spacingAndGlyphs" textLength="339" x="147.5" y="187.6245">String receiveGpsSignalStrengthUc2(Satellite satelliteSignal)</text><line style="stroke: #A80036; stroke-width: 1.0; stroke-dasharray: 1.0,2.0;" x1="128.5" x2="277" y1="171.0117" y2="171.0117"/><text fill="#000000" font-family="sans-serif" font-size="11" lengthAdjust="spacingAndGlyphs" textLength="66" x="277" y="174.3198">Use Case 2</text><line style="stroke: #A80036; stroke-width: 1.0; stroke-dasharray: 1.0,2.0;" x1="343" x2="491.5" y1="171.0117" y2="171.0117"/><!--MD5=[8ee200b6efa8fed886485614c0f8779a]
class MiddlewareGisProcessor--><rect fill="#FEFECE" filter="url(#fixxbkp3eq0ol)" height="107.2188" id="MiddlewareGisProcessor" style="stroke: #A80036; stroke-width: 1.5;" width="352" x="527" y="87"/><ellipse cx="624.25" cy="103" fill="#B4A7E5" rx="11" ry="11" style="stroke: #A80036; stroke-width: 1.0;"/><path d="M620.1719,98.7656 L620.1719,96.6094 L627.5625,96.6094 L627.5625,98.7656 L625.0938,98.7656 L625.0938,106.8438 L627.5625,106.8438 L627.5625,109 L620.1719,109 L620.1719,106.8438 L622.6406,106.8438 L622.6406,98.7656 L620.1719,98.7656 Z "/><text fill="#000000" font-family="sans-serif" font-size="12" font-style="italic" lengthAdjust="spacingAndGlyphs" textLength="149" x="644.75" y="107.1543">MiddlewareGisProcessor</text><line style="stroke: #A80036; stroke-width: 1.5;" x1="528" x2="878" y1="119" y2="119"/><line style="stroke: #A80036; stroke-width: 1.5;" x1="528" x2="878" y1="127" y2="127"/><ellipse cx="538" cy="154.8047" fill="#84BE84" rx="3" ry="3" style="stroke: #038048; stroke-width: 1.0;"/><text fill="#000000" font-family="sans-serif" font-size="11" font-style="italic" lengthAdjust="spacingAndGlyphs" textLength="325" x="547" y="158.0151">String evaluateGpsSignalStrength(Satellite satelliteSignal)</text><line style="stroke: #A80036; stroke-width: 1.0; stroke-dasharray: 1.0,2.0;" x1="528" x2="670" y1="141.4023" y2="141.4023"/><text fill="#000000" font-family="sans-serif" font-size="11" lengthAdjust="spacingAndGlyphs" textLength="66" x="670" y="144.7104">Use Case 1</text><line style="stroke: #A80036; stroke-width: 1.0; stroke-dasharray: 1.0,2.0;" x1="736" x2="878" y1="141.4023" y2="141.4023"/><ellipse cx="538" cy="184.4141" fill="#84BE84" rx="3" ry="3" style="stroke: #038048; stroke-width: 1.0;"/><text fill="#000000" font-family="sans-serif" font-size="11" font-style="italic" lengthAdjust="spacingAndGlyphs" textLength="326" x="547" y="187.6245">String measureGpsSignalStrength(Satellite satelliteSignal)</text><line style="stroke: #A80036; stroke-width: 1.0; stroke-dasharray: 1.0,2.0;" x1="528" x2="670" y1="171.0117" y2="171.0117"/><text fill="#000000" font-family="sans-serif" font-size="11" lengthAdjust="spacingAndGlyphs" textLength="66" x="670" y="174.3198">Use Case 2</text><line style="stroke: #A80036; stroke-width: 1.0; stroke-dasharray: 1.0,2.0;" x1="736" x2="878" y1="171.0117" y2="171.0117"/><!--MD5=[6b8f2796bf9a05cb61532ec918b7c92e]
class MiddlewareGisManager--><rect fill="#FEFECE" filter="url(#fixxbkp3eq0ol)" height="120.0234" id="MiddlewareGisManager" style="stroke: #A80036; stroke-width: 1.5;" width="351" x="914.5" y="80.5"/><ellipse cx="1013.75" cy="96.5" fill="#B4A7E5" rx="11" ry="11" style="stroke: #A80036; stroke-width: 1.0;"/><path d="M1009.6719,92.2656 L1009.6719,90.1094 L1017.0625,90.1094 L1017.0625,92.2656 L1014.5938,92.2656 L1014.5938,100.3438 L1017.0625,100.3438 L1017.0625,102.5 L1009.6719,102.5 L1009.6719,100.3438 L1012.1406,100.3438 L1012.1406,92.2656 L1009.6719,92.2656 Z "/><text fill="#000000" font-family="sans-serif" font-size="12" font-style="italic" lengthAdjust="spacingAndGlyphs" textLength="144" x="1034.25" y="100.6543">MiddlewareGisManager</text><line style="stroke: #A80036; stroke-width: 1.5;" x1="915.5" x2="1264.5" y1="112.5" y2="112.5"/><line style="stroke: #A80036; stroke-width: 1.5;" x1="915.5" x2="1264.5" y1="120.5" y2="120.5"/><ellipse cx="925.5" cy="148.3047" fill="#84BE84" rx="3" ry="3" style="stroke: #038048; stroke-width: 1.0;"/><text fill="#000000" font-family="sans-serif" font-size="11" font-style="italic" lengthAdjust="spacingAndGlyphs" textLength="325" x="934.5" y="151.5151">String receieveGpsSignalStrength(Satellite satelliteSignal)</text><ellipse cx="925.5" cy="161.1094" fill="#84BE84" rx="3" ry="3" style="stroke: #038048; stroke-width: 1.0;"/><text fill="#000000" font-family="sans-serif" font-size="11" font-style="italic" lengthAdjust="spacingAndGlyphs" textLength="166" x="934.5" y="164.3198">void storeLocationDataPoint()</text><line style="stroke: #A80036; stroke-width: 1.0; stroke-dasharray: 1.0,2.0;" x1="915.5" x2="1057" y1="134.9023" y2="134.9023"/><text fill="#000000" font-family="sans-serif" font-size="11" lengthAdjust="spacingAndGlyphs" textLength="66" x="1057" y="138.2104">Use Case 1</text><line style="stroke: #A80036; stroke-width: 1.0; stroke-dasharray: 1.0,2.0;" x1="1123" x2="1264.5" y1="134.9023" y2="134.9023"/><ellipse cx="925.5" cy="190.7188" fill="#84BE84" rx="3" ry="3" style="stroke: #038048; stroke-width: 1.0;"/><text fill="#000000" font-family="sans-serif" font-size="11" font-style="italic" lengthAdjust="spacingAndGlyphs" textLength="291" x="934.5" y="193.9292">String evaluateGpsSignalStrength(Satellite satellite)</text><line style="stroke: #A80036; stroke-width: 1.0; stroke-dasharray: 1.0,2.0;" x1="915.5" x2="1057" y1="177.3164" y2="177.3164"/><text fill="#000000" font-family="sans-serif" font-size="11" lengthAdjust="spacingAndGlyphs" textLength="66" x="1057" y="180.6245">Use Case 2</text><line style="stroke: #A80036; stroke-width: 1.0; stroke-dasharray: 1.0,2.0;" x1="1123" x2="1264.5" y1="177.3164" y2="177.3164"/><!--MD5=[00cae90dad3d6433dbf28d238006c643]
class MiddlewareGisInterfaceImplementation--><rect fill="#FEFECE" filter="url(#fixxbkp3eq0ol)" height="132.8281" id="MiddlewareGisInterfaceImplementation" style="stroke: #A80036; stroke-width: 1.5;" width="543" x="38.5" y="314"/><ellipse cx="184.75" cy="330" fill="#ADD1B2" rx="11" ry="11" style="stroke: #A80036; stroke-width: 1.0;"/><path d="M187.7188,335.6406 Q187.1406,335.9375 186.5,336.0781 Q185.8594,336.2344 185.1563,336.2344 Q182.6563,336.2344 181.3281,334.5938 Q180.0156,332.9375 180.0156,329.8125 Q180.0156,326.6875 181.3281,325.0313 Q182.6563,323.375 185.1563,323.375 Q185.8594,323.375 186.5,323.5313 Q187.1563,323.6875 187.7188,323.9844 L187.7188,326.7031 Q187.0938,326.125 186.5,325.8594 Q185.9063,325.5781 185.2813,325.5781 Q183.9375,325.5781 183.25,326.6563 Q182.5625,327.7188 182.5625,329.8125 Q182.5625,331.9063 183.25,332.9844 Q183.9375,334.0469 185.2813,334.0469 Q185.9063,334.0469 186.5,333.7813 Q187.0938,333.5 187.7188,332.9219 L187.7188,335.6406 Z "/><text fill="#000000" font-family="sans-serif" font-size="12" lengthAdjust="spacingAndGlyphs" textLength="242" x="205.25" y="334.1543">MiddlewareGisInterfaceImplementation</text><line style="stroke: #A80036; stroke-width: 1.5;" x1="39.5" x2="580.5" y1="346" y2="346"/><rect fill="none" height="6" style="stroke: #C82930; stroke-width: 1.0;" width="6" x="46.5" y="354"/><text fill="#000000" font-family="sans-serif" font-size="11" lengthAdjust="spacingAndGlyphs" textLength="288" x="58.5" y="360.2104">MiddlewareGisProcessor middlewareGisProcessor</text><line style="stroke: #A80036; stroke-width: 1.5;" x1="39.5" x2="580.5" y1="366.8047" y2="366.8047"/><ellipse cx="49.5" cy="377.8047" fill="#84BE84" rx="3" ry="3" style="stroke: #038048; stroke-width: 1.0;"/><text fill="#000000" font-family="sans-serif" font-size="11" lengthAdjust="spacingAndGlyphs" textLength="517" x="58.5" y="381.0151">MiddlewareGisInterfaceImplementation(MiddlewareGisProcessor middlewareGisProcessor)</text><ellipse cx="49.5" cy="407.4141" fill="#84BE84" rx="3" ry="3" style="stroke: #038048; stroke-width: 1.0;"/><text fill="#000000" font-family="sans-serif" font-size="11" lengthAdjust="spacingAndGlyphs" textLength="345" x="58.5" y="410.6245">String receiveGpsSignalStrengthUc1(Satellite satelliteSignal)</text><line style="stroke: #A80036; stroke-width: 1.0; stroke-dasharray: 1.0,2.0;" x1="39.5" x2="277" y1="394.0117" y2="394.0117"/><text fill="#000000" font-family="sans-serif" font-size="11" lengthAdjust="spacingAndGlyphs" textLength="66" x="277" y="397.3198">Use Case 1</text><line style="stroke: #A80036; stroke-width: 1.0; stroke-dasharray: 1.0,2.0;" x1="343" x2="580.5" y1="394.0117" y2="394.0117"/><ellipse cx="49.5" cy="437.0234" fill="#84BE84" rx="3" ry="3" style="stroke: #038048; stroke-width: 1.0;"/><text fill="#000000" font-family="sans-serif" font-size="11" lengthAdjust="spacingAndGlyphs" textLength="345" x="58.5" y="440.2339">String receiveGpsSignalStrengthUc2(Satellite satelliteSignal)</text><line style="stroke: #A80036; stroke-width: 1.0; stroke-dasharray: 1.0,2.0;" x1="39.5" x2="277" y1="423.6211" y2="423.6211"/><text fill="#000000" font-family="sans-serif" font-size="11" lengthAdjust="spacingAndGlyphs" textLength="66" x="277" y="426.9292">Use Case 2</text><line style="stroke: #A80036; stroke-width: 1.0; stroke-dasharray: 1.0,2.0;" x1="343" x2="580.5" y1="423.6211" y2="423.6211"/><!--MD5=[5617cf6c0203deaad7dbff4f5099a816]
class MiddlewareGisProcessorImplementation--><rect fill="#FEFECE" filter="url(#fixxbkp3eq0ol)" height="132.8281" id="MiddlewareGisProcessorImplementation" style="stroke: #A80036; stroke-width: 1.5;" width="533" x="616.5" y="314"/><ellipse cx="754.25" cy="330" fill="#ADD1B2" rx="11" ry="11" style="stroke: #A80036; stroke-width: 1.0;"/><path d="M757.2188,335.6406 Q756.6406,335.9375 756,336.0781 Q755.3594,336.2344 754.6563,336.2344 Q752.1563,336.2344 750.8281,334.5938 Q749.5156,332.9375 749.5156,329.8125 Q749.5156,326.6875 750.8281,325.0313 Q752.1563,323.375 754.6563,323.375 Q755.3594,323.375 756,323.5313 Q756.6563,323.6875 757.2188,323.9844 L757.2188,326.7031 Q756.5938,326.125 756,325.8594 Q755.4063,325.5781 754.7813,325.5781 Q753.4375,325.5781 752.75,326.6563 Q752.0625,327.7188 752.0625,329.8125 Q752.0625,331.9063 752.75,332.9844 Q753.4375,334.0469 754.7813,334.0469 Q755.4063,334.0469 756,333.7813 Q756.5938,333.5 757.2188,332.9219 L757.2188,335.6406 Z "/><text fill="#000000" font-family="sans-serif" font-size="12" lengthAdjust="spacingAndGlyphs" textLength="249" x="774.75" y="334.1543">MiddlewareGisProcessorImplementation</text><line style="stroke: #A80036; stroke-width: 1.5;" x1="617.5" x2="1148.5" y1="346" y2="346"/><rect fill="none" height="6" style="stroke: #C82930; stroke-width: 1.0;" width="6" x="624.5" y="354"/><text fill="#000000" font-family="sans-serif" font-size="11" lengthAdjust="spacingAndGlyphs" textLength="270" x="636.5" y="360.2104">MiddlewareGisManager middlewareGisManager</text><line style="stroke: #A80036; stroke-width: 1.5;" x1="617.5" x2="1148.5" y1="366.8047" y2="366.8047"/><ellipse cx="627.5" cy="377.8047" fill="#84BE84" rx="3" ry="3" style="stroke: #038048; stroke-width: 1.0;"/><text fill="#000000" font-family="sans-serif" font-size="11" lengthAdjust="spacingAndGlyphs" textLength="507" x="636.5" y="381.0151">MiddlewareGisProcessorImplementation(MiddlewareGisManager middlewareGisManager)</text><ellipse cx="627.5" cy="407.4141" fill="#84BE84" rx="3" ry="3" style="stroke: #038048; stroke-width: 1.0;"/><text fill="#000000" font-family="sans-serif" font-size="11" lengthAdjust="spacingAndGlyphs" textLength="331" x="636.5" y="410.6245">String evaluateGpsSignalStrength(Satellite satelliteSignal)</text><line style="stroke: #A80036; stroke-width: 1.0; stroke-dasharray: 1.0,2.0;" x1="617.5" x2="850" y1="394.0117" y2="394.0117"/><text fill="#000000" font-family="sans-serif" font-size="11" lengthAdjust="spacingAndGlyphs" textLength="66" x="850" y="397.3198">Use Case 1</text><line style="stroke: #A80036; stroke-width: 1.0; stroke-dasharray: 1.0,2.0;" x1="916" x2="1148.5" y1="394.0117" y2="394.0117"/><ellipse cx="627.5" cy="437.0234" fill="#84BE84" rx="3" ry="3" style="stroke: #038048; stroke-width: 1.0;"/><text fill="#000000" font-family="sans-serif" font-size="11" lengthAdjust="spacingAndGlyphs" textLength="334" x="636.5" y="440.2339">String measureGpsSignalStrength(Satellite satelliteSignal)</text><line style="stroke: #A80036; stroke-width: 1.0; stroke-dasharray: 1.0,2.0;" x1="617.5" x2="850" y1="423.6211" y2="423.6211"/><text fill="#000000" font-family="sans-serif" font-size="11" lengthAdjust="spacingAndGlyphs" textLength="66" x="850" y="426.9292">Use Case 2</text><line style="stroke: #A80036; stroke-width: 1.0; stroke-dasharray: 1.0,2.0;" x1="916" x2="1148.5" y1="423.6211" y2="423.6211"/><!--MD5=[95fb96a46a83d39a2e18236f313a92fb]
class MiddlewareGisManagerImplementation--><rect fill="#FEFECE" filter="url(#fixxbkp3eq0ol)" height="184.0469" id="MiddlewareGisManagerImplementation" style="stroke: #A80036; stroke-width: 1.5;" width="503" x="1184.5" y="288.5"/><ellipse cx="1311.25" cy="304.5" fill="#ADD1B2" rx="11" ry="11" style="stroke: #A80036; stroke-width: 1.0;"/><path d="M1314.2188,310.1406 Q1313.6406,310.4375 1313,310.5781 Q1312.3594,310.7344 1311.6563,310.7344 Q1309.1563,310.7344 1307.8281,309.0938 Q1306.5156,307.4375 1306.5156,304.3125 Q1306.5156,301.1875 1307.8281,299.5313 Q1309.1563,297.875 1311.6563,297.875 Q1312.3594,297.875 1313,298.0313 Q1313.6563,298.1875 1314.2188,298.4844 L1314.2188,301.2031 Q1313.5938,300.625 1313,300.3594 Q1312.4063,300.0781 1311.7813,300.0781 Q1310.4375,300.0781 1309.75,301.1563 Q1309.0625,302.2188 1309.0625,304.3125 Q1309.0625,306.4063 1309.75,307.4844 Q1310.4375,308.5469 1311.7813,308.5469 Q1312.4063,308.5469 1313,308.2813 Q1313.5938,308 1314.2188,307.4219 L1314.2188,310.1406 Z "/><text fill="#000000" font-family="sans-serif" font-size="12" lengthAdjust="spacingAndGlyphs" textLength="241" x="1331.75" y="308.6543">MiddlewareGisManagerImplementation</text><line style="stroke: #A80036; stroke-width: 1.5;" x1="1185.5" x2="1686.5" y1="320.5" y2="320.5"/><rect fill="none" height="6" style="stroke: #C82930; stroke-width: 1.0;" width="6" x="1192.5" y="328.5"/><text fill="#000000" font-family="sans-serif" font-size="11" lengthAdjust="spacingAndGlyphs" textLength="249" x="1204.5" y="334.7104">DatabaseGisInterface databaseGisInterface</text><rect fill="none" height="6" style="stroke: #C82930; stroke-width: 1.0;" width="6" x="1192.5" y="341.3047"/><text fill="#000000" font-family="sans-serif" font-size="11" lengthAdjust="spacingAndGlyphs" textLength="203" x="1204.5" y="347.5151">LocationDataPoint locationDataPoint</text><rect fill="none" height="6" style="stroke: #C82930; stroke-width: 1.0;" width="6" x="1192.5" y="354.1094"/><text fill="#000000" font-family="sans-serif" font-size="11" lengthAdjust="spacingAndGlyphs" textLength="130" x="1204.5" y="360.3198">Satellite satelliteSignal</text><line style="stroke: #A80036; stroke-width: 1.5;" x1="1185.5" x2="1686.5" y1="366.9141" y2="366.9141"/><ellipse cx="1195.5" cy="377.9141" fill="#84BE84" rx="3" ry="3" style="stroke: #038048; stroke-width: 1.0;"/><text fill="#000000" font-family="sans-serif" font-size="11" lengthAdjust="spacingAndGlyphs" textLength="477" x="1204.5" y="381.1245">MiddlewareGisManagerImplementation(DatabaseGisInterface databaseGisInterface)</text><ellipse cx="1195.5" cy="407.5234" fill="#84BE84" rx="3" ry="3" style="stroke: #038048; stroke-width: 1.0;"/><text fill="#000000" font-family="sans-serif" font-size="11" lengthAdjust="spacingAndGlyphs" textLength="331" x="1204.5" y="410.7339">String receieveGpsSignalStrength(Satellite satelliteSignal)</text><ellipse cx="1195.5" cy="420.3281" fill="#84BE84" rx="3" ry="3" style="stroke: #038048; stroke-width: 1.0;"/><text fill="#000000" font-family="sans-serif" font-size="11" lengthAdjust="spacingAndGlyphs" textLength="166" x="1204.5" y="423.5386">void storeLocationDataPoint()</text><line style="stroke: #A80036; stroke-width: 1.0; stroke-dasharray: 1.0,2.0;" x1="1185.5" x2="1403" y1="394.1211" y2="394.1211"/><text fill="#000000" font-family="sans-serif" font-size="11" lengthAdjust="spacingAndGlyphs" textLength="66" x="1403" y="397.4292">Use Case 1</text><line style="stroke: #A80036; stroke-width: 1.0; stroke-dasharray: 1.0,2.0;" x1="1469" x2="1686.5" y1="394.1211" y2="394.1211"/><ellipse cx="1195.5" cy="449.9375" fill="#84BE84" rx="3" ry="3" style="stroke: #038048; stroke-width: 1.0;"/><text fill="#000000" font-family="sans-serif" font-size="11" lengthAdjust="spacingAndGlyphs" textLength="296" x="1204.5" y="453.1479">String evaluateGpsSignalStrength(Satellite satellite)</text><rect fill="#F24D5C" height="6" style="stroke: #C82930; stroke-width: 1.0;" width="6" x="1192.5" y="459.7422"/><text fill="#000000" font-family="sans-serif" font-size="11" lengthAdjust="spacingAndGlyphs" textLength="213" x="1204.5" y="465.9526">boolean isStrongEnough(int strength)</text><line style="stroke: #A80036; stroke-width: 1.0; stroke-dasharray: 1.0,2.0;" x1="1185.5" x2="1403" y1="436.5352" y2="436.5352"/><text fill="#000000" font-family="sans-serif" font-size="11" lengthAdjust="spacingAndGlyphs" textLength="66" x="1403" y="439.8433">Use Case 2</text><line style="stroke: #A80036; stroke-width: 1.0; stroke-dasharray: 1.0,2.0;" x1="1469" x2="1686.5" y1="436.5352" y2="436.5352"/><!--MD5=[1d62022545d33e2b298eed7e640a6861]
class MiddlewareGisInterfaceImplementationTests--><rect fill="#FEFECE" filter="url(#fixxbkp3eq0ol)" height="86.4141" id="MiddlewareGisInterfaceImplementationTests" style="stroke: #A80036; stroke-width: 1.5;" width="308" x="1770" y="97.5"/><ellipse cx="1785" cy="113.5" fill="#ADD1B2" rx="11" ry="11" style="stroke: #A80036; stroke-width: 1.0;"/><path d="M1787.9688,119.1406 Q1787.3906,119.4375 1786.75,119.5781 Q1786.1094,119.7344 1785.4063,119.7344 Q1782.9063,119.7344 1781.5781,118.0938 Q1780.2656,116.4375 1780.2656,113.3125 Q1780.2656,110.1875 1781.5781,108.5313 Q1782.9063,106.875 1785.4063,106.875 Q1786.1094,106.875 1786.75,107.0313 Q1787.4063,107.1875 1787.9688,107.4844 L1787.9688,110.2031 Q1787.3438,109.625 1786.75,109.3594 Q1786.1563,109.0781 1785.5313,109.0781 Q1784.1875,109.0781 1783.5,110.1563 Q1782.8125,111.2188 1782.8125,113.3125 Q1782.8125,115.4063 1783.5,116.4844 Q1784.1875,117.5469 1785.5313,117.5469 Q1786.1563,117.5469 1786.75,117.2813 Q1787.3438,117 1787.9688,116.4219 L1787.9688,119.1406 Z "/><text fill="#000000" font-family="sans-serif" font-size="12" lengthAdjust="spacingAndGlyphs" textLength="276" x="1799" y="117.6543">MiddlewareGisInterfaceImplementationTests</text><line style="stroke: #A80036; stroke-width: 1.5;" x1="1771" x2="2077" y1="129.5" y2="129.5"/><line style="stroke: #A80036; stroke-width: 1.5;" x1="1771" x2="2077" y1="137.5" y2="137.5"/><ellipse cx="1781" cy="148.5" fill="#84BE84" rx="3" ry="3" style="stroke: #038048; stroke-width: 1.0;"/><text fill="#000000" font-family="sans-serif" font-size="11" lengthAdjust="spacingAndGlyphs" textLength="182" x="1790" y="151.7104">void passedSignalStrengthUc1()</text><ellipse cx="1781" cy="161.3047" fill="#84BE84" rx="3" ry="3" style="stroke: #038048; stroke-width: 1.0;"/><text fill="#000000" font-family="sans-serif" font-size="11" lengthAdjust="spacingAndGlyphs" textLength="182" x="1790" y="164.5151">void passedSignalStrengthUc2()</text><ellipse cx="1781" cy="174.1094" fill="#84BE84" rx="3" ry="3" style="stroke: #038048; stroke-width: 1.0;"/><text fill="#000000" font-family="sans-serif" font-size="11" lengthAdjust="spacingAndGlyphs" textLength="143" x="1790" y="177.3198">void processorIsNotNull()</text><!--MD5=[9d979fd86c0627804733ee7219a6151e]
class MiddlewareGisProcessorImplementationTests--><rect fill="#FEFECE" filter="url(#fixxbkp3eq0ol)" height="86.4141" id="MiddlewareGisProcessorImplementationTests" style="stroke: #A80036; stroke-width: 1.5;" width="315" x="2113.5" y="97.5"/><ellipse cx="2128.5" cy="113.5" fill="#ADD1B2" rx="11" ry="11" style="stroke: #A80036; stroke-width: 1.0;"/><path d="M2131.4688,119.1406 Q2130.8906,119.4375 2130.25,119.5781 Q2129.6094,119.7344 2128.9063,119.7344 Q2126.4063,119.7344 2125.0781,118.0938 Q2123.7656,116.4375 2123.7656,113.3125 Q2123.7656,110.1875 2125.0781,108.5313 Q2126.4063,106.875 2128.9063,106.875 Q2129.6094,106.875 2130.25,107.0313 Q2130.9063,107.1875 2131.4688,107.4844 L2131.4688,110.2031 Q2130.8438,109.625 2130.25,109.3594 Q2129.6563,109.0781 2129.0313,109.0781 Q2127.6875,109.0781 2127,110.1563 Q2126.3125,111.2188 2126.3125,113.3125 Q2126.3125,115.4063 2127,116.4844 Q2127.6875,117.5469 2129.0313,117.5469 Q2129.6563,117.5469 2130.25,117.2813 Q2130.8438,117 2131.4688,116.4219 L2131.4688,119.1406 Z "/><text fill="#000000" font-family="sans-serif" font-size="12" lengthAdjust="spacingAndGlyphs" textLength="283" x="2142.5" y="117.6543">MiddlewareGisProcessorImplementationTests</text><line style="stroke: #A80036; stroke-width: 1.5;" x1="2114.5" x2="2427.5" y1="129.5" y2="129.5"/><line style="stroke: #A80036; stroke-width: 1.5;" x1="2114.5" x2="2427.5" y1="137.5" y2="137.5"/><ellipse cx="2124.5" cy="148.5" fill="#84BE84" rx="3" ry="3" style="stroke: #038048; stroke-width: 1.0;"/><text fill="#000000" font-family="sans-serif" font-size="11" lengthAdjust="spacingAndGlyphs" textLength="173" x="2133.5" y="151.7104">void isGpsSignalStrengthNull()</text><ellipse cx="2124.5" cy="161.3047" fill="#84BE84" rx="3" ry="3" style="stroke: #038048; stroke-width: 1.0;"/><text fill="#000000" font-family="sans-serif" font-size="11" lengthAdjust="spacingAndGlyphs" textLength="205" x="2133.5" y="164.5151">void checkValueGpsSignalStrength()</text><ellipse cx="2124.5" cy="174.1094" fill="#84BE84" rx="3" ry="3" style="stroke: #038048; stroke-width: 1.0;"/><text fill="#000000" font-family="sans-serif" font-size="11" lengthAdjust="spacingAndGlyphs" textLength="136" x="2133.5" y="177.3198">void managerIsNotNull()</text><!--MD5=[d234de36885e20e607a6cce78b3173aa]
class MiddlewareGisManagerImplementationTests--><rect fill="#FEFECE" filter="url(#fixxbkp3eq0ol)" height="163.2422" id="MiddlewareGisManagerImplementationTests" style="stroke: #A80036; stroke-width: 1.5;" width="307" x="2463.5" y="59"/><ellipse cx="2478.5" cy="75" fill="#ADD1B2" rx="11" ry="11" style="stroke: #A80036; stroke-width: 1.0;"/><path d="M2481.4688,80.6406 Q2480.8906,80.9375 2480.25,81.0781 Q2479.6094,81.2344 2478.9063,81.2344 Q2476.4063,81.2344 2475.0781,79.5938 Q2473.7656,77.9375 2473.7656,74.8125 Q2473.7656,71.6875 2475.0781,70.0313 Q2476.4063,68.375 2478.9063,68.375 Q2479.6094,68.375 2480.25,68.5313 Q2480.9063,68.6875 2481.4688,68.9844 L2481.4688,71.7031 Q2480.8438,71.125 2480.25,70.8594 Q2479.6563,70.5781 2479.0313,70.5781 Q2477.6875,70.5781 2477,71.6563 Q2476.3125,72.7188 2476.3125,74.8125 Q2476.3125,76.9063 2477,77.9844 Q2477.6875,79.0469 2479.0313,79.0469 Q2479.6563,79.0469 2480.25,78.7813 Q2480.8438,78.5 2481.4688,77.9219 L2481.4688,80.6406 Z "/><text fill="#000000" font-family="sans-serif" font-size="12" lengthAdjust="spacingAndGlyphs" textLength="275" x="2492.5" y="79.1543">MiddlewareGisManagerImplementationTests</text><line style="stroke: #A80036; stroke-width: 1.5;" x1="2464.5" x2="2769.5" y1="91" y2="91"/><line style="stroke: #A80036; stroke-width: 1.5;" x1="2464.5" x2="2769.5" y1="99" y2="99"/><ellipse cx="2474.5" cy="110" fill="#84BE84" rx="3" ry="3" style="stroke: #038048; stroke-width: 1.0;"/><text fill="#000000" font-family="sans-serif" font-size="11" lengthAdjust="spacingAndGlyphs" textLength="213" x="2483.5" y="113.2104">void nullLocationDataPointNotStored()</text><ellipse cx="2474.5" cy="122.8047" fill="#84BE84" rx="3" ry="3" style="stroke: #038048; stroke-width: 1.0;"/><text fill="#000000" font-family="sans-serif" font-size="11" lengthAdjust="spacingAndGlyphs" textLength="226" x="2483.5" y="126.0151">void isGpsSignalStrengthEvaluateTrue()</text><ellipse cx="2474.5" cy="135.6094" fill="#84BE84" rx="3" ry="3" style="stroke: #038048; stroke-width: 1.0;"/><text fill="#000000" font-family="sans-serif" font-size="11" lengthAdjust="spacingAndGlyphs" textLength="230" x="2483.5" y="138.8198">void isGpsSignalStrengthEvaluateFalse()</text><ellipse cx="2474.5" cy="148.4141" fill="#84BE84" rx="3" ry="3" style="stroke: #038048; stroke-width: 1.0;"/><text fill="#000000" font-family="sans-serif" font-size="11" lengthAdjust="spacingAndGlyphs" textLength="112" x="2483.5" y="151.6245">void ldpInIsLdpOut()</text><ellipse cx="2474.5" cy="161.2188" fill="#84BE84" rx="3" ry="3" style="stroke: #038048; stroke-width: 1.0;"/><text fill="#000000" font-family="sans-serif" font-size="11" lengthAdjust="spacingAndGlyphs" textLength="190" x="2483.5" y="164.4292">void enterDegradedFromNormal()</text><ellipse cx="2474.5" cy="174.0234" fill="#84BE84" rx="3" ry="3" style="stroke: #038048; stroke-width: 1.0;"/><text fill="#000000" font-family="sans-serif" font-size="11" lengthAdjust="spacingAndGlyphs" textLength="190" x="2483.5" y="177.2339">void enterNormalFromDegraded()</text><ellipse cx="2474.5" cy="186.8281" fill="#84BE84" rx="3" ry="3" style="stroke: #038048; stroke-width: 1.0;"/><text fill="#000000" font-family="sans-serif" font-size="11" lengthAdjust="spacingAndGlyphs" textLength="181" x="2483.5" y="190.0386">void enterStandbyFromNormal()</text><ellipse cx="2474.5" cy="199.6328" fill="#84BE84" rx="3" ry="3" style="stroke: #038048; stroke-width: 1.0;"/><text fill="#000000" font-family="sans-serif" font-size="11" lengthAdjust="spacingAndGlyphs" textLength="195" x="2483.5" y="202.8433">void enterDegradedFromStandby()</text><ellipse cx="2474.5" cy="212.4375" fill="#84BE84" rx="3" ry="3" style="stroke: #038048; stroke-width: 1.0;"/><text fill="#000000" font-family="sans-serif" font-size="11" lengthAdjust="spacingAndGlyphs" textLength="188" x="2483.5" y="215.6479">void databaseInterfaceIsNotNull()</text><!--MD5=[51651d19c556f37aaa3859a830b9d09e]
class MiddlewareGisProcessorStub--><rect fill="#FEFECE" filter="url(#fixxbkp3eq0ol)" height="107.2188" id="MiddlewareGisProcessorStub" style="stroke: #A80036; stroke-width: 1.5;" width="360" x="1744" y="327"/><ellipse cx="1829.25" cy="343" fill="#ADD1B2" rx="11" ry="11" style="stroke: #A80036; stroke-width: 1.0;"/><path d="M1832.2188,348.6406 Q1831.6406,348.9375 1831,349.0781 Q1830.3594,349.2344 1829.6563,349.2344 Q1827.1563,349.2344 1825.8281,347.5938 Q1824.5156,345.9375 1824.5156,342.8125 Q1824.5156,339.6875 1825.8281,338.0313 Q1827.1563,336.375 1829.6563,336.375 Q1830.3594,336.375 1831,336.5313 Q1831.6563,336.6875 1832.2188,336.9844 L1832.2188,339.7031 Q1831.5938,339.125 1831,338.8594 Q1830.4063,338.5781 1829.7813,338.5781 Q1828.4375,338.5781 1827.75,339.6563 Q1827.0625,340.7188 1827.0625,342.8125 Q1827.0625,344.9063 1827.75,345.9844 Q1828.4375,347.0469 1829.7813,347.0469 Q1830.4063,347.0469 1831,346.7813 Q1831.5938,346.5 1832.2188,345.9219 L1832.2188,348.6406 Z "/><text fill="#000000" font-family="sans-serif" font-size="12" lengthAdjust="spacingAndGlyphs" textLength="181" x="1849.75" y="347.1543">MiddlewareGisProcessorStub</text><line style="stroke: #A80036; stroke-width: 1.5;" x1="1745" x2="2103" y1="359" y2="359"/><line style="stroke: #A80036; stroke-width: 1.5;" x1="1745" x2="2103" y1="367" y2="367"/><ellipse cx="1755" cy="394.8047" fill="#84BE84" rx="3" ry="3" style="stroke: #038048; stroke-width: 1.0;"/><text fill="#000000" font-family="sans-serif" font-size="11" lengthAdjust="spacingAndGlyphs" textLength="331" x="1764" y="398.0151">String evaluateGpsSignalStrength(Satellite satelliteSignal)</text><line style="stroke: #A80036; stroke-width: 1.0; stroke-dasharray: 1.0,2.0;" x1="1745" x2="1891" y1="381.4023" y2="381.4023"/><text fill="#000000" font-family="sans-serif" font-size="11" lengthAdjust="spacingAndGlyphs" textLength="66" x="1891" y="384.7104">Use Case 1</text><line style="stroke: #A80036; stroke-width: 1.0; stroke-dasharray: 1.0,2.0;" x1="1957" x2="2103" y1="381.4023" y2="381.4023"/><ellipse cx="1755" cy="424.4141" fill="#84BE84" rx="3" ry="3" style="stroke: #038048; stroke-width: 1.0;"/><text fill="#000000" font-family="sans-serif" font-size="11" lengthAdjust="spacingAndGlyphs" textLength="334" x="1764" y="427.6245">String measureGpsSignalStrength(Satellite satelliteSignal)</text><line style="stroke: #A80036; stroke-width: 1.0; stroke-dasharray: 1.0,2.0;" x1="1745" x2="1891" y1="411.0117" y2="411.0117"/><text fill="#000000" font-family="sans-serif" font-size="11" lengthAdjust="spacingAndGlyphs" textLength="66" x="1891" y="414.3198">Use Case 2</text><line style="stroke: #A80036; stroke-width: 1.0; stroke-dasharray: 1.0,2.0;" x1="1957" x2="2103" y1="411.0117" y2="411.0117"/><!--MD5=[74a4f2264e7a0b184f8bb8bbbacbeff6]
class MiddlewareGisManagerStub--><rect fill="#FEFECE" filter="url(#fixxbkp3eq0ol)" height="196.8516" id="MiddlewareGisManagerStub" style="stroke: #A80036; stroke-width: 1.5;" width="402" x="2139" y="282"/><ellipse cx="2249.25" cy="298" fill="#ADD1B2" rx="11" ry="11" style="stroke: #A80036; stroke-width: 1.0;"/><path d="M2252.2188,303.6406 Q2251.6406,303.9375 2251,304.0781 Q2250.3594,304.2344 2249.6563,304.2344 Q2247.1563,304.2344 2245.8281,302.5938 Q2244.5156,300.9375 2244.5156,297.8125 Q2244.5156,294.6875 2245.8281,293.0313 Q2247.1563,291.375 2249.6563,291.375 Q2250.3594,291.375 2251,291.5313 Q2251.6563,291.6875 2252.2188,291.9844 L2252.2188,294.7031 Q2251.5938,294.125 2251,293.8594 Q2250.4063,293.5781 2249.7813,293.5781 Q2248.4375,293.5781 2247.75,294.6563 Q2247.0625,295.7188 2247.0625,297.8125 Q2247.0625,299.9063 2247.75,300.9844 Q2248.4375,302.0469 2249.7813,302.0469 Q2250.4063,302.0469 2251,301.7813 Q2251.5938,301.5 2252.2188,300.9219 L2252.2188,303.6406 Z "/><text fill="#000000" font-family="sans-serif" font-size="12" lengthAdjust="spacingAndGlyphs" textLength="173" x="2269.75" y="302.1543">MiddlewareGisManagerStub</text><line style="stroke: #A80036; stroke-width: 1.5;" x1="2140" x2="2540" y1="314" y2="314"/><ellipse cx="2150" cy="325" fill="none" rx="3" ry="3" style="stroke: #038048; stroke-width: 1.0;"/><text fill="#000000" font-family="sans-serif" font-size="11" lengthAdjust="spacingAndGlyphs" textLength="210" x="2159" y="328.2104">LocationDataPoint locationDataPoint1</text><ellipse cx="2150" cy="337.8047" fill="none" rx="3" ry="3" style="stroke: #038048; stroke-width: 1.0;"/><text fill="#000000" font-family="sans-serif" font-size="11" lengthAdjust="spacingAndGlyphs" textLength="210" x="2159" y="341.0151">LocationDataPoint locationDataPoint2</text><line style="stroke: #A80036; stroke-width: 1.5;" x1="2140" x2="2540" y1="347.6094" y2="347.6094"/><ellipse cx="2150" cy="358.6094" fill="#84BE84" rx="3" ry="3" style="stroke: #038048; stroke-width: 1.0;"/><text fill="#000000" font-family="sans-serif" font-size="11" lengthAdjust="spacingAndGlyphs" textLength="166" x="2159" y="361.8198">MiddlewareGisManagerStub()</text><ellipse cx="2150" cy="371.4141" fill="#84BE84" rx="3" ry="3" style="stroke: #038048; stroke-width: 1.0;"/><text fill="#000000" font-family="sans-serif" font-size="11" lengthAdjust="spacingAndGlyphs" textLength="376" x="2159" y="374.6245">MiddlewareGisManagerStub(LocationDataPoint locationDataPoint1)</text><ellipse cx="2150" cy="401.0234" fill="#84BE84" rx="3" ry="3" style="stroke: #038048; stroke-width: 1.0;"/><text fill="#000000" font-family="sans-serif" font-size="11" lengthAdjust="spacingAndGlyphs" textLength="331" x="2159" y="404.2339">String receieveGpsSignalStrength(Satellite satelliteSignal)</text><ellipse cx="2150" cy="413.8281" fill="#84BE84" rx="3" ry="3" style="stroke: #038048; stroke-width: 1.0;"/><text fill="#000000" font-family="sans-serif" font-size="11" lengthAdjust="spacingAndGlyphs" textLength="166" x="2159" y="417.0386">void storeLocationDataPoint()</text><ellipse cx="2150" cy="426.6328" fill="#84BE84" rx="3" ry="3" style="stroke: #038048; stroke-width: 1.0;"/><text fill="#000000" font-family="sans-serif" font-size="11" lengthAdjust="spacingAndGlyphs" textLength="185" x="2159" y="429.8433">LocationDataPoint getLocation2()</text><line style="stroke: #A80036; stroke-width: 1.0; stroke-dasharray: 1.0,2.0;" x1="2140" x2="2307" y1="387.6211" y2="387.6211"/><text fill="#000000" font-family="sans-serif" font-size="11" lengthAdjust="spacingAndGlyphs" textLength="66" x="2307" y="390.9292">Use Case 1</text><line style="stroke: #A80036; stroke-width: 1.0; stroke-dasharray: 1.0,2.0;" x1="2373" x2="2540" y1="387.6211" y2="387.6211"/><ellipse cx="2150" cy="456.2422" fill="#84BE84" rx="3" ry="3" style="stroke: #038048; stroke-width: 1.0;"/><text fill="#000000" font-family="sans-serif" font-size="11" lengthAdjust="spacingAndGlyphs" textLength="306" x="2159" y="459.4526">String attemptToRegainGpsLock(String satelliteName)</text><ellipse cx="2150" cy="469.0469" fill="#84BE84" rx="3" ry="3" style="stroke: #038048; stroke-width: 1.0;"/><text fill="#000000" font-family="sans-serif" font-size="11" lengthAdjust="spacingAndGlyphs" textLength="296" x="2159" y="472.2573">String evaluateGpsSignalStrength(Satellite satellite)</text><line style="stroke: #A80036; stroke-width: 1.0; stroke-dasharray: 1.0,2.0;" x1="2140" x2="2307" y1="442.8398" y2="442.8398"/><text fill="#000000" font-family="sans-serif" font-size="11" lengthAdjust="spacingAndGlyphs" textLength="66" x="2307" y="446.1479">Use Case 2</text><line style="stroke: #A80036; stroke-width: 1.0; stroke-dasharray: 1.0,2.0;" x1="2373" x2="2540" y1="442.8398" y2="442.8398"/><!--MD5=[ab27779a11d5209c16fcbeb03aa21929]
class DatabaseGisInterfaceStub--><rect fill="#FEFECE" filter="url(#fixxbkp3eq0ol)" height="171.2422" id="DatabaseGisInterfaceStub" style="stroke: #A80036; stroke-width: 1.5;" width="382" x="2576" y="295"/><ellipse cx="2680.25" cy="311" fill="#ADD1B2" rx="11" ry="11" style="stroke: #A80036; stroke-width: 1.0;"/><path d="M2683.2188,316.6406 Q2682.6406,316.9375 2682,317.0781 Q2681.3594,317.2344 2680.6563,317.2344 Q2678.1563,317.2344 2676.8281,315.5938 Q2675.5156,313.9375 2675.5156,310.8125 Q2675.5156,307.6875 2676.8281,306.0313 Q2678.1563,304.375 2680.6563,304.375 Q2681.3594,304.375 2682,304.5313 Q2682.6563,304.6875 2683.2188,304.9844 L2683.2188,307.7031 Q2682.5938,307.125 2682,306.8594 Q2681.4063,306.5781 2680.7813,306.5781 Q2679.4375,306.5781 2678.75,307.6563 Q2678.0625,308.7188 2678.0625,310.8125 Q2678.0625,312.9063 2678.75,313.9844 Q2679.4375,315.0469 2680.7813,315.0469 Q2681.4063,315.0469 2682,314.7813 Q2682.5938,314.5 2683.2188,313.9219 L2683.2188,316.6406 Z "/><text fill="#000000" font-family="sans-serif" font-size="12" lengthAdjust="spacingAndGlyphs" textLength="165" x="2700.75" y="315.1543">DatabaseGisInterfaceStub</text><line style="stroke: #A80036; stroke-width: 1.5;" x1="2577" x2="2957" y1="327" y2="327"/><rect fill="none" height="6" style="stroke: #C82930; stroke-width: 1.0;" width="6" x="2584" y="335"/><text fill="#000000" font-family="sans-serif" font-size="11" lengthAdjust="spacingAndGlyphs" textLength="203" x="2596" y="341.2104">LocationDataPoint locationDataPoint</text><rect fill="none" height="6" style="stroke: #C82930; stroke-width: 1.0;" width="6" x="2584" y="347.8047"/><text fill="#000000" font-family="sans-serif" font-size="11" lengthAdjust="spacingAndGlyphs" textLength="70" x="2596" y="354.0151">String mode</text><line style="stroke: #A80036; stroke-width: 1.5;" x1="2577" x2="2957" y1="360.6094" y2="360.6094"/><ellipse cx="2587" cy="388.4141" fill="#84BE84" rx="3" ry="3" style="stroke: #038048; stroke-width: 1.0;"/><text fill="#000000" font-family="sans-serif" font-size="11" lengthAdjust="spacingAndGlyphs" textLength="356" x="2596" y="391.6245">void receiveStoreRequest(LocationDataPoint locationDataPoint)</text><ellipse cx="2587" cy="401.2188" fill="#84BE84" rx="3" ry="3" style="stroke: #038048; stroke-width: 1.0;"/><text fill="#000000" font-family="sans-serif" font-size="11" lengthAdjust="spacingAndGlyphs" textLength="178" x="2596" y="404.4292">LocationDataPoint getLocation()</text><line style="stroke: #A80036; stroke-width: 1.0; stroke-dasharray: 1.0,2.0;" x1="2577" x2="2734" y1="375.0117" y2="375.0117"/><text fill="#000000" font-family="sans-serif" font-size="11" lengthAdjust="spacingAndGlyphs" textLength="66" x="2734" y="378.3198">Use Case 1</text><line style="stroke: #A80036; stroke-width: 1.0; stroke-dasharray: 1.0,2.0;" x1="2800" x2="2957" y1="375.0117" y2="375.0117"/><ellipse cx="2587" cy="430.8281" fill="#84BE84" rx="3" ry="3" style="stroke: #038048; stroke-width: 1.0;"/><text fill="#000000" font-family="sans-serif" font-size="11" lengthAdjust="spacingAndGlyphs" textLength="222" x="2596" y="434.0386">void receiveModeRequest(String mode)</text><ellipse cx="2587" cy="443.6328" fill="#84BE84" rx="3" ry="3" style="stroke: #038048; stroke-width: 1.0;"/><text fill="#000000" font-family="sans-serif" font-size="11" lengthAdjust="spacingAndGlyphs" textLength="94" x="2596" y="446.8433">String getMode()</text><ellipse cx="2587" cy="456.4375" fill="#84BE84" rx="3" ry="3" style="stroke: #038048; stroke-width: 1.0;"/><text fill="#000000" font-family="sans-serif" font-size="11" lengthAdjust="spacingAndGlyphs" textLength="275" x="2596" y="459.6479">String receiveNextSatRequest(String currentSat)</text><line style="stroke: #A80036; stroke-width: 1.0; stroke-dasharray: 1.0,2.0;" x1="2577" x2="2734" y1="417.4258" y2="417.4258"/><text fill="#000000" font-family="sans-serif" font-size="11" lengthAdjust="spacingAndGlyphs" textLength="66" x="2734" y="420.7339">Use Case 2</text><line style="stroke: #A80036; stroke-width: 1.0; stroke-dasharray: 1.0,2.0;" x1="2800" x2="2957" y1="417.4258" y2="417.4258"/><polygon fill="#FFFFFF" filter="url(#fixxbkp3eq0ol)" points="2989.5,114,3264.5,114,3271.5,136.2969,3278.5,136.2969,3278.5,166.5938,2989.5,166.5938,2989.5,114" style="stroke: #000000; stroke-width: 1.5;"/><line style="stroke: #000000; stroke-width: 1.5;" x1="2989.5" x2="3271.5" y1="136.2969" y2="136.2969"/><text fill="#000000" font-family="sans-serif" font-size="14" font-weight="bold" lengthAdjust="spacingAndGlyphs" textLength="269" x="2993.5" y="128.9951">edu.oakland.helper.middleware01</text><!--MD5=[b7f9f61643177129a34bef2d42772173]
link MiddlewareGisInterface to MiddlewareGisProcessor--><!--MD5=[03ed72b80ae2e539149d41f6733cb2b6]
link MiddlewareGisProcessor to MiddlewareGisManager--><!--MD5=[65e8ae3be48d8b317df68a5ff25b225a]
link MiddlewareGisInterface to MiddlewareGisInterfaceImplementation--><!--MD5=[bfd30003311d14dcb404997a195ab642]
link MiddlewareGisInterfaceImplementation to MiddlewareGisProcessorImplementation--><!--MD5=[e58f60c707b124812ecd922950d23b3a]
link MiddlewareGisProcessorImplementation to MiddlewareGisManagerImplementation--><!--MD5=[66a075d8653edad79e5184ccbc7710ba]
link MiddlewareGisInterfaceImplementationTests to MiddlewareGisProcessorImplementationTests--><!--MD5=[caf97344b76f1f237682011bbbe3fff7]
link MiddlewareGisProcessorImplementationTests to MiddlewareGisManagerImplementationTests--><!--MD5=[973ed9568ae6a7304b1bd90c0eb4e200]
link MiddlewareGisInterfaceImplementationTests to MiddlewareGisProcessorStub--><!--MD5=[c90f2bbba516d9904fe974e55994d75f]
link MiddlewareGisProcessorStub to MiddlewareGisManagerStub--><!--MD5=[f67c056fc6717e6747b4e825179381c0]
link MiddlewareGisManagerStub to DatabaseGisInterfaceStub--><!--MD5=[89c4b037a9effbe2375ee696a13639da]
@startuml Middleware01Packages


package edu.oakland.production.middleware01 {

}


package edu.oakland.production.middleware01 {
    interface MiddlewareGisInterface {
        __
        .. Use Case 1 ..
        {abstract} + String receiveGpsSignalStrengthUc1(Satellite satelliteSignal)
        .. Use Case 2 ..
        {abstract} + String receiveGpsSignalStrengthUc2(Satellite satelliteSignal)
    }
}


package edu.oakland.production.middleware01 {
    interface MiddlewareGisProcessor {
        __
        .. Use Case 1 ..
        {abstract} + String evaluateGpsSignalStrength(Satellite satelliteSignal)
        .. Use Case 2 ..
        {abstract} + String measureGpsSignalStrength(Satellite satelliteSignal)
    }
}


package edu.oakland.production.middleware01 {
    interface MiddlewareGisManager {
        __
        .. Use Case 1 ..
        {abstract} + String receieveGpsSignalStrength(Satellite satelliteSignal)
        {abstract} + void storeLocationDataPoint()
        .. Use Case 2 ..
        {abstract} + String evaluateGpsSignalStrength(Satellite satellite)
    }
}


package edu.oakland.production.middleware01 {
    class MiddlewareGisInterfaceImplementation {
        - MiddlewareGisProcessor middlewareGisProcessor
        __
        + MiddlewareGisInterfaceImplementation(MiddlewareGisProcessor middlewareGisProcessor)
        .. Use Case 1 ..
        + String receiveGpsSignalStrengthUc1(Satellite satelliteSignal)
        .. Use Case 2 ..
        + String receiveGpsSignalStrengthUc2(Satellite satelliteSignal)
    }
}


package edu.oakland.production.middleware01 {
    class MiddlewareGisProcessorImplementation {
        - MiddlewareGisManager middlewareGisManager
        __
        + MiddlewareGisProcessorImplementation(MiddlewareGisManager middlewareGisManager)
        .. Use Case 1 ..
        + String evaluateGpsSignalStrength(Satellite satelliteSignal)
        .. Use Case 2 ..
        + String measureGpsSignalStrength(Satellite satelliteSignal)
    }
}


package edu.oakland.production.middleware01 {
    class MiddlewareGisManagerImplementation {
        - DatabaseGisInterface databaseGisInterface
        - LocationDataPoint locationDataPoint
        - Satellite satelliteSignal
        __
        + MiddlewareGisManagerImplementation(DatabaseGisInterface databaseGisInterface)
        .. Use Case 1 ..
        + String receieveGpsSignalStrength(Satellite satelliteSignal)
        + void storeLocationDataPoint()
        .. Use Case 2 ..
        + String evaluateGpsSignalStrength(Satellite satellite)
        - boolean isStrongEnough(int strength)
    }
}



package edu.oakland.test.middleware01 {
    
}


package edu.oakland.test.middleware01 {
  class MiddlewareGisInterfaceImplementationTests {
    + void passedSignalStrengthUc1()
    + void passedSignalStrengthUc2()
    + void processorIsNotNull()
  }
}


package edu.oakland.test.middleware01 {
  class MiddlewareGisProcessorImplementationTests {
    + void isGpsSignalStrengthNull()
    + void checkValueGpsSignalStrength()
    + void managerIsNotNull()
  }
}


package edu.oakland.test.middleware01 {
  class MiddlewareGisManagerImplementationTests {
    + void nullLocationDataPointNotStored()
    + void isGpsSignalStrengthEvaluateTrue()
    + void isGpsSignalStrengthEvaluateFalse()
    + void ldpInIsLdpOut()
    + void enterDegradedFromNormal()
    + void enterNormalFromDegraded()
    + void enterStandbyFromNormal()
    + void enterDegradedFromStandby()
    + void databaseInterfaceIsNotNull()
  }
}


package edu.oakland.test.middleware01 {
    class MiddlewareGisProcessorStub {
        __
        .. Use Case 1 ..
        + String evaluateGpsSignalStrength(Satellite satelliteSignal)
        .. Use Case 2 ..
        + String measureGpsSignalStrength(Satellite satelliteSignal)
    }
}


package edu.oakland.test.middleware01 {
    class MiddlewareGisManagerStub {
        + LocationDataPoint locationDataPoint1
        + LocationDataPoint locationDataPoint2
        __
        + MiddlewareGisManagerStub()
        + MiddlewareGisManagerStub(LocationDataPoint locationDataPoint1)
        .. Use Case 1 ..
        + String receieveGpsSignalStrength(Satellite satelliteSignal)
        + void storeLocationDataPoint()
        + LocationDataPoint getLocation2()
        .. Use Case 2 ..
        + String attemptToRegainGpsLock(String satelliteName)
        + String evaluateGpsSignalStrength(Satellite satellite)
    }
}


package edu.oakland.test.middleware01 {
    class DatabaseGisInterfaceStub {
        - LocationDataPoint locationDataPoint
        - String mode
        __
        .. Use Case 1 ..
        + void receiveStoreRequest(LocationDataPoint locationDataPoint)
        + LocationDataPoint getLocation()
        .. Use Case 2 ..
        + void receiveModeRequest(String mode)
        + String getMode()
        + String receiveNextSatRequest(String currentSat)
    }
}



package edu.oakland.helper.middleware01 {
    
}


@enduml

PlantUML version 1.2020.02(Sun Mar 01 10:22:07 GMT 2020)
(GPL source distribution)
Java Runtime: OpenJDK Runtime Environment
JVM: OpenJDK 64-Bit Server VM
Java Version: 11.0.9+11-Ubuntu-0ubuntu1
Operating System: Linux
Default Encoding: ANSI_X3.4-1968
Language: en
Country: US
--></g></svg>