<?xml version="1.0" encoding="UTF-8" standalone="no"?><svg xmlns="http://www.w3.org/2000/svg" xmlns:xlink="http://www.w3.org/1999/xlink" contentScriptType="application/ecmascript" contentStyleType="text/css" height="438px" preserveAspectRatio="none" style="width:2357px;height:438px;" version="1.1" viewBox="0 0 2357 438" width="2357px" zoomAndPan="magnify"><defs><filter height="300%" id="f8go4pzbs0zt7" width="300%" x="-1" y="-1"><feGaussianBlur result="blurOut" stdDeviation="2.0"/><feColorMatrix in="blurOut" result="blurOut2" type="matrix" values="0 0 0 0 0 0 0 0 0 0 0 0 0 0 0 0 0 0 .4 0"/><feOffset dx="4.0" dy="4.0" in="blurOut2" result="blurOut3"/><feBlend in="SourceGraphic" in2="blurOut3" mode="normal"/></filter></defs><g><!--MD5=[3f116dbe56326f0321b4f8703f3bd2bd]
cluster edu.oakland.production.middleware01--><polygon fill="#FFFFFF" filter="url(#f8go4pzbs0zt7)" points="614.5,24,924.5,24,931.5,46.2969,2335.5,46.2969,2335.5,426,614.5,426,614.5,24" style="stroke: #000000; stroke-width: 1.5;"/><line style="stroke: #000000; stroke-width: 1.5;" x1="614.5" x2="931.5" y1="46.2969" y2="46.2969"/><text fill="#000000" font-family="sans-serif" font-size="14" font-weight="bold" lengthAdjust="spacingAndGlyphs" textLength="304" x="618.5" y="38.9951">edu.oakland.production.middleware01</text><!--MD5=[291cbaddec1abeb2a8a54e5a343c76e9]
class MiddlewareGisInterface--><rect fill="#FEFECE" filter="url(#f8go4pzbs0zt7)" height="107.2188" id="MiddlewareGisInterface" style="stroke: #A80036; stroke-width: 1.5;" width="344" x="730.5" y="72"/><ellipse cx="825.25" cy="88" fill="#B4A7E5" rx="11" ry="11" style="stroke: #A80036; stroke-width: 1.0;"/><path d="M821.1719,83.7656 L821.1719,81.6094 L828.5625,81.6094 L828.5625,83.7656 L826.0938,83.7656 L826.0938,91.8438 L828.5625,91.8438 L828.5625,94 L821.1719,94 L821.1719,91.8438 L823.6406,91.8438 L823.6406,83.7656 L821.1719,83.7656 Z "/><text fill="#000000" font-family="sans-serif" font-size="12" font-style="italic" lengthAdjust="spacingAndGlyphs" textLength="146" x="845.75" y="92.1543">MiddlewareGisInterface</text><line style="stroke: #A80036; stroke-width: 1.5;" x1="731.5" x2="1073.5" y1="104" y2="104"/><line style="stroke: #A80036; stroke-width: 1.5;" x1="731.5" x2="1073.5" y1="112" y2="112"/><ellipse cx="741.5" cy="139.8047" fill="#84BE84" rx="3" ry="3" style="stroke: #038048; stroke-width: 1.0;"/><text fill="#000000" font-family="sans-serif" font-size="11" font-style="italic" lengthAdjust="spacingAndGlyphs" textLength="318" x="750.5" y="143.0151">String receiveGpsSignalStrength(Satellite satelliteSignal)</text><line style="stroke: #A80036; stroke-width: 1.0; stroke-dasharray: 1.0,2.0;" x1="731.5" x2="869.5" y1="126.4023" y2="126.4023"/><text fill="#000000" font-family="sans-serif" font-size="11" lengthAdjust="spacingAndGlyphs" textLength="66" x="869.5" y="129.7104">Use Case 1</text><line style="stroke: #A80036; stroke-width: 1.0; stroke-dasharray: 1.0,2.0;" x1="935.5" x2="1073.5" y1="126.4023" y2="126.4023"/><ellipse cx="741.5" cy="169.4141" fill="#84BE84" rx="3" ry="3" style="stroke: #038048; stroke-width: 1.0;"/><text fill="#000000" font-family="sans-serif" font-size="11" font-style="italic" lengthAdjust="spacingAndGlyphs" textLength="318" x="750.5" y="172.6245">String receiveGpsSignalStrength(Satellite satelliteSignal)</text><line style="stroke: #A80036; stroke-width: 1.0; stroke-dasharray: 1.0,2.0;" x1="731.5" x2="869.5" y1="156.0117" y2="156.0117"/><text fill="#000000" font-family="sans-serif" font-size="11" lengthAdjust="spacingAndGlyphs" textLength="66" x="869.5" y="159.3198">Use Case 2</text><line style="stroke: #A80036; stroke-width: 1.0; stroke-dasharray: 1.0,2.0;" x1="935.5" x2="1073.5" y1="156.0117" y2="156.0117"/><!--MD5=[8ee200b6efa8fed886485614c0f8779a]
class MiddlewareGisProcessor--><rect fill="#FEFECE" filter="url(#f8go4pzbs0zt7)" height="107.2188" id="MiddlewareGisProcessor" style="stroke: #A80036; stroke-width: 1.5;" width="352" x="1299.5" y="72"/><ellipse cx="1396.75" cy="88" fill="#B4A7E5" rx="11" ry="11" style="stroke: #A80036; stroke-width: 1.0;"/><path d="M1392.6719,83.7656 L1392.6719,81.6094 L1400.0625,81.6094 L1400.0625,83.7656 L1397.5938,83.7656 L1397.5938,91.8438 L1400.0625,91.8438 L1400.0625,94 L1392.6719,94 L1392.6719,91.8438 L1395.1406,91.8438 L1395.1406,83.7656 L1392.6719,83.7656 Z "/><text fill="#000000" font-family="sans-serif" font-size="12" font-style="italic" lengthAdjust="spacingAndGlyphs" textLength="149" x="1417.25" y="92.1543">MiddlewareGisProcessor</text><line style="stroke: #A80036; stroke-width: 1.5;" x1="1300.5" x2="1650.5" y1="104" y2="104"/><line style="stroke: #A80036; stroke-width: 1.5;" x1="1300.5" x2="1650.5" y1="112" y2="112"/><ellipse cx="1310.5" cy="139.8047" fill="#84BE84" rx="3" ry="3" style="stroke: #038048; stroke-width: 1.0;"/><text fill="#000000" font-family="sans-serif" font-size="11" font-style="italic" lengthAdjust="spacingAndGlyphs" textLength="325" x="1319.5" y="143.0151">String evaluateGpsSignalStrength(Satellite satelliteSignal)</text><line style="stroke: #A80036; stroke-width: 1.0; stroke-dasharray: 1.0,2.0;" x1="1300.5" x2="1442.5" y1="126.4023" y2="126.4023"/><text fill="#000000" font-family="sans-serif" font-size="11" lengthAdjust="spacingAndGlyphs" textLength="66" x="1442.5" y="129.7104">Use Case 1</text><line style="stroke: #A80036; stroke-width: 1.0; stroke-dasharray: 1.0,2.0;" x1="1508.5" x2="1650.5" y1="126.4023" y2="126.4023"/><ellipse cx="1310.5" cy="169.4141" fill="#84BE84" rx="3" ry="3" style="stroke: #038048; stroke-width: 1.0;"/><text fill="#000000" font-family="sans-serif" font-size="11" font-style="italic" lengthAdjust="spacingAndGlyphs" textLength="326" x="1319.5" y="172.6245">String measureGpsSignalStrength(Satellite satelliteSignal)</text><line style="stroke: #A80036; stroke-width: 1.0; stroke-dasharray: 1.0,2.0;" x1="1300.5" x2="1442.5" y1="156.0117" y2="156.0117"/><text fill="#000000" font-family="sans-serif" font-size="11" lengthAdjust="spacingAndGlyphs" textLength="66" x="1442.5" y="159.3198">Use Case 2</text><line style="stroke: #A80036; stroke-width: 1.0; stroke-dasharray: 1.0,2.0;" x1="1508.5" x2="1650.5" y1="156.0117" y2="156.0117"/><!--MD5=[6b8f2796bf9a05cb61532ec918b7c92e]
class MiddlewareGisManager--><rect fill="#FEFECE" filter="url(#f8go4pzbs0zt7)" height="132.8281" id="MiddlewareGisManager" style="stroke: #A80036; stroke-width: 1.5;" width="351" x="1873" y="59"/><ellipse cx="1972.25" cy="75" fill="#B4A7E5" rx="11" ry="11" style="stroke: #A80036; stroke-width: 1.0;"/><path d="M1968.1719,70.7656 L1968.1719,68.6094 L1975.5625,68.6094 L1975.5625,70.7656 L1973.0938,70.7656 L1973.0938,78.8438 L1975.5625,78.8438 L1975.5625,81 L1968.1719,81 L1968.1719,78.8438 L1970.6406,78.8438 L1970.6406,70.7656 L1968.1719,70.7656 Z "/><text fill="#000000" font-family="sans-serif" font-size="12" font-style="italic" lengthAdjust="spacingAndGlyphs" textLength="144" x="1992.75" y="79.1543">MiddlewareGisManager</text><line style="stroke: #A80036; stroke-width: 1.5;" x1="1874" x2="2223" y1="91" y2="91"/><line style="stroke: #A80036; stroke-width: 1.5;" x1="1874" x2="2223" y1="99" y2="99"/><ellipse cx="1884" cy="126.8047" fill="#84BE84" rx="3" ry="3" style="stroke: #038048; stroke-width: 1.0;"/><text fill="#000000" font-family="sans-serif" font-size="11" font-style="italic" lengthAdjust="spacingAndGlyphs" textLength="325" x="1893" y="130.0151">String receieveGpsSignalStrength(Satellite satelliteSignal)</text><ellipse cx="1884" cy="139.6094" fill="#84BE84" rx="3" ry="3" style="stroke: #038048; stroke-width: 1.0;"/><text fill="#000000" font-family="sans-serif" font-size="11" font-style="italic" lengthAdjust="spacingAndGlyphs" textLength="166" x="1893" y="142.8198">void storeLocationDataPoint()</text><line style="stroke: #A80036; stroke-width: 1.0; stroke-dasharray: 1.0,2.0;" x1="1874" x2="2015.5" y1="113.4023" y2="113.4023"/><text fill="#000000" font-family="sans-serif" font-size="11" lengthAdjust="spacingAndGlyphs" textLength="66" x="2015.5" y="116.7104">Use Case 1</text><line style="stroke: #A80036; stroke-width: 1.0; stroke-dasharray: 1.0,2.0;" x1="2081.5" x2="2223" y1="113.4023" y2="113.4023"/><ellipse cx="1884" cy="169.2188" fill="#84BE84" rx="3" ry="3" style="stroke: #038048; stroke-width: 1.0;"/><text fill="#000000" font-family="sans-serif" font-size="11" font-style="italic" lengthAdjust="spacingAndGlyphs" textLength="303" x="1893" y="172.4292">String attemptToRegainGpsLock(String satelliteName)</text><ellipse cx="1884" cy="182.0234" fill="#84BE84" rx="3" ry="3" style="stroke: #038048; stroke-width: 1.0;"/><text fill="#000000" font-family="sans-serif" font-size="11" font-style="italic" lengthAdjust="spacingAndGlyphs" textLength="308" x="1893" y="185.2339">String evaluateGpsSignalStrength(boolean signalValid)</text><line style="stroke: #A80036; stroke-width: 1.0; stroke-dasharray: 1.0,2.0;" x1="1874" x2="2015.5" y1="155.8164" y2="155.8164"/><text fill="#000000" font-family="sans-serif" font-size="11" lengthAdjust="spacingAndGlyphs" textLength="66" x="2015.5" y="159.1245">Use Case 2</text><line style="stroke: #A80036; stroke-width: 1.0; stroke-dasharray: 1.0,2.0;" x1="2081.5" x2="2223" y1="155.8164" y2="155.8164"/><!--MD5=[00cae90dad3d6433dbf28d238006c643]
class MiddlewareGisInterfaceImplementation--><rect fill="#FEFECE" filter="url(#f8go4pzbs0zt7)" height="132.8281" id="MiddlewareGisInterfaceImplementation" style="stroke: #A80036; stroke-width: 1.5;" width="543" x="631" y="264.5"/><ellipse cx="777.25" cy="280.5" fill="#ADD1B2" rx="11" ry="11" style="stroke: #A80036; stroke-width: 1.0;"/><path d="M780.2188,286.1406 Q779.6406,286.4375 779,286.5781 Q778.3594,286.7344 777.6563,286.7344 Q775.1563,286.7344 773.8281,285.0938 Q772.5156,283.4375 772.5156,280.3125 Q772.5156,277.1875 773.8281,275.5313 Q775.1563,273.875 777.6563,273.875 Q778.3594,273.875 779,274.0313 Q779.6563,274.1875 780.2188,274.4844 L780.2188,277.2031 Q779.5938,276.625 779,276.3594 Q778.4063,276.0781 777.7813,276.0781 Q776.4375,276.0781 775.75,277.1563 Q775.0625,278.2188 775.0625,280.3125 Q775.0625,282.4063 775.75,283.4844 Q776.4375,284.5469 777.7813,284.5469 Q778.4063,284.5469 779,284.2813 Q779.5938,284 780.2188,283.4219 L780.2188,286.1406 Z "/><text fill="#000000" font-family="sans-serif" font-size="12" lengthAdjust="spacingAndGlyphs" textLength="242" x="797.75" y="284.6543">MiddlewareGisInterfaceImplementation</text><line style="stroke: #A80036; stroke-width: 1.5;" x1="632" x2="1173" y1="296.5" y2="296.5"/><rect fill="none" height="6" style="stroke: #C82930; stroke-width: 1.0;" width="6" x="639" y="304.5"/><text fill="#000000" font-family="sans-serif" font-size="11" lengthAdjust="spacingAndGlyphs" textLength="288" x="651" y="310.7104">MiddlewareGisProcessor middlewareGisProcessor</text><line style="stroke: #A80036; stroke-width: 1.5;" x1="632" x2="1173" y1="317.3047" y2="317.3047"/><ellipse cx="642" cy="328.3047" fill="#84BE84" rx="3" ry="3" style="stroke: #038048; stroke-width: 1.0;"/><text fill="#000000" font-family="sans-serif" font-size="11" lengthAdjust="spacingAndGlyphs" textLength="517" x="651" y="331.5151">MiddlewareGisInterfaceImplementation(MiddlewareGisProcessor middlewareGisProcessor)</text><ellipse cx="642" cy="357.9141" fill="#84BE84" rx="3" ry="3" style="stroke: #038048; stroke-width: 1.0;"/><text fill="#000000" font-family="sans-serif" font-size="11" lengthAdjust="spacingAndGlyphs" textLength="324" x="651" y="361.1245">String receiveGpsSignalStrength(Satellite satelliteSignal)</text><line style="stroke: #A80036; stroke-width: 1.0; stroke-dasharray: 1.0,2.0;" x1="632" x2="869.5" y1="344.5117" y2="344.5117"/><text fill="#000000" font-family="sans-serif" font-size="11" lengthAdjust="spacingAndGlyphs" textLength="66" x="869.5" y="347.8198">Use Case 1</text><line style="stroke: #A80036; stroke-width: 1.0; stroke-dasharray: 1.0,2.0;" x1="935.5" x2="1173" y1="344.5117" y2="344.5117"/><ellipse cx="642" cy="387.5234" fill="#84BE84" rx="3" ry="3" style="stroke: #038048; stroke-width: 1.0;"/><text fill="#000000" font-family="sans-serif" font-size="11" lengthAdjust="spacingAndGlyphs" textLength="324" x="651" y="390.7339">String receiveGpsSignalStrength(Satellite satelliteSignal)</text><line style="stroke: #A80036; stroke-width: 1.0; stroke-dasharray: 1.0,2.0;" x1="632" x2="869.5" y1="374.1211" y2="374.1211"/><text fill="#000000" font-family="sans-serif" font-size="11" lengthAdjust="spacingAndGlyphs" textLength="66" x="869.5" y="377.4292">Use Case 2</text><line style="stroke: #A80036; stroke-width: 1.0; stroke-dasharray: 1.0,2.0;" x1="935.5" x2="1173" y1="374.1211" y2="374.1211"/><!--MD5=[5617cf6c0203deaad7dbff4f5099a816]
class MiddlewareGisProcessorImplementation--><rect fill="#FEFECE" filter="url(#f8go4pzbs0zt7)" height="132.8281" id="MiddlewareGisProcessorImplementation" style="stroke: #A80036; stroke-width: 1.5;" width="533" x="1209" y="264.5"/><ellipse cx="1346.75" cy="280.5" fill="#ADD1B2" rx="11" ry="11" style="stroke: #A80036; stroke-width: 1.0;"/><path d="M1349.7188,286.1406 Q1349.1406,286.4375 1348.5,286.5781 Q1347.8594,286.7344 1347.1563,286.7344 Q1344.6563,286.7344 1343.3281,285.0938 Q1342.0156,283.4375 1342.0156,280.3125 Q1342.0156,277.1875 1343.3281,275.5313 Q1344.6563,273.875 1347.1563,273.875 Q1347.8594,273.875 1348.5,274.0313 Q1349.1563,274.1875 1349.7188,274.4844 L1349.7188,277.2031 Q1349.0938,276.625 1348.5,276.3594 Q1347.9063,276.0781 1347.2813,276.0781 Q1345.9375,276.0781 1345.25,277.1563 Q1344.5625,278.2188 1344.5625,280.3125 Q1344.5625,282.4063 1345.25,283.4844 Q1345.9375,284.5469 1347.2813,284.5469 Q1347.9063,284.5469 1348.5,284.2813 Q1349.0938,284 1349.7188,283.4219 L1349.7188,286.1406 Z "/><text fill="#000000" font-family="sans-serif" font-size="12" lengthAdjust="spacingAndGlyphs" textLength="249" x="1367.25" y="284.6543">MiddlewareGisProcessorImplementation</text><line style="stroke: #A80036; stroke-width: 1.5;" x1="1210" x2="1741" y1="296.5" y2="296.5"/><rect fill="none" height="6" style="stroke: #C82930; stroke-width: 1.0;" width="6" x="1217" y="304.5"/><text fill="#000000" font-family="sans-serif" font-size="11" lengthAdjust="spacingAndGlyphs" textLength="270" x="1229" y="310.7104">MiddlewareGisManager middlewareGisManager</text><line style="stroke: #A80036; stroke-width: 1.5;" x1="1210" x2="1741" y1="317.3047" y2="317.3047"/><ellipse cx="1220" cy="328.3047" fill="#84BE84" rx="3" ry="3" style="stroke: #038048; stroke-width: 1.0;"/><text fill="#000000" font-family="sans-serif" font-size="11" lengthAdjust="spacingAndGlyphs" textLength="507" x="1229" y="331.5151">MiddlewareGisProcessorImplementation(MiddlewareGisManager middlewareGisManager)</text><ellipse cx="1220" cy="357.9141" fill="#84BE84" rx="3" ry="3" style="stroke: #038048; stroke-width: 1.0;"/><text fill="#000000" font-family="sans-serif" font-size="11" lengthAdjust="spacingAndGlyphs" textLength="331" x="1229" y="361.1245">String evaluateGpsSignalStrength(Satellite satelliteSignal)</text><line style="stroke: #A80036; stroke-width: 1.0; stroke-dasharray: 1.0,2.0;" x1="1210" x2="1442.5" y1="344.5117" y2="344.5117"/><text fill="#000000" font-family="sans-serif" font-size="11" lengthAdjust="spacingAndGlyphs" textLength="66" x="1442.5" y="347.8198">Use Case 1</text><line style="stroke: #A80036; stroke-width: 1.0; stroke-dasharray: 1.0,2.0;" x1="1508.5" x2="1741" y1="344.5117" y2="344.5117"/><ellipse cx="1220" cy="387.5234" fill="#84BE84" rx="3" ry="3" style="stroke: #038048; stroke-width: 1.0;"/><text fill="#000000" font-family="sans-serif" font-size="11" lengthAdjust="spacingAndGlyphs" textLength="334" x="1229" y="390.7339">String measureGpsSignalStrength(Satellite satelliteSignal)</text><line style="stroke: #A80036; stroke-width: 1.0; stroke-dasharray: 1.0,2.0;" x1="1210" x2="1442.5" y1="374.1211" y2="374.1211"/><text fill="#000000" font-family="sans-serif" font-size="11" lengthAdjust="spacingAndGlyphs" textLength="66" x="1442.5" y="377.4292">Use Case 2</text><line style="stroke: #A80036; stroke-width: 1.0; stroke-dasharray: 1.0,2.0;" x1="1508.5" x2="1741" y1="374.1211" y2="374.1211"/><!--MD5=[95fb96a46a83d39a2e18236f313a92fb]
class MiddlewareGisManagerImplementation--><rect fill="#FEFECE" filter="url(#f8go4pzbs0zt7)" height="158.4375" id="MiddlewareGisManagerImplementation" style="stroke: #A80036; stroke-width: 1.5;" width="542" x="1777.5" y="252"/><ellipse cx="1923.75" cy="268" fill="#ADD1B2" rx="11" ry="11" style="stroke: #A80036; stroke-width: 1.0;"/><path d="M1926.7188,273.6406 Q1926.1406,273.9375 1925.5,274.0781 Q1924.8594,274.2344 1924.1563,274.2344 Q1921.6563,274.2344 1920.3281,272.5938 Q1919.0156,270.9375 1919.0156,267.8125 Q1919.0156,264.6875 1920.3281,263.0313 Q1921.6563,261.375 1924.1563,261.375 Q1924.8594,261.375 1925.5,261.5313 Q1926.1563,261.6875 1926.7188,261.9844 L1926.7188,264.7031 Q1926.0938,264.125 1925.5,263.8594 Q1924.9063,263.5781 1924.2813,263.5781 Q1922.9375,263.5781 1922.25,264.6563 Q1921.5625,265.7188 1921.5625,267.8125 Q1921.5625,269.9063 1922.25,270.9844 Q1922.9375,272.0469 1924.2813,272.0469 Q1924.9063,272.0469 1925.5,271.7813 Q1926.0938,271.5 1926.7188,270.9219 L1926.7188,273.6406 Z "/><text fill="#000000" font-family="sans-serif" font-size="12" lengthAdjust="spacingAndGlyphs" textLength="241" x="1944.25" y="272.1543">MiddlewareGisManagerImplementation</text><line style="stroke: #A80036; stroke-width: 1.5;" x1="1778.5" x2="2318.5" y1="284" y2="284"/><rect fill="none" height="6" style="stroke: #C82930; stroke-width: 1.0;" width="6" x="1785.5" y="292"/><text fill="#000000" font-family="sans-serif" font-size="11" lengthAdjust="spacingAndGlyphs" textLength="288" x="1797.5" y="298.2104">MiddlewareGisProcessor middlewareGisProcessor</text><line style="stroke: #A80036; stroke-width: 1.5;" x1="1778.5" x2="2318.5" y1="304.8047" y2="304.8047"/><ellipse cx="1788.5" cy="315.8047" fill="#84BE84" rx="3" ry="3" style="stroke: #038048; stroke-width: 1.0;"/><text fill="#000000" font-family="sans-serif" font-size="11" lengthAdjust="spacingAndGlyphs" textLength="516" x="1797.5" y="319.0151">MiddlewareGisManagerImplementation(MiddlewareGisProcessor middlewareGisProcessor)</text><ellipse cx="1788.5" cy="345.4141" fill="#84BE84" rx="3" ry="3" style="stroke: #038048; stroke-width: 1.0;"/><text fill="#000000" font-family="sans-serif" font-size="11" lengthAdjust="spacingAndGlyphs" textLength="331" x="1797.5" y="348.6245">String receieveGpsSignalStrength(Satellite satelliteSignal)</text><ellipse cx="1788.5" cy="358.2188" fill="#84BE84" rx="3" ry="3" style="stroke: #038048; stroke-width: 1.0;"/><text fill="#000000" font-family="sans-serif" font-size="11" lengthAdjust="spacingAndGlyphs" textLength="166" x="1797.5" y="361.4292">void storeLocationDataPoint()</text><line style="stroke: #A80036; stroke-width: 1.0; stroke-dasharray: 1.0,2.0;" x1="1778.5" x2="2015.5" y1="332.0117" y2="332.0117"/><text fill="#000000" font-family="sans-serif" font-size="11" lengthAdjust="spacingAndGlyphs" textLength="66" x="2015.5" y="335.3198">Use Case 1</text><line style="stroke: #A80036; stroke-width: 1.0; stroke-dasharray: 1.0,2.0;" x1="2081.5" x2="2318.5" y1="332.0117" y2="332.0117"/><ellipse cx="1788.5" cy="387.8281" fill="#84BE84" rx="3" ry="3" style="stroke: #038048; stroke-width: 1.0;"/><text fill="#000000" font-family="sans-serif" font-size="11" lengthAdjust="spacingAndGlyphs" textLength="306" x="1797.5" y="391.0386">String attemptToRegainGpsLock(String satelliteName)</text><ellipse cx="1788.5" cy="400.6328" fill="#84BE84" rx="3" ry="3" style="stroke: #038048; stroke-width: 1.0;"/><text fill="#000000" font-family="sans-serif" font-size="11" lengthAdjust="spacingAndGlyphs" textLength="311" x="1797.5" y="403.8433">String evaluateGpsSignalStrength(boolean signalValid)</text><line style="stroke: #A80036; stroke-width: 1.0; stroke-dasharray: 1.0,2.0;" x1="1778.5" x2="2015.5" y1="374.4258" y2="374.4258"/><text fill="#000000" font-family="sans-serif" font-size="11" lengthAdjust="spacingAndGlyphs" textLength="66" x="2015.5" y="377.7339">Use Case 2</text><line style="stroke: #A80036; stroke-width: 1.0; stroke-dasharray: 1.0,2.0;" x1="2081.5" x2="2318.5" y1="374.4258" y2="374.4258"/><polygon fill="#FFFFFF" filter="url(#f8go4pzbs0zt7)" points="6,99,261,99,268,121.2969,275,121.2969,275,151.5938,6,151.5938,6,99" style="stroke: #000000; stroke-width: 1.5;"/><line style="stroke: #000000; stroke-width: 1.5;" x1="6" x2="268" y1="121.2969" y2="121.2969"/><text fill="#000000" font-family="sans-serif" font-size="14" font-weight="bold" lengthAdjust="spacingAndGlyphs" textLength="249" x="10" y="113.9951">edu.oakland.test.middleware01</text><polygon fill="#FFFFFF" filter="url(#f8go4pzbs0zt7)" points="310,99,585,99,592,121.2969,599,121.2969,599,151.5938,310,151.5938,310,99" style="stroke: #000000; stroke-width: 1.5;"/><line style="stroke: #000000; stroke-width: 1.5;" x1="310" x2="592" y1="121.2969" y2="121.2969"/><text fill="#000000" font-family="sans-serif" font-size="14" font-weight="bold" lengthAdjust="spacingAndGlyphs" textLength="269" x="314" y="113.9951">edu.oakland.helper.middleware01</text><!--MD5=[f9eec55cbf04414e6fb4fde8343b27e2]
reverse link MiddlewareGisInterface to MiddlewareGisInterfaceImplementation--><path d="M902.5,199.26 C902.5,220.53 902.5,243.64 902.5,264.44 " fill="none" id="MiddlewareGisInterface&lt;-MiddlewareGisInterfaceImplementation" style="stroke: #A80036; stroke-width: 1.0; stroke-dasharray: 7.0,7.0;"/><polygon fill="none" points="895.5,199.17,902.5,179.17,909.5,199.17,895.5,199.17" style="stroke: #A80036; stroke-width: 1.0;"/><!--MD5=[5966268999ccfcd0ee1c07b359e3e55d]
reverse link MiddlewareGisProcessor to MiddlewareGisProcessorImplementation--><path d="M1475.5,199.26 C1475.5,220.53 1475.5,243.64 1475.5,264.44 " fill="none" id="MiddlewareGisProcessor&lt;-MiddlewareGisProcessorImplementation" style="stroke: #A80036; stroke-width: 1.0; stroke-dasharray: 7.0,7.0;"/><polygon fill="none" points="1468.5,199.17,1475.5,179.17,1482.5,199.17,1468.5,199.17" style="stroke: #A80036; stroke-width: 1.0;"/><!--MD5=[ba88405600d0f63e318d28a37302bd2e]
reverse link MiddlewareGisManager to MiddlewareGisManagerImplementation--><path d="M2048.5,212.22 C2048.5,225.36 2048.5,238.86 2048.5,251.82 " fill="none" id="MiddlewareGisManager&lt;-MiddlewareGisManagerImplementation" style="stroke: #A80036; stroke-width: 1.0; stroke-dasharray: 7.0,7.0;"/><polygon fill="none" points="2041.5,212.01,2048.5,192.01,2055.5,212.01,2041.5,212.01" style="stroke: #A80036; stroke-width: 1.0;"/><!--MD5=[a4ffbf64bb34279dbb45b18f3792a239]
@startuml Middleware01Packages_InternalDependencies


package edu.oakland.production.middleware01 {
    
}


package edu.oakland.production.middleware01 {
    interface MiddlewareGisInterface {
        __
        .. Use Case 1 ..
        {abstract} + String receiveGpsSignalStrength(Satellite satelliteSignal)
        .. Use Case 2 ..
        {abstract} + String receiveGpsSignalStrength(Satellite satelliteSignal)
    }
}


package edu.oakland.production.middleware01 {
    interface MiddlewareGisProcessor {
        __
        .. Use Case 1 ..
        {abstract} + String evaluateGpsSignalStrength(Satellite satelliteSignal)
        .. Use Case 2 ..
        {abstract} + String measureGpsSignalStrength(Satellite satelliteSignal)
    }
}


package edu.oakland.production.middleware01 {
    interface MiddlewareGisManager {
        __
        .. Use Case 1 ..
        {abstract} + String receieveGpsSignalStrength(Satellite satelliteSignal)
        {abstract} + void storeLocationDataPoint()
        .. Use Case 2 ..
        {abstract} + String attemptToRegainGpsLock(String satelliteName)
        {abstract} + String evaluateGpsSignalStrength(boolean signalValid)
    }
}


package edu.oakland.production.middleware01 {
    class MiddlewareGisInterfaceImplementation {
        - MiddlewareGisProcessor middlewareGisProcessor
        __
        + MiddlewareGisInterfaceImplementation(MiddlewareGisProcessor middlewareGisProcessor)
        .. Use Case 1 ..
        + String receiveGpsSignalStrength(Satellite satelliteSignal)
        .. Use Case 2 ..
        + String receiveGpsSignalStrength(Satellite satelliteSignal)
    }
}


MiddlewareGisInterfaceImplementation .up.|> MiddlewareGisInterface

package edu.oakland.production.middleware01 {
    class MiddlewareGisProcessorImplementation {
        - MiddlewareGisManager middlewareGisManager
        __
        + MiddlewareGisProcessorImplementation(MiddlewareGisManager middlewareGisManager)
        .. Use Case 1 ..
        + String evaluateGpsSignalStrength(Satellite satelliteSignal)
        .. Use Case 2 ..
        + String measureGpsSignalStrength(Satellite satelliteSignal)
    }
}


MiddlewareGisProcessorImplementation .up.|> MiddlewareGisProcessor

package edu.oakland.production.middleware01 {
    class MiddlewareGisManagerImplementation {
        - MiddlewareGisProcessor middlewareGisProcessor
        __
        + MiddlewareGisManagerImplementation(MiddlewareGisProcessor middlewareGisProcessor)
        .. Use Case 1 ..
        + String receieveGpsSignalStrength(Satellite satelliteSignal)
        + void storeLocationDataPoint()
        .. Use Case 2 ..
        + String attemptToRegainGpsLock(String satelliteName)
        + String evaluateGpsSignalStrength(boolean signalValid)
    }
}


MiddlewareGisManagerImplementation .up.|> MiddlewareGisManager








package edu.oakland.test.middleware01 {
    
}


package edu.oakland.helper.middleware01 {
    
}


@enduml

PlantUML version 1.2020.02(Sun Mar 01 10:22:07 GMT 2020)
(GPL source distribution)
Java Runtime: OpenJDK Runtime Environment
JVM: OpenJDK 64-Bit Server VM
Java Version: 11.0.9+11-Ubuntu-0ubuntu1
Operating System: Linux
Default Encoding: ANSI_X3.4-1968
Language: en
Country: US
--></g></svg>