<?xml version="1.0" encoding="UTF-8" standalone="no"?><svg xmlns="http://www.w3.org/2000/svg" xmlns:xlink="http://www.w3.org/1999/xlink" contentScriptType="application/ecmascript" contentStyleType="text/css" height="576px" preserveAspectRatio="none" style="width:3407px;height:576px;" version="1.1" viewBox="0 0 3407 576" width="3407px" zoomAndPan="magnify"><defs><filter height="300%" id="f1vp3nk2w7qrkw" width="300%" x="-1" y="-1"><feGaussianBlur result="blurOut" stdDeviation="2.0"/><feColorMatrix in="blurOut" result="blurOut2" type="matrix" values="0 0 0 0 0 0 0 0 0 0 0 0 0 0 0 0 0 0 .4 0"/><feOffset dx="4.0" dy="4.0" in="blurOut2" result="blurOut3"/><feBlend in="SourceGraphic" in2="blurOut3" mode="normal"/></filter></defs><g><!--MD5=[33504725b8a69ba2207f0a836957a91c]
cluster edu.oakland.production.middleware02--><polygon fill="#FFFFFF" filter="url(#f1vp3nk2w7qrkw)" points="22,24,332,24,339,46.2969,1620,46.2969,1620,375,22,375,22,24" style="stroke: #000000; stroke-width: 1.5;"/><line style="stroke: #000000; stroke-width: 1.5;" x1="22" x2="339" y1="46.2969" y2="46.2969"/><text fill="#000000" font-family="sans-serif" font-size="14" font-weight="bold" lengthAdjust="spacingAndGlyphs" textLength="304" x="26" y="38.9951">edu.oakland.production.middleware02</text><!--MD5=[def9027c776d62015452659d5d6059fb]
cluster edu.oakland.test.middleware02--><polygon fill="#FFFFFF" filter="url(#f1vp3nk2w7qrkw)" points="1644,53.5,1899,53.5,1906,75.7969,2811,75.7969,2811,564,1644,564,1644,53.5" style="stroke: #000000; stroke-width: 1.5;"/><line style="stroke: #000000; stroke-width: 1.5;" x1="1644" x2="1906" y1="75.7969" y2="75.7969"/><text fill="#000000" font-family="sans-serif" font-size="14" font-weight="bold" lengthAdjust="spacingAndGlyphs" textLength="249" x="1648" y="68.4951">edu.oakland.test.middleware02</text><!--MD5=[73d4e355f259fb8d2c716d693a5be920]
cluster edu.oakland.helper.middleware02--><polygon fill="#FFFFFF" filter="url(#f1vp3nk2w7qrkw)" points="2835,34.5,3110,34.5,3117,56.7969,3385,56.7969,3385,171.5,2835,171.5,2835,34.5" style="stroke: #000000; stroke-width: 1.5;"/><line style="stroke: #000000; stroke-width: 1.5;" x1="2835" x2="3117" y1="56.7969" y2="56.7969"/><text fill="#000000" font-family="sans-serif" font-size="14" font-weight="bold" lengthAdjust="spacingAndGlyphs" textLength="269" x="2839" y="49.4951">edu.oakland.helper.middleware02</text><!--MD5=[d3cb230b9040bd9072bb1f490e167601]
class MiddlewareCommInterface--><rect fill="#FEFECE" filter="url(#f1vp3nk2w7qrkw)" height="107.2188" id="MiddlewareCommInterface" style="stroke: #A80036; stroke-width: 1.5;" width="198" x="223" y="59"/><ellipse cx="238" cy="75" fill="#B4A7E5" rx="11" ry="11" style="stroke: #A80036; stroke-width: 1.0;"/><path d="M233.9219,70.7656 L233.9219,68.6094 L241.3125,68.6094 L241.3125,70.7656 L238.8438,70.7656 L238.8438,78.8438 L241.3125,78.8438 L241.3125,81 L233.9219,81 L233.9219,78.8438 L236.3906,78.8438 L236.3906,70.7656 L233.9219,70.7656 Z "/><text fill="#000000" font-family="sans-serif" font-size="12" font-style="italic" lengthAdjust="spacingAndGlyphs" textLength="166" x="252" y="79.1543">MiddlewareCommInterface</text><line style="stroke: #A80036; stroke-width: 1.5;" x1="224" x2="420" y1="91" y2="91"/><line style="stroke: #A80036; stroke-width: 1.5;" x1="224" x2="420" y1="99" y2="99"/><ellipse cx="234" cy="126.8047" fill="#84BE84" rx="3" ry="3" style="stroke: #038048; stroke-width: 1.0;"/><text fill="#000000" font-family="sans-serif" font-size="11" font-style="italic" lengthAdjust="spacingAndGlyphs" textLength="171" x="243" y="130.0151">TrackData requestRfid(int rfid)</text><line style="stroke: #A80036; stroke-width: 1.0; stroke-dasharray: 1.0,2.0;" x1="224" x2="289" y1="113.4023" y2="113.4023"/><text fill="#000000" font-family="sans-serif" font-size="11" lengthAdjust="spacingAndGlyphs" textLength="66" x="289" y="116.7104">Use Case 1</text><line style="stroke: #A80036; stroke-width: 1.0; stroke-dasharray: 1.0,2.0;" x1="355" x2="420" y1="113.4023" y2="113.4023"/><text fill="#000000" font-family="sans-serif" font-size="11" lengthAdjust="spacingAndGlyphs" textLength="0" x="233" y="159.6245"/><line style="stroke: #A80036; stroke-width: 1.0; stroke-dasharray: 1.0,2.0;" x1="224" x2="289" y1="143.0117" y2="143.0117"/><text fill="#000000" font-family="sans-serif" font-size="11" lengthAdjust="spacingAndGlyphs" textLength="66" x="289" y="146.3198">Use Case 2</text><line style="stroke: #A80036; stroke-width: 1.0; stroke-dasharray: 1.0,2.0;" x1="355" x2="420" y1="143.0117" y2="143.0117"/><!--MD5=[d01e667c21cf622da77e8a7601ca5c91]
class MiddlewareCommLinkManager--><rect fill="#FEFECE" filter="url(#f1vp3nk2w7qrkw)" height="107.2188" id="MiddlewareCommLinkManager" style="stroke: #A80036; stroke-width: 1.5;" width="221" x="456.5" y="59"/><ellipse cx="471.5" cy="75" fill="#B4A7E5" rx="11" ry="11" style="stroke: #A80036; stroke-width: 1.0;"/><path d="M467.4219,70.7656 L467.4219,68.6094 L474.8125,68.6094 L474.8125,70.7656 L472.3438,70.7656 L472.3438,78.8438 L474.8125,78.8438 L474.8125,81 L467.4219,81 L467.4219,78.8438 L469.8906,78.8438 L469.8906,70.7656 L467.4219,70.7656 Z "/><text fill="#000000" font-family="sans-serif" font-size="12" font-style="italic" lengthAdjust="spacingAndGlyphs" textLength="189" x="485.5" y="79.1543">MiddlewareCommLinkManager</text><line style="stroke: #A80036; stroke-width: 1.5;" x1="457.5" x2="676.5" y1="91" y2="91"/><line style="stroke: #A80036; stroke-width: 1.5;" x1="457.5" x2="676.5" y1="99" y2="99"/><ellipse cx="467.5" cy="126.8047" fill="#84BE84" rx="3" ry="3" style="stroke: #038048; stroke-width: 1.0;"/><text fill="#000000" font-family="sans-serif" font-size="11" font-style="italic" lengthAdjust="spacingAndGlyphs" textLength="160" x="476.5" y="130.0151">TrackData parseRfid(int rfid)</text><line style="stroke: #A80036; stroke-width: 1.0; stroke-dasharray: 1.0,2.0;" x1="457.5" x2="534" y1="113.4023" y2="113.4023"/><text fill="#000000" font-family="sans-serif" font-size="11" lengthAdjust="spacingAndGlyphs" textLength="66" x="534" y="116.7104">Use Case 1</text><line style="stroke: #A80036; stroke-width: 1.0; stroke-dasharray: 1.0,2.0;" x1="600" x2="676.5" y1="113.4023" y2="113.4023"/><text fill="#000000" font-family="sans-serif" font-size="11" lengthAdjust="spacingAndGlyphs" textLength="0" x="466.5" y="159.6245"/><line style="stroke: #A80036; stroke-width: 1.0; stroke-dasharray: 1.0,2.0;" x1="457.5" x2="534" y1="143.0117" y2="143.0117"/><text fill="#000000" font-family="sans-serif" font-size="11" lengthAdjust="spacingAndGlyphs" textLength="66" x="534" y="146.3198">Use Case 2</text><line style="stroke: #A80036; stroke-width: 1.0; stroke-dasharray: 1.0,2.0;" x1="600" x2="676.5" y1="143.0117" y2="143.0117"/><!--MD5=[4915649770e9045e9ea9156a01fd67e8]
class MiddlewareCommDatabaseInterface--><rect fill="#FEFECE" filter="url(#f1vp3nk2w7qrkw)" height="107.2188" id="MiddlewareCommDatabaseInterface" style="stroke: #A80036; stroke-width: 1.5;" width="258" x="713" y="59"/><ellipse cx="728" cy="75" fill="#B4A7E5" rx="11" ry="11" style="stroke: #A80036; stroke-width: 1.0;"/><path d="M723.9219,70.7656 L723.9219,68.6094 L731.3125,68.6094 L731.3125,70.7656 L728.8438,70.7656 L728.8438,78.8438 L731.3125,78.8438 L731.3125,81 L723.9219,81 L723.9219,78.8438 L726.3906,78.8438 L726.3906,70.7656 L723.9219,70.7656 Z "/><text fill="#000000" font-family="sans-serif" font-size="12" font-style="italic" lengthAdjust="spacingAndGlyphs" textLength="226" x="742" y="79.1543">MiddlewareCommDatabaseInterface</text><line style="stroke: #A80036; stroke-width: 1.5;" x1="714" x2="970" y1="91" y2="91"/><line style="stroke: #A80036; stroke-width: 1.5;" x1="714" x2="970" y1="99" y2="99"/><ellipse cx="724" cy="126.8047" fill="#84BE84" rx="3" ry="3" style="stroke: #038048; stroke-width: 1.0;"/><text fill="#000000" font-family="sans-serif" font-size="11" font-style="italic" lengthAdjust="spacingAndGlyphs" textLength="123" x="733" y="130.0151">int checkCurrentRfid()</text><line style="stroke: #A80036; stroke-width: 1.0; stroke-dasharray: 1.0,2.0;" x1="714" x2="809" y1="113.4023" y2="113.4023"/><text fill="#000000" font-family="sans-serif" font-size="11" lengthAdjust="spacingAndGlyphs" textLength="66" x="809" y="116.7104">Use Case 1</text><line style="stroke: #A80036; stroke-width: 1.0; stroke-dasharray: 1.0,2.0;" x1="875" x2="970" y1="113.4023" y2="113.4023"/><text fill="#000000" font-family="sans-serif" font-size="11" lengthAdjust="spacingAndGlyphs" textLength="0" x="723" y="159.6245"/><line style="stroke: #A80036; stroke-width: 1.0; stroke-dasharray: 1.0,2.0;" x1="714" x2="809" y1="143.0117" y2="143.0117"/><text fill="#000000" font-family="sans-serif" font-size="11" lengthAdjust="spacingAndGlyphs" textLength="66" x="809" y="146.3198">Use Case 2</text><line style="stroke: #A80036; stroke-width: 1.0; stroke-dasharray: 1.0,2.0;" x1="875" x2="970" y1="143.0117" y2="143.0117"/><!--MD5=[0a03c366ade61429da89cc477d567a32]
class MiddlewareCommInterfaceImplementation--><rect fill="#FEFECE" filter="url(#f1vp3nk2w7qrkw)" height="132.8281" id="MiddlewareCommInterfaceImplementation" style="stroke: #A80036; stroke-width: 1.5;" width="568" x="38" y="226"/><ellipse cx="187.25" cy="242" fill="#ADD1B2" rx="11" ry="11" style="stroke: #A80036; stroke-width: 1.0;"/><path d="M190.2188,247.6406 Q189.6406,247.9375 189,248.0781 Q188.3594,248.2344 187.6563,248.2344 Q185.1563,248.2344 183.8281,246.5938 Q182.5156,244.9375 182.5156,241.8125 Q182.5156,238.6875 183.8281,237.0313 Q185.1563,235.375 187.6563,235.375 Q188.3594,235.375 189,235.5313 Q189.6563,235.6875 190.2188,235.9844 L190.2188,238.7031 Q189.5938,238.125 189,237.8594 Q188.4063,237.5781 187.7813,237.5781 Q186.4375,237.5781 185.75,238.6563 Q185.0625,239.7188 185.0625,241.8125 Q185.0625,243.9063 185.75,244.9844 Q186.4375,246.0469 187.7813,246.0469 Q188.4063,246.0469 189,245.7813 Q189.5938,245.5 190.2188,244.9219 L190.2188,247.6406 Z "/><text fill="#000000" font-family="sans-serif" font-size="12" lengthAdjust="spacingAndGlyphs" textLength="261" x="207.75" y="246.1543">MiddlewareCommInterfaceImplementation</text><line style="stroke: #A80036; stroke-width: 1.5;" x1="39" x2="605" y1="258" y2="258"/><rect fill="none" height="6" style="stroke: #C82930; stroke-width: 1.0;" width="6" x="46" y="266"/><text fill="#000000" font-family="sans-serif" font-size="11" lengthAdjust="spacingAndGlyphs" textLength="291" x="58" y="272.2104">MiddlewareCommLinkManager middlewareManager</text><line style="stroke: #A80036; stroke-width: 1.5;" x1="39" x2="605" y1="278.8047" y2="278.8047"/><ellipse cx="49" cy="289.8047" fill="#84BE84" rx="3" ry="3" style="stroke: #038048; stroke-width: 1.0;"/><text fill="#000000" font-family="sans-serif" font-size="11" lengthAdjust="spacingAndGlyphs" textLength="542" x="58" y="293.0151">MiddlewareCommInterfaceImplementation (MiddlewareCommLinkManager middlewareManager)</text><ellipse cx="49" cy="319.4141" fill="#84BE84" rx="3" ry="3" style="stroke: #038048; stroke-width: 1.0;"/><text fill="#000000" font-family="sans-serif" font-size="11" lengthAdjust="spacingAndGlyphs" textLength="171" x="58" y="322.6245">TrackData requestRfid(int rfid)</text><line style="stroke: #A80036; stroke-width: 1.0; stroke-dasharray: 1.0,2.0;" x1="39" x2="289" y1="306.0117" y2="306.0117"/><text fill="#000000" font-family="sans-serif" font-size="11" lengthAdjust="spacingAndGlyphs" textLength="66" x="289" y="309.3198">Use Case 1</text><line style="stroke: #A80036; stroke-width: 1.0; stroke-dasharray: 1.0,2.0;" x1="355" x2="605" y1="306.0117" y2="306.0117"/><text fill="#000000" font-family="sans-serif" font-size="11" lengthAdjust="spacingAndGlyphs" textLength="0" x="48" y="352.2339"/><line style="stroke: #A80036; stroke-width: 1.0; stroke-dasharray: 1.0,2.0;" x1="39" x2="289" y1="335.6211" y2="335.6211"/><text fill="#000000" font-family="sans-serif" font-size="11" lengthAdjust="spacingAndGlyphs" textLength="66" x="289" y="338.9292">Use Case 2</text><line style="stroke: #A80036; stroke-width: 1.0; stroke-dasharray: 1.0,2.0;" x1="355" x2="605" y1="335.6211" y2="335.6211"/><!--MD5=[d9ed64ee38938b46697008700ce69fba]
class MiddlewareCommLinkManagerImplementation--><rect fill="#FEFECE" filter="url(#f1vp3nk2w7qrkw)" height="132.8281" id="MiddlewareCommLinkManagerImplementation" style="stroke: #A80036; stroke-width: 1.5;" width="316" x="641" y="226"/><ellipse cx="656" cy="242" fill="#ADD1B2" rx="11" ry="11" style="stroke: #A80036; stroke-width: 1.0;"/><path d="M658.9688,247.6406 Q658.3906,247.9375 657.75,248.0781 Q657.1094,248.2344 656.4063,248.2344 Q653.9063,248.2344 652.5781,246.5938 Q651.2656,244.9375 651.2656,241.8125 Q651.2656,238.6875 652.5781,237.0313 Q653.9063,235.375 656.4063,235.375 Q657.1094,235.375 657.75,235.5313 Q658.4063,235.6875 658.9688,235.9844 L658.9688,238.7031 Q658.3438,238.125 657.75,237.8594 Q657.1563,237.5781 656.5313,237.5781 Q655.1875,237.5781 654.5,238.6563 Q653.8125,239.7188 653.8125,241.8125 Q653.8125,243.9063 654.5,244.9844 Q655.1875,246.0469 656.5313,246.0469 Q657.1563,246.0469 657.75,245.7813 Q658.3438,245.5 658.9688,244.9219 L658.9688,247.6406 Z "/><text fill="#000000" font-family="sans-serif" font-size="12" lengthAdjust="spacingAndGlyphs" textLength="284" x="670" y="246.1543">MiddlewareCommLinkManagerImplementation</text><line style="stroke: #A80036; stroke-width: 1.5;" x1="642" x2="956" y1="258" y2="258"/><line style="stroke: #A80036; stroke-width: 1.5;" x1="642" x2="956" y1="266" y2="266"/><ellipse cx="652" cy="293.8047" fill="#84BE84" rx="3" ry="3" style="stroke: #038048; stroke-width: 1.0;"/><text fill="#000000" font-family="sans-serif" font-size="11" lengthAdjust="spacingAndGlyphs" textLength="160" x="661" y="297.0151">TrackData parseRfid(int rfid)</text><rect fill="#F24D5C" height="6" style="stroke: #C82930; stroke-width: 1.0;" width="6" x="649" y="303.6094"/><text fill="#000000" font-family="sans-serif" font-size="11" lengthAdjust="spacingAndGlyphs" textLength="188" x="661" y="309.8198">float calculateLocationDataPoint()</text><rect fill="#F24D5C" height="6" style="stroke: #C82930; stroke-width: 1.0;" width="6" x="649" y="316.4141"/><text fill="#000000" font-family="sans-serif" font-size="11" lengthAdjust="spacingAndGlyphs" textLength="144" x="661" y="322.6245">float calculateTrackData()</text><line style="stroke: #A80036; stroke-width: 1.0; stroke-dasharray: 1.0,2.0;" x1="642" x2="766" y1="280.4023" y2="280.4023"/><text fill="#000000" font-family="sans-serif" font-size="11" lengthAdjust="spacingAndGlyphs" textLength="66" x="766" y="283.7104">Use Case 1</text><line style="stroke: #A80036; stroke-width: 1.0; stroke-dasharray: 1.0,2.0;" x1="832" x2="956" y1="280.4023" y2="280.4023"/><text fill="#000000" font-family="sans-serif" font-size="11" lengthAdjust="spacingAndGlyphs" textLength="0" x="651" y="352.2339"/><line style="stroke: #A80036; stroke-width: 1.0; stroke-dasharray: 1.0,2.0;" x1="642" x2="766" y1="335.6211" y2="335.6211"/><text fill="#000000" font-family="sans-serif" font-size="11" lengthAdjust="spacingAndGlyphs" textLength="66" x="766" y="338.9292">Use Case 2</text><line style="stroke: #A80036; stroke-width: 1.0; stroke-dasharray: 1.0,2.0;" x1="832" x2="956" y1="335.6211" y2="335.6211"/><!--MD5=[1c4f9654f103878faf4a10c0361188b9]
class MiddlewareCommDatabaseInterfaceImplementation--><rect fill="#FEFECE" filter="url(#f1vp3nk2w7qrkw)" height="132.8281" id="MiddlewareCommDatabaseInterfaceImplementation" style="stroke: #A80036; stroke-width: 1.5;" width="612" x="992" y="226"/><ellipse cx="1132.75" cy="242" fill="#ADD1B2" rx="11" ry="11" style="stroke: #A80036; stroke-width: 1.0;"/><path d="M1135.7188,247.6406 Q1135.1406,247.9375 1134.5,248.0781 Q1133.8594,248.2344 1133.1563,248.2344 Q1130.6563,248.2344 1129.3281,246.5938 Q1128.0156,244.9375 1128.0156,241.8125 Q1128.0156,238.6875 1129.3281,237.0313 Q1130.6563,235.375 1133.1563,235.375 Q1133.8594,235.375 1134.5,235.5313 Q1135.1563,235.6875 1135.7188,235.9844 L1135.7188,238.7031 Q1135.0938,238.125 1134.5,237.8594 Q1133.9063,237.5781 1133.2813,237.5781 Q1131.9375,237.5781 1131.25,238.6563 Q1130.5625,239.7188 1130.5625,241.8125 Q1130.5625,243.9063 1131.25,244.9844 Q1131.9375,246.0469 1133.2813,246.0469 Q1133.9063,246.0469 1134.5,245.7813 Q1135.0938,245.5 1135.7188,244.9219 L1135.7188,247.6406 Z "/><text fill="#000000" font-family="sans-serif" font-size="12" lengthAdjust="spacingAndGlyphs" textLength="322" x="1153.25" y="246.1543">MiddlewareCommDatabaseInterfaceImplementation</text><line style="stroke: #A80036; stroke-width: 1.5;" x1="993" x2="1603" y1="258" y2="258"/><ellipse cx="1003" cy="269" fill="none" rx="3" ry="3" style="stroke: #038048; stroke-width: 1.0;"/><text fill="#000000" font-family="sans-serif" font-size="11" lengthAdjust="spacingAndGlyphs" textLength="285" x="1012" y="272.2104">DatabaseCommInterface databaseCommInterface</text><line style="stroke: #A80036; stroke-width: 1.5;" x1="993" x2="1603" y1="278.8047" y2="278.8047"/><ellipse cx="1003" cy="289.8047" fill="#84BE84" rx="3" ry="3" style="stroke: #038048; stroke-width: 1.0;"/><text fill="#000000" font-family="sans-serif" font-size="11" lengthAdjust="spacingAndGlyphs" textLength="586" x="1012" y="293.0151">MiddlewareCommDatabaseInterfaceImplementation(DatabaseCommInterface databaseCommInterface)</text><ellipse cx="1003" cy="319.4141" fill="#84BE84" rx="3" ry="3" style="stroke: #038048; stroke-width: 1.0;"/><text fill="#000000" font-family="sans-serif" font-size="11" lengthAdjust="spacingAndGlyphs" textLength="122" x="1012" y="322.6245">int checkCurrentRfid()</text><line style="stroke: #A80036; stroke-width: 1.0; stroke-dasharray: 1.0,2.0;" x1="993" x2="1265" y1="306.0117" y2="306.0117"/><text fill="#000000" font-family="sans-serif" font-size="11" lengthAdjust="spacingAndGlyphs" textLength="66" x="1265" y="309.3198">Use Case 1</text><line style="stroke: #A80036; stroke-width: 1.0; stroke-dasharray: 1.0,2.0;" x1="1331" x2="1603" y1="306.0117" y2="306.0117"/><text fill="#000000" font-family="sans-serif" font-size="11" lengthAdjust="spacingAndGlyphs" textLength="0" x="1002" y="352.2339"/><line style="stroke: #A80036; stroke-width: 1.0; stroke-dasharray: 1.0,2.0;" x1="993" x2="1265" y1="335.6211" y2="335.6211"/><text fill="#000000" font-family="sans-serif" font-size="11" lengthAdjust="spacingAndGlyphs" textLength="66" x="1265" y="338.9292">Use Case 2</text><line style="stroke: #A80036; stroke-width: 1.0; stroke-dasharray: 1.0,2.0;" x1="1331" x2="1603" y1="335.6211" y2="335.6211"/><!--MD5=[00b94da1af6b7f5503baa4bfd88b42e0]
class MiddlewareCommInterfaceImplementationTests--><rect fill="#FEFECE" filter="url(#f1vp3nk2w7qrkw)" height="48" id="MiddlewareCommInterfaceImplementationTests" style="stroke: #A80036; stroke-width: 1.5;" width="327" x="1659.5" y="88.5"/><ellipse cx="1674.5" cy="104.5" fill="#ADD1B2" rx="11" ry="11" style="stroke: #A80036; stroke-width: 1.0;"/><path d="M1677.4688,110.1406 Q1676.8906,110.4375 1676.25,110.5781 Q1675.6094,110.7344 1674.9063,110.7344 Q1672.4063,110.7344 1671.0781,109.0938 Q1669.7656,107.4375 1669.7656,104.3125 Q1669.7656,101.1875 1671.0781,99.5313 Q1672.4063,97.875 1674.9063,97.875 Q1675.6094,97.875 1676.25,98.0313 Q1676.9063,98.1875 1677.4688,98.4844 L1677.4688,101.2031 Q1676.8438,100.625 1676.25,100.3594 Q1675.6563,100.0781 1675.0313,100.0781 Q1673.6875,100.0781 1673,101.1563 Q1672.3125,102.2188 1672.3125,104.3125 Q1672.3125,106.4063 1673,107.4844 Q1673.6875,108.5469 1675.0313,108.5469 Q1675.6563,108.5469 1676.25,108.2813 Q1676.8438,108 1677.4688,107.4219 L1677.4688,110.1406 Z "/><text fill="#000000" font-family="sans-serif" font-size="12" lengthAdjust="spacingAndGlyphs" textLength="295" x="1688.5" y="108.6543">MiddlewareCommInterfaceImplementationTests</text><line style="stroke: #A80036; stroke-width: 1.5;" x1="1660.5" x2="1985.5" y1="120.5" y2="120.5"/><line style="stroke: #A80036; stroke-width: 1.5;" x1="1660.5" x2="1985.5" y1="128.5" y2="128.5"/><!--MD5=[de2e25996fbf99af10f04f2aae2d0ec2]
class MiddlewareCommLinkManagerImplementationTests--><rect fill="#FEFECE" filter="url(#f1vp3nk2w7qrkw)" height="48" id="MiddlewareCommLinkManagerImplementationTests" style="stroke: #A80036; stroke-width: 1.5;" width="350" x="2022" y="88.5"/><ellipse cx="2037" cy="104.5" fill="#ADD1B2" rx="11" ry="11" style="stroke: #A80036; stroke-width: 1.0;"/><path d="M2039.9688,110.1406 Q2039.3906,110.4375 2038.75,110.5781 Q2038.1094,110.7344 2037.4063,110.7344 Q2034.9063,110.7344 2033.5781,109.0938 Q2032.2656,107.4375 2032.2656,104.3125 Q2032.2656,101.1875 2033.5781,99.5313 Q2034.9063,97.875 2037.4063,97.875 Q2038.1094,97.875 2038.75,98.0313 Q2039.4063,98.1875 2039.9688,98.4844 L2039.9688,101.2031 Q2039.3438,100.625 2038.75,100.3594 Q2038.1563,100.0781 2037.5313,100.0781 Q2036.1875,100.0781 2035.5,101.1563 Q2034.8125,102.2188 2034.8125,104.3125 Q2034.8125,106.4063 2035.5,107.4844 Q2036.1875,108.5469 2037.5313,108.5469 Q2038.1563,108.5469 2038.75,108.2813 Q2039.3438,108 2039.9688,107.4219 L2039.9688,110.1406 Z "/><text fill="#000000" font-family="sans-serif" font-size="12" lengthAdjust="spacingAndGlyphs" textLength="318" x="2051" y="108.6543">MiddlewareCommLinkManagerImplementationTests</text><line style="stroke: #A80036; stroke-width: 1.5;" x1="2023" x2="2371" y1="120.5" y2="120.5"/><line style="stroke: #A80036; stroke-width: 1.5;" x1="2023" x2="2371" y1="128.5" y2="128.5"/><!--MD5=[002ff5c7151dea29dff01f25b38dca5f]
class MiddlewareCommDatabaseInterfaceImplementationTests--><rect fill="#FEFECE" filter="url(#f1vp3nk2w7qrkw)" height="48" id="MiddlewareCommDatabaseInterfaceImplementationTests" style="stroke: #A80036; stroke-width: 1.5;" width="388" x="2407" y="88.5"/><ellipse cx="2422" cy="104.5" fill="#ADD1B2" rx="11" ry="11" style="stroke: #A80036; stroke-width: 1.0;"/><path d="M2424.9688,110.1406 Q2424.3906,110.4375 2423.75,110.5781 Q2423.1094,110.7344 2422.4063,110.7344 Q2419.9063,110.7344 2418.5781,109.0938 Q2417.2656,107.4375 2417.2656,104.3125 Q2417.2656,101.1875 2418.5781,99.5313 Q2419.9063,97.875 2422.4063,97.875 Q2423.1094,97.875 2423.75,98.0313 Q2424.4063,98.1875 2424.9688,98.4844 L2424.9688,101.2031 Q2424.3438,100.625 2423.75,100.3594 Q2423.1563,100.0781 2422.5313,100.0781 Q2421.1875,100.0781 2420.5,101.1563 Q2419.8125,102.2188 2419.8125,104.3125 Q2419.8125,106.4063 2420.5,107.4844 Q2421.1875,108.5469 2422.5313,108.5469 Q2423.1563,108.5469 2423.75,108.2813 Q2424.3438,108 2424.9688,107.4219 L2424.9688,110.1406 Z "/><text fill="#000000" font-family="sans-serif" font-size="12" lengthAdjust="spacingAndGlyphs" textLength="356" x="2436" y="108.6543">MiddlewareCommDatabaseInterfaceImplementationTests</text><line style="stroke: #A80036; stroke-width: 1.5;" x1="2408" x2="2794" y1="120.5" y2="120.5"/><line style="stroke: #A80036; stroke-width: 1.5;" x1="2408" x2="2794" y1="128.5" y2="128.5"/><!--MD5=[4d30ae449f97cbb7dd3c9db2a55e1ec0]
class TrackDataCalculatorTests--><rect fill="#FEFECE" filter="url(#f1vp3nk2w7qrkw)" height="48" id="TrackDataCalculatorTests" style="stroke: #A80036; stroke-width: 1.5;" width="193" x="1744.5" y="268.5"/><ellipse cx="1759.5" cy="284.5" fill="#ADD1B2" rx="11" ry="11" style="stroke: #A80036; stroke-width: 1.0;"/><path d="M1762.4688,290.1406 Q1761.8906,290.4375 1761.25,290.5781 Q1760.6094,290.7344 1759.9063,290.7344 Q1757.4063,290.7344 1756.0781,289.0938 Q1754.7656,287.4375 1754.7656,284.3125 Q1754.7656,281.1875 1756.0781,279.5313 Q1757.4063,277.875 1759.9063,277.875 Q1760.6094,277.875 1761.25,278.0313 Q1761.9063,278.1875 1762.4688,278.4844 L1762.4688,281.2031 Q1761.8438,280.625 1761.25,280.3594 Q1760.6563,280.0781 1760.0313,280.0781 Q1758.6875,280.0781 1758,281.1563 Q1757.3125,282.2188 1757.3125,284.3125 Q1757.3125,286.4063 1758,287.4844 Q1758.6875,288.5469 1760.0313,288.5469 Q1760.6563,288.5469 1761.25,288.2813 Q1761.8438,288 1762.4688,287.4219 L1762.4688,290.1406 Z "/><text fill="#000000" font-family="sans-serif" font-size="12" lengthAdjust="spacingAndGlyphs" textLength="161" x="1773.5" y="288.6543">TrackDataCalculatorTests</text><line style="stroke: #A80036; stroke-width: 1.5;" x1="1745.5" x2="1936.5" y1="300.5" y2="300.5"/><line style="stroke: #A80036; stroke-width: 1.5;" x1="1745.5" x2="1936.5" y1="308.5" y2="308.5"/><!--MD5=[3bea4f8dbcd5725ad50d10553f2379e2]
class MiddlewareCommLinkManagerStub--><rect fill="#FEFECE" filter="url(#f1vp3nk2w7qrkw)" height="103.2188" id="MiddlewareCommLinkManagerStub" style="stroke: #A80036; stroke-width: 1.5;" width="248" x="1973" y="241"/><ellipse cx="1988" cy="257" fill="#ADD1B2" rx="11" ry="11" style="stroke: #A80036; stroke-width: 1.0;"/><path d="M1990.9688,262.6406 Q1990.3906,262.9375 1989.75,263.0781 Q1989.1094,263.2344 1988.4063,263.2344 Q1985.9063,263.2344 1984.5781,261.5938 Q1983.2656,259.9375 1983.2656,256.8125 Q1983.2656,253.6875 1984.5781,252.0313 Q1985.9063,250.375 1988.4063,250.375 Q1989.1094,250.375 1989.75,250.5313 Q1990.4063,250.6875 1990.9688,250.9844 L1990.9688,253.7031 Q1990.3438,253.125 1989.75,252.8594 Q1989.1563,252.5781 1988.5313,252.5781 Q1987.1875,252.5781 1986.5,253.6563 Q1985.8125,254.7188 1985.8125,256.8125 Q1985.8125,258.9063 1986.5,259.9844 Q1987.1875,261.0469 1988.5313,261.0469 Q1989.1563,261.0469 1989.75,260.7813 Q1990.3438,260.5 1990.9688,259.9219 L1990.9688,262.6406 Z "/><text fill="#000000" font-family="sans-serif" font-size="12" lengthAdjust="spacingAndGlyphs" textLength="216" x="2002" y="261.1543">MiddlewareCommLinkManagerStub</text><line style="stroke: #A80036; stroke-width: 1.5;" x1="1974" x2="2220" y1="273" y2="273"/><line style="stroke: #A80036; stroke-width: 1.5;" x1="1974" x2="2220" y1="281" y2="281"/><ellipse cx="1984" cy="308.8047" fill="#84BE84" rx="3" ry="3" style="stroke: #038048; stroke-width: 1.0;"/><text fill="#000000" font-family="sans-serif" font-size="11" lengthAdjust="spacingAndGlyphs" textLength="160" x="1993" y="312.0151">TrackData parseRfid(int rfid)</text><rect fill="#F24D5C" height="6" style="stroke: #C82930; stroke-width: 1.0;" width="6" x="1981" y="318.6094"/><text fill="#000000" font-family="sans-serif" font-size="11" lengthAdjust="spacingAndGlyphs" textLength="188" x="1993" y="324.8198">float calculateLocationDataPoint()</text><rect fill="#F24D5C" height="6" style="stroke: #C82930; stroke-width: 1.0;" width="6" x="1981" y="331.4141"/><text fill="#000000" font-family="sans-serif" font-size="11" lengthAdjust="spacingAndGlyphs" textLength="144" x="1993" y="337.6245">float calculateTrackData()</text><line style="stroke: #A80036; stroke-width: 1.0; stroke-dasharray: 1.0,2.0;" x1="1974" x2="2064" y1="295.4023" y2="295.4023"/><text fill="#000000" font-family="sans-serif" font-size="11" lengthAdjust="spacingAndGlyphs" textLength="66" x="2064" y="298.7104">Use Case 1</text><line style="stroke: #A80036; stroke-width: 1.0; stroke-dasharray: 1.0,2.0;" x1="2130" x2="2220" y1="295.4023" y2="295.4023"/><!--MD5=[d266ff1a021c6b2abe780212ea4bc90b]
class MiddlewareCommDatabaseInterfaceStub--><rect fill="#FEFECE" filter="url(#f1vp3nk2w7qrkw)" height="77.6094" id="MiddlewareCommDatabaseInterfaceStub" style="stroke: #A80036; stroke-width: 1.5;" width="286" x="2256" y="253.5"/><ellipse cx="2271" cy="269.5" fill="#ADD1B2" rx="11" ry="11" style="stroke: #A80036; stroke-width: 1.0;"/><path d="M2273.9688,275.1406 Q2273.3906,275.4375 2272.75,275.5781 Q2272.1094,275.7344 2271.4063,275.7344 Q2268.9063,275.7344 2267.5781,274.0938 Q2266.2656,272.4375 2266.2656,269.3125 Q2266.2656,266.1875 2267.5781,264.5313 Q2268.9063,262.875 2271.4063,262.875 Q2272.1094,262.875 2272.75,263.0313 Q2273.4063,263.1875 2273.9688,263.4844 L2273.9688,266.2031 Q2273.3438,265.625 2272.75,265.3594 Q2272.1563,265.0781 2271.5313,265.0781 Q2270.1875,265.0781 2269.5,266.1563 Q2268.8125,267.2188 2268.8125,269.3125 Q2268.8125,271.4063 2269.5,272.4844 Q2270.1875,273.5469 2271.5313,273.5469 Q2272.1563,273.5469 2272.75,273.2813 Q2273.3438,273 2273.9688,272.4219 L2273.9688,275.1406 Z "/><text fill="#000000" font-family="sans-serif" font-size="12" lengthAdjust="spacingAndGlyphs" textLength="254" x="2285" y="273.6543">MiddlewareCommDatabaseInterfaceStub</text><line style="stroke: #A80036; stroke-width: 1.5;" x1="2257" x2="2541" y1="285.5" y2="285.5"/><line style="stroke: #A80036; stroke-width: 1.5;" x1="2257" x2="2541" y1="293.5" y2="293.5"/><ellipse cx="2267" cy="321.3047" fill="#84BE84" rx="3" ry="3" style="stroke: #038048; stroke-width: 1.0;"/><text fill="#000000" font-family="sans-serif" font-size="11" lengthAdjust="spacingAndGlyphs" textLength="122" x="2276" y="324.5151">int checkCurrentRfid()</text><line style="stroke: #A80036; stroke-width: 1.0; stroke-dasharray: 1.0,2.0;" x1="2257" x2="2366" y1="307.9023" y2="307.9023"/><text fill="#000000" font-family="sans-serif" font-size="11" lengthAdjust="spacingAndGlyphs" textLength="66" x="2366" y="311.2104">Use Case 1</text><line style="stroke: #A80036; stroke-width: 1.0; stroke-dasharray: 1.0,2.0;" x1="2432" x2="2541" y1="307.9023" y2="307.9023"/><!--MD5=[e3f4175480349659b88084d56af4bbf1]
class DatabaseCommInterfaceStub--><rect fill="#FEFECE" filter="url(#f1vp3nk2w7qrkw)" height="128.8281" id="DatabaseCommInterfaceStub" style="stroke: #A80036; stroke-width: 1.5;" width="398" x="1660" y="419"/><ellipse cx="1762.75" cy="435" fill="#ADD1B2" rx="11" ry="11" style="stroke: #A80036; stroke-width: 1.0;"/><path d="M1765.7188,440.6406 Q1765.1406,440.9375 1764.5,441.0781 Q1763.8594,441.2344 1763.1563,441.2344 Q1760.6563,441.2344 1759.3281,439.5938 Q1758.0156,437.9375 1758.0156,434.8125 Q1758.0156,431.6875 1759.3281,430.0313 Q1760.6563,428.375 1763.1563,428.375 Q1763.8594,428.375 1764.5,428.5313 Q1765.1563,428.6875 1765.7188,428.9844 L1765.7188,431.7031 Q1765.0938,431.125 1764.5,430.8594 Q1763.9063,430.5781 1763.2813,430.5781 Q1761.9375,430.5781 1761.25,431.6563 Q1760.5625,432.7188 1760.5625,434.8125 Q1760.5625,436.9063 1761.25,437.9844 Q1761.9375,439.0469 1763.2813,439.0469 Q1763.9063,439.0469 1764.5,438.7813 Q1765.0938,438.5 1765.7188,437.9219 L1765.7188,440.6406 Z "/><text fill="#000000" font-family="sans-serif" font-size="12" lengthAdjust="spacingAndGlyphs" textLength="184" x="1783.25" y="439.1543">DatabaseCommInterfaceStub</text><line style="stroke: #A80036; stroke-width: 1.5;" x1="1661" x2="2057" y1="451" y2="451"/><line style="stroke: #A80036; stroke-width: 1.5;" x1="1661" x2="2057" y1="459" y2="459"/><ellipse cx="1671" cy="486.8047" fill="#84BE84" rx="3" ry="3" style="stroke: #038048; stroke-width: 1.0;"/><text fill="#000000" font-family="sans-serif" font-size="11" font-style="italic" lengthAdjust="spacingAndGlyphs" textLength="156" x="1680" y="490.0151">int receiveGetRfidRequest()</text><ellipse cx="1671" cy="499.6094" fill="#84BE84" rx="3" ry="3" style="stroke: #038048; stroke-width: 1.0;"/><text fill="#000000" font-family="sans-serif" font-size="11" font-style="italic" lengthAdjust="spacingAndGlyphs" textLength="372" x="1680" y="502.8198">LocationDataPoint receiveGetLocationDataPointRequest(int offset)</text><ellipse cx="1671" cy="512.4141" fill="#84BE84" rx="3" ry="3" style="stroke: #038048; stroke-width: 1.0;"/><text fill="#000000" font-family="sans-serif" font-size="11" font-style="italic" lengthAdjust="spacingAndGlyphs" textLength="284" x="1680" y="515.6245">TrackData receiveGetTrackDataRequest(int offset)</text><ellipse cx="1671" cy="525.2188" fill="#84BE84" rx="3" ry="3" style="stroke: #038048; stroke-width: 1.0;"/><text fill="#000000" font-family="sans-serif" font-size="11" font-style="italic" lengthAdjust="spacingAndGlyphs" textLength="283" x="1680" y="528.4292">void storeTrackDataRequest(TrackData trackData)</text><ellipse cx="1671" cy="538.0234" fill="#84BE84" rx="3" ry="3" style="stroke: #038048; stroke-width: 1.0;"/><text fill="#000000" font-family="sans-serif" font-size="11" font-style="italic" lengthAdjust="spacingAndGlyphs" textLength="183" x="1680" y="541.2339">String receiveGetModeRequest()</text><line style="stroke: #A80036; stroke-width: 1.0; stroke-dasharray: 1.0,2.0;" x1="1661" x2="1826" y1="473.4023" y2="473.4023"/><text fill="#000000" font-family="sans-serif" font-size="11" lengthAdjust="spacingAndGlyphs" textLength="66" x="1826" y="476.7104">Use Case 1</text><line style="stroke: #A80036; stroke-width: 1.0; stroke-dasharray: 1.0,2.0;" x1="1892" x2="2057" y1="473.4023" y2="473.4023"/><!--MD5=[8d86b1aa2030a05d452f78e2e1fb37ed]
class TrackDataCalculator--><rect fill="#FEFECE" filter="url(#f1vp3nk2w7qrkw)" height="86.4141" id="TrackDataCalculator" style="stroke: #A80036; stroke-width: 1.5;" width="518" x="2851" y="69.5"/><ellipse cx="3042.25" cy="85.5" fill="#ADD1B2" rx="11" ry="11" style="stroke: #A80036; stroke-width: 1.0;"/><path d="M3045.2188,91.1406 Q3044.6406,91.4375 3044,91.5781 Q3043.3594,91.7344 3042.6563,91.7344 Q3040.1563,91.7344 3038.8281,90.0938 Q3037.5156,88.4375 3037.5156,85.3125 Q3037.5156,82.1875 3038.8281,80.5313 Q3040.1563,78.875 3042.6563,78.875 Q3043.3594,78.875 3044,79.0313 Q3044.6563,79.1875 3045.2188,79.4844 L3045.2188,82.2031 Q3044.5938,81.625 3044,81.3594 Q3043.4063,81.0781 3042.7813,81.0781 Q3041.4375,81.0781 3040.75,82.1563 Q3040.0625,83.2188 3040.0625,85.3125 Q3040.0625,87.4063 3040.75,88.4844 Q3041.4375,89.5469 3042.7813,89.5469 Q3043.4063,89.5469 3044,89.2813 Q3044.5938,89 3045.2188,88.4219 L3045.2188,91.1406 Z "/><text fill="#000000" font-family="sans-serif" font-size="12" lengthAdjust="spacingAndGlyphs" textLength="127" x="3062.75" y="89.6543">TrackDataCalculator</text><line style="stroke: #A80036; stroke-width: 1.5;" x1="2852" x2="3368" y1="101.5" y2="101.5"/><line style="stroke: #A80036; stroke-width: 1.5;" x1="2852" x2="3368" y1="109.5" y2="109.5"/><ellipse cx="2862" cy="120.5" fill="#84BE84" rx="3" ry="3" style="stroke: #038048; stroke-width: 1.0;"/><text fill="#000000" font-family="sans-serif" font-size="11" lengthAdjust="spacingAndGlyphs" text-decoration="underline" textLength="341" x="2871" y="123.7104">float calculateSpeed(LocationDataPoint[] locationDataPoints)</text><ellipse cx="2862" cy="133.3047" fill="#84BE84" rx="3" ry="3" style="stroke: #038048; stroke-width: 1.0;"/><text fill="#000000" font-family="sans-serif" font-size="11" lengthAdjust="spacingAndGlyphs" text-decoration="underline" textLength="355" x="2871" y="136.5151">float calculateDirection(LocationDataPoint[] locationDataPoints)</text><rect fill="#F24D5C" height="6" style="stroke: #C82930; stroke-width: 1.0;" width="6" x="2859" y="143.1094"/><text fill="#000000" font-family="sans-serif" font-size="11" lengthAdjust="spacingAndGlyphs" text-decoration="underline" textLength="492" x="2871" y="149.3198">LocationDataPoint[] calculateRootMeanSquared(LocationDataPoint[] locationDataPoints)</text><!--MD5=[79aecf45dbeed97c47edbe657f491fed]
link MiddlewareCommInterface to MiddlewareCommLinkManager--><!--MD5=[3e31a8e5d6790d9de494b190b5cea52e]
link MiddlewareCommLinkManager to MiddlewareCommDatabaseInterface--><!--MD5=[1ada782ccdd2db703c66336b5f162fc3]
link MiddlewareCommInterface to MiddlewareCommInterfaceImplementation--><!--MD5=[6da0790ce05b99ca6092638cec9e90cf]
link MiddlewareCommInterfaceImplementation to MiddlewareCommLinkManagerImplementation--><!--MD5=[36e461af31e28567fecbe5ff60035690]
link MiddlewareCommLinkManagerImplementation to MiddlewareCommDatabaseInterfaceImplementation--><!--MD5=[ce6c844e7919a8f6f76001b7f296af78]
link MiddlewareCommInterfaceImplementationTests to MiddlewareCommLinkManagerImplementationTests--><!--MD5=[3a12c45484f2afe8107fcf684edf8632]
link MiddlewareCommLinkManagerImplementationTests to MiddlewareCommDatabaseInterfaceImplementationTests--><!--MD5=[a838cbddba67618560d21b534c15253a]
link MiddlewareCommInterfaceImplementationTests to TrackDataCalculatorTests--><!--MD5=[903a9875e449f16eb55177d9b4a91305]
link TrackDataCalculatorTests to MiddlewareCommLinkManagerStub--><!--MD5=[b940ce8b92caa55cf550a1d2b063f3f9]
link MiddlewareCommLinkManagerStub to MiddlewareCommDatabaseInterfaceStub--><!--MD5=[b54ff60b3a8e60754b9804127a777003]
link TrackDataCalculatorTests to DatabaseCommInterfaceStub--><!--MD5=[763a5ef593aaeb4a6767c2d5a234bb29]
@startuml Middleware02Packages


package edu.oakland.production.middleware02 {

}


package edu.oakland.production.middleware02 {
    interface MiddlewareCommInterface {
        __
        .. Use Case 1 ..
        {abstract} + TrackData requestRfid(int rfid)
        .. Use Case 2 ..

    }
}


package edu.oakland.production.middleware02 {
    interface MiddlewareCommLinkManager {
        __
        .. Use Case 1 ..
        {abstract} + TrackData parseRfid(int rfid)
        .. Use Case 2 ..

    }
}


package edu.oakland.production.middleware02 {
    interface MiddlewareCommDatabaseInterface {
        __
        .. Use Case 1 ..
        {abstract} + int checkCurrentRfid()
        .. Use Case 2 ..

    }
}


package edu.oakland.production.middleware02 {
    class MiddlewareCommInterfaceImplementation {
        - MiddlewareCommLinkManager middlewareManager
        __
        + MiddlewareCommInterfaceImplementation (MiddlewareCommLinkManager middlewareManager)
        .. Use Case 1 ..
        + TrackData requestRfid(int rfid)
        .. Use Case 2 ..

    }
}


package edu.oakland.production.middleware02 {
    class MiddlewareCommLinkManagerImplementation {
        __
        .. Use Case 1 ..
        + TrackData parseRfid(int rfid)
        - float calculateLocationDataPoint()
        - float calculateTrackData()
        .. Use Case 2 ..

    }
}


package edu.oakland.production.middleware02 {
    class MiddlewareCommDatabaseInterfaceImplementation {
        + DatabaseCommInterface databaseCommInterface
        __
        + MiddlewareCommDatabaseInterfaceImplementation(DatabaseCommInterface databaseCommInterface)
        .. Use Case 1 ..
        + int checkCurrentRfid()
        .. Use Case 2 ..

    }
}



package edu.oakland.test.middleware02 {
    
}


package edu.oakland.test.middleware02 {
    class MiddlewareCommInterfaceImplementationTests {

    }
}


package edu.oakland.test.middleware02 {
    class MiddlewareCommLinkManagerImplementationTests {

    }
}


package edu.oakland.test.middleware02 {
    class MiddlewareCommDatabaseInterfaceImplementationTests {

    }
}


package edu.oakland.test.middleware02 {
    class TrackDataCalculatorTests {

    }
}


package edu.oakland.test.middleware02 {
    class MiddlewareCommLinkManagerStub {
        __
        .. Use Case 1 ..
        + TrackData parseRfid(int rfid)
        - float calculateLocationDataPoint()
        - float calculateTrackData()
    }
}


package edu.oakland.test.middleware02 {
    class MiddlewareCommDatabaseInterfaceStub {
        __
        .. Use Case 1 ..
        + int checkCurrentRfid()
    }
}


package edu.oakland.test.middleware02 {
    class DatabaseCommInterfaceStub {
        __
        .. Use Case 1 ..
        {abstract} + int receiveGetRfidRequest()
        {abstract} + LocationDataPoint receiveGetLocationDataPointRequest(int offset)
        {abstract} + TrackData receiveGetTrackDataRequest(int offset)
        {abstract} + void storeTrackDataRequest(TrackData trackData)
        {abstract} + String receiveGetModeRequest()
    }
}



package edu.oakland.helper.middleware02 {
    
}


package edu.oakland.helper.middleware02 {
    class TrackDataCalculator {
        {static} + float calculateSpeed(LocationDataPoint[] locationDataPoints)
        {static} + float calculateDirection(LocationDataPoint[] locationDataPoints)
        {static} - LocationDataPoint[] calculateRootMeanSquared(LocationDataPoint[] locationDataPoints)
    }
}



@enduml

PlantUML version 1.2020.02(Sun Mar 01 10:22:07 GMT 2020)
(GPL source distribution)
Java Runtime: OpenJDK Runtime Environment
JVM: OpenJDK 64-Bit Server VM
Java Version: 11.0.9+11-Ubuntu-0ubuntu1
Operating System: Linux
Default Encoding: ANSI_X3.4-1968
Language: en
Country: US
--></g></svg>