<?xml version="1.0" encoding="UTF-8" standalone="no"?><svg xmlns="http://www.w3.org/2000/svg" xmlns:xlink="http://www.w3.org/1999/xlink" contentScriptType="application/ecmascript" contentStyleType="text/css" height="412px" preserveAspectRatio="none" style="width:2170px;height:412px;" version="1.1" viewBox="0 0 2170 412" width="2170px" zoomAndPan="magnify"><defs><filter height="300%" id="f1r1q9c5q6lfwm" width="300%" x="-1" y="-1"><feGaussianBlur result="blurOut" stdDeviation="2.0"/><feColorMatrix in="blurOut" result="blurOut2" type="matrix" values="0 0 0 0 0 0 0 0 0 0 0 0 0 0 0 0 0 0 .4 0"/><feOffset dx="4.0" dy="4.0" in="blurOut2" result="blurOut3"/><feBlend in="SourceGraphic" in2="blurOut3" mode="normal"/></filter></defs><g><!--MD5=[33504725b8a69ba2207f0a836957a91c]
cluster edu.oakland.production.middleware02--><polygon fill="#FFFFFF" filter="url(#f1r1q9c5q6lfwm)" points="614.5,24,924.5,24,931.5,46.2969,2148.5,46.2969,2148.5,400,614.5,400,614.5,24" style="stroke: #000000; stroke-width: 1.5;"/><line style="stroke: #000000; stroke-width: 1.5;" x1="614.5" x2="931.5" y1="46.2969" y2="46.2969"/><text fill="#000000" font-family="sans-serif" font-size="14" font-weight="bold" lengthAdjust="spacingAndGlyphs" textLength="304" x="618.5" y="38.9951">edu.oakland.production.middleware02</text><!--MD5=[d3cb230b9040bd9072bb1f490e167601]
class MiddlewareCommInterface--><rect fill="#FEFECE" filter="url(#f1r1q9c5q6lfwm)" height="107.2188" id="MiddlewareCommInterface" style="stroke: #A80036; stroke-width: 1.5;" width="198" x="804.5" y="59"/><ellipse cx="819.5" cy="75" fill="#B4A7E5" rx="11" ry="11" style="stroke: #A80036; stroke-width: 1.0;"/><path d="M815.4219,70.7656 L815.4219,68.6094 L822.8125,68.6094 L822.8125,70.7656 L820.3438,70.7656 L820.3438,78.8438 L822.8125,78.8438 L822.8125,81 L815.4219,81 L815.4219,78.8438 L817.8906,78.8438 L817.8906,70.7656 L815.4219,70.7656 Z "/><text fill="#000000" font-family="sans-serif" font-size="12" font-style="italic" lengthAdjust="spacingAndGlyphs" textLength="166" x="833.5" y="79.1543">MiddlewareCommInterface</text><line style="stroke: #A80036; stroke-width: 1.5;" x1="805.5" x2="1001.5" y1="91" y2="91"/><line style="stroke: #A80036; stroke-width: 1.5;" x1="805.5" x2="1001.5" y1="99" y2="99"/><ellipse cx="815.5" cy="126.8047" fill="#84BE84" rx="3" ry="3" style="stroke: #038048; stroke-width: 1.0;"/><text fill="#000000" font-family="sans-serif" font-size="11" font-style="italic" lengthAdjust="spacingAndGlyphs" textLength="171" x="824.5" y="130.0151">TrackData requestRfid(int rfid)</text><line style="stroke: #A80036; stroke-width: 1.0; stroke-dasharray: 1.0,2.0;" x1="805.5" x2="870.5" y1="113.4023" y2="113.4023"/><text fill="#000000" font-family="sans-serif" font-size="11" lengthAdjust="spacingAndGlyphs" textLength="66" x="870.5" y="116.7104">Use Case 1</text><line style="stroke: #A80036; stroke-width: 1.0; stroke-dasharray: 1.0,2.0;" x1="936.5" x2="1001.5" y1="113.4023" y2="113.4023"/><text fill="#000000" font-family="sans-serif" font-size="11" lengthAdjust="spacingAndGlyphs" textLength="0" x="814.5" y="159.6245"/><line style="stroke: #A80036; stroke-width: 1.0; stroke-dasharray: 1.0,2.0;" x1="805.5" x2="870.5" y1="143.0117" y2="143.0117"/><text fill="#000000" font-family="sans-serif" font-size="11" lengthAdjust="spacingAndGlyphs" textLength="66" x="870.5" y="146.3198">Use Case 2</text><line style="stroke: #A80036; stroke-width: 1.0; stroke-dasharray: 1.0,2.0;" x1="936.5" x2="1001.5" y1="143.0117" y2="143.0117"/><!--MD5=[d01e667c21cf622da77e8a7601ca5c91]
class MiddlewareCommLinkManager--><rect fill="#FEFECE" filter="url(#f1r1q9c5q6lfwm)" height="107.2188" id="MiddlewareCommLinkManager" style="stroke: #A80036; stroke-width: 1.5;" width="221" x="1259" y="59"/><ellipse cx="1274" cy="75" fill="#B4A7E5" rx="11" ry="11" style="stroke: #A80036; stroke-width: 1.0;"/><path d="M1269.9219,70.7656 L1269.9219,68.6094 L1277.3125,68.6094 L1277.3125,70.7656 L1274.8438,70.7656 L1274.8438,78.8438 L1277.3125,78.8438 L1277.3125,81 L1269.9219,81 L1269.9219,78.8438 L1272.3906,78.8438 L1272.3906,70.7656 L1269.9219,70.7656 Z "/><text fill="#000000" font-family="sans-serif" font-size="12" font-style="italic" lengthAdjust="spacingAndGlyphs" textLength="189" x="1288" y="79.1543">MiddlewareCommLinkManager</text><line style="stroke: #A80036; stroke-width: 1.5;" x1="1260" x2="1479" y1="91" y2="91"/><line style="stroke: #A80036; stroke-width: 1.5;" x1="1260" x2="1479" y1="99" y2="99"/><ellipse cx="1270" cy="126.8047" fill="#84BE84" rx="3" ry="3" style="stroke: #038048; stroke-width: 1.0;"/><text fill="#000000" font-family="sans-serif" font-size="11" font-style="italic" lengthAdjust="spacingAndGlyphs" textLength="160" x="1279" y="130.0151">TrackData parseRfid(int rfid)</text><line style="stroke: #A80036; stroke-width: 1.0; stroke-dasharray: 1.0,2.0;" x1="1260" x2="1336.5" y1="113.4023" y2="113.4023"/><text fill="#000000" font-family="sans-serif" font-size="11" lengthAdjust="spacingAndGlyphs" textLength="66" x="1336.5" y="116.7104">Use Case 1</text><line style="stroke: #A80036; stroke-width: 1.0; stroke-dasharray: 1.0,2.0;" x1="1402.5" x2="1479" y1="113.4023" y2="113.4023"/><text fill="#000000" font-family="sans-serif" font-size="11" lengthAdjust="spacingAndGlyphs" textLength="0" x="1269" y="159.6245"/><line style="stroke: #A80036; stroke-width: 1.0; stroke-dasharray: 1.0,2.0;" x1="1260" x2="1336.5" y1="143.0117" y2="143.0117"/><text fill="#000000" font-family="sans-serif" font-size="11" lengthAdjust="spacingAndGlyphs" textLength="66" x="1336.5" y="146.3198">Use Case 2</text><line style="stroke: #A80036; stroke-width: 1.0; stroke-dasharray: 1.0,2.0;" x1="1402.5" x2="1479" y1="143.0117" y2="143.0117"/><!--MD5=[4915649770e9045e9ea9156a01fd67e8]
class MiddlewareCommDatabaseInterface--><rect fill="#FEFECE" filter="url(#f1r1q9c5q6lfwm)" height="107.2188" id="MiddlewareCommDatabaseInterface" style="stroke: #A80036; stroke-width: 1.5;" width="258" x="1718.5" y="59"/><ellipse cx="1733.5" cy="75" fill="#B4A7E5" rx="11" ry="11" style="stroke: #A80036; stroke-width: 1.0;"/><path d="M1729.4219,70.7656 L1729.4219,68.6094 L1736.8125,68.6094 L1736.8125,70.7656 L1734.3438,70.7656 L1734.3438,78.8438 L1736.8125,78.8438 L1736.8125,81 L1729.4219,81 L1729.4219,78.8438 L1731.8906,78.8438 L1731.8906,70.7656 L1729.4219,70.7656 Z "/><text fill="#000000" font-family="sans-serif" font-size="12" font-style="italic" lengthAdjust="spacingAndGlyphs" textLength="226" x="1747.5" y="79.1543">MiddlewareCommDatabaseInterface</text><line style="stroke: #A80036; stroke-width: 1.5;" x1="1719.5" x2="1975.5" y1="91" y2="91"/><line style="stroke: #A80036; stroke-width: 1.5;" x1="1719.5" x2="1975.5" y1="99" y2="99"/><ellipse cx="1729.5" cy="126.8047" fill="#84BE84" rx="3" ry="3" style="stroke: #038048; stroke-width: 1.0;"/><text fill="#000000" font-family="sans-serif" font-size="11" font-style="italic" lengthAdjust="spacingAndGlyphs" textLength="123" x="1738.5" y="130.0151">int checkCurrentRfid()</text><line style="stroke: #A80036; stroke-width: 1.0; stroke-dasharray: 1.0,2.0;" x1="1719.5" x2="1814.5" y1="113.4023" y2="113.4023"/><text fill="#000000" font-family="sans-serif" font-size="11" lengthAdjust="spacingAndGlyphs" textLength="66" x="1814.5" y="116.7104">Use Case 1</text><line style="stroke: #A80036; stroke-width: 1.0; stroke-dasharray: 1.0,2.0;" x1="1880.5" x2="1975.5" y1="113.4023" y2="113.4023"/><text fill="#000000" font-family="sans-serif" font-size="11" lengthAdjust="spacingAndGlyphs" textLength="0" x="1728.5" y="159.6245"/><line style="stroke: #A80036; stroke-width: 1.0; stroke-dasharray: 1.0,2.0;" x1="1719.5" x2="1814.5" y1="143.0117" y2="143.0117"/><text fill="#000000" font-family="sans-serif" font-size="11" lengthAdjust="spacingAndGlyphs" textLength="66" x="1814.5" y="146.3198">Use Case 2</text><line style="stroke: #A80036; stroke-width: 1.0; stroke-dasharray: 1.0,2.0;" x1="1880.5" x2="1975.5" y1="143.0117" y2="143.0117"/><!--MD5=[0a03c366ade61429da89cc477d567a32]
class MiddlewareCommInterfaceImplementation--><rect fill="#FEFECE" filter="url(#f1r1q9c5q6lfwm)" height="132.8281" id="MiddlewareCommInterfaceImplementation" style="stroke: #A80036; stroke-width: 1.5;" width="546" x="630.5" y="238.5"/><ellipse cx="768.75" cy="254.5" fill="#ADD1B2" rx="11" ry="11" style="stroke: #A80036; stroke-width: 1.0;"/><path d="M771.7188,260.1406 Q771.1406,260.4375 770.5,260.5781 Q769.8594,260.7344 769.1563,260.7344 Q766.6563,260.7344 765.3281,259.0938 Q764.0156,257.4375 764.0156,254.3125 Q764.0156,251.1875 765.3281,249.5313 Q766.6563,247.875 769.1563,247.875 Q769.8594,247.875 770.5,248.0313 Q771.1563,248.1875 771.7188,248.4844 L771.7188,251.2031 Q771.0938,250.625 770.5,250.3594 Q769.9063,250.0781 769.2813,250.0781 Q767.9375,250.0781 767.25,251.1563 Q766.5625,252.2188 766.5625,254.3125 Q766.5625,256.4063 767.25,257.4844 Q767.9375,258.5469 769.2813,258.5469 Q769.9063,258.5469 770.5,258.2813 Q771.0938,258 771.7188,257.4219 L771.7188,260.1406 Z "/><text fill="#000000" font-family="sans-serif" font-size="12" lengthAdjust="spacingAndGlyphs" textLength="261" x="789.25" y="258.6543">MiddlewareCommInterfaceImplementation</text><line style="stroke: #A80036; stroke-width: 1.5;" x1="631.5" x2="1175.5" y1="270.5" y2="270.5"/><rect fill="none" height="6" style="stroke: #C82930; stroke-width: 1.0;" width="6" x="638.5" y="278.5"/><text fill="#000000" font-family="sans-serif" font-size="11" lengthAdjust="spacingAndGlyphs" textLength="269" x="650.5" y="284.7104">MiddlewareCommManager middlewareManager</text><line style="stroke: #A80036; stroke-width: 1.5;" x1="631.5" x2="1175.5" y1="291.3047" y2="291.3047"/><ellipse cx="641.5" cy="302.3047" fill="#84BE84" rx="3" ry="3" style="stroke: #038048; stroke-width: 1.0;"/><text fill="#000000" font-family="sans-serif" font-size="11" lengthAdjust="spacingAndGlyphs" textLength="520" x="650.5" y="305.5151">MiddlewareCommInterfaceImplementation (MiddlewareCommManager middlewareManager)</text><ellipse cx="641.5" cy="331.9141" fill="#84BE84" rx="3" ry="3" style="stroke: #038048; stroke-width: 1.0;"/><text fill="#000000" font-family="sans-serif" font-size="11" lengthAdjust="spacingAndGlyphs" textLength="171" x="650.5" y="335.1245">TrackData requestRfid(int rfid)</text><line style="stroke: #A80036; stroke-width: 1.0; stroke-dasharray: 1.0,2.0;" x1="631.5" x2="870.5" y1="318.5117" y2="318.5117"/><text fill="#000000" font-family="sans-serif" font-size="11" lengthAdjust="spacingAndGlyphs" textLength="66" x="870.5" y="321.8198">Use Case 1</text><line style="stroke: #A80036; stroke-width: 1.0; stroke-dasharray: 1.0,2.0;" x1="936.5" x2="1175.5" y1="318.5117" y2="318.5117"/><text fill="#000000" font-family="sans-serif" font-size="11" lengthAdjust="spacingAndGlyphs" textLength="0" x="640.5" y="364.7339"/><line style="stroke: #A80036; stroke-width: 1.0; stroke-dasharray: 1.0,2.0;" x1="631.5" x2="870.5" y1="348.1211" y2="348.1211"/><text fill="#000000" font-family="sans-serif" font-size="11" lengthAdjust="spacingAndGlyphs" textLength="66" x="870.5" y="351.4292">Use Case 2</text><line style="stroke: #A80036; stroke-width: 1.0; stroke-dasharray: 1.0,2.0;" x1="936.5" x2="1175.5" y1="348.1211" y2="348.1211"/><!--MD5=[d9ed64ee38938b46697008700ce69fba]
class MiddlewareCommLinkManagerImplementation--><rect fill="#FEFECE" filter="url(#f1r1q9c5q6lfwm)" height="158.4375" id="MiddlewareCommLinkManagerImplementation" style="stroke: #A80036; stroke-width: 1.5;" width="316" x="1211.5" y="226"/><ellipse cx="1226.5" cy="242" fill="#ADD1B2" rx="11" ry="11" style="stroke: #A80036; stroke-width: 1.0;"/><path d="M1229.4688,247.6406 Q1228.8906,247.9375 1228.25,248.0781 Q1227.6094,248.2344 1226.9063,248.2344 Q1224.4063,248.2344 1223.0781,246.5938 Q1221.7656,244.9375 1221.7656,241.8125 Q1221.7656,238.6875 1223.0781,237.0313 Q1224.4063,235.375 1226.9063,235.375 Q1227.6094,235.375 1228.25,235.5313 Q1228.9063,235.6875 1229.4688,235.9844 L1229.4688,238.7031 Q1228.8438,238.125 1228.25,237.8594 Q1227.6563,237.5781 1227.0313,237.5781 Q1225.6875,237.5781 1225,238.6563 Q1224.3125,239.7188 1224.3125,241.8125 Q1224.3125,243.9063 1225,244.9844 Q1225.6875,246.0469 1227.0313,246.0469 Q1227.6563,246.0469 1228.25,245.7813 Q1228.8438,245.5 1229.4688,244.9219 L1229.4688,247.6406 Z "/><text fill="#000000" font-family="sans-serif" font-size="12" lengthAdjust="spacingAndGlyphs" textLength="284" x="1240.5" y="246.1543">MiddlewareCommLinkManagerImplementation</text><line style="stroke: #A80036; stroke-width: 1.5;" x1="1212.5" x2="1526.5" y1="258" y2="258"/><line style="stroke: #A80036; stroke-width: 1.5;" x1="1212.5" x2="1526.5" y1="266" y2="266"/><ellipse cx="1222.5" cy="293.8047" fill="#84BE84" rx="3" ry="3" style="stroke: #038048; stroke-width: 1.0;"/><text fill="#000000" font-family="sans-serif" font-size="11" lengthAdjust="spacingAndGlyphs" textLength="160" x="1231.5" y="297.0151">TrackData parseRfid(int rfid)</text><text fill="#000000" font-family="sans-serif" font-size="11" lengthAdjust="spacingAndGlyphs" textLength="123" x="1231.5" y="309.8198">float calculateSpeed()</text><text fill="#000000" font-family="sans-serif" font-size="11" lengthAdjust="spacingAndGlyphs" textLength="137" x="1231.5" y="322.6245">float calculateDirection()</text><text fill="#000000" font-family="sans-serif" font-size="11" lengthAdjust="spacingAndGlyphs" textLength="188" x="1231.5" y="335.4292">float calculateLocationDataPoint()</text><text fill="#000000" font-family="sans-serif" font-size="11" lengthAdjust="spacingAndGlyphs" textLength="144" x="1231.5" y="348.2339">float calculateTrackData()</text><line style="stroke: #A80036; stroke-width: 1.0; stroke-dasharray: 1.0,2.0;" x1="1212.5" x2="1336.5" y1="280.4023" y2="280.4023"/><text fill="#000000" font-family="sans-serif" font-size="11" lengthAdjust="spacingAndGlyphs" textLength="66" x="1336.5" y="283.7104">Use Case 1</text><line style="stroke: #A80036; stroke-width: 1.0; stroke-dasharray: 1.0,2.0;" x1="1402.5" x2="1526.5" y1="280.4023" y2="280.4023"/><text fill="#000000" font-family="sans-serif" font-size="11" lengthAdjust="spacingAndGlyphs" textLength="0" x="1221.5" y="377.8433"/><line style="stroke: #A80036; stroke-width: 1.0; stroke-dasharray: 1.0,2.0;" x1="1212.5" x2="1336.5" y1="361.2305" y2="361.2305"/><text fill="#000000" font-family="sans-serif" font-size="11" lengthAdjust="spacingAndGlyphs" textLength="66" x="1336.5" y="364.5386">Use Case 2</text><line style="stroke: #A80036; stroke-width: 1.0; stroke-dasharray: 1.0,2.0;" x1="1402.5" x2="1526.5" y1="361.2305" y2="361.2305"/><!--MD5=[1c4f9654f103878faf4a10c0361188b9]
class MiddlewareCommDatabaseInterfaceImplementation--><rect fill="#FEFECE" filter="url(#f1r1q9c5q6lfwm)" height="132.8281" id="MiddlewareCommDatabaseInterfaceImplementation" style="stroke: #A80036; stroke-width: 1.5;" width="569" x="1563" y="238.5"/><ellipse cx="1682.25" cy="254.5" fill="#ADD1B2" rx="11" ry="11" style="stroke: #A80036; stroke-width: 1.0;"/><path d="M1685.2188,260.1406 Q1684.6406,260.4375 1684,260.5781 Q1683.3594,260.7344 1682.6563,260.7344 Q1680.1563,260.7344 1678.8281,259.0938 Q1677.5156,257.4375 1677.5156,254.3125 Q1677.5156,251.1875 1678.8281,249.5313 Q1680.1563,247.875 1682.6563,247.875 Q1683.3594,247.875 1684,248.0313 Q1684.6563,248.1875 1685.2188,248.4844 L1685.2188,251.2031 Q1684.5938,250.625 1684,250.3594 Q1683.4063,250.0781 1682.7813,250.0781 Q1681.4375,250.0781 1680.75,251.1563 Q1680.0625,252.2188 1680.0625,254.3125 Q1680.0625,256.4063 1680.75,257.4844 Q1681.4375,258.5469 1682.7813,258.5469 Q1683.4063,258.5469 1684,258.2813 Q1684.5938,258 1685.2188,257.4219 L1685.2188,260.1406 Z "/><text fill="#000000" font-family="sans-serif" font-size="12" lengthAdjust="spacingAndGlyphs" textLength="322" x="1702.75" y="258.6543">MiddlewareCommDatabaseInterfaceImplementation</text><line style="stroke: #A80036; stroke-width: 1.5;" x1="1564" x2="2131" y1="270.5" y2="270.5"/><ellipse cx="1574" cy="281.5" fill="none" rx="3" ry="3" style="stroke: #038048; stroke-width: 1.0;"/><text fill="#000000" font-family="sans-serif" font-size="11" lengthAdjust="spacingAndGlyphs" textLength="242" x="1583" y="284.7104">MiddlewareDatabase middlewareDatabase</text><line style="stroke: #A80036; stroke-width: 1.5;" x1="1564" x2="2131" y1="291.3047" y2="291.3047"/><ellipse cx="1574" cy="302.3047" fill="#84BE84" rx="3" ry="3" style="stroke: #038048; stroke-width: 1.0;"/><text fill="#000000" font-family="sans-serif" font-size="11" lengthAdjust="spacingAndGlyphs" textLength="543" x="1583" y="305.5151">MiddlewareCommDatabaseInterfaceImplementation(MiddlewareDatabase middlewareDatabase)</text><ellipse cx="1574" cy="331.9141" fill="#84BE84" rx="3" ry="3" style="stroke: #038048; stroke-width: 1.0;"/><text fill="#000000" font-family="sans-serif" font-size="11" lengthAdjust="spacingAndGlyphs" textLength="122" x="1583" y="335.1245">int checkCurrentRfid()</text><line style="stroke: #A80036; stroke-width: 1.0; stroke-dasharray: 1.0,2.0;" x1="1564" x2="1814.5" y1="318.5117" y2="318.5117"/><text fill="#000000" font-family="sans-serif" font-size="11" lengthAdjust="spacingAndGlyphs" textLength="66" x="1814.5" y="321.8198">Use Case 1</text><line style="stroke: #A80036; stroke-width: 1.0; stroke-dasharray: 1.0,2.0;" x1="1880.5" x2="2131" y1="318.5117" y2="318.5117"/><text fill="#000000" font-family="sans-serif" font-size="11" lengthAdjust="spacingAndGlyphs" textLength="0" x="1573" y="364.7339"/><line style="stroke: #A80036; stroke-width: 1.0; stroke-dasharray: 1.0,2.0;" x1="1564" x2="1814.5" y1="348.1211" y2="348.1211"/><text fill="#000000" font-family="sans-serif" font-size="11" lengthAdjust="spacingAndGlyphs" textLength="66" x="1814.5" y="351.4292">Use Case 2</text><line style="stroke: #A80036; stroke-width: 1.0; stroke-dasharray: 1.0,2.0;" x1="1880.5" x2="2131" y1="348.1211" y2="348.1211"/><polygon fill="#FFFFFF" filter="url(#f1r1q9c5q6lfwm)" points="6,86,261,86,268,108.2969,275,108.2969,275,138.5938,6,138.5938,6,86" style="stroke: #000000; stroke-width: 1.5;"/><line style="stroke: #000000; stroke-width: 1.5;" x1="6" x2="268" y1="108.2969" y2="108.2969"/><text fill="#000000" font-family="sans-serif" font-size="14" font-weight="bold" lengthAdjust="spacingAndGlyphs" textLength="249" x="10" y="100.9951">edu.oakland.test.middleware02</text><polygon fill="#FFFFFF" filter="url(#f1r1q9c5q6lfwm)" points="310,86,585,86,592,108.2969,599,108.2969,599,138.5938,310,138.5938,310,86" style="stroke: #000000; stroke-width: 1.5;"/><line style="stroke: #000000; stroke-width: 1.5;" x1="310" x2="592" y1="108.2969" y2="108.2969"/><text fill="#000000" font-family="sans-serif" font-size="14" font-weight="bold" lengthAdjust="spacingAndGlyphs" textLength="269" x="314" y="100.9951">edu.oakland.helper.middleware02</text><!--MD5=[a6f6d6498f8ad0fd1149c5a16bc55d36]
reverse link MiddlewareCommInterface to MiddlewareCommInterfaceImplementation--><path d="M903.5,186.28 C903.5,203.4 903.5,221.56 903.5,238.35 " fill="none" id="MiddlewareCommInterface&lt;-MiddlewareCommInterfaceImplementation" style="stroke: #A80036; stroke-width: 1.0; stroke-dasharray: 7.0,7.0;"/><polygon fill="none" points="896.5,186.06,903.5,166.06,910.5,186.06,896.5,186.06" style="stroke: #A80036; stroke-width: 1.0;"/><!--MD5=[497c69cbff9542047faf5ca77780c8cb]
reverse link MiddlewareCommLinkManager to MiddlewareCommLinkManagerImplementation--><path d="M1369.5,186.41 C1369.5,199.34 1369.5,212.86 1369.5,225.92 " fill="none" id="MiddlewareCommLinkManager&lt;-MiddlewareCommLinkManagerImplementation" style="stroke: #A80036; stroke-width: 1.0; stroke-dasharray: 7.0,7.0;"/><polygon fill="none" points="1362.5,186.06,1369.5,166.06,1376.5,186.06,1362.5,186.06" style="stroke: #A80036; stroke-width: 1.0;"/><!--MD5=[8e69def7a54ed81078168d5d1d8487c9]
reverse link MiddlewareCommDatabaseInterface to MiddlewareCommDatabaseInterfaceImplementation--><path d="M1847.5,186.28 C1847.5,203.4 1847.5,221.56 1847.5,238.35 " fill="none" id="MiddlewareCommDatabaseInterface&lt;-MiddlewareCommDatabaseInterfaceImplementation" style="stroke: #A80036; stroke-width: 1.0; stroke-dasharray: 7.0,7.0;"/><polygon fill="none" points="1840.5,186.06,1847.5,166.06,1854.5,186.06,1840.5,186.06" style="stroke: #A80036; stroke-width: 1.0;"/><!--MD5=[b2ea58509111b57af4caf6b023b2a8df]
@startuml Middleware02Packages_InternalDependencies


package edu.oakland.production.middleware02 {
    
}


package edu.oakland.production.middleware02 {
    interface MiddlewareCommInterface {
        __
        .. Use Case 1 ..
        {abstract} + TrackData requestRfid(int rfid)
        .. Use Case 2 ..

    }
}


package edu.oakland.production.middleware02 {
    interface MiddlewareCommLinkManager {
        __
        .. Use Case 1 ..
        {abstract} + TrackData parseRfid(int rfid)
        .. Use Case 2 ..

    }
}


package edu.oakland.production.middleware02 {
    interface MiddlewareCommDatabaseInterface {
        __
        .. Use Case 1 ..
        {abstract} + int checkCurrentRfid()
        .. Use Case 2 ..

    }
}


package edu.oakland.production.middleware02 {
    class MiddlewareCommInterfaceImplementation {
        - MiddlewareCommManager middlewareManager
        __
        + MiddlewareCommInterfaceImplementation (MiddlewareCommManager middlewareManager)
        .. Use Case 1 ..
        + TrackData requestRfid(int rfid)
        .. Use Case 2 ..

    }
}


MiddlewareCommInterfaceImplementation .up.|> MiddlewareCommInterface

package edu.oakland.production.middleware02 {
    class MiddlewareCommLinkManagerImplementation {
        __
        .. Use Case 1 ..
        + TrackData parseRfid(int rfid)
        float calculateSpeed()
        float calculateDirection()
        float calculateLocationDataPoint()
        float calculateTrackData()
        .. Use Case 2 ..

    }
}


MiddlewareCommLinkManagerImplementation .up.|> MiddlewareCommLinkManager

package edu.oakland.production.middleware02 {
    class MiddlewareCommDatabaseInterfaceImplementation {
        + MiddlewareDatabase middlewareDatabase
        __
        + MiddlewareCommDatabaseInterfaceImplementation(MiddlewareDatabase middlewareDatabase)
        .. Use Case 1 ..
        + int checkCurrentRfid()
        .. Use Case 2 ..

    }
}


MiddlewareCommDatabaseInterfaceImplementation .up.|> MiddlewareCommDatabaseInterface








package edu.oakland.test.middleware02 {
    
}


package edu.oakland.helper.middleware02 {
    
}


@enduml

PlantUML version 1.2020.02(Sun Mar 01 10:22:07 GMT 2020)
(GPL source distribution)
Java Runtime: OpenJDK Runtime Environment
JVM: OpenJDK 64-Bit Server VM
Java Version: 11.0.9+11-Ubuntu-0ubuntu1
Operating System: Linux
Default Encoding: ANSI_X3.4-1968
Language: en
Country: US
--></g></svg>