<?xml version="1.0" encoding="UTF-8" standalone="no"?><svg xmlns="http://www.w3.org/2000/svg" xmlns:xlink="http://www.w3.org/1999/xlink" contentScriptType="application/ecmascript" contentStyleType="text/css" height="412px" preserveAspectRatio="none" style="width:2234px;height:412px;" version="1.1" viewBox="0 0 2234 412" width="2234px" zoomAndPan="magnify"><defs><filter height="300%" id="f1usjvv8txsygd" width="300%" x="-1" y="-1"><feGaussianBlur result="blurOut" stdDeviation="2.0"/><feColorMatrix in="blurOut" result="blurOut2" type="matrix" values="0 0 0 0 0 0 0 0 0 0 0 0 0 0 0 0 0 0 .4 0"/><feOffset dx="4.0" dy="4.0" in="blurOut2" result="blurOut3"/><feBlend in="SourceGraphic" in2="blurOut3" mode="normal"/></filter></defs><g><!--MD5=[33504725b8a69ba2207f0a836957a91c]
cluster edu.oakland.production.middleware02--><polygon fill="#FFFFFF" filter="url(#f1usjvv8txsygd)" points="614.5,24,924.5,24,931.5,46.2969,2212.5,46.2969,2212.5,400,614.5,400,614.5,24" style="stroke: #000000; stroke-width: 1.5;"/><line style="stroke: #000000; stroke-width: 1.5;" x1="614.5" x2="931.5" y1="46.2969" y2="46.2969"/><text fill="#000000" font-family="sans-serif" font-size="14" font-weight="bold" lengthAdjust="spacingAndGlyphs" textLength="304" x="618.5" y="38.9951">edu.oakland.production.middleware02</text><!--MD5=[d3cb230b9040bd9072bb1f490e167601]
class MiddlewareCommInterface--><rect fill="#FEFECE" filter="url(#f1usjvv8txsygd)" height="107.2188" id="MiddlewareCommInterface" style="stroke: #A80036; stroke-width: 1.5;" width="198" x="815.5" y="59"/><ellipse cx="830.5" cy="75" fill="#B4A7E5" rx="11" ry="11" style="stroke: #A80036; stroke-width: 1.0;"/><path d="M826.4219,70.7656 L826.4219,68.6094 L833.8125,68.6094 L833.8125,70.7656 L831.3438,70.7656 L831.3438,78.8438 L833.8125,78.8438 L833.8125,81 L826.4219,81 L826.4219,78.8438 L828.8906,78.8438 L828.8906,70.7656 L826.4219,70.7656 Z "/><text fill="#000000" font-family="sans-serif" font-size="12" font-style="italic" lengthAdjust="spacingAndGlyphs" textLength="166" x="844.5" y="79.1543">MiddlewareCommInterface</text><line style="stroke: #A80036; stroke-width: 1.5;" x1="816.5" x2="1012.5" y1="91" y2="91"/><line style="stroke: #A80036; stroke-width: 1.5;" x1="816.5" x2="1012.5" y1="99" y2="99"/><ellipse cx="826.5" cy="126.8047" fill="#84BE84" rx="3" ry="3" style="stroke: #038048; stroke-width: 1.0;"/><text fill="#000000" font-family="sans-serif" font-size="11" font-style="italic" lengthAdjust="spacingAndGlyphs" textLength="171" x="835.5" y="130.0151">TrackData requestRfid(int rfid)</text><line style="stroke: #A80036; stroke-width: 1.0; stroke-dasharray: 1.0,2.0;" x1="816.5" x2="881.5" y1="113.4023" y2="113.4023"/><text fill="#000000" font-family="sans-serif" font-size="11" lengthAdjust="spacingAndGlyphs" textLength="66" x="881.5" y="116.7104">Use Case 1</text><line style="stroke: #A80036; stroke-width: 1.0; stroke-dasharray: 1.0,2.0;" x1="947.5" x2="1012.5" y1="113.4023" y2="113.4023"/><text fill="#000000" font-family="sans-serif" font-size="11" lengthAdjust="spacingAndGlyphs" textLength="0" x="825.5" y="159.6245"/><line style="stroke: #A80036; stroke-width: 1.0; stroke-dasharray: 1.0,2.0;" x1="816.5" x2="881.5" y1="143.0117" y2="143.0117"/><text fill="#000000" font-family="sans-serif" font-size="11" lengthAdjust="spacingAndGlyphs" textLength="66" x="881.5" y="146.3198">Use Case 2</text><line style="stroke: #A80036; stroke-width: 1.0; stroke-dasharray: 1.0,2.0;" x1="947.5" x2="1012.5" y1="143.0117" y2="143.0117"/><!--MD5=[d01e667c21cf622da77e8a7601ca5c91]
class MiddlewareCommLinkManager--><rect fill="#FEFECE" filter="url(#f1usjvv8txsygd)" height="107.2188" id="MiddlewareCommLinkManager" style="stroke: #A80036; stroke-width: 1.5;" width="221" x="1281" y="59"/><ellipse cx="1296" cy="75" fill="#B4A7E5" rx="11" ry="11" style="stroke: #A80036; stroke-width: 1.0;"/><path d="M1291.9219,70.7656 L1291.9219,68.6094 L1299.3125,68.6094 L1299.3125,70.7656 L1296.8438,70.7656 L1296.8438,78.8438 L1299.3125,78.8438 L1299.3125,81 L1291.9219,81 L1291.9219,78.8438 L1294.3906,78.8438 L1294.3906,70.7656 L1291.9219,70.7656 Z "/><text fill="#000000" font-family="sans-serif" font-size="12" font-style="italic" lengthAdjust="spacingAndGlyphs" textLength="189" x="1310" y="79.1543">MiddlewareCommLinkManager</text><line style="stroke: #A80036; stroke-width: 1.5;" x1="1282" x2="1501" y1="91" y2="91"/><line style="stroke: #A80036; stroke-width: 1.5;" x1="1282" x2="1501" y1="99" y2="99"/><ellipse cx="1292" cy="126.8047" fill="#84BE84" rx="3" ry="3" style="stroke: #038048; stroke-width: 1.0;"/><text fill="#000000" font-family="sans-serif" font-size="11" font-style="italic" lengthAdjust="spacingAndGlyphs" textLength="160" x="1301" y="130.0151">TrackData parseRfid(int rfid)</text><line style="stroke: #A80036; stroke-width: 1.0; stroke-dasharray: 1.0,2.0;" x1="1282" x2="1358.5" y1="113.4023" y2="113.4023"/><text fill="#000000" font-family="sans-serif" font-size="11" lengthAdjust="spacingAndGlyphs" textLength="66" x="1358.5" y="116.7104">Use Case 1</text><line style="stroke: #A80036; stroke-width: 1.0; stroke-dasharray: 1.0,2.0;" x1="1424.5" x2="1501" y1="113.4023" y2="113.4023"/><text fill="#000000" font-family="sans-serif" font-size="11" lengthAdjust="spacingAndGlyphs" textLength="0" x="1291" y="159.6245"/><line style="stroke: #A80036; stroke-width: 1.0; stroke-dasharray: 1.0,2.0;" x1="1282" x2="1358.5" y1="143.0117" y2="143.0117"/><text fill="#000000" font-family="sans-serif" font-size="11" lengthAdjust="spacingAndGlyphs" textLength="66" x="1358.5" y="146.3198">Use Case 2</text><line style="stroke: #A80036; stroke-width: 1.0; stroke-dasharray: 1.0,2.0;" x1="1424.5" x2="1501" y1="143.0117" y2="143.0117"/><!--MD5=[4915649770e9045e9ea9156a01fd67e8]
class MiddlewareCommDatabaseInterface--><rect fill="#FEFECE" filter="url(#f1usjvv8txsygd)" height="107.2188" id="MiddlewareCommDatabaseInterface" style="stroke: #A80036; stroke-width: 1.5;" width="258" x="1761.5" y="59"/><ellipse cx="1776.5" cy="75" fill="#B4A7E5" rx="11" ry="11" style="stroke: #A80036; stroke-width: 1.0;"/><path d="M1772.4219,70.7656 L1772.4219,68.6094 L1779.8125,68.6094 L1779.8125,70.7656 L1777.3438,70.7656 L1777.3438,78.8438 L1779.8125,78.8438 L1779.8125,81 L1772.4219,81 L1772.4219,78.8438 L1774.8906,78.8438 L1774.8906,70.7656 L1772.4219,70.7656 Z "/><text fill="#000000" font-family="sans-serif" font-size="12" font-style="italic" lengthAdjust="spacingAndGlyphs" textLength="226" x="1790.5" y="79.1543">MiddlewareCommDatabaseInterface</text><line style="stroke: #A80036; stroke-width: 1.5;" x1="1762.5" x2="2018.5" y1="91" y2="91"/><line style="stroke: #A80036; stroke-width: 1.5;" x1="1762.5" x2="2018.5" y1="99" y2="99"/><ellipse cx="1772.5" cy="126.8047" fill="#84BE84" rx="3" ry="3" style="stroke: #038048; stroke-width: 1.0;"/><text fill="#000000" font-family="sans-serif" font-size="11" font-style="italic" lengthAdjust="spacingAndGlyphs" textLength="123" x="1781.5" y="130.0151">int checkCurrentRfid()</text><line style="stroke: #A80036; stroke-width: 1.0; stroke-dasharray: 1.0,2.0;" x1="1762.5" x2="1857.5" y1="113.4023" y2="113.4023"/><text fill="#000000" font-family="sans-serif" font-size="11" lengthAdjust="spacingAndGlyphs" textLength="66" x="1857.5" y="116.7104">Use Case 1</text><line style="stroke: #A80036; stroke-width: 1.0; stroke-dasharray: 1.0,2.0;" x1="1923.5" x2="2018.5" y1="113.4023" y2="113.4023"/><text fill="#000000" font-family="sans-serif" font-size="11" lengthAdjust="spacingAndGlyphs" textLength="0" x="1771.5" y="159.6245"/><line style="stroke: #A80036; stroke-width: 1.0; stroke-dasharray: 1.0,2.0;" x1="1762.5" x2="1857.5" y1="143.0117" y2="143.0117"/><text fill="#000000" font-family="sans-serif" font-size="11" lengthAdjust="spacingAndGlyphs" textLength="66" x="1857.5" y="146.3198">Use Case 2</text><line style="stroke: #A80036; stroke-width: 1.0; stroke-dasharray: 1.0,2.0;" x1="1923.5" x2="2018.5" y1="143.0117" y2="143.0117"/><!--MD5=[0a03c366ade61429da89cc477d567a32]
class MiddlewareCommInterfaceImplementation--><rect fill="#FEFECE" filter="url(#f1usjvv8txsygd)" height="132.8281" id="MiddlewareCommInterfaceImplementation" style="stroke: #A80036; stroke-width: 1.5;" width="568" x="630.5" y="238.5"/><ellipse cx="779.75" cy="254.5" fill="#ADD1B2" rx="11" ry="11" style="stroke: #A80036; stroke-width: 1.0;"/><path d="M782.7188,260.1406 Q782.1406,260.4375 781.5,260.5781 Q780.8594,260.7344 780.1563,260.7344 Q777.6563,260.7344 776.3281,259.0938 Q775.0156,257.4375 775.0156,254.3125 Q775.0156,251.1875 776.3281,249.5313 Q777.6563,247.875 780.1563,247.875 Q780.8594,247.875 781.5,248.0313 Q782.1563,248.1875 782.7188,248.4844 L782.7188,251.2031 Q782.0938,250.625 781.5,250.3594 Q780.9063,250.0781 780.2813,250.0781 Q778.9375,250.0781 778.25,251.1563 Q777.5625,252.2188 777.5625,254.3125 Q777.5625,256.4063 778.25,257.4844 Q778.9375,258.5469 780.2813,258.5469 Q780.9063,258.5469 781.5,258.2813 Q782.0938,258 782.7188,257.4219 L782.7188,260.1406 Z "/><text fill="#000000" font-family="sans-serif" font-size="12" lengthAdjust="spacingAndGlyphs" textLength="261" x="800.25" y="258.6543">MiddlewareCommInterfaceImplementation</text><line style="stroke: #A80036; stroke-width: 1.5;" x1="631.5" x2="1197.5" y1="270.5" y2="270.5"/><rect fill="none" height="6" style="stroke: #C82930; stroke-width: 1.0;" width="6" x="638.5" y="278.5"/><text fill="#000000" font-family="sans-serif" font-size="11" lengthAdjust="spacingAndGlyphs" textLength="291" x="650.5" y="284.7104">MiddlewareCommLinkManager middlewareManager</text><line style="stroke: #A80036; stroke-width: 1.5;" x1="631.5" x2="1197.5" y1="291.3047" y2="291.3047"/><ellipse cx="641.5" cy="302.3047" fill="#84BE84" rx="3" ry="3" style="stroke: #038048; stroke-width: 1.0;"/><text fill="#000000" font-family="sans-serif" font-size="11" lengthAdjust="spacingAndGlyphs" textLength="542" x="650.5" y="305.5151">MiddlewareCommInterfaceImplementation (MiddlewareCommLinkManager middlewareManager)</text><ellipse cx="641.5" cy="331.9141" fill="#84BE84" rx="3" ry="3" style="stroke: #038048; stroke-width: 1.0;"/><text fill="#000000" font-family="sans-serif" font-size="11" lengthAdjust="spacingAndGlyphs" textLength="171" x="650.5" y="335.1245">TrackData requestRfid(int rfid)</text><line style="stroke: #A80036; stroke-width: 1.0; stroke-dasharray: 1.0,2.0;" x1="631.5" x2="881.5" y1="318.5117" y2="318.5117"/><text fill="#000000" font-family="sans-serif" font-size="11" lengthAdjust="spacingAndGlyphs" textLength="66" x="881.5" y="321.8198">Use Case 1</text><line style="stroke: #A80036; stroke-width: 1.0; stroke-dasharray: 1.0,2.0;" x1="947.5" x2="1197.5" y1="318.5117" y2="318.5117"/><text fill="#000000" font-family="sans-serif" font-size="11" lengthAdjust="spacingAndGlyphs" textLength="0" x="640.5" y="364.7339"/><line style="stroke: #A80036; stroke-width: 1.0; stroke-dasharray: 1.0,2.0;" x1="631.5" x2="881.5" y1="348.1211" y2="348.1211"/><text fill="#000000" font-family="sans-serif" font-size="11" lengthAdjust="spacingAndGlyphs" textLength="66" x="881.5" y="351.4292">Use Case 2</text><line style="stroke: #A80036; stroke-width: 1.0; stroke-dasharray: 1.0,2.0;" x1="947.5" x2="1197.5" y1="348.1211" y2="348.1211"/><!--MD5=[d9ed64ee38938b46697008700ce69fba]
class MiddlewareCommLinkManagerImplementation--><rect fill="#FEFECE" filter="url(#f1usjvv8txsygd)" height="158.4375" id="MiddlewareCommLinkManagerImplementation" style="stroke: #A80036; stroke-width: 1.5;" width="316" x="1233.5" y="226"/><ellipse cx="1248.5" cy="242" fill="#ADD1B2" rx="11" ry="11" style="stroke: #A80036; stroke-width: 1.0;"/><path d="M1251.4688,247.6406 Q1250.8906,247.9375 1250.25,248.0781 Q1249.6094,248.2344 1248.9063,248.2344 Q1246.4063,248.2344 1245.0781,246.5938 Q1243.7656,244.9375 1243.7656,241.8125 Q1243.7656,238.6875 1245.0781,237.0313 Q1246.4063,235.375 1248.9063,235.375 Q1249.6094,235.375 1250.25,235.5313 Q1250.9063,235.6875 1251.4688,235.9844 L1251.4688,238.7031 Q1250.8438,238.125 1250.25,237.8594 Q1249.6563,237.5781 1249.0313,237.5781 Q1247.6875,237.5781 1247,238.6563 Q1246.3125,239.7188 1246.3125,241.8125 Q1246.3125,243.9063 1247,244.9844 Q1247.6875,246.0469 1249.0313,246.0469 Q1249.6563,246.0469 1250.25,245.7813 Q1250.8438,245.5 1251.4688,244.9219 L1251.4688,247.6406 Z "/><text fill="#000000" font-family="sans-serif" font-size="12" lengthAdjust="spacingAndGlyphs" textLength="284" x="1262.5" y="246.1543">MiddlewareCommLinkManagerImplementation</text><line style="stroke: #A80036; stroke-width: 1.5;" x1="1234.5" x2="1548.5" y1="258" y2="258"/><line style="stroke: #A80036; stroke-width: 1.5;" x1="1234.5" x2="1548.5" y1="266" y2="266"/><ellipse cx="1244.5" cy="293.8047" fill="#84BE84" rx="3" ry="3" style="stroke: #038048; stroke-width: 1.0;"/><text fill="#000000" font-family="sans-serif" font-size="11" lengthAdjust="spacingAndGlyphs" textLength="160" x="1253.5" y="297.0151">TrackData parseRfid(int rfid)</text><text fill="#000000" font-family="sans-serif" font-size="11" lengthAdjust="spacingAndGlyphs" textLength="123" x="1253.5" y="309.8198">float calculateSpeed()</text><text fill="#000000" font-family="sans-serif" font-size="11" lengthAdjust="spacingAndGlyphs" textLength="137" x="1253.5" y="322.6245">float calculateDirection()</text><rect fill="#F24D5C" height="6" style="stroke: #C82930; stroke-width: 1.0;" width="6" x="1241.5" y="329.2188"/><text fill="#000000" font-family="sans-serif" font-size="11" lengthAdjust="spacingAndGlyphs" textLength="188" x="1253.5" y="335.4292">float calculateLocationDataPoint()</text><rect fill="#F24D5C" height="6" style="stroke: #C82930; stroke-width: 1.0;" width="6" x="1241.5" y="342.0234"/><text fill="#000000" font-family="sans-serif" font-size="11" lengthAdjust="spacingAndGlyphs" textLength="144" x="1253.5" y="348.2339">float calculateTrackData()</text><line style="stroke: #A80036; stroke-width: 1.0; stroke-dasharray: 1.0,2.0;" x1="1234.5" x2="1358.5" y1="280.4023" y2="280.4023"/><text fill="#000000" font-family="sans-serif" font-size="11" lengthAdjust="spacingAndGlyphs" textLength="66" x="1358.5" y="283.7104">Use Case 1</text><line style="stroke: #A80036; stroke-width: 1.0; stroke-dasharray: 1.0,2.0;" x1="1424.5" x2="1548.5" y1="280.4023" y2="280.4023"/><text fill="#000000" font-family="sans-serif" font-size="11" lengthAdjust="spacingAndGlyphs" textLength="0" x="1243.5" y="377.8433"/><line style="stroke: #A80036; stroke-width: 1.0; stroke-dasharray: 1.0,2.0;" x1="1234.5" x2="1358.5" y1="361.2305" y2="361.2305"/><text fill="#000000" font-family="sans-serif" font-size="11" lengthAdjust="spacingAndGlyphs" textLength="66" x="1358.5" y="364.5386">Use Case 2</text><line style="stroke: #A80036; stroke-width: 1.0; stroke-dasharray: 1.0,2.0;" x1="1424.5" x2="1548.5" y1="361.2305" y2="361.2305"/><!--MD5=[1c4f9654f103878faf4a10c0361188b9]
class MiddlewareCommDatabaseInterfaceImplementation--><rect fill="#FEFECE" filter="url(#f1usjvv8txsygd)" height="132.8281" id="MiddlewareCommDatabaseInterfaceImplementation" style="stroke: #A80036; stroke-width: 1.5;" width="612" x="1584.5" y="238.5"/><ellipse cx="1725.25" cy="254.5" fill="#ADD1B2" rx="11" ry="11" style="stroke: #A80036; stroke-width: 1.0;"/><path d="M1728.2188,260.1406 Q1727.6406,260.4375 1727,260.5781 Q1726.3594,260.7344 1725.6563,260.7344 Q1723.1563,260.7344 1721.8281,259.0938 Q1720.5156,257.4375 1720.5156,254.3125 Q1720.5156,251.1875 1721.8281,249.5313 Q1723.1563,247.875 1725.6563,247.875 Q1726.3594,247.875 1727,248.0313 Q1727.6563,248.1875 1728.2188,248.4844 L1728.2188,251.2031 Q1727.5938,250.625 1727,250.3594 Q1726.4063,250.0781 1725.7813,250.0781 Q1724.4375,250.0781 1723.75,251.1563 Q1723.0625,252.2188 1723.0625,254.3125 Q1723.0625,256.4063 1723.75,257.4844 Q1724.4375,258.5469 1725.7813,258.5469 Q1726.4063,258.5469 1727,258.2813 Q1727.5938,258 1728.2188,257.4219 L1728.2188,260.1406 Z "/><text fill="#000000" font-family="sans-serif" font-size="12" lengthAdjust="spacingAndGlyphs" textLength="322" x="1745.75" y="258.6543">MiddlewareCommDatabaseInterfaceImplementation</text><line style="stroke: #A80036; stroke-width: 1.5;" x1="1585.5" x2="2195.5" y1="270.5" y2="270.5"/><ellipse cx="1595.5" cy="281.5" fill="none" rx="3" ry="3" style="stroke: #038048; stroke-width: 1.0;"/><text fill="#000000" font-family="sans-serif" font-size="11" lengthAdjust="spacingAndGlyphs" textLength="285" x="1604.5" y="284.7104">DatabaseCommInterface databaseCommInterface</text><line style="stroke: #A80036; stroke-width: 1.5;" x1="1585.5" x2="2195.5" y1="291.3047" y2="291.3047"/><ellipse cx="1595.5" cy="302.3047" fill="#84BE84" rx="3" ry="3" style="stroke: #038048; stroke-width: 1.0;"/><text fill="#000000" font-family="sans-serif" font-size="11" lengthAdjust="spacingAndGlyphs" textLength="586" x="1604.5" y="305.5151">MiddlewareCommDatabaseInterfaceImplementation(DatabaseCommInterface databaseCommInterface)</text><ellipse cx="1595.5" cy="331.9141" fill="#84BE84" rx="3" ry="3" style="stroke: #038048; stroke-width: 1.0;"/><text fill="#000000" font-family="sans-serif" font-size="11" lengthAdjust="spacingAndGlyphs" textLength="122" x="1604.5" y="335.1245">int checkCurrentRfid()</text><line style="stroke: #A80036; stroke-width: 1.0; stroke-dasharray: 1.0,2.0;" x1="1585.5" x2="1857.5" y1="318.5117" y2="318.5117"/><text fill="#000000" font-family="sans-serif" font-size="11" lengthAdjust="spacingAndGlyphs" textLength="66" x="1857.5" y="321.8198">Use Case 1</text><line style="stroke: #A80036; stroke-width: 1.0; stroke-dasharray: 1.0,2.0;" x1="1923.5" x2="2195.5" y1="318.5117" y2="318.5117"/><text fill="#000000" font-family="sans-serif" font-size="11" lengthAdjust="spacingAndGlyphs" textLength="0" x="1594.5" y="364.7339"/><line style="stroke: #A80036; stroke-width: 1.0; stroke-dasharray: 1.0,2.0;" x1="1585.5" x2="1857.5" y1="348.1211" y2="348.1211"/><text fill="#000000" font-family="sans-serif" font-size="11" lengthAdjust="spacingAndGlyphs" textLength="66" x="1857.5" y="351.4292">Use Case 2</text><line style="stroke: #A80036; stroke-width: 1.0; stroke-dasharray: 1.0,2.0;" x1="1923.5" x2="2195.5" y1="348.1211" y2="348.1211"/><polygon fill="#FFFFFF" filter="url(#f1usjvv8txsygd)" points="6,86,261,86,268,108.2969,275,108.2969,275,138.5938,6,138.5938,6,86" style="stroke: #000000; stroke-width: 1.5;"/><line style="stroke: #000000; stroke-width: 1.5;" x1="6" x2="268" y1="108.2969" y2="108.2969"/><text fill="#000000" font-family="sans-serif" font-size="14" font-weight="bold" lengthAdjust="spacingAndGlyphs" textLength="249" x="10" y="100.9951">edu.oakland.test.middleware02</text><polygon fill="#FFFFFF" filter="url(#f1usjvv8txsygd)" points="310,86,585,86,592,108.2969,599,108.2969,599,138.5938,310,138.5938,310,86" style="stroke: #000000; stroke-width: 1.5;"/><line style="stroke: #000000; stroke-width: 1.5;" x1="310" x2="592" y1="108.2969" y2="108.2969"/><text fill="#000000" font-family="sans-serif" font-size="14" font-weight="bold" lengthAdjust="spacingAndGlyphs" textLength="269" x="314" y="100.9951">edu.oakland.helper.middleware02</text><!--MD5=[a6f6d6498f8ad0fd1149c5a16bc55d36]
reverse link MiddlewareCommInterface to MiddlewareCommInterfaceImplementation--><path d="M914.5,186.28 C914.5,203.4 914.5,221.56 914.5,238.35 " fill="none" id="MiddlewareCommInterface&lt;-MiddlewareCommInterfaceImplementation" style="stroke: #A80036; stroke-width: 1.0; stroke-dasharray: 7.0,7.0;"/><polygon fill="none" points="907.5,186.06,914.5,166.06,921.5,186.06,907.5,186.06" style="stroke: #A80036; stroke-width: 1.0;"/><!--MD5=[497c69cbff9542047faf5ca77780c8cb]
reverse link MiddlewareCommLinkManager to MiddlewareCommLinkManagerImplementation--><path d="M1391.5,186.41 C1391.5,199.34 1391.5,212.86 1391.5,225.92 " fill="none" id="MiddlewareCommLinkManager&lt;-MiddlewareCommLinkManagerImplementation" style="stroke: #A80036; stroke-width: 1.0; stroke-dasharray: 7.0,7.0;"/><polygon fill="none" points="1384.5,186.06,1391.5,166.06,1398.5,186.06,1384.5,186.06" style="stroke: #A80036; stroke-width: 1.0;"/><!--MD5=[8e69def7a54ed81078168d5d1d8487c9]
reverse link MiddlewareCommDatabaseInterface to MiddlewareCommDatabaseInterfaceImplementation--><path d="M1890.5,186.28 C1890.5,203.4 1890.5,221.56 1890.5,238.35 " fill="none" id="MiddlewareCommDatabaseInterface&lt;-MiddlewareCommDatabaseInterfaceImplementation" style="stroke: #A80036; stroke-width: 1.0; stroke-dasharray: 7.0,7.0;"/><polygon fill="none" points="1883.5,186.06,1890.5,166.06,1897.5,186.06,1883.5,186.06" style="stroke: #A80036; stroke-width: 1.0;"/><!--MD5=[9747aea70fee6d1c4e96c49ecb94f6d3]
@startuml Middleware02Packages_Closure


package edu.oakland.production.middleware02 {
    
}



package edu.oakland.production.middleware02 {
    interface MiddlewareCommInterface {
        __
        .. Use Case 1 ..
        {abstract} + TrackData requestRfid(int rfid)
        .. Use Case 2 ..

    }
}








package edu.oakland.production.middleware02 {
    interface MiddlewareCommLinkManager {
        __
        .. Use Case 1 ..
        {abstract} + TrackData parseRfid(int rfid)
        .. Use Case 2 ..

    }
}








package edu.oakland.production.middleware02 {
    interface MiddlewareCommDatabaseInterface {
        __
        .. Use Case 1 ..
        {abstract} + int checkCurrentRfid()
        .. Use Case 2 ..

    }
}








package edu.oakland.production.middleware02 {
    class MiddlewareCommInterfaceImplementation {
        - MiddlewareCommLinkManager middlewareManager
        __
        + MiddlewareCommInterfaceImplementation (MiddlewareCommLinkManager middlewareManager)
        .. Use Case 1 ..
        + TrackData requestRfid(int rfid)
        .. Use Case 2 ..

    }
}


MiddlewareCommInterfaceImplementation .up.|> MiddlewareCommInterface







package edu.oakland.production.middleware02 {
    class MiddlewareCommLinkManagerImplementation {
        __
        .. Use Case 1 ..
        + TrackData parseRfid(int rfid)
        float calculateSpeed()
        float calculateDirection()
        - float calculateLocationDataPoint()
        - float calculateTrackData()
        .. Use Case 2 ..

    }
}


MiddlewareCommLinkManagerImplementation .up.|> MiddlewareCommLinkManager







package edu.oakland.production.middleware02 {
    class MiddlewareCommDatabaseInterfaceImplementation {
        + DatabaseCommInterface databaseCommInterface
        __
        + MiddlewareCommDatabaseInterfaceImplementation(DatabaseCommInterface databaseCommInterface)
        .. Use Case 1 ..
        + int checkCurrentRfid()
        .. Use Case 2 ..

    }
}


MiddlewareCommDatabaseInterfaceImplementation .up.|> MiddlewareCommDatabaseInterface







package edu.oakland.test.middleware02 {
    
}


package edu.oakland.helper.middleware02 {
    
}


@enduml

PlantUML version 1.2020.02(Sun Mar 01 10:22:07 GMT 2020)
(GPL source distribution)
Java Runtime: OpenJDK Runtime Environment
JVM: OpenJDK 64-Bit Server VM
Java Version: 11.0.9+11-Ubuntu-0ubuntu1
Operating System: Linux
Default Encoding: ANSI_X3.4-1968
Language: en
Country: US
--></g></svg>