<?xml version="1.0" encoding="UTF-8" standalone="no"?><svg xmlns="http://www.w3.org/2000/svg" xmlns:xlink="http://www.w3.org/1999/xlink" contentScriptType="application/ecmascript" contentStyleType="text/css" height="548px" preserveAspectRatio="none" style="width:3062px;height:548px;" version="1.1" viewBox="0 0 3062 548" width="3062px" zoomAndPan="magnify"><defs><filter height="300%" id="fnx7003vyqgd4" width="300%" x="-1" y="-1"><feGaussianBlur result="blurOut" stdDeviation="2.0"/><feColorMatrix in="blurOut" result="blurOut2" type="matrix" values="0 0 0 0 0 0 0 0 0 0 0 0 0 0 0 0 0 0 .4 0"/><feOffset dx="4.0" dy="4.0" in="blurOut2" result="blurOut3"/><feBlend in="SourceGraphic" in2="blurOut3" mode="normal"/></filter></defs><g><!--MD5=[33504725b8a69ba2207f0a836957a91c]
cluster edu.oakland.production.middleware02--><polygon fill="#FFFFFF" filter="url(#fnx7003vyqgd4)" points="1442,24,1752,24,1759,46.2969,3040,46.2969,3040,375,1442,375,1442,24" style="stroke: #000000; stroke-width: 1.5;"/><line style="stroke: #000000; stroke-width: 1.5;" x1="1442" x2="1759" y1="46.2969" y2="46.2969"/><text fill="#000000" font-family="sans-serif" font-size="14" font-weight="bold" lengthAdjust="spacingAndGlyphs" textLength="304" x="1446" y="38.9951">edu.oakland.production.middleware02</text><!--MD5=[73d4e355f259fb8d2c716d693a5be920]
cluster edu.oakland.helper.middleware02--><polygon fill="#FFFFFF" filter="url(#fnx7003vyqgd4)" points="983,399,1258,399,1265,421.2969,1533,421.2969,1533,536,983,536,983,399" style="stroke: #000000; stroke-width: 1.5;"/><line style="stroke: #000000; stroke-width: 1.5;" x1="983" x2="1265" y1="421.2969" y2="421.2969"/><text fill="#000000" font-family="sans-serif" font-size="14" font-weight="bold" lengthAdjust="spacingAndGlyphs" textLength="269" x="987" y="413.9951">edu.oakland.helper.middleware02</text><!--MD5=[def9027c776d62015452659d5d6059fb]
cluster edu.oakland.test.middleware02--><polygon fill="#FFFFFF" filter="url(#fnx7003vyqgd4)" points="22,53.5,277,53.5,284,75.7969,1418,75.7969,1418,373,22,373,22,53.5" style="stroke: #000000; stroke-width: 1.5;"/><line style="stroke: #000000; stroke-width: 1.5;" x1="22" x2="284" y1="75.7969" y2="75.7969"/><text fill="#000000" font-family="sans-serif" font-size="14" font-weight="bold" lengthAdjust="spacingAndGlyphs" textLength="249" x="26" y="68.4951">edu.oakland.test.middleware02</text><!--MD5=[d3cb230b9040bd9072bb1f490e167601]
class MiddlewareCommInterface--><rect fill="#FEFECE" filter="url(#fnx7003vyqgd4)" height="107.2188" id="MiddlewareCommInterface" style="stroke: #A80036; stroke-width: 1.5;" width="198" x="2641" y="59"/><ellipse cx="2656" cy="75" fill="#B4A7E5" rx="11" ry="11" style="stroke: #A80036; stroke-width: 1.0;"/><path d="M2651.9219,70.7656 L2651.9219,68.6094 L2659.3125,68.6094 L2659.3125,70.7656 L2656.8438,70.7656 L2656.8438,78.8438 L2659.3125,78.8438 L2659.3125,81 L2651.9219,81 L2651.9219,78.8438 L2654.3906,78.8438 L2654.3906,70.7656 L2651.9219,70.7656 Z "/><text fill="#000000" font-family="sans-serif" font-size="12" font-style="italic" lengthAdjust="spacingAndGlyphs" textLength="166" x="2670" y="79.1543">MiddlewareCommInterface</text><line style="stroke: #A80036; stroke-width: 1.5;" x1="2642" x2="2838" y1="91" y2="91"/><line style="stroke: #A80036; stroke-width: 1.5;" x1="2642" x2="2838" y1="99" y2="99"/><ellipse cx="2652" cy="126.8047" fill="#84BE84" rx="3" ry="3" style="stroke: #038048; stroke-width: 1.0;"/><text fill="#000000" font-family="sans-serif" font-size="11" font-style="italic" lengthAdjust="spacingAndGlyphs" textLength="171" x="2661" y="130.0151">TrackData requestRfid(int rfid)</text><line style="stroke: #A80036; stroke-width: 1.0; stroke-dasharray: 1.0,2.0;" x1="2642" x2="2707" y1="113.4023" y2="113.4023"/><text fill="#000000" font-family="sans-serif" font-size="11" lengthAdjust="spacingAndGlyphs" textLength="66" x="2707" y="116.7104">Use Case 1</text><line style="stroke: #A80036; stroke-width: 1.0; stroke-dasharray: 1.0,2.0;" x1="2773" x2="2838" y1="113.4023" y2="113.4023"/><text fill="#000000" font-family="sans-serif" font-size="11" lengthAdjust="spacingAndGlyphs" textLength="0" x="2651" y="159.6245"/><line style="stroke: #A80036; stroke-width: 1.0; stroke-dasharray: 1.0,2.0;" x1="2642" x2="2707" y1="143.0117" y2="143.0117"/><text fill="#000000" font-family="sans-serif" font-size="11" lengthAdjust="spacingAndGlyphs" textLength="66" x="2707" y="146.3198">Use Case 2</text><line style="stroke: #A80036; stroke-width: 1.0; stroke-dasharray: 1.0,2.0;" x1="2773" x2="2838" y1="143.0117" y2="143.0117"/><!--MD5=[d01e667c21cf622da77e8a7601ca5c91]
class MiddlewareCommLinkManager--><rect fill="#FEFECE" filter="url(#fnx7003vyqgd4)" height="107.2188" id="MiddlewareCommLinkManager" style="stroke: #A80036; stroke-width: 1.5;" width="221" x="1996.5" y="59"/><ellipse cx="2011.5" cy="75" fill="#B4A7E5" rx="11" ry="11" style="stroke: #A80036; stroke-width: 1.0;"/><path d="M2007.4219,70.7656 L2007.4219,68.6094 L2014.8125,68.6094 L2014.8125,70.7656 L2012.3438,70.7656 L2012.3438,78.8438 L2014.8125,78.8438 L2014.8125,81 L2007.4219,81 L2007.4219,78.8438 L2009.8906,78.8438 L2009.8906,70.7656 L2007.4219,70.7656 Z "/><text fill="#000000" font-family="sans-serif" font-size="12" font-style="italic" lengthAdjust="spacingAndGlyphs" textLength="189" x="2025.5" y="79.1543">MiddlewareCommLinkManager</text><line style="stroke: #A80036; stroke-width: 1.5;" x1="1997.5" x2="2216.5" y1="91" y2="91"/><line style="stroke: #A80036; stroke-width: 1.5;" x1="1997.5" x2="2216.5" y1="99" y2="99"/><ellipse cx="2007.5" cy="126.8047" fill="#84BE84" rx="3" ry="3" style="stroke: #038048; stroke-width: 1.0;"/><text fill="#000000" font-family="sans-serif" font-size="11" font-style="italic" lengthAdjust="spacingAndGlyphs" textLength="160" x="2016.5" y="130.0151">TrackData parseRfid(int rfid)</text><line style="stroke: #A80036; stroke-width: 1.0; stroke-dasharray: 1.0,2.0;" x1="1997.5" x2="2074" y1="113.4023" y2="113.4023"/><text fill="#000000" font-family="sans-serif" font-size="11" lengthAdjust="spacingAndGlyphs" textLength="66" x="2074" y="116.7104">Use Case 1</text><line style="stroke: #A80036; stroke-width: 1.0; stroke-dasharray: 1.0,2.0;" x1="2140" x2="2216.5" y1="113.4023" y2="113.4023"/><text fill="#000000" font-family="sans-serif" font-size="11" lengthAdjust="spacingAndGlyphs" textLength="0" x="2006.5" y="159.6245"/><line style="stroke: #A80036; stroke-width: 1.0; stroke-dasharray: 1.0,2.0;" x1="1997.5" x2="2074" y1="143.0117" y2="143.0117"/><text fill="#000000" font-family="sans-serif" font-size="11" lengthAdjust="spacingAndGlyphs" textLength="66" x="2074" y="146.3198">Use Case 2</text><line style="stroke: #A80036; stroke-width: 1.0; stroke-dasharray: 1.0,2.0;" x1="2140" x2="2216.5" y1="143.0117" y2="143.0117"/><!--MD5=[4915649770e9045e9ea9156a01fd67e8]
class MiddlewareCommDatabaseInterface--><rect fill="#FEFECE" filter="url(#fnx7003vyqgd4)" height="107.2188" id="MiddlewareCommDatabaseInterface" style="stroke: #A80036; stroke-width: 1.5;" width="258" x="1547" y="59"/><ellipse cx="1562" cy="75" fill="#B4A7E5" rx="11" ry="11" style="stroke: #A80036; stroke-width: 1.0;"/><path d="M1557.9219,70.7656 L1557.9219,68.6094 L1565.3125,68.6094 L1565.3125,70.7656 L1562.8438,70.7656 L1562.8438,78.8438 L1565.3125,78.8438 L1565.3125,81 L1557.9219,81 L1557.9219,78.8438 L1560.3906,78.8438 L1560.3906,70.7656 L1557.9219,70.7656 Z "/><text fill="#000000" font-family="sans-serif" font-size="12" font-style="italic" lengthAdjust="spacingAndGlyphs" textLength="226" x="1576" y="79.1543">MiddlewareCommDatabaseInterface</text><line style="stroke: #A80036; stroke-width: 1.5;" x1="1548" x2="1804" y1="91" y2="91"/><line style="stroke: #A80036; stroke-width: 1.5;" x1="1548" x2="1804" y1="99" y2="99"/><ellipse cx="1558" cy="126.8047" fill="#84BE84" rx="3" ry="3" style="stroke: #038048; stroke-width: 1.0;"/><text fill="#000000" font-family="sans-serif" font-size="11" font-style="italic" lengthAdjust="spacingAndGlyphs" textLength="123" x="1567" y="130.0151">int checkCurrentRfid()</text><line style="stroke: #A80036; stroke-width: 1.0; stroke-dasharray: 1.0,2.0;" x1="1548" x2="1643" y1="113.4023" y2="113.4023"/><text fill="#000000" font-family="sans-serif" font-size="11" lengthAdjust="spacingAndGlyphs" textLength="66" x="1643" y="116.7104">Use Case 1</text><line style="stroke: #A80036; stroke-width: 1.0; stroke-dasharray: 1.0,2.0;" x1="1709" x2="1804" y1="113.4023" y2="113.4023"/><text fill="#000000" font-family="sans-serif" font-size="11" lengthAdjust="spacingAndGlyphs" textLength="0" x="1557" y="159.6245"/><line style="stroke: #A80036; stroke-width: 1.0; stroke-dasharray: 1.0,2.0;" x1="1548" x2="1643" y1="143.0117" y2="143.0117"/><text fill="#000000" font-family="sans-serif" font-size="11" lengthAdjust="spacingAndGlyphs" textLength="66" x="1643" y="146.3198">Use Case 2</text><line style="stroke: #A80036; stroke-width: 1.0; stroke-dasharray: 1.0,2.0;" x1="1709" x2="1804" y1="143.0117" y2="143.0117"/><!--MD5=[0a03c366ade61429da89cc477d567a32]
class MiddlewareCommInterfaceImplementation--><rect fill="#FEFECE" filter="url(#fnx7003vyqgd4)" height="132.8281" id="MiddlewareCommInterfaceImplementation" style="stroke: #A80036; stroke-width: 1.5;" width="568" x="2456" y="226"/><ellipse cx="2605.25" cy="242" fill="#ADD1B2" rx="11" ry="11" style="stroke: #A80036; stroke-width: 1.0;"/><path d="M2608.2188,247.6406 Q2607.6406,247.9375 2607,248.0781 Q2606.3594,248.2344 2605.6563,248.2344 Q2603.1563,248.2344 2601.8281,246.5938 Q2600.5156,244.9375 2600.5156,241.8125 Q2600.5156,238.6875 2601.8281,237.0313 Q2603.1563,235.375 2605.6563,235.375 Q2606.3594,235.375 2607,235.5313 Q2607.6563,235.6875 2608.2188,235.9844 L2608.2188,238.7031 Q2607.5938,238.125 2607,237.8594 Q2606.4063,237.5781 2605.7813,237.5781 Q2604.4375,237.5781 2603.75,238.6563 Q2603.0625,239.7188 2603.0625,241.8125 Q2603.0625,243.9063 2603.75,244.9844 Q2604.4375,246.0469 2605.7813,246.0469 Q2606.4063,246.0469 2607,245.7813 Q2607.5938,245.5 2608.2188,244.9219 L2608.2188,247.6406 Z "/><text fill="#000000" font-family="sans-serif" font-size="12" lengthAdjust="spacingAndGlyphs" textLength="261" x="2625.75" y="246.1543">MiddlewareCommInterfaceImplementation</text><line style="stroke: #A80036; stroke-width: 1.5;" x1="2457" x2="3023" y1="258" y2="258"/><rect fill="none" height="6" style="stroke: #C82930; stroke-width: 1.0;" width="6" x="2464" y="266"/><text fill="#000000" font-family="sans-serif" font-size="11" lengthAdjust="spacingAndGlyphs" textLength="291" x="2476" y="272.2104">MiddlewareCommLinkManager middlewareManager</text><line style="stroke: #A80036; stroke-width: 1.5;" x1="2457" x2="3023" y1="278.8047" y2="278.8047"/><ellipse cx="2467" cy="289.8047" fill="#84BE84" rx="3" ry="3" style="stroke: #038048; stroke-width: 1.0;"/><text fill="#000000" font-family="sans-serif" font-size="11" lengthAdjust="spacingAndGlyphs" textLength="542" x="2476" y="293.0151">MiddlewareCommInterfaceImplementation (MiddlewareCommLinkManager middlewareManager)</text><ellipse cx="2467" cy="319.4141" fill="#84BE84" rx="3" ry="3" style="stroke: #038048; stroke-width: 1.0;"/><text fill="#000000" font-family="sans-serif" font-size="11" lengthAdjust="spacingAndGlyphs" textLength="171" x="2476" y="322.6245">TrackData requestRfid(int rfid)</text><line style="stroke: #A80036; stroke-width: 1.0; stroke-dasharray: 1.0,2.0;" x1="2457" x2="2707" y1="306.0117" y2="306.0117"/><text fill="#000000" font-family="sans-serif" font-size="11" lengthAdjust="spacingAndGlyphs" textLength="66" x="2707" y="309.3198">Use Case 1</text><line style="stroke: #A80036; stroke-width: 1.0; stroke-dasharray: 1.0,2.0;" x1="2773" x2="3023" y1="306.0117" y2="306.0117"/><text fill="#000000" font-family="sans-serif" font-size="11" lengthAdjust="spacingAndGlyphs" textLength="0" x="2466" y="352.2339"/><line style="stroke: #A80036; stroke-width: 1.0; stroke-dasharray: 1.0,2.0;" x1="2457" x2="2707" y1="335.6211" y2="335.6211"/><text fill="#000000" font-family="sans-serif" font-size="11" lengthAdjust="spacingAndGlyphs" textLength="66" x="2707" y="338.9292">Use Case 2</text><line style="stroke: #A80036; stroke-width: 1.0; stroke-dasharray: 1.0,2.0;" x1="2773" x2="3023" y1="335.6211" y2="335.6211"/><!--MD5=[d9ed64ee38938b46697008700ce69fba]
class MiddlewareCommLinkManagerImplementation--><rect fill="#FEFECE" filter="url(#fnx7003vyqgd4)" height="132.8281" id="MiddlewareCommLinkManagerImplementation" style="stroke: #A80036; stroke-width: 1.5;" width="316" x="2105" y="226"/><ellipse cx="2120" cy="242" fill="#ADD1B2" rx="11" ry="11" style="stroke: #A80036; stroke-width: 1.0;"/><path d="M2122.9688,247.6406 Q2122.3906,247.9375 2121.75,248.0781 Q2121.1094,248.2344 2120.4063,248.2344 Q2117.9063,248.2344 2116.5781,246.5938 Q2115.2656,244.9375 2115.2656,241.8125 Q2115.2656,238.6875 2116.5781,237.0313 Q2117.9063,235.375 2120.4063,235.375 Q2121.1094,235.375 2121.75,235.5313 Q2122.4063,235.6875 2122.9688,235.9844 L2122.9688,238.7031 Q2122.3438,238.125 2121.75,237.8594 Q2121.1563,237.5781 2120.5313,237.5781 Q2119.1875,237.5781 2118.5,238.6563 Q2117.8125,239.7188 2117.8125,241.8125 Q2117.8125,243.9063 2118.5,244.9844 Q2119.1875,246.0469 2120.5313,246.0469 Q2121.1563,246.0469 2121.75,245.7813 Q2122.3438,245.5 2122.9688,244.9219 L2122.9688,247.6406 Z "/><text fill="#000000" font-family="sans-serif" font-size="12" lengthAdjust="spacingAndGlyphs" textLength="284" x="2134" y="246.1543">MiddlewareCommLinkManagerImplementation</text><line style="stroke: #A80036; stroke-width: 1.5;" x1="2106" x2="2420" y1="258" y2="258"/><line style="stroke: #A80036; stroke-width: 1.5;" x1="2106" x2="2420" y1="266" y2="266"/><ellipse cx="2116" cy="293.8047" fill="#84BE84" rx="3" ry="3" style="stroke: #038048; stroke-width: 1.0;"/><text fill="#000000" font-family="sans-serif" font-size="11" lengthAdjust="spacingAndGlyphs" textLength="160" x="2125" y="297.0151">TrackData parseRfid(int rfid)</text><rect fill="#F24D5C" height="6" style="stroke: #C82930; stroke-width: 1.0;" width="6" x="2113" y="303.6094"/><text fill="#000000" font-family="sans-serif" font-size="11" lengthAdjust="spacingAndGlyphs" textLength="188" x="2125" y="309.8198">float calculateLocationDataPoint()</text><rect fill="#F24D5C" height="6" style="stroke: #C82930; stroke-width: 1.0;" width="6" x="2113" y="316.4141"/><text fill="#000000" font-family="sans-serif" font-size="11" lengthAdjust="spacingAndGlyphs" textLength="144" x="2125" y="322.6245">float calculateTrackData()</text><line style="stroke: #A80036; stroke-width: 1.0; stroke-dasharray: 1.0,2.0;" x1="2106" x2="2230" y1="280.4023" y2="280.4023"/><text fill="#000000" font-family="sans-serif" font-size="11" lengthAdjust="spacingAndGlyphs" textLength="66" x="2230" y="283.7104">Use Case 1</text><line style="stroke: #A80036; stroke-width: 1.0; stroke-dasharray: 1.0,2.0;" x1="2296" x2="2420" y1="280.4023" y2="280.4023"/><text fill="#000000" font-family="sans-serif" font-size="11" lengthAdjust="spacingAndGlyphs" textLength="0" x="2115" y="352.2339"/><line style="stroke: #A80036; stroke-width: 1.0; stroke-dasharray: 1.0,2.0;" x1="2106" x2="2230" y1="335.6211" y2="335.6211"/><text fill="#000000" font-family="sans-serif" font-size="11" lengthAdjust="spacingAndGlyphs" textLength="66" x="2230" y="338.9292">Use Case 2</text><line style="stroke: #A80036; stroke-width: 1.0; stroke-dasharray: 1.0,2.0;" x1="2296" x2="2420" y1="335.6211" y2="335.6211"/><!--MD5=[1c4f9654f103878faf4a10c0361188b9]
class MiddlewareCommDatabaseInterfaceImplementation--><rect fill="#FEFECE" filter="url(#fnx7003vyqgd4)" height="132.8281" id="MiddlewareCommDatabaseInterfaceImplementation" style="stroke: #A80036; stroke-width: 1.5;" width="612" x="1458" y="226"/><ellipse cx="1598.75" cy="242" fill="#ADD1B2" rx="11" ry="11" style="stroke: #A80036; stroke-width: 1.0;"/><path d="M1601.7188,247.6406 Q1601.1406,247.9375 1600.5,248.0781 Q1599.8594,248.2344 1599.1563,248.2344 Q1596.6563,248.2344 1595.3281,246.5938 Q1594.0156,244.9375 1594.0156,241.8125 Q1594.0156,238.6875 1595.3281,237.0313 Q1596.6563,235.375 1599.1563,235.375 Q1599.8594,235.375 1600.5,235.5313 Q1601.1563,235.6875 1601.7188,235.9844 L1601.7188,238.7031 Q1601.0938,238.125 1600.5,237.8594 Q1599.9063,237.5781 1599.2813,237.5781 Q1597.9375,237.5781 1597.25,238.6563 Q1596.5625,239.7188 1596.5625,241.8125 Q1596.5625,243.9063 1597.25,244.9844 Q1597.9375,246.0469 1599.2813,246.0469 Q1599.9063,246.0469 1600.5,245.7813 Q1601.0938,245.5 1601.7188,244.9219 L1601.7188,247.6406 Z "/><text fill="#000000" font-family="sans-serif" font-size="12" lengthAdjust="spacingAndGlyphs" textLength="322" x="1619.25" y="246.1543">MiddlewareCommDatabaseInterfaceImplementation</text><line style="stroke: #A80036; stroke-width: 1.5;" x1="1459" x2="2069" y1="258" y2="258"/><ellipse cx="1469" cy="269" fill="none" rx="3" ry="3" style="stroke: #038048; stroke-width: 1.0;"/><text fill="#000000" font-family="sans-serif" font-size="11" lengthAdjust="spacingAndGlyphs" textLength="285" x="1478" y="272.2104">DatabaseCommInterface databaseCommInterface</text><line style="stroke: #A80036; stroke-width: 1.5;" x1="1459" x2="2069" y1="278.8047" y2="278.8047"/><ellipse cx="1469" cy="289.8047" fill="#84BE84" rx="3" ry="3" style="stroke: #038048; stroke-width: 1.0;"/><text fill="#000000" font-family="sans-serif" font-size="11" lengthAdjust="spacingAndGlyphs" textLength="586" x="1478" y="293.0151">MiddlewareCommDatabaseInterfaceImplementation(DatabaseCommInterface databaseCommInterface)</text><ellipse cx="1469" cy="319.4141" fill="#84BE84" rx="3" ry="3" style="stroke: #038048; stroke-width: 1.0;"/><text fill="#000000" font-family="sans-serif" font-size="11" lengthAdjust="spacingAndGlyphs" textLength="122" x="1478" y="322.6245">int checkCurrentRfid()</text><line style="stroke: #A80036; stroke-width: 1.0; stroke-dasharray: 1.0,2.0;" x1="1459" x2="1731" y1="306.0117" y2="306.0117"/><text fill="#000000" font-family="sans-serif" font-size="11" lengthAdjust="spacingAndGlyphs" textLength="66" x="1731" y="309.3198">Use Case 1</text><line style="stroke: #A80036; stroke-width: 1.0; stroke-dasharray: 1.0,2.0;" x1="1797" x2="2069" y1="306.0117" y2="306.0117"/><text fill="#000000" font-family="sans-serif" font-size="11" lengthAdjust="spacingAndGlyphs" textLength="0" x="1468" y="352.2339"/><line style="stroke: #A80036; stroke-width: 1.0; stroke-dasharray: 1.0,2.0;" x1="1459" x2="1731" y1="335.6211" y2="335.6211"/><text fill="#000000" font-family="sans-serif" font-size="11" lengthAdjust="spacingAndGlyphs" textLength="66" x="1731" y="338.9292">Use Case 2</text><line style="stroke: #A80036; stroke-width: 1.0; stroke-dasharray: 1.0,2.0;" x1="1797" x2="2069" y1="335.6211" y2="335.6211"/><!--MD5=[8d86b1aa2030a05d452f78e2e1fb37ed]
class TrackDataCalculator--><rect fill="#FEFECE" filter="url(#fnx7003vyqgd4)" height="86.4141" id="TrackDataCalculator" style="stroke: #A80036; stroke-width: 1.5;" width="518" x="999" y="434"/><ellipse cx="1190.25" cy="450" fill="#ADD1B2" rx="11" ry="11" style="stroke: #A80036; stroke-width: 1.0;"/><path d="M1193.2188,455.6406 Q1192.6406,455.9375 1192,456.0781 Q1191.3594,456.2344 1190.6563,456.2344 Q1188.1563,456.2344 1186.8281,454.5938 Q1185.5156,452.9375 1185.5156,449.8125 Q1185.5156,446.6875 1186.8281,445.0313 Q1188.1563,443.375 1190.6563,443.375 Q1191.3594,443.375 1192,443.5313 Q1192.6563,443.6875 1193.2188,443.9844 L1193.2188,446.7031 Q1192.5938,446.125 1192,445.8594 Q1191.4063,445.5781 1190.7813,445.5781 Q1189.4375,445.5781 1188.75,446.6563 Q1188.0625,447.7188 1188.0625,449.8125 Q1188.0625,451.9063 1188.75,452.9844 Q1189.4375,454.0469 1190.7813,454.0469 Q1191.4063,454.0469 1192,453.7813 Q1192.5938,453.5 1193.2188,452.9219 L1193.2188,455.6406 Z "/><text fill="#000000" font-family="sans-serif" font-size="12" lengthAdjust="spacingAndGlyphs" textLength="127" x="1210.75" y="454.1543">TrackDataCalculator</text><line style="stroke: #A80036; stroke-width: 1.5;" x1="1000" x2="1516" y1="466" y2="466"/><line style="stroke: #A80036; stroke-width: 1.5;" x1="1000" x2="1516" y1="474" y2="474"/><ellipse cx="1010" cy="485" fill="#84BE84" rx="3" ry="3" style="stroke: #038048; stroke-width: 1.0;"/><text fill="#000000" font-family="sans-serif" font-size="11" lengthAdjust="spacingAndGlyphs" text-decoration="underline" textLength="341" x="1019" y="488.2104">float calculateSpeed(LocationDataPoint[] locationDataPoints)</text><ellipse cx="1010" cy="497.8047" fill="#84BE84" rx="3" ry="3" style="stroke: #038048; stroke-width: 1.0;"/><text fill="#000000" font-family="sans-serif" font-size="11" lengthAdjust="spacingAndGlyphs" text-decoration="underline" textLength="355" x="1019" y="501.0151">float calculateDirection(LocationDataPoint[] locationDataPoints)</text><rect fill="#F24D5C" height="6" style="stroke: #C82930; stroke-width: 1.0;" width="6" x="1007" y="507.6094"/><text fill="#000000" font-family="sans-serif" font-size="11" lengthAdjust="spacingAndGlyphs" text-decoration="underline" textLength="492" x="1019" y="513.8198">LocationDataPoint[] calculateRootMeanSquared(LocationDataPoint[] locationDataPoints)</text><!--MD5=[00b94da1af6b7f5503baa4bfd88b42e0]
class MiddlewareCommInterfaceImplementationTests--><rect fill="#FEFECE" filter="url(#fnx7003vyqgd4)" height="48" id="MiddlewareCommInterfaceImplementationTests" style="stroke: #A80036; stroke-width: 1.5;" width="327" x="1075.5" y="88.5"/><ellipse cx="1090.5" cy="104.5" fill="#ADD1B2" rx="11" ry="11" style="stroke: #A80036; stroke-width: 1.0;"/><path d="M1093.4688,110.1406 Q1092.8906,110.4375 1092.25,110.5781 Q1091.6094,110.7344 1090.9063,110.7344 Q1088.4063,110.7344 1087.0781,109.0938 Q1085.7656,107.4375 1085.7656,104.3125 Q1085.7656,101.1875 1087.0781,99.5313 Q1088.4063,97.875 1090.9063,97.875 Q1091.6094,97.875 1092.25,98.0313 Q1092.9063,98.1875 1093.4688,98.4844 L1093.4688,101.2031 Q1092.8438,100.625 1092.25,100.3594 Q1091.6563,100.0781 1091.0313,100.0781 Q1089.6875,100.0781 1089,101.1563 Q1088.3125,102.2188 1088.3125,104.3125 Q1088.3125,106.4063 1089,107.4844 Q1089.6875,108.5469 1091.0313,108.5469 Q1091.6563,108.5469 1092.25,108.2813 Q1092.8438,108 1093.4688,107.4219 L1093.4688,110.1406 Z "/><text fill="#000000" font-family="sans-serif" font-size="12" lengthAdjust="spacingAndGlyphs" textLength="295" x="1104.5" y="108.6543">MiddlewareCommInterfaceImplementationTests</text><line style="stroke: #A80036; stroke-width: 1.5;" x1="1076.5" x2="1401.5" y1="120.5" y2="120.5"/><line style="stroke: #A80036; stroke-width: 1.5;" x1="1076.5" x2="1401.5" y1="128.5" y2="128.5"/><!--MD5=[3bea4f8dbcd5725ad50d10553f2379e2]
class MiddlewareCommLinkManagerStub--><rect fill="#FEFECE" filter="url(#fnx7003vyqgd4)" height="103.2188" id="MiddlewareCommLinkManagerStub" style="stroke: #A80036; stroke-width: 1.5;" width="248" x="1134" y="241"/><ellipse cx="1149" cy="257" fill="#ADD1B2" rx="11" ry="11" style="stroke: #A80036; stroke-width: 1.0;"/><path d="M1151.9688,262.6406 Q1151.3906,262.9375 1150.75,263.0781 Q1150.1094,263.2344 1149.4063,263.2344 Q1146.9063,263.2344 1145.5781,261.5938 Q1144.2656,259.9375 1144.2656,256.8125 Q1144.2656,253.6875 1145.5781,252.0313 Q1146.9063,250.375 1149.4063,250.375 Q1150.1094,250.375 1150.75,250.5313 Q1151.4063,250.6875 1151.9688,250.9844 L1151.9688,253.7031 Q1151.3438,253.125 1150.75,252.8594 Q1150.1563,252.5781 1149.5313,252.5781 Q1148.1875,252.5781 1147.5,253.6563 Q1146.8125,254.7188 1146.8125,256.8125 Q1146.8125,258.9063 1147.5,259.9844 Q1148.1875,261.0469 1149.5313,261.0469 Q1150.1563,261.0469 1150.75,260.7813 Q1151.3438,260.5 1151.9688,259.9219 L1151.9688,262.6406 Z "/><text fill="#000000" font-family="sans-serif" font-size="12" lengthAdjust="spacingAndGlyphs" textLength="216" x="1163" y="261.1543">MiddlewareCommLinkManagerStub</text><line style="stroke: #A80036; stroke-width: 1.5;" x1="1135" x2="1381" y1="273" y2="273"/><line style="stroke: #A80036; stroke-width: 1.5;" x1="1135" x2="1381" y1="281" y2="281"/><ellipse cx="1145" cy="308.8047" fill="#84BE84" rx="3" ry="3" style="stroke: #038048; stroke-width: 1.0;"/><text fill="#000000" font-family="sans-serif" font-size="11" lengthAdjust="spacingAndGlyphs" textLength="160" x="1154" y="312.0151">TrackData parseRfid(int rfid)</text><rect fill="#F24D5C" height="6" style="stroke: #C82930; stroke-width: 1.0;" width="6" x="1142" y="318.6094"/><text fill="#000000" font-family="sans-serif" font-size="11" lengthAdjust="spacingAndGlyphs" textLength="188" x="1154" y="324.8198">float calculateLocationDataPoint()</text><rect fill="#F24D5C" height="6" style="stroke: #C82930; stroke-width: 1.0;" width="6" x="1142" y="331.4141"/><text fill="#000000" font-family="sans-serif" font-size="11" lengthAdjust="spacingAndGlyphs" textLength="144" x="1154" y="337.6245">float calculateTrackData()</text><line style="stroke: #A80036; stroke-width: 1.0; stroke-dasharray: 1.0,2.0;" x1="1135" x2="1225" y1="295.4023" y2="295.4023"/><text fill="#000000" font-family="sans-serif" font-size="11" lengthAdjust="spacingAndGlyphs" textLength="66" x="1225" y="298.7104">Use Case 1</text><line style="stroke: #A80036; stroke-width: 1.0; stroke-dasharray: 1.0,2.0;" x1="1291" x2="1381" y1="295.4023" y2="295.4023"/><!--MD5=[de2e25996fbf99af10f04f2aae2d0ec2]
class MiddlewareCommLinkManagerImplementationTests--><rect fill="#FEFECE" filter="url(#fnx7003vyqgd4)" height="48" id="MiddlewareCommLinkManagerImplementationTests" style="stroke: #A80036; stroke-width: 1.5;" width="350" x="690" y="88.5"/><ellipse cx="705" cy="104.5" fill="#ADD1B2" rx="11" ry="11" style="stroke: #A80036; stroke-width: 1.0;"/><path d="M707.9688,110.1406 Q707.3906,110.4375 706.75,110.5781 Q706.1094,110.7344 705.4063,110.7344 Q702.9063,110.7344 701.5781,109.0938 Q700.2656,107.4375 700.2656,104.3125 Q700.2656,101.1875 701.5781,99.5313 Q702.9063,97.875 705.4063,97.875 Q706.1094,97.875 706.75,98.0313 Q707.4063,98.1875 707.9688,98.4844 L707.9688,101.2031 Q707.3438,100.625 706.75,100.3594 Q706.1563,100.0781 705.5313,100.0781 Q704.1875,100.0781 703.5,101.1563 Q702.8125,102.2188 702.8125,104.3125 Q702.8125,106.4063 703.5,107.4844 Q704.1875,108.5469 705.5313,108.5469 Q706.1563,108.5469 706.75,108.2813 Q707.3438,108 707.9688,107.4219 L707.9688,110.1406 Z "/><text fill="#000000" font-family="sans-serif" font-size="12" lengthAdjust="spacingAndGlyphs" textLength="318" x="719" y="108.6543">MiddlewareCommLinkManagerImplementationTests</text><line style="stroke: #A80036; stroke-width: 1.5;" x1="691" x2="1039" y1="120.5" y2="120.5"/><line style="stroke: #A80036; stroke-width: 1.5;" x1="691" x2="1039" y1="128.5" y2="128.5"/><!--MD5=[d266ff1a021c6b2abe780212ea4bc90b]
class MiddlewareCommDatabaseInterfaceStub--><rect fill="#FEFECE" filter="url(#fnx7003vyqgd4)" height="77.6094" id="MiddlewareCommDatabaseInterfaceStub" style="stroke: #A80036; stroke-width: 1.5;" width="286" x="767" y="253.5"/><ellipse cx="782" cy="269.5" fill="#ADD1B2" rx="11" ry="11" style="stroke: #A80036; stroke-width: 1.0;"/><path d="M784.9688,275.1406 Q784.3906,275.4375 783.75,275.5781 Q783.1094,275.7344 782.4063,275.7344 Q779.9063,275.7344 778.5781,274.0938 Q777.2656,272.4375 777.2656,269.3125 Q777.2656,266.1875 778.5781,264.5313 Q779.9063,262.875 782.4063,262.875 Q783.1094,262.875 783.75,263.0313 Q784.4063,263.1875 784.9688,263.4844 L784.9688,266.2031 Q784.3438,265.625 783.75,265.3594 Q783.1563,265.0781 782.5313,265.0781 Q781.1875,265.0781 780.5,266.1563 Q779.8125,267.2188 779.8125,269.3125 Q779.8125,271.4063 780.5,272.4844 Q781.1875,273.5469 782.5313,273.5469 Q783.1563,273.5469 783.75,273.2813 Q784.3438,273 784.9688,272.4219 L784.9688,275.1406 Z "/><text fill="#000000" font-family="sans-serif" font-size="12" lengthAdjust="spacingAndGlyphs" textLength="254" x="796" y="273.6543">MiddlewareCommDatabaseInterfaceStub</text><line style="stroke: #A80036; stroke-width: 1.5;" x1="768" x2="1052" y1="285.5" y2="285.5"/><line style="stroke: #A80036; stroke-width: 1.5;" x1="768" x2="1052" y1="293.5" y2="293.5"/><ellipse cx="778" cy="321.3047" fill="#84BE84" rx="3" ry="3" style="stroke: #038048; stroke-width: 1.0;"/><text fill="#000000" font-family="sans-serif" font-size="11" lengthAdjust="spacingAndGlyphs" textLength="122" x="787" y="324.5151">int checkCurrentRfid()</text><line style="stroke: #A80036; stroke-width: 1.0; stroke-dasharray: 1.0,2.0;" x1="768" x2="877" y1="307.9023" y2="307.9023"/><text fill="#000000" font-family="sans-serif" font-size="11" lengthAdjust="spacingAndGlyphs" textLength="66" x="877" y="311.2104">Use Case 1</text><line style="stroke: #A80036; stroke-width: 1.0; stroke-dasharray: 1.0,2.0;" x1="943" x2="1052" y1="307.9023" y2="307.9023"/><!--MD5=[002ff5c7151dea29dff01f25b38dca5f]
class MiddlewareCommDatabaseInterfaceImplementationTests--><rect fill="#FEFECE" filter="url(#fnx7003vyqgd4)" height="48" id="MiddlewareCommDatabaseInterfaceImplementationTests" style="stroke: #A80036; stroke-width: 1.5;" width="388" x="267" y="88.5"/><ellipse cx="282" cy="104.5" fill="#ADD1B2" rx="11" ry="11" style="stroke: #A80036; stroke-width: 1.0;"/><path d="M284.9688,110.1406 Q284.3906,110.4375 283.75,110.5781 Q283.1094,110.7344 282.4063,110.7344 Q279.9063,110.7344 278.5781,109.0938 Q277.2656,107.4375 277.2656,104.3125 Q277.2656,101.1875 278.5781,99.5313 Q279.9063,97.875 282.4063,97.875 Q283.1094,97.875 283.75,98.0313 Q284.4063,98.1875 284.9688,98.4844 L284.9688,101.2031 Q284.3438,100.625 283.75,100.3594 Q283.1563,100.0781 282.5313,100.0781 Q281.1875,100.0781 280.5,101.1563 Q279.8125,102.2188 279.8125,104.3125 Q279.8125,106.4063 280.5,107.4844 Q281.1875,108.5469 282.5313,108.5469 Q283.1563,108.5469 283.75,108.2813 Q284.3438,108 284.9688,107.4219 L284.9688,110.1406 Z "/><text fill="#000000" font-family="sans-serif" font-size="12" lengthAdjust="spacingAndGlyphs" textLength="356" x="296" y="108.6543">MiddlewareCommDatabaseInterfaceImplementationTests</text><line style="stroke: #A80036; stroke-width: 1.5;" x1="268" x2="654" y1="120.5" y2="120.5"/><line style="stroke: #A80036; stroke-width: 1.5;" x1="268" x2="654" y1="128.5" y2="128.5"/><!--MD5=[e3f4175480349659b88084d56af4bbf1]
class DatabaseCommInterfaceStub--><rect fill="#FEFECE" filter="url(#fnx7003vyqgd4)" height="128.8281" id="DatabaseCommInterfaceStub" style="stroke: #A80036; stroke-width: 1.5;" width="398" x="262" y="228"/><ellipse cx="364.75" cy="244" fill="#ADD1B2" rx="11" ry="11" style="stroke: #A80036; stroke-width: 1.0;"/><path d="M367.7188,249.6406 Q367.1406,249.9375 366.5,250.0781 Q365.8594,250.2344 365.1563,250.2344 Q362.6563,250.2344 361.3281,248.5938 Q360.0156,246.9375 360.0156,243.8125 Q360.0156,240.6875 361.3281,239.0313 Q362.6563,237.375 365.1563,237.375 Q365.8594,237.375 366.5,237.5313 Q367.1563,237.6875 367.7188,237.9844 L367.7188,240.7031 Q367.0938,240.125 366.5,239.8594 Q365.9063,239.5781 365.2813,239.5781 Q363.9375,239.5781 363.25,240.6563 Q362.5625,241.7188 362.5625,243.8125 Q362.5625,245.9063 363.25,246.9844 Q363.9375,248.0469 365.2813,248.0469 Q365.9063,248.0469 366.5,247.7813 Q367.0938,247.5 367.7188,246.9219 L367.7188,249.6406 Z "/><text fill="#000000" font-family="sans-serif" font-size="12" lengthAdjust="spacingAndGlyphs" textLength="184" x="385.25" y="248.1543">DatabaseCommInterfaceStub</text><line style="stroke: #A80036; stroke-width: 1.5;" x1="263" x2="659" y1="260" y2="260"/><line style="stroke: #A80036; stroke-width: 1.5;" x1="263" x2="659" y1="268" y2="268"/><ellipse cx="273" cy="295.8047" fill="#84BE84" rx="3" ry="3" style="stroke: #038048; stroke-width: 1.0;"/><text fill="#000000" font-family="sans-serif" font-size="11" font-style="italic" lengthAdjust="spacingAndGlyphs" textLength="156" x="282" y="299.0151">int receiveGetRfidRequest()</text><ellipse cx="273" cy="308.6094" fill="#84BE84" rx="3" ry="3" style="stroke: #038048; stroke-width: 1.0;"/><text fill="#000000" font-family="sans-serif" font-size="11" font-style="italic" lengthAdjust="spacingAndGlyphs" textLength="372" x="282" y="311.8198">LocationDataPoint receiveGetLocationDataPointRequest(int offset)</text><ellipse cx="273" cy="321.4141" fill="#84BE84" rx="3" ry="3" style="stroke: #038048; stroke-width: 1.0;"/><text fill="#000000" font-family="sans-serif" font-size="11" font-style="italic" lengthAdjust="spacingAndGlyphs" textLength="284" x="282" y="324.6245">TrackData receiveGetTrackDataRequest(int offset)</text><ellipse cx="273" cy="334.2188" fill="#84BE84" rx="3" ry="3" style="stroke: #038048; stroke-width: 1.0;"/><text fill="#000000" font-family="sans-serif" font-size="11" font-style="italic" lengthAdjust="spacingAndGlyphs" textLength="283" x="282" y="337.4292">void storeTrackDataRequest(TrackData trackData)</text><ellipse cx="273" cy="347.0234" fill="#84BE84" rx="3" ry="3" style="stroke: #038048; stroke-width: 1.0;"/><text fill="#000000" font-family="sans-serif" font-size="11" font-style="italic" lengthAdjust="spacingAndGlyphs" textLength="183" x="282" y="350.2339">String receiveGetModeRequest()</text><line style="stroke: #A80036; stroke-width: 1.0; stroke-dasharray: 1.0,2.0;" x1="263" x2="428" y1="282.4023" y2="282.4023"/><text fill="#000000" font-family="sans-serif" font-size="11" lengthAdjust="spacingAndGlyphs" textLength="66" x="428" y="285.7104">Use Case 1</text><line style="stroke: #A80036; stroke-width: 1.0; stroke-dasharray: 1.0,2.0;" x1="494" x2="659" y1="282.4023" y2="282.4023"/><!--MD5=[4d30ae449f97cbb7dd3c9db2a55e1ec0]
class TrackDataCalculatorTests--><rect fill="#FEFECE" filter="url(#fnx7003vyqgd4)" height="48" id="TrackDataCalculatorTests" style="stroke: #A80036; stroke-width: 1.5;" width="193" x="38.5" y="88.5"/><ellipse cx="53.5" cy="104.5" fill="#ADD1B2" rx="11" ry="11" style="stroke: #A80036; stroke-width: 1.0;"/><path d="M56.4688,110.1406 Q55.8906,110.4375 55.25,110.5781 Q54.6094,110.7344 53.9063,110.7344 Q51.4063,110.7344 50.0781,109.0938 Q48.7656,107.4375 48.7656,104.3125 Q48.7656,101.1875 50.0781,99.5313 Q51.4063,97.875 53.9063,97.875 Q54.6094,97.875 55.25,98.0313 Q55.9063,98.1875 56.4688,98.4844 L56.4688,101.2031 Q55.8438,100.625 55.25,100.3594 Q54.6563,100.0781 54.0313,100.0781 Q52.6875,100.0781 52,101.1563 Q51.3125,102.2188 51.3125,104.3125 Q51.3125,106.4063 52,107.4844 Q52.6875,108.5469 54.0313,108.5469 Q54.6563,108.5469 55.25,108.2813 Q55.8438,108 56.4688,107.4219 L56.4688,110.1406 Z "/><text fill="#000000" font-family="sans-serif" font-size="12" lengthAdjust="spacingAndGlyphs" textLength="161" x="67.5" y="108.6543">TrackDataCalculatorTests</text><line style="stroke: #A80036; stroke-width: 1.5;" x1="39.5" x2="230.5" y1="120.5" y2="120.5"/><line style="stroke: #A80036; stroke-width: 1.5;" x1="39.5" x2="230.5" y1="128.5" y2="128.5"/><!--MD5=[a6f6d6498f8ad0fd1149c5a16bc55d36]
reverse link MiddlewareCommInterface to MiddlewareCommInterfaceImplementation--><path d="M2740,186.86 C2740,199.78 2740,213.15 2740,225.85 " fill="none" id="MiddlewareCommInterface&lt;-MiddlewareCommInterfaceImplementation" style="stroke: #A80036; stroke-width: 1.0; stroke-dasharray: 7.0,7.0;"/><polygon fill="none" points="2733,186.42,2740,166.42,2747,186.42,2733,186.42" style="stroke: #A80036; stroke-width: 1.0;"/><!--MD5=[497c69cbff9542047faf5ca77780c8cb]
reverse link MiddlewareCommLinkManager to MiddlewareCommLinkManagerImplementation--><path d="M2166.81,181.75 C2179.5,196.22 2192.86,211.47 2205.46,225.85 " fill="none" id="MiddlewareCommLinkManager&lt;-MiddlewareCommLinkManagerImplementation" style="stroke: #A80036; stroke-width: 1.0; stroke-dasharray: 7.0,7.0;"/><polygon fill="none" points="2161.3,186.08,2153.38,166.42,2171.83,176.85,2161.3,186.08" style="stroke: #A80036; stroke-width: 1.0;"/><!--MD5=[8e69def7a54ed81078168d5d1d8487c9]
reverse link MiddlewareCommDatabaseInterface to MiddlewareCommDatabaseInterfaceImplementation--><path d="M1711.11,184.53 C1717.86,198.16 1724.89,212.39 1731.54,225.85 " fill="none" id="MiddlewareCommDatabaseInterface&lt;-MiddlewareCommDatabaseInterfaceImplementation" style="stroke: #A80036; stroke-width: 1.0; stroke-dasharray: 7.0,7.0;"/><polygon fill="none" points="1704.75,187.45,1702.16,166.42,1717.3,181.25,1704.75,187.45" style="stroke: #A80036; stroke-width: 1.0;"/><!--MD5=[07eefeefbddab6e40f3001aaadb4b811]
link MiddlewareCommLinkManagerImplementation to TrackDataCalculator--><path d="M2149.21,359.07 C2129.31,368.38 2108.42,376.86 2088,383 C1903.93,438.36 1687.94,461.33 1522.44,470.6 " fill="none" id="MiddlewareCommLinkManagerImplementation-&gt;TrackDataCalculator" style="stroke: #A80036; stroke-width: 1.0; stroke-dasharray: 7.0,7.0;"/><polygon fill="#A80036" points="1517.07,470.9,1526.2835,474.38,1522.0619,470.6148,1525.8271,466.3931,1517.07,470.9" style="stroke: #A80036; stroke-width: 1.0;"/><!--MD5=[7fa180022f459ef85d1acc77bc346e55]
link MiddlewareCommInterfaceImplementationTests to MiddlewareCommLinkManagerStub--><path d="M1241.48,136.77 C1244.15,161.73 1248.47,202.26 1252.03,235.59 " fill="none" id="MiddlewareCommInterfaceImplementationTests-&gt;MiddlewareCommLinkManagerStub" style="stroke: #A80036; stroke-width: 1.0; stroke-dasharray: 7.0,7.0;"/><polygon fill="#A80036" points="1252.6,240.87,1255.626,231.4975,1252.0714,235.898,1247.6709,232.3433,1252.6,240.87" style="stroke: #A80036; stroke-width: 1.0;"/><!--MD5=[2fd20703f0701fa98274185fc4989096]
link MiddlewareCommLinkManagerImplementationTests to MiddlewareCommDatabaseInterfaceStub--><path d="M870.88,136.77 C878.01,164.97 890.17,213.07 899.05,248.17 " fill="none" id="MiddlewareCommLinkManagerImplementationTests-&gt;MiddlewareCommDatabaseInterfaceStub" style="stroke: #A80036; stroke-width: 1.0; stroke-dasharray: 7.0,7.0;"/><polygon fill="#A80036" points="900.33,253.25,902.021,243.5474,899.114,248.4001,894.2612,245.4931,900.33,253.25" style="stroke: #A80036; stroke-width: 1.0;"/><!--MD5=[52509b0176968f875548ba7b6727e5db]
link MiddlewareCommDatabaseInterfaceImplementationTests to DatabaseCommInterfaceStub--><path d="M461,136.77 C461,158.6 461,192.34 461,222.75 " fill="none" id="MiddlewareCommDatabaseInterfaceImplementationTests-&gt;DatabaseCommInterfaceStub" style="stroke: #A80036; stroke-width: 1.0; stroke-dasharray: 7.0,7.0;"/><polygon fill="#A80036" points="461,227.99,465,218.99,461,222.99,457,218.99,461,227.99" style="stroke: #A80036; stroke-width: 1.0;"/><!--MD5=[b7be4b6db61c888b240eee15c81cfa97]
link MiddlewareCommInterfaceImplementationTests to MiddlewareCommInterfaceImplementation--><path d="M1313.95,136.57 C1351.94,147.33 1399.03,159.22 1442,166 C1880.48,235.23 1999.26,165.29 2439,226 C2442.91,226.54 2446.85,227.1 2450.8,227.69 " fill="none" id="MiddlewareCommInterfaceImplementationTests-&gt;MiddlewareCommInterfaceImplementation" style="stroke: #A80036; stroke-width: 1.0; stroke-dasharray: 7.0,7.0;"/><polygon fill="#A80036" points="2455.82,228.44,2447.5144,223.1468,2450.8755,227.6969,2446.3255,231.058,2455.82,228.44" style="stroke: #A80036; stroke-width: 1.0;"/><!--MD5=[103579e4ea01d223111d0dbd0a71b306]
link MiddlewareCommLinkManagerImplementationTests to MiddlewareCommLinkManagerImplementation--><path d="M935.72,136.52 C971.9,147.33 1016.88,159.28 1058,166 C1510.56,239.91 1639.35,131.23 2088,226 C2091.91,226.82 2095.84,227.72 2099.79,228.68 " fill="none" id="MiddlewareCommLinkManagerImplementationTests-&gt;MiddlewareCommLinkManagerImplementation" style="stroke: #A80036; stroke-width: 1.0; stroke-dasharray: 7.0,7.0;"/><polygon fill="#A80036" points="2104.8,229.93,2097.0389,223.8666,2099.9493,228.7173,2095.0986,231.6277,2104.8,229.93" style="stroke: #A80036; stroke-width: 1.0;"/><!--MD5=[43c3af790da194ec4c8637f83c23fde0]
link MiddlewareCommDatabaseInterfaceImplementationTests to MiddlewareCommDatabaseInterfaceImplementation--><path d="M540.9,136.55 C580.35,147.09 628.84,158.8 673,166 C1000.86,219.43 1088.78,181.71 1418,226 C1429.4,227.53 1440.99,229.2 1452.69,230.96 " fill="none" id="MiddlewareCommDatabaseInterfaceImplementationTests-&gt;MiddlewareCommDatabaseInterfaceImplementation" style="stroke: #A80036; stroke-width: 1.0; stroke-dasharray: 7.0,7.0;"/><polygon fill="#A80036" points="1457.7,231.72,1449.3944,226.4268,1452.7555,230.9769,1448.2055,234.338,1457.7,231.72" style="stroke: #A80036; stroke-width: 1.0;"/><!--MD5=[b7f4c9447f2e238dc6bbfb46bebb205f]
link TrackDataCalculatorTests to TrackDataCalculator--><path d="M136.71,136.7 C142.01,190.23 163.17,322.4 245,383 C303.99,426.68 713.59,452.85 993.53,465.83 " fill="none" id="TrackDataCalculatorTests-&gt;TrackDataCalculator" style="stroke: #A80036; stroke-width: 1.0; stroke-dasharray: 7.0,7.0;"/><polygon fill="#A80036" points="998.88,466.08,990.0853,461.6469,993.8859,465.8367,989.696,469.6374,998.88,466.08" style="stroke: #A80036; stroke-width: 1.0;"/><!--MD5=[a1cf72e0ac52b4d843c7c634d1a14535]
reverse link MiddlewareCommLinkManager to MiddlewareCommLinkManagerStub--><path d="M1976.36,138.4 C1928.2,147.38 1873.17,157.41 1823,166 C1654.04,194.92 1608.13,183.74 1442,226 C1422.45,230.97 1402.04,237.17 1382.24,243.76 " fill="none" id="MiddlewareCommLinkManager&lt;-MiddlewareCommLinkManagerStub" style="stroke: #A80036; stroke-width: 1.0; stroke-dasharray: 7.0,7.0;"/><polygon fill="none" points="1975.24,131.49,1996.19,134.69,1977.82,145.25,1975.24,131.49" style="stroke: #A80036; stroke-width: 1.0;"/><!--MD5=[bcb237fc50e7c64a2e386cbf2da92530]
reverse link MiddlewareCommDatabaseInterface to MiddlewareCommDatabaseInterfaceStub--><path d="M1526.67,143.99 C1491.06,151.23 1453.19,158.91 1418,166 C1284.28,192.93 1249.11,192.04 1117,226 C1086.06,233.95 1052.92,243.82 1022.43,253.46 " fill="none" id="MiddlewareCommDatabaseInterface&lt;-MiddlewareCommDatabaseInterfaceStub" style="stroke: #A80036; stroke-width: 1.0; stroke-dasharray: 7.0,7.0;"/><polygon fill="none" points="1525.76,137.03,1546.75,139.91,1528.55,150.75,1525.76,137.03" style="stroke: #A80036; stroke-width: 1.0;"/><!--MD5=[3b9b5272588e5e50050547df585ff719]
@startuml Middleware02Packages_InternalDependencies


package edu.oakland.production.middleware02 {
    
}


package edu.oakland.production.middleware02 {
    interface MiddlewareCommInterface {
        __
        .. Use Case 1 ..
        {abstract} + TrackData requestRfid(int rfid)
        .. Use Case 2 ..

    }
}


package edu.oakland.production.middleware02 {
    interface MiddlewareCommLinkManager {
        __
        .. Use Case 1 ..
        {abstract} + TrackData parseRfid(int rfid)
        .. Use Case 2 ..

    }
}


package edu.oakland.production.middleware02 {
    interface MiddlewareCommDatabaseInterface {
        __
        .. Use Case 1 ..
        {abstract} + int checkCurrentRfid()
        .. Use Case 2 ..

    }
}


package edu.oakland.production.middleware02 {
    class MiddlewareCommInterfaceImplementation {
        - MiddlewareCommLinkManager middlewareManager
        __
        + MiddlewareCommInterfaceImplementation (MiddlewareCommLinkManager middlewareManager)
        .. Use Case 1 ..
        + TrackData requestRfid(int rfid)
        .. Use Case 2 ..

    }
}


MiddlewareCommInterfaceImplementation .up.|> MiddlewareCommInterface

package edu.oakland.production.middleware02 {
    class MiddlewareCommLinkManagerImplementation {
        __
        .. Use Case 1 ..
        + TrackData parseRfid(int rfid)
        - float calculateLocationDataPoint()
        - float calculateTrackData()
        .. Use Case 2 ..

    }
}


MiddlewareCommLinkManagerImplementation .up.|> MiddlewareCommLinkManager

package edu.oakland.production.middleware02 {
    class MiddlewareCommDatabaseInterfaceImplementation {
        + DatabaseCommInterface databaseCommInterface
        __
        + MiddlewareCommDatabaseInterfaceImplementation(DatabaseCommInterface databaseCommInterface)
        .. Use Case 1 ..
        + int checkCurrentRfid()
        .. Use Case 2 ..

    }
}


MiddlewareCommDatabaseInterfaceImplementation .up.|> MiddlewareCommDatabaseInterface






package edu.oakland.helper.middleware02 {
    class TrackDataCalculator {
        {static} + float calculateSpeed(LocationDataPoint[] locationDataPoints)
        {static} + float calculateDirection(LocationDataPoint[] locationDataPoints)
        {static} - LocationDataPoint[] calculateRootMeanSquared(LocationDataPoint[] locationDataPoints)
    }
}

MiddlewareCommLinkManagerImplementation ..> TrackDataCalculator


package edu.oakland.test.middleware02 {
    
}


package edu.oakland.test.middleware02 {
    class MiddlewareCommInterfaceImplementationTests {

    }
}



package edu.oakland.test.middleware02 {
    class MiddlewareCommLinkManagerStub {
        __
        .. Use Case 1 ..
        + TrackData parseRfid(int rfid)
        - float calculateLocationDataPoint()
        - float calculateTrackData()
    }
}

MiddlewareCommInterfaceImplementationTests ..> MiddlewareCommLinkManagerStub

package edu.oakland.test.middleware02 {
    class MiddlewareCommLinkManagerImplementationTests {

    }
}



package edu.oakland.test.middleware02 {
    class MiddlewareCommDatabaseInterfaceStub {
        __
        .. Use Case 1 ..
        + int checkCurrentRfid()
    }
}

MiddlewareCommLinkManagerImplementationTests ..> MiddlewareCommDatabaseInterfaceStub

package edu.oakland.test.middleware02 {
    class MiddlewareCommDatabaseInterfaceImplementationTests {

    }
}



package edu.oakland.test.middleware02 {
    class DatabaseCommInterfaceStub {
        __
        .. Use Case 1 ..
        {abstract} + int receiveGetRfidRequest()
        {abstract} + LocationDataPoint receiveGetLocationDataPointRequest(int offset)
        {abstract} + TrackData receiveGetTrackDataRequest(int offset)
        {abstract} + void storeTrackDataRequest(TrackData trackData)
        {abstract} + String receiveGetModeRequest()
    }
}

MiddlewareCommDatabaseInterfaceImplementationTests ..> DatabaseCommInterfaceStub

package edu.oakland.test.middleware02 {
    class TrackDataCalculatorTests {

    }
}


MiddlewareCommInterfaceImplementationTests ..> MiddlewareCommInterfaceImplementation
MiddlewareCommLinkManagerImplementationTests ..> MiddlewareCommLinkManagerImplementation
MiddlewareCommDatabaseInterfaceImplementationTests ..> MiddlewareCommDatabaseInterfaceImplementation
TrackDataCalculatorTests ..> TrackDataCalculator
MiddlewareCommLinkManagerStub .up.|> MiddlewareCommLinkManager
MiddlewareCommDatabaseInterfaceStub .up.|> MiddlewareCommDatabaseInterface


package edu.oakland.helper.middleware02 {
    
}




@enduml

PlantUML version 1.2020.02(Sun Mar 01 10:22:07 GMT 2020)
(GPL source distribution)
Java Runtime: OpenJDK Runtime Environment
JVM: OpenJDK 64-Bit Server VM
Java Version: 11.0.9+11-Ubuntu-0ubuntu1
Operating System: Linux
Default Encoding: ANSI_X3.4-1968
Language: en
Country: US
--></g></svg>