<?xml version="1.0" encoding="UTF-8" standalone="no"?><svg xmlns="http://www.w3.org/2000/svg" xmlns:xlink="http://www.w3.org/1999/xlink" contentScriptType="application/ecmascript" contentStyleType="text/css" height="528px" preserveAspectRatio="none" style="width:2752px;height:528px;" version="1.1" viewBox="0 0 2752 528" width="2752px" zoomAndPan="magnify"><defs><filter height="300%" id="fn96ylvxo5i13" width="300%" x="-1" y="-1"><feGaussianBlur result="blurOut" stdDeviation="2.0"/><feColorMatrix in="blurOut" result="blurOut2" type="matrix" values="0 0 0 0 0 0 0 0 0 0 0 0 0 0 0 0 0 0 .4 0"/><feOffset dx="4.0" dy="4.0" in="blurOut2" result="blurOut3"/><feBlend in="SourceGraphic" in2="blurOut3" mode="normal"/></filter></defs><g><!--MD5=[33504725b8a69ba2207f0a836957a91c]
cluster edu.oakland.production.middleware02--><polygon fill="#FFFFFF" filter="url(#fn96ylvxo5i13)" points="1442,24,1752,24,1759,46.2969,2730,46.2969,2730,355,1442,355,1442,24" style="stroke: #000000; stroke-width: 1.5;"/><line style="stroke: #000000; stroke-width: 1.5;" x1="1442" x2="1759" y1="46.2969" y2="46.2969"/><text fill="#000000" font-family="sans-serif" font-size="14" font-weight="bold" lengthAdjust="spacingAndGlyphs" textLength="304" x="1446" y="38.9951">edu.oakland.production.middleware02</text><!--MD5=[73d4e355f259fb8d2c716d693a5be920]
cluster edu.oakland.helper.middleware02--><polygon fill="#FFFFFF" filter="url(#fn96ylvxo5i13)" points="894,379,1169,379,1176,401.2969,1444,401.2969,1444,516,894,516,894,379" style="stroke: #000000; stroke-width: 1.5;"/><line style="stroke: #000000; stroke-width: 1.5;" x1="894" x2="1176" y1="401.2969" y2="401.2969"/><text fill="#000000" font-family="sans-serif" font-size="14" font-weight="bold" lengthAdjust="spacingAndGlyphs" textLength="269" x="898" y="393.9951">edu.oakland.helper.middleware02</text><!--MD5=[def9027c776d62015452659d5d6059fb]
cluster edu.oakland.test.middleware02--><polygon fill="#FFFFFF" filter="url(#fn96ylvxo5i13)" points="22,39,277,39,284,61.2969,1418,61.2969,1418,348.5,22,348.5,22,39" style="stroke: #000000; stroke-width: 1.5;"/><line style="stroke: #000000; stroke-width: 1.5;" x1="22" x2="284" y1="61.2969" y2="61.2969"/><text fill="#000000" font-family="sans-serif" font-size="14" font-weight="bold" lengthAdjust="spacingAndGlyphs" textLength="249" x="26" y="53.9951">edu.oakland.test.middleware02</text><!--MD5=[d3cb230b9040bd9072bb1f490e167601]
class MiddlewareCommInterface--><rect fill="#FEFECE" filter="url(#fn96ylvxo5i13)" height="77.6094" id="MiddlewareCommInterface" style="stroke: #A80036; stroke-width: 1.5;" width="198" x="2438" y="59"/><ellipse cx="2453" cy="75" fill="#B4A7E5" rx="11" ry="11" style="stroke: #A80036; stroke-width: 1.0;"/><path d="M2448.9219,70.7656 L2448.9219,68.6094 L2456.3125,68.6094 L2456.3125,70.7656 L2453.8438,70.7656 L2453.8438,78.8438 L2456.3125,78.8438 L2456.3125,81 L2448.9219,81 L2448.9219,78.8438 L2451.3906,78.8438 L2451.3906,70.7656 L2448.9219,70.7656 Z "/><text fill="#000000" font-family="sans-serif" font-size="12" font-style="italic" lengthAdjust="spacingAndGlyphs" textLength="166" x="2467" y="79.1543">MiddlewareCommInterface</text><line style="stroke: #A80036; stroke-width: 1.5;" x1="2439" x2="2635" y1="91" y2="91"/><line style="stroke: #A80036; stroke-width: 1.5;" x1="2439" x2="2635" y1="99" y2="99"/><ellipse cx="2449" cy="126.8047" fill="#84BE84" rx="3" ry="3" style="stroke: #038048; stroke-width: 1.0;"/><text fill="#000000" font-family="sans-serif" font-size="11" font-style="italic" lengthAdjust="spacingAndGlyphs" textLength="171" x="2458" y="130.0151">TrackData requestRfid(int rfid)</text><line style="stroke: #A80036; stroke-width: 1.0; stroke-dasharray: 1.0,2.0;" x1="2439" x2="2504" y1="113.4023" y2="113.4023"/><text fill="#000000" font-family="sans-serif" font-size="11" lengthAdjust="spacingAndGlyphs" textLength="66" x="2504" y="116.7104">Use Case 1</text><line style="stroke: #A80036; stroke-width: 1.0; stroke-dasharray: 1.0,2.0;" x1="2570" x2="2635" y1="113.4023" y2="113.4023"/><!--MD5=[d01e667c21cf622da77e8a7601ca5c91]
class MiddlewareCommLinkManager--><rect fill="#FEFECE" filter="url(#fn96ylvxo5i13)" height="77.6094" id="MiddlewareCommLinkManager" style="stroke: #A80036; stroke-width: 1.5;" width="221" x="1875.5" y="59"/><ellipse cx="1890.5" cy="75" fill="#B4A7E5" rx="11" ry="11" style="stroke: #A80036; stroke-width: 1.0;"/><path d="M1886.4219,70.7656 L1886.4219,68.6094 L1893.8125,68.6094 L1893.8125,70.7656 L1891.3438,70.7656 L1891.3438,78.8438 L1893.8125,78.8438 L1893.8125,81 L1886.4219,81 L1886.4219,78.8438 L1888.8906,78.8438 L1888.8906,70.7656 L1886.4219,70.7656 Z "/><text fill="#000000" font-family="sans-serif" font-size="12" font-style="italic" lengthAdjust="spacingAndGlyphs" textLength="189" x="1904.5" y="79.1543">MiddlewareCommLinkManager</text><line style="stroke: #A80036; stroke-width: 1.5;" x1="1876.5" x2="2095.5" y1="91" y2="91"/><line style="stroke: #A80036; stroke-width: 1.5;" x1="1876.5" x2="2095.5" y1="99" y2="99"/><ellipse cx="1886.5" cy="126.8047" fill="#84BE84" rx="3" ry="3" style="stroke: #038048; stroke-width: 1.0;"/><text fill="#000000" font-family="sans-serif" font-size="11" font-style="italic" lengthAdjust="spacingAndGlyphs" textLength="160" x="1895.5" y="130.0151">TrackData parseRfid(int rfid)</text><line style="stroke: #A80036; stroke-width: 1.0; stroke-dasharray: 1.0,2.0;" x1="1876.5" x2="1953" y1="113.4023" y2="113.4023"/><text fill="#000000" font-family="sans-serif" font-size="11" lengthAdjust="spacingAndGlyphs" textLength="66" x="1953" y="116.7104">Use Case 1</text><line style="stroke: #A80036; stroke-width: 1.0; stroke-dasharray: 1.0,2.0;" x1="2019" x2="2095.5" y1="113.4023" y2="113.4023"/><!--MD5=[4915649770e9045e9ea9156a01fd67e8]
class MiddlewareCommDatabaseInterface--><rect fill="#FEFECE" filter="url(#fn96ylvxo5i13)" height="77.6094" id="MiddlewareCommDatabaseInterface" style="stroke: #A80036; stroke-width: 1.5;" width="258" x="1482" y="59"/><ellipse cx="1497" cy="75" fill="#B4A7E5" rx="11" ry="11" style="stroke: #A80036; stroke-width: 1.0;"/><path d="M1492.9219,70.7656 L1492.9219,68.6094 L1500.3125,68.6094 L1500.3125,70.7656 L1497.8438,70.7656 L1497.8438,78.8438 L1500.3125,78.8438 L1500.3125,81 L1492.9219,81 L1492.9219,78.8438 L1495.3906,78.8438 L1495.3906,70.7656 L1492.9219,70.7656 Z "/><text fill="#000000" font-family="sans-serif" font-size="12" font-style="italic" lengthAdjust="spacingAndGlyphs" textLength="226" x="1511" y="79.1543">MiddlewareCommDatabaseInterface</text><line style="stroke: #A80036; stroke-width: 1.5;" x1="1483" x2="1739" y1="91" y2="91"/><line style="stroke: #A80036; stroke-width: 1.5;" x1="1483" x2="1739" y1="99" y2="99"/><ellipse cx="1493" cy="126.8047" fill="#84BE84" rx="3" ry="3" style="stroke: #038048; stroke-width: 1.0;"/><text fill="#000000" font-family="sans-serif" font-size="11" font-style="italic" lengthAdjust="spacingAndGlyphs" textLength="123" x="1502" y="130.0151">int checkCurrentRfid()</text><line style="stroke: #A80036; stroke-width: 1.0; stroke-dasharray: 1.0,2.0;" x1="1483" x2="1578" y1="113.4023" y2="113.4023"/><text fill="#000000" font-family="sans-serif" font-size="11" lengthAdjust="spacingAndGlyphs" textLength="66" x="1578" y="116.7104">Use Case 1</text><line style="stroke: #A80036; stroke-width: 1.0; stroke-dasharray: 1.0,2.0;" x1="1644" x2="1739" y1="113.4023" y2="113.4023"/><!--MD5=[0a03c366ade61429da89cc477d567a32]
class MiddlewareCommInterfaceImplementation--><rect fill="#FEFECE" filter="url(#fn96ylvxo5i13)" height="116.0234" id="MiddlewareCommInterfaceImplementation" style="stroke: #A80036; stroke-width: 1.5;" width="353" x="2360.5" y="210"/><ellipse cx="2402.5" cy="226" fill="#ADD1B2" rx="11" ry="11" style="stroke: #A80036; stroke-width: 1.0;"/><path d="M2405.4688,231.6406 Q2404.8906,231.9375 2404.25,232.0781 Q2403.6094,232.2344 2402.9063,232.2344 Q2400.4063,232.2344 2399.0781,230.5938 Q2397.7656,228.9375 2397.7656,225.8125 Q2397.7656,222.6875 2399.0781,221.0313 Q2400.4063,219.375 2402.9063,219.375 Q2403.6094,219.375 2404.25,219.5313 Q2404.9063,219.6875 2405.4688,219.9844 L2405.4688,222.7031 Q2404.8438,222.125 2404.25,221.8594 Q2403.6563,221.5781 2403.0313,221.5781 Q2401.6875,221.5781 2401,222.6563 Q2400.3125,223.7188 2400.3125,225.8125 Q2400.3125,227.9063 2401,228.9844 Q2401.6875,230.0469 2403.0313,230.0469 Q2403.6563,230.0469 2404.25,229.7813 Q2404.8438,229.5 2405.4688,228.9219 L2405.4688,231.6406 Z "/><text fill="#000000" font-family="sans-serif" font-size="12" lengthAdjust="spacingAndGlyphs" textLength="261" x="2422.5" y="230.1543">MiddlewareCommInterfaceImplementation</text><line style="stroke: #A80036; stroke-width: 1.5;" x1="2361.5" x2="2712.5" y1="242" y2="242"/><rect fill="none" height="6" style="stroke: #C82930; stroke-width: 1.0;" width="6" x="2368.5" y="250"/><text fill="#000000" font-family="sans-serif" font-size="11" lengthAdjust="spacingAndGlyphs" textLength="291" x="2380.5" y="256.2104">MiddlewareCommLinkManager middlewareManager</text><line style="stroke: #A80036; stroke-width: 1.5;" x1="2361.5" x2="2712.5" y1="262.8047" y2="262.8047"/><ellipse cx="2371.5" cy="273.8047" fill="#84BE84" rx="3" ry="3" style="stroke: #038048; stroke-width: 1.0;"/><text fill="#000000" font-family="sans-serif" font-size="11" lengthAdjust="spacingAndGlyphs" textLength="243" x="2380.5" y="277.0151">MiddlewareCommInterfaceImplementation(</text><text fill="#000000" font-family="sans-serif" font-size="11" lengthAdjust="spacingAndGlyphs" textLength="295" x="2412.5" y="289.8198">MiddlewareCommLinkManager middlewareManager)</text><ellipse cx="2371.5" cy="316.2188" fill="#84BE84" rx="3" ry="3" style="stroke: #038048; stroke-width: 1.0;"/><text fill="#000000" font-family="sans-serif" font-size="11" lengthAdjust="spacingAndGlyphs" textLength="171" x="2380.5" y="319.4292">TrackData requestRfid(int rfid)</text><line style="stroke: #A80036; stroke-width: 1.0; stroke-dasharray: 1.0,2.0;" x1="2361.5" x2="2504" y1="302.8164" y2="302.8164"/><text fill="#000000" font-family="sans-serif" font-size="11" lengthAdjust="spacingAndGlyphs" textLength="66" x="2504" y="306.1245">Use Case 1</text><line style="stroke: #A80036; stroke-width: 1.0; stroke-dasharray: 1.0,2.0;" x1="2570" x2="2712.5" y1="302.8164" y2="302.8164"/><!--MD5=[d9ed64ee38938b46697008700ce69fba]
class MiddlewareCommLinkManagerImplementation--><rect fill="#FEFECE" filter="url(#fn96ylvxo5i13)" height="141.6328" id="MiddlewareCommLinkManagerImplementation" style="stroke: #A80036; stroke-width: 1.5;" width="478" x="1847" y="197"/><ellipse cx="1939.75" cy="213" fill="#ADD1B2" rx="11" ry="11" style="stroke: #A80036; stroke-width: 1.0;"/><path d="M1942.7188,218.6406 Q1942.1406,218.9375 1941.5,219.0781 Q1940.8594,219.2344 1940.1563,219.2344 Q1937.6563,219.2344 1936.3281,217.5938 Q1935.0156,215.9375 1935.0156,212.8125 Q1935.0156,209.6875 1936.3281,208.0313 Q1937.6563,206.375 1940.1563,206.375 Q1940.8594,206.375 1941.5,206.5313 Q1942.1563,206.6875 1942.7188,206.9844 L1942.7188,209.7031 Q1942.0938,209.125 1941.5,208.8594 Q1940.9063,208.5781 1940.2813,208.5781 Q1938.9375,208.5781 1938.25,209.6563 Q1937.5625,210.7188 1937.5625,212.8125 Q1937.5625,214.9063 1938.25,215.9844 Q1938.9375,217.0469 1940.2813,217.0469 Q1940.9063,217.0469 1941.5,216.7813 Q1942.0938,216.5 1942.7188,215.9219 L1942.7188,218.6406 Z "/><text fill="#000000" font-family="sans-serif" font-size="12" lengthAdjust="spacingAndGlyphs" textLength="284" x="1960.25" y="217.1543">MiddlewareCommLinkManagerImplementation</text><line style="stroke: #A80036; stroke-width: 1.5;" x1="1848" x2="2324" y1="229" y2="229"/><rect fill="none" height="6" style="stroke: #C82930; stroke-width: 1.0;" width="6" x="1855" y="237"/><text fill="#000000" font-family="sans-serif" font-size="11" lengthAdjust="spacingAndGlyphs" textLength="416" x="1867" y="243.2104">MiddlewareCommDatabaseInterface middlewareCommDatabaseInterface</text><line style="stroke: #A80036; stroke-width: 1.5;" x1="1848" x2="2324" y1="249.8047" y2="249.8047"/><ellipse cx="1858" cy="260.8047" fill="#84BE84" rx="3" ry="3" style="stroke: #038048; stroke-width: 1.0;"/><text fill="#000000" font-family="sans-serif" font-size="11" lengthAdjust="spacingAndGlyphs" textLength="264" x="1867" y="264.0151">MiddlewareCommLinkManagerImplementation(</text><text fill="#000000" font-family="sans-serif" font-size="11" lengthAdjust="spacingAndGlyphs" textLength="420" x="1899" y="276.8198">MiddlewareCommDatabaseInterface middlewareCommDatabaseInterface)</text><ellipse cx="1858" cy="303.2188" fill="#84BE84" rx="3" ry="3" style="stroke: #038048; stroke-width: 1.0;"/><text fill="#000000" font-family="sans-serif" font-size="11" lengthAdjust="spacingAndGlyphs" textLength="160" x="1867" y="306.4292">TrackData parseRfid(int rfid)</text><rect fill="#F24D5C" height="6" style="stroke: #C82930; stroke-width: 1.0;" width="6" x="1855" y="313.0234"/><text fill="#000000" font-family="sans-serif" font-size="11" lengthAdjust="spacingAndGlyphs" textLength="188" x="1867" y="319.2339">float calculateLocationDataPoint()</text><rect fill="#F24D5C" height="6" style="stroke: #C82930; stroke-width: 1.0;" width="6" x="1855" y="325.8281"/><text fill="#000000" font-family="sans-serif" font-size="11" lengthAdjust="spacingAndGlyphs" textLength="144" x="1867" y="332.0386">float calculateTrackData()</text><line style="stroke: #A80036; stroke-width: 1.0; stroke-dasharray: 1.0,2.0;" x1="1848" x2="2053" y1="289.8164" y2="289.8164"/><text fill="#000000" font-family="sans-serif" font-size="11" lengthAdjust="spacingAndGlyphs" textLength="66" x="2053" y="293.1245">Use Case 1</text><line style="stroke: #A80036; stroke-width: 1.0; stroke-dasharray: 1.0,2.0;" x1="2119" x2="2324" y1="289.8164" y2="289.8164"/><!--MD5=[1c4f9654f103878faf4a10c0361188b9]
class MiddlewareCommDatabaseInterfaceImplementation--><rect fill="#FEFECE" filter="url(#fn96ylvxo5i13)" height="116.0234" id="MiddlewareCommDatabaseInterfaceImplementation" style="stroke: #A80036; stroke-width: 1.5;" width="354" x="1458" y="210"/><ellipse cx="1473" cy="226" fill="#ADD1B2" rx="11" ry="11" style="stroke: #A80036; stroke-width: 1.0;"/><path d="M1475.9688,231.6406 Q1475.3906,231.9375 1474.75,232.0781 Q1474.1094,232.2344 1473.4063,232.2344 Q1470.9063,232.2344 1469.5781,230.5938 Q1468.2656,228.9375 1468.2656,225.8125 Q1468.2656,222.6875 1469.5781,221.0313 Q1470.9063,219.375 1473.4063,219.375 Q1474.1094,219.375 1474.75,219.5313 Q1475.4063,219.6875 1475.9688,219.9844 L1475.9688,222.7031 Q1475.3438,222.125 1474.75,221.8594 Q1474.1563,221.5781 1473.5313,221.5781 Q1472.1875,221.5781 1471.5,222.6563 Q1470.8125,223.7188 1470.8125,225.8125 Q1470.8125,227.9063 1471.5,228.9844 Q1472.1875,230.0469 1473.5313,230.0469 Q1474.1563,230.0469 1474.75,229.7813 Q1475.3438,229.5 1475.9688,228.9219 L1475.9688,231.6406 Z "/><text fill="#000000" font-family="sans-serif" font-size="12" lengthAdjust="spacingAndGlyphs" textLength="322" x="1487" y="230.1543">MiddlewareCommDatabaseInterfaceImplementation</text><line style="stroke: #A80036; stroke-width: 1.5;" x1="1459" x2="1811" y1="242" y2="242"/><ellipse cx="1469" cy="253" fill="none" rx="3" ry="3" style="stroke: #038048; stroke-width: 1.0;"/><text fill="#000000" font-family="sans-serif" font-size="11" lengthAdjust="spacingAndGlyphs" textLength="285" x="1478" y="256.2104">DatabaseCommInterface databaseCommInterface</text><line style="stroke: #A80036; stroke-width: 1.5;" x1="1459" x2="1811" y1="262.8047" y2="262.8047"/><ellipse cx="1469" cy="273.8047" fill="#84BE84" rx="3" ry="3" style="stroke: #038048; stroke-width: 1.0;"/><text fill="#000000" font-family="sans-serif" font-size="11" lengthAdjust="spacingAndGlyphs" textLength="297" x="1478" y="277.0151">MiddlewareCommDatabaseInterfaceImplementation(</text><text fill="#000000" font-family="sans-serif" font-size="11" lengthAdjust="spacingAndGlyphs" textLength="289" x="1510" y="289.8198">DatabaseCommInterface databaseCommInterface)</text><ellipse cx="1469" cy="316.2188" fill="#84BE84" rx="3" ry="3" style="stroke: #038048; stroke-width: 1.0;"/><text fill="#000000" font-family="sans-serif" font-size="11" lengthAdjust="spacingAndGlyphs" textLength="122" x="1478" y="319.4292">int checkCurrentRfid()</text><line style="stroke: #A80036; stroke-width: 1.0; stroke-dasharray: 1.0,2.0;" x1="1459" x2="1602" y1="302.8164" y2="302.8164"/><text fill="#000000" font-family="sans-serif" font-size="11" lengthAdjust="spacingAndGlyphs" textLength="66" x="1602" y="306.1245">Use Case 1</text><line style="stroke: #A80036; stroke-width: 1.0; stroke-dasharray: 1.0,2.0;" x1="1668" x2="1811" y1="302.8164" y2="302.8164"/><!--MD5=[8d86b1aa2030a05d452f78e2e1fb37ed]
class TrackDataCalculator--><rect fill="#FEFECE" filter="url(#fn96ylvxo5i13)" height="86.4141" id="TrackDataCalculator" style="stroke: #A80036; stroke-width: 1.5;" width="518" x="910" y="414"/><ellipse cx="1101.25" cy="430" fill="#ADD1B2" rx="11" ry="11" style="stroke: #A80036; stroke-width: 1.0;"/><path d="M1104.2188,435.6406 Q1103.6406,435.9375 1103,436.0781 Q1102.3594,436.2344 1101.6563,436.2344 Q1099.1563,436.2344 1097.8281,434.5938 Q1096.5156,432.9375 1096.5156,429.8125 Q1096.5156,426.6875 1097.8281,425.0313 Q1099.1563,423.375 1101.6563,423.375 Q1102.3594,423.375 1103,423.5313 Q1103.6563,423.6875 1104.2188,423.9844 L1104.2188,426.7031 Q1103.5938,426.125 1103,425.8594 Q1102.4063,425.5781 1101.7813,425.5781 Q1100.4375,425.5781 1099.75,426.6563 Q1099.0625,427.7188 1099.0625,429.8125 Q1099.0625,431.9063 1099.75,432.9844 Q1100.4375,434.0469 1101.7813,434.0469 Q1102.4063,434.0469 1103,433.7813 Q1103.5938,433.5 1104.2188,432.9219 L1104.2188,435.6406 Z "/><text fill="#000000" font-family="sans-serif" font-size="12" lengthAdjust="spacingAndGlyphs" textLength="127" x="1121.75" y="434.1543">TrackDataCalculator</text><line style="stroke: #A80036; stroke-width: 1.5;" x1="911" x2="1427" y1="446" y2="446"/><line style="stroke: #A80036; stroke-width: 1.5;" x1="911" x2="1427" y1="454" y2="454"/><ellipse cx="921" cy="465" fill="#84BE84" rx="3" ry="3" style="stroke: #038048; stroke-width: 1.0;"/><text fill="#000000" font-family="sans-serif" font-size="11" lengthAdjust="spacingAndGlyphs" text-decoration="underline" textLength="341" x="930" y="468.2104">float calculateSpeed(LocationDataPoint[] locationDataPoints)</text><ellipse cx="921" cy="477.8047" fill="#84BE84" rx="3" ry="3" style="stroke: #038048; stroke-width: 1.0;"/><text fill="#000000" font-family="sans-serif" font-size="11" lengthAdjust="spacingAndGlyphs" text-decoration="underline" textLength="355" x="930" y="481.0151">float calculateDirection(LocationDataPoint[] locationDataPoints)</text><rect fill="#F24D5C" height="6" style="stroke: #C82930; stroke-width: 1.0;" width="6" x="918" y="487.6094"/><text fill="#000000" font-family="sans-serif" font-size="11" lengthAdjust="spacingAndGlyphs" text-decoration="underline" textLength="492" x="930" y="493.8198">LocationDataPoint[] calculateRootMeanSquared(LocationDataPoint[] locationDataPoints)</text><!--MD5=[00b94da1af6b7f5503baa4bfd88b42e0]
class MiddlewareCommInterfaceImplementationTests--><rect fill="#FEFECE" filter="url(#fn96ylvxo5i13)" height="48" id="MiddlewareCommInterfaceImplementationTests" style="stroke: #A80036; stroke-width: 1.5;" width="327" x="1075.5" y="74"/><ellipse cx="1090.5" cy="90" fill="#ADD1B2" rx="11" ry="11" style="stroke: #A80036; stroke-width: 1.0;"/><path d="M1093.4688,95.6406 Q1092.8906,95.9375 1092.25,96.0781 Q1091.6094,96.2344 1090.9063,96.2344 Q1088.4063,96.2344 1087.0781,94.5938 Q1085.7656,92.9375 1085.7656,89.8125 Q1085.7656,86.6875 1087.0781,85.0313 Q1088.4063,83.375 1090.9063,83.375 Q1091.6094,83.375 1092.25,83.5313 Q1092.9063,83.6875 1093.4688,83.9844 L1093.4688,86.7031 Q1092.8438,86.125 1092.25,85.8594 Q1091.6563,85.5781 1091.0313,85.5781 Q1089.6875,85.5781 1089,86.6563 Q1088.3125,87.7188 1088.3125,89.8125 Q1088.3125,91.9063 1089,92.9844 Q1089.6875,94.0469 1091.0313,94.0469 Q1091.6563,94.0469 1092.25,93.7813 Q1092.8438,93.5 1093.4688,92.9219 L1093.4688,95.6406 Z "/><text fill="#000000" font-family="sans-serif" font-size="12" lengthAdjust="spacingAndGlyphs" textLength="295" x="1104.5" y="94.1543">MiddlewareCommInterfaceImplementationTests</text><line style="stroke: #A80036; stroke-width: 1.5;" x1="1076.5" x2="1401.5" y1="106" y2="106"/><line style="stroke: #A80036; stroke-width: 1.5;" x1="1076.5" x2="1401.5" y1="114" y2="114"/><!--MD5=[3bea4f8dbcd5725ad50d10553f2379e2]
class MiddlewareCommLinkManagerStub--><rect fill="#FEFECE" filter="url(#fn96ylvxo5i13)" height="103.2188" id="MiddlewareCommLinkManagerStub" style="stroke: #A80036; stroke-width: 1.5;" width="248" x="1134" y="216.5"/><ellipse cx="1149" cy="232.5" fill="#ADD1B2" rx="11" ry="11" style="stroke: #A80036; stroke-width: 1.0;"/><path d="M1151.9688,238.1406 Q1151.3906,238.4375 1150.75,238.5781 Q1150.1094,238.7344 1149.4063,238.7344 Q1146.9063,238.7344 1145.5781,237.0938 Q1144.2656,235.4375 1144.2656,232.3125 Q1144.2656,229.1875 1145.5781,227.5313 Q1146.9063,225.875 1149.4063,225.875 Q1150.1094,225.875 1150.75,226.0313 Q1151.4063,226.1875 1151.9688,226.4844 L1151.9688,229.2031 Q1151.3438,228.625 1150.75,228.3594 Q1150.1563,228.0781 1149.5313,228.0781 Q1148.1875,228.0781 1147.5,229.1563 Q1146.8125,230.2188 1146.8125,232.3125 Q1146.8125,234.4063 1147.5,235.4844 Q1148.1875,236.5469 1149.5313,236.5469 Q1150.1563,236.5469 1150.75,236.2813 Q1151.3438,236 1151.9688,235.4219 L1151.9688,238.1406 Z "/><text fill="#000000" font-family="sans-serif" font-size="12" lengthAdjust="spacingAndGlyphs" textLength="216" x="1163" y="236.6543">MiddlewareCommLinkManagerStub</text><line style="stroke: #A80036; stroke-width: 1.5;" x1="1135" x2="1381" y1="248.5" y2="248.5"/><line style="stroke: #A80036; stroke-width: 1.5;" x1="1135" x2="1381" y1="256.5" y2="256.5"/><ellipse cx="1145" cy="284.3047" fill="#84BE84" rx="3" ry="3" style="stroke: #038048; stroke-width: 1.0;"/><text fill="#000000" font-family="sans-serif" font-size="11" lengthAdjust="spacingAndGlyphs" textLength="160" x="1154" y="287.5151">TrackData parseRfid(int rfid)</text><rect fill="#F24D5C" height="6" style="stroke: #C82930; stroke-width: 1.0;" width="6" x="1142" y="294.1094"/><text fill="#000000" font-family="sans-serif" font-size="11" lengthAdjust="spacingAndGlyphs" textLength="188" x="1154" y="300.3198">float calculateLocationDataPoint()</text><rect fill="#F24D5C" height="6" style="stroke: #C82930; stroke-width: 1.0;" width="6" x="1142" y="306.9141"/><text fill="#000000" font-family="sans-serif" font-size="11" lengthAdjust="spacingAndGlyphs" textLength="144" x="1154" y="313.1245">float calculateTrackData()</text><line style="stroke: #A80036; stroke-width: 1.0; stroke-dasharray: 1.0,2.0;" x1="1135" x2="1225" y1="270.9023" y2="270.9023"/><text fill="#000000" font-family="sans-serif" font-size="11" lengthAdjust="spacingAndGlyphs" textLength="66" x="1225" y="274.2104">Use Case 1</text><line style="stroke: #A80036; stroke-width: 1.0; stroke-dasharray: 1.0,2.0;" x1="1291" x2="1381" y1="270.9023" y2="270.9023"/><!--MD5=[de2e25996fbf99af10f04f2aae2d0ec2]
class MiddlewareCommLinkManagerImplementationTests--><rect fill="#FEFECE" filter="url(#fn96ylvxo5i13)" height="48" id="MiddlewareCommLinkManagerImplementationTests" style="stroke: #A80036; stroke-width: 1.5;" width="350" x="690" y="74"/><ellipse cx="705" cy="90" fill="#ADD1B2" rx="11" ry="11" style="stroke: #A80036; stroke-width: 1.0;"/><path d="M707.9688,95.6406 Q707.3906,95.9375 706.75,96.0781 Q706.1094,96.2344 705.4063,96.2344 Q702.9063,96.2344 701.5781,94.5938 Q700.2656,92.9375 700.2656,89.8125 Q700.2656,86.6875 701.5781,85.0313 Q702.9063,83.375 705.4063,83.375 Q706.1094,83.375 706.75,83.5313 Q707.4063,83.6875 707.9688,83.9844 L707.9688,86.7031 Q707.3438,86.125 706.75,85.8594 Q706.1563,85.5781 705.5313,85.5781 Q704.1875,85.5781 703.5,86.6563 Q702.8125,87.7188 702.8125,89.8125 Q702.8125,91.9063 703.5,92.9844 Q704.1875,94.0469 705.5313,94.0469 Q706.1563,94.0469 706.75,93.7813 Q707.3438,93.5 707.9688,92.9219 L707.9688,95.6406 Z "/><text fill="#000000" font-family="sans-serif" font-size="12" lengthAdjust="spacingAndGlyphs" textLength="318" x="719" y="94.1543">MiddlewareCommLinkManagerImplementationTests</text><line style="stroke: #A80036; stroke-width: 1.5;" x1="691" x2="1039" y1="106" y2="106"/><line style="stroke: #A80036; stroke-width: 1.5;" x1="691" x2="1039" y1="114" y2="114"/><!--MD5=[d266ff1a021c6b2abe780212ea4bc90b]
class MiddlewareCommDatabaseInterfaceStub--><rect fill="#FEFECE" filter="url(#fn96ylvxo5i13)" height="77.6094" id="MiddlewareCommDatabaseInterfaceStub" style="stroke: #A80036; stroke-width: 1.5;" width="286" x="767" y="229"/><ellipse cx="782" cy="245" fill="#ADD1B2" rx="11" ry="11" style="stroke: #A80036; stroke-width: 1.0;"/><path d="M784.9688,250.6406 Q784.3906,250.9375 783.75,251.0781 Q783.1094,251.2344 782.4063,251.2344 Q779.9063,251.2344 778.5781,249.5938 Q777.2656,247.9375 777.2656,244.8125 Q777.2656,241.6875 778.5781,240.0313 Q779.9063,238.375 782.4063,238.375 Q783.1094,238.375 783.75,238.5313 Q784.4063,238.6875 784.9688,238.9844 L784.9688,241.7031 Q784.3438,241.125 783.75,240.8594 Q783.1563,240.5781 782.5313,240.5781 Q781.1875,240.5781 780.5,241.6563 Q779.8125,242.7188 779.8125,244.8125 Q779.8125,246.9063 780.5,247.9844 Q781.1875,249.0469 782.5313,249.0469 Q783.1563,249.0469 783.75,248.7813 Q784.3438,248.5 784.9688,247.9219 L784.9688,250.6406 Z "/><text fill="#000000" font-family="sans-serif" font-size="12" lengthAdjust="spacingAndGlyphs" textLength="254" x="796" y="249.1543">MiddlewareCommDatabaseInterfaceStub</text><line style="stroke: #A80036; stroke-width: 1.5;" x1="768" x2="1052" y1="261" y2="261"/><line style="stroke: #A80036; stroke-width: 1.5;" x1="768" x2="1052" y1="269" y2="269"/><ellipse cx="778" cy="296.8047" fill="#84BE84" rx="3" ry="3" style="stroke: #038048; stroke-width: 1.0;"/><text fill="#000000" font-family="sans-serif" font-size="11" lengthAdjust="spacingAndGlyphs" textLength="122" x="787" y="300.0151">int checkCurrentRfid()</text><line style="stroke: #A80036; stroke-width: 1.0; stroke-dasharray: 1.0,2.0;" x1="768" x2="877" y1="283.4023" y2="283.4023"/><text fill="#000000" font-family="sans-serif" font-size="11" lengthAdjust="spacingAndGlyphs" textLength="66" x="877" y="286.7104">Use Case 1</text><line style="stroke: #A80036; stroke-width: 1.0; stroke-dasharray: 1.0,2.0;" x1="943" x2="1052" y1="283.4023" y2="283.4023"/><!--MD5=[002ff5c7151dea29dff01f25b38dca5f]
class MiddlewareCommDatabaseInterfaceImplementationTests--><rect fill="#FEFECE" filter="url(#fn96ylvxo5i13)" height="48" id="MiddlewareCommDatabaseInterfaceImplementationTests" style="stroke: #A80036; stroke-width: 1.5;" width="388" x="267" y="74"/><ellipse cx="282" cy="90" fill="#ADD1B2" rx="11" ry="11" style="stroke: #A80036; stroke-width: 1.0;"/><path d="M284.9688,95.6406 Q284.3906,95.9375 283.75,96.0781 Q283.1094,96.2344 282.4063,96.2344 Q279.9063,96.2344 278.5781,94.5938 Q277.2656,92.9375 277.2656,89.8125 Q277.2656,86.6875 278.5781,85.0313 Q279.9063,83.375 282.4063,83.375 Q283.1094,83.375 283.75,83.5313 Q284.4063,83.6875 284.9688,83.9844 L284.9688,86.7031 Q284.3438,86.125 283.75,85.8594 Q283.1563,85.5781 282.5313,85.5781 Q281.1875,85.5781 280.5,86.6563 Q279.8125,87.7188 279.8125,89.8125 Q279.8125,91.9063 280.5,92.9844 Q281.1875,94.0469 282.5313,94.0469 Q283.1563,94.0469 283.75,93.7813 Q284.3438,93.5 284.9688,92.9219 L284.9688,95.6406 Z "/><text fill="#000000" font-family="sans-serif" font-size="12" lengthAdjust="spacingAndGlyphs" textLength="356" x="296" y="94.1543">MiddlewareCommDatabaseInterfaceImplementationTests</text><line style="stroke: #A80036; stroke-width: 1.5;" x1="268" x2="654" y1="106" y2="106"/><line style="stroke: #A80036; stroke-width: 1.5;" x1="268" x2="654" y1="114" y2="114"/><!--MD5=[e3f4175480349659b88084d56af4bbf1]
class DatabaseCommInterfaceStub--><rect fill="#FEFECE" filter="url(#fn96ylvxo5i13)" height="128.8281" id="DatabaseCommInterfaceStub" style="stroke: #A80036; stroke-width: 1.5;" width="398" x="262" y="203.5"/><ellipse cx="364.75" cy="219.5" fill="#ADD1B2" rx="11" ry="11" style="stroke: #A80036; stroke-width: 1.0;"/><path d="M367.7188,225.1406 Q367.1406,225.4375 366.5,225.5781 Q365.8594,225.7344 365.1563,225.7344 Q362.6563,225.7344 361.3281,224.0938 Q360.0156,222.4375 360.0156,219.3125 Q360.0156,216.1875 361.3281,214.5313 Q362.6563,212.875 365.1563,212.875 Q365.8594,212.875 366.5,213.0313 Q367.1563,213.1875 367.7188,213.4844 L367.7188,216.2031 Q367.0938,215.625 366.5,215.3594 Q365.9063,215.0781 365.2813,215.0781 Q363.9375,215.0781 363.25,216.1563 Q362.5625,217.2188 362.5625,219.3125 Q362.5625,221.4063 363.25,222.4844 Q363.9375,223.5469 365.2813,223.5469 Q365.9063,223.5469 366.5,223.2813 Q367.0938,223 367.7188,222.4219 L367.7188,225.1406 Z "/><text fill="#000000" font-family="sans-serif" font-size="12" lengthAdjust="spacingAndGlyphs" textLength="184" x="385.25" y="223.6543">DatabaseCommInterfaceStub</text><line style="stroke: #A80036; stroke-width: 1.5;" x1="263" x2="659" y1="235.5" y2="235.5"/><line style="stroke: #A80036; stroke-width: 1.5;" x1="263" x2="659" y1="243.5" y2="243.5"/><ellipse cx="273" cy="271.3047" fill="#84BE84" rx="3" ry="3" style="stroke: #038048; stroke-width: 1.0;"/><text fill="#000000" font-family="sans-serif" font-size="11" font-style="italic" lengthAdjust="spacingAndGlyphs" textLength="156" x="282" y="274.5151">int receiveGetRfidRequest()</text><ellipse cx="273" cy="284.1094" fill="#84BE84" rx="3" ry="3" style="stroke: #038048; stroke-width: 1.0;"/><text fill="#000000" font-family="sans-serif" font-size="11" font-style="italic" lengthAdjust="spacingAndGlyphs" textLength="372" x="282" y="287.3198">LocationDataPoint receiveGetLocationDataPointRequest(int offset)</text><ellipse cx="273" cy="296.9141" fill="#84BE84" rx="3" ry="3" style="stroke: #038048; stroke-width: 1.0;"/><text fill="#000000" font-family="sans-serif" font-size="11" font-style="italic" lengthAdjust="spacingAndGlyphs" textLength="284" x="282" y="300.1245">TrackData receiveGetTrackDataRequest(int offset)</text><ellipse cx="273" cy="309.7188" fill="#84BE84" rx="3" ry="3" style="stroke: #038048; stroke-width: 1.0;"/><text fill="#000000" font-family="sans-serif" font-size="11" font-style="italic" lengthAdjust="spacingAndGlyphs" textLength="283" x="282" y="312.9292">void storeTrackDataRequest(TrackData trackData)</text><ellipse cx="273" cy="322.5234" fill="#84BE84" rx="3" ry="3" style="stroke: #038048; stroke-width: 1.0;"/><text fill="#000000" font-family="sans-serif" font-size="11" font-style="italic" lengthAdjust="spacingAndGlyphs" textLength="183" x="282" y="325.7339">String receiveGetModeRequest()</text><line style="stroke: #A80036; stroke-width: 1.0; stroke-dasharray: 1.0,2.0;" x1="263" x2="428" y1="257.9023" y2="257.9023"/><text fill="#000000" font-family="sans-serif" font-size="11" lengthAdjust="spacingAndGlyphs" textLength="66" x="428" y="261.2104">Use Case 1</text><line style="stroke: #A80036; stroke-width: 1.0; stroke-dasharray: 1.0,2.0;" x1="494" x2="659" y1="257.9023" y2="257.9023"/><!--MD5=[4d30ae449f97cbb7dd3c9db2a55e1ec0]
class TrackDataCalculatorTests--><rect fill="#FEFECE" filter="url(#fn96ylvxo5i13)" height="48" id="TrackDataCalculatorTests" style="stroke: #A80036; stroke-width: 1.5;" width="193" x="38.5" y="74"/><ellipse cx="53.5" cy="90" fill="#ADD1B2" rx="11" ry="11" style="stroke: #A80036; stroke-width: 1.0;"/><path d="M56.4688,95.6406 Q55.8906,95.9375 55.25,96.0781 Q54.6094,96.2344 53.9063,96.2344 Q51.4063,96.2344 50.0781,94.5938 Q48.7656,92.9375 48.7656,89.8125 Q48.7656,86.6875 50.0781,85.0313 Q51.4063,83.375 53.9063,83.375 Q54.6094,83.375 55.25,83.5313 Q55.9063,83.6875 56.4688,83.9844 L56.4688,86.7031 Q55.8438,86.125 55.25,85.8594 Q54.6563,85.5781 54.0313,85.5781 Q52.6875,85.5781 52,86.6563 Q51.3125,87.7188 51.3125,89.8125 Q51.3125,91.9063 52,92.9844 Q52.6875,94.0469 54.0313,94.0469 Q54.6563,94.0469 55.25,93.7813 Q55.8438,93.5 56.4688,92.9219 L56.4688,95.6406 Z "/><text fill="#000000" font-family="sans-serif" font-size="12" lengthAdjust="spacingAndGlyphs" textLength="161" x="67.5" y="94.1543">TrackDataCalculatorTests</text><line style="stroke: #A80036; stroke-width: 1.5;" x1="39.5" x2="230.5" y1="106" y2="106"/><line style="stroke: #A80036; stroke-width: 1.5;" x1="39.5" x2="230.5" y1="114" y2="114"/><!--MD5=[a6f6d6498f8ad0fd1149c5a16bc55d36]
reverse link MiddlewareCommInterface to MiddlewareCommInterfaceImplementation--><path d="M2537,157.27 C2537,174.31 2537,192.92 2537,209.88 " fill="none" id="MiddlewareCommInterface&lt;-MiddlewareCommInterfaceImplementation" style="stroke: #A80036; stroke-width: 1.0; stroke-dasharray: 7.0,7.0;"/><polygon fill="none" points="2530,157.12,2537,137.12,2544,157.12,2530,157.12" style="stroke: #A80036; stroke-width: 1.0;"/><!--MD5=[497c69cbff9542047faf5ca77780c8cb]
reverse link MiddlewareCommLinkManager to MiddlewareCommLinkManagerImplementation--><path d="M2019.17,154.73 C2027.22,168.25 2035.93,182.89 2044.32,196.98 " fill="none" id="MiddlewareCommLinkManager&lt;-MiddlewareCommLinkManagerImplementation" style="stroke: #A80036; stroke-width: 1.0; stroke-dasharray: 7.0,7.0;"/><polygon fill="none" points="2012.91,157.89,2008.69,137.12,2024.94,150.73,2012.91,157.89" style="stroke: #A80036; stroke-width: 1.0;"/><!--MD5=[8e69def7a54ed81078168d5d1d8487c9]
reverse link MiddlewareCommDatabaseInterface to MiddlewareCommDatabaseInterfaceImplementation--><path d="M1619.28,156.99 C1621.73,174.11 1624.4,192.82 1626.84,209.88 " fill="none" id="MiddlewareCommDatabaseInterface&lt;-MiddlewareCommDatabaseInterfaceImplementation" style="stroke: #A80036; stroke-width: 1.0; stroke-dasharray: 7.0,7.0;"/><polygon fill="none" points="1612.34,157.91,1616.45,137.12,1626.2,155.93,1612.34,157.91" style="stroke: #A80036; stroke-width: 1.0;"/><!--MD5=[07eefeefbddab6e40f3001aaadb4b811]
link MiddlewareCommLinkManagerImplementation to TrackDataCalculator--><path d="M1910.22,339.07 C1883.63,348.06 1856.29,356.4 1830,363 C1701.12,395.34 1555.08,417.37 1433.12,431.83 " fill="none" id="MiddlewareCommLinkManagerImplementation-&gt;TrackDataCalculator" style="stroke: #A80036; stroke-width: 1.0; stroke-dasharray: 7.0,7.0;"/><polygon fill="#A80036" points="1428.06,432.43,1437.4662,435.3495,1433.0257,431.845,1436.5302,427.4044,1428.06,432.43" style="stroke: #A80036; stroke-width: 1.0;"/><!--MD5=[7fa180022f459ef85d1acc77bc346e55]
link MiddlewareCommInterfaceImplementationTests to MiddlewareCommLinkManagerStub--><path d="M1241.6,122.01 C1244.19,144.86 1248.25,180.78 1251.68,211.15 " fill="none" id="MiddlewareCommInterfaceImplementationTests-&gt;MiddlewareCommLinkManagerStub" style="stroke: #A80036; stroke-width: 1.0; stroke-dasharray: 7.0,7.0;"/><polygon fill="#A80036" points="1252.27,216.36,1255.2161,206.9621,1251.699,211.3927,1247.2684,207.8756,1252.27,216.36" style="stroke: #A80036; stroke-width: 1.0;"/><!--MD5=[2fd20703f0701fa98274185fc4989096]
link MiddlewareCommLinkManagerImplementationTests to MiddlewareCommDatabaseInterfaceStub--><path d="M871.16,122.01 C878.15,148.11 889.71,191.26 898.41,223.71 " fill="none" id="MiddlewareCommLinkManagerImplementationTests-&gt;MiddlewareCommDatabaseInterfaceStub" style="stroke: #A80036; stroke-width: 1.0; stroke-dasharray: 7.0,7.0;"/><polygon fill="#A80036" points="899.78,228.83,901.3027,219.0996,898.4801,224.0019,893.5778,221.1794,899.78,228.83" style="stroke: #A80036; stroke-width: 1.0;"/><!--MD5=[52509b0176968f875548ba7b6727e5db]
link MiddlewareCommDatabaseInterfaceImplementationTests to DatabaseCommInterfaceStub--><path d="M461,122.01 C461,141.72 461,171.15 461,198.36 " fill="none" id="MiddlewareCommDatabaseInterfaceImplementationTests-&gt;DatabaseCommInterfaceStub" style="stroke: #A80036; stroke-width: 1.0; stroke-dasharray: 7.0,7.0;"/><polygon fill="#A80036" points="461,203.41,465,194.41,461,198.41,457,194.41,461,203.41" style="stroke: #A80036; stroke-width: 1.0;"/><!--MD5=[b7be4b6db61c888b240eee15c81cfa97]
link MiddlewareCommInterfaceImplementationTests to MiddlewareCommInterfaceImplementation--><path d="M1348.99,122.05 C1379.04,127.67 1411.67,133.17 1442,137 C1840.16,187.34 1950.19,114.76 2343,197 C2357.64,200.07 2372.67,203.99 2387.57,208.42 " fill="none" id="MiddlewareCommInterfaceImplementationTests-&gt;MiddlewareCommInterfaceImplementation" style="stroke: #A80036; stroke-width: 1.0; stroke-dasharray: 7.0,7.0;"/><polygon fill="#A80036" points="2392.62,209.94,2385.1577,203.5123,2387.8328,208.4967,2382.8485,211.1718,2392.62,209.94" style="stroke: #A80036; stroke-width: 1.0;"/><!--MD5=[103579e4ea01d223111d0dbd0a71b306]
link MiddlewareCommLinkManagerImplementationTests to MiddlewareCommLinkManagerImplementation--><path d="M970.3,122.05 C998.67,127.62 1029.41,133.09 1058,137 C1398.97,183.65 1490.95,138.02 1830,197 C1833.91,197.68 1837.85,198.39 1841.8,199.14 " fill="none" id="MiddlewareCommLinkManagerImplementationTests-&gt;MiddlewareCommLinkManagerImplementation" style="stroke: #A80036; stroke-width: 1.0; stroke-dasharray: 7.0,7.0;"/><polygon fill="#A80036" points="1846.83,200.1,1838.7292,194.4985,1841.9169,199.1717,1837.2438,202.3594,1846.83,200.1" style="stroke: #A80036; stroke-width: 1.0;"/><!--MD5=[43c3af790da194ec4c8637f83c23fde0]
link MiddlewareCommDatabaseInterfaceImplementationTests to MiddlewareCommDatabaseInterfaceImplementation--><path d="M577.87,122.04 C608.72,127.55 642.04,132.99 673,137 C1002.43,179.69 1092.19,132.24 1418,197 C1434.01,200.18 1450.49,204.16 1466.88,208.58 " fill="none" id="MiddlewareCommDatabaseInterfaceImplementationTests-&gt;MiddlewareCommDatabaseInterfaceImplementation" style="stroke: #A80036; stroke-width: 1.0; stroke-dasharray: 7.0,7.0;"/><polygon fill="#A80036" points="1471.96,209.97,1464.3265,203.7467,1467.1355,208.6568,1462.2254,211.4659,1471.96,209.97" style="stroke: #A80036; stroke-width: 1.0;"/><!--MD5=[b7f4c9447f2e238dc6bbfb46bebb205f]
link TrackDataCalculatorTests to TrackDataCalculator--><path d="M136.95,122.09 C142.74,174.71 164.84,303.55 245,363 C297.21,401.72 650.31,428.56 904.49,443.13 " fill="none" id="TrackDataCalculatorTests-&gt;TrackDataCalculator" style="stroke: #A80036; stroke-width: 1.0; stroke-dasharray: 7.0,7.0;"/><polygon fill="#A80036" points="909.73,443.43,900.9729,438.9231,904.7381,443.1448,900.5165,446.91,909.73,443.43" style="stroke: #A80036; stroke-width: 1.0;"/><!--MD5=[a1cf72e0ac52b4d843c7c634d1a14535]
reverse link MiddlewareCommLinkManager to MiddlewareCommLinkManagerStub--><path d="M1855.59,121.19 C1707.49,146.59 1481.23,186.11 1442,197 C1422.24,202.49 1401.64,209.25 1381.67,216.38 " fill="none" id="MiddlewareCommLinkManager&lt;-MiddlewareCommLinkManagerStub" style="stroke: #A80036; stroke-width: 1.0; stroke-dasharray: 7.0,7.0;"/><polygon fill="none" points="1854.6,114.26,1875.49,117.78,1856.96,128.06,1854.6,114.26" style="stroke: #A80036; stroke-width: 1.0;"/><!--MD5=[bcb237fc50e7c64a2e386cbf2da92530]
reverse link MiddlewareCommDatabaseInterface to MiddlewareCommDatabaseInterfaceStub--><path d="M1461.84,128.47 C1317.98,156.91 1121.28,195.86 1117,197 C1083.01,206.08 1046.47,217.77 1013.7,228.98 " fill="none" id="MiddlewareCommDatabaseInterface&lt;-MiddlewareCommDatabaseInterfaceStub" style="stroke: #A80036; stroke-width: 1.0; stroke-dasharray: 7.0,7.0;"/><polygon fill="none" points="1460.79,121.54,1481.77,124.53,1463.5,135.28,1460.79,121.54" style="stroke: #A80036; stroke-width: 1.0;"/><!--MD5=[fa0cd9796c8726c3d2fe3130d23a5e73]
@startuml Middleware02Packages_InternalDependencies


package edu.oakland.production.middleware02 {
    
}


package edu.oakland.production.middleware02 {
    interface MiddlewareCommInterface {
        __
        .. Use Case 1 ..
        {abstract} + TrackData requestRfid(int rfid)
    }
}


package edu.oakland.production.middleware02 {
    interface MiddlewareCommLinkManager {
        __
        .. Use Case 1 ..
        {abstract} + TrackData parseRfid(int rfid)
    }
}


package edu.oakland.production.middleware02 {
    interface MiddlewareCommDatabaseInterface {
        __
        .. Use Case 1 ..
        {abstract} + int checkCurrentRfid()
    }
}


package edu.oakland.production.middleware02 {
    class MiddlewareCommInterfaceImplementation {
        - MiddlewareCommLinkManager middlewareManager
        __
        + MiddlewareCommInterfaceImplementation(
        \tMiddlewareCommLinkManager middlewareManager)
        .. Use Case 1 ..
        + TrackData requestRfid(int rfid)
}


MiddlewareCommInterfaceImplementation .up.|> MiddlewareCommInterface

package edu.oakland.production.middleware02 {
    class MiddlewareCommLinkManagerImplementation {
        - MiddlewareCommDatabaseInterface middlewareCommDatabaseInterface
        __
        + MiddlewareCommLinkManagerImplementation(
        \tMiddlewareCommDatabaseInterface middlewareCommDatabaseInterface)
        .. Use Case 1 ..
        + TrackData parseRfid(int rfid)
        - float calculateLocationDataPoint()
        - float calculateTrackData()
    }
}


MiddlewareCommLinkManagerImplementation .up.|> MiddlewareCommLinkManager

package edu.oakland.production.middleware02 {
    class MiddlewareCommDatabaseInterfaceImplementation {
        + DatabaseCommInterface databaseCommInterface
        __
        + MiddlewareCommDatabaseInterfaceImplementation(
        \tDatabaseCommInterface databaseCommInterface)
        .. Use Case 1 ..
        + int checkCurrentRfid()
    }
}


MiddlewareCommDatabaseInterfaceImplementation .up.|> MiddlewareCommDatabaseInterface






package edu.oakland.helper.middleware02 {
    class TrackDataCalculator {
        {static} + float calculateSpeed(LocationDataPoint[] locationDataPoints)
        {static} + float calculateDirection(LocationDataPoint[] locationDataPoints)
        {static} - LocationDataPoint[] calculateRootMeanSquared(LocationDataPoint[] locationDataPoints)
    }
}

MiddlewareCommLinkManagerImplementation ..> TrackDataCalculator


package edu.oakland.test.middleware02 {
    
}


package edu.oakland.test.middleware02 {
    class MiddlewareCommInterfaceImplementationTests {

    }
}



package edu.oakland.test.middleware02 {
    class MiddlewareCommLinkManagerStub {
        __
        .. Use Case 1 ..
        + TrackData parseRfid(int rfid)
        - float calculateLocationDataPoint()
        - float calculateTrackData()
    }
}

MiddlewareCommInterfaceImplementationTests ..> MiddlewareCommLinkManagerStub

package edu.oakland.test.middleware02 {
    class MiddlewareCommLinkManagerImplementationTests {

    }
}



package edu.oakland.test.middleware02 {
    class MiddlewareCommDatabaseInterfaceStub {
        __
        .. Use Case 1 ..
        + int checkCurrentRfid()
    }
}

MiddlewareCommLinkManagerImplementationTests ..> MiddlewareCommDatabaseInterfaceStub

package edu.oakland.test.middleware02 {
    class MiddlewareCommDatabaseInterfaceImplementationTests {

    }
}



package edu.oakland.test.middleware02 {
    class DatabaseCommInterfaceStub {
        __
        .. Use Case 1 ..
        {abstract} + int receiveGetRfidRequest()
        {abstract} + LocationDataPoint receiveGetLocationDataPointRequest(int offset)
        {abstract} + TrackData receiveGetTrackDataRequest(int offset)
        {abstract} + void storeTrackDataRequest(TrackData trackData)
        {abstract} + String receiveGetModeRequest()
    }
}

MiddlewareCommDatabaseInterfaceImplementationTests ..> DatabaseCommInterfaceStub

package edu.oakland.test.middleware02 {
    class TrackDataCalculatorTests {

    }
}


MiddlewareCommInterfaceImplementationTests ..> MiddlewareCommInterfaceImplementation
MiddlewareCommLinkManagerImplementationTests ..> MiddlewareCommLinkManagerImplementation
MiddlewareCommDatabaseInterfaceImplementationTests ..> MiddlewareCommDatabaseInterfaceImplementation
TrackDataCalculatorTests ..> TrackDataCalculator
MiddlewareCommLinkManagerStub .up.|> MiddlewareCommLinkManager
MiddlewareCommDatabaseInterfaceStub .up.|> MiddlewareCommDatabaseInterface


package edu.oakland.helper.middleware02 {
    
}




@enduml

PlantUML version 1.2020.02(Sun Mar 01 10:22:07 GMT 2020)
(GPL source distribution)
Java Runtime: OpenJDK Runtime Environment
JVM: OpenJDK 64-Bit Server VM
Java Version: 11.0.9+11-Ubuntu-0ubuntu1
Operating System: Linux
Default Encoding: ANSI_X3.4-1968
Language: en
Country: US
--></g></svg>