<?xml version="1.0" encoding="UTF-8" standalone="no"?><svg xmlns="http://www.w3.org/2000/svg" xmlns:xlink="http://www.w3.org/1999/xlink" contentScriptType="application/ecmascript" contentStyleType="text/css" height="203px" preserveAspectRatio="none" style="width:556px;height:203px;" version="1.1" viewBox="0 0 556 203" width="556px" zoomAndPan="magnify"><defs><filter height="300%" id="f1cc46nq71dtmy" width="300%" x="-1" y="-1"><feGaussianBlur result="blurOut" stdDeviation="2.0"/><feColorMatrix in="blurOut" result="blurOut2" type="matrix" values="0 0 0 0 0 0 0 0 0 0 0 0 0 0 0 0 0 0 .4 0"/><feOffset dx="4.0" dy="4.0" in="blurOut2" result="blurOut3"/><feBlend in="SourceGraphic" in2="blurOut3" mode="normal"/></filter></defs><g><!--MD5=[fe59aae6f7bfe371a9c197ec1f7f843a]
cluster edu.oakland.production.display02--><polygon fill="#FFFFFF" filter="url(#f1cc46nq71dtmy)" points="22,24,295,24,302,46.2969,534,46.2969,534,191,22,191,22,24" style="stroke: #000000; stroke-width: 1.5;"/><line style="stroke: #000000; stroke-width: 1.5;" x1="22" x2="302" y1="46.2969" y2="46.2969"/><text fill="#000000" font-family="sans-serif" font-size="14" font-weight="bold" lengthAdjust="spacingAndGlyphs" textLength="267" x="26" y="38.9951">edu.oakland.production.display02</text><!--MD5=[a35092e604da7274febf4e2cf9a25087]
class DisplayCommInterfaceImplementation--><rect fill="#FEFECE" filter="url(#f1cc46nq71dtmy)" height="116.0234" id="DisplayCommInterfaceImplementation" style="stroke: #A80036; stroke-width: 1.5;" width="479" x="38.5" y="59"/><ellipse cx="156.25" cy="75" fill="#ADD1B2" rx="11" ry="11" style="stroke: #A80036; stroke-width: 1.0;"/><path d="M159.2188,80.6406 Q158.6406,80.9375 158,81.0781 Q157.3594,81.2344 156.6563,81.2344 Q154.1563,81.2344 152.8281,79.5938 Q151.5156,77.9375 151.5156,74.8125 Q151.5156,71.6875 152.8281,70.0313 Q154.1563,68.375 156.6563,68.375 Q157.3594,68.375 158,68.5313 Q158.6563,68.6875 159.2188,68.9844 L159.2188,71.7031 Q158.5938,71.125 158,70.8594 Q157.4063,70.5781 156.7813,70.5781 Q155.4375,70.5781 154.75,71.6563 Q154.0625,72.7188 154.0625,74.8125 Q154.0625,76.9063 154.75,77.9844 Q155.4375,79.0469 156.7813,79.0469 Q157.4063,79.0469 158,78.7813 Q158.5938,78.5 159.2188,77.9219 L159.2188,80.6406 Z "/><text fill="#000000" font-family="sans-serif" font-size="12" lengthAdjust="spacingAndGlyphs" textLength="235" x="176.75" y="79.1543">DisplayCommInterfaceImplementation</text><line style="stroke: #A80036; stroke-width: 1.5;" x1="39.5" x2="516.5" y1="91" y2="91"/><rect fill="none" height="6" style="stroke: #C82930; stroke-width: 1.0;" width="6" x="46.5" y="99"/><text fill="#000000" font-family="sans-serif" font-size="11" lengthAdjust="spacingAndGlyphs" textLength="225" x="58.5" y="105.2104">DisplayComm2WayInterface comm2Way</text><line style="stroke: #A80036; stroke-width: 1.5;" x1="39.5" x2="516.5" y1="111.8047" y2="111.8047"/><ellipse cx="49.5" cy="122.8047" fill="#84BE84" rx="3" ry="3" style="stroke: #038048; stroke-width: 1.0;"/><text fill="#000000" font-family="sans-serif" font-size="11" lengthAdjust="spacingAndGlyphs" textLength="453" x="58.5" y="126.0151">DisplayCommInterface(DisplayComm2WayInterface displayComm2WayInterface)</text><ellipse cx="49.5" cy="152.4141" fill="#84BE84" rx="3" ry="3" style="stroke: #038048; stroke-width: 1.0;"/><text fill="#000000" font-family="sans-serif" font-size="11" lengthAdjust="spacingAndGlyphs" textLength="240" x="58.5" y="155.6245">TrackData receiveRfidRequest(int rfidNum)</text><text fill="#000000" font-family="sans-serif" font-size="11" lengthAdjust="spacingAndGlyphs" textLength="0" x="62.5" y="168.4292"/><line style="stroke: #A80036; stroke-width: 1.0; stroke-dasharray: 1.0,2.0;" x1="39.5" x2="245" y1="139.0117" y2="139.0117"/><text fill="#000000" font-family="sans-serif" font-size="11" lengthAdjust="spacingAndGlyphs" textLength="66" x="245" y="142.3198">Use Case 1</text><line style="stroke: #A80036; stroke-width: 1.0; stroke-dasharray: 1.0,2.0;" x1="311" x2="516.5" y1="139.0117" y2="139.0117"/><!--MD5=[5d506a8f9d8025693b7453827fe041d7]
@startuml DisplayCommInterfaceImplementation

package edu.oakland.production.display02 {
    class DisplayCommInterfaceImplementation {
        - DisplayComm2WayInterface comm2Way
        __
        + DisplayCommInterface(DisplayComm2WayInterface displayComm2WayInterface)
        .. Use Case 1 ..
        + TrackData receiveRfidRequest(int rfidNum)
        
    }
}

@enduml

PlantUML version 1.2020.02(Sun Mar 01 10:22:07 GMT 2020)
(GPL source distribution)
Java Runtime: OpenJDK Runtime Environment
JVM: OpenJDK 64-Bit Server VM
Java Version: 11.0.9+11-Ubuntu-0ubuntu1
Operating System: Linux
Default Encoding: ANSI_X3.4-1968
Language: en
Country: US
--></g></svg>