<?xml version="1.0" encoding="UTF-8" standalone="no"?><svg xmlns="http://www.w3.org/2000/svg" xmlns:xlink="http://www.w3.org/1999/xlink" contentScriptType="application/ecmascript" contentStyleType="text/css" height="345px" preserveAspectRatio="none" style="width:394px;height:345px;" version="1.1" viewBox="0 0 394 345" width="394px" zoomAndPan="magnify"><defs><filter height="300%" id="f1urzrfmtu0mq0" width="300%" x="-1" y="-1"><feGaussianBlur result="blurOut" stdDeviation="2.0"/><feColorMatrix in="blurOut" result="blurOut2" type="matrix" values="0 0 0 0 0 0 0 0 0 0 0 0 0 0 0 0 0 0 .4 0"/><feOffset dx="4.0" dy="4.0" in="blurOut2" result="blurOut3"/><feBlend in="SourceGraphic" in2="blurOut3" mode="normal"/></filter></defs><g><!--MD5=[fe59aae6f7bfe371a9c197ec1f7f843a]
cluster edu.oakland.production.display02--><polygon fill="#FFFFFF" filter="url(#f1urzrfmtu0mq0)" points="22,24,295,24,302,46.2969,372,46.2969,372,333,22,333,22,24" style="stroke: #000000; stroke-width: 1.5;"/><line style="stroke: #000000; stroke-width: 1.5;" x1="22" x2="302" y1="46.2969" y2="46.2969"/><text fill="#000000" font-family="sans-serif" font-size="14" font-weight="bold" lengthAdjust="spacingAndGlyphs" textLength="267" x="26" y="38.9951">edu.oakland.production.display02</text><!--MD5=[a35092e604da7274febf4e2cf9a25087]
class DisplayCommInterfaceImplementation--><rect fill="#FEFECE" filter="url(#f1urzrfmtu0mq0)" height="120.0234" id="DisplayCommInterfaceImplementation" style="stroke: #A80036; stroke-width: 1.5;" width="317" x="38.5" y="197"/><ellipse cx="76" cy="213" fill="#ADD1B2" rx="11" ry="11" style="stroke: #A80036; stroke-width: 1.0;"/><path d="M78.9688,218.6406 Q78.3906,218.9375 77.75,219.0781 Q77.1094,219.2344 76.4063,219.2344 Q73.9063,219.2344 72.5781,217.5938 Q71.2656,215.9375 71.2656,212.8125 Q71.2656,209.6875 72.5781,208.0313 Q73.9063,206.375 76.4063,206.375 Q77.1094,206.375 77.75,206.5313 Q78.4063,206.6875 78.9688,206.9844 L78.9688,209.7031 Q78.3438,209.125 77.75,208.8594 Q77.1563,208.5781 76.5313,208.5781 Q75.1875,208.5781 74.5,209.6563 Q73.8125,210.7188 73.8125,212.8125 Q73.8125,214.9063 74.5,215.9844 Q75.1875,217.0469 76.5313,217.0469 Q77.1563,217.0469 77.75,216.7813 Q78.3438,216.5 78.9688,215.9219 L78.9688,218.6406 Z "/><text fill="#000000" font-family="sans-serif" font-size="12" lengthAdjust="spacingAndGlyphs" textLength="235" x="95" y="217.1543">DisplayCommInterfaceImplementation</text><line style="stroke: #A80036; stroke-width: 1.5;" x1="39.5" x2="354.5" y1="229" y2="229"/><line style="stroke: #A80036; stroke-width: 1.5;" x1="39.5" x2="354.5" y1="237" y2="237"/><ellipse cx="49.5" cy="264.8047" fill="#84BE84" rx="3" ry="3" style="stroke: #038048; stroke-width: 1.0;"/><text fill="#000000" font-family="sans-serif" font-size="11" font-style="italic" lengthAdjust="spacingAndGlyphs" textLength="242" x="58.5" y="268.0151">TrackData receiveRfidRequest(int rfidNum)</text><ellipse cx="49.5" cy="277.6094" fill="#84BE84" rx="3" ry="3" style="stroke: #038048; stroke-width: 1.0;"/><text fill="#000000" font-family="sans-serif" font-size="11" font-style="italic" lengthAdjust="spacingAndGlyphs" textLength="291" x="58.5" y="280.8198">TrackData passToComm2WayInterface(int rfidNum)</text><line style="stroke: #A80036; stroke-width: 1.0; stroke-dasharray: 1.0,2.0;" x1="39.5" x2="164" y1="251.4023" y2="251.4023"/><text fill="#000000" font-family="sans-serif" font-size="11" lengthAdjust="spacingAndGlyphs" textLength="66" x="164" y="254.7104">Use Case 1</text><line style="stroke: #A80036; stroke-width: 1.0; stroke-dasharray: 1.0,2.0;" x1="230" x2="354.5" y1="251.4023" y2="251.4023"/><text fill="#000000" font-family="sans-serif" font-size="11" lengthAdjust="spacingAndGlyphs" textLength="0" x="48.5" y="310.4292"/><line style="stroke: #A80036; stroke-width: 1.0; stroke-dasharray: 1.0,2.0;" x1="39.5" x2="164" y1="293.8164" y2="293.8164"/><text fill="#000000" font-family="sans-serif" font-size="11" lengthAdjust="spacingAndGlyphs" textLength="66" x="164" y="297.1245">Use Case 2</text><line style="stroke: #A80036; stroke-width: 1.0; stroke-dasharray: 1.0,2.0;" x1="230" x2="354.5" y1="293.8164" y2="293.8164"/><!--MD5=[c8d1e3134fecb0c949fd2a76cc0bb992]
class DisplayCommInterface--><rect fill="#FEFECE" filter="url(#f1urzrfmtu0mq0)" height="77.6094" id="DisplayCommInterface" style="stroke: #A80036; stroke-width: 1.5;" width="268" x="63" y="59"/><ellipse cx="123.25" cy="75" fill="#B4A7E5" rx="11" ry="11" style="stroke: #A80036; stroke-width: 1.0;"/><path d="M119.1719,70.7656 L119.1719,68.6094 L126.5625,68.6094 L126.5625,70.7656 L124.0938,70.7656 L124.0938,78.8438 L126.5625,78.8438 L126.5625,81 L119.1719,81 L119.1719,78.8438 L121.6406,78.8438 L121.6406,70.7656 L119.1719,70.7656 Z "/><text fill="#000000" font-family="sans-serif" font-size="12" font-style="italic" lengthAdjust="spacingAndGlyphs" textLength="139" x="143.75" y="79.1543">DisplayCommInterface</text><line style="stroke: #A80036; stroke-width: 1.5;" x1="64" x2="330" y1="91" y2="91"/><line style="stroke: #A80036; stroke-width: 1.5;" x1="64" x2="330" y1="99" y2="99"/><ellipse cx="74" cy="126.8047" fill="#84BE84" rx="3" ry="3" style="stroke: #038048; stroke-width: 1.0;"/><text fill="#000000" font-family="sans-serif" font-size="11" font-style="italic" lengthAdjust="spacingAndGlyphs" textLength="242" x="83" y="130.0151">TrackData receiveRfidRequest(int rfidNum)</text><line style="stroke: #A80036; stroke-width: 1.0; stroke-dasharray: 1.0,2.0;" x1="64" x2="164" y1="113.4023" y2="113.4023"/><text fill="#000000" font-family="sans-serif" font-size="11" lengthAdjust="spacingAndGlyphs" textLength="66" x="164" y="116.7104">Use Case 1</text><line style="stroke: #A80036; stroke-width: 1.0; stroke-dasharray: 1.0,2.0;" x1="230" x2="330" y1="113.4023" y2="113.4023"/><!--MD5=[77bc37423dd8876786830fad4054e33b]
reverse link DisplayCommInterface to DisplayCommInterfaceImplementation--><path d="M197,157.15 C197,170.13 197,183.89 197,196.9 " fill="none" id="DisplayCommInterface&lt;-DisplayCommInterfaceImplementation" style="stroke: #A80036; stroke-width: 1.0; stroke-dasharray: 7.0,7.0;"/><polygon fill="none" points="190,157.01,197,137.01,204,157.01,190,157.01" style="stroke: #A80036; stroke-width: 1.0;"/><!--MD5=[0a498ac726bc5df8f15879c0e45985e7]
@startuml DisplayCommInterfaceImplementation_Closure


package edu.oakland.production.display02 {
    class DisplayCommInterfaceImplementation {
        __
        .. Use Case 1 ..
        {abstract} + TrackData receiveRfidRequest(int rfidNum)
        {abstract} + TrackData passToComm2WayInterface(int rfidNum)
        .. Use Case 2 ..

    }
}




package edu.oakland.production.display02 {
    interface DisplayCommInterface {
        __
        .. Use Case 1 ..
        {abstract} + TrackData receiveRfidRequest(int rfidNum)
    }
}






DisplayCommInterfaceImplementation .up.|> DisplayCommInterface





@enduml

PlantUML version 1.2020.02(Sun Mar 01 10:22:07 GMT 2020)
(GPL source distribution)
Java Runtime: OpenJDK Runtime Environment
JVM: OpenJDK 64-Bit Server VM
Java Version: 11.0.9+11-Ubuntu-0ubuntu1
Operating System: Linux
Default Encoding: ANSI_X3.4-1968
Language: en
Country: US
--></g></svg>