<?xml version="1.0" encoding="UTF-8" standalone="no"?><svg xmlns="http://www.w3.org/2000/svg" xmlns:xlink="http://www.w3.org/1999/xlink" contentScriptType="application/ecmascript" contentStyleType="text/css" height="328px" preserveAspectRatio="none" style="width:570px;height:328px;" version="1.1" viewBox="0 0 570 328" width="570px" zoomAndPan="magnify"><defs><filter height="300%" id="f52knrgny8l43" width="300%" x="-1" y="-1"><feGaussianBlur result="blurOut" stdDeviation="2.0"/><feColorMatrix in="blurOut" result="blurOut2" type="matrix" values="0 0 0 0 0 0 0 0 0 0 0 0 0 0 0 0 0 0 .4 0"/><feOffset dx="4.0" dy="4.0" in="blurOut2" result="blurOut3"/><feBlend in="SourceGraphic" in2="blurOut3" mode="normal"/></filter></defs><g><!--MD5=[fe59aae6f7bfe371a9c197ec1f7f843a]
cluster edu.oakland.production.display02--><polygon fill="#FFFFFF" filter="url(#f52knrgny8l43)" points="22,24,295,24,302,46.2969,548,46.2969,548,316,22,316,22,24" style="stroke: #000000; stroke-width: 1.5;"/><line style="stroke: #000000; stroke-width: 1.5;" x1="22" x2="302" y1="46.2969" y2="46.2969"/><text fill="#000000" font-family="sans-serif" font-size="14" font-weight="bold" lengthAdjust="spacingAndGlyphs" textLength="267" x="26" y="38.9951">edu.oakland.production.display02</text><!--MD5=[46657c2900260d4d40350fe3f8c544df]
class DisplayComm2WayInterfaceImplementation--><rect fill="#FEFECE" filter="url(#f52knrgny8l43)" height="103.2188" id="DisplayComm2WayInterfaceImplementation" style="stroke: #A80036; stroke-width: 1.5;" width="494" x="38" y="197"/><ellipse cx="146.75" cy="213" fill="#ADD1B2" rx="11" ry="11" style="stroke: #A80036; stroke-width: 1.0;"/><path d="M149.7188,218.6406 Q149.1406,218.9375 148.5,219.0781 Q147.8594,219.2344 147.1563,219.2344 Q144.6563,219.2344 143.3281,217.5938 Q142.0156,215.9375 142.0156,212.8125 Q142.0156,209.6875 143.3281,208.0313 Q144.6563,206.375 147.1563,206.375 Q147.8594,206.375 148.5,206.5313 Q149.1563,206.6875 149.7188,206.9844 L149.7188,209.7031 Q149.0938,209.125 148.5,208.8594 Q147.9063,208.5781 147.2813,208.5781 Q145.9375,208.5781 145.25,209.6563 Q144.5625,210.7188 144.5625,212.8125 Q144.5625,214.9063 145.25,215.9844 Q145.9375,217.0469 147.2813,217.0469 Q147.9063,217.0469 148.5,216.7813 Q149.0938,216.5 149.7188,215.9219 L149.7188,218.6406 Z "/><text fill="#000000" font-family="sans-serif" font-size="12" lengthAdjust="spacingAndGlyphs" textLength="268" x="167.25" y="217.1543">DisplayComm2WayInterfaceImplementation</text><line style="stroke: #A80036; stroke-width: 1.5;" x1="39" x2="531" y1="229" y2="229"/><rect fill="none" height="6" style="stroke: #C82930; stroke-width: 1.0;" width="6" x="46" y="237"/><text fill="#000000" font-family="sans-serif" font-size="11" lengthAdjust="spacingAndGlyphs" textLength="215" x="58" y="243.2104">DisplayCommManager commManager</text><line style="stroke: #A80036; stroke-width: 1.5;" x1="39" x2="531" y1="249.8047" y2="249.8047"/><ellipse cx="49" cy="260.8047" fill="#84BE84" rx="3" ry="3" style="stroke: #038048; stroke-width: 1.0;"/><text fill="#000000" font-family="sans-serif" font-size="11" lengthAdjust="spacingAndGlyphs" textLength="468" x="58" y="264.0151">DisplayComm2WayInterfaceImplementation(DisplayCommManager commManager)</text><ellipse cx="49" cy="290.4141" fill="#84BE84" rx="3" ry="3" style="stroke: #038048; stroke-width: 1.0;"/><text fill="#000000" font-family="sans-serif" font-size="11" lengthAdjust="spacingAndGlyphs" textLength="227" x="58" y="293.6245">TrackData passRfidRequest(int rfidNum)</text><line style="stroke: #A80036; stroke-width: 1.0; stroke-dasharray: 1.0,2.0;" x1="39" x2="252" y1="277.0117" y2="277.0117"/><text fill="#000000" font-family="sans-serif" font-size="11" lengthAdjust="spacingAndGlyphs" textLength="66" x="252" y="280.3198">Use Case 1</text><line style="stroke: #A80036; stroke-width: 1.0; stroke-dasharray: 1.0,2.0;" x1="318" x2="531" y1="277.0117" y2="277.0117"/><!--MD5=[f6b51b5f862da5ce226c62e411e84628]
class DisplayComm2WayInterface--><rect fill="#FEFECE" filter="url(#f52knrgny8l43)" height="77.6094" id="DisplayComm2WayInterface" style="stroke: #A80036; stroke-width: 1.5;" width="252" x="159" y="59"/><ellipse cx="194.7" cy="75" fill="#B4A7E5" rx="11" ry="11" style="stroke: #A80036; stroke-width: 1.0;"/><path d="M190.6219,70.7656 L190.6219,68.6094 L198.0125,68.6094 L198.0125,70.7656 L195.5438,70.7656 L195.5438,78.8438 L198.0125,78.8438 L198.0125,81 L190.6219,81 L190.6219,78.8438 L193.0906,78.8438 L193.0906,70.7656 L190.6219,70.7656 Z "/><text fill="#000000" font-family="sans-serif" font-size="12" font-style="italic" lengthAdjust="spacingAndGlyphs" textLength="174" x="213.3" y="79.1543">DisplayComm2WayInterface</text><line style="stroke: #A80036; stroke-width: 1.5;" x1="160" x2="410" y1="91" y2="91"/><line style="stroke: #A80036; stroke-width: 1.5;" x1="160" x2="410" y1="99" y2="99"/><ellipse cx="170" cy="126.8047" fill="#84BE84" rx="3" ry="3" style="stroke: #038048; stroke-width: 1.0;"/><text fill="#000000" font-family="sans-serif" font-size="11" font-style="italic" lengthAdjust="spacingAndGlyphs" textLength="226" x="179" y="130.0151">TrackData passRfidRequest(int rfidNum)</text><line style="stroke: #A80036; stroke-width: 1.0; stroke-dasharray: 1.0,2.0;" x1="160" x2="252" y1="113.4023" y2="113.4023"/><text fill="#000000" font-family="sans-serif" font-size="11" lengthAdjust="spacingAndGlyphs" textLength="66" x="252" y="116.7104">Use Case 1</text><line style="stroke: #A80036; stroke-width: 1.0; stroke-dasharray: 1.0,2.0;" x1="318" x2="410" y1="113.4023" y2="113.4023"/><!--MD5=[4e991cf787e933c55089f97eae394828]
reverse link DisplayComm2WayInterface to DisplayComm2WayInterfaceImplementation--><path d="M285,157.5 C285,170.48 285,184.14 285,196.79 " fill="none" id="DisplayComm2WayInterface&lt;-DisplayComm2WayInterfaceImplementation" style="stroke: #A80036; stroke-width: 1.0; stroke-dasharray: 7.0,7.0;"/><polygon fill="none" points="278,157.24,285,137.24,292,157.24,278,157.24" style="stroke: #A80036; stroke-width: 1.0;"/><!--MD5=[dc1a3078eb808df36655e697c2b5393c]
@startuml DisplayComm2WayInterfaceImplementation_Closure


package edu.oakland.production.display02 {
    class DisplayComm2WayInterfaceImplementation {
        - DisplayCommManager commManager
        __
        + DisplayComm2WayInterfaceImplementation(DisplayCommManager commManager)
        .. Use Case 1 ..
        + TrackData passRfidRequest(int rfidNum)
    }
}




package edu.oakland.production.display02 {
    interface DisplayComm2WayInterface {
        __
        .. Use Case 1 ..
        {abstract} + TrackData passRfidRequest(int rfidNum)
    }
}






DisplayComm2WayInterfaceImplementation .up.|> DisplayComm2WayInterface





@enduml

PlantUML version 1.2020.02(Sun Mar 01 10:22:07 GMT 2020)
(GPL source distribution)
Java Runtime: OpenJDK Runtime Environment
JVM: OpenJDK 64-Bit Server VM
Java Version: 11.0.9+11-Ubuntu-0ubuntu1
Operating System: Linux
Default Encoding: ANSI_X3.4-1968
Language: en
Country: US
--></g></svg>