<?xml version="1.0" encoding="UTF-8" standalone="no"?><svg xmlns="http://www.w3.org/2000/svg" xmlns:xlink="http://www.w3.org/1999/xlink" contentScriptType="application/ecmascript" contentStyleType="text/css" height="190px" preserveAspectRatio="none" style="width:570px;height:190px;" version="1.1" viewBox="0 0 570 190" width="570px" zoomAndPan="magnify"><defs><filter height="300%" id="f1p2nm49zpxh3n" width="300%" x="-1" y="-1"><feGaussianBlur result="blurOut" stdDeviation="2.0"/><feColorMatrix in="blurOut" result="blurOut2" type="matrix" values="0 0 0 0 0 0 0 0 0 0 0 0 0 0 0 0 0 0 .4 0"/><feOffset dx="4.0" dy="4.0" in="blurOut2" result="blurOut3"/><feBlend in="SourceGraphic" in2="blurOut3" mode="normal"/></filter></defs><g><!--MD5=[fe59aae6f7bfe371a9c197ec1f7f843a]
cluster edu.oakland.production.display02--><polygon fill="#FFFFFF" filter="url(#f1p2nm49zpxh3n)" points="22,24,295,24,302,46.2969,548,46.2969,548,178,22,178,22,24" style="stroke: #000000; stroke-width: 1.5;"/><line style="stroke: #000000; stroke-width: 1.5;" x1="22" x2="302" y1="46.2969" y2="46.2969"/><text fill="#000000" font-family="sans-serif" font-size="14" font-weight="bold" lengthAdjust="spacingAndGlyphs" textLength="267" x="26" y="38.9951">edu.oakland.production.display02</text><!--MD5=[46657c2900260d4d40350fe3f8c544df]
class DisplayComm2WayInterfaceImplementation--><rect fill="#FEFECE" filter="url(#f1p2nm49zpxh3n)" height="103.2188" id="DisplayComm2WayInterfaceImplementation" style="stroke: #A80036; stroke-width: 1.5;" width="494" x="38" y="59"/><ellipse cx="146.75" cy="75" fill="#ADD1B2" rx="11" ry="11" style="stroke: #A80036; stroke-width: 1.0;"/><path d="M149.7188,80.6406 Q149.1406,80.9375 148.5,81.0781 Q147.8594,81.2344 147.1563,81.2344 Q144.6563,81.2344 143.3281,79.5938 Q142.0156,77.9375 142.0156,74.8125 Q142.0156,71.6875 143.3281,70.0313 Q144.6563,68.375 147.1563,68.375 Q147.8594,68.375 148.5,68.5313 Q149.1563,68.6875 149.7188,68.9844 L149.7188,71.7031 Q149.0938,71.125 148.5,70.8594 Q147.9063,70.5781 147.2813,70.5781 Q145.9375,70.5781 145.25,71.6563 Q144.5625,72.7188 144.5625,74.8125 Q144.5625,76.9063 145.25,77.9844 Q145.9375,79.0469 147.2813,79.0469 Q147.9063,79.0469 148.5,78.7813 Q149.0938,78.5 149.7188,77.9219 L149.7188,80.6406 Z "/><text fill="#000000" font-family="sans-serif" font-size="12" lengthAdjust="spacingAndGlyphs" textLength="268" x="167.25" y="79.1543">DisplayComm2WayInterfaceImplementation</text><line style="stroke: #A80036; stroke-width: 1.5;" x1="39" x2="531" y1="91" y2="91"/><rect fill="none" height="6" style="stroke: #C82930; stroke-width: 1.0;" width="6" x="46" y="99"/><text fill="#000000" font-family="sans-serif" font-size="11" lengthAdjust="spacingAndGlyphs" textLength="215" x="58" y="105.2104">DisplayCommManager commManager</text><line style="stroke: #A80036; stroke-width: 1.5;" x1="39" x2="531" y1="111.8047" y2="111.8047"/><ellipse cx="49" cy="122.8047" fill="#84BE84" rx="3" ry="3" style="stroke: #038048; stroke-width: 1.0;"/><text fill="#000000" font-family="sans-serif" font-size="11" lengthAdjust="spacingAndGlyphs" textLength="468" x="58" y="126.0151">DisplayComm2WayInterfaceImplementation(DisplayCommManager commManager)</text><ellipse cx="49" cy="152.4141" fill="#84BE84" rx="3" ry="3" style="stroke: #038048; stroke-width: 1.0;"/><text fill="#000000" font-family="sans-serif" font-size="11" lengthAdjust="spacingAndGlyphs" textLength="227" x="58" y="155.6245">TrackData passRfidRequest(int rfidNum)</text><line style="stroke: #A80036; stroke-width: 1.0; stroke-dasharray: 1.0,2.0;" x1="39" x2="252" y1="139.0117" y2="139.0117"/><text fill="#000000" font-family="sans-serif" font-size="11" lengthAdjust="spacingAndGlyphs" textLength="66" x="252" y="142.3198">Use Case 1</text><line style="stroke: #A80036; stroke-width: 1.0; stroke-dasharray: 1.0,2.0;" x1="318" x2="531" y1="139.0117" y2="139.0117"/><!--MD5=[e3816fc4de898f7e388dc6a6a2a2f235]
@startuml DisplayComm2WayInterfaceImplementation

package edu.oakland.production.display02 {
    class DisplayComm2WayInterfaceImplementation {
        - DisplayCommManager commManager
        __
        + DisplayComm2WayInterfaceImplementation(DisplayCommManager commManager)
        .. Use Case 1 ..
        + TrackData passRfidRequest(int rfidNum)
    }
}

@enduml

PlantUML version 1.2020.02(Sun Mar 01 10:22:07 GMT 2020)
(GPL source distribution)
Java Runtime: OpenJDK Runtime Environment
JVM: OpenJDK 64-Bit Server VM
Java Version: 11.0.9+11-Ubuntu-0ubuntu1
Operating System: Linux
Default Encoding: ANSI_X3.4-1968
Language: en
Country: US
--></g></svg>