<?xml version="1.0" encoding="UTF-8" standalone="no"?><svg xmlns="http://www.w3.org/2000/svg" xmlns:xlink="http://www.w3.org/1999/xlink" contentScriptType="application/ecmascript" contentStyleType="text/css" height="525px" preserveAspectRatio="none" style="width:733px;height:525px;" version="1.1" viewBox="0 0 733 525" width="733px" zoomAndPan="magnify"><defs><filter height="300%" id="flnqm9nk2u2c9" width="300%" x="-1" y="-1"><feGaussianBlur result="blurOut" stdDeviation="2.0"/><feColorMatrix in="blurOut" result="blurOut2" type="matrix" values="0 0 0 0 0 0 0 0 0 0 0 0 0 0 0 0 0 0 .4 0"/><feOffset dx="4.0" dy="4.0" in="blurOut2" result="blurOut3"/><feBlend in="SourceGraphic" in2="blurOut3" mode="normal"/></filter></defs><g><!--MD5=[850b37b0b8d882ee2cad74ae2a956f48]
cluster edu.oakland.helper.admin--><polygon fill="#FFFFFF" filter="url(#flnqm9nk2u2c9)" points="22,24,232,24,239,46.2969,711,46.2969,711,513,22,513,22,24" style="stroke: #000000; stroke-width: 1.5;"/><line style="stroke: #000000; stroke-width: 1.5;" x1="22" x2="239" y1="46.2969" y2="46.2969"/><text fill="#000000" font-family="sans-serif" font-size="14" font-weight="bold" lengthAdjust="spacingAndGlyphs" textLength="204" x="26" y="38.9951">edu.oakland.helper.admin</text><!--MD5=[478f5cd13d8e163685b267303d2bfb71]
class LocationDataPoint--><rect fill="#FEFECE" filter="url(#flnqm9nk2u2c9)" height="176.0469" id="LocationDataPoint" style="stroke: #A80036; stroke-width: 1.5;" width="352" x="38" y="59"/><ellipse cx="152.25" cy="75" fill="#ADD1B2" rx="11" ry="11" style="stroke: #A80036; stroke-width: 1.0;"/><path d="M155.2188,80.6406 Q154.6406,80.9375 154,81.0781 Q153.3594,81.2344 152.6563,81.2344 Q150.1563,81.2344 148.8281,79.5938 Q147.5156,77.9375 147.5156,74.8125 Q147.5156,71.6875 148.8281,70.0313 Q150.1563,68.375 152.6563,68.375 Q153.3594,68.375 154,68.5313 Q154.6563,68.6875 155.2188,68.9844 L155.2188,71.7031 Q154.5938,71.125 154,70.8594 Q153.4063,70.5781 152.7813,70.5781 Q151.4375,70.5781 150.75,71.6563 Q150.0625,72.7188 150.0625,74.8125 Q150.0625,76.9063 150.75,77.9844 Q151.4375,79.0469 152.7813,79.0469 Q153.4063,79.0469 154,78.7813 Q154.5938,78.5 155.2188,77.9219 L155.2188,80.6406 Z "/><text fill="#000000" font-family="sans-serif" font-size="12" lengthAdjust="spacingAndGlyphs" textLength="115" x="172.75" y="79.1543">LocationDataPoint</text><line style="stroke: #A80036; stroke-width: 1.5;" x1="39" x2="389" y1="91" y2="91"/><rect fill="none" height="6" style="stroke: #C82930; stroke-width: 1.0;" width="6" x="46" y="99"/><text fill="#000000" font-family="sans-serif" font-size="11" lengthAdjust="spacingAndGlyphs" textLength="43" x="58" y="105.2104">float lat</text><rect fill="none" height="6" style="stroke: #C82930; stroke-width: 1.0;" width="6" x="46" y="111.8047"/><text fill="#000000" font-family="sans-serif" font-size="11" lengthAdjust="spacingAndGlyphs" textLength="46" x="58" y="118.0151">float lng</text><rect fill="none" height="6" style="stroke: #C82930; stroke-width: 1.0;" width="6" x="46" y="124.6094"/><text fill="#000000" font-family="sans-serif" font-size="11" lengthAdjust="spacingAndGlyphs" textLength="112" x="58" y="130.8198">LocalDateTime time</text><line style="stroke: #A80036; stroke-width: 1.5;" x1="39" x2="389" y1="137.4141" y2="137.4141"/><ellipse cx="49" cy="148.4141" fill="#84BE84" rx="3" ry="3" style="stroke: #038048; stroke-width: 1.0;"/><text fill="#000000" font-family="sans-serif" font-size="11" lengthAdjust="spacingAndGlyphs" textLength="326" x="58" y="151.6245">LocationDataPoint(float lat, float lng, LocalDateTime time)</text><ellipse cx="49" cy="161.2188" fill="#84BE84" rx="3" ry="3" style="stroke: #038048; stroke-width: 1.0;"/><text fill="#000000" font-family="sans-serif" font-size="11" lengthAdjust="spacingAndGlyphs" textLength="72" x="58" y="164.4292">float getLat()</text><ellipse cx="49" cy="174.0234" fill="#84BE84" rx="3" ry="3" style="stroke: #038048; stroke-width: 1.0;"/><text fill="#000000" font-family="sans-serif" font-size="11" lengthAdjust="spacingAndGlyphs" textLength="75" x="58" y="177.2339">float getLng()</text><ellipse cx="49" cy="186.8281" fill="#84BE84" rx="3" ry="3" style="stroke: #038048; stroke-width: 1.0;"/><text fill="#000000" font-family="sans-serif" font-size="11" lengthAdjust="spacingAndGlyphs" textLength="141" x="58" y="190.0386">LocalDateTime getTime()</text><rect fill="#F24D5C" height="6" style="stroke: #C82930; stroke-width: 1.0;" width="6" x="46" y="196.6328"/><text fill="#000000" font-family="sans-serif" font-size="11" lengthAdjust="spacingAndGlyphs" textLength="151" x="58" y="202.8433">boolean latIsValid(float lat)</text><rect fill="#F24D5C" height="6" style="stroke: #C82930; stroke-width: 1.0;" width="6" x="46" y="209.4375"/><text fill="#000000" font-family="sans-serif" font-size="11" lengthAdjust="spacingAndGlyphs" textLength="154" x="58" y="215.6479">boolean lngIsValid(float lat)</text><rect fill="#F24D5C" height="6" style="stroke: #C82930; stroke-width: 1.0;" width="6" x="46" y="222.2422"/><text fill="#000000" font-family="sans-serif" font-size="11" lengthAdjust="spacingAndGlyphs" textLength="231" x="58" y="228.4526">boolean timeIsValid(LocalDateTime time)</text><!--MD5=[39a9b949d1787538902e1dfaac894da1]
class Satellite--><rect fill="#FEFECE" filter="url(#flnqm9nk2u2c9)" height="137.6328" id="Satellite" style="stroke: #A80036; stroke-width: 1.5;" width="270" x="425" y="78"/><ellipse cx="530.25" cy="94" fill="#ADD1B2" rx="11" ry="11" style="stroke: #A80036; stroke-width: 1.0;"/><path d="M533.2188,99.6406 Q532.6406,99.9375 532,100.0781 Q531.3594,100.2344 530.6563,100.2344 Q528.1563,100.2344 526.8281,98.5938 Q525.5156,96.9375 525.5156,93.8125 Q525.5156,90.6875 526.8281,89.0313 Q528.1563,87.375 530.6563,87.375 Q531.3594,87.375 532,87.5313 Q532.6563,87.6875 533.2188,87.9844 L533.2188,90.7031 Q532.5938,90.125 532,89.8594 Q531.4063,89.5781 530.7813,89.5781 Q529.4375,89.5781 528.75,90.6563 Q528.0625,91.7188 528.0625,93.8125 Q528.0625,95.9063 528.75,96.9844 Q529.4375,98.0469 530.7813,98.0469 Q531.4063,98.0469 532,97.7813 Q532.5938,97.5 533.2188,96.9219 L533.2188,99.6406 Z "/><text fill="#000000" font-family="sans-serif" font-size="12" lengthAdjust="spacingAndGlyphs" textLength="51" x="550.75" y="98.1543">Satellite</text><line style="stroke: #A80036; stroke-width: 1.5;" x1="426" x2="694" y1="110" y2="110"/><rect fill="none" height="6" style="stroke: #C82930; stroke-width: 1.0;" width="6" x="433" y="118"/><text fill="#000000" font-family="sans-serif" font-size="11" lengthAdjust="spacingAndGlyphs" textLength="116" x="445" y="124.2104">String satelliteName</text><rect fill="none" height="6" style="stroke: #C82930; stroke-width: 1.0;" width="6" x="433" y="130.8047"/><text fill="#000000" font-family="sans-serif" font-size="11" lengthAdjust="spacingAndGlyphs" textLength="66" x="445" y="137.0151">int strength</text><line style="stroke: #A80036; stroke-width: 1.5;" x1="426" x2="694" y1="143.6094" y2="143.6094"/><ellipse cx="436" cy="154.6094" fill="#84BE84" rx="3" ry="3" style="stroke: #038048; stroke-width: 1.0;"/><text fill="#000000" font-family="sans-serif" font-size="11" lengthAdjust="spacingAndGlyphs" textLength="244" x="445" y="157.8198">Satellite(String satelliteName, int strength)</text><ellipse cx="436" cy="167.4141" fill="#84BE84" rx="3" ry="3" style="stroke: #038048; stroke-width: 1.0;"/><text fill="#000000" font-family="sans-serif" font-size="11" lengthAdjust="spacingAndGlyphs" textLength="143" x="445" y="170.6245">String getSatelliteName()</text><ellipse cx="436" cy="180.2188" fill="#84BE84" rx="3" ry="3" style="stroke: #038048; stroke-width: 1.0;"/><text fill="#000000" font-family="sans-serif" font-size="11" lengthAdjust="spacingAndGlyphs" textLength="93" x="445" y="183.4292">int getStrength()</text><ellipse cx="436" cy="193.0234" fill="#84BE84" rx="3" ry="3" style="stroke: #038048; stroke-width: 1.0;"/><text fill="#000000" font-family="sans-serif" font-size="11" lengthAdjust="spacingAndGlyphs" textLength="168" x="445" y="196.2339">void setStrength(int strength)</text><rect fill="#F24D5C" height="6" style="stroke: #C82930; stroke-width: 1.0;" width="6" x="433" y="202.8281"/><text fill="#000000" font-family="sans-serif" font-size="11" lengthAdjust="spacingAndGlyphs" textLength="208" x="445" y="209.0386">boolean strengthIsValid(int strength)</text><!--MD5=[a664fa1bf59865fa43f25e28dac38862]
class TrackData--><rect fill="#FEFECE" filter="url(#flnqm9nk2u2c9)" height="201.6563" id="TrackData" style="stroke: #A80036; stroke-width: 1.5;" width="437" x="37.5" y="295"/><ellipse cx="219.75" cy="311" fill="#ADD1B2" rx="11" ry="11" style="stroke: #A80036; stroke-width: 1.0;"/><path d="M222.7188,316.6406 Q222.1406,316.9375 221.5,317.0781 Q220.8594,317.2344 220.1563,317.2344 Q217.6563,317.2344 216.3281,315.5938 Q215.0156,313.9375 215.0156,310.8125 Q215.0156,307.6875 216.3281,306.0313 Q217.6563,304.375 220.1563,304.375 Q220.8594,304.375 221.5,304.5313 Q222.1563,304.6875 222.7188,304.9844 L222.7188,307.7031 Q222.0938,307.125 221.5,306.8594 Q220.9063,306.5781 220.2813,306.5781 Q218.9375,306.5781 218.25,307.6563 Q217.5625,308.7188 217.5625,310.8125 Q217.5625,312.9063 218.25,313.9844 Q218.9375,315.0469 220.2813,315.0469 Q220.9063,315.0469 221.5,314.7813 Q222.0938,314.5 222.7188,313.9219 L222.7188,316.6406 Z "/><text fill="#000000" font-family="sans-serif" font-size="12" lengthAdjust="spacingAndGlyphs" textLength="64" x="240.25" y="315.1543">TrackData</text><line style="stroke: #A80036; stroke-width: 1.5;" x1="38.5" x2="473.5" y1="327" y2="327"/><rect fill="none" height="6" style="stroke: #C82930; stroke-width: 1.0;" width="6" x="45.5" y="335"/><text fill="#000000" font-family="sans-serif" font-size="11" lengthAdjust="spacingAndGlyphs" textLength="101" x="57.5" y="341.2104">boolean validData</text><rect fill="none" height="6" style="stroke: #C82930; stroke-width: 1.0;" width="6" x="45.5" y="347.8047"/><text fill="#000000" font-family="sans-serif" font-size="11" lengthAdjust="spacingAndGlyphs" textLength="118" x="57.5" y="354.0151">float courseDirection</text><rect fill="none" height="6" style="stroke: #C82930; stroke-width: 1.0;" width="6" x="45.5" y="360.6094"/><text fill="#000000" font-family="sans-serif" font-size="11" lengthAdjust="spacingAndGlyphs" textLength="64" x="57.5" y="366.8198">float speed</text><rect fill="none" height="6" style="stroke: #C82930; stroke-width: 1.0;" width="6" x="45.5" y="373.4141"/><text fill="#000000" font-family="sans-serif" font-size="11" lengthAdjust="spacingAndGlyphs" textLength="148" x="57.5" y="379.6245">LocationDataPoint[] points</text><line style="stroke: #A80036; stroke-width: 1.5;" x1="38.5" x2="473.5" y1="386.2188" y2="386.2188"/><ellipse cx="48.5" cy="397.2188" fill="#84BE84" rx="3" ry="3" style="stroke: #038048; stroke-width: 1.0;"/><text fill="#000000" font-family="sans-serif" font-size="11" lengthAdjust="spacingAndGlyphs" textLength="213" x="57.5" y="400.4292">TrackData(LocationDataPoint[] points)</text><ellipse cx="48.5" cy="410.0234" fill="#84BE84" rx="3" ry="3" style="stroke: #038048; stroke-width: 1.0;"/><text fill="#000000" font-family="sans-serif" font-size="11" lengthAdjust="spacingAndGlyphs" textLength="411" x="57.5" y="413.2339">TrackData(LocationDataPoint[] points, float courseDirection, float speed)</text><ellipse cx="48.5" cy="422.8281" fill="#84BE84" rx="3" ry="3" style="stroke: #038048; stroke-width: 1.0;"/><text fill="#000000" font-family="sans-serif" font-size="11" lengthAdjust="spacingAndGlyphs" textLength="151" x="57.5" y="426.0386">boolean isValidTrackData()</text><ellipse cx="48.5" cy="435.6328" fill="#84BE84" rx="3" ry="3" style="stroke: #038048; stroke-width: 1.0;"/><text fill="#000000" font-family="sans-serif" font-size="11" lengthAdjust="spacingAndGlyphs" textLength="146" x="57.5" y="438.8433">float getCourseDirection()</text><ellipse cx="48.5" cy="448.4375" fill="#84BE84" rx="3" ry="3" style="stroke: #038048; stroke-width: 1.0;"/><text fill="#000000" font-family="sans-serif" font-size="11" lengthAdjust="spacingAndGlyphs" textLength="91" x="57.5" y="451.6479">float getSpeed()</text><ellipse cx="48.5" cy="461.2422" fill="#84BE84" rx="3" ry="3" style="stroke: #038048; stroke-width: 1.0;"/><text fill="#000000" font-family="sans-serif" font-size="11" lengthAdjust="spacingAndGlyphs" textLength="247" x="57.5" y="464.4526">LocationDataPoint[] getLocationDataPoints()</text><rect fill="#F24D5C" height="6" style="stroke: #C82930; stroke-width: 1.0;" width="6" x="45.5" y="471.0469"/><text fill="#000000" font-family="sans-serif" font-size="11" lengthAdjust="spacingAndGlyphs" textLength="193" x="57.5" y="477.2573">boolean speedIsValid(float speed)</text><rect fill="#F24D5C" height="6" style="stroke: #C82930; stroke-width: 1.0;" width="6" x="45.5" y="483.8516"/><text fill="#000000" font-family="sans-serif" font-size="11" lengthAdjust="spacingAndGlyphs" textLength="301" x="57.5" y="490.062">boolean courseDirectionIsValid(float courseDirection)</text><!--MD5=[8f08af1c28be44fd6832cb1896a0d097]
link LocationDataPoint to Satellite--><!--MD5=[e96b2763a3d50575f5bbc736cc72341f]
link LocationDataPoint to TrackData--><!--MD5=[ddcc17eb757ee38a6b6e50da622f33c1]
@startuml AdminHelperPackage

package edu.oakland.helper.admin {
    
}


package edu.oakland.helper.admin {
    class LocationDataPoint {
        - float lat
        - float lng
        - LocalDateTime time
        + LocationDataPoint(float lat, float lng, LocalDateTime time)
        + float getLat()
        + float getLng()
        + LocalDateTime getTime()
        - boolean latIsValid(float lat)
        - boolean lngIsValid(float lat)
        - boolean timeIsValid(LocalDateTime time)
    }
}


package edu.oakland.helper.admin {
    class Satellite {
        - String satelliteName
        - int strength
        + Satellite(String satelliteName, int strength)
        + String getSatelliteName()
        + int getStrength()
        + void setStrength(int strength)
        - boolean strengthIsValid(int strength)
    }
}


package edu.oakland.helper.admin {
    class TrackData {
        - boolean validData
        - float courseDirection
        - float speed
        - LocationDataPoint[] points
        + TrackData(LocationDataPoint[] points)
        + TrackData(LocationDataPoint[] points, float courseDirection, float speed)
        + boolean isValidTrackData()
        + float getCourseDirection()
        + float getSpeed()
        + LocationDataPoint[] getLocationDataPoints()
        - boolean speedIsValid(float speed)
        - boolean courseDirectionIsValid(float courseDirection)
    }
}


@enduml

PlantUML version 1.2020.02(Sun Mar 01 10:22:07 GMT 2020)
(GPL source distribution)
Java Runtime: OpenJDK Runtime Environment
JVM: OpenJDK 64-Bit Server VM
Java Version: 11.0.9+11-Ubuntu-0ubuntu1
Operating System: Linux
Default Encoding: ANSI_X3.4-1968
Language: en
Country: US
--></g></svg>